<svg width="1045" height="578" xmlns="http://www.w3.org/2000/svg" xmlns:xlink="http://www.w3.org/1999/xlink" xml:space="preserve" overflow="hidden"><defs><clipPath id="clip0"><rect x="151" y="1177" width="1045" height="578"/></clipPath></defs><g clip-path="url(#clip0)" transform="translate(-151 -1177)"><path d="M0 75.7579 75.7604 0 1039 0 1039 501.242 963.239 577 0 577 0 75.7579Z" fill="#EDF086" fill-rule="evenodd" fill-opacity="1" transform="matrix(1 -1.22465e-16 -1.22465e-16 -1 155 1755)"/><path d="M0 75.7579 76 0 76 501.242 0 577 0 75.7579Z" fill="#000000" fill-rule="evenodd" fill-opacity="0.196078" transform="matrix(1 -1.22465e-16 -1.22465e-16 -1 1118 1755)"/><path d="M0 74.9999 75.7604 0 1039 0 963.239 74.9999 0 74.9999Z" fill="#FFFFFF" fill-rule="evenodd" fill-opacity="0.196078" transform="matrix(1 -1.22465e-16 -1.22465e-16 -1 155 1755)"/></g></svg>