<svg width="1003" height="568" xmlns="http://www.w3.org/2000/svg" xmlns:xlink="http://www.w3.org/1999/xlink" xml:space="preserve" overflow="hidden"><defs><clipPath id="clip0"><rect x="2452" y="1842" width="1003" height="568"/></clipPath></defs><g clip-path="url(#clip0)" transform="translate(-2452 -1842)"><path d="M0 72.4756 72.5357 0 991 0 991 479.524 918.464 552 0 552 0 72.4756Z" fill="#99FFCC" fill-rule="evenodd" fill-opacity="1" transform="matrix(1 -1.22465e-16 -1.22465e-16 -1 2458 2403)"/><path d="M0 72.4756 72.9999 0 72.9999 479.524 0 552 0 72.4756Z" fill="#000000" fill-rule="evenodd" fill-opacity="0.196078" transform="matrix(1 -1.22465e-16 -1.22465e-16 -1 3376 2403)"/><path d="M0 72.0002 72.5357 0 991 0 918.464 72.0002 0 72.0002Z" fill="#FFFFFF" fill-rule="evenodd" fill-opacity="0.196078" transform="matrix(1 -1.22465e-16 -1.22465e-16 -1 2458 2403)"/><path d="M0 72.4756 72.5357 0 991 0 991 479.524 918.464 552 0 552 0 72.4756ZM0 72.4756 918.464 72.4756 991 0M918.464 72.4756 918.464 552" stroke="#000066" stroke-width="9.16667" stroke-linecap="butt" stroke-linejoin="round" stroke-miterlimit="10" stroke-opacity="1" fill="none" fill-rule="evenodd" transform="matrix(1 -1.22465e-16 -1.22465e-16 -1 2458.5 2403.5)"/></g></svg>