<svg width="160" height="1265" xmlns="http://www.w3.org/2000/svg" xmlns:xlink="http://www.w3.org/1999/xlink" xml:space="preserve" overflow="hidden"><defs><clipPath id="clip0"><rect x="0" y="1177" width="160" height="1265"/></clipPath></defs><g clip-path="url(#clip0)" transform="matrix(1 0 0 1 0 -1177)"><path d="M0 21.05 21.0074 0 160 0 160 1241.95 138.992 1263 0 1263 0 21.05Z" fill="#70720E" fill-rule="evenodd" fill-opacity="1" transform="matrix(1 -1.22465e-16 -1.22465e-16 -1 7.35235e-14 2441)"/><path d="M0 21.05 21 0 21 1241.95 0 1263 0 21.05Z" fill="#000000" fill-rule="evenodd" fill-opacity="0.196078" transform="matrix(1 -1.22465e-16 -1.22465e-16 -1 139 2441)"/><path d="M0 21 21.0074 0 160 0 138.992 21 0 21Z" fill="#FFFFFF" fill-rule="evenodd" fill-opacity="0.196078" transform="matrix(1 -1.22465e-16 -1.22465e-16 -1 0 2441)"/></g></svg>