<?xml version='1.0' encoding='utf-8'?>
<svg xmlns="http://www.w3.org/2000/svg" width="500.061mm" height="240.953mm" version="1.1" style="shape-rendering:geometricPrecision; text-rendering:geometricPrecision; image-rendering:optimizeQuality; fill-rule:evenodd; clip-rule:evenodd" viewBox="0 0 50871 24512"> <defs> <style type="text/css">  .fil0 {fill:black} .fil1 {fill:white}  </style> </defs> <g id="Vrstva_x0020_1"> <metadata id="CorelCorpID_0Corel-Layer"/> <g id="_99618408"> <rect class="fil0" width="50871" height="24512"/> <g> <path class="fil1" d="M49477 23177c-343,-8 -3039,83 -3145,13l-127 -244c-49,-137 -40,-116 -119,-240 -441,-694 -479,-680 -939,-1268 -427,-546 -909,-1080 -1311,-1665 -209,-304 -365,-598 -580,-904l-1634 -2420c-75,-181 4,-151 -41,-284 -100,-79 -190,-94 -297,-178l-2305 -2131c-180,-175 -364,-298 -532,-478 -178,-191 -323,-321 -509,-499l-390 -334c-112,-96 -81,-36 -127,-184 228,-171 1037,-185 1300,-197 475,-20 879,-108 1353,-109 974,-3 1863,-102 2819,-156 908,-52 1918,5 2911,47 257,12 344,113 474,259 133,149 246,236 382,383 246,267 474,545 723,806 261,275 456,503 692,799l1056 1196c131,154 269,221 285,475 30,472 -12,1044 -9,1532 9,1300 211,3049 144,4274l-74 1507zm-3480 28c-1304,-31 -3025,147 -4107,123 301,-830 -467,-5770 -363,-6567l562 786c179,282 351,524 538,822 182,287 403,517 575,793 108,173 144,247 268,412 115,154 149,264 273,408 216,249 369,520 593,775 413,469 1563,1891 1661,2448zm-4190 123l-2396 27c-6,-19 -24,-35 -15,-40 9,-5 -12,-24 -15,-31l-80 -209c-101,-276 -223,-443 -343,-853 -123,-423 -296,-801 -403,-1190 -117,-426 -216,-825 -339,-1213 -217,-688 -329,-1968 -474,-2659 -87,-419 -135,-951 -198,-1386 -124,-848 -255,-2113 -156,-3019 270,120 773,651 995,880 183,190 329,262 498,430 503,499 975,880 1467,1397l735 675c370,278 129,507 193,1202l426 5586c23,123 79,232 105,403zm-4578 -15989l129 -1297c322,-133 702,-392 970,-366 570,56 1029,912 2162,543 182,-60 341,-119 531,-186 253,-90 235,-141 592,-172 -216,883 -921,1628 -1753,1663 -246,10 -544,-56 -756,-122 -386,-120 -706,-500 -1278,-330 -286,85 -366,221 -597,267zm-1706 15089c-10,-10 186,-264 217,-348l-552 702c-99,149 -94,183 -248,213 -22,-381 123,-682 141,-1056 -192,480 -181,762 -246,1167 -41,253 35,114 -97,155 -145,-7 -89,-70 -80,-446 4,-151 -9,-352 -51,-474l-26 918c-790,50 -511,215 -581,-3319 -11,-529 2,-1086 -31,-1623 -17,-275 -1,-566 63,-778 88,-294 90,-112 205,-288 83,-128 -52,-40 290,-523 220,-312 42,20 345,-503l528 -768c132,-176 223,-340 353,-534l1033 -1560c82,-142 216,-460 320,-558l82 2573c-13,858 61,1768 66,2622 5,860 35,1803 -31,2701 -30,409 -101,849 -98,1286 2,420 15,950 -4,1339l-1852 -11c32,-115 -15,-39 96,-138 130,-116 237,-163 378,-336 -160,68 -372,317 -690,398 141,-564 777,-725 893,-900 -88,-44 -168,17 -277,83l-146 6zm246 -349c15,-8 72,-169 8,-47 0,0 -84,89 -8,47zm-3888 1117c-174,133 -2092,49 -2260,25l-130 -36c-32,-109 335,-631 419,-728 116,-133 148,-172 268,-338 78,-110 211,-224 314,-333 461,-487 142,-87 564,-687 293,-418 284,-352 559,-694 354,-438 661,-987 1015,-1494l819 -1038c94,-123 197,-274 337,-327 -103,573 -83,677 -32,1346 31,418 4,1009 20,1445l14 2177c-14,256 -46,484 -35,748l-1706 -32c23,-315 709,-1138 626,-1323l-609 904c3,-170 109,-1143 149,-1197 -99,61 -176,879 -214,1009l-22 60c-28,57 -25,40 -53,72 -66,-151 -99,-300 -182,-457l-156 -361c-3,-11 -5,-22 -8,-32l-20 -63c-3,-8 -6,-22 -11,-32 -139,87 -50,117 12,236 154,299 285,558 301,929 -353,-61 -383,-226 -623,-317 50,185 -27,38 127,160 203,160 422,261 517,378zm-4502 -2915c26,-180 325,-631 463,-897 91,-175 67,-206 262,-180 69,148 36,179 -45,317 -147,251 -319,790 -430,953l-250 -193zm-155 -131c-88,-179 232,-659 324,-867 40,-92 102,-267 219,-204 133,73 -28,278 -178,571 -50,99 -91,176 -141,266 -21,38 -41,83 -73,128 -134,185 -74,58 -151,106zm-197 188c103,47 1197,999 1241,1116 26,70 67,24 -10,94 -102,92 -548,-424 -653,-536 -125,-132 -523,-529 -578,-674zm-273 -557l463 -640c122,-128 113,-119 299,-133 -120,329 -291,658 -430,981 -137,-50 -202,-133 -332,-208zm-539 1579l67 -208c144,73 64,-23 130,160l-197 48zm-757 573c-13,-21 -102,-43 -18,-150 121,-152 5,-4 68,-22 88,-25 -12,94 101,-50 0,0 40,-73 43,-79l232 -460c28,-57 40,-90 84,-159 86,-133 10,-58 127,-131l116 115c-79,568 -201,518 -518,756l-46 33c-164,137 -8,72 -189,147zm2599 -276l-69 66c-45,45 -20,16 -55,57 -147,-64 -235,-180 -339,-285 -127,-129 -213,-181 -338,-307l-1210 -1288c-105,-113 -215,-180 -323,-283 -104,-97 -270,-193 -325,-331 305,24 1206,625 1465,1058l1175 1288c4,5 13,16 19,25zm-2635 84c-95,-111 -77,-118 -114,-269l257 -428c90,-177 143,-337 288,-408 85,125 109,80 34,279l-387 763c-49,52 -22,25 -78,63zm2311 150c-45,77 -78,114 -126,179 -249,-62 13,40 -346,-296 -121,-114 -170,-182 -308,-296l-1217 -1280c-587,-416 -550,-347 -474,-719 378,146 1034,924 1288,1162 209,196 388,408 590,618l593 632zm-2146 -1460c-24,145 -260,604 -358,747l-78 107c-126,-54 0,5 -115,-63 -24,-14 -66,-43 -101,-62 -79,-41 -152,-61 -239,-91 22,-221 6,-158 104,-295 133,-185 22,-40 65,-226l194 -406c4,-9 9,-21 13,-29l27 -57c179,56 369,233 488,375zm-1568 660l1057 -2512 308 58c-64,228 -174,370 -256,578 -103,261 -352,1002 -460,1172 -220,344 -129,157 -203,615 -172,45 -292,62 -446,89zm-650 387c45,-99 14,-21 41,-91 288,-758 753,-1470 1075,-2216 132,-306 289,-831 447,-664 69,73 -29,191 -115,386l-500 1208c-76,164 -133,210 -192,378 -308,884 -104,407 -664,917 -6,6 -15,15 -22,20l-70 62zm822 -5766c61,45 76,57 137,118l423 423c461,415 133,566 420,688 245,-229 8,-488 -110,-674 -163,-255 67,-151 92,-802 25,-637 -100,-1463 217,-1933 197,111 481,609 537,794 304,1011 -102,837 469,2232 132,321 35,889 329,888 78,-664 -219,-40 326,-974 75,-129 78,-222 180,-319 174,418 295,804 645,1113 166,147 307,261 289,603 -15,283 -191,560 164,597 31,-206 -115,-469 304,-875 67,-64 30,-51 137,-81 -73,856 522,1651 -14,2804 -114,245 -277,544 -343,769 -129,-36 -481,-331 -580,-440 148,-477 619,-1161 560,-1505 -37,-215 -962,-423 -1123,-371 -119,39 -581,703 -661,823 -258,-51 -349,-175 -564,-298 -190,-109 -368,-173 -511,-314 57,-190 162,-256 127,-501 -111,-63 -1122,-400 -1262,-400 -90,122 -4,69 -231,363 -225,293 -588,816 -723,1142 -334,-15 -418,35 -634,-158 -598,-534 199,-1330 670,-2029 211,-313 362,-722 519,-1062 47,-103 79,-195 106,-298l60 -229c41,-108 6,-39 45,-94zm-1064 5933c-7,-9 -29,-22 -21,-27l-138 -199c-68,-98 -94,-115 -158,-206 64,-176 279,-589 393,-746 149,-203 413,-866 600,-1144l480 -695c170,-213 91,-269 391,-238 -81,298 -251,569 -361,838 -241,584 -774,1502 -972,1995 -43,109 -131,335 -214,422zm2201 706c258,-90 684,-704 1070,-778 349,-66 510,136 642,293 447,532 120,105 369,586 322,-42 359,-324 690,-535 101,-64 174,-77 246,-147 127,40 72,33 102,48 114,59 587,73 390,744 -53,181 -126,285 -152,448l-31 171c-719,11 -2586,70 -3266,44 -373,-14 -792,-33 -1163,-20 -210,7 -2259,133 -2435,9 -198,-138 75,-25 -283,-162 -780,-299 -513,-2363 1020,-1688 257,113 355,366 419,716 54,294 -30,304 -46,513 -18,250 181,281 263,64 48,-126 75,-286 134,-441 62,-166 109,-236 174,-392 158,-377 256,-401 684,-498 146,-33 685,-57 842,206l110 176c194,335 -87,487 221,643zm-5988 840c74,-271 92,-358 259,-560 68,-83 112,-135 185,-217 74,-84 159,-159 170,-238 -327,176 -453,594 -686,846l15 -810c-46,108 -57,318 -85,449 -56,261 -26,310 -135,461l-398 -685c-1,152 73,257 117,387 38,114 109,241 101,362l-25 87 -1289 10 159 -742c79,-359 -62,-1009 -521,-1208 -266,-116 -470,-148 -804,-141 -36,-304 -93,-279 -103,-654 -6,-213 -53,-504 -95,-703 -88,-409 -271,-843 -369,-1227 -53,-206 101,-318 154,-576 144,-703 171,-1628 85,-2313 156,71 64,22 183,136 255,242 438,544 633,851 366,577 1020,1114 1315,1711 -299,159 -406,83 -531,461 -341,1032 1469,1140 1617,268 42,-245 -186,-568 -296,-668 -134,-121 -242,-74 -417,-118 -225,-55 -581,-640 -732,-834l-490 -556c-70,-70 -587,-875 -859,-1191l-422 -420c-72,-55 -35,-7 -82,-83 -26,-41 -127,-314 -150,-372 -164,-428 217,-346 378,-1039 103,-446 122,-326 366,-698 132,-201 688,-1213 610,-1443 -263,-68 -396,119 -612,153 -30,-141 -229,-1626 -490,-1646 -180,55 -127,133 -154,342 -20,152 -66,332 -72,520 -269,27 -897,-424 -1223,-550 -231,-89 -1196,-454 -1392,-415 -26,149 335,828 355,1364 -705,17 -1503,-228 -2115,49 -50,289 267,276 682,599 164,128 151,131 140,397 -110,56 -238,122 -379,176 -130,51 -280,80 -423,136 -264,105 -535,218 -548,553 372,252 558,318 982,455 211,68 417,-34 503,201 77,209 144,404 287,587 95,122 104,91 163,213 -45,88 -432,536 -518,627l-402 447c-54,52 -86,92 -136,147 -373,413 -764,755 -1098,1192 -494,-22 -644,-308 -1084,70 -268,230 -429,522 -438,1020 -426,-56 -897,-243 -1278,-365 -331,-105 -1862,-737 -1957,-850 13,-118 324,-236 428,-316 127,-98 278,-242 385,-377 533,-675 -6,-1522 -598,-1954 -615,-449 -1761,-507 -2368,-81 -468,329 -1180,1320 -1077,1956 67,409 383,715 750,820 -86,257 -215,223 -374,448 -328,464 -704,939 -953,1439 -504,-72 -807,-442 -1382,119 -245,240 -231,688 -105,956 81,172 138,273 291,342 507,227 1651,-124 1564,-790 -69,-537 -698,-20 752,-1931 108,-143 210,-257 385,-295 -22,463 -45,960 -69,1398 -24,428 124,939 112,1294 -6,141 -149,346 -191,525 -149,648 -262,1192 -345,1872 -405,63 -617,184 -836,487 -100,140 -76,250 -43,444 -234,7 -459,21 -717,20 -248,-1 -466,-46 -474,200 143,66 1148,-3 1409,-33 265,-31 2311,82 3085,49 484,-20 988,-69 1500,-75 987,-13 2077,-2 3048,-73 744,-53 1514,-107 2276,-105 601,1 445,114 1056,16l2773 18c503,16 1085,-64 1515,-37 448,28 1047,9 1518,-9 508,-21 1050,12 1564,13 490,1 1045,-24 1528,-23 525,1 1031,-42 1534,-49 532,-7 1080,13 1612,20 1025,14 2083,-47 3104,-13 1051,36 2118,47 3142,53 532,3 1001,-38 1534,-4 471,29 1057,45 1451,28 260,-11 483,41 762,44l3073 55c785,-68 1555,8 2336,-33 1487,-77 3025,-105 4509,-118 312,-3 459,-50 721,40 139,48 181,-58 689,-49 466,9 1101,32 1558,-5 503,-41 1091,38 1569,1l82 -157c-102,-96 -214,-80 -324,-151 -2,-1033 73,-1978 9,-2985 -31,-493 -28,-945 -55,-1450 -26,-480 -75,-960 -80,-1450 -5,-484 57,-1071 30,-1535 -9,-164 -561,-703 -701,-855l-717 -812c-254,-285 -458,-583 -724,-846l-1092 -1202c-182,-237 -153,-196 -526,-244 -892,-115 -2056,-115 -2990,-93l-1395 105c-469,38 -968,80 -1469,72 -522,-9 -912,103 -1413,100 -510,-4 -977,184 -1376,153 -18,-543 -107,-1809 -68,-2266l44 -2308c392,129 228,-75 658,-223 383,-132 522,33 784,164 426,213 1087,368 1609,198 407,-132 929,-547 1131,-833 176,-251 303,-821 547,-957 206,-115 241,-3 313,-196 -67,-255 -349,-83 -577,-33 -1198,257 -1452,839 -2717,117 -559,-319 -708,-380 -1281,-95 -277,138 -391,72 -614,254 -46,607 -177,4015 -116,4644 56,576 245,1578 -35,2092 -282,516 -881,1500 -1211,1950l-990 1437c-108,171 -197,311 -305,464 -178,252 -426,450 -540,633 -57,91 -23,55 -90,113l-472 536c-488,625 -909,1182 -1344,1851 -366,562 -807,1007 -1009,1337 -310,505 -431,501 -726,851 -298,354 -885,956 -1026,1407l-320 -7c125,-566 413,-969 12,-1475 -142,-179 -282,-163 -351,-340 -70,-211 531,-995 620,-2052 35,-413 -63,-827 -155,-1188 -123,-482 43,-980 -25,-1226 -228,-7 -234,127 -327,261 -100,144 -185,241 -273,372l-183 -248c-261,-319 -339,-298 -588,-739 -494,-877 116,-1001 -128,-1364 -201,-27 -184,133 -242,287l-440 986c-95,169 -24,91 -167,151 -97,-265 -258,-598 -322,-870 -165,-707 -6,-1289 -444,-1937 -147,-218 -319,-605 -621,-617 -103,169 -156,404 -205,607 -158,664 15,1624 -220,2161 -178,-61 -315,-222 -422,-354 -175,-214 -60,-355 -206,-544 -275,34 -180,354 -263,666 -118,447 -322,955 -560,1355 -317,531 -1086,1379 -1055,1778 46,578 348,892 924,958 -34,133 -91,216 -138,318 -92,196 -86,138 -191,300 -127,196 -224,432 -339,630 -620,-79 -1216,-263 -1596,480 -259,505 -238,1046 146,1480 37,42 39,35 77,88 63,85 23,21 70,114l-1817 23c128,-428 518,-562 850,-745 -42,-32 -68,-101 -290,18 -276,147 -426,361 -625,581 -55,60 -19,21 -62,63zm-838 -3690c-337,35 -656,-147 -666,-374 -15,-339 276,-466 553,-535 766,-192 934,825 113,909zm-2143 3777c-858,51 -656,-1630 -280,-1743 160,-48 616,-107 801,-62 604,145 649,596 588,1148 -89,816 -373,613 -1109,657zm-1844 -10926c329,109 838,233 1095,413 265,187 728,1144 -86,1760 -99,75 -101,117 -214,193 -1279,854 -2967,18 -2564,-1200 124,-376 296,-757 532,-973 251,-230 801,-337 1237,-193zm1082 2518c72,323 202,508 257,1065 39,405 42,905 3,1328 -106,1137 -157,1309 -1277,1444 -246,30 -1021,33 -1233,-73 -284,-142 -220,-718 -276,-1087 -94,-619 -6,-525 -27,-879 -24,-420 84,-807 176,-1205 14,-56 15,-80 32,-132l70 -153c614,128 1038,259 1733,-73 156,-74 397,-209 542,-235zm-2468 6925c-20,-267 56,-438 75,-687l162 -2020c41,-149 -2,-60 70,-158 679,-3 1005,93 1696,-77 173,-43 309,-112 446,-143 232,236 479,1465 490,1863 9,350 72,422 100,696 -473,171 -421,50 -614,880 -161,694 74,833 174,1131 -384,52 -820,35 -1236,10 49,-216 487,-757 164,-1381 -213,-410 -1084,-78 -1527,-114zm280 246c-37,163 -295,657 50,670 -40,-281 -64,-696 273,-743 -36,158 -205,609 -20,720 65,-209 -35,-368 139,-718l279 -1 -65 837c97,-29 126,-525 148,-647 25,-140 0,-129 92,-217 165,102 144,51 197,281 126,552 -248,806 -352,1095 -266,-12 -531,-24 -796,-35 -354,-14 -362,45 -473,-306 -122,-386 -68,-824 156,-909 71,-27 277,-28 372,-27zm-2142 -8800c493,-453 1337,-244 1280,-931 -26,-322 -494,-398 -670,-697 304,-21 1855,76 1918,40 46,-38 53,63 64,-108 1,-15 -23,-111 -32,-145l-243 -1008c216,36 454,133 629,197l616 237c315,138 804,533 1141,531 85,-105 67,-72 93,-254 51,-365 57,-273 115,-332 98,329 158,1284 244,1453 304,36 157,-161 484,-225 -83,295 -300,766 -461,1013 -77,118 -142,177 -208,276l-95 -127c-16,-29 -37,-88 -61,-137 -191,-397 -254,-420 -618,-584 -756,-340 -1880,-642 -2450,73 -200,251 -473,715 -536,1130 -208,2 -493,-50 -688,-97 -271,-65 -437,-69 -522,-305zm-1338 5749c-710,52 -540,-781 -441,-1045 373,-998 1098,-375 1265,-389 146,-13 98,-189 202,95 218,598 -356,1291 -1026,1339zm-2749 4164c30,-156 -107,-94 -32,-351 41,-139 133,-237 281,-279 6,12 -1,29 13,36 53,28 -8,300 -10,321 -12,135 -2,209 103,256 46,-62 -57,-615 147,-615l69 -8c177,14 271,156 331,322 56,159 139,415 122,610l-1706 28c10,-678 99,-592 313,-712 175,-98 25,-85 268,-122 -37,123 -111,349 5,478 106,117 -133,-66 36,27 61,34 16,19 60,9zm2023 -4508c62,959 1681,647 1990,-439 47,-168 53,-348 -5,-512l-193 -282c-7,-7 -16,-16 -23,-23l-47 -54c107,-79 245,-313 534,-548 218,-176 328,-342 533,-557 214,-224 314,-301 512,-576 92,-128 416,-478 534,-552 -14,266 -112,645 -169,886 -74,317 -67,693 -77,1042 -10,356 65,663 94,978 56,603 16,416 269,804 -9,355 -93,747 -126,1093 -67,704 26,1397 -287,2098 -199,446 -153,405 -180,747 -14,187 -42,128 -60,279 44,51 65,74 112,119 82,80 61,49 121,135 -722,-1 -1331,9 -2031,43 137,-390 540,-570 683,-849 -300,123 -545,448 -731,688 -136,175 -68,193 -320,197l108 -171c38,-51 58,-91 90,-148 257,-463 583,-746 618,-850 -184,40 -240,165 -360,289 -56,59 -91,102 -141,180 -25,38 -39,71 -60,99l-132 119c42,-261 132,-398 216,-595 77,-180 221,-364 255,-519 -263,216 -373,561 -506,862 -88,198 -63,235 -200,327 -83,-266 -67,-634 -193,-901 8,301 53,386 81,659l78 667 -1697 51c-6,-367 -169,-863 -451,-1072 -420,-311 -869,-37 -1216,71 -122,-134 -139,-306 -259,-558 -94,-196 -160,-358 -248,-551 -795,-1726 -346,-860 -174,-1679 208,-990 -79,-1379 -133,-2204l1547 647c521,226 1067,378 1644,560zm-6204 -2362c-86,-555 577,-1680 1414,-1891 274,-70 478,-84 760,-21 156,34 200,66 328,85 530,80 906,456 1154,876 313,531 131,798 -203,1161 -405,441 -1782,865 -2573,586 -492,-174 -793,-238 -880,-796zm2676 979c165,311 574,2035 63,2693 -214,276 -312,217 -727,318 -214,52 -769,152 -951,17 -349,-258 -227,-2568 -119,-2875 10,-4 24,-7 32,-8 103,-12 403,28 871,-8 292,-23 563,-160 831,-137zm-1136 6240c-52,-287 -264,-512 -508,-620 -661,-290 -554,12 -614,-258 -70,-317 288,-1795 434,-2169 450,124 319,144 876,80 234,-27 714,-143 910,-131 218,520 856,1784 923,2189 -244,176 -334,506 -347,908 -501,17 -1164,68 -1674,1zm-2032 -34c26,-359 271,-648 562,-657l117 175c282,23 479,-26 714,89 207,101 298,214 343,466l-1736 -73zm-1685 -3644c-112,-896 1264,-880 1461,-191 115,404 -323,585 -636,661 -488,117 -769,-17 -825,-470z"/> <path class="fil1" d="M27587 4073c84,-464 761,-1205 1130,-1394 418,-215 669,35 1054,67 326,27 916,43 1206,-19 731,-156 1192,-654 1886,-53 597,518 1338,118 2150,194 -39,157 -61,558 -82,742 -91,791 331,963 -602,1047 -396,36 -1040,26 -1327,325 -146,153 -230,307 -511,344 -130,17 -1150,-121 -1291,-183l-145 -82c-8,-5 -22,-14 -32,-22 70,-399 102,-866 -287,-996 -352,-117 -758,14 -1046,155 -486,237 -870,388 -1625,110l-478 -235zm-6341 938c-219,-497 298,-867 722,-905 268,-23 147,14 338,-96 695,-401 1417,-604 2238,-409 397,95 755,377 1192,475 566,126 804,-262 2153,312 1063,453 1308,191 1931,-61 1435,-582 1125,589 890,934 -62,89 -129,187 -192,255 -93,100 -125,94 -221,181 -298,274 -529,504 -1088,561 -827,84 -2283,256 -3040,-21 -614,-224 -606,-690 -930,-702 -214,-7 -930,281 -1372,221 -576,-80 -146,-210 -1239,-427 -460,-91 -959,-56 -1159,-116 -185,-55 -165,-69 -223,-202zm9651 280c134,43 227,101 364,129l1288 110c605,-95 206,-461 1192,-647 669,-126 1262,89 1374,-445 31,-147 76,-1717 60,-1760 -157,-108 -836,5 -1112,39 -551,69 -803,24 -1112,-242 -765,-656 -1234,-82 -2020,58 -234,41 -1085,11 -1295,-35 -478,-104 -714,-348 -1432,265l-605 763c-89,144 -163,291 -243,454 -452,3 -729,-104 -1243,-62 -352,29 -808,-165 -1078,-303 -809,-412 -1354,-334 -2237,-75l-696 301c-8,4 -17,11 -25,15 -8,4 -18,11 -26,15l-56 25c-249,90 -693,98 -919,640 -163,390 -32,729 310,861 209,80 386,56 624,58 291,2 411,48 647,102 257,58 323,21 552,149 179,101 226,155 471,214 339,82 866,-11 1178,-107 880,-269 431,651 1883,756 739,53 1809,-65 2539,-133 613,-57 1333,-636 1617,-1145z"/> <path class="fil1" d="M43042 9115c-101,-453 49,-795 505,-809 763,-25 228,326 1757,61 193,-34 729,-19 912,-72 70,-21 504,-269 753,58 155,203 91,640 -476,822 -350,111 -769,144 -1161,184 -563,58 -716,-282 -1151,-219 -153,23 -431,236 -1139,-25zm872 -958c-245,-51 -482,-103 -698,18 -517,288 -508,849 -353,1066 122,171 360,153 619,178 390,37 285,84 659,-37 280,-91 376,7 595,111 460,219 2132,26 2418,-536 74,-145 146,-493 40,-663 -307,-494 -936,-227 -1171,-191 -245,39 -519,6 -758,38 -196,26 -570,34 -733,65 -199,39 3,117 -311,28 -126,-36 -152,-44 -307,-77z"/> <path class="fil1" d="M7971 6023c226,-14 599,-653 1269,-728 378,-43 571,84 756,267 219,216 184,506 510,334 -76,-303 -738,-1243 -1830,-644 -100,55 -214,118 -305,176 -134,86 -186,157 -310,210 -133,-156 -149,-253 -372,-349 -399,-170 -756,-163 -1084,185 -89,95 -249,341 -231,512 375,189 176,-467 775,-568 169,-29 476,64 572,148 159,138 139,310 250,457z"/> <path class="fil1" d="M6120 7669c155,-179 140,-618 859,-621 986,-4 690,452 1037,525 91,-124 90,-201 -160,-480 -267,-298 -1134,-393 -1544,-67 -42,33 -54,51 -105,92l-158 103c-133,-133 -341,-623 -974,-374 -163,63 -927,572 -623,734 125,66 263,-232 351,-324 124,-128 253,-227 487,-250 632,-62 483,570 830,662z"/> <path class="fil1" d="M12389 7371c320,18 324,-396 751,-546 715,-251 672,496 914,303 150,-119 -391,-858 -1177,-406 -215,124 -203,242 -375,321l-75 -101c-559,-857 -1417,-265 -1359,195 381,74 138,-522 754,-420 426,71 507,524 567,654z"/> <path class="fil1" d="M14643 14468c74,-102 64,-38 92,-162 -146,-78 -559,-104 -794,-148l176 -82c482,-150 385,8 998,-312 409,-214 199,-343 18,-270 -231,94 -675,514 -1643,351 -168,198 111,412 295,505 179,90 633,143 858,118z"/> <path class="fil1" d="M5793 4339c209,-108 236,-502 542,-551 509,-82 695,240 790,279 254,-255 -165,-442 -547,-478 -519,-47 -586,177 -797,432 -305,-103 -257,-450 -802,-324 -737,171 -667,972 -294,387 88,-139 224,-196 404,-208 382,-25 439,389 704,463z"/> <path class="fil1" d="M6127 15708c-219,-126 -309,-1 -552,82 -230,79 -406,141 -659,172 -862,104 -1314,-457 -1272,-79 13,116 402,236 531,269 195,51 597,54 806,25 220,-29 425,-96 626,-160 110,-35 198,-62 310,-89 172,-42 197,-14 210,-220z"/> <path class="fil1" d="M34508 3257c-67,128 42,533 -292,728 -258,150 -545,51 -862,173 -186,71 -528,428 -1047,477 -160,16 -355,-5 -483,17 161,295 1035,-18 1305,-200 747,-504 856,-76 1315,-436 119,-94 415,-865 64,-759z"/> <path class="fil1" d="M45876 12275c-103,-72 -582,-15 -766,-5l-1616 43c-197,-12 -554,-90 -701,11 155,110 1298,76 1504,76l1454 -16c192,-32 92,9 125,-109z"/> <path class="fil1" d="M27872 18510c-333,-378 -157,-414 -167,-687 -10,-280 -317,-308 -425,-525 -85,-228 167,-437 -129,-492 -44,112 -80,427 -25,571 58,151 267,198 354,330 92,140 -48,922 392,803z"/> <path class="fil1" d="M26062 18481c281,-332 -134,-913 -143,-950l-65 -884c13,-209 31,-183 -25,-282 -145,54 -97,24 -107,196 -26,442 36,345 47,568 4,101 -13,225 -9,325 8,227 122,235 203,441 72,182 31,337 65,487 17,79 11,58 34,99z"/> <path class="fil1" d="M43105 16095c2,306 242,159 541,155 176,-2 637,-51 699,-178 143,-293 -390,-50 -508,-31 -301,49 -519,-61 -732,54z"/> <path class="fil1" d="M13519 15365c-204,28 -89,20 -162,671 -27,241 -37,603 -28,844 214,-52 132,-72 154,-719 6,-189 101,-680 36,-796z"/> <path class="fil1" d="M46660 15781c-187,-23 -284,54 -504,58 -249,4 -359,-45 -502,98 54,232 264,99 535,91 274,-8 573,48 471,-247z"/> <path class="fil1" d="M23899 17807c132,-443 341,-614 541,-1455 -199,-25 -208,85 -237,253 -151,852 -428,981 -442,1226 142,18 65,24 138,-24z"/> <path class="fil1" d="M48806 15847l2 -119c-143,-89 -824,-64 -1017,-43 -37,253 167,177 418,176 190,0 456,41 597,-14z"/> <path class="fil1" d="M36650 14504c-207,-54 -161,56 -422,496 -138,231 -329,484 -344,662 219,-45 393,-587 591,-853 78,-105 175,-165 175,-305z"/> <path class="fil1" d="M25008 22849c19,-49 56,77 18,-86l-24 -47c-50,-55 -31,-21 -113,-52 -481,-179 -305,-366 -365,-634 -140,-3 -288,7 -359,101l118 40c2,0 103,2 120,4 -8,284 31,373 185,496l420 178z"/> <path class="fil1" d="M49181 22831c-144,-105 -650,-16 -864,14 -155,23 -802,21 -814,27 119,165 683,68 893,40 543,-72 822,97 785,-81z"/> <path class="fil1" d="M4202 19114c79,-16 79,17 110,-73 41,-122 -73,-213 -70,-514 1,-226 55,-512 78,-766 -111,47 -69,-92 -131,272 -58,342 -103,754 13,1081z"/> <path class="fil1" d="M42316 22535c204,-219 632,-283 722,-585 -200,-44 -130,-9 -256,123 -118,123 -753,419 -676,578 80,162 166,-69 210,-116z"/> <path class="fil1" d="M22895 4892c-53,-60 -279,-204 -100,-530 135,-245 341,-152 319,-375 -546,-3 -673,1138 -219,905z"/> <path class="fil1" d="M26596 22494c97,138 326,316 453,382 104,-176 -20,-217 -149,-279 -178,-87 -138,-99 -243,-236 -337,1 -472,15 -479,155l418 -22z"/> <path class="fil1" d="M21579 22388c64,-99 28,-143 82,-274 77,-188 401,-464 613,-308 52,39 -12,40 82,69 70,-69 90,-73 63,-204 -388,-103 -828,143 -876,522 -4,35 -7,78 -1,112 13,84 9,42 37,83z"/> <path class="fil1" d="M45566 12832c-143,-82 -754,56 -956,69 -356,21 -245,28 -284,108 189,49 1108,-66 1240,-177z"/> <path class="fil1" d="M47987 15009c-87,6 -945,124 -1060,192 69,89 1,83 288,37 618,-100 916,9 772,-229z"/> <path class="fil1" d="M42468 22778c-86,73 -141,118 -108,249 112,-57 102,-113 220,-217 256,-226 642,-399 670,-585 -152,1 -639,432 -782,553z"/> <path class="fil1" d="M24432 17610c131,-38 83,-11 103,-145 42,-286 178,-596 110,-790 -212,24 -118,177 -161,421 -18,109 -113,433 -52,514z"/> <path class="fil1" d="M4636 17785c-136,16 -94,-8 -107,180 -23,316 -102,535 6,716 66,-65 128,68 95,-156 -66,-455 107,-473 6,-740z"/> <path class="fil1" d="M29672 5077c-51,148 -157,279 -138,423 167,-8 159,-152 224,-321 56,-146 140,-295 151,-435 -200,-22 -168,138 -237,333z"/> <path class="fil1" d="M25566 15549l77 -243c36,-193 66,-384 35,-578 -25,-154 -9,-167 -168,-177 -16,261 117,399 60,746l-4 252z"/> <path class="fil1" d="M13818 16351c61,-100 12,-265 13,-423 4,-422 61,-418 -72,-484 -111,144 -35,812 59,907z"/> <path class="fil1" d="M23266 5177c63,-111 -4,-266 9,-436 13,-180 60,-287 90,-444 -291,59 -204,730 -99,880z"/> <path class="fil1" d="M32965 3529c-153,39 -268,152 -431,226 -183,83 -387,130 -451,268 170,-31 842,-298 882,-494z"/> <path class="fil1" d="M33315 3781c-210,31 -228,194 -721,324l-110 41c284,146 793,-239 831,-365z"/> <path class="fil1" d="M23770 22708c-21,29 -177,297 -187,329 165,-13 175,-75 248,-181 162,-234 152,-40 232,-204 -89,-140 -241,-16 -293,56z"/> <path class="fil1" d="M29967 5485c125,-58 48,19 143,-143 76,-128 337,-483 179,-596l-322 739z"/> <path class="fil1" d="M16315 22616c-204,-289 -15,-841 159,-845 91,35 124,-122 96,123 37,-62 59,-115 67,-219 -222,17 -379,191 -434,363 -47,147 -94,532 112,578z"/> <path class="fil1" d="M48736 22538c-66,-35 92,-37 -112,-26 -55,2 -84,17 -128,27l-812 144c190,51 914,-50 1052,-145z"/> <path class="fil1" d="M13998 12968l201 10c48,-219 22,-270 -195,-250 -39,76 -73,155 -6,240z"/> <path class="fil1" d="M48031 14662c-125,-52 -815,145 -920,219l834 -153c149,-59 37,-6 86,-66z"/> <path class="fil1" d="M16681 22631c-24,-145 -56,-228 4,-409 58,-175 119,-192 167,-279 -197,4 -458,636 -171,688z"/> <path class="fil1" d="M14878 12941c-57,135 -7,319 193,197 131,-80 64,-240 -193,-197z"/> <path class="fil1" d="M36790 15118c-105,28 -364,453 -369,624 63,-72 139,-178 205,-277 72,-107 177,-225 164,-347z"/> <path class="fil1" d="M4960 14975c62,-104 41,-157 -17,-245 -299,3 -276,300 17,245z"/> <path class="fil1" d="M5723 14883c-130,-99 -237,-61 -234,142 166,103 298,70 234,-142z"/> <path class="fil1" d="M22388 21971c-212,-87 -378,215 -419,405 121,4 56,-71 183,-208 99,-108 178,-111 236,-197z"/> <path class="fil1" d="M43719 22679c-156,-4 -333,194 -460,258 48,49 38,59 103,30 244,-109 261,-150 357,-288z"/> <path class="fil1" d="M17017 22694c22,-38 158,-460 67,-588 -48,126 -112,450 -67,588z"/> <path class="fil1" d="M45548 13175c-183,-36 -430,20 -559,87 120,62 468,-33 559,-87z"/> <path class="fil1" d="M4863 18420c103,-102 62,-173 92,-389 -84,37 -99,38 -121,147 -28,134 -10,180 29,242z"/> <path class="fil1" d="M28302 22398l-53 205c162,8 8,14 214,-100 192,-105 -37,31 68,-29 -80,-78 -68,-78 -229,-76z"/> <path class="fil1" d="M43035 16723c-38,-28 11,-40 -85,-42 -99,-3 -63,9 -95,20 -93,35 -112,63 -149,134 183,-8 227,-18 329,-112z"/> <path class="fil1" d="M43207 17070c49,-93 76,-141 23,-255 -52,18 -93,-42 -105,120 -6,80 27,109 82,135z"/> <path class="fil1" d="M15355 17884c158,-60 136,-136 5,-210 -50,51 -110,135 -5,210z"/> <path class="fil1" d="M15316 17343l131 26 -21 -183c-85,13 -83,-20 -119,46 -75,137 8,109 9,111z"/> <path class="fil1" d="M48638 21738c-176,2 -62,-20 -144,38 65,147 288,202 144,-38z"/> <path class="fil1" d="M14967 17952c-146,-21 -132,-19 -136,126 146,4 152,31 136,-126z"/> <path class="fil1" d="M48574 22091c-56,-149 -153,-91 -207,-5 93,61 105,59 207,5z"/> <path class="fil1" d="M49284 21502c-78,-112 -144,-120 -174,37 124,68 127,17 174,-37z"/> <path class="fil1" d="M43762 16619c-21,-49 56,-89 -82,-85 -150,4 -53,13 -87,81 85,47 50,70 169,4z"/> <path class="fil1" d="M49222 22225c-50,-31 11,-33 -78,-37 -200,-9 -65,2 -122,34 87,141 131,91 200,3z"/> <path class="fil1" d="M15116 17450c91,-30 17,53 90,-41 86,-111 1,-78 0,-82 -81,-25 -141,10 -90,123z"/> <path class="fil1" d="M25853 22734c29,100 -49,53 66,81 124,30 67,-28 80,-37 -8,-2 2,-108 -146,-44z"/> <path class="fil1" d="M42757 16515c-27,-46 43,-72 -79,-67 -110,4 -59,36 -78,63 101,58 60,57 157,4z"/> <path class="fil1" d="M49265 20771c31,-33 133,-133 4,-129 -137,5 -46,123 -4,129z"/> <path class="fil1" d="M4894 7487c-92,-56 -78,-38 -163,35 122,43 87,33 163,-35z"/> <path class="fil1" d="M43329 17718c-75,-70 96,-44 -82,-61 -187,-17 -70,7 -112,35l194 26z"/> </g> </g> </g> </svg>