<?xml version="1.0" encoding="UTF-8"?>
<svg viewBox="0 0 282.4313 301.68784" xmlns="http://www.w3.org/2000/svg">
 <path transform="matrix(.24521 0 0 .24521 400.72 -30.162)" d="m-559.73 1353.3c-31.464-3.6557-58.981-21.378-83.502-40.561-9.1431-11.456-49.157-30.577-32.319-43.211 26.333 1.9777 65.012 42.595 80.561 4.4458 5.488-30.491 12.634-60.409 18.634-90.826 13.745-75.621 25.049-151.71 36.271-227.71 5.9687-39.007-43.753-37.269-69.268-31.387-82.389 22.234-159.92 59.465-235.67 97.982-27.785 13.751-50.64 34.428-77.716 49.191-26.077 15.173-45.839 44.614-76.866 49.035-35.126-5.1402-34.305-47.824-3.3753-59.868 16.615-19.771 52.169-25.938 57.524-52.261-10.292-35.049 0.63536-74.445 1.4566-111.05 10.371-134.17 31.268-267.22 46.472-400.86-3.4923-29.656 27.884-74.049-0.84023-92.089-30.061-9.2216-51.094-48.235-20.784-70.488 37.105-51.366 69.862-106.05 110.4-154.82 36.281-7.8598 44.855 44.455 18.566 62.563-30.383 41.112-59.521 84.521-98.819 117.66 3.8142 20.113 46.137 29.963 50.954 58.776 4.5822 40.084 26.843-18.549 42.19-24.531 25.428-26.557 59.091-48.462 95.957-52.512 30.992 1.3803 44.739 30.632 40.06 58.158 0.4436 56.924-8.5661 113.5-11.774 170.29-4.0397 51.409-5.9571 103.15-12.26 154.16 0.1953 20.119-2.1831 46.766-12.083 56.64-33.629 4.6427-42.264-34.933-60.534-53.298-27.188 8.3699-44.809 36.011-70.102 49.519-14.818 19.631-46.896-26.89-41.968 8.2986-7.3596 62.815-13.279 126.24-15.023 189.29 26.915-1.8194 54.763-26.777 83.194-35.441 54.111-23.701 108.35-48.632 165.78-63.289 45.501-14.367 93.503 4.563 131.36 29.871 28.362 32.965 19.411 79.9 19.898 119.9-2.2474 37.742-6.0313 75.292-13.41 112.42-9.0957 59.757-16.734 119.9-31.652 178.58-9.1358 11.254-17.057 35.003-31.311 37.426zm-265.62-649.35c19.503-26.121 65.527-26.799 76.202-55.571 3.2175-8.1175 11.116-47.831 5.5563-27.928 0.3169-18.412 14.148-50.052-16.647-34.874-24.997 14.539-46.118 35.556-72.193 48.025-36.288-3.8637-19.281 38.274-26.724 55.563-3.0605 0.99074-13.932 72.921 12.542 35.182 6.9444-6.9446 13.881-13.911 21.263-20.396zm-12.951-125.9c29.646-23.973 62.854-51.551 103.38-49.404 5.619-38.754 10.366-78.213 12.41-117.04-23.481-2.5546-38.898 33.7-60.487 44.761-20.534 16.66-40.946 33.521-55.31 55.947-12.549 21.639-12.147 49.511-9.1351 73.7l4.6421-3.8964 4.4946-4.0661zm106.16-82.081c0.8669-4.5514 0.8669 4.5514 0 0zm0.498 29.731c-1.7311 2.2166 1.3251 5.3514 0 0zm-564.66 785.16c-19.046-10.442-25.391-26.99-21.826-50.234-26.761-8.9338-44.529-40.61-35.25-68.029 10.165-35.036 5.9447-71.63 11.087-107.44 4.3534-40.843 3.2776-81.808 7.53-122.6 0.8064-28.726 14.504-61.512-4.7563-87.076-6.9614-37.817-14.483 21.078-23.095 31.535-24.166 48.835-40.539 101.68-71.23 147.02-17.893 38.253-41.374 73.395-65.946 107.58-22.548 20.257-46.444 37.33-63.799 62.879-15.653 4.8799-43.229 41.031-70.29 39.085-3.87-7.9487 29.68-41 40.163-58.432 19.888-24.268 37.552-49.5 55.456-74.688 16.019-26.306 33.449-51.527 46.862-79.118 28.915-72.434 57.064-106.08 79.129-187.34 10.16 2.8547 56.162-193.37 54.652-170.13 7.2619-53.542 28.586-103.88 40.238-156.51 7.939-25.841 14.06-50.08 5.3087-73.908 23.158-28.192 26.768-63.669 36.223-97.963 12.783-52.994 22.451-106.97 31.739-160.49-16.552-5.4946-58.399 6.0737-45.357-27.597 14.498-25.664 40.872-44.963 68.645-53.824 36.849-6.3823 47.152 37.833 37.37 65.156-7.7315 35.559-13.045 71.389-18.891 107.25-0.918 23.306-16.54 56.266-4.7227 74.502 38.413-22.138 78.894-46.528 124.12-51.283 30.131-7.048 63.968 23.446 51.152 54.276-13.298 39.484-16.841 83.32-40.428 118.62-13.131 25.924-45.114 42.953-70.854 22.78-17.869-6.3822-36.913-29.496-7.2336-30.929 38.221-15.893 46.151-60.467 57.005-95.676 6.4724-17.491 2.3904-35.257-17.269-19.991-42.552 17.557-82.588 41.12-118.83 69.474-19.497 78.194-35.802 157.23-59.506 234.35-12.753 41.356-20.657 84.182-36.509 124.54-0.0685 43.245 35.83 12.512 51.449-2.4121 45.159-36.442 97.186-63.345 149.23-88.429 29.115-9.4787 56.068-33.614 88.311-30.298 31.128 3.4902 44.589 49.182 5.4919 51.82-43.354 13.487-84.021 34.086-123.86 55.616 22.373 25.666 7.6439 61.82 12.147 91.426 22.019-2.7914 53.404-28.653 75.727-6.3466 32.817 29.913-19.253 40.989-32.358 63.443-17.943 20.274-61.199 27.917-51.538 63.518 10.802 18.521 42.556-5.3078 53.754 20.499 24.713 22.755-9.9483 50.176-18.887 72.276-16.669 18.457-36.598 36.882-30.444 64.33-8.3946 48.989 43.082 12.918 67.666 12.921 28.159 1.3836 47.404 26.801 74.14 34.665 22.738 18.019 58.895 23.146 70.304 52.623-11.756 30.169-49.357 2.7874-67.51-7.7795-27.437-12.33-56.698-46.994-88.239-24.376-26.632 6.4132-55.543 18.763-50.619 49.698-17.972 20.761-46.914-21.8-67.771 5.3301-22.367 14.673-46.785 27.008-72.298 35.435-5.1279 0.9586-10.428 1.127-15.58 0.238zm10.752-78.89c29.98-33.329 57.83-68.783 80.767-107.37 2.0845-37.452-30.212 30.956-51.87 12.132-30.145-21.611-12.501-56.386 13.968-71.907 22.837-16.835 49.76-44.577 36.406-75.126-22.192 2.3134-40.2 30.012-65.356 30.515-14.026 59.404-20.689 149.05-20.385 217.13 3.1975 1.3066 4.4751-4.8933 6.4698-5.377zm61.458-6.0307c24.808 2.5579 25.096-51.233 7.2583-19.175-3.8146 3.7975-26.933 31.558-7.2583 19.175zm-46.088-254.1c21.186-25.554 58.118-38.665 71.119-69.969 4.8527-30.268 5.5609-61.364 4.979-91.133-22.215 0.03181-40.869 32.836-63.174 42.884-39.296 16.346-15.299 57.595-20.832 88.535 2.9219 8.6226-12.503 56.096 7.9079 29.683zm468.88 234.65c-27.298-13.248-51.528-32.13-77.685-47.259-11.957-11.332-65.69-31.37-26.921-38.782 38.4-0.7327 73.059 20.44 105.52 38.613 19.223 9.7276 35.459 52.413-0.91838 47.428zm107.5-46.514c-37.666-15.206-55.654-55.442-90.383-74.919-26.151-22.199 30.739-22.552 41.919-8.3438 25.206 14.179 46.117 35.524 65.199 57.069 11.765 12.188-3.1599 28.09-16.736 26.194zm85.499-76.118c-31.227-6.9384-51.517-37.974-68.657-61.702 20.788-24.433 49.833 6.3782 71.748 14.726 28.904 4.8488 34.739 59.74-3.0916 46.975zm-245.2-174.42c-41.326-11.249 0.88184-47.524 22.177-56.1 33.406-21.24 68.799-40.948 106.33-53.284 37.168-6.5326 52.61 44.507 9.2777 48.928-17.931 0.28785-69.109 27.36-98.265 46.939-13.607 3.2204-24.722 15.375-39.523 13.517zm-350.8-203.28c-9.527-21.229 17.308-48.127 2.0227-72.592-14.811-9.2662-26.88-36.435 1.4123-32.826 26.188 5.4178 55.114 36.711 39.707 63.431-9.4121 19.254-24.074 31.796-43.142 41.987zm-198.07-30.263c-38.635-19.301-47.371-65.381-59.99-102.67-9.1884-24.794-10.845-54.193-29.169-74.352-15.695-9.8723-52.884-37.367-12.902-37.746 45.686 4.7005 73.986 47.942 87.152 87.99 4.4966 21.162 14.727 40.822 24.656 55.634-5.7705 24.374 29.852 51.668 7.1969 71.212-5.4967 1.108-11.372 0.41925-16.944-0.07104z"/>
</svg>
