<?xml version="1.0" encoding="UTF-8"?>
<svg viewBox="0 0 205 190" xmlns="http://www.w3.org/2000/svg" xmlns:xlink="http://www.w3.org/1999/xlink">
 <defs>
  <linearGradient id="a">
   <stop stop-color="#decd87" offset="0"/>
   <stop stop-color="#decd87" stop-opacity="0" offset="1"/>
  </linearGradient>
  <linearGradient id="b" x1="214.5" x2="310.5" gradientUnits="userSpaceOnUse" xlink:href="#a"/>
  <linearGradient id="d" x1="189.53" x2="285.48" gradientUnits="userSpaceOnUse" xlink:href="#a"/>
  <linearGradient id="c" x1="94.525" x2="190.48" gradientUnits="userSpaceOnUse" xlink:href="#a"/>
 </defs>
 <g transform="translate(-85.074 353.47)">
  <path transform="matrix(.99999 0 0 -.96046 -24.998 -382.54)" d="m310-69.5c0 17.949-21.266 32.5-47.5 32.5-26.065 0-47.261-14.371-47.498-32.204" fill="url(#b)" stroke="#000" stroke-width="1.0204"/>
  <path d="m285-316.07v144.07h-94.999v-144.07" fill="url(#d)" stroke="#000"/>
  <path transform="matrix(1 0 0 -.96046 -120.01 -382.54)" d="m310-69.5c0 17.949-21.266 32.5-47.5 32.5-26.065 0-47.261-14.371-47.498-32.204" fill="url(#b)" stroke="#000" stroke-width="1.0204"/>
  <path d="m190-316.07v144.07h-95.003v-144.07" fill="url(#c)" stroke="#000"/>
  <g transform="matrix(.94997 0 0 1 -45.063 -150.83)">
   <path d="m321.51953-129.40192c0,.21608-.072.39607-.21588.53998s-.32392.21589-.53998.21588-.39615-.072-.54025-.21588-.21616-.3239-.21616-.53998c0-.20396.0751-.38093.22522-.53091s.32721-.22493.53119-.22495c.21606,2e-005 .39606.072.53998.21589s.21588.32392.21588.53997z"/>
   <path d="m331.65606-123.15619c-1e-005,1.56006-.46802,2.95221-1.40405,4.17645-1.00782,1.31983-2.21979,1.97974-3.63592,1.97974h-1.94403c.40795-.71997.61193-1.62597.61193-2.71802 0-.0721-.0119-.20416-.0357-.39605h2.78998c.73168,0 1.31963-.16791 1.76385-.50373 .49181-.37206.73772-.91204.73773-1.61993-1e-005-.66027-.258-1.17645-.77398-1.54852-.46803-.32373-1.04389-.48559-1.7276-.4856h-5.85022l-.39606-7.54211c-.0238-.35997-.16773-.53997-.43176-.53998h-.99042l-.1615,1.13379h-.1983c0-.13182.006-.3358.0181-.61194v-.61194c1e-005-1.09202-.084-2.17198-.25213-3.23987l.25213-.0538c.15601.81593.38398,1.22389.6839,1.22388h.39606v-1.65619h.19775v1.65619h.19831c.3479,1e-005 .6329.102.85501.30596s.33316.47994.33316.82782v5.99415h5.25586c1.0078,1e-005 1.87774.43799 2.6098,1.31396s1.09807,1.84791 1.09808,2.91577z"/>
   <path d="m320.77191-120.40192c-.46803,1.04407-.70204,2.14802-.70203,3.31183l-.16205.19831c-.66028-.0842-1.30829-.41437-1.94403-.99042l-5.88592-5.32782-.46802,3.14978c.25195,0 .62988.0661 1.13379.1983 .984.26404 1.47601.62403 1.47601,1.07996 0,.90015-.34204,1.92022-1.02612,3.06024l-.41364-.1983c.20398-.43213.30597-.70807.30597-.82782-.1322-.22815-.52222-.34223-1.17004-.34223-.74414,0-1.25427.15601-1.5304.46802l-.28784-.26971c.37207-.84009.63611-1.79425.79212-2.86249l.57623-3.92377c-.672-.55187-1.27203-.9179-1.80011-1.09808 .21606-.59985.3241-1.33172.3241-2.19562 0-.37206-.0361-.88219-.10822-1.5304l.26972.0363 .10821.70203c1.00818.34791 2.1242,1.07392 3.34808,2.17804l2.59223,2.34008c.94774-.20434 1.42162-.49236 1.42163-.86407-1e-005-.20397-.22797-.51013-.6839-.91846-.33582-.28783-.66578-.53374-.98987-.73773 1.05578-1.03197 1.6798-2.03393 1.87207-3.00586h.26972l-.1258.93604c.62402.44385 1.03198.76172 1.22388.95361 .44384.44422.66576.88825.66577,1.33209-1e-005,.54017-.20985.94813-.62951,1.22388l-2.43018,1.5661 2.6098,2.41205c.29992.27612.492.41418.57623.41418 .0959,0 .20397-.084.3241-.25213 .0718-.12012.14373-.23419.21588-.34223z"/>
   <path d="m301.9732-114.56982c0,.21606-.0721.39605-.21615.53997s-.32419.21588-.54026.21589-.39605-.072-.53997-.21589-.21589-.32391-.21589-.53997c0-.20399.072-.37803.21589-.52213s.32391-.21616.53997-.21616 .39615.069.54026.2071 .21615.31512.21615.53119z"/>
   <path d="m302.82409-125.58581c0,1.65601-.63007,3.35999-1.89019,5.11193l-.46802-.30597c.62402-.97191.93603-1.93798.93603-2.89819 0-.39587-.2699-.5938-.80969-.59381h-1.17004l-.30597.89978-.1983-.0538c.06-.38415.0901-.72619.0901-1.02613 0-1.35607-.12597-2.67607-.37793-3.96002-.0959-.49181-.14392-.86388-.14392-1.11621h.26972l.41418,2.14234h1.9259c.50391,1e-005 .91791.18 1.24201.53997s.48614.78004.48614,1.26014z"/>
   <path d="m292.86773-114.56982c0,.21606-.072.39605-.21615.53997s-.32419.21588-.54025.21589-.39606-.072-.53998-.21589-.21588-.32391-.21588-.53997c0-.20399.072-.37803.21588-.52213s.32391-.21616.53998-.21616 .39614.069.54025.2071 .21615.31512.21615.53119zm0,2.80755c0,.21606-.072.39614-.21615.54025s-.32419.21615-.54025.21616-.39606-.0721-.53998-.21616-.21588-.32419-.21588-.54025c0-.20398.075-.38095.22494-.53091s.32694-.22495.53092-.22495c.21606,0 .39614.0721.54025.21616s.21615.324.21615.5397z"/>
   <path d="m297.41168-128.08795c-.43214.68409-.6482,1.54212-.64819,2.5741-1e-005,.0718.0121.48578.0362,1.242h-1.15192l.70203,3.23987c.29992,1.37988.44988,2.02789.44989,1.94403-1e-005,.94812-.38398,1.74609-1.15192,2.39392l-.30596-.0181c.0359-1.34399.0538-2.06396.0538-2.15991-1e-005-.55188-.054-1.2658-.16205-2.14178l-.41418-3.258h-8.29798c.10803-.71996.16205-1.4641.16205-2.23242 0-.69579-.0601-1.36175-.18018-1.99787l.30652.0901 .1615,1.02613h.93604l-.0895-2.50214h-.36035l-.0181-.86408h.90033v.86408h-.37793l.10767,2.50214h8.62207l.50427-.86408zm-7.18231,8.15405c-.55189.97193-.82783,2.01581-.82782,3.13165l-1.5661-.25158c-.97193-.15601-1.45789-.62403-1.45789-1.40406 0-.51598.19208-1.17004.57623-1.96215 .33582-.58813.66577-1.17609.98987-1.76386l.3598.16205-.14392.61194c-.0839.3241-.12579.52204-.12579.59381 0,.3479.39587.58795 1.18762.72015z"/>
   <path d="m285.89801-114.56982c-1e-005,.21606-.0721.39605-.21616.53997s-.32419.21588-.54025.21589c-.20398-1e-005-.38095-.075-.53092-.22495s-.22494-.32694-.22494-.53091 .0721-.37803.21616-.52213 .324-.21616.5397-.21616 .39614.0721.54025.21616 .21615.31814.21616.52213zm-2.62793,0c0,.21606-.0721.39605-.21616.53997s-.32419.21588-.54025.21589-.39606-.072-.53998-.21589-.21588-.32391-.21588-.53997c0-.20399.072-.37803.21588-.52213s.32391-.21616.53998-.21616 .39615.069.54025.2071 .21616.31512.21616.53119zm1.31396,2.08795c0,.21606-.0721.39605-.21615.53998s-.32419.21587-.54026.21588-.39908-.072-.54904-.21588-.22494-.32392-.22494-.53998c0-.20399.078-.38398.23401-.53998s.33599-.23401.53997-.23401c.21607,0 .39615.075.54026.22495s.21615.33297.21615.54904z"/>
   <path d="m285.38659-125.58581c0,1.65601-.63007,3.35999-1.89019,5.11193l-.46802-.30597c.62402-.97191.93603-1.93798.93603-2.89819 0-.39587-.2699-.5938-.80969-.59381h-1.17004l-.30597.89978-.1983-.0538c.06-.38415.0901-.72619.0901-1.02613 0-1.35607-.12597-2.67607-.37793-3.96002-.0959-.49181-.14392-.86388-.14392-1.11621h.26972l.41418,2.14234h1.9259c.50391,1e-005 .91791.18 1.24201.53997s.48614.78004.48614,1.26014z"/>
   <path d="m279.97418-128.08795c-.43214.68409-.6482,1.54212-.64819,2.5741-1e-005,.0718.0121.48578.0362,1.242h-1.15192l.70203,3.23987c.29992,1.37988.44988,2.02789.44989,1.94403-1e-005,.94812-.38398,1.74609-1.15192,2.39392l-.30596-.0181c.0359-1.34399.0538-2.06396.0538-2.15991-1e-005-.55188-.054-1.2658-.16205-2.14178l-.41418-3.258h-8.29798c.10803-.71996.16205-1.4641.16205-2.23242 0-.69579-.0601-1.36175-.18018-1.99787l.30652.0901 .1615,1.02613h.93604l-.0895-2.50214h-.36035l-.0181-.86408h.90033v.86408h-.37793l.10767,2.50214h8.62207l.50427-.86408zm-7.18231,8.15405c-.55189.97193-.82783,2.01581-.82782,3.13165l-1.5661-.25158c-.97193-.15601-1.45789-.62403-1.45789-1.40406 0-.51598.19208-1.17004.57623-1.96215 .33582-.58813.66577-1.17609.98987-1.76386l.3598.16205-.14392.61194c-.0839.3241-.12579.52204-.12579.59381 0,.3479.39587.58795 1.18762.72015z"/>
  </g>
  <g transform="matrix(.94997 0 0 1 -44.765 -95.228)">
   <path d="m328.96-91.692h-3.4019v-0.95416h3.4019z"/>
   <path d="m327.19287-99.87781-.66577.72015-.6482-.72015 .6482-.72015z"/>
   <path d="m332.39-99.702c-2e-5 1.5-0.282 2.6521-0.84595 3.4563-0.80384 1.1638-1.8658 1.7457-3.186 1.7457h-6.0298c0.048-0.37207 0.072-0.67804 0.072-0.91791 0-0.71997-0.084-1.452-0.25214-2.1962h6.3539c1.86 3e-6 2.79-0.71997 2.79-2.1599-1e-5 -0.70788-0.32392-1.2418-0.97174-1.6018-0.49219-0.26403-1.0983-0.39605-1.8182-0.39606h-6.75c0.10804-0.2882 0.16205-0.61834 0.16205-0.99042 0-0.5039-0.14392-1.2118-0.43176-2.1236h6.3177c1.5242 1e-5 2.7662 0.78003 3.726 2.3401 0.57604 0.93605 0.86406 1.884 0.86408 2.8438z"/>
   <path d="m316.65533-92.06982c0,.21606-.072.39605-.21588.53998s-.32392.21588-.53998.21588c-.20398-4e-006-.38104-.07498-.53119-.22495s-.22522-.32694-.22522-.53092 .072-.37802.21616-.52212 .32419-.21616.54025-.21616 .39606.07205.53998.21616 .21588.31814.21588.52212zm-2.44775,0c0,.21606-.0721.39605-.21616.53998s-.32419.21588-.54025.21588-.39606-.07196-.53998-.21588-.21588-.32392-.21588-.53998c0-.20398.072-.37802.21588-.52212s.32391-.21616.53998-.21616 .39615.06903.54025.20709 .21616.31512.21616.53119z"/>
   <path d="m314.92334-99.70203-.66577.72015-.6482-.72015 .6482-.72015z"/>
   <path d="m320.38684-98.56824c-.58815,1.26014-.95417,2.61621-1.09809,4.06824h-9.39605c.16809-.50391.25213-1.04388.25213-1.61993 0-.38415-.048-.8822-.14392-1.49414h8.29798l-.19831-4.15778h-7.81183c0-.76794-.0601-1.46996-.18017-2.10608-.0718-.38415-.23969-1.06218-.50372-2.03412l.16204-.0901 .66578,1.11621h.64819l-.12634-2.50213h-.34168l-.0181-.86408h.89978v.86408h-.37793l.12635,2.50213h7.54156l.3241-.63006 .25214.16205c-.37209.69581-.54604,1.53571-.52186,2.51971v.18018l.19776,5.03997h.37793l.66632-1.15192z"/>
   <path d="m308.36175-105.58795c-.44422.68409-.66633,1.59614-.66632,2.73614-1e-005,.26405.024.62403.072,1.07996h-1.17004l.70202,3.23987c.0842.33582.16827.66578.25214.98987 .12011.48011.18017.79816.18018.95416-1e-005,.97193-.37813,1.7699-1.13434,2.39392l-.32355-.01813c-1e-005-.19189.012-.48587.036-.88193s.036-.69003.036-.88193c-1e-005-.828-.0661-1.79406-.1983-2.89819-.12013-.97192-.2461-1.9378-.37793-2.89764h-8.26227c0-.22814.018-.57925.0541-1.05332s.0541-.82497.0541-1.05276c0-.70788-.054-1.41595-.16205-2.12421l.30597.0901 .16205,1.02612h1.20629l-.12634-2.50213h-.34167l-.0181-.86408h.89978v.86408h-.37793l.12634,2.50213h8.36994l.48559-.86407z"/>
   <path d="m286.9527-92.06982c-1e-005,.21606-.0721.39605-.21616.53998s-.32419.21588-.54025.21588c-.20399-4e-006-.38096-.07498-.53092-.22495s-.22495-.32694-.22494-.53092 .0721-.37802.21615-.52212 .32401-.21616.53971-.21616 .39614.07205.54025.21616 .21615.31814.21616.52212zm-2.62793,0c-1e-005,.21606-.0721.39605-.21616.53998s-.32419.21588-.54025.21588-.39606-.07196-.53998-.21588-.21588-.32392-.21588-.53998c0-.20398.072-.37802.21588-.52212s.32391-.21616.53998-.21616 .39614.06903.54025.20709 .21615.31512.21616.53119zm1.31396,2.08795c0,.21606-.072.39605-.21616.53998s-.32419.21588-.54025.21588-.39908-.07196-.54904-.21588-.22495-.32392-.22495-.53998c0-.20398.078-.38398.23401-.53998s.336-.23401.53998-.23401c.21606-4e-006 .39615.07498.54025.22495s.21616.33297.21616.54904z"/>
   <path d="m290.15082-97.90192c-.46803,1.04407-.70204,2.14801-.70203,3.31183l-.16205.1983c-.66029-.08423-1.3083-.41437-1.94403-.99042l-5.88593-5.32782-.46801,3.14978c.25195,3e-006 .62988.0661 1.13379.1983 .984.26404 1.476.62403 1.47601,1.07996-1e-005,.90015-.34205,1.92023-1.02612,3.06024l-.41364-.1983c.20398-.43213.30597-.70807.30597-.82782-.13221-.22815-.52222-.34222-1.17004-.34222-.74415,0-1.25428.15601-1.5304.46802l-.28784-.26971c.37207-.84009.63611-1.79425.79211-2.86249l.57624-3.92377c-.672-.55187-1.27204-.9179-1.80011-1.09808 .21606-.59985.32409-1.33172.32409-2.19562 0-.37206-.0361-.88219-.10821-1.5304l.26971.0362 .10822.70203c1.00817.34791 2.1242,1.07392 3.34808,2.17804l2.59222,2.34009c.94775-.20434 1.42163-.49237 1.42164-.86408-1e-005-.20397-.22798-.51012-.6839-.91845-.33583-.28784-.66578-.53375-.98987-.73774 1.05578-1.03197 1.6798-2.03392 1.87207-3.00586h.26971l-.12579.93604c.62401.44386 1.03197.76173 1.22388.95361 .44383.44423.66576.88826.66577,1.3321-1e-005,.54017-.20985.94812-.62952,1.22387l-2.43017,1.5661 2.6098,2.41205c.29991.27613.49199.41419.57623.41419 .0959,2e-006 .20397-.08404.3241-.25214 .0718-.12011.14372-.23419.21588-.34222z"/>
   <path d="m278.16144-101.77185h-1.47602l1.06183,3.92377c.13219.49219.19829.84027.1983,1.04425-1e-005,.42005-.12598.88202-.37793,1.38593-.10804.21607-.36017.62402-.7564,1.22388h-.32355c.10802-.71997.16204-1.40387.16205-2.0517-1e-005-.16809-.0242-.48614-.0725-.95416l-.46747-4.57196h-6.30011c0,.8639.11389,1.55384.34167,2.06982 .39624.88807.6123,1.38611.6482,1.49414 .21606.58777.32409,1.11566.32409,1.58368 0,.62403-.23401,1.13407-.70202,1.53012s-1.02613.59408-1.67432.59408h-1.65564c.25195-.58813.37793-1.33209.37793-2.23187l-.10821-.8822h1.33209c.20398,3e-006 .39596-.05694.57596-.17084s.26998-.27301.26999-.47736c-1e-005-.32373-.072-.7976-.21589-1.42163s-.21588-1.09808-.21588-1.42218c0-.20397.03-.42589.0901-.66577h-1.47601c.26403-.44421.39605-1.02026.39605-1.72815 0-.55187-.0601-1.01385-.18017-1.38592h10.22388c-.16811.46802-.25215.95398-.25214,1.45788-1e-005,.57606.084,1.12812.25214,1.65619z"/>
  </g>
  <g transform="matrix(.94997 0 0 1 -52.537 -187)">
   <path d="m329.38672-67.85623c0,.21608-.072.39607-.21588.53998s-.32392.21589-.53998.21588-.39615-.07195-.54025-.21588-.21616-.3239-.21616-.53998c0-.20397.0751-.38094.22522-.53091s.32721-.22493.53119-.22495c.21606,1.3e-005 .39606.07197.53998.21588s.21588.32393.21588.53998z"/>
   <path d="m339.52325-61.6105c-1e-005,1.56006-.46802,2.95221-1.40405,4.17645-1.00782,1.31983-2.21979,1.97974-3.63592,1.97974h-1.94403c.40795-.71997.61193-1.62597.61193-2.71802 0-.07214-.0119-.20416-.0357-.39606h2.78998c.73168,3e-006 1.31963-.16791 1.76385-.50372 .49181-.37207.73772-.91204.73773-1.61993-1e-005-.66027-.258-1.17645-.77398-1.54852-.46803-.32372-1.04389-.48559-1.7276-.4856h-5.85022l-.39606-7.54211c-.0238-.35997-.16773-.53996-.43176-.53998h-.99042l-.1615,1.13379h-.1983c0-.13182.006-.3358.0181-.61194v-.61194c1e-005-1.09203-.084-2.17198-.25213-3.23987l.25213-.05383c.15601.81594.38398,1.2239.6839,1.22388h.39606v-1.65619h.19775v1.65619h.19831c.3479,1.8e-005 .6329.10201.85501.30597s.33316.47994.33316.82782v5.99414h5.25586c1.0078,1.1e-005 1.87774.438 2.6098,1.31397s1.09807,1.84791 1.09808,2.91577z"/>
   <path d="m328.6391-58.85623c-.46803,1.04407-.70204,2.14801-.70203,3.31183l-.16205.1983c-.66028-.08423-1.30829-.41437-1.94403-.99042l-5.88592-5.32782-.46802,3.14978c.25195,3e-006 .62988.0661 1.13379.1983 .984.26404 1.47601.62403 1.47601,1.07996 0,.90015-.34204,1.92023-1.02612,3.06024l-.41364-.1983c.20398-.43213.30597-.70807.30597-.82782-.1322-.22815-.52222-.34222-1.17004-.34222-.74414,0-1.25427.15601-1.5304.46802l-.28784-.26971c.37207-.84009.63611-1.79425.79212-2.86249l.57623-3.92377c-.672-.55187-1.27203-.9179-1.80011-1.09808 .21606-.59984.3241-1.33172.3241-2.19562 0-.37206-.0361-.88219-.10822-1.5304l.26972.03625 .10821.70203c1.00818.34791 2.1242,1.07392 3.34808,2.17804l2.59223,2.34009c.94774-.20434 1.42162-.49236 1.42163-.86408-1e-005-.20397-.22797-.51012-.6839-.91846-.33582-.28783-.66578-.53374-.98987-.73773 1.05578-1.03197 1.6798-2.03393 1.87207-3.00586h.26972l-.1258.93603c.62402.44386 1.03198.76173 1.22388.95361 .44384.44422.66576.88825.66577,1.33209-1e-005,.54017-.20985.94813-.62951,1.22388l-2.43018,1.5661 2.6098,2.41205c.29992.27613.492.41419.57623.41419 .0959,2e-006 .20397-.08404.3241-.25214 .0718-.12011.14373-.23419.21588-.34222z"/>
   <path d="m307.02789-53.02413c0,.21606-.072.39605-.21615.53998s-.32419.21588-.54026.21588-.39605-.07196-.53997-.21588-.21589-.32392-.21589-.53998c0-.20398.072-.37802.21589-.52212s.32391-.21616.53997-.21616 .39615.06903.54026.20709 .21615.31512.21615.53119z"/>
   <path d="m310.67316-62.72616h-1.47602l1.06183,3.92377c.13219.49219.19829.84027.19831,1.04425-2e-005,.42005-.12599.88202-.37793,1.38593-.10805.21607-.36018.62402-.75641,1.22388h-.32355c.10802-.71997.16204-1.40387.16205-2.0517-1e-005-.16809-.0242-.48614-.0725-.95416l-.46747-4.57196h-6.30011c0,.8639.11389,1.55384.34167,2.06982 .39624.88807.61231,1.38611.6482,1.49414 .21606.58777.32409,1.11566.32409,1.58368 0,.62403-.23401,1.13407-.70202,1.53012s-1.02613.59408-1.67432.59408h-1.65564c.25195-.58813.37793-1.33209.37793-2.23187l-.10821-.8822h1.33209c.20398,3e-006 .39596-.05694.57596-.17084s.26998-.27301.26999-.47736c-1e-005-.32373-.072-.7976-.21588-1.42163s-.21589-1.09808-.21589-1.42218c0-.20397.03-.4259.0901-.66577h-1.47601c.26404-.44421.39605-1.02026.39606-1.72815-1e-005-.55187-.0601-1.01385-.18018-1.38593h10.22388c-.16811.46803-.25215.95399-.25214,1.45789-1e-005,.57606.084,1.12812.25214,1.65619z"/>
   <path d="m294.15192-52.6462h-1.38593l-.0538.80969c0,.1322.0809.3153.2428.54932s.24279.41088.24279.53064c0,.21606-.072.39614-.21588.54025s-.32391.21615-.53998.21616c-.20398-5e-006-.37793-.07206-.52185-.21616s-.21588-.32419-.21588-.54025c0-.14393.0809-.32685.2428-.54877s.2428-.39899.2428-.53119l-.0538-.80969h-1.38593v-.95416h3.40192z"/>
   <path d="m290.01172-68.8406c0,.21608-.072.39607-.21588.53998s-.32392.21589-.53998.21588-.39615-.07195-.54025-.21588-.21616-.3239-.21616-.53998c0-.20397.0751-.38094.22522-.53091s.32721-.22493.53119-.22495c.21606,1.3e-005 .39606.07197.53998.21588s.21588.32393.21588.53998z"/>
   <path d="m295.50928-60.65634-.66577.72015-.6482-.72015 .6482-.72015z"/>
   <path d="m298.70465-64.05825c-1e-005,.88807-.24006,1.77009-.72015,2.64606l-.91791,1.67377c-.71998,1.32019-1.96803,2.40619-3.74414,3.258-1.5359.73206-3.16187,1.17004-4.87793,1.31397 0-3.10803-.53394-5.62792-1.60181-7.55969h-1.31396c0-.09594.006-.28197.0176-.55811 .0121-.23986.0181-.4259.0181-.5581 0-.80382-.0899-1.46978-.26971-1.99786h1.15192c-.0839-.85216-.32996-1.58422-.73829-2.19617l-.28784-.03571-.0538-.64819 .77399-.09009 .0357.63007-.28784.14392c.37207.54017.61212,1.27223.72015,2.19617h.46802v-2.98828l-.30597-.08954v-.63007h.77399v.64764l-.28839.07196v2.98828h.45044c-1e-005-.74413.23986-1.47618.7196-2.19617l-.26971-.10767 .0538-.63007 .75586.03571-.072.66632-.28784.03571c-.48011.64821-.72016,1.38026-.72016,2.19617h.97229c-.048.31202-.072.63594-.072.97174 0,.74415.096,1.45826.28784,2.14233h-1.61993c.26404.65992.64801,1.90778 1.15192,3.74359 1.77611-.75586 2.91009-1.33172 3.40191-1.7276 .44421-.35998.66632-.74395.66632-1.15192s-.28803-.70843-.86407-.90033c-.27613-.09594-.73225-.17394-1.36835-.23401 .16809-.63573.25213-1.26562.25214-1.88965-1e-005-.88805-.16206-1.78215-.48615-2.68231h.30597l.43232,1.52985c.26403.03627.648.10237 1.15191.1983 .58813.12013 1.06805.35414 1.43976.70203 .42003.39588.63006.8758.63007,1.43976-1e-005,1.43995-.64198,2.60395-1.92591,3.492-.29993.20398-.84595.48011-1.63806.82837-.62403.26368-1.25391.53357-1.88965.80969h3.83368c1.03198,3e-006 2.03393-.27594 3.00586-.82782 1.14-.6361 1.71001-1.41613 1.71002-2.34009-1e-005-.67199-.75001-1.00799-2.25-1.008 .25231-.79211.37847-1.48205.37848-2.06982-1e-005-.06005-.0181-.42003-.0544-1.07996 .156.04798.61797.10786 1.38593.17963 .52806.06007.97209.21607 1.33209.46802 .43211.29994.64818.69599.64819,1.18817z"/>
   <path d="m284.16644-58.85623c-.46803,1.04407-.70203,2.14801-.70202,3.31183l-.16205.1983c-.66029-.08423-1.3083-.41437-1.94403-.99042l-5.88593-5.32782-.46802,3.14978c.25195,3e-006 .62988.0661 1.13379.1983 .98401.26404 1.47601.62403 1.47602,1.07996-1e-005,.90015-.34205,1.92023-1.02613,3.06024l-.41363-.1983c.20397-.43213.30596-.70807.30597-.82782-.13221-.22815-.52222-.34222-1.17005-.34222-.74414,0-1.25427.15601-1.53039.46802l-.28784-.26971c.37207-.84009.6361-1.79425.79211-2.86249l.57623-3.92377c-.672-.55187-1.27203-.9179-1.80011-1.09808 .21607-.59984.3241-1.33172.3241-2.19562 0-.37206-.0361-.88219-.10821-1.5304l.26971.03625 .10821.70203c1.00818.34791 2.12421,1.07392 3.34809,2.17804l2.59222,2.34009c.94775-.20434 1.42162-.49236 1.42163-.86408-1e-005-.20397-.22797-.51012-.6839-.91846-.33582-.28783-.66577-.53374-.98986-.73773 1.05577-1.03197 1.6798-2.03393 1.87207-3.00586h.26971l-.12579.93603c.62401.44386 1.03197.76173 1.22387.95361 .44384.44422.66577.88825.66578,1.33209-1e-005,.54017-.20985.94813-.62952,1.22388l-2.43018,1.5661 2.60981,2.41205c.29991.27613.49199.41419.57623.41419 .0959,2e-006 .20397-.08404.3241-.25214 .0718-.12011.14372-.23419.21588-.34222z"/>
  </g>
  <g transform="matrix(.94997 0 0 1 29.465 -160.03)">
   <path d="m255.05817-52.6462h-1.38593l-.0538.80969c0,.1322.0809.3153.2428.54932s.24279.41088.24279.53064c0,.21606-.072.39614-.21588.54025s-.32391.21615-.53998.21616c-.20398-5e-006-.37793-.07206-.52185-.21616s-.21588-.32419-.21588-.54025c0-.14393.0809-.32685.2428-.54877s.2428-.39899.2428-.53119l-.0538-.80969h-1.38593v-.95416h3.40192z"/>
   <path d="m254.16937-62.72616h-1.38592c-1e-005,.47974.0901,1.09772.27026,1.85394 .39587,1.65601.59381,2.67591.59381,3.05969 0,.28821-.14997,1.1402-.44989,2.55597h-.36035c-.2157-.74377-.36566-1.66168-.44989-2.75372l-.23401-3.22229c-.0121-.33581-.054-.83367-.12579-1.49359h-1.54798c.0121-.48009.0181-.74413.0181-.79211 0-.6361-.10803-1.41009-.32409-2.32196h1.29583c-.0839-.82799-.33581-1.56005-.75586-2.19617l-.28839-.03571-.0357-.64819 .75586-.09009 .0362.63007-.28839.14392c.37207.54017.61212,1.27223.72015,2.19617h.46802v-2.98828l-.28784-.08954v-.63007h.75586v.64764l-.26972.07196v2.98828h.44989c0-.74413.24005-1.47618.72016-2.19617l-.27027-.10767 .0538-.63007 .73828.03571-.0544.66632-.28785.03571c-.4801.64821-.72015,1.38026-.72015,2.19617h1.08051c-.0601.67201-.0901,1.04994-.0901,1.13379-1e-005,.33619.0899.99628.26971,1.98029z"/>
   <path d="m249.13-60.656c-2e-5 1.5-0.282 2.6521-0.84595 3.4563-0.80384 1.1638-1.8658 1.7457-3.186 1.7457h-6.0298c0.048-0.37207 0.072-0.67804 0.072-0.91791 0-0.71997-0.084-1.452-0.25214-2.1962h6.3539c1.86 3e-6 2.79-0.71997 2.79-2.1599-1e-5 -0.70788-0.32392-1.2418-0.97174-1.6018-0.49219-0.26403-1.0983-0.39605-1.8182-0.39606h-6.75c0.10804-0.2882 0.16205-0.61834 0.16205-0.99042 0-0.5039-0.14392-1.2118-0.43176-2.1237h6.3177c1.5242 1.1e-5 2.7662 0.78004 3.726 2.3401 0.57604 0.93604 0.86406 1.884 0.86408 2.8438z"/>
   <path d="m236.67969-67.85623c0,.21608-.072.39607-.21588.53998s-.32392.21589-.53998.21588-.39615-.07195-.54025-.21588-.21616-.3239-.21616-.53998c0-.20397.0751-.38094.22522-.53091s.32721-.22493.53119-.22495c.21606,1.3e-005 .39606.07197.53998.21588s.21588.32393.21588.53998z"/>
   <path d="m237.10321-56.91219c-.15601.56397-.32996,1.164-.52185,1.80011l-.1983-.03625-.64765-7.57782h-2.4483c.0362-.14391.0544-.45593.0544-.93603 0-.78002-.10803-1.50603-.32409-2.17804h2.30383c.57604,1.1e-005 1.01403.30598 1.31396.91791 .23987.48011.36584,1.03803.37793,1.67377z"/>
   <path d="m232.14893-61.9703c-1e-005,.62403-.018,1.14002-.0538,1.54797l-.46801,5.00427-.46802.26971-.70203-5.48987c-.0721-.54016-.25819-1.00817-.5581-1.40405-.34791-.45593-.77382-.68389-1.27771-.6839h-6.46216c.10803-.34826.16205-.70239.16205-1.06238 0-.63573-.12598-1.31963-.37793-2.0517h7.23559c.2882,1.1e-005 .64233.08406 1.06238.25214 .64782.26405 1.13982.76191 1.47601,1.49359 .28783.63612.43176,1.34418.43177,2.12421z"/>
   <path d="m211.6402-53.02413c-1e-005,.21606-.0721.39605-.21616.53998s-.32419.21588-.54025.21588c-.20398-4e-006-.38095-.07499-.53092-.22495s-.22494-.32694-.22494-.53092 .0721-.37802.21616-.52212 .324-.21616.5397-.21616 .39614.07205.54025.21616 .21615.31814.21616.52212zm-2.62793,0c0,.21606-.0721.39605-.21616.53998s-.32419.21588-.54025.21588-.39606-.07196-.53998-.21588-.21588-.32392-.21588-.53998c0-.20398.072-.37802.21588-.52212s.32391-.21616.53998-.21616 .39615.06903.54025.20709 .21616.31512.21616.53119zm1.31396,2.08795c0,.21606-.0721.39605-.21615.53998s-.32419.21588-.54026.21588-.39908-.07196-.54904-.21588-.22494-.32392-.22494-.53998c0-.20398.078-.38398.23401-.53998s.33599-.23401.53997-.23401c.21607-4e-006 .39615.07498.54026.22495s.21615.33297.21615.54904z"/>
   <path d="m214.83832-58.85623c-.46803,1.04407-.70204,2.14801-.70203,3.31183l-.16205.1983c-.66029-.08423-1.30829-.41437-1.94403-.99042l-5.88592-5.32782-.46802,3.14978c.25195,3e-006 .62988.0661 1.13379.1983 .984.26404 1.47601.62403 1.47601,1.07996 0,.90015-.34204,1.92023-1.02612,3.06024l-.41364-.1983c.20398-.43213.30597-.70807.30597-.82782-.1322-.22815-.52222-.34222-1.17004-.34222-.74414,0-1.25428.15601-1.5304.46802l-.28784-.26971c.37207-.84009.63611-1.79425.79212-2.86249l.57623-3.92377c-.672-.55187-1.27204-.9179-1.80011-1.09808 .21606-.59984.32409-1.33172.3241-2.19562-1e-005-.37206-.0361-.88219-.10822-1.5304l.26971.03625 .10822.70203c1.00818.34791 2.1242,1.07392 3.34808,2.17804l2.59223,2.34009c.94774-.20434 1.42162-.49236 1.42163-.86408-1e-005-.20397-.22798-.51012-.6839-.91846-.33582-.28783-.66578-.53374-.98987-.73773 1.05578-1.03197 1.6798-2.03393 1.87207-3.00586h.26972l-.1258.93603c.62402.44386 1.03198.76173 1.22388.95361 .44384.44422.66576.88825.66577,1.33209-1e-005,.54017-.20985.94813-.62952,1.22388l-2.43017,1.5661 2.6098,2.41205c.29992.27613.49199.41419.57623.41419 .0959,2e-006 .20397-.08404.3241-.25214 .0718-.12011.14373-.23419.21588-.34222z"/>
   <path d="m202.84894-62.72616h-1.47602l1.06183,3.92377c.13219.49219.1983.84027.19831,1.04425-1e-005,.42005-.12599.88202-.37793,1.38593-.10805.21607-.36018.62402-.75641,1.22388h-.32355c.10802-.71997.16204-1.40387.16205-2.0517-1e-005-.16809-.0242-.48614-.0725-.95416l-.46747-4.57196h-6.30011c0,.8639.11389,1.55384.34168,2.06982 .39623.88807.6123,1.38611.64819,1.49414 .21606.58777.32409,1.11566.3241,1.58368-1e-005,.62403-.23402,1.13407-.70203,1.53012s-1.02613.59408-1.67432.59408h-1.65564c.25196-.58813.37793-1.33209.37793-2.23187l-.10821-.8822h1.33209c.20398,3e-006 .39596-.05694.57596-.17084s.26998-.27301.26999-.47736c-1e-005-.32373-.072-.7976-.21588-1.42163s-.21589-1.09808-.21589-1.42218c0-.20397.03-.4259.0901-.66577h-1.47601c.26404-.44421.39606-1.02026.39606-1.72815 0-.55187-.0601-1.01385-.18018-1.38593h10.22388c-.1681.46803-.25215.95399-.25214,1.45789-1e-005,.57606.084,1.12812.25214,1.65619z"/>
  </g>
  <g transform="matrix(.95001 0 0 1 5.8499 -237.54)">
   <path d="m137.29352-53.02413c0,.21606-.0721.39605-.21616.53998s-.32419.21588-.54025.21588-.39606-.07196-.53998-.21588-.21588-.32392-.21588-.53998c0-.20398.072-.37802.21588-.52212s.32391-.21616.53998-.21616 .39615.06903.54025.20709 .21616.31512.21616.53119zm0,2.80756c0,.21606-.0721.39614-.21616.54025s-.32419.21615-.54025.21616-.39606-.07206-.53998-.21616-.21588-.32419-.21588-.54025c0-.20398.075-.38095.22495-.53091s.32693-.22495.53091-.22495c.21606-4e-006 .39615.07205.54025.21616s.21616.324.21616.5397z"/>
   <path d="m167.91406-67.85623c0,.21608-.072.39607-.21588.53998s-.32391.21589-.53998.21588-.39614-.07195-.54025-.21588-.21615-.3239-.21616-.53998c1e-005-.20397.0751-.38094.22522-.53091s.32721-.22493.53119-.22495c.21607,1.3e-005 .39606.07197.53998.21588s.21588.32393.21588.53998z"/>
   <path d="m178.0506-61.6105c-1e-005,1.56006-.46803,2.95221-1.40405,4.17645-1.00782,1.31983-2.2198,1.97974-3.63593,1.97974h-1.94403c.40795-.71997.61193-1.62597.61194-2.71802-1e-005-.07214-.0119-.20416-.0357-.39606h2.78998c.73168,3e-006 1.31963-.16791 1.76386-.50372 .49181-.37207.73772-.91204.73773-1.61993-1e-005-.66027-.25801-1.17645-.77399-1.54852-.46803-.32372-1.04389-.48559-1.7276-.4856h-5.85022l-.39606-7.54211c-.0238-.35997-.16772-.53996-.43176-.53998h-.99042l-.1615,1.13379h-.1983c0-.13182.006-.3358.0181-.61194v-.61194c0-1.09203-.0841-2.17198-.25214-3.23987l.25214-.05383c.15601.81594.38397,1.2239.6839,1.22388h.39605v-1.65619h.19776v1.65619h.1983c.3479,1.8e-005 .6329.10201.85501.30597s.33316.47994.33316.82782v5.99414h5.25586c1.00781,1.1e-005 1.87774.438 2.6098,1.31397s1.09808,1.84791 1.09809,2.91577z"/>
   <path d="m167.16644-58.85623c-.46803,1.04407-.70203,2.14801-.70202,3.31183l-.16205.1983c-.66029-.08423-1.3083-.41437-1.94403-.99042l-5.88593-5.32782-.46802,3.14978c.25195,3e-006 .62988.0661 1.13379.1983 .98401.26404 1.47601.62403 1.47602,1.07996-1e-005,.90015-.34205,1.92023-1.02613,3.06024l-.41363-.1983c.20397-.43213.30596-.70807.30597-.82782-.13221-.22815-.52222-.34222-1.17005-.34222-.74414,0-1.25427.15601-1.53039.46802l-.28784-.26971c.37207-.84009.6361-1.79425.79211-2.86249l.57623-3.92377c-.672-.55187-1.27203-.9179-1.80011-1.09808 .21607-.59984.3241-1.33172.3241-2.19562 0-.37206-.0361-.88219-.10821-1.5304l.26971.03625 .10821.70203c1.00818.34791 2.12421,1.07392 3.34809,2.17804l2.59222,2.34009c.94775-.20434 1.42162-.49236 1.42163-.86408-1e-005-.20397-.22797-.51012-.6839-.91846-.33582-.28783-.66577-.53374-.98986-.73773 1.05577-1.03197 1.6798-2.03393 1.87207-3.00586h.26971l-.12579.93603c.62401.44386 1.03197.76173 1.22387.95361 .44384.44422.66577.88825.66578,1.33209-1e-005,.54017-.20985.94813-.62952,1.22388l-2.43018,1.5661 2.60981,2.41205c.29991.27613.49199.41419.57623.41419 .0959,2e-006 .20397-.08404.3241-.25214 .0718-.12011.14372-.23419.21588-.34222z"/>
   <path d="m145.55524-53.02413c0,.21606-.0721.39605-.21616.53998s-.32419.21588-.54025.21588-.39606-.07196-.53998-.21588-.21588-.32392-.21588-.53998c0-.20398.072-.37802.21588-.52212s.32391-.21616.53998-.21616 .39615.06903.54025.20709 .21616.31512.21616.53119z"/>
   <path d="m149.2005-62.72616h-1.47601l1.06183,3.92377c.13219.49219.19829.84027.1983,1.04425-1e-005,.42005-.12599.88202-.37793,1.38593-.10804.21607-.36018.62402-.75641,1.22388h-.32355c.10803-.71997.16204-1.40387.16205-2.0517-1e-005-.16809-.0242-.48614-.0725-.95416l-.46747-4.57196h-6.30011c0,.8639.11389,1.55384.34168,2.06982 .39623.88807.6123,1.38611.64819,1.49414 .21606.58777.32409,1.11566.3241,1.58368-1e-005,.62403-.23401,1.13407-.70203,1.53012s-1.02612.59408-1.67431.59408h-1.65564c.25195-.58813.37793-1.33209.37793-2.23187l-.10822-.8822h1.33209c.20398,3e-006 .39597-.05694.57596-.17084s.26999-.27301.26999-.47736c0-.32373-.072-.7976-.21588-1.42163s-.21589-1.09808-.21588-1.42218c-1e-005-.20397.03-.4259.0901-.66577h-1.47602c.26404-.44421.39606-1.02026.39606-1.72815 0-.55187-.0601-1.01385-.18018-1.38593h10.22388c-.1681.46803-.25215.95399-.25214,1.45789-1e-005,.57606.084,1.12812.25214,1.65619z"/>
   <path d="m137.26221-61.9703c-1e-005,.62403-.018,1.14002-.0538,1.54797l-.46801,5.00427-.46802.26971-.70203-5.48987c-.0721-.54016-.25818-1.00817-.5581-1.40405-.34791-.45593-.77381-.68389-1.27771-.6839h-6.46216c.10803-.34826.16205-.70239.16205-1.06238 0-.63573-.12598-1.31963-.37793-2.0517h7.23559c.2882,1.1e-005 .64233.08406 1.06238.25214 .64782.26405 1.13982.76191 1.47601,1.49359 .28784.63612.43176,1.34418.43177,2.12421z"/>
   <path d="m123.50348-52.6462h-1.38593l-.0538.80969c0,.1322.0809.3153.2428.54932s.24279.41088.2428.53064c-1e-005,.21606-.072.39614-.21588.54025s-.32392.21615-.53998.21616c-.20398-5e-006-.37793-.07206-.52185-.21616s-.21589-.32419-.21588-.54025c-1e-005-.14393.0809-.32685.24279-.54877s.2428-.39899.2428-.53119l-.0538-.80969h-1.38593v-.95416h3.40192z"/>
   <path d="m126.08307-63.95004c-1e-005,.59986-.192,1.18177-.57596,1.74573s-.85209.99592-1.40433,1.29584l-1.76385.97229 1.07995.75586c.46801.3241.78607.57019.95417.73828 .3358.33582.50371.68372.50372,1.0437-1e-005,.50391-.096.92999-.28784,1.27826-.23988.44385-.58796.66577-1.04425.66577h-6.85767c.096-.57605.14392-1.12207.14392-1.63806 0-.56396-.072-1.05597-.21588-1.47601h5.00372c0-.156-.0899-.35394-.26971-.59381l-2.68231-3.56397h-1.74573c0-1.18798-.096-2.226-.28784-3.11408h1.22388c-1e-005-.85216-.24006-1.58422-.72016-2.19617l-.28784-.03571-.0362-.64819 .75585-.09009 .0363.63007-.28784.14392c.3717.54017.61157,1.27223.7196,2.19617h.46802v-2.98828l-.28784-.08954v-.63007h.75586v.64764l-.26972.07196v2.98828h.44989c0-.74413.24005-1.47618.72016-2.19617l-.27027-.10767 .0544-.63007 .73773.03571-.0538.66632-.28839.03571c-.47974.64821-.7196,1.38026-.7196,2.19617h1.00799c0,1.2118.0899,2.24983.26972,3.11408h-1.24201c.52808.89979 1.42804,1.77576 2.69989,2.62793l1.63807-1.5661c.19225-.1798.28838-.38378.28839-.61194-1e-005-.21606-.0841-.38415-.25214-.50427l-1.31396-.91791c.46801-.43175.78606-1.01366.95416-1.74573 .10766-.48009.16149-1.15209.1615-2.01599l.1983.07196-.0363,1.20575 1.42218,1.008c.6361.45594.95415.86408.95416,1.22443z"/>
   <path d="m115.57355-62.72616h-1.58423l.66632,2.78998 .19775.80969c-1e-005,.44422-.036,1.10733-.10794,1.98935s-.10795,1.54495-.10794,1.9888l-.39605-.01813c-.7079-1.87207-1.06184-3.16809-1.06183-3.88806-1e-005-.40796.0299-1.01989.0898-1.83582s.0898-1.42785.0898-1.83582h-1.52984l-.23401-2.48401-1.63806-2.10608-.61194,1.63806 .25213,2.95203h-1.52984c.11975.64783.31164,1.60786.57568,2.88007l.23401,1.18762c0,.39624-.033.98429-.0989,1.76413s-.0989,1.36185-.0989,1.746l-.39606.07196c-.62403-1.56006-.93-2.72406-.91791-3.492v-4.15778h-1.51227c.0601-.32409.0901-.7141.0901-1.17004 0-1.07995-.22797-2.32799-.6839-3.74414l.25159-.03571 .57623,1.83582h3.04212l.93603-2.19617 1.97974,2.19617h2.17804c.34789,1.1e-005 .64196.15602.8822.46802 .20397.26405.31786.5821.34167.95416z"/>
  </g>
  <g transform="matrix(.95001 0 0 1 88.044 -212.38)">
   <path d="m81.39453-67.85623c0,.21608-.07196.39607-.21588.53998s-.32391.21589-.53998.21588-.39615-.07195-.54025-.21588-.21615-.3239-.21616-.53998c2e-006-.20397.07507-.38094.22522-.53091s.32721-.22493.53119-.22495c.21607,1.3e-005 .39606.07197.53998.21588s.21588.32393.21588.53998z"/>
   <path d="m91.53107-61.6105c-1e-005,1.56006-.46803,2.95221-1.40405,4.17645-1.00782,1.31983-2.21979,1.97974-3.63592,1.97974h-1.94403c.40796-.71997.61194-1.62597.61194-2.71802-4e-006-.07214-.01191-.20416-.03571-.39606h2.78998c.73168,3e-006 1.31963-.16791 1.76386-.50372 .49181-.37207.73772-.91204.73773-1.61993-9e-006-.66027-.258-1.17645-.77399-1.54852-.46803-.32372-1.04389-.48559-1.7276-.4856h-5.85022l-.39606-7.54211c-.0238-.35997-.16773-.53996-.43176-.53998h-.99042l-.1615,1.13379h-.1983c1e-006-.13182.006-.3358.01813-.61194v-.61194c2e-006-1.09203-.08404-2.17198-.25214-3.23987l.25214-.05383c.15601.81594.38397,1.2239.6839,1.22388h.39606v-1.65619h.19775v1.65619h.1983c.3479,1.8e-005 .6329.10201.85501.30597s.33316.47994.33316.82782v5.99414h5.25586c1.00781,1.1e-005 1.87774.438 2.6098,1.31397s1.09807,1.84791 1.09808,2.91577z"/>
   <path d="m80.64691-58.85623c-.46803,1.04407-.70204,2.14801-.70203,3.31183l-.16205.1983c-.66029-.08423-1.3083-.41437-1.94403-.99042l-5.88593-5.32782-.46802,3.14978c.25195,3e-006 .62988.0661 1.13379.1983 .98401.26404 1.47601.62403 1.47601,1.07996-6e-006,.90015-.34205,1.92023-1.02612,3.06024l-.41363-.1983c.20398-.43213.30597-.70807.30597-.82782-.1322-.22815-.52222-.34222-1.17004-.34222-.74414,0-1.25427.15601-1.5304.46802l-.28784-.26971c.37207-.84009.63611-1.79425.79211-2.86249l.57623-3.92377c-.672-.55187-1.27203-.9179-1.80011-1.09808 .21606-.59984.3241-1.33172.3241-2.19562-1e-006-.37206-.03607-.88219-.10822-1.5304l.26971.03625 .10822.70203c1.00818.34791 2.1242,1.07392 3.34808,2.17804l2.59222,2.34009c.94775-.20434 1.42162-.49236 1.42163-.86408-8e-006-.20397-.22797-.51012-.6839-.91846-.33582-.28783-.66578-.53374-.98987-.73773 1.05578-1.03197 1.6798-2.03393 1.87207-3.00586h.26971l-.12579.93603c.62401.44386 1.03197.76173 1.22388.95361 .44384.44422.66576.88825.66577,1.33209-1.1e-005,.54017-.20985.94813-.62952,1.22388l-2.43018,1.5661 2.6098,2.41205c.29992.27613.49199.41419.57623.41419 .09594,2e-006 .20397-.08404.3241-.25214 .07177-.12011.14373-.23419.21588-.34222z"/>
   <path d="m59.03571-53.02413c-2e-006,.21606-.07205.39605-.21616.53998s-.32419.21588-.54025.21588-.39606-.07196-.53998-.21588-.21588-.32392-.21588-.53998c0-.20398.07196-.37802.21588-.52212s.32391-.21616.53998-.21616 .39615.06903.54025.20709 .21615.31512.21616.53119z"/>
   <path d="m62.68097-62.72616h-1.47601l1.06183,3.92377c.13219.49219.19829.84027.1983,1.04425-1.1e-005,.42005-.12599.88202-.37793,1.38593-.10804.21607-.36018.62402-.75641,1.22388h-.32355c.10802-.71997.16204-1.40387.16205-2.0517-1e-005-.16809-.02418-.48614-.07251-.95416l-.46747-4.57196h-6.30011c-4e-006,.8639.11389,1.55384.34167,2.06982 .39624.88807.6123,1.38611.64819,1.49414 .21606.58777.32409,1.11566.3241,1.58368-4e-006,.62403-.23401,1.13407-.70203,1.53012s-1.02613.59408-1.67432.59408h-1.65564c.25195-.58813.37793-1.33209.37793-2.23187l-.10822-.8822h1.33209c.20398,3e-006 .39596-.05694.57596-.17084s.26999-.27301.26999-.47736c-3e-006-.32373-.07196-.7976-.21588-1.42163s-.21588-1.09808-.21588-1.42218c-2e-006-.20397.03003-.4259.09009-.66577h-1.47601c.26404-.44421.39606-1.02026.39606-1.72815-1e-006-.55187-.06006-1.01385-.18018-1.38593h10.22388c-.1681.46803-.25215.95399-.25214,1.45789-1.1e-005,.57606.08403,1.12812.25214,1.65619z"/>
   <path d="m49.40289-53.02413c-1e-006,.21606-.07205.39605-.21616.53998s-.32419.21588-.54025.21588-.39606-.07196-.53998-.21588-.21588-.32392-.21588-.53998c0-.20398.07196-.37802.21588-.52212s.32391-.21616.53998-.21616 .39615.06903.54025.20709 .21616.31512.21616.53119zm0,2.80756c-1e-006,.21606-.07205.39614-.21616.54025s-.32419.21615-.54025.21616-.39606-.07206-.53998-.21616-.21588-.32419-.21588-.54025c0-.20398.07498-.38095.22495-.53091s.32693-.22495.53091-.22495c.21606-4e-006 .39615.07205.54025.21616s.21616.324.21616.5397z"/>
   <path d="m50.6059-57.34451c-6e-006,.50427-.28803.95435-.86408,1.35022-.52808.35999-1.05616.53998-1.58423.53998h-2.66364c.37207-.71997.5581-1.41595.5581-2.08795-1e-006-.18017-.04211-.52221-.12634-1.02612h1.99786c.4563,3e-006 .68444-.21606.68445-.64819-3e-006-.8518-.36603-2.02166-1.09808-3.50958h-1.5304c.04834-.42004.07251-.77416.07251-1.06238-1e-006-.78002-.11408-1.46392-.34222-2.0517h1.22388c-2e-006-.85216-.24005-1.58422-.72015-2.19617l-.28784-.03571-.03571-.64819 .75586-.09009 .03571.63007-.28784.14392c.37207.54017.61212,1.27223.72015,2.19617h.46802v-2.98828l-.28784-.08954v-.63007h.75586v.64764l-.27026.07196v2.98828h.44989c-3e-006-.74413.24005-1.47618.72015-2.19617l-.26971-.10767 .05383-.63007 .73773.03571-.05383.66632-.30597.03571c-.48011.64821-.72016,1.38026-.72015,2.19617h.97229c-.02417.34791-.03626.54585-.03625.59381-5e-006,.27613.04202.69618.12607,1.26013s.12606.98402.12607,1.26013h-1.47601l1.58423,2.75372c.3479.61194.56982,1.02594.66577,1.242 .16809.43213.25213.89411.25214,1.38593z"/>
   <path d="m40.78082-52.6462h-1.38593l-.05383.80969c-2e-006,.1322.08093.3153.2428.54932s.2428.41088.2428.53064c-2e-006,.21606-.07196.39614-.21588.54025s-.32392.21615-.53998.21616c-.20398-5e-006-.37793-.07206-.52185-.21616s-.21588-.32419-.21588-.54025c-1e-006-.14393.08093-.32685.2428-.54877s.2428-.39899.2428-.53119l-.05383-.80969h-1.38593v-.95416h3.40192z"/>
   <path d="m44.36566-58.85623c-.46803,1.04407-.70204,2.14801-.70203,3.31183l-.16205.1983c-.66029-.08423-1.3083-.41437-1.94403-.99042l-5.88593-5.32782-.46802,3.14978c.25195,3e-006 .62988.0661 1.13379.1983 .98401.26404 1.47601.62403 1.47601,1.07996-6e-006,.90015-.34205,1.92023-1.02612,3.06024l-.41363-.1983c.20398-.43213.30597-.70807.30597-.82782-.1322-.22815-.52222-.34222-1.17004-.34222-.74414,0-1.25427.15601-1.5304.46802l-.28784-.26971c.37207-.84009.63611-1.79425.79211-2.86249l.57623-3.92377c-.672-.55187-1.27203-.9179-1.80011-1.09808 .21606-.59984.3241-1.33172.3241-2.19562-1e-006-.37206-.03607-.88219-.10822-1.5304l.26971.03625 .10822.70203c1.00818.34791 2.1242,1.07392 3.34808,2.17804l2.59222,2.34009c.94775-.20434 1.42162-.49236 1.42163-.86408-8e-006-.20397-.22797-.51012-.6839-.91846-.33582-.28783-.66578-.53374-.98987-.73773 1.05578-1.03197 1.6798-2.03393 1.87207-3.00586h.26971l-.12579.93603c.62401.44386 1.03197.76173 1.22388.95361 .44384.44422.66576.88825.66577,1.33209-1.1e-005,.54017-.20985.94813-.62952,1.22388l-2.43018,1.5661 2.6098,2.41205c.29992.27613.49199.41419.57623.41419 .09594,2e-006 .20397-.08404.3241-.25214 .07177-.12011.14373-.23419.21588-.34222z"/>
   <path d="m32.364-51.314c-9e-6 1.0558-0.12617 1.9017-0.37848 2.5378l-0.25159 0.25214-1.2601-14.202h-5.9579l0.23401 2.7537h3.3838l0.28784 2.79h-2.6636c-0.4563 2e-6 -0.84632-0.20398-1.17-0.61194-0.29993-0.35998-0.46802-0.78003-0.50427-1.2601l-0.73773-8.4238h0.25159l0.21643 1.6381h7.0197c0.5039 0.36 0.8399 1.014 1.008 1.9622 0.04796 0.31202 0.09594 1.08 0.14392 2.3038l0.37848 9.4318z"/>
  </g>
  <g transform="matrix(.95001 0 0 1 -147.55 -210.04)">
   <path d="m329.38672-45.35623c0,.21608-.072.39607-.21588.53998s-.32392.21589-.53998.21588-.39615-.07195-.54025-.21588-.21616-.3239-.21616-.53998c0-.20397.0751-.38094.22522-.53091s.32721-.22493.53119-.22495c.21606,1.3e-005 .39606.07197.53998.21588s.21588.32393.21588.53998z"/>
   <path d="m339.52325-39.1105c-1e-005,1.56006-.46802,2.95221-1.40405,4.17645-1.00782,1.31983-2.21979,1.97974-3.63592,1.97974h-1.94403c.40795-.71997.61193-1.62597.61193-2.71802 0-.07214-.0119-.20416-.0357-.39606h2.78998c.73168,3e-006 1.31963-.16791 1.76385-.50372 .49181-.37207.73772-.91204.73773-1.61993-1e-005-.66027-.258-1.17645-.77398-1.54852-.46803-.32372-1.04389-.48559-1.7276-.4856h-5.85022l-.39606-7.54211c-.0238-.35997-.16773-.53996-.43176-.53998h-.99042l-.1615,1.13379h-.1983c0-.13182.006-.3358.0181-.61194v-.61194c1e-005-1.09203-.084-2.17198-.25213-3.23987l.25213-.05383c.15601.81594.38398,1.2239.6839,1.22388h.39606v-1.65619h.19775v1.65619h.19831c.3479,1.8e-005 .6329.10201.85501.30597s.33316.47994.33316.82782v5.99414h5.25586c1.0078,1.1e-005 1.87774.438 2.6098,1.31397s1.09807,1.84791 1.09808,2.91577z"/>
   <path d="m328.6391-36.35623c-.46803,1.04407-.70204,2.14801-.70203,3.31183l-.16205.1983c-.66028-.08423-1.30829-.41437-1.94403-.99042l-5.88592-5.32782-.46802,3.14978c.25195,3e-006 .62988.0661 1.13379.1983 .984.26404 1.47601.62403 1.47601,1.07996 0,.90015-.34204,1.92023-1.02612,3.06024l-.41364-.1983c.20398-.43213.30597-.70807.30597-.82782-.1322-.22815-.52222-.34222-1.17004-.34222-.74414,0-1.25427.15601-1.5304.46802l-.28784-.26971c.37207-.84009.63611-1.79425.79212-2.86249l.57623-3.92377c-.672-.55187-1.27203-.9179-1.80011-1.09808 .21606-.59984.3241-1.33172.3241-2.19562 0-.37206-.0361-.88219-.10822-1.5304l.26972.03625 .10821.70203c1.00818.34791 2.1242,1.07392 3.34808,2.17804l2.59223,2.34009c.94774-.20434 1.42162-.49236 1.42163-.86408-1e-005-.20397-.22797-.51012-.6839-.91846-.33582-.28783-.66578-.53374-.98987-.73773 1.05578-1.03197 1.6798-2.03393 1.87207-3.00586h.26972l-.1258.93603c.62402.44386 1.03198.76173 1.22388.95361 .44384.44422.66576.88825.66577,1.33209-1e-005,.54017-.20985.94813-.62951,1.22388l-2.43018,1.5661 2.6098,2.41205c.29992.27613.492.41419.57623.41419 .0959,2e-006 .20397-.08404.3241-.25214 .0718-.12011.14373-.23419.21588-.34222z"/>
   <path d="m307.02789-30.52413c0,.21606-.072.39605-.21615.53998s-.32419.21588-.54026.21588-.39605-.07196-.53997-.21588-.21589-.32392-.21589-.53998c0-.20398.072-.37802.21589-.52212s.32391-.21616.53997-.21616 .39615.06903.54026.20709 .21615.31512.21615.53119z"/>
   <path d="m310.67316-40.22616h-1.47602l1.06183,3.92377c.13219.49219.19829.84027.19831,1.04425-2e-005,.42005-.12599.88202-.37793,1.38593-.10805.21607-.36018.62402-.75641,1.22388h-.32355c.10802-.71997.16204-1.40387.16205-2.0517-1e-005-.16809-.0242-.48614-.0725-.95416l-.46747-4.57196h-6.30011c0,.8639.11389,1.55384.34167,2.06982 .39624.88807.61231,1.38611.6482,1.49414 .21606.58777.32409,1.11566.32409,1.58368 0,.62403-.23401,1.13407-.70202,1.53012s-1.02613.59408-1.67432.59408h-1.65564c.25195-.58813.37793-1.33209.37793-2.23187l-.10821-.8822h1.33209c.20398,3e-006 .39596-.05694.57596-.17084s.26998-.27301.26999-.47736c-1e-005-.32373-.072-.7976-.21588-1.42163s-.21589-1.09808-.21589-1.42218c0-.20397.03-.4259.0901-.66577h-1.47601c.26404-.44421.39605-1.02026.39606-1.72815-1e-005-.55187-.0601-1.01385-.18018-1.38593h10.22388c-.16811.46803-.25215.95399-.25214,1.45789-1e-005,.57606.084,1.12812.25214,1.65619z"/>
   <path d="m296.44586-30.52413c0,.21606-.072.39605-.21615.53998s-.32419.21588-.54026.21588-.39605-.07196-.53997-.21588-.21589-.32392-.21589-.53998c0-.20398.072-.37802.21589-.52212s.32391-.21616.53997-.21616 .39615.06903.54026.20709 .21615.31512.21615.53119zm0,2.80756c0,.21606-.072.39614-.21615.54025s-.32419.21615-.54026.21616-.39605-.07206-.53997-.21616-.21589-.32419-.21589-.54025c0-.20398.075-.38095.22495-.53091s.32693-.22495.53091-.22495c.21607-4e-006 .39615.07205.54026.21616s.21615.324.21615.5397z"/>
   <path d="m298.55359-34.77255c-1e-005,.78003-.27595,1.60803-.82782,2.48401l-.25214-.12579c.048-.22815.072-.49219.072-.79211 0-.44385-.096-.97174-.28784-1.58368-.16809-.50427-.34204-1.0144-.52185-1.5304l-.46802.66632c-.0721,1.07996-.15015,1.74591-.23401,1.99786-.23987.65991-.7619.98987-1.5661.98987-.56396,0-1.27789-.17999-2.14178-.53998 .62402-.73205.93603-1.78198.93603-3.14978 .64783.37207 1.21784.55811 1.71003.5581 .43176,3e-006 .72564-.08404.88165-.25214l.72015-.82782-1.85394-3.34808h-1.80011c.0601-.60021.0901-.92431.0901-.97229 0-.75585-.12598-1.46978-.37793-2.14179h1.242c-.0842-.82799-.33618-1.56005-.75586-2.19617l-.28839-.03571-.0357-.64819 .75586-.09009 .0357.63007-.28784.14392c.39624.57606.63629,1.30812.72015,2.19617h.46802v-2.98828l-.28784-.08954v-.63007h.75586v.64764l-.27027.07196v2.98828h.45044c0-.74413.23987-1.47618.71961-2.19617l-.26972-.10767 .0538-.63007 .73828.03571-.0544.66632-.28785.03571c-.4801.64821-.72015,1.38026-.72015,2.19617h1.07996c-.0839.39588-.1258.76777-.1258,1.11566 0,.73206.12598,1.3982.37793,1.99841h-1.33209l2.2143,3.00586c.6837.93604 1.02556,1.75196 1.02557,2.44775z"/>
   <path d="m285.47656-45.35623c0,.21608-.072.39607-.21588.53998s-.32391.21589-.53998.21588-.39614-.07195-.54025-.21588-.21615-.3239-.21616-.53998c1e-005-.20397.0751-.38094.22522-.53091s.32721-.22493.53119-.22495c.21607,1.3e-005 .39606.07197.53998.21588s.21588.32393.21588.53998z"/>
   <path d="m290.61761-34.84451c0,.50427-.28803.95435-.86407,1.35022-.52808.35999-1.05616.53998-1.58423.53998h-2.66363c.37207-.71997.5581-1.41595.5581-2.08795 0-.18017-.0421-.52221-.12634-1.02612h1.99786c.4563,3e-006 .68445-.21606.68445-.64819 0-.8518-.36603-2.02166-1.09808-3.50958h-1.5304c.0483-.42004.0725-.77416.0725-1.06238 0-.78002-.11407-1.46392-.34222-2.0517h1.22387c0-.85216-.24005-1.58422-.72015-2.19617l-.28784-.03571-.0357-.64819 .75586-.09009 .0357.63007-.28784.14392c.37207.54017.61212,1.27223.72015,2.19617h.46802v-2.98828l-.28784-.08954v-.63007h.75586v.64764l-.27027.07196v2.98828h.44989c0-.74413.24005-1.47618.72016-2.19617l-.26972-.10767 .0538-.63007 .73774.03571-.0538.66632-.30597.03571c-.4801.64821-.72015,1.38026-.72015,2.19617h.97229c-.0242.34791-.0363.54585-.0362.59381-1e-005,.27613.042.69618.12606,1.26013s.12607.98402.12607,1.26013h-1.47601l1.58423,2.75372c.34789.61194.56982,1.02594.66577,1.242 .16808.43213.25213.89411.25213,1.38593z"/>
   <path d="m284.41418-37.02255c-.58814,1.26014-.95417,2.61621-1.09808,4.06824h-9.39606c.16809-.50391.25214-1.04388.25214-1.61993 0-.38415-.048-.8822-.14392-1.49414h8.29797l-.1983-4.15778h-7.81183c0-.76794-.0601-1.46996-.18017-2.10608-.0718-.38415-.23969-1.06218-.50373-2.03412l.16205-.09009 .66577,1.11621h.6482l-.12635-2.50214h-.34167l-.0181-.86408h.89978v.86408h-.37793l.12634,2.50214h7.54157l.3241-.63007 .25213.16205c-.37208.69581-.54603,1.53571-.52185,2.51971v.18018l.19775,5.03998h.37793l.66633-1.15192z"/>
  </g>
  <g transform="matrix(.95001 0 0 1 -71.535 -184.68)">
   <path d="m249.37109-45.35623c0,.21608-.072.39607-.21588.53998s-.32391.21589-.53998.21588-.39614-.07195-.54025-.21588-.21615-.3239-.21615-.53998c0-.20397.0751-.38094.22522-.53091s.32721-.22493.53118-.22495c.21607,1.3e-005 .39606.07197.53998.21588s.21588.32393.21588.53998z"/>
   <path d="m259.50763-39.1105c-1e-005,1.56006-.46803,2.95221-1.40405,4.17645-1.00782,1.31983-2.2198,1.97974-3.63593,1.97974h-1.94403c.40796-.71997.61194-1.62597.61194-2.71802 0-.07214-.0119-.20416-.0357-.39606h2.78998c.73168,3e-006 1.31963-.16791 1.76386-.50372 .49181-.37207.73772-.91204.73773-1.61993-1e-005-.66027-.25801-1.17645-.77399-1.54852-.46802-.32372-1.04389-.48559-1.7276-.4856h-5.85022l-.39606-7.54211c-.0238-.35997-.16772-.53996-.43176-.53998h-.99042l-.16149,1.13379h-.19831c0-.13182.006-.3358.0181-.61194v-.61194c0-1.09203-.084-2.17198-.25214-3.23987l.25214-.05383c.15601.81594.38397,1.2239.6839,1.22388h.39606v-1.65619h.19775v1.65619h.1983c.3479,1.8e-005 .63291.10201.85501.30597s.33316.47994.33316.82782v5.99414h5.25586c1.00781,1.1e-005 1.87774.438 2.60981,1.31397s1.09807,1.84791 1.09808,2.91577z"/>
   <path d="m248.62347-36.35623c-.46802,1.04407-.70203,2.14801-.70202,3.31183l-.16205.1983c-.66029-.08423-1.3083-.41437-1.94403-.99042l-5.88593-5.32782-.46801,3.14978c.25195,3e-006 .62988.0661 1.13378.1983 .98401.26404 1.47601.62403 1.47602,1.07996-1e-005,.90015-.34205,1.92023-1.02613,3.06024l-.41363-.1983c.20398-.43213.30597-.70807.30597-.82782-.13221-.22815-.52222-.34222-1.17004-.34222-.74415,0-1.25428.15601-1.5304.46802l-.28784-.26971c.37207-.84009.6361-1.79425.79211-2.86249l.57623-3.92377c-.67199-.55187-1.27203-.9179-1.8001-1.09808 .21606-.59984.32409-1.33172.32409-2.19562 0-.37206-.0361-.88219-.10821-1.5304l.26971.03625 .10822.70203c1.00817.34791 2.1242,1.07392 3.34808,2.17804l2.59222,2.34009c.94775-.20434 1.42163-.49236 1.42163-.86408 0-.20397-.22797-.51012-.68389-.91846-.33583-.28783-.66578-.53374-.98987-.73773 1.05578-1.03197 1.6798-2.03393 1.87207-3.00586h.26971l-.12579.93603c.62401.44386 1.03197.76173 1.22388.95361 .44383.44422.66576.88825.66577,1.33209-1e-005,.54017-.20985.94813-.62952,1.22388l-2.43018,1.5661 2.60981,2.41205c.29991.27613.49199.41419.57623.41419 .0959,2e-006 .20397-.08404.3241-.25214 .0718-.12011.14372-.23419.21588-.34222z"/>
   <path d="m227.88-30.146h-3.4019v-0.95416h3.4019z"/>
   <path d="m230.65753-40.22616h-1.47601l1.06183,3.92377c.13219.49219.19829.84027.1983,1.04425-1e-005,.42005-.12599.88202-.37793,1.38593-.10804.21607-.36018.62402-.75641,1.22388h-.32355c.10803-.71997.16204-1.40387.16205-2.0517-1e-005-.16809-.0242-.48614-.0725-.95416l-.46747-4.57196h-6.3001c-1e-005,.8639.11388,1.55384.34167,2.06982 .39624.88807.6123,1.38611.64819,1.49414 .21606.58777.3241,1.11566.3241,1.58368 0,.62403-.23401,1.13407-.70203,1.53012s-1.02612.59408-1.67431.59408h-1.65564c.25195-.58813.37793-1.33209.37793-2.23187l-.10822-.8822h1.33209c.20398,3e-006 .39597-.05694.57596-.17084s.26999-.27301.26999-.47736c0-.32373-.072-.7976-.21588-1.42163s-.21588-1.09808-.21588-1.42218c0-.20397.03-.4259.0901-.66577h-1.47602c.26404-.44421.39606-1.02026.39606-1.72815 0-.55187-.0601-1.01385-.18018-1.38593h10.22388c-.1681.46803-.25215.95399-.25213,1.45789-2e-005,.57606.084,1.12812.25213,1.65619z"/>
   <path d="m217.33167-30.52413c-1e-005,.21606-.072.39605-.21589.53998s-.32392.21588-.53997.21588-.39909-.07196-.54905-.21588-.22495-.32392-.22494-.53998 .075-.39313.22494-.53119 .33298-.20709.54905-.20709c.20397-2e-006 .38094.07205.53091.21616s.22494.31814.22495.52212zm-.0176,2.44775c-1e-005,.21606-.0721.39605-.21616.53998s-.32419.21588-.54025.21588-.39561-.07197-.53971-.21588-.21616-.32392-.21615-.53998c-1e-005-.20398.075-.38095.22494-.53091s.32693-.22495.53092-.22495c.21606-4e-006 .39614.07196.54025.21588s.21615.32391.21616.53998zm-2.82624-2.06982h-3.40191v-.95416h3.40191z"/>
   <path d="m218.57532-41.41433c-1e-005,.65992-.27595,1.50001-.82782,2.52026l-2.10608,3.88751c-.56397,1.03198-1.422,1.78198-2.5741,2.25l-4.55383,1.83637c.44385-.96021.66577-2.0462.66577-3.258l2.30383-.72015-.55755-5.32782h-1.49414c0-1.41613-.0959-2.45415-.28785-3.11408h1.09754c-.0597-.82799-.30561-1.56005-.73773-2.19617l-.28784-.03571-.0363-.64819 .75586-.09009 .0362.63007-.28784.14392c.3717.54017.61157,1.27223.71961,2.19617h.46801v-2.98828l-.28784-.08954v-.63007h.75586v.64764l-.26971.07196v2.98828h.44989c-1e-005-.74413.24005-1.47618.72015-2.19617l-.27026-.10767 .0538-.63007 .73828.03571-.0538.66632-.28839.03571c-.47974.64821-.71961,1.38026-.71961,2.19617h1.22388c-.0601.21607-.0901.53413-.0901.95416 0,.56397.0959,1.28394.28784,2.15991h-1.42163l.43177,5.14764 1.94403-.63007c.90014-.28784 1.56609-.83368 1.99786-1.63751 .70824-1.3081 1.06237-1.99822 1.06238-2.07037-1e-005-.22778-.15016-.40173-.45044-.52185l-2.08795-.81024c.26403-.51598.61815-1.52984 1.06238-3.04156l2.12365.91791c.52807.22779.79211.71375.79212,1.45789z"/>
   <path d="m207.66754-30.52413c0,.21606-.072.39605-.21615.53998s-.3242.21588-.54026.21588c-.20398-4e-006-.38095-.07498-.53091-.22495s-.22495-.32694-.22495-.53092 .072-.37802.21616-.52212 .324-.21616.5397-.21616 .39615.07205.54026.21616 .21615.31814.21615.52212zm-2.62793,0c0,.21606-.0721.39605-.21615.53998s-.32419.21588-.54026.21588-.39605-.07196-.53997-.21588-.21589-.32392-.21589-.53998c0-.20398.072-.37802.21589-.52212s.32391-.21616.53997-.21616 .39615.06903.54026.20709 .21615.31512.21615.53119zm1.31397,2.08795c-1e-005,.21606-.0721.39605-.21616.53998s-.32419.21588-.54025.21588-.39908-.07196-.54904-.21588-.22495-.32392-.22495-.53998c0-.20398.078-.38398.23401-.53998s.336-.23401.53998-.23401c.21606-4e-006 .39614.07498.54025.22495s.21615.33297.21616.54904z"/>
   <path d="m207.50824-34.84451c-1e-005,.50427-.28803.95435-.86407,1.35022-.52809.35999-1.05616.53998-1.58423.53998h-2.66364c.37207-.71997.55811-1.41595.55811-2.08795 0-.18017-.0421-.52221-.12635-1.02612h1.99787c.45629,3e-006 .68444-.21606.68445-.64819-1e-005-.8518-.36604-2.02166-1.09809-3.50958h-1.53039c.0483-.42004.0725-.77416.0725-1.06238 0-.78002-.11408-1.46392-.34223-2.0517h1.22388c0-.85216-.24005-1.58422-.72015-2.19617l-.28785-.03571-.0357-.64819 .75586-.09009 .0357.63007-.28784.14392c.37207.54017.61212,1.27223.72016,2.19617h.46801v-2.98828l-.28784-.08954v-.63007h.75586v.64764l-.27026.07196v2.98828h.44989c-1e-005-.74413.24004-1.47618.72015-2.19617l-.26971-.10767 .0538-.63007 .73773.03571-.0538.66632-.30597.03571c-.48011.64821-.72016,1.38026-.72015,2.19617h.97229c-.0242.34791-.0363.54585-.0363.59381 0,.27613.042.69618.12607,1.26013s.12606.98402.12607,1.26013h-1.47602l1.58423,2.75372c.3479.61194.56982,1.02594.66577,1.242 .16809.43213.25213.89411.25214,1.38593z"/>
   <path d="m201.32184-44.04226c-.43214.68409-.64821,1.54212-.64819,2.5741-2e-005,.07179.0121.48579.0362,1.24201h-1.15192l.70203,3.23987c.29992,1.37989.44988,2.0279.44989,1.94403-1e-005,.94812-.38398,1.74609-1.15192,2.39392l-.30597-.01813c.0359-1.34399.0538-2.06396.0538-2.15991-1e-005-.55188-.054-1.26581-.16205-2.14179l-.41419-3.258h-8.29797c.10803-.71996.16205-1.4641.16205-2.23242 0-.69579-.0601-1.36175-.18018-1.99786l.30652.09009 .1615,1.02612h.93604l-.0895-2.50214h-.36035l-.0181-.86408h.90033v.86408h-.37793l.10766,2.50214h8.62207l.50428-.86408zm-7.18231,8.15405c-.55189.97193-.82783,2.01581-.82782,3.13165l-1.5661-.25159c-.97193-.15601-1.45789-.62402-1.45789-1.40405 0-.51599.19208-1.17004.57623-1.96216 .33582-.58813.66577-1.17608.98987-1.76385l.3598.16205-.14392.61194c-.0839.3241-.12579.52204-.12579.59381 0,.3479.39587.58796 1.18762.72015z"/>
  </g>
  <g transform="matrix(.95001 0 0 1 13.064 -155.04)">
   <path d="m160.32031-45.35623c0,.21608-.072.39607-.21588.53998s-.32391.21589-.53998.21588-.39614-.07195-.54025-.21588-.21615-.3239-.21616-.53998c1e-005-.20397.0751-.38094.22522-.53091s.32721-.22493.53119-.22495c.21607,1.3e-005 .39606.07197.53998.21588s.21588.32393.21588.53998z"/>
   <path d="m170.45685-39.1105c-1e-005,1.56006-.46803,2.95221-1.40405,4.17645-1.00782,1.31983-2.2198,1.97974-3.63593,1.97974h-1.94403c.40795-.71997.61193-1.62597.61194-2.71802-1e-005-.07214-.0119-.20416-.0357-.39606h2.78998c.73168,3e-006 1.31963-.16791 1.76386-.50372 .49181-.37207.73772-.91204.73773-1.61993-1e-005-.66027-.25801-1.17645-.77399-1.54852-.46803-.32372-1.04389-.48559-1.7276-.4856h-5.85022l-.39606-7.54211c-.0238-.35997-.16772-.53996-.43176-.53998h-.99042l-.1615,1.13379h-.1983c0-.13182.006-.3358.0181-.61194v-.61194c0-1.09203-.0841-2.17198-.25214-3.23987l.25214-.05383c.15601.81594.38397,1.2239.6839,1.22388h.39605v-1.65619h.19776v1.65619h.1983c.3479,1.8e-005 .6329.10201.85501.30597s.33316.47994.33316.82782v5.99414h5.25586c1.00781,1.1e-005 1.87774.438 2.6098,1.31397s1.09808,1.84791 1.09809,2.91577z"/>
   <path d="m159.57269-36.35623c-.46803,1.04407-.70203,2.14801-.70202,3.31183l-.16205.1983c-.66029-.08423-1.3083-.41437-1.94403-.99042l-5.88593-5.32782-.46802,3.14978c.25195,3e-006 .62988.0661 1.13379.1983 .98401.26404 1.47601.62403 1.47602,1.07996-1e-005,.90015-.34205,1.92023-1.02613,3.06024l-.41363-.1983c.20397-.43213.30596-.70807.30597-.82782-.13221-.22815-.52222-.34222-1.17005-.34222-.74414,0-1.25427.15601-1.53039.46802l-.28784-.26971c.37207-.84009.6361-1.79425.79211-2.86249l.57623-3.92377c-.672-.55187-1.27203-.9179-1.80011-1.09808 .21607-.59984.3241-1.33172.3241-2.19562 0-.37206-.0361-.88219-.10821-1.5304l.26971.03625 .10821.70203c1.00818.34791 2.12421,1.07392 3.34809,2.17804l2.59222,2.34009c.94775-.20434 1.42162-.49236 1.42163-.86408-1e-005-.20397-.22797-.51012-.6839-.91846-.33582-.28783-.66577-.53374-.98986-.73773 1.05577-1.03197 1.6798-2.03393 1.87207-3.00586h.26971l-.12579.93603c.62401.44386 1.03197.76173 1.22387.95361 .44384.44422.66577.88825.66578,1.33209-1e-005,.54017-.20985.94813-.62952,1.22388l-2.43018,1.5661 2.60981,2.41205c.29991.27613.49199.41419.57623.41419 .0959,2e-006 .20397-.08404.3241-.25214 .0718-.12011.14372-.23419.21588-.34222z"/>
   <path d="m138.83-30.146h-3.4019v-0.95416h3.4019z"/>
   <path d="m141.60675-40.22616h-1.47601l1.06183,3.92377c.13219.49219.19829.84027.1983,1.04425-1e-005,.42005-.12599.88202-.37793,1.38593-.10804.21607-.36018.62402-.75641,1.22388h-.32355c.10803-.71997.16204-1.40387.16205-2.0517-1e-005-.16809-.0242-.48614-.0725-.95416l-.46747-4.57196h-6.30011c0,.8639.11389,1.55384.34168,2.06982 .39623.88807.6123,1.38611.64819,1.49414 .21606.58777.32409,1.11566.3241,1.58368-1e-005,.62403-.23401,1.13407-.70203,1.53012s-1.02612.59408-1.67431.59408h-1.65564c.25195-.58813.37793-1.33209.37793-2.23187l-.10822-.8822h1.33209c.20398,3e-006 .39597-.05694.57596-.17084s.26999-.27301.26999-.47736c0-.32373-.072-.7976-.21588-1.42163s-.21589-1.09808-.21588-1.42218c-1e-005-.20397.03-.4259.0901-.66577h-1.47602c.26404-.44421.39606-1.02026.39606-1.72815 0-.55187-.0601-1.01385-.18018-1.38593h10.22388c-.1681.46803-.25215.95399-.25214,1.45789-1e-005,.57606.084,1.12812.25214,1.65619z"/>
   <path d="m125.97321-30.52413c-1e-005,.21606-.0721.39605-.21616.53998s-.32419.21588-.54025.21588-.39606-.07196-.53998-.21588-.21588-.32392-.21588-.53998c0-.20398.072-.37802.21588-.52212s.32391-.21616.53998-.21616 .39614.06903.54025.20709 .21615.31512.21616.53119zm0,2.80756c-1e-005,.21606-.0721.39614-.21616.54025s-.32419.21615-.54025.21616-.39606-.07206-.53998-.21616-.21588-.32419-.21588-.54025c0-.20398.075-.38095.22494-.53091s.32694-.22495.53092-.22495c.21606-4e-006 .39614.07205.54025.21616s.21615.324.21616.5397z"/>
   <path d="m129.49542-40.22616h-1.58423l.66632,2.78998 .19776.80969c-1e-005,.44422-.036,1.10733-.10794,1.98935s-.10795,1.54495-.10794,1.9888l-.39606-.01813c-.70789-1.87207-1.06184-3.16809-1.06183-3.88806-1e-005-.40796.0299-1.01989.0898-1.83582s.0898-1.42785.0898-1.83582h-1.52985l-.23401-2.48401-1.63806-2.10608-.61194,1.63806 .25214,2.95203h-1.52985c.11975.64783.31164,1.60786.57569,2.88007l.23401,1.18762c-1e-005,.39624-.033.98429-.0989,1.76413s-.0989,1.36185-.0989,1.746l-.39606.07196c-.62402-1.56006-.92999-2.72406-.9179-3.492v-4.15778h-1.51227c.0601-.32409.0901-.7141.0901-1.17004 0-1.07995-.22797-2.32799-.6839-3.74414l.25158-.0357 .57624,1.83582h3.04211l.93604-2.19617 1.97973,2.19617h2.17804c.34789,1.1e-005 .64196.15602.8822.46802 .20397.26405.31787.5821.34168.95416z"/>
   <path d="m106.21484-45.35623c0,.21608-.072.39607-.21588.53998s-.32391.21589-.53998.21588-.39614-.07195-.54025-.21588-.21615-.3239-.21615-.53998c0-.20397.0751-.38094.22522-.53091s.32721-.22493.53118-.22495c.21607,1.3e-005 .39606.07197.53998.21588s.21588.32393.21588.53998z"/>
   <path d="m117.51208-32.95431h-7.68603c.26367-.94812.3955-1.66205.39551-2.14178-1e-005-.33618-.0359-.66028-.10767-.97229h6.08368c.0963-.21606.14446-.46801.14447-.75586-1e-005-.87597-.20417-1.63806-.61249-2.28626-.49183-.74377-1.15778-1.11565-1.99786-1.11566h-4.15778l-1.47601,6.51599-.66632.97174-.25159-.05383 1.17005-7.25427-2.10608-.43176c.32373-.84008.48559-1.80614.48559-2.89819 0,.03627-.024-.08971-.072-.37793l1.74628.36035c.49182.09596.83679.2819 1.03491.55783s.29718.67796.29718,1.20602c0-.156-.024.22193-.072,1.13379 .43176-.06005.7857-.27904 1.06183-.65698s.41418-.78881.41418-1.23267c0-.33617-.0841-.65423-.25213-.95416h2.37579c2.20824,1.1e-005 3.45629,1.59596 3.74414,4.78784z"/>
   <path d="m105.39691-44.04226c-.44422.68409-.66633,1.59614-.66632,2.73615-1e-005,.26405.024.62403.072,1.07996h-1.17004l.70202,3.23987c.0842.33582.16827.66578.25214.98987 .12011.48011.18016.79816.18018.95416-2e-005,.97193-.37813,1.7699-1.13434,2.39392l-.32355-.01813c-1e-005-.19189.012-.48587.036-.88193s.036-.69003.036-.88193c-1e-005-.828-.0661-1.79406-.1983-2.89819-.12013-.97192-.24611-1.9378-.37793-2.89764h-8.26227c0-.22814.01804-.57925.05411-1.05331s.05411-.82497.05411-1.05277c-1e-006-.70788-.05402-1.41594-.16205-2.12421l.30597.09009 .16205,1.02612h1.2063l-.12634-2.50214h-.34168l-.01813-.86408h.89978v.86408h-.37793l.12634,2.50214h8.36994l.48559-.86408z"/>
  </g>
  <g transform="matrix(.94997 0 0 1 216.75 -80)">
   <path d="m51.48496-208.9179h-1.38593l-.0538.80969c-1e-005,.1322.0809.3153.24279.54931s.2428.41089.2428.53064c0,.21606-.072.39615-.21588.54026s-.32391.21615-.53998.21615c-.20398,0-.37793-.0721-.52185-.21615s-.21588-.3242-.21588-.54026c0-.14392.0809-.32684.2428-.54876s.2428-.39899.2428-.53119l-.0538-.80969h-1.38592v-.95417h3.40192z"/>
   <path d="m55.06979-215.12793c-.46802,1.04407-.70203,2.14802-.70202,3.31183l-.16205.19831c-.66029-.0842-1.3083-.41437-1.94403-.99042l-5.88593-5.32782-.46801,3.14978c.25195,0 .62988.0661 1.13378.1983 .98401.26404 1.47601.62403 1.47602,1.07996-1e-005,.90015-.34205,1.92022-1.02613,3.06024l-.41363-.1983c.20398-.43213.30597-.70807.30597-.82782-.13221-.22815-.52222-.34223-1.17004-.34223-.74415,0-1.25428.15601-1.5304.46802l-.28784-.26971c.37207-.84009.6361-1.79425.79211-2.86249l.57623-3.92377c-.67199-.55187-1.27203-.9179-1.8001-1.09808 .21606-.59985.32409-1.33172.32409-2.19562 0-.37206-.0361-.88219-.10821-1.5304l.26971.0363 .10822.70203c1.00817.34791 2.1242,1.07392 3.34808,2.17804l2.59222,2.34008c.94775-.20434 1.42163-.49236 1.42163-.86407 0-.20397-.22797-.51013-.68389-.91846-.33583-.28783-.66578-.53374-.98987-.73773 1.05578-1.03197 1.6798-2.03393 1.87207-3.00586h.26971l-.12579.93604c.62401.44385 1.03197.76172 1.22388.95361 .44383.44422.66576.88825.66577,1.33209-1e-005,.54017-.20985.94813-.62952,1.22388l-2.43018,1.5661 2.60981,2.41205c.29991.27612.49199.41418.57623.41418 .0959,0 .20397-.084.3241-.25213 .0718-.12012.14372-.23419.21588-.34223z"/>
   <path d="m37.11429-224.12793c0,.21608-.072.39607-.21588.53998s-.32392.21589-.53998.21588-.39615-.072-.54025-.21588-.21616-.3239-.21616-.53998c0-.20396.0751-.38093.22522-.53091s.32721-.22493.53119-.22495c.21606,2e-005 .39606.072.53998.21589s.21588.32392.21588.53997z"/>
   <path d="m42.25534-213.61621c0,.50428-.28803.95435-.86407,1.35022-.52808.35999-1.05616.53998-1.58423.53998h-2.66364c.37207-.71997.55811-1.41595.55811-2.08795 0-.18017-.0421-.52222-.12634-1.02612h1.99786c.45629,0 .68444-.21607.68445-.6482-1e-005-.8518-.36603-2.02166-1.09809-3.50958h-1.53039c.0483-.42004.0725-.77416.0725-1.06238 0-.78002-.11408-1.46392-.34223-2.05169h1.22388c0-.85217-.24005-1.58422-.72015-2.19617l-.28784-.0357-.0357-.64819 .75586-.0901 .0357.63007-.28784.14392c.37207.54017.61212,1.27223.72016,2.19617h.46801v-2.98829l-.28784-.0895v-.63007h.75586v.64764l-.27026.072v2.98829h.44989c0-.74413.24005-1.47619.72015-2.19617l-.26971-.10767 .0538-.63006 .73773.0357-.0538.66632-.30597.0357c-.48011.6482-.72016,1.38026-.72015,2.19617h.97229c-.0242.34791-.0363.54584-.0363.59381 0,.27613.042.69617.12607,1.26013s.12606.98401.12607,1.26013h-1.47602l1.58423,2.75372c.3479.61195.56982,1.02595.66577,1.24201 .16809.43213.25214.8941.25214,1.38592z"/>
   <path d="m31.80624-209.29583c0,.21606-.0721.39605-.21615.53997s-.32419.21588-.54025.21589-.39606-.072-.53998-.21589-.21588-.32391-.21588-.53997c0-.20399.072-.37803.21588-.52213s.32391-.21616.53998-.21616 .39614.069.54025.2071 .21615.31512.21615.53119z"/>
   <path d="m36.098-216.93c-1e-5 1.5-0.28199 2.6521-0.84594 3.4563-0.80385 1.1638-1.8659 1.7457-3.186 1.7457h-6.0298c0.048-0.37207 0.072-0.67804 0.072-0.91791-1e-5 -0.71997-0.084-1.452-0.25214-2.1962h6.3539c1.86 0 2.79-0.71997 2.79-2.1599-1e-5 -0.70788-0.32392-1.2418-0.97174-1.6018-0.4922-0.26403-1.0983-0.39605-1.8182-0.39606h-6.75c0.10803-0.2882 0.16205-0.61834 0.16205-0.99042 0-0.5039-0.14392-1.2118-0.43176-2.1236h6.3177c1.5242 1e-5 2.7662 0.78003 3.726 2.3401 0.57604 0.93605 0.86406 1.884 0.86407 2.8438z"/>
   <path d="m24.3251-220.31182c0,1.65601-.63007,3.35999-1.89019,5.11193l-.46802-.30597c.62402-.97191.93603-1.93798.93603-2.89819 0-.39587-.2699-.5938-.80969-.59381h-1.17004l-.30597.89978-.1983-.0538c.06-.38415.0901-.72619.0901-1.02613-1e-005-1.35607-.12598-2.67607-.37794-3.96002-.0959-.49181-.14392-.86388-.14391-1.11621h.26971l.41418,2.14234h1.92591c.5039,1e-005 .9179.18 1.242.53997s.48614.78004.48614,1.26014z"/>
   <path d="m12.93613-222.81396c-.43214.68409-.64821,1.54212-.6482,2.5741-1e-005,.0718.0121.48578.0362,1.242h-1.15191l.70202,3.23987c.29992,1.37988.44988,2.02789.44989,1.94403-1e-005,.94812-.38398,1.74609-1.15191,2.39392l-.30597-.0181c.0359-1.34399.0538-2.06396.0538-2.15991-1e-005-.55188-.054-1.2658-.16205-2.14178l-.41419-3.258h-8.29797c.10803-.71996.16205-1.4641.16205-2.23242 0-.69579-.0601-1.36175-.18018-1.99787l.30652.0901 .1615,1.02613h.93604l-.0895-2.50214h-.36035l-.0181-.86408h.90033v.86408h-.37793l.10766,2.50214h8.62207l.50427-.86408zm-7.18231,8.15405c-.55189.97193-.82783,2.01581-.82783,3.13165l-1.5661-.25158c-.97192-.15601-1.45788-.62403-1.45788-1.40406 0-.51598.19207-1.17004.57623-1.96215 .33581-.58813.66577-1.17609.98987-1.76386l.3598.16205-.14392.61194c-.0839.3241-.1258.52204-.12579.59381-1e-005,.3479.39587.58795 1.18762.72015z"/>
  </g>
 </g>
</svg>
