<?xml version="1.0" encoding="UTF-8"?>
<svg viewBox="0 0 539.18 751.52" xmlns="http://www.w3.org/2000/svg">
 <g transform="matrix(1.25 0 0 -1.25 0 751.52)">
  <g transform="translate(.8 16.8) scale(.24)">
   <path d="m1797.3 2076.1h-792.66v428.94h-193.96l-17.98-15.99 17.98-412.95h-792.66l-17.981-15.99 17.98-177.97h792.66v-1866.2l175.97-15.988 17.993 15.988v1866.2l774.68-15.99 17.98 15.99v193.96"/>
   <path d="m1779.3 2060.1h-792.67v428.94h-193.95v-428.94h-792.67v-193.95h792.67v-1866.2h193.95v1866.2h792.67v193.95"/>
   <path d="m893.24 1877.2c12.133-9.72 34.778-7.99 40.367-29.18-5.191 3.2101-15.98 6-17.984 3.6001 9.594-6.79 33.574-19.72 27.574-33.83-3.996 5.4601-10.785 9.0601-13.984 9.85 5.199-11.99 13.191-22.38 29.176-21.58-2-6.79-19.582-6.79-25.578-2.4 3.996-15.98 15.187-30.37 33.57-26.77-2.797-10-28.375-10.39-33.969-5.2 5.594-9.59 17.981-27.27 31.567-25.38-19.582-12.21-53.149 24.58-53.954 14.99 17.391-7.1899 24.586-23.98 44.965-26.98 20.387-3 21.504 24.38 43.164 31.18 30.578 9.59 66.538 8.3899 100.12 0 11.38-1.2001 56.35 28.18 89.32 34.17s70.74 1.79 75.53 7.79c4.7999 6 24.18 28.58 52.96 37.37s63.35 20.78 82.53 30.37c19.19 9.6 110.91 58.16 116.9 62.95 6.39 13.18 6.5299 30.06 12.52 38.86 6 8.7899 23.05 21.69 29.04 27.68 6 6 26.93 10.49 32.93 22.63 8.39-4.39 0.65002-18.63-2.55-21.83-3.2-3.2001-14.39-11.59-13.99-13.99 0.41003-2.39 4-7.99 10-7.1901 5.99 0.80005 21.97 7.1901 31.17 11.19 9.1899 4 29.17 13.99 33.17 15.58 4 1.6 13.99 7.6 17.58 2.01 3.6-5.6-4.5901-9.4-11.79-13.39-7.1899-4-24.73-14.18-29.97-17.19-5.15-2.9601-16.58-15.38 4.36-8.4 12.36 4.11 25.41 11 35 14.2 9.6 3.1901 22.14 10.94 27.73 6.9401 5.6-4-4.54-12.54-21.33-20.54-16.79-7.98-38.03-18.26-40.36-19.58-3.2001-1.8-8.2001-6.79-2.4-5.39 5.7899 1.3999 44.56 15.19 49.15 16.58 4.6 1.41 17.17 7.48 18.39-0.58997 0.99011-6.6-15.19-11.4-19.39-13.6-4.1901-2.1901-41.56-17.58-44.56-18.98-3-1.3999-6.79-5.8999-2-5.7899 9.6 0.22998 27.53 0.54993 44.52 0.75 16.98 0.19995 7.25-9.54-2.75-10.54-9.99-1-34.37-3.5599-38.57-3.6-6.0099-0.070068-14.39-3.2001-24.77-6.39-10.39-3.2-33.13-16.09-53.81-14.24-10.19-3.6-63.7-51.11-78.69-61.9-14.98-10.79-64.74-47.96-82.13-56.35-18.71-9.04-38.96-8.39-52.15-17.98-13.19-9.6-43.76-20.39-65.34-26.98-21.59-6.5901-48.57-28.78-71.34-39.57-22.79-10.79-112.7-37.17-136.08-45.56 0-7.2001-4.21-32.97-13.19-52.16-0.61011-11.99-7.8-65.94-8.4-104.91-0.59998-38.97-27.57-106.7-35.97-139.07 2.4-18.59 13.19-64.75 10.19-94.73-33.566 10.19-106.71-43.16-138.48-56.34-31.773-13.2-52.16-21.59-74.937-17.99-22.778 3.59-41.239 7.77-67.016 6.57 0.59796 23.38 8.867 40.19 10.066 49.77 1.2 9.6001-7.191 22.79 0 43.77 7.192 20.98 10.188 52.15 8.992 67.74-1.195 15.59-15.585 78.53-19.183 101.92-3.598 23.38-7.793 81.53-10.192 100.11-10.191 16.19-34.171 68.94-38.066 85.72-11.09 10.49-15.289 13.8-15.289 13.8-15.582 5.99-25.777 19.78-32.371 21.58-6.594 1.79-41.367 5.99-74.336 30.57-41.965 9-97.719 41.97-97.719 41.97-7.191-1.8-17.984 4.79-26.375 14.98-13.789 10.8-55.156 32.97-83.929 60.55-28.778 27.58-106.61 99.22-130.99 105.21-15.289-3.6-43.105 0.87-56.777 7.9-11.664 5.99-44.035 11.18-52.828 12.39-8.793 1.1899-16.071 3.2799-17.985 9.98-2 7 17.184-0.39002 26.778 0 9.59 0.40002 9.25-2.0601 20.039 1.4 10.793 3.46-7.254 8-19.238 15.19-11.997 7.1901-25.981 14.19-33.176 21.38-7.1915 7.2-13.062 10.41-13.586 14.39-0.5586 4.2-1.043 11.11 8.3906 6.8 9.6326-4.42 21.184-12.79 30.375-19.19 9.192-6.4 20.801-9.35 26.391-12.15 4.602-2.2899 6.766 2.86 2.77 6.05-4 3.2-19.93 12.14-24.965 15.3-4.547 2.8301-35.285 21.98-39.567 24.97-4.2812 2.99-9.5664 21.46 10.891 10.99 21.078-10.78 26.379-15.19 33.273-18.78 6.891-3.6 26.368-15.55 31.172-18.29 5.098-2.89 6.383-0.19995 5.266 2.4-2.387 5.5-25.25 18.69-27.25 20.69-1.992 2-16.578 10.79-22.176 15.18-5.601 4.4-2.965 13.5 8.883 7.51 9.492-4.8099 28.082-15.1 41.273-23.49 13.188-8.4 18.782-12 23.176-12.79 5.25-0.95996 8.594 0.98999 4.199 8.99-4.394 7.99-15.386 9.39-18.593 17.98-1.727 4.63-7.981 18.19 2.007 20.19 5.196-8.8 20.383-16.39 28.375-24.78 7.997-8.39 20.188-11.59 27.579-22.78 6.863-10.38 20.281-24.48 19.882-40.07 11.192-10.79 94.418-55.05 122-69.84 27.579-14.79 52.157-19.19 77.336-29.97 25.176-10.79 55.149-39.57 73.801-57.09 1.801 0 36.379-1.4399 53.891-7.0599 31.769-10.19 52.754-28.78 87.519-46.16 28.18 1.8 65.953 0.59998 89.926-14.99 5.996 0-11.09 14.39-23.078 18.29-11.988 3.89-6 14.98-6 14.98s-11.687-14.38-17.379-14.98c4.195 0 5.094 24.58 5.094 24.58s-6.293-14.09-13.188-12.29c2.996 2.0901-4.5 11.68-4.5 11.68s-15.586-1.1901-21.582 3c4.5-0.30005 20.985 13.19 15.594 15.59-9.293-2.4-17.687 0.90002-21.59 5.7001 11.992-0.31006 5.102 13.78 4.199 20.38-0.89801 6.59 11.692 3 11.692 10.79-4.793 3.3-3.297 13.19-3.297 13.19s4.793-4.5 9.891-3.6001c4.195 13.19-7.793 28.18 5.996 39.57 1.8-6.59 10.34-10.05 10.191-4.2-0.085999 3.3899-8.191 23.78 15.188 34.57-1.196-6.39-1.606-6.79 2.796-6.79 4.395 0 16.387 23.18 43.965 25.18-1.605-4.4 3.598-3.8 3.598-3.8s24.379 16.98 48.758 8.5901c-3.196-3.6001 7.195-8.5901 7.195-8.5901s46.758 9.39 57.145-8.2c-8.391 2.7999-18.379-1.59-15.981-5.1901 3.594-3.7999 13.188 0.6001 15.586-3.7999 2.399-4.39 6.793-4.39 10.586-3.1901 1.203-2.6-4.394-4-4.394-4s-0.99701-6.1899 2.601-6.1899 13.387 6.59 13.387 6.59l-11.594-12.79s7.996-2.2 4-7.7899c-4-5.6 0.60199-9.79 0.60199-9.79l-8.395 2.99s-5.754-7.22-2.801-9.59"/>
   <path d="m1015.5 1008.3c4.79-64.742-7.19-146.27-14.39-221.81-7.193-75.531-17.986-124.69-17.986-136.68 0-11.993 19.086-66.868 16.738-101.78-3.265-48.445-22.261-131.67-30.328-158-11.992-39.164-25.574-99.918-24.773-115.9 0.789-15.992 11.191-33.574 7.988-39.168-3.2029-5.594-10.457-23.977-8.027-30.375 2.429-6.395-4.336-46.895-2.36-83.926 1.993-37.57-11.589-47.961-11.589-47.961l-10.899-9.4922s-9.891-4.7969-13.48-7.1953c-3.602-2.4024-12.793-4.8906-12.793-4.8906-17.364-0.5508-17.254-1.0547-20.68-1.6289-7.191-1.2032-8.199 7.1171-8.199 7.1171s-1.899-6.4492-17.082-5.6484c-15.184 0.8047-12.188 9.9453-11.387 15.543 0.79297 5.5937 4.59 30.973 4.59 37.375 0 6.387 2.847 14.777 0 19.977-4.203 7.687-1.996 14.785-5.625 25.976-3.633 11.188-2.363 103.11-0.36298 108.71 1.996 5.598-4.797 13.988-5.598 17.586-0.80096 3.598 4 26.379 4.801 34.774 0.797 8.39 1.195 23.179-10 59.945-11.188 36.773-45.426 174.25-48.758 207.82-3.324 33.57 3.996 99.914 2.402 114.3-1.605 14.391 3.992 68.746 0 91.93-3.996 23.179-18.383 75.132-27.179 123.09-8.7971 47.957-15.985 83.903-15.985 140.68 10.789 7.1901 12.899 11.44 19.18 17.98 6.289 6.54 58.351-36.37 80.34-55.95 21.976-19.58 42.957-35.67 52.254-37.47 9.289-1.793 11.082 3.593 13.781 7.199 2.699 3.59 34.168 52.451 36.269 53.661 6.899-1.21 65.048-13.5 79.138-25.79"/>
   <path d="m732.57 1178c2.672 4.89 40.168 1.5 70.149-2.7 10.429-1.4601 18.89-3.75 25.769-1.8 54.559 15.49 164.72 79.37 192.44 76.43 6.59 3 12.2 7 12.2 7l9.98-16.39-6.39-4.4 17.98-36.37-2.4-53.54 5.2001-4 6.7999-49.56-7.6-8.79-2.4-59.55-12.38-3.2s3.2001-13.19-12.4-18.78c-19.57 21.18-94.911 35.36-94.911 35.36l-40.168-57.546s-5.996-4.191-13.191-2.402c0 0-96.516 79.128-113.9 91.728-17.391 12.58-16.192-7.79-32.778-15.59-12.984-13.79 6.399-133.68 6.399-133.68l-11.993-4.207-6.593 8.402s-18.907-6.996-18.907 7.191c0 26.977-21.863 17.387-27.253 23.375-5.395 6 0.59698 25.18 0.59698 27.579 0 2.394-4.797-0.59802-7.25 9.585-2.461 10.202 3.656 26.982 3.656 31.182 0 4.19-4.195 2.4-3.597 19.78 0.59698 17.39 42.562 65.34 44.359 68.94 1.801 3.6-4.793 13.79-6.019 19.18-1.231 5.4 7.82 16.79 7.82 21.59 0 4.79-8.398 13.19-7.797 23.38 0.60199 10.19 16.789 22.78 29.977 30.57 0 0-10.789-28.17-5.399-28.77"/>
   <path d="m756.56 1808.9c-4.801-3.2-1.602-19.98-5.598-23.98-4-4-6.793-7.99-3.199-7.99 3.601 0 29.976 5.59 35.57 4.4 5.598-1.2101 10.793 3.59 10.395 4.7899-0.40295 1.1901 0.39801 9.1901 4.793 13.19 4.398 3.99 16.785 7.59 21.98 9.59 5.199 2 4 8.39-5.195 8.39-9.188 0-31.567 1.2-37.567 0-5.992-1.2-21.179-5.1901-21.179-6.79"/>
   <path d="m845.45 120.32c1.801-3 10.625-8.218 13.024-12.41 2.394-4.199 14.386-10.789 16.179-12.594 1.801-1.7969 11.993-4.1953 15.594-7.793 3.59-3.5937 7.789-1.1992 10.789-4.1992 3-2.9922 8.391-7.7851 15.582-5.3906 7.196 2.3984 15.59 8.3906 16.192 10.191 0.60101 1.8008 0.60101 9.5859 0 18.586-0.60199 8.992-4.2 32.973-4.793 40.168-0.60205 7.191-4.801 16.184-9.594 26.973-4.793 10.793-21.586 50.957-21.586 61.746 0 10.793 1.199 31.773-0.59802 37.172-1.797 5.394-9.593 17.98-8.992 25.175 0.60199 7.196 1.68 71.321 3.219 99.516 1.578 28.777 0.828 68.945 0 119.3-0.82398 50.359 0.828 91.718 0 99.511-0.82398 7.801 1.578 34.172 5.773 56.356 4.196 22.18-4.195 47.957-2.402 67.141 1.805 19.187-4.34 71.937-3.371 89.925 0.97601 17.985-5.02 59.95-3.82 86.321 1.203 26.379 1.203 48.562 1.203 50.961l5.859 3.371c0-2.399-2.465-28.078-3.66-54.457-1.199-26.371 3.558-68.203 2.582-86.188-0.96899-17.98 5.172-70.73 3.375-89.918-1.801-19.183 8.125-44.555 3.93-66.742-4.196-22.18-8.129-48.965-7.305-56.754 0.82398-7.797-0.82398-49.156 0-99.516 0.82398-50.355 1.574-90.523 0-119.3-1.543-28.196-2.621-92.321-3.219-99.52-0.60101-7.195 7.195-19.781 8.988-25.18 1.801-5.39 0.60205-26.371 0.60205-37.168 0-10.789 16.789-50.949 21.582-61.746 4.801-10.789 8.996-19.781 9.594-26.976 0.59698-7.192 4.195-31.168 4.801-40.164 0.58899-8.9964 0.58899-16.786 0-18.586-0.60602-1.8008-7.473-7.8008-15.625-10.726-9.938-3.5743-12.747-0.8555-15.86 2.0273-5.39 4.9883-9.722 1.2031-12.324 5.1094-4.363 6.539-10.773 3.4219-14.676 7.2031-5.074 4.9102-15.429 9.664-17.824 13.859-2.402 4.196-9.496 8.782-11.297 11.782l-1.922 2.929"/>
   <path d="m905.23 1758.5c5.696-8.99-1.796-16.38-1.796-16.38l5.918-10.35-7.868-10.48 0.954-21.84s-8.329 13.59-13.415 9.87c-5.043-3.6899-1.339-13.37 6.016-19.56 11.395-9.59 4.793-20.38 4.793-20.38s0.34399 7.49-9.59 6.79c-4.051-5.5901 3.75-20.83-1.855-32.17-3.391 15.73-19.934 9.51-22.274 18.43-4.047 15.44-8.758 11.55-8.758 11.55s-0.98401-9.7999-5.335-11.37c1.203 6.79-10.731 25.75-10.731 25.75s-3.723-3.27-2.976-8.97c-7.567 5.37-12.836 21.3-12.836 21.3s-1.704-9.23-13.543-13.5c1.8 20.23-11.868 27.29-16.262 27.69-4.399 0.41003-5.168-11.28-18.734-14.74 4.398 4 3.011 17.88-0.45001 23.54 0 0-3.297-7.9401-14.461-7.3401 4.848 8.39 5.094 16.56 0.22302 25.48 4.051-5.7 7.098-15.59 2.25-23.98 8.848 0.45007 11.992 8.05 11.992 8.05 3.457-5.66 7.246-19.34 2.844-23.34 11.594 3.59 11.937 14.93 16.336 14.54 4.398-0.40002 20.23-10.19 17.238-27.73 10.942 4.2001 12.391 15.19 12.391 15.19s5.64-18.04 12.035-22.84c-0.75 5.7001 3.953 8.8501 3.953 8.8501s12.785-18.79 11.582-25.58c3.203 1.6 3.602 10.79 3.602 10.79s5.593 4.3 9.64-11.14c2.34-8.92 18.887-2.7 22.274-18.43 3.254 10.39-4.051 26.37 0 31.97 10.101 2.2 11.246-3.99 11.246-3.99s3.597 6.7899-7.793 16.38c-7.356 6.1899-9.563 16.24-3.242 20.68 5.148 3.62 12.285-6.29 12.285-6.29l-0.449 16.63 7.195 10.55-5.992 10.78s7.191 8 3.593 15.59"/>
   <path d="m746.37 1193.6c-1.801 2.4 10.055 29.09 21.879 40.59 10.418 10.12 29.074-43.59 25.481-46.58-3.598-3-45.563 3.59-47.36 5.99"/>
   <path d="m768.25 1253.5c-6.394 9.15-9.586 45.55-1.5 46.76 8.094 1.1899 9.297-23.09 33.574-26.39 8.403-1.14 6.594-32.97-9.593-32.37-16.184 0.59998-16.082 2.84-22.481 12"/>
   <path d="m776.34 1765.2c2.969 4.3101 1.711-10.2 8.5-11.7 6.789-1.49 13.387 5.11 13.984 3 0.59802-2.1001-2.394 14.69-2.394 14.69s2.652 7.0601 3.554 3.17c0.89905-3.91 4.536-8.74 6.938-13.06 2.391-4.32 7.355-22.18 13.187-27.58 5.825-5.39-2.101-7.1901-4.796-7.79-2.7-0.59998-6.297 4.8-7.196 7.79-0.90198 3-2.101 3.6-8.39 5.4-6.293 1.7999-16.489 5.6899-21.586 12.89-5.094 7.1899-5.094 8.3799-1.801 13.19"/>
   <path d="m828.8 1770.3c5.844-1.99 20.683-5.99 24.875-4.1899 4.199 1.7899 6.894-10.97 7.496-17.78 0.59796-6.8-2.098-15.2-9.5941-9.2001-7.492 5.99-16.187 12.99-19.781 19.38-3.598 6.4-8.273 13.59-2.996 11.79"/>
   <path d="m835.29 1817.8c13.941-3.28 19.582 5.72 24.375 0 4.793-5.74 11.77-8.16 10.84-15-0.68402-5.03-6.492-6.87 0.30798-15.5 6.793-8.64-2-19.75-8.793-11.76-6.789 7.99 0.84399 5.27-4.753 16.7-5.594 11.43-8.883 23.02-13.434 17.83-4.5471-5.2001-15.891 9.45-8.543 7.73"/>
   <path d="m705.3 1835c22.379 0.56995 28.801-0.22998 40.804 3.59 19.29 6.15 17.043 14.24 27.946 14.39-11.504-5.53-9.699-25.17 5.887-14.98 7.636 4.98 27.464 20.05 46.164 36.96 1.996 1.8-4.825 25.44-4.5 25.68 0.32398 0.23999 7.343-22.33 15.457-18.16 22.652 11.65 34.902 19.18 48.836 16.52 9.293-5.85 2.535-8.25-4.055-9.45-2.391-0.44006-9.727-2.39-15.383-6.25 0.065979 1.3899 10.441-13.48 9.703-15.33-3.5 5.89-13.043 12.44-17.105 11.57-16.051-8.3401-35.555-20.83-49.746-37.04-0.25-0.30005 17.543-11 17.238-11.25-0.30505-0.23999-21.742 6.86-22.031 6.59-13.789-12.63-54.453-13.03-80.633-37.61-11.809-11.09-18.883 3-8.692 8.99 10.192 5.99 14.789 18.78-8.828 13.81-13.375-2.8101-23.879 11.38-1.062 11.97"/>
   <path d="m1261.9 1792.2c-95.93 3.96-119.3-29.13-149.27-49.52 0 0 8.39-28.17 28.17-24.57 19.79 3.59 76.73 52.43 121.1 52.43 9.59 0 0 21.66 0 21.66"/>
   <path d="m1145.6 1697.8c23.52 13.54 93.51 50.99 113.9 56.07 20.38 5.0801 43.16 22.63 41.96 38.74-1.1899 16.1-15.58-0.68005-19.78 10.11s126.49 64.14 169.65 80.93c43.17 16.78 49.36 33.17 60.95 42.76s17.19-11.99 17.19-14.39-39.97-25.18-53.15-39.57c4.79-3.99 50.35 31.58 56.35 31.98 5.99 0.39002-30.38-29.18-49.96-40.77-19.59-11.59-79.35-66.28-94.72-80.73s-34.77-7.59-24.38 0.80005c10.4 8.3899 40.37 61.2 14.4 29.59-25.99-31.59-47.77-50.77-72.95-60.96s-79.73-33.57-101.91-46.17c-22.19-12.58-65.74-13.09-57.55-8.39"/>
   <path d="m261.98 1956.7c15.882-10.98 94.121-59.35 115.1-68.94 20.981-9.5901 77.93-22.18 105.51-46.16 27.578-23.98-4.199-26.98-11.992-20.98-7.789 5.99-32.973 31.77-70.735 39.56-37.769 7.8 9.59-12.58 27.571-21.58 17.988-8.99 52.757-25.18 59.355-43.16 6.594-17.98-14.992-38.36-30.574-29.97-15.59 8.39-48.563 43.16-83.332 70.14-34.774 26.97-93.52 69.54-110.91 83.93-17.383 14.38-5.743 41.13 0 37.16"/>
   <path d="m750.92 1039.1c1.543-30.56 32.727-199.84 53.352-231.81 20.628-31.969-1.442-43.164 0-60.743 1.445-17.589-11.344-94.328-10.543-102.32 0.79596-7.996-10.395-87.926 8.789-135.88 19.183-47.961 29.582-132.69 45.164-169.45 15.586-36.773 0.39795-62.351 0-73.543-0.39502-11.191 2-75.137 0-86.324-2-11.195-4.797-39.969-1.801-47.758 3-7.797 3.723-1.5 7.496 0.30501 1.598 0.758 2.7581-0.26201 3.832-2.231 1.469-2.679 0.35901-9.011 4.859-11.261 4.332-2.168 4.122 4.836 5.247 8.839 0.74597 2.653 2.917 4.207 4.347 0.153 3.598-10.196-1.199-17.985 5.395-23.383 4.695-3.8438 3.949 9.406 4.73 16.473 0.31702 2.855 5.129-0.383 5.301-3.141 0.59796-9.594-1.168-16.711 6.75-17.527 4.348-0.4492 1.352 14.683 3.598 22.781 0.85901 3.078 0.80798 5.137 3 2.394 4.687-5.847 3.949-21.359 5.199-30.175 1-7.0468 7.437-5.2187 10.984-4.5898 3.192 0.5625 7.09 2.6601 8.0941 7.6406 2.223 10.957-5.539 25.926-8.0941 42.707-2.89 19.09-4.195 18.594-17.379 50.364-13.191 31.777-8.996 49.758-16.187 74.336-7.196 24.578-23.981 90.527-25.18 106.11-1.199 15.59-23.383 137.89-26.379 182.25-2.996 44.363 8.996 89.324 10.793 103.11 1.797 13.789-27.578 35.368-13.789 37.168 13.789 1.801 29.981 4.192 37.766 23.977 7.793 19.789 16.187 62.953 13.191 74.344-2.996 11.386-23.976 119.89-26.976 137.28-2.997 17.391-103.61 150.27-101.56 109.91"/>
   <path d="m933.25 649.85c21.176-14.563 18.738-53.961 27.129-46.77 8.39 7.199-1.199 7.199 0 33.57 1.195 26.383 13.187 57.559 15.582 68.344 2.406 10.797 0 20.387 0 44.367 0 23.985 21.586 107.9 21.586 136.68 0 28.773 1.199 94.715 0 110.31-1.196 15.585-32.367 25.175-46.758 25.175s-34.77-22.78-41.965-54.553c-7.191-31.778-7.191-91.719-7.191-98.914 0-7.192 34.468 86.324 31.617 56.355-2.84-29.977-26.82-63.547-24.426-93.531 2.399-29.969-8.695-158.26 24.426-181.04"/>
   <path d="m847.68 95.316c-1.289-7.7773-5.996-31.168 0-32.367 5.996-1.1992 10.191 2.9922 11.39 16.18 1.196 13.195-10.605 20.953-11.39 16.188"/>
   <path d="m870.46 77.285c0.59802-7.793-3.398-24.043 2.848-19.844 6.246 4.1992 5.843 15 5.843 19.844 0 4.8437-8.691 0-8.691 0"/>
   <path d="m840.58 1703.1c4.914 4.15 7.527 7.1899 12.438 9.17 4.906 1.97 10.265 2.07 5.863-0.8501-4.399-2.9199-28.895-17.3-18.301-8.32"/>
   <path d="m1023.1 1653c21.64 17.52 44.76 69.54 60.75 75.94 15.99 6.39 9.59 22.95 8 26.26-1.61 3.3101-33.58 2.51-54.36 3.3101-20.78 0.80005-15.19-8.79-14.39-27.98 0.79999-19.18-19.18-37.56-24.778-47.15-5.598-9.6 7.988-43.96 24.778-30.38"/>
   <path d="m246.59 1970.3c1.324 12.38-19.742 45-25.571 46.81-14.503 4.5099-20.359 17.46-24.355 21.06s-0.301-10.73 7.691-18.31c7.993-7.6001 3.063-5.5901 3.063-15.19 0-9.58-7.59-7.1899-13.586-5.99-5.992 1.1899-8.41 3.37-10.598 8.35-1.343 3.0601-6.062 0.89002-3.664-3.9 1.586-3.1699-1.219-4.7699-6.715-6.11-4.738-1.15-16.589 5.65-16.589 2.4601 0-3.2001 10.793-11.6 8.394-17.19-2.398-5.6 0-0.79993 3.992-13.99 4-13.19 7.598-27.97 10.793-30.37 3.196-2.4 18.633 0.5 15.539 15.34-0.44099 2.1-24.937 14.82-1.375 21.78 27.184 8.02 4.969-15.64 9.102-22.25 2.973-4.74 5.801-12.72 5.91-18.47 0.070007-4.01 1.297-6.79 18.883-2.8 17.582 4 0.70299 17.99 5.898 23.58 5.192 5.6 12.18 5.8099 13.188 15.19"/>
   <path d="m886.85 1260.5c-3.309 0-5.996 5.73-5.996 12.79 0 7.07 2.687 12.8 5.996 12.8 3.312 0 5.992-5.73 5.992-12.8 0-7.0601-2.68-12.79-5.992-12.79m-77.539 276.97c-4.411 0-7.993 5.37-7.993 11.99s3.582 11.99 7.993 11.99c4.418 0 7.996-5.37 7.996-11.99s-3.578-11.99-7.996-11.99m188.24 81.51c-21.586 28.39-29.973 48.78-62.344 42.79-32.375-6-52.871-19.19-46.82-63.55s3.656-103.11 6.051-127.1c1.894-18.91-1.524-108.73-1.7971-150.77-0.066956-10.52-2.129-12.01-4.254 2.11-2.34 15.58-7.137 86.32-5.938 130.68s-6.492 150.64-6.84 165.84c-0.35498 15.21 4.004 23.6-8.968 27.2-12.965 3.6001-11.368 10.79-31.348 20.38-19.984 9.5901-31.973 36.49-47.563 28.44-15.589-8.0601-22.128 9.9299-28.453 13.52-6.32 3.6 1.496 25.83-3.922 28.53-22.664 11.29-49.554 18.32-74.335 12.69-24.774-5.65-15.184-2.1901-35.168 12.87-19.985 15.05-119.9 50.23-144.68 42.23-0.801-19.98 4.797-31.17 22.379-37.56 17.586-6.4 77.461-23.99 104.68-35.18 27.215-11.18 53.59-15.18 69.575-25.57 15.988-10.4-25.578-4.8-62.348 7.99-36.762 12.79-106.3 40.76-118.3 43.96-11.988 3.2-31.324 2.5-16.058-8.74 15.261-11.24 57.625-32.02 75.207-32.02 17.586 0 23.207-31.55 86.328-33.58 16.004-0.51001 27.488-12.84 45.562-25.57 19.586-13.79 47.953-35.18 57.946-63.15 5.668-15.86 2.429-11.42-3.68-2.71-4.668 6.65-41.277 48.07-52.867 48.87-11.59 0.80005-6.993-10.39 4.394-31.37 11.391-20.98 15.785-33.57 20.586-35.37 4.793-1.8 21.379 22.78 14.184-10.19-4.133-18.93-4.692-38.23-3.321-41.54 1.364-3.3101 35.993-18.42 34.497-21.71-1.145-2.5199-31.364 13.18-33.067 10.94-1.703-2.25 0.38702-15.32 3.238-19.42 2.848-4.11 31.688-12.39 31.325-15.5-0.49597-4.2999-28.258 6.53-30.075 3.65-1.816-2.88 1.274-1.24 2.399-7.15 0.61298-3.1799-2.336-6.58 1.703-8.7899 4.035-2.2001 27.176-13.48 26.875-17.08-0.30102-3.6-22.391 6.8401-25.844 4.89-3.465-1.95 5.668-19.98 7.262-41.76 1.742-23.87-3-36.94 22.406-71.93 0.76202-1.04 4.035-3.13 3.629 1.46-0.67999 7.71-1.523 20.56 8.438 21.31 15.882 1.2 13.523 28.08-0.90698 46.16-15.547 19.48 23.078 38.67 23.078 38.67 2.266-14.27-6.507-44.06 1.993-56.06 8.5-11.98 45.175 2.4 53.218-14.38 8.039-16.79-42.5-5.4299-50.785-21.01-8.285-15.59-19.906-56.92 10.469-55.13 30.371 1.7999 14.785-8.9901 14.785-8.9901s-34.98-17.99-27.687-27.57c7.304-9.6 42.836-6.62 44.25-22.19 1.418-15.59-74.602-22.84-44.25-38.97 30.355-16.11 69.539 10.8 65.996 16.79-3.535 6 15.648 11.97 26.437 22.18 10.789 10.19 8.391 14.99 5.996 58.75-2.398 43.76-15.59 49.76 14.387 96.52s40.758 38.37 32.371 70.74c-8.394 32.37-23.269 35.97 2.754 58.75s10.434 23.99 17.625 43.16c7.195 19.18 31.173 21.15 9.594 49.54"/>
   <path d="m887.49 73.621c-1.215-5.2734-1.441-13.188 1.707-15.289 3.145-2.0937 6.895 8.0977 6.442 15.742-0.44898 7.6446-7.414 2.7617-8.149-0.4531"/>
   <path d="m904.04 70.867c-0.80499-3.4609-0.95697-8.6602 1.117-10.039 2.067-1.375 4.528 5.3164 4.231 10.336-0.29303 5.0195-4.871 1.8164-5.348-0.2969"/>
   <path d="m1565.5 1987.5c-0.050049-2.63-0.040039-4.6899-0.079956-6.43-0.10998-6.2-0.69006-8.45-6.3-18.76-7.2-13.18-16.39-22.77-8.4-25.57 8-2.8-16.79-12.39-20.78-2.4-4 9.99-6.3999 19.19 5.6001 29.58 11.98 10.39 16.77 27.57 23.96 30.77 7.2 3.1901 6.12-1.97 6-7.1899"/>
   <path d="m1565.6 1929.9c11.21 16.88 28.65 4.45 31.05 11.23 2.4099 6.8 5.6 14.4 10.4 4.4 4.79-9.99 3.99-22.78-4.7999-27.97-8.79-5.2001-43.17-3.2001-46.36-5.2001-3.2001-2 4.64 9.9 9.71 17.54"/>
   <path d="m944.2 545.54c0.02002-43.535-33.183-213.25-37.742-267.38-1.637-19.441 4.121-46.555 8.68-64.684 2.176-8.691 8.035-4.855 5.09 5.934-2.957 10.789-7.703 46.16-6 62.949 1.703 16.778 29.644 138.48 35.636 158.87 3.961 13.458 9.707 47.688 8.301 73.645-0.72205 13.352 15.36 30.738 17.215 16.867 1.695-12.711-3.602-78.344 2.395-59.941 20.316 62.344 9.05 123.41 2.996 130.42-6.192 7.164-4.196-39.297-13.188-43.832-6.207-3.129-23.387 2.801-23.383-12.848"/>
   <path d="m877.52 1098.4l145.64-7.37v13.58l-130.79 9.12 105.72 13.27 18.554 13.59s-103.39-4.0399-148.47-5.7c51.977 7.53 156.76 24.83 154.96 41.67-19.08-5.62-102.62-15.75-150.7-21.3l144.21 46.88v19.18l-173.37-61.14-0.453 1.26c47.117 28.29 142.89 57.41 167.93 72.27 4.51 2.6799 2.47 6.22 2 7.7899-16.17-1.86-135.67-55.24-172.84-71.97h-0.007019c-0.64496-0.28003-1.262-0.56995-1.852-0.83997-4.172-1.75-14.949-5.6001-27.391-4.53-19.257 1.6899-83.464 8.41-83.464 8.41l-5.996 8.39-5.997-10.8 11.993-11.99-11.993-23.37 5.997-18.99-41.364-65.94 1.996-13.59 48.758 63.14 7.098-10.79-57.492-64.35 3.238-17.98 71.535 75.14 20.59-7.16c0.633-1.82 3.004-4.09 8.035-6.96 23.434-13.31 94.871-75.407 97.273-76.2l8.7859 16.95-80.7 62.02 18.075 13.34c37.992-22.44 73.117-67.03 73.117-67.03s6.152-1.19 9.5 5.09c3.887 14.93-39.403 45.15-55.805 55.98 61.535-19.09 162.81-55.98 162.81-55.98s10.49 5.59 24.07 20.78c-3.98 18.81-105.35 43.51-163.19 56.13"/>
   <path d="m720.72 1029.8l-36.102-34.215v-31.176l23.977-11.59 1.601-17.988 13.989-4.399-2.399 33.578-23.586 15.188 25.985 33.572-3.465 17.03"/>
   <path d="m891.85 15.91c-3.52-2.1758-8.45 1.2734-11.11 3.8828 0.72296 2.7031 1.453 5.3945 2.176 8.0937 5.668-1.9844 12.453-9.8008 8.934-11.976m-20.262 21.543c1.496 1.3164 11.406-0.1133 11.031-1.4922-0.46899-1.7382-1.023-3.8086-1.492-5.5429-1.981 0.7109-12.203 4.8008-9.539 7.0351m11.781-7.8789c0.070007 0.2774 2.813 8.3008 1.656 8.6992-3.355 1.1797-16.351 3.5391-16.25-1.914 0.062988-3.2617 11.266-7.2578 11.926-7.5156-0.085999-0.3438-1.363-5.0821-1.9059-7.1094-1.1331 1.1289-2.149 2.4375-3.031 3.1133-1.602 1.2031-3.43 2.0234-5.692 2.2109-2.254 0.2031-3.332-0.8086-4.461-2.125 0.414-0.2852 0.88696 0.1133 1.614 0.3633 5.82 2.0547 8.238-2.8281 11.023-5.5938-0.74597-2.7929-1.5-5.5859-2.25-8.3867-3.801 0.6406-7.2029 5.6016-8.785 7.707-0.883 1.1641-1.199 1.4532-0.71503-0.3789 1.816-6.8515 8.762-10.062 8.762-10.062 1.437-0.55859 2.539 0.25391 2.664 0.71875 0.758 2.8242 1.515 5.6484 2.273 8.4844 0.37097-0.3594 6.805-9.1836 13.446-5.5274 6.644 3.6602-2.192 14.035-10.274 17.316"/>
  </g>
 </g>
</svg>
