<?xml version="1.0" encoding="UTF-8" standalone="no"?>
<!-- Created with Inkscape (http://www.inkscape.org/) -->

<svg
   version="1.1"
   id="svg220"
   width="1025.5236"
   height="642.58539"
   viewBox="0 0 1025.5236 642.58539"
   xmlns="http://www.w3.org/2000/svg"
   xmlns:svg="http://www.w3.org/2000/svg">
  <defs
     id="defs224">
    <rect
       x="216.42245"
       y="66.178764"
       width="579.51135"
       height="69.755997"
       id="rect444" />
  </defs>
  <g
     id="g226"
     transform="translate(-97.904835,-168.95622)">
    <path
       id="path388"
       style="fill:#396574;stroke:none;stroke-width:0.666667"
       d="m 463.79297,168.98633 c -4.24996,0.0844 -8.44819,0.34424 -12.54492,0.7539 -69.75856,6.97467 -100.38941,92.83741 -85.01563,152.55274 9.03189,35.0809 36.99461,65.80075 70.34961,79.0332 6.28389,2.49333 12.82881,3.97504 19.33203,5.73438 2.24667,0.608 5.52533,2.24221 7.86133,1.43554 4.16067,-1.43522 7.88655,-11.89311 10.17188,-15.53711 8.52789,-13.59711 17.48771,-26.92748 27.71093,-39.33203 5.30334,-6.43523 11.11533,-12.70631 16.94922,-18.6582 2.09533,-2.13733 6.15597,-4.34648 7.0293,-7.3457 0.57667,-1.98 -0.90933,-4.2741 -1.72266,-5.9961 -5.87722,3.348 -11.11603,7.63448 -17.33203,10.45703 -16.93512,7.68867 -36.47222,8.18085 -54,2.37696 -46.70012,-15.46455 -63.92057,-75.96708 -33.99023,-114.16797 32.70022,-41.7369 100.88667,-36.30277 124.06445,12.66601 7.93722,16.76989 9.91694,36.97552 3.87305,54.66797 -2.518,7.37133 -7.24327,13.52213 -9.94727,20.66602 3.08666,0.318 6.35481,3.21484 9.33203,2.71484 4.584,-0.77 9.91878,-6.20201 14,-8.52734 9.89989,-5.64067 20.45077,-10.70597 31.33399,-14.16797 14.02845,-4.46333 29.91356,-7.52713 44.66601,-7.3418 8.23522,0.104 16.43942,1.92028 24.66797,1.98828 v -4 c -8.11322,1.506 -16.34542,-0.64062 -23.33398,-4.97851 -3.148,-1.954 -5.67399,-5.89736 -9.33399,-6.80859 -5.25189,-1.30866 -11.91603,1.12775 -17.33203,1.12109 -11.20522,-0.014 -24.48142,-4.04783 -33.33398,-11.01172 -17.55055,-13.80656 -21.20173,-38.03441 -33.62696,-55.6543 -17.79378,-25.23292 -50.0787,-33.2312 -79.82812,-32.64062 z m 346.12109,13.97265 c -11.55322,6.57667 -23.07344,7.36799 -36,7.33399 v 0.66601 c 6.30667,3.79134 12.52678,5.93271 20,5.22071 4.39334,-0.418 9.52008,-2.54638 13.80664,-2.37305 3.01333,0.122 5.78133,3.02552 8.86133,3.60352 8.41322,1.57723 15.35214,-0.93986 23.33203,-3.11719 v -0.66602 c -13.36645,1.05533 -20.10011,-1.5133 -30,-10.66797 z m -102.05859,2.47266 c -3.56,-0.13133 -8.44807,3.34353 -11.94141,4.38086 -7.60655,2.25733 -15.51214,2.80245 -23.33203,1.81445 8.74656,10.54656 22.36548,3.894 33.33203,3.86133 3.74,-0.0107 7.44065,3.37617 11.33399,3.9375 7.44655,1.07333 14.39409,-1.54016 21.33398,-3.79883 -6.02656,-1.448 -11.84667,0.72454 -18,-1.91601 -3.75322,-1.61 -9.13989,-8.14663 -12.72656,-8.2793 z m -106.63281,2 -13.97461,4.9375 -21.33399,1.25781 v 0.66602 c 8.20989,5.23322 15.8681,5.74184 25.33399,4.5625 2.72789,-0.34 5.76523,-1.82613 8.47656,-1.7168 3.11067,0.12534 6.33411,3.10855 9.52344,3.81055 7.12189,1.56734 13.91478,-0.46025 20.66601,-2.65625 l -17.33203,-2.93555 z m 29.35937,9.52734 0.66602,0.66797 z m 21.78125,12.24024 c -6.21499,0.50657 -12.37657,2.73516 -17.78125,6.97266 -10.98789,8.61522 -15.39343,23.35932 -12.38476,36.7871 0.86989,3.88267 2.50803,9.76896 5.85937,12.26563 4.52133,3.36733 16.54153,1.02162 21.85742,0.51562 10.50322,-0.99989 21.45411,1.21875 32,1.21875 -2.98856,4.208 -7.25734,7.34599 -12,9.33399 l 1.33399,9.33398 c 16.09311,1.28067 33.3929,6.95278 48.66601,12 7.67989,2.53734 17.39399,7.15336 25.33399,3.33203 v -0.66601 c -12.02656,-0.98333 -21.05334,-10.09012 -22,-22 -12.83989,-4.98067 -26.6928,-10.37735 -40.66602,-10.66602 6.04,-10.84922 10.45322,-20.65076 6.72656,-33.33398 -4.19989,-14.29114 -17.02163,-23.68196 -30.73828,-25.03711 -2.05751,-0.20327 -4.13533,-0.22586 -6.20703,-0.0566 z m 70.88477,69.09375 24.66601,12.47851 7.71485,6.2168 3.57812,22.52149 11.375,9.08203 22.66602,18.36718 -12.66602,-26 c 9.09989,9.50522 17.59935,23.04555 20.66602,36 5.69988,-1.81989 8.16601,-6.246 8.66601,-12 h 0.66797 c 4.78,11.47789 12.89333,23.32822 14,36 l 5.33203,-9.33203 8.67383,-20 27.99414,-29.33398 c -10.96656,0 -22.62075,2.23173 -33.33398,-0.96094 -9.33322,-2.78133 -17.09344,-9.32972 -26,-13.03906 l 3.88672,20.66601 -0.55274,15.33399 c -3.93323,-4.622 -6.78711,-10.08002 -10.78711,-14.66602 -10.66655,-12.23178 -27.12763,-25.10534 -41.88086,-32 3.73334,-5.02723 9.04638,-9.352 9.87305,-16 0.54666,-4.32522 0.40104,-9.27743 -1.26563,-13.33398 -9.56656,-23.28378 -43.0801,-13.23978 -43.27343,10 z m -63.66602,-61.26172 c 6.8259,0.68756 13.03548,3.79892 17.79297,9.32031 1.574,1.82667 4.93356,5.26241 4.24023,7.93164 -0.72656,2.806 -4.79386,4.95413 -7.0332,6.43946 -7.19922,4.77656 -16.07275,8.25962 -24.66797,9.37695 -4.32256,0.56133 -17.56848,2.42165 -20.64648,-1.54102 -1.71667,-2.20989 -0.24813,-7.11294 0.17187,-9.59961 1.97333,-11.70111 11.52336,-20.29264 23.14258,-21.80664 2.38083,-0.31016 4.72467,-0.35028 7,-0.12109 z m 141.66602,9.26172 c -14.69323,6.11589 -26.06689,8.684 -42,8 v 0.66601 c 8.87989,5.79467 16.87409,7.09921 27.33398,5.81055 3.68,-0.454 8.16675,-2.60487 11.80664,-2.26953 3.15333,0.29066 6.27217,3.34967 9.52539,4.125 8.88656,2.11667 17.70011,-0.46335 26,-3.66602 v -0.66601 c -13.44645,1.06133 -23.91946,-0.52345 -32.66601,-12 z m -279.33594,2.34765 c -30.717,2.788 -57.49831,33.26657 -72.13086,57.65235 -3.75667,6.26055 -7.2706,12.61342 -10.14648,19.33398 -0.91067,2.12666 -3.12705,5.47511 -2.51172,7.875 0.86667,3.378 7.88112,5.96691 10.79101,7.15625 11.83322,4.836 23.20755,7.12752 36,6.24219 28.537,-1.97667 51.43729,-30.4623 52.64063,-57.94141 0.48266,-11.02378 -2.08155,-21.30681 -6.54688,-31.33203 -1.51867,-3.40989 -3.51914,-9.40156 -8.0957,-8.98633 z m 224.42578,31.66993 c 8.37739,-0.15859 16.61284,5.01119 17.57617,15.98242 -13.17978,3.59866 -23.00677,5.39989 -36,0 1.52667,-10.33689 10.04644,-15.82384 18.42383,-15.98242 z m -105.74023,29.95898 c -4.22392,-0.0382 -8.4536,0.0234 -12.6836,0.0234 v 0.66601 l 44,25.33399 c -0.86934,-5.91 -3.43031,-19.37506 -8.18554,-23.26172 -3.092,-2.52734 -6.81125,-1.83622 -10.48047,-2.18555 -4.20766,-0.40033 -8.42658,-0.53792 -12.65039,-0.57617 z m -22.59571,1.71875 c -1.82557,-0.19359 -3.81539,-0.11864 -6.08789,0.30469 2.642,6.34389 6.09886,17.26825 10.46875,22.40625 3.19866,3.75989 10.47057,5.67301 14.86524,7.76367 12.38645,5.89389 27.20956,16.7655 40.66601,19.16406 -1.36534,-5.27723 -0.84296,-13.83445 -3.99218,-18.31445 -3.03,-4.31067 -10.83585,-7.21645 -15.33985,-9.78711 -8.47389,-4.83789 -16.85809,-9.83079 -25.33398,-14.66601 -5.765,-3.2895 -9.76939,-6.29032 -15.2461,-6.8711 z m 50.58008,0.30469 v 0.66601 l 46,26 c -0.18,-4.19922 -0.50156,-13.57057 -3.32812,-16.84179 -2.02,-2.338 -8.41318,-3.00624 -11.33985,-3.74024 -10.11322,-2.54056 -20.84814,-5.86731 -31.33203,-6.08398 z m -59.375,0.73828 c -1.72956,-0.24197 -3.85947,0.48741 -5.29297,0.87891 -6.09189,1.66389 -12.40667,3.40415 -18,6.38281 7.58055,5.03389 21.05144,11.07612 30,12.66601 -0.83534,-4.30656 -1.62701,-16.59778 -5.15234,-19.31445 -0.44717,-0.34467 -0.97817,-0.53262 -1.55469,-0.61328 z m 58.04102,1.92773 8.49414,16.66797 4.45312,9.11328 22.38672,14.35352 17.33203,10.5332 -4.57226,-21.08203 -14.09375,-9.30273 z m 45.33398,7.33399 7.22656,19.85937 12.10547,8.58594 27.33399,18.2207 c -0.55334,-6.99722 0.13403,-18.17589 -3.00586,-24.47656 -1.60667,-3.22389 -5.62813,-5.3549 -8.32813,-7.57812 -10.44655,-8.59856 -21.81214,-12.78866 -35.33203,-14.61133 z m 40.66602,0 c -2.01334,5.87523 -7.27269,5.99934 -12.66602,6 v 0.66601 l 15.33203,8.66797 -1.33203,-15.33398 z m -172.75782,1.89648 c -1.59416,-0.11191 -3.14034,0.0907 -4.57617,0.76953 l 10,36 39.33399,12 c -1.04533,-8.09256 -3.4413,-16.09467 -5.41797,-24 -0.678,-2.71322 -0.91994,-7.31624 -2.97461,-9.35546 -4.89533,-4.85867 -15.90421,-7.64152 -22.27344,-10.24219 -4.07939,-1.6655 -9.30899,-4.83613 -14.0918,-5.17188 z m -7.24218,2.10352 c -10.68189,6.56123 -22.79544,13.46345 -30,24 l 33.33398,8 -1.30859,-20 z m 52,17.33398 5.58203,22 3.04297,10.48243 17.375,9.72265 36,21.79492 c -0.63334,-8.02523 -2.34719,-16.10067 -3.86719,-24 -0.56,-2.88456 -0.62539,-7.2549 -2.25195,-9.74023 -2.60733,-3.99867 -10.46888,-6.34053 -14.54688,-8.64453 -12.86055,-7.26534 -27.10087,-17.51524 -41.33398,-21.61524 z m 135.33398,4 c 1.03333,7.654 2.25974,21.4635 6.56641,27.88672 3.34655,4.98667 9.67294,8.71452 14.09961,12.72852 3.04655,2.76256 9.44,10.97464 14,8.58008 7.55989,-3.97467 7.14645,-11.71349 2.45312,-17.85938 -8.67989,-11.36589 -25.01925,-23.76661 -37.11914,-31.33594 z m -78,0.66602 7.29297,23.21094 11.37305,8.40429 24,18.38477 c -0.52,-6.59722 -0.98683,-19.48744 -4.66016,-25.02344 -2.48,-3.73667 -8.28586,-6.26308 -12.00586,-8.59375 -8.59322,-5.37989 -16.80011,-12.08292 -26,-16.38281 z m 39.33203,0 6.75977,23.21094 13.24023,10.13086 22,19.32421 c -0.55333,-6.97722 -0.93956,-18.40142 -4.21289,-24.60742 -2.24667,-4.25789 -7.96711,-7.59784 -11.78711,-10.33984 -8.46655,-6.08067 -16.87344,-12.63952 -26,-17.71875 z m -179.20508,7.27734 c -1.99698,-0.24065 -3.8626,-0.25628 -5.46093,0.084 -3.74933,0.79866 -7.33347,5.88001 -9.7168,8.63867 -7.20189,8.33723 -16.01389,17.42409 -20.94922,27.33398 16.48644,0.708 33.04558,2.87805 49.33203,5.60938 3.76733,0.63133 15.05763,4.6637 18.26563,2.3457 1.80334,-1.30333 1.03109,-5.35372 1.25976,-7.28906 0.798,-6.76389 1.14258,-13.85202 1.14258,-20.66602 0,-2.05723 0.68435,-5.72423 -1.07031,-7.24023 -3.186,-2.75267 -10.88436,-3.16641 -14.92969,-4.17774 -4.7049,-1.17589 -11.8818,-3.9167 -17.87305,-4.63867 z m 43.87305,11.38867 0.69141,25.33399 0.0195,10.29101 10.62109,3.51563 30.66797,9.52734 -1.14258,-25.33398 -1.5332,-9.05469 -11.32422,-5.16797 z m 144,13.33399 5.33203,24 2.95313,8.64844 11.04687,-0.64844 v 8.66601 c 4.41334,-0.442 15.24722,-5.5796 12.56055,-11.79882 -1.29333,-2.99133 -6.24055,-5.88585 -8.56055,-8.20118 -7.17322,-7.16322 -14.08547,-16.06145 -23.33203,-20.66601 z m -38.66797,0.66601 4.38086,26.66797 2.95313,14.66602 8.66601,-6.76172 20,-0.57227 c -0.0667,-6.06922 -3.66666,-9.04409 -8,-12.85742 -8.14655,-7.17056 -17.71344,-17.24258 -28,-21.14258 z m -58,2.66797 c 1.60266,8.60255 2.12058,17.33344 3.14258,26 0.31934,2.704 -0.76427,7.26841 0.87695,9.56641 2.16934,3.038 9.31444,4.92966 12.64844,6.59766 6.28589,3.14523 14.4728,11.04348 21.33203,12.02148 3.04,0.43333 6.56599,-2.05065 9.33399,-3.05664 2.39322,-0.868 7.24564,-1.44853 8.45898,-3.98242 3.42,-7.14667 -3.58576,-16.05765 -8.45898,-20.07032 -13.41256,-11.04244 -30.38544,-22.44084 -47.33399,-27.07617 z m 135.33399,0.66602 4.66601,19.33398 15.33399,-2.66797 c -4.64,-6.28322 -13.47345,-12.34812 -20,-16.66601 z m -262.01953,12.86719 c -1.68132,0.0702 -3.23123,0.32502 -4.5254,0.86718 -3.16589,1.32666 -5.34297,6.16442 -7.07031,8.93164 -4.88122,7.822 -12.97412,16.94744 -15.05078,26 28.90167,2.30067 57.25236,12.89677 85.33203,19.33399 4.696,-13.84456 8,-31.39422 8,-46 -17.08045,-1.35933 -34.21559,-5.61069 -51.33203,-7.44336 -4.07839,-0.4365 -10.30968,-1.90002 -15.35351,-1.68945 z m 317.35351,5.13281 -10,19.33398 c 1.38,0.78733 2.70622,1.58223 3.93945,2.60157 8.60666,7.12522 -1.91978,9.21262 -2.95312,16.08984 -0.81333,5.44589 3.54033,8.1107 7.01367,11.30859 l -6.66797,-3.33398 c 0,19.39911 -2.13328,36.6682 -7.61328,55.33398 -2.31333,7.85534 -7.63273,15.38014 -9.05273,23.33203 l 10,2.66797 v 0.66602 l -31.33399,-7.33399 -0.66601,4.66797 h -0.66602 l -1.06641,-5.28515 -8.93359,-3.86328 -20,-8.85157 v 17.33203 h -0.66797 c -0.22666,-5.20856 0.002,-14.61928 -2.78515,-19.11328 -4.88,-7.87456 -18.51397,-11.5384 -25.86719,-15.53906 -3.4,-1.84667 -2.94083,-6.13166 -5.6875,-7.98633 -2.68666,-1.80933 -9.20628,0.50467 -12.32617,0.63867 0,8.03066 -1.10652,15.98611 -1.33985,24 -0.08,2.64333 -1.35319,6.09559 0.0274,8.54493 3.37323,5.99255 14.99326,11.96201 20.64648,15.89257 21.73978,15.11722 51.11236,31.00472 77.33203,16.6875 12.82656,-7.00256 21.40102,-20.51779 26.54102,-33.79101 9.71322,-25.07311 11.55958,-52.79755 8.90625,-79.33399 -1.04667,-10.47589 -1.17264,-25.48412 -6.7793,-34.66601 z m -238.66797,6.66601 -11.33203,46 50,22 3.99609,-40.66601 -0.68164,-13.74024 -10.64843,-5.14843 z m 51.33399,17.33399 c 0,12.23122 -0.39727,24.54489 -2.08594,36.66601 -0.63,4.51933 -3.75914,13.45824 -2.11914,17.74024 1.59467,4.16322 12.42041,6.903 16.20508,8.76367 15.76645,7.75189 30.14754,16.8462 45.33398,25.49609 l -0.66797,-30 c -12.99977,0 -25.49079,-2.06083 -36.66601,-9.07617 -2.97333,-1.86666 -9.39002,-5.63328 -9.52735,-9.58984 -0.32667,-9.44656 13.24813,-17.53344 18.19336,-24 z m 161.33398,14 c -3.56667,3.286 -12.49377,8.04931 -13.78711,12.7832 -1.05333,3.85666 1.76646,6.37083 4.45313,8.54883 6.06655,4.91466 12.50742,10.1994 19.33398,14.00195 l 0.66602,-32.66797 c -5.20666,1.37733 -6.75935,0.94932 -10.66602,-2.66601 z m -61.13867,5.58594 c -0.49127,-0.0226 -1.00139,0.0329 -1.5293,0.17578 -3.23989,0.87667 -8.5332,4.19603 -9.5332,7.58203 -2.2,7.43856 6.86665,14.13469 13.5332,12.44336 7.92491,-2.01187 4.89828,-19.86149 -2.4707,-20.20117 z m 85.80469,5.74804 2.66601,2.66602 -3.33203,-2 z m -149.88086,1.01953 c -0.63235,-0.12787 -1.33888,-0.12135 -2.10938,0.0566 -6.04789,1.40067 -4.00023,10.49766 1.98633,9.34766 5.39875,-1.03717 4.5494,-8.50915 0.12305,-9.4043 z m 21.21484,0.3125 c 2.26667,9.20066 2.46656,19.89411 -6,26 v 0.66797 c 3.35333,0 8.88605,1.05435 11.85938,-0.68554 10.95989,-6.41133 1.96718,-22.08443 -5.85938,-25.98243 z m -281.33398,5.33399 -12.86719,17.85937 -21.79883,13.47461 v 0.66602 c 14.38856,0 28.61092,3.10364 41.33203,10.01953 9.88123,5.37123 17.62541,13.45059 28.66797,16.64648 -3.612,4.06466 -4.24398,9.82386 2.66602,10.59375 5.21589,0.58133 9.00742,-1.32378 13.33398,-3.92578 v -0.66797 l -4.66797,-3.33203 c 22.78978,0 41.95022,-3.56664 64,-8.66797 l -4,15.33399 c 5.094,-0.752 18.04785,-4.55199 17.83985,-11.33399 -0.086,-2.82123 -3.57122,-5.84067 -5.17188,-8 11.92922,-2.83323 25.34083,-11.52321 33.99805,-20.00976 9.15922,-8.97789 6.88983,-16.52817 -5.99805,-18.91406 -2.83467,-0.52466 -5.78464,-0.99575 -8.66797,-1.06641 -7.14056,-0.17534 -14.26155,3.45392 -21.05078,3.16992 -7.66189,-0.32066 -13.56467,-5.28889 -21.61523,-1.875 -6.5,2.75733 -15.46516,9.15991 -21.12305,13.50391 -2.85533,2.192 -1.92356,5.87609 -6.21289,6.85742 -4.78667,1.09467 -8.13875,-4.61791 -13.33008,-3.89258 -9.15256,1.278 -12.14231,10.88539 -22.6582,8.66406 -3.11933,-0.65922 -4.07108,-3.59637 -6.70508,-4.98437 -2.77867,-1.464 -5.97806,0.0941 -8.63672,-1.72461 -10.27056,-7.02655 -10.63343,-19.43731 -17.33398,-28.39453 z m 364,0 -26,14 v 0.66601 c 7.99322,5.72333 17.13946,13.86608 26.66601,16.66797 z m 7.33398,4 -6,56.66601 c 3.81333,1.47933 15.14553,8.18315 18.99219,5.91993 2.54,-1.496 3.48805,-7.93061 4.24805,-10.58594 2.43989,-8.50056 4.35891,-17.24211 5.60546,-26 0.40667,-2.86333 1.84024,-7.78868 0.74024,-10.52735 -0.93333,-2.32389 -4.24724,-3.60131 -6.25391,-4.80664 -5.79989,-3.48189 -11.43203,-7.38001 -17.33203,-10.66601 z m -39.33398,12 c 0.02,6.45722 1.16617,12.88743 1.32617,19.33398 0.0667,2.73334 -0.75331,6.73746 0.69336,9.18946 1.38,2.33722 5.02778,3.63567 7.31445,4.90234 6.69322,3.71 15.05935,8.7682 22.66602,9.9082 0,-7.02789 3.04757,-19.46814 0.26757,-25.85937 -1.19989,-2.758 -5.76768,-4.05722 -8.26757,-5.31055 -7.26667,-3.64134 -15.90011,-11.28473 -24,-12.16406 z m -6.66602,2 -6,1.33398 v 0.66602 c 8.69322,6.17856 1.49203,9.15878 -4.66797,12.66601 l 14.66797,10 z m 159.4082,96.24219 c -0.81626,1.99343 -1.36779,4.10052 -1.72265,6.21875 -0.0176,0.12658 -0.0871,0.50197 -0.0527,0.3789 0.61357,-2.19308 1.16779,-4.40317 1.77539,-6.59765 z m -754.41211,46.61523 c 0.003,0.0866 0.008,0.13888 0.0117,0.22266 0.042,-0.0773 0.0971,-0.14086 0.13672,-0.22071 -0.0495,-3.6e-4 -0.099,-0.002 -0.14844,-0.002 z m 63.63282,83.28906 c -0.0446,0.005 0.0753,0.029 0.12695,0.0449 0.0701,-0.009 0.13897,-0.0258 0.20899,-0.0352 -0.13531,-0.0392 -0.22457,-0.0215 -0.33594,-0.01 z m 273.07031,91.66211 c -1.10284,0.15155 -2.19591,0.33888 -3.29492,0.51172 0.96721,2.10166 0.90168,4.14379 -0.95117,6.69141 0.84433,-0.21105 1.6012,-0.56081 2.26562,-1.01953 -0.0897,-1.84974 0.44087,-3.90483 1.98047,-6.1836 z" />
    <text
       xml:space="preserve"
       id="text442"
       style="font-style:normal;font-variant:normal;font-weight:bold;font-stretch:normal;font-size:24.1509px;line-height:0.8;font-family:'Al Bayan';-inkscape-font-specification:'Al Bayan, Bold';font-variant-ligatures:normal;font-variant-caps:normal;font-variant-numeric:normal;font-variant-east-asian:normal;text-align:center;white-space:pre;shape-inside:url(#rect444);fill:#000000;stroke-width:1.1"
       transform="matrix(1.8711812,0,0,3.0834892,-336.58292,411.96682)"><tspan
         x="232.09359"
         y="82.779333"
         id="tspan706">Y les dijo: «Vengan en pos de Mí, y Yo los </tspan><tspan
         x="302.56335"
         y="105.72344"
         id="tspan708">haré pescadores de hombres».
</tspan><tspan
         x="430.62789"
         y="128.66755"
         id="tspan710">Mateo 4:19</tspan></text>
  </g>
</svg>
