<?xml version="1.0" encoding="UTF-8"?>
<svg width="11in" height="11in" version="1.1" viewBox="0 0 989.99997 990" xmlns="http://www.w3.org/2000/svg">
 <g transform="translate(0 -62.362)">
  <path d="m140.25 249.09s-40.934-16.328-55.409-8.3048c-3.7717 2.0905 23.718 12.412 38.5 12.922 14.782 0.51026 16.909-4.6172 16.909-4.6172z" fill="none" stroke="#000" stroke-width="3.2587"/>
  <path d="m181.62 189.06c-29.437-0.24218-57.09 16.023-57.505 27.445-0.66413 18.275 21.252 36.548 21.252 36.548s0.24063-4e-3 0.31455-8e-3c3.2274 6.0161 22.547 43.373 18.279 68.539-4.6488 27.411-0.88095 44.939-30.548 90.719-30.419 46.939-34.542 89.962-20.225 130.2-1.5691 5.8327-4.3675 15.609-1.7912 12.113 1.2904-1.7508 3.1076-2.8858 5.104-3.6064 2.1239 5.0112 4.534 9.9792 7.2085 14.907-4.5686 11.385-9.858 24.838-9.7394 26 0.20348 1.9989 4.8529-2.8907 13.227-14.084 0.63447-0.84801 1.315-1.6492 2.0236-2.4154 2.2825 3.6931 4.716 7.3636 7.2869 11.013-8.4164 4.7117-18.972 8.128-18.972 8.128l21.859-4.1176c1.0613 1.4424 2.1468 2.8811 3.2512 4.317-2.6299 2.1106-6.1178 4.7936-11.048 8.3649-15.89 11.512-48.499 28.395-48.008 29.521 0.49058 1.1253 63.088-19.214 63.088-19.214s-36.895 23.08-23.039 21.393c13.855-1.6872 37.788-12.903 37.788-12.903s-33.631 20.195-34.948 21.182c-1.3165 0.98651 22.715-6.7018 40.898-11.896 1.9904-0.56829 4.1711-1.7261 6.4792-3.34 5.2131 3.9402 10.732 7.313 16.513 10.218 1.9268 7.783 8.9516 22.555 31.839 48.179 38.608 43.225 76.657 69.688 79.082 73.569 2.4247 3.8816 16.227 35.991 19.398 61.75 3.1709 25.759 3.3564 83.099-8.2076 84.51-11.564 1.4113-32.639 2.6457-41.032 4.2335-8.393 1.588-6.9016 5.6458-6.9016 5.6458s-43.457 0.8818-50.358 5.4689-8.0201 10.938-8.0201 10.938 3.7297-4.4102 11.936-3.5281c8.2066 0.88215 44.578 2.117 57.634 1.9409 5.0637-0.0671 9.4827-0.2958 13.029-0.54905 3.7059-1.4924 8.9794-0.86184 8.9794-0.86184s-3.3819 0.46222-8.9794 0.86184c-1.8246 0.73481-3.2707 1.9815-3.5168 4.0772-0.74605 6.3514 1.8644 16.585 1.8644 16.585s8.2072-10.41 12.683-10.586c4.4764-0.17636 4.8487 0.35238 9.8845-3.1761 5.0359-3.5286 3.5446-2.9984 14.176-4.939 10.631-1.9408 21.075-4.7638 23.5-10.409 2.4248-5.6459 4.6636-10.586 4.6636-10.586s2.6114 6.3518 10.072 8.8219 12.496-2.6466 16.972 0.70543c4.4763 3.3522 8.02 2.9994 8.02 2.9994s-9.5117-5.4691-9.6981-9.3507c-0.1865-3.8813 5.2221-4.0584-2.798-7.9399-8.0201-3.8812-19.957-1.5872-21.822-10.938-1.8651-9.3508-2.0518-28.759-2.0518-28.759s7.4909-1.3857 10.299 0.59196c-1.8616-2.1501-6.2216-7.8458-7.1288-13.117-1.3057-7.5867-0.37315-30.876 1.492-42.873 1.8651-11.997 7.275-22.406 0.9335-37.402-2.7794-6.573-6.3569-12.698-10.085-18.701 7.4705-1.5351 19.066-8.7236 28.115-20.56 16.587-21.695 21.726-68.582 22.391-70.002 0.66493-1.4204 5.0124 9.7243 8.6249 23.31 3.6125 13.585 29.614 26.906 29.614 26.906s2.1278-1.2427 0.91287-10.037c-1.215-8.7948-11.486-32.937-11.486-32.937s7.4283 7.6073 3.4591-4.0859c-0.14161-0.41894-0.37935-1.1317-0.54563-1.6253 2.8261 0.42657 5.5442 0.76554 8.1548 1.0222 3.4121 10.483 6.0839 20.712 7.0276 28.983 3.5487 31.111-18.093 61.952-31.411 75.709s0.81562 7.9955 0.81562 7.9955c-62.273 43.832 11.554 8.4792 33.284-28.41 6.4359-11.789 13.017-44.672 4.7638-83.679 35.071-0.83449 45.468-19.793 48.137-35.019 7.5982 0.98869 14.643 2.8046 17.153 6.115-3.8238-5.5637 22.027 23.087 17.668 14.573-5.7672-11.265 4.3502-25.049 4.3502-25.049s39.252 48.718 41.757 49.976c2.5042 1.258-1.0162-7.8835-10.223-26.138-9.2074-18.254-5.9554-39.693-5.9554-39.693s10.665 6.8904 17.209 19.581c6.5432 12.69 3.9471 44.029 3.9471 44.029l8.9819-42.337s2.6371 4.8454 8.4232 32.192c5.786 27.347 9.5618 78.413 11.162 78.678 1.6001 0.26566 8.8508-88.714 8.8508-88.714s9.0502 60.759 14.036 43.173c4.9853-17.585 3.626-54.182 3.626-54.182s7.2381 54.752 7.7569 57.043c0.51856 2.2904 3.4462-31.779 6.4098-57.091 2.9639-25.312-45.151-106.36-45.927-107.79-0.77581-1.4252 14.357 8.995 22.74 28.409s45.076 42.034 38.928 36.086c-5.7464-5.5585-21.007-38.941-23.046-43.429-0.66502-1.1256-0.74612-1.6216-0.74612-1.6216s0.60362 1.3078 0.74612 1.6216c1.9006 3.2169 8.6774 11.682 32.784 29.225 32.54 23.681 61.708 11.081 61.708 11.081s-16.257-1.7902-33.851-20.074c-17.593-18.284-33.351-33.864-33.351-33.864s96.797-36.78 98.526-36.947c1.7289-0.16697 39.345 39.526 42.119 28.576s-21.514-38.189-21.514-38.189 17.26-2.3882 28.602-12.306c9.417-8.2349-2.3566-13.497-6.6333-15.049-4.2242 0.73414-1.461-0.49221-1.461-0.49221s0.58688 0.17467 1.461 0.49221c0.99345-0.17275 2.2535-0.41947 4.1641-0.85579 10.035-2.2898 45.638 37.719 60.86 58.332 15.222 20.614 20.601-13.634 2.9354-49.435-17.665-35.801-71.383-76.999-72.753-78.847-1.3697-1.8479 14.218 1.3862 32.365 7.3141s47.306-14.714 47.306-14.714-0.4159-3.4402-11.595-8.6012c-11.179-5.161-45.376-11.159-45.376-11.159s12.898-3.0461-3.1563-7.1361c-16.054-4.0896-73.434-19.249-77.902-22.778-4.4681-3.5291 80.233 7.6702 119.4 26.81 39.166 19.14 65.258 67.748 75.042 93.748 9.7843 26 10.017 5.0338 10.017 5.0338s3.5344 21.202 6.5231 39.397c2.9886 18.195 3.8854 34.552 11.98 50.093s6.0528-31.672 2.7838-69.104c-3.2691-37.432-26.47-62.675-38.567-80.89s-55.285-56.111-115.38-74.248c-24.412-7.3685-48.016-10.932-72.087-10.886-35.18 0.066-71.359 7.8438-112.52 22.726-69.331 25.064-102.96 69.901-138.77 113.45-21.726 26.422-20.174 25.114-25.285 23.748-5.1108-1.3667 3.0738-18.421 3.0738-18.421s-3.8636 4.9344-6.8771 9.4262c-3.014 4.4924-0.89597 7.0486-25.677 21.026-16.662 9.3979-42.762 41.918-58.109 62.254-34.315-29.915-70.602-75.371-99.408-144.37-3.0055-8.8066-4.6607-14.013-6.814-20.764l-18.223-26.267s5.0074-6.1514 12.518 9.2257c0.18593 0.38074 0.36941 0.74679 0.55587 1.128-0.77332-2.3647-1.357-4.1819-2.3176-7.0865 0 0 1.6976 5.143 4.6211 11.76 1.8271 3.7047 3.5229 7.1289 5.167 10.419 5.8306 10.375 13.828 20.214 22.798 18.897 0 0-16.094-25.178-27.283-57.748-14.735-42.892-29.991-114.36-47.921-136.55-13.448-16.643-31.127-26.421-48.789-26.567zm101.2 201.97c-2.004-3.5661-3.7252-7.1571-5.167-10.419-0.77221-1.566-1.5304-3.0932-2.3035-4.673 2.1497 6.5734 3.8521 11.846 5.1493 15.913l9.9407 14.329s-3.3522-6.6081-7.6195-15.149zm78.199 476.3c0.8174 0.94415 1.2017 1.2744 0.51879 0.46686-0.14617-0.17322-0.32183-0.32815-0.51879-0.46686zm-180.11-528.51s5.0062 13.224 8.1356 30.447c3.1292 17.222-2.1899 35.06-2.5026 37.213-0.31303 2.1527 6.5934-11.215 10.975-22.594 4.3811-11.379 9.679-33.378 9.679-33.378s1.9986 5.9408 4.6945 24.295c4.381 29.832 25.588 41.988 25.588 41.988s-10.021-22.147-9.0818-34.449c0.93885-12.302 9.7957-22.261 9.7957-22.261s6.1744 3.4073 8.991 14.479c2.8162 11.072 12.791 29.391 12.791 29.391s-1.9472-11.92-2.573-21.761c-0.62589-9.8414 4.245-24.917 4.245-24.917s-2.5032 12.917-1.8774 30.139c0.62588 17.222 15.647 31.369 15.647 31.369s-11.267-5.2271-20.342-16.299c-9.0751-11.072-16.638-42.124-16.638-42.124s-6.7773 11.656-5.832 24.076c0.55489 7.2899 9.6404 35.578 9.6404 35.578s-19.089-6.1498-25.973-15.376c-6.8846-9.2262-11.579-33.216-11.579-33.216s-3.4426 11.687-7.8237 25.834-14.082 19.068-14.082 19.068l0.62646-47.669s-2.8173 6.1511-10.641 21.836c-7.8232 15.685-36.301 25.526-36.301 25.526s13.144-12.917 20.967-28.294c7.8235-15.377 3.1292-32.292 3.1292-32.292 10.679 18.205 3.1484 34.759-2.4102 43.139 4.6218-5.9701 11.711-15.223 16.18-21.611 6.8847-9.8414 6.5718-38.136 6.5718-38.136zm-22.752 59.747c-2.4988 3.2279-4.4736 5.7605-4.4736 5.7605s2.0502-2.1073 4.4736-5.7605zm165.69 282.52s8.8084 10.657 20.186 15.305c9.447 3.8595 8.0506-5.3543 7.3036-8.5998-2.2564-2.566-0.28115-1.098-0.28115-1.098s0.12759 0.43482 0.28115 1.098c0.53074 0.60347 1.2224 1.3612 2.3125 2.4923 5.6365 5.8495-5.8126 39.494-13.269 55.62-2.8325-4.5287-5.5777-9.0748-7.9403-13.78-7.0876-14.114-9.3259-29.64-9.3259-36.52 0-1.4989 0.0604-5.6386-0.48399-11.274 0.75162-1.9162 1.2171-3.2443 1.2171-3.2443z" fill-rule="evenodd" stroke="#000" stroke-width=".65173px"/>
  <path d="m142.19 243.98c-0.58473 2.288-36.387 52.07-18.762 70.52 17.625 18.451 58.748 10.284 18.762-70.52z" fill-rule="evenodd" stroke="#000" stroke-width=".65173px"/>
  <ellipse cx="160.03" cy="220.15" rx="8.0256" ry="3.6451" fill="#fff"/>
  <path d="m124.11 206.07s-6.641-20.885 7.305-38.506 26.564-28.064 27.892-21.538c1.3283 6.5265-1.9922 11.748-1.9922 11.748s16.603-16.969 29.22-15.01c12.618 1.9577-4.6488 13.705-4.6488 13.705s24.572-13.705 34.533-7.1791c9.9614 6.5265-11.954 11.748-11.954 11.748s18.595-7.8316 25.236-0.65254c6.641 7.1791-4.6488 9.1372-4.6488 9.1372s17.931-4.5686 23.244 1.305c5.3128 5.8738-7.3051 8.4845-7.3051 8.4845s14.61 4.5686 17.931 11.095c3.3205 6.5264-21.411 25.61-21.411 25.61s-6.6874-28.038-54.8-29.909c-34.193-1.3298-58.601 19.962-58.601 19.962z" fill-rule="evenodd" stroke="#000" stroke-width=".65173px"/>
  <path d="m205.42 546.96s-54.472-24.921-21.601-85.838 143.69 38.765 143.69 38.765-118.65-94.754-145.57-26.765c-17.223 43.495 23.478 73.837 23.478 73.837z" fill="#fff" fill-rule="evenodd" stroke="#000" stroke-width=".65173px"/>
  <path d="m124.23 216.17s-12.674 2.1948-24.774 5.6461c-13.854 3.9514-26.799 20.791-26.799 20.791s23.498-7.2281 37.297-2.4255c13.799 4.8028 28.068 8.1884 28.068 8.1884s-15.971-15.872-13.792-32.2z" fill="none" stroke="#000" stroke-linecap="round" stroke-linejoin="round" stroke-width="3.2587"/>
 </g>
</svg>
