<?xml version="1.0" encoding="UTF-8"?>
<svg viewBox="0 0 392.06 392.06" xmlns="http://www.w3.org/2000/svg">
 <g transform="rotate(35.267 265.03 98.031)">
  <path d="m248.66-97l-8.125 46.281 0.032 0.031c-9.932 1.6228-19.541 4.2238-28.719 7.6875v-0.030991l-30.156-36.031-28.344 16.375 16.094 44.125 0.062 0.031c-7.684 6.3076-14.727 13.375-21.031 21.063l-0.031-0.094-44.125-16.094-16.375 28.344 36.031 30.188c-3.458 9.1707-6.036 18.765-7.656 28.688l-0.032-0.031-46.281 8.125v32.75l46.281 8.125 0.032-0.031c1.62 9.9223 4.198 19.517 7.656 28.688l-36.031 30.187 16.375 28.344 44.125-16.094 0.031-0.094c6.304 7.687 13.347 14.755 21.031 21.063l-0.062 0.031-16.094 44.125 28.344 16.375 30.156-36.031v-0.031967c9.178 3.464 18.787 6.065 28.719 7.688l-0.032 0.031 8.125 46.281h32.719l8.125-46.281-0.031-0.031c9.929-1.618 19.541-4.198 28.719-7.656l30.187 36.031 28.344-16.375-16.125-44.125c7.667-6.291 14.706-13.335 21-21l44.156 16.094 16.344-28.344-36-30.188c3.459-9.1714 6.067-18.763 7.687-28.687l46.282-8.0937v-32.75l-46.282-8.125c-1.621-9.9131-4.232-19.494-7.687-28.656l36-30.188-16.344-28.344-44.156 16.094c-6.294-7.6652-13.333-14.708-21-21l16.125-44.126-28.344-16.375-30.187 36.032c-9.178-3.4583-18.79-6.0378-28.719-7.6562l0.031-0.031-8.125-46.282h-32.719zm16.375 79.688c63.71 0 115.38 51.634 115.38 115.34 0 63.71-51.665 115.34-115.38 115.34-63.71 0-115.34-51.634-115.34-115.34 0-63.71 51.633-115.34 115.34-115.34z" stroke-linecap="round" stroke-linejoin="round" stroke-width="2"/>
 </g>
 <g transform="rotate(4.4157 210.03 651.03)">
  <path d="m193.66 456l-8.125 46.281 0.0313 0.031c-9.9316 1.623-19.54 4.224-28.719 7.688v-0.031006l-30.156-36.031-28.344 16.375 16.094 44.125 0.062 0.031c-7.684 6.307-14.727 13.375-21.031 21.062l-0.031-0.094-44.125-16.094-16.375 28.344 36.031 30.188c-3.458 9.17-6.036 18.765-7.656 28.687l-0.032-0.031-46.281 8.125v32.75l46.281 8.125 0.032-0.031c1.62 9.9223 4.198 19.517 7.656 28.688l-36.031 30.188 16.375 28.344 44.125-16.094 0.031-0.094c6.304 7.687 13.347 14.755 21.031 21.062l-0.062 0.0309-16.094 44.125 28.344 16.375 30.156-36.031v-0.031189c9.1783 3.4637 18.787 6.0647 28.719 7.6875l-0.0313 0.031 8.125 46.281h32.719l8.125-46.281-0.0312-0.031c9.9296-1.6184 19.541-4.1977 28.719-7.6563l30.187 36.031 28.344-16.375-16.125-44.125c7.6669-6.2915 14.706-13.335 21-21l44.156 16.094 16.344-28.344-36-30.188c3.459-9.1719 6.067-18.764 7.687-28.688l46.282-8.0937v-32.75l-46.282-8.125c-1.621-9.9132-4.232-19.493-7.687-28.656l36-30.188-16.344-28.343-44.156 16.093c-6.2938-7.665-13.333-14.708-21-21l16.125-44.125-28.344-16.375-30.187 36.032c-9.1776-3.459-18.789-6.038-28.719-7.657l0.0312-0.031-8.125-46.281h-32.719zm16.375 79.687c63.71 0 115.38 51.634 115.38 115.34 0 63.71-51.665 115.34-115.38 115.34-63.71 0-115.34-51.634-115.34-115.34 0-63.71 51.633-115.34 115.34-115.34z" stroke-linecap="round" stroke-linejoin="round" stroke-width="2"/>
 </g>
 <g transform="rotate(-24.434 -389.47 271.53)">
  <path d="m-411.53 18.828l-10.946 59.967 0.0431 0.0402c-13.38 2.1027-26.325 5.4728-38.69 9.9608v-0.040176l-40.625-46.686-38.184 21.217 21.681 57.174 0.084 0.0402c-10.352 8.172-19.84 17.33-28.332 27.29l-0.0421-0.1218-59.444-20.853-22.06 36.726 48.54 39.115c-4.6585 11.882-8.1312 24.314-10.314 37.17l-0.0421-0.0402-62.349 10.528v42.434l62.349 10.528 0.0421-0.0402c2.1828 12.857 5.6557 25.288 10.314 37.171l-48.54 39.114 22.06 36.726 59.444-20.853 0.0421-0.1218c8.4927 9.9601 17.98 19.118 28.332 27.292l-0.084 0.0402-21.681 57.173 38.184 21.217 40.625-46.686v-0.041443c12.365 4.4883 25.309 7.8585 38.69 9.9614l-0.0431 0.0402 10.946 59.967h44.078l10.946-59.967-0.0418-0.0402c13.376-2.0965 26.325-5.4394 38.689-9.9199l40.667 46.686 38.184-21.217-21.723-57.173c10.329-8.1513 19.811-17.278 28.29-27.21l59.486 20.853 22.018-36.726-48.498-39.115c4.6599-11.883 8.1733-24.311 10.356-37.17l62.35-10.487v-42.434l-62.35-10.528c-2.1838-12.844-5.7012-25.257-10.356-37.13l48.498-39.115-22.018-36.724-59.486 20.852c-8.4791-9.9316-17.962-19.057-28.29-27.21l21.723-57.172-38.184-21.217-40.667 46.686c-12.364-4.4809-25.313-7.8232-38.689-9.9202l0.0418-0.0402-10.946-59.967h-44.078v-2.5e-4zm22.06 103.25c85.828 0 155.43 66.902 155.43 149.45 0 82.55-69.601 149.45-155.43 149.45-85.828 0-155.39-66.903-155.39-149.45 0-82.55 69.559-149.45 155.39-149.45z" fill="#26963c" stroke-linecap="round" stroke-linejoin="round" stroke-width="2"/>
 </g>
 <g transform="rotate(95.801 26.032 357.03)">
  <path d="m9.656 162l-8.125 46.281 0.032 0.031c-9.932 1.623-19.541 4.224-28.719 7.688v-0.031006l-30.156-36.031-28.344 16.375 16.094 44.125 0.062 0.031c-7.684 6.307-14.727 13.375-21.031 21.062l-0.031-0.094-44.125-16.094-16.375 28.344 36.031 30.188c-3.458 9.17-6.036 18.765-7.656 28.687l-0.032-0.031-46.281 8.125v32.75l46.281 8.125 0.032-0.031c1.62 9.923 4.198 19.517 7.656 28.688l-36.031 30.187 16.375 28.344 44.125-16.094 0.031-0.094c6.304 7.687 13.347 14.755 21.031 21.063l-0.062 0.031-16.094 44.125 28.344 16.375 30.156-36.031v-0.031006c9.178 3.463 18.787 6.064 28.719 7.687l-0.032 0.031 8.125 46.281h32.719l8.125-46.281-0.031-0.031c9.929-1.618 19.541-4.198 28.719-7.656l30.187 36.031 28.344-16.375-16.125-44.125c7.667-6.292 14.706-13.335 21-21l44.156 16.094 16.344-28.344-36-30.187c3.459-9.172 6.067-18.764 7.687-28.688l46.282-8.094v-32.75l-46.282-8.125c-1.621-9.913-4.232-19.493-7.687-28.656l36-30.188-16.344-28.343-44.156 16.093c-6.294-7.665-13.333-14.708-21-21l16.125-44.124-28.344-16.375-30.187 36.031c-9.178-3.459-18.79-6.038-28.719-7.656l0.031-0.032-8.125-46.281h-32.719zm16.375 79.687c63.71 0 115.38 51.634 115.38 115.34 0 63.71-51.665 115.34-115.38 115.34-63.71 0-115.34-51.634-115.34-115.34 0-63.71 51.633-115.34 115.34-115.34z" stroke-linecap="round" stroke-linejoin="round" stroke-width="2"/>
 </g>
 <g transform="rotate(4.4157 541.03 541.03)">
  <path d="m524.66 346l-8.125 46.281 0.032 0.031c-9.932 1.623-19.541 4.224-28.719 7.688v-0.031006l-30.156-36.031-28.344 16.375 16.094 44.125 0.062 0.031c-7.684 6.307-14.727 13.375-21.031 21.062l-0.031-0.094-44.125-16.094-16.375 28.344 36.031 30.188c-3.458 9.17-6.036 18.765-7.656 28.687l-0.032-0.031-46.281 8.125v32.75l46.281 8.125 0.032-0.031c1.62 9.922 4.198 19.517 7.656 28.688l-36.031 30.187 16.375 28.344 44.125-16.094 0.031-0.094c6.304 7.687 13.347 14.755 21.031 21.063l-0.062 0.031-16.094 44.125 28.344 16.375 30.156-36.031v-0.031006c9.178 3.463 18.787 6.064 28.719 7.687l-0.032 0.031 8.125 46.281h32.719l8.125-46.281-0.031-0.031c9.929-1.618 19.541-4.198 28.719-7.656l30.187 36.031 28.344-16.375-16.125-44.125c7.667-6.292 14.706-13.335 21-21l44.156 16.094 16.344-28.344-36-30.187c3.459-9.172 6.067-18.764 7.687-28.688l46.282-8.094v-32.75l-46.282-8.125c-1.621-9.913-4.232-19.493-7.687-28.656l36-30.188-16.344-28.343-44.156 16.093c-6.294-7.665-13.333-14.708-21-21l16.125-44.125-28.344-16.375-30.187 36.032c-9.178-3.459-18.79-6.038-28.719-7.657l0.031-0.031-8.125-46.281h-32.719zm16.375 79.687c63.71 0 115.38 51.634 115.38 115.34 0 63.71-51.665 115.34-115.38 115.34-63.71 0-115.34-51.634-115.34-115.34 0-63.71 51.633-115.34 115.34-115.34z" stroke-linecap="round" stroke-linejoin="round" stroke-width="2"/>
 </g>
</svg>
