<?xml version="1.0" encoding="utf-8"?>
<svg xmlns="http://www.w3.org/2000/svg" xmlns:xlink="http://www.w3.org/1999/xlink" version= "1.1" width="1920px" height="1300px" viewBox="-600 63 1920 1300">
<g id="layer1">
<g style="fill:rgb(255,255,255); fill-opacity:1.0; stroke-linejoin: miter">
<path d="M-600.00104,61.66567C-600.3547,61.66567,-600.6938,61.80614,-600.94385,62.05619C-601.1939,62.30624,-601.33435,62.64538,-601.33435,62.999L-601.3334,1363.0C-601.3334,1363.7363,-600.73645,1364.3334,-600.00006,1364.3334L1320.001,1364.3344C1320.3545,1364.3344,1320.6936,1364.1937,1320.9436,1363.9437C1321.1936,1363.6937,1321.3342,1363.3546,1321.3342,1363.001L1321.3333,63.0C1321.3333,62.263622,1320.7363,61.666668,1320.0,61.666668L-600.00104,61.66567 Z"/>
</g>
<g style="fill:rgb(0,0,0); fill-opacity:1.0; stroke-linejoin: miter">
<path d="M199.54422,239.45984C189.91106,239.64465,169.25887,240.82257,162.12079,241.60806C160.98888,241.74643,157.54681,242.09335,154.49738,242.41666C143.38596,243.59485,133.36029,244.84238,125.85248,245.99734C123.31146,246.38995,118.89905,247.0831,116.03461,247.52188C113.170074,247.961,109.21977,248.63089,107.256195,249.00046C105.29262,249.37009,101.850555,249.99405,99.63286,250.38644C97.41536,250.77917,94.59697,251.3103,93.39575,251.54163C89.00659,252.41931,80.99065,254.0824,79.53522,254.42917C78.70366,254.61377,75.37712,255.35336,72.14303,256.0693C63.480156,257.96344,54.47078,260.25082,52.738358,261.0129C51.051865,261.7291,49.2269,262.2837,45.461502,263.20752C36.7062,265.3097,17.139961,271.5699,7.345112,275.40466C1.8470116,277.5533,-5.337097,280.44098,-5.984024,280.78738C-6.330513,280.97205,-7.4394035,281.29553,-8.409657,281.48035C-10.118977,281.82684,-14.485157,283.72083,-24.303028,288.38736C-28.738281,290.48926,-30.909836,291.50604,-31.002205,291.50604C-31.048439,291.50604,-34.190205,293.0075,-37.955643,294.85562C-41.721085,296.70377,-44.839596,298.2052,-44.88592,298.2052C-45.324806,298.2052,-59.71663,305.96692,-63.64376,308.30023C-64.56784,308.83167,-65.353264,309.29364,-65.3994,309.29364C-65.653564,309.29364,-76.39538,315.76215,-79.398544,317.72565C-89.81702,324.4942,-95.93869,328.74457,-104.001,334.70465C-111.069824,339.94855,-120.98007,348.1034,-128.3262,354.6869C-138.69843,363.97357,-149.97168,375.29272,-158.86548,385.31854C-167.41287,394.97485,-170.69315,398.9713,-171.94054,401.32758C-172.4026,402.2055,-173.11877,403.29108,-173.51149,403.75354C-175.77538,406.29437,-179.587,411.28412,-181.55063,414.2873C-182.40526,415.55792,-183.74516,417.3365,-184.55365,418.23755C-186.24008,420.1549,-187.14104,421.4718,-189.0815,424.79816C-190.83714,427.82428,-192.56966,430.59637,-195.34184,434.80066C-200.47021,442.58563,-201.92555,445.03467,-206.03748,452.8656C-208.2782,457.09308,-211.51236,463.49225,-212.64432,465.91748C-213.01387,466.7494,-213.86859,468.5511,-214.53857,469.96063C-215.78601,472.5937,-216.84863,474.97333,-218.62743,479.0852C-219.20491,480.42505,-220.24449,482.80438,-220.9375,484.39844C-221.65369,485.99255,-222.7162,488.5797,-223.3169,490.1737C-223.94066,491.76758,-224.77232,493.77747,-225.16496,494.67834C-226.38934,497.38116,-227.6599,500.8695,-228.74565,504.5656C-229.30005,506.50586,-230.3858,510.10974,-231.125,512.5816C-235.28314,526.2115,-236.41512,530.34595,-237.9859,537.8076C-238.30939,539.2858,-238.8869,541.2731,-239.25653,542.24304C-239.64926,543.2132,-240.18057,545.10754,-240.43472,546.4705C-240.68878,547.8567,-241.4049,551.5066,-242.02866,554.6252C-243.41473,561.6014,-245.5169,574.39935,-246.3023,580.4981C-248.38141,596.9458,-249.23608,614.3176,-249.07434,637.21075C-248.982,648.99243,-248.82031,654.5363,-248.38129,661.46643C-248.31207,662.48285,-248.19653,664.1925,-248.1503,665.27844C-248.08105,666.36395,-247.91928,668.1199,-247.8038,669.20544C-247.6883,670.2912,-247.4342,673.0402,-247.22632,675.3273C-246.46396,684.3135,-246.1867,686.67,-244.87012,696.11786C-244.43115,699.283,-243.96918,702.6094,-243.85364,703.5105C-243.73816,704.38794,-243.55334,705.705,-243.41467,706.39777C-243.2992,707.09076,-243.09131,708.3846,-242.95276,709.2855C-242.05176,714.9223,-239.64923,727.9281,-239.02551,730.5382C-238.79443,731.5549,-238.17078,734.3501,-237.63947,736.77563C-237.13127,739.1781,-236.29967,742.82806,-235.79137,744.8606C-235.28319,746.8938,-234.5671,749.89685,-234.17442,751.5603C-233.7816,753.2002,-233.31955,755.0253,-233.15794,755.60266C-232.97305,756.1806,-232.44174,758.0978,-231.97974,759.87646C-228.39912,773.48315,-223.50171,788.7528,-217.7958,804.13806C-216.27116,808.24976,-214.49231,812.9162,-213.84552,814.5102C-213.19873,816.1041,-212.34398,818.2294,-211.9744,819.246C-211.58168,820.239,-211.00412,821.6482,-210.68074,822.3645C-210.3573,823.0575,-209.80293,824.3511,-209.45644,825.25183C-209.0868,826.12976,-208.32445,827.9546,-207.72385,829.29443C-207.1232,830.6344,-206.19917,832.7595,-205.64478,834.03015C-197.46706,852.92664,-190.32895,865.7937,-177.6927,884.3899C-175.84464,887.09314,-170.97035,893.9309,-166.95082,899.4054C-165.10274,901.9238,-163.2084,904.557,-162.74646,905.25024C-162.28444,905.94324,-161.59143,906.84424,-161.22182,907.23706C-160.85217,907.6299,-160.15915,908.5305,-159.69714,909.2235C-159.21198,909.9166,-158.56516,910.8639,-158.21869,911.3258C-157.87215,911.78796,-156.76335,913.31274,-155.74683,914.67566C-154.75354,916.06165,-153.29826,918.0482,-152.51276,919.0646C-151.7504,920.1044,-150.38748,921.95215,-149.50964,923.17664C-148.60876,924.4243,-147.36128,926.13354,-146.73749,927.01135C-146.09076,927.8893,-145.39763,928.90564,-145.18979,929.25244C-144.9819,929.59875,-144.0116,930.9845,-143.0646,932.3242C-141.30888,934.7965,-138.28262,939.2549,-136.11108,942.6041C-133.91649,945.9542,-129.98938,952.3301,-129.98938,952.5148C-129.98938,952.5609,-129.59665,953.27747,-129.11154,954.0625C-128.6264,954.8712,-128.04889,956.0034,-127.81787,956.5576C-127.33273,957.80505,-126.75528,958.6826,-125.60016,959.9302C-124.76857,960.8314,-123.05907,963.48816,-123.05907,963.88074C-123.05908,963.99634,-122.50464,965.01294,-121.811676,966.16785C-119.52463,970.0023,-116.98357,974.48413,-116.40602,975.63904C-116.08264,976.26294,-115.43576,977.46436,-114.950745,978.2954C-114.48874,979.1277,-113.287476,981.66846,-112.31723,983.9557C-111.346985,986.24243,-109.9147,989.5227,-109.15239,991.2322C-108.36696,992.9419,-107.44284,995.13635,-107.09636,996.0835C-106.74988,997.0305,-106.03374,998.94775,-105.50238,1000.35693C-103.862274,1004.7694,-103.446396,1006.0399,-101.94493,1011.56104C-100.11995,1018.26013,-98.941795,1025.1213,-98.59526,1031.4044C-98.11009,1039.6287,-98.34117,1063.7229,-99.034134,1078.9001C-99.4962,1089.0415,-100.5357,1103.6874,-101.36732,1111.7032C-101.482864,1112.9739,-101.73698,1115.8386,-101.92181,1118.0563C-102.545525,1125.9332,-102.70723,1127.3427,-103.63122,1134.92C-103.88538,1137.022,-104.37047,1140.9722,-104.69392,1143.6979C-105.22519,1148.1099,-106.126144,1155.3176,-107.60455,1166.6832C-107.85881,1168.7162,-108.15903,1170.9569,-108.274506,1171.65C-108.66727,1174.0525,-109.175476,1177.5406,-110.23819,1185.1643C-110.81578,1189.3453,-111.5549,1194.289,-111.87831,1196.1371C-112.20172,1197.985,-112.70993,1201.2426,-113.01027,1203.4141C-113.33368,1205.5623,-114.0036,1210.0901,-114.51178,1213.4626C-115.04318,1216.8354,-115.597565,1220.5084,-115.78233,1221.6632C-115.94414,1222.7955,-116.26752,1224.7821,-116.45224,1226.0524C-119.732635,1247.0515,-119.640274,1246.4971,-120.17154,1250.17C-120.37947,1251.4869,-120.58731,1252.8036,-120.65668,1253.1042C-120.887634,1253.9819,-120.56424,1254.5593,-119.75571,1254.6979C-119.339966,1254.7441,-116.52161,1254.9059,-113.47229,1255.0211C-107.211914,1255.2524,-107.28128,1255.2753,-107.05027,1253.589C-106.14935,1247.421,-104.832504,1238.7814,-103.4234,1229.9799C-103.053795,1227.6931,-102.56862,1224.6204,-102.38388,1223.1652C-102.17595,1221.7097,-101.71393,1218.5219,-101.32122,1216.1191C-100.304794,1209.7203,-99.31151,1203.3906,-99.03418,1201.6812C-98.80317,1200.2719,-98.50287,1198.1469,-97.07065,1188.052C-96.74724,1185.8342,-96.44694,1183.8936,-96.37767,1183.7322C-96.33144,1183.5704,-96.008026,1181.3989,-95.68461,1178.8806C-95.36116,1176.3623,-94.82981,1172.4814,-94.52956,1170.2642C-94.2292,1168.0463,-93.813385,1164.9276,-93.62861,1163.3336C-93.420654,1161.7397,-93.14347,1159.7765,-93.02794,1158.9447C-92.49669,1155.6411,-90.48684,1138.9396,-90.140305,1135.1508C-89.9324,1132.9331,-89.51662,1128.821,-89.19321,1126.0259C-88.269135,1117.8715,-86.99861,1103.618,-86.67523,1097.9584C-86.605896,1096.6185,-86.44428,1094.1238,-86.305626,1092.4142C-85.17367,1077.1449,-84.61933,1054.5286,-84.896454,1036.3942C-85.03506,1027.4546,-85.84359,1020.8705,-87.83029,1012.25415C-88.91602,1007.5416,-91.08748,1000.40356,-92.79695,995.8524C-93.21273,994.7666,-93.8365,993.10364,-94.183075,992.15625C-94.50639,991.2095,-95.13008,989.6384,-95.56911,988.6914C-95.98489,987.74426,-97.04755,985.2953,-97.92537,983.26245C-98.80318,981.22925,-99.91203,978.6885,-100.37404,977.6261C-101.71394,974.59985,-104.71702,968.709,-106.218544,966.2605C-106.95783,965.03564,-107.65085,963.83435,-107.72011,963.60376C-107.812515,963.34924,-108.159,962.74866,-108.50553,962.2407C-109.175446,961.2009,-110.56148,958.7291,-112.24791,955.449C-112.87166,954.24756,-113.95735,952.58435,-114.65033,951.75256C-115.36655,950.94434,-116.33676,949.4889,-116.82185,948.5187C-117.33009,947.5486,-118.3696,945.7235,-119.132,944.45264C-119.89426,943.1821,-120.79518,941.6344,-121.14172,941.0105C-122.065735,939.3938,-126.96323,931.9319,-130.98276,926.0178C-132.04538,924.4469,-134.86371,920.45056,-136.22662,918.5796C-136.87347,917.67847,-138.90628,914.88306,-140.75433,912.3423C-142.60252,909.801,-144.45052,907.26,-144.88953,906.6825C-145.32843,906.105,-146.0214,905.1809,-146.43723,904.6266C-146.85303,904.04895,-147.56915,903.10205,-148.0081,902.5012C-148.44699,901.90076,-149.39413,900.58386,-150.11026,899.5907C-150.82642,898.59717,-152.14308,896.7953,-153.04404,895.5941C-153.94495,894.3928,-155.12314,892.77576,-155.70068,892.0134C-156.2551,891.2512,-157.4794,889.5879,-158.42662,888.3174C-159.37372,887.0465,-160.52875,885.42957,-160.99075,884.73645C-161.47583,884.0436,-162.53854,882.51904,-163.34705,881.3872C-165.17203,878.86914,-170.41599,871.1763,-171.68643,869.1664C-173.02632,867.08765,-176.21428,861.959,-177.11523,860.48035C-177.531,859.7876,-178.40881,858.3784,-179.0326,857.36206C-179.65625,856.3456,-180.53409,854.79785,-180.97307,853.9199C-181.41196,853.0189,-182.03564,851.91016,-182.33595,851.4479C-183.30624,849.9004,-188.31909,839.71277,-190.39818,835.06995C-190.99886,833.72986,-191.71494,832.1127,-192.01524,831.489C-192.31552,830.84216,-192.96243,829.38684,-193.47052,828.255C-193.97885,827.1,-194.78735,825.2981,-195.24934,824.25854C-196.84328,820.65515,-202.68777,806.14777,-204.53586,801.2271C-207.05392,794.4815,-211.18893,782.5848,-212.575,778.1262C-212.99083,776.7172,-213.70688,774.49945,-214.14592,773.15985C-214.58481,771.8198,-215.37021,769.163,-215.92465,767.26886C-216.45596,765.3513,-217.19518,762.81055,-217.5648,761.60913C-217.9114,760.4081,-218.58124,757.9126,-219.04326,756.06476C-219.50531,754.217,-220.17522,751.72186,-220.52176,750.52045C-220.8913,749.3194,-221.39957,747.37897,-221.65367,746.2471C-221.90782,745.0919,-222.71622,741.6269,-223.43242,738.5082C-225.34981,730.09924,-225.74258,728.27435,-226.89757,722.4533C-228.56084,713.929,-228.60706,713.79034,-228.9766,711.0184C-229.18454,709.56287,-229.60037,706.9987,-229.90062,705.3585C-230.20102,703.6952,-230.61682,701.1077,-230.82472,699.5832C-231.03255,698.0586,-231.44843,695.0092,-231.77187,692.8148C-232.07216,690.59705,-232.48799,687.386,-232.67273,685.6533C-232.83449,683.9209,-233.1579,681.1257,-233.34268,679.4856C-234.79796,667.3343,-235.79135,648.7611,-235.79135,634.3231C-235.76831,621.7101,-235.0291,602.32855,-234.28984,594.5897C-234.10503,592.626,-233.87411,590.3854,-233.80475,589.62274C-233.59688,587.29,-232.58047,579.38934,-232.09532,576.34C-230.84784,568.27783,-229.94684,562.8951,-229.23074,559.2451C-228.79182,557.02765,-228.21434,554.00134,-227.93713,552.54565C-227.24414,548.7112,-227.03621,547.903,-226.5511,546.9788C-225.99663,545.8696,-225.32672,543.3983,-224.58754,539.72516C-223.9868,536.76794,-221.23782,525.88776,-220.79889,524.8018C-220.68338,524.50146,-220.26755,523.2077,-219.87488,521.93726C-219.50528,520.6669,-218.67357,517.918,-218.02682,515.81555C-217.38,513.7135,-216.47903,510.64105,-216.01709,509.00092C-215.55501,507.33765,-214.33066,503.96484,-213.33734,501.4931C-212.32085,499.02142,-211.18896,496.15704,-210.81926,495.14038C-210.44972,494.12408,-209.61812,492.13727,-208.99434,490.75098C-208.3706,489.34222,-207.03082,486.29266,-206.01434,483.93652C-201.74063,473.9569,-196.17337,462.68353,-190.53674,452.5193C-189.19695,450.0935,-187.71855,447.76056,-184.11472,442.30853C-181.36575,438.12738,-179.95665,435.86353,-177.8775,432.32916C-175.86778,428.93323,-175.17477,427.89374,-173.88116,426.53064C-173.28049,425.88397,-171.77893,423.8742,-170.5315,422.02618C-169.28406,420.1781,-166.83533,416.92078,-165.12589,414.77234C-163.39326,412.62396,-161.6838,410.49847,-161.31421,410.03638C-160.96771,409.57465,-160.41324,408.67358,-160.13611,408.0501C-159.58163,406.8487,-158.40353,405.32416,-153.2059,399.29474C-144.01161,388.57574,-131.12135,375.26978,-121.788605,366.9306C-120.65662,365.91394,-119.03961,364.45886,-118.207886,363.6964C-114.76593,360.5777,-107.83571,354.7334,-104.4861,352.14587C-103.8392,351.6377,-102.52246,350.59808,-101.57528,349.83582C-91.06444,341.3578,-71.22089,328.0055,-58.49224,320.84412C-56.829063,319.9201,-54.657455,318.67236,-53.641068,318.07208C-51.585144,316.8476,-49.482872,315.73877,-40.7046,311.25714C-34.328796,307.97668,-27.236862,304.58087,-15.178085,299.01376C-13.330044,298.15906,-10.5348015,296.86548,-8.940834,296.12646C-7.3469086,295.387,-5.429611,294.64777,-4.6671524,294.486C-3.1426163,294.18576,-2.1954765,293.86264,1.5700073,292.19922C5.7050476,290.3973,16.562416,286.2391,21.78334,284.43738C26.241692,282.9126,37.21454,279.4242,39.801933,278.7314C41.003128,278.38495,43.56732,277.6918,45.461594,277.1605C47.378944,276.6522,50.543716,275.7973,52.507385,275.31238C54.47078,274.80386,56.8733,274.04172,57.82057,273.6261C58.76767,273.18716,60.962196,272.51736,62.671654,272.10156C64.381096,271.70856,67.661415,270.92325,69.9483,270.36877C72.235306,269.81442,75.40018,269.098,76.99411,268.75153C78.58804,268.428,81.70677,267.7353,83.924286,267.25006C86.14206,266.7651,89.4686,266.09518,91.316635,265.7485C93.16469,265.40195,95.86746,264.87073,97.3228,264.5474C100.71863,263.83145,112.70795,261.7057,117.651505,260.92035C128.0008,259.30338,130.63434,258.9108,135.55481,258.24088C138.48865,257.84808,141.53798,257.43234,142.36957,257.3169C143.70937,257.10892,150.47795,256.34647,156.80751,255.6997C159.21002,255.46878,169.35123,254.56766,176.78983,253.96713C190.97377,252.81198,213.38153,252.23434,229.09015,252.6735C240.08615,252.9505,243.36646,253.11246,254.8706,253.99026C265.45087,254.77563,269.79385,255.16824,274.9683,255.81519C277.44,256.11545,281.22867,256.57748,283.3539,256.85464C293.37976,258.07916,316.36508,262.19104,323.5956,264.0391C324.61188,264.31622,326.8989,264.87085,328.67776,265.28665C335.2384,266.8343,343.85513,269.14453,349.81516,270.94638C353.18787,271.98566,357.32278,273.23352,359.03223,273.7415C360.71863,274.24957,362.49738,274.82745,362.95926,275.0122C363.42145,275.2199,365.5698,275.98236,367.71805,276.7214C372.1766,278.24628,378.20572,280.48727,382.96454,282.3582C388.00073,284.3218,394.65387,287.071,394.931,287.30173C395.09277,287.41714,396.1554,287.90244,397.2872,288.3875C398.4422,288.84952,400.15182,289.61182,401.09906,290.0506C402.0461,290.48932,403.98657,291.3676,405.37265,292.01425C409.73874,294.00116,423.64536,301.0469,424.89282,301.90155C425.2163,302.10934,426.46362,302.8025,427.66492,303.44934C430.57556,304.97388,439.74673,310.35645,443.37326,312.64343C444.9673,313.63672,446.90778,314.86115,447.7165,315.34644C449.1718,316.2472,456.19446,320.8673,457.69586,321.93C458.13477,322.23022,459.42847,323.13116,460.5373,323.9165C461.64636,324.70203,463.5404,326.01868,464.71857,326.85052C465.9198,327.6822,468.11438,329.27618,469.6161,330.40814C471.14056,331.54004,472.7345,332.74115,473.17346,333.0645C474.7444,334.19623,482.7832,340.5954,484.8161,342.30487C485.94812,343.27527,487.93488,344.9381,489.22852,346.02386C498.93097,354.1787,512.51404,367.43854,521.01514,376.97906C527.04456,383.7707,534.9682,393.38068,538.0405,397.65448C538.5948,398.41675,539.24176,399.29462,539.49585,399.61792C543.93115,405.3933,553.79517,420.20087,556.7982,425.60663C557.214,426.36902,558.09186,427.87048,558.7619,428.95587C559.40875,430.0418,560.6563,432.2135,561.5108,433.80756C562.3657,435.40137,563.22034,436.94922,563.40515,437.27252C564.0751,438.42767,572.09125,454.50568,572.5071,455.5453C572.7378,456.12268,573.7315,458.29407,574.7015,460.39667C576.34174,463.8614,579.9916,472.2934,580.73065,474.23364C580.8925,474.67273,581.6085,476.4513,582.32465,478.1607C583.0409,479.87036,584.10345,482.57318,584.68115,484.16718C585.2588,485.76123,586.229,488.3947,586.8529,490.05798C588.8623,495.53265,592.0501,505.97437,593.644,512.23456C596.6472,524.15485,597.38654,528.0587,599.1652,541.5728C600.1124,548.6647,600.5285,561.2081,599.997,565.1355C599.55804,568.2542,597.5713,579.4812,597.31744,580.35925C597.248,580.6362,596.30096,583.03864,595.2382,585.6954C593.09,591.14734,592.53546,593.0183,592.1429,596.2295C591.91187,598.0542,591.91187,598.5625,592.1658,599.0246C592.53546,599.69434,598.2412,608.0571,602.26105,613.8323C604.9869,617.73627,609.9537,624.52814,612.35596,627.6234C613.1185,628.6168,614.3198,630.1875,615.0128,631.0885C616.67596,633.283,621.13446,638.8967,624.5766,643.1008C626.0782,644.9489,628.0879,647.42084,629.058,648.6222C630.05133,649.8234,631.2526,651.3018,631.76086,651.8794C632.26904,652.45667,633.51636,653.9812,634.53284,655.2288C635.5494,656.47626,637.051,658.30164,637.8824,659.29456C638.7141,660.2649,640.3312,662.2053,641.48627,663.56836C642.64087,664.9541,645.0437,667.7955,646.7994,669.8746C648.57794,671.9539,650.54156,674.2872,651.16534,675.09576C651.81244,675.8812,653.33704,677.7061,654.56134,679.16144C655.78564,680.61664,658.3038,683.6198,660.15155,685.8376C662.0227,688.0552,663.9866,690.38837,664.5407,691.03516C665.0721,691.65906,667.84424,694.9855,670.6854,698.4275C673.52704,701.8464,676.59937,705.5427,677.5005,706.6283C681.1967,711.08685,690.483,722.7066,694.04047,727.3037C694.9184,728.4357,696.5817,730.5844,697.7137,732.0394C703.78925,739.82465,714.41547,755.0246,719.12836,762.6479C725.4348,772.81287,729.2229,781.7754,730.7479,790.138C731.5332,794.4579,731.04803,798.2463,729.2229,802.012C728.2992,803.88293,727.8139,804.53015,725.45807,806.9555C720.3525,812.22266,717.3491,814.44037,710.7657,817.85913C708.6171,818.968,706.12256,820.33093,705.2214,820.8623C697.57495,825.4591,693.5324,826.9144,684.5459,828.3699C675.30597,829.84814,674.24304,830.03284,672.99554,830.3335C668.8606,831.37317,667.6131,831.71936,666.0193,832.31995C662.1382,833.7521,658.8811,835.8081,655.97046,838.6725C651.8815,842.6925,649.8948,846.8273,649.3174,852.3948C648.92487,856.183,650.588,862.58203,656.82526,881.1553C660.0133,890.6499,660.4289,891.7125,662.3694,895.1083C664.1945,898.296,664.8642,899.2434,668.4911,903.79395C674.9595,911.90234,675.58307,913.08057,675.606,917.28467C675.6293,921.1659,675.0751,923.0139,672.9262,926.2014C670.732,929.4591,668.0062,932.0233,661.76886,936.73535C653.1523,943.25024,652.6209,943.7583,651.4658,946.41504C650.7268,948.0781,650.7035,948.28613,650.7035,951.03516C650.7035,953.48364,650.79584,954.1537,651.25806,955.4243C652.59766,959.0973,654.238,961.31506,659.3665,966.5128C664.4487,971.66455,666.82794,974.3441,668.30646,976.60815C669.808,978.8949,670.4316,980.25806,670.4546,981.1821C670.4546,981.8978,669.5075,984.00037,668.8376,984.6931C668.6299,984.9243,668.2603,985.4324,668.0063,985.80225C667.08203,987.2339,664.2636,990.5608,660.59076,994.51086C658.4887,996.7749,656.5249,998.90027,656.22455,999.2466C655.5086,1000.07837,651.9047,1005.4607,651.41974,1006.40784C651.212,1006.80054,650.54193,1007.7245,649.91815,1008.44055C648.2549,1010.3352,644.4432,1018.6975,643.4269,1022.71716C641.7403,1029.1854,641.50946,1033.6672,642.5954,1039.0493C644.166,1046.9269,646.8459,1055.2202,651.32745,1066.1934C651.6278,1066.9553,652.1591,1068.2955,652.5058,1069.1962C652.82904,1070.0742,653.684,1072.2687,654.37683,1074.0476C657.3107,1081.6016,660.24457,1091.2347,661.769,1098.3035C662.9702,1103.8246,663.1782,1105.9958,663.1782,1112.6259C663.1782,1119.2327,662.9702,1121.0577,661.6537,1125.9087C660.93744,1128.5422,657.6572,1134.8721,654.6772,1139.4229C648.60156,1148.663,640.4007,1156.679,631.99207,1161.6458C631.22943,1162.0846,629.9822,1163.0549,629.1969,1163.771C628.13446,1164.7643,626.90955,1165.5034,623.999,1166.9589C617.09174,1170.4238,610.5546,1172.9651,601.5913,1175.691L598.2186,1176.7306L590.04083,1177.0776C577.6819,1177.5856,576.6426,1177.6317,565.46155,1177.8624C559.7557,1178.0013,553.2412,1178.1628,551.02356,1178.2322C548.806,1178.3018,544.43994,1178.3942,541.3214,1178.4636C538.203,1178.5331,533.6289,1178.6252,531.15735,1178.6948C528.6854,1178.7638,521.98627,1178.9257,516.2569,1179.0411C483.6848,1179.757,463.42548,1180.589,459.31342,1181.328C451.45923,1182.7604,446.12296,1184.7008,439.67776,1188.374C433.6715,1191.8389,427.87314,1196.8057,423.53012,1202.2573C422.7217,1203.2738,421.3818,1204.7524,420.52716,1205.5377C419.69568,1206.3003,418.5404,1207.6863,417.9629,1208.6102C417.38535,1209.5111,416.3459,1211.1741,415.65283,1212.2603C414.9368,1213.3691,414.08206,1214.9401,413.73547,1215.7714C413.36603,1216.6031,412.41873,1218.4745,411.61026,1219.9296C409.25397,1224.2032,406.73608,1229.8865,404.40277,1236.3315C402.6704,1241.0442,399.43622,1250.8851,398.88165,1253.0796C398.55826,1254.3501,397.95764,1256.6373,397.51868,1258.1619C397.1029,1259.6864,396.3867,1262.7585,395.9017,1264.9767C395.43967,1267.1941,394.86227,1269.9432,394.63116,1271.098C393.7994,1275.0486,393.63776,1276.5731,394.0305,1276.9657C394.33084,1277.243,395.53195,1277.3584,400.12912,1277.5205C403.29398,1277.6589,406.13535,1277.682,406.48184,1277.5895C407.175,1277.4281,407.31342,1277.0583,407.9141,1273.4082C408.99997,1266.94,413.0888,1251.6241,415.3294,1245.6874C415.67603,1244.7865,416.39215,1242.823,416.94644,1241.298C418.19397,1237.7635,420.50415,1232.1504,421.63605,1229.8865C426.60272,1219.8602,428.31195,1216.9728,430.6915,1214.6162C431.6848,1213.6693,433.117,1212.0059,433.9258,1210.9204C436.25888,1207.7784,440.76355,1203.6202,444.298,1201.3334C449.68036,1197.8453,454.97046,1195.7893,461.485,1194.6343C465.18103,1194.0103,487.65808,1193.1323,518.7982,1192.4395C528.3387,1192.2316,541.1597,1191.9084,551.48553,1191.6311C553.9576,1191.5616,560.40265,1191.4229,565.8083,1191.2843C571.21387,1191.1686,577.12756,1191.0072,578.97595,1190.9376C580.8239,1190.8684,586.5297,1190.6376,591.65796,1190.4526L601.01404,1190.0826L607.59766,1187.9115C618.57056,1184.2845,623.14465,1182.46,630.375,1178.8789C634.39453,1176.8693,635.9192,1175.9451,637.4437,1174.5593C638.6914,1173.4042,639.107,1173.104,641.9254,1171.3021C648.53217,1167.0974,656.38654,1159.6359,662.3005,1152.0125C666.6665,1146.376,672.7884,1135.6344,674.22046,1131.1064C676.8769,1122.721,677.4775,1111.5402,675.86053,1100.4979C674.24365,1089.5713,670.80133,1078.6677,661.51483,1055.2202C658.9507,1048.7749,657.19495,1043.1846,656.0861,1038.1254C655.6936,1036.2773,655.57794,1034.9375,655.57794,1032.4656C655.55493,1028.0768,656.10925,1026.113,659.34326,1018.90564C659.6206,1018.30505,660.406,1017.12683,661.0759,1016.272C661.7456,1015.4402,662.8547,1013.7539,663.54767,1012.52966C665.2571,1009.48035,666.1578,1008.32544,670.2236,1003.9363C675.2363,998.5077,675.0751,998.66907,676.5995,996.7749C679.76434,992.8019,681.35846,990.32996,682.7674,987.18787C684.66156,982.91455,684.7081,982.7988,684.2232,980.5812C683.6223,977.7167,682.35175,974.0436,681.22,971.9415C679.0252,967.82947,676.5995,964.8495,668.95306,957.0646C666.9203,955.00867,665.1185,953.0679,664.9335,952.7676C664.3099,951.75134,664.72577,951.1969,667.6594,949.18713C668.699,948.47107,670.7552,946.8999,673.8043,944.47473C677.8935,941.2174,681.751,937.1979,684.5002,933.2938C685.2853,932.16174,687.711,927.2644,687.98816,926.2014C688.9354,922.598,689.28204,916.96155,688.7739,913.47314C687.87274,907.2361,686.71783,905.11084,678.97925,895.3623C676.0683,891.68945,674.7745,889.8181,673.50415,887.48474C672.4644,885.5906,666.4812,867.9647,664.26355,860.29517C662.20764,853.2031,662.41534,851.1704,665.3957,848.23645C667.17426,846.4811,670.10815,844.97925,673.45776,844.10156C676.4609,843.3159,679.34814,842.7849,687.8956,841.4219C691.75385,840.82166,696.53546,839.7125,699.09985,838.8347C702.56464,837.6564,707.67017,835.13794,712.35956,832.3198C713.44495,831.65,715.8939,830.3334,717.83435,829.3862C723.8177,826.42944,728.4839,822.9874,734.028,817.44324C738.0246,813.4928,739.45703,811.59863,741.18945,808.1565C742.34454,805.84656,742.9683,804.20624,743.70746,801.45715C744.3311,799.1009,744.5855,791.6166,744.14655,788.59033C743.33795,783.06934,740.72766,774.98364,737.53925,768.1918C733.7278,760.0378,726.9129,749.2265,716.6561,735.04266C714.9468,732.6864,713.23737,730.28357,712.82153,729.6829C712.406,729.0825,710.83496,727.0034,709.3333,725.0859C707.83185,723.14557,706.1916,721.02057,705.68335,720.3735C702.4957,716.2151,699.3537,712.21906,695.288,707.20605C694.36414,706.051,693.09357,704.5031,692.49286,703.7411C687.61847,697.66534,679.97235,688.40186,673.25006,680.43195C671.6331,678.5606,670.03925,676.62036,669.64624,676.13544C669.27637,675.65015,667.54407,673.6174,665.83453,671.6074C664.1252,669.5976,662.46155,667.634,662.1383,667.2182C661.5374,666.45593,656.3401,660.2879,651.5121,654.55914C649.918,652.6879,648.00085,650.4005,647.2382,649.45374C646.4759,648.5296,644.5584,646.17334,642.9646,644.25604C631.7146,630.6031,627.0943,624.80524,622.0352,618.0367C620.7184,616.25775,619.19385,614.22516,618.63965,613.5318C617.64624,612.2383,613.04895,605.8162,610.99316,602.8131C610.3695,601.9121,609.0526,599.9717,608.05927,598.53955C606.7427,596.6453,606.23413,595.6752,606.23413,595.1899C606.23413,594.79724,606.812,593.06464,607.5279,591.3552C609.6303,586.2266,610.1152,584.6326,611.2935,578.81134C613.48785,567.9767,613.9731,563.7494,613.74207,557.2809C613.5802,552.31476,613.07214,544.3217,612.70276,540.76404C611.8478,532.9099,609.46857,519.74243,607.6434,512.5811C607.38916,511.6339,606.8579,509.55475,606.46515,507.961C606.07275,506.367,605.3333,503.7798,604.8482,502.18573C604.36316,500.59198,603.57764,498.00446,603.11566,496.41058C600.7593,488.5102,594.5681,471.6928,591.9348,466.03308C591.6805,465.52478,591.0569,464.0694,590.52545,462.7989C589.9942,461.52856,589.1858,459.7033,588.74695,458.7561C588.2847,457.8089,587.63776,456.35352,587.2914,455.5219C585.143,450.46307,577.9588,435.74792,575.4868,431.31232C574.609,429.7646,573.8928,428.42462,573.8928,428.37866C573.8928,428.2635,572.2757,425.37537,569.3885,420.40875C561.7188,407.12616,550.28406,390.74738,540.5124,379.08136C538.9876,377.2563,537.3015,375.22363,536.77,374.57666C531.0641,367.6234,521.2691,357.29742,511.63623,348.10345C504.98315,341.72742,493.479,331.72443,487.84247,327.42804C487.17267,326.91968,485.1397,325.34888,483.3147,323.91656C479.64178,321.0522,473.01184,316.17792,468.89996,313.33643C467.44452,312.32013,465.6427,311.0724,464.90332,310.54126C463.63275,309.6405,454.5081,303.68045,451.92084,302.06305C450.5579,301.2084,445.72977,298.29803,441.64096,295.84906C434.34116,291.50616,422.39777,285.1997,413.57343,281.01834C406.48148,277.669,398.78885,274.20337,396.13217,273.1639C395.00027,272.72534,392.29752,271.6164,390.12607,270.71555C387.97772,269.81467,384.90527,268.61343,383.31128,268.03583C381.71735,267.45822,379.5918,266.67258,378.5755,266.28015C369.42773,262.81482,354.48132,258.03293,344.6174,255.42264C338.6574,253.85175,328.93185,251.40305,326.25223,250.8255C320.01498,249.4856,318.3748,249.139,314.1242,248.30746C295.52817,244.7037,283.33084,242.97128,261.80087,240.91507C256.14124,240.38385,248.30997,239.89859,238.70001,239.52917C233.82578,239.34418,208.53033,239.29828,199.54422,239.45984 Z"/>
</g>
<g style="fill:rgb(124,124,124); fill-opacity:1.0; stroke-linejoin: miter">
<path d="M596.47363,239.46024C606.1068,239.64505,626.759,240.82297,633.8971,241.60846C635.02893,241.7468,638.471,242.09375,641.5205,242.41705C652.63196,243.59521,662.6576,244.84277,670.16534,245.99774C672.7064,246.39032,677.11884,247.0835,679.9832,247.52225C682.8477,247.96136,686.7981,248.63129,688.76166,249.00082C690.7252,249.37045,694.16736,249.99442,696.385,250.38684C698.60254,250.77954,701.4209,251.31067,702.62213,251.54199C707.0112,252.41968,715.0272,254.08276,716.48267,254.42953C717.31415,254.61417,720.6407,255.35376,723.8748,256.06967C732.5377,257.96384,741.54706,260.2512,743.2795,261.01324C744.96594,261.72946,746.79095,262.28403,750.55634,263.2079C759.3116,265.31003,778.87787,271.57022,788.6727,275.405C794.17084,277.55368,801.3549,280.4413,802.00183,280.78772C802.3484,280.97238,803.4572,281.29587,804.4275,281.48068C806.1368,281.82718,810.5029,283.72116,820.3208,288.3877C824.7561,290.4896,826.9277,291.50638,827.02,291.50638C827.0663,291.50638,830.208,293.00784,833.97345,294.85596C837.7389,296.7041,840.8574,298.20554,840.90375,298.20554C841.34265,298.20554,855.73444,305.96722,859.66156,308.30054C860.58563,308.83197,861.3711,309.29395,861.4172,309.29395C861.6714,309.29395,872.4132,315.76245,875.4163,317.72595C885.8347,324.4945,891.9564,328.74487,900.01874,334.70496C907.0875,339.94885,916.99774,348.1037,924.34393,354.6872C934.7161,363.97388,945.9894,375.29303,954.8832,385.31885C963.43054,394.97516,966.7108,398.97162,967.95825,401.32788C968.4203,402.2058,969.1365,403.29138,969.5292,403.75385C971.7931,406.29468,975.60474,411.28442,977.56836,414.2876C978.423,415.55823,979.7628,417.3368,980.5713,418.2379C982.2578,420.1552,983.1587,421.4721,985.09924,424.79846C986.85486,427.8246,988.5873,430.59668,991.3595,434.80096C996.4879,442.58594,997.94324,445.03497,1002.0552,452.8659C1004.2959,457.09338,1007.53,463.49255,1008.662,465.9178C1009.0315,466.7497,1009.8862,468.55145,1010.5563,469.96094C1011.8037,472.594,1012.86633,474.97363,1014.64514,479.0855C1015.22253,480.42535,1016.2622,482.80475,1016.9552,484.39874C1017.6714,485.99286,1018.7339,488.58002,1019.3346,490.17407C1019.9584,491.76788,1020.79004,493.77777,1021.1826,494.67865C1022.407,497.38147,1023.6776,500.8698,1024.7633,504.56592C1025.3177,506.50616,1026.4034,510.1101,1027.1427,512.5819C1031.3009,526.2118,1032.4329,530.34625,1034.0035,537.8079C1034.327,539.28613,1034.9047,541.2734,1035.2742,542.24335C1035.667,543.2135,1036.1982,545.10785,1036.4524,546.4708C1036.7064,547.857,1037.4226,551.5069,1038.0463,554.6255C1039.4325,561.6017,1041.5345,574.39966,1042.32,580.4984C1044.3989,596.9461,1045.2537,614.31793,1045.0918,637.21106C1044.9995,648.99274,1044.8379,654.5366,1044.3989,661.46674C1044.3296,662.48315,1044.2141,664.1928,1044.168,665.27875C1044.0986,666.36426,1043.9368,668.1202,1043.8213,669.20575C1043.7058,670.2915,1043.4517,673.0405,1043.2439,675.3276C1042.4817,684.3138,1042.2043,686.6703,1040.8878,696.11816C1040.4489,699.2833,1039.9868,702.60974,1039.8713,703.5108C1039.7559,704.3883,1039.5709,705.7053,1039.4324,706.3981C1039.3169,707.09106,1039.109,708.3849,1038.9705,709.2858C1038.0693,714.9226,1035.6669,727.92834,1035.0432,730.53845C1034.8121,731.5551,1034.1885,734.35034,1033.6571,736.7759C1033.1489,739.17834,1032.3173,742.8283,1031.809,744.86084C1031.3009,746.89404,1030.5848,749.8971,1030.192,751.56055C1029.7993,753.20044,1029.3373,755.0256,1029.1757,755.6029C1028.9907,756.18085,1028.4594,758.098,1027.9974,759.8767C1024.4167,773.4834,1019.5194,788.75305,1013.8135,804.1383C1012.2888,808.25,1010.5099,812.91644,1009.86316,814.51044C1009.2163,816.1044,1008.3616,818.2296,1007.99207,819.2462C1007.59937,820.2394,1007.0217,821.64856,1006.69836,822.36487C1006.375,823.05786,1005.82056,824.3513,1005.4741,825.2521C1005.1045,826.13,1004.34216,827.95496,1003.74146,829.2947C1003.14087,830.63477,1002.2168,832.75977,1001.66235,834.0304C993.48474,852.927,986.34656,865.79407,973.7103,884.39026C971.86224,887.0934,966.98804,893.93115,962.9685,899.40564C961.12036,901.9241,959.2261,904.5574,958.7641,905.2505C958.30206,905.9435,957.6091,906.8445,957.23944,907.2374C956.8698,907.6301,956.1768,908.53076,955.7148,909.22375C955.2296,909.917,954.5828,910.86426,954.2363,911.3262C953.88983,911.7882,952.781,913.313,951.76447,914.676C950.7712,916.0619,949.31586,918.0486,948.53046,919.0648C947.768,920.10474,946.40515,921.9525,945.5273,923.1769C944.6264,924.42456,943.37897,926.1339,942.7551,927.0116C942.1084,927.8895,941.4153,928.9059,941.20746,929.2527C940.9996,929.599,940.02924,930.98486,939.0823,932.3246C937.3265,934.7969,934.30023,939.25525,932.1287,942.6045C929.93414,945.95447,926.0071,952.3303,926.0071,952.515C926.0071,952.56116,925.6143,953.2777,925.1292,954.06274C924.64404,954.8716,924.0665,956.00366,923.8356,956.55786C923.3504,957.8054,922.77295,958.68286,921.6178,959.9304C920.7862,960.83167,919.0767,963.4885,919.0767,963.8811C919.0767,963.9967,918.5223,965.0132,917.8293,966.1681C915.5423,970.00256,913.0012,974.4845,912.4237,975.6394C912.1003,976.2632,911.4534,977.4646,910.96844,978.2958C910.50635,979.1279,909.3052,981.6688,908.3349,983.95593C907.3646,986.2427,905.9324,989.5231,905.17004,991.2324C904.3846,992.94214,903.4605,995.1366,903.114,996.08386C902.7675,997.0309,902.0514,998.948,901.52,1000.3573C899.87994,1004.7698,899.46405,1006.0403,897.9626,1011.5614C896.1376,1018.2604,894.9594,1025.1216,894.6129,1031.4047C894.12775,1039.629,894.35876,1063.7233,895.0518,1078.9005C895.51385,1089.0419,896.55334,1103.6876,897.38495,1111.7036C897.5005,1112.9742,897.7546,1115.8389,897.93945,1118.0566C898.5632,1125.9336,898.72485,1127.3429,899.64886,1134.9204C899.903,1137.0223,900.3881,1140.9724,900.7115,1143.6981C901.2428,1148.1101,902.14374,1155.318,903.6222,1166.6836C903.87646,1168.7164,904.17664,1170.9573,904.2921,1171.6503C904.6849,1174.0527,905.1931,1177.541,906.2558,1185.1647C906.83344,1189.3457,907.5725,1194.2892,907.89594,1196.1375C908.21936,1197.9854,908.7276,1201.2428,909.0279,1203.4144C909.3513,1205.5625,910.02124,1210.0903,910.52936,1213.4629C911.06085,1216.8358,911.6152,1220.5088,911.7999,1221.6636C911.9618,1222.7958,912.28516,1224.7823,912.46985,1226.0527C915.7503,1247.0518,915.6579,1246.4973,916.1892,1250.1703C916.3971,1251.4873,916.6049,1252.804,916.6743,1253.1046C916.9053,1253.9822,916.5819,1254.5596,915.7733,1254.6981C915.3576,1254.7445,912.53925,1254.9061,909.4899,1255.0214C903.22955,1255.2527,903.2989,1255.2755,903.0679,1253.5894C902.167,1247.4213,900.8501,1238.7816,899.44104,1229.9801C899.0714,1227.6934,898.58624,1224.6207,898.4015,1223.1655C898.19354,1221.7101,897.73157,1218.5222,897.33887,1216.1194C896.32245,1209.7207,895.32916,1203.391,895.0518,1201.6814C894.82086,1200.2721,894.5205,1198.1472,893.0883,1188.0522C892.76483,1185.8346,892.4646,1183.8939,892.3953,1183.7324C892.34906,1183.5708,892.0257,1181.3992,891.7022,1178.881C891.3788,1176.3625,890.8475,1172.4818,890.5472,1170.2644C890.2468,1168.0465,889.83105,1164.9279,889.64624,1163.3339C889.4383,1161.74,889.16113,1159.7767,889.0456,1158.945C888.5143,1155.6415,886.50446,1138.9398,886.15796,1135.1511C885.95,1132.9333,885.5343,1128.8214,885.2108,1126.0262C884.2868,1117.8718,883.01624,1103.6183,882.6929,1097.9586C882.62354,1096.6189,882.4619,1094.124,882.32324,1092.4146C881.19135,1077.1453,880.637,1054.5289,880.9142,1036.3945C881.0528,1027.4548,881.8613,1020.87085,883.8479,1012.2544C884.9337,1007.5419,887.1051,1000.40393,888.8146,995.85266C889.23035,994.76685,889.8542,993.104,890.20074,992.1566C890.52405,991.2097,891.14777,989.6388,891.5868,988.6918C892.0025,987.7445,893.06525,985.29565,893.943,983.2628C894.82086,981.2296,895.9297,978.6887,896.39166,977.62634C897.73157,974.6001,900.7347,968.7092,902.2362,966.26074C902.9755,965.036,903.6685,963.8346,903.7378,963.6041C903.8302,963.3495,904.17664,962.749,904.5232,962.24097C905.1931,961.2013,906.5791,958.7294,908.26556,955.4492C908.88934,954.2479,909.975,952.5847,910.66797,951.7528C911.3842,950.9446,912.35443,949.48914,912.8395,948.51904C913.3478,947.5488,914.38727,945.72375,915.14966,944.4529C915.9119,943.1824,916.81287,941.63464,917.15936,941.01086C918.08344,939.39404,922.9809,931.9321,927.0004,926.0182C928.06305,924.44714,930.88135,920.4508,932.24426,918.57983C932.8911,917.6787,934.9239,914.8834,936.772,912.3425C938.6202,909.8014,940.4682,907.2604,940.90717,906.68274C941.3461,906.1052,942.03906,905.1813,942.4549,904.62683C942.8707,904.0493,943.5868,903.1024,944.02576,902.5016C944.46466,901.901,945.41174,900.5841,946.1279,899.59106C946.84406,898.59753,948.16077,896.79565,949.0617,895.59436C949.96265,894.3932,951.1408,892.776,951.7183,892.0138C952.27277,891.25146,953.497,889.58813,954.4443,888.3176C955.3914,887.0469,956.5464,885.42993,957.0084,884.7367C957.49347,884.04395,958.55615,882.5194,959.3647,881.38745C961.1897,878.8695,966.43365,871.1765,967.7041,869.16675C969.04395,867.0879,972.23193,861.95935,973.13293,860.4807C973.5486,859.78784,974.4265,858.37866,975.0502,857.3623C975.6738,856.3458,976.55176,854.7981,976.9907,853.9203C977.42957,853.01917,978.05334,851.9105,978.35364,851.4481C979.32385,849.90063,984.3367,839.71313,986.4159,835.0702C987.0165,833.7301,987.73254,832.11304,988.03284,831.4894C988.3331,830.8425,988.9801,829.3871,989.48816,828.25525C989.99646,827.10034,990.80505,825.29834,991.26697,824.2589C992.86096,820.6554,998.70544,806.14795,1000.5536,801.22736C1003.07153,794.48175,1007.20654,782.585,1008.59265,778.12646C1009.00854,776.71747,1009.7245,774.4997,1010.1636,773.1601C1010.60254,771.82007,1011.3878,769.16327,1011.9424,767.2691C1012.47363,765.35156,1013.21277,762.8107,1013.5824,761.6094C1013.9291,760.4083,1014.5989,757.91284,1015.0609,756.065C1015.52295,754.2172,1016.1929,751.7221,1016.5394,750.5206C1016.90894,749.31964,1017.41724,747.3792,1017.67126,746.2473C1017.92554,745.09216,1018.7339,741.6271,1019.4501,738.5084C1021.36743,730.0995,1021.76025,728.2746,1022.9153,722.4536C1024.5785,713.9293,1024.6246,713.79065,1024.9943,711.0187C1025.2021,709.5632,1025.618,706.999,1025.9182,705.3588C1026.2188,703.6955,1026.6345,701.10803,1026.8424,699.58356C1027.0502,698.05896,1027.4661,695.0095,1027.7896,692.8151C1028.0898,690.59735,1028.5056,687.3863,1028.6904,685.6536C1028.8522,683.9212,1029.1755,681.126,1029.3604,679.4859C1030.8157,667.3346,1031.809,648.7614,1031.809,634.3234C1031.7859,621.7104,1031.0468,602.32886,1030.3075,594.59C1030.1227,592.6263,1029.8917,590.3857,1029.8224,589.62305C1029.6146,587.29034,1028.5981,579.38965,1028.113,576.34033C1026.8655,568.27814,1025.9645,562.8954,1025.2484,559.2454C1024.8094,557.02795,1024.232,554.00165,1023.95483,552.546C1023.26184,548.71155,1023.05396,547.9033,1022.5687,546.9791C1022.0143,545.86993,1021.34436,543.3986,1020.6052,539.72546C1020.0045,536.76825,1017.2555,525.88806,1016.8165,524.8021C1016.70105,524.5018,1016.2853,523.208,1015.8926,521.93756C1015.52295,520.6672,1014.6913,517.9184,1014.04443,515.81586C1013.3977,513.7138,1012.4967,510.64142,1012.0348,509.00122C1011.57275,507.33795,1010.34827,503.96515,1009.355,501.4934C1008.3385,499.02173,1007.20667,496.15735,1006.8369,495.1407C1006.4674,494.1244,1005.63574,492.13763,1005.0121,490.75128C1004.3883,489.34253,1003.04846,486.29297,1002.032,483.93683C997.7583,473.9572,992.19104,462.68384,986.55444,452.5196C985.2146,450.0938,983.7363,447.76086,980.1323,442.30884C977.3834,438.1277,975.97437,435.86383,973.89514,432.32947C971.8855,428.93353,971.19244,427.8941,969.89886,426.53094C969.2982,425.88428,967.79663,423.8745,966.54913,422.0265C965.30176,420.1784,962.8531,416.92108,961.1436,414.77264C959.41095,412.62427,957.7015,410.49878,957.3319,410.03668C956.9854,409.57495,956.4309,408.6739,956.1538,408.0504C955.5993,406.849,954.42126,405.32452,949.2236,399.29504C940.0293,388.57605,927.1391,375.27008,917.8063,366.9309C916.6743,365.91425,915.0573,364.45917,914.22565,363.69672C910.7836,360.578,903.85345,354.7337,900.5038,352.14618C899.85693,351.638,898.54016,350.5984,897.59296,349.83612C887.0822,341.3581,867.23865,328.0058,854.5101,320.84448C852.84686,319.9204,850.6753,318.67273,849.6588,318.0724C847.6029,316.8479,845.5007,315.73907,836.7224,311.2575C830.3466,307.97705,823.25464,304.58124,811.19586,299.01413C809.34784,298.1594,806.5526,296.8658,804.9587,296.1268C803.36475,295.38733,801.44745,294.6481,800.685,294.48636C799.1604,294.1861,798.2133,293.86298,794.4478,292.19955C790.31274,290.39764,779.45544,286.23944,774.2345,284.4377C769.7761,282.91293,758.8033,279.42453,756.21594,278.73175C755.0147,278.3853,752.4505,277.69217,750.5563,277.16083C748.6389,276.65256,745.4741,275.79764,743.5105,275.3127C741.54706,274.8042,739.14453,274.04205,738.1973,273.62643C737.2502,273.1875,735.05566,272.5177,733.3461,272.1019C731.6368,271.7089,728.35645,270.92358,726.0696,270.3691C723.78253,269.81476,720.6177,269.09833,719.02374,268.75186C717.4298,268.42834,714.3111,267.73566,712.09357,267.2504C709.8758,266.76544,706.54926,266.09552,704.70123,265.74884C702.85315,265.40228,700.1504,264.87106,698.695,264.54773C695.2992,263.8318,683.30994,261.70602,678.3664,260.9207C668.017,259.30374,665.3835,258.91116,660.463,258.24124C657.5292,257.84848,654.47986,257.4327,653.64825,257.31726C652.3085,257.10928,645.5399,256.34683,639.2103,255.7001C636.8078,255.46915,626.6666,254.56802,619.2281,253.96753C605.0441,252.81238,582.6363,252.23474,566.9278,252.67389C555.93176,252.9509,552.6514,253.11282,541.1473,253.99066C530.567,254.776,526.22406,255.16864,521.0496,255.81558C518.5779,256.1158,514.78925,256.57788,512.664,256.85504C502.63812,258.07953,479.65283,262.19138,472.4223,264.03943C471.406,264.31656,469.11902,264.8712,467.34015,265.287C460.77948,266.83463,452.1628,269.14487,446.2028,270.94672C442.83008,271.986,438.69516,273.23386,436.98572,273.74182C435.29932,274.2499,433.52057,274.82782,433.0587,275.01254C432.59647,275.22025,430.44815,275.9827,428.2999,276.72174C423.84134,278.24664,417.81223,280.4876,413.05344,282.35852C408.01724,284.32214,401.3641,287.07135,401.08698,287.3021C400.9252,287.41754,399.86258,287.9028,398.73077,288.38788C397.57578,288.84988,395.86618,289.61218,394.9189,290.05096C393.97186,290.48975,392.0314,291.36804,390.64532,292.01468C386.27924,294.0016,372.37262,301.0473,371.12515,301.90195C370.80167,302.10974,369.55438,302.8029,368.35306,303.44974C365.4424,304.9743,356.27124,310.35687,352.6447,312.6438C351.0507,313.6371,349.1102,314.8615,348.3015,315.3468C346.84616,316.24756,339.82352,320.86768,338.32214,321.93036C337.8832,322.2306,336.5895,323.13153,335.48068,323.91687C334.3716,324.7024,332.47757,326.01904,331.2994,326.8509C330.0982,327.68256,327.90353,329.27655,326.4019,330.4085C324.87735,331.5404,323.28345,332.74152,322.8445,333.06488C321.27353,334.1966,313.2347,340.59576,311.2018,342.30524C310.06982,343.27563,308.08307,344.93848,306.78943,346.02423C297.08704,354.17908,283.50394,367.4389,275.0028,376.97943C268.97342,383.77106,261.04974,393.38104,257.97748,397.65485C257.4232,398.4171,256.77625,399.29504,256.52213,399.6183C252.08682,405.39368,242.22281,420.20123,239.21976,425.607C238.80399,426.3694,237.92612,427.87085,237.2561,428.95624C236.60919,430.04218,235.3617,432.21387,234.50714,433.80792C233.65228,435.4018,232.79764,436.9496,232.61282,437.2729C231.9429,438.42804,223.92676,454.50604,223.5109,455.54565C223.28015,456.1231,222.2865,458.29443,221.31653,460.39703C219.67627,463.86176,216.02643,472.29376,215.28732,474.234C215.12549,474.6731,214.40948,476.45166,213.6933,478.16107C212.97708,479.87073,211.91452,482.57355,211.33682,484.16754C210.75919,485.7616,209.789,488.39508,209.1651,490.05835C207.15567,495.53302,203.96786,505.97473,202.37401,512.2349C199.37077,524.1552,198.63144,528.0591,196.85274,541.5732C195.90555,548.66504,195.48946,561.2085,196.02098,565.13586C196.45995,568.2546,198.44667,579.48157,198.70056,580.3596C198.76997,580.6366,199.71701,583.039,200.77979,585.6958C202.92796,591.1477,203.48251,593.0187,203.87508,596.22986C204.10611,598.05457,204.10611,598.56287,203.8522,599.02496C203.48251,599.6947,197.77676,608.0575,193.75691,613.83264C191.0311,617.73663,186.0643,624.5285,183.662,627.6238C182.89944,628.6172,181.69815,630.18787,181.00516,631.0889C179.34204,633.2834,174.88354,638.8971,171.4414,643.1012C169.93982,644.9493,167.93008,647.4212,166.96004,648.62256C165.96667,649.8238,164.76538,651.3022,164.25716,651.87976C163.74893,652.45703,162.50162,653.98157,161.48517,655.2292C160.46864,656.4767,158.96698,658.302,158.1356,659.2949C157.30386,660.26526,155.68684,662.20575,154.53172,663.5687C153.37712,664.95447,150.97429,667.79584,149.2186,669.87494C147.44003,671.9543,145.47641,674.28754,144.85268,675.0961C144.20555,675.8816,142.68095,677.7065,141.45663,679.1618C140.23233,680.617,137.71422,683.6202,135.86647,685.83795C133.99527,688.05554,132.03142,690.38873,131.47731,691.0355C130.94592,691.6594,128.17378,694.98584,125.332596,698.42786C122.49097,701.8468,119.41861,705.5431,118.51752,706.62866C114.82129,711.0872,105.53502,722.707,101.97752,727.304C101.09961,728.43604,99.436264,730.58466,98.304306,732.03973C92.228775,739.8249,81.60254,755.0249,76.88963,762.6482C70.58316,772.8132,66.79516,781.7757,65.27012,790.1383C64.484856,794.4582,64.970055,798.2466,66.79516,802.0123C67.71889,803.88324,68.20417,804.5304,70.55992,806.9558C75.66555,812.22296,78.66887,814.4407,85.25232,817.8595C87.40088,818.96826,89.89545,820.3313,90.7966,820.8627C98.443054,825.4595,102.48561,826.9147,111.47209,828.3701C120.712036,829.8485,121.77495,830.0332,123.02243,830.33374C127.15741,831.3734,128.40488,831.7197,129.99873,832.3203C133.87982,833.75244,137.13689,835.8085,140.04756,838.6727C144.1365,842.69275,146.12323,846.82764,146.70064,852.395C147.09312,856.18335,145.43001,862.5824,139.19264,881.1555C136.00462,890.65015,135.58905,891.71277,133.64851,895.1085C131.8234,898.29626,131.15372,899.24365,127.52681,903.7943C121.058426,911.9026,120.43483,913.0808,120.411896,917.28503C120.38866,921.16614,120.94284,923.0143,123.09169,926.2018C125.285904,929.4595,128.01172,932.02356,134.24908,936.7356C142.86565,943.2505,143.39703,943.75854,144.5521,946.4153C145.2911,948.0785,145.31442,948.2864,145.31442,951.0355C145.31442,953.4839,145.22208,954.15405,144.75987,955.4247C143.42027,959.09753,141.77994,961.3153,136.65138,966.51306C131.56921,971.6648,129.19,974.3445,127.71144,976.6084C126.20993,978.89526,125.586334,980.2583,125.563324,981.1824C125.563324,981.8982,126.51044,984.0006,127.18034,984.69336C127.38806,984.9247,127.757614,985.43274,128.01164,985.8025C128.9359,987.23425,131.75429,990.56104,135.42714,994.5112C137.52922,996.77515,139.49301,998.90063,139.79337,999.24695C140.50931,1000.0786,144.1132,1005.46106,144.59819,1006.4082C144.80597,1006.8008,145.47597,1007.72485,146.09978,1008.4409C147.76305,1010.33545,151.57472,1018.69775,152.59102,1022.7174C154.2776,1029.1858,154.50848,1033.6675,153.42255,1039.0497C151.85193,1046.9272,149.17206,1055.2205,144.69046,1066.1937C144.3901,1066.9557,143.8588,1068.2958,143.5121,1069.1964C143.18887,1070.0745,142.3339,1072.2689,141.64111,1074.048C138.70721,1081.6018,135.77338,1091.2351,134.24893,1098.3037C133.04771,1103.8248,132.8397,1105.9961,132.8397,1112.6262C132.8397,1119.233,133.04771,1121.058,134.36423,1125.9089C135.08046,1128.5426,138.36067,1134.8724,141.34076,1139.4231C147.41635,1148.6632,155.6172,1156.6793,164.02583,1161.646C164.78847,1162.085,166.03572,1163.0552,166.821,1163.7712C167.88347,1164.7645,169.10837,1165.5037,172.01889,1166.9591C178.92616,1170.4241,185.46327,1172.9653,194.4266,1175.6913L197.79926,1176.731L205.97708,1177.0779C218.336,1177.5858,219.3753,1177.632,230.55634,1177.8627C236.26224,1178.0017,242.77667,1178.1631,244.99435,1178.2324C247.21188,1178.302,251.57794,1178.3944,254.6965,1178.4639C257.81488,1178.5333,262.38898,1178.6256,264.86057,1178.6951C267.3325,1178.7642,274.03162,1178.9259,279.761,1179.0415C312.33304,1179.7572,332.59235,1180.5892,336.70444,1181.3282C344.55862,1182.7607,349.89493,1184.7012,356.3401,1188.3744C362.34637,1191.8391,368.1447,1196.806,372.48776,1202.2577C373.29614,1203.274,374.63605,1204.7527,375.4907,1205.538C376.32217,1206.3005,377.47745,1207.6865,378.055,1208.6105C378.6325,1209.5115,379.67197,1211.1743,380.36505,1212.2606C381.08105,1213.3694,381.93582,1214.9404,382.28238,1215.7717C382.65182,1216.6034,383.59912,1218.4749,384.4076,1219.9298C386.76392,1224.2035,389.2818,1229.8867,391.61508,1236.3318C393.34747,1241.0446,396.58167,1250.8855,397.1362,1253.08C397.45963,1254.3505,398.06024,1256.6377,398.4992,1258.1621C398.91495,1259.6866,399.6312,1262.7589,400.11618,1264.9769C400.5782,1267.1943,401.1556,1269.9435,401.3867,1271.0984C402.21844,1275.049,402.3801,1276.5735,401.9874,1276.9661C401.687,1277.2434,400.4859,1277.3588,395.88873,1277.5209C392.72388,1277.6592,389.8825,1277.6823,389.536,1277.5897C388.84286,1277.4283,388.70444,1277.0587,388.10376,1273.4084C387.0179,1266.9402,382.92905,1251.6244,380.68845,1245.6877C380.34183,1244.7867,379.62573,1242.8232,379.07144,1241.2982C377.82388,1237.7639,375.5137,1232.1506,374.38184,1229.8867C369.41513,1219.8605,367.7059,1216.9731,365.32635,1214.6166C364.33304,1213.6696,362.90088,1212.0061,362.09207,1210.9208C359.759,1207.7788,355.2543,1203.6205,351.71988,1201.3337C346.3375,1197.8456,341.0474,1195.7896,334.53287,1194.6345C330.83685,1194.0105,308.35977,1193.1326,277.21967,1192.4397C267.6792,1192.2318,254.85815,1191.9088,244.53235,1191.6313C242.06036,1191.5619,235.61526,1191.4231,230.20963,1191.2845C224.80402,1191.169,218.89032,1191.0076,217.04199,1190.9379C215.194,1190.8687,209.48819,1190.6378,204.35992,1190.453L195.00388,1190.083L188.42027,1187.9119C177.44737,1184.2848,172.87329,1182.4602,165.64293,1178.8792C161.6234,1176.8696,160.09872,1175.9453,158.5742,1174.5597C157.3265,1173.4045,156.91092,1173.1042,154.09253,1171.3025C147.48576,1167.0977,139.63138,1159.6361,133.71747,1152.0128C129.3514,1146.3763,123.22955,1135.6346,121.79744,1131.1067C119.14104,1122.7212,118.54047,1111.5404,120.15741,1100.4982C121.77429,1089.5715,125.21657,1078.668,134.50311,1055.2205C137.06725,1048.7753,138.82295,1043.1849,139.93182,1038.1257C140.32431,1036.2777,140.43997,1034.9379,140.43997,1032.466C140.46298,1028.077,139.90866,1026.1134,136.67468,1018.9059C136.39734,1018.3054,135.61192,1017.1272,134.942,1016.2722C134.27232,1015.44055,133.16322,1013.7543,132.47023,1012.53C130.76085,1009.4806,129.86014,1008.3257,125.79434,1003.9365C120.781586,998.50793,120.94284,998.6693,119.41846,996.77515C116.2536,992.8021,114.659454,990.3302,113.2505,987.1881C111.35637,982.9148,111.309814,982.7992,111.79472,980.58154C112.3956,977.71704,113.66617,974.0438,114.79797,971.9418C116.99271,967.8297,119.41846,964.84985,127.064835,957.0648C129.09766,955.0089,130.89938,953.06824,131.08444,952.7678C131.70804,951.7516,131.29216,951.19727,128.35847,949.1874C127.31894,948.4713,125.26274,946.90027,122.21362,944.475C118.124435,941.2178,114.26695,937.1981,111.517746,933.29407C110.73262,932.1621,108.306946,927.2648,108.02974,926.2018C107.08249,922.59827,106.73587,916.9619,107.24402,913.4735C108.14519,907.2363,109.30008,905.1111,117.03865,895.36255C119.94963,891.6898,121.24342,889.81836,122.51376,887.4851C123.55351,885.5908,129.53668,867.96497,131.75444,860.2954C133.81035,853.2035,133.60263,851.1708,130.62233,848.2367C128.84377,846.4813,125.90987,844.9795,122.56023,844.1018C119.55713,843.31616,116.669846,842.7853,108.12239,841.4221C104.26416,840.822,99.48251,839.71277,96.91815,838.83496C93.453384,837.65674,88.34784,835.1383,83.65846,832.32007C82.573044,831.6504,80.124054,830.33374,78.183655,829.3865C72.20033,826.4297,67.53419,822.9877,61.99006,817.4436C57.993454,813.4931,56.561058,811.59894,54.828598,808.1568C53.673553,805.84686,53.049736,804.20654,52.31064,801.45746C51.68698,799.1012,51.43257,791.6169,51.87153,788.59064C52.680115,783.06964,55.29042,774.98395,58.478813,768.1921C62.290268,760.0381,69.10518,749.22675,79.36186,735.04297C81.07123,732.6867,82.78061,730.2839,83.19649,729.6832C83.611984,729.0828,85.18306,727.0037,86.68471,725.08624C88.18614,723.14594,89.8264,721.02094,90.334625,720.37384C93.52228,716.21545,96.66426,712.2194,100.72998,707.2064C101.653854,706.0514,102.92442,704.5035,103.52515,703.74146C108.39952,697.6657,116.04567,688.4022,122.767944,680.4323C124.38489,678.561,125.978745,676.6207,126.371765,676.1358C126.74161,675.6505,128.47392,673.61774,130.18344,671.6078C131.8928,669.59796,133.55646,667.63434,133.87968,667.21857C134.48055,666.4563,139.67793,660.28827,144.5059,654.5595C146.09999,652.6883,148.01715,650.4009,148.77979,649.4541C149.54213,648.52997,151.45958,646.1737,153.05336,644.2564C164.3034,630.60345,168.92368,624.8056,173.98276,618.03705C175.29964,616.2581,176.82416,614.2255,177.37833,613.53217C178.37177,612.23865,182.969,605.8166,185.02484,602.8135C185.6485,601.9125,186.96538,599.9721,187.95874,598.5399C189.27533,596.6457,189.78384,595.67554,189.78384,595.19025C189.78384,594.7976,189.206,593.065,188.49005,591.3556C186.38766,586.227,185.90283,584.633,184.72447,578.8117C182.53012,567.97705,182.0449,563.74976,182.27592,557.28125C182.43776,552.3151,182.94585,544.32214,183.31525,540.7644C184.17023,532.9103,186.54944,519.7428,188.37462,512.5815C188.6288,511.63428,189.16003,509.55518,189.55283,507.96136C189.94524,506.36737,190.68463,503.78015,191.16977,502.1861C191.65483,500.59235,192.44034,498.00482,192.90231,496.41095C195.25873,488.51056,201.44984,471.69318,204.08316,466.03345C204.3375,465.52515,204.96109,464.06976,205.49255,462.79926C206.02377,461.52893,206.83221,459.70367,207.27103,458.75647C207.73322,457.80927,208.38019,456.35388,208.7266,455.52228C210.875,450.46344,218.05917,435.7483,220.53119,431.31268C221.40894,429.76495,222.12518,428.425,222.12518,428.37903C222.12518,428.26385,223.74228,425.37573,226.62949,420.40918C234.29913,407.12653,245.73392,390.7478,255.50562,379.08173C257.0304,377.25665,258.7165,375.22406,259.248,374.57703C264.9539,367.62378,274.7489,357.2978,284.38177,348.10388C291.03485,341.72778,302.539,331.7248,308.17548,327.4284C308.84528,326.92004,310.87827,325.34924,312.70325,323.91693C316.3762,321.05255,323.0061,316.17828,327.11804,313.3368C328.5735,312.3205,330.37527,311.07275,331.1147,310.54163C332.3852,309.64087,341.5099,303.68085,344.09714,302.06345C345.46008,301.2088,350.2882,298.29843,354.377,295.8495C361.67682,291.50656,373.6202,285.2001,382.44455,281.01874C389.5365,277.6694,397.22913,274.20374,399.88583,273.16428C401.0177,272.7257,403.7205,271.61673,405.8919,270.71588C408.04025,269.815,411.1127,268.6138,412.7067,268.03616C414.30063,267.45856,416.42615,266.6729,417.44244,266.2805C426.5902,262.81516,441.53662,258.03333,451.40054,255.423C457.36053,253.85211,467.08606,251.40341,469.7657,250.82587C476.00293,249.48596,477.64313,249.1394,481.89368,248.30783C500.48975,244.70407,512.6871,242.97165,534.21704,240.91547C539.8767,240.38422,547.7079,239.89896,557.3179,239.52957C562.1921,239.34457,587.48755,239.29865,596.47363,239.46024 Z"/>
</g>
<g style="fill:rgb(0,0,0); fill-opacity:1.0; stroke-linejoin: miter">
<path d="M-69.68921,860.9279L-87.341835,913.99115L-65.92667,910.08704C-51.49404,907.4453,-44.198143,906.7685,-43.922997,907.8606C-42.900772,911.91626,-15.019264,942.8856,-6.109358,949.9308C6.9041834,960.0907,24.167719,968.68164,38.728737,971.8148C49.815277,974.32983,76.7047,976.34686,81.85318,975.04956C83.56894,974.6167,83.13309,970.911,79.79062,957.6501L75.5441,940.80096L67.38835,940.6995C43.156464,940.66754,20.386778,929.98004,0.71974564,909.21967L-9.955051,897.80634L9.193066,892.1509L28.341661,886.4955L-1.3696613,857.4816C-17.67207,841.51373,-35.733456,823.8328,-41.480816,818.14636L-51.99668,808.0212L-69.68921,860.9279 Z"/>
</g>
<g style="fill:rgb(0,0,0); fill-opacity:1.0; stroke-linejoin: miter">
<path d="M40.893593,437.54474L-12.169609,419.89227L-8.2654705,441.30743C-5.6237354,455.7401,-4.946913,463.03598,-6.0390167,463.31116C-10.09469,464.33337,-41.063965,492.215,-48.109062,501.12485C-58.268898,514.1384,-66.85981,531.4019,-69.99291,545.9629C-72.507904,557.0494,-74.524895,583.9387,-73.22758,589.08716C-72.794716,590.8029,-69.08904,590.36707,-55.8282,587.0246L-38.97922,582.77814L-38.87779,574.6224C-38.845825,550.39056,-28.158405,527.6209,-7.398073,507.95386L4.0152187,497.27905L9.67063,516.4272L15.326042,535.57574L44.33987,505.86438C60.307724,489.56195,77.98868,471.50046,83.675186,465.75308L93.800385,455.23718L40.893593,437.54474 Z"/>
</g>
<g style="fill:rgb(0,0,0); fill-opacity:1.0; stroke-linejoin: miter">
<path d="M547.8297,567.9185L578.61475,521.23224L556.9187,519.4606C542.2941,518.2769,535.07166,517.0424,535.08844,515.9162C535.1508,511.73416,516.23474,474.60376,509.45193,465.4926C499.51138,452.31076,485.0596,439.54437,471.80566,432.74936C461.74786,427.45068,436.29672,418.54294,430.98798,418.4636C429.21857,418.43756,428.68048,422.12982,428.47687,435.804L428.21783,453.17807L436.06946,455.38687C459.46732,461.68936,478.69498,477.90588,492.31866,503.04907L499.67572,516.83636L479.71634,517.34314L459.75653,517.8499L480.94608,553.5649C492.5602,573.208,505.43,594.9611,509.50967,601.94135L517.04663,614.44324L547.8297,567.9185 Z"/>
</g>
<g style="fill:rgb(0,0,0); fill-opacity:1.0; stroke-linejoin: miter">
<path d="M588.45996,978.7445L541.7681,1009.5212L540.0004,987.8248C538.8194,973.1999,537.5862,965.9773,536.45996,965.9939C532.27795,966.05554,495.151,947.13275,486.0411,940.34827C472.86102,930.4052,460.0973,915.9513,453.30472,902.69617C448.00787,892.6374,439.10477,867.1847,439.02637,861.8759C439.00067,860.1065,442.693,859.5691,456.36716,859.3679L473.74127,859.11194L475.9486,866.9639C482.2469,890.36304,498.4599,909.59357,523.6006,923.22174L537.38654,930.58124L537.8969,910.622L538.40735,890.66235L574.11847,911.85834C593.7594,923.47595,615.51025,936.3497,622.4898,940.4306L634.9903,947.96985L588.45996,978.7445 Z"/>
</g>
<g style="fill:rgb(124,124,124); fill-opacity:1.0; stroke-linejoin: miter">
<path d="M203.26955,976.49365L249.95584,1007.27875L251.72745,985.5827C252.91116,970.958,254.14566,963.73566,255.27188,963.75244C259.4539,963.8148,296.58426,944.89874,305.69534,938.1159C318.87723,928.17523,331.64355,913.72363,338.43854,900.4697C343.73718,890.4119,352.6449,864.9609,352.72424,859.6521C352.75027,857.8827,349.05804,857.3446,335.3839,857.141L318.00986,856.88184L315.8011,864.73346C309.4986,888.1314,293.28214,907.35895,268.13895,920.9826L254.35172,928.3396L253.84494,908.3803L253.3381,888.4206L217.62314,909.6101C197.98012,921.2242,176.22694,934.09393,169.24672,938.17365L156.74483,945.71063L203.26955,976.49365 Z"/>
</g>
<g style="fill:rgb(124,124,124); fill-opacity:1.0; stroke-linejoin: miter">
<path d="M243.974,565.675L213.19736,518.9831L234.8937,517.21533C249.51852,516.03436,256.74118,514.80115,256.72464,513.6749C256.663,509.4929,275.58575,472.36588,282.37024,463.25595C292.31317,450.0759,306.7672,437.31216,320.0224,430.51953C330.08115,425.22266,355.5339,416.31952,360.84265,416.24112C362.61206,416.21542,363.14948,419.90778,363.35065,433.58197L363.60654,450.9561L355.75452,453.16345C332.3555,459.46173,313.1249,475.67477,299.49673,500.81552L292.13718,514.6015L312.09644,515.1119L332.05615,515.62225L310.86017,551.3334C299.24252,570.9745,286.36884,592.7253,282.28787,599.7048L274.74863,612.20526L243.974,565.675 Z"/>
</g>
<g style="fill:rgb(124,124,124); fill-opacity:1.0; stroke-linejoin: miter">
<path d="M750.9334,435.39264L803.99976,417.74976L800.09174,439.1642C797.4474,453.59637,796.7692,460.89212,797.86127,461.1675C801.9168,462.19046,832.88104,490.07767,839.9245,498.98877C850.082,512.00415,858.66974,529.2692,861.80023,543.83075C864.31323,554.9177,866.3255,581.8075,865.0272,586.9557C864.59406,588.6714,860.8885,588.23486,847.62823,584.88995L830.78,580.6405L830.68005,572.4847C830.65234,548.2528,819.96906,525.48126,799.2123,505.81046L787.8009,495.13358L782.14215,514.2807L776.4833,533.4282L747.4748,503.71164C731.5099,487.4063,713.8322,469.34164,708.1467,463.59323L698.02344,453.0755L750.9334,435.39264 Z"/>
</g>
<g style="fill:rgb(124,124,124); fill-opacity:1.0; stroke-linejoin: miter">
<path d="M861.4399,858.79584L879.08295,911.86224L857.6685,907.9542C843.2363,905.30994,835.94055,904.6318,835.6652,905.7238C834.6423,909.7793,806.7552,940.74365,797.844,947.78723C784.82855,957.94476,767.5635,966.5326,753.0019,969.66315C741.9149,972.17615,715.02515,974.18835,709.8769,972.89014C708.1612,972.4569,708.5977,968.75134,711.9426,955.491L716.19214,938.64264L724.3479,938.54266C748.57983,938.5151,771.35144,927.83167,791.0223,907.0748L801.6991,895.6635L782.55194,890.0046L763.4044,884.34576L793.12103,855.3373C809.42615,839.3722,827.4907,821.6945,833.23914,816.0091L843.75684,805.8858L861.4399,858.79584 Z"/>
</g>
<g style="fill:rgb(255,155,222); fill-opacity:0.99607843; stroke-linejoin: miter">
<path d="M7.646946,502.32855L7.6469307,502.32898L7.6469154,502.32938L7.6469307,502.32898L7.646946,502.32855L7.6469307,502.32898L7.6469154,502.32938Q7.6469307,502.32898,7.646946,502.32855"/>
</g>
<g style="fill:rgb(0,0,0); fill-opacity:1.0; stroke-linejoin: miter">
<path d="M1026.7041,1272.2463L1021.00903,1273.7324Q980.51904,1278.2239,784.0637,1280.9171Q586.2487,1283.608,318.1826,1283.0994Q62.34841,1282.3885,-91.03826,1278.9393Q-140.18503,1277.8243,-172.00214,1276.5095L-198.74352,1275.158Q-220.78085,1273.7627,-221.02863,1272.2461Q-214.33868,1267.5918,-38.302444,1264.5012Q137.73383,1261.4103,402.83762,1261.2928Q667.94147,1261.4104,843.9777,1264.501Q1020.01416,1267.592,1026.7041,1272.2463"/>
</g>
</g>
</svg>