<?xml version='1.0' encoding='utf-8'?>
<svg xmlns="http://www.w3.org/2000/svg" viewBox="0 0 640 480">
 <g stroke="#000">
  <path transform="rotate(6.5625 326.01 188.55)" d="m418.59 110.92l10.283-5.117 14.56 9.347c4.322 0.993 4.756 7.763 14.301 10.954s16.389 5.957 20.531 8.297c4.142 2.341 7.564 4.326 10.266 5.957 2.701 1.632 5.763 3.334 9.185 5.107 3.421 1.772 8.554 3.723 15.398 5.85 6.844 2.128-2.487 0.869 14.348 4.696-4.769-0.825 6.1 3.4 14.645 7.458 2.968 5.81 9.856 9.567 13.387 14.058 2.607 5.017 30.605 12.338 35.109 18.586-8.514 2.261-44.147-0.584-38.403 1.512l-11.599-4.676-6.883 1.216c-28.37 0.084-30.598 0.241-36.922 1.847-4.322-0.425 9.81-8.313 28.456-13.384 4.275-1.86 13.08-1.577 18.938-5.071-3.447-4.069-8.268-10.194-13.232-11.734-5.763-1.134 2.512 0.11299-8.654-1.589s-9.37-1.643-12.972-2.494-8.014-2.021-13.237-3.51-10.266-3.05-15.129-4.681c-4.862-1.631-7.384-2.482-7.564-2.553l-0.27-0.106-0.27 0.106c-0.18002 0.070999-3.332-0.070999-9.455-0.425l-9.185-0.532-2.702-1.809c-1.801-1.205-3.692-2.482-5.673-3.829-1.981-1.348-4.322-2.624-7.023-3.83-2.702-1.205-5.133-1.986-7.294-2.34l-3.242-0.532 1.08 6.17 1.081 6.17 5.403 1.17c3.602 0.78 8.104 1.56 13.507 2.34l7.301 2.798 3.775 0.5c1.981 1.418 3.512 2.482 4.593 3.191l1.621 1.064 4.592 0.957c3.062 0.63901 6.304 1.419 9.725 2.341 3.422 0.922 5.223 1.595 5.403 2.021l0.271 0.638-24.854 1.17c-16.569 0.78-26.835 0.88701-30.797 0.319-3.962-0.567-6.033-0.886-6.213-0.957l-0.27-0.106 1.621-2.128c1.08-1.418 2.701-2.553 4.862-3.404l3.242-1.277-4.592-0.957c-3.062-0.638-6.844-1.347-11.347-2.127l-6.753-1.171-2.162-2.553c-1.44-1.702-3.151-3.865-5.132-6.489l-2.972-3.936-2.431 0.532c-1.621 0.355-3.332 1.667-5.133 3.936-1.801 2.27-5.583 7.163-11.346 14.68-5.763 7.518-11.256 12.872-16.479 16.063-5.223 3.192-10.446 6.099-15.669 8.723s-10.085 5.248-14.588 7.872c-4.502 2.624-7.564 4.539-9.185 5.744-1.621 1.206-3.151 2.802-4.592 4.787-1.441 1.986-2.792 4.078-4.052 6.277-1.261 2.198-2.432 3.333-3.512 3.404l-6.79 10.27-0.801-3.462c0.56201-6.828 4.889-10.177 5.97-13.723 1.08-3.546 2.971-6.985 5.673-10.318 2.701-3.334 5.043-5.674 7.024-7.021 1.981-1.348 5.223-3.333 9.725-5.957 4.503-2.624 8.465-4.894 11.887-6.809 3.421-1.914 5.853-3.652 7.293-5.212 1.441-1.56 3.152-4.645 5.133-9.255l2.972-6.914h-4.322c-2.882 0-5.674 0.461-8.375 1.383-2.701 0.92099-5.493 2.517-8.375 4.787-2.881 2.269-8.284 7.942-16.208 17.02-7.925 9.077-15.579 16.488-22.963 22.233-7.384 5.744-12.247 9.361-14.588 10.85s-6.123 3.972-11.346 7.447-11.166 6.808-17.83 9.999c-6.663 3.191-10.806 5.177-12.426 5.957-1.621 0.78-3.152 1.454-4.593 2.021-1.441 0.56801-6.303 2.199-14.588 4.894-8.284 2.695-18.91 5.248-31.877 7.659s-23.773 4.397-32.418 5.957-14.498 2.659-17.559 3.298l-4.593 0.957 1.621-1.489c1.081-0.99301 2.611-1.986 4.592-2.979 1.982-0.99298 4.143-1.702 6.484-2.127 2.341-0.426 5.763-1.312 10.266-2.66 4.502-1.347 8.914-2.517 13.237-3.51 4.322-0.993 8.284-1.915 11.886-2.766 3.602-0.85101 8.735-2.163 15.399-3.936 6.663-1.773 13.327-3.688 19.99-5.744 6.664-2.057 12.067-4.043 16.209-5.957 4.143-1.915 7.474-3.582 9.996-5 2.521-1.419 5.403-3.404 8.644-5.957 3.242-2.553 8.645-6.596 16.209-12.127 7.564-5.532 11.977-9.362 13.237-11.489l1.892-3.191-1.892-0.426c-1.26-0.284-2.611-0.709-4.052-1.276-1.44-0.56799-4.952-1.951-10.535-4.149-5.583-2.199-9.996-3.581-13.238-4.149l-4.862-0.851h-7.564l-9.456 2.021c-6.303 1.348-11.796 3.724-16.479 7.128-4.682 3.404-8.284 7.02-10.805 10.85-2.522 3.83-3.963 6.241-4.323 7.234-0.36 0.99301-1.08 2.127-2.161 3.404-1.081 1.276-2.071 2.588-2.972 3.936-0.89999 1.347-1.71 2.056-2.431 2.127-0.72 0.070999-1.981 1.951-3.782 5.638-1.801 3.688-3.332 5.745-4.592 6.17-1.261 0.426-2.972 1.419-5.133 2.979l-3.242 2.34 0.54-4.893 0.541-4.894-4.593 2.234c-3.062 1.49-6.934 3.369-11.616 5.638-4.683 2.27-7.744 3.759-9.185 4.468s-4.683 1.454-9.726 2.234l-7.564 1.17 1.621-1.915c1.081-1.276 2.251-2.127 3.512-2.553 1.261-0.425 3.152-1.418 5.673-2.978 2.522-1.56 9.005-6.17 19.451-13.829s16.029-12.482 16.749-14.468c0.72-1.985 0.62999-3.368-0.27-4.148l-1.351-1.17-4.592 2.446c-3.062 1.631-7.475 4.504-13.238 8.617s-15.938 11.453-30.526 22.02-23.413 16.737-26.475 18.51c-3.061 1.772-6.123 3.581-9.185 5.425-3.0614 1.844-5.6727 3.085-7.8339 3.723s-7.384 2.305-15.669 5c-8.2845 2.695-13.237 4.219-14.858 4.574l-2.4314 0.532 1.6209-1.277c1.0806-0.85098 4.3224-2.624 9.7253-5.319 5.4029-2.694 12.157-6.772 20.261-12.233 8.1047-5.461 12.967-8.794 14.588-9.999 1.621-1.206 6.394-4.929 14.318-11.17s12.607-9.929 14.048-11.063c1.441-1.135 9.545-7.73 24.313-19.786 14.768-12.057 23.683-18.829 26.744-20.319l4.593-2.233 8.104-0.426 8.105-0.425 4.052-2.447c2.702-1.631 6.484-4.113 11.346-7.447 4.863-3.333 9.635-5.921 14.318-7.765 3.597-0.54201 3.807-6.008 7.551 0.45799l4.859 0.627 3.238 1.677c3.242 0.42601 8.023-1.313 8.921 0.246 0.897 1.56 3.249 0.952 11.361 2.63 5.943 3.759 11.796 6.844 17.559 9.255s9.725 3.936 11.887 4.574l3.241 0.957 2.972-3.829c1.981-2.553 4.412-5.248 7.294-8.085s4.232-4.503 4.052-5l-0.27-0.744 1.351-0.532c0.89999-0.355 2.611-1.383 5.133-3.085 2.521-1.702 5.312-3.298 8.374-4.787s7.474-3.085 13.237-4.787 10.536-3.156 14.318-4.361c3.782-1.206 7.294-2.731 10.536-4.575s5.853-3.829 7.834-5.957c1.981-2.127 3.422-3.404 4.322-3.829 0.901-0.426 3.602-1.667 8.105-3.724 4.502-2.056 7.654-3.439 9.455-4.148 1.801-0.71 4.142-1.419 7.024-2.128 2.881-0.709 3.269-9.049 8.672-9.333z" fill="#3f3f3f" fill-rule="evenodd" stroke-width="2"/>
  <g font-family="serif" font-size="24" stroke-width="0" text-anchor="middle">
   <text x="104" y="114" opacity=".5"/>
   <text x="87" y="105" opacity=".5"/>
   <text x="74" y="106" opacity=".5"/>
   <text x="121.5" y="128" opacity=".5"/>
  </g>
 </g>
</svg>