<?xml version="1.0" encoding="UTF-8"?>
<svg viewBox="0 0 2198.3142 454.6207" xmlns="http://www.w3.org/2000/svg">
 <defs>
  <radialGradient id="a" cx="391.84" cy="1186.6" r="101.91" gradientTransform="matrix(1 0 0 .45348 0 648.53)" gradientUnits="userSpaceOnUse">
   <stop offset="0"/>
   <stop stop-opacity="0" offset="1"/>
  </radialGradient>
 </defs>
 <g transform="translate(1061.2 -803.29)">
  <path d="m-1002.9 869.51h2108.6v357.14h-2108.6z" fill="#1a1a1a" opacity=".9"/>
  <path d="m877.14 1155.2c-15.578-4.3033-52.119-2.8572-77.143-2.8572-39.132 0-31.429 8.5131-31.429 45.714 0 17.94-5.5071 28.571 14.286 28.571h60c12.444 1e-4 27.921-9.6747 37.143-14.286 10.052-5.0263 0.28229-49.294-2.8571-57.143z" fill="#808080" stroke="#000"/>
  <path d="m285.71 1063.8c17.122-8.5608-38-5.7143-57.143-5.7143-21.918 0-20 21.308-20 37.143 0 22.317 11.27 28.571 31.429 28.571 13.546 0 26.696 0 45.714-2.8571 25.694-3.8601-2.0009-29.644 0-57.143z" fill="#808080" stroke="#000"/>
  <path d="m731.43 1092.4c15.357 0-30.358-5.7143-45.714-5.7143-15.267 0-27.154 17.165-31.429 25.714-8.1335 16.267-2.9742 34.169 5.7143 42.857 7.9048 7.9048 32.392-5.4735 42.857-2.8571 16.153 4.0383 30.013 17.143 48.571 17.143 9.763 0 14.286-30.771 14.286-40 0-16.03 6.8967-37.143-11.429-37.143h-22.857v1e-4z" fill="#666" stroke="#000"/>
  <path d="m-82.857 1098.1c-5.6922 0-38.188-13.118-54.286-17.143-14.071-3.5176-33.859 0-48.571 0-7.2746 0-24.226 12.113-34.286 17.143-3.8057 1.9029 16.094 32.948 17.143 37.143 1.235 4.9401 33.918 4.0102 40 8.5714 12.315 9.2362 37.44 8.2741 42.857 2.8571 2.6677-2.6677 36.506 11.429 45.714 11.429 16.477 0 11.429-27.73 11.429-40 0-30.294-14.172-18.543-42.857-25.714" fill="#666" stroke="#000"/>
  <path d="m111.71 1092.4c0-4.127-3.1149 34.835-3.1149 71.406v54.268c0 12.537 31.522 8.5687 43.608 8.5687 22.941 0 24.919 13.774 24.919-17.137 0-17.497-3.1149-31.437-3.1149-48.556v-54.268c0-17.495-17.422-11.425-34.264-11.425-10.662 0-16.632-0.7653-28.034-2.8562z" fill="#808080" stroke="#000" stroke-width="1.044"/>
  <path d="m502.86 1166.6c-6.6571 0 42.283 8.5714 80 8.5714 23.532 0 55.531-1.8315 74.286 2.8572 9.4719 2.3679-5.6473 54.152-5.7143 54.286-3.6913 7.3825-65.815-3.5966-74.286-5.7143-28.724-7.1811-60.925 4.7889-77.143-11.429-5.573-5.573 1.5794-42.183 2.8571-48.571z" fill="#666" stroke="#000"/>
  <path d="m511.43 1103.8c-20.304-20.304 57.391 3.8509 85.714 8.5714 13.277 2.2128-0.45539 47.991-2.8571 60-0.7275 3.6375-55.037-3.7593-62.857-5.7143-23.849-5.9622-42.784 11.134-34.286-22.857 1.1778-4.7112 1.9048-9.5238 2.8571-14.286 4.6738-23.369-9.8615 0.8983 11.429-25.714z" fill="#999" stroke="#000"/>
  <path d="m665.71 1160.9c0.19672-0.9836-5.1977 30.638 2.8572 62.857 4.1642 16.657 34.772-1.307 51.429 2.8572 21.012 5.253 29.207-3.4926 37.143-11.429 21.816-21.816 0.68244-57.143-22.857-57.143-23.609 0-48.939 2.8571-68.571 2.8571v1e-4z" fill="#666" stroke="#000"/>
  <path d="m-223.84 958.17c-34.224 0 0 47.545 0 71.317 0 21.615-10.308 41 16.427 45.643 45.089 7.8299 61.603 1.5553 61.603-25.674 0-26.625-4.1069-53.25-4.1069-79.875 0-23.836-19.025-18.467-49.282-14.263-8.1653 1.1343-16.427 1.9018-24.641 2.8527l1e-5 -7e-5z" fill="#808080" stroke="#000" stroke-width="1.198"/>
  <path d="m294.38 1215.7c-8.4314 2.4498 48.768 12.44 94.191 12.44 31.105 0 67.702 4.1466 91.337 4.1466 0.77259 0 18.944-84.834 11.417-82.931-13.603 3.4395-74.59-8.2931-79.919-8.2931h-111.32c-13.869 0-8.5628 38.845-8.5628 53.905 0 7.0478 1.9028 13.822 2.8543 20.733h-1e-5z" fill="#999" stroke="url(#a)" stroke-width="1.2041"/>
  <path d="m394.29 1126.6c0 16.633-4.7074-44.537 11.429-48.571 13.606-3.4014 47.976 5.7143 65.714 5.7143 30.693 0 25.714 4.4618 25.714 34.286 0 25.085-1.1955 22.857-25.714 22.857h-74.286" fill="#b3b3b3" stroke="#000"/>
  <path d="m37.143 1069.5c-4.1378 0-5.7143 40.99-5.7143 54.286 0 1.6515 69.311-1.2908 77.143-2.8571 4.6864-0.9373-2.1884-60.182-2.8571-62.857-0.44224-1.769-45.244 0-48.571 0h-5.7143" fill="#b3b3b3" stroke="#000"/>
  <path d="m605.71 1072.4c-20 0 0 40 0 60 0 15.188 3.8273 26.684 11.429 34.286 9.9912 9.9913 31.429-1.451 31.429-11.429 0-18.246-1.2575-37.827 2.8571-54.286 5.8228-23.291-4.3703-22.857-22.857-22.857-11.039 0-9.2551-0.2735-22.857-5.7143z" fill="#b3b3b3" stroke="#000"/>
  <path d="m31.429 1132.4c-0.13619 0-2.8571 60.026-2.8571 74.286 0 21.286 5.9504 17.143 25.714 17.143 13.424 0 26.741 6.8862 42.857 2.8571 14.566-3.6414 8.4392-39.471 11.429-51.429 2.809-11.236 5.7143 7.3385 5.7143-22.857 0-2.2409-8.5714 3.7103-8.5714-14.286 0-20.952-27.619-5.7142-48.571-5.7142h-25.714 1e-5z" fill="#999" stroke="#000"/>
  <path d="m186.02 1120.9c-26.385 0 0 51.422 0 77.134 0 42.316 1.5349 32.604 43.975 25.711 44.74-7.2663 55.702 14.301 55.702-45.709 0-48.658 8.5076-64.922-46.907-51.422-22.937 5.5878-32.788 4.0224-52.77-5.7136z" fill="#666" stroke="#000" stroke-width="1.0129"/>
  <path d="m23.297 1229.2c6.6567-1.6642-2.2448-78.027-8.5715-88.571-8.9005-14.834-74.995-20.019-82.857 11.428-4.3953 17.581-38.806 93.987-5.7143 85.714 32.099-8.0248 64.884-2.1196 97.143-8.5714h3e-5z" fill="#808080" stroke="#000"/>
  <path d="m-291.43 1052.4c-2.005 0.5012 0 70.871 0 85.714 0 29.186 15.905 20 42.857 20 46.314 0 28.571-7.6015 28.571-48.571 0-23.69-1.1637-65.185-8.5714-80-4.67-9.3401-50.371 5.1854-57.143 8.5714" fill="#999" stroke="#000"/>
  <path d="m-140 998.08c-2.595-5.19-2.8571 39.675-2.8571 77.143 0 6.6822 88.571 30.42 88.571-2.8571 0-23.371 27.257-77.143-2.8571-77.143-27.399 0-55.916-2.5311-82.857 2.8571z" fill="#808080" stroke="#000"/>
  <path d="m302.86 1058.1c-23.81 0 0 47.619 0 71.429 0 17.816 63.853 8.5714 80 8.5714 1.1826 0 1.0403-39.487 5.7143-62.857 7.7249-38.624-17.547-28.491-45.714-22.857-15.568 3.1136-23.99-0.6896-40 5.7143z" fill="#b3b3b3" stroke="#000"/>
  <path d="m-200 1166.6c-0.97627 0.1953 0 53.749 0 65.714 0 10.902 45.367 5.7143 54.286 5.7143 33.362 0 50.638 9.6658 57.143-22.857 4.8942-24.471 19.274-65.714-11.429-65.714-30.444 0-66.16-4.1743-94.286 2.8571" fill="#b3b3b3" stroke="#000"/>
  <path d="m-52.341 1113.3c-7.0176 23.747 31.053 9.1769 54.8 16.194 33.711 9.9624 24.255 0.4904 25.347-25.282 1.1094-26.174 7.8275-27.48-22.043-36.307-16.751-4.9502-49.488-24.087-55.299-4.4247-5.129 17.356-9.858 27.062-2.8053 49.819h4e-5z" fill="#ccc" stroke="#000"/>
  <path d="m-282.86 1163.8c-4.0072 10.528-2.8571 33.683-2.8571 57.143 0 23.886 48.007 1.0299 71.429 5.7142 15.365 3.0731 11.429-42.148 11.429-60 0-16.128-64.992 3.2905-80-5.7142v2.8571z" fill="#666" stroke="#000"/>
  <path d="m-357.14 1160.9c0-24.45-10.556 74.286 11.429 74.286 53.365 0 57.143 6.9139 57.143-42.857 0-32.192 9.2269-45.714-22.857-45.714h-34.286" fill="#808080" stroke="#000"/>
  <path d="m-442.86 1126.6c-0.5546 0-5.6155 62.462-14.286 97.143-2.7962 11.185 94.286 17.536 94.286-8.5715 0-32.635 12.996-89.861-5.7143-108.57-7.6081-7.6081-53.752 4.1523-60 5.7143" fill="#808080" stroke="#000"/>
  <path d="m-551.43 1172.4c-6.1766-6.1766 5.7143 34.002 5.7143 68.571 0 0.1211 66.674-8.8114 77.143-11.428 18.848-4.712 10.234-51.169 11.429-57.143 4.4982-22.491-37.748-14.134-60-8.5714-10.648 2.6619-22.854 3.9986-34.286 8.5714z" fill="#999" stroke="#000"/>
  <path d="m891.43 1152.4c-7.3901 1.8475-2.4149 67.483 1e-5 77.143 0.00574 0.0229 73.988-5.7143 105.71-5.7143h-2.8572c20.023 0 11.429-39.977 11.429-60 0-31.89-24.705-20-54.286-20-23.408 0-38.864-1.9967-60 8.5714z" fill="#999" stroke="#000"/>
  <path d="m-640 1186.6c-16.876 0-2.5905 48.571 14.286 48.571 20.788 0 63.312 9.6083 68.571-11.428 5.7283-22.913 11.141-45.714-8.5714-45.714-25.66 0-52.088-4.7471-74.286 8.5714z" fill="#999" stroke="#000"/>
  <path d="m-354.29 1083.8c-9.7748 0 1.0873 58.432 2.8571 62.857 2.2674 5.6686 40.424-5.7142 45.714-5.7142 15.174 0 7.0252-53.866 5.7143-57.143-7.162-17.905-35.376-3.782-54.286 0z" fill="#999" stroke="#000"/>
  <path d="m27.46 944.14c-17.389-10.707-61.035-11.59-96.326-11.668-25.887-0.05726-81.633-11.587-80.157 8.4139 1.5393 20.854-5.59 38.437 17.861 42.996 38.665 7.5165 96.934 11.669 136.72 11.757 24.088 0.05328 28.901-16.604 33.975-37.154 1.3325-5.397-8.0494-9.5636-12.074-14.345z" fill="#808080" stroke="#000" stroke-width="1.135"/>
  <path d="m94.286 1012.4c-12.916-10.644-46.829-11.429-74.286-11.429-20.14 0-62.857-11.381-62.857 8.5714 0 20.803-6.5576 38.361 11.429 42.857 29.655 7.4138 74.759 11.429 105.71 11.429 18.741 0 23.443-16.63 28.571-37.143 1.3469-5.3875-5.7143-9.5238-8.5714-14.286z" fill="#808080" stroke="#000"/>
  <path d="m-437.14 918.08c-12.916-10.644-46.829-11.429-74.286-11.429-20.14 0-62.857-11.381-62.857 8.5714 0 20.803-6.5576 38.361 11.429 42.857 29.655 7.4138 74.759 11.429 105.71 11.429 18.741 0 23.443-16.63 28.571-37.143 1.3469-5.3875-5.7143-9.5238-8.5714-14.286z" fill="#808080" stroke="#000"/>
  <path d="m447.66 1064c8.8563-14.202 5.1828-47.924 1.5788-75.143-2.6437-19.966 3.0313-63.807-16.748-61.188-20.623 2.7306-38.889-1.4655-40.986 16.955-3.457 30.372-1.5166 75.612 2.5467 106.3 2.46 18.579 19.563 21.057 40.572 23.449 5.5177 0.628 8.6913-6.915 13.037-10.372z" fill="#808080" stroke="#000"/>
  <path d="m591.43 1043.8c-12.916-10.644-46.829-11.429-74.286-11.429-20.14 0-62.857-11.381-62.857 8.5714 0 20.803-6.5576 38.361 11.429 42.857 29.655 7.4138 74.759 11.428 105.71 11.428 18.741 0 23.443-16.63 28.571-37.143 1.3469-5.3875-5.7143-9.5238-8.5714-14.286h-1e-5z" fill="#808080" stroke="#000"/>
  <path d="m599.84 923.44c12.352 3.846-5.2503 29.372-4.3892 85.754 0.34461 22.562 0.61768 38.966 6.5284 54.305 8.3363 21.634 44.896 1.1535 48.42-1.3799 1.4485-1.0414 1.9256-60.488 1.8381-66.22-0.0674-4.4129-6.4246-66.14-20.829-57.79l-31.568-14.669z" fill="#666" stroke="#000" stroke-width="1.1654"/>
  <path d="m1015.3 1006.6c2.8319 0-4.5281 56.622 5.0378 100.04 13.014 59.072 2.2543 37.159-27.708 37.159-27.22 0-27.708-3.8467-27.708-37.159v-20.009c0-24.197-2.5189-49.568-2.5189-74.318 0-8.5099 32.305-5.7167 40.302-5.7167h12.594z" fill="#808080" stroke="#000" stroke-width=".93914"/>
  <path d="m174.29 880.93c-21.925 0 2.8571 43.789 2.8571 65.714 0 40.345 45.002 22.857 80 22.857 10.415 0 22.877-60.098 25.714-74.286 3.5096-17.548-59.113-8.5714-77.143-8.5714-13.11 0-17.047-0.92038-31.429-5.7143v1e-5z" fill="#999" stroke="#000"/>
  <path d="m-373.11 955.95c-25.464 0.55047 0.00635 47.693 0.00951 71.54 0.00778 58.543-0.95082 65.624 51.954 44.662 32.469-12.865 39.464-29.95 18.325-69.074-9.373-17.348-1.3908-34.914-15.285-45.455-2.1695-1.646-52.715-0.43645-55.004-1.6726z" fill="#808080" stroke="#000" stroke-width="1.035"/>
  <path d="m-637.4 1072c-3.4859-3.2253-2.7901 53.773-5.4778 105.57-1.0653 20.531 40.128-12.223 60.66-11.158 33.298 1.7277 62.424 9.9747 63.957-19.569 1.9046-36.706 22.647-81.794-15.68-83.782-26.774-1.3892-57.794-6.349-82.894-1.4401-17.381 3.3994 13.72-14.25-20.565 10.377z" fill="#4d4d4d" stroke="#000"/>
  <path d="m868.57 1040.9c-2.2217 0.5554 0 76.413 0 91.429 0 30.274 14.265 16.576 40 11.428 13.06-2.612 29.489 0 42.857 0 14.2 1e-4 8.5714-100.91 8.5714-114.29 0-13.091-72.967-5.3297-82.857-2.8571-11.127 2.7817-3.9223-8.9598-8.5714 14.286z" fill="#b3b3b3" stroke="#000"/>
  <path d="m781.37 1055.2c-10.681 2.4384-15.636 55.144-15.636 82.817 0 11.128 80.116 13 84.434 11.423 5.103-1.864 19.26-63.865 12.509-88.528-0.47062-1.7191-48.171 0-53.162 0-19.568 0-15.86 8.3626-25.017 0" fill="#b3b3b3" stroke="#000" stroke-width="1.0459"/>
  <path d="m-722.86 1120.9c-22.857 0 0 45.714 0 68.571 0 60.788 5.0654 60.162 62.857 45.714 17.865-4.4662 13.863-89.317 17.143-105.71 1.909-9.5452-54.303-5.7143-65.714-5.7143-4.8562 0-9.5238-1.9047-14.286-2.8571z" fill="#b3b3b3" stroke="#000"/>
  <path d="m-710.41 1032.2c-23.372-4.5426-9.0853 46.744-13.628 70.116-3.701 19.042 56.39 10.901 70.662 10.823 17.554-0.0953 11.433-75.953 9.654-79.621-6.9083-14.246-57.661-6.0504-66.688-1.3191z" fill="#4d4d4d" stroke="#000"/>
  <path d="m39.955 913.57c-0.08947-0.09548 0 33.493 0 68.765 0 23.13 3.7628 16.045 28.636 16.045 22.71 0 11.454-72.466 11.454-82.518 0-28.165 11.79-43.551-22.909-43.551-17.765 0-17.18 41.249-20.045 55.012" fill="#666" stroke="#000" stroke-width=".8967"/>
  <path d="m955.15 809.71c-50.947 0 0 47.432 0 71.148 0 30.353-23.723 39.843 36.682 39.843 40.409 0 42.795-68.202 42.795-82.532 0-28.194 24.322-34.151-42.795-34.151-12.889 0-24.454 3.7946-36.682 5.6918z" fill="#4d4d4d" stroke="#000" stroke-width="1.4599"/>
  <path d="m-633.53 972.37c-25.363 0-3.0436 24.754-3.0436 48.556 0 43.511 7.21 39.988 51.74 39.988 38.383 0 76.089 10.537 76.089-28.562 0-90.168 25.408-71.406-85.22-71.406-25.655 0-12.25 20.522-33.479 8.5688l-6.0871 2.8563z" fill="#808080" stroke="#000" stroke-width="1.032"/>
  <path d="m451.15 878.12c-31.39 0 0 51.395 0 77.093 0 100.15 11.775 68.527 129.05 68.527 21.161 0 12.347-84.836 13.951-111.36 3.4504-57.055-41.223-17.132-52.316-28.553-25.359-26.11-51.746-16.336-90.681-5.7106h-1e-5z" fill="#666" stroke="#000" stroke-width="1.1045"/>
  <path d="m111.43 998.08c-24.762 0 0 49.524 0 74.286 0 32.82 17.198 24.272 45.714 17.143l11.429-2.8572c32.637-8.1593 32.539 10.954 45.714-28.571 8.028-24.084 9.5354-70.43 5.7143-85.714-1.2483-4.9932-71.63 0.76458-80 2.8571-24.995 6.2487-30.871 23.317-42.857 25.714" fill="#666" stroke="#000"/>
  <path d="m-502.86 980.93c-3.6802 0.92005-5.7143 93.501-5.7143 111.43 0 16.605 96.078 5.7143 114.29 5.7143 28.585 0 11.429-45.822 11.429-65.714v-60c0-22.857-45.714 0-68.571 0h-48.571" fill="#b3b3b3" stroke="#000"/>
  <path d="m292.94 889.49c-22.747 0 0 51.459 0 77.188 0 9.6168 74.554 0 88.462 0 1.355 0 22.948-97.2 0-97.2-26.944 0-51.375 8.5764-78.352 8.5764" fill="#ccc" stroke="#000" stroke-width=".94082"/>
  <path d="m-506.29 1109.5c-8.9754 0 4.9043 40.126 7.2743 42.922 6.8822 8.1218 37.669-5.0576 43.646-8.5845 20.089-11.854 5.2236-40.061-9.699-40.061-15.759 0-25.934 2.115-41.221 5.723z" fill="#808080" stroke="#000" stroke-width=".92193"/>
  <path d="m768.57 995.22c-0.90959 0-0.65025 48.828 2.8571 62.857 3.0197 12.079 83.687-3.6868 88.571-8.5715 11.356-11.356 22.595-80-11.429-80h-77.143" fill="#b3b3b3" stroke="#000"/>
  <path d="m868.57 935.22c-25.714 0 0 28.571 0 54.286 0 33.394 79.141 17.143 108.57 17.143 46.044 0 37.143-14.473 37.143-68.571 0-15.722-73.442-8.5714-91.429-8.5714h-51.429" fill="#b3b3b3" stroke="#000"/>
  <path d="m235.3 972.38c-28.118 0 3.1221 51.385 3.1221 77.103 0 25.451 99.884-2.4448 124.88-5.7114 4.1209-0.5385 8.3256 0 12.488 0 26.204 0 16.838-71.392-9.3662-71.392h-90.54c-7.6574 0-14.677 1.2144-21.855 2.8557" fill="#b3b3b3" stroke="#000" stroke-width="1.0451"/>
  <path d="m659.36 1009.5c-0.94135 0 0.53642 48.091-7.9802 80.179-0.97507 3.6738 71.834-5.0111 85.122-5.0111 27.587 0 29.261-65.071 29.261-85.19 0-22.55-47.881 0-71.822 0-12.06 0-23.054 6.6816-34.581 10.022h-1e-5z" fill="#666" stroke="#000" stroke-width=".90359"/>
  <path d="m1096.1 806.81c-9.1344 0-28.262 5.5749-41.895 17.31-8.0171 6.9011-17.037 32.817-25.137 43.276-9.8659 12.739-6.2361 54.507-8.8733 103.86-2.9667 55.524 8.6488 99.721 5.7143 150-3.0728 52.644-7.4104 118.32 8.1865 118.32 13.806 0 29.293 7.6157 41.895-8.6552 7.7115-9.9573 44.682-0.0837 52.527-0.0837 10.38 0 3.2472-142.02 6.3181-181.68 5.2202-67.403-3.544-119.85-3.544-190.41 0-31.129-6.9892-48.739-12.527-48.739-3.5767 0-19.872 8.348-22.665-3.1922v-7e-5z" fill="#666" stroke="#000" stroke-width="1.333"/>
  <path d="m752.88 898.09c-38.333 10.301-79.894 5.3715-118.55 11.425-3.506 0.54906 10.619 45.587 12.159 54.267 5.7256 32.28 17.95 25.706 51.674 25.706 51.489 0 64.514 11.081 75.991-42.843 3.7931-17.821 1.2325-29.642-3.0397-45.699-1.4948-5.6182-12.075-2.8562-18.238-2.8562z" fill="#999" stroke="#000" stroke-width="1.0313"/>
  <path d="m864.76 922.31c-5.85 3.245 47.914 1.0691 91.222-5.2466 14.676-2.1402-6.2574-46.593-14.029-66.434-11.346-28.968-105.24-15.19-114.84-7.4221-2.569 2.0794 12.082 76.688 12.668 86.774 1.5979 27.507 20.161-0.32127 24.979-7.6709z" fill="#b3b3b3" stroke="#000" stroke-width="1.1154"/>
  <path d="m174.3 1129.5c-13.723 0 34.255-9.7579 34.255-24.451 0-23.66-1.9259-18.338-25.692-18.338-19.013 0-11.717 25.908-8.5639 42.79h1e-5z" fill="#666" stroke="#000" stroke-width="1.0338"/>
  <path d="m-251.43 975.22c-14.917 0-35.456 4.871-48.571 11.429-13.469 6.7344 3.6378 32.209 14.286 42.857 8.4579 8.458 38.366-4.8974 40-5.7142 14.634-7.3168 12.492-48.571-5.7143-48.571z" fill="#808080" stroke="#000"/>
  <path d="m-413.99 964.81c-6.3796-14.13 34.63 3.7638 46.018-6.7568 24.037-22.207-25.754-32.472-35.871-32.873-24.079-0.95304-25.132 1.6815-20.888 22.048 1.4009 6.7233 7.1611 11.721 10.742 17.581l1e-5 1e-5z" fill="#4d4d4d" stroke="#000"/>
  <path d="m-751.28 1027.3c-13.289-22.962 72.137 6.1163 95.858-10.98 50.071-36.088-53.647-52.77-74.722-53.42-50.159-1.5488-52.352 2.7325-43.512 35.83 2.9181 10.926 14.917 19.047 22.376 28.571l2e-5 1e-4z" fill="#808080" stroke="#000" stroke-width="1.8399"/>
  <path d="m386.12 874.19c19.136-6.641-5.0972 36.048 9.1506 47.903 30.074 25.022 43.977-26.808 44.519-37.34 1.2907-25.066-2.2772-26.161-29.859-21.744-9.1052 1.4583-15.873 7.4545-23.81 11.182z" fill="#808080" stroke="#000" stroke-width="1.1873"/>
  <path d="m792.37 973.23c-6.6294-23.152 35.986 6.167 47.82-11.071 24.979-36.386-26.762-53.206-37.276-53.862-25.022-1.5616-26.116 2.7551-21.706 36.126 1.4557 11.016 7.4416 19.205 11.162 28.807z" fill="#808080" stroke="#000" stroke-width="1.3049"/>
  <path d="m-727.2 899.03c-8.3236-14.08 45.182 3.7505 60.04-6.733 31.362-22.129-33.601-32.358-46.801-32.757-31.417-0.94968-32.79 1.6756-27.253 21.971 1.8277 6.6996 9.3432 11.68 14.015 17.519h-1e-5z" fill="#808080" stroke="#000" stroke-width="1.1402"/>
  <path d="m-239.27 891.92c17.65 13.06 40.645-3.156 59.748 4.2851 12.803-5.0666 29.089 2.8586 40.327-3.5239-2.3732-11.932-16.52-17.344-24.146-26.074-15.61-12.56-41.539-16.313-54.985 1.3623-7.5673 6.8629-21.703 10.009-24.127 20.156 0.71356 1.519 1.9481 2.6958 3.1816 3.7943z" fill="#808080" stroke="#000"/>
  <path d="m34.286 880.93c-3.1166-6.2331-56.971-2.8571-71.429-2.8571-16.865 0-82.857-7.7507-82.857 11.429 0 21.717-17.103 31.439 5.7143 37.143 28.425 7.1062 110.08 2.8571 140 2.8571 15.512 0 11.429-19.706 11.429-34.286" fill="#b3b3b3" stroke="#000"/>
  <path d="m-430.42 853.77c-1.1273-3.6984-169.7-4.9988-195.8-5.7676-67.351-1.9839-40.775 6.4868-32.61 41.787 4.7266 20.436 65.525 13.329 92.893 14.136 67.92 2.0007 152.14 8.3751 213.01 3.4248 28.755-2.3382-7.4922-38.421-13.273-57.388-0.29083-0.95414-88.425-2.3869-89.387-2.633" fill="#999" stroke="#000" stroke-width="1.219"/>
  <path d="m468.53 825.36c-0.5619-2.4299-94.351-4.8995-111.27-5.7778-10.962-0.56926-8.8056 36.053-9.5029 44.23-1.204 14.12 36.302-0.35106 54.396 0.58853 19.35 1.0048 99.071 14.358 100.61-3.7201 1.637-19.197 3.6284-37.904-19.976-34.58-4.6897 0.66039-9.5099-0.49384-14.265-0.74075z" fill="#808080" stroke="#000" stroke-width=".88404"/>
  <path d="m-802.86 903.79c0.67498 2.6999 95.726 0 111.43 0 34.077 0 79.168-3.0236 108.57 2.8571 17.719 3.5438-4.3653 38.651-17.143 51.429-13.216 13.216-100.92 0-122.86 0-31.275 0-60.427-2.8571-91.429-2.8571h-11.429c-3.0083 0-15.035-51.429 22.857-51.429z" fill="#b3b3b3" stroke="#000"/>
  <path d="m85.714 912.36c-4.9108 0 3.4758 68.689 5.7143 74.286 6.4327 16.082 35.694-11.348 37.143-17.143 1.1778-4.7112 1.9048-9.5238 2.8571-14.286 6.0585-30.292 10.967-34.286-20-34.286-8.3155 0-5.5219-1.8406-8.5714-2.8571" fill="#ccc" stroke="#000"/>
  <path d="m594.29 855.22c0 12.471-1.3768 51.635 2.8571 68.571 0.77389 3.0956 33.315-20 65.714-20 41.247 0 54.286 11.727 54.286-28.571 0-33.783 10.086-57.522-25.714-48.571-17.93 4.4826-33.479 7.6554-48.571 11.429-15.573 3.8931-34.777 6.107-48.571 17.143z" fill="#999" stroke="#000"/>
  <path d="m141.23 874.25c-7.0084 4.0256-3.429 47.356-0.74515 64.388 3.1691 20.111 5.1855 36.322 19.661 28.007 15.337-8.8098 11.789-49.597 9.1804-66.15-3.7599-23.861-0.105-40.853-18.889-36.928-4.0988 0.85656-6.1386 7.1221-9.2078 10.683z" fill="#999" stroke="#000" stroke-width=".86846"/>
  <path d="m308.37 826.73c-29.584 0-90.363-2.8469-133.93-2.8469-28.309 0-15.968 33.418-12.556 42.703 3.3026 8.9859 62.556 9.6492 75.334 11.388 29.816 4.0563 60.356-0.59954 83.705-8.5407 32.785-11.15 24.547-34.93 16.741-45.55-4.4116-6.0018-19.531 1.8979-29.297 2.8469z" fill="#4d4d4d" stroke="#000" stroke-width="1.2081"/>
  <path d="m-759.46 867.82c9.0707-4.168-60.9-2.2836-111.54-1.8098-27.001 0.25259-31.467 3.7765-22.068 20.179 7.4871 13.066 77.208 12.962 92.59 16.253 25.047 5.359 55.708-1.569 66.803-9.1848 9.0035-6.1796-21.615-22.697-25.786-25.438z" fill="#b3b3b3" stroke="#000" stroke-width="1.0552"/>
  <path d="m-859.2 1251.1c-30.705-18.714-28.156-54.5-31.809-82.897 4.8407-21.832 0.76517-45.014 6.145-66.313 16.762-26.8 57.515-33.705 89.838-26.266 36.753 6.5872 57.881 38.531 59.385 68.315 7.9792 28.17 19.957 63.686-5.9346 87.716-36.737 14.349-80.338 7.6791-117.14 19.724l-0.4888-0.2787z" fill="#808080" stroke="#000" stroke-width="1.0877"/>
  <path d="m-1011.5 841.79c-9.0823 0.1322-4.797 97.163-4.3841 117.14 0.3423 16.563 101.01 7.0964 122.63 6.7817 2.3497-0.03421-9.2842-90.212-5.4073-97.011 19.234-33.736-19.753-31.124-44.868-30.758-24.69 0.35941-41.092 7.2037-67.97 3.845v-1e-5z" fill="#999" stroke="#000" stroke-width="1.0908"/>
  <path d="m-885.71 906.65c-17.792 0-3.5062 51.429 14.286 51.429 42.408 0 37.143-5.1929 37.143-48.571 0-23.035-37.413-11.267-51.429-2.8571z" fill="#808080" stroke="#000"/>
  <path d="m-892.72 978.16c0-10.416-10.811 52.497 4.6661 99.775 0.4214 1.2873 77.087-5.7015 83.99-5.7015 22.572 0 20.172-59.691 23.33-71.268 5.6474-20.701 22.738-45.612-13.998-45.612-52.856 0-73.549-2.079-97.988 22.806l1e-5 -2e-5z" fill="#b3b3b3" stroke="#000" stroke-width="1.2765"/>
  <path d="m-337.83 904.04c-45.454 0-37.89 50.889 7.5639 50.889 55.041 0 147.76 8.2853 173.97-11.309 50.936-38.076 40.393-45.235-52.948-45.235-47.315 0-84.057-1.0032-128.59 5.6543z" fill="#b3b3b3" stroke="#000" stroke-width="1.6185"/>
  <path d="m-722.95 1074.4c-4.075-19.442 12.124-33.808-10.555-50.361-9.973-7.2791-26.47-0.2936-39.01 2.3348-4.7285 0.9911 2.5025 37.068 3.7512 43.025 3.661 17.467 9.7838 26.1 20.236 33.729 10.387 7.5816 22.945 20.813 23.289-1.9604 0.23851-15.804-4.457-4.097 2.2898-26.767z" fill="#808080" stroke="#000" stroke-width=".95002"/>
  <path d="m-342.16 861.91c-23.108-2.7712 0 22.852 0 34.279 0 6.7688 65.141 2.9808 83.885 2.9808 17.009 0 15.534-27.346 15.534-32.788 0-28.211-1.5821-16.394-49.709-16.394-32.79 0-55.856-5.7676-49.709 11.923z" fill="#b3b3b3" stroke="#000" stroke-width=".75314"/>
  <path d="m721.88 841.26c-2.3496 13.175-8.8544 26.346-7.786 39.688 7.7799 14.574 30.079 11.936 45.418 15.378 22.307 3.0215 49.81 5.1212 66.538-9.4728 5.1547-5.2622-4.1943-11.307 2.2677-15.264 8.1602-9.012-4.1695-17.268-13.293-21.045-17.026-6.6856-34.916-12.501-53.242-15.739-12.196-0.75487-25.516-1.6854-37.053 0.92727-2.095 1.3021-2.532 3.4776-2.8492 5.5284z" fill="#808080" stroke="#000" stroke-width=".68988"/>
  <path d="m576.71 835.84c-8.7772 0.64152-16.904 5.0589-26.075 3.8967-11.454 2.4325-20.52-1.3212-31.838 3.7527-8.7041 5.1663-6.1488 21.556 0.89397 27.352 11.797 12.204 28.219 12.537 42.811 13.459 14.228-0.92686 30.188-4.0155 28.681-23.283-1.0004-8.6086-7.4722-25.788-14.472-25.178z" fill="#b3b3b3" stroke="#000" stroke-width=".42681"/>
  <path d="m-914.89 965.01c21.73 4.2884 18.132 57.023 18.047 90.065 2.7535 37.652 9.974 74.544 6.6685 113.6-1.6884 29.08 10.436 63.947-1.6712 80.348-43.788-17.83-100.25 19.324-148.09 4.6485-25.702-32.937-26.171-110.14-7.4686-154.31 13.738-52.618 5.6524-131.12 39.542-135.57 17.346 7.94 59.213 23.33 75.696 4.172 4.7218-2.2023-1.8588 7.9014 2.9935 8.4725l14.286-11.429z" fill="#ccc" stroke="#000" stroke-width="1.4442"/>
  <path d="m99.602 830.47-164.4 2.2772c-47.459 0.65741-95.644-1.5263-143.45-0.8641-20.142 0.279-63.761 37.948-2.9845 37.106 56.139-0.77763 121.94 6.8644 175.01 6.1292 24.309-0.33672 52.859 4.1913 76.951-1.0659 16.113-3.516 39.276-0.54404 55.964-0.77521 17.805-0.24664 40.045-0.87555 52.427-3.5774 24.973-5.4494 15.639-34.43-31.954-33.771-6.2787 0.08697-11.712-3.6393-17.568-5.4589v1e-5z" fill="#999" stroke="#000" stroke-width="1.1053"/>
 </g>
</svg>
