<?xml version="1.0" encoding="utf-8"?>
<!-- Generator: Adobe Illustrator 24.1.1, SVG Export Plug-In . SVG Version: 6.00 Build 0)  -->
<svg version="1.1" id="Layer_1" xmlns="http://www.w3.org/2000/svg" xmlns:xlink="http://www.w3.org/1999/xlink" x="0px" y="0px"
	 viewBox="0 0 3326 2488" style="enable-background:new 0 0 3326 2488;" xml:space="preserve">
<style type="text/css">
	.st0{fill:none;}
	.st1{clip-path:url(#SVGID_2_);fill:#4F81BD;stroke:#385D8A;stroke-width:9.1667;stroke-linejoin:round;stroke-miterlimit:10;}
	.st2{clip-path:url(#SVGID_2_);fill-rule:evenodd;clip-rule:evenodd;fill:url(#SVGID_3_);}
	.st3{clip-path:url(#SVGID_2_);fill-rule:evenodd;clip-rule:evenodd;fill:url(#SVGID_4_);}
	.st4{clip-path:url(#SVGID_2_);fill:none;stroke:#000000;stroke-width:9.1667;stroke-linejoin:round;stroke-miterlimit:10;}
	.st5{clip-path:url(#SVGID_2_);}
	.st6{clip-path:url(#SVGID_2_);enable-background:new    ;}
	.st7{fill:#FFFF00;}
	.st8{font-family:'Arial-BoldItalicMT';}
	.st9{font-size:183px;}
	.st10{clip-path:url(#SVGID_2_);fill-rule:evenodd;clip-rule:evenodd;fill:url(#SVGID_5_);}
	.st11{font-family:'Arial-BoldMT';}
	.st12{font-size:165px;}
	.st13{letter-spacing:-7;}
	.st14{clip-path:url(#SVGID_7_);}
	.st15{clip-path:url(#SVGID_9_);}
	.st16{font-family:'ArialMT';}
	.st17{font-family:'Arial-ItalicMT';}
	.st18{letter-spacing:-3;}
</style>
<pattern  y="2488" width="128" height="128" patternUnits="userSpaceOnUse" id="pattern2" viewBox="0 -128 128 128" style="overflow:visible;">
	<g>
		<rect y="-128" class="st0" width="128" height="128"/>
		<g>
			
				<image style="overflow:visible;enable-background:new    ;" width="128" height="128" id="img1_1_" xlink:href="1FA32053.jpg"  transform="matrix(1 0 0 -1 0 0)">
			</image>
		</g>
	</g>
</pattern>
<pattern  y="2488" width="128" height="128" patternUnits="userSpaceOnUse" id="pattern4" viewBox="0 -128 128 128" style="overflow:visible;">
	<g>
		<rect y="-128" class="st0" width="128" height="128"/>
		<g>
			
				<image style="overflow:visible;enable-background:new    ;" width="128" height="128" id="img3_1_" xlink:href="1FA32051.jpg"  transform="matrix(1 0 0 -1 0 0)">
			</image>
		</g>
	</g>
</pattern>
<g>
	<defs>
		<rect id="SVGID_1_" width="3326" height="2488"/>
	</defs>
	<clipPath id="SVGID_2_">
		<use xlink:href="#SVGID_1_"  style="overflow:visible;"/>
	</clipPath>
	<rect x="10.5" y="8.5" class="st1" width="3315.5" height="2475"/>
	<pattern  id="SVGID_3_" xlink:href="#pattern2" patternTransform="matrix(4.4 0 0 -4.4 22025.5 -51164.8984)">
	</pattern>
	<path class="st2" d="M3247.6,44.1c0,8.4-7.9,15.3-17.7,15.3V44.1c0,4.2-4,7.6-8.9,7.6c-4.9,0-8.9-3.4-8.9-7.6v15.3H81.5
		c-9.8,0-17.7,6.8-17.7,15.3V258c0,8.4,7.9,15.3,17.7,15.3c9.8,0,17.7-6.8,17.7-15.3l0-15.3h3130.8c9.8,0,17.7-6.8,17.7-15.3V44.1z
		 M81.5,89.9c9.8,0,17.7-6.8,17.7-15.3c0-4.2-4-7.6-8.9-7.6c-4.9,0-8.9,3.4-8.9,7.6V89.9z"/>
	<pattern  id="SVGID_4_" xlink:href="#pattern4" patternTransform="matrix(4.4 0 0 -4.4 22025.5 -51164.8984)">
	</pattern>
	<path class="st3" d="M81.5,97c9.8,0,17.7-7.9,17.7-17.6c0-4.9-4-8.8-8.9-8.8c-4.9,0-8.9,3.9-8.9,8.8V97z M3229.9,61.7
		c9.8,0,17.7-7.9,17.7-17.6c0-9.7-7.9-17.6-17.7-17.6c-9.8,0-17.7,7.9-17.7,17.6c0,4.9,4,8.8,8.9,8.8c4.9,0,8.9-3.9,8.9-8.8V61.7z"
		/>
	<path class="st4" d="M63.7,79.4c0-9.7,7.9-17.6,17.7-17.6h3130.8V44.1c0-9.7,7.9-17.6,17.7-17.6c9.8,0,17.7,7.9,17.7,17.6v211.5
		c0,9.7-7.9,17.6-17.7,17.6H99.2v17.6c0,9.7-7.9,17.6-17.7,17.6s-17.7-7.9-17.7-17.6L63.7,79.4z M3212.2,61.7h17.7
		c9.8,0,17.7-7.9,17.7-17.6 M3229.9,61.7V44.1c0,4.9-4,8.8-8.9,8.8c-4.9,0-8.9-3.9-8.9-8.8 M81.5,97V79.4c0-4.9,4-8.8,8.9-8.8
		c4.9,0,8.9,3.9,8.9,8.8C99.2,89.1,91.2,97,81.5,97c-9.8,0-17.7-7.9-17.7-17.6 M99.2,79.4v193.9"/>
	<g transform="translate(114 29)" class="st5">
		
			<image style="overflow:visible;enable-background:new    ;" width="509" height="260" id="img5" xlink:href="1FA32057.jpg"  transform="matrix(1.0047 0 0 1 124.5331 37)">
		</image>
	</g>
	<g class="st6">
		<text transform="matrix(1.0047 0 0 1 160.2002 233)" class="st7 st8 st9">Juan</text>
	</g>
	
		<linearGradient id="SVGID_5_" gradientUnits="userSpaceOnUse" x1="1440.4279" y1="1451.6576" x2="1616.4235" y2="2444.8982" gradientTransform="matrix(1 0 0 -1 4 2496)">
		<stop  offset="0" style="stop-color:#CCC1DA"/>
		<stop  offset="0.5" style="stop-color:#DDD9C3"/>
		<stop  offset="1" style="stop-color:#FFFFFF"/>
	</linearGradient>
	<path class="st10" d="M127.5,300h2897.5l-965.8,170.3H298.7v310.5L127.5,811V300z"/>
	<g transform="translate(114 244)" class="st5">
		
			<image style="overflow:visible;enable-background:new    ;" width="1076" height="238" id="img7" xlink:href="1FA32050.jpg"  transform="matrix(1.0047 0 0 1 124.5331 252)">
		</image>
	</g>
	<text transform="matrix(1.0047 0 0 1 160.2002 430)" class="st7 st11 st12 st13">Juan 20:30-31</text>
	<text transform="matrix(1.0047 0 0 1 938.4214 430)" class="st7 st11 st12">-</text>
	<g class="st5">
		<defs>
			<rect id="SVGID_6_" x="2993.9" y="83" width="256.2" height="336"/>
		</defs>
		<clipPath id="SVGID_7_">
			<use xlink:href="#SVGID_6_"  style="overflow:visible;"/>
		</clipPath>
		<g transform="matrix(0.000360892 0 0 0.000360892 2970 76)" class="st14">
			<g>
				<defs>
					<rect id="SVGID_8_" x="2993.9" y="84" width="255.2" height="334"/>
				</defs>
				<clipPath id="SVGID_9_">
					<use xlink:href="#SVGID_8_"  style="overflow:visible;"/>
				</clipPath>
				<g transform="matrix(1.00797 0 0 1 -0.461426 -0.00545987)" class="st15">
					<g transform="scale(4131.62 4131.62)">
						
							<image style="overflow:visible;enable-background:new    ;" width="169" height="224" id="img9" xlink:href="1FA32053.png"  transform="matrix(1.4981 0 0 1.4911 2970.7324 84.0055)">
						</image>
					</g>
				</g>
			</g>
		</g>
	</g>
	<text transform="matrix(3.626957e-04 0 0 3.610000e-04 2970.1265 76.2404)" class="st7 st16 st12">Una señal (SEMEION) es una marca </text>
	<text transform="matrix(3.626957e-04 0 0 3.610000e-04 2970.1265 76.3119)" class="st7 st16 st12">distintiva por la cual algo se conoce.</text>
	<g>
		<text transform="matrix(3.626957e-04 0 0 3.610000e-04 2970.1299 76.392)" class="st7 st17 st12 st18">Juan </text>
		<text transform="matrix(3.626957e-04 0 0 3.610000e-04 2970.2642 76.3906)" class="st7 st17 st12">20:30</text>
		<text transform="matrix(3.626957e-04 0 0 3.610000e-04 2970.4155 76.3904)" class="st7 st17 st12">-31</text>
	</g>
	<text transform="matrix(3.626957e-04 0 0 3.610000e-04 2970.0735 76.4869)" class="st7 st16 st12">La señal milagrosa era secundaria a la </text>
	<text transform="matrix(3.626957e-04 0 0 3.610000e-04 2970.075 76.5559)" class="st7 st16 st12">Verdad que esta señalaba.</text>
	<g transform="translate(1105 1919)" class="st5">
		
			<image style="overflow:visible;enable-background:new    ;" width="454" height="452" id="img11" xlink:href="1FA32051.png"  transform="matrix(3.626956e-04 0 0 3.610000e-04 2970.4043 76.6956)">
		</image>
	</g>
	<g transform="translate(2010 1595)" class="st5">
		
			<image style="overflow:visible;enable-background:new    ;" width="539" height="820" id="img12" xlink:href="1FA3205F.png"  transform="matrix(3.626956e-04 0 0 3.610000e-04 2970.7327 76.5787)">
		</image>
	</g>
</g>
</svg>
