<?xml version="1.0" encoding="UTF-8"?>
<svg version="1.1" viewBox="0 0 124.76 174.2" xmlns="http://www.w3.org/2000/svg">
 <g transform="translate(-100 -298.67)">
  <g transform="translate(-1,2)" stroke="#000">
   <path d="m166.17 362.93s5.2841-11.984 5.6569-18.385c0.52944-9.092-6.0366-17.828-4.9498-26.87 0.89395-7.4372 9.1924-20.506 9.1924-20.506s-3.9024 12.63-3.5355 19.092c0.50296 8.8583 7.2851 16.597 7.7782 25.456 0.42644 7.662-4.2426 22.627-4.2426 22.627-3.2998 7.3411-6.5997 2.0911-9.8995-1.4142z" stroke-width="1px"/>
   <path d="m171.03 363.02s3.507-12.017 3.7544-18.435c0.35138-9.1169-4.0064-17.877-3.2851-26.944 0.5933-7.4576 6.1008-20.562 6.1008-20.562s-2.59 12.665-2.3465 19.144c0.3338 8.8826 4.835 16.643 5.1622 25.526 0.28302 7.6831-2.8158 22.689-2.8158 22.689-4.4704 4.0881-5.8309 1.9562-6.5701-1.4181z" fill="#fff" stroke-width=".81578px"/>
  </g>
  <g transform="matrix(-.55703 -.24938 .15124 -.52054 161.61 657.2)" stroke="#000">
   <path d="m102 443.36 55-48c9.054-10.149 20.897-4.9616 22 5l-54 54z" stroke-width="1px"/>
   <path transform="matrix(1.1226 0 0 1.2388 -.44793 -123.91)" d="m113 462.36c0 4.4183-5.1487 8-11.5 8s-11.5-3.5817-11.5-8 5.1487-8 11.5-8 11.5 3.5817 11.5 8z" fill="#fff"/>
   <path transform="matrix(1.1226 0 0 1.2388 -.44793 -123.91)" d="m101 462.36c0.10028 0.40111-0.49121 0.33307-0.66667 0.16667-0.47547-0.45092-0.14208-1.2065 0.33334-1.5 0.8504-0.52508 1.9261-9.3e-4 2.3333 0.83333 0.59759 1.2243-0.1387 2.6576-1.3333 3.1667-1.5923 0.67848-3.3936-0.27733-4-1.8333-0.76312-1.9581 0.41539-4.1317 2.3333-4.8333 2.3229-0.84972 4.8711 0.5531 5.6667 2.8333 0.93749 2.6872-0.69059 5.6113-3.3333 6.5-3.0512 1.026-6.352-0.82792-7.3333-3.8333-1.115-3.4149 0.96515-7.0931 4.3333-8.1667 3.7786-1.2044 7.8345 1.1023 9 4.8333 1.294 4.1421-1.2394 8.576-5.3333 9.8333" fill="none" stroke-width="1px"/>
  </g>
  <g transform="matrix(.60259 -.096711 -.011361 -.54195 111.02 647.79)" stroke="#000">
   <path d="m102 443.36 55-48c9.054-10.149 20.897-4.9616 22 5l-54 54z" stroke-width="1px"/>
   <path transform="matrix(1.1226 0 0 1.2388 -.44793 -123.91)" d="m113 462.36c0 4.4183-5.1487 8-11.5 8s-11.5-3.5817-11.5-8 5.1487-8 11.5-8 11.5 3.5817 11.5 8z" fill="#fff"/>
   <path transform="matrix(1.1226 0 0 1.2388 -.44793 -123.91)" d="m101 462.36c0.10028 0.40111-0.49121 0.33307-0.66667 0.16667-0.47547-0.45092-0.14208-1.2065 0.33334-1.5 0.8504-0.52508 1.9261-9.3e-4 2.3333 0.83333 0.59759 1.2243-0.1387 2.6576-1.3333 3.1667-1.5923 0.67848-3.3936-0.27733-4-1.8333-0.76312-1.9581 0.41539-4.1317 2.3333-4.8333 2.3229-0.84972 4.8711 0.5531 5.6667 2.8333 0.93749 2.6872-0.69059 5.6113-3.3333 6.5-3.0512 1.026-6.352-0.82792-7.3333-3.8333-1.115-3.4149 0.96515-7.0931 4.3333-8.1667 3.7786-1.2044 7.8345 1.1023 9 4.8333 1.294 4.1421-1.2394 8.576-5.3333 9.8333" fill="none" stroke-width="1px"/>
  </g>
  <g stroke="#000">
   <path d="m102 443.36 55-48c9.054-10.149 20.897-4.9616 22 5l-54 54z" stroke-width="1px"/>
   <path transform="matrix(1.1226 0 0 1.2388 -.44793 -123.91)" d="m113 462.36c0 4.4183-5.1487 8-11.5 8s-11.5-3.5817-11.5-8 5.1487-8 11.5-8 11.5 3.5817 11.5 8z" fill="#fff"/>
   <path transform="matrix(1.1226 0 0 1.2388 -.44793 -123.91)" d="m101 462.36c0.10028 0.40111-0.49121 0.33307-0.66667 0.16667-0.47547-0.45092-0.14208-1.2065 0.33334-1.5 0.8504-0.52508 1.9261-9.3e-4 2.3333 0.83333 0.59759 1.2243-0.1387 2.6576-1.3333 3.1667-1.5923 0.67848-3.3936-0.27733-4-1.8333-0.76312-1.9581 0.41539-4.1317 2.3333-4.8333 2.3229-0.84972 4.8711 0.5531 5.6667 2.8333 0.93749 2.6872-0.69059 5.6113-3.3333 6.5-3.0512 1.026-6.352-0.82792-7.3333-3.8333-1.115-3.4149 0.96515-7.0931 4.3333-8.1667 3.7786-1.2044 7.8345 1.1023 9 4.8333 1.294 4.1421-1.2394 8.576-5.3333 9.8333" fill="none" stroke-width="1px"/>
  </g>
  <g transform="matrix(.86603 -.4498 .5 .77908 -168.67 164)" stroke="#000">
   <path d="m102 443.36 55-48c9.054-10.149 20.897-4.9616 22 5l-54 54z" stroke-width="1px"/>
   <path transform="matrix(1.1226 0 0 1.2388 -.44793 -123.91)" d="m113 462.36c0 4.4183-5.1487 8-11.5 8s-11.5-3.5817-11.5-8 5.1487-8 11.5-8 11.5 3.5817 11.5 8z" fill="#fff"/>
   <path transform="matrix(1.1226 0 0 1.2388 -.44793 -123.91)" d="m101 462.36c0.10028 0.40111-0.49121 0.33307-0.66667 0.16667-0.47547-0.45092-0.14208-1.2065 0.33334-1.5 0.8504-0.52508 1.9261-9.3e-4 2.3333 0.83333 0.59759 1.2243-0.1387 2.6576-1.3333 3.1667-1.5923 0.67848-3.3936-0.27733-4-1.8333-0.76312-1.9581 0.41539-4.1317 2.3333-4.8333 2.3229-0.84972 4.8711 0.5531 5.6667 2.8333 0.93749 2.6872-0.69059 5.6113-3.3333 6.5-3.0512 1.026-6.352-0.82792-7.3333-3.8333-1.115-3.4149 0.96515-7.0931 4.3333-8.1667 3.7786-1.2044 7.8345 1.1023 9 4.8333 1.294 4.1421-1.2394 8.576-5.3333 9.8333" fill="none" stroke-width="1px"/>
  </g>
  <g transform="matrix(0 -1 1 0 -234.6 569.55)" stroke="#000">
   <path d="m102 443.36 55-48c9.054-10.149 20.897-4.9616 22 5l-54 54z" stroke-width="1px"/>
   <path transform="matrix(1.1226 0 0 1.2388 -.44793 -123.91)" d="m113 462.36c0 4.4183-5.1487 8-11.5 8s-11.5-3.5817-11.5-8 5.1487-8 11.5-8 11.5 3.5817 11.5 8z" fill="#fff"/>
   <path transform="matrix(1.1226 0 0 1.2388 -.44793 -123.91)" d="m101 462.36c0.10028 0.40111-0.49121 0.33307-0.66667 0.16667-0.47547-0.45092-0.14208-1.2065 0.33334-1.5 0.8504-0.52508 1.9261-9.3e-4 2.3333 0.83333 0.59759 1.2243-0.1387 2.6576-1.3333 3.1667-1.5923 0.67848-3.3936-0.27733-4-1.8333-0.76312-1.9581 0.41539-4.1317 2.3333-4.8333 2.3229-0.84972 4.8711 0.5531 5.6667 2.8333 0.93749 2.6872-0.69059 5.6113-3.3333 6.5-3.0512 1.026-6.352-0.82792-7.3333-3.8333-1.115-3.4149 0.96515-7.0931 4.3333-8.1667 3.7786-1.2044 7.8345 1.1023 9 4.8333 1.294 4.1421-1.2394 8.576-5.3333 9.8333" fill="none" stroke-width="1px"/>
  </g>
  <g transform="matrix(-.58773 0 0 .879 297.62 -109.47)" stroke="#000">
   <path d="m224.86 510.01c0.0511 17.206-2.7794 34.413-17.678 51.619-11.905 13.749 11.696 11.441 19.092 11.314 6.995-0.12018 17.678-11.314 17.678-11.314 1.0802-17.206-7.0215-34.413-19.092-51.619z" stroke-width="1px"/>
   <path d="m226.87 518.81c-2.1527 13.305-5.3791 26.434-13.102 38.829-6.1715 9.9048 2.914 9.5559 5.686 9.9076 2.6216 0.33273 8.015-7.6706 8.015-7.6706 2.5742-13.236 1.7271-27.03-0.59884-41.066z" fill="#fff" stroke-width=".54381px"/>
  </g>
  <g transform="matrix(-.58773 0 0 .71343 284.18 -3.894)" stroke="#000">
   <path d="m224.86 510.01c0.0511 17.206-2.7794 34.413-17.678 51.619-11.905 13.749 11.696 11.441 19.092 11.314 6.995-0.12018 17.678-11.314 17.678-11.314 1.0802-17.206-7.0215-34.413-19.092-51.619z" stroke-width="1px"/>
   <path d="m226.87 518.81c-2.1527 13.305-5.3791 26.434-13.102 38.829-6.1715 9.9048 2.914 9.5559 5.686 9.9076 2.6216 0.33273 8.015-7.6706 8.015-7.6706 2.5742-13.236 1.7271-27.03-0.59884-41.066z" fill="#fff" stroke-width=".54381px"/>
  </g>
  <g transform="translate(-43.841 -159.81)" stroke="#000">
   <path d="m224.86 510.01c0.0511 17.206-2.7794 34.413-17.678 51.619-11.905 13.749 11.696 11.441 19.092 11.314 6.995-0.12018 17.678-11.314 17.678-11.314 1.0802-17.206-7.0215-34.413-19.092-51.619z" stroke-width="1px"/>
   <path d="m226.87 518.81c-2.1527 13.305-5.3791 26.434-13.102 38.829-6.1715 9.9048 2.914 9.5559 5.686 9.9076 2.6216 0.33273 8.015-7.6706 8.015-7.6706 2.5742-13.236 1.7271-27.03-0.59884-41.066z" fill="#fff" stroke-width=".54381px"/>
  </g>
  <path d="m160.5 354.36-2 23 2 11" fill="none" stroke="#fff" stroke-width="1px"/>
 </g>
</svg>
