<svg width="321" height="289" xmlns="http://www.w3.org/2000/svg" xmlns:xlink="http://www.w3.org/1999/xlink" xml:space="preserve" overflow="hidden"><defs><filter id="fx0" x="-10%" y="-10%" width="120%" height="120%" filterUnits="userSpaceOnUse" primitiveUnits="userSpaceOnUse"><feComponentTransfer color-interpolation-filters="sRGB"><feFuncR type="discrete" tableValues="0.000000 0.000000"/><feFuncG type="discrete" tableValues="0.000000 0.000000"/><feFuncB type="discrete" tableValues="0.000000 0.000000"/><feFuncA type="linear" slope="0.349020" intercept="0.000000"/></feComponentTransfer><feGaussianBlur stdDeviation="4.811899 4.811899"/></filter><clipPath id="clip1"><rect x="2740" y="568" width="321" height="289"/></clipPath><clipPath id="clip2"><path d="M2831.25 579.5 2831.25 705.5 2761.5 705.5 2901 831.5 3040.5 705.5 2970.75 705.5 2970.75 579.5ZM2740 568 3061 568 3061 857 2740 857Z" fill-rule="evenodd" clip-rule="evenodd"/></clipPath><clipPath id="clip3"><rect x="-14.4358" y="-14.4357" width="348.872" height="316.871"/></clipPath><clipPath id="clip4"><rect x="0" y="0" width="320" height="288"/></clipPath></defs><g clip-path="url(#clip1)" transform="translate(-2740 -568)"><g clip-path="url(#clip2)"><g clip-path="url(#clip3)" filter="url(#fx0)" transform="translate(2741 570)"><g clip-path="url(#clip4)"><path d="M20.4998 143.801 90.2498 143.801 90.2498 17.8006 229.75 17.8006 229.75 143.801 299.5 143.801 160 269.801Z" stroke="#4A7EBB" stroke-width="3" stroke-linecap="butt" stroke-linejoin="miter" stroke-miterlimit="8" stroke-opacity="1" fill="#80FF00" fill-rule="evenodd" fill-opacity="1"/></g></g></g><path d="M2761.5 705.5 2831.25 705.5 2831.25 579.5 2970.75 579.5 2970.75 705.5 3040.5 705.5 2901 831.5Z" stroke="#4A7EBB" stroke-width="3.4375" stroke-linecap="butt" stroke-linejoin="miter" stroke-miterlimit="8" stroke-opacity="1" fill="#80FF00" fill-rule="evenodd" fill-opacity="1"/></g></svg>