<svg width="321" height="293" xmlns="http://www.w3.org/2000/svg" xmlns:xlink="http://www.w3.org/1999/xlink" xml:space="preserve" overflow="hidden"><defs><filter id="fx0" x="-10%" y="-10%" width="120%" height="120%" filterUnits="userSpaceOnUse" primitiveUnits="userSpaceOnUse"><feComponentTransfer color-interpolation-filters="sRGB"><feFuncR type="discrete" tableValues="0.000000 0.000000"/><feFuncG type="discrete" tableValues="0.000000 0.000000"/><feFuncB type="discrete" tableValues="0.000000 0.000000"/><feFuncA type="linear" slope="0.349020" intercept="0.000000"/></feComponentTransfer><feGaussianBlur stdDeviation="4.811899 4.811899"/></filter><clipPath id="clip1"><rect x="2736" y="1320" width="321" height="293"/></clipPath><clipPath id="clip2"><path d="M2826.25 1332.5 2826.25 1458.5 2756.5 1458.5 2896 1584.5 3035.5 1458.5 2965.75 1458.5 2965.75 1332.5ZM2736 1320 3057 1320 3057 1613 2736 1613Z" fill-rule="evenodd" clip-rule="evenodd"/></clipPath><clipPath id="clip3"><rect x="-14.4358" y="-14.4357" width="348.872" height="316.871"/></clipPath><clipPath id="clip4"><rect x="0" y="0" width="320" height="288"/></clipPath></defs><g clip-path="url(#clip1)" transform="translate(-2736 -1320)"><g clip-path="url(#clip2)"><g clip-path="url(#clip3)" filter="url(#fx0)" transform="translate(2736 1323)"><g clip-path="url(#clip4)"><path d="M20.5 143.801 90.25 143.801 90.25 17.8004 229.75 17.8004 229.75 143.801 299.5 143.801 160 269.8Z" stroke="#4A7EBB" stroke-width="3" stroke-linecap="butt" stroke-linejoin="miter" stroke-miterlimit="8" stroke-opacity="1" fill="#80FF00" fill-rule="evenodd" fill-opacity="1"/></g></g></g><path d="M2756.5 1458.5 2826.25 1458.5 2826.25 1332.5 2965.75 1332.5 2965.75 1458.5 3035.5 1458.5 2896 1584.5Z" stroke="#4A7EBB" stroke-width="3.4375" stroke-linecap="butt" stroke-linejoin="miter" stroke-miterlimit="8" stroke-opacity="1" fill="#80FF00" fill-rule="evenodd" fill-opacity="1"/></g></svg>