<svg width="623" height="376" xmlns="http://www.w3.org/2000/svg" xmlns:xlink="http://www.w3.org/1999/xlink" xml:space="preserve" overflow="hidden"><defs><filter id="fx0" x="-10%" y="-10%" width="120%" height="120%" filterUnits="userSpaceOnUse" primitiveUnits="userSpaceOnUse"><feComponentTransfer color-interpolation-filters="sRGB"><feFuncR type="discrete" tableValues="0.000000 0.000000"/><feFuncG type="discrete" tableValues="0.000000 0.000000"/><feFuncB type="discrete" tableValues="0.000000 0.000000"/><feFuncA type="linear" slope="0.349020" intercept="0.000000"/></feComponentTransfer><feGaussianBlur stdDeviation="4.811899 4.811899"/></filter><filter id="fx1" x="-10%" y="-10%" width="120%" height="120%" filterUnits="userSpaceOnUse" primitiveUnits="userSpaceOnUse"><feComponentTransfer color-interpolation-filters="sRGB"><feFuncR type="discrete" tableValues="0.000000 0.000000"/><feFuncG type="discrete" tableValues="0.000000 0.000000"/><feFuncB type="discrete" tableValues="0.000000 0.000000"/><feFuncA type="linear" slope="0.431373" intercept="0.000000"/></feComponentTransfer><feGaussianBlur stdDeviation="2.102971 2.102971"/></filter><filter id="fx2" x="-10%" y="-10%" width="120%" height="120%" filterUnits="userSpaceOnUse" primitiveUnits="userSpaceOnUse"><feComponentTransfer color-interpolation-filters="sRGB"><feFuncR type="discrete" tableValues="0.000000 0.000000"/><feFuncG type="discrete" tableValues="0.000000 0.000000"/><feFuncB type="discrete" tableValues="0.000000 0.000000"/><feFuncA type="linear" slope="0.431373" intercept="0.000000"/></feComponentTransfer><feGaussianBlur stdDeviation="1.869331 1.869331"/></filter><filter id="fx3" x="-10%" y="-10%" width="120%" height="120%" filterUnits="userSpaceOnUse" primitiveUnits="userSpaceOnUse"><feComponentTransfer color-interpolation-filters="sRGB"><feFuncR type="discrete" tableValues="0.000000 0.000000"/><feFuncG type="discrete" tableValues="0.000000 0.000000"/><feFuncB type="discrete" tableValues="0.000000 0.000000"/><feFuncA type="linear" slope="0.431373" intercept="0.000000"/></feComponentTransfer><feGaussianBlur stdDeviation="1.869331 1.869331"/></filter><filter id="fx4" x="-10%" y="-10%" width="120%" height="120%" filterUnits="userSpaceOnUse" primitiveUnits="userSpaceOnUse"><feComponentTransfer color-interpolation-filters="sRGB"><feFuncR type="discrete" tableValues="0.000000 0.000000"/><feFuncG type="discrete" tableValues="0.000000 0.000000"/><feFuncB type="discrete" tableValues="0.000000 0.000000"/><feFuncA type="linear" slope="0.431373" intercept="0.000000"/></feComponentTransfer><feGaussianBlur stdDeviation="1.869331 1.869331"/></filter><filter id="fx5" x="-10%" y="-10%" width="120%" height="120%" filterUnits="userSpaceOnUse" primitiveUnits="userSpaceOnUse"><feComponentTransfer color-interpolation-filters="sRGB"><feFuncR type="discrete" tableValues="0.000000 0.000000"/><feFuncG type="discrete" tableValues="0.000000 0.000000"/><feFuncB type="discrete" tableValues="0.000000 0.000000"/><feFuncA type="linear" slope="0.349020" intercept="0.000000"/></feComponentTransfer><feGaussianBlur stdDeviation="4.811899 4.811899"/></filter><filter id="fx6" x="-10%" y="-10%" width="120%" height="120%" filterUnits="userSpaceOnUse" primitiveUnits="userSpaceOnUse"><feComponentTransfer color-interpolation-filters="sRGB"><feFuncR type="discrete" tableValues="0.000000 0.000000"/><feFuncG type="discrete" tableValues="0.000000 0.000000"/><feFuncB type="discrete" tableValues="0.000000 0.000000"/><feFuncA type="linear" slope="0.431373" intercept="0.000000"/></feComponentTransfer><feGaussianBlur stdDeviation="2.102971 2.102971"/></filter><filter id="fx7" x="-10%" y="-10%" width="120%" height="120%" filterUnits="userSpaceOnUse" primitiveUnits="userSpaceOnUse"><feComponentTransfer color-interpolation-filters="sRGB"><feFuncR type="discrete" tableValues="0.000000 0.000000"/><feFuncG type="discrete" tableValues="0.000000 0.000000"/><feFuncB type="discrete" tableValues="0.000000 0.000000"/><feFuncA type="linear" slope="0.431373" intercept="0.000000"/></feComponentTransfer><feGaussianBlur stdDeviation="1.869331 1.869331"/></filter><filter id="fx8" x="-10%" y="-10%" width="120%" height="120%" filterUnits="userSpaceOnUse" primitiveUnits="userSpaceOnUse"><feComponentTransfer color-interpolation-filters="sRGB"><feFuncR type="discrete" tableValues="0.000000 0.000000"/><feFuncG type="discrete" tableValues="0.000000 0.000000"/><feFuncB type="discrete" tableValues="0.000000 0.000000"/><feFuncA type="linear" slope="0.431373" intercept="0.000000"/></feComponentTransfer><feGaussianBlur stdDeviation="1.869331 1.869331"/></filter><filter id="fx9" x="-10%" y="-10%" width="120%" height="120%" filterUnits="userSpaceOnUse" primitiveUnits="userSpaceOnUse"><feComponentTransfer color-interpolation-filters="sRGB"><feFuncR type="discrete" tableValues="0.000000 0.000000"/><feFuncG type="discrete" tableValues="0.000000 0.000000"/><feFuncB type="discrete" tableValues="0.000000 0.000000"/><feFuncA type="linear" slope="0.431373" intercept="0.000000"/></feComponentTransfer><feGaussianBlur stdDeviation="1.869331 1.869331"/></filter><clipPath id="clip10"><rect x="1764" y="815" width="623" height="376"/></clipPath><clipPath id="clip11"><path d="M1784.5 872.5 1784.5 1090.5 2367.5 1090.5 2367.5 872.5ZM1764 815 2387 815 2387 1191 1764 1191Z" fill-rule="evenodd" clip-rule="evenodd"/></clipPath><clipPath id="clip12"><rect x="1.56421" y="1.86475" width="614.871" height="249.871"/></clipPath><clipPath id="clip13"><rect x="0" y="0" width="618" height="254"/></clipPath><clipPath id="clip14"><rect x="-14.4357" y="-14.4357" width="612.871" height="402.871"/></clipPath><clipPath id="clip15"><rect x="0" y="0" width="584" height="374"/></clipPath><clipPath id="clip16"><rect x="-6.30891" y="-6.30891" width="566.618" height="259.618"/></clipPath><clipPath id="clip17"><rect x="0" y="0" width="554" height="247"/></clipPath><clipPath id="clip18"><rect x="-5.60799" y="-5.60799" width="299.216" height="217.216"/></clipPath><clipPath id="clip19"><rect x="0" y="0" width="288" height="206"/></clipPath><clipPath id="clip20"><rect x="-5.60799" y="-5.60799" width="163.216" height="217.216"/></clipPath><clipPath id="clip21"><rect x="0" y="0" width="152" height="206"/></clipPath><clipPath id="clip22"><rect x="-5.608" y="-5.60799" width="228.216" height="217.216"/></clipPath><clipPath id="clip23"><rect x="0" y="0" width="217" height="206"/></clipPath><clipPath id="clip24"><rect x="-6.30896" y="-6.3089" width="566.618" height="259.618"/></clipPath><clipPath id="clip25"><rect x="0" y="0" width="554" height="247"/></clipPath><clipPath id="clip26"><rect x="-5.60803" y="-5.60797" width="299.216" height="218.216"/></clipPath><clipPath id="clip27"><rect x="0" y="0" width="288" height="207"/></clipPath><clipPath id="clip28"><rect x="-5.60803" y="-5.60797" width="163.216" height="218.216"/></clipPath><clipPath id="clip29"><rect x="0" y="0" width="152" height="207"/></clipPath><clipPath id="clip30"><rect x="-5.60791" y="-5.60797" width="228.216" height="218.216"/></clipPath><clipPath id="clip31"><rect x="0" y="0" width="217" height="207"/></clipPath></defs><g clip-path="url(#clip10)" transform="translate(-1764 -815)"><g clip-path="url(#clip11)"><g clip-path="url(#clip12)" filter="url(#fx0)" transform="translate(1767 863)"><g clip-path="url(#clip13)"><rect x="17.4999" y="17.8005" width="583" height="218" stroke="#000000" stroke-width="3" stroke-linecap="butt" stroke-linejoin="round" stroke-miterlimit="10" stroke-opacity="1" fill="#666666" fill-opacity="1"/></g></g><g clip-path="url(#clip14)" filter="url(#fx5)" transform="translate(1788 817)"><g clip-path="url(#clip15)"><g clip-path="url(#clip16)" filter="url(#fx1)" transform="translate(15 15)"><g clip-path="url(#clip17)" transform="translate(-1788 -817)"><path d="M64.5068-5.26367C64.9365-3.97461 65.2051-2.9541 65.3125-2.20215 65.4199-1.4502 65.2767-0.88623 64.8828-0.510254 64.4889-0.134277 63.7907 0.09847 62.7881 0.187988 61.7855 0.277506 60.4069 0.322266 58.6523 0.322266 56.8262 0.322266 55.4028 0.29541 54.3823 0.241699 53.3618 0.187988 52.583 0.0805664 52.0459-0.0805664 51.5088-0.241699 51.1328-0.465495 50.918-0.751953 50.7031-1.03841 50.5241-1.41439 50.3809-1.87988L45.708-15.8447 19.6045-15.8447 15.2002-2.25586C15.057-1.75456 14.869-1.33382 14.6362-0.993652 14.4035-0.653483 14.0275-0.384928 13.5083-0.187988 12.9891 0.00895181 12.255 0.143229 11.3062 0.214844 10.3573 0.286458 9.11296 0.322266 7.57324 0.322266 5.92611 0.322266 4.63704 0.268555 3.70605 0.161133 2.77506 0.0537109 2.13053-0.205892 1.77246-0.617676 1.41439-1.02946 1.28906-1.61133 1.39648-2.36328 1.50391-3.11523 1.77246-4.11784 2.20215-5.37109L23.6328-67.0312C23.8477-67.64 24.0983-68.1323 24.3848-68.5083 24.6712-68.8843 25.1278-69.1707 25.7544-69.3677 26.381-69.5646 27.2493-69.6899 28.3594-69.7436 29.4694-69.7974 30.9375-69.8242 32.7637-69.8242 34.8763-69.8242 36.5592-69.7974 37.8125-69.7436 39.0658-69.6899 40.0415-69.5646 40.7397-69.3677 41.438-69.1707 41.9393-68.8753 42.2436-68.4814 42.548-68.0876 42.8076-67.5504 43.0225-66.8701ZM32.6025-56.2353 32.5488-56.2353 22.7197-26.6943 42.4316-26.6943ZM118.988-1.82617C118.988-1.4681 118.88-1.15479 118.665-0.88623 118.451-0.617676 118.092-0.39388 117.591-0.214844 117.09-0.0358073 116.401 0.09847 115.523 0.187988 114.646 0.277506 113.563 0.322266 112.274 0.322266 110.949 0.322266 109.848 0.277506 108.971 0.187988 108.093 0.09847 107.404-0.0358073 106.903-0.214844 106.401-0.39388 106.043-0.617676 105.828-0.88623 105.614-1.15479 105.506-1.4681 105.506-1.82617L105.506-29.165C105.506-31.4925 105.336-33.3187 104.996-34.6436 104.656-35.9684 104.163-37.1053 103.519-38.0542 102.874-39.0031 102.042-39.7371 101.021-40.2563 100.001-40.7755 98.8102-41.0351 97.4495-41.0352 95.7308-41.0351 93.9941-40.4085 92.2396-39.1553 90.485-37.902 88.6588-36.0758 86.7611-33.6768L86.7611-1.82617C86.7611-1.4681 86.6536-1.15479 86.4388-0.88623 86.224-0.617676 85.8569-0.39388 85.3377-0.214844 84.8185-0.0358073 84.1292 0.09847 83.2699 0.187988 82.4105 0.277506 81.3184 0.322266 79.9935 0.322266 78.6686 0.322266 77.5765 0.277506 76.7171 0.187988 75.8577 0.09847 75.1684-0.0358073 74.6492-0.214844 74.13-0.39388 73.763-0.617676 73.5482-0.88623 73.3333-1.15479 73.2259-1.4681 73.2259-1.82617L73.2259-49.7363C73.2259-50.0944 73.3154-50.4077 73.4945-50.6763 73.6735-50.9448 73.9958-51.1686 74.4613-51.3477 74.9268-51.5267 75.5265-51.661 76.2606-51.7505 76.9946-51.84 77.9167-51.8848 79.0267-51.8848 80.1725-51.8848 81.1214-51.84 81.8734-51.7505 82.6253-51.661 83.2072-51.5267 83.619-51.3477 84.0308-51.1686 84.3262-50.9448 84.5052-50.6763 84.6842-50.4077 84.7738-50.0944 84.7738-49.7363L84.7738-44.2041C87.4235-47.0687 90.118-49.2171 92.8573-50.6494 95.5965-52.0817 98.4521-52.7978 101.424-52.7978 104.683-52.7978 107.431-52.2607 109.669-51.1865 111.907-50.1123 113.715-48.6532 115.094-46.8091 116.472-44.965 117.466-42.8076 118.075-40.3369 118.683-37.8662 118.988-34.8942 118.988-31.4209ZM160.596-6.55273C160.596-4.97721 160.497-3.76872 160.3-2.92725 160.103-2.08577 159.844-1.49495 159.521-1.15479 159.199-0.814616 158.725-0.510254 158.098-0.241699 157.471 0.0268555 156.737 0.259603 155.896 0.456543 155.055 0.653483 154.141 0.805664 153.157 0.913086 152.172 1.02051 151.178 1.07422 150.176 1.07422 147.49 1.07422 145.163 0.734049 143.193 0.0537109 141.224-0.626628 139.595-1.67399 138.306-3.08838 137.017-4.50277 136.068-6.28418 135.459-8.43262 134.85-10.5811 134.546-13.1234 134.546-16.0596L134.546-40.6055 128.799-40.6055C128.118-40.6055 127.599-41.0262 127.241-41.8677 126.883-42.7091 126.704-44.1146 126.704-46.084 126.704-47.1224 126.749-47.9997 126.838-48.7158 126.928-49.432 127.062-49.9959 127.241-50.4077 127.42-50.8195 127.644-51.1149 127.913-51.2939 128.181-51.473 128.494-51.5625 128.853-51.5625L134.546-51.5625 134.546-62.251C134.546-62.609 134.644-62.9313 134.841-63.2178 135.038-63.5042 135.396-63.7459 135.916-63.9429 136.435-64.1398 137.133-64.283 138.01-64.3726 138.888-64.4621 139.971-64.5068 141.26-64.5068 142.585-64.5068 143.686-64.4621 144.563-64.3726 145.44-64.283 146.13-64.1398 146.631-63.9429 147.132-63.7459 147.49-63.5042 147.705-63.2178 147.92-62.9313 148.027-62.609 148.027-62.251L148.027-51.5625 158.447-51.5625C158.805-51.5625 159.119-51.473 159.387-51.2939 159.656-51.1149 159.88-50.8195 160.059-50.4077 160.238-49.9959 160.372-49.432 160.461-48.7158 160.551-47.9997 160.596-47.1224 160.596-46.084 160.596-44.1146 160.417-42.7091 160.059-41.8677 159.701-41.0262 159.181-40.6055 158.501-40.6055L148.027-40.6055 148.027-18.1006C148.027-15.4867 148.439-13.5262 149.263-12.2192 150.086-10.9123 151.554-10.2588 153.667-10.2588 154.383-10.2588 155.028-10.3215 155.601-10.4468 156.173-10.5721 156.684-10.7153 157.131-10.8765 157.579-11.0376 157.955-11.1808 158.259-11.3062 158.564-11.4315 158.841-11.4941 159.092-11.4941 159.307-11.4941 159.513-11.4315 159.709-11.3062 159.906-11.1808 160.059-10.9302 160.166-10.5542 160.273-10.1782 160.372-9.66797 160.461-9.02344 160.551-8.37891 160.596-7.55534 160.596-6.55273ZM184.157-1.82617C184.157-1.4681 184.049-1.15479 183.835-0.88623 183.62-0.617676 183.253-0.39388 182.734-0.214844 182.214-0.0358073 181.525 0.09847 180.666 0.187988 179.806 0.277506 178.714 0.322266 177.389 0.322266 176.064 0.322266 174.972 0.277506 174.113 0.187988 173.254 0.09847 172.564-0.0358073 172.045-0.214844 171.526-0.39388 171.159-0.617676 170.944-0.88623 170.729-1.15479 170.622-1.4681 170.622-1.82617L170.622-49.7363C170.622-50.0944 170.729-50.4077 170.944-50.6763 171.159-50.9448 171.526-51.1686 172.045-51.3477 172.564-51.5267 173.254-51.661 174.113-51.7505 174.972-51.84 176.064-51.8848 177.389-51.8848 178.714-51.8848 179.806-51.84 180.666-51.7505 181.525-51.661 182.214-51.5267 182.734-51.3477 183.253-51.1686 183.62-50.9448 183.835-50.6763 184.049-50.4077 184.157-50.0944 184.157-49.7363ZM179.001-73.2617C179.251-73.6556 179.556-73.9958 179.914-74.2822 180.272-74.5687 180.719-74.7925 181.257-74.9536 181.794-75.1147 182.474-75.2311 183.298-75.3027 184.121-75.3743 185.124-75.4101 186.305-75.4101 187.952-75.4101 189.25-75.3385 190.199-75.1953 191.148-75.0521 191.829-74.8462 192.24-74.5776 192.652-74.3091 192.84-73.9958 192.804-73.6377 192.769-73.2796 192.589-72.9036 192.267-72.5098L181.847-60.0488C181.561-59.6908 181.274-59.3953 180.988-59.1626 180.701-58.9298 180.334-58.7419 179.887-58.5986 179.439-58.4554 178.875-58.348 178.195-58.2764 177.515-58.2048 176.655-58.1689 175.617-58.1689 174.364-58.1689 173.37-58.2227 172.636-58.3301 171.902-58.4375 171.392-58.6076 171.105-58.8403 170.819-59.0731 170.702-59.3685 170.756-59.7266 170.81-60.0846 170.998-60.4964 171.32-60.9619ZM242.988-1.82617C242.988-1.43229 242.899-1.10107 242.72-0.832519 242.541-0.563965 242.236-0.340169 241.807-0.161133 241.377 0.0179036 240.795 0.143229 240.061 0.214844 239.327 0.286458 238.423 0.322266 237.349 0.322266 236.203 0.322266 235.272 0.286458 234.556 0.214844 233.84 0.143229 233.258 0.0179036 232.81-0.161133 232.362-0.340169 232.04-0.563965 231.843-0.832519 231.646-1.10107 231.548-1.43229 231.548-1.82617L231.548-7.14355C229.077-4.49381 226.49-2.4349 223.787-0.966797 221.083 0.501302 218.084 1.23535 214.79 1.23535 211.138 1.23535 208.049 0.528157 205.525-0.88623 203-2.30062 200.942-4.20736 199.348-6.60644 197.755-9.00553 196.6-11.8075 195.884-15.0122 195.168-18.217 194.81-21.5918 194.81-25.1367 194.81-29.3978 195.266-33.2292 196.179-36.6309 197.092-40.0325 198.426-42.9329 200.181-45.332 201.935-47.7311 204.119-49.5752 206.733-50.8643 209.347-52.1533 212.355-52.7978 215.757-52.7978 218.442-52.7978 220.877-52.2518 223.062-51.1597 225.246-50.0675 227.412-48.4652 229.561-46.3525L229.561-72.2949C229.561-72.653 229.659-72.9753 229.856-73.2617 230.053-73.5482 230.411-73.7899 230.93-73.9868 231.449-74.1837 232.139-74.3359 232.998-74.4434 233.857-74.5508 234.95-74.6045 236.274-74.6045 237.599-74.6045 238.691-74.5508 239.551-74.4434 240.41-74.3359 241.09-74.1837 241.592-73.9868 242.093-73.7899 242.451-73.5482 242.666-73.2617 242.881-72.9753 242.988-72.653 242.988-72.2949ZM229.561-33.8379C227.627-36.2728 225.774-38.1348 224.001-39.4238 222.229-40.7129 220.376-41.3574 218.442-41.3574 216.688-41.3574 215.175-40.9188 213.904-40.0415 212.633-39.1642 211.612-37.9915 210.842-36.5234 210.072-35.0553 209.499-33.4172 209.124-31.6089 208.748-29.8006 208.56-27.9476 208.56-26.0498 208.56-24.0446 208.721-22.0931 209.043-20.1953 209.365-18.2975 209.893-16.6056 210.627-15.1196 211.361-13.6336 212.337-12.443 213.555-11.5479 214.772-10.6527 216.312-10.2051 218.174-10.2051 219.105-10.2051 220.009-10.3394 220.886-10.6079 221.763-10.8765 222.659-11.3151 223.572-11.9238 224.485-12.5326 225.425-13.3293 226.392-14.314 227.358-15.2987 228.415-16.5072 229.561-17.9395ZM305.007-26.2646C305.007-22.1826 304.469-18.4587 303.395-15.0928 302.321-11.7269 300.692-8.8265 298.507-6.3916 296.323-3.95671 293.584-2.07682 290.29-0.751953 286.995 0.572917 283.146 1.23535 278.742 1.23535 274.481 1.23535 270.775 0.644531 267.624-0.537109 264.473-1.71875 261.859-3.4375 259.782-5.69336 257.705-7.94922 256.165-10.7243 255.163-14.0186 254.16-17.3128 253.659-21.0726 253.659-25.2978 253.659-29.3799 254.205-33.1128 255.297-36.4966 256.389-39.8804 258.027-42.7808 260.212-45.1978 262.396-47.6147 265.126-49.4857 268.402-50.8105 271.679-52.1354 275.519-52.7978 279.923-52.7978 284.22-52.7978 287.944-52.216 291.095-51.0522 294.246-49.8885 296.851-48.1787 298.91-45.9228 300.969-43.667 302.5-40.8919 303.503-37.5977 304.505-34.3034 305.007-30.5257 305.007-26.2646ZM291.095-25.7275C291.095-28.0908 290.907-30.2661 290.531-32.2534 290.155-34.2407 289.52-35.9684 288.625-37.4365 287.729-38.9046 286.539-40.0505 285.053-40.874 283.567-41.6976 281.696-42.1094 279.44-42.1094 277.435-42.1094 275.68-41.7423 274.176-41.0083 272.673-40.2742 271.437-39.2 270.47-37.7856 269.504-36.3713 268.778-34.6704 268.295-32.6831 267.812-30.6958 267.57-28.431 267.57-25.8887 267.57-23.5254 267.767-21.3501 268.161-19.3628 268.555-17.3755 269.19-15.6478 270.068-14.1797 270.945-12.7116 272.135-11.5747 273.639-10.769 275.143-9.96338 277.005-9.56054 279.225-9.56055 281.266-9.56054 283.039-9.92757 284.543-10.6616 286.047-11.3957 287.282-12.4609 288.249-13.8574 289.215-15.2539 289.932-16.9458 290.397-18.9331 290.863-20.9204 291.095-23.1852 291.095-25.7275ZM343.929-6.55273C343.929-4.97721 343.831-3.76872 343.634-2.92725 343.437-2.08577 343.177-1.49495 342.855-1.15479 342.533-0.814616 342.058-0.510254 341.431-0.241699 340.805 0.0268555 340.071 0.259603 339.229 0.456543 338.388 0.653483 337.475 0.805664 336.49 0.913086 335.505 1.02051 334.512 1.07422 333.509 1.07422 330.824 1.07422 328.496 0.734049 326.527 0.0537109 324.557-0.626628 322.928-1.67399 321.639-3.08838 320.35-4.50277 319.401-6.28418 318.792-8.43262 318.184-10.5811 317.879-13.1234 317.879-16.0596L317.879-40.6055 312.132-40.6055C311.452-40.6055 310.933-41.0262 310.575-41.8677 310.216-42.7091 310.037-44.1146 310.037-46.084 310.037-47.1224 310.082-47.9997 310.172-48.7158 310.261-49.432 310.395-49.9959 310.575-50.4077 310.754-50.8195 310.977-51.1149 311.246-51.2939 311.514-51.473 311.828-51.5625 312.186-51.5625L317.879-51.5625 317.879-62.251C317.879-62.609 317.978-62.9313 318.175-63.2178 318.372-63.5042 318.73-63.7459 319.249-63.9429 319.768-64.1398 320.466-64.283 321.344-64.3726 322.221-64.4621 323.304-64.5068 324.593-64.5068 325.918-64.5068 327.019-64.4621 327.896-64.3726 328.774-64.283 329.463-64.1398 329.964-63.9429 330.465-63.7459 330.824-63.5042 331.038-63.2178 331.253-62.9313 331.361-62.609 331.361-62.251L331.361-51.5625 341.781-51.5625C342.139-51.5625 342.452-51.473 342.721-51.2939 342.989-51.1149 343.213-50.8195 343.392-50.4077 343.571-49.9959 343.705-49.432 343.795-48.7158 343.884-47.9997 343.929-47.1224 343.929-46.084 343.929-44.1146 343.75-42.7091 343.392-41.8677 343.034-41.0262 342.515-40.6055 341.834-40.6055L331.361-40.6055 331.361-18.1006C331.361-15.4867 331.772-13.5262 332.596-12.2192 333.42-10.9123 334.888-10.2588 337-10.2588 337.716-10.2588 338.361-10.3215 338.934-10.4468 339.507-10.5721 340.017-10.7153 340.465-10.8765 340.912-11.0376 341.288-11.1808 341.593-11.3062 341.897-11.4315 342.174-11.4941 342.425-11.4941 342.64-11.4941 342.846-11.4315 343.043-11.3062 343.24-11.1808 343.392-10.9302 343.499-10.5542 343.607-10.1782 343.705-9.66797 343.795-9.02344 343.884-8.37891 343.929-7.55534 343.929-6.55273ZM402.402-26.2646C402.402-22.1826 401.865-18.4587 400.791-15.0928 399.717-11.7269 398.088-8.8265 395.903-6.3916 393.719-3.95671 390.98-2.07682 387.686-0.751953 384.391 0.572917 380.542 1.23535 376.138 1.23535 371.877 1.23535 368.171 0.644531 365.02-0.537109 361.868-1.71875 359.255-3.4375 357.178-5.69336 355.101-7.94922 353.561-10.7243 352.559-14.0186 351.556-17.3128 351.055-21.0726 351.055-25.2978 351.055-29.3799 351.601-33.1128 352.693-36.4966 353.785-39.8804 355.423-42.7808 357.607-45.1978 359.792-47.6147 362.522-49.4857 365.798-50.8105 369.075-52.1354 372.915-52.7978 377.319-52.7978 381.616-52.7978 385.34-52.216 388.491-51.0522 391.642-49.8885 394.247-48.1787 396.306-45.9228 398.365-43.667 399.896-40.8919 400.898-37.5977 401.901-34.3034 402.402-30.5257 402.402-26.2646ZM388.491-25.7275C388.491-28.0908 388.303-30.2661 387.927-32.2534 387.551-34.2407 386.916-35.9684 386.02-37.4365 385.125-38.9046 383.935-40.0505 382.449-40.874 380.963-41.6976 379.092-42.1094 376.836-42.1094 374.831-42.1094 373.076-41.7423 371.572-41.0083 370.068-40.2742 368.833-39.2 367.866-37.7856 366.899-36.3713 366.174-34.6704 365.691-32.6831 365.207-30.6958 364.966-28.431 364.966-25.8887 364.966-23.5254 365.163-21.3501 365.557-19.3628 365.95-17.3755 366.586-15.6478 367.463-14.1797 368.341-12.7116 369.531-11.5747 371.035-10.769 372.539-9.96338 374.401-9.56054 376.621-9.56055 378.662-9.56054 380.435-9.92757 381.938-10.6616 383.442-11.3957 384.678-12.4609 385.645-13.8574 386.611-15.2539 387.327-16.9458 387.793-18.9331 388.258-20.9204 388.491-23.1852 388.491-25.7275Z" fill="#FFFFFF" fill-rule="nonzero" fill-opacity="1" transform="matrix(1 0 0 1 73.8615 144)"/></g></g><path d="M64.5068-5.26367C64.9365-3.97461 65.2051-2.9541 65.3125-2.20215 65.4199-1.4502 65.2767-0.88623 64.8828-0.510254 64.4889-0.134277 63.7907 0.09847 62.7881 0.187988 61.7855 0.277506 60.4069 0.322266 58.6523 0.322266 56.8262 0.322266 55.4028 0.29541 54.3823 0.241699 53.3618 0.187988 52.583 0.0805664 52.0459-0.0805664 51.5088-0.241699 51.1328-0.465495 50.918-0.751953 50.7031-1.03841 50.5241-1.41439 50.3809-1.87988L45.708-15.8447 19.6045-15.8447 15.2002-2.25586C15.057-1.75456 14.869-1.33382 14.6362-0.993652 14.4035-0.653483 14.0275-0.384928 13.5083-0.187988 12.9891 0.00895181 12.255 0.143229 11.3062 0.214844 10.3573 0.286458 9.11296 0.322266 7.57324 0.322266 5.92611 0.322266 4.63704 0.268555 3.70605 0.161133 2.77506 0.0537109 2.13053-0.205892 1.77246-0.617676 1.41439-1.02946 1.28906-1.61133 1.39648-2.36328 1.50391-3.11523 1.77246-4.11784 2.20215-5.37109L23.6328-67.0312C23.8477-67.64 24.0983-68.1323 24.3848-68.5083 24.6712-68.8843 25.1278-69.1707 25.7544-69.3677 26.381-69.5646 27.2493-69.6899 28.3594-69.7436 29.4694-69.7974 30.9375-69.8242 32.7637-69.8242 34.8763-69.8242 36.5592-69.7974 37.8125-69.7436 39.0658-69.6899 40.0415-69.5646 40.7397-69.3677 41.438-69.1707 41.9393-68.8753 42.2436-68.4814 42.548-68.0876 42.8076-67.5504 43.0225-66.8701ZM32.6025-56.2353 32.5488-56.2353 22.7197-26.6943 42.4316-26.6943ZM118.988-1.82617C118.988-1.4681 118.88-1.15479 118.665-0.88623 118.451-0.617676 118.092-0.39388 117.591-0.214844 117.09-0.0358073 116.401 0.09847 115.523 0.187988 114.646 0.277506 113.563 0.322266 112.274 0.322266 110.949 0.322266 109.848 0.277506 108.971 0.187988 108.093 0.09847 107.404-0.0358073 106.903-0.214844 106.401-0.39388 106.043-0.617676 105.828-0.88623 105.614-1.15479 105.506-1.4681 105.506-1.82617L105.506-29.165C105.506-31.4925 105.336-33.3187 104.996-34.6436 104.656-35.9684 104.163-37.1053 103.519-38.0542 102.874-39.0031 102.042-39.7371 101.021-40.2563 100.001-40.7755 98.8102-41.0351 97.4495-41.0352 95.7308-41.0351 93.9941-40.4085 92.2396-39.1553 90.485-37.902 88.6588-36.0758 86.7611-33.6768L86.7611-1.82617C86.7611-1.4681 86.6536-1.15479 86.4388-0.88623 86.224-0.617676 85.8569-0.39388 85.3377-0.214844 84.8185-0.0358073 84.1292 0.09847 83.2699 0.187988 82.4105 0.277506 81.3184 0.322266 79.9935 0.322266 78.6686 0.322266 77.5765 0.277506 76.7171 0.187988 75.8577 0.09847 75.1684-0.0358073 74.6492-0.214844 74.13-0.39388 73.763-0.617676 73.5482-0.88623 73.3333-1.15479 73.2259-1.4681 73.2259-1.82617L73.2259-49.7363C73.2259-50.0944 73.3154-50.4077 73.4945-50.6763 73.6735-50.9448 73.9958-51.1686 74.4613-51.3477 74.9268-51.5267 75.5265-51.661 76.2606-51.7505 76.9946-51.84 77.9167-51.8848 79.0267-51.8848 80.1725-51.8848 81.1214-51.84 81.8734-51.7505 82.6253-51.661 83.2072-51.5267 83.619-51.3477 84.0308-51.1686 84.3262-50.9448 84.5052-50.6763 84.6842-50.4077 84.7738-50.0944 84.7738-49.7363L84.7738-44.2041C87.4235-47.0687 90.118-49.2171 92.8573-50.6494 95.5965-52.0817 98.4521-52.7978 101.424-52.7978 104.683-52.7978 107.431-52.2607 109.669-51.1865 111.907-50.1123 113.715-48.6532 115.094-46.8091 116.472-44.965 117.466-42.8076 118.075-40.3369 118.683-37.8662 118.988-34.8942 118.988-31.4209ZM160.596-6.55273C160.596-4.97721 160.497-3.76872 160.3-2.92725 160.103-2.08577 159.844-1.49495 159.521-1.15479 159.199-0.814616 158.725-0.510254 158.098-0.241699 157.471 0.0268555 156.737 0.259603 155.896 0.456543 155.055 0.653483 154.141 0.805664 153.157 0.913086 152.172 1.02051 151.178 1.07422 150.176 1.07422 147.49 1.07422 145.163 0.734049 143.193 0.0537109 141.224-0.626628 139.595-1.67399 138.306-3.08838 137.017-4.50277 136.068-6.28418 135.459-8.43262 134.85-10.5811 134.546-13.1234 134.546-16.0596L134.546-40.6055 128.799-40.6055C128.118-40.6055 127.599-41.0262 127.241-41.8677 126.883-42.7091 126.704-44.1146 126.704-46.084 126.704-47.1224 126.749-47.9997 126.838-48.7158 126.928-49.432 127.062-49.9959 127.241-50.4077 127.42-50.8195 127.644-51.1149 127.913-51.2939 128.181-51.473 128.494-51.5625 128.853-51.5625L134.546-51.5625 134.546-62.251C134.546-62.609 134.644-62.9313 134.841-63.2178 135.038-63.5042 135.396-63.7459 135.916-63.9429 136.435-64.1398 137.133-64.283 138.01-64.3726 138.888-64.4621 139.971-64.5068 141.26-64.5068 142.585-64.5068 143.686-64.4621 144.563-64.3726 145.44-64.283 146.13-64.1398 146.631-63.9429 147.132-63.7459 147.49-63.5042 147.705-63.2178 147.92-62.9313 148.027-62.609 148.027-62.251L148.027-51.5625 158.447-51.5625C158.805-51.5625 159.119-51.473 159.387-51.2939 159.656-51.1149 159.88-50.8195 160.059-50.4077 160.238-49.9959 160.372-49.432 160.461-48.7158 160.551-47.9997 160.596-47.1224 160.596-46.084 160.596-44.1146 160.417-42.7091 160.059-41.8677 159.701-41.0262 159.181-40.6055 158.501-40.6055L148.027-40.6055 148.027-18.1006C148.027-15.4867 148.439-13.5262 149.263-12.2192 150.086-10.9123 151.554-10.2588 153.667-10.2588 154.383-10.2588 155.028-10.3215 155.601-10.4468 156.173-10.5721 156.684-10.7153 157.131-10.8765 157.579-11.0376 157.955-11.1808 158.259-11.3062 158.564-11.4315 158.841-11.4941 159.092-11.4941 159.307-11.4941 159.513-11.4315 159.709-11.3062 159.906-11.1808 160.059-10.9302 160.166-10.5542 160.273-10.1782 160.372-9.66797 160.461-9.02344 160.551-8.37891 160.596-7.55534 160.596-6.55273ZM184.157-1.82617C184.157-1.4681 184.049-1.15479 183.835-0.88623 183.62-0.617676 183.253-0.39388 182.734-0.214844 182.214-0.0358073 181.525 0.09847 180.666 0.187988 179.806 0.277506 178.714 0.322266 177.389 0.322266 176.064 0.322266 174.972 0.277506 174.113 0.187988 173.254 0.09847 172.564-0.0358073 172.045-0.214844 171.526-0.39388 171.159-0.617676 170.944-0.88623 170.729-1.15479 170.622-1.4681 170.622-1.82617L170.622-49.7363C170.622-50.0944 170.729-50.4077 170.944-50.6763 171.159-50.9448 171.526-51.1686 172.045-51.3477 172.564-51.5267 173.254-51.661 174.113-51.7505 174.972-51.84 176.064-51.8848 177.389-51.8848 178.714-51.8848 179.806-51.84 180.666-51.7505 181.525-51.661 182.214-51.5267 182.734-51.3477 183.253-51.1686 183.62-50.9448 183.835-50.6763 184.049-50.4077 184.157-50.0944 184.157-49.7363ZM179.001-73.2617C179.251-73.6556 179.556-73.9958 179.914-74.2822 180.272-74.5687 180.719-74.7925 181.257-74.9536 181.794-75.1147 182.474-75.2311 183.298-75.3027 184.121-75.3743 185.124-75.4101 186.305-75.4101 187.952-75.4101 189.25-75.3385 190.199-75.1953 191.148-75.0521 191.829-74.8462 192.24-74.5776 192.652-74.3091 192.84-73.9958 192.804-73.6377 192.769-73.2796 192.589-72.9036 192.267-72.5098L181.847-60.0488C181.561-59.6908 181.274-59.3953 180.988-59.1626 180.701-58.9298 180.334-58.7419 179.887-58.5986 179.439-58.4554 178.875-58.348 178.195-58.2764 177.515-58.2048 176.655-58.1689 175.617-58.1689 174.364-58.1689 173.37-58.2227 172.636-58.3301 171.902-58.4375 171.392-58.6076 171.105-58.8403 170.819-59.0731 170.702-59.3685 170.756-59.7266 170.81-60.0846 170.998-60.4964 171.32-60.9619ZM242.988-1.82617C242.988-1.43229 242.899-1.10107 242.72-0.832519 242.541-0.563965 242.236-0.340169 241.807-0.161133 241.377 0.0179036 240.795 0.143229 240.061 0.214844 239.327 0.286458 238.423 0.322266 237.349 0.322266 236.203 0.322266 235.272 0.286458 234.556 0.214844 233.84 0.143229 233.258 0.0179036 232.81-0.161133 232.362-0.340169 232.04-0.563965 231.843-0.832519 231.646-1.10107 231.548-1.43229 231.548-1.82617L231.548-7.14355C229.077-4.49381 226.49-2.4349 223.787-0.966797 221.083 0.501302 218.084 1.23535 214.79 1.23535 211.138 1.23535 208.049 0.528157 205.525-0.88623 203-2.30062 200.942-4.20736 199.348-6.60644 197.755-9.00553 196.6-11.8075 195.884-15.0122 195.168-18.217 194.81-21.5918 194.81-25.1367 194.81-29.3978 195.266-33.2292 196.179-36.6309 197.092-40.0325 198.426-42.9329 200.181-45.332 201.935-47.7311 204.119-49.5752 206.733-50.8643 209.347-52.1533 212.355-52.7978 215.757-52.7978 218.442-52.7978 220.877-52.2518 223.062-51.1597 225.246-50.0675 227.412-48.4652 229.561-46.3525L229.561-72.2949C229.561-72.653 229.659-72.9753 229.856-73.2617 230.053-73.5482 230.411-73.7899 230.93-73.9868 231.449-74.1837 232.139-74.3359 232.998-74.4434 233.857-74.5508 234.95-74.6045 236.274-74.6045 237.599-74.6045 238.691-74.5508 239.551-74.4434 240.41-74.3359 241.09-74.1837 241.592-73.9868 242.093-73.7899 242.451-73.5482 242.666-73.2617 242.881-72.9753 242.988-72.653 242.988-72.2949ZM229.561-33.8379C227.627-36.2728 225.774-38.1348 224.001-39.4238 222.229-40.7129 220.376-41.3574 218.442-41.3574 216.688-41.3574 215.175-40.9188 213.904-40.0415 212.633-39.1642 211.612-37.9915 210.842-36.5234 210.072-35.0553 209.499-33.4172 209.124-31.6089 208.748-29.8006 208.56-27.9476 208.56-26.0498 208.56-24.0446 208.721-22.0931 209.043-20.1953 209.365-18.2975 209.893-16.6056 210.627-15.1196 211.361-13.6336 212.337-12.443 213.555-11.5479 214.772-10.6527 216.312-10.2051 218.174-10.2051 219.105-10.2051 220.009-10.3394 220.886-10.6079 221.763-10.8765 222.659-11.3151 223.572-11.9238 224.485-12.5326 225.425-13.3293 226.392-14.314 227.358-15.2987 228.415-16.5072 229.561-17.9395ZM305.007-26.2646C305.007-22.1826 304.469-18.4587 303.395-15.0928 302.321-11.7269 300.692-8.8265 298.507-6.3916 296.323-3.95671 293.584-2.07682 290.29-0.751953 286.995 0.572917 283.146 1.23535 278.742 1.23535 274.481 1.23535 270.775 0.644531 267.624-0.537109 264.473-1.71875 261.859-3.4375 259.782-5.69336 257.705-7.94922 256.165-10.7243 255.163-14.0186 254.16-17.3128 253.659-21.0726 253.659-25.2978 253.659-29.3799 254.205-33.1128 255.297-36.4966 256.389-39.8804 258.027-42.7808 260.212-45.1978 262.396-47.6147 265.126-49.4857 268.402-50.8105 271.679-52.1354 275.519-52.7978 279.923-52.7978 284.22-52.7978 287.944-52.216 291.095-51.0522 294.246-49.8885 296.851-48.1787 298.91-45.9228 300.969-43.667 302.5-40.8919 303.503-37.5977 304.505-34.3034 305.007-30.5257 305.007-26.2646ZM291.095-25.7275C291.095-28.0908 290.907-30.2661 290.531-32.2534 290.155-34.2407 289.52-35.9684 288.625-37.4365 287.729-38.9046 286.539-40.0505 285.053-40.874 283.567-41.6976 281.696-42.1094 279.44-42.1094 277.435-42.1094 275.68-41.7423 274.176-41.0083 272.673-40.2742 271.437-39.2 270.47-37.7856 269.504-36.3713 268.778-34.6704 268.295-32.6831 267.812-30.6958 267.57-28.431 267.57-25.8887 267.57-23.5254 267.767-21.3501 268.161-19.3628 268.555-17.3755 269.19-15.6478 270.068-14.1797 270.945-12.7116 272.135-11.5747 273.639-10.769 275.143-9.96338 277.005-9.56054 279.225-9.56055 281.266-9.56054 283.039-9.92757 284.543-10.6616 286.047-11.3957 287.282-12.4609 288.249-13.8574 289.215-15.2539 289.932-16.9458 290.397-18.9331 290.863-20.9204 291.095-23.1852 291.095-25.7275ZM343.929-6.55273C343.929-4.97721 343.831-3.76872 343.634-2.92725 343.437-2.08577 343.177-1.49495 342.855-1.15479 342.533-0.814616 342.058-0.510254 341.431-0.241699 340.805 0.0268555 340.071 0.259603 339.229 0.456543 338.388 0.653483 337.475 0.805664 336.49 0.913086 335.505 1.02051 334.512 1.07422 333.509 1.07422 330.824 1.07422 328.496 0.734049 326.527 0.0537109 324.557-0.626628 322.928-1.67399 321.639-3.08838 320.35-4.50277 319.401-6.28418 318.792-8.43262 318.184-10.5811 317.879-13.1234 317.879-16.0596L317.879-40.6055 312.132-40.6055C311.452-40.6055 310.933-41.0262 310.575-41.8677 310.216-42.7091 310.037-44.1146 310.037-46.084 310.037-47.1224 310.082-47.9997 310.172-48.7158 310.261-49.432 310.395-49.9959 310.575-50.4077 310.754-50.8195 310.977-51.1149 311.246-51.2939 311.514-51.473 311.828-51.5625 312.186-51.5625L317.879-51.5625 317.879-62.251C317.879-62.609 317.978-62.9313 318.175-63.2178 318.372-63.5042 318.73-63.7459 319.249-63.9429 319.768-64.1398 320.466-64.283 321.344-64.3726 322.221-64.4621 323.304-64.5068 324.593-64.5068 325.918-64.5068 327.019-64.4621 327.896-64.3726 328.774-64.283 329.463-64.1398 329.964-63.9429 330.465-63.7459 330.824-63.5042 331.038-63.2178 331.253-62.9313 331.361-62.609 331.361-62.251L331.361-51.5625 341.781-51.5625C342.139-51.5625 342.452-51.473 342.721-51.2939 342.989-51.1149 343.213-50.8195 343.392-50.4077 343.571-49.9959 343.705-49.432 343.795-48.7158 343.884-47.9997 343.929-47.1224 343.929-46.084 343.929-44.1146 343.75-42.7091 343.392-41.8677 343.034-41.0262 342.515-40.6055 341.834-40.6055L331.361-40.6055 331.361-18.1006C331.361-15.4867 331.772-13.5262 332.596-12.2192 333.42-10.9123 334.888-10.2588 337-10.2588 337.716-10.2588 338.361-10.3215 338.934-10.4468 339.507-10.5721 340.017-10.7153 340.465-10.8765 340.912-11.0376 341.288-11.1808 341.593-11.3062 341.897-11.4315 342.174-11.4941 342.425-11.4941 342.64-11.4941 342.846-11.4315 343.043-11.3062 343.24-11.1808 343.392-10.9302 343.499-10.5542 343.607-10.1782 343.705-9.66797 343.795-9.02344 343.884-8.37891 343.929-7.55534 343.929-6.55273ZM402.402-26.2646C402.402-22.1826 401.865-18.4587 400.791-15.0928 399.717-11.7269 398.088-8.8265 395.903-6.3916 393.719-3.95671 390.98-2.07682 387.686-0.751953 384.391 0.572917 380.542 1.23535 376.138 1.23535 371.877 1.23535 368.171 0.644531 365.02-0.537109 361.868-1.71875 359.255-3.4375 357.178-5.69336 355.101-7.94922 353.561-10.7243 352.559-14.0186 351.556-17.3128 351.055-21.0726 351.055-25.2978 351.055-29.3799 351.601-33.1128 352.693-36.4966 353.785-39.8804 355.423-42.7808 357.607-45.1978 359.792-47.6147 362.522-49.4857 365.798-50.8105 369.075-52.1354 372.915-52.7978 377.319-52.7978 381.616-52.7978 385.34-52.216 388.491-51.0522 391.642-49.8885 394.247-48.1787 396.306-45.9228 398.365-43.667 399.896-40.8919 400.898-37.5977 401.901-34.3034 402.402-30.5257 402.402-26.2646ZM388.491-25.7275C388.491-28.0908 388.303-30.2661 387.927-32.2534 387.551-34.2407 386.916-35.9684 386.02-37.4365 385.125-38.9046 383.935-40.0505 382.449-40.874 380.963-41.6976 379.092-42.1094 376.836-42.1094 374.831-42.1094 373.076-41.7423 371.572-41.0083 370.068-40.2742 368.833-39.2 367.866-37.7856 366.899-36.3713 366.174-34.6704 365.691-32.6831 365.207-30.6958 364.966-28.431 364.966-25.8887 364.966-23.5254 365.163-21.3501 365.557-19.3628 365.95-17.3755 366.586-15.6478 367.463-14.1797 368.341-12.7116 369.531-11.5747 371.035-10.769 372.539-9.96338 374.401-9.56054 376.621-9.56055 378.662-9.56054 380.435-9.92757 381.938-10.6616 383.442-11.3957 384.678-12.4609 385.645-13.8574 386.611-15.2539 387.327-16.9458 387.793-18.9331 388.258-20.9204 388.491-23.1852 388.491-25.7275Z" fill="#FFFFFF" fill-rule="nonzero" fill-opacity="1" transform="matrix(1 0 0 1 84.4004 154)"/><g clip-path="url(#clip18)" filter="url(#fx2)" transform="translate(87 153)"><g clip-path="url(#clip19)" transform="translate(-1788 -817)"><path d="M41.5078-3.32422C41.5078-2.78516 41.4704-2.30599 41.3955-1.88672 41.3206-1.46745 41.2158-1.11556 41.0811-0.831055 40.9463-0.546549 40.7666-0.336914 40.542-0.202148 40.3174-0.0673828 40.0703 0 39.8008 0L7.68164 0C7.26237 0 6.89551-0.0524089 6.58105-0.157227 6.2666-0.262044 5.99707-0.434245 5.77246-0.673828 5.54785-0.913411 5.38314-1.25781 5.27832-1.70703 5.1735-2.15625 5.12109-2.71029 5.12109-3.36914 5.12109-3.9681 5.14426-4.49219 5.19058-4.94141 5.23691-5.39062 5.33716-5.78743 5.49135-6.13184 5.64553-6.47624 5.83844-6.82064 6.07007-7.16504 6.3017-7.50944 6.60258-7.8763 6.97272-8.26562L18.5913-20.2148C21.2764-22.97 23.429-25.4408 25.0492-27.627 26.6694-29.8131 27.9193-31.8047 28.7988-33.6016 29.6783-35.3984 30.2569-37.0306 30.5346-38.498 30.8123-39.9655 30.9512-41.3431 30.9512-42.6309 30.9512-43.9186 30.7349-45.139 30.3023-46.292 29.8697-47.445 29.2439-48.4557 28.425-49.3242 27.6061-50.1927 26.5787-50.8815 25.3426-51.3906 24.1065-51.8997 22.6851-52.1543 21.0782-52.1543 19.1933-52.1543 17.5015-51.8997 16.0027-51.3906 14.5039-50.8815 13.1905-50.3275 12.0626-49.7285 10.9346-49.1296 9.99219-48.5755 9.2353-48.0664 8.47842-47.5573 7.91444-47.3027 7.54337-47.3027 7.32718-47.3027 7.13404-47.3626 6.96394-47.4824 6.79385-47.6022 6.65475-47.7969 6.54666-48.0664 6.43857-48.3359 6.35364-48.6953 6.29187-49.1445 6.2301-49.5937 6.19922-50.1328 6.19922-50.7617 6.19922-51.2109 6.21419-51.6003 6.24414-51.9297 6.27409-52.2591 6.3265-52.5436 6.40137-52.7832 6.47624-53.0228 6.57357-53.2474 6.69336-53.457 6.81315-53.6667 7.05273-53.9287 7.41211-54.2432 7.77148-54.5576 8.3929-54.9844 9.27637-55.5234 10.1598-56.0625 11.2679-56.5941 12.6006-57.1182 13.9333-57.6422 15.4007-58.084 17.0029-58.4434 18.6051-58.8027 20.2897-58.9824 22.0566-58.9824 24.8717-58.9824 27.335-58.5856 29.4463-57.792 31.5576-56.9984 33.3096-55.9128 34.7021-54.5352 36.0947-53.1575 37.1354-51.5553 37.8242-49.7285 38.513-47.9017 38.8574-45.9551 38.8574-43.8887 38.8574-42.0319 38.6927-40.1826 38.3633-38.3408 38.0339-36.499 37.3376-34.5075 36.2744-32.3662 35.2113-30.2249 33.6764-27.8441 31.6699-25.2236 29.6634-22.6032 26.998-19.5859 23.6738-16.1719L14.4648-6.55859 39.7559-6.55859C39.9954-6.55859 40.2275-6.49121 40.4521-6.35644 40.6768-6.22168 40.8714-6.01953 41.0361-5.75 41.2008-5.48047 41.3206-5.14355 41.3955-4.73926 41.4704-4.33496 41.5078-3.86328 41.5078-3.32422ZM64.2402-35.9375C64.2402-34.9792 64.1728-34.1706 64.0381-33.5117 63.9033-32.8529 63.6488-32.3213 63.2744-31.917 62.9001-31.5127 62.4134-31.2282 61.8144-31.0635 61.2155-30.8988 60.4518-30.8164 59.5234-30.8164 58.5651-30.8164 57.7865-30.8988 57.1875-31.0635 56.5885-31.2282 56.1094-31.5127 55.75-31.917 55.3906-32.3213 55.1435-32.8529 55.0088-33.5117 54.874-34.1706 54.8066-34.9792 54.8066-35.9375 54.8066-36.9557 54.874-37.8018 55.0088-38.4756 55.1435-39.1494 55.3906-39.6885 55.75-40.0928 56.1094-40.4971 56.5885-40.7816 57.1875-40.9463 57.7865-41.111 58.5651-41.1934 59.5234-41.1934 60.4518-41.1934 61.2155-41.111 61.8144-40.9463 62.4134-40.7816 62.9001-40.4971 63.2744-40.0928 63.6488-39.6885 63.9033-39.1494 64.0381-38.4756 64.1728-37.8018 64.2402-36.9557 64.2402-35.9375ZM64.2402-4.76172C64.2402-3.77344 64.1728-2.94987 64.0381-2.29102 63.9033-1.63216 63.6488-1.10059 63.2744-0.696289 62.9001-0.291992 62.4134-0.00748697 61.8144 0.157227 61.2155 0.32194 60.4518 0.404297 59.5234 0.404297 58.5651 0.404297 57.7865 0.32194 57.1875 0.157227 56.5885-0.00748697 56.1094-0.291992 55.75-0.696289 55.3906-1.10059 55.1435-1.63216 55.0088-2.29102 54.874-2.94987 54.8066-3.77344 54.8066-4.76172 54.8066-5.75 54.874-6.58105 55.0088-7.25488 55.1435-7.92871 55.3906-8.46029 55.75-8.84961 56.1094-9.23893 56.5885-9.52344 57.1875-9.70312 57.7865-9.88281 58.5651-9.97266 59.5234-9.97266 60.4518-9.97266 61.2155-9.88281 61.8144-9.70312 62.4134-9.52344 62.9001-9.23893 63.2744-8.84961 63.6488-8.46029 63.9033-7.92871 64.0381-7.25488 64.1728-6.58105 64.2402-5.75 64.2402-4.76172ZM112.684-3.05469C112.684-2.48568 112.639-2.00651 112.549-1.61719 112.46-1.22786 112.34-0.913411 112.19-0.673828 112.04-0.434245 111.868-0.262044 111.673-0.157227 111.479-0.0524089 111.277 0 111.067 0L80.6999 0C80.4902 0 80.2956-0.0524089 80.1159-0.157227 79.9362-0.262044 79.764-0.434245 79.5993-0.673828 79.4346-0.913411 79.3073-1.22786 79.2174-1.61719 79.1276-2.00651 79.0827-2.48568 79.0827-3.05469 79.0827-3.59375 79.1276-4.05794 79.2174-4.44727 79.3073-4.83659 79.4196-5.15853 79.5544-5.41309 79.6891-5.66764 79.8538-5.8623 80.0485-5.99707 80.2432-6.13184 80.4603-6.19922 80.6999-6.19922L92.8288-6.19922 92.8288-50.4023 81.5983-43.709C81.0293-43.4095 80.5726-43.2298 80.2282-43.1699 79.8838-43.11 79.6068-43.1774 79.3971-43.3721 79.1875-43.5667 79.0452-43.8887 78.9704-44.3379 78.8955-44.7871 78.8581-45.3561 78.8581-46.0449 78.8581-46.554 78.8805-46.9883 78.9255-47.3477 78.9704-47.707 79.0378-48.0065 79.1276-48.2461 79.2174-48.4857 79.3447-48.6953 79.5094-48.875 79.6741-49.0547 79.8913-49.2344 80.1608-49.4141L93.5475-57.9941C93.6673-58.084 93.817-58.1588 93.9967-58.2187 94.1764-58.2786 94.401-58.3385 94.6706-58.3984 94.9401-58.4583 95.2545-58.4958 95.6139-58.5107 95.9733-58.5257 96.4225-58.5332 96.9616-58.5332 97.6803-58.5332 98.2793-58.5033 98.7585-58.4434 99.2376-58.3835 99.612-58.3011 99.8815-58.1963 100.151-58.0915 100.331-57.9567 100.421-57.792 100.51-57.6273 100.555-57.4551 100.555-57.2754L100.555-6.19922 111.067-6.19922C111.307-6.19922 111.531-6.13184 111.741-5.99707 111.951-5.8623 112.123-5.66764 112.257-5.41309 112.392-5.15853 112.497-4.83659 112.572-4.44727 112.647-4.05794 112.684-3.59375 112.684-3.05469ZM159.09-3.05469C159.09-2.48568 159.046-2.00651 158.956-1.61719 158.866-1.22786 158.746-0.913411 158.596-0.673828 158.447-0.434245 158.274-0.262044 158.08-0.157227 157.885-0.0524089 157.683 0 157.473 0L127.106 0C126.896 0 126.702-0.0524089 126.522-0.157227 126.342-0.262044 126.17-0.434245 126.006-0.673828 125.841-0.913411 125.714-1.22786 125.624-1.61719 125.534-2.00651 125.489-2.48568 125.489-3.05469 125.489-3.59375 125.534-4.05794 125.624-4.44727 125.714-4.83659 125.826-5.15853 125.961-5.41309 126.095-5.66764 126.26-5.8623 126.455-5.99707 126.649-6.13184 126.867-6.19922 127.106-6.19922L139.235-6.19922 139.235-50.4023 128.005-43.709C127.436-43.4095 126.979-43.2298 126.634-43.1699 126.29-43.11 126.013-43.1774 125.803-43.3721 125.594-43.5667 125.451-43.8887 125.377-44.3379 125.302-44.7871 125.264-45.3561 125.264-46.0449 125.264-46.554 125.287-46.9883 125.332-47.3477 125.377-47.707 125.444-48.0065 125.534-48.2461 125.624-48.4857 125.751-48.6953 125.916-48.875 126.08-49.0547 126.298-49.2344 126.567-49.4141L139.954-57.9941C140.074-58.084 140.223-58.1588 140.403-58.2187 140.583-58.2786 140.807-58.3385 141.077-58.3984 141.346-58.4583 141.661-58.4958 142.02-58.5107 142.38-58.5257 142.829-58.5332 143.368-58.5332 144.087-58.5332 144.686-58.5033 145.165-58.4434 145.644-58.3835 146.018-58.3011 146.288-58.1963 146.557-58.0915 146.737-57.9567 146.827-57.792 146.917-57.6273 146.962-57.4551 146.962-57.2754L146.962-6.19922 157.473-6.19922C157.713-6.19922 157.937-6.13184 158.147-5.99707 158.357-5.8623 158.529-5.66764 158.664-5.41309 158.798-5.15853 158.903-4.83659 158.978-4.44727 159.053-4.05794 159.09-3.59375 159.09-3.05469Z" fill="#FFFFFF" fill-rule="nonzero" fill-opacity="1" transform="matrix(1 0 0 1 62.095 120)"/></g></g><path d="M41.5078-3.32422C41.5078-2.78516 41.4704-2.30599 41.3955-1.88672 41.3206-1.46745 41.2158-1.11556 41.0811-0.831055 40.9463-0.546549 40.7666-0.336914 40.542-0.202148 40.3174-0.0673828 40.0703 0 39.8008 0L7.68164 0C7.26237 0 6.89551-0.0524089 6.58105-0.157227 6.2666-0.262044 5.99707-0.434245 5.77246-0.673828 5.54785-0.913411 5.38314-1.25781 5.27832-1.70703 5.1735-2.15625 5.12109-2.71029 5.12109-3.36914 5.12109-3.9681 5.14426-4.49219 5.19058-4.94141 5.23691-5.39062 5.33716-5.78743 5.49135-6.13184 5.64553-6.47624 5.83844-6.82064 6.07007-7.16504 6.3017-7.50944 6.60258-7.8763 6.97272-8.26562L18.5913-20.2148C21.2764-22.97 23.429-25.4408 25.0492-27.627 26.6694-29.8131 27.9193-31.8047 28.7988-33.6016 29.6783-35.3984 30.2569-37.0306 30.5346-38.498 30.8123-39.9655 30.9512-41.3431 30.9512-42.6309 30.9512-43.9186 30.7349-45.139 30.3023-46.292 29.8697-47.445 29.2439-48.4557 28.425-49.3242 27.6061-50.1927 26.5787-50.8815 25.3426-51.3906 24.1065-51.8997 22.6851-52.1543 21.0782-52.1543 19.1933-52.1543 17.5015-51.8997 16.0027-51.3906 14.5039-50.8815 13.1905-50.3275 12.0626-49.7285 10.9346-49.1296 9.99219-48.5755 9.2353-48.0664 8.47842-47.5573 7.91444-47.3027 7.54337-47.3027 7.32718-47.3027 7.13404-47.3626 6.96394-47.4824 6.79385-47.6022 6.65475-47.7969 6.54666-48.0664 6.43857-48.3359 6.35364-48.6953 6.29187-49.1445 6.2301-49.5937 6.19922-50.1328 6.19922-50.7617 6.19922-51.2109 6.21419-51.6003 6.24414-51.9297 6.27409-52.2591 6.3265-52.5436 6.40137-52.7832 6.47624-53.0228 6.57357-53.2474 6.69336-53.457 6.81315-53.6667 7.05273-53.9287 7.41211-54.2432 7.77148-54.5576 8.3929-54.9844 9.27637-55.5234 10.1598-56.0625 11.2679-56.5941 12.6006-57.1182 13.9333-57.6422 15.4007-58.084 17.0029-58.4434 18.6051-58.8027 20.2897-58.9824 22.0566-58.9824 24.8717-58.9824 27.335-58.5856 29.4463-57.792 31.5576-56.9984 33.3096-55.9128 34.7021-54.5352 36.0947-53.1575 37.1354-51.5553 37.8242-49.7285 38.513-47.9017 38.8574-45.9551 38.8574-43.8887 38.8574-42.0319 38.6927-40.1826 38.3633-38.3408 38.0339-36.499 37.3376-34.5075 36.2744-32.3662 35.2113-30.2249 33.6764-27.8441 31.6699-25.2236 29.6634-22.6032 26.998-19.5859 23.6738-16.1719L14.4648-6.55859 39.7559-6.55859C39.9954-6.55859 40.2275-6.49121 40.4521-6.35644 40.6768-6.22168 40.8714-6.01953 41.0361-5.75 41.2008-5.48047 41.3206-5.14355 41.3955-4.73926 41.4704-4.33496 41.5078-3.86328 41.5078-3.32422ZM64.2402-35.9375C64.2402-34.9792 64.1728-34.1706 64.0381-33.5117 63.9033-32.8529 63.6488-32.3213 63.2744-31.917 62.9001-31.5127 62.4134-31.2282 61.8144-31.0635 61.2155-30.8988 60.4518-30.8164 59.5234-30.8164 58.5651-30.8164 57.7865-30.8988 57.1875-31.0635 56.5885-31.2282 56.1094-31.5127 55.75-31.917 55.3906-32.3213 55.1435-32.8529 55.0088-33.5117 54.874-34.1706 54.8066-34.9792 54.8066-35.9375 54.8066-36.9557 54.874-37.8018 55.0088-38.4756 55.1435-39.1494 55.3906-39.6885 55.75-40.0928 56.1094-40.4971 56.5885-40.7816 57.1875-40.9463 57.7865-41.111 58.5651-41.1934 59.5234-41.1934 60.4518-41.1934 61.2155-41.111 61.8144-40.9463 62.4134-40.7816 62.9001-40.4971 63.2744-40.0928 63.6488-39.6885 63.9033-39.1494 64.0381-38.4756 64.1728-37.8018 64.2402-36.9557 64.2402-35.9375ZM64.2402-4.76172C64.2402-3.77344 64.1728-2.94987 64.0381-2.29102 63.9033-1.63216 63.6488-1.10059 63.2744-0.696289 62.9001-0.291992 62.4134-0.00748697 61.8144 0.157227 61.2155 0.32194 60.4518 0.404297 59.5234 0.404297 58.5651 0.404297 57.7865 0.32194 57.1875 0.157227 56.5885-0.00748697 56.1094-0.291992 55.75-0.696289 55.3906-1.10059 55.1435-1.63216 55.0088-2.29102 54.874-2.94987 54.8066-3.77344 54.8066-4.76172 54.8066-5.75 54.874-6.58105 55.0088-7.25488 55.1435-7.92871 55.3906-8.46029 55.75-8.84961 56.1094-9.23893 56.5885-9.52344 57.1875-9.70312 57.7865-9.88281 58.5651-9.97266 59.5234-9.97266 60.4518-9.97266 61.2155-9.88281 61.8144-9.70312 62.4134-9.52344 62.9001-9.23893 63.2744-8.84961 63.6488-8.46029 63.9033-7.92871 64.0381-7.25488 64.1728-6.58105 64.2402-5.75 64.2402-4.76172ZM112.684-3.05469C112.684-2.48568 112.639-2.00651 112.549-1.61719 112.46-1.22786 112.34-0.913411 112.19-0.673828 112.04-0.434245 111.868-0.262044 111.673-0.157227 111.479-0.0524089 111.277 0 111.067 0L80.6999 0C80.4902 0 80.2956-0.0524089 80.1159-0.157227 79.9362-0.262044 79.764-0.434245 79.5993-0.673828 79.4346-0.913411 79.3073-1.22786 79.2174-1.61719 79.1276-2.00651 79.0827-2.48568 79.0827-3.05469 79.0827-3.59375 79.1276-4.05794 79.2174-4.44727 79.3073-4.83659 79.4196-5.15853 79.5544-5.41309 79.6891-5.66764 79.8538-5.8623 80.0485-5.99707 80.2432-6.13184 80.4603-6.19922 80.6999-6.19922L92.8288-6.19922 92.8288-50.4023 81.5983-43.709C81.0293-43.4095 80.5726-43.2298 80.2282-43.1699 79.8838-43.11 79.6068-43.1774 79.3971-43.3721 79.1875-43.5667 79.0452-43.8887 78.9704-44.3379 78.8955-44.7871 78.8581-45.3561 78.8581-46.0449 78.8581-46.554 78.8805-46.9883 78.9255-47.3477 78.9704-47.707 79.0378-48.0065 79.1276-48.2461 79.2174-48.4857 79.3447-48.6953 79.5094-48.875 79.6741-49.0547 79.8913-49.2344 80.1608-49.4141L93.5475-57.9941C93.6673-58.084 93.817-58.1588 93.9967-58.2187 94.1764-58.2786 94.401-58.3385 94.6706-58.3984 94.9401-58.4583 95.2545-58.4958 95.6139-58.5107 95.9733-58.5257 96.4225-58.5332 96.9616-58.5332 97.6803-58.5332 98.2793-58.5033 98.7585-58.4434 99.2376-58.3835 99.612-58.3011 99.8815-58.1963 100.151-58.0915 100.331-57.9567 100.421-57.792 100.51-57.6273 100.555-57.4551 100.555-57.2754L100.555-6.19922 111.067-6.19922C111.307-6.19922 111.531-6.13184 111.741-5.99707 111.951-5.8623 112.123-5.66764 112.257-5.41309 112.392-5.15853 112.497-4.83659 112.572-4.44727 112.647-4.05794 112.684-3.59375 112.684-3.05469ZM159.09-3.05469C159.09-2.48568 159.046-2.00651 158.956-1.61719 158.866-1.22786 158.746-0.913411 158.596-0.673828 158.447-0.434245 158.274-0.262044 158.08-0.157227 157.885-0.0524089 157.683 0 157.473 0L127.106 0C126.896 0 126.702-0.0524089 126.522-0.157227 126.342-0.262044 126.17-0.434245 126.006-0.673828 125.841-0.913411 125.714-1.22786 125.624-1.61719 125.534-2.00651 125.489-2.48568 125.489-3.05469 125.489-3.59375 125.534-4.05794 125.624-4.44727 125.714-4.83659 125.826-5.15853 125.961-5.41309 126.095-5.66764 126.26-5.8623 126.455-5.99707 126.649-6.13184 126.867-6.19922 127.106-6.19922L139.235-6.19922 139.235-50.4023 128.005-43.709C127.436-43.4095 126.979-43.2298 126.634-43.1699 126.29-43.11 126.013-43.1774 125.803-43.3721 125.594-43.5667 125.451-43.8887 125.377-44.3379 125.302-44.7871 125.264-45.3561 125.264-46.0449 125.264-46.554 125.287-46.9883 125.332-47.3477 125.377-47.707 125.444-48.0065 125.534-48.2461 125.624-48.4857 125.751-48.6953 125.916-48.875 126.08-49.0547 126.298-49.2344 126.567-49.4141L139.954-57.9941C140.074-58.084 140.223-58.1588 140.403-58.2187 140.583-58.2786 140.807-58.3385 141.077-58.3984 141.346-58.4583 141.661-58.4958 142.02-58.5107 142.38-58.5257 142.829-58.5332 143.368-58.5332 144.087-58.5332 144.686-58.5033 145.165-58.4434 145.644-58.3835 146.018-58.3011 146.288-58.1963 146.557-58.0915 146.737-57.9567 146.827-57.792 146.917-57.6273 146.962-57.4551 146.962-57.2754L146.962-6.19922 157.473-6.19922C157.713-6.19922 157.937-6.13184 158.147-5.99707 158.357-5.8623 158.529-5.66764 158.664-5.41309 158.798-5.15853 158.903-4.83659 158.978-4.44727 159.053-4.05794 159.09-3.59375 159.09-3.05469Z" fill="#FFFFFF" fill-rule="nonzero" fill-opacity="1" transform="matrix(1 0 0 1 145.13 269)"/><g clip-path="url(#clip20)" filter="url(#fx3)" transform="translate(251 153)"><g clip-path="url(#clip21)" transform="translate(-1788 -817)"><path d="M25.0664-22.6855C25.0664-21.5176 24.9316-20.709 24.6621-20.2598 24.3926-19.8105 24.0033-19.5859 23.4941-19.5859L4.7168-19.5859C4.17773-19.5859 3.77344-19.818 3.50391-20.2822 3.23437-20.7464 3.09961-21.5475 3.09961-22.6855 3.09961-23.8236 3.23437-24.6172 3.50391-25.0664 3.77344-25.5156 4.17773-25.7402 4.7168-25.7402L23.4941-25.7402C23.7337-25.7402 23.9508-25.6953 24.1455-25.6055 24.3402-25.5156 24.5049-25.3434 24.6396-25.0889 24.7744-24.8343 24.8792-24.5124 24.9541-24.123 25.029-23.7337 25.0664-23.2546 25.0664-22.6855Z" fill="#FFFFFF" fill-rule="nonzero" fill-opacity="1" transform="matrix(1 0 0 1 61.9492 120)"/></g></g><path d="M25.0664-22.6855C25.0664-21.5176 24.9316-20.709 24.6621-20.2598 24.3926-19.8105 24.0033-19.5859 23.4941-19.5859L4.7168-19.5859C4.17773-19.5859 3.77344-19.818 3.50391-20.2822 3.23437-20.7464 3.09961-21.5475 3.09961-22.6855 3.09961-23.8236 3.23437-24.6172 3.50391-25.0664 3.77344-25.5156 4.17773-25.7402 4.7168-25.7402L23.4941-25.7402C23.7337-25.7402 23.9508-25.6953 24.1455-25.6055 24.3402-25.5156 24.5049-25.3434 24.6396-25.0889 24.7744-24.8343 24.8792-24.5124 24.9541-24.123 25.029-23.7337 25.0664-23.2546 25.0664-22.6855Z" fill="#FFFFFF" fill-rule="nonzero" fill-opacity="1" transform="matrix(1 0 0 1 308.984 269)"/><g clip-path="url(#clip22)" filter="url(#fx4)" transform="translate(279 153)"><g clip-path="url(#clip23)" transform="translate(-1788 -817)"><path d="M41.6426-3.05469C41.6426-2.48568 41.5977-2.00651 41.5078-1.61719 41.418-1.22786 41.2982-0.913411 41.1484-0.673828 40.9987-0.434245 40.8265-0.262044 40.6318-0.157227 40.4372-0.0524089 40.235 0 40.0254 0L9.6582 0C9.44857 0 9.2539-0.0524089 9.07422-0.157227 8.89453-0.262044 8.72233-0.434245 8.55762-0.673828 8.3929-0.913411 8.26562-1.22786 8.17578-1.61719 8.08594-2.00651 8.04101-2.48568 8.04101-3.05469 8.04101-3.59375 8.08594-4.05794 8.17578-4.44727 8.26562-4.83659 8.37793-5.15853 8.51269-5.41309 8.64746-5.66764 8.81217-5.8623 9.00683-5.99707 9.2015-6.13184 9.41862-6.19922 9.6582-6.19922L21.7871-6.19922 21.7871-50.4023 10.5566-43.709C9.98763-43.4095 9.53092-43.2298 9.18652-43.1699 8.84212-43.11 8.5651-43.1774 8.35547-43.3721 8.14583-43.5667 8.00358-43.8887 7.92871-44.3379 7.85384-44.7871 7.81641-45.3561 7.81641-46.0449 7.81641-46.554 7.83887-46.9883 7.88379-47.3477 7.92871-47.707 7.99609-48.0065 8.08594-48.2461 8.17578-48.4857 8.30306-48.6953 8.46777-48.875 8.63249-49.0547 8.84961-49.2344 9.11914-49.4141L22.5059-57.9941C22.6256-58.084 22.7754-58.1588 22.9551-58.2187 23.1348-58.2786 23.3594-58.3385 23.6289-58.3984 23.8984-58.4583 24.2129-58.4958 24.5723-58.5107 24.9316-58.5257 25.3809-58.5332 25.9199-58.5332 26.6387-58.5332 27.2376-58.5033 27.7168-58.4434 28.196-58.3835 28.5703-58.3011 28.8398-58.1963 29.1094-58.0915 29.2891-57.9567 29.3789-57.792 29.4687-57.6273 29.5137-57.4551 29.5137-57.2754L29.5137-6.19922 40.0254-6.19922C40.265-6.19922 40.4896-6.13184 40.6992-5.99707 40.9088-5.8623 41.081-5.66764 41.2158-5.41309 41.3506-5.15853 41.4554-4.83659 41.5303-4.44727 41.6051-4.05794 41.6426-3.59375 41.6426-3.05469ZM87.6445-18.6875C87.6445-15.5729 87.1204-12.8027 86.0723-10.377 85.0241-7.95117 83.5417-5.90723 81.625-4.24512 79.7083-2.58301 77.4248-1.31771 74.7744-0.449219 72.124 0.419271 69.1816 0.853516 65.9473 0.853516 64.1504 0.853516 62.4434 0.726237 60.8262 0.47168 59.209 0.217122 57.7715-0.0973307 56.5137-0.47168 55.2559-0.846029 54.2227-1.21289 53.4141-1.57227 52.6055-1.93164 52.0889-2.21615 51.8643-2.42578 51.6396-2.63542 51.4824-2.83008 51.3926-3.00977 51.3027-3.18945 51.2204-3.40658 51.1455-3.66113 51.0706-3.91569 51.0182-4.23763 50.9883-4.62695 50.9583-5.01628 50.9434-5.48047 50.9434-6.01953 50.9434-6.52865 50.9658-6.98535 51.0107-7.38965 51.0557-7.79394 51.138-8.12337 51.2578-8.37793 51.3776-8.63249 51.5199-8.81966 51.6846-8.93945 51.8493-9.05924 52.0365-9.11914 52.2461-9.11914 52.5456-9.11914 53.0098-8.93196 53.6387-8.55762 54.2676-8.18327 55.1136-7.77897 56.1768-7.34473 57.2399-6.91048 58.5576-6.4987 60.1299-6.10937 61.7021-5.72005 63.5664-5.52539 65.7226-5.52539 67.7292-5.52539 69.571-5.76497 71.248-6.24414 72.9251-6.72331 74.3701-7.472 75.583-8.49023 76.7959-9.50846 77.7467-10.7887 78.4355-12.3311 79.1243-13.8734 79.4687-15.7526 79.4687-17.9687 79.4687-19.8255 79.1768-21.4652 78.5928-22.8877 78.0088-24.3102 77.1103-25.4932 75.8975-26.4365 74.6846-27.3799 73.1497-28.0837 71.293-28.5478 69.4362-29.012 67.22-29.2441 64.6445-29.2441 62.8177-29.2441 61.2454-29.1543 59.9277-28.9746 58.61-28.7949 57.3822-28.7051 56.2441-28.7051 55.4056-28.7051 54.8066-28.8997 54.4473-29.2891 54.0879-29.6784 53.9082-30.4271 53.9082-31.5352L53.9082-55.209C53.9082-56.1973 54.1403-56.931 54.6045-57.4102 55.0687-57.8893 55.735-58.1289 56.6035-58.1289L82.3437-58.1289C82.5833-58.1289 82.8154-58.0615 83.04-57.9268 83.2646-57.792 83.4518-57.5898 83.6016-57.3203 83.7513-57.0508 83.8636-56.7064 83.9385-56.2871 84.0133-55.8678 84.0508-55.3737 84.0508-54.8047 84.0508-53.7266 83.9073-52.888 83.6205-52.2891 83.3337-51.6901 82.9322-51.3906 82.416-51.3906L61.6348-51.3906 61.6348-35.084C62.6446-35.2337 63.676-35.3236 64.7291-35.3535 65.7822-35.3835 67.0013-35.3984 68.3864-35.3984 71.5885-35.3984 74.387-35.0016 76.7819-34.208 79.1767-33.4144 81.1748-32.2913 82.7761-30.8389 84.3774-29.3864 85.5891-27.6269 86.4113-25.5605 87.2334-23.4941 87.6445-21.2031 87.6445-18.6875Z" fill="#FFFFFF" fill-rule="nonzero" fill-opacity="1" transform="matrix(1 0 0 1 62.0221 120)"/></g></g><path d="M41.6426-3.05469C41.6426-2.48568 41.5977-2.00651 41.5078-1.61719 41.418-1.22786 41.2982-0.913411 41.1484-0.673828 40.9987-0.434245 40.8265-0.262044 40.6318-0.157227 40.4372-0.0524089 40.235 0 40.0254 0L9.6582 0C9.44857 0 9.2539-0.0524089 9.07422-0.157227 8.89453-0.262044 8.72233-0.434245 8.55762-0.673828 8.3929-0.913411 8.26562-1.22786 8.17578-1.61719 8.08594-2.00651 8.04101-2.48568 8.04101-3.05469 8.04101-3.59375 8.08594-4.05794 8.17578-4.44727 8.26562-4.83659 8.37793-5.15853 8.51269-5.41309 8.64746-5.66764 8.81217-5.8623 9.00683-5.99707 9.2015-6.13184 9.41862-6.19922 9.6582-6.19922L21.7871-6.19922 21.7871-50.4023 10.5566-43.709C9.98763-43.4095 9.53092-43.2298 9.18652-43.1699 8.84212-43.11 8.5651-43.1774 8.35547-43.3721 8.14583-43.5667 8.00358-43.8887 7.92871-44.3379 7.85384-44.7871 7.81641-45.3561 7.81641-46.0449 7.81641-46.554 7.83887-46.9883 7.88379-47.3477 7.92871-47.707 7.99609-48.0065 8.08594-48.2461 8.17578-48.4857 8.30306-48.6953 8.46777-48.875 8.63249-49.0547 8.84961-49.2344 9.11914-49.4141L22.5059-57.9941C22.6256-58.084 22.7754-58.1588 22.9551-58.2187 23.1348-58.2786 23.3594-58.3385 23.6289-58.3984 23.8984-58.4583 24.2129-58.4958 24.5723-58.5107 24.9316-58.5257 25.3809-58.5332 25.9199-58.5332 26.6387-58.5332 27.2376-58.5033 27.7168-58.4434 28.196-58.3835 28.5703-58.3011 28.8398-58.1963 29.1094-58.0915 29.2891-57.9567 29.3789-57.792 29.4687-57.6273 29.5137-57.4551 29.5137-57.2754L29.5137-6.19922 40.0254-6.19922C40.265-6.19922 40.4896-6.13184 40.6992-5.99707 40.9088-5.8623 41.081-5.66764 41.2158-5.41309 41.3506-5.15853 41.4554-4.83659 41.5303-4.44727 41.6051-4.05794 41.6426-3.59375 41.6426-3.05469ZM87.6445-18.6875C87.6445-15.5729 87.1204-12.8027 86.0723-10.377 85.0241-7.95117 83.5417-5.90723 81.625-4.24512 79.7083-2.58301 77.4248-1.31771 74.7744-0.449219 72.124 0.419271 69.1816 0.853516 65.9473 0.853516 64.1504 0.853516 62.4434 0.726237 60.8262 0.47168 59.209 0.217122 57.7715-0.0973307 56.5137-0.47168 55.2559-0.846029 54.2227-1.21289 53.4141-1.57227 52.6055-1.93164 52.0889-2.21615 51.8643-2.42578 51.6396-2.63542 51.4824-2.83008 51.3926-3.00977 51.3027-3.18945 51.2204-3.40658 51.1455-3.66113 51.0706-3.91569 51.0182-4.23763 50.9883-4.62695 50.9583-5.01628 50.9434-5.48047 50.9434-6.01953 50.9434-6.52865 50.9658-6.98535 51.0107-7.38965 51.0557-7.79394 51.138-8.12337 51.2578-8.37793 51.3776-8.63249 51.5199-8.81966 51.6846-8.93945 51.8493-9.05924 52.0365-9.11914 52.2461-9.11914 52.5456-9.11914 53.0098-8.93196 53.6387-8.55762 54.2676-8.18327 55.1136-7.77897 56.1768-7.34473 57.2399-6.91048 58.5576-6.4987 60.1299-6.10937 61.7021-5.72005 63.5664-5.52539 65.7226-5.52539 67.7292-5.52539 69.571-5.76497 71.248-6.24414 72.9251-6.72331 74.3701-7.472 75.583-8.49023 76.7959-9.50846 77.7467-10.7887 78.4355-12.3311 79.1243-13.8734 79.4687-15.7526 79.4687-17.9687 79.4687-19.8255 79.1768-21.4652 78.5928-22.8877 78.0088-24.3102 77.1103-25.4932 75.8975-26.4365 74.6846-27.3799 73.1497-28.0837 71.293-28.5478 69.4362-29.012 67.22-29.2441 64.6445-29.2441 62.8177-29.2441 61.2454-29.1543 59.9277-28.9746 58.61-28.7949 57.3822-28.7051 56.2441-28.7051 55.4056-28.7051 54.8066-28.8997 54.4473-29.2891 54.0879-29.6784 53.9082-30.4271 53.9082-31.5352L53.9082-55.209C53.9082-56.1973 54.1403-56.931 54.6045-57.4102 55.0687-57.8893 55.735-58.1289 56.6035-58.1289L82.3437-58.1289C82.5833-58.1289 82.8154-58.0615 83.04-57.9268 83.2646-57.792 83.4518-57.5898 83.6016-57.3203 83.7513-57.0508 83.8636-56.7064 83.9385-56.2871 84.0133-55.8678 84.0508-55.3737 84.0508-54.8047 84.0508-53.7266 83.9073-52.888 83.6205-52.2891 83.3337-51.6901 82.9322-51.3906 82.416-51.3906L61.6348-51.3906 61.6348-35.084C62.6446-35.2337 63.676-35.3236 64.7291-35.3535 65.7822-35.3835 67.0013-35.3984 68.3864-35.3984 71.5885-35.3984 74.387-35.0016 76.7819-34.208 79.1767-33.4144 81.1748-32.2913 82.7761-30.8389 84.3774-29.3864 85.5891-27.6269 86.4113-25.5605 87.2334-23.4941 87.6445-21.2031 87.6445-18.6875Z" fill="#FFFFFF" fill-rule="nonzero" fill-opacity="1" transform="matrix(1 0 0 1 337.057 269)"/></g></g></g><rect x="1784.5" y="872.5" width="583" height="218" stroke="#000000" stroke-width="3.4375" stroke-linecap="butt" stroke-linejoin="round" stroke-miterlimit="10" stroke-opacity="1" fill="#666666" fill-opacity="1"/><g clip-path="url(#clip24)" filter="url(#fx6)" transform="translate(1803 823)"><g clip-path="url(#clip25)"><path d="M64.5068-5.26367C64.9365-3.97461 65.2051-2.9541 65.3125-2.20215 65.4199-1.4502 65.2767-0.88623 64.8828-0.510254 64.4889-0.134277 63.7907 0.09847 62.7881 0.187988 61.7855 0.277506 60.4069 0.322266 58.6523 0.322266 56.8262 0.322266 55.4028 0.29541 54.3823 0.241699 53.3618 0.187988 52.583 0.0805664 52.0459-0.0805664 51.5088-0.241699 51.1328-0.465495 50.918-0.751953 50.7031-1.03841 50.5241-1.41439 50.3809-1.87988L45.708-15.8447 19.6045-15.8447 15.2002-2.25586C15.057-1.75456 14.869-1.33382 14.6362-0.993652 14.4035-0.653483 14.0275-0.384928 13.5083-0.187988 12.9891 0.00895181 12.255 0.143229 11.3062 0.214844 10.3573 0.286458 9.11296 0.322266 7.57324 0.322266 5.92611 0.322266 4.63704 0.268555 3.70605 0.161133 2.77506 0.0537109 2.13053-0.205892 1.77246-0.617676 1.41439-1.02946 1.28906-1.61133 1.39648-2.36328 1.50391-3.11523 1.77246-4.11784 2.20215-5.37109L23.6328-67.0312C23.8477-67.64 24.0983-68.1323 24.3848-68.5083 24.6712-68.8843 25.1278-69.1707 25.7544-69.3677 26.381-69.5646 27.2493-69.6899 28.3594-69.7436 29.4694-69.7974 30.9375-69.8242 32.7637-69.8242 34.8763-69.8242 36.5592-69.7974 37.8125-69.7436 39.0658-69.6899 40.0415-69.5646 40.7397-69.3677 41.438-69.1707 41.9393-68.8753 42.2436-68.4814 42.548-68.0876 42.8076-67.5504 43.0225-66.8701ZM32.6025-56.2353 32.5488-56.2353 22.7197-26.6943 42.4316-26.6943ZM118.988-1.82617C118.988-1.4681 118.88-1.15479 118.665-0.88623 118.451-0.617676 118.092-0.39388 117.591-0.214844 117.09-0.0358073 116.401 0.09847 115.523 0.187988 114.646 0.277506 113.563 0.322266 112.274 0.322266 110.949 0.322266 109.848 0.277506 108.971 0.187988 108.093 0.09847 107.404-0.0358073 106.903-0.214844 106.401-0.39388 106.043-0.617676 105.828-0.88623 105.614-1.15479 105.506-1.4681 105.506-1.82617L105.506-29.165C105.506-31.4925 105.336-33.3187 104.996-34.6436 104.656-35.9684 104.163-37.1053 103.519-38.0542 102.874-39.0031 102.042-39.7371 101.021-40.2563 100.001-40.7755 98.8102-41.0351 97.4495-41.0352 95.7308-41.0351 93.9941-40.4085 92.2396-39.1553 90.485-37.902 88.6588-36.0758 86.7611-33.6768L86.7611-1.82617C86.7611-1.4681 86.6536-1.15479 86.4388-0.88623 86.224-0.617676 85.8569-0.39388 85.3377-0.214844 84.8185-0.0358073 84.1292 0.09847 83.2699 0.187988 82.4105 0.277506 81.3184 0.322266 79.9935 0.322266 78.6686 0.322266 77.5765 0.277506 76.7171 0.187988 75.8577 0.09847 75.1684-0.0358073 74.6492-0.214844 74.13-0.39388 73.763-0.617676 73.5482-0.88623 73.3333-1.15479 73.2259-1.4681 73.2259-1.82617L73.2259-49.7363C73.2259-50.0944 73.3154-50.4077 73.4945-50.6763 73.6735-50.9448 73.9958-51.1686 74.4613-51.3477 74.9268-51.5267 75.5265-51.661 76.2606-51.7505 76.9946-51.84 77.9167-51.8848 79.0267-51.8848 80.1725-51.8848 81.1214-51.84 81.8734-51.7505 82.6253-51.661 83.2072-51.5267 83.619-51.3477 84.0308-51.1686 84.3262-50.9448 84.5052-50.6763 84.6842-50.4077 84.7738-50.0944 84.7738-49.7363L84.7738-44.2041C87.4235-47.0687 90.118-49.2171 92.8573-50.6494 95.5965-52.0817 98.4521-52.7978 101.424-52.7978 104.683-52.7978 107.431-52.2607 109.669-51.1865 111.907-50.1123 113.715-48.6532 115.094-46.8091 116.472-44.965 117.466-42.8076 118.075-40.3369 118.683-37.8662 118.988-34.8942 118.988-31.4209ZM160.596-6.55273C160.596-4.97721 160.497-3.76872 160.3-2.92725 160.103-2.08577 159.844-1.49495 159.521-1.15479 159.199-0.814616 158.725-0.510254 158.098-0.241699 157.471 0.0268555 156.737 0.259603 155.896 0.456543 155.055 0.653483 154.141 0.805664 153.157 0.913086 152.172 1.02051 151.178 1.07422 150.176 1.07422 147.49 1.07422 145.163 0.734049 143.193 0.0537109 141.224-0.626628 139.595-1.67399 138.306-3.08838 137.017-4.50277 136.068-6.28418 135.459-8.43262 134.85-10.5811 134.546-13.1234 134.546-16.0596L134.546-40.6055 128.799-40.6055C128.118-40.6055 127.599-41.0262 127.241-41.8677 126.883-42.7091 126.704-44.1146 126.704-46.084 126.704-47.1224 126.749-47.9997 126.838-48.7158 126.928-49.432 127.062-49.9959 127.241-50.4077 127.42-50.8195 127.644-51.1149 127.913-51.2939 128.181-51.473 128.494-51.5625 128.853-51.5625L134.546-51.5625 134.546-62.251C134.546-62.609 134.644-62.9313 134.841-63.2178 135.038-63.5042 135.396-63.7459 135.916-63.9429 136.435-64.1398 137.133-64.283 138.01-64.3726 138.888-64.4621 139.971-64.5068 141.26-64.5068 142.585-64.5068 143.686-64.4621 144.563-64.3726 145.44-64.283 146.13-64.1398 146.631-63.9429 147.132-63.7459 147.49-63.5042 147.705-63.2178 147.92-62.9313 148.027-62.609 148.027-62.251L148.027-51.5625 158.447-51.5625C158.805-51.5625 159.119-51.473 159.387-51.2939 159.656-51.1149 159.88-50.8195 160.059-50.4077 160.238-49.9959 160.372-49.432 160.461-48.7158 160.551-47.9997 160.596-47.1224 160.596-46.084 160.596-44.1146 160.417-42.7091 160.059-41.8677 159.701-41.0262 159.181-40.6055 158.501-40.6055L148.027-40.6055 148.027-18.1006C148.027-15.4867 148.439-13.5262 149.263-12.2192 150.086-10.9123 151.554-10.2588 153.667-10.2588 154.383-10.2588 155.028-10.3215 155.601-10.4468 156.173-10.5721 156.684-10.7153 157.131-10.8765 157.579-11.0376 157.955-11.1808 158.259-11.3062 158.564-11.4315 158.841-11.4941 159.092-11.4941 159.307-11.4941 159.513-11.4315 159.709-11.3062 159.906-11.1808 160.059-10.9302 160.166-10.5542 160.273-10.1782 160.372-9.66797 160.461-9.02344 160.551-8.37891 160.596-7.55534 160.596-6.55273ZM184.157-1.82617C184.157-1.4681 184.049-1.15479 183.835-0.88623 183.62-0.617676 183.253-0.39388 182.734-0.214844 182.214-0.0358073 181.525 0.09847 180.666 0.187988 179.806 0.277506 178.714 0.322266 177.389 0.322266 176.064 0.322266 174.972 0.277506 174.113 0.187988 173.254 0.09847 172.564-0.0358073 172.045-0.214844 171.526-0.39388 171.159-0.617676 170.944-0.88623 170.729-1.15479 170.622-1.4681 170.622-1.82617L170.622-49.7363C170.622-50.0944 170.729-50.4077 170.944-50.6763 171.159-50.9448 171.526-51.1686 172.045-51.3477 172.564-51.5267 173.254-51.661 174.113-51.7505 174.972-51.84 176.064-51.8848 177.389-51.8848 178.714-51.8848 179.806-51.84 180.666-51.7505 181.525-51.661 182.214-51.5267 182.734-51.3477 183.253-51.1686 183.62-50.9448 183.835-50.6763 184.049-50.4077 184.157-50.0944 184.157-49.7363ZM179.001-73.2617C179.251-73.6556 179.556-73.9958 179.914-74.2822 180.272-74.5687 180.719-74.7925 181.257-74.9536 181.794-75.1147 182.474-75.2311 183.298-75.3027 184.121-75.3743 185.124-75.4101 186.305-75.4101 187.952-75.4101 189.25-75.3385 190.199-75.1953 191.148-75.0521 191.829-74.8462 192.24-74.5776 192.652-74.3091 192.84-73.9958 192.804-73.6377 192.769-73.2796 192.589-72.9036 192.267-72.5098L181.847-60.0488C181.561-59.6908 181.274-59.3953 180.988-59.1626 180.701-58.9298 180.334-58.7419 179.887-58.5986 179.439-58.4554 178.875-58.348 178.195-58.2764 177.515-58.2048 176.655-58.1689 175.617-58.1689 174.364-58.1689 173.37-58.2227 172.636-58.3301 171.902-58.4375 171.392-58.6076 171.105-58.8403 170.819-59.0731 170.702-59.3685 170.756-59.7266 170.81-60.0846 170.998-60.4964 171.32-60.9619ZM242.988-1.82617C242.988-1.43229 242.899-1.10107 242.72-0.832519 242.541-0.563965 242.236-0.340169 241.807-0.161133 241.377 0.0179036 240.795 0.143229 240.061 0.214844 239.327 0.286458 238.423 0.322266 237.349 0.322266 236.203 0.322266 235.272 0.286458 234.556 0.214844 233.84 0.143229 233.258 0.0179036 232.81-0.161133 232.362-0.340169 232.04-0.563965 231.843-0.832519 231.646-1.10107 231.548-1.43229 231.548-1.82617L231.548-7.14355C229.077-4.49381 226.49-2.4349 223.787-0.966797 221.083 0.501302 218.084 1.23535 214.79 1.23535 211.138 1.23535 208.049 0.528157 205.525-0.88623 203-2.30062 200.942-4.20736 199.348-6.60644 197.755-9.00553 196.6-11.8075 195.884-15.0122 195.168-18.217 194.81-21.5918 194.81-25.1367 194.81-29.3978 195.266-33.2292 196.179-36.6309 197.092-40.0325 198.426-42.9329 200.181-45.332 201.935-47.7311 204.119-49.5752 206.733-50.8643 209.347-52.1533 212.355-52.7978 215.757-52.7978 218.442-52.7978 220.877-52.2518 223.062-51.1597 225.246-50.0675 227.412-48.4652 229.561-46.3525L229.561-72.2949C229.561-72.653 229.659-72.9753 229.856-73.2617 230.053-73.5482 230.411-73.7899 230.93-73.9868 231.449-74.1837 232.139-74.3359 232.998-74.4434 233.857-74.5508 234.95-74.6045 236.274-74.6045 237.599-74.6045 238.691-74.5508 239.551-74.4434 240.41-74.3359 241.09-74.1837 241.592-73.9868 242.093-73.7899 242.451-73.5482 242.666-73.2617 242.881-72.9753 242.988-72.653 242.988-72.2949ZM229.561-33.8379C227.627-36.2728 225.774-38.1348 224.001-39.4238 222.229-40.7129 220.376-41.3574 218.442-41.3574 216.688-41.3574 215.175-40.9188 213.904-40.0415 212.633-39.1642 211.612-37.9915 210.842-36.5234 210.072-35.0553 209.499-33.4172 209.124-31.6089 208.748-29.8006 208.56-27.9476 208.56-26.0498 208.56-24.0446 208.721-22.0931 209.043-20.1953 209.365-18.2975 209.893-16.6056 210.627-15.1196 211.361-13.6336 212.337-12.443 213.555-11.5479 214.772-10.6527 216.312-10.2051 218.174-10.2051 219.105-10.2051 220.009-10.3394 220.886-10.6079 221.763-10.8765 222.659-11.3151 223.572-11.9238 224.485-12.5326 225.425-13.3293 226.392-14.314 227.358-15.2987 228.415-16.5072 229.561-17.9395ZM305.007-26.2646C305.007-22.1826 304.469-18.4587 303.395-15.0928 302.321-11.7269 300.692-8.8265 298.507-6.3916 296.323-3.95671 293.584-2.07682 290.29-0.751953 286.995 0.572917 283.146 1.23535 278.742 1.23535 274.481 1.23535 270.775 0.644531 267.624-0.537109 264.473-1.71875 261.859-3.4375 259.782-5.69336 257.705-7.94922 256.165-10.7243 255.163-14.0186 254.16-17.3128 253.659-21.0726 253.659-25.2978 253.659-29.3799 254.205-33.1128 255.297-36.4966 256.389-39.8804 258.027-42.7808 260.212-45.1978 262.396-47.6147 265.126-49.4857 268.402-50.8105 271.679-52.1354 275.519-52.7978 279.923-52.7978 284.22-52.7978 287.944-52.216 291.095-51.0522 294.246-49.8885 296.851-48.1787 298.91-45.9228 300.969-43.667 302.5-40.8919 303.503-37.5977 304.505-34.3034 305.007-30.5257 305.007-26.2646ZM291.095-25.7275C291.095-28.0908 290.907-30.2661 290.531-32.2534 290.155-34.2407 289.52-35.9684 288.625-37.4365 287.729-38.9046 286.539-40.0505 285.053-40.874 283.567-41.6976 281.696-42.1094 279.44-42.1094 277.435-42.1094 275.68-41.7423 274.176-41.0083 272.673-40.2742 271.437-39.2 270.47-37.7856 269.504-36.3713 268.778-34.6704 268.295-32.6831 267.812-30.6958 267.57-28.431 267.57-25.8887 267.57-23.5254 267.767-21.3501 268.161-19.3628 268.555-17.3755 269.19-15.6478 270.068-14.1797 270.945-12.7116 272.135-11.5747 273.639-10.769 275.143-9.96338 277.005-9.56054 279.225-9.56055 281.266-9.56054 283.039-9.92757 284.543-10.6616 286.047-11.3957 287.282-12.4609 288.249-13.8574 289.215-15.2539 289.932-16.9458 290.397-18.9331 290.863-20.9204 291.095-23.1852 291.095-25.7275ZM343.929-6.55273C343.929-4.97721 343.831-3.76872 343.634-2.92725 343.437-2.08577 343.177-1.49495 342.855-1.15479 342.533-0.814616 342.058-0.510254 341.431-0.241699 340.805 0.0268555 340.071 0.259603 339.229 0.456543 338.388 0.653483 337.475 0.805664 336.49 0.913086 335.505 1.02051 334.512 1.07422 333.509 1.07422 330.824 1.07422 328.496 0.734049 326.527 0.0537109 324.557-0.626628 322.928-1.67399 321.639-3.08838 320.35-4.50277 319.401-6.28418 318.792-8.43262 318.184-10.5811 317.879-13.1234 317.879-16.0596L317.879-40.6055 312.132-40.6055C311.452-40.6055 310.933-41.0262 310.575-41.8677 310.216-42.7091 310.037-44.1146 310.037-46.084 310.037-47.1224 310.082-47.9997 310.172-48.7158 310.261-49.432 310.395-49.9959 310.575-50.4077 310.754-50.8195 310.977-51.1149 311.246-51.2939 311.514-51.473 311.828-51.5625 312.186-51.5625L317.879-51.5625 317.879-62.251C317.879-62.609 317.978-62.9313 318.175-63.2178 318.372-63.5042 318.73-63.7459 319.249-63.9429 319.768-64.1398 320.466-64.283 321.344-64.3726 322.221-64.4621 323.304-64.5068 324.593-64.5068 325.918-64.5068 327.019-64.4621 327.896-64.3726 328.774-64.283 329.463-64.1398 329.964-63.9429 330.465-63.7459 330.824-63.5042 331.038-63.2178 331.253-62.9313 331.361-62.609 331.361-62.251L331.361-51.5625 341.781-51.5625C342.139-51.5625 342.452-51.473 342.721-51.2939 342.989-51.1149 343.213-50.8195 343.392-50.4077 343.571-49.9959 343.705-49.432 343.795-48.7158 343.884-47.9997 343.929-47.1224 343.929-46.084 343.929-44.1146 343.75-42.7091 343.392-41.8677 343.034-41.0262 342.515-40.6055 341.834-40.6055L331.361-40.6055 331.361-18.1006C331.361-15.4867 331.772-13.5262 332.596-12.2192 333.42-10.9123 334.888-10.2588 337-10.2588 337.716-10.2588 338.361-10.3215 338.934-10.4468 339.507-10.5721 340.017-10.7153 340.465-10.8765 340.912-11.0376 341.288-11.1808 341.593-11.3062 341.897-11.4315 342.174-11.4941 342.425-11.4941 342.64-11.4941 342.846-11.4315 343.043-11.3062 343.24-11.1808 343.392-10.9302 343.499-10.5542 343.607-10.1782 343.705-9.66797 343.795-9.02344 343.884-8.37891 343.929-7.55534 343.929-6.55273ZM402.402-26.2646C402.402-22.1826 401.865-18.4587 400.791-15.0928 399.717-11.7269 398.088-8.8265 395.903-6.3916 393.719-3.95671 390.98-2.07682 387.686-0.751953 384.391 0.572917 380.542 1.23535 376.138 1.23535 371.877 1.23535 368.171 0.644531 365.02-0.537109 361.868-1.71875 359.255-3.4375 357.178-5.69336 355.101-7.94922 353.561-10.7243 352.559-14.0186 351.556-17.3128 351.055-21.0726 351.055-25.2978 351.055-29.3799 351.601-33.1128 352.693-36.4966 353.785-39.8804 355.423-42.7808 357.607-45.1978 359.792-47.6147 362.522-49.4857 365.798-50.8105 369.075-52.1354 372.915-52.7978 377.319-52.7978 381.616-52.7978 385.34-52.216 388.491-51.0522 391.642-49.8885 394.247-48.1787 396.306-45.9228 398.365-43.667 399.896-40.8919 400.898-37.5977 401.901-34.3034 402.402-30.5257 402.402-26.2646ZM388.491-25.7275C388.491-28.0908 388.303-30.2661 387.927-32.2534 387.551-34.2407 386.916-35.9684 386.02-37.4365 385.125-38.9046 383.935-40.0505 382.449-40.874 380.963-41.6976 379.092-42.1094 376.836-42.1094 374.831-42.1094 373.076-41.7423 371.572-41.0083 370.068-40.2742 368.833-39.2 367.866-37.7856 366.899-36.3713 366.174-34.6704 365.691-32.6831 365.207-30.6958 364.966-28.431 364.966-25.8887 364.966-23.5254 365.163-21.3501 365.557-19.3628 365.95-17.3755 366.586-15.6478 367.463-14.1797 368.341-12.7116 369.531-11.5747 371.035-10.769 372.539-9.96338 374.401-9.56054 376.621-9.56055 378.662-9.56054 380.435-9.92757 381.938-10.6616 383.442-11.3957 384.678-12.4609 385.645-13.8574 386.611-15.2539 387.327-16.9458 387.793-18.9331 388.258-20.9204 388.491-23.1852 388.491-25.7275Z" fill="#FFFFFF" fill-rule="nonzero" fill-opacity="1" transform="matrix(1 0 0 1 73.8615 144)"/></g></g><text fill="#FFFFFF" fill-opacity="1" font-family="Calibri,Calibri_MSFontService,sans-serif" font-style="normal" font-variant="normal" font-weight="700" font-stretch="normal" font-size="110" text-anchor="start" direction="ltr" writing-mode="lr-tb" unicode-bidi="normal" text-decoration="none" transform="matrix(1 0 0 1 1872.4 963)">Antdoto</text><g clip-path="url(#clip26)" filter="url(#fx7)" transform="translate(1875 961)"><g clip-path="url(#clip27)"><path d="M41.5078-3.32422C41.5078-2.78516 41.4704-2.30599 41.3955-1.88672 41.3206-1.46745 41.2158-1.11556 41.0811-0.831055 40.9463-0.546549 40.7666-0.336914 40.542-0.202148 40.3174-0.0673828 40.0703 0 39.8008 0L7.68164 0C7.26237 0 6.89551-0.0524089 6.58105-0.157227 6.2666-0.262044 5.99707-0.434245 5.77246-0.673828 5.54785-0.913411 5.38314-1.25781 5.27832-1.70703 5.1735-2.15625 5.12109-2.71029 5.12109-3.36914 5.12109-3.9681 5.14426-4.49219 5.19058-4.94141 5.23691-5.39062 5.33716-5.78743 5.49135-6.13184 5.64553-6.47624 5.83844-6.82064 6.07007-7.16504 6.3017-7.50944 6.60258-7.8763 6.97272-8.26562L18.5913-20.2148C21.2764-22.97 23.429-25.4408 25.0492-27.627 26.6694-29.8131 27.9193-31.8047 28.7988-33.6016 29.6783-35.3984 30.2569-37.0306 30.5346-38.498 30.8123-39.9655 30.9512-41.3431 30.9512-42.6309 30.9512-43.9186 30.7349-45.139 30.3023-46.292 29.8697-47.445 29.2439-48.4557 28.425-49.3242 27.6061-50.1927 26.5787-50.8815 25.3426-51.3906 24.1065-51.8997 22.6851-52.1543 21.0782-52.1543 19.1933-52.1543 17.5015-51.8997 16.0027-51.3906 14.5039-50.8815 13.1905-50.3275 12.0626-49.7285 10.9346-49.1296 9.99219-48.5755 9.2353-48.0664 8.47842-47.5573 7.91444-47.3027 7.54337-47.3027 7.32718-47.3027 7.13404-47.3626 6.96394-47.4824 6.79385-47.6022 6.65475-47.7969 6.54666-48.0664 6.43857-48.3359 6.35364-48.6953 6.29187-49.1445 6.2301-49.5937 6.19922-50.1328 6.19922-50.7617 6.19922-51.2109 6.21419-51.6003 6.24414-51.9297 6.27409-52.2591 6.3265-52.5436 6.40137-52.7832 6.47624-53.0228 6.57357-53.2474 6.69336-53.457 6.81315-53.6667 7.05273-53.9287 7.41211-54.2432 7.77148-54.5576 8.3929-54.9844 9.27637-55.5234 10.1598-56.0625 11.2679-56.5941 12.6006-57.1182 13.9333-57.6422 15.4007-58.084 17.0029-58.4434 18.6051-58.8027 20.2897-58.9824 22.0566-58.9824 24.8717-58.9824 27.335-58.5856 29.4463-57.792 31.5576-56.9984 33.3096-55.9128 34.7021-54.5352 36.0947-53.1575 37.1354-51.5553 37.8242-49.7285 38.513-47.9017 38.8574-45.9551 38.8574-43.8887 38.8574-42.0319 38.6927-40.1826 38.3633-38.3408 38.0339-36.499 37.3376-34.5075 36.2744-32.3662 35.2113-30.2249 33.6764-27.8441 31.6699-25.2236 29.6634-22.6032 26.998-19.5859 23.6738-16.1719L14.4648-6.55859 39.7559-6.55859C39.9954-6.55859 40.2275-6.49121 40.4521-6.35644 40.6768-6.22168 40.8714-6.01953 41.0361-5.75 41.2008-5.48047 41.3206-5.14355 41.3955-4.73926 41.4704-4.33496 41.5078-3.86328 41.5078-3.32422ZM64.2402-35.9375C64.2402-34.9792 64.1728-34.1706 64.0381-33.5117 63.9033-32.8529 63.6488-32.3213 63.2744-31.917 62.9001-31.5127 62.4134-31.2282 61.8144-31.0635 61.2155-30.8988 60.4518-30.8164 59.5234-30.8164 58.5651-30.8164 57.7865-30.8988 57.1875-31.0635 56.5885-31.2282 56.1094-31.5127 55.75-31.917 55.3906-32.3213 55.1435-32.8529 55.0088-33.5117 54.874-34.1706 54.8066-34.9792 54.8066-35.9375 54.8066-36.9557 54.874-37.8018 55.0088-38.4756 55.1435-39.1494 55.3906-39.6885 55.75-40.0928 56.1094-40.4971 56.5885-40.7816 57.1875-40.9463 57.7865-41.111 58.5651-41.1934 59.5234-41.1934 60.4518-41.1934 61.2155-41.111 61.8144-40.9463 62.4134-40.7816 62.9001-40.4971 63.2744-40.0928 63.6488-39.6885 63.9033-39.1494 64.0381-38.4756 64.1728-37.8018 64.2402-36.9557 64.2402-35.9375ZM64.2402-4.76172C64.2402-3.77344 64.1728-2.94987 64.0381-2.29102 63.9033-1.63216 63.6488-1.10059 63.2744-0.696289 62.9001-0.291992 62.4134-0.00748697 61.8144 0.157227 61.2155 0.32194 60.4518 0.404297 59.5234 0.404297 58.5651 0.404297 57.7865 0.32194 57.1875 0.157227 56.5885-0.00748697 56.1094-0.291992 55.75-0.696289 55.3906-1.10059 55.1435-1.63216 55.0088-2.29102 54.874-2.94987 54.8066-3.77344 54.8066-4.76172 54.8066-5.75 54.874-6.58105 55.0088-7.25488 55.1435-7.92871 55.3906-8.46029 55.75-8.84961 56.1094-9.23893 56.5885-9.52344 57.1875-9.70312 57.7865-9.88281 58.5651-9.97266 59.5234-9.97266 60.4518-9.97266 61.2155-9.88281 61.8144-9.70312 62.4134-9.52344 62.9001-9.23893 63.2744-8.84961 63.6488-8.46029 63.9033-7.92871 64.0381-7.25488 64.1728-6.58105 64.2402-5.75 64.2402-4.76172ZM112.684-3.05469C112.684-2.48568 112.639-2.00651 112.549-1.61719 112.46-1.22786 112.34-0.913411 112.19-0.673828 112.04-0.434245 111.868-0.262044 111.673-0.157227 111.479-0.0524089 111.277 0 111.067 0L80.6999 0C80.4902 0 80.2956-0.0524089 80.1159-0.157227 79.9362-0.262044 79.764-0.434245 79.5993-0.673828 79.4346-0.913411 79.3073-1.22786 79.2174-1.61719 79.1276-2.00651 79.0827-2.48568 79.0827-3.05469 79.0827-3.59375 79.1276-4.05794 79.2174-4.44727 79.3073-4.83659 79.4196-5.15853 79.5544-5.41309 79.6891-5.66764 79.8538-5.8623 80.0485-5.99707 80.2432-6.13184 80.4603-6.19922 80.6999-6.19922L92.8288-6.19922 92.8288-50.4023 81.5983-43.709C81.0293-43.4095 80.5726-43.2298 80.2282-43.1699 79.8838-43.11 79.6068-43.1774 79.3971-43.3721 79.1875-43.5667 79.0452-43.8887 78.9704-44.3379 78.8955-44.7871 78.8581-45.3561 78.8581-46.0449 78.8581-46.554 78.8805-46.9883 78.9255-47.3477 78.9704-47.707 79.0378-48.0065 79.1276-48.2461 79.2174-48.4857 79.3447-48.6953 79.5094-48.875 79.6741-49.0547 79.8913-49.2344 80.1608-49.4141L93.5475-57.9941C93.6673-58.084 93.817-58.1588 93.9967-58.2187 94.1764-58.2786 94.401-58.3385 94.6706-58.3984 94.9401-58.4583 95.2545-58.4958 95.6139-58.5107 95.9733-58.5257 96.4225-58.5332 96.9616-58.5332 97.6803-58.5332 98.2793-58.5033 98.7585-58.4434 99.2376-58.3835 99.612-58.3011 99.8815-58.1963 100.151-58.0915 100.331-57.9567 100.421-57.792 100.51-57.6273 100.555-57.4551 100.555-57.2754L100.555-6.19922 111.067-6.19922C111.307-6.19922 111.531-6.13184 111.741-5.99707 111.951-5.8623 112.123-5.66764 112.257-5.41309 112.392-5.15853 112.497-4.83659 112.572-4.44727 112.647-4.05794 112.684-3.59375 112.684-3.05469ZM159.09-3.05469C159.09-2.48568 159.046-2.00651 158.956-1.61719 158.866-1.22786 158.746-0.913411 158.596-0.673828 158.447-0.434245 158.274-0.262044 158.08-0.157227 157.885-0.0524089 157.683 0 157.473 0L127.106 0C126.896 0 126.702-0.0524089 126.522-0.157227 126.342-0.262044 126.17-0.434245 126.006-0.673828 125.841-0.913411 125.714-1.22786 125.624-1.61719 125.534-2.00651 125.489-2.48568 125.489-3.05469 125.489-3.59375 125.534-4.05794 125.624-4.44727 125.714-4.83659 125.826-5.15853 125.961-5.41309 126.095-5.66764 126.26-5.8623 126.455-5.99707 126.649-6.13184 126.867-6.19922 127.106-6.19922L139.235-6.19922 139.235-50.4023 128.005-43.709C127.436-43.4095 126.979-43.2298 126.634-43.1699 126.29-43.11 126.013-43.1774 125.803-43.3721 125.594-43.5667 125.451-43.8887 125.377-44.3379 125.302-44.7871 125.264-45.3561 125.264-46.0449 125.264-46.554 125.287-46.9883 125.332-47.3477 125.377-47.707 125.444-48.0065 125.534-48.2461 125.624-48.4857 125.751-48.6953 125.916-48.875 126.08-49.0547 126.298-49.2344 126.567-49.4141L139.954-57.9941C140.074-58.084 140.223-58.1588 140.403-58.2187 140.583-58.2786 140.807-58.3385 141.077-58.3984 141.346-58.4583 141.661-58.4958 142.02-58.5107 142.38-58.5257 142.829-58.5332 143.368-58.5332 144.087-58.5332 144.686-58.5033 145.165-58.4434 145.644-58.3835 146.018-58.3011 146.288-58.1963 146.557-58.0915 146.737-57.9567 146.827-57.792 146.917-57.6273 146.962-57.4551 146.962-57.2754L146.962-6.19922 157.473-6.19922C157.713-6.19922 157.937-6.13184 158.147-5.99707 158.357-5.8623 158.529-5.66764 158.664-5.41309 158.798-5.15853 158.903-4.83659 158.978-4.44727 159.053-4.05794 159.09-3.59375 159.09-3.05469Z" fill="#FFFFFF" fill-rule="nonzero" fill-opacity="1" transform="matrix(1 0 0 1 62.095 121)"/></g></g><text fill="#FFFFFF" fill-opacity="1" font-family="Calibri,Calibri_MSFontService,sans-serif" font-style="normal" font-variant="normal" font-weight="400" font-stretch="normal" font-size="92" text-anchor="start" direction="ltr" writing-mode="lr-tb" unicode-bidi="normal" text-decoration="none" transform="matrix(1 0 0 1 1933.13 1078)">2:11</text><g clip-path="url(#clip28)" filter="url(#fx8)" transform="translate(2039 961)"><g clip-path="url(#clip29)"><path d="M25.0664-22.6855C25.0664-21.5176 24.9316-20.709 24.6621-20.2598 24.3926-19.8105 24.0033-19.5859 23.4941-19.5859L4.7168-19.5859C4.17773-19.5859 3.77344-19.818 3.50391-20.2822 3.23437-20.7464 3.09961-21.5475 3.09961-22.6855 3.09961-23.8236 3.23437-24.6172 3.50391-25.0664 3.77344-25.5156 4.17773-25.7402 4.7168-25.7402L23.4941-25.7402C23.7337-25.7402 23.9508-25.6953 24.1455-25.6055 24.3402-25.5156 24.5049-25.3434 24.6396-25.0889 24.7744-24.8343 24.8792-24.5124 24.9541-24.123 25.029-23.7337 25.0664-23.2546 25.0664-22.6855Z" fill="#FFFFFF" fill-rule="nonzero" fill-opacity="1" transform="matrix(1 0 0 1 61.9492 121)"/></g></g><text fill="#FFFFFF" fill-opacity="1" font-family="Calibri,Calibri_MSFontService,sans-serif" font-style="normal" font-variant="normal" font-weight="400" font-stretch="normal" font-size="92" text-anchor="start" direction="ltr" writing-mode="lr-tb" unicode-bidi="normal" text-decoration="none" transform="matrix(1 0 0 1 2096.98 1078)">-</text><g clip-path="url(#clip30)" filter="url(#fx9)" transform="translate(2067 961)"><g clip-path="url(#clip31)"><path d="M41.6426-3.05469C41.6426-2.48568 41.5977-2.00651 41.5078-1.61719 41.418-1.22786 41.2982-0.913411 41.1484-0.673828 40.9987-0.434245 40.8265-0.262044 40.6318-0.157227 40.4372-0.0524089 40.235 0 40.0254 0L9.6582 0C9.44857 0 9.2539-0.0524089 9.07422-0.157227 8.89453-0.262044 8.72233-0.434245 8.55762-0.673828 8.3929-0.913411 8.26562-1.22786 8.17578-1.61719 8.08594-2.00651 8.04101-2.48568 8.04101-3.05469 8.04101-3.59375 8.08594-4.05794 8.17578-4.44727 8.26562-4.83659 8.37793-5.15853 8.51269-5.41309 8.64746-5.66764 8.81217-5.8623 9.00683-5.99707 9.2015-6.13184 9.41862-6.19922 9.6582-6.19922L21.7871-6.19922 21.7871-50.4023 10.5566-43.709C9.98763-43.4095 9.53092-43.2298 9.18652-43.1699 8.84212-43.11 8.5651-43.1774 8.35547-43.3721 8.14583-43.5667 8.00358-43.8887 7.92871-44.3379 7.85384-44.7871 7.81641-45.3561 7.81641-46.0449 7.81641-46.554 7.83887-46.9883 7.88379-47.3477 7.92871-47.707 7.99609-48.0065 8.08594-48.2461 8.17578-48.4857 8.30306-48.6953 8.46777-48.875 8.63249-49.0547 8.84961-49.2344 9.11914-49.4141L22.5059-57.9941C22.6256-58.084 22.7754-58.1588 22.9551-58.2187 23.1348-58.2786 23.3594-58.3385 23.6289-58.3984 23.8984-58.4583 24.2129-58.4958 24.5723-58.5107 24.9316-58.5257 25.3809-58.5332 25.9199-58.5332 26.6387-58.5332 27.2376-58.5033 27.7168-58.4434 28.196-58.3835 28.5703-58.3011 28.8398-58.1963 29.1094-58.0915 29.2891-57.9567 29.3789-57.792 29.4687-57.6273 29.5137-57.4551 29.5137-57.2754L29.5137-6.19922 40.0254-6.19922C40.265-6.19922 40.4896-6.13184 40.6992-5.99707 40.9088-5.8623 41.081-5.66764 41.2158-5.41309 41.3506-5.15853 41.4554-4.83659 41.5303-4.44727 41.6051-4.05794 41.6426-3.59375 41.6426-3.05469ZM87.6445-18.6875C87.6445-15.5729 87.1204-12.8027 86.0723-10.377 85.0241-7.95117 83.5417-5.90723 81.625-4.24512 79.7083-2.58301 77.4248-1.31771 74.7744-0.449219 72.124 0.419271 69.1816 0.853516 65.9473 0.853516 64.1504 0.853516 62.4434 0.726237 60.8262 0.47168 59.209 0.217122 57.7715-0.0973307 56.5137-0.47168 55.2559-0.846029 54.2227-1.21289 53.4141-1.57227 52.6055-1.93164 52.0889-2.21615 51.8643-2.42578 51.6396-2.63542 51.4824-2.83008 51.3926-3.00977 51.3027-3.18945 51.2204-3.40658 51.1455-3.66113 51.0706-3.91569 51.0182-4.23763 50.9883-4.62695 50.9583-5.01628 50.9434-5.48047 50.9434-6.01953 50.9434-6.52865 50.9658-6.98535 51.0107-7.38965 51.0557-7.79394 51.138-8.12337 51.2578-8.37793 51.3776-8.63249 51.5199-8.81966 51.6846-8.93945 51.8493-9.05924 52.0365-9.11914 52.2461-9.11914 52.5456-9.11914 53.0098-8.93196 53.6387-8.55762 54.2676-8.18327 55.1136-7.77897 56.1768-7.34473 57.2399-6.91048 58.5576-6.4987 60.1299-6.10937 61.7021-5.72005 63.5664-5.52539 65.7226-5.52539 67.7292-5.52539 69.571-5.76497 71.248-6.24414 72.9251-6.72331 74.3701-7.472 75.583-8.49023 76.7959-9.50846 77.7467-10.7887 78.4355-12.3311 79.1243-13.8734 79.4687-15.7526 79.4687-17.9687 79.4687-19.8255 79.1768-21.4652 78.5928-22.8877 78.0088-24.3102 77.1103-25.4932 75.8975-26.4365 74.6846-27.3799 73.1497-28.0837 71.293-28.5478 69.4362-29.012 67.22-29.2441 64.6445-29.2441 62.8177-29.2441 61.2454-29.1543 59.9277-28.9746 58.61-28.7949 57.3822-28.7051 56.2441-28.7051 55.4056-28.7051 54.8066-28.8997 54.4473-29.2891 54.0879-29.6784 53.9082-30.4271 53.9082-31.5352L53.9082-55.209C53.9082-56.1973 54.1403-56.931 54.6045-57.4102 55.0687-57.8893 55.735-58.1289 56.6035-58.1289L82.3437-58.1289C82.5833-58.1289 82.8154-58.0615 83.04-57.9268 83.2646-57.792 83.4518-57.5898 83.6016-57.3203 83.7513-57.0508 83.8636-56.7064 83.9385-56.2871 84.0133-55.8678 84.0508-55.3737 84.0508-54.8047 84.0508-53.7266 83.9073-52.888 83.6205-52.2891 83.3337-51.6901 82.9322-51.3906 82.416-51.3906L61.6348-51.3906 61.6348-35.084C62.6446-35.2337 63.676-35.3236 64.7291-35.3535 65.7822-35.3835 67.0013-35.3984 68.3864-35.3984 71.5885-35.3984 74.387-35.0016 76.7819-34.208 79.1767-33.4144 81.1748-32.2913 82.7761-30.8389 84.3774-29.3864 85.5891-27.6269 86.4113-25.5605 87.2334-23.4941 87.6445-21.2031 87.6445-18.6875Z" fill="#FFFFFF" fill-rule="nonzero" fill-opacity="1" transform="matrix(1 0 0 1 62.022 121)"/></g></g><text fill="#FFFFFF" fill-opacity="1" font-family="Calibri,Calibri_MSFontService,sans-serif" font-style="normal" font-variant="normal" font-weight="400" font-stretch="normal" font-size="92" text-anchor="start" direction="ltr" writing-mode="lr-tb" unicode-bidi="normal" text-decoration="none" transform="matrix(1 0 0 1 2125.06 1078)">15</text></g></svg>