<svg width="816" height="376" xmlns="http://www.w3.org/2000/svg" xmlns:xlink="http://www.w3.org/1999/xlink" xml:space="preserve" overflow="hidden"><defs><filter id="fx0" x="-10%" y="-10%" width="120%" height="120%" filterUnits="userSpaceOnUse" primitiveUnits="userSpaceOnUse"><feComponentTransfer color-interpolation-filters="sRGB"><feFuncR type="discrete" tableValues="0.000000 0.000000"/><feFuncG type="discrete" tableValues="0.000000 0.000000"/><feFuncB type="discrete" tableValues="0.000000 0.000000"/><feFuncA type="linear" slope="0.349020" intercept="0.000000"/></feComponentTransfer><feGaussianBlur stdDeviation="4.811899 4.811899"/></filter><filter id="fx1" x="-10%" y="-10%" width="120%" height="120%" filterUnits="userSpaceOnUse" primitiveUnits="userSpaceOnUse"><feComponentTransfer color-interpolation-filters="sRGB"><feFuncR type="discrete" tableValues="0.000000 0.000000"/><feFuncG type="discrete" tableValues="0.000000 0.000000"/><feFuncB type="discrete" tableValues="0.000000 0.000000"/><feFuncA type="linear" slope="0.431373" intercept="0.000000"/></feComponentTransfer><feGaussianBlur stdDeviation="2.102971 2.102971"/></filter><filter id="fx2" x="-10%" y="-10%" width="120%" height="120%" filterUnits="userSpaceOnUse" primitiveUnits="userSpaceOnUse"><feComponentTransfer color-interpolation-filters="sRGB"><feFuncR type="discrete" tableValues="0.000000 0.000000"/><feFuncG type="discrete" tableValues="0.000000 0.000000"/><feFuncB type="discrete" tableValues="0.000000 0.000000"/><feFuncA type="linear" slope="0.431373" intercept="0.000000"/></feComponentTransfer><feGaussianBlur stdDeviation="1.869331 1.869331"/></filter><filter id="fx3" x="-10%" y="-10%" width="120%" height="120%" filterUnits="userSpaceOnUse" primitiveUnits="userSpaceOnUse"><feComponentTransfer color-interpolation-filters="sRGB"><feFuncR type="discrete" tableValues="0.000000 0.000000"/><feFuncG type="discrete" tableValues="0.000000 0.000000"/><feFuncB type="discrete" tableValues="0.000000 0.000000"/><feFuncA type="linear" slope="0.349020" intercept="0.000000"/></feComponentTransfer><feGaussianBlur stdDeviation="4.811899 4.811899"/></filter><filter id="fx4" x="-10%" y="-10%" width="120%" height="120%" filterUnits="userSpaceOnUse" primitiveUnits="userSpaceOnUse"><feComponentTransfer color-interpolation-filters="sRGB"><feFuncR type="discrete" tableValues="0.000000 0.000000"/><feFuncG type="discrete" tableValues="0.000000 0.000000"/><feFuncB type="discrete" tableValues="0.000000 0.000000"/><feFuncA type="linear" slope="0.431373" intercept="0.000000"/></feComponentTransfer><feGaussianBlur stdDeviation="2.102971 2.102971"/></filter><filter id="fx5" x="-10%" y="-10%" width="120%" height="120%" filterUnits="userSpaceOnUse" primitiveUnits="userSpaceOnUse"><feComponentTransfer color-interpolation-filters="sRGB"><feFuncR type="discrete" tableValues="0.000000 0.000000"/><feFuncG type="discrete" tableValues="0.000000 0.000000"/><feFuncB type="discrete" tableValues="0.000000 0.000000"/><feFuncA type="linear" slope="0.431373" intercept="0.000000"/></feComponentTransfer><feGaussianBlur stdDeviation="1.869331 1.869331"/></filter><clipPath id="clip6"><rect x="1672" y="1081" width="816" height="376"/></clipPath><clipPath id="clip7"><path d="M1693.5 1126.5 1693.5 1365.5 2468.5 1365.5 2468.5 1126.5ZM1672 1081 2488 1081 2488 1457 1672 1457Z" fill-rule="evenodd" clip-rule="evenodd"/></clipPath><clipPath id="clip8"><rect x="1.56445" y="1.86475" width="806.871" height="270.871"/></clipPath><clipPath id="clip9"><rect x="0" y="0" width="810" height="275"/></clipPath><clipPath id="clip10"><rect x="-14.4357" y="-14.4357" width="661.871" height="402.871"/></clipPath><clipPath id="clip11"><rect x="0" y="0" width="633" height="374"/></clipPath><clipPath id="clip12"><rect x="-6.30891" y="-6.30891" width="615.618" height="259.618"/></clipPath><clipPath id="clip13"><rect x="0" y="0" width="603" height="247"/></clipPath><clipPath id="clip14"><rect x="-5.60799" y="-5.60799" width="299.216" height="217.216"/></clipPath><clipPath id="clip15"><rect x="0" y="0" width="288" height="206"/></clipPath><clipPath id="clip16"><rect x="-6.30896" y="-6.30896" width="615.618" height="259.618"/></clipPath><clipPath id="clip17"><rect x="0" y="0" width="603" height="247"/></clipPath><clipPath id="clip18"><rect x="-5.60803" y="-5.60803" width="299.216" height="218.216"/></clipPath><clipPath id="clip19"><rect x="0" y="0" width="288" height="207"/></clipPath></defs><g clip-path="url(#clip6)" transform="translate(-1672 -1081)"><g clip-path="url(#clip7)"><g clip-path="url(#clip8)" filter="url(#fx0)" transform="translate(1676 1117)"><g clip-path="url(#clip9)"><rect x="17.5001" y="17.8005" width="775" height="239" stroke="#000000" stroke-width="3" stroke-linecap="butt" stroke-linejoin="round" stroke-miterlimit="10" stroke-opacity="1" fill="#404040" fill-opacity="1"/></g></g><g clip-path="url(#clip10)" filter="url(#fx3)" transform="translate(1768 1082)"><g clip-path="url(#clip11)"><g clip-path="url(#clip12)" filter="url(#fx1)" transform="translate(15 15)"><g clip-path="url(#clip13)" transform="translate(-1768 -1082)"><path d="M45.7617-5.9082C45.7617-4.83398 45.717-3.92985 45.6274-3.1958 45.5379-2.46175 45.4036-1.85303 45.2246-1.36963 45.0456-0.88623 44.8218-0.537109 44.5532-0.322266 44.2847-0.107422 43.9714 0 43.6133 0L11.7627 0C10.5811 0 9.5874-0.349121 8.78174-1.04736 7.97607-1.74561 7.57324-2.88249 7.57324-4.45801L7.57324-67.5684C7.57324-67.9264 7.68962-68.2487 7.92236-68.5351 8.15511-68.8216 8.54004-69.0544 9.07715-69.2334 9.61426-69.4124 10.3394-69.5557 11.2524-69.6631 12.1655-69.7705 13.3024-69.8242 14.6631-69.8242 16.0596-69.8242 17.2054-69.7705 18.1006-69.6631 18.9958-69.5557 19.7119-69.4124 20.249-69.2334 20.7861-69.0544 21.1711-68.8216 21.4038-68.5351 21.6366-68.2487 21.7529-67.9264 21.7529-67.5684L21.7529-11.6553 43.6133-11.6553C43.9714-11.6553 44.2847-11.5568 44.5532-11.3599 44.8218-11.1629 45.0456-10.8407 45.2246-10.3931 45.4036-9.94547 45.5379-9.35465 45.6274-8.6206 45.717-7.88655 45.7617-6.98242 45.7617-5.9082ZM97.4316-27.1777C97.4316-25.5306 97.0646-24.3131 96.3306-23.5254 95.5965-22.7376 94.585-22.3437 93.2959-22.3437L64.1309-22.3437C64.1309-20.3027 64.3726-18.4497 64.8559-16.7847 65.3393-15.1196 66.1092-13.7052 67.1655-12.5415 68.2218-11.3778 69.5825-10.4915 71.2476-9.88281 72.9126-9.27409 74.9088-8.96973 77.2363-8.96973 79.5996-8.96973 81.6764-9.13981 83.4668-9.47998 85.2571-9.82015 86.8058-10.1961 88.1128-10.6079 89.4198-11.0197 90.5029-11.3957 91.3623-11.7358 92.2217-12.076 92.9199-12.2461 93.457-12.2461 93.7793-12.2461 94.0478-12.1834 94.2627-12.0581 94.4775-11.9328 94.6566-11.709 94.7998-11.3867 94.943-11.0645 95.0415-10.6079 95.0952-10.0171 95.1489-9.42627 95.1758-8.68327 95.1758-7.78809 95.1758-7.00033 95.1579-6.32894 95.1221-5.77393 95.0863-5.21891 95.0325-4.74447 94.9609-4.35059 94.8893-3.95671 94.7819-3.62549 94.6387-3.35693 94.4954-3.08838 94.3074-2.82878 94.0747-2.57812 93.8419-2.32747 93.2064-1.9873 92.168-1.55762 91.1295-1.12793 89.8047-0.707194 88.1934-0.29541 86.582 0.116374 84.7379 0.474447 82.6611 0.778809 80.5843 1.08317 78.3642 1.23535 76.001 1.23535 71.7399 1.23535 68.007 0.698242 64.8022-0.375977 61.5975-1.4502 58.9209-3.07943 56.7725-5.26367 54.624-7.44792 53.0216-10.2051 51.9653-13.5352 50.909-16.8652 50.3809-20.7682 50.3809-25.2441 50.3809-29.5052 50.9359-33.3455 52.0459-36.7651 53.1559-40.1847 54.7672-43.0851 56.8799-45.4663 58.9925-47.8475 61.5617-49.6647 64.5874-50.918 67.6131-52.1712 71.0238-52.7978 74.8193-52.7978 78.8297-52.7978 82.2583-52.207 85.105-51.0254 87.9516-49.8437 90.2881-48.2056 92.1143-46.1108 93.9404-44.0161 95.2832-41.5365 96.1426-38.6719 97.0019-35.8073 97.4316-32.6921 97.4316-29.3262ZM84.3262-31.0449C84.4336-34.8405 83.6727-37.8214 82.0434-39.9878 80.4142-42.1541 77.8988-43.2373 74.4971-43.2373 72.7783-43.2373 71.2834-42.915 70.0122-42.2705 68.741-41.626 67.6847-40.7576 66.8433-39.6655 66.0018-38.5734 65.3573-37.2843 64.9097-35.7983 64.4621-34.3123 64.2025-32.7279 64.1309-31.0449ZM151.93-46.4062C151.93-44.6875 151.733-43.4163 151.34-42.5928 150.946-41.7692 150.462-41.3574 149.889-41.3574L144.25-41.3574C145.037-40.498 145.601-39.5223 145.942-38.4302 146.282-37.338 146.452-36.2012 146.452-35.0195 146.452-32.2266 145.986-29.7469 145.055-27.5806 144.124-25.4142 142.791-23.5881 141.054-22.102 139.317-20.616 137.222-19.4881 134.77-18.7183 132.317-17.9484 129.587-17.5635 126.579-17.5635 125.039-17.5635 123.571-17.7515 122.174-18.1274 120.778-18.5034 119.704-18.9421 118.952-19.4434 118.522-18.9779 118.137-18.4228 117.797-17.7783 117.457-17.1338 117.287-16.4176 117.287-15.6299 117.287-14.5915 117.743-13.741 118.656-13.0786 119.569-12.4162 120.85-12.0492 122.497-11.9775L134.152-11.5479C136.873-11.4404 139.299-11.0555 141.43-10.3931 143.56-9.73063 145.351-8.79964 146.801-7.6001 148.251-6.40055 149.361-4.95931 150.131-3.27637 150.901-1.59342 151.286 0.322266 151.286 2.4707 151.286 4.83398 150.767 7.06299 149.728 9.15771 148.69 11.2524 147.132 13.0697 145.055 14.6094 142.979 16.1491 140.374 17.3665 137.24 18.2617 134.107 19.1569 130.446 19.6045 126.257 19.6045 122.174 19.6045 118.692 19.2822 115.81 18.6377 112.927 17.9932 110.564 17.098 108.72 15.9521 106.876 14.8063 105.533 13.4367 104.692 11.8433 103.85 10.2498 103.429 8.50423 103.429 6.60644 103.429 5.4248 103.582 4.29687 103.886 3.22266 104.19 2.14844 104.638 1.11898 105.229 0.134277 105.819-0.850423 106.545-1.79036 107.404-2.68555 108.263-3.58073 109.248-4.4401 110.358-5.26367 108.818-6.08724 107.628-7.20622 106.786-8.6206 105.945-10.035 105.524-11.5837 105.524-13.2666 105.524-15.3792 106.007-17.3039 106.974-19.0405 107.941-20.7772 109.194-22.3437 110.734-23.7402 109.481-24.9935 108.478-26.4974 107.726-28.252 106.974-30.0065 106.598-32.1908 106.598-34.8047 106.598-37.5977 107.091-40.0952 108.075-42.2974 109.06-44.4995 110.43-46.3615 112.184-47.8833 113.939-49.4051 116.034-50.5688 118.468-51.3745 120.903-52.1802 123.589-52.583 126.525-52.583 128.029-52.583 129.47-52.4935 130.849-52.3144 132.227-52.1354 133.507-51.8848 134.689-51.5625L149.889-51.5625C150.498-51.5625 150.99-51.1686 151.366-50.3809 151.742-49.5931 151.93-48.2682 151.93-46.4062ZM134.582-35.0732C134.582-37.6514 133.866-39.6566 132.433-41.0889 131.001-42.5212 128.978-43.2373 126.364-43.2373 125.039-43.2373 123.875-43.0135 122.873-42.5659 121.87-42.1183 121.038-41.5096 120.375-40.7397 119.713-39.9699 119.22-39.0747 118.898-38.0542 118.576-37.0337 118.415-35.9684 118.415-34.8584 118.415-32.4235 119.131-30.4989 120.563-29.0845 121.995-27.6701 123.983-26.9629 126.525-26.9629 127.886-26.9629 129.067-27.1777 130.07-27.6074 131.073-28.0371 131.905-28.6279 132.568-29.3799 133.23-30.1318 133.731-31.0002 134.071-31.9849 134.412-32.9696 134.582-33.999 134.582-35.0732ZM137.751 3.16895C137.751 1.55762 137.106 0.322266 135.817-0.537109 134.528-1.39648 132.756-1.86198 130.5-1.93359L120.885-2.20215C119.954-1.52181 119.211-0.868327 118.656-0.241699 118.101 0.384928 117.654 0.9847 117.314 1.55762 116.973 2.13053 116.75 2.68555 116.642 3.22266 116.535 3.75977 116.481 4.31478 116.481 4.88769 116.481 6.67806 117.385 8.03874 119.194 8.96973 121.002 9.90071 123.553 10.3662 126.847 10.3662 128.888 10.3662 130.607 10.1603 132.004 9.74853 133.4 9.33675 134.528 8.79069 135.387 8.11035 136.247 7.43001 136.855 6.66911 137.214 5.82764 137.572 4.98617 137.751 4.09993 137.751 3.16895ZM201.702-1.66504C201.702-1.16374 201.523-0.769857 201.165-0.483398 200.807-0.19694 200.243 0.00895182 199.473 0.134277 198.704 0.259603 197.567 0.322266 196.063 0.322266 194.451 0.322266 193.279 0.259603 192.545 0.134277 191.811 0.00895182 191.291-0.19694 190.987-0.483398 190.683-0.769857 190.531-1.16374 190.531-1.66504L190.531-5.47852C188.561-3.36589 186.314-1.71875 183.79-0.537109 181.265 0.644531 178.464 1.23535 175.384 1.23535 172.842 1.23535 170.505 0.904134 168.375 0.241699 166.244-0.420736 164.4-1.40544 162.843-2.7124 161.285-4.01937 160.076-5.63965 159.217-7.57324 158.358-9.50683 157.928-11.7627 157.928-14.3408 157.928-17.1338 158.474-19.5597 159.566-21.6187 160.658-23.6776 162.288-25.3784 164.454-26.7212 166.62-28.064 169.315-29.0576 172.537-29.7021 175.76-30.3467 179.502-30.6689 183.763-30.6689L188.436-30.6689 188.436-33.5693C188.436-35.0732 188.284-36.3892 187.979-37.5171 187.675-38.645 187.174-39.585 186.475-40.3369 185.777-41.0889 184.846-41.6439 183.682-42.0019 182.519-42.36 181.077-42.5391 179.359-42.5391 177.103-42.5391 175.089-42.2884 173.316-41.7871 171.544-41.2858 169.977-40.7308 168.617-40.1221 167.256-39.5133 166.119-38.9583 165.206-38.457 164.293-37.9557 163.55-37.7051 162.977-37.7051 162.583-37.7051 162.234-37.8304 161.93-38.0811 161.625-38.3317 161.374-38.6898 161.178-39.1553 160.981-39.6208 160.828-40.1937 160.721-40.874 160.614-41.5544 160.56-42.3063 160.56-43.1299 160.56-44.2399 160.649-45.1172 160.828-45.7617 161.007-46.4062 161.348-46.9881 161.849-47.5073 162.35-48.0265 163.228-48.5994 164.481-49.2261 165.734-49.8527 167.202-50.4346 168.885-50.9717 170.568-51.5088 172.403-51.9474 174.39-52.2876 176.378-52.6278 178.428-52.7978 180.54-52.7978 184.3-52.7978 187.514-52.4308 190.181-51.6968 192.849-50.9627 195.042-49.8348 196.761-48.313 198.48-46.7912 199.733-44.8307 200.521-42.4316 201.309-40.0325 201.702-37.1859 201.702-33.8916ZM188.436-22.1826 183.28-22.1826C181.095-22.1826 179.233-22.0215 177.694-21.6992 176.154-21.3769 174.901-20.8936 173.934-20.249 172.967-19.6045 172.26-18.8257 171.812-17.9126 171.365-16.9995 171.141-15.9521 171.141-14.7705 171.141-12.7653 171.777-11.1898 173.048-10.0439 174.319-8.89811 176.082-8.32519 178.338-8.32519 180.236-8.32519 181.982-8.80859 183.575-9.77539 185.168-10.7422 186.789-12.1566 188.436-14.0186ZM228.844-1.82617C228.844-1.4681 228.737-1.15479 228.522-0.88623 228.307-0.617676 227.94-0.39388 227.421-0.214844 226.902-0.0358073 226.213 0.09847 225.353 0.187988 224.494 0.277506 223.402 0.322266 222.077 0.322266 220.752 0.322266 219.66 0.277506 218.8 0.187988 217.941 0.09847 217.252-0.0358073 216.733-0.214844 216.213-0.39388 215.846-0.617676 215.631-0.88623 215.417-1.15479 215.309-1.4681 215.309-1.82617L215.309-72.456C215.309-72.8141 215.417-73.1364 215.631-73.4228 215.846-73.7093 216.213-73.951 216.733-74.1479 217.252-74.3449 217.941-74.4971 218.8-74.6045 219.66-74.7119 220.752-74.7656 222.077-74.7656 223.402-74.7656 224.494-74.7119 225.353-74.6045 226.213-74.4971 226.902-74.3449 227.421-74.1479 227.94-73.951 228.307-73.7093 228.522-73.4228 228.737-73.1364 228.844-72.8141 228.844-72.456ZM255.771-1.82617C255.771-1.4681 255.664-1.15479 255.449-0.88623 255.234-0.617676 254.867-0.39388 254.348-0.214844 253.829-0.0358073 253.14 0.09847 252.28 0.187988 251.421 0.277506 250.329 0.322266 249.004 0.322266 247.679 0.322266 246.587 0.277506 245.728 0.187988 244.868 0.09847 244.179-0.0358073 243.66-0.214844 243.14-0.39388 242.773-0.617676 242.559-0.88623 242.344-1.15479 242.236-1.4681 242.236-1.82617L242.236-49.6289C242.236-49.987 242.344-50.3003 242.559-50.5688 242.773-50.8374 243.14-51.0701 243.66-51.2671 244.179-51.464 244.868-51.6162 245.728-51.7236 246.587-51.8311 247.679-51.8848 249.004-51.8848 250.329-51.8848 251.421-51.8311 252.28-51.7236 253.14-51.6162 253.829-51.464 254.348-51.2671 254.867-51.0701 255.234-50.8374 255.449-50.5688 255.664-50.3003 255.771-49.987 255.771-49.6289ZM256.792-65.957C256.792-63.2357 256.237-61.3558 255.127-60.3174 254.017-59.279 251.958-58.7598 248.95-58.7598 245.907-58.7598 243.857-59.2611 242.8-60.2637 241.744-61.2663 241.216-63.0745 241.216-65.6885 241.216-68.4098 241.762-70.2987 242.854-71.355 243.946-72.4113 246.014-72.9394 249.058-72.9394 252.065-72.9394 254.106-72.4292 255.181-71.4087 256.255-70.3882 256.792-68.571 256.792-65.957ZM302.894-15.3613C302.894-12.64 302.384-10.2409 301.363-8.16406 300.343-6.08724 298.901-4.35058 297.039-2.9541 295.177-1.55762 292.975-0.510254 290.433 0.187988 287.891 0.88623 285.133 1.23535 282.161 1.23535 280.371 1.23535 278.661 1.10107 277.032 0.832519 275.403 0.563965 273.944 0.223796 272.655-0.187988 271.366-0.599772 270.291-1.02051 269.432-1.4502 268.573-1.87988 267.946-2.28271 267.552-2.65869 267.158-3.03467 266.854-3.62549 266.639-4.43115 266.424-5.23682 266.317-6.42741 266.317-8.00293 266.317-9.04134 266.353-9.87386 266.424-10.5005 266.496-11.1271 266.603-11.6284 266.746-12.0044 266.89-12.3804 267.069-12.631 267.284-12.7563 267.498-12.8817 267.767-12.9443 268.089-12.9443 268.483-12.9443 269.065-12.7205 269.835-12.2729 270.605-11.8254 271.562-11.333 272.708-10.7959 273.854-10.2588 275.188-9.75749 276.71-9.29199 278.232-8.8265 279.959-8.59375 281.893-8.59375 283.11-8.59375 284.193-8.71907 285.142-8.96973 286.091-9.22038 286.915-9.57845 287.613-10.0439 288.311-10.5094 288.839-11.1003 289.198-11.8164 289.556-12.5326 289.735-13.3561 289.735-14.2871 289.735-15.3613 289.403-16.2834 288.741-17.0532 288.079-17.8231 287.201-18.4945 286.109-19.0674 285.017-19.6403 283.782-20.1774 282.403-20.6787 281.025-21.18 279.61-21.735 278.16-22.3437 276.71-22.9525 275.295-23.6507 273.917-24.4385 272.538-25.2262 271.303-26.193 270.211-27.3389 269.119-28.4847 268.241-29.8633 267.579-31.4746 266.916-33.0859 266.585-35.0195 266.585-37.2754 266.585-39.5671 267.033-41.6707 267.928-43.5864 268.823-45.5021 270.112-47.1403 271.795-48.501 273.478-49.8616 275.528-50.918 277.945-51.6699 280.362-52.4219 283.075-52.7978 286.082-52.7978 287.586-52.7978 289.045-52.6904 290.46-52.4756 291.874-52.2607 293.154-51.9922 294.3-51.6699 295.446-51.3476 296.413-50.9985 297.201-50.6226 297.988-50.2466 298.552-49.9243 298.892-49.6558 299.233-49.3872 299.474-49.1186 299.617-48.8501 299.761-48.5815 299.868-48.2593 299.94-47.8833 300.011-47.5073 300.074-47.0418 300.128-46.4868 300.181-45.9318 300.208-45.2425 300.208-44.4189 300.208-43.4521 300.181-42.6644 300.128-42.0557 300.074-41.4469 299.984-40.9635 299.859-40.6055 299.734-40.2474 299.564-40.0057 299.349-39.8804 299.134-39.755 298.883-39.6924 298.597-39.6924 298.275-39.6924 297.773-39.8804 297.093-40.2563 296.413-40.6323 295.562-41.0351 294.542-41.4648 293.521-41.8945 292.34-42.2974 290.997-42.6733 289.654-43.0493 288.123-43.2373 286.405-43.2373 285.187-43.2373 284.131-43.112 283.236-42.8613 282.34-42.6107 281.606-42.2526 281.034-41.7871 280.461-41.3216 280.031-40.7756 279.744-40.1489 279.458-39.5223 279.315-38.8509 279.315-38.1348 279.315-37.0247 279.655-36.0937 280.335-35.3418 281.016-34.5898 281.911-33.9274 283.021-33.3545 284.131-32.7816 285.393-32.2445 286.807-31.7432 288.222-31.2419 289.654-30.6958 291.104-30.105 292.555-29.5142 293.987-28.8249 295.401-28.0371 296.816-27.2493 298.078-26.2825 299.188-25.1367 300.298-23.9909 301.193-22.6213 301.873-21.0278 302.554-19.4344 302.894-17.5456 302.894-15.3613ZM389.494-1.82617C389.494-1.4681 389.386-1.15479 389.172-0.88623 388.957-0.617676 388.599-0.39388 388.097-0.214844 387.596-0.0358073 386.916 0.09847 386.056 0.187988 385.197 0.277506 384.105 0.322266 382.78 0.322266 381.419 0.322266 380.309 0.277506 379.45 0.187988 378.59 0.09847 377.901-0.0358073 377.382-0.214844 376.863-0.39388 376.505-0.617676 376.308-0.88623 376.111-1.15479 376.012-1.4681 376.012-1.82617L376.012-30.2393C376.012-31.8506 375.86-33.3187 375.556-34.6436 375.251-35.9684 374.786-37.1053 374.159-38.0542 373.533-39.0031 372.745-39.7371 371.796-40.2563 370.847-40.7755 369.71-41.0351 368.385-41.0352 366.774-41.0351 365.145-40.4085 363.498-39.1553 361.851-37.902 360.06-36.0758 358.127-33.6768L358.127-1.82617C358.127-1.4681 358.019-1.15479 357.804-0.88623 357.59-0.617676 357.222-0.39388 356.703-0.214844 356.184-0.0358073 355.495 0.09847 354.635 0.187988 353.776 0.277506 352.702 0.322266 351.413 0.322266 350.088 0.322266 348.996 0.277506 348.136 0.187988 347.277 0.09847 346.588-0.0358073 346.069-0.214844 345.549-0.39388 345.182-0.617676 344.967-0.88623 344.753-1.15479 344.645-1.4681 344.645-1.82617L344.645-30.2393C344.645-31.8506 344.493-33.3187 344.189-34.6436 343.884-35.9684 343.428-37.1053 342.819-38.0542 342.21-39.0031 341.422-39.7371 340.456-40.2563 339.489-40.7755 338.361-41.0351 337.072-41.0352 335.425-41.0351 333.778-40.4085 332.131-39.1553 330.483-37.902 328.711-36.0758 326.813-33.6768L326.813-1.82617C326.813-1.4681 326.706-1.15479 326.491-0.88623 326.276-0.617676 325.909-0.39388 325.39-0.214844 324.871-0.0358073 324.181 0.09847 323.322 0.187988 322.463 0.277506 321.37 0.322266 320.046 0.322266 318.721 0.322266 317.629 0.277506 316.769 0.187988 315.91 0.09847 315.221-0.0358073 314.701-0.214844 314.182-0.39388 313.815-0.617676 313.6-0.88623 313.385-1.15479 313.278-1.4681 313.278-1.82617L313.278-49.7363C313.278-50.0944 313.367-50.4077 313.547-50.6763 313.726-50.9448 314.048-51.1686 314.513-51.3477 314.979-51.5267 315.579-51.661 316.313-51.7505 317.047-51.84 317.969-51.8848 319.079-51.8848 320.225-51.8848 321.173-51.84 321.925-51.7505 322.677-51.661 323.259-51.5267 323.671-51.3477 324.083-51.1686 324.378-50.9448 324.557-50.6763 324.736-50.4077 324.826-50.0944 324.826-49.7363L324.826-44.2041C327.476-47.0687 330.116-49.2171 332.748-50.6494 335.38-52.0817 338.128-52.7978 340.993-52.7978 342.962-52.7978 344.735-52.592 346.31-52.1802 347.886-51.7684 349.291-51.1776 350.527-50.4077 351.762-49.6379 352.827-48.7158 353.722-47.6416 354.617-46.5674 355.369-45.3678 355.978-44.043 357.41-45.5827 358.816-46.9075 360.194-48.0176 361.573-49.1276 362.934-50.0317 364.277-50.73 365.619-51.4282 366.962-51.9474 368.305-52.2876 369.648-52.6278 371.017-52.7978 372.414-52.7978 375.601-52.7978 378.286-52.2607 380.47-51.1865 382.655-50.1123 384.418-48.6532 385.761-46.8091 387.104-44.965 388.062-42.8076 388.634-40.3369 389.207-37.8662 389.494-35.2523 389.494-32.4951ZM451.1-26.2646C451.1-22.1826 450.563-18.4587 449.489-15.0928 448.415-11.7269 446.785-8.8265 444.601-6.3916 442.417-3.95671 439.678-2.07682 436.383-0.751953 433.089 0.572917 429.24 1.23535 424.836 1.23535 420.575 1.23535 416.868 0.644531 413.717-0.537109 410.566-1.71875 407.952-3.4375 405.876-5.69336 403.799-7.94922 402.259-10.7243 401.257-14.0186 400.254-17.3128 399.753-21.0726 399.753-25.2978 399.753-29.3799 400.299-33.1128 401.391-36.4966 402.483-39.8804 404.121-42.7808 406.305-45.1978 408.49-47.6147 411.22-49.4857 414.496-50.8105 417.773-52.1354 421.613-52.7978 426.017-52.7978 430.314-52.7978 434.038-52.216 437.189-51.0522 440.34-49.8885 442.945-48.1787 445.004-45.9228 447.063-43.667 448.594-40.8919 449.596-37.5977 450.599-34.3034 451.1-30.5257 451.1-26.2646ZM437.189-25.7275C437.189-28.0908 437.001-30.2661 436.625-32.2534 436.249-34.2407 435.614-35.9684 434.718-37.4365 433.823-38.9046 432.633-40.0505 431.147-40.874 429.661-41.6976 427.79-42.1094 425.534-42.1094 423.529-42.1094 421.774-41.7423 420.27-41.0083 418.766-40.2742 417.531-39.2 416.564-37.7856 415.597-36.3713 414.872-34.6704 414.389-32.6831 413.905-30.6958 413.664-28.431 413.664-25.8887 413.664-23.5254 413.861-21.3501 414.255-19.3628 414.648-17.3755 415.284-15.6478 416.161-14.1797 417.039-12.7116 418.229-11.5747 419.733-10.769 421.237-9.96338 423.099-9.56054 425.319-9.56055 427.36-9.56054 429.132-9.92757 430.636-10.6616 432.14-11.3957 433.376-12.4609 434.342-13.8574 435.309-15.2539 436.025-16.9458 436.491-18.9331 436.956-20.9204 437.189-23.1852 437.189-25.7275Z" fill="#FFFFFF" fill-rule="nonzero" fill-opacity="1" transform="matrix(1 0 0 1 74.2881 144)"/></g></g><path d="M45.7617-5.9082C45.7617-4.83398 45.717-3.92985 45.6274-3.1958 45.5379-2.46175 45.4036-1.85303 45.2246-1.36963 45.0456-0.88623 44.8218-0.537109 44.5532-0.322266 44.2847-0.107422 43.9714 0 43.6133 0L11.7627 0C10.5811 0 9.5874-0.349121 8.78174-1.04736 7.97607-1.74561 7.57324-2.88249 7.57324-4.45801L7.57324-67.5684C7.57324-67.9264 7.68962-68.2487 7.92236-68.5351 8.15511-68.8216 8.54004-69.0544 9.07715-69.2334 9.61426-69.4124 10.3394-69.5557 11.2524-69.6631 12.1655-69.7705 13.3024-69.8242 14.6631-69.8242 16.0596-69.8242 17.2054-69.7705 18.1006-69.6631 18.9958-69.5557 19.7119-69.4124 20.249-69.2334 20.7861-69.0544 21.1711-68.8216 21.4038-68.5351 21.6366-68.2487 21.7529-67.9264 21.7529-67.5684L21.7529-11.6553 43.6133-11.6553C43.9714-11.6553 44.2847-11.5568 44.5532-11.3599 44.8218-11.1629 45.0456-10.8407 45.2246-10.3931 45.4036-9.94547 45.5379-9.35465 45.6274-8.6206 45.717-7.88655 45.7617-6.98242 45.7617-5.9082ZM97.4316-27.1777C97.4316-25.5306 97.0646-24.3131 96.3306-23.5254 95.5965-22.7376 94.585-22.3437 93.2959-22.3437L64.1309-22.3437C64.1309-20.3027 64.3726-18.4497 64.8559-16.7847 65.3393-15.1196 66.1092-13.7052 67.1655-12.5415 68.2218-11.3778 69.5825-10.4915 71.2476-9.88281 72.9126-9.27409 74.9088-8.96973 77.2363-8.96973 79.5996-8.96973 81.6764-9.13981 83.4668-9.47998 85.2571-9.82015 86.8058-10.1961 88.1128-10.6079 89.4198-11.0197 90.5029-11.3957 91.3623-11.7358 92.2217-12.076 92.9199-12.2461 93.457-12.2461 93.7793-12.2461 94.0478-12.1834 94.2627-12.0581 94.4775-11.9328 94.6566-11.709 94.7998-11.3867 94.943-11.0645 95.0415-10.6079 95.0952-10.0171 95.1489-9.42627 95.1758-8.68327 95.1758-7.78809 95.1758-7.00033 95.1579-6.32894 95.1221-5.77393 95.0863-5.21891 95.0325-4.74447 94.9609-4.35059 94.8893-3.95671 94.7819-3.62549 94.6387-3.35693 94.4954-3.08838 94.3074-2.82878 94.0747-2.57812 93.8419-2.32747 93.2064-1.9873 92.168-1.55762 91.1295-1.12793 89.8047-0.707194 88.1934-0.29541 86.582 0.116374 84.7379 0.474447 82.6611 0.778809 80.5843 1.08317 78.3642 1.23535 76.001 1.23535 71.7399 1.23535 68.007 0.698242 64.8022-0.375977 61.5975-1.4502 58.9209-3.07943 56.7725-5.26367 54.624-7.44792 53.0216-10.2051 51.9653-13.5352 50.909-16.8652 50.3809-20.7682 50.3809-25.2441 50.3809-29.5052 50.9359-33.3455 52.0459-36.7651 53.1559-40.1847 54.7672-43.0851 56.8799-45.4663 58.9925-47.8475 61.5617-49.6647 64.5874-50.918 67.6131-52.1712 71.0238-52.7978 74.8193-52.7978 78.8297-52.7978 82.2583-52.207 85.105-51.0254 87.9516-49.8437 90.2881-48.2056 92.1143-46.1108 93.9404-44.0161 95.2832-41.5365 96.1426-38.6719 97.0019-35.8073 97.4316-32.6921 97.4316-29.3262ZM84.3262-31.0449C84.4336-34.8405 83.6727-37.8214 82.0434-39.9878 80.4142-42.1541 77.8988-43.2373 74.4971-43.2373 72.7783-43.2373 71.2834-42.915 70.0122-42.2705 68.741-41.626 67.6847-40.7576 66.8433-39.6655 66.0018-38.5734 65.3573-37.2843 64.9097-35.7983 64.4621-34.3123 64.2025-32.7279 64.1309-31.0449ZM151.93-46.4062C151.93-44.6875 151.733-43.4163 151.34-42.5928 150.946-41.7692 150.462-41.3574 149.889-41.3574L144.25-41.3574C145.037-40.498 145.601-39.5223 145.942-38.4302 146.282-37.338 146.452-36.2012 146.452-35.0195 146.452-32.2266 145.986-29.7469 145.055-27.5806 144.124-25.4142 142.791-23.5881 141.054-22.102 139.317-20.616 137.222-19.4881 134.77-18.7183 132.317-17.9484 129.587-17.5635 126.579-17.5635 125.039-17.5635 123.571-17.7515 122.174-18.1274 120.778-18.5034 119.704-18.9421 118.952-19.4434 118.522-18.9779 118.137-18.4228 117.797-17.7783 117.457-17.1338 117.287-16.4176 117.287-15.6299 117.287-14.5915 117.743-13.741 118.656-13.0786 119.569-12.4162 120.85-12.0492 122.497-11.9775L134.152-11.5479C136.873-11.4404 139.299-11.0555 141.43-10.3931 143.56-9.73063 145.351-8.79964 146.801-7.6001 148.251-6.40055 149.361-4.95931 150.131-3.27637 150.901-1.59342 151.286 0.322266 151.286 2.4707 151.286 4.83398 150.767 7.06299 149.728 9.15771 148.69 11.2524 147.132 13.0697 145.055 14.6094 142.979 16.1491 140.374 17.3665 137.24 18.2617 134.107 19.1569 130.446 19.6045 126.257 19.6045 122.174 19.6045 118.692 19.2822 115.81 18.6377 112.927 17.9932 110.564 17.098 108.72 15.9521 106.876 14.8063 105.533 13.4367 104.692 11.8433 103.85 10.2498 103.429 8.50423 103.429 6.60644 103.429 5.4248 103.582 4.29687 103.886 3.22266 104.19 2.14844 104.638 1.11898 105.229 0.134277 105.819-0.850423 106.545-1.79036 107.404-2.68555 108.263-3.58073 109.248-4.4401 110.358-5.26367 108.818-6.08724 107.628-7.20622 106.786-8.6206 105.945-10.035 105.524-11.5837 105.524-13.2666 105.524-15.3792 106.007-17.3039 106.974-19.0405 107.941-20.7772 109.194-22.3437 110.734-23.7402 109.481-24.9935 108.478-26.4974 107.726-28.252 106.974-30.0065 106.598-32.1908 106.598-34.8047 106.598-37.5977 107.091-40.0952 108.075-42.2974 109.06-44.4995 110.43-46.3615 112.184-47.8833 113.939-49.4051 116.034-50.5688 118.468-51.3745 120.903-52.1802 123.589-52.583 126.525-52.583 128.029-52.583 129.47-52.4935 130.849-52.3144 132.227-52.1354 133.507-51.8848 134.689-51.5625L149.889-51.5625C150.498-51.5625 150.99-51.1686 151.366-50.3809 151.742-49.5931 151.93-48.2682 151.93-46.4062ZM134.582-35.0732C134.582-37.6514 133.866-39.6566 132.433-41.0889 131.001-42.5212 128.978-43.2373 126.364-43.2373 125.039-43.2373 123.875-43.0135 122.873-42.5659 121.87-42.1183 121.038-41.5096 120.375-40.7397 119.713-39.9699 119.22-39.0747 118.898-38.0542 118.576-37.0337 118.415-35.9684 118.415-34.8584 118.415-32.4235 119.131-30.4989 120.563-29.0845 121.995-27.6701 123.983-26.9629 126.525-26.9629 127.886-26.9629 129.067-27.1777 130.07-27.6074 131.073-28.0371 131.905-28.6279 132.568-29.3799 133.23-30.1318 133.731-31.0002 134.071-31.9849 134.412-32.9696 134.582-33.999 134.582-35.0732ZM137.751 3.16895C137.751 1.55762 137.106 0.322266 135.817-0.537109 134.528-1.39648 132.756-1.86198 130.5-1.93359L120.885-2.20215C119.954-1.52181 119.211-0.868327 118.656-0.241699 118.101 0.384928 117.654 0.9847 117.314 1.55762 116.973 2.13053 116.75 2.68555 116.642 3.22266 116.535 3.75977 116.481 4.31478 116.481 4.88769 116.481 6.67806 117.385 8.03874 119.194 8.96973 121.002 9.90071 123.553 10.3662 126.847 10.3662 128.888 10.3662 130.607 10.1603 132.004 9.74853 133.4 9.33675 134.528 8.79069 135.387 8.11035 136.247 7.43001 136.855 6.66911 137.214 5.82764 137.572 4.98617 137.751 4.09993 137.751 3.16895ZM201.702-1.66504C201.702-1.16374 201.523-0.769857 201.165-0.483398 200.807-0.19694 200.243 0.00895182 199.473 0.134277 198.704 0.259603 197.567 0.322266 196.063 0.322266 194.451 0.322266 193.279 0.259603 192.545 0.134277 191.811 0.00895182 191.291-0.19694 190.987-0.483398 190.683-0.769857 190.531-1.16374 190.531-1.66504L190.531-5.47852C188.561-3.36589 186.314-1.71875 183.79-0.537109 181.265 0.644531 178.464 1.23535 175.384 1.23535 172.842 1.23535 170.505 0.904134 168.375 0.241699 166.244-0.420736 164.4-1.40544 162.843-2.7124 161.285-4.01937 160.076-5.63965 159.217-7.57324 158.358-9.50683 157.928-11.7627 157.928-14.3408 157.928-17.1338 158.474-19.5597 159.566-21.6187 160.658-23.6776 162.288-25.3784 164.454-26.7212 166.62-28.064 169.315-29.0576 172.537-29.7021 175.76-30.3467 179.502-30.6689 183.763-30.6689L188.436-30.6689 188.436-33.5693C188.436-35.0732 188.284-36.3892 187.979-37.5171 187.675-38.645 187.174-39.585 186.475-40.3369 185.777-41.0889 184.846-41.6439 183.682-42.0019 182.519-42.36 181.077-42.5391 179.359-42.5391 177.103-42.5391 175.089-42.2884 173.316-41.7871 171.544-41.2858 169.977-40.7308 168.617-40.1221 167.256-39.5133 166.119-38.9583 165.206-38.457 164.293-37.9557 163.55-37.7051 162.977-37.7051 162.583-37.7051 162.234-37.8304 161.93-38.0811 161.625-38.3317 161.374-38.6898 161.178-39.1553 160.981-39.6208 160.828-40.1937 160.721-40.874 160.614-41.5544 160.56-42.3063 160.56-43.1299 160.56-44.2399 160.649-45.1172 160.828-45.7617 161.007-46.4062 161.348-46.9881 161.849-47.5073 162.35-48.0265 163.228-48.5994 164.481-49.2261 165.734-49.8527 167.202-50.4346 168.885-50.9717 170.568-51.5088 172.403-51.9474 174.39-52.2876 176.378-52.6278 178.428-52.7978 180.54-52.7978 184.3-52.7978 187.514-52.4308 190.181-51.6968 192.849-50.9627 195.042-49.8348 196.761-48.313 198.48-46.7912 199.733-44.8307 200.521-42.4316 201.309-40.0325 201.702-37.1859 201.702-33.8916ZM188.436-22.1826 183.28-22.1826C181.095-22.1826 179.233-22.0215 177.694-21.6992 176.154-21.3769 174.901-20.8936 173.934-20.249 172.967-19.6045 172.26-18.8257 171.812-17.9126 171.365-16.9995 171.141-15.9521 171.141-14.7705 171.141-12.7653 171.777-11.1898 173.048-10.0439 174.319-8.89811 176.082-8.32519 178.338-8.32519 180.236-8.32519 181.982-8.80859 183.575-9.77539 185.168-10.7422 186.789-12.1566 188.436-14.0186ZM228.844-1.82617C228.844-1.4681 228.737-1.15479 228.522-0.88623 228.307-0.617676 227.94-0.39388 227.421-0.214844 226.902-0.0358073 226.213 0.09847 225.353 0.187988 224.494 0.277506 223.402 0.322266 222.077 0.322266 220.752 0.322266 219.66 0.277506 218.8 0.187988 217.941 0.09847 217.252-0.0358073 216.733-0.214844 216.213-0.39388 215.846-0.617676 215.631-0.88623 215.417-1.15479 215.309-1.4681 215.309-1.82617L215.309-72.456C215.309-72.8141 215.417-73.1364 215.631-73.4228 215.846-73.7093 216.213-73.951 216.733-74.1479 217.252-74.3449 217.941-74.4971 218.8-74.6045 219.66-74.7119 220.752-74.7656 222.077-74.7656 223.402-74.7656 224.494-74.7119 225.353-74.6045 226.213-74.4971 226.902-74.3449 227.421-74.1479 227.94-73.951 228.307-73.7093 228.522-73.4228 228.737-73.1364 228.844-72.8141 228.844-72.456ZM255.771-1.82617C255.771-1.4681 255.664-1.15479 255.449-0.88623 255.234-0.617676 254.867-0.39388 254.348-0.214844 253.829-0.0358073 253.14 0.09847 252.28 0.187988 251.421 0.277506 250.329 0.322266 249.004 0.322266 247.679 0.322266 246.587 0.277506 245.728 0.187988 244.868 0.09847 244.179-0.0358073 243.66-0.214844 243.14-0.39388 242.773-0.617676 242.559-0.88623 242.344-1.15479 242.236-1.4681 242.236-1.82617L242.236-49.6289C242.236-49.987 242.344-50.3003 242.559-50.5688 242.773-50.8374 243.14-51.0701 243.66-51.2671 244.179-51.464 244.868-51.6162 245.728-51.7236 246.587-51.8311 247.679-51.8848 249.004-51.8848 250.329-51.8848 251.421-51.8311 252.28-51.7236 253.14-51.6162 253.829-51.464 254.348-51.2671 254.867-51.0701 255.234-50.8374 255.449-50.5688 255.664-50.3003 255.771-49.987 255.771-49.6289ZM256.792-65.957C256.792-63.2357 256.237-61.3558 255.127-60.3174 254.017-59.279 251.958-58.7598 248.95-58.7598 245.907-58.7598 243.857-59.2611 242.8-60.2637 241.744-61.2663 241.216-63.0745 241.216-65.6885 241.216-68.4098 241.762-70.2987 242.854-71.355 243.946-72.4113 246.014-72.9394 249.058-72.9394 252.065-72.9394 254.106-72.4292 255.181-71.4087 256.255-70.3882 256.792-68.571 256.792-65.957ZM302.894-15.3613C302.894-12.64 302.384-10.2409 301.363-8.16406 300.343-6.08724 298.901-4.35058 297.039-2.9541 295.177-1.55762 292.975-0.510254 290.433 0.187988 287.891 0.88623 285.133 1.23535 282.161 1.23535 280.371 1.23535 278.661 1.10107 277.032 0.832519 275.403 0.563965 273.944 0.223796 272.655-0.187988 271.366-0.599772 270.291-1.02051 269.432-1.4502 268.573-1.87988 267.946-2.28271 267.552-2.65869 267.158-3.03467 266.854-3.62549 266.639-4.43115 266.424-5.23682 266.317-6.42741 266.317-8.00293 266.317-9.04134 266.353-9.87386 266.424-10.5005 266.496-11.1271 266.603-11.6284 266.746-12.0044 266.89-12.3804 267.069-12.631 267.284-12.7563 267.498-12.8817 267.767-12.9443 268.089-12.9443 268.483-12.9443 269.065-12.7205 269.835-12.2729 270.605-11.8254 271.562-11.333 272.708-10.7959 273.854-10.2588 275.188-9.75749 276.71-9.29199 278.232-8.8265 279.959-8.59375 281.893-8.59375 283.11-8.59375 284.193-8.71907 285.142-8.96973 286.091-9.22038 286.915-9.57845 287.613-10.0439 288.311-10.5094 288.839-11.1003 289.198-11.8164 289.556-12.5326 289.735-13.3561 289.735-14.2871 289.735-15.3613 289.403-16.2834 288.741-17.0532 288.079-17.8231 287.201-18.4945 286.109-19.0674 285.017-19.6403 283.782-20.1774 282.403-20.6787 281.025-21.18 279.61-21.735 278.16-22.3437 276.71-22.9525 275.295-23.6507 273.917-24.4385 272.538-25.2262 271.303-26.193 270.211-27.3389 269.119-28.4847 268.241-29.8633 267.579-31.4746 266.916-33.0859 266.585-35.0195 266.585-37.2754 266.585-39.5671 267.033-41.6707 267.928-43.5864 268.823-45.5021 270.112-47.1403 271.795-48.501 273.478-49.8616 275.528-50.918 277.945-51.6699 280.362-52.4219 283.075-52.7978 286.082-52.7978 287.586-52.7978 289.045-52.6904 290.46-52.4756 291.874-52.2607 293.154-51.9922 294.3-51.6699 295.446-51.3476 296.413-50.9985 297.201-50.6226 297.988-50.2466 298.552-49.9243 298.892-49.6558 299.233-49.3872 299.474-49.1186 299.617-48.8501 299.761-48.5815 299.868-48.2593 299.94-47.8833 300.011-47.5073 300.074-47.0418 300.128-46.4868 300.181-45.9318 300.208-45.2425 300.208-44.4189 300.208-43.4521 300.181-42.6644 300.128-42.0557 300.074-41.4469 299.984-40.9635 299.859-40.6055 299.734-40.2474 299.564-40.0057 299.349-39.8804 299.134-39.755 298.883-39.6924 298.597-39.6924 298.275-39.6924 297.773-39.8804 297.093-40.2563 296.413-40.6323 295.562-41.0351 294.542-41.4648 293.521-41.8945 292.34-42.2974 290.997-42.6733 289.654-43.0493 288.123-43.2373 286.405-43.2373 285.187-43.2373 284.131-43.112 283.236-42.8613 282.34-42.6107 281.606-42.2526 281.034-41.7871 280.461-41.3216 280.031-40.7756 279.744-40.1489 279.458-39.5223 279.315-38.8509 279.315-38.1348 279.315-37.0247 279.655-36.0937 280.335-35.3418 281.016-34.5898 281.911-33.9274 283.021-33.3545 284.131-32.7816 285.393-32.2445 286.807-31.7432 288.222-31.2419 289.654-30.6958 291.104-30.105 292.555-29.5142 293.987-28.8249 295.401-28.0371 296.816-27.2493 298.078-26.2825 299.188-25.1367 300.298-23.9909 301.193-22.6213 301.873-21.0278 302.554-19.4344 302.894-17.5456 302.894-15.3613ZM389.494-1.82617C389.494-1.4681 389.386-1.15479 389.172-0.88623 388.957-0.617676 388.599-0.39388 388.097-0.214844 387.596-0.0358073 386.916 0.09847 386.056 0.187988 385.197 0.277506 384.105 0.322266 382.78 0.322266 381.419 0.322266 380.309 0.277506 379.45 0.187988 378.59 0.09847 377.901-0.0358073 377.382-0.214844 376.863-0.39388 376.505-0.617676 376.308-0.88623 376.111-1.15479 376.012-1.4681 376.012-1.82617L376.012-30.2393C376.012-31.8506 375.86-33.3187 375.556-34.6436 375.251-35.9684 374.786-37.1053 374.159-38.0542 373.533-39.0031 372.745-39.7371 371.796-40.2563 370.847-40.7755 369.71-41.0351 368.385-41.0352 366.774-41.0351 365.145-40.4085 363.498-39.1553 361.851-37.902 360.06-36.0758 358.127-33.6768L358.127-1.82617C358.127-1.4681 358.019-1.15479 357.804-0.88623 357.59-0.617676 357.222-0.39388 356.703-0.214844 356.184-0.0358073 355.495 0.09847 354.635 0.187988 353.776 0.277506 352.702 0.322266 351.413 0.322266 350.088 0.322266 348.996 0.277506 348.136 0.187988 347.277 0.09847 346.588-0.0358073 346.069-0.214844 345.549-0.39388 345.182-0.617676 344.967-0.88623 344.753-1.15479 344.645-1.4681 344.645-1.82617L344.645-30.2393C344.645-31.8506 344.493-33.3187 344.189-34.6436 343.884-35.9684 343.428-37.1053 342.819-38.0542 342.21-39.0031 341.422-39.7371 340.456-40.2563 339.489-40.7755 338.361-41.0351 337.072-41.0352 335.425-41.0351 333.778-40.4085 332.131-39.1553 330.483-37.902 328.711-36.0758 326.813-33.6768L326.813-1.82617C326.813-1.4681 326.706-1.15479 326.491-0.88623 326.276-0.617676 325.909-0.39388 325.39-0.214844 324.871-0.0358073 324.181 0.09847 323.322 0.187988 322.463 0.277506 321.37 0.322266 320.046 0.322266 318.721 0.322266 317.629 0.277506 316.769 0.187988 315.91 0.09847 315.221-0.0358073 314.701-0.214844 314.182-0.39388 313.815-0.617676 313.6-0.88623 313.385-1.15479 313.278-1.4681 313.278-1.82617L313.278-49.7363C313.278-50.0944 313.367-50.4077 313.547-50.6763 313.726-50.9448 314.048-51.1686 314.513-51.3477 314.979-51.5267 315.579-51.661 316.313-51.7505 317.047-51.84 317.969-51.8848 319.079-51.8848 320.225-51.8848 321.173-51.84 321.925-51.7505 322.677-51.661 323.259-51.5267 323.671-51.3477 324.083-51.1686 324.378-50.9448 324.557-50.6763 324.736-50.4077 324.826-50.0944 324.826-49.7363L324.826-44.2041C327.476-47.0687 330.116-49.2171 332.748-50.6494 335.38-52.0817 338.128-52.7978 340.993-52.7978 342.962-52.7978 344.735-52.592 346.31-52.1802 347.886-51.7684 349.291-51.1776 350.527-50.4077 351.762-49.6379 352.827-48.7158 353.722-47.6416 354.617-46.5674 355.369-45.3678 355.978-44.043 357.41-45.5827 358.816-46.9075 360.194-48.0176 361.573-49.1276 362.934-50.0317 364.277-50.73 365.619-51.4282 366.962-51.9474 368.305-52.2876 369.648-52.6278 371.017-52.7978 372.414-52.7978 375.601-52.7978 378.286-52.2607 380.47-51.1865 382.655-50.1123 384.418-48.6532 385.761-46.8091 387.104-44.965 388.062-42.8076 388.634-40.3369 389.207-37.8662 389.494-35.2523 389.494-32.4951ZM451.1-26.2646C451.1-22.1826 450.563-18.4587 449.489-15.0928 448.415-11.7269 446.785-8.8265 444.601-6.3916 442.417-3.95671 439.678-2.07682 436.383-0.751953 433.089 0.572917 429.24 1.23535 424.836 1.23535 420.575 1.23535 416.868 0.644531 413.717-0.537109 410.566-1.71875 407.952-3.4375 405.876-5.69336 403.799-7.94922 402.259-10.7243 401.257-14.0186 400.254-17.3128 399.753-21.0726 399.753-25.2978 399.753-29.3799 400.299-33.1128 401.391-36.4966 402.483-39.8804 404.121-42.7808 406.305-45.1978 408.49-47.6147 411.22-49.4857 414.496-50.8105 417.773-52.1354 421.613-52.7978 426.017-52.7978 430.314-52.7978 434.038-52.216 437.189-51.0522 440.34-49.8885 442.945-48.1787 445.004-45.9228 447.063-43.667 448.594-40.8919 449.596-37.5977 450.599-34.3034 451.1-30.5257 451.1-26.2646ZM437.189-25.7275C437.189-28.0908 437.001-30.2661 436.625-32.2534 436.249-34.2407 435.614-35.9684 434.718-37.4365 433.823-38.9046 432.633-40.0505 431.147-40.874 429.661-41.6976 427.79-42.1094 425.534-42.1094 423.529-42.1094 421.774-41.7423 420.27-41.0083 418.766-40.2742 417.531-39.2 416.564-37.7856 415.597-36.3713 414.872-34.6704 414.389-32.6831 413.905-30.6958 413.664-28.431 413.664-25.8887 413.664-23.5254 413.861-21.3501 414.255-19.3628 414.648-17.3755 415.284-15.6478 416.161-14.1797 417.039-12.7116 418.229-11.5747 419.733-10.769 421.237-9.96338 423.099-9.56054 425.319-9.56055 427.36-9.56054 429.132-9.92757 430.636-10.6616 432.14-11.3957 433.376-12.4609 434.342-13.8574 435.309-15.2539 436.025-16.9458 436.491-18.9331 436.956-20.9204 437.189-23.1852 437.189-25.7275Z" fill="#FFFFFF" fill-rule="nonzero" fill-opacity="1" transform="matrix(1 0 0 1 84.827 154)"/><g clip-path="url(#clip14)" filter="url(#fx2)" transform="translate(172 153)"><g clip-path="url(#clip15)" transform="translate(-1768 -1082)"><path d="M41.5078-3.32422C41.5078-2.78516 41.4704-2.30599 41.3955-1.88672 41.3206-1.46745 41.2158-1.11556 41.0811-0.831055 40.9463-0.546549 40.7666-0.336914 40.542-0.202148 40.3174-0.0673828 40.0703 0 39.8008 0L7.68164 0C7.26237 0 6.89551-0.0524089 6.58105-0.157227 6.2666-0.262044 5.99707-0.434245 5.77246-0.673828 5.54785-0.913411 5.38314-1.25781 5.27832-1.70703 5.1735-2.15625 5.12109-2.71029 5.12109-3.36914 5.12109-3.9681 5.14426-4.49219 5.19058-4.94141 5.23691-5.39062 5.33716-5.78743 5.49135-6.13184 5.64553-6.47624 5.83844-6.82064 6.07007-7.16504 6.3017-7.50944 6.60258-7.8763 6.97272-8.26562L18.5913-20.2148C21.2764-22.97 23.429-25.4408 25.0492-27.627 26.6694-29.8131 27.9193-31.8047 28.7988-33.6016 29.6783-35.3984 30.2569-37.0306 30.5346-38.498 30.8123-39.9655 30.9512-41.3431 30.9512-42.6309 30.9512-43.9186 30.7349-45.139 30.3023-46.292 29.8697-47.445 29.2439-48.4557 28.425-49.3242 27.6061-50.1927 26.5787-50.8815 25.3426-51.3906 24.1065-51.8997 22.6851-52.1543 21.0782-52.1543 19.1933-52.1543 17.5015-51.8997 16.0027-51.3906 14.5039-50.8815 13.1905-50.3275 12.0626-49.7285 10.9346-49.1296 9.99219-48.5755 9.2353-48.0664 8.47842-47.5573 7.91444-47.3027 7.54337-47.3027 7.32718-47.3027 7.13404-47.3626 6.96394-47.4824 6.79385-47.6022 6.65475-47.7969 6.54666-48.0664 6.43857-48.3359 6.35364-48.6953 6.29187-49.1445 6.2301-49.5937 6.19922-50.1328 6.19922-50.7617 6.19922-51.2109 6.21419-51.6003 6.24414-51.9297 6.27409-52.2591 6.3265-52.5436 6.40137-52.7832 6.47624-53.0228 6.57357-53.2474 6.69336-53.457 6.81315-53.6667 7.05273-53.9287 7.41211-54.2432 7.77148-54.5576 8.3929-54.9844 9.27637-55.5234 10.1598-56.0625 11.2679-56.5941 12.6006-57.1182 13.9333-57.6422 15.4007-58.084 17.0029-58.4434 18.6051-58.8027 20.2897-58.9824 22.0566-58.9824 24.8717-58.9824 27.335-58.5856 29.4463-57.792 31.5576-56.9984 33.3096-55.9128 34.7021-54.5352 36.0947-53.1575 37.1354-51.5553 37.8242-49.7285 38.513-47.9017 38.8574-45.9551 38.8574-43.8887 38.8574-42.0319 38.6927-40.1826 38.3633-38.3408 38.0339-36.499 37.3376-34.5075 36.2744-32.3662 35.2113-30.2249 33.6764-27.8441 31.6699-25.2236 29.6634-22.6032 26.998-19.5859 23.6738-16.1719L14.4648-6.55859 39.7559-6.55859C39.9954-6.55859 40.2275-6.49121 40.4521-6.35644 40.6768-6.22168 40.8714-6.01953 41.0361-5.75 41.2008-5.48047 41.3206-5.14355 41.3955-4.73926 41.4704-4.33496 41.5078-3.86328 41.5078-3.32422ZM64.2402-35.9375C64.2402-34.9792 64.1728-34.1706 64.0381-33.5117 63.9033-32.8529 63.6488-32.3213 63.2744-31.917 62.9001-31.5127 62.4134-31.2282 61.8144-31.0635 61.2155-30.8988 60.4518-30.8164 59.5234-30.8164 58.5651-30.8164 57.7865-30.8988 57.1875-31.0635 56.5885-31.2282 56.1094-31.5127 55.75-31.917 55.3906-32.3213 55.1435-32.8529 55.0088-33.5117 54.874-34.1706 54.8066-34.9792 54.8066-35.9375 54.8066-36.9557 54.874-37.8018 55.0088-38.4756 55.1435-39.1494 55.3906-39.6885 55.75-40.0928 56.1094-40.4971 56.5885-40.7816 57.1875-40.9463 57.7865-41.111 58.5651-41.1934 59.5234-41.1934 60.4518-41.1934 61.2155-41.111 61.8144-40.9463 62.4134-40.7816 62.9001-40.4971 63.2744-40.0928 63.6488-39.6885 63.9033-39.1494 64.0381-38.4756 64.1728-37.8018 64.2402-36.9557 64.2402-35.9375ZM64.2402-4.76172C64.2402-3.77344 64.1728-2.94987 64.0381-2.29102 63.9033-1.63216 63.6488-1.10059 63.2744-0.696289 62.9001-0.291992 62.4134-0.00748697 61.8144 0.157227 61.2155 0.32194 60.4518 0.404297 59.5234 0.404297 58.5651 0.404297 57.7865 0.32194 57.1875 0.157227 56.5885-0.00748697 56.1094-0.291992 55.75-0.696289 55.3906-1.10059 55.1435-1.63216 55.0088-2.29102 54.874-2.94987 54.8066-3.77344 54.8066-4.76172 54.8066-5.75 54.874-6.58105 55.0088-7.25488 55.1435-7.92871 55.3906-8.46029 55.75-8.84961 56.1094-9.23893 56.5885-9.52344 57.1875-9.70312 57.7865-9.88281 58.5651-9.97266 59.5234-9.97266 60.4518-9.97266 61.2155-9.88281 61.8144-9.70312 62.4134-9.52344 62.9001-9.23893 63.2744-8.84961 63.6488-8.46029 63.9033-7.92871 64.0381-7.25488 64.1728-6.58105 64.2402-5.75 64.2402-4.76172ZM112.684-3.05469C112.684-2.48568 112.639-2.00651 112.549-1.61719 112.46-1.22786 112.34-0.913411 112.19-0.673828 112.04-0.434245 111.868-0.262044 111.673-0.157227 111.479-0.0524089 111.277 0 111.067 0L80.6999 0C80.4902 0 80.2956-0.0524089 80.1159-0.157227 79.9362-0.262044 79.764-0.434245 79.5993-0.673828 79.4346-0.913411 79.3073-1.22786 79.2174-1.61719 79.1276-2.00651 79.0827-2.48568 79.0827-3.05469 79.0827-3.59375 79.1276-4.05794 79.2174-4.44727 79.3073-4.83659 79.4196-5.15853 79.5544-5.41309 79.6891-5.66764 79.8538-5.8623 80.0485-5.99707 80.2432-6.13184 80.4603-6.19922 80.6999-6.19922L92.8288-6.19922 92.8288-50.4023 81.5983-43.709C81.0293-43.4095 80.5726-43.2298 80.2282-43.1699 79.8838-43.11 79.6068-43.1774 79.3971-43.3721 79.1875-43.5667 79.0452-43.8887 78.9704-44.3379 78.8955-44.7871 78.8581-45.3561 78.8581-46.0449 78.8581-46.554 78.8805-46.9883 78.9255-47.3477 78.9704-47.707 79.0378-48.0065 79.1276-48.2461 79.2174-48.4857 79.3447-48.6953 79.5094-48.875 79.6741-49.0547 79.8913-49.2344 80.1608-49.4141L93.5475-57.9941C93.6673-58.084 93.817-58.1588 93.9967-58.2187 94.1764-58.2786 94.401-58.3385 94.6706-58.3984 94.9401-58.4583 95.2545-58.4958 95.6139-58.5107 95.9733-58.5257 96.4225-58.5332 96.9616-58.5332 97.6803-58.5332 98.2793-58.5033 98.7585-58.4434 99.2376-58.3835 99.612-58.3011 99.8815-58.1963 100.151-58.0915 100.331-57.9567 100.421-57.792 100.51-57.6273 100.555-57.4551 100.555-57.2754L100.555-6.19922 111.067-6.19922C111.307-6.19922 111.531-6.13184 111.741-5.99707 111.951-5.8623 112.123-5.66764 112.257-5.41309 112.392-5.15853 112.497-4.83659 112.572-4.44727 112.647-4.05794 112.684-3.59375 112.684-3.05469ZM160.438-18.8223C160.438-16.2767 160.049-13.8135 159.27-11.4326 158.492-9.05176 157.294-6.9554 155.676-5.14355 154.059-3.33171 152.008-1.87923 149.522-0.786133 147.036 0.306966 144.102 0.853516 140.717 0.853516 138.292 0.853516 136.15 0.554036 134.294-0.0449219 132.437-0.64388 130.82-1.4974 129.442-2.60547 128.064-3.71354 126.919-5.07617 126.006-6.69336 125.092-8.31055 124.358-10.1523 123.804-12.2187 123.25-14.2852 122.854-16.5462 122.614-19.002 122.374-21.4577 122.255-24.0931 122.255-26.9082 122.255-29.3939 122.389-31.9095 122.659-34.4551 122.928-37.0006 123.408-39.4564 124.096-41.8223 124.785-44.1881 125.721-46.4118 126.904-48.4932 128.087-50.5745 129.569-52.3864 131.351-53.9287 133.133-55.471 135.267-56.6914 137.753-57.5898 140.238-58.4883 143.128-58.9375 146.423-58.9375 147.531-58.9375 148.654-58.8701 149.792-58.7353 150.93-58.6006 151.978-58.4209 152.936-58.1963 153.895-57.9717 154.703-57.7246 155.362-57.4551 156.021-57.1855 156.455-56.9684 156.665-56.8037 156.874-56.639 157.032-56.4593 157.136-56.2646 157.241-56.07 157.324-55.8603 157.383-55.6357 157.443-55.4111 157.488-55.1566 157.518-54.8721 157.548-54.5876 157.563-54.2357 157.563-53.8164 157.563-53.2773 157.556-52.8131 157.541-52.4238 157.526-52.0345 157.466-51.72 157.361-51.4805 157.256-51.2409 157.121-51.0612 156.957-50.9414 156.792-50.8216 156.575-50.7617 156.305-50.7617 155.976-50.7617 155.527-50.8665 154.958-51.0762 154.389-51.2858 153.7-51.5179 152.891-51.7725 152.083-52.027 151.102-52.2591 149.949-52.4687 148.796-52.6784 147.456-52.7832 145.928-52.7832 143.143-52.7832 140.747-52.2142 138.741-51.0762 136.734-49.9381 135.095-48.4108 133.822-46.4941 132.549-44.5775 131.606-42.3538 130.992-39.8232 130.378-37.2926 130.026-34.6497 129.936-31.8945 130.715-32.3437 131.591-32.793 132.564-33.2422 133.537-33.6914 134.601-34.0957 135.754-34.4551 136.907-34.8144 138.127-35.1064 139.415-35.3311 140.702-35.5557 142.08-35.668 143.548-35.668 146.692-35.668 149.342-35.2412 151.499-34.3877 153.655-33.5342 155.399-32.3512 156.732-30.8389 158.065-29.3265 159.016-27.5446 159.585-25.4932 160.154-23.4417 160.438-21.2181 160.438-18.8223ZM152.622-18.1035C152.622-19.8405 152.45-21.4202 152.105-22.8428 151.761-24.2653 151.184-25.4707 150.376-26.459 149.567-27.4473 148.489-28.2109 147.141-28.75 145.794-29.2891 144.132-29.5586 142.155-29.5586 141.047-29.5586 139.939-29.4613 138.831-29.2666 137.723-29.0719 136.652-28.8024 135.619-28.458 134.586-28.1136 133.597-27.7093 132.654-27.2451 131.711-26.7809 130.85-26.2793 130.071-25.7402 130.071-21.877 130.318-18.6426 130.812-16.0371 131.306-13.4316 132.025-11.3428 132.968-9.77051 133.912-8.19824 135.087-7.07519 136.495-6.40137 137.902-5.72754 139.549-5.39062 141.436-5.39062 143.353-5.39062 145.015-5.75 146.423-6.46875 147.83-7.1875 148.998-8.15332 149.926-9.36621 150.855-10.5791 151.536-11.9417 151.97-13.4541 152.405-14.9665 152.622-16.5163 152.622-18.1035Z" fill="#FFFFFF" fill-rule="nonzero" fill-opacity="1" transform="matrix(1 0 0 1 62.3133 120)"/></g></g><path d="M41.5078-3.32422C41.5078-2.78516 41.4704-2.30599 41.3955-1.88672 41.3206-1.46745 41.2158-1.11556 41.0811-0.831055 40.9463-0.546549 40.7666-0.336914 40.542-0.202148 40.3174-0.0673828 40.0703 0 39.8008 0L7.68164 0C7.26237 0 6.89551-0.0524089 6.58105-0.157227 6.2666-0.262044 5.99707-0.434245 5.77246-0.673828 5.54785-0.913411 5.38314-1.25781 5.27832-1.70703 5.1735-2.15625 5.12109-2.71029 5.12109-3.36914 5.12109-3.9681 5.14426-4.49219 5.19058-4.94141 5.23691-5.39062 5.33716-5.78743 5.49135-6.13184 5.64553-6.47624 5.83844-6.82064 6.07007-7.16504 6.3017-7.50944 6.60258-7.8763 6.97272-8.26562L18.5913-20.2148C21.2764-22.97 23.429-25.4408 25.0492-27.627 26.6694-29.8131 27.9193-31.8047 28.7988-33.6016 29.6783-35.3984 30.2569-37.0306 30.5346-38.498 30.8123-39.9655 30.9512-41.3431 30.9512-42.6309 30.9512-43.9186 30.7349-45.139 30.3023-46.292 29.8697-47.445 29.2439-48.4557 28.425-49.3242 27.6061-50.1927 26.5787-50.8815 25.3426-51.3906 24.1065-51.8997 22.6851-52.1543 21.0782-52.1543 19.1933-52.1543 17.5015-51.8997 16.0027-51.3906 14.5039-50.8815 13.1905-50.3275 12.0626-49.7285 10.9346-49.1296 9.99219-48.5755 9.2353-48.0664 8.47842-47.5573 7.91444-47.3027 7.54337-47.3027 7.32718-47.3027 7.13404-47.3626 6.96394-47.4824 6.79385-47.6022 6.65475-47.7969 6.54666-48.0664 6.43857-48.3359 6.35364-48.6953 6.29187-49.1445 6.2301-49.5937 6.19922-50.1328 6.19922-50.7617 6.19922-51.2109 6.21419-51.6003 6.24414-51.9297 6.27409-52.2591 6.3265-52.5436 6.40137-52.7832 6.47624-53.0228 6.57357-53.2474 6.69336-53.457 6.81315-53.6667 7.05273-53.9287 7.41211-54.2432 7.77148-54.5576 8.3929-54.9844 9.27637-55.5234 10.1598-56.0625 11.2679-56.5941 12.6006-57.1182 13.9333-57.6422 15.4007-58.084 17.0029-58.4434 18.6051-58.8027 20.2897-58.9824 22.0566-58.9824 24.8717-58.9824 27.335-58.5856 29.4463-57.792 31.5576-56.9984 33.3096-55.9128 34.7021-54.5352 36.0947-53.1575 37.1354-51.5553 37.8242-49.7285 38.513-47.9017 38.8574-45.9551 38.8574-43.8887 38.8574-42.0319 38.6927-40.1826 38.3633-38.3408 38.0339-36.499 37.3376-34.5075 36.2744-32.3662 35.2113-30.2249 33.6764-27.8441 31.6699-25.2236 29.6634-22.6032 26.998-19.5859 23.6738-16.1719L14.4648-6.55859 39.7559-6.55859C39.9954-6.55859 40.2275-6.49121 40.4521-6.35644 40.6768-6.22168 40.8714-6.01953 41.0361-5.75 41.2008-5.48047 41.3206-5.14355 41.3955-4.73926 41.4704-4.33496 41.5078-3.86328 41.5078-3.32422ZM64.2402-35.9375C64.2402-34.9792 64.1728-34.1706 64.0381-33.5117 63.9033-32.8529 63.6488-32.3213 63.2744-31.917 62.9001-31.5127 62.4134-31.2282 61.8144-31.0635 61.2155-30.8988 60.4518-30.8164 59.5234-30.8164 58.5651-30.8164 57.7865-30.8988 57.1875-31.0635 56.5885-31.2282 56.1094-31.5127 55.75-31.917 55.3906-32.3213 55.1435-32.8529 55.0088-33.5117 54.874-34.1706 54.8066-34.9792 54.8066-35.9375 54.8066-36.9557 54.874-37.8018 55.0088-38.4756 55.1435-39.1494 55.3906-39.6885 55.75-40.0928 56.1094-40.4971 56.5885-40.7816 57.1875-40.9463 57.7865-41.111 58.5651-41.1934 59.5234-41.1934 60.4518-41.1934 61.2155-41.111 61.8144-40.9463 62.4134-40.7816 62.9001-40.4971 63.2744-40.0928 63.6488-39.6885 63.9033-39.1494 64.0381-38.4756 64.1728-37.8018 64.2402-36.9557 64.2402-35.9375ZM64.2402-4.76172C64.2402-3.77344 64.1728-2.94987 64.0381-2.29102 63.9033-1.63216 63.6488-1.10059 63.2744-0.696289 62.9001-0.291992 62.4134-0.00748697 61.8144 0.157227 61.2155 0.32194 60.4518 0.404297 59.5234 0.404297 58.5651 0.404297 57.7865 0.32194 57.1875 0.157227 56.5885-0.00748697 56.1094-0.291992 55.75-0.696289 55.3906-1.10059 55.1435-1.63216 55.0088-2.29102 54.874-2.94987 54.8066-3.77344 54.8066-4.76172 54.8066-5.75 54.874-6.58105 55.0088-7.25488 55.1435-7.92871 55.3906-8.46029 55.75-8.84961 56.1094-9.23893 56.5885-9.52344 57.1875-9.70312 57.7865-9.88281 58.5651-9.97266 59.5234-9.97266 60.4518-9.97266 61.2155-9.88281 61.8144-9.70312 62.4134-9.52344 62.9001-9.23893 63.2744-8.84961 63.6488-8.46029 63.9033-7.92871 64.0381-7.25488 64.1728-6.58105 64.2402-5.75 64.2402-4.76172ZM112.684-3.05469C112.684-2.48568 112.639-2.00651 112.549-1.61719 112.46-1.22786 112.34-0.913411 112.19-0.673828 112.04-0.434245 111.868-0.262044 111.673-0.157227 111.479-0.0524089 111.277 0 111.067 0L80.6999 0C80.4902 0 80.2956-0.0524089 80.1159-0.157227 79.9362-0.262044 79.764-0.434245 79.5993-0.673828 79.4346-0.913411 79.3073-1.22786 79.2174-1.61719 79.1276-2.00651 79.0827-2.48568 79.0827-3.05469 79.0827-3.59375 79.1276-4.05794 79.2174-4.44727 79.3073-4.83659 79.4196-5.15853 79.5544-5.41309 79.6891-5.66764 79.8538-5.8623 80.0485-5.99707 80.2432-6.13184 80.4603-6.19922 80.6999-6.19922L92.8288-6.19922 92.8288-50.4023 81.5983-43.709C81.0293-43.4095 80.5726-43.2298 80.2282-43.1699 79.8838-43.11 79.6068-43.1774 79.3971-43.3721 79.1875-43.5667 79.0452-43.8887 78.9704-44.3379 78.8955-44.7871 78.8581-45.3561 78.8581-46.0449 78.8581-46.554 78.8805-46.9883 78.9255-47.3477 78.9704-47.707 79.0378-48.0065 79.1276-48.2461 79.2174-48.4857 79.3447-48.6953 79.5094-48.875 79.6741-49.0547 79.8913-49.2344 80.1608-49.4141L93.5475-57.9941C93.6673-58.084 93.817-58.1588 93.9967-58.2187 94.1764-58.2786 94.401-58.3385 94.6706-58.3984 94.9401-58.4583 95.2545-58.4958 95.6139-58.5107 95.9733-58.5257 96.4225-58.5332 96.9616-58.5332 97.6803-58.5332 98.2793-58.5033 98.7585-58.4434 99.2376-58.3835 99.612-58.3011 99.8815-58.1963 100.151-58.0915 100.331-57.9567 100.421-57.792 100.51-57.6273 100.555-57.4551 100.555-57.2754L100.555-6.19922 111.067-6.19922C111.307-6.19922 111.531-6.13184 111.741-5.99707 111.951-5.8623 112.123-5.66764 112.257-5.41309 112.392-5.15853 112.497-4.83659 112.572-4.44727 112.647-4.05794 112.684-3.59375 112.684-3.05469ZM160.438-18.8223C160.438-16.2767 160.049-13.8135 159.27-11.4326 158.492-9.05176 157.294-6.9554 155.676-5.14355 154.059-3.33171 152.008-1.87923 149.522-0.786133 147.036 0.306966 144.102 0.853516 140.717 0.853516 138.292 0.853516 136.15 0.554036 134.294-0.0449219 132.437-0.64388 130.82-1.4974 129.442-2.60547 128.064-3.71354 126.919-5.07617 126.006-6.69336 125.092-8.31055 124.358-10.1523 123.804-12.2187 123.25-14.2852 122.854-16.5462 122.614-19.002 122.374-21.4577 122.255-24.0931 122.255-26.9082 122.255-29.3939 122.389-31.9095 122.659-34.4551 122.928-37.0006 123.408-39.4564 124.096-41.8223 124.785-44.1881 125.721-46.4118 126.904-48.4932 128.087-50.5745 129.569-52.3864 131.351-53.9287 133.133-55.471 135.267-56.6914 137.753-57.5898 140.238-58.4883 143.128-58.9375 146.423-58.9375 147.531-58.9375 148.654-58.8701 149.792-58.7353 150.93-58.6006 151.978-58.4209 152.936-58.1963 153.895-57.9717 154.703-57.7246 155.362-57.4551 156.021-57.1855 156.455-56.9684 156.665-56.8037 156.874-56.639 157.032-56.4593 157.136-56.2646 157.241-56.07 157.324-55.8603 157.383-55.6357 157.443-55.4111 157.488-55.1566 157.518-54.8721 157.548-54.5876 157.563-54.2357 157.563-53.8164 157.563-53.2773 157.556-52.8131 157.541-52.4238 157.526-52.0345 157.466-51.72 157.361-51.4805 157.256-51.2409 157.121-51.0612 156.957-50.9414 156.792-50.8216 156.575-50.7617 156.305-50.7617 155.976-50.7617 155.527-50.8665 154.958-51.0762 154.389-51.2858 153.7-51.5179 152.891-51.7725 152.083-52.027 151.102-52.2591 149.949-52.4687 148.796-52.6784 147.456-52.7832 145.928-52.7832 143.143-52.7832 140.747-52.2142 138.741-51.0762 136.734-49.9381 135.095-48.4108 133.822-46.4941 132.549-44.5775 131.606-42.3538 130.992-39.8232 130.378-37.2926 130.026-34.6497 129.936-31.8945 130.715-32.3437 131.591-32.793 132.564-33.2422 133.537-33.6914 134.601-34.0957 135.754-34.4551 136.907-34.8144 138.127-35.1064 139.415-35.3311 140.702-35.5557 142.08-35.668 143.548-35.668 146.692-35.668 149.342-35.2412 151.499-34.3877 153.655-33.5342 155.399-32.3512 156.732-30.8389 158.065-29.3265 159.016-27.5446 159.585-25.4932 160.154-23.4417 160.438-21.2181 160.438-18.8223ZM152.622-18.1035C152.622-19.8405 152.45-21.4202 152.105-22.8428 151.761-24.2653 151.184-25.4707 150.376-26.459 149.567-27.4473 148.489-28.2109 147.141-28.75 145.794-29.2891 144.132-29.5586 142.155-29.5586 141.047-29.5586 139.939-29.4613 138.831-29.2666 137.723-29.0719 136.652-28.8024 135.619-28.458 134.586-28.1136 133.597-27.7093 132.654-27.2451 131.711-26.7809 130.85-26.2793 130.071-25.7402 130.071-21.877 130.318-18.6426 130.812-16.0371 131.306-13.4316 132.025-11.3428 132.968-9.77051 133.912-8.19824 135.087-7.07519 136.495-6.40137 137.902-5.72754 139.549-5.39062 141.436-5.39062 143.353-5.39062 145.015-5.75 146.423-6.46875 147.83-7.1875 148.998-8.15332 149.926-9.36621 150.855-10.5791 151.536-11.9417 151.97-13.4541 152.405-14.9665 152.622-16.5163 152.622-18.1035Z" fill="#FFFFFF" fill-rule="nonzero" fill-opacity="1" transform="matrix(1 0 0 1 230.348 269)"/></g></g></g><rect x="1693.5" y="1126.5" width="775" height="239" stroke="#000000" stroke-width="3.4375" stroke-linecap="butt" stroke-linejoin="round" stroke-miterlimit="10" stroke-opacity="1" fill="#404040" fill-opacity="1"/><g clip-path="url(#clip16)" filter="url(#fx4)" transform="translate(1783 1088)"><g clip-path="url(#clip17)"><path d="M45.7617-5.9082C45.7617-4.83398 45.717-3.92985 45.6274-3.1958 45.5379-2.46175 45.4036-1.85303 45.2246-1.36963 45.0456-0.88623 44.8218-0.537109 44.5532-0.322266 44.2847-0.107422 43.9714 0 43.6133 0L11.7627 0C10.5811 0 9.5874-0.349121 8.78174-1.04736 7.97607-1.74561 7.57324-2.88249 7.57324-4.45801L7.57324-67.5684C7.57324-67.9264 7.68962-68.2487 7.92236-68.5351 8.15511-68.8216 8.54004-69.0544 9.07715-69.2334 9.61426-69.4124 10.3394-69.5557 11.2524-69.6631 12.1655-69.7705 13.3024-69.8242 14.6631-69.8242 16.0596-69.8242 17.2054-69.7705 18.1006-69.6631 18.9958-69.5557 19.7119-69.4124 20.249-69.2334 20.7861-69.0544 21.1711-68.8216 21.4038-68.5351 21.6366-68.2487 21.7529-67.9264 21.7529-67.5684L21.7529-11.6553 43.6133-11.6553C43.9714-11.6553 44.2847-11.5568 44.5532-11.3599 44.8218-11.1629 45.0456-10.8407 45.2246-10.3931 45.4036-9.94547 45.5379-9.35465 45.6274-8.6206 45.717-7.88655 45.7617-6.98242 45.7617-5.9082ZM97.4316-27.1777C97.4316-25.5306 97.0646-24.3131 96.3306-23.5254 95.5965-22.7376 94.585-22.3437 93.2959-22.3437L64.1309-22.3437C64.1309-20.3027 64.3726-18.4497 64.8559-16.7847 65.3393-15.1196 66.1092-13.7052 67.1655-12.5415 68.2218-11.3778 69.5825-10.4915 71.2476-9.88281 72.9126-9.27409 74.9088-8.96973 77.2363-8.96973 79.5996-8.96973 81.6764-9.13981 83.4668-9.47998 85.2571-9.82015 86.8058-10.1961 88.1128-10.6079 89.4198-11.0197 90.5029-11.3957 91.3623-11.7358 92.2217-12.076 92.9199-12.2461 93.457-12.2461 93.7793-12.2461 94.0478-12.1834 94.2627-12.0581 94.4775-11.9328 94.6566-11.709 94.7998-11.3867 94.943-11.0645 95.0415-10.6079 95.0952-10.0171 95.1489-9.42627 95.1758-8.68327 95.1758-7.78809 95.1758-7.00033 95.1579-6.32894 95.1221-5.77393 95.0863-5.21891 95.0325-4.74447 94.9609-4.35059 94.8893-3.95671 94.7819-3.62549 94.6387-3.35693 94.4954-3.08838 94.3074-2.82878 94.0747-2.57812 93.8419-2.32747 93.2064-1.9873 92.168-1.55762 91.1295-1.12793 89.8047-0.707194 88.1934-0.29541 86.582 0.116374 84.7379 0.474447 82.6611 0.778809 80.5843 1.08317 78.3642 1.23535 76.001 1.23535 71.7399 1.23535 68.007 0.698242 64.8022-0.375977 61.5975-1.4502 58.9209-3.07943 56.7725-5.26367 54.624-7.44792 53.0216-10.2051 51.9653-13.5352 50.909-16.8652 50.3809-20.7682 50.3809-25.2441 50.3809-29.5052 50.9359-33.3455 52.0459-36.7651 53.1559-40.1847 54.7672-43.0851 56.8799-45.4663 58.9925-47.8475 61.5617-49.6647 64.5874-50.918 67.6131-52.1712 71.0238-52.7978 74.8193-52.7978 78.8297-52.7978 82.2583-52.207 85.105-51.0254 87.9516-49.8437 90.2881-48.2056 92.1143-46.1108 93.9404-44.0161 95.2832-41.5365 96.1426-38.6719 97.0019-35.8073 97.4316-32.6921 97.4316-29.3262ZM84.3262-31.0449C84.4336-34.8405 83.6727-37.8214 82.0434-39.9878 80.4142-42.1541 77.8988-43.2373 74.4971-43.2373 72.7783-43.2373 71.2834-42.915 70.0122-42.2705 68.741-41.626 67.6847-40.7576 66.8433-39.6655 66.0018-38.5734 65.3573-37.2843 64.9097-35.7983 64.4621-34.3123 64.2025-32.7279 64.1309-31.0449ZM151.93-46.4062C151.93-44.6875 151.733-43.4163 151.34-42.5928 150.946-41.7692 150.462-41.3574 149.889-41.3574L144.25-41.3574C145.037-40.498 145.601-39.5223 145.942-38.4302 146.282-37.338 146.452-36.2012 146.452-35.0195 146.452-32.2266 145.986-29.7469 145.055-27.5806 144.124-25.4142 142.791-23.5881 141.054-22.102 139.317-20.616 137.222-19.4881 134.77-18.7183 132.317-17.9484 129.587-17.5635 126.579-17.5635 125.039-17.5635 123.571-17.7515 122.174-18.1274 120.778-18.5034 119.704-18.9421 118.952-19.4434 118.522-18.9779 118.137-18.4228 117.797-17.7783 117.457-17.1338 117.287-16.4176 117.287-15.6299 117.287-14.5915 117.743-13.741 118.656-13.0786 119.569-12.4162 120.85-12.0492 122.497-11.9775L134.152-11.5479C136.873-11.4404 139.299-11.0555 141.43-10.3931 143.56-9.73063 145.351-8.79964 146.801-7.6001 148.251-6.40055 149.361-4.95931 150.131-3.27637 150.901-1.59342 151.286 0.322266 151.286 2.4707 151.286 4.83398 150.767 7.06299 149.728 9.15771 148.69 11.2524 147.132 13.0697 145.055 14.6094 142.979 16.1491 140.374 17.3665 137.24 18.2617 134.107 19.1569 130.446 19.6045 126.257 19.6045 122.174 19.6045 118.692 19.2822 115.81 18.6377 112.927 17.9932 110.564 17.098 108.72 15.9521 106.876 14.8063 105.533 13.4367 104.692 11.8433 103.85 10.2498 103.429 8.50423 103.429 6.60644 103.429 5.4248 103.582 4.29687 103.886 3.22266 104.19 2.14844 104.638 1.11898 105.229 0.134277 105.819-0.850423 106.545-1.79036 107.404-2.68555 108.263-3.58073 109.248-4.4401 110.358-5.26367 108.818-6.08724 107.628-7.20622 106.786-8.6206 105.945-10.035 105.524-11.5837 105.524-13.2666 105.524-15.3792 106.007-17.3039 106.974-19.0405 107.941-20.7772 109.194-22.3437 110.734-23.7402 109.481-24.9935 108.478-26.4974 107.726-28.252 106.974-30.0065 106.598-32.1908 106.598-34.8047 106.598-37.5977 107.091-40.0952 108.075-42.2974 109.06-44.4995 110.43-46.3615 112.184-47.8833 113.939-49.4051 116.034-50.5688 118.468-51.3745 120.903-52.1802 123.589-52.583 126.525-52.583 128.029-52.583 129.47-52.4935 130.849-52.3144 132.227-52.1354 133.507-51.8848 134.689-51.5625L149.889-51.5625C150.498-51.5625 150.99-51.1686 151.366-50.3809 151.742-49.5931 151.93-48.2682 151.93-46.4062ZM134.582-35.0732C134.582-37.6514 133.866-39.6566 132.433-41.0889 131.001-42.5212 128.978-43.2373 126.364-43.2373 125.039-43.2373 123.875-43.0135 122.873-42.5659 121.87-42.1183 121.038-41.5096 120.375-40.7397 119.713-39.9699 119.22-39.0747 118.898-38.0542 118.576-37.0337 118.415-35.9684 118.415-34.8584 118.415-32.4235 119.131-30.4989 120.563-29.0845 121.995-27.6701 123.983-26.9629 126.525-26.9629 127.886-26.9629 129.067-27.1777 130.07-27.6074 131.073-28.0371 131.905-28.6279 132.568-29.3799 133.23-30.1318 133.731-31.0002 134.071-31.9849 134.412-32.9696 134.582-33.999 134.582-35.0732ZM137.751 3.16895C137.751 1.55762 137.106 0.322266 135.817-0.537109 134.528-1.39648 132.756-1.86198 130.5-1.93359L120.885-2.20215C119.954-1.52181 119.211-0.868327 118.656-0.241699 118.101 0.384928 117.654 0.9847 117.314 1.55762 116.973 2.13053 116.75 2.68555 116.642 3.22266 116.535 3.75977 116.481 4.31478 116.481 4.88769 116.481 6.67806 117.385 8.03874 119.194 8.96973 121.002 9.90071 123.553 10.3662 126.847 10.3662 128.888 10.3662 130.607 10.1603 132.004 9.74853 133.4 9.33675 134.528 8.79069 135.387 8.11035 136.247 7.43001 136.855 6.66911 137.214 5.82764 137.572 4.98617 137.751 4.09993 137.751 3.16895ZM201.702-1.66504C201.702-1.16374 201.523-0.769857 201.165-0.483398 200.807-0.19694 200.243 0.00895182 199.473 0.134277 198.704 0.259603 197.567 0.322266 196.063 0.322266 194.451 0.322266 193.279 0.259603 192.545 0.134277 191.811 0.00895182 191.291-0.19694 190.987-0.483398 190.683-0.769857 190.531-1.16374 190.531-1.66504L190.531-5.47852C188.561-3.36589 186.314-1.71875 183.79-0.537109 181.265 0.644531 178.464 1.23535 175.384 1.23535 172.842 1.23535 170.505 0.904134 168.375 0.241699 166.244-0.420736 164.4-1.40544 162.843-2.7124 161.285-4.01937 160.076-5.63965 159.217-7.57324 158.358-9.50683 157.928-11.7627 157.928-14.3408 157.928-17.1338 158.474-19.5597 159.566-21.6187 160.658-23.6776 162.288-25.3784 164.454-26.7212 166.62-28.064 169.315-29.0576 172.537-29.7021 175.76-30.3467 179.502-30.6689 183.763-30.6689L188.436-30.6689 188.436-33.5693C188.436-35.0732 188.284-36.3892 187.979-37.5171 187.675-38.645 187.174-39.585 186.475-40.3369 185.777-41.0889 184.846-41.6439 183.682-42.0019 182.519-42.36 181.077-42.5391 179.359-42.5391 177.103-42.5391 175.089-42.2884 173.316-41.7871 171.544-41.2858 169.977-40.7308 168.617-40.1221 167.256-39.5133 166.119-38.9583 165.206-38.457 164.293-37.9557 163.55-37.7051 162.977-37.7051 162.583-37.7051 162.234-37.8304 161.93-38.0811 161.625-38.3317 161.374-38.6898 161.178-39.1553 160.981-39.6208 160.828-40.1937 160.721-40.874 160.614-41.5544 160.56-42.3063 160.56-43.1299 160.56-44.2399 160.649-45.1172 160.828-45.7617 161.007-46.4062 161.348-46.9881 161.849-47.5073 162.35-48.0265 163.228-48.5994 164.481-49.2261 165.734-49.8527 167.202-50.4346 168.885-50.9717 170.568-51.5088 172.403-51.9474 174.39-52.2876 176.378-52.6278 178.428-52.7978 180.54-52.7978 184.3-52.7978 187.514-52.4308 190.181-51.6968 192.849-50.9627 195.042-49.8348 196.761-48.313 198.48-46.7912 199.733-44.8307 200.521-42.4316 201.309-40.0325 201.702-37.1859 201.702-33.8916ZM188.436-22.1826 183.28-22.1826C181.095-22.1826 179.233-22.0215 177.694-21.6992 176.154-21.3769 174.901-20.8936 173.934-20.249 172.967-19.6045 172.26-18.8257 171.812-17.9126 171.365-16.9995 171.141-15.9521 171.141-14.7705 171.141-12.7653 171.777-11.1898 173.048-10.0439 174.319-8.89811 176.082-8.32519 178.338-8.32519 180.236-8.32519 181.982-8.80859 183.575-9.77539 185.168-10.7422 186.789-12.1566 188.436-14.0186ZM228.844-1.82617C228.844-1.4681 228.737-1.15479 228.522-0.88623 228.307-0.617676 227.94-0.39388 227.421-0.214844 226.902-0.0358073 226.213 0.09847 225.353 0.187988 224.494 0.277506 223.402 0.322266 222.077 0.322266 220.752 0.322266 219.66 0.277506 218.8 0.187988 217.941 0.09847 217.252-0.0358073 216.733-0.214844 216.213-0.39388 215.846-0.617676 215.631-0.88623 215.417-1.15479 215.309-1.4681 215.309-1.82617L215.309-72.456C215.309-72.8141 215.417-73.1364 215.631-73.4228 215.846-73.7093 216.213-73.951 216.733-74.1479 217.252-74.3449 217.941-74.4971 218.8-74.6045 219.66-74.7119 220.752-74.7656 222.077-74.7656 223.402-74.7656 224.494-74.7119 225.353-74.6045 226.213-74.4971 226.902-74.3449 227.421-74.1479 227.94-73.951 228.307-73.7093 228.522-73.4228 228.737-73.1364 228.844-72.8141 228.844-72.456ZM255.771-1.82617C255.771-1.4681 255.664-1.15479 255.449-0.88623 255.234-0.617676 254.867-0.39388 254.348-0.214844 253.829-0.0358073 253.14 0.09847 252.28 0.187988 251.421 0.277506 250.329 0.322266 249.004 0.322266 247.679 0.322266 246.587 0.277506 245.728 0.187988 244.868 0.09847 244.179-0.0358073 243.66-0.214844 243.14-0.39388 242.773-0.617676 242.559-0.88623 242.344-1.15479 242.236-1.4681 242.236-1.82617L242.236-49.6289C242.236-49.987 242.344-50.3003 242.559-50.5688 242.773-50.8374 243.14-51.0701 243.66-51.2671 244.179-51.464 244.868-51.6162 245.728-51.7236 246.587-51.8311 247.679-51.8848 249.004-51.8848 250.329-51.8848 251.421-51.8311 252.28-51.7236 253.14-51.6162 253.829-51.464 254.348-51.2671 254.867-51.0701 255.234-50.8374 255.449-50.5688 255.664-50.3003 255.771-49.987 255.771-49.6289ZM256.792-65.957C256.792-63.2357 256.237-61.3558 255.127-60.3174 254.017-59.279 251.958-58.7598 248.95-58.7598 245.907-58.7598 243.857-59.2611 242.8-60.2637 241.744-61.2663 241.216-63.0745 241.216-65.6885 241.216-68.4098 241.762-70.2987 242.854-71.355 243.946-72.4113 246.014-72.9394 249.058-72.9394 252.065-72.9394 254.106-72.4292 255.181-71.4087 256.255-70.3882 256.792-68.571 256.792-65.957ZM302.894-15.3613C302.894-12.64 302.384-10.2409 301.363-8.16406 300.343-6.08724 298.901-4.35058 297.039-2.9541 295.177-1.55762 292.975-0.510254 290.433 0.187988 287.891 0.88623 285.133 1.23535 282.161 1.23535 280.371 1.23535 278.661 1.10107 277.032 0.832519 275.403 0.563965 273.944 0.223796 272.655-0.187988 271.366-0.599772 270.291-1.02051 269.432-1.4502 268.573-1.87988 267.946-2.28271 267.552-2.65869 267.158-3.03467 266.854-3.62549 266.639-4.43115 266.424-5.23682 266.317-6.42741 266.317-8.00293 266.317-9.04134 266.353-9.87386 266.424-10.5005 266.496-11.1271 266.603-11.6284 266.746-12.0044 266.89-12.3804 267.069-12.631 267.284-12.7563 267.498-12.8817 267.767-12.9443 268.089-12.9443 268.483-12.9443 269.065-12.7205 269.835-12.2729 270.605-11.8254 271.562-11.333 272.708-10.7959 273.854-10.2588 275.188-9.75749 276.71-9.29199 278.232-8.8265 279.959-8.59375 281.893-8.59375 283.11-8.59375 284.193-8.71907 285.142-8.96973 286.091-9.22038 286.915-9.57845 287.613-10.0439 288.311-10.5094 288.839-11.1003 289.198-11.8164 289.556-12.5326 289.735-13.3561 289.735-14.2871 289.735-15.3613 289.403-16.2834 288.741-17.0532 288.079-17.8231 287.201-18.4945 286.109-19.0674 285.017-19.6403 283.782-20.1774 282.403-20.6787 281.025-21.18 279.61-21.735 278.16-22.3437 276.71-22.9525 275.295-23.6507 273.917-24.4385 272.538-25.2262 271.303-26.193 270.211-27.3389 269.119-28.4847 268.241-29.8633 267.579-31.4746 266.916-33.0859 266.585-35.0195 266.585-37.2754 266.585-39.5671 267.033-41.6707 267.928-43.5864 268.823-45.5021 270.112-47.1403 271.795-48.501 273.478-49.8616 275.528-50.918 277.945-51.6699 280.362-52.4219 283.075-52.7978 286.082-52.7978 287.586-52.7978 289.045-52.6904 290.46-52.4756 291.874-52.2607 293.154-51.9922 294.3-51.6699 295.446-51.3476 296.413-50.9985 297.201-50.6226 297.988-50.2466 298.552-49.9243 298.892-49.6558 299.233-49.3872 299.474-49.1186 299.617-48.8501 299.761-48.5815 299.868-48.2593 299.94-47.8833 300.011-47.5073 300.074-47.0418 300.128-46.4868 300.181-45.9318 300.208-45.2425 300.208-44.4189 300.208-43.4521 300.181-42.6644 300.128-42.0557 300.074-41.4469 299.984-40.9635 299.859-40.6055 299.734-40.2474 299.564-40.0057 299.349-39.8804 299.134-39.755 298.883-39.6924 298.597-39.6924 298.275-39.6924 297.773-39.8804 297.093-40.2563 296.413-40.6323 295.562-41.0351 294.542-41.4648 293.521-41.8945 292.34-42.2974 290.997-42.6733 289.654-43.0493 288.123-43.2373 286.405-43.2373 285.187-43.2373 284.131-43.112 283.236-42.8613 282.34-42.6107 281.606-42.2526 281.034-41.7871 280.461-41.3216 280.031-40.7756 279.744-40.1489 279.458-39.5223 279.315-38.8509 279.315-38.1348 279.315-37.0247 279.655-36.0937 280.335-35.3418 281.016-34.5898 281.911-33.9274 283.021-33.3545 284.131-32.7816 285.393-32.2445 286.807-31.7432 288.222-31.2419 289.654-30.6958 291.104-30.105 292.555-29.5142 293.987-28.8249 295.401-28.0371 296.816-27.2493 298.078-26.2825 299.188-25.1367 300.298-23.9909 301.193-22.6213 301.873-21.0278 302.554-19.4344 302.894-17.5456 302.894-15.3613ZM389.494-1.82617C389.494-1.4681 389.386-1.15479 389.172-0.88623 388.957-0.617676 388.599-0.39388 388.097-0.214844 387.596-0.0358073 386.916 0.09847 386.056 0.187988 385.197 0.277506 384.105 0.322266 382.78 0.322266 381.419 0.322266 380.309 0.277506 379.45 0.187988 378.59 0.09847 377.901-0.0358073 377.382-0.214844 376.863-0.39388 376.505-0.617676 376.308-0.88623 376.111-1.15479 376.012-1.4681 376.012-1.82617L376.012-30.2393C376.012-31.8506 375.86-33.3187 375.556-34.6436 375.251-35.9684 374.786-37.1053 374.159-38.0542 373.533-39.0031 372.745-39.7371 371.796-40.2563 370.847-40.7755 369.71-41.0351 368.385-41.0352 366.774-41.0351 365.145-40.4085 363.498-39.1553 361.851-37.902 360.06-36.0758 358.127-33.6768L358.127-1.82617C358.127-1.4681 358.019-1.15479 357.804-0.88623 357.59-0.617676 357.222-0.39388 356.703-0.214844 356.184-0.0358073 355.495 0.09847 354.635 0.187988 353.776 0.277506 352.702 0.322266 351.413 0.322266 350.088 0.322266 348.996 0.277506 348.136 0.187988 347.277 0.09847 346.588-0.0358073 346.069-0.214844 345.549-0.39388 345.182-0.617676 344.967-0.88623 344.753-1.15479 344.645-1.4681 344.645-1.82617L344.645-30.2393C344.645-31.8506 344.493-33.3187 344.189-34.6436 343.884-35.9684 343.428-37.1053 342.819-38.0542 342.21-39.0031 341.422-39.7371 340.456-40.2563 339.489-40.7755 338.361-41.0351 337.072-41.0352 335.425-41.0351 333.778-40.4085 332.131-39.1553 330.483-37.902 328.711-36.0758 326.813-33.6768L326.813-1.82617C326.813-1.4681 326.706-1.15479 326.491-0.88623 326.276-0.617676 325.909-0.39388 325.39-0.214844 324.871-0.0358073 324.181 0.09847 323.322 0.187988 322.463 0.277506 321.37 0.322266 320.046 0.322266 318.721 0.322266 317.629 0.277506 316.769 0.187988 315.91 0.09847 315.221-0.0358073 314.701-0.214844 314.182-0.39388 313.815-0.617676 313.6-0.88623 313.385-1.15479 313.278-1.4681 313.278-1.82617L313.278-49.7363C313.278-50.0944 313.367-50.4077 313.547-50.6763 313.726-50.9448 314.048-51.1686 314.513-51.3477 314.979-51.5267 315.579-51.661 316.313-51.7505 317.047-51.84 317.969-51.8848 319.079-51.8848 320.225-51.8848 321.173-51.84 321.925-51.7505 322.677-51.661 323.259-51.5267 323.671-51.3477 324.083-51.1686 324.378-50.9448 324.557-50.6763 324.736-50.4077 324.826-50.0944 324.826-49.7363L324.826-44.2041C327.476-47.0687 330.116-49.2171 332.748-50.6494 335.38-52.0817 338.128-52.7978 340.993-52.7978 342.962-52.7978 344.735-52.592 346.31-52.1802 347.886-51.7684 349.291-51.1776 350.527-50.4077 351.762-49.6379 352.827-48.7158 353.722-47.6416 354.617-46.5674 355.369-45.3678 355.978-44.043 357.41-45.5827 358.816-46.9075 360.194-48.0176 361.573-49.1276 362.934-50.0317 364.277-50.73 365.619-51.4282 366.962-51.9474 368.305-52.2876 369.648-52.6278 371.017-52.7978 372.414-52.7978 375.601-52.7978 378.286-52.2607 380.47-51.1865 382.655-50.1123 384.418-48.6532 385.761-46.8091 387.104-44.965 388.062-42.8076 388.634-40.3369 389.207-37.8662 389.494-35.2523 389.494-32.4951ZM451.1-26.2646C451.1-22.1826 450.563-18.4587 449.489-15.0928 448.415-11.7269 446.785-8.8265 444.601-6.3916 442.417-3.95671 439.678-2.07682 436.383-0.751953 433.089 0.572917 429.24 1.23535 424.836 1.23535 420.575 1.23535 416.868 0.644531 413.717-0.537109 410.566-1.71875 407.952-3.4375 405.876-5.69336 403.799-7.94922 402.259-10.7243 401.257-14.0186 400.254-17.3128 399.753-21.0726 399.753-25.2978 399.753-29.3799 400.299-33.1128 401.391-36.4966 402.483-39.8804 404.121-42.7808 406.305-45.1978 408.49-47.6147 411.22-49.4857 414.496-50.8105 417.773-52.1354 421.613-52.7978 426.017-52.7978 430.314-52.7978 434.038-52.216 437.189-51.0522 440.34-49.8885 442.945-48.1787 445.004-45.9228 447.063-43.667 448.594-40.8919 449.596-37.5977 450.599-34.3034 451.1-30.5257 451.1-26.2646ZM437.189-25.7275C437.189-28.0908 437.001-30.2661 436.625-32.2534 436.249-34.2407 435.614-35.9684 434.718-37.4365 433.823-38.9046 432.633-40.0505 431.147-40.874 429.661-41.6976 427.79-42.1094 425.534-42.1094 423.529-42.1094 421.774-41.7423 420.27-41.0083 418.766-40.2742 417.531-39.2 416.564-37.7856 415.597-36.3713 414.872-34.6704 414.389-32.6831 413.905-30.6958 413.664-28.431 413.664-25.8887 413.664-23.5254 413.861-21.3501 414.255-19.3628 414.648-17.3755 415.284-15.6478 416.161-14.1797 417.039-12.7116 418.229-11.5747 419.733-10.769 421.237-9.96338 423.099-9.56054 425.319-9.56055 427.36-9.56054 429.132-9.92757 430.636-10.6616 432.14-11.3957 433.376-12.4609 434.342-13.8574 435.309-15.2539 436.025-16.9458 436.491-18.9331 436.956-20.9204 437.189-23.1852 437.189-25.7275Z" fill="#FFFFFF" fill-rule="nonzero" fill-opacity="1" transform="matrix(1 0 0 1 74.2881 144)"/></g></g><text fill="#FFFFFF" fill-opacity="1" font-family="Calibri,Calibri_MSFontService,sans-serif" font-style="normal" font-variant="normal" font-weight="700" font-stretch="normal" font-size="110" text-anchor="start" direction="ltr" writing-mode="lr-tb" unicode-bidi="normal" text-decoration="none" transform="matrix(1 0 0 1 1852.83 1228)">Legalismo</text><g clip-path="url(#clip18)" filter="url(#fx5)" transform="translate(1940 1226)"><g clip-path="url(#clip19)"><path d="M41.5078-3.32422C41.5078-2.78516 41.4704-2.30599 41.3955-1.88672 41.3206-1.46745 41.2158-1.11556 41.0811-0.831055 40.9463-0.546549 40.7666-0.336914 40.542-0.202148 40.3174-0.0673828 40.0703 0 39.8008 0L7.68164 0C7.26237 0 6.89551-0.0524089 6.58105-0.157227 6.2666-0.262044 5.99707-0.434245 5.77246-0.673828 5.54785-0.913411 5.38314-1.25781 5.27832-1.70703 5.1735-2.15625 5.12109-2.71029 5.12109-3.36914 5.12109-3.9681 5.14426-4.49219 5.19058-4.94141 5.23691-5.39062 5.33716-5.78743 5.49135-6.13184 5.64553-6.47624 5.83844-6.82064 6.07007-7.16504 6.3017-7.50944 6.60258-7.8763 6.97272-8.26562L18.5913-20.2148C21.2764-22.97 23.429-25.4408 25.0492-27.627 26.6694-29.8131 27.9193-31.8047 28.7988-33.6016 29.6783-35.3984 30.2569-37.0306 30.5346-38.498 30.8123-39.9655 30.9512-41.3431 30.9512-42.6309 30.9512-43.9186 30.7349-45.139 30.3023-46.292 29.8697-47.445 29.2439-48.4557 28.425-49.3242 27.6061-50.1927 26.5787-50.8815 25.3426-51.3906 24.1065-51.8997 22.6851-52.1543 21.0782-52.1543 19.1933-52.1543 17.5015-51.8997 16.0027-51.3906 14.5039-50.8815 13.1905-50.3275 12.0626-49.7285 10.9346-49.1296 9.99219-48.5755 9.2353-48.0664 8.47842-47.5573 7.91444-47.3027 7.54337-47.3027 7.32718-47.3027 7.13404-47.3626 6.96394-47.4824 6.79385-47.6022 6.65475-47.7969 6.54666-48.0664 6.43857-48.3359 6.35364-48.6953 6.29187-49.1445 6.2301-49.5937 6.19922-50.1328 6.19922-50.7617 6.19922-51.2109 6.21419-51.6003 6.24414-51.9297 6.27409-52.2591 6.3265-52.5436 6.40137-52.7832 6.47624-53.0228 6.57357-53.2474 6.69336-53.457 6.81315-53.6667 7.05273-53.9287 7.41211-54.2432 7.77148-54.5576 8.3929-54.9844 9.27637-55.5234 10.1598-56.0625 11.2679-56.5941 12.6006-57.1182 13.9333-57.6422 15.4007-58.084 17.0029-58.4434 18.6051-58.8027 20.2897-58.9824 22.0566-58.9824 24.8717-58.9824 27.335-58.5856 29.4463-57.792 31.5576-56.9984 33.3096-55.9128 34.7021-54.5352 36.0947-53.1575 37.1354-51.5553 37.8242-49.7285 38.513-47.9017 38.8574-45.9551 38.8574-43.8887 38.8574-42.0319 38.6927-40.1826 38.3633-38.3408 38.0339-36.499 37.3376-34.5075 36.2744-32.3662 35.2113-30.2249 33.6764-27.8441 31.6699-25.2236 29.6634-22.6032 26.998-19.5859 23.6738-16.1719L14.4648-6.55859 39.7559-6.55859C39.9954-6.55859 40.2275-6.49121 40.4521-6.35644 40.6768-6.22168 40.8714-6.01953 41.0361-5.75 41.2008-5.48047 41.3206-5.14355 41.3955-4.73926 41.4704-4.33496 41.5078-3.86328 41.5078-3.32422ZM64.2402-35.9375C64.2402-34.9792 64.1728-34.1706 64.0381-33.5117 63.9033-32.8529 63.6488-32.3213 63.2744-31.917 62.9001-31.5127 62.4134-31.2282 61.8144-31.0635 61.2155-30.8988 60.4518-30.8164 59.5234-30.8164 58.5651-30.8164 57.7865-30.8988 57.1875-31.0635 56.5885-31.2282 56.1094-31.5127 55.75-31.917 55.3906-32.3213 55.1435-32.8529 55.0088-33.5117 54.874-34.1706 54.8066-34.9792 54.8066-35.9375 54.8066-36.9557 54.874-37.8018 55.0088-38.4756 55.1435-39.1494 55.3906-39.6885 55.75-40.0928 56.1094-40.4971 56.5885-40.7816 57.1875-40.9463 57.7865-41.111 58.5651-41.1934 59.5234-41.1934 60.4518-41.1934 61.2155-41.111 61.8144-40.9463 62.4134-40.7816 62.9001-40.4971 63.2744-40.0928 63.6488-39.6885 63.9033-39.1494 64.0381-38.4756 64.1728-37.8018 64.2402-36.9557 64.2402-35.9375ZM64.2402-4.76172C64.2402-3.77344 64.1728-2.94987 64.0381-2.29102 63.9033-1.63216 63.6488-1.10059 63.2744-0.696289 62.9001-0.291992 62.4134-0.00748697 61.8144 0.157227 61.2155 0.32194 60.4518 0.404297 59.5234 0.404297 58.5651 0.404297 57.7865 0.32194 57.1875 0.157227 56.5885-0.00748697 56.1094-0.291992 55.75-0.696289 55.3906-1.10059 55.1435-1.63216 55.0088-2.29102 54.874-2.94987 54.8066-3.77344 54.8066-4.76172 54.8066-5.75 54.874-6.58105 55.0088-7.25488 55.1435-7.92871 55.3906-8.46029 55.75-8.84961 56.1094-9.23893 56.5885-9.52344 57.1875-9.70312 57.7865-9.88281 58.5651-9.97266 59.5234-9.97266 60.4518-9.97266 61.2155-9.88281 61.8144-9.70312 62.4134-9.52344 62.9001-9.23893 63.2744-8.84961 63.6488-8.46029 63.9033-7.92871 64.0381-7.25488 64.1728-6.58105 64.2402-5.75 64.2402-4.76172ZM112.684-3.05469C112.684-2.48568 112.639-2.00651 112.549-1.61719 112.46-1.22786 112.34-0.913411 112.19-0.673828 112.04-0.434245 111.868-0.262044 111.673-0.157227 111.479-0.0524089 111.277 0 111.067 0L80.6999 0C80.4902 0 80.2956-0.0524089 80.1159-0.157227 79.9362-0.262044 79.764-0.434245 79.5993-0.673828 79.4346-0.913411 79.3073-1.22786 79.2174-1.61719 79.1276-2.00651 79.0827-2.48568 79.0827-3.05469 79.0827-3.59375 79.1276-4.05794 79.2174-4.44727 79.3073-4.83659 79.4196-5.15853 79.5544-5.41309 79.6891-5.66764 79.8538-5.8623 80.0485-5.99707 80.2432-6.13184 80.4603-6.19922 80.6999-6.19922L92.8288-6.19922 92.8288-50.4023 81.5983-43.709C81.0293-43.4095 80.5726-43.2298 80.2282-43.1699 79.8838-43.11 79.6068-43.1774 79.3971-43.3721 79.1875-43.5667 79.0452-43.8887 78.9704-44.3379 78.8955-44.7871 78.8581-45.3561 78.8581-46.0449 78.8581-46.554 78.8805-46.9883 78.9255-47.3477 78.9704-47.707 79.0378-48.0065 79.1276-48.2461 79.2174-48.4857 79.3447-48.6953 79.5094-48.875 79.6741-49.0547 79.8913-49.2344 80.1608-49.4141L93.5475-57.9941C93.6673-58.084 93.817-58.1588 93.9967-58.2187 94.1764-58.2786 94.401-58.3385 94.6706-58.3984 94.9401-58.4583 95.2545-58.4958 95.6139-58.5107 95.9733-58.5257 96.4225-58.5332 96.9616-58.5332 97.6803-58.5332 98.2793-58.5033 98.7585-58.4434 99.2376-58.3835 99.612-58.3011 99.8815-58.1963 100.151-58.0915 100.331-57.9567 100.421-57.792 100.51-57.6273 100.555-57.4551 100.555-57.2754L100.555-6.19922 111.067-6.19922C111.307-6.19922 111.531-6.13184 111.741-5.99707 111.951-5.8623 112.123-5.66764 112.257-5.41309 112.392-5.15853 112.497-4.83659 112.572-4.44727 112.647-4.05794 112.684-3.59375 112.684-3.05469ZM160.438-18.8223C160.438-16.2767 160.049-13.8135 159.27-11.4326 158.492-9.05176 157.294-6.9554 155.676-5.14355 154.059-3.33171 152.008-1.87923 149.522-0.786133 147.036 0.306966 144.102 0.853516 140.717 0.853516 138.292 0.853516 136.15 0.554036 134.294-0.0449219 132.437-0.64388 130.82-1.4974 129.442-2.60547 128.064-3.71354 126.919-5.07617 126.006-6.69336 125.092-8.31055 124.358-10.1523 123.804-12.2187 123.25-14.2852 122.854-16.5462 122.614-19.002 122.374-21.4577 122.255-24.0931 122.255-26.9082 122.255-29.3939 122.389-31.9095 122.659-34.4551 122.928-37.0006 123.408-39.4564 124.096-41.8223 124.785-44.1881 125.721-46.4118 126.904-48.4932 128.087-50.5745 129.569-52.3864 131.351-53.9287 133.133-55.471 135.267-56.6914 137.753-57.5898 140.238-58.4883 143.128-58.9375 146.423-58.9375 147.531-58.9375 148.654-58.8701 149.792-58.7353 150.93-58.6006 151.978-58.4209 152.936-58.1963 153.895-57.9717 154.703-57.7246 155.362-57.4551 156.021-57.1855 156.455-56.9684 156.665-56.8037 156.874-56.639 157.032-56.4593 157.136-56.2646 157.241-56.07 157.324-55.8603 157.383-55.6357 157.443-55.4111 157.488-55.1566 157.518-54.8721 157.548-54.5876 157.563-54.2357 157.563-53.8164 157.563-53.2773 157.556-52.8131 157.541-52.4238 157.526-52.0345 157.466-51.72 157.361-51.4805 157.256-51.2409 157.121-51.0612 156.957-50.9414 156.792-50.8216 156.575-50.7617 156.305-50.7617 155.976-50.7617 155.527-50.8665 154.958-51.0762 154.389-51.2858 153.7-51.5179 152.891-51.7725 152.083-52.027 151.102-52.2591 149.949-52.4687 148.796-52.6784 147.456-52.7832 145.928-52.7832 143.143-52.7832 140.747-52.2142 138.741-51.0762 136.734-49.9381 135.095-48.4108 133.822-46.4941 132.549-44.5775 131.606-42.3538 130.992-39.8232 130.378-37.2926 130.026-34.6497 129.936-31.8945 130.715-32.3437 131.591-32.793 132.564-33.2422 133.537-33.6914 134.601-34.0957 135.754-34.4551 136.907-34.8144 138.127-35.1064 139.415-35.3311 140.702-35.5557 142.08-35.668 143.548-35.668 146.692-35.668 149.342-35.2412 151.499-34.3877 153.655-33.5342 155.399-32.3512 156.732-30.8389 158.065-29.3265 159.016-27.5446 159.585-25.4932 160.154-23.4417 160.438-21.2181 160.438-18.8223ZM152.622-18.1035C152.622-19.8405 152.45-21.4202 152.105-22.8428 151.761-24.2653 151.184-25.4707 150.376-26.459 149.567-27.4473 148.489-28.2109 147.141-28.75 145.794-29.2891 144.132-29.5586 142.155-29.5586 141.047-29.5586 139.939-29.4613 138.831-29.2666 137.723-29.0719 136.652-28.8024 135.619-28.458 134.586-28.1136 133.597-27.7093 132.654-27.2451 131.711-26.7809 130.85-26.2793 130.071-25.7402 130.071-21.877 130.318-18.6426 130.812-16.0371 131.306-13.4316 132.025-11.3428 132.968-9.77051 133.912-8.19824 135.087-7.07519 136.495-6.40137 137.902-5.72754 139.549-5.39062 141.436-5.39062 143.353-5.39062 145.015-5.75 146.423-6.46875 147.83-7.1875 148.998-8.15332 149.926-9.36621 150.855-10.5791 151.536-11.9417 151.97-13.4541 152.405-14.9665 152.622-16.5163 152.622-18.1035Z" fill="#FFFFFF" fill-rule="nonzero" fill-opacity="1" transform="matrix(1 0 0 1 62.3132 121)"/></g></g><text fill="#FFFFFF" fill-opacity="1" font-family="Calibri,Calibri_MSFontService,sans-serif" font-style="normal" font-variant="normal" font-weight="400" font-stretch="normal" font-size="92" text-anchor="start" direction="ltr" writing-mode="lr-tb" unicode-bidi="normal" text-decoration="none" transform="matrix(1 0 0 1 1998.35 1343)">2:16</text></g></svg>