<svg width="821" height="413" xmlns="http://www.w3.org/2000/svg" xmlns:xlink="http://www.w3.org/1999/xlink" xml:space="preserve" overflow="hidden"><defs><filter id="fx0" x="-10%" y="-10%" width="120%" height="120%" filterUnits="userSpaceOnUse" primitiveUnits="userSpaceOnUse"><feComponentTransfer color-interpolation-filters="sRGB"><feFuncR type="discrete" tableValues="0.000000 0.000000"/><feFuncG type="discrete" tableValues="0.000000 0.000000"/><feFuncB type="discrete" tableValues="0.000000 0.000000"/><feFuncA type="linear" slope="0.349020" intercept="0.000000"/></feComponentTransfer><feGaussianBlur stdDeviation="4.811899 4.811899"/></filter><filter id="fx1" x="-10%" y="-10%" width="120%" height="120%" filterUnits="userSpaceOnUse" primitiveUnits="userSpaceOnUse"><feComponentTransfer color-interpolation-filters="sRGB"><feFuncR type="discrete" tableValues="0.000000 0.000000"/><feFuncG type="discrete" tableValues="0.000000 0.000000"/><feFuncB type="discrete" tableValues="0.000000 0.000000"/><feFuncA type="linear" slope="0.431373" intercept="0.000000"/></feComponentTransfer><feGaussianBlur stdDeviation="2.221922 2.221922"/></filter><filter id="fx2" x="-10%" y="-10%" width="120%" height="120%" filterUnits="userSpaceOnUse" primitiveUnits="userSpaceOnUse"><feComponentTransfer color-interpolation-filters="sRGB"><feFuncR type="discrete" tableValues="0.000000 0.000000"/><feFuncG type="discrete" tableValues="0.000000 0.000000"/><feFuncB type="discrete" tableValues="0.000000 0.000000"/><feFuncA type="linear" slope="0.431373" intercept="0.000000"/></feComponentTransfer><feGaussianBlur stdDeviation="1.869331 1.869331"/></filter><filter id="fx3" x="-10%" y="-10%" width="120%" height="120%" filterUnits="userSpaceOnUse" primitiveUnits="userSpaceOnUse"><feComponentTransfer color-interpolation-filters="sRGB"><feFuncR type="discrete" tableValues="0.000000 0.000000"/><feFuncG type="discrete" tableValues="0.000000 0.000000"/><feFuncB type="discrete" tableValues="0.000000 0.000000"/><feFuncA type="linear" slope="0.431373" intercept="0.000000"/></feComponentTransfer><feGaussianBlur stdDeviation="1.869331 1.869331"/></filter><filter id="fx4" x="-10%" y="-10%" width="120%" height="120%" filterUnits="userSpaceOnUse" primitiveUnits="userSpaceOnUse"><feComponentTransfer color-interpolation-filters="sRGB"><feFuncR type="discrete" tableValues="0.000000 0.000000"/><feFuncG type="discrete" tableValues="0.000000 0.000000"/><feFuncB type="discrete" tableValues="0.000000 0.000000"/><feFuncA type="linear" slope="0.431373" intercept="0.000000"/></feComponentTransfer><feGaussianBlur stdDeviation="1.869331 1.869331"/></filter><filter id="fx5" x="-10%" y="-10%" width="120%" height="120%" filterUnits="userSpaceOnUse" primitiveUnits="userSpaceOnUse"><feComponentTransfer color-interpolation-filters="sRGB"><feFuncR type="discrete" tableValues="0.000000 0.000000"/><feFuncG type="discrete" tableValues="0.000000 0.000000"/><feFuncB type="discrete" tableValues="0.000000 0.000000"/><feFuncA type="linear" slope="0.349020" intercept="0.000000"/></feComponentTransfer><feGaussianBlur stdDeviation="4.811899 4.811899"/></filter><filter id="fx6" x="-10%" y="-10%" width="120%" height="120%" filterUnits="userSpaceOnUse" primitiveUnits="userSpaceOnUse"><feComponentTransfer color-interpolation-filters="sRGB"><feFuncR type="discrete" tableValues="0.000000 0.000000"/><feFuncG type="discrete" tableValues="0.000000 0.000000"/><feFuncB type="discrete" tableValues="0.000000 0.000000"/><feFuncA type="linear" slope="0.431373" intercept="0.000000"/></feComponentTransfer><feGaussianBlur stdDeviation="2.221922 2.221922"/></filter><filter id="fx7" x="-10%" y="-10%" width="120%" height="120%" filterUnits="userSpaceOnUse" primitiveUnits="userSpaceOnUse"><feComponentTransfer color-interpolation-filters="sRGB"><feFuncR type="discrete" tableValues="0.000000 0.000000"/><feFuncG type="discrete" tableValues="0.000000 0.000000"/><feFuncB type="discrete" tableValues="0.000000 0.000000"/><feFuncA type="linear" slope="0.431373" intercept="0.000000"/></feComponentTransfer><feGaussianBlur stdDeviation="1.869331 1.869331"/></filter><filter id="fx8" x="-10%" y="-10%" width="120%" height="120%" filterUnits="userSpaceOnUse" primitiveUnits="userSpaceOnUse"><feComponentTransfer color-interpolation-filters="sRGB"><feFuncR type="discrete" tableValues="0.000000 0.000000"/><feFuncG type="discrete" tableValues="0.000000 0.000000"/><feFuncB type="discrete" tableValues="0.000000 0.000000"/><feFuncA type="linear" slope="0.431373" intercept="0.000000"/></feComponentTransfer><feGaussianBlur stdDeviation="1.869331 1.869331"/></filter><filter id="fx9" x="-10%" y="-10%" width="120%" height="120%" filterUnits="userSpaceOnUse" primitiveUnits="userSpaceOnUse"><feComponentTransfer color-interpolation-filters="sRGB"><feFuncR type="discrete" tableValues="0.000000 0.000000"/><feFuncG type="discrete" tableValues="0.000000 0.000000"/><feFuncB type="discrete" tableValues="0.000000 0.000000"/><feFuncA type="linear" slope="0.431373" intercept="0.000000"/></feComponentTransfer><feGaussianBlur stdDeviation="1.869331 1.869331"/></filter><clipPath id="clip10"><rect x="13" y="265" width="821" height="413"/></clipPath><clipPath id="clip11"><path d="M34.4999 276.5 34.4999 646.5 803.5 646.5 803.5 276.5ZM13 265 834 265 834 678 13 678Z" fill-rule="evenodd" clip-rule="evenodd"/></clipPath><clipPath id="clip12"><rect x="1.56417" y="1.86469" width="800.871" height="401.872"/></clipPath><clipPath id="clip13"><rect x="0" y="0" width="804" height="406"/></clipPath><clipPath id="clip14"><rect x="-14.4357" y="-14.4357" width="846.871" height="416.871"/></clipPath><clipPath id="clip15"><rect x="0" y="0" width="818" height="388"/></clipPath><clipPath id="clip16"><rect x="-6.66576" y="-6.66576" width="801.332" height="279.332"/></clipPath><clipPath id="clip17"><rect x="0" y="0" width="788" height="266"/></clipPath><clipPath id="clip18"><rect x="-5.60799" y="-5.60799" width="252.216" height="218.216"/></clipPath><clipPath id="clip19"><rect x="0" y="0" width="241" height="207"/></clipPath><clipPath id="clip20"><rect x="-5.608" y="-5.60799" width="163.216" height="218.216"/></clipPath><clipPath id="clip21"><rect x="0" y="0" width="152" height="207"/></clipPath><clipPath id="clip22"><rect x="-5.608" y="-5.60799" width="182.216" height="218.216"/></clipPath><clipPath id="clip23"><rect x="0" y="0" width="171" height="207"/></clipPath><clipPath id="clip24"><rect x="-6.66576" y="-6.66577" width="801.332" height="280.332"/></clipPath><clipPath id="clip25"><rect x="0" y="0" width="788" height="267"/></clipPath><clipPath id="clip26"><rect x="-5.608" y="-5.608" width="252.216" height="217.216"/></clipPath><clipPath id="clip27"><rect x="0" y="0" width="241" height="206"/></clipPath><clipPath id="clip28"><rect x="-5.608" y="-5.608" width="163.216" height="217.216"/></clipPath><clipPath id="clip29"><rect x="0" y="0" width="152" height="206"/></clipPath><clipPath id="clip30"><rect x="-5.608" y="-5.608" width="182.216" height="217.216"/></clipPath><clipPath id="clip31"><rect x="0" y="0" width="171" height="206"/></clipPath></defs><g clip-path="url(#clip10)" transform="translate(-13 -265)"><g clip-path="url(#clip11)"><g clip-path="url(#clip12)" filter="url(#fx0)" transform="translate(17 267)"><g clip-path="url(#clip13)"><rect x="17.4999" y="17.8004" width="769" height="370" stroke="#000000" stroke-width="3" stroke-linecap="butt" stroke-linejoin="round" stroke-miterlimit="10" stroke-opacity="1" fill="#632523" fill-opacity="1"/></g></g><g clip-path="url(#clip14)" filter="url(#fx5)" transform="translate(14 289)"><g clip-path="url(#clip15)"><g clip-path="url(#clip16)" filter="url(#fx1)" transform="translate(15 15)"><g clip-path="url(#clip17)" transform="translate(-14 -289)"><path d="M23.5327-2.0918C23.5327-1.70443 23.4068-1.35579 23.155-1.0459 22.9032-0.736003 22.4868-0.484212 21.9058-0.290527 21.3247-0.0968424 20.55 0.0581055 19.5815 0.174316 18.6131 0.290527 17.3735 0.348633 15.8628 0.348633 14.3908 0.348633 13.1609 0.290527 12.1731 0.174316 11.1853 0.0581055 10.4009-0.0968424 9.81982-0.290527 9.23877-0.484212 8.82235-0.736003 8.57056-1.0459 8.31877-1.35579 8.19287-1.70443 8.19287-2.0918L8.19287-73.0967C8.19287-73.484 8.31877-73.8327 8.57056-74.1426 8.82235-74.4525 9.24845-74.7043 9.84888-74.8979 10.4493-75.0916 11.2337-75.2466 12.2021-75.3628 13.1706-75.479 14.3908-75.5371 15.8628-75.5371 17.3735-75.5371 18.6131-75.479 19.5815-75.3628 20.55-75.2466 21.3247-75.0916 21.9058-74.8979 22.4868-74.7043 22.9032-74.4525 23.155-74.1426 23.4068-73.8327 23.5327-73.484 23.5327-73.0967ZM88.3376-1.97559C88.3376-1.58822 88.2213-1.24927 87.9889-0.95874 87.7565-0.668213 87.3691-0.426107 86.8268-0.232422 86.2845-0.038737 85.5388 0.106527 84.5898 0.203369 83.6407 0.300212 82.4689 0.348633 81.0744 0.348633 79.6411 0.348633 78.4499 0.300212 77.5009 0.203369 76.5518 0.106527 75.8062-0.038737 75.2638-0.232422 74.7215-0.426107 74.3341-0.668213 74.1017-0.95874 73.8693-1.24927 73.7531-1.58822 73.7531-1.97559L73.7531-31.5513C73.7531-34.0692 73.5691-36.0448 73.2011-37.478 72.8331-38.9113 72.3004-40.1412 71.6032-41.1677 70.9059-42.1943 70.0053-42.9884 68.9013-43.55 67.7973-44.1117 66.5093-44.3926 65.0373-44.3926 63.1779-44.3926 61.2991-43.7147 59.401-42.3589 57.5029-41.0031 55.5273-39.0275 53.4743-36.4321L53.4743-1.97559C53.4743-1.58822 53.3581-1.24927 53.1256-0.95874 52.8932-0.668213 52.4962-0.426107 51.9345-0.232422 51.3728-0.038737 50.6271 0.106527 49.6974 0.203369 48.7677 0.300212 47.5863 0.348633 46.153 0.348633 44.7197 0.348633 43.5382 0.300212 42.6086 0.203369 41.6789 0.106527 40.9332-0.038737 40.3715-0.232422 39.8098-0.426107 39.4128-0.668213 39.1803-0.95874 38.9479-1.24927 38.8317-1.58822 38.8317-1.97559L38.8317-53.8057C38.8317-54.193 38.9285-54.532 39.1222-54.8225 39.3159-55.113 39.6645-55.3551 40.1681-55.5488 40.6717-55.7425 41.3206-55.8878 42.1147-55.9846 42.9088-56.0815 43.9062-56.1299 45.1071-56.1299 46.3467-56.1299 47.3732-56.0815 48.1867-55.9846 49.0002-55.8878 49.6296-55.7425 50.0751-55.5488 50.5206-55.3551 50.8402-55.113 51.0339-54.8225 51.2275-54.532 51.3244-54.193 51.3244-53.8057L51.3244-47.8208C54.1909-50.9198 57.1059-53.244 60.0693-54.7935 63.0326-56.3429 66.1219-57.1177 69.3371-57.1177 72.8621-57.1177 75.8352-56.5366 78.2563-55.3745 80.6773-54.2124 82.6335-52.6339 84.1249-50.6389 85.6163-48.644 86.6912-46.3101 87.3498-43.6372 88.0083-40.9643 88.3376-37.7492 88.3376-33.9917ZM133.678-7.08887C133.678-5.38444 133.572-4.07707 133.358-3.16675 133.145-2.25643 132.865-1.61727 132.516-1.24927 132.167-0.881266 131.654-0.552002 130.976-0.261475 130.298 0.0290527 129.504 0.280843 128.594 0.493896 127.684 0.70695 126.696 0.871582 125.63 0.987793 124.565 1.104 123.49 1.16211 122.406 1.16211 119.5 1.16211 116.982 0.794108 114.852 0.0581055 112.721-0.677897 110.959-1.81095 109.564-3.34106 108.17-4.87117 107.143-6.79834 106.485-9.12256 105.826-11.4468 105.497-14.1971 105.497-17.3735L105.497-43.9277 99.2796-43.9277C98.5436-43.9277 97.9819-44.3829 97.5946-45.2932 97.2072-46.2035 97.0135-47.724 97.0135-49.8545 97.0135-50.9779 97.0619-51.9269 97.1588-52.7017 97.2556-53.4764 97.4009-54.0865 97.5946-54.532 97.7882-54.9775 98.0303-55.297 98.3209-55.4907 98.6114-55.6844 98.9503-55.7812 99.3377-55.7812L105.497-55.7812 105.497-67.3442C105.497-67.7316 105.603-68.0802 105.816-68.3901 106.03-68.7 106.417-68.9615 106.979-69.1746 107.54-69.3876 108.296-69.5425 109.245-69.6394 110.194-69.7362 111.366-69.7847 112.76-69.7847 114.193-69.7847 115.385-69.7362 116.334-69.6394 117.283-69.5425 118.028-69.3876 118.571-69.1746 119.113-68.9615 119.5-68.7 119.733-68.3901 119.965-68.0802 120.081-67.7316 120.081-67.3442L120.081-55.7812 131.354-55.7812C131.741-55.7812 132.08-55.6844 132.371-55.4907 132.661-55.297 132.903-54.9775 133.097-54.532 133.291-54.0865 133.436-53.4764 133.533-52.7017 133.63-51.9269 133.678-50.9779 133.678-49.8545 133.678-47.724 133.484-46.2035 133.097-45.2932 132.71-44.3829 132.148-43.9277 131.412-43.9277L120.081-43.9277 120.081-19.5815C120.081-16.7537 120.527-14.6329 121.418-13.219 122.309-11.8051 123.897-11.0981 126.182-11.0981 126.957-11.0981 127.654-11.1659 128.274-11.3015 128.894-11.4371 129.446-11.592 129.93-11.7664 130.414-11.9407 130.821-12.0956 131.15-12.2312 131.48-12.3668 131.78-12.4346 132.051-12.4346 132.284-12.4346 132.506-12.3668 132.719-12.2312 132.932-12.0956 133.097-11.8245 133.213-11.4177 133.329-11.011 133.436-10.459 133.533-9.76172 133.63-9.06445 133.678-8.1735 133.678-7.08887ZM177.543-48.9829C177.543-47.5884 177.504-46.4456 177.427-45.5547 177.349-44.6637 177.233-43.9665 177.078-43.4629 176.923-42.9593 176.72-42.6107 176.468-42.417 176.216-42.2233 175.896-42.1265 175.509-42.1265 175.199-42.1265 174.851-42.1942 174.463-42.3298 174.076-42.4654 173.64-42.6107 173.156-42.7656 172.672-42.9206 172.139-43.0658 171.558-43.2014 170.977-43.337 170.338-43.4048 169.64-43.4048 168.827-43.4048 168.013-43.2402 167.2-42.9109 166.387-42.5816 165.544-42.0684 164.672-41.3711 163.801-40.6738 162.891-39.7441 161.941-38.582 160.992-37.4199 159.976-35.9866 158.891-34.2822L158.891-1.97559C158.891-1.58822 158.775-1.24927 158.542-0.95874 158.31-0.668213 157.913-0.426107 157.351-0.232422 156.789-0.038737 156.044 0.106527 155.114 0.203369 154.184 0.300212 153.003 0.348633 151.57 0.348633 150.136 0.348633 148.955 0.300212 148.025 0.203369 147.096 0.106527 146.35-0.038737 145.788-0.232422 145.226-0.426107 144.829-0.668213 144.597-0.95874 144.365-1.24927 144.248-1.58822 144.248-1.97559L144.248-53.8057C144.248-54.193 144.345-54.532 144.539-54.8225 144.733-55.113 145.081-55.3551 145.585-55.5488 146.088-55.7425 146.737-55.8878 147.531-55.9846 148.325-56.0815 149.323-56.1299 150.524-56.1299 151.763-56.1299 152.79-56.0815 153.603-55.9846 154.417-55.8878 155.046-55.7425 155.492-55.5488 155.937-55.3551 156.257-55.113 156.451-54.8225 156.644-54.532 156.741-54.193 156.741-53.8057L156.741-47.356C158.097-49.2928 159.375-50.8907 160.576-52.1497 161.777-53.4086 162.92-54.4061 164.004-55.1421 165.089-55.8781 166.173-56.3913 167.258-56.6819 168.343-56.9724 169.427-57.1177 170.512-57.1177 171.016-57.1177 171.558-57.0886 172.139-57.0305 172.72-56.9724 173.32-56.8756 173.94-56.74 174.56-56.6044 175.102-56.4495 175.567-56.2751 176.032-56.1008 176.371-55.9168 176.584-55.7231 176.797-55.5295 176.952-55.3164 177.049-55.084 177.146-54.8516 177.233-54.532 177.31-54.1252 177.388-53.7185 177.446-53.1084 177.485-52.2949 177.523-51.4814 177.543-50.3774 177.543-48.9829ZM239.055-28.4136C239.055-23.9976 238.474-19.9689 237.312-16.3276 236.15-12.6864 234.388-9.54866 232.025-6.91455 229.662-4.28044 226.698-2.24674 223.134-0.813477 219.571 0.619792 215.406 1.33643 210.642 1.33643 206.032 1.33643 202.023 0.697266 198.614-0.581055 195.205-1.85937 192.377-3.71875 190.131-6.15918 187.884-8.59961 186.218-11.6017 185.133-15.1655 184.049-18.7293 183.507-22.7967 183.507-27.3677 183.507-31.7837 184.097-35.822 185.279-39.4827 186.46-43.1433 188.232-46.281 190.595-48.8957 192.958-51.5105 195.912-53.5345 199.456-54.9678 203.001-56.401 207.155-57.1177 211.92-57.1177 216.569-57.1177 220.597-56.4882 224.006-55.2292 227.415-53.9703 230.233-52.1206 232.46-49.6802 234.688-47.2397 236.344-44.2376 237.428-40.6738 238.513-37.11 239.055-33.0233 239.055-28.4136ZM224.006-27.8325C224.006-30.3892 223.803-32.7424 223.396-34.8923 222.989-37.0422 222.302-38.9113 221.333-40.4995 220.365-42.0877 219.077-43.3273 217.469-44.2183 215.862-45.1092 213.838-45.5547 211.397-45.5547 209.228-45.5547 207.33-45.1576 205.703-44.3635 204.076-43.5694 202.739-42.4073 201.694-40.8772 200.648-39.3471 199.863-37.5071 199.34-35.3572 198.817-33.2073 198.556-30.7572 198.556-28.0068 198.556-25.4502 198.769-23.0969 199.195-20.947 199.621-18.7971 200.309-16.9281 201.258-15.3398 202.207-13.7516 203.495-12.5217 205.122-11.6501 206.749-10.7786 208.763-10.3428 211.165-10.3428 213.373-10.3428 215.29-10.7398 216.917-11.5339 218.544-12.328 219.881-13.4805 220.926-14.9912 221.972-16.502 222.747-18.3323 223.251-20.4822 223.754-22.6321 224.006-25.0822 224.006-27.8325ZM299.968-1.97559C299.968-1.54948 299.871-1.19116 299.678-0.900635 299.484-0.610107 299.155-0.368001 298.69-0.174316 298.225 0.0193685 297.595 0.154948 296.801 0.232422 296.007 0.309896 295.029 0.348633 293.867 0.348633 292.627 0.348633 291.62 0.309896 290.846 0.232422 290.071 0.154948 289.441 0.0193685 288.957-0.174316 288.473-0.368001 288.124-0.610107 287.911-0.900635 287.698-1.19116 287.592-1.54948 287.592-1.97559L287.592-7.72803C284.919-4.86149 282.12-2.63411 279.195-1.0459 276.271 0.542318 273.026 1.33643 269.463 1.33643 265.512 1.33643 262.17 0.57137 259.44-0.95874 256.709-2.48885 254.481-4.55159 252.757-7.14697 251.034-9.74235 249.784-12.7735 249.01-16.2405 248.235-19.7074 247.847-23.3584 247.847-27.1934 247.847-31.8031 248.341-35.9479 249.329-39.6279 250.317-43.3079 251.76-46.4456 253.658-49.041 255.556-51.6364 257.919-53.6313 260.747-55.0259 263.575-56.4204 266.829-57.1177 270.509-57.1177 273.414-57.1177 276.048-56.5269 278.411-55.3455 280.774-54.164 283.117-52.4305 285.442-50.145L285.442-78.21C285.442-78.5973 285.548-78.946 285.761-79.2559 285.974-79.5658 286.362-79.8272 286.923-80.0403 287.485-80.2533 288.231-80.418 289.16-80.5342 290.09-80.6504 291.272-80.7085 292.705-80.7085 294.138-80.7085 295.32-80.6504 296.249-80.5342 297.179-80.418 297.915-80.2533 298.457-80.0403 299-79.8272 299.387-79.5658 299.619-79.2559 299.852-78.946 299.968-78.5973 299.968-78.21ZM285.442-36.6064C283.35-39.2406 281.345-41.2549 279.428-42.6494 277.51-44.0439 275.506-44.7412 273.414-44.7412 271.516-44.7412 269.879-44.2667 268.504-43.3176 267.129-42.3686 266.025-41.0999 265.192-39.5117 264.359-37.9235 263.739-36.1513 263.333-34.1951 262.926-32.2388 262.722-30.2342 262.722-28.1812 262.722-26.0119 262.897-23.9007 263.245-21.8477 263.594-19.7946 264.165-17.9643 264.96-16.3567 265.754-14.7491 266.809-13.4611 268.126-12.4927 269.443-11.5243 271.109-11.04 273.123-11.04 274.13-11.04 275.109-11.1853 276.058-11.4758 277.007-11.7664 277.975-12.2409 278.963-12.8994 279.951-13.5579 280.968-14.4198 282.013-15.4851 283.059-16.5504 284.202-17.8577 285.442-19.4072ZM364.135-1.97559C364.135-1.58822 364.038-1.24927 363.844-0.95874 363.651-0.668213 363.312-0.426107 362.827-0.232422 362.343-0.038737 361.704 0.106527 360.91 0.203369 360.116 0.300212 359.118 0.348633 357.917 0.348633 356.639 0.348633 355.603 0.300212 354.809 0.203369 354.015 0.106527 353.385-0.038737 352.92-0.232422 352.456-0.426107 352.126-0.668213 351.933-0.95874 351.739-1.24927 351.642-1.58822 351.642-1.97559L351.642-7.96045C348.776-4.86149 345.861-2.53727 342.897-0.987793 339.934 0.561686 336.864 1.33643 333.687 1.33643 330.124 1.33643 327.131 0.755371 324.71-0.406738 322.289-1.56885 320.333-3.15706 318.842-5.17139 317.35-7.18571 316.285-9.51961 315.646-12.1731 315.007-14.8266 314.687-18.1289 314.687-22.0801L314.687-53.8057C314.687-54.193 314.793-54.532 315.007-54.8225 315.22-55.113 315.607-55.3551 316.169-55.5488 316.73-55.7425 317.486-55.8878 318.435-55.9846 319.384-56.0815 320.556-56.1299 321.95-56.1299 323.383-56.1299 324.565-56.0815 325.495-55.9846 326.424-55.8878 327.17-55.7425 327.732-55.5488 328.293-55.3551 328.69-55.113 328.923-54.8225 329.155-54.532 329.271-54.193 329.271-53.8057L329.271-24.5205C329.271-21.8089 329.446-19.7365 329.794-18.3032 330.143-16.87 330.676-15.6401 331.392-14.6135 332.109-13.587 333.019-12.7929 334.123-12.2312 335.227-11.6695 336.515-11.3887 337.987-11.3887 339.847-11.3887 341.716-12.0666 343.594-13.4224 345.473-14.7782 347.478-16.7537 349.608-19.3491L349.608-53.8057C349.608-54.193 349.715-54.532 349.928-54.8225 350.141-55.113 350.528-55.3551 351.09-55.5488 351.652-55.7425 352.397-55.8878 353.327-55.9846 354.257-56.0815 355.438-56.1299 356.872-56.1299 358.305-56.1299 359.486-56.0815 360.416-55.9846 361.346-55.8878 362.082-55.7425 362.624-55.5488 363.166-55.3551 363.554-55.113 363.786-54.8225 364.018-54.532 364.135-54.193 364.135-53.8057ZM418.365-10.2266C418.365-9.2194 418.336-8.37687 418.278-7.69897 418.22-7.02108 418.143-6.44971 418.046-5.98486 417.949-5.52002 417.833-5.14233 417.697-4.85181 417.562-4.56128 417.261-4.19328 416.797-3.7478 416.332-3.30233 415.538-2.76001 414.414-2.12085 413.291-1.48169 412.012-0.910319 410.579-0.406738 409.146 0.0968424 407.587 0.503581 405.902 0.813477 404.217 1.12337 402.483 1.27832 400.701 1.27832 396.711 1.27832 393.177 0.658529 390.097-0.581055 387.017-1.82064 384.432-3.65096 382.34-6.07202 380.248-8.49308 378.67-11.4468 377.604-14.9331 376.539-18.4194 376.006-22.4093 376.006-26.9028 376.006-32.0936 376.655-36.5774 377.953-40.3542 379.251-44.1311 381.062-47.2591 383.386-49.7383 385.71-52.2174 388.46-54.0574 391.637-55.2583 394.813-56.4591 398.3-57.0596 402.096-57.0596 403.645-57.0596 405.166-56.924 406.657-56.6528 408.148-56.3817 409.543-56.0137 410.841-55.5488 412.138-55.084 413.3-54.561 414.327-53.98 415.354-53.3989 416.08-52.8953 416.506-52.4692 416.932-52.0431 417.232-51.6848 417.407-51.3943 417.581-51.1038 417.716-50.7261 417.813-50.2612 417.91-49.7964 417.988-49.225 418.046-48.5471 418.104-47.8692 418.133-47.0461 418.133-46.0776 418.133-43.8309 417.939-42.2524 417.552-41.342 417.164-40.4317 416.661-39.9766 416.041-39.9766 415.383-39.9766 414.685-40.2477 413.949-40.79 413.213-41.3324 412.342-41.9328 411.335-42.5913 410.327-43.2498 409.127-43.8503 407.732-44.3926 406.338-44.9349 404.672-45.206 402.735-45.2061 398.939-45.206 396.033-43.7437 394.019-40.8191 392.005-37.8944 390.998-33.6043 390.998-27.9487 390.998-25.1597 391.249-22.6999 391.753-20.5693 392.257-18.4388 393.002-16.6569 393.99-15.2236 394.978-13.7904 396.217-12.7154 397.709-11.9988 399.2-11.2821 400.934-10.9238 402.909-10.9238 404.924-10.9238 406.657-11.224 408.11-11.8245 409.562-12.4249 410.831-13.0931 411.916-13.8291 413-14.5651 413.911-15.2333 414.647-15.8337 415.383-16.4342 416.002-16.7344 416.506-16.7344 416.855-16.7344 417.145-16.6375 417.378-16.4438 417.61-16.2502 417.794-15.8918 417.93-15.3689 418.065-14.8459 418.172-14.1777 418.249-13.3643 418.327-12.5508 418.365-11.5049 418.365-10.2266ZM468.209-10.2266C468.209-9.2194 468.18-8.37687 468.122-7.69897 468.064-7.02108 467.986-6.44971 467.89-5.98486 467.793-5.52002 467.676-5.14233 467.541-4.85181 467.405-4.56128 467.105-4.19328 466.64-3.7478 466.175-3.30233 465.381-2.76001 464.258-2.12085 463.135-1.48169 461.856-0.910319 460.423-0.406738 458.99 0.0968424 457.431 0.503581 455.745 0.813477 454.06 1.12337 452.327 1.27832 450.545 1.27832 446.555 1.27832 443.02 0.658529 439.941-0.581055 436.861-1.82064 434.276-3.65096 432.184-6.07202 430.092-8.49308 428.513-11.4468 427.448-14.9331 426.383-18.4194 425.85-22.4093 425.85-26.9028 425.85-32.0936 426.499-36.5774 427.797-40.3542 429.094-44.1311 430.905-47.2591 433.23-49.7383 435.554-52.2174 438.304-54.0574 441.481-55.2583 444.657-56.4591 448.143-57.0596 451.94-57.0596 453.489-57.0596 455.009-56.924 456.501-56.6528 457.992-56.3817 459.387-56.0137 460.684-55.5488 461.982-55.084 463.144-54.561 464.171-53.98 465.197-53.3989 465.924-52.8953 466.35-52.4692 466.776-52.0431 467.076-51.6848 467.25-51.3943 467.425-51.1038 467.56-50.7261 467.657-50.2612 467.754-49.7964 467.831-49.225 467.89-48.5471 467.948-47.8692 467.977-47.0461 467.977-46.0776 467.977-43.8309 467.783-42.2524 467.396-41.342 467.008-40.4317 466.505-39.9766 465.885-39.9766 465.226-39.9766 464.529-40.2477 463.793-40.79 463.057-41.3324 462.185-41.9328 461.178-42.5913 460.171-43.2498 458.97-43.8503 457.576-44.3926 456.181-44.9349 454.516-45.206 452.579-45.2061 448.783-45.206 445.877-43.7437 443.863-40.8191 441.849-37.8944 440.841-33.6043 440.841-27.9487 440.841-25.1597 441.093-22.6999 441.597-20.5693 442.1-18.4388 442.846-16.6569 443.834-15.2236 444.822-13.7904 446.061-12.7154 447.553-11.9988 449.044-11.2821 450.777-10.9238 452.753-10.9238 454.767-10.9238 456.501-11.224 457.953-11.8245 459.406-12.4249 460.675-13.0931 461.759-13.8291 462.844-14.5651 463.754-15.2333 464.49-15.8337 465.226-16.4342 465.846-16.7344 466.35-16.7344 466.698-16.7344 466.989-16.6375 467.221-16.4438 467.454-16.2502 467.638-15.8918 467.773-15.3689 467.909-14.8459 468.015-14.1777 468.093-13.3643 468.17-12.5508 468.209-11.5049 468.209-10.2266ZM493.474-1.97559C493.474-1.58822 493.358-1.24927 493.126-0.95874 492.893-0.668213 492.496-0.426107 491.934-0.232422 491.373-0.038737 490.627 0.106527 489.697 0.203369 488.768 0.300212 487.586 0.348633 486.153 0.348633 484.72 0.348633 483.538 0.300212 482.609 0.203369 481.679 0.106527 480.933-0.038737 480.371-0.232422 479.81-0.426107 479.413-0.668213 479.18-0.95874 478.948-1.24927 478.832-1.58822 478.832-1.97559L478.832-53.6894C478.832-54.0768 478.948-54.4158 479.18-54.7063 479.413-54.9968 479.81-55.2486 480.371-55.4617 480.933-55.6747 481.679-55.8394 482.609-55.9556 483.538-56.0718 484.72-56.1299 486.153-56.1299 487.586-56.1299 488.768-56.0718 489.697-55.9556 490.627-55.8394 491.373-55.6747 491.934-55.4617 492.496-55.2486 492.893-54.9968 493.126-54.7063 493.358-54.4158 493.474-54.0768 493.474-53.6894ZM494.578-71.3535C494.578-68.4095 493.978-66.3758 492.777-65.2524 491.576-64.1291 489.349-63.5674 486.095-63.5674 482.802-63.5674 480.585-64.1097 479.442-65.1943 478.299-66.279 477.728-68.2352 477.728-71.063 477.728-74.007 478.318-76.0504 479.5-77.1931 480.681-78.3358 482.918-78.9072 486.211-78.9072 489.465-78.9072 491.673-78.3552 492.835-77.2512 493.997-76.1472 494.578-74.1813 494.578-71.3535ZM560.462-28.4136C560.462-23.9976 559.88-19.9689 558.718-16.3276 557.556-12.6864 555.794-9.54866 553.431-6.91455 551.068-4.28044 548.104-2.24674 544.541-0.813477 540.977 0.619792 536.813 1.33643 532.048 1.33643 527.438 1.33643 523.429 0.697266 520.02-0.581055 516.611-1.85937 513.783-3.71875 511.537-6.15918 509.29-8.59961 507.624-11.6017 506.54-15.1655 505.455-18.7293 504.913-22.7967 504.913-27.3677 504.913-31.7837 505.503-35.822 506.685-39.4827 507.866-43.1433 509.639-46.281 512.002-48.8957 514.365-51.5105 517.318-53.5345 520.863-54.9678 524.407-56.401 528.562-57.1177 533.326-57.1177 537.975-57.1177 542.003-56.4882 545.412-55.2292 548.821-53.9703 551.639-52.1206 553.867-49.6802 556.094-47.2397 557.75-44.2376 558.835-40.6738 559.919-37.11 560.462-33.0233 560.462-28.4136ZM545.412-27.8325C545.412-30.3892 545.209-32.7424 544.802-34.8923 544.395-37.0422 543.708-38.9113 542.739-40.4995 541.771-42.0877 540.483-43.3273 538.875-44.2183 537.268-45.1092 535.244-45.5547 532.803-45.5547 530.634-45.5547 528.736-45.1576 527.109-44.3635 525.482-43.5694 524.146-42.4073 523.1-40.8772 522.054-39.3471 521.269-37.5071 520.746-35.3572 520.224-33.2073 519.962-30.7572 519.962-28.0068 519.962-25.4502 520.175-23.0969 520.601-20.947 521.027-18.7971 521.715-16.9281 522.664-15.3398 523.613-13.7516 524.901-12.5217 526.528-11.6501 528.155-10.7786 530.169-10.3428 532.571-10.3428 534.779-10.3428 536.696-10.7398 538.323-11.5339 539.95-12.328 541.287-13.4805 542.333-14.9912 543.379-16.502 544.153-18.3323 544.657-20.4822 545.16-22.6321 545.412-25.0822 545.412-27.8325ZM535.534-79.2559C535.805-79.682 536.135-80.05 536.522-80.3599 536.909-80.6697 537.394-80.9118 537.975-81.0862 538.556-81.2605 539.292-81.3864 540.183-81.4639 541.074-81.5413 542.158-81.5801 543.437-81.5801 545.219-81.5801 546.623-81.5026 547.649-81.3476 548.676-81.1927 549.412-80.97 549.857-80.6794 550.303-80.3889 550.506-80.05 550.467-79.6626 550.429-79.2752 550.235-78.8685 549.886-78.4424L538.614-64.9619C538.304-64.5745 537.994-64.255 537.684-64.0032 537.374-63.7514 536.977-63.548 536.493-63.3931 536.009-63.2381 535.399-63.1219 534.663-63.0444 533.927-62.967 532.997-62.9282 531.874-62.9282 530.518-62.9282 529.443-62.9863 528.649-63.1025 527.855-63.2187 527.303-63.4027 526.993-63.6545 526.683-63.9063 526.557-64.2259 526.615-64.6133 526.673-65.0006 526.877-65.4461 527.225-65.9497ZM621.723-1.97559C621.723-1.58822 621.607-1.24927 621.374-0.95874 621.142-0.668213 620.755-0.426107 620.212-0.232422 619.67-0.038737 618.924 0.106527 617.975 0.203369 617.026 0.300212 615.854 0.348633 614.46 0.348633 613.026 0.348633 611.835 0.300212 610.886 0.203369 609.937 0.106527 609.192-0.038737 608.649-0.232422 608.107-0.426107 607.72-0.668213 607.487-0.95874 607.255-1.24927 607.138-1.58822 607.138-1.97559L607.138-31.5513C607.138-34.0692 606.954-36.0448 606.586-37.478 606.219-38.9113 605.686-40.1412 604.989-41.1677 604.291-42.1943 603.391-42.9884 602.287-43.55 601.183-44.1117 599.895-44.3926 598.423-44.3926 596.563-44.3926 594.685-43.7147 592.786-42.3589 590.888-41.0031 588.913-39.0275 586.86-36.4321L586.86-1.97559C586.86-1.58822 586.743-1.24927 586.511-0.95874 586.279-0.668213 585.882-0.426107 585.32-0.232422 584.758-0.038737 584.013 0.106527 583.083 0.203369 582.153 0.300212 580.972 0.348633 579.538 0.348633 578.105 0.348633 576.924 0.300212 575.994 0.203369 575.064 0.106527 574.319-0.038737 573.757-0.232422 573.195-0.426107 572.798-0.668213 572.566-0.95874 572.333-1.24927 572.217-1.58822 572.217-1.97559L572.217-53.8057C572.217-54.193 572.314-54.532 572.508-54.8225 572.701-55.113 573.05-55.3551 573.554-55.5488 574.057-55.7425 574.706-55.8878 575.5-55.9846 576.294-56.0815 577.292-56.1299 578.492-56.1299 579.732-56.1299 580.759-56.0815 581.572-55.9846 582.385-55.8878 583.015-55.7425 583.461-55.5488 583.906-55.3551 584.226-55.113 584.419-54.8225 584.613-54.532 584.71-54.193 584.71-53.8057L584.71-47.8208C587.576-50.9198 590.491-53.244 593.455-54.7935 596.418-56.3429 599.507-57.1177 602.722-57.1177 606.248-57.1177 609.221-56.5366 611.642-55.3745 614.063-54.2124 616.019-52.6339 617.51-50.6389 619.002-48.644 620.077-46.3101 620.735-43.6372 621.394-40.9643 621.723-37.7492 621.723-33.9917Z" fill="#FFFFFF" fill-rule="nonzero" fill-opacity="1" transform="matrix(1 0 0 1 79.8713 155)"/></g></g><path d="M23.5327-2.0918C23.5327-1.70443 23.4068-1.35579 23.155-1.0459 22.9032-0.736003 22.4868-0.484212 21.9058-0.290527 21.3247-0.0968424 20.55 0.0581055 19.5815 0.174316 18.6131 0.290527 17.3735 0.348633 15.8628 0.348633 14.3908 0.348633 13.1609 0.290527 12.1731 0.174316 11.1853 0.0581055 10.4009-0.0968424 9.81982-0.290527 9.23877-0.484212 8.82235-0.736003 8.57056-1.0459 8.31877-1.35579 8.19287-1.70443 8.19287-2.0918L8.19287-73.0967C8.19287-73.484 8.31877-73.8327 8.57056-74.1426 8.82235-74.4525 9.24845-74.7043 9.84888-74.8979 10.4493-75.0916 11.2337-75.2466 12.2021-75.3628 13.1706-75.479 14.3908-75.5371 15.8628-75.5371 17.3735-75.5371 18.6131-75.479 19.5815-75.3628 20.55-75.2466 21.3247-75.0916 21.9058-74.8979 22.4868-74.7043 22.9032-74.4525 23.155-74.1426 23.4068-73.8327 23.5327-73.484 23.5327-73.0967ZM88.3376-1.97559C88.3376-1.58822 88.2213-1.24927 87.9889-0.95874 87.7565-0.668213 87.3691-0.426107 86.8268-0.232422 86.2845-0.038737 85.5388 0.106527 84.5898 0.203369 83.6407 0.300212 82.4689 0.348633 81.0744 0.348633 79.6411 0.348633 78.4499 0.300212 77.5009 0.203369 76.5518 0.106527 75.8062-0.038737 75.2638-0.232422 74.7215-0.426107 74.3341-0.668213 74.1017-0.95874 73.8693-1.24927 73.7531-1.58822 73.7531-1.97559L73.7531-31.5513C73.7531-34.0692 73.5691-36.0448 73.2011-37.478 72.8331-38.9113 72.3004-40.1412 71.6032-41.1677 70.9059-42.1943 70.0053-42.9884 68.9013-43.55 67.7973-44.1117 66.5093-44.3926 65.0373-44.3926 63.1779-44.3926 61.2991-43.7147 59.401-42.3589 57.5029-41.0031 55.5273-39.0275 53.4743-36.4321L53.4743-1.97559C53.4743-1.58822 53.3581-1.24927 53.1256-0.95874 52.8932-0.668213 52.4962-0.426107 51.9345-0.232422 51.3728-0.038737 50.6271 0.106527 49.6974 0.203369 48.7677 0.300212 47.5863 0.348633 46.153 0.348633 44.7197 0.348633 43.5382 0.300212 42.6086 0.203369 41.6789 0.106527 40.9332-0.038737 40.3715-0.232422 39.8098-0.426107 39.4128-0.668213 39.1803-0.95874 38.9479-1.24927 38.8317-1.58822 38.8317-1.97559L38.8317-53.8057C38.8317-54.193 38.9285-54.532 39.1222-54.8225 39.3159-55.113 39.6645-55.3551 40.1681-55.5488 40.6717-55.7425 41.3206-55.8878 42.1147-55.9846 42.9088-56.0815 43.9062-56.1299 45.1071-56.1299 46.3467-56.1299 47.3732-56.0815 48.1867-55.9846 49.0002-55.8878 49.6296-55.7425 50.0751-55.5488 50.5206-55.3551 50.8402-55.113 51.0339-54.8225 51.2275-54.532 51.3244-54.193 51.3244-53.8057L51.3244-47.8208C54.1909-50.9198 57.1059-53.244 60.0693-54.7935 63.0326-56.3429 66.1219-57.1177 69.3371-57.1177 72.8621-57.1177 75.8352-56.5366 78.2563-55.3745 80.6773-54.2124 82.6335-52.6339 84.1249-50.6389 85.6163-48.644 86.6912-46.3101 87.3498-43.6372 88.0083-40.9643 88.3376-37.7492 88.3376-33.9917ZM133.678-7.08887C133.678-5.38444 133.572-4.07707 133.358-3.16675 133.145-2.25643 132.865-1.61727 132.516-1.24927 132.167-0.881266 131.654-0.552002 130.976-0.261475 130.298 0.0290527 129.504 0.280843 128.594 0.493896 127.684 0.70695 126.696 0.871582 125.63 0.987793 124.565 1.104 123.49 1.16211 122.406 1.16211 119.5 1.16211 116.982 0.794108 114.852 0.0581055 112.721-0.677897 110.959-1.81095 109.564-3.34106 108.17-4.87117 107.143-6.79834 106.485-9.12256 105.826-11.4468 105.497-14.1971 105.497-17.3735L105.497-43.9277 99.2796-43.9277C98.5436-43.9277 97.9819-44.3829 97.5946-45.2932 97.2072-46.2035 97.0135-47.724 97.0135-49.8545 97.0135-50.9779 97.0619-51.9269 97.1588-52.7017 97.2556-53.4764 97.4009-54.0865 97.5946-54.532 97.7882-54.9775 98.0303-55.297 98.3209-55.4907 98.6114-55.6844 98.9503-55.7812 99.3377-55.7812L105.497-55.7812 105.497-67.3442C105.497-67.7316 105.603-68.0802 105.816-68.3901 106.03-68.7 106.417-68.9615 106.979-69.1746 107.54-69.3876 108.296-69.5425 109.245-69.6394 110.194-69.7362 111.366-69.7847 112.76-69.7847 114.193-69.7847 115.385-69.7362 116.334-69.6394 117.283-69.5425 118.028-69.3876 118.571-69.1746 119.113-68.9615 119.5-68.7 119.733-68.3901 119.965-68.0802 120.081-67.7316 120.081-67.3442L120.081-55.7812 131.354-55.7812C131.741-55.7812 132.08-55.6844 132.371-55.4907 132.661-55.297 132.903-54.9775 133.097-54.532 133.291-54.0865 133.436-53.4764 133.533-52.7017 133.63-51.9269 133.678-50.9779 133.678-49.8545 133.678-47.724 133.484-46.2035 133.097-45.2932 132.71-44.3829 132.148-43.9277 131.412-43.9277L120.081-43.9277 120.081-19.5815C120.081-16.7537 120.527-14.6329 121.418-13.219 122.309-11.8051 123.897-11.0981 126.182-11.0981 126.957-11.0981 127.654-11.1659 128.274-11.3015 128.894-11.4371 129.446-11.592 129.93-11.7664 130.414-11.9407 130.821-12.0956 131.15-12.2312 131.48-12.3668 131.78-12.4346 132.051-12.4346 132.284-12.4346 132.506-12.3668 132.719-12.2312 132.932-12.0956 133.097-11.8245 133.213-11.4177 133.329-11.011 133.436-10.459 133.533-9.76172 133.63-9.06445 133.678-8.1735 133.678-7.08887ZM177.543-48.9829C177.543-47.5884 177.504-46.4456 177.427-45.5547 177.349-44.6637 177.233-43.9665 177.078-43.4629 176.923-42.9593 176.72-42.6107 176.468-42.417 176.216-42.2233 175.896-42.1265 175.509-42.1265 175.199-42.1265 174.851-42.1942 174.463-42.3298 174.076-42.4654 173.64-42.6107 173.156-42.7656 172.672-42.9206 172.139-43.0658 171.558-43.2014 170.977-43.337 170.338-43.4048 169.64-43.4048 168.827-43.4048 168.013-43.2402 167.2-42.9109 166.387-42.5816 165.544-42.0684 164.672-41.3711 163.801-40.6738 162.891-39.7441 161.941-38.582 160.992-37.4199 159.976-35.9866 158.891-34.2822L158.891-1.97559C158.891-1.58822 158.775-1.24927 158.542-0.95874 158.31-0.668213 157.913-0.426107 157.351-0.232422 156.789-0.038737 156.044 0.106527 155.114 0.203369 154.184 0.300212 153.003 0.348633 151.57 0.348633 150.136 0.348633 148.955 0.300212 148.025 0.203369 147.096 0.106527 146.35-0.038737 145.788-0.232422 145.226-0.426107 144.829-0.668213 144.597-0.95874 144.365-1.24927 144.248-1.58822 144.248-1.97559L144.248-53.8057C144.248-54.193 144.345-54.532 144.539-54.8225 144.733-55.113 145.081-55.3551 145.585-55.5488 146.088-55.7425 146.737-55.8878 147.531-55.9846 148.325-56.0815 149.323-56.1299 150.524-56.1299 151.763-56.1299 152.79-56.0815 153.603-55.9846 154.417-55.8878 155.046-55.7425 155.492-55.5488 155.937-55.3551 156.257-55.113 156.451-54.8225 156.644-54.532 156.741-54.193 156.741-53.8057L156.741-47.356C158.097-49.2928 159.375-50.8907 160.576-52.1497 161.777-53.4086 162.92-54.4061 164.004-55.1421 165.089-55.8781 166.173-56.3913 167.258-56.6819 168.343-56.9724 169.427-57.1177 170.512-57.1177 171.016-57.1177 171.558-57.0886 172.139-57.0305 172.72-56.9724 173.32-56.8756 173.94-56.74 174.56-56.6044 175.102-56.4495 175.567-56.2751 176.032-56.1008 176.371-55.9168 176.584-55.7231 176.797-55.5295 176.952-55.3164 177.049-55.084 177.146-54.8516 177.233-54.532 177.31-54.1252 177.388-53.7185 177.446-53.1084 177.485-52.2949 177.523-51.4814 177.543-50.3774 177.543-48.9829ZM239.055-28.4136C239.055-23.9976 238.474-19.9689 237.312-16.3276 236.15-12.6864 234.388-9.54866 232.025-6.91455 229.662-4.28044 226.698-2.24674 223.134-0.813477 219.571 0.619792 215.406 1.33643 210.642 1.33643 206.032 1.33643 202.023 0.697266 198.614-0.581055 195.205-1.85937 192.377-3.71875 190.131-6.15918 187.884-8.59961 186.218-11.6017 185.133-15.1655 184.049-18.7293 183.507-22.7967 183.507-27.3677 183.507-31.7837 184.097-35.822 185.279-39.4827 186.46-43.1433 188.232-46.281 190.595-48.8957 192.958-51.5105 195.912-53.5345 199.456-54.9678 203.001-56.401 207.155-57.1177 211.92-57.1177 216.569-57.1177 220.597-56.4882 224.006-55.2292 227.415-53.9703 230.233-52.1206 232.46-49.6802 234.688-47.2397 236.344-44.2376 237.428-40.6738 238.513-37.11 239.055-33.0233 239.055-28.4136ZM224.006-27.8325C224.006-30.3892 223.803-32.7424 223.396-34.8923 222.989-37.0422 222.302-38.9113 221.333-40.4995 220.365-42.0877 219.077-43.3273 217.469-44.2183 215.862-45.1092 213.838-45.5547 211.397-45.5547 209.228-45.5547 207.33-45.1576 205.703-44.3635 204.076-43.5694 202.739-42.4073 201.694-40.8772 200.648-39.3471 199.863-37.5071 199.34-35.3572 198.817-33.2073 198.556-30.7572 198.556-28.0068 198.556-25.4502 198.769-23.0969 199.195-20.947 199.621-18.7971 200.309-16.9281 201.258-15.3398 202.207-13.7516 203.495-12.5217 205.122-11.6501 206.749-10.7786 208.763-10.3428 211.165-10.3428 213.373-10.3428 215.29-10.7398 216.917-11.5339 218.544-12.328 219.881-13.4805 220.926-14.9912 221.972-16.502 222.747-18.3323 223.251-20.4822 223.754-22.6321 224.006-25.0822 224.006-27.8325ZM299.968-1.97559C299.968-1.54948 299.871-1.19116 299.678-0.900635 299.484-0.610107 299.155-0.368001 298.69-0.174316 298.225 0.0193685 297.595 0.154948 296.801 0.232422 296.007 0.309896 295.029 0.348633 293.867 0.348633 292.627 0.348633 291.62 0.309896 290.846 0.232422 290.071 0.154948 289.441 0.0193685 288.957-0.174316 288.473-0.368001 288.124-0.610107 287.911-0.900635 287.698-1.19116 287.592-1.54948 287.592-1.97559L287.592-7.72803C284.919-4.86149 282.12-2.63411 279.195-1.0459 276.271 0.542318 273.026 1.33643 269.463 1.33643 265.512 1.33643 262.17 0.57137 259.44-0.95874 256.709-2.48885 254.481-4.55159 252.757-7.14697 251.034-9.74235 249.784-12.7735 249.01-16.2405 248.235-19.7074 247.847-23.3584 247.847-27.1934 247.847-31.8031 248.341-35.9479 249.329-39.6279 250.317-43.3079 251.76-46.4456 253.658-49.041 255.556-51.6364 257.919-53.6313 260.747-55.0259 263.575-56.4204 266.829-57.1177 270.509-57.1177 273.414-57.1177 276.048-56.5269 278.411-55.3455 280.774-54.164 283.117-52.4305 285.442-50.145L285.442-78.21C285.442-78.5973 285.548-78.946 285.761-79.2559 285.974-79.5658 286.362-79.8272 286.923-80.0403 287.485-80.2533 288.231-80.418 289.16-80.5342 290.09-80.6504 291.272-80.7085 292.705-80.7085 294.138-80.7085 295.32-80.6504 296.249-80.5342 297.179-80.418 297.915-80.2533 298.457-80.0403 299-79.8272 299.387-79.5658 299.619-79.2559 299.852-78.946 299.968-78.5973 299.968-78.21ZM285.442-36.6064C283.35-39.2406 281.345-41.2549 279.428-42.6494 277.51-44.0439 275.506-44.7412 273.414-44.7412 271.516-44.7412 269.879-44.2667 268.504-43.3176 267.129-42.3686 266.025-41.0999 265.192-39.5117 264.359-37.9235 263.739-36.1513 263.333-34.1951 262.926-32.2388 262.722-30.2342 262.722-28.1812 262.722-26.0119 262.897-23.9007 263.245-21.8477 263.594-19.7946 264.165-17.9643 264.96-16.3567 265.754-14.7491 266.809-13.4611 268.126-12.4927 269.443-11.5243 271.109-11.04 273.123-11.04 274.13-11.04 275.109-11.1853 276.058-11.4758 277.007-11.7664 277.975-12.2409 278.963-12.8994 279.951-13.5579 280.968-14.4198 282.013-15.4851 283.059-16.5504 284.202-17.8577 285.442-19.4072ZM364.135-1.97559C364.135-1.58822 364.038-1.24927 363.844-0.95874 363.651-0.668213 363.312-0.426107 362.827-0.232422 362.343-0.038737 361.704 0.106527 360.91 0.203369 360.116 0.300212 359.118 0.348633 357.917 0.348633 356.639 0.348633 355.603 0.300212 354.809 0.203369 354.015 0.106527 353.385-0.038737 352.92-0.232422 352.456-0.426107 352.126-0.668213 351.933-0.95874 351.739-1.24927 351.642-1.58822 351.642-1.97559L351.642-7.96045C348.776-4.86149 345.861-2.53727 342.897-0.987793 339.934 0.561686 336.864 1.33643 333.687 1.33643 330.124 1.33643 327.131 0.755371 324.71-0.406738 322.289-1.56885 320.333-3.15706 318.842-5.17139 317.35-7.18571 316.285-9.51961 315.646-12.1731 315.007-14.8266 314.687-18.1289 314.687-22.0801L314.687-53.8057C314.687-54.193 314.793-54.532 315.007-54.8225 315.22-55.113 315.607-55.3551 316.169-55.5488 316.73-55.7425 317.486-55.8878 318.435-55.9846 319.384-56.0815 320.556-56.1299 321.95-56.1299 323.383-56.1299 324.565-56.0815 325.495-55.9846 326.424-55.8878 327.17-55.7425 327.732-55.5488 328.293-55.3551 328.69-55.113 328.923-54.8225 329.155-54.532 329.271-54.193 329.271-53.8057L329.271-24.5205C329.271-21.8089 329.446-19.7365 329.794-18.3032 330.143-16.87 330.676-15.6401 331.392-14.6135 332.109-13.587 333.019-12.7929 334.123-12.2312 335.227-11.6695 336.515-11.3887 337.987-11.3887 339.847-11.3887 341.716-12.0666 343.594-13.4224 345.473-14.7782 347.478-16.7537 349.608-19.3491L349.608-53.8057C349.608-54.193 349.715-54.532 349.928-54.8225 350.141-55.113 350.528-55.3551 351.09-55.5488 351.652-55.7425 352.397-55.8878 353.327-55.9846 354.257-56.0815 355.438-56.1299 356.872-56.1299 358.305-56.1299 359.486-56.0815 360.416-55.9846 361.346-55.8878 362.082-55.7425 362.624-55.5488 363.166-55.3551 363.554-55.113 363.786-54.8225 364.018-54.532 364.135-54.193 364.135-53.8057ZM418.365-10.2266C418.365-9.2194 418.336-8.37687 418.278-7.69897 418.22-7.02108 418.143-6.44971 418.046-5.98486 417.949-5.52002 417.833-5.14233 417.697-4.85181 417.562-4.56128 417.261-4.19328 416.797-3.7478 416.332-3.30233 415.538-2.76001 414.414-2.12085 413.291-1.48169 412.012-0.910319 410.579-0.406738 409.146 0.0968424 407.587 0.503581 405.902 0.813477 404.217 1.12337 402.483 1.27832 400.701 1.27832 396.711 1.27832 393.177 0.658529 390.097-0.581055 387.017-1.82064 384.432-3.65096 382.34-6.07202 380.248-8.49308 378.67-11.4468 377.604-14.9331 376.539-18.4194 376.006-22.4093 376.006-26.9028 376.006-32.0936 376.655-36.5774 377.953-40.3542 379.251-44.1311 381.062-47.2591 383.386-49.7383 385.71-52.2174 388.46-54.0574 391.637-55.2583 394.813-56.4591 398.3-57.0596 402.096-57.0596 403.645-57.0596 405.166-56.924 406.657-56.6528 408.148-56.3817 409.543-56.0137 410.841-55.5488 412.138-55.084 413.3-54.561 414.327-53.98 415.354-53.3989 416.08-52.8953 416.506-52.4692 416.932-52.0431 417.232-51.6848 417.407-51.3943 417.581-51.1038 417.716-50.7261 417.813-50.2612 417.91-49.7964 417.988-49.225 418.046-48.5471 418.104-47.8692 418.133-47.0461 418.133-46.0776 418.133-43.8309 417.939-42.2524 417.552-41.342 417.164-40.4317 416.661-39.9766 416.041-39.9766 415.383-39.9766 414.685-40.2477 413.949-40.79 413.213-41.3324 412.342-41.9328 411.335-42.5913 410.327-43.2498 409.127-43.8503 407.732-44.3926 406.338-44.9349 404.672-45.206 402.735-45.2061 398.939-45.206 396.033-43.7437 394.019-40.8191 392.005-37.8944 390.998-33.6043 390.998-27.9487 390.998-25.1597 391.249-22.6999 391.753-20.5693 392.257-18.4388 393.002-16.6569 393.99-15.2236 394.978-13.7904 396.217-12.7154 397.709-11.9988 399.2-11.2821 400.934-10.9238 402.909-10.9238 404.924-10.9238 406.657-11.224 408.11-11.8245 409.562-12.4249 410.831-13.0931 411.916-13.8291 413-14.5651 413.911-15.2333 414.647-15.8337 415.383-16.4342 416.002-16.7344 416.506-16.7344 416.855-16.7344 417.145-16.6375 417.378-16.4438 417.61-16.2502 417.794-15.8918 417.93-15.3689 418.065-14.8459 418.172-14.1777 418.249-13.3643 418.327-12.5508 418.365-11.5049 418.365-10.2266ZM468.209-10.2266C468.209-9.2194 468.18-8.37687 468.122-7.69897 468.064-7.02108 467.986-6.44971 467.89-5.98486 467.793-5.52002 467.676-5.14233 467.541-4.85181 467.405-4.56128 467.105-4.19328 466.64-3.7478 466.175-3.30233 465.381-2.76001 464.258-2.12085 463.135-1.48169 461.856-0.910319 460.423-0.406738 458.99 0.0968424 457.431 0.503581 455.745 0.813477 454.06 1.12337 452.327 1.27832 450.545 1.27832 446.555 1.27832 443.02 0.658529 439.941-0.581055 436.861-1.82064 434.276-3.65096 432.184-6.07202 430.092-8.49308 428.513-11.4468 427.448-14.9331 426.383-18.4194 425.85-22.4093 425.85-26.9028 425.85-32.0936 426.499-36.5774 427.797-40.3542 429.094-44.1311 430.905-47.2591 433.23-49.7383 435.554-52.2174 438.304-54.0574 441.481-55.2583 444.657-56.4591 448.143-57.0596 451.94-57.0596 453.489-57.0596 455.009-56.924 456.501-56.6528 457.992-56.3817 459.387-56.0137 460.684-55.5488 461.982-55.084 463.144-54.561 464.171-53.98 465.197-53.3989 465.924-52.8953 466.35-52.4692 466.776-52.0431 467.076-51.6848 467.25-51.3943 467.425-51.1038 467.56-50.7261 467.657-50.2612 467.754-49.7964 467.831-49.225 467.89-48.5471 467.948-47.8692 467.977-47.0461 467.977-46.0776 467.977-43.8309 467.783-42.2524 467.396-41.342 467.008-40.4317 466.505-39.9766 465.885-39.9766 465.226-39.9766 464.529-40.2477 463.793-40.79 463.057-41.3324 462.185-41.9328 461.178-42.5913 460.171-43.2498 458.97-43.8503 457.576-44.3926 456.181-44.9349 454.516-45.206 452.579-45.2061 448.783-45.206 445.877-43.7437 443.863-40.8191 441.849-37.8944 440.841-33.6043 440.841-27.9487 440.841-25.1597 441.093-22.6999 441.597-20.5693 442.1-18.4388 442.846-16.6569 443.834-15.2236 444.822-13.7904 446.061-12.7154 447.553-11.9988 449.044-11.2821 450.777-10.9238 452.753-10.9238 454.767-10.9238 456.501-11.224 457.953-11.8245 459.406-12.4249 460.675-13.0931 461.759-13.8291 462.844-14.5651 463.754-15.2333 464.49-15.8337 465.226-16.4342 465.846-16.7344 466.35-16.7344 466.698-16.7344 466.989-16.6375 467.221-16.4438 467.454-16.2502 467.638-15.8918 467.773-15.3689 467.909-14.8459 468.015-14.1777 468.093-13.3643 468.17-12.5508 468.209-11.5049 468.209-10.2266ZM493.474-1.97559C493.474-1.58822 493.358-1.24927 493.126-0.95874 492.893-0.668213 492.496-0.426107 491.934-0.232422 491.373-0.038737 490.627 0.106527 489.697 0.203369 488.768 0.300212 487.586 0.348633 486.153 0.348633 484.72 0.348633 483.538 0.300212 482.609 0.203369 481.679 0.106527 480.933-0.038737 480.371-0.232422 479.81-0.426107 479.413-0.668213 479.18-0.95874 478.948-1.24927 478.832-1.58822 478.832-1.97559L478.832-53.6894C478.832-54.0768 478.948-54.4158 479.18-54.7063 479.413-54.9968 479.81-55.2486 480.371-55.4617 480.933-55.6747 481.679-55.8394 482.609-55.9556 483.538-56.0718 484.72-56.1299 486.153-56.1299 487.586-56.1299 488.768-56.0718 489.697-55.9556 490.627-55.8394 491.373-55.6747 491.934-55.4617 492.496-55.2486 492.893-54.9968 493.126-54.7063 493.358-54.4158 493.474-54.0768 493.474-53.6894ZM494.578-71.3535C494.578-68.4095 493.978-66.3758 492.777-65.2524 491.576-64.1291 489.349-63.5674 486.095-63.5674 482.802-63.5674 480.585-64.1097 479.442-65.1943 478.299-66.279 477.728-68.2352 477.728-71.063 477.728-74.007 478.318-76.0504 479.5-77.1931 480.681-78.3358 482.918-78.9072 486.211-78.9072 489.465-78.9072 491.673-78.3552 492.835-77.2512 493.997-76.1472 494.578-74.1813 494.578-71.3535ZM560.462-28.4136C560.462-23.9976 559.88-19.9689 558.718-16.3276 557.556-12.6864 555.794-9.54866 553.431-6.91455 551.068-4.28044 548.104-2.24674 544.541-0.813477 540.977 0.619792 536.813 1.33643 532.048 1.33643 527.438 1.33643 523.429 0.697266 520.02-0.581055 516.611-1.85937 513.783-3.71875 511.537-6.15918 509.29-8.59961 507.624-11.6017 506.54-15.1655 505.455-18.7293 504.913-22.7967 504.913-27.3677 504.913-31.7837 505.503-35.822 506.685-39.4827 507.866-43.1433 509.639-46.281 512.002-48.8957 514.365-51.5105 517.318-53.5345 520.863-54.9678 524.407-56.401 528.562-57.1177 533.326-57.1177 537.975-57.1177 542.003-56.4882 545.412-55.2292 548.821-53.9703 551.639-52.1206 553.867-49.6802 556.094-47.2397 557.75-44.2376 558.835-40.6738 559.919-37.11 560.462-33.0233 560.462-28.4136ZM545.412-27.8325C545.412-30.3892 545.209-32.7424 544.802-34.8923 544.395-37.0422 543.708-38.9113 542.739-40.4995 541.771-42.0877 540.483-43.3273 538.875-44.2183 537.268-45.1092 535.244-45.5547 532.803-45.5547 530.634-45.5547 528.736-45.1576 527.109-44.3635 525.482-43.5694 524.146-42.4073 523.1-40.8772 522.054-39.3471 521.269-37.5071 520.746-35.3572 520.224-33.2073 519.962-30.7572 519.962-28.0068 519.962-25.4502 520.175-23.0969 520.601-20.947 521.027-18.7971 521.715-16.9281 522.664-15.3398 523.613-13.7516 524.901-12.5217 526.528-11.6501 528.155-10.7786 530.169-10.3428 532.571-10.3428 534.779-10.3428 536.696-10.7398 538.323-11.5339 539.95-12.328 541.287-13.4805 542.333-14.9912 543.379-16.502 544.153-18.3323 544.657-20.4822 545.16-22.6321 545.412-25.0822 545.412-27.8325ZM535.534-79.2559C535.805-79.682 536.135-80.05 536.522-80.3599 536.909-80.6697 537.394-80.9118 537.975-81.0862 538.556-81.2605 539.292-81.3864 540.183-81.4639 541.074-81.5413 542.158-81.5801 543.437-81.5801 545.219-81.5801 546.623-81.5026 547.649-81.3476 548.676-81.1927 549.412-80.97 549.857-80.6794 550.303-80.3889 550.506-80.05 550.467-79.6626 550.429-79.2752 550.235-78.8685 549.886-78.4424L538.614-64.9619C538.304-64.5745 537.994-64.255 537.684-64.0032 537.374-63.7514 536.977-63.548 536.493-63.3931 536.009-63.2381 535.399-63.1219 534.663-63.0444 533.927-62.967 532.997-62.9282 531.874-62.9282 530.518-62.9282 529.443-62.9863 528.649-63.1025 527.855-63.2187 527.303-63.4027 526.993-63.6545 526.683-63.9063 526.557-64.2259 526.615-64.6133 526.673-65.0006 526.877-65.4461 527.225-65.9497ZM621.723-1.97559C621.723-1.58822 621.607-1.24927 621.374-0.95874 621.142-0.668213 620.755-0.426107 620.212-0.232422 619.67-0.038737 618.924 0.106527 617.975 0.203369 617.026 0.300212 615.854 0.348633 614.46 0.348633 613.026 0.348633 611.835 0.300212 610.886 0.203369 609.937 0.106527 609.192-0.038737 608.649-0.232422 608.107-0.426107 607.72-0.668213 607.487-0.95874 607.255-1.24927 607.138-1.58822 607.138-1.97559L607.138-31.5513C607.138-34.0692 606.954-36.0448 606.586-37.478 606.219-38.9113 605.686-40.1412 604.989-41.1677 604.291-42.1943 603.391-42.9884 602.287-43.55 601.183-44.1117 599.895-44.3926 598.423-44.3926 596.563-44.3926 594.685-43.7147 592.786-42.3589 590.888-41.0031 588.913-39.0275 586.86-36.4321L586.86-1.97559C586.86-1.58822 586.743-1.24927 586.511-0.95874 586.279-0.668213 585.882-0.426107 585.32-0.232422 584.758-0.038737 584.013 0.106527 583.083 0.203369 582.153 0.300212 580.972 0.348633 579.538 0.348633 578.105 0.348633 576.924 0.300212 575.994 0.203369 575.064 0.106527 574.319-0.038737 573.757-0.232422 573.195-0.426107 572.798-0.668213 572.566-0.95874 572.333-1.24927 572.217-1.58822 572.217-1.97559L572.217-53.8057C572.217-54.193 572.314-54.532 572.508-54.8225 572.701-55.113 573.05-55.3551 573.554-55.5488 574.057-55.7425 574.706-55.8878 575.5-55.9846 576.294-56.0815 577.292-56.1299 578.492-56.1299 579.732-56.1299 580.759-56.0815 581.572-55.9846 582.385-55.8878 583.015-55.7425 583.461-55.5488 583.906-55.3551 584.226-55.113 584.419-54.8225 584.613-54.532 584.71-54.193 584.71-53.8057L584.71-47.8208C587.576-50.9198 590.491-53.244 593.455-54.7935 596.418-56.3429 599.507-57.1177 602.722-57.1177 606.248-57.1177 609.221-56.5366 611.642-55.3745 614.063-54.2124 616.019-52.6339 617.51-50.6389 619.002-48.644 620.077-46.3101 620.735-43.6372 621.394-40.9643 621.723-37.7492 621.723-33.9917Z" fill="#FFFFFF" fill-rule="nonzero" fill-opacity="1" transform="matrix(1 0 0 1 90.1579 166)"/><g clip-path="url(#clip18)" filter="url(#fx2)" transform="translate(251 166)"><g clip-path="url(#clip19)" transform="translate(-14 -289)"><path d="M41.6426-3.05469C41.6426-2.48568 41.5977-2.00651 41.5078-1.61719 41.418-1.22786 41.2982-0.913411 41.1484-0.673828 40.9987-0.434245 40.8265-0.262044 40.6318-0.157227 40.4372-0.0524089 40.235 0 40.0254 0L9.6582 0C9.44857 0 9.2539-0.0524089 9.07422-0.157227 8.89453-0.262044 8.72233-0.434245 8.55762-0.673828 8.3929-0.913411 8.26562-1.22786 8.17578-1.61719 8.08594-2.00651 8.04101-2.48568 8.04101-3.05469 8.04101-3.59375 8.08594-4.05794 8.17578-4.44727 8.26562-4.83659 8.37793-5.15853 8.51269-5.41309 8.64746-5.66764 8.81217-5.8623 9.00683-5.99707 9.2015-6.13184 9.41862-6.19922 9.6582-6.19922L21.7871-6.19922 21.7871-50.4023 10.5566-43.709C9.98763-43.4095 9.53092-43.2298 9.18652-43.1699 8.84212-43.11 8.5651-43.1774 8.35547-43.3721 8.14583-43.5667 8.00358-43.8887 7.92871-44.3379 7.85384-44.7871 7.81641-45.3561 7.81641-46.0449 7.81641-46.554 7.83887-46.9883 7.88379-47.3477 7.92871-47.707 7.99609-48.0065 8.08594-48.2461 8.17578-48.4857 8.30306-48.6953 8.46777-48.875 8.63249-49.0547 8.84961-49.2344 9.11914-49.4141L22.5059-57.9941C22.6256-58.084 22.7754-58.1588 22.9551-58.2187 23.1348-58.2786 23.3594-58.3385 23.6289-58.3984 23.8984-58.4583 24.2129-58.4958 24.5723-58.5107 24.9316-58.5257 25.3809-58.5332 25.9199-58.5332 26.6387-58.5332 27.2376-58.5033 27.7168-58.4434 28.196-58.3835 28.5703-58.3011 28.8398-58.1963 29.1094-58.0915 29.2891-57.9567 29.3789-57.792 29.4687-57.6273 29.5137-57.4551 29.5137-57.2754L29.5137-6.19922 40.0254-6.19922C40.265-6.19922 40.4896-6.13184 40.6992-5.99707 40.9088-5.8623 41.081-5.66764 41.2158-5.41309 41.3506-5.15853 41.4554-4.83659 41.5303-4.44727 41.6051-4.05794 41.6426-3.59375 41.6426-3.05469ZM64.2402-35.9375C64.2402-34.9792 64.1728-34.1706 64.0381-33.5117 63.9033-32.8529 63.6488-32.3213 63.2744-31.917 62.9001-31.5127 62.4134-31.2282 61.8144-31.0635 61.2155-30.8988 60.4518-30.8164 59.5234-30.8164 58.5651-30.8164 57.7865-30.8988 57.1875-31.0635 56.5885-31.2282 56.1094-31.5127 55.75-31.917 55.3906-32.3213 55.1435-32.8529 55.0088-33.5117 54.874-34.1706 54.8066-34.9792 54.8066-35.9375 54.8066-36.9557 54.874-37.8018 55.0088-38.4756 55.1435-39.1494 55.3906-39.6885 55.75-40.0928 56.1094-40.4971 56.5885-40.7816 57.1875-40.9463 57.7865-41.111 58.5651-41.1934 59.5234-41.1934 60.4518-41.1934 61.2155-41.111 61.8144-40.9463 62.4134-40.7816 62.9001-40.4971 63.2744-40.0928 63.6488-39.6885 63.9033-39.1494 64.0381-38.4756 64.1728-37.8018 64.2402-36.9557 64.2402-35.9375ZM64.2402-4.76172C64.2402-3.77344 64.1728-2.94987 64.0381-2.29102 63.9033-1.63216 63.6488-1.10059 63.2744-0.696289 62.9001-0.291992 62.4134-0.00748697 61.8144 0.157227 61.2155 0.32194 60.4518 0.404297 59.5234 0.404297 58.5651 0.404297 57.7865 0.32194 57.1875 0.157227 56.5885-0.00748697 56.1094-0.291992 55.75-0.696289 55.3906-1.10059 55.1435-1.63216 55.0088-2.29102 54.874-2.94987 54.8066-3.77344 54.8066-4.76172 54.8066-5.75 54.874-6.58105 55.0088-7.25488 55.1435-7.92871 55.3906-8.46029 55.75-8.84961 56.1094-9.23893 56.5885-9.52344 57.1875-9.70312 57.7865-9.88281 58.5651-9.97266 59.5234-9.97266 60.4518-9.97266 61.2155-9.88281 61.8144-9.70312 62.4134-9.52344 62.9001-9.23893 63.2744-8.84961 63.6488-8.46029 63.9033-7.92871 64.0381-7.25488 64.1728-6.58105 64.2402-5.75 64.2402-4.76172ZM112.684-3.05469C112.684-2.48568 112.639-2.00651 112.549-1.61719 112.46-1.22786 112.34-0.913411 112.19-0.673828 112.04-0.434245 111.868-0.262044 111.673-0.157227 111.479-0.0524089 111.277 0 111.067 0L80.6999 0C80.4902 0 80.2956-0.0524089 80.1159-0.157227 79.9362-0.262044 79.764-0.434245 79.5993-0.673828 79.4346-0.913411 79.3073-1.22786 79.2174-1.61719 79.1276-2.00651 79.0827-2.48568 79.0827-3.05469 79.0827-3.59375 79.1276-4.05794 79.2174-4.44727 79.3073-4.83659 79.4196-5.15853 79.5544-5.41309 79.6891-5.66764 79.8538-5.8623 80.0485-5.99707 80.2432-6.13184 80.4603-6.19922 80.6999-6.19922L92.8288-6.19922 92.8288-50.4023 81.5983-43.709C81.0293-43.4095 80.5726-43.2298 80.2282-43.1699 79.8838-43.11 79.6068-43.1774 79.3971-43.3721 79.1875-43.5667 79.0452-43.8887 78.9704-44.3379 78.8955-44.7871 78.8581-45.3561 78.8581-46.0449 78.8581-46.554 78.8805-46.9883 78.9255-47.3477 78.9704-47.707 79.0378-48.0065 79.1276-48.2461 79.2174-48.4857 79.3447-48.6953 79.5094-48.875 79.6741-49.0547 79.8913-49.2344 80.1608-49.4141L93.5475-57.9941C93.6673-58.084 93.817-58.1588 93.9967-58.2187 94.1764-58.2786 94.401-58.3385 94.6706-58.3984 94.9401-58.4583 95.2545-58.4958 95.6139-58.5107 95.9733-58.5257 96.4225-58.5332 96.9616-58.5332 97.6803-58.5332 98.2793-58.5033 98.7585-58.4434 99.2376-58.3835 99.612-58.3011 99.8815-58.1963 100.151-58.0915 100.331-57.9567 100.421-57.792 100.51-57.6273 100.555-57.4551 100.555-57.2754L100.555-6.19922 111.067-6.19922C111.307-6.19922 111.531-6.13184 111.741-5.99707 111.951-5.8623 112.123-5.66764 112.257-5.41309 112.392-5.15853 112.497-4.83659 112.572-4.44727 112.647-4.05794 112.684-3.59375 112.684-3.05469Z" fill="#FFFFFF" fill-rule="nonzero" fill-opacity="1" transform="matrix(1 0 0 1 61.7025 121)"/></g></g><path d="M41.6426-3.05469C41.6426-2.48568 41.5977-2.00651 41.5078-1.61719 41.418-1.22786 41.2982-0.913411 41.1484-0.673828 40.9987-0.434245 40.8265-0.262044 40.6318-0.157227 40.4372-0.0524089 40.235 0 40.0254 0L9.6582 0C9.44857 0 9.2539-0.0524089 9.07422-0.157227 8.89453-0.262044 8.72233-0.434245 8.55762-0.673828 8.3929-0.913411 8.26562-1.22786 8.17578-1.61719 8.08594-2.00651 8.04101-2.48568 8.04101-3.05469 8.04101-3.59375 8.08594-4.05794 8.17578-4.44727 8.26562-4.83659 8.37793-5.15853 8.51269-5.41309 8.64746-5.66764 8.81217-5.8623 9.00683-5.99707 9.2015-6.13184 9.41862-6.19922 9.6582-6.19922L21.7871-6.19922 21.7871-50.4023 10.5566-43.709C9.98763-43.4095 9.53092-43.2298 9.18652-43.1699 8.84212-43.11 8.5651-43.1774 8.35547-43.3721 8.14583-43.5667 8.00358-43.8887 7.92871-44.3379 7.85384-44.7871 7.81641-45.3561 7.81641-46.0449 7.81641-46.554 7.83887-46.9883 7.88379-47.3477 7.92871-47.707 7.99609-48.0065 8.08594-48.2461 8.17578-48.4857 8.30306-48.6953 8.46777-48.875 8.63249-49.0547 8.84961-49.2344 9.11914-49.4141L22.5059-57.9941C22.6256-58.084 22.7754-58.1588 22.9551-58.2187 23.1348-58.2786 23.3594-58.3385 23.6289-58.3984 23.8984-58.4583 24.2129-58.4958 24.5723-58.5107 24.9316-58.5257 25.3809-58.5332 25.9199-58.5332 26.6387-58.5332 27.2376-58.5033 27.7168-58.4434 28.196-58.3835 28.5703-58.3011 28.8398-58.1963 29.1094-58.0915 29.2891-57.9567 29.3789-57.792 29.4687-57.6273 29.5137-57.4551 29.5137-57.2754L29.5137-6.19922 40.0254-6.19922C40.265-6.19922 40.4896-6.13184 40.6992-5.99707 40.9088-5.8623 41.081-5.66764 41.2158-5.41309 41.3506-5.15853 41.4554-4.83659 41.5303-4.44727 41.6051-4.05794 41.6426-3.59375 41.6426-3.05469ZM64.2402-35.9375C64.2402-34.9792 64.1728-34.1706 64.0381-33.5117 63.9033-32.8529 63.6488-32.3213 63.2744-31.917 62.9001-31.5127 62.4134-31.2282 61.8144-31.0635 61.2155-30.8988 60.4518-30.8164 59.5234-30.8164 58.5651-30.8164 57.7865-30.8988 57.1875-31.0635 56.5885-31.2282 56.1094-31.5127 55.75-31.917 55.3906-32.3213 55.1435-32.8529 55.0088-33.5117 54.874-34.1706 54.8066-34.9792 54.8066-35.9375 54.8066-36.9557 54.874-37.8018 55.0088-38.4756 55.1435-39.1494 55.3906-39.6885 55.75-40.0928 56.1094-40.4971 56.5885-40.7816 57.1875-40.9463 57.7865-41.111 58.5651-41.1934 59.5234-41.1934 60.4518-41.1934 61.2155-41.111 61.8144-40.9463 62.4134-40.7816 62.9001-40.4971 63.2744-40.0928 63.6488-39.6885 63.9033-39.1494 64.0381-38.4756 64.1728-37.8018 64.2402-36.9557 64.2402-35.9375ZM64.2402-4.76172C64.2402-3.77344 64.1728-2.94987 64.0381-2.29102 63.9033-1.63216 63.6488-1.10059 63.2744-0.696289 62.9001-0.291992 62.4134-0.00748697 61.8144 0.157227 61.2155 0.32194 60.4518 0.404297 59.5234 0.404297 58.5651 0.404297 57.7865 0.32194 57.1875 0.157227 56.5885-0.00748697 56.1094-0.291992 55.75-0.696289 55.3906-1.10059 55.1435-1.63216 55.0088-2.29102 54.874-2.94987 54.8066-3.77344 54.8066-4.76172 54.8066-5.75 54.874-6.58105 55.0088-7.25488 55.1435-7.92871 55.3906-8.46029 55.75-8.84961 56.1094-9.23893 56.5885-9.52344 57.1875-9.70312 57.7865-9.88281 58.5651-9.97266 59.5234-9.97266 60.4518-9.97266 61.2155-9.88281 61.8144-9.70312 62.4134-9.52344 62.9001-9.23893 63.2744-8.84961 63.6488-8.46029 63.9033-7.92871 64.0381-7.25488 64.1728-6.58105 64.2402-5.75 64.2402-4.76172ZM112.684-3.05469C112.684-2.48568 112.639-2.00651 112.549-1.61719 112.46-1.22786 112.34-0.913411 112.19-0.673828 112.04-0.434245 111.868-0.262044 111.673-0.157227 111.479-0.0524089 111.277 0 111.067 0L80.6999 0C80.4902 0 80.2956-0.0524089 80.1159-0.157227 79.9362-0.262044 79.764-0.434245 79.5993-0.673828 79.4346-0.913411 79.3073-1.22786 79.2174-1.61719 79.1276-2.00651 79.0827-2.48568 79.0827-3.05469 79.0827-3.59375 79.1276-4.05794 79.2174-4.44727 79.3073-4.83659 79.4196-5.15853 79.5544-5.41309 79.6891-5.66764 79.8538-5.8623 80.0485-5.99707 80.2432-6.13184 80.4603-6.19922 80.6999-6.19922L92.8288-6.19922 92.8288-50.4023 81.5983-43.709C81.0293-43.4095 80.5726-43.2298 80.2282-43.1699 79.8838-43.11 79.6068-43.1774 79.3971-43.3721 79.1875-43.5667 79.0452-43.8887 78.9704-44.3379 78.8955-44.7871 78.8581-45.3561 78.8581-46.0449 78.8581-46.554 78.8805-46.9883 78.9255-47.3477 78.9704-47.707 79.0378-48.0065 79.1276-48.2461 79.2174-48.4857 79.3447-48.6953 79.5094-48.875 79.6741-49.0547 79.8913-49.2344 80.1608-49.4141L93.5475-57.9941C93.6673-58.084 93.817-58.1588 93.9967-58.2187 94.1764-58.2786 94.401-58.3385 94.6706-58.3984 94.9401-58.4583 95.2545-58.4958 95.6139-58.5107 95.9733-58.5257 96.4225-58.5332 96.9616-58.5332 97.6803-58.5332 98.2793-58.5033 98.7585-58.4434 99.2376-58.3835 99.612-58.3011 99.8815-58.1963 100.151-58.0915 100.331-57.9567 100.421-57.792 100.51-57.6273 100.555-57.4551 100.555-57.2754L100.555-6.19922 111.067-6.19922C111.307-6.19922 111.531-6.13184 111.741-5.99707 111.951-5.8623 112.123-5.66764 112.257-5.41309 112.392-5.15853 112.497-4.83659 112.572-4.44727 112.647-4.05794 112.684-3.59375 112.684-3.05469Z" fill="#FFFFFF" fill-rule="nonzero" fill-opacity="1" transform="matrix(1 0 0 1 308.737 283)"/><g clip-path="url(#clip20)" filter="url(#fx3)" transform="translate(368 166)"><g clip-path="url(#clip21)" transform="translate(-14 -289)"><path d="M25.0664-22.6855C25.0664-21.5176 24.9316-20.709 24.6621-20.2598 24.3926-19.8105 24.0033-19.5859 23.4941-19.5859L4.7168-19.5859C4.17773-19.5859 3.77344-19.818 3.50391-20.2822 3.23437-20.7464 3.09961-21.5475 3.09961-22.6855 3.09961-23.8236 3.23437-24.6172 3.50391-25.0664 3.77344-25.5156 4.17773-25.7402 4.7168-25.7402L23.4941-25.7402C23.7337-25.7402 23.9508-25.6953 24.1455-25.6055 24.3402-25.5156 24.5049-25.3434 24.6396-25.0889 24.7744-24.8343 24.8792-24.5124 24.9541-24.123 25.029-23.7337 25.0664-23.2546 25.0664-22.6855Z" fill="#FFFFFF" fill-rule="nonzero" fill-opacity="1" transform="matrix(1 0 0 1 62.1504 121)"/></g></g><path d="M25.0664-22.6855C25.0664-21.5176 24.9316-20.709 24.6621-20.2598 24.3926-19.8105 24.0033-19.5859 23.4941-19.5859L4.7168-19.5859C4.17773-19.5859 3.77344-19.818 3.50391-20.2822 3.23437-20.7464 3.09961-21.5475 3.09961-22.6855 3.09961-23.8236 3.23437-24.6172 3.50391-25.0664 3.77344-25.5156 4.17773-25.7402 4.7168-25.7402L23.4941-25.7402C23.7337-25.7402 23.9508-25.6953 24.1455-25.6055 24.3402-25.5156 24.5049-25.3434 24.6396-25.0889 24.7744-24.8343 24.8792-24.5124 24.9541-24.123 25.029-23.7337 25.0664-23.2546 25.0664-22.6855Z" fill="#FFFFFF" fill-rule="nonzero" fill-opacity="1" transform="matrix(1 0 0 1 426.185 283)"/><g clip-path="url(#clip22)" filter="url(#fx4)" transform="translate(396 166)"><g clip-path="url(#clip23)" transform="translate(-14 -289)"><path d="M41.5078-3.32422C41.5078-2.78516 41.4704-2.30599 41.3955-1.88672 41.3206-1.46745 41.2158-1.11556 41.0811-0.831055 40.9463-0.546549 40.7666-0.336914 40.542-0.202148 40.3174-0.0673828 40.0703 0 39.8008 0L7.68164 0C7.26237 0 6.89551-0.0524089 6.58105-0.157227 6.2666-0.262044 5.99707-0.434245 5.77246-0.673828 5.54785-0.913411 5.38314-1.25781 5.27832-1.70703 5.1735-2.15625 5.12109-2.71029 5.12109-3.36914 5.12109-3.9681 5.14426-4.49219 5.19058-4.94141 5.23691-5.39062 5.33716-5.78743 5.49135-6.13184 5.64553-6.47624 5.83844-6.82064 6.07007-7.16504 6.3017-7.50944 6.60258-7.8763 6.97272-8.26562L18.5913-20.2148C21.2764-22.97 23.429-25.4408 25.0492-27.627 26.6694-29.8131 27.9193-31.8047 28.7988-33.6016 29.6783-35.3984 30.2569-37.0306 30.5346-38.498 30.8123-39.9655 30.9512-41.3431 30.9512-42.6309 30.9512-43.9186 30.7349-45.139 30.3023-46.292 29.8697-47.445 29.2439-48.4557 28.425-49.3242 27.6061-50.1927 26.5787-50.8815 25.3426-51.3906 24.1065-51.8997 22.6851-52.1543 21.0782-52.1543 19.1933-52.1543 17.5015-51.8997 16.0027-51.3906 14.5039-50.8815 13.1905-50.3275 12.0626-49.7285 10.9346-49.1296 9.99219-48.5755 9.2353-48.0664 8.47842-47.5573 7.91444-47.3027 7.54337-47.3027 7.32718-47.3027 7.13404-47.3626 6.96394-47.4824 6.79385-47.6022 6.65475-47.7969 6.54666-48.0664 6.43857-48.3359 6.35364-48.6953 6.29187-49.1445 6.2301-49.5937 6.19922-50.1328 6.19922-50.7617 6.19922-51.2109 6.21419-51.6003 6.24414-51.9297 6.27409-52.2591 6.3265-52.5436 6.40137-52.7832 6.47624-53.0228 6.57357-53.2474 6.69336-53.457 6.81315-53.6667 7.05273-53.9287 7.41211-54.2432 7.77148-54.5576 8.3929-54.9844 9.27637-55.5234 10.1598-56.0625 11.2679-56.5941 12.6006-57.1182 13.9333-57.6422 15.4007-58.084 17.0029-58.4434 18.6051-58.8027 20.2897-58.9824 22.0566-58.9824 24.8717-58.9824 27.335-58.5856 29.4463-57.792 31.5576-56.9984 33.3096-55.9128 34.7021-54.5352 36.0947-53.1575 37.1354-51.5553 37.8242-49.7285 38.513-47.9017 38.8574-45.9551 38.8574-43.8887 38.8574-42.0319 38.6927-40.1826 38.3633-38.3408 38.0339-36.499 37.3376-34.5075 36.2744-32.3662 35.2113-30.2249 33.6764-27.8441 31.6699-25.2236 29.6634-22.6032 26.998-19.5859 23.6738-16.1719L14.4648-6.55859 39.7559-6.55859C39.9954-6.55859 40.2275-6.49121 40.4521-6.35644 40.6768-6.22168 40.8714-6.01953 41.0361-5.75 41.2008-5.48047 41.3206-5.14355 41.3955-4.73926 41.4704-4.33496 41.5078-3.86328 41.5078-3.32422Z" fill="#FFFFFF" fill-rule="nonzero" fill-opacity="1" transform="matrix(1 0 0 1 62.2233 121)"/></g></g><path d="M41.5078-3.32422C41.5078-2.78516 41.4704-2.30599 41.3955-1.88672 41.3206-1.46745 41.2158-1.11556 41.0811-0.831055 40.9463-0.546549 40.7666-0.336914 40.542-0.202148 40.3174-0.0673828 40.0703 0 39.8008 0L7.68164 0C7.26237 0 6.89551-0.0524089 6.58105-0.157227 6.2666-0.262044 5.99707-0.434245 5.77246-0.673828 5.54785-0.913411 5.38314-1.25781 5.27832-1.70703 5.1735-2.15625 5.12109-2.71029 5.12109-3.36914 5.12109-3.9681 5.14426-4.49219 5.19058-4.94141 5.23691-5.39062 5.33716-5.78743 5.49135-6.13184 5.64553-6.47624 5.83844-6.82064 6.07007-7.16504 6.3017-7.50944 6.60258-7.8763 6.97272-8.26562L18.5913-20.2148C21.2764-22.97 23.429-25.4408 25.0492-27.627 26.6694-29.8131 27.9193-31.8047 28.7988-33.6016 29.6783-35.3984 30.2569-37.0306 30.5346-38.498 30.8123-39.9655 30.9512-41.3431 30.9512-42.6309 30.9512-43.9186 30.7349-45.139 30.3023-46.292 29.8697-47.445 29.2439-48.4557 28.425-49.3242 27.6061-50.1927 26.5787-50.8815 25.3426-51.3906 24.1065-51.8997 22.6851-52.1543 21.0782-52.1543 19.1933-52.1543 17.5015-51.8997 16.0027-51.3906 14.5039-50.8815 13.1905-50.3275 12.0626-49.7285 10.9346-49.1296 9.99219-48.5755 9.2353-48.0664 8.47842-47.5573 7.91444-47.3027 7.54337-47.3027 7.32718-47.3027 7.13404-47.3626 6.96394-47.4824 6.79385-47.6022 6.65475-47.7969 6.54666-48.0664 6.43857-48.3359 6.35364-48.6953 6.29187-49.1445 6.2301-49.5937 6.19922-50.1328 6.19922-50.7617 6.19922-51.2109 6.21419-51.6003 6.24414-51.9297 6.27409-52.2591 6.3265-52.5436 6.40137-52.7832 6.47624-53.0228 6.57357-53.2474 6.69336-53.457 6.81315-53.6667 7.05273-53.9287 7.41211-54.2432 7.77148-54.5576 8.3929-54.9844 9.27637-55.5234 10.1598-56.0625 11.2679-56.5941 12.6006-57.1182 13.9333-57.6422 15.4007-58.084 17.0029-58.4434 18.6051-58.8027 20.2897-58.9824 22.0566-58.9824 24.8717-58.9824 27.335-58.5856 29.4463-57.792 31.5576-56.9984 33.3096-55.9128 34.7021-54.5352 36.0947-53.1575 37.1354-51.5553 37.8242-49.7285 38.513-47.9017 38.8574-45.9551 38.8574-43.8887 38.8574-42.0319 38.6927-40.1826 38.3633-38.3408 38.0339-36.499 37.3376-34.5075 36.2744-32.3662 35.2113-30.2249 33.6764-27.8441 31.6699-25.2236 29.6634-22.6032 26.998-19.5859 23.6738-16.1719L14.4648-6.55859 39.7559-6.55859C39.9954-6.55859 40.2275-6.49121 40.4521-6.35644 40.6768-6.22168 40.8714-6.01953 41.0361-5.75 41.2008-5.48047 41.3206-5.14355 41.3955-4.73926 41.4704-4.33496 41.5078-3.86328 41.5078-3.32422Z" fill="#FFFFFF" fill-rule="nonzero" fill-opacity="1" transform="matrix(1 0 0 1 454.258 283)"/></g></g></g><rect x="34.4999" y="276.5" width="769" height="370" stroke="#000000" stroke-width="3.4375" stroke-linecap="butt" stroke-linejoin="round" stroke-miterlimit="10" stroke-opacity="1" fill="#632523" fill-opacity="1"/><g clip-path="url(#clip24)" filter="url(#fx6)" transform="translate(29 295)"><g clip-path="url(#clip25)"><path d="M23.5327-2.0918C23.5327-1.70443 23.4068-1.35579 23.155-1.0459 22.9032-0.736003 22.4868-0.484212 21.9058-0.290527 21.3247-0.0968424 20.55 0.0581055 19.5815 0.174316 18.6131 0.290527 17.3735 0.348633 15.8628 0.348633 14.3908 0.348633 13.1609 0.290527 12.1731 0.174316 11.1853 0.0581055 10.4009-0.0968424 9.81982-0.290527 9.23877-0.484212 8.82235-0.736003 8.57056-1.0459 8.31877-1.35579 8.19287-1.70443 8.19287-2.0918L8.19287-73.0967C8.19287-73.484 8.31877-73.8327 8.57056-74.1426 8.82235-74.4525 9.24845-74.7043 9.84888-74.8979 10.4493-75.0916 11.2337-75.2466 12.2021-75.3628 13.1706-75.479 14.3908-75.5371 15.8628-75.5371 17.3735-75.5371 18.6131-75.479 19.5815-75.3628 20.55-75.2466 21.3247-75.0916 21.9058-74.8979 22.4868-74.7043 22.9032-74.4525 23.155-74.1426 23.4068-73.8327 23.5327-73.484 23.5327-73.0967ZM88.3376-1.97559C88.3376-1.58822 88.2213-1.24927 87.9889-0.95874 87.7565-0.668213 87.3691-0.426107 86.8268-0.232422 86.2845-0.038737 85.5388 0.106527 84.5898 0.203369 83.6407 0.300212 82.4689 0.348633 81.0744 0.348633 79.6411 0.348633 78.4499 0.300212 77.5009 0.203369 76.5518 0.106527 75.8062-0.038737 75.2638-0.232422 74.7215-0.426107 74.3341-0.668213 74.1017-0.95874 73.8693-1.24927 73.7531-1.58822 73.7531-1.97559L73.7531-31.5513C73.7531-34.0692 73.5691-36.0448 73.2011-37.478 72.8331-38.9113 72.3004-40.1412 71.6032-41.1677 70.9059-42.1943 70.0053-42.9884 68.9013-43.55 67.7973-44.1117 66.5093-44.3926 65.0373-44.3926 63.1779-44.3926 61.2991-43.7147 59.401-42.3589 57.5029-41.0031 55.5273-39.0275 53.4743-36.4321L53.4743-1.97559C53.4743-1.58822 53.3581-1.24927 53.1256-0.95874 52.8932-0.668213 52.4962-0.426107 51.9345-0.232422 51.3728-0.038737 50.6271 0.106527 49.6974 0.203369 48.7677 0.300212 47.5863 0.348633 46.153 0.348633 44.7197 0.348633 43.5382 0.300212 42.6086 0.203369 41.6789 0.106527 40.9332-0.038737 40.3715-0.232422 39.8098-0.426107 39.4128-0.668213 39.1803-0.95874 38.9479-1.24927 38.8317-1.58822 38.8317-1.97559L38.8317-53.8057C38.8317-54.193 38.9285-54.532 39.1222-54.8225 39.3159-55.113 39.6645-55.3551 40.1681-55.5488 40.6717-55.7425 41.3206-55.8878 42.1147-55.9846 42.9088-56.0815 43.9062-56.1299 45.1071-56.1299 46.3467-56.1299 47.3732-56.0815 48.1867-55.9846 49.0002-55.8878 49.6296-55.7425 50.0751-55.5488 50.5206-55.3551 50.8402-55.113 51.0339-54.8225 51.2275-54.532 51.3244-54.193 51.3244-53.8057L51.3244-47.8208C54.1909-50.9198 57.1059-53.244 60.0693-54.7935 63.0326-56.3429 66.1219-57.1177 69.3371-57.1177 72.8621-57.1177 75.8352-56.5366 78.2563-55.3745 80.6773-54.2124 82.6335-52.6339 84.1249-50.6389 85.6163-48.644 86.6912-46.3101 87.3498-43.6372 88.0083-40.9643 88.3376-37.7492 88.3376-33.9917ZM133.678-7.08887C133.678-5.38444 133.572-4.07707 133.358-3.16675 133.145-2.25643 132.865-1.61727 132.516-1.24927 132.167-0.881266 131.654-0.552002 130.976-0.261475 130.298 0.0290527 129.504 0.280843 128.594 0.493896 127.684 0.70695 126.696 0.871582 125.63 0.987793 124.565 1.104 123.49 1.16211 122.406 1.16211 119.5 1.16211 116.982 0.794108 114.852 0.0581055 112.721-0.677897 110.959-1.81095 109.564-3.34106 108.17-4.87117 107.143-6.79834 106.485-9.12256 105.826-11.4468 105.497-14.1971 105.497-17.3735L105.497-43.9277 99.2796-43.9277C98.5436-43.9277 97.9819-44.3829 97.5946-45.2932 97.2072-46.2035 97.0135-47.724 97.0135-49.8545 97.0135-50.9779 97.0619-51.9269 97.1588-52.7017 97.2556-53.4764 97.4009-54.0865 97.5946-54.532 97.7882-54.9775 98.0303-55.297 98.3209-55.4907 98.6114-55.6844 98.9503-55.7812 99.3377-55.7812L105.497-55.7812 105.497-67.3442C105.497-67.7316 105.603-68.0802 105.816-68.3901 106.03-68.7 106.417-68.9615 106.979-69.1746 107.54-69.3876 108.296-69.5425 109.245-69.6394 110.194-69.7362 111.366-69.7847 112.76-69.7847 114.193-69.7847 115.385-69.7362 116.334-69.6394 117.283-69.5425 118.028-69.3876 118.571-69.1746 119.113-68.9615 119.5-68.7 119.733-68.3901 119.965-68.0802 120.081-67.7316 120.081-67.3442L120.081-55.7812 131.354-55.7812C131.741-55.7812 132.08-55.6844 132.371-55.4907 132.661-55.297 132.903-54.9775 133.097-54.532 133.291-54.0865 133.436-53.4764 133.533-52.7017 133.63-51.9269 133.678-50.9779 133.678-49.8545 133.678-47.724 133.484-46.2035 133.097-45.2932 132.71-44.3829 132.148-43.9277 131.412-43.9277L120.081-43.9277 120.081-19.5815C120.081-16.7537 120.527-14.6329 121.418-13.219 122.309-11.8051 123.897-11.0981 126.182-11.0981 126.957-11.0981 127.654-11.1659 128.274-11.3015 128.894-11.4371 129.446-11.592 129.93-11.7664 130.414-11.9407 130.821-12.0956 131.15-12.2312 131.48-12.3668 131.78-12.4346 132.051-12.4346 132.284-12.4346 132.506-12.3668 132.719-12.2312 132.932-12.0956 133.097-11.8245 133.213-11.4177 133.329-11.011 133.436-10.459 133.533-9.76172 133.63-9.06445 133.678-8.1735 133.678-7.08887ZM177.543-48.9829C177.543-47.5884 177.504-46.4456 177.427-45.5547 177.349-44.6637 177.233-43.9665 177.078-43.4629 176.923-42.9593 176.72-42.6107 176.468-42.417 176.216-42.2233 175.896-42.1265 175.509-42.1265 175.199-42.1265 174.851-42.1942 174.463-42.3298 174.076-42.4654 173.64-42.6107 173.156-42.7656 172.672-42.9206 172.139-43.0658 171.558-43.2014 170.977-43.337 170.338-43.4048 169.64-43.4048 168.827-43.4048 168.013-43.2402 167.2-42.9109 166.387-42.5816 165.544-42.0684 164.672-41.3711 163.801-40.6738 162.891-39.7441 161.941-38.582 160.992-37.4199 159.976-35.9866 158.891-34.2822L158.891-1.97559C158.891-1.58822 158.775-1.24927 158.542-0.95874 158.31-0.668213 157.913-0.426107 157.351-0.232422 156.789-0.038737 156.044 0.106527 155.114 0.203369 154.184 0.300212 153.003 0.348633 151.57 0.348633 150.136 0.348633 148.955 0.300212 148.025 0.203369 147.096 0.106527 146.35-0.038737 145.788-0.232422 145.226-0.426107 144.829-0.668213 144.597-0.95874 144.365-1.24927 144.248-1.58822 144.248-1.97559L144.248-53.8057C144.248-54.193 144.345-54.532 144.539-54.8225 144.733-55.113 145.081-55.3551 145.585-55.5488 146.088-55.7425 146.737-55.8878 147.531-55.9846 148.325-56.0815 149.323-56.1299 150.524-56.1299 151.763-56.1299 152.79-56.0815 153.603-55.9846 154.417-55.8878 155.046-55.7425 155.492-55.5488 155.937-55.3551 156.257-55.113 156.451-54.8225 156.644-54.532 156.741-54.193 156.741-53.8057L156.741-47.356C158.097-49.2928 159.375-50.8907 160.576-52.1497 161.777-53.4086 162.92-54.4061 164.004-55.1421 165.089-55.8781 166.173-56.3913 167.258-56.6819 168.343-56.9724 169.427-57.1177 170.512-57.1177 171.016-57.1177 171.558-57.0886 172.139-57.0305 172.72-56.9724 173.32-56.8756 173.94-56.74 174.56-56.6044 175.102-56.4495 175.567-56.2751 176.032-56.1008 176.371-55.9168 176.584-55.7231 176.797-55.5295 176.952-55.3164 177.049-55.084 177.146-54.8516 177.233-54.532 177.31-54.1252 177.388-53.7185 177.446-53.1084 177.485-52.2949 177.523-51.4814 177.543-50.3774 177.543-48.9829ZM239.055-28.4136C239.055-23.9976 238.474-19.9689 237.312-16.3276 236.15-12.6864 234.388-9.54866 232.025-6.91455 229.662-4.28044 226.698-2.24674 223.134-0.813477 219.571 0.619792 215.406 1.33643 210.642 1.33643 206.032 1.33643 202.023 0.697266 198.614-0.581055 195.205-1.85937 192.377-3.71875 190.131-6.15918 187.884-8.59961 186.218-11.6017 185.133-15.1655 184.049-18.7293 183.507-22.7967 183.507-27.3677 183.507-31.7837 184.097-35.822 185.279-39.4827 186.46-43.1433 188.232-46.281 190.595-48.8957 192.958-51.5105 195.912-53.5345 199.456-54.9678 203.001-56.401 207.155-57.1177 211.92-57.1177 216.569-57.1177 220.597-56.4882 224.006-55.2292 227.415-53.9703 230.233-52.1206 232.46-49.6802 234.688-47.2397 236.344-44.2376 237.428-40.6738 238.513-37.11 239.055-33.0233 239.055-28.4136ZM224.006-27.8325C224.006-30.3892 223.803-32.7424 223.396-34.8923 222.989-37.0422 222.302-38.9113 221.333-40.4995 220.365-42.0877 219.077-43.3273 217.469-44.2183 215.862-45.1092 213.838-45.5547 211.397-45.5547 209.228-45.5547 207.33-45.1576 205.703-44.3635 204.076-43.5694 202.739-42.4073 201.694-40.8772 200.648-39.3471 199.863-37.5071 199.34-35.3572 198.817-33.2073 198.556-30.7572 198.556-28.0068 198.556-25.4502 198.769-23.0969 199.195-20.947 199.621-18.7971 200.309-16.9281 201.258-15.3398 202.207-13.7516 203.495-12.5217 205.122-11.6501 206.749-10.7786 208.763-10.3428 211.165-10.3428 213.373-10.3428 215.29-10.7398 216.917-11.5339 218.544-12.328 219.881-13.4805 220.926-14.9912 221.972-16.502 222.747-18.3323 223.251-20.4822 223.754-22.6321 224.006-25.0822 224.006-27.8325ZM299.968-1.97559C299.968-1.54948 299.871-1.19116 299.678-0.900635 299.484-0.610107 299.155-0.368001 298.69-0.174316 298.225 0.0193685 297.595 0.154948 296.801 0.232422 296.007 0.309896 295.029 0.348633 293.867 0.348633 292.627 0.348633 291.62 0.309896 290.846 0.232422 290.071 0.154948 289.441 0.0193685 288.957-0.174316 288.473-0.368001 288.124-0.610107 287.911-0.900635 287.698-1.19116 287.592-1.54948 287.592-1.97559L287.592-7.72803C284.919-4.86149 282.12-2.63411 279.195-1.0459 276.271 0.542318 273.026 1.33643 269.463 1.33643 265.512 1.33643 262.17 0.57137 259.44-0.95874 256.709-2.48885 254.481-4.55159 252.757-7.14697 251.034-9.74235 249.784-12.7735 249.01-16.2405 248.235-19.7074 247.847-23.3584 247.847-27.1934 247.847-31.8031 248.341-35.9479 249.329-39.6279 250.317-43.3079 251.76-46.4456 253.658-49.041 255.556-51.6364 257.919-53.6313 260.747-55.0259 263.575-56.4204 266.829-57.1177 270.509-57.1177 273.414-57.1177 276.048-56.5269 278.411-55.3455 280.774-54.164 283.117-52.4305 285.442-50.145L285.442-78.21C285.442-78.5973 285.548-78.946 285.761-79.2559 285.974-79.5658 286.362-79.8272 286.923-80.0403 287.485-80.2533 288.231-80.418 289.16-80.5342 290.09-80.6504 291.272-80.7085 292.705-80.7085 294.138-80.7085 295.32-80.6504 296.249-80.5342 297.179-80.418 297.915-80.2533 298.457-80.0403 299-79.8272 299.387-79.5658 299.619-79.2559 299.852-78.946 299.968-78.5973 299.968-78.21ZM285.442-36.6064C283.35-39.2406 281.345-41.2549 279.428-42.6494 277.51-44.0439 275.506-44.7412 273.414-44.7412 271.516-44.7412 269.879-44.2667 268.504-43.3176 267.129-42.3686 266.025-41.0999 265.192-39.5117 264.359-37.9235 263.739-36.1513 263.333-34.1951 262.926-32.2388 262.722-30.2342 262.722-28.1812 262.722-26.0119 262.897-23.9007 263.245-21.8477 263.594-19.7946 264.165-17.9643 264.96-16.3567 265.754-14.7491 266.809-13.4611 268.126-12.4927 269.443-11.5243 271.109-11.04 273.123-11.04 274.13-11.04 275.109-11.1853 276.058-11.4758 277.007-11.7664 277.975-12.2409 278.963-12.8994 279.951-13.5579 280.968-14.4198 282.013-15.4851 283.059-16.5504 284.202-17.8577 285.442-19.4072ZM364.135-1.97559C364.135-1.58822 364.038-1.24927 363.844-0.95874 363.651-0.668213 363.312-0.426107 362.827-0.232422 362.343-0.038737 361.704 0.106527 360.91 0.203369 360.116 0.300212 359.118 0.348633 357.917 0.348633 356.639 0.348633 355.603 0.300212 354.809 0.203369 354.015 0.106527 353.385-0.038737 352.92-0.232422 352.456-0.426107 352.126-0.668213 351.933-0.95874 351.739-1.24927 351.642-1.58822 351.642-1.97559L351.642-7.96045C348.776-4.86149 345.861-2.53727 342.897-0.987793 339.934 0.561686 336.864 1.33643 333.687 1.33643 330.124 1.33643 327.131 0.755371 324.71-0.406738 322.289-1.56885 320.333-3.15706 318.842-5.17139 317.35-7.18571 316.285-9.51961 315.646-12.1731 315.007-14.8266 314.687-18.1289 314.687-22.0801L314.687-53.8057C314.687-54.193 314.793-54.532 315.007-54.8225 315.22-55.113 315.607-55.3551 316.169-55.5488 316.73-55.7425 317.486-55.8878 318.435-55.9846 319.384-56.0815 320.556-56.1299 321.95-56.1299 323.383-56.1299 324.565-56.0815 325.495-55.9846 326.424-55.8878 327.17-55.7425 327.732-55.5488 328.293-55.3551 328.69-55.113 328.923-54.8225 329.155-54.532 329.271-54.193 329.271-53.8057L329.271-24.5205C329.271-21.8089 329.446-19.7365 329.794-18.3032 330.143-16.87 330.676-15.6401 331.392-14.6135 332.109-13.587 333.019-12.7929 334.123-12.2312 335.227-11.6695 336.515-11.3887 337.987-11.3887 339.847-11.3887 341.716-12.0666 343.594-13.4224 345.473-14.7782 347.478-16.7537 349.608-19.3491L349.608-53.8057C349.608-54.193 349.715-54.532 349.928-54.8225 350.141-55.113 350.528-55.3551 351.09-55.5488 351.652-55.7425 352.397-55.8878 353.327-55.9846 354.257-56.0815 355.438-56.1299 356.872-56.1299 358.305-56.1299 359.486-56.0815 360.416-55.9846 361.346-55.8878 362.082-55.7425 362.624-55.5488 363.166-55.3551 363.554-55.113 363.786-54.8225 364.018-54.532 364.135-54.193 364.135-53.8057ZM418.365-10.2266C418.365-9.2194 418.336-8.37687 418.278-7.69897 418.22-7.02108 418.143-6.44971 418.046-5.98486 417.949-5.52002 417.833-5.14233 417.697-4.85181 417.562-4.56128 417.261-4.19328 416.797-3.7478 416.332-3.30233 415.538-2.76001 414.414-2.12085 413.291-1.48169 412.012-0.910319 410.579-0.406738 409.146 0.0968424 407.587 0.503581 405.902 0.813477 404.217 1.12337 402.483 1.27832 400.701 1.27832 396.711 1.27832 393.177 0.658529 390.097-0.581055 387.017-1.82064 384.432-3.65096 382.34-6.07202 380.248-8.49308 378.67-11.4468 377.604-14.9331 376.539-18.4194 376.006-22.4093 376.006-26.9028 376.006-32.0936 376.655-36.5774 377.953-40.3542 379.251-44.1311 381.062-47.2591 383.386-49.7383 385.71-52.2174 388.46-54.0574 391.637-55.2583 394.813-56.4591 398.3-57.0596 402.096-57.0596 403.645-57.0596 405.166-56.924 406.657-56.6528 408.148-56.3817 409.543-56.0137 410.841-55.5488 412.138-55.084 413.3-54.561 414.327-53.98 415.354-53.3989 416.08-52.8953 416.506-52.4692 416.932-52.0431 417.232-51.6848 417.407-51.3943 417.581-51.1038 417.716-50.7261 417.813-50.2612 417.91-49.7964 417.988-49.225 418.046-48.5471 418.104-47.8692 418.133-47.0461 418.133-46.0776 418.133-43.8309 417.939-42.2524 417.552-41.342 417.164-40.4317 416.661-39.9766 416.041-39.9766 415.383-39.9766 414.685-40.2477 413.949-40.79 413.213-41.3324 412.342-41.9328 411.335-42.5913 410.327-43.2498 409.127-43.8503 407.732-44.3926 406.338-44.9349 404.672-45.206 402.735-45.2061 398.939-45.206 396.033-43.7437 394.019-40.8191 392.005-37.8944 390.998-33.6043 390.998-27.9487 390.998-25.1597 391.249-22.6999 391.753-20.5693 392.257-18.4388 393.002-16.6569 393.99-15.2236 394.978-13.7904 396.217-12.7154 397.709-11.9988 399.2-11.2821 400.934-10.9238 402.909-10.9238 404.924-10.9238 406.657-11.224 408.11-11.8245 409.562-12.4249 410.831-13.0931 411.916-13.8291 413-14.5651 413.911-15.2333 414.647-15.8337 415.383-16.4342 416.002-16.7344 416.506-16.7344 416.855-16.7344 417.145-16.6375 417.378-16.4438 417.61-16.2502 417.794-15.8918 417.93-15.3689 418.065-14.8459 418.172-14.1777 418.249-13.3643 418.327-12.5508 418.365-11.5049 418.365-10.2266ZM468.209-10.2266C468.209-9.2194 468.18-8.37687 468.122-7.69897 468.064-7.02108 467.986-6.44971 467.89-5.98486 467.793-5.52002 467.676-5.14233 467.541-4.85181 467.405-4.56128 467.105-4.19328 466.64-3.7478 466.175-3.30233 465.381-2.76001 464.258-2.12085 463.135-1.48169 461.856-0.910319 460.423-0.406738 458.99 0.0968424 457.431 0.503581 455.745 0.813477 454.06 1.12337 452.327 1.27832 450.545 1.27832 446.555 1.27832 443.02 0.658529 439.941-0.581055 436.861-1.82064 434.276-3.65096 432.184-6.07202 430.092-8.49308 428.513-11.4468 427.448-14.9331 426.383-18.4194 425.85-22.4093 425.85-26.9028 425.85-32.0936 426.499-36.5774 427.797-40.3542 429.094-44.1311 430.905-47.2591 433.23-49.7383 435.554-52.2174 438.304-54.0574 441.481-55.2583 444.657-56.4591 448.143-57.0596 451.94-57.0596 453.489-57.0596 455.009-56.924 456.501-56.6528 457.992-56.3817 459.387-56.0137 460.684-55.5488 461.982-55.084 463.144-54.561 464.171-53.98 465.197-53.3989 465.924-52.8953 466.35-52.4692 466.776-52.0431 467.076-51.6848 467.25-51.3943 467.425-51.1038 467.56-50.7261 467.657-50.2612 467.754-49.7964 467.831-49.225 467.89-48.5471 467.948-47.8692 467.977-47.0461 467.977-46.0776 467.977-43.8309 467.783-42.2524 467.396-41.342 467.008-40.4317 466.505-39.9766 465.885-39.9766 465.226-39.9766 464.529-40.2477 463.793-40.79 463.057-41.3324 462.185-41.9328 461.178-42.5913 460.171-43.2498 458.97-43.8503 457.576-44.3926 456.181-44.9349 454.516-45.206 452.579-45.2061 448.783-45.206 445.877-43.7437 443.863-40.8191 441.849-37.8944 440.841-33.6043 440.841-27.9487 440.841-25.1597 441.093-22.6999 441.597-20.5693 442.1-18.4388 442.846-16.6569 443.834-15.2236 444.822-13.7904 446.061-12.7154 447.553-11.9988 449.044-11.2821 450.777-10.9238 452.753-10.9238 454.767-10.9238 456.501-11.224 457.953-11.8245 459.406-12.4249 460.675-13.0931 461.759-13.8291 462.844-14.5651 463.754-15.2333 464.49-15.8337 465.226-16.4342 465.846-16.7344 466.35-16.7344 466.698-16.7344 466.989-16.6375 467.221-16.4438 467.454-16.2502 467.638-15.8918 467.773-15.3689 467.909-14.8459 468.015-14.1777 468.093-13.3643 468.17-12.5508 468.209-11.5049 468.209-10.2266ZM493.474-1.97559C493.474-1.58822 493.358-1.24927 493.126-0.95874 492.893-0.668213 492.496-0.426107 491.934-0.232422 491.373-0.038737 490.627 0.106527 489.697 0.203369 488.768 0.300212 487.586 0.348633 486.153 0.348633 484.72 0.348633 483.538 0.300212 482.609 0.203369 481.679 0.106527 480.933-0.038737 480.371-0.232422 479.81-0.426107 479.413-0.668213 479.18-0.95874 478.948-1.24927 478.832-1.58822 478.832-1.97559L478.832-53.6894C478.832-54.0768 478.948-54.4158 479.18-54.7063 479.413-54.9968 479.81-55.2486 480.371-55.4617 480.933-55.6747 481.679-55.8394 482.609-55.9556 483.538-56.0718 484.72-56.1299 486.153-56.1299 487.586-56.1299 488.768-56.0718 489.697-55.9556 490.627-55.8394 491.373-55.6747 491.934-55.4617 492.496-55.2486 492.893-54.9968 493.126-54.7063 493.358-54.4158 493.474-54.0768 493.474-53.6894ZM494.578-71.3535C494.578-68.4095 493.978-66.3758 492.777-65.2524 491.576-64.1291 489.349-63.5674 486.095-63.5674 482.802-63.5674 480.585-64.1097 479.442-65.1943 478.299-66.279 477.728-68.2352 477.728-71.063 477.728-74.007 478.318-76.0504 479.5-77.1931 480.681-78.3358 482.918-78.9072 486.211-78.9072 489.465-78.9072 491.673-78.3552 492.835-77.2512 493.997-76.1472 494.578-74.1813 494.578-71.3535ZM560.462-28.4136C560.462-23.9976 559.88-19.9689 558.718-16.3276 557.556-12.6864 555.794-9.54866 553.431-6.91455 551.068-4.28044 548.104-2.24674 544.541-0.813477 540.977 0.619792 536.813 1.33643 532.048 1.33643 527.438 1.33643 523.429 0.697266 520.02-0.581055 516.611-1.85937 513.783-3.71875 511.537-6.15918 509.29-8.59961 507.624-11.6017 506.54-15.1655 505.455-18.7293 504.913-22.7967 504.913-27.3677 504.913-31.7837 505.503-35.822 506.685-39.4827 507.866-43.1433 509.639-46.281 512.002-48.8957 514.365-51.5105 517.318-53.5345 520.863-54.9678 524.407-56.401 528.562-57.1177 533.326-57.1177 537.975-57.1177 542.003-56.4882 545.412-55.2292 548.821-53.9703 551.639-52.1206 553.867-49.6802 556.094-47.2397 557.75-44.2376 558.835-40.6738 559.919-37.11 560.462-33.0233 560.462-28.4136ZM545.412-27.8325C545.412-30.3892 545.209-32.7424 544.802-34.8923 544.395-37.0422 543.708-38.9113 542.739-40.4995 541.771-42.0877 540.483-43.3273 538.875-44.2183 537.268-45.1092 535.244-45.5547 532.803-45.5547 530.634-45.5547 528.736-45.1576 527.109-44.3635 525.482-43.5694 524.146-42.4073 523.1-40.8772 522.054-39.3471 521.269-37.5071 520.746-35.3572 520.224-33.2073 519.962-30.7572 519.962-28.0068 519.962-25.4502 520.175-23.0969 520.601-20.947 521.027-18.7971 521.715-16.9281 522.664-15.3398 523.613-13.7516 524.901-12.5217 526.528-11.6501 528.155-10.7786 530.169-10.3428 532.571-10.3428 534.779-10.3428 536.696-10.7398 538.323-11.5339 539.95-12.328 541.287-13.4805 542.333-14.9912 543.379-16.502 544.153-18.3323 544.657-20.4822 545.16-22.6321 545.412-25.0822 545.412-27.8325ZM535.534-79.2559C535.805-79.682 536.135-80.05 536.522-80.3599 536.909-80.6697 537.394-80.9118 537.975-81.0862 538.556-81.2605 539.292-81.3864 540.183-81.4639 541.074-81.5413 542.158-81.5801 543.437-81.5801 545.219-81.5801 546.623-81.5026 547.649-81.3476 548.676-81.1927 549.412-80.97 549.857-80.6794 550.303-80.3889 550.506-80.05 550.467-79.6626 550.429-79.2752 550.235-78.8685 549.886-78.4424L538.614-64.9619C538.304-64.5745 537.994-64.255 537.684-64.0032 537.374-63.7514 536.977-63.548 536.493-63.3931 536.009-63.2381 535.399-63.1219 534.663-63.0444 533.927-62.967 532.997-62.9282 531.874-62.9282 530.518-62.9282 529.443-62.9863 528.649-63.1025 527.855-63.2187 527.303-63.4027 526.993-63.6545 526.683-63.9063 526.557-64.2259 526.615-64.6133 526.673-65.0006 526.877-65.4461 527.225-65.9497ZM621.723-1.97559C621.723-1.58822 621.607-1.24927 621.374-0.95874 621.142-0.668213 620.755-0.426107 620.212-0.232422 619.67-0.038737 618.924 0.106527 617.975 0.203369 617.026 0.300212 615.854 0.348633 614.46 0.348633 613.026 0.348633 611.835 0.300212 610.886 0.203369 609.937 0.106527 609.192-0.038737 608.649-0.232422 608.107-0.426107 607.72-0.668213 607.487-0.95874 607.255-1.24927 607.138-1.58822 607.138-1.97559L607.138-31.5513C607.138-34.0692 606.954-36.0448 606.586-37.478 606.219-38.9113 605.686-40.1412 604.989-41.1677 604.291-42.1943 603.391-42.9884 602.287-43.55 601.183-44.1117 599.895-44.3926 598.423-44.3926 596.563-44.3926 594.685-43.7147 592.786-42.3589 590.888-41.0031 588.913-39.0275 586.86-36.4321L586.86-1.97559C586.86-1.58822 586.743-1.24927 586.511-0.95874 586.279-0.668213 585.882-0.426107 585.32-0.232422 584.758-0.038737 584.013 0.106527 583.083 0.203369 582.153 0.300212 580.972 0.348633 579.538 0.348633 578.105 0.348633 576.924 0.300212 575.994 0.203369 575.064 0.106527 574.319-0.038737 573.757-0.232422 573.195-0.426107 572.798-0.668213 572.566-0.95874 572.333-1.24927 572.217-1.58822 572.217-1.97559L572.217-53.8057C572.217-54.193 572.314-54.532 572.508-54.8225 572.701-55.113 573.05-55.3551 573.554-55.5488 574.057-55.7425 574.706-55.8878 575.5-55.9846 576.294-56.0815 577.292-56.1299 578.492-56.1299 579.732-56.1299 580.759-56.0815 581.572-55.9846 582.385-55.8878 583.015-55.7425 583.461-55.5488 583.906-55.3551 584.226-55.113 584.419-54.8225 584.613-54.532 584.71-54.193 584.71-53.8057L584.71-47.8208C587.576-50.9198 590.491-53.244 593.455-54.7935 596.418-56.3429 599.507-57.1177 602.722-57.1177 606.248-57.1177 609.221-56.5366 611.642-55.3745 614.063-54.2124 616.019-52.6339 617.51-50.6389 619.002-48.644 620.077-46.3101 620.735-43.6372 621.394-40.9643 621.723-37.7492 621.723-33.9917Z" fill="#FFFFFF" fill-rule="nonzero" fill-opacity="1" transform="matrix(1 0 0 1 79.8713 156)"/></g></g><text fill="#FFFFFF" fill-opacity="1" font-family="Calibri,Calibri_MSFontService,sans-serif" font-style="normal" font-variant="normal" font-weight="700" font-stretch="normal" font-size="119" text-anchor="start" direction="ltr" writing-mode="lr-tb" unicode-bidi="normal" text-decoration="none" transform="matrix(1 0 0 1 104.158 446)">Introduccin</text><g clip-path="url(#clip26)" filter="url(#fx7)" transform="translate(265 447)"><g clip-path="url(#clip27)"><path d="M41.6426-3.05469C41.6426-2.48568 41.5977-2.00651 41.5078-1.61719 41.418-1.22786 41.2982-0.913411 41.1484-0.673828 40.9987-0.434245 40.8265-0.262044 40.6318-0.157227 40.4372-0.0524089 40.235 0 40.0254 0L9.6582 0C9.44857 0 9.2539-0.0524089 9.07422-0.157227 8.89453-0.262044 8.72233-0.434245 8.55762-0.673828 8.3929-0.913411 8.26562-1.22786 8.17578-1.61719 8.08594-2.00651 8.04101-2.48568 8.04101-3.05469 8.04101-3.59375 8.08594-4.05794 8.17578-4.44727 8.26562-4.83659 8.37793-5.15853 8.51269-5.41309 8.64746-5.66764 8.81217-5.8623 9.00683-5.99707 9.2015-6.13184 9.41862-6.19922 9.6582-6.19922L21.7871-6.19922 21.7871-50.4023 10.5566-43.709C9.98763-43.4095 9.53092-43.2298 9.18652-43.1699 8.84212-43.11 8.5651-43.1774 8.35547-43.3721 8.14583-43.5667 8.00358-43.8887 7.92871-44.3379 7.85384-44.7871 7.81641-45.3561 7.81641-46.0449 7.81641-46.554 7.83887-46.9883 7.88379-47.3477 7.92871-47.707 7.99609-48.0065 8.08594-48.2461 8.17578-48.4857 8.30306-48.6953 8.46777-48.875 8.63249-49.0547 8.84961-49.2344 9.11914-49.4141L22.5059-57.9941C22.6256-58.084 22.7754-58.1588 22.9551-58.2187 23.1348-58.2786 23.3594-58.3385 23.6289-58.3984 23.8984-58.4583 24.2129-58.4958 24.5723-58.5107 24.9316-58.5257 25.3809-58.5332 25.9199-58.5332 26.6387-58.5332 27.2376-58.5033 27.7168-58.4434 28.196-58.3835 28.5703-58.3011 28.8398-58.1963 29.1094-58.0915 29.2891-57.9567 29.3789-57.792 29.4687-57.6273 29.5137-57.4551 29.5137-57.2754L29.5137-6.19922 40.0254-6.19922C40.265-6.19922 40.4896-6.13184 40.6992-5.99707 40.9088-5.8623 41.081-5.66764 41.2158-5.41309 41.3506-5.15853 41.4554-4.83659 41.5303-4.44727 41.6051-4.05794 41.6426-3.59375 41.6426-3.05469ZM64.2402-35.9375C64.2402-34.9792 64.1728-34.1706 64.0381-33.5117 63.9033-32.8529 63.6488-32.3213 63.2744-31.917 62.9001-31.5127 62.4134-31.2282 61.8144-31.0635 61.2155-30.8988 60.4518-30.8164 59.5234-30.8164 58.5651-30.8164 57.7865-30.8988 57.1875-31.0635 56.5885-31.2282 56.1094-31.5127 55.75-31.917 55.3906-32.3213 55.1435-32.8529 55.0088-33.5117 54.874-34.1706 54.8066-34.9792 54.8066-35.9375 54.8066-36.9557 54.874-37.8018 55.0088-38.4756 55.1435-39.1494 55.3906-39.6885 55.75-40.0928 56.1094-40.4971 56.5885-40.7816 57.1875-40.9463 57.7865-41.111 58.5651-41.1934 59.5234-41.1934 60.4518-41.1934 61.2155-41.111 61.8144-40.9463 62.4134-40.7816 62.9001-40.4971 63.2744-40.0928 63.6488-39.6885 63.9033-39.1494 64.0381-38.4756 64.1728-37.8018 64.2402-36.9557 64.2402-35.9375ZM64.2402-4.76172C64.2402-3.77344 64.1728-2.94987 64.0381-2.29102 63.9033-1.63216 63.6488-1.10059 63.2744-0.696289 62.9001-0.291992 62.4134-0.00748697 61.8144 0.157227 61.2155 0.32194 60.4518 0.404297 59.5234 0.404297 58.5651 0.404297 57.7865 0.32194 57.1875 0.157227 56.5885-0.00748697 56.1094-0.291992 55.75-0.696289 55.3906-1.10059 55.1435-1.63216 55.0088-2.29102 54.874-2.94987 54.8066-3.77344 54.8066-4.76172 54.8066-5.75 54.874-6.58105 55.0088-7.25488 55.1435-7.92871 55.3906-8.46029 55.75-8.84961 56.1094-9.23893 56.5885-9.52344 57.1875-9.70312 57.7865-9.88281 58.5651-9.97266 59.5234-9.97266 60.4518-9.97266 61.2155-9.88281 61.8144-9.70312 62.4134-9.52344 62.9001-9.23893 63.2744-8.84961 63.6488-8.46029 63.9033-7.92871 64.0381-7.25488 64.1728-6.58105 64.2402-5.75 64.2402-4.76172ZM112.684-3.05469C112.684-2.48568 112.639-2.00651 112.549-1.61719 112.46-1.22786 112.34-0.913411 112.19-0.673828 112.04-0.434245 111.868-0.262044 111.673-0.157227 111.479-0.0524089 111.277 0 111.067 0L80.6999 0C80.4902 0 80.2956-0.0524089 80.1159-0.157227 79.9362-0.262044 79.764-0.434245 79.5993-0.673828 79.4346-0.913411 79.3073-1.22786 79.2174-1.61719 79.1276-2.00651 79.0827-2.48568 79.0827-3.05469 79.0827-3.59375 79.1276-4.05794 79.2174-4.44727 79.3073-4.83659 79.4196-5.15853 79.5544-5.41309 79.6891-5.66764 79.8538-5.8623 80.0485-5.99707 80.2432-6.13184 80.4603-6.19922 80.6999-6.19922L92.8288-6.19922 92.8288-50.4023 81.5983-43.709C81.0293-43.4095 80.5726-43.2298 80.2282-43.1699 79.8838-43.11 79.6068-43.1774 79.3971-43.3721 79.1875-43.5667 79.0452-43.8887 78.9704-44.3379 78.8955-44.7871 78.8581-45.3561 78.8581-46.0449 78.8581-46.554 78.8805-46.9883 78.9255-47.3477 78.9704-47.707 79.0378-48.0065 79.1276-48.2461 79.2174-48.4857 79.3447-48.6953 79.5094-48.875 79.6741-49.0547 79.8913-49.2344 80.1608-49.4141L93.5475-57.9941C93.6673-58.084 93.817-58.1588 93.9967-58.2187 94.1764-58.2786 94.401-58.3385 94.6706-58.3984 94.9401-58.4583 95.2545-58.4958 95.6139-58.5107 95.9733-58.5257 96.4225-58.5332 96.9616-58.5332 97.6803-58.5332 98.2793-58.5033 98.7585-58.4434 99.2376-58.3835 99.612-58.3011 99.8815-58.1963 100.151-58.0915 100.331-57.9567 100.421-57.792 100.51-57.6273 100.555-57.4551 100.555-57.2754L100.555-6.19922 111.067-6.19922C111.307-6.19922 111.531-6.13184 111.741-5.99707 111.951-5.8623 112.123-5.66764 112.257-5.41309 112.392-5.15853 112.497-4.83659 112.572-4.44727 112.647-4.05794 112.684-3.59375 112.684-3.05469Z" fill="#FFFFFF" fill-rule="nonzero" fill-opacity="1" transform="matrix(1 0 0 1 61.7025 120)"/></g></g><text fill="#FFFFFF" fill-opacity="1" font-family="Calibri,Calibri_MSFontService,sans-serif" font-style="normal" font-variant="normal" font-weight="400" font-stretch="normal" font-size="92" text-anchor="start" direction="ltr" writing-mode="lr-tb" unicode-bidi="normal" text-decoration="none" transform="matrix(1 0 0 1 322.737 563)">1:1</text><g clip-path="url(#clip28)" filter="url(#fx8)" transform="translate(382 447)"><g clip-path="url(#clip29)"><path d="M25.0664-22.6855C25.0664-21.5176 24.9316-20.709 24.6621-20.2598 24.3926-19.8105 24.0033-19.5859 23.4941-19.5859L4.7168-19.5859C4.17773-19.5859 3.77344-19.818 3.50391-20.2822 3.23437-20.7464 3.09961-21.5475 3.09961-22.6855 3.09961-23.8236 3.23437-24.6172 3.50391-25.0664 3.77344-25.5156 4.17773-25.7402 4.7168-25.7402L23.4941-25.7402C23.7337-25.7402 23.9508-25.6953 24.1455-25.6055 24.3402-25.5156 24.5049-25.3434 24.6396-25.0889 24.7744-24.8343 24.8792-24.5124 24.9541-24.123 25.029-23.7337 25.0664-23.2546 25.0664-22.6855Z" fill="#FFFFFF" fill-rule="nonzero" fill-opacity="1" transform="matrix(1 0 0 1 62.1504 120)"/></g></g><text fill="#FFFFFF" fill-opacity="1" font-family="Calibri,Calibri_MSFontService,sans-serif" font-style="normal" font-variant="normal" font-weight="400" font-stretch="normal" font-size="92" text-anchor="start" direction="ltr" writing-mode="lr-tb" unicode-bidi="normal" text-decoration="none" transform="matrix(1 0 0 1 440.185 563)">-</text><g clip-path="url(#clip30)" filter="url(#fx9)" transform="translate(410 447)"><g clip-path="url(#clip31)"><path d="M41.5078-3.32422C41.5078-2.78516 41.4704-2.30599 41.3955-1.88672 41.3206-1.46745 41.2158-1.11556 41.0811-0.831055 40.9463-0.546549 40.7666-0.336914 40.542-0.202148 40.3174-0.0673828 40.0703 0 39.8008 0L7.68164 0C7.26237 0 6.89551-0.0524089 6.58105-0.157227 6.2666-0.262044 5.99707-0.434245 5.77246-0.673828 5.54785-0.913411 5.38314-1.25781 5.27832-1.70703 5.1735-2.15625 5.12109-2.71029 5.12109-3.36914 5.12109-3.9681 5.14426-4.49219 5.19058-4.94141 5.23691-5.39062 5.33716-5.78743 5.49135-6.13184 5.64553-6.47624 5.83844-6.82064 6.07007-7.16504 6.3017-7.50944 6.60258-7.8763 6.97272-8.26562L18.5913-20.2148C21.2764-22.97 23.429-25.4408 25.0492-27.627 26.6694-29.8131 27.9193-31.8047 28.7988-33.6016 29.6783-35.3984 30.2569-37.0306 30.5346-38.498 30.8123-39.9655 30.9512-41.3431 30.9512-42.6309 30.9512-43.9186 30.7349-45.139 30.3023-46.292 29.8697-47.445 29.2439-48.4557 28.425-49.3242 27.6061-50.1927 26.5787-50.8815 25.3426-51.3906 24.1065-51.8997 22.6851-52.1543 21.0782-52.1543 19.1933-52.1543 17.5015-51.8997 16.0027-51.3906 14.5039-50.8815 13.1905-50.3275 12.0626-49.7285 10.9346-49.1296 9.99219-48.5755 9.2353-48.0664 8.47842-47.5573 7.91444-47.3027 7.54337-47.3027 7.32718-47.3027 7.13404-47.3626 6.96394-47.4824 6.79385-47.6022 6.65475-47.7969 6.54666-48.0664 6.43857-48.3359 6.35364-48.6953 6.29187-49.1445 6.2301-49.5937 6.19922-50.1328 6.19922-50.7617 6.19922-51.2109 6.21419-51.6003 6.24414-51.9297 6.27409-52.2591 6.3265-52.5436 6.40137-52.7832 6.47624-53.0228 6.57357-53.2474 6.69336-53.457 6.81315-53.6667 7.05273-53.9287 7.41211-54.2432 7.77148-54.5576 8.3929-54.9844 9.27637-55.5234 10.1598-56.0625 11.2679-56.5941 12.6006-57.1182 13.9333-57.6422 15.4007-58.084 17.0029-58.4434 18.6051-58.8027 20.2897-58.9824 22.0566-58.9824 24.8717-58.9824 27.335-58.5856 29.4463-57.792 31.5576-56.9984 33.3096-55.9128 34.7021-54.5352 36.0947-53.1575 37.1354-51.5553 37.8242-49.7285 38.513-47.9017 38.8574-45.9551 38.8574-43.8887 38.8574-42.0319 38.6927-40.1826 38.3633-38.3408 38.0339-36.499 37.3376-34.5075 36.2744-32.3662 35.2113-30.2249 33.6764-27.8441 31.6699-25.2236 29.6634-22.6032 26.998-19.5859 23.6738-16.1719L14.4648-6.55859 39.7559-6.55859C39.9954-6.55859 40.2275-6.49121 40.4521-6.35644 40.6768-6.22168 40.8714-6.01953 41.0361-5.75 41.2008-5.48047 41.3206-5.14355 41.3955-4.73926 41.4704-4.33496 41.5078-3.86328 41.5078-3.32422Z" fill="#FFFFFF" fill-rule="nonzero" fill-opacity="1" transform="matrix(1 0 0 1 62.2233 120)"/></g></g><text fill="#FFFFFF" fill-opacity="1" font-family="Calibri,Calibri_MSFontService,sans-serif" font-style="normal" font-variant="normal" font-weight="400" font-stretch="normal" font-size="92" text-anchor="start" direction="ltr" writing-mode="lr-tb" unicode-bidi="normal" text-decoration="none" transform="matrix(1 0 0 1 468.258 563)">2</text></g></svg>