<svg width="944" height="247" xmlns="http://www.w3.org/2000/svg" xmlns:xlink="http://www.w3.org/1999/xlink" xml:space="preserve" overflow="hidden"><defs><clipPath id="clip0"><rect x="1732" y="1879" width="944" height="247"/></clipPath></defs><g clip-path="url(#clip0)" transform="translate(-1732 -1879)"><rect x="0" y="95.9728" width="812.028" height="120.027" fill="#FFC000" fill-opacity="1" transform="matrix(1 0 0 -1 1760.5 2120.5)"/><path d="M812.028 95.9728 908 0 908 120.027 812.028 216Z" fill="#CD9A00" fill-rule="evenodd" fill-opacity="1" transform="matrix(1 0 0 -1 1760.5 2120.5)"/><path d="M0 95.9728 95.9726 0 908 0 812.028 95.9728Z" fill="#FFCC32" fill-rule="evenodd" fill-opacity="1" transform="matrix(1 0 0 -1 1760.5 2120.5)"/><path d="M0 95.9728 95.9726 0 908 0 908 120.027 812.028 216 0 216ZM0 95.9728 812.028 95.9728 908 0M812.028 95.9728 812.028 216" stroke="#000000" stroke-width="9.16667" stroke-linecap="butt" stroke-linejoin="miter" stroke-miterlimit="8" stroke-opacity="1" fill="none" fill-rule="evenodd" transform="matrix(1 0 0 -1 1760.5 2120.5)"/><text fill="#000000" fill-opacity="1" font-family="Times New Roman,Times New Roman_MSFontService,sans-serif" font-style="normal" font-variant="normal" font-weight="700" font-stretch="normal" font-size="92" text-anchor="start" direction="ltr" writing-mode="lr-tb" unicode-bidi="normal" text-decoration="none" transform="matrix(1 0 0 1 1792.73 1998)">Ezequiel</text><text fill="#000000" fill-opacity="1" font-family="Times New Roman,Times New Roman_MSFontService,sans-serif" font-style="normal" font-variant="normal" font-weight="700" font-stretch="normal" font-size="92" text-anchor="start" direction="ltr" writing-mode="lr-tb" unicode-bidi="normal" text-decoration="none" transform="matrix(1 0 0 1 2151.37 1998)">(593</text><text fill="#000000" fill-opacity="1" font-family="Times New Roman,Times New Roman_MSFontService,sans-serif" font-style="normal" font-variant="normal" font-weight="700" font-stretch="normal" font-size="92" text-anchor="start" direction="ltr" writing-mode="lr-tb" unicode-bidi="normal" text-decoration="none" transform="matrix(1 0 0 1 2319.24 1998)">-</text><text fill="#000000" fill-opacity="1" font-family="Times New Roman,Times New Roman_MSFontService,sans-serif" font-style="normal" font-variant="normal" font-weight="700" font-stretch="normal" font-size="92" text-anchor="start" direction="ltr" writing-mode="lr-tb" unicode-bidi="normal" text-decoration="none" transform="matrix(1 0 0 1 2349.6 1998)">560)</text></g></svg>