<?xml version="1.0" encoding="UTF-8" standalone="no"?>
<!-- Created with Inkscape (http://www.inkscape.org/) -->

<svg
   width="1343.9664"
   height="1007.9747"
   version="1.1"
   viewBox="0 0 959.97602 719.98191"
   id="svg466"
   sodipodi:docname="plan-reconciliatorio.svg"
   inkscape:version="1.2.2 (732a01da63, 2022-12-09)"
   xmlns:inkscape="http://www.inkscape.org/namespaces/inkscape"
   xmlns:sodipodi="http://sodipodi.sourceforge.net/DTD/sodipodi-0.dtd"
   xmlns="http://www.w3.org/2000/svg"
   xmlns:svg="http://www.w3.org/2000/svg">
  <sodipodi:namedview
     id="namedview468"
     pagecolor="#505050"
     bordercolor="#eeeeee"
     borderopacity="1"
     inkscape:showpageshadow="0"
     inkscape:pageopacity="0"
     inkscape:pagecheckerboard="0"
     inkscape:deskcolor="#505050"
     showgrid="false"
     inkscape:zoom="0.7994235"
     inkscape:cx="370.89227"
     inkscape:cy="487.22611"
     inkscape:window-width="1920"
     inkscape:window-height="1001"
     inkscape:window-x="-9"
     inkscape:window-y="-9"
     inkscape:window-maximized="1"
     inkscape:current-layer="g464" />
  <defs
     id="defs128">
    <clipPath
       id="clipPath15704">
      <path
         d="M 0,1.2207e-4 H 720 V 540.00012 H 0 Z"
         clip-rule="evenodd"
         id="path2" />
    </clipPath>
    <clipPath
       id="clipPath15714">
      <path
         d="M 1.0729e-5,0 H 720.00001 V 540 H 1.0729e-5 Z"
         clip-rule="evenodd"
         id="path5" />
    </clipPath>
    <clipPath
       id="clipPath15726">
      <path
         d="M 1.0729e-5,0 H 720.00001 V 540 H 1.0729e-5 Z"
         clip-rule="evenodd"
         id="path8" />
    </clipPath>
    <clipPath
       id="clipPath15738">
      <path
         d="M 1.0729e-5,0 H 720.00001 V 540 H 1.0729e-5 Z"
         clip-rule="evenodd"
         id="path11" />
    </clipPath>
    <clipPath
       id="clipPath15750">
      <path
         d="M 1.0729e-5,0 H 720.00001 V 540 H 1.0729e-5 Z"
         clip-rule="evenodd"
         id="path14" />
    </clipPath>
    <clipPath
       id="clipPath15762">
      <path
         d="M 1.0729e-5,0 H 720.00001 V 540 H 1.0729e-5 Z"
         clip-rule="evenodd"
         id="path17" />
    </clipPath>
    <clipPath
       id="clipPath15774">
      <path
         d="M 1.0729e-5,0 H 720.00001 V 540 H 1.0729e-5 Z"
         clip-rule="evenodd"
         id="path20" />
    </clipPath>
    <clipPath
       id="clipPath15786">
      <path
         d="M 1.0729e-5,0 H 720.00001 V 540 H 1.0729e-5 Z"
         clip-rule="evenodd"
         id="path23" />
    </clipPath>
    <clipPath
       id="clipPath15798">
      <path
         d="M 1.0729e-5,0 H 720.00001 V 540 H 1.0729e-5 Z"
         clip-rule="evenodd"
         id="path26" />
    </clipPath>
    <clipPath
       id="clipPath15810">
      <path
         d="M 1.0729e-5,0 H 720.00001 V 540 H 1.0729e-5 Z"
         clip-rule="evenodd"
         id="path29" />
    </clipPath>
    <clipPath
       id="clipPath15822">
      <path
         d="M 1.0729e-5,0 H 720.00001 V 540 H 1.0729e-5 Z"
         clip-rule="evenodd"
         id="path32" />
    </clipPath>
    <clipPath
       id="clipPath15834">
      <path
         d="M 1.0729e-5,0 H 720.00001 V 540 H 1.0729e-5 Z"
         clip-rule="evenodd"
         id="path35" />
    </clipPath>
    <clipPath
       id="clipPath15846">
      <path
         d="M 1.0729e-5,0 H 720.00001 V 540 H 1.0729e-5 Z"
         clip-rule="evenodd"
         id="path38" />
    </clipPath>
    <clipPath
       id="clipPath15858">
      <path
         d="M 1.0729e-5,0 H 720.00001 V 540 H 1.0729e-5 Z"
         clip-rule="evenodd"
         id="path41" />
    </clipPath>
    <clipPath
       id="clipPath15870">
      <path
         d="M 1.0729e-5,0 H 720.00001 V 540 H 1.0729e-5 Z"
         clip-rule="evenodd"
         id="path44" />
    </clipPath>
    <clipPath
       id="clipPath15882">
      <path
         d="M 1.0729e-5,0 H 720.00001 V 540 H 1.0729e-5 Z"
         clip-rule="evenodd"
         id="path47" />
    </clipPath>
    <clipPath
       id="clipPath15894">
      <path
         d="M 1.0729e-5,0 H 720.00001 V 540 H 1.0729e-5 Z"
         clip-rule="evenodd"
         id="path50" />
    </clipPath>
    <clipPath
       id="clipPath15906">
      <path
         d="M 1.0729e-5,0 H 720.00001 V 540 H 1.0729e-5 Z"
         clip-rule="evenodd"
         id="path53" />
    </clipPath>
    <clipPath
       id="clipPath15918">
      <path
         d="M 1.0729e-5,0 H 720.00001 V 540 H 1.0729e-5 Z"
         clip-rule="evenodd"
         id="path56" />
    </clipPath>
    <clipPath
       id="clipPath15930">
      <path
         d="M 1.0729e-5,0 H 720.00001 V 540 H 1.0729e-5 Z"
         clip-rule="evenodd"
         id="path59" />
    </clipPath>
    <clipPath
       id="clipPath15942">
      <path
         d="M 1.0729e-5,0 H 720.00001 V 540 H 1.0729e-5 Z"
         clip-rule="evenodd"
         id="path62" />
    </clipPath>
    <clipPath
       id="clipPath15954">
      <path
         d="M 1.0729e-5,0 H 720.00001 V 540 H 1.0729e-5 Z"
         clip-rule="evenodd"
         id="path65" />
    </clipPath>
    <clipPath
       id="clipPath15966">
      <path
         d="M 1.0729e-5,0 H 720.00001 V 540 H 1.0729e-5 Z"
         clip-rule="evenodd"
         id="path68" />
    </clipPath>
    <clipPath
       id="clipPath15978">
      <path
         d="M 1.0729e-5,0 H 720.00001 V 540 H 1.0729e-5 Z"
         clip-rule="evenodd"
         id="path71" />
    </clipPath>
    <clipPath
       id="clipPath15990">
      <path
         d="M 1.0729e-5,0 H 720.00001 V 540 H 1.0729e-5 Z"
         clip-rule="evenodd"
         id="path74" />
    </clipPath>
    <clipPath
       id="clipPath16002">
      <path
         d="M 1.0729e-5,0 H 720.00001 V 540 H 1.0729e-5 Z"
         clip-rule="evenodd"
         id="path77" />
    </clipPath>
    <clipPath
       id="clipPath16014">
      <path
         d="M 1.0729e-5,0 H 720.00001 V 540 H 1.0729e-5 Z"
         clip-rule="evenodd"
         id="path80" />
    </clipPath>
    <clipPath
       id="clipPath16026">
      <path
         d="M 1.0729e-5,0 H 720.00001 V 540 H 1.0729e-5 Z"
         clip-rule="evenodd"
         id="path83" />
    </clipPath>
    <clipPath
       id="clipPath16038">
      <path
         d="M 1.0729e-5,0 H 720.00001 V 540 H 1.0729e-5 Z"
         clip-rule="evenodd"
         id="path86" />
    </clipPath>
    <clipPath
       id="clipPath16050">
      <path
         d="M 1.0729e-5,0 H 720.00001 V 540 H 1.0729e-5 Z"
         clip-rule="evenodd"
         id="path89" />
    </clipPath>
    <clipPath
       id="clipPath16062">
      <path
         d="M 1.0729e-5,0 H 720.00001 V 540 H 1.0729e-5 Z"
         clip-rule="evenodd"
         id="path92" />
    </clipPath>
    <clipPath
       id="clipPath16074">
      <path
         d="M 1.0729e-5,0 H 720.00001 V 540 H 1.0729e-5 Z"
         clip-rule="evenodd"
         id="path95" />
    </clipPath>
    <clipPath
       id="clipPath16086">
      <path
         d="M 1.0729e-5,0 H 720.00001 V 540 H 1.0729e-5 Z"
         clip-rule="evenodd"
         id="path98" />
    </clipPath>
    <clipPath
       id="clipPath16098">
      <path
         d="M 1.0729e-5,0 H 720.00001 V 540 H 1.0729e-5 Z"
         clip-rule="evenodd"
         id="path101" />
    </clipPath>
    <clipPath
       id="clipPath16110">
      <path
         d="M 1.0729e-5,0 H 720.00001 V 540 H 1.0729e-5 Z"
         clip-rule="evenodd"
         id="path104" />
    </clipPath>
    <clipPath
       id="clipPath16122">
      <path
         d="M 1.0729e-5,0 H 720.00001 V 540 H 1.0729e-5 Z"
         clip-rule="evenodd"
         id="path107" />
    </clipPath>
    <clipPath
       id="clipPath16134">
      <path
         d="M 1.0729e-5,0 H 720.00001 V 540 H 1.0729e-5 Z"
         clip-rule="evenodd"
         id="path110" />
    </clipPath>
    <clipPath
       id="clipPath16146">
      <path
         d="M 1.0729e-5,0 H 720.00001 V 540 H 1.0729e-5 Z"
         clip-rule="evenodd"
         id="path113" />
    </clipPath>
    <clipPath
       id="clipPath16158">
      <path
         d="M 1.0729e-5,0 H 720.00001 V 540 H 1.0729e-5 Z"
         clip-rule="evenodd"
         id="path116" />
    </clipPath>
    <clipPath
       id="clipPath16170">
      <path
         d="M 1.0729e-5,0 H 720.00001 V 540 H 1.0729e-5 Z"
         clip-rule="evenodd"
         id="path119" />
    </clipPath>
    <clipPath
       id="clipPath16182">
      <path
         d="M 1.0729e-5,0 H 720.00001 V 540 H 1.0729e-5 Z"
         clip-rule="evenodd"
         id="path122" />
    </clipPath>
    <clipPath
       id="clipPath16194">
      <path
         d="M 1.0729e-5,0 H 720.00001 V 540 H 1.0729e-5 Z"
         clip-rule="evenodd"
         id="path125" />
    </clipPath>
  </defs>
  <g
     transform="matrix(1.3333,0,0,-1.3333,0,719.98208)"
     id="g464"
     style="display:inline"
     inkscape:label="g464">
    <g
       id="g134"
       style="display:inline"
       sodipodi:insensitive="true">
      <g
         clip-path="url(#clipPath15704)"
         id="g132">
        <path
           d="M 0,6.1035e-5 H 720 V 540.00006 H 0 Z"
           fill-rule="evenodd"
           id="path130" />
      </g>
    </g>
    <g
       id="g142">
      <g
         clip-path="url(#clipPath15714)"
         id="g140">
        <text
           transform="matrix(1,0,0,-1,36.6,459.55)"
           fill="#ffff00"
           font-family="'Times New Roman'"
           font-size="54.024px"
           font-weight="bold"
           xml:space="preserve"
           id="text138"><tspan
             x="0 33.008663 48.027336 75.039337 105.07668 118.58268 157.58801 181.57466 205.56133 232.57332 262.61066 286.59732 301.616 316.4726 331.49127 358.50327 376.49326 403.50525 427.49191 442.51059 469.52258 483.02859 513.06592 537.05261 550.55859 589.5639 604.58258 631.5946"
             y="0"
             id="tspan136">Plan Reconciliatorio de Dios</tspan></text>
      </g>
    </g>
    <g
       id="g2055"
       inkscape:label="ap1"
       class="fragment"
       data-fragment-index="1"
       style="display:inline">
      <g
         id="g150">
        <g
           clip-path="url(#clipPath15726)"
           id="g148">
          <text
             transform="matrix(1,0,0,-1,31.2,397.73)"
             fill="#ffff00"
             font-family="Wingdings"
             font-size="32.04px"
             xml:space="preserve"
             id="text146"><tspan
               x="0"
               y="0"
               id="tspan144">✓</tspan></text>
        </g>
      </g>
      <g
         id="g158">
        <g
           clip-path="url(#clipPath15738)"
           id="g156">
          <text
             transform="matrix(1,0,0,-1,76.224,397.73)"
             fill="#ffff00"
             font-family="Calibri"
             font-size="32.04px"
             font-weight="bold"
             xml:space="preserve"
             id="text154"><tspan
               x="0 20.1852 28.067039 45.304562"
               y="0"
               id="tspan152">Dios</tspan></text>
        </g>
      </g>
      <g
         id="g166">
        <g
           clip-path="url(#clipPath15750)"
           id="g164">
          <text
             transform="matrix(1,0,0,-1,141.5,397.73)"
             fill="#ffff00"
             font-family="Calibri"
             font-size="32.04px"
             xml:space="preserve"
             id="text162"><tspan
               x="0"
               y="0"
               id="tspan160">–</tspan></text>
        </g>
      </g>
      <g
         id="g174">
        <g
           clip-path="url(#clipPath15762)"
           id="g172">
          <text
             transform="matrix(1,0,0,-1,164.66,397.73)"
             fill="#ffff00"
             font-family="Calibri"
             font-size="32.04px"
             xml:space="preserve"
             id="text170"><tspan
               x="0 13.4568 28.803961 36.2052 50.91156 67.732559 83.688477 100.2852 110.60208 126.558"
               y="0"
               id="tspan168">La Fuente </tspan></text>
        </g>
      </g>
      <g
         id="g182">
        <g
           clip-path="url(#clipPath15774)"
           id="g180">
          <text
             transform="matrix(1,0,0,-1,298.49,397.73)"
             fill="#ffff00"
             font-family="Calibri"
             font-size="32.04px"
             xml:space="preserve"
             id="text178"><tspan
               x="0"
               y="0"
               id="tspan176">–</tspan></text>
        </g>
      </g>
      <g
         id="g190">
        <g
           clip-path="url(#clipPath15786)"
           id="g188">
          <text
             transform="matrix(1,0,0,-1,321.77,397.73)"
             fill="#ffff00"
             font-family="Calibri"
             font-size="32.04px"
             font-style="italic"
             xml:space="preserve"
             id="text186"><tspan
               x="0 16.78896 33.225479 58.569118 75.037682 91.506241 107.94276 120.40632 127.55124 143.79552 152.28612 168.5304"
               y="0"
               id="tspan184">Romanos 5:11</tspan></text>
        </g>
      </g>
    </g>
    <g
       id="g2089"
       inkscape:label="ap2"
       class="fragment"
       data-fragment-index="2"
       style="display:inline">
      <g
         id="g198">
        <g
           clip-path="url(#clipPath15798)"
           id="g196">
          <text
             transform="matrix(1,0,0,-1,31.2,320.93)"
             fill="#ffff00"
             font-family="Wingdings"
             font-size="32.064px"
             xml:space="preserve"
             id="text194"><tspan
               x="0"
               y="0"
               id="tspan192">✓</tspan></text>
        </g>
      </g>
      <g
         id="g206">
        <g
           clip-path="url(#clipPath15810)"
           id="g204">
          <text
             transform="matrix(1,0,0,-1,76.224,320.93)"
             fill="#ffff00"
             font-family="Calibri"
             font-size="32.064px"
             font-weight="bold"
             xml:space="preserve"
             id="text202"><tspan
               x="0 17.506945 33.635136 50.757313 66.885506 84.007683 97.410431 105.29818 122.61274"
               y="0"
               id="tspan200">Redención</tspan></text>
        </g>
      </g>
      <g
         id="g214">
        <g
           clip-path="url(#clipPath15822)"
           id="g212">
          <text
             transform="matrix(1,0,0,-1,223.1,320.93)"
             fill="#ffff00"
             font-family="Calibri"
             font-size="32.064px"
             xml:space="preserve"
             id="text210"><tspan
               x="0"
               y="0"
               id="tspan208">–</tspan></text>
        </g>
      </g>
      <g
         id="g222">
        <g
           clip-path="url(#clipPath15834)"
           id="g220">
          <text
             transform="matrix(1,0,0,-1,246.41,320.93)"
             fill="#ffff00"
             font-family="Calibri"
             font-size="32.064px"
             xml:space="preserve"
             id="text218"><tspan
               x="0 15.647232 22.92576 30.172224 51.398594 68.232193 75.895485 91.863358 102.47655 109.85126 124.08768 140.98541"
               y="0"
               id="tspan216">El Objetivo </tspan></text>
        </g>
      </g>
      <g
         id="g230">
        <g
           clip-path="url(#clipPath15846)"
           id="g228">
          <text
             transform="matrix(1,0,0,-1,394.63,320.93)"
             fill="#ffff00"
             font-family="Calibri"
             font-size="32.064px"
             xml:space="preserve"
             id="text226"><tspan
               x="0"
               y="0"
               id="tspan224">–</tspan></text>
        </g>
      </g>
      <g
         id="g238">
        <g
           clip-path="url(#clipPath15858)"
           id="g236">
          <text
             transform="matrix(1,0,0,-1,417.79,320.93)"
             fill="#ffff00"
             font-family="Calibri"
             font-size="32.064px"
             font-style="italic"
             xml:space="preserve"
             id="text234"><tspan
               x="0 16.737408 33.186241 40.560959 57.009792 69.482689 84.80928 101.29018 113.76307 129.08966 141.56256 148.68077 164.93721 173.40211 189.65855"
               y="0"
               id="tspan232">Colosenses 1:13</tspan></text>
        </g>
      </g>
      <g
         id="g246">
        <g
           clip-path="url(#clipPath15870)"
           id="g244">
          <text
             transform="matrix(1,0,0,-1,623.62,320.93)"
             fill="#ffff00"
             font-family="Calibri"
             font-size="32.064px"
             font-style="italic"
             xml:space="preserve"
             id="text242"><tspan
               x="0"
               y="0"
               id="tspan240">-</tspan></text>
        </g>
      </g>
      <g
         id="g254">
        <g
           clip-path="url(#clipPath15882)"
           id="g252">
          <text
             transform="matrix(1,0,0,-1,633.46,320.93)"
             fill="#ffff00"
             font-family="Calibri"
             font-size="32.064px"
             font-style="italic"
             xml:space="preserve"
             id="text250"><tspan
               x="0 16.200048"
               y="0"
               id="tspan248">14</tspan></text>
        </g>
      </g>
    </g>
    <g
       id="g2123"
       inkscape:label="ap3"
       class="fragment"
       data-fragment-index="3">
      <g
         id="g262">
        <g
           clip-path="url(#clipPath15894)"
           id="g260">
          <text
             transform="matrix(1,0,0,-1,31.2,244.1)"
             fill="#ffff00"
             font-family="Wingdings"
             font-size="32.064px"
             xml:space="preserve"
             id="text258"><tspan
               x="0"
               y="0"
               id="tspan256">✓</tspan></text>
        </g>
      </g>
      <g
         id="g270">
        <g
           clip-path="url(#clipPath15906)"
           id="g268">
          <text
             transform="matrix(1,0,0,-1,76.224,244.1)"
             fill="#ffff00"
             font-family="Calibri"
             font-size="32.064px"
             font-weight="bold"
             xml:space="preserve"
             id="text266"><tspan
               x="0 15.647232 30.364609 47.582977 55.470718 71.310333 84.713089 92.60083 109.85126"
               y="0"
               id="tspan264">Expiación</tspan></text>
        </g>
      </g>
      <g
         id="g278">
        <g
           clip-path="url(#clipPath15918)"
           id="g276">
          <text
             transform="matrix(1,0,0,-1,210.26,244.1)"
             fill="#ffff00"
             font-family="Calibri"
             font-size="32.064px"
             xml:space="preserve"
             id="text274"><tspan
               x="0"
               y="0"
               id="tspan272">–</tspan></text>
        </g>
      </g>
      <g
         id="g286">
        <g
           clip-path="url(#clipPath15930)"
           id="g284">
          <text
             transform="matrix(1,0,0,-1,233.45,244.1)"
             fill="#ffff00"
             font-family="Calibri"
             font-size="32.064px"
             xml:space="preserve"
             id="text282"><tspan
               x="0 15.647232 22.92576 30.332544 57.747265 73.715134 90.452545 97.827263 114.72499"
               y="0"
               id="tspan280">El Medio </tspan></text>
        </g>
      </g>
      <g
         id="g294">
        <g
           clip-path="url(#clipPath15942)"
           id="g292">
          <text
             transform="matrix(1,0,0,-1,355.37,244.1)"
             fill="#ffff00"
             font-family="Calibri"
             font-size="32.064px"
             xml:space="preserve"
             id="text290"><tspan
               x="0"
               y="0"
               id="tspan288">–</tspan></text>
        </g>
      </g>
      <g
         id="g302">
        <g
           clip-path="url(#clipPath15954)"
           id="g300">
          <text
             transform="matrix(1,0,0,-1,378.65,244.1)"
             fill="#ffff00"
             font-family="Calibri"
             font-size="32.064px"
             font-style="italic"
             xml:space="preserve"
             id="text298"><tspan
               x="0 16.833599 33.282433 58.645058 75.125954 91.60685 108.05568 120.52858 127.77504 144.03149 152.62463 168.75284"
               y="0"
               id="tspan296">Romanos 3:23</tspan></text>
        </g>
      </g>
      <g
         id="g310">
        <g
           clip-path="url(#clipPath15966)"
           id="g308">
          <text
             transform="matrix(1,0,0,-1,563.38,244.1)"
             fill="#ffff00"
             font-family="Calibri"
             font-size="32.064px"
             font-style="italic"
             xml:space="preserve"
             id="text306"><tspan
               x="0"
               y="0"
               id="tspan304">-</tspan></text>
        </g>
      </g>
      <g
         id="g318">
        <g
           clip-path="url(#clipPath15978)"
           id="g316">
          <text
             transform="matrix(1,0,0,-1,573.22,244.1)"
             fill="#ffff00"
             font-family="Calibri"
             font-size="32.064px"
             font-style="italic"
             xml:space="preserve"
             id="text314"><tspan
               x="0 16.200048"
               y="0"
               id="tspan312">26</tspan></text>
        </g>
      </g>
    </g>
    <g
       id="g2153"
       inkscape:label="ap4"
       style="display:inline"
       class="fragment"
       data-fragment-index="4">
      <g
         id="g334">
        <g
           clip-path="url(#clipPath16002)"
           id="g332">
          <text
             transform="matrix(1,0,0,-1,76.224,167.28)"
             fill="#ffff00"
             font-family="Calibri"
             font-size="32.04px"
             font-weight="bold"
             xml:space="preserve"
             id="text330"><tspan
               x="0 16.94916 28.32336 36.2052 48.732841 59.530319"
               y="0"
               id="tspan328">Cristo</tspan></text>
        </g>
      </g>
      <g
         id="g342">
        <g
           clip-path="url(#clipPath16014)"
           id="g340">
          <text
             transform="matrix(1,0,0,-1,160.22,167.28)"
             fill="#ffff00"
             font-family="Calibri"
             font-size="32.04px"
             xml:space="preserve"
             id="text338"><tspan
               x="0"
               y="0"
               id="tspan336">–</tspan></text>
        </g>
      </g>
      <g
         id="g350">
        <g
           clip-path="url(#clipPath16026)"
           id="g348">
          <text
             transform="matrix(1,0,0,-1,183.38,167.28)"
             fill="#ffff00"
             font-family="Calibri"
             font-size="32.04px"
             xml:space="preserve"
             id="text346"><tspan
               x="0 13.4568 28.803961 36.044998 52.064999 68.02092 78.594116 91.121758 108.00684 124.82784 140.175"
               y="0"
               id="tspan344">La Persona </tspan></text>
        </g>
      </g>
      <g
         id="g358">
        <g
           clip-path="url(#clipPath16038)"
           id="g356">
          <text
             transform="matrix(1,0,0,-1,330.77,167.28)"
             fill="#ffff00"
             font-family="Calibri"
             font-size="32.04px"
             xml:space="preserve"
             id="text354"><tspan
               x="0"
               y="0"
               id="tspan352">–</tspan></text>
        </g>
      </g>
      <g
         id="g366">
        <g
           clip-path="url(#clipPath16050)"
           id="g364">
          <text
             transform="matrix(1,0,0,-1,354.05,167.28)"
             fill="#ffff00"
             font-family="Calibri"
             font-size="32.04px"
             font-style="italic"
             xml:space="preserve"
             id="text362"><tspan
               x="0 10.22076 26.68932 43.157879 59.530319 66.931557 83.175842 91.666443 107.91072 124.155 132.58151 140.11092 156.89989 173.3364"
               y="0"
               id="tspan360">Juan 1:17; Rom</tspan></text>
        </g>
      </g>
      <g
         id="g374">
        <g
           clip-path="url(#clipPath16062)"
           id="g372">
          <text
             transform="matrix(1,0,0,-1,552.82,167.28)"
             fill="#ffff00"
             font-family="Calibri"
             font-size="32.04px"
             font-style="italic"
             xml:space="preserve"
             id="text370"><tspan
               x="0"
               y="0"
               id="tspan368">.</tspan></text>
        </g>
      </g>
      <g
         id="g382">
        <g
           clip-path="url(#clipPath16074)"
           id="g380">
          <text
             transform="matrix(1,0,0,-1,568.18,167.28)"
             fill="#ffff00"
             font-family="Calibri"
             font-size="32.04px"
             font-style="italic"
             xml:space="preserve"
             id="text378"><tspan
               x="0 16.24428 24.73488"
               y="0"
               id="tspan376">5:8</tspan></text>
        </g>
      </g>
      <g
         id="g326">
        <g
           clip-path="url(#clipPath15990)"
           id="g324">
          <text
             transform="matrix(1,0,0,-1,31.2,167.28)"
             fill="#ffff00"
             font-family="Wingdings"
             font-size="32.04px"
             xml:space="preserve"
             id="text322"><tspan
               x="0"
               y="0"
               id="tspan320">✓</tspan></text>
        </g>
      </g>
    </g>
    <g
       id="g2187"
       inkscape:label="ap5"
       class="fragment"
       data-fragment-index="5">
      <g
         id="g390">
        <g
           clip-path="url(#clipPath16086)"
           id="g388">
          <text
             transform="matrix(1,0,0,-1,31.2,90.456)"
             fill="#ffff00"
             font-family="Wingdings"
             font-size="32.04px"
             xml:space="preserve"
             id="text386"><tspan
               x="0"
               y="0"
               id="tspan384">✓</tspan></text>
        </g>
      </g>
      <g
         id="g398">
        <g
           clip-path="url(#clipPath16098)"
           id="g396">
          <text
             transform="matrix(1,0,0,-1,76.224,90.456)"
             fill="#ffff00"
             font-family="Calibri"
             font-size="32.04px"
             font-weight="bold"
             xml:space="preserve"
             id="text394"><tspan
               x="0 8.5546799 26.593201 42.132599 63.24696"
               y="0"
               id="tspan392">IRENE</tspan></text>
        </g>
      </g>
      <g
         id="g406">
        <g
           clip-path="url(#clipPath16110)"
           id="g404">
          <text
             transform="matrix(1,0,0,-1,162.38,90.456)"
             fill="#ffff00"
             font-family="Calibri"
             font-size="32.04px"
             xml:space="preserve"
             id="text402"><tspan
               x="0 9.7081203 23.164921 38.512081 45.75312 61.676998 77.024162 89.679962 99.388077"
               y="0"
               id="tspan400">(La Paz) </tspan></text>
        </g>
      </g>
      <g
         id="g414">
        <g
           clip-path="url(#clipPath16122)"
           id="g412">
          <text
             transform="matrix(1,0,0,-1,269.09,90.456)"
             fill="#ffff00"
             font-family="Calibri"
             font-size="32.04px"
             xml:space="preserve"
             id="text410"><tspan
               x="0"
               y="0"
               id="tspan408">–</tspan></text>
        </g>
      </g>
      <g
         id="g422">
        <g
           clip-path="url(#clipPath16134)"
           id="g420">
          <text
             transform="matrix(1,0,0,-1,292.37,90.456)"
             fill="#ffff00"
             font-family="Calibri"
             font-size="32.04px"
             xml:space="preserve"
             id="text418"><tspan
               x="0 15.63552 23.004721 30.24576 47.034721 62.990639 75.51828 92.339279 99.580322 109.8972 125.24436 142.06535 158.95044"
               y="0"
               id="tspan416">El Resultado </tspan></text>
        </g>
      </g>
      <g
         id="g430">
        <g
           clip-path="url(#clipPath16146)"
           id="g428">
          <text
             transform="matrix(1,0,0,-1,458.71,90.456)"
             fill="#ffff00"
             font-family="Calibri"
             font-size="32.04px"
             xml:space="preserve"
             id="text426"><tspan
               x="0"
               y="0"
               id="tspan424">–</tspan></text>
        </g>
      </g>
      <g
         id="g438">
        <g
           clip-path="url(#clipPath16158)"
           id="g436">
          <text
             transform="matrix(1,0,0,-1,481.99,90.456)"
             fill="#ffff00"
             font-family="Calibri"
             font-size="32.04px"
             font-style="italic"
             xml:space="preserve"
             id="text434"><tspan
               x="0 14.64228 23.869801 39.184921 47.258999 54.500038 70.744324 79.331039 95.575317"
               y="0"
               id="tspan432">Efe. 2:17</tspan></text>
        </g>
      </g>
    </g>
    <g
       id="g446">
      <g
         clip-path="url(#clipPath16170)"
         id="g444">
        <text
           transform="matrix(1,0,0,-1,31.2,69.576)"
           fill="#ffffff"
           font-family="'Times New Roman'"
           font-size="3px"
           xml:space="preserve"
           id="text442"><tspan
             x="0 2.0369999 2.757 4.7940001 5.5139999 6.2340002 9.1110001 10.431 11.391 12.948 13.668"
             y="0"
             id="tspan440">R.C. Ward, </tspan></text>
      </g>
    </g>
    <g
       id="g454">
      <g
         clip-path="url(#clipPath16182)"
         id="g452">
        <text
           transform="matrix(1,0,0,-1,45.72,69.576)"
           fill="#ffffff"
           font-family="'Times New Roman'"
           font-size="3px"
           xml:space="preserve"
           id="text450"><tspan
             x="0 1.197 2.7539999 3.474"
             y="0"
             id="tspan448">July</tspan></text>
      </g>
    </g>
    <g
       id="g462">
      <g
         clip-path="url(#clipPath16194)"
         id="g460">
        <text
           transform="matrix(1,0,0,-1,51.48,69.576)"
           fill="#ffffff"
           font-family="'Times New Roman'"
           font-size="3px"
           xml:space="preserve"
           id="text458"><tspan
             x="0 1.4400001 2.8800001 4.3200002"
             y="0"
             id="tspan456">2004</tspan></text>
      </g>
    </g>
  </g>
</svg>
