<svg width="696" height="394" xmlns="http://www.w3.org/2000/svg" xmlns:xlink="http://www.w3.org/1999/xlink" xml:space="preserve" overflow="hidden"><defs><filter id="fx0" x="-10%" y="-10%" width="120%" height="120%" filterUnits="userSpaceOnUse" primitiveUnits="userSpaceOnUse"><feComponentTransfer color-interpolation-filters="sRGB"><feFuncR type="discrete" tableValues="0.000000 0.000000"/><feFuncG type="discrete" tableValues="0.000000 0.000000"/><feFuncB type="discrete" tableValues="0.000000 0.000000"/><feFuncA type="linear" slope="0.400000" intercept="0.000000"/></feComponentTransfer><feGaussianBlur stdDeviation="2.824232 2.824232"/></filter><filter id="fx1" x="-10%" y="-10%" width="120%" height="120%" filterUnits="userSpaceOnUse" primitiveUnits="userSpaceOnUse"><feComponentTransfer color-interpolation-filters="sRGB"><feFuncR type="discrete" tableValues="0.000000 0.000000"/><feFuncG type="discrete" tableValues="0.000000 0.000000"/><feFuncB type="discrete" tableValues="0.000000 0.000000"/><feFuncA type="linear" slope="0.400000" intercept="0.000000"/></feComponentTransfer><feGaussianBlur stdDeviation="2.824232 2.824232"/></filter><clipPath id="clip2"><rect x="-4" y="861" width="696" height="394"/></clipPath><clipPath id="clip3"><rect x="1.35058" y="1.95392" width="619.671" height="128.894"/></clipPath><clipPath id="clip4"><rect x="0" y="0" width="622" height="132"/></clipPath><clipPath id="clip5"><rect x="1.26073" y="1.15942" width="657.835" height="130.76"/></clipPath><clipPath id="clip6"><rect x="0" y="0" width="661" height="133"/></clipPath></defs><g clip-path="url(#clip2)" transform="translate(4 -861)"><g clip-path="url(#clip3)" filter="url(#fx0)" transform="translate(21 907)"><g clip-path="url(#clip4)"><path d="M574.734 55.6342C570.332 55.6342 566.695 57.2372 563.824 60.4432 560.953 63.6493 559.541 68.0038 559.589 73.5067L589.736 73.5067C589.592 67.6688 588.085 63.2306 585.214 60.192 582.342 57.1534 578.849 55.6342 574.734 55.6342ZM493.38 55.6342C488.978 55.6342 485.341 57.2372 482.47 60.4432 479.599 63.6493 478.187 68.0038 478.235 73.5067L508.381 73.5067C508.238 67.6688 506.73 63.2306 503.859 60.192 500.988 57.1534 497.495 55.6342 493.38 55.6342ZM192.026 55.6342C187.623 55.6342 183.987 57.2372 181.116 60.4432 178.244 63.6493 176.833 68.0038 176.881 73.5067L207.027 73.5067C206.884 67.6688 205.376 63.2306 202.505 60.192 199.634 57.1534 196.141 55.6342 192.026 55.6342ZM573.514 40.202C584.855 40.202 593.803 43.9464 600.359 51.4352 606.914 58.924 610.049 70.3964 609.761 85.8524L559.23 85.8524C559.374 91.8339 561.001 96.4874 564.111 99.8131 567.221 103.139 571.097 104.802 575.739 104.802 578.897 104.802 581.553 103.94 583.706 102.218 585.86 100.495 587.487 97.7196 588.587 93.8915L608.685 97.265C606.101 104.634 602.021 110.245 596.447 114.097 590.872 117.949 583.898 119.875 575.524 119.875 562.269 119.875 552.459 115.544 546.095 106.883 541.07 99.9447 538.558 91.1879 538.558 80.6127 538.558 67.9799 541.86 58.0866 548.464 50.9327 555.067 43.7789 563.417 40.202 573.514 40.202ZM492.16 40.202C503.5 40.202 512.449 43.9464 519.004 51.4352 525.56 58.924 528.694 70.3964 528.407 85.8524L477.876 85.8524C478.019 91.8339 479.646 96.4874 482.757 99.8131 485.867 103.139 489.743 104.802 494.385 104.802 497.543 104.802 500.199 103.94 502.352 102.218 504.505 100.495 506.132 97.7196 507.233 93.8915L527.331 97.265C524.747 104.634 520.667 110.245 515.093 114.097 509.518 117.949 502.543 119.875 494.169 119.875 480.915 119.875 471.105 115.544 464.741 106.883 459.716 99.9447 457.204 91.1879 457.204 80.6127 457.204 67.9799 460.506 58.0866 467.109 50.9327 473.713 43.7789 482.063 40.202 492.16 40.202ZM441.041 40.202C445.635 40.202 450.061 41.4701 454.32 44.0062L448.075 61.5917C444.678 59.3905 441.519 58.2899 438.6 58.2899 435.777 58.2899 433.385 59.0675 431.423 60.6227 429.461 62.1779 427.918 64.9891 426.793 69.0565 425.668 73.1239 425.106 81.6415 425.106 94.6093L425.106 118.152 404.937 118.152 404.937 41.9247 423.671 41.9247 423.671 52.7631C426.877 47.6429 429.76 44.2694 432.32 42.6425 434.88 41.0155 437.787 40.202 441.041 40.202ZM356.959 40.202C366.242 40.202 373.623 42.1998 379.102 46.1954 384.581 50.191 388.517 56.2802 390.91 64.4628L371.027 68.0516C370.358 64.08 368.838 61.0892 366.47 59.0795 364.101 57.0697 361.027 56.0648 357.246 56.0648 352.222 56.0648 348.214 57.7994 345.224 61.2687 342.233 64.7379 340.737 70.5399 340.737 78.6747 340.737 87.7186 342.257 94.1068 345.295 97.8392 348.334 101.572 352.413 103.438 357.533 103.438 361.361 103.438 364.496 102.349 366.936 100.172 369.377 97.9948 371.099 94.2504 372.104 88.9388L391.915 92.3124C389.857 101.404 385.909 108.271 380.071 112.912 374.234 117.554 366.41 119.875 356.6 119.875 345.451 119.875 336.562 116.358 329.935 109.324 323.308 102.289 319.994 92.5516 319.994 80.1102 319.994 67.5253 323.319 57.7277 329.971 50.7174 336.622 43.7072 345.618 40.202 356.959 40.202ZM190.806 40.202C202.146 40.202 211.095 43.9464 217.65 51.4352 224.206 58.924 227.34 70.3964 227.053 85.8524L176.522 85.8524C176.665 91.8339 178.292 96.4874 181.403 99.8131 184.513 103.139 188.389 104.802 193.031 104.802 196.189 104.802 198.845 103.94 200.998 102.218 203.151 100.495 204.778 97.7196 205.879 93.8915L225.976 97.265C223.392 104.634 219.313 110.245 213.738 114.097 208.164 117.949 201.189 119.875 192.815 119.875 179.56 119.875 169.751 115.544 163.387 106.883 158.362 99.9447 155.85 91.1879 155.85 80.6127 155.85 67.9799 159.152 58.0866 165.755 50.9327 172.359 43.7789 180.709 40.202 190.806 40.202ZM243.09 12.9266 263.259 12.9266 263.259 118.152 243.09 118.152ZM12.3233 12.9266 37.23 12.9266 61.9932 54.5575 86.2539 12.9266 110.73 12.9266 72.042 74.0092 72.042 118.152 50.8677 118.152 50.8677 73.8656Z" stroke="#054697" stroke-width="5" stroke-linecap="butt" stroke-linejoin="round" stroke-miterlimit="10" stroke-opacity="1" fill="#F4F1E3" fill-rule="evenodd" fill-opacity="1"/></g></g><path d="M592.044 960.504C587.641 960.504 584.005 962.107 581.134 965.313 578.262 968.519 576.851 972.873 576.899 978.376L607.045 978.376C606.902 972.538 605.394 968.1 602.523 965.061 599.652 962.023 596.159 960.504 592.044 960.504ZM510.69 960.504C506.287 960.504 502.65 962.107 499.779 965.313 496.908 968.519 495.497 972.873 495.545 978.376L525.691 978.376C525.547 972.538 524.04 968.1 521.169 965.061 518.298 962.023 514.805 960.504 510.69 960.504ZM209.335 960.504C204.933 960.504 201.296 962.107 198.425 965.313 195.554 968.519 194.143 972.873 194.19 978.376L224.337 978.376C224.193 972.538 222.686 968.1 219.815 965.061 216.944 962.023 213.451 960.504 209.335 960.504ZM590.824 945.071C602.164 945.071 611.113 948.816 617.668 956.305 624.224 963.793 627.358 975.266 627.071 990.722L576.54 990.722C576.683 996.703 578.31 1001.36 581.421 1004.68 584.531 1008.01 588.407 1009.67 593.049 1009.67 596.207 1009.67 598.863 1008.81 601.016 1007.09 603.169 1005.36 604.796 1002.59 605.897 998.761L625.994 1002.13C623.41 1009.5 619.331 1015.11 613.756 1018.97 608.182 1022.82 601.207 1024.74 592.833 1024.74 579.578 1024.74 569.769 1020.41 563.405 1011.75 558.38 1004.81 555.868 996.057 555.868 985.482 555.868 972.849 559.17 962.956 565.773 955.802 572.377 948.648 580.727 945.071 590.824 945.071ZM509.469 945.071C520.81 945.071 529.758 948.816 536.314 956.305 542.87 963.793 546.004 975.266 545.717 990.722L495.186 990.722C495.329 996.703 496.956 1001.36 500.067 1004.68 503.177 1008.01 507.053 1009.67 511.694 1009.67 514.853 1009.67 517.508 1008.81 519.662 1007.09 521.815 1005.36 523.442 1002.59 524.543 998.761L544.64 1002.13C542.056 1009.5 537.977 1015.11 532.402 1018.97 526.828 1022.82 519.853 1024.74 511.479 1024.74 498.224 1024.74 488.415 1020.41 482.05 1011.75 477.026 1004.81 474.514 996.057 474.514 985.482 474.514 972.849 477.816 962.956 484.419 955.802 491.023 948.648 499.373 945.071 509.469 945.071ZM458.351 945.071C462.944 945.071 467.371 946.339 471.629 948.876L465.385 966.461C461.987 964.26 458.829 963.159 455.91 963.159 453.087 963.159 450.694 963.937 448.732 965.492 446.77 967.047 445.227 969.859 444.103 973.926 442.978 977.993 442.416 986.511 442.416 999.479L442.416 1023.02 422.247 1023.02 422.247 946.794 440.98 946.794 440.98 957.632C444.186 952.512 447.07 949.139 449.63 947.512 452.19 945.885 455.097 945.071 458.351 945.071ZM374.269 945.071C383.552 945.071 390.933 947.069 396.412 951.065 401.891 955.06 405.827 961.15 408.22 969.332L388.337 972.921C387.667 968.949 386.148 965.959 383.779 963.949 381.411 961.939 378.336 960.934 374.556 960.934 369.532 960.934 365.524 962.669 362.533 966.138 359.543 969.607 358.047 975.409 358.047 983.544 358.047 992.588 359.566 998.976 362.605 1002.71 365.644 1006.44 369.723 1008.31 374.843 1008.31 378.671 1008.31 381.805 1007.22 384.246 1005.04 386.686 1002.86 388.409 999.12 389.414 993.808L409.224 997.182C407.167 1006.27 403.219 1013.14 397.381 1017.78 391.543 1022.42 383.72 1024.74 373.91 1024.74 362.761 1024.74 353.872 1021.23 347.245 1014.19 340.617 1007.16 337.304 997.421 337.304 984.98 337.304 972.395 340.629 962.597 347.281 955.587 353.932 948.577 362.928 945.071 374.269 945.071ZM208.115 945.071C219.456 945.071 228.404 948.816 234.96 956.305 241.516 963.793 244.65 975.266 244.363 990.722L193.832 990.722C193.975 996.703 195.602 1001.36 198.712 1004.68 201.823 1008.01 205.699 1009.67 210.34 1009.67 213.499 1009.67 216.154 1008.81 218.308 1007.09 220.461 1005.36 222.088 1002.59 223.188 998.761L243.286 1002.13C240.702 1009.5 236.623 1015.11 231.048 1018.97 225.473 1022.82 218.499 1024.74 210.125 1024.74 196.87 1024.74 187.061 1020.41 180.696 1011.75 175.672 1004.81 173.16 996.057 173.16 985.482 173.16 972.849 176.461 962.956 183.065 955.802 189.668 948.648 198.019 945.071 208.115 945.071ZM260.4 917.796 280.569 917.796 280.569 1023.02 260.4 1023.02ZM29.633 917.796 54.5397 917.796 79.3029 959.427 103.564 917.796 128.04 917.796 89.3518 978.879 89.3518 1023.02 68.1774 1023.02 68.1774 978.735Z" stroke="#054697" stroke-width="5" stroke-linecap="butt" stroke-linejoin="round" stroke-miterlimit="10" stroke-opacity="1" fill="#F4F1E3" fill-rule="evenodd" fill-opacity="1"/><text fill="#000000" fill-opacity="0" font-family="Arial,Arial_MSFontService,sans-serif" font-size="106.948" direction="ltr" writing-mode="lr-tb" x="29.633" y="1011.38">Y el cree</text><g clip-path="url(#clip5)" filter="url(#fx1)" transform="translate(32 1082)"><g clip-path="url(#clip6)"><path d="M608.79 57.639C603.526 57.639 599.1 59.6488 595.511 63.6683 591.922 67.6879 590.127 73.4779 590.127 81.0385 590.127 88.599 591.922 94.389 595.511 98.4086 599.1 102.428 603.526 104.438 608.79 104.438 614.053 104.438 618.468 102.428 622.032 98.4086 625.597 94.389 627.38 88.5511 627.38 80.8949 627.38 73.4301 625.597 67.6879 622.032 63.6683 618.468 59.6488 614.053 57.639 608.79 57.639ZM403.392 42.9247 423.561 42.9247 423.561 119.152 403.392 119.152ZM608.718 41.202C620.25 41.202 629.701 44.9464 637.07 52.4352 644.439 59.924 648.124 69.3866 648.124 80.8231 648.124 92.3553 644.403 101.914 636.962 109.498 629.521 117.083 620.154 120.875 608.861 120.875 601.875 120.875 595.212 119.296 588.871 116.138 582.531 112.979 577.71 108.35 574.408 102.249 571.106 96.1476 569.456 88.7186 569.456 79.9618 569.456 73.2626 571.106 66.7787 574.408 60.5101 577.71 54.2416 582.387 49.4564 588.441 46.1547 594.494 42.8529 601.253 41.202 608.718 41.202ZM471.847 41.202C482.278 41.202 490.03 42.9008 495.103 46.2982 500.175 49.6957 503.668 54.7201 505.582 61.3715L486.561 64.8885C485.748 61.9218 484.204 59.6488 481.932 58.0697 479.659 56.4906 476.417 55.7011 472.206 55.7011 466.894 55.7011 463.09 56.4428 460.793 57.9262 459.262 58.9789 458.496 60.3427 458.496 62.0175 458.496 63.453 459.166 64.6732 460.506 65.6781 462.324 67.0179 468.605 68.9081 479.348 71.3485 490.09 73.7889 497.591 76.7797 501.85 80.3207 506.061 83.9095 508.166 88.91 508.166 95.3221 508.166 102.308 505.247 108.314 499.409 113.338 493.571 118.363 484.934 120.875 473.498 120.875 463.114 120.875 454.895 118.769 448.842 114.558 442.789 110.348 438.829 104.629 436.963 97.4037L457.204 94.3173C458.066 98.2411 459.812 101.22 462.444 103.254 465.076 105.287 468.76 106.304 473.498 106.304 478.714 106.304 482.637 105.347 485.269 103.433 487.04 102.093 487.925 100.299 487.925 98.0497 487.925 96.5184 487.446 95.2504 486.489 94.2455 485.485 93.2885 483.235 92.4032 479.742 91.5897 463.473 88.0009 453.161 84.723 448.806 81.7562 442.777 77.641 439.762 71.9227 439.762 64.6014 439.762 57.9979 442.37 52.4471 447.586 47.9491 452.802 43.4511 460.889 41.202 471.847 41.202ZM381.343 41.202C385.937 41.202 390.363 42.4701 394.622 45.0062L388.377 62.5917C384.98 60.3905 381.821 59.2899 378.902 59.2899 376.079 59.2899 373.687 60.0675 371.725 61.6227 369.763 63.1779 368.22 65.9891 367.095 70.0565 365.971 74.1239 365.408 82.6415 365.408 95.6093L365.408 119.152 345.239 119.152 345.239 42.9247 363.973 42.9247 363.973 53.7631C367.179 48.6429 370.062 45.2694 372.622 43.6425 375.182 42.0155 378.089 41.202 381.343 41.202ZM153.771 41.202C158.221 41.202 162.289 42.0036 165.973 43.6066 169.658 45.2096 172.445 47.2553 174.335 49.7435 176.225 52.2318 177.541 55.0551 178.283 58.2133 179.025 61.3715 179.396 65.8934 179.396 71.7792L179.396 119.152 159.226 119.152 159.226 80.2489C159.226 72.0184 158.795 66.6949 157.934 64.2784 157.073 61.8619 155.673 59.9838 153.735 58.6439 151.797 57.3041 149.464 56.6342 146.737 56.6342 143.244 56.6342 140.109 57.5912 137.334 59.5053 134.559 61.4193 132.657 63.9554 131.628 67.1136 130.599 70.2719 130.085 76.1097 130.085 84.6273L130.085 119.152 109.915 119.152 109.915 42.9247 128.649 42.9247 128.649 54.122C135.3 45.5087 143.674 41.202 153.771 41.202ZM546.597 16.0082 546.597 42.9247 560.379 42.9247 560.379 59.0028 546.597 59.0028 546.597 89.7235C546.597 95.9442 546.729 99.569 546.992 100.598 547.255 101.627 547.854 102.476 548.787 103.146 549.72 103.816 550.856 104.151 552.196 104.151 554.062 104.151 556.766 103.505 560.307 102.213L562.03 117.86C557.34 119.87 552.029 120.875 546.095 120.875 542.458 120.875 539.18 120.265 536.262 119.045 533.343 117.824 531.201 116.245 529.837 114.307 528.474 112.369 527.529 109.749 527.002 106.448 526.572 104.103 526.356 99.3656 526.356 92.2357L526.356 59.0028 517.097 59.0028 517.097 42.9247 526.356 42.9247 526.356 27.7797ZM403.392 13.9266 423.561 13.9266 423.561 32.5887 403.392 32.5887ZM12.2334 13.9266 90.2554 13.9266 90.2554 31.7274 33.4795 31.7274 33.4795 55.0551 86.3076 55.0551 86.3076 72.7841 33.4795 72.7841 33.4795 101.423 92.2652 101.423 92.2652 119.152 12.2334 119.152ZM285.761 12.1322C298.633 12.1322 309.089 15.9364 317.128 23.5448 321.913 28.0429 325.502 34.5028 327.894 42.9247L306.864 47.9491C305.619 42.494 303.023 38.1874 299.076 35.0292 295.128 31.871 290.331 30.2919 284.684 30.2919 276.885 30.2919 270.556 33.0912 265.699 38.6898 260.842 44.2885 258.414 53.3563 258.414 65.8934 258.414 79.1962 260.806 88.6708 265.592 94.3173 270.377 99.9637 276.597 102.787 284.254 102.787 289.9 102.787 294.757 100.993 298.825 97.4037 302.892 93.8148 305.811 88.1683 307.581 80.4642L328.181 86.996C325.023 98.4803 319.772 107.01 312.426 112.585 305.081 118.159 295.762 120.947 284.469 120.947 270.496 120.947 259.012 116.173 250.016 106.627 241.02 97.0807 236.522 84.0292 236.522 67.4725 236.522 49.9589 241.044 36.3571 250.088 26.6671 259.132 16.9772 271.023 12.1322 285.761 12.1322Z" stroke="#054697" stroke-width="5" stroke-linecap="butt" stroke-linejoin="round" stroke-miterlimit="10" stroke-opacity="1" fill="#F4F1E3" fill-rule="evenodd" fill-opacity="1"/></g></g><path d="M637.099 1137.51C631.836 1137.51 627.409 1139.52 623.82 1143.54 620.232 1147.56 618.437 1153.35 618.437 1160.91 618.437 1168.47 620.232 1174.26 623.82 1178.28 627.409 1182.3 631.836 1184.31 637.099 1184.31 642.363 1184.31 646.777 1182.3 650.342 1178.28 653.907 1174.26 655.69 1168.42 655.69 1160.76 655.69 1153.3 653.907 1147.56 650.342 1143.54 646.777 1139.52 642.363 1137.51 637.099 1137.51ZM431.702 1122.79 451.871 1122.79 451.871 1199.02 431.702 1199.02ZM637.027 1121.07C648.56 1121.07 658.01 1124.82 665.38 1132.3 672.749 1139.79 676.433 1149.26 676.433 1160.69 676.433 1172.22 672.713 1181.78 665.272 1189.37 657.831 1196.95 648.464 1200.74 637.171 1200.74 630.185 1200.74 623.521 1199.17 617.181 1196.01 610.841 1192.85 606.02 1188.22 602.718 1182.12 599.416 1176.02 597.765 1168.59 597.765 1159.83 597.765 1153.13 599.416 1146.65 602.718 1140.38 606.02 1134.11 610.697 1129.33 616.75 1126.02 622.804 1122.72 629.563 1121.07 637.027 1121.07ZM500.157 1121.07C510.588 1121.07 518.34 1122.77 523.412 1126.17 528.485 1129.57 531.978 1134.59 533.892 1141.24L514.871 1144.76C514.057 1141.79 512.514 1139.52 510.241 1137.94 507.968 1136.36 504.726 1135.57 500.515 1135.57 495.204 1135.57 491.4 1136.31 489.103 1137.8 487.572 1138.85 486.806 1140.21 486.806 1141.89 486.806 1143.32 487.476 1144.54 488.816 1145.55 490.634 1146.89 496.915 1148.78 507.657 1151.22 518.4 1153.66 525.901 1156.65 530.159 1160.19 534.37 1163.78 536.476 1168.78 536.476 1175.19 536.476 1182.18 533.557 1188.18 527.719 1193.21 521.881 1198.23 513.244 1200.74 501.807 1200.74 491.424 1200.74 483.205 1198.64 477.152 1194.43 471.099 1190.22 467.139 1184.5 465.273 1177.27L485.514 1174.19C486.375 1178.11 488.122 1181.09 490.754 1183.12 493.386 1185.16 497.07 1186.17 501.807 1186.17 507.023 1186.17 510.947 1185.22 513.579 1183.3 515.349 1181.96 516.235 1180.17 516.235 1177.92 516.235 1176.39 515.756 1175.12 514.799 1174.11 513.794 1173.16 511.545 1172.27 508.052 1171.46 491.783 1167.87 481.47 1164.59 477.116 1161.63 471.087 1157.51 468.072 1151.79 468.072 1144.47 468.072 1137.87 470.68 1132.32 475.896 1127.82 481.112 1123.32 489.199 1121.07 500.157 1121.07ZM409.653 1121.07C414.246 1121.07 418.673 1122.34 422.931 1124.88L416.687 1142.46C413.289 1140.26 410.131 1139.16 407.212 1139.16 404.389 1139.16 401.996 1139.94 400.034 1141.49 398.073 1143.05 396.529 1145.86 395.405 1149.93 394.28 1153.99 393.718 1162.51 393.718 1175.48L393.718 1199.02 373.549 1199.02 373.549 1122.79 392.283 1122.79 392.283 1133.63C395.489 1128.51 398.372 1125.14 400.932 1123.51 403.492 1121.88 406.399 1121.07 409.653 1121.07ZM182.081 1121.07C186.531 1121.07 190.598 1121.87 194.283 1123.48 197.967 1125.08 200.755 1127.12 202.645 1129.61 204.535 1132.1 205.851 1134.92 206.593 1138.08 207.334 1141.24 207.705 1145.76 207.705 1151.65L207.705 1199.02 187.536 1199.02 187.536 1160.12C187.536 1151.89 187.105 1146.56 186.244 1144.15 185.383 1141.73 183.983 1139.85 182.045 1138.51 180.107 1137.17 177.774 1136.5 175.047 1136.5 171.553 1136.5 168.419 1137.46 165.644 1139.37 162.868 1141.29 160.966 1143.82 159.937 1146.98 158.909 1150.14 158.394 1155.98 158.394 1164.5L158.394 1199.02 138.225 1199.02 138.225 1122.79 156.959 1122.79 156.959 1133.99C163.61 1125.38 171.984 1121.07 182.081 1121.07ZM574.907 1095.88 574.907 1122.79 588.688 1122.79 588.688 1138.87 574.907 1138.87 574.907 1169.59C574.907 1175.81 575.039 1179.44 575.302 1180.47 575.565 1181.5 576.163 1182.35 577.096 1183.02 578.029 1183.69 579.166 1184.02 580.506 1184.02 582.372 1184.02 585.076 1183.37 588.617 1182.08L590.339 1197.73C585.65 1199.74 580.338 1200.74 574.405 1200.74 570.768 1200.74 567.49 1200.13 564.571 1198.91 561.652 1197.69 559.511 1196.11 558.147 1194.18 556.783 1192.24 555.838 1189.62 555.312 1186.32 554.881 1183.97 554.666 1179.23 554.666 1172.11L554.666 1138.87 545.407 1138.87 545.407 1122.79 554.666 1122.79 554.666 1107.65ZM431.702 1093.8 451.871 1093.8 451.871 1112.46 431.702 1112.46ZM40.5432 1093.8 118.565 1093.8 118.565 1111.6 61.7893 1111.6 61.7893 1134.92 114.617 1134.92 114.617 1152.65 61.7893 1152.65 61.7893 1181.29 120.575 1181.29 120.575 1199.02 40.5432 1199.02ZM314.071 1092C326.943 1092 337.398 1095.81 345.437 1103.41 350.223 1107.91 353.811 1114.37 356.204 1122.79L335.173 1127.82C333.929 1122.36 331.333 1118.06 327.385 1114.9 323.438 1111.74 318.641 1110.16 312.994 1110.16 305.194 1110.16 298.866 1112.96 294.009 1118.56 289.152 1124.16 286.724 1133.23 286.724 1145.76 286.724 1159.07 289.116 1168.54 293.901 1174.19 298.686 1179.83 304.907 1182.66 312.563 1182.66 318.21 1182.66 323.067 1180.86 327.134 1177.27 331.202 1173.68 334.121 1168.04 335.891 1160.33L356.491 1166.87C353.333 1178.35 348.081 1186.88 340.736 1192.45 333.391 1198.03 324.072 1200.82 312.779 1200.82 298.806 1200.82 287.322 1196.04 278.326 1186.5 269.33 1176.95 264.832 1163.9 264.832 1147.34 264.832 1129.83 269.354 1116.23 278.397 1106.54 287.441 1096.85 299.332 1092 314.071 1092Z" stroke="#054697" stroke-width="5" stroke-linecap="butt" stroke-linejoin="round" stroke-miterlimit="10" stroke-opacity="1" fill="#F4F1E3" fill-rule="evenodd" fill-opacity="1"/><text fill="#000000" fill-opacity="0" font-family="Arial,Arial_MSFontService,sans-serif" font-size="108.814" direction="ltr" writing-mode="lr-tb" x="40.5432" y="1187.21">En Cristo</text></g></svg>