<svg width="665" height="417" xmlns="http://www.w3.org/2000/svg" xmlns:xlink="http://www.w3.org/1999/xlink" xml:space="preserve" overflow="hidden"><defs><clipPath id="clip0"><rect x="1379" y="1439" width="665" height="417"/></clipPath></defs><g clip-path="url(#clip0)" transform="translate(-1379 -1439)"><rect x="0" y="166.62" width="465.38" height="208.38" fill="#FF3399" fill-opacity="1" transform="matrix(1 0 0 -1 1403.5 1848.5)"/><path d="M465.38 166.62 632 0 632 208.38 465.38 375Z" fill="#CD297B" fill-rule="evenodd" fill-opacity="1" transform="matrix(1 0 0 -1 1403.5 1848.5)"/><path d="M0 166.62 166.62 0 632 0 465.38 166.62Z" fill="#FF5BAD" fill-rule="evenodd" fill-opacity="1" transform="matrix(1 0 0 -1 1403.5 1848.5)"/><path d="M0 166.62 166.62 0 632 0 632 208.38 465.38 375 0 375ZM0 166.62 465.38 166.62 632 0M465.38 166.62 465.38 375" stroke="#000000" stroke-width="9.16667" stroke-linecap="butt" stroke-linejoin="miter" stroke-miterlimit="8" stroke-opacity="1" fill="none" fill-rule="evenodd" transform="matrix(1 0 0 -1 1403.5 1848.5)"/><text fill="#000000" fill-opacity="1" font-family="Times New Roman,Times New Roman_MSFontService,sans-serif" font-style="normal" font-variant="normal" font-weight="700" font-stretch="normal" font-size="92" text-anchor="start" direction="ltr" writing-mode="lr-tb" unicode-bidi="normal" text-decoration="none" transform="matrix(1 0 0 1 1436.31 1559)">Ester </text><text fill="#000000" fill-opacity="1" font-family="Times New Roman,Times New Roman_MSFontService,sans-serif" font-style="normal" font-variant="normal" font-weight="700" font-stretch="normal" font-size="92" text-anchor="start" direction="ltr" writing-mode="lr-tb" unicode-bidi="normal" text-decoration="none" transform="matrix(1 0 0 1 1436.31 1669)">(483</text><text fill="#000000" fill-opacity="1" font-family="Times New Roman,Times New Roman_MSFontService,sans-serif" font-style="normal" font-variant="normal" font-weight="700" font-stretch="normal" font-size="92" text-anchor="start" direction="ltr" writing-mode="lr-tb" unicode-bidi="normal" text-decoration="none" transform="matrix(1 0 0 1 1604.17 1669)">-</text><text fill="#000000" fill-opacity="1" font-family="Times New Roman,Times New Roman_MSFontService,sans-serif" font-style="normal" font-variant="normal" font-weight="700" font-stretch="normal" font-size="92" text-anchor="start" direction="ltr" writing-mode="lr-tb" unicode-bidi="normal" text-decoration="none" transform="matrix(1 0 0 1 1634.54 1669)">472)</text></g></svg>