<svg width="1237" height="165" xmlns="http://www.w3.org/2000/svg" xmlns:xlink="http://www.w3.org/1999/xlink" xml:space="preserve" overflow="hidden"><defs><clipPath id="clip0"><rect x="1155" y="1567" width="1237" height="165"/></clipPath></defs><g clip-path="url(#clip0)" transform="translate(-1155 -1567)"><path d="M1256.15 1640.83 2292.34 1640.83 2292.34 1659.17 1256.15 1659.17ZM1306.53 1690 1237.96 1650 1306.53 1610C1310.9 1607.45 1316.52 1608.92 1319.07 1613.3 1321.62 1617.67 1320.14 1623.28 1315.77 1625.83L1260.77 1657.92 1260.77 1642.08 1315.77 1674.17C1320.14 1676.72 1321.62 1682.33 1319.07 1686.7 1316.52 1691.08 1310.9 1692.55 1306.53 1690ZM2241.96 1610 2310.53 1650 2241.96 1690C2237.59 1692.55 2231.97 1691.08 2229.42 1686.7 2226.87 1682.33 2228.35 1676.72 2232.72 1674.17L2287.72 1642.08 2287.72 1657.92 2232.72 1625.83C2228.35 1623.28 2226.87 1617.67 2229.42 1613.3 2231.97 1608.93 2237.59 1607.45 2241.96 1610Z" fill="#FFFF00" fill-rule="nonzero" fill-opacity="1"/></g></svg>