<svg width="2626" height="206" xmlns="http://www.w3.org/2000/svg" xmlns:xlink="http://www.w3.org/1999/xlink" xml:space="preserve" overflow="hidden"><defs><filter id="fx0" x="-10%" y="-10%" width="120%" height="120%" filterUnits="userSpaceOnUse" primitiveUnits="userSpaceOnUse"><feComponentTransfer color-interpolation-filters="sRGB"><feFuncR type="discrete" tableValues="0.752941 0.752941"/><feFuncG type="discrete" tableValues="0.752941 0.752941"/><feFuncB type="discrete" tableValues="0.752941 0.752941"/><feFuncA type="linear" slope="0.800000" intercept="0.000000"/></feComponentTransfer><feGaussianBlur stdDeviation="0.000000 0.000000"/></filter><clipPath id="clip1"><rect x="385" y="55" width="2626" height="206"/></clipPath><clipPath id="clip2"><rect x="1.16666" y="1.16666" width="2612.5" height="192.5"/></clipPath><clipPath id="clip3"><rect x="0" y="0" width="2615" height="195"/></clipPath></defs><g clip-path="url(#clip1)" transform="translate(-385 -55)"><g clip-path="url(#clip2)" filter="url(#fx0)" transform="translate(393 63)"><g clip-path="url(#clip3)"><path d="M1157.65 148.02C1153.61 151.531 1150.55 154.802 1148.49 157.831 1146.43 160.86 1145.4 163.649 1145.4 166.196 1145.4 169.501 1147.89 172.392 1152.88 174.871 1161.47 179.14 1173.89 181.274 1190.14 181.274 1205.61 181.274 1217.02 179.088 1224.37 174.716 1231.71 170.344 1235.39 165.68 1235.39 160.723 1235.39 157.143 1233.2 154.595 1228.81 153.081 1224.34 151.566 1215.49 150.671 1202.25 150.395 1182.92 149.982 1168.05 149.191 1157.65 148.02ZM2441.13 91.6334C2428.15 95.7643 2419.77 98.6903 2415.99 100.412 2409.2 103.441 2404.35 106.608 2401.42 109.913 2398.5 113.217 2397.04 116.832 2397.04 120.756 2397.04 125.713 2398.89 129.827 2402.58 133.097 2406.28 136.368 2410.53 138.003 2415.35 138.003 2421.88 138.003 2430.47 134.56 2441.13 127.675 2441.13 115.661 2441.13 103.647 2441.13 91.6334ZM2027.02 57.8633C2019.88 57.8633 2013.5 60.0836 2007.87 64.5244 2002.24 68.9651 1998.95 75.1442 1998.01 83.0618 2016.23 83.0618 2034.45 83.0618 2052.67 83.0618 2052.24 77.0031 2051.34 72.7345 2049.97 70.256 2047.82 66.4005 2044.62 63.3711 2040.36 61.168 2036.11 58.9649 2031.66 57.8633 2027.02 57.8633ZM985.513 57.8633C978.379 57.8633 971.997 60.0836 966.367 64.5244 960.738 68.9651 957.45 75.1442 956.505 83.0618 974.726 83.0618 992.948 83.0618 1011.17 83.0618 1010.74 77.0031 1009.84 72.7345 1008.46 70.256 1006.31 66.4005 1003.11 63.3711 998.857 61.168 994.602 58.9649 990.155 57.8633 985.513 57.8633ZM626.121 57.8633C618.987 57.8633 612.605 60.0836 606.975 64.5244 601.345 68.9651 598.058 75.1442 597.112 83.0618 615.334 83.0618 633.556 83.0618 651.777 83.0618 651.348 77.0031 650.445 72.7345 649.07 70.256 646.921 66.4005 643.719 63.3711 639.465 61.168 635.21 58.9649 630.762 57.8633 626.121 57.8633ZM1511.16 57.3469C1506.61 57.3469 1502.03 58.4313 1497.43 60.6 1492.84 62.7687 1489.12 66.5726 1486.28 72.0116 1483.45 77.4506 1482.03 84.4387 1482.03 92.9759 1482.03 106.746 1485.44 118.622 1492.28 128.605 1499.11 138.588 1508.11 143.579 1519.29 143.579 1527.62 143.579 1534.5 140.826 1539.92 135.318 1545.33 129.81 1548.04 120.343 1548.04 106.918 1548.04 90.1187 1543.53 76.8998 1534.5 67.2611 1528.4 60.6516 1520.62 57.3469 1511.16 57.3469ZM1181.37 55.5913C1175.01 55.5913 1169.68 57.6223 1165.38 61.6844 1161.08 65.7464 1158.93 71.9772 1158.93 80.3767 1158.93 91.2547 1161.86 99.6886 1167.7 105.678 1172.17 110.222 1177.84 112.494 1184.72 112.494 1191.25 112.494 1196.62 110.532 1200.84 106.608 1205.05 102.684 1207.15 96.5216 1207.15 88.1221 1207.15 77.1752 1204.19 68.6036 1198.26 62.4073 1193.87 57.8633 1188.24 55.5913 1181.37 55.5913ZM349.228 53.4226C363.023 53.4226 376.818 53.4226 390.613 53.4226 390.613 74.5246 390.613 95.6266 390.613 116.729 390.613 125.541 392.526 131.324 396.351 134.078 400.176 136.832 404.795 138.209 410.211 138.209 413.906 138.209 418.097 137.28 422.781 135.421 427.465 133.562 433.031 130.016 439.477 124.784 439.477 106.918 439.477 89.0516 439.477 71.1854 439.477 65.8153 438.252 62.1835 435.803 60.2902 433.353 58.3968 428.26 57.3813 420.525 57.2436 420.525 55.9699 420.525 54.6962 420.525 53.4226 433.933 53.4226 447.342 53.4226 460.75 53.4226 460.75 72.528 460.75 91.6334 460.75 110.739 460.75 121.686 461.072 128.381 461.717 130.825 462.362 133.269 463.393 134.973 464.811 135.937 466.229 136.901 467.884 137.383 469.775 137.383 472.439 137.383 475.448 136.798 478.8 135.627 479.402 136.832 480.003 138.037 480.605 139.242 468.829 143.132 457.054 147.022 445.279 150.912 443.345 150.912 441.411 150.912 439.477 150.912 439.477 144.234 439.477 137.555 439.477 130.877 429.335 139.69 421.599 145.232 416.27 147.504 410.941 149.776 405.311 150.912 399.38 150.912 392.762 150.912 387.025 149.38 382.169 146.316 377.312 143.252 373.939 139.311 372.048 134.491 370.157 129.672 369.211 122.856 369.211 114.044 369.211 99.964 369.211 85.8845 369.211 71.8051 369.211 67.3299 368.61 64.2317 367.406 62.5105 366.203 60.7893 364.42 59.464 362.056 58.5345 359.692 57.6051 355.416 57.1748 349.228 57.2436 349.228 55.9699 349.228 54.6962 349.228 53.4226ZM143.861 53.4226C157.656 53.4226 171.451 53.4226 185.246 53.4226 185.246 74.5246 185.246 95.6266 185.246 116.729 185.246 125.541 187.159 131.324 190.984 134.078 194.808 136.832 199.428 138.209 204.843 138.209 208.539 138.209 212.729 137.28 217.414 135.421 222.098 133.562 227.663 130.016 234.11 124.784 234.11 106.918 234.11 89.0516 234.11 71.1854 234.11 65.8153 232.885 62.1835 230.435 60.2902 227.986 58.3968 222.893 57.3813 215.158 57.2436 215.158 55.9699 215.158 54.6962 215.158 53.4226 228.566 53.4226 241.974 53.4226 255.383 53.4226 255.383 72.528 255.383 91.6334 255.383 110.739 255.383 121.686 255.705 128.381 256.35 130.825 256.995 133.269 258.026 134.973 259.444 135.937 260.862 136.901 262.517 137.383 264.408 137.383 267.072 137.383 270.081 136.798 273.433 135.627 274.034 136.832 274.636 138.037 275.238 139.242 263.462 143.132 251.687 147.022 239.912 150.912 237.978 150.912 236.044 150.912 234.11 150.912 234.11 144.234 234.11 137.555 234.11 130.877 223.967 139.69 216.232 145.232 210.903 147.504 205.574 149.776 199.944 150.912 194.013 150.912 187.395 150.912 181.658 149.38 176.802 146.316 171.945 143.252 168.572 139.311 166.681 134.491 164.79 129.672 163.844 122.856 163.844 114.044 163.844 99.964 163.844 85.8845 163.844 71.8051 163.844 67.3299 163.243 64.2317 162.039 62.5105 160.836 60.7893 159.053 59.464 156.689 58.5345 154.325 57.6051 150.049 57.1748 143.861 57.2436 143.861 55.9699 143.861 54.6962 143.861 53.4226ZM2423.08 50.6342C2433.57 50.6342 2442.16 52.0456 2448.87 54.8684 2453.94 57.0027 2457.68 60.3418 2460.09 64.8858 2461.63 67.8463 2462.41 73.9049 2462.41 83.0618 2462.41 93.7677 2462.41 104.474 2462.41 115.18 2462.41 124.199 2462.62 129.724 2463.05 131.755 2463.48 133.786 2464.19 135.146 2465.18 135.834 2466.17 136.523 2467.31 136.867 2468.59 136.867 2469.97 136.867 2471.17 136.626 2472.2 136.144 2474.01 135.249 2477.49 132.736 2482.65 128.605 2482.65 130.533 2482.65 132.46 2482.65 134.388 2473.02 144.715 2463.82 149.879 2455.06 149.879 2450.85 149.879 2447.49 148.709 2445 146.368 2442.51 144.027 2441.22 140.034 2441.13 134.388 2429.01 141.893 2421.41 146.23 2418.31 147.401 2413.67 149.122 2408.73 149.982 2403.49 149.982 2395.32 149.982 2388.59 147.745 2383.31 143.27 2378.02 138.794 2375.38 132.908 2375.38 125.61 2375.38 120.997 2376.67 117.004 2379.25 113.63 2382.77 108.949 2388.9 104.542 2397.62 100.412 2406.34 96.2806 2420.85 91.2547 2441.13 85.3338 2441.13 84.0945 2441.13 82.8552 2441.13 81.616 2441.13 72.1837 2439.26 65.712 2435.52 62.2007 2431.79 58.6895 2426.35 56.9338 2419.22 56.9338 2413.8 56.9338 2409.5 58.1042 2406.32 60.4451 2403.06 62.7859 2401.42 65.471 2401.42 68.5004 2401.51 70.4969 2401.6 72.4936 2401.68 74.4902 2401.68 77.6572 2400.67 80.1013 2398.65 81.8225 2396.63 83.5437 2393.99 84.4043 2390.72 84.4043 2387.54 84.4043 2384.94 83.5093 2382.92 81.7192 2380.9 79.9292 2379.89 77.4851 2379.89 74.3869 2379.89 68.4659 2383.67 63.0269 2391.24 58.0698 2398.8 53.1127 2409.42 50.6342 2423.08 50.6342ZM2335.94 50.6342C2337.83 50.6342 2339.72 50.6342 2341.62 50.6342 2341.62 75.9704 2341.62 101.307 2341.62 126.643 2341.62 132.564 2342.15 136.505 2343.23 138.467 2344.3 140.43 2345.89 141.893 2348 142.857 2350.1 143.82 2353.95 144.302 2359.54 144.302 2359.54 145.542 2359.54 146.781 2359.54 148.02 2340.41 148.02 2321.29 148.02 2302.16 148.02 2302.16 146.781 2302.16 145.542 2302.16 144.302 2307.92 144.302 2311.79 143.855 2313.77 142.96 2315.74 142.065 2317.31 140.585 2318.47 138.519 2319.63 136.454 2320.21 132.495 2320.21 126.643 2320.21 114.491 2320.21 102.339 2320.21 90.1876 2320.21 79.9292 2319.83 73.2853 2319.05 70.256 2318.45 68.0528 2317.51 66.521 2316.22 65.6603 2314.93 64.7998 2313.17 64.3695 2310.93 64.3694 2308.52 64.3695 2305.6 64.8858 2302.16 65.9185 2301.56 64.6793 2300.96 63.44 2300.36 62.2007 2312.22 58.3452 2324.08 54.4897 2335.94 50.6342ZM2238.67 50.6342C2243.31 50.6342 2248.94 51.4259 2255.56 53.0095 2259.95 54.0422 2262.87 54.5585 2264.33 54.5585 2265.71 54.5585 2266.78 54.3176 2267.55 53.8356 2268.33 53.3537 2269.23 52.2866 2270.26 50.6342 2271.68 50.6342 2273.1 50.6342 2274.52 50.6342 2274.52 61.3745 2274.52 72.1149 2274.52 82.8552 2273.1 82.8552 2271.68 82.8552 2270.26 82.8552 2266.99 72.7345 2262.8 65.8497 2257.69 62.2007 2252.58 58.5518 2246.07 56.7273 2238.16 56.7273 2232.14 56.7273 2227.28 58.001 2223.59 60.5484 2219.89 63.0958 2218.05 65.9185 2218.05 69.0167 2218.05 72.8722 2219.42 76.1769 2222.17 78.9309 2224.84 81.7537 2230.25 84.7486 2238.42 87.9156 2244.69 90.3597 2250.96 92.8038 2257.24 95.2479 2274.69 102.064 2283.41 111.049 2283.41 122.202 2283.41 130.808 2279.35 137.745 2271.23 143.011 2263.11 148.278 2254.02 150.912 2243.96 150.912 2236.74 150.912 2228.49 149.879 2219.21 147.814 2216.37 147.125 2214.05 146.781 2212.24 146.781 2210.27 146.781 2208.72 147.676 2207.6 149.466 2206.18 149.466 2204.77 149.466 2203.35 149.466 2203.35 138.209 2203.35 126.953 2203.35 115.696 2204.77 115.696 2206.18 115.696 2207.6 115.696 2210.01 125.335 2214.61 132.598 2221.4 137.486 2228.19 142.375 2235.79 144.819 2244.22 144.819 2250.15 144.819 2254.98 143.425 2258.72 140.636 2262.46 137.848 2264.33 134.491 2264.33 130.567 2264.33 125.817 2262.25 121.823 2258.08 118.588 2253.91 115.352 2245.59 111.255 2233.13 106.298 2220.67 101.341 2212.5 96.8659 2208.63 92.8727 2204.77 88.9483 2202.83 83.9912 2202.83 78.0014 2202.83 70.2215 2206.16 63.7154 2212.82 58.4829 2219.48 53.2504 2228.1 50.6342 2238.67 50.6342ZM2135.99 50.6342C2140.63 50.6342 2146.26 51.4259 2152.88 53.0095 2157.26 54.0422 2160.19 54.5585 2161.65 54.5585 2163.02 54.5585 2164.1 54.3176 2164.87 53.8356 2165.64 53.3537 2166.55 52.2866 2167.58 50.6342 2169 50.6342 2170.41 50.6342 2171.83 50.6342 2171.83 61.3745 2171.83 72.1149 2171.83 82.8552 2170.41 82.8552 2169 82.8552 2167.58 82.8552 2164.31 72.7345 2160.12 65.8497 2155.01 62.2007 2149.89 58.5518 2143.38 56.7273 2135.47 56.7273 2129.46 56.7273 2124.6 58.001 2120.91 60.5484 2117.21 63.0958 2115.36 65.9185 2115.36 69.0167 2115.36 72.8722 2116.74 76.1769 2119.49 78.9309 2122.15 81.7537 2127.57 84.7486 2135.73 87.9156 2142.01 90.3597 2148.28 92.8038 2154.56 95.2479 2172 102.064 2180.73 111.049 2180.73 122.202 2180.73 130.808 2176.67 137.745 2168.54 143.011 2160.42 148.278 2151.33 150.912 2141.28 150.912 2134.06 150.912 2125.8 149.879 2116.52 147.814 2113.69 147.125 2111.36 146.781 2109.56 146.781 2107.58 146.781 2106.04 147.676 2104.92 149.466 2103.5 149.466 2102.08 149.466 2100.66 149.466 2100.66 138.209 2100.66 126.953 2100.66 115.696 2102.08 115.696 2103.5 115.696 2104.92 115.696 2107.33 125.335 2111.92 132.598 2118.71 137.486 2125.5 142.375 2133.11 144.819 2141.53 144.819 2147.46 144.819 2152.3 143.425 2156.04 140.636 2159.78 137.848 2161.65 134.491 2161.65 130.567 2161.65 125.817 2159.56 121.823 2155.39 118.588 2151.22 115.352 2142.91 111.255 2130.45 106.298 2117.98 101.341 2109.82 96.8659 2105.95 92.8727 2102.08 88.9483 2100.15 83.9912 2100.15 78.0014 2100.15 70.2215 2103.48 63.7154 2110.14 58.4829 2116.8 53.2504 2125.42 50.6342 2135.99 50.6342ZM1515.16 50.6342C1533.04 50.6342 1547.39 56.0732 1558.22 66.9513 1567.42 76.2458 1572.02 86.9173 1572.02 98.9657 1572.02 107.434 1569.48 116.006 1564.41 124.681 1559.34 133.355 1552.36 139.896 1543.46 144.302 1534.56 148.709 1524.66 150.912 1513.74 150.912 1495.95 150.912 1481.81 145.232 1471.33 133.872 1462.47 124.302 1458.05 113.562 1458.05 101.651 1458.05 92.9759 1460.73 84.3527 1466.1 75.7811 1471.48 67.2094 1478.55 60.8754 1487.31 56.7789 1496.08 52.6824 1505.36 50.6342 1515.16 50.6342ZM1288.25 50.6342C1290.1 50.6342 1291.94 50.6342 1293.79 50.6342 1293.79 57.3125 1293.79 63.9908 1293.79 70.6691 1307.63 57.3125 1320.82 50.6342 1333.37 50.6342 1339.82 50.6342 1345.36 51.9251 1350.01 54.5069 1354.65 57.0887 1358.34 61.3401 1361.09 67.2611 1362.98 71.392 1363.93 77.726 1363.93 86.2632 1363.93 99.7231 1363.93 113.183 1363.93 126.643 1363.93 132.633 1364.53 136.695 1365.73 138.829 1366.68 140.55 1368.21 141.893 1370.31 142.857 1372.42 143.82 1376.31 144.302 1381.98 144.302 1381.98 145.542 1381.98 146.781 1381.98 148.02 1362.51 148.02 1343.04 148.02 1323.58 148.02 1323.58 146.781 1323.58 145.542 1323.58 144.302 1324.39 144.302 1325.21 144.302 1326.02 144.302 1331.53 144.302 1335.37 143.631 1337.56 142.289 1339.76 140.946 1341.28 138.967 1342.14 136.35 1342.48 135.318 1342.66 132.082 1342.66 126.643 1342.66 113.734 1342.66 100.825 1342.66 87.9156 1342.66 79.3095 1341.26 73.0615 1338.47 69.1716 1335.67 65.2817 1330.97 63.3367 1324.35 63.3367 1314.12 63.3367 1303.94 67.8119 1293.79 76.7621 1293.79 93.389 1293.79 110.016 1293.79 126.643 1293.79 133.046 1294.27 137.004 1295.21 138.519 1296.41 140.516 1298.07 141.979 1300.17 142.908 1302.28 143.838 1306.56 144.302 1313 144.302 1313 145.542 1313 146.781 1313 148.02 1293.54 148.02 1274.07 148.02 1254.6 148.02 1254.6 146.781 1254.6 145.542 1254.6 144.302 1255.46 144.302 1256.32 144.302 1257.18 144.302 1263.19 144.302 1267.26 143.08 1269.36 140.636 1271.47 138.192 1272.52 133.528 1272.52 126.643 1272.52 114.939 1272.52 103.234 1272.52 91.5301 1272.52 80.1701 1272.2 73.2509 1271.55 70.7723 1270.91 68.2938 1269.92 66.607 1268.59 65.712 1267.26 64.817 1265.47 64.3695 1263.24 64.3694 1260.83 64.3695 1257.95 64.8858 1254.6 65.9185 1253.95 64.6793 1253.31 63.44 1252.67 62.2007 1264.53 58.3452 1276.39 54.4897 1288.25 50.6342ZM1183.56 50.6342C1194.82 50.6342 1204.58 52.8373 1212.83 57.2436 1221.16 57.2436 1229.5 57.2436 1237.84 57.2436 1241.53 57.2436 1243.68 57.3297 1244.28 57.5018 1244.89 57.6739 1245.32 57.9665 1245.57 58.3796 1246.09 58.9993 1246.35 60.1008 1246.35 61.6844 1246.35 63.4744 1246.13 64.7137 1245.7 65.4022 1245.45 65.7464 1244.99 66.0218 1244.35 66.2283 1243.7 66.4349 1241.53 66.5382 1237.84 66.5382 1232.72 66.5382 1227.61 66.5382 1222.5 66.5382 1227.31 71.4952 1229.72 77.8293 1229.72 85.5403 1229.72 94.3529 1225.5 101.892 1217.08 108.157 1208.66 114.422 1197.36 117.555 1183.17 117.555 1177.33 117.555 1171.35 116.866 1165.25 115.489 1161.47 118.106 1158.91 120.395 1157.58 122.357 1156.25 124.319 1155.58 125.989 1155.58 127.366 1155.58 128.536 1156.29 129.672 1157.71 130.774 1159.13 131.875 1161.9 132.667 1166.03 133.149 1168.43 133.424 1174.45 133.665 1184.08 133.872 1201.78 134.216 1213.26 134.698 1218.5 135.318 1226.49 136.213 1232.87 138.588 1237.65 142.443 1242.42 146.299 1244.8 151.05 1244.8 156.695 1244.8 164.475 1240.24 171.773 1231.13 178.589 1217.73 188.641 1200.23 193.667 1178.66 193.667 1162.07 193.667 1148.06 190.672 1136.63 184.682 1130.18 181.24 1126.96 177.659 1126.96 173.942 1126.96 172.289 1127.43 170.637 1128.38 168.985 1129.84 166.437 1132.85 162.891 1137.4 158.347 1138.01 157.728 1142.39 154.01 1150.55 147.194 1146.09 145.06 1142.93 143.149 1141.08 141.462 1139.23 139.776 1138.31 137.865 1138.31 135.731 1138.31 133.321 1139.53 130.498 1141.98 127.262 1144.43 124.027 1150.08 119.448 1158.93 113.527 1151.72 110.704 1146.17 106.763 1142.3 101.702 1138.44 96.6421 1136.5 91.0482 1136.5 84.9207 1136.5 75.5573 1140.91 67.502 1149.72 60.7549 1158.53 54.0078 1169.81 50.6342 1183.56 50.6342ZM1089.07 50.6342C1090.96 50.6342 1092.85 50.6342 1094.74 50.6342 1094.74 75.9704 1094.74 101.307 1094.74 126.643 1094.74 132.564 1095.28 136.505 1096.35 138.467 1097.43 140.43 1099.02 141.893 1101.13 142.857 1103.23 143.82 1107.08 144.302 1112.66 144.302 1112.66 145.542 1112.66 146.781 1112.66 148.02 1093.54 148.02 1074.42 148.02 1055.29 148.02 1055.29 146.781 1055.29 145.542 1055.29 144.302 1061.05 144.302 1064.92 143.855 1066.9 142.96 1068.87 142.065 1070.44 140.585 1071.6 138.519 1072.76 136.454 1073.34 132.495 1073.34 126.643 1073.34 114.491 1073.34 102.339 1073.34 90.1876 1073.34 79.9292 1072.95 73.2853 1072.18 70.256 1071.58 68.0528 1070.63 66.521 1069.34 65.6603 1068.06 64.7998 1066.29 64.3695 1064.06 64.3694 1061.65 64.3695 1058.73 64.8858 1055.29 65.9185 1054.69 64.6793 1054.09 63.44 1053.49 62.2007 1065.35 58.3452 1077.21 54.4897 1089.07 50.6342ZM518.381 50.6342C520.186 50.6342 521.991 50.6342 523.795 50.6342 523.795 57.7256 523.795 64.817 523.795 71.9083 533.68 57.7256 543.822 50.6342 554.222 50.6342 558.95 50.6342 562.86 51.7874 565.955 54.0938 569.049 56.4002 570.596 59.0681 570.596 62.0974 570.596 64.7825 569.479 67.0545 567.244 68.9134 565.009 70.7723 562.345 71.7018 559.25 71.7018 556.242 71.7018 552.869 70.5142 549.13 68.1389 545.391 65.7636 542.619 64.576 540.814 64.576 539.267 64.576 537.591 65.2645 535.786 66.6414 531.918 69.4642 527.921 74.1115 523.795 80.5832 523.795 95.6954 523.795 110.808 523.795 125.92 523.795 131.152 524.612 135.111 526.245 137.796 527.362 139.655 529.339 141.204 532.176 142.443 535.012 143.683 539.095 144.302 544.424 144.302 544.424 145.542 544.424 146.781 544.424 148.02 524.268 148.02 504.113 148.02 483.957 148.02 483.957 146.781 483.957 145.542 483.957 144.302 489.974 144.302 494.443 143.545 497.365 142.03 499.514 140.929 501.018 139.173 501.878 136.763 502.308 135.593 502.522 132.254 502.522 126.746 502.522 114.525 502.522 102.305 502.522 90.0843 502.522 79.0686 502.243 72.5108 501.684 70.4109 501.126 68.311 500.094 66.7791 498.59 65.8152 497.086 64.8514 495.217 64.3695 492.982 64.3694 490.317 64.3695 487.309 64.8858 483.957 65.9185 483.527 64.6793 483.097 63.44 482.668 62.2007 494.572 58.3452 506.476 54.4897 518.381 50.6342ZM2034.24 50.5309C2047.47 50.5309 2058.35 54.025 2066.86 61.0131 2075.37 68.0012 2079.62 77.3474 2079.62 89.0516 2052.42 89.0516 2025.21 89.0516 1998.01 89.0516 1997.92 103.097 2002.18 114.112 2010.77 122.099 2019.37 130.085 2029.47 134.078 2041.07 134.078 2048.81 134.078 2055.53 132.374 2061.25 128.966 2066.96 125.558 2071.76 119.724 2075.62 111.462 2076.96 112.15 2078.29 112.839 2079.62 113.527 2077.81 122.959 2072.57 131.548 2063.89 139.294 2055.21 147.039 2044.34 150.912 2031.27 150.912 2017.09 150.912 2004.95 146.488 1994.85 137.641 1984.75 128.794 1979.7 116.901 1979.7 101.961 1979.7 85.7813 1984.88 73.1648 1995.24 64.1113 2005.59 55.0577 2018.59 50.5309 2034.24 50.5309ZM992.733 50.5309C1005.97 50.5309 1016.84 54.025 1025.35 61.0131 1033.86 68.0012 1038.12 77.3474 1038.12 89.0516 1010.91 89.0516 983.708 89.0516 956.505 89.0516 956.419 103.097 960.673 114.112 969.268 122.099 977.864 130.085 987.963 134.078 999.566 134.078 1007.3 134.078 1014.03 132.374 1019.74 128.966 1025.46 125.558 1030.25 119.724 1034.12 111.462 1035.45 112.15 1036.78 112.839 1038.12 113.527 1036.31 122.959 1031.07 131.548 1022.39 139.294 1013.71 147.039 1002.83 150.912 989.768 150.912 975.586 150.912 963.445 146.488 953.346 137.641 943.247 128.794 938.197 116.901 938.197 101.961 938.197 85.7813 943.375 73.1648 953.733 64.1113 964.09 55.0577 977.09 50.5309 992.733 50.5309ZM633.341 50.5309C646.577 50.5309 657.45 54.025 665.959 61.0131 674.469 68.0012 678.723 77.3474 678.723 89.0516 651.52 89.0516 624.316 89.0516 597.112 89.0516 597.026 103.097 601.281 114.112 609.876 122.099 618.471 130.085 628.57 134.078 640.174 134.078 647.91 134.078 654.635 132.374 660.351 128.966 666.067 125.558 670.859 119.724 674.727 111.462 676.059 112.15 677.391 112.839 678.723 113.527 676.918 122.959 671.675 131.548 662.994 139.294 654.313 147.039 643.44 150.912 630.375 150.912 616.193 150.912 604.053 146.488 593.953 137.641 583.854 128.794 578.805 116.901 578.805 101.961 578.805 85.7813 583.983 73.1648 594.34 64.1113 604.698 55.0577 617.698 50.5309 633.341 50.5309ZM314.174 22.3375C315.506 22.3375 316.838 22.3375 318.17 22.3375 318.17 32.6992 318.17 43.0609 318.17 53.4226 327.367 53.4226 336.564 53.4226 345.761 53.4226 345.761 55.8322 345.761 58.2419 345.761 60.6516 336.564 60.6516 327.367 60.6516 318.17 60.6516 318.17 81.0996 318.17 101.548 318.17 121.996 318.17 128.123 319.266 132.254 321.458 134.388 323.65 136.523 326.465 137.59 329.903 137.59 332.739 137.59 335.49 136.884 338.154 135.473 340.819 134.061 342.882 131.979 344.343 129.225 346.019 129.225 347.695 129.225 349.371 129.225 346.363 135.972 342.108 141.049 336.607 144.457 331.106 147.865 325.433 149.569 319.589 149.569 315.635 149.569 311.767 148.691 307.985 146.936 304.203 145.18 301.41 142.667 299.605 139.397 297.8 136.127 296.897 131.083 296.897 124.268 296.897 103.062 296.897 81.8569 296.897 60.6516 290.666 60.6516 284.434 60.6516 278.203 60.6516 278.203 59.5156 278.203 58.3796 278.203 57.2436 282.93 55.729 287.765 53.1644 292.707 49.5498 297.65 45.9353 302.055 41.6495 305.922 36.6924 307.899 34.0762 310.65 29.2912 314.174 22.3375ZM826.889 15.8314C821.904 15.8314 815.157 16.4854 806.648 17.7935 806.648 37.2088 806.648 56.624 806.648 76.0392 808.281 76.0392 809.699 76.0564 810.903 76.0909 812.106 76.1253 813.094 76.1425 813.868 76.1425 830.542 76.1425 843.113 73.2509 851.579 67.4676 860.045 61.6844 864.278 54.3176 864.278 45.3673 864.278 36.6236 860.862 29.515 854.029 24.0415 847.195 18.5681 838.149 15.8314 826.889 15.8314ZM1739.58 7.98264C1756.08 7.98264 1772.59 7.98264 1789.09 7.98264 1810.23 44.5067 1831.38 81.0307 1852.52 117.555 1873.32 81.0307 1894.12 44.5067 1914.92 7.98264 1931.43 7.98264 1947.93 7.98264 1964.43 7.98264 1964.43 9.25633 1964.43 10.53 1964.43 11.8037 1962.41 11.8037 1960.39 11.8037 1958.37 11.8037 1950.89 11.8037 1945.61 13.5938 1942.51 17.1739 1940.62 19.377 1939.68 24.403 1939.68 32.2517 1939.68 62.7515 1939.68 93.2513 1939.68 123.751 1939.68 132.357 1940.88 137.727 1943.29 139.862 1946.47 142.753 1951.49 144.199 1958.37 144.199 1960.39 144.199 1962.41 144.199 1964.43 144.199 1964.43 145.473 1964.43 146.746 1964.43 148.02 1939.68 148.02 1914.92 148.02 1890.17 148.02 1890.17 146.746 1890.17 145.473 1890.17 144.199 1892.23 144.199 1894.29 144.199 1896.36 144.199 1903.83 144.199 1909.08 142.409 1912.09 138.829 1913.98 136.626 1914.92 131.6 1914.92 123.751 1914.92 92.5628 1914.92 61.3745 1914.92 30.1862 1892.45 69.4642 1869.97 108.742 1847.49 148.02 1846.08 148.02 1844.66 148.02 1843.24 148.02 1820.72 108.742 1798.2 69.4642 1775.68 30.1862 1775.68 61.3745 1775.68 92.5628 1775.68 123.751 1775.68 132.357 1776.84 137.727 1779.16 139.862 1782.34 142.753 1787.37 144.199 1794.25 144.199 1796.31 144.199 1798.37 144.199 1800.43 144.199 1800.43 145.473 1800.43 146.746 1800.43 148.02 1780.15 148.02 1759.87 148.02 1739.58 148.02 1739.58 146.746 1739.58 145.473 1739.58 144.199 1741.64 144.199 1743.71 144.199 1745.77 144.199 1753.16 144.199 1758.4 142.409 1761.5 138.829 1763.39 136.626 1764.34 131.6 1764.34 123.751 1764.34 93.2513 1764.34 62.7515 1764.34 32.2517 1764.34 26.0553 1763.48 21.5802 1761.76 18.8263 1760.55 16.8297 1758.34 15.1601 1755.12 13.8175 1751.89 12.475 1746.72 11.8037 1739.58 11.8037 1739.58 10.53 1739.58 9.25633 1739.58 7.98264ZM756.882 7.98264C778.112 7.98264 799.342 7.98264 820.572 7.98264 839.138 7.98264 852.825 9.067 861.635 11.2357 870.445 13.4044 877.923 17.3977 884.069 23.2153 890.214 29.033 893.287 35.9695 893.287 44.0247 893.287 52.6308 889.785 60.1009 882.78 66.4349 875.775 72.7689 864.923 77.2441 850.225 79.8603 862.259 93.2513 874.292 106.642 886.325 120.033 894.576 129.259 901.667 135.387 907.598 138.416 913.529 141.445 921.264 143.373 930.805 144.199 930.805 145.473 930.805 146.746 930.805 148.02 915.248 148.02 899.69 148.02 884.133 148.02 864.407 126.195 844.681 104.37 824.956 82.5454 820.572 82.6831 817.005 82.752 814.255 82.752 813.137 82.752 811.934 82.7347 810.645 82.7003 809.355 82.6659 808.023 82.6143 806.648 82.5454 806.648 96.1085 806.648 109.672 806.648 123.235 806.648 132.047 807.851 137.521 810.258 139.655 813.524 142.684 818.423 144.199 824.956 144.199 827.233 144.199 829.511 144.199 831.789 144.199 831.789 145.473 831.789 146.746 831.789 148.02 806.82 148.02 781.851 148.02 756.882 148.02 756.882 146.746 756.882 145.473 756.882 144.199 759.074 144.199 761.265 144.199 763.457 144.199 770.849 144.199 776.135 142.271 779.315 138.416 781.12 136.282 782.023 131.221 782.023 123.235 782.023 93.0792 782.023 62.9236 782.023 32.768 782.023 23.9555 780.819 18.482 778.413 16.3477 775.061 13.3184 770.076 11.8037 763.457 11.8037 761.265 11.8037 759.074 11.8037 756.882 11.8037 756.882 10.53 756.882 9.25633 756.882 7.98264ZM1.16665 7.98264C44.5292 7.98264 87.8918 7.98264 131.254 7.98264 131.813 18.241 132.372 28.4994 132.93 38.7579 131.426 38.7579 129.922 38.7579 128.418 38.7579 126.183 32.2173 123.583 27.4151 120.618 24.3513 117.653 21.2876 114 19.0672 109.659 17.6903 105.319 16.3133 98.5927 15.6248 89.4819 15.6248 76.6322 15.6248 63.7824 15.6248 50.9326 15.6248 50.9326 33.9729 50.9326 52.321 50.9326 70.6691 61.5476 70.6691 72.1626 70.6691 82.7776 70.6691 90.0837 70.6691 95.434 69.3782 98.8292 66.7963 102.224 64.2145 104.48 59.1025 105.598 51.4604 107.188 51.4604 108.778 51.4604 110.368 51.4604 110.368 67.2611 110.368 83.0618 110.368 98.8625 108.778 98.8625 107.188 98.8625 105.598 98.8625 105.512 93.4234 104.631 89.4302 102.955 86.8828 101.279 84.3355 98.9581 82.4249 95.9928 81.1512 93.0274 79.8775 88.6224 79.2407 82.7776 79.2407 72.1626 79.2407 61.5476 79.2407 50.9326 79.2407 50.9326 93.9054 50.9326 108.57 50.9326 123.235 50.9326 130.326 51.4913 135.008 52.6087 137.28 53.4681 139.001 55.2731 140.481 58.0236 141.721 61.8055 143.373 65.7593 144.199 69.885 144.199 71.9908 144.199 74.0966 144.199 76.2024 144.199 76.2024 145.473 76.2024 146.746 76.2024 148.02 51.1905 148.02 26.1786 148.02 1.16665 148.02 1.16665 146.746 1.16665 145.473 1.16665 144.199 3.22949 144.199 5.29233 144.199 7.35517 144.199 14.5751 144.199 19.8182 142.512 23.0843 139.139 25.1471 136.936 26.1786 131.634 26.1786 123.235 26.1786 93.0792 26.1786 62.9236 26.1786 32.768 26.1786 25.6767 25.6199 20.995 24.5025 18.723 23.643 17.0018 21.881 15.5215 19.2165 14.2823 15.5206 12.6299 11.5668 11.8037 7.35517 11.8037 5.29233 11.8037 3.22949 11.8037 1.16665 11.8037 1.16665 10.53 1.16665 9.25633 1.16665 7.98264ZM1663.56 1.37321C1672.58 1.37321 1680.88 3.71406 1688.44 8.39573 1693.42 11.4939 1695.92 14.9708 1695.92 18.8263 1695.92 20.8917 1694.8 22.8367 1692.57 24.6612 1690.33 26.4856 1687.92 27.3979 1685.35 27.3979 1683.37 27.3979 1681.28 26.8299 1679.09 25.6939 1676.9 24.5579 1674.21 22.1138 1671.03 18.3615 1667.85 14.6093 1664.93 12.0791 1662.27 10.771 1659.6 9.46288 1656.64 8.80882 1653.37 8.80882 1649.42 8.80882 1646.07 9.65222 1643.32 11.339 1640.56 13.0258 1638.59 15.642 1637.38 19.1877 1636.18 22.7334 1635.58 31.873 1635.58 46.6066 1635.58 48.8786 1635.58 51.1506 1635.58 53.4226 1645.72 53.4226 1655.86 53.4226 1666.01 53.4226 1666.01 55.9011 1666.01 58.3796 1666.01 60.8582 1655.86 60.8582 1645.72 60.8582 1635.58 60.8582 1635.58 81.5815 1635.58 102.305 1635.58 123.028 1635.58 131.841 1636.78 137.418 1639.19 139.758 1642.37 142.788 1646.62 144.302 1651.95 144.302 1655.52 144.302 1659.09 144.302 1662.65 144.302 1662.65 145.542 1662.65 146.781 1662.65 148.02 1639.15 148.02 1615.64 148.02 1592.13 148.02 1592.13 146.781 1592.13 145.542 1592.13 144.302 1593.89 144.302 1595.66 144.302 1597.42 144.302 1600.86 144.302 1603.99 143.614 1606.83 142.237 1609.67 140.86 1611.62 139.001 1612.69 136.66 1613.77 134.319 1614.31 129.775 1614.31 123.028 1614.31 102.305 1614.31 81.5815 1614.31 60.8582 1606.66 60.8582 1599.01 60.8582 1591.36 60.8582 1591.36 58.3796 1591.36 55.9011 1591.36 53.4226 1599.01 53.4226 1606.66 53.4226 1614.31 53.4226 1614.31 51.3571 1614.31 49.2916 1614.31 47.2262 1614.31 37.794 1616.2 29.8076 1619.98 23.267 1623.76 16.7264 1629.54 11.4423 1637.32 7.41464 1645.1 3.38702 1653.84 1.37321 1663.56 1.37321ZM2520.32 1.16666C2522.3 1.16666 2524.28 1.16666 2526.25 1.16666 2526.25 24.2309 2526.25 47.2951 2526.25 70.3593 2535.79 61.9598 2543.36 56.5724 2548.94 54.1971 2554.53 51.8218 2560.12 50.6342 2565.71 50.6342 2572.41 50.6342 2578.17 52.1144 2582.98 55.0749 2587.79 58.0354 2591.36 62.6827 2593.68 69.0167 2595.32 73.423 2596.13 81.4783 2596.13 93.1825 2596.13 104.336 2596.13 115.489 2596.13 126.643 2596.13 132.633 2596.73 136.729 2597.94 138.932 2598.8 140.585 2600.26 141.893 2602.32 142.857 2604.38 143.82 2608.17 144.302 2613.67 144.302 2613.67 145.542 2613.67 146.781 2613.67 148.02 2594.33 148.02 2574.99 148.02 2555.65 148.02 2555.65 146.781 2555.65 145.542 2555.65 144.302 2556.55 144.302 2557.45 144.302 2558.36 144.302 2563.86 144.302 2567.68 143.631 2569.83 142.289 2571.98 140.946 2573.48 138.967 2574.34 136.35 2574.6 135.249 2574.73 132.013 2574.73 126.643 2574.73 115.489 2574.73 104.336 2574.73 93.1825 2574.73 82.8552 2574.06 76.0737 2572.73 72.8378 2571.4 69.6019 2569.27 67.175 2566.35 65.5571 2563.43 63.9391 2559.9 63.1302 2555.78 63.1302 2551.57 63.1302 2547.18 64.0252 2542.63 65.8152 2538.07 67.6053 2532.61 71.2199 2526.25 76.6589 2526.25 93.3202 2526.25 109.981 2526.25 126.643 2526.25 133.115 2526.7 137.142 2527.61 138.726 2528.51 140.309 2530.19 141.634 2532.64 142.702 2535.09 143.769 2539.32 144.302 2545.33 144.302 2545.33 145.542 2545.33 146.781 2545.33 148.02 2525.82 148.02 2506.31 148.02 2486.8 148.02 2486.8 146.781 2486.8 145.542 2486.8 144.302 2492.04 144.302 2496.17 143.648 2499.18 142.34 2500.9 141.652 2502.27 140.344 2503.3 138.416 2504.34 136.488 2504.85 132.564 2504.85 126.643 2504.85 98.1051 2504.85 69.5675 2504.85 41.0298 2504.85 30.2207 2504.53 23.5768 2503.88 21.0982 2503.24 18.6197 2502.25 16.9329 2500.92 16.0379 2499.59 15.1429 2497.8 14.6954 2495.57 14.6954 2493.76 14.6954 2490.84 15.2461 2486.8 16.3477 2486.2 15.1429 2485.6 13.938 2485 12.7332 2496.77 8.87767 2508.55 5.02216 2520.32 1.16666ZM2330.91 1.16666C2334.52 1.16666 2337.6 2.18218 2340.13 4.2132 2342.67 6.24423 2343.94 8.70555 2343.94 11.5972 2343.94 14.4888 2342.67 16.9674 2340.13 19.0328 2337.6 21.0982 2334.52 22.131 2330.91 22.131 2327.3 22.131 2324.21 21.0982 2321.63 19.0328 2319.05 16.9674 2317.76 14.4888 2317.76 11.5972 2317.76 8.70555 2319.03 6.24423 2321.57 4.2132 2324.1 2.18218 2327.22 1.16666 2330.91 1.16666ZM1084.04 1.16666C1087.65 1.16666 1090.73 2.18218 1093.26 4.2132 1095.8 6.24423 1097.06 8.70555 1097.06 11.5972 1097.06 14.4888 1095.8 16.9674 1093.26 19.0328 1090.73 21.0982 1087.65 22.131 1084.04 22.131 1080.43 22.131 1077.34 21.0982 1074.76 19.0328 1072.18 16.9674 1070.89 14.4888 1070.89 11.5972 1070.89 8.70555 1072.16 6.24423 1074.7 4.2132 1077.23 2.18218 1080.35 1.16666 1084.04 1.16666Z" fill="#FFFF00" fill-rule="evenodd" fill-opacity="1"/></g></g><path d="M1541.48 201.854C1537.44 205.365 1534.39 208.635 1532.33 211.664 1530.26 214.694 1529.23 217.482 1529.23 220.029 1529.23 223.334 1531.72 226.226 1536.71 228.704 1545.3 232.973 1557.72 235.107 1573.97 235.107 1589.44 235.107 1600.85 232.921 1608.2 228.549 1615.55 224.178 1619.22 219.513 1619.22 214.556 1619.22 210.976 1617.03 208.429 1612.65 206.914 1608.18 205.399 1599.32 204.504 1586.09 204.229 1566.75 203.816 1551.88 203.024 1541.48 201.854ZM2824.97 145.467C2811.99 149.598 2803.61 152.524 2799.83 154.245 2793.03 157.274 2788.18 160.441 2785.26 163.746 2782.33 167.051 2780.87 170.665 2780.87 174.59 2780.87 179.547 2782.72 183.66 2786.42 186.931 2790.11 190.201 2794.37 191.836 2799.18 191.836 2805.71 191.836 2814.31 188.394 2824.97 181.509 2824.97 169.495 2824.97 157.481 2824.97 145.467ZM2410.85 111.697C2403.72 111.697 2397.33 113.917 2391.71 118.358 2386.08 122.798 2382.79 128.978 2381.84 136.895 2400.06 136.895 2418.29 136.895 2436.51 136.895 2436.08 130.836 2435.18 126.568 2433.8 124.089 2431.65 120.234 2428.45 117.204 2424.19 115.001 2419.94 112.798 2415.49 111.697 2410.85 111.697ZM1369.35 111.697C1362.21 111.697 1355.83 113.917 1350.2 118.358 1344.57 122.798 1341.28 128.978 1340.34 136.895 1358.56 136.895 1376.78 136.895 1395 136.895 1394.57 130.836 1393.67 126.568 1392.3 124.089 1390.15 120.234 1386.94 117.204 1382.69 115.001 1378.44 112.798 1373.99 111.697 1369.35 111.697ZM1009.95 111.697C1002.82 111.697 996.438 113.917 990.809 118.358 985.179 122.798 981.891 128.978 980.946 136.895 999.167 136.895 1017.39 136.895 1035.61 136.895 1035.18 130.836 1034.28 126.568 1032.9 124.089 1030.75 120.234 1027.55 117.204 1023.3 115.001 1019.04 112.798 1014.6 111.697 1009.95 111.697ZM1895 111.18C1890.44 111.18 1885.87 112.265 1881.27 114.433 1876.67 116.602 1872.95 120.406 1870.11 125.845 1867.28 131.284 1865.86 138.272 1865.86 146.809 1865.86 160.579 1869.28 172.455 1876.11 182.438 1882.94 192.421 1891.95 197.413 1903.12 197.413 1911.46 197.413 1918.33 194.659 1923.75 189.151 1929.16 183.643 1931.87 174.176 1931.87 160.751 1931.87 143.952 1927.36 130.733 1918.33 121.094 1912.23 114.485 1904.45 111.18 1895 111.18ZM1565.2 109.425C1558.84 109.425 1553.51 111.456 1549.21 115.518 1544.92 119.58 1542.77 125.811 1542.77 134.21 1542.77 145.088 1545.69 153.522 1551.54 159.512 1556 164.056 1561.68 166.328 1568.55 166.328 1575.09 166.328 1580.46 164.366 1584.67 160.441 1588.88 156.517 1590.99 150.355 1590.99 141.955 1590.99 131.009 1588.02 122.437 1582.09 116.241 1577.71 111.697 1572.08 109.425 1565.2 109.425ZM733.061 107.256C746.856 107.256 760.652 107.256 774.447 107.256 774.447 128.358 774.447 149.46 774.447 170.562 774.447 179.375 776.359 185.158 780.184 187.912 784.009 190.666 788.629 192.043 794.044 192.043 797.74 192.043 801.93 191.113 806.614 189.254 811.299 187.395 816.864 183.85 823.31 178.617 823.31 160.751 823.31 142.885 823.31 125.019 823.31 119.649 822.086 116.017 819.636 114.124 817.186 112.23 812.094 111.215 804.358 111.077 804.358 109.803 804.358 108.53 804.358 107.256 817.767 107.256 831.175 107.256 844.583 107.256 844.583 126.361 844.583 145.467 844.583 164.572 844.583 175.519 844.906 182.215 845.55 184.659 846.195 187.103 847.226 188.807 848.645 189.771 850.063 190.735 851.717 191.216 853.608 191.216 856.273 191.216 859.281 190.631 862.633 189.461 863.235 190.666 863.837 191.871 864.438 193.075 852.663 196.965 840.887 200.855 829.112 204.745 827.178 204.745 825.244 204.745 823.31 204.745 823.31 198.067 823.31 191.389 823.31 184.71 813.168 193.523 805.432 199.065 800.103 201.337 794.774 203.609 789.144 204.745 783.214 204.745 776.596 204.745 770.858 203.213 766.002 200.15 761.146 197.086 757.772 193.144 755.881 188.325 753.99 183.505 753.045 176.689 753.045 167.877 753.045 153.797 753.045 139.718 753.045 125.638 753.045 121.163 752.443 118.065 751.24 116.344 750.037 114.623 748.253 113.297 745.889 112.368 743.526 111.438 739.25 111.008 733.061 111.077 733.061 109.803 733.061 108.53 733.061 107.256ZM527.694 107.256C541.489 107.256 555.284 107.256 569.08 107.256 569.08 128.358 569.08 149.46 569.08 170.562 569.08 179.375 570.992 185.158 574.817 187.912 578.642 190.666 583.262 192.043 588.677 192.043 592.373 192.043 596.563 191.113 601.247 189.254 605.931 187.395 611.497 183.85 617.943 178.617 617.943 160.751 617.943 142.885 617.943 125.019 617.943 119.649 616.718 116.017 614.269 114.124 611.819 112.23 606.726 111.215 598.991 111.077 598.991 109.803 598.991 108.53 598.991 107.256 612.399 107.256 625.808 107.256 639.216 107.256 639.216 126.361 639.216 145.467 639.216 164.572 639.216 175.519 639.539 182.215 640.183 184.659 640.828 187.103 641.859 188.807 643.277 189.771 644.696 190.735 646.35 191.216 648.241 191.216 650.906 191.216 653.914 190.631 657.266 189.461 657.868 190.666 658.469 191.871 659.071 193.075 647.296 196.965 635.52 200.855 623.745 204.745 621.811 204.745 619.877 204.745 617.943 204.745 617.943 198.067 617.943 191.389 617.943 184.71 607.801 193.523 600.065 199.065 594.736 201.337 589.407 203.609 583.777 204.745 577.847 204.745 571.228 204.745 565.491 203.213 560.635 200.15 555.779 197.086 552.405 193.144 550.514 188.325 548.623 183.505 547.678 176.689 547.678 167.877 547.678 153.797 547.678 139.718 547.678 125.638 547.678 121.163 547.076 118.065 545.873 116.344 544.669 114.623 542.886 113.297 540.522 112.368 538.159 111.438 533.882 111.008 527.694 111.077 527.694 109.803 527.694 108.53 527.694 107.256ZM2806.92 104.468C2817.4 104.468 2826 105.879 2832.7 108.702 2837.77 110.836 2841.51 114.175 2843.92 118.719 2845.47 121.68 2846.24 127.738 2846.24 136.895 2846.24 147.601 2846.24 158.307 2846.24 169.013 2846.24 178.032 2846.45 183.557 2846.88 185.588 2847.31 187.619 2848.02 188.979 2849.01 189.667 2850 190.356 2851.14 190.7 2852.43 190.7 2853.8 190.7 2855.01 190.459 2856.04 189.977 2857.84 189.082 2861.32 186.569 2866.48 182.438 2866.48 184.366 2866.48 186.294 2866.48 188.222 2856.85 198.549 2847.66 203.712 2838.89 203.712 2834.68 203.712 2831.33 202.542 2828.83 200.201 2826.34 197.86 2825.05 193.867 2824.97 188.222 2812.85 195.726 2805.24 200.063 2802.15 201.234 2797.5 202.955 2792.56 203.816 2787.32 203.816 2779.15 203.816 2772.43 201.578 2767.14 197.103 2761.86 192.628 2759.21 186.741 2759.21 179.443 2759.21 174.831 2760.5 170.837 2763.08 167.464 2766.6 162.782 2772.73 158.376 2781.45 154.245 2790.18 150.114 2804.68 145.088 2824.97 139.167 2824.97 137.928 2824.97 136.689 2824.97 135.449 2824.97 126.017 2823.1 119.545 2819.36 116.034 2815.62 112.523 2810.18 110.767 2803.05 110.767 2797.63 110.767 2793.34 111.938 2790.16 114.278 2786.89 116.619 2785.26 119.304 2785.26 122.334 2785.34 124.33 2785.43 126.327 2785.51 128.324 2785.51 131.491 2784.5 133.935 2782.48 135.656 2780.46 137.377 2777.82 138.238 2774.56 138.238 2771.38 138.238 2768.78 137.343 2766.76 135.553 2764.74 133.763 2763.73 131.318 2763.73 128.22 2763.73 122.299 2767.51 116.86 2775.07 111.903 2782.63 106.946 2793.25 104.468 2806.92 104.468ZM2719.78 104.468C2721.67 104.468 2723.56 104.468 2725.45 104.468 2725.45 129.804 2725.45 155.14 2725.45 180.476 2725.45 186.397 2725.99 190.339 2727.06 192.301 2728.13 194.263 2729.72 195.726 2731.83 196.69 2733.94 197.654 2737.78 198.136 2743.37 198.136 2743.37 199.375 2743.37 200.614 2743.37 201.854 2724.25 201.854 2705.12 201.854 2686 201.854 2686 200.614 2686 199.375 2686 198.136 2691.76 198.136 2695.62 197.688 2697.6 196.793 2699.58 195.898 2701.15 194.418 2702.31 192.352 2703.47 190.287 2704.05 186.328 2704.05 180.476 2704.05 168.324 2704.05 156.173 2704.05 144.021 2704.05 133.763 2703.66 127.119 2702.89 124.089 2702.28 121.886 2701.34 120.354 2700.05 119.494 2698.76 118.633 2697 118.203 2694.76 118.203 2692.36 118.203 2689.43 118.719 2686 119.752 2685.4 118.513 2684.79 117.273 2684.19 116.034 2696.05 112.179 2707.91 108.323 2719.78 104.468ZM2622.51 104.468C2627.15 104.468 2632.78 105.259 2639.4 106.843 2643.78 107.876 2646.7 108.392 2648.16 108.392 2649.54 108.392 2650.61 108.151 2651.39 107.669 2652.16 107.187 2653.06 106.12 2654.09 104.468 2655.51 104.468 2656.93 104.468 2658.35 104.468 2658.35 115.208 2658.35 125.948 2658.35 136.689 2656.93 136.689 2655.51 136.689 2654.09 136.689 2650.83 126.568 2646.64 119.683 2641.52 116.034 2636.41 112.385 2629.9 110.561 2621.99 110.561 2615.97 110.561 2611.12 111.834 2607.42 114.382 2603.73 116.929 2601.88 119.752 2601.88 122.85 2601.88 126.706 2603.25 130.01 2606 132.764 2608.67 135.587 2614.08 138.582 2622.25 141.749 2628.52 144.193 2634.8 146.637 2641.07 149.081 2658.52 155.897 2667.24 164.882 2667.24 176.035 2667.24 184.641 2663.18 191.578 2655.06 196.845 2646.94 202.112 2637.85 204.745 2627.79 204.745 2620.57 204.745 2612.32 203.712 2603.04 201.647 2600.2 200.958 2597.88 200.614 2596.08 200.614 2594.1 200.614 2592.55 201.509 2591.44 203.299 2590.02 203.299 2588.6 203.299 2587.18 203.299 2587.18 192.043 2587.18 180.786 2587.18 169.529 2588.6 169.529 2590.02 169.529 2591.44 169.529 2593.84 179.168 2598.44 186.431 2605.23 191.32 2612.02 196.208 2619.63 198.652 2628.05 198.652 2633.98 198.652 2638.82 197.258 2642.55 194.47 2646.29 191.681 2648.16 188.325 2648.16 184.4 2648.16 179.65 2646.08 175.657 2641.91 172.421 2637.74 169.185 2629.43 165.089 2616.96 160.131 2604.5 155.174 2596.33 150.699 2592.47 146.706 2588.6 142.782 2586.66 137.825 2586.67 131.835 2586.66 124.055 2590 117.549 2596.66 112.316 2603.32 107.084 2611.93 104.468 2622.51 104.468ZM2519.82 104.468C2524.46 104.468 2530.09 105.259 2536.71 106.843 2541.1 107.876 2544.02 108.392 2545.48 108.392 2546.85 108.392 2547.93 108.151 2548.7 107.669 2549.48 107.187 2550.38 106.12 2551.41 104.468 2552.83 104.468 2554.25 104.468 2555.67 104.468 2555.67 115.208 2555.67 125.948 2555.67 136.689 2554.25 136.689 2552.83 136.689 2551.41 136.689 2548.14 126.568 2543.95 119.683 2538.84 116.034 2533.73 112.385 2527.22 110.561 2519.31 110.561 2513.29 110.561 2508.43 111.834 2504.74 114.382 2501.04 116.929 2499.19 119.752 2499.19 122.85 2499.19 126.706 2500.57 130.01 2503.32 132.764 2505.99 135.587 2511.4 138.582 2519.57 141.749 2525.84 144.193 2532.11 146.637 2538.39 149.081 2555.84 155.897 2564.56 164.882 2564.56 176.035 2564.56 184.641 2560.5 191.578 2552.38 196.845 2544.25 202.112 2535.17 204.745 2525.11 204.745 2517.89 204.745 2509.64 203.712 2500.36 201.647 2497.52 200.958 2495.2 200.614 2493.39 200.614 2491.42 200.614 2489.87 201.509 2488.75 203.299 2487.33 203.299 2485.92 203.299 2484.5 203.299 2484.5 192.043 2484.5 180.786 2484.5 169.529 2485.92 169.529 2487.33 169.529 2488.75 169.529 2491.16 179.168 2495.76 186.431 2502.55 191.32 2509.34 196.208 2516.94 198.652 2525.37 198.652 2531.3 198.652 2536.13 197.258 2539.87 194.47 2543.61 191.681 2545.48 188.325 2545.48 184.4 2545.48 179.65 2543.4 175.657 2539.23 172.421 2535.06 169.185 2526.74 165.089 2514.28 160.131 2501.82 155.174 2493.65 150.699 2489.78 146.706 2485.92 142.782 2483.98 137.825 2483.98 131.835 2483.98 124.055 2487.31 117.549 2493.97 112.316 2500.63 107.084 2509.25 104.468 2519.82 104.468ZM1898.99 104.468C1916.87 104.468 1931.23 109.907 1942.06 120.785 1951.25 130.079 1955.85 140.751 1955.85 152.799 1955.85 161.267 1953.32 169.839 1948.24 178.514 1943.17 187.189 1936.19 193.729 1927.29 198.136 1918.4 202.542 1908.49 204.745 1897.58 204.745 1879.78 204.745 1865.65 199.065 1855.16 187.705 1846.31 178.135 1841.88 167.395 1841.88 155.484 1841.88 146.809 1844.57 138.186 1849.94 129.614 1855.31 121.043 1862.38 114.709 1871.15 110.612 1879.91 106.516 1889.2 104.468 1898.99 104.468ZM1672.08 104.468C1673.93 104.468 1675.78 104.468 1677.63 104.468 1677.63 111.146 1677.63 117.824 1677.63 124.502 1691.46 111.146 1704.66 104.468 1717.21 104.468 1723.65 104.468 1729.2 105.758 1733.84 108.34 1738.48 110.922 1742.18 115.173 1744.93 121.094 1746.82 125.225 1747.76 131.559 1747.76 140.097 1747.76 153.556 1747.76 167.016 1747.76 180.476 1747.76 186.466 1748.36 190.528 1749.57 192.662 1750.51 194.383 1752.04 195.726 1754.14 196.69 1756.25 197.654 1760.14 198.136 1765.81 198.136 1765.81 199.375 1765.81 200.614 1765.81 201.854 1746.34 201.854 1726.88 201.854 1707.41 201.854 1707.41 200.614 1707.41 199.375 1707.41 198.136 1708.23 198.136 1709.04 198.136 1709.86 198.136 1715.36 198.136 1719.21 197.464 1721.4 196.122 1723.59 194.779 1725.11 192.8 1725.97 190.184 1726.32 189.151 1726.49 185.915 1726.49 180.476 1726.49 167.567 1726.49 154.658 1726.49 141.749 1726.49 133.143 1725.09 126.895 1722.3 123.005 1719.51 119.115 1714.8 117.17 1708.18 117.17 1697.95 117.17 1687.77 121.645 1677.63 130.595 1677.63 147.222 1677.63 163.849 1677.63 180.476 1677.63 186.879 1678.1 190.838 1679.04 192.352 1680.25 194.349 1681.9 195.812 1684.01 196.742 1686.11 197.671 1690.39 198.136 1696.84 198.136 1696.84 199.375 1696.84 200.614 1696.84 201.854 1677.37 201.854 1657.9 201.854 1638.43 201.854 1638.43 200.614 1638.43 199.375 1638.43 198.136 1639.29 198.136 1640.15 198.136 1641.01 198.136 1647.03 198.136 1651.09 196.914 1653.19 194.47 1655.3 192.025 1656.35 187.361 1656.35 180.476 1656.35 168.772 1656.35 157.068 1656.35 145.363 1656.35 134.003 1656.03 127.084 1655.39 124.606 1654.74 122.127 1653.75 120.44 1652.42 119.545 1651.09 118.65 1649.31 118.203 1647.07 118.203 1644.66 118.203 1641.78 118.719 1638.43 119.752 1637.79 118.513 1637.14 117.273 1636.5 116.034 1648.36 112.179 1660.22 108.323 1672.08 104.468ZM1567.39 104.468C1578.65 104.468 1588.41 106.671 1596.66 111.077 1605 111.077 1613.33 111.077 1621.67 111.077 1625.37 111.077 1627.52 111.163 1628.12 111.335 1628.72 111.507 1629.15 111.8 1629.41 112.213 1629.92 112.833 1630.18 113.934 1630.18 115.518 1630.18 117.308 1629.97 118.547 1629.54 119.236 1629.28 119.58 1628.83 119.855 1628.18 120.062 1627.54 120.268 1625.37 120.372 1621.67 120.371 1616.56 120.371 1611.44 120.371 1606.33 120.371 1611.14 125.329 1613.55 131.663 1613.55 139.374 1613.55 148.186 1609.34 155.725 1600.91 161.99 1592.49 168.256 1581.19 171.388 1567.01 171.388 1561.16 171.388 1555.19 170.7 1549.09 169.323 1545.3 171.939 1542.75 174.228 1541.41 176.19 1540.08 178.152 1539.42 179.822 1539.42 181.199 1539.42 182.369 1540.13 183.505 1541.54 184.607 1542.96 185.709 1545.73 186.5 1549.86 186.982 1552.27 187.258 1558.28 187.499 1567.91 187.705 1585.62 188.049 1597.09 188.531 1602.33 189.151 1610.33 190.046 1616.71 192.421 1621.48 196.277 1626.25 200.132 1628.63 204.883 1628.63 210.528 1628.63 218.308 1624.08 225.606 1614.97 232.422 1601.56 242.474 1584.07 247.5 1562.49 247.5 1545.91 247.5 1531.9 244.505 1520.46 238.515 1514.02 235.073 1510.79 231.493 1510.79 227.775 1510.79 226.123 1511.27 224.47 1512.21 222.818 1513.67 220.27 1516.68 216.725 1521.24 212.181 1521.84 211.561 1526.22 207.843 1534.39 201.027 1529.92 198.893 1526.76 196.982 1524.91 195.296 1523.06 193.609 1522.14 191.698 1522.14 189.564 1522.14 187.154 1523.36 184.332 1525.81 181.096 1528.26 177.86 1533.92 173.281 1542.77 167.36 1535.55 164.538 1530 160.596 1526.14 155.536 1522.27 150.475 1520.33 144.882 1520.33 138.754 1520.33 129.391 1524.74 121.335 1533.55 114.588 1542.36 107.841 1553.64 104.468 1567.39 104.468ZM1472.9 104.468C1474.79 104.468 1476.69 104.468 1478.58 104.468 1478.58 129.804 1478.58 155.14 1478.58 180.476 1478.58 186.397 1479.11 190.339 1480.19 192.301 1481.26 194.263 1482.85 195.726 1484.96 196.69 1487.06 197.654 1490.91 198.136 1496.5 198.136 1496.5 199.375 1496.5 200.614 1496.5 201.854 1477.37 201.854 1458.25 201.854 1439.12 201.854 1439.12 200.614 1439.12 199.375 1439.12 198.136 1444.88 198.136 1448.75 197.688 1450.73 196.793 1452.71 195.898 1454.27 194.418 1455.43 192.352 1456.59 190.287 1457.17 186.328 1457.17 180.476 1457.17 168.324 1457.17 156.173 1457.17 144.021 1457.17 133.763 1456.79 127.119 1456.01 124.089 1455.41 121.886 1454.47 120.354 1453.18 119.494 1451.89 118.633 1450.13 118.203 1447.89 118.203 1445.49 118.203 1442.56 118.719 1439.12 119.752 1438.52 118.513 1437.92 117.273 1437.32 116.034 1449.18 112.179 1461.04 108.323 1472.9 104.468ZM902.214 104.468C904.019 104.468 905.824 104.468 907.629 104.468 907.629 111.559 907.629 118.65 907.629 125.742 917.513 111.559 927.656 104.468 938.056 104.468 942.783 104.468 946.694 105.621 949.788 107.927 952.882 110.234 954.43 112.901 954.43 115.931 954.43 118.616 953.312 120.888 951.077 122.747 948.843 124.606 946.178 125.535 943.084 125.535 940.076 125.535 936.702 124.348 932.963 121.972 929.224 119.597 926.452 118.409 924.647 118.409 923.1 118.409 921.424 119.098 919.619 120.475 915.751 123.298 911.755 127.945 907.629 134.417 907.629 149.529 907.629 164.641 907.629 179.753 907.629 184.986 908.445 188.944 910.078 191.63 911.196 193.488 913.173 195.038 916.009 196.277 918.846 197.516 922.928 198.136 928.257 198.136 928.257 199.375 928.257 200.614 928.257 201.854 908.102 201.854 887.946 201.854 867.79 201.854 867.79 200.614 867.79 199.375 867.79 198.136 873.807 198.136 878.276 197.378 881.199 195.864 883.348 194.762 884.852 193.007 885.711 190.597 886.141 189.426 886.356 186.087 886.356 180.579 886.356 168.359 886.356 156.138 886.356 143.918 886.356 132.902 886.076 126.344 885.518 124.244 884.959 122.144 883.928 120.612 882.424 119.649 880.919 118.685 879.05 118.203 876.815 118.203 874.151 118.203 871.142 118.719 867.79 119.752 867.361 118.513 866.931 117.273 866.501 116.034 878.405 112.179 890.31 108.323 902.214 104.468ZM2418.07 104.364C2431.31 104.364 2442.18 107.858 2450.69 114.846 2459.2 121.835 2463.45 131.181 2463.45 142.885 2436.25 142.885 2409.05 142.885 2381.84 142.885 2381.76 156.93 2386.01 167.946 2394.61 175.932 2403.2 183.919 2413.3 187.912 2424.9 187.912 2432.64 187.912 2439.37 186.208 2445.08 182.8 2450.8 179.392 2455.59 173.557 2459.46 165.295 2460.79 165.984 2462.12 166.672 2463.45 167.36 2461.65 176.793 2456.41 185.382 2447.72 193.127 2439.04 200.872 2428.17 204.745 2415.11 204.745 2400.92 204.745 2388.78 200.322 2378.68 191.475 2368.58 182.628 2363.53 170.734 2363.53 155.794 2363.53 139.615 2368.71 126.998 2379.07 117.945 2389.43 108.891 2402.43 104.364 2418.07 104.364ZM1376.57 104.364C1389.8 104.364 1400.68 107.858 1409.19 114.846 1417.69 121.835 1421.95 131.181 1421.95 142.885 1394.75 142.885 1367.54 142.885 1340.34 142.885 1340.25 156.93 1344.51 167.946 1353.1 175.932 1361.7 183.919 1371.8 187.912 1383.4 187.912 1391.14 187.912 1397.86 186.208 1403.58 182.8 1409.29 179.392 1414.08 173.557 1417.95 165.295 1419.28 165.984 1420.62 166.672 1421.95 167.36 1420.14 176.793 1414.9 185.382 1406.22 193.127 1397.54 200.872 1386.67 204.745 1373.6 204.745 1359.42 204.745 1347.28 200.322 1337.18 191.475 1327.08 182.628 1322.03 170.734 1322.03 155.794 1322.03 139.615 1327.21 126.998 1337.57 117.945 1347.92 108.891 1360.92 104.364 1376.57 104.364ZM1017.17 104.364C1030.41 104.364 1041.28 107.858 1049.79 114.846 1058.3 121.835 1062.56 131.181 1062.56 142.885 1035.35 142.885 1008.15 142.885 980.946 142.885 980.86 156.93 985.114 167.946 993.709 175.932 1002.3 183.919 1012.4 187.912 1024.01 187.912 1031.74 187.912 1038.47 186.208 1044.18 182.8 1049.9 179.392 1054.69 173.557 1058.56 165.295 1059.89 165.984 1061.22 166.672 1062.56 167.36 1060.75 176.793 1055.51 185.382 1046.83 193.127 1038.15 200.872 1027.27 204.745 1014.21 204.745 1000.03 204.745 987.886 200.322 977.787 191.475 967.688 182.628 962.638 170.734 962.638 155.794 962.638 139.615 967.816 126.998 978.174 117.945 988.531 108.891 1001.53 104.364 1017.17 104.364ZM698.007 76.1709C699.339 76.1709 700.672 76.1709 702.004 76.1709 702.004 86.5325 702.004 96.8942 702.004 107.256 711.201 107.256 720.397 107.256 729.594 107.256 729.594 109.666 729.594 112.075 729.594 114.485 720.397 114.485 711.201 114.485 702.004 114.485 702.004 134.933 702.004 155.381 702.004 175.829 702.004 181.956 703.1 186.087 705.292 188.222 707.483 190.356 710.298 191.423 713.736 191.423 716.573 191.423 719.323 190.717 721.988 189.306 724.652 187.895 726.715 185.812 728.176 183.058 729.852 183.058 731.528 183.058 733.204 183.058 730.196 189.805 725.941 194.883 720.44 198.291 714.94 201.699 709.267 203.403 703.422 203.403 699.468 203.403 695.6 202.525 691.819 200.769 688.037 199.014 685.243 196.501 683.438 193.23 681.633 189.96 680.731 184.917 680.731 178.101 680.731 156.896 680.731 135.69 680.731 114.485 674.499 114.485 668.268 114.485 662.036 114.485 662.036 113.349 662.036 112.213 662.036 111.077 666.764 109.562 671.598 106.998 676.541 103.383 681.483 99.7686 685.888 95.4828 689.756 90.5257 691.733 87.9095 694.483 83.1245 698.007 76.1709ZM1210.72 69.6647C1205.74 69.6647 1198.99 70.3187 1190.48 71.6269 1190.48 91.0421 1190.48 110.457 1190.48 129.873 1192.11 129.873 1193.53 129.89 1194.74 129.924 1195.94 129.959 1196.93 129.976 1197.7 129.976 1214.38 129.976 1226.95 127.084 1235.41 121.301 1243.88 115.518 1248.11 108.151 1248.11 99.2006 1248.11 90.4569 1244.7 83.3483 1237.86 77.8749 1231.03 72.4014 1221.98 69.6647 1210.72 69.6647ZM2123.41 61.816C2139.92 61.816 2156.42 61.816 2172.92 61.816 2194.07 98.34 2215.21 134.864 2236.35 171.388 2257.16 134.864 2277.96 98.34 2298.76 61.816 2315.26 61.816 2331.76 61.816 2348.26 61.816 2348.26 63.0897 2348.26 64.3634 2348.26 65.6371 2346.24 65.6371 2344.22 65.6371 2342.2 65.6371 2334.73 65.6371 2329.44 67.4271 2326.35 71.0072 2324.46 73.2104 2323.51 78.2363 2323.51 86.085 2323.51 116.585 2323.51 147.085 2323.51 177.584 2323.51 186.191 2324.71 191.561 2327.12 193.695 2330.3 196.587 2335.33 198.032 2342.2 198.032 2344.22 198.032 2346.24 198.032 2348.26 198.032 2348.26 199.306 2348.26 200.58 2348.26 201.854 2323.51 201.854 2298.76 201.854 2274 201.854 2274 200.58 2274 199.306 2274 198.032 2276.06 198.032 2278.13 198.032 2280.19 198.032 2287.67 198.032 2292.91 196.242 2295.92 192.662 2297.81 190.459 2298.76 185.433 2298.76 177.584 2298.76 146.396 2298.76 115.208 2298.76 84.0196 2276.28 123.298 2253.8 162.576 2231.33 201.854 2229.91 201.854 2228.49 201.854 2227.07 201.854 2204.55 162.576 2182.03 123.298 2159.51 84.0196 2159.51 115.208 2159.51 146.396 2159.51 177.584 2159.51 186.191 2160.67 191.561 2163 193.695 2166.18 196.587 2171.2 198.032 2178.08 198.032 2180.14 198.032 2182.21 198.032 2184.27 198.032 2184.27 199.306 2184.27 200.58 2184.27 201.854 2163.98 201.854 2143.7 201.854 2123.41 201.854 2123.41 200.58 2123.41 199.306 2123.41 198.032 2125.48 198.032 2127.54 198.032 2129.6 198.032 2136.99 198.032 2142.24 196.242 2145.33 192.662 2147.22 190.459 2148.17 185.433 2148.17 177.584 2148.17 147.085 2148.17 116.585 2148.17 86.085 2148.17 79.8887 2147.31 75.4135 2145.59 72.6596 2144.39 70.663 2142.17 68.9934 2138.95 67.6509 2135.73 66.3083 2130.55 65.6371 2123.41 65.6371 2123.41 64.3634 2123.41 63.0897 2123.41 61.816ZM1140.72 61.816C1161.95 61.816 1183.18 61.816 1204.41 61.816 1222.97 61.816 1236.66 62.9003 1245.47 65.0691 1254.28 67.2378 1261.76 71.231 1267.9 77.0487 1274.05 82.8664 1277.12 89.8028 1277.12 97.8581 1277.12 106.464 1273.62 113.934 1266.61 120.268 1259.61 126.602 1248.76 131.077 1234.06 133.694 1246.09 147.085 1258.13 160.476 1270.16 173.867 1278.41 183.092 1285.5 189.22 1291.43 192.249 1297.36 195.279 1305.1 197.206 1314.64 198.032 1314.64 199.306 1314.64 200.58 1314.64 201.854 1299.08 201.854 1283.52 201.854 1267.97 201.854 1248.24 180.029 1228.51 158.204 1208.79 136.379 1204.41 136.516 1200.84 136.585 1198.09 136.585 1196.97 136.585 1195.77 136.568 1194.48 136.534 1193.19 136.499 1191.86 136.448 1190.48 136.379 1190.48 149.942 1190.48 163.505 1190.48 177.068 1190.48 185.881 1191.68 191.354 1194.09 193.488 1197.36 196.518 1202.26 198.032 1208.79 198.032 1211.07 198.032 1213.34 198.032 1215.62 198.032 1215.62 199.306 1215.62 200.58 1215.62 201.854 1190.65 201.854 1165.68 201.854 1140.72 201.854 1140.72 200.58 1140.72 199.306 1140.72 198.032 1142.91 198.032 1145.1 198.032 1147.29 198.032 1154.68 198.032 1159.97 196.105 1163.15 192.249 1164.95 190.115 1165.86 185.055 1165.86 177.068 1165.86 146.913 1165.86 116.757 1165.86 86.6014 1165.86 77.7888 1164.65 72.3154 1162.25 70.1811 1158.89 67.1517 1153.91 65.6371 1147.29 65.6371 1145.1 65.6371 1142.91 65.6371 1140.72 65.6371 1140.72 64.3634 1140.72 63.0897 1140.72 61.816ZM385 61.816C428.363 61.816 471.725 61.816 515.088 61.816 515.646 72.0744 516.205 82.3328 516.764 92.5912 515.26 92.5912 513.756 92.5912 512.251 92.5912 510.017 86.0506 507.417 81.2484 504.451 78.1847 501.486 75.1209 497.833 72.9006 493.492 71.5236 489.152 70.1466 482.426 69.4581 473.315 69.4581 460.466 69.4581 447.616 69.4581 434.766 69.4581 434.766 87.8062 434.766 106.154 434.766 124.502 445.381 124.502 455.996 124.502 466.611 124.502 473.917 124.502 479.267 123.212 482.663 120.63 486.058 118.048 488.314 112.936 489.431 105.294 491.021 105.294 492.611 105.294 494.201 105.294 494.201 121.094 494.201 136.895 494.201 152.696 492.611 152.696 491.021 152.696 489.431 152.696 489.345 147.257 488.464 143.264 486.788 140.716 485.112 138.169 482.791 136.258 479.826 134.985 476.861 133.711 472.456 133.074 466.611 133.074 455.996 133.074 445.381 133.074 434.766 133.074 434.766 147.739 434.766 162.403 434.766 177.068 434.766 184.16 435.325 188.841 436.442 191.113 437.301 192.834 439.106 194.315 441.857 195.554 445.639 197.206 449.593 198.032 453.718 198.032 455.824 198.032 457.93 198.032 460.036 198.032 460.036 199.306 460.036 200.58 460.036 201.854 435.024 201.854 410.012 201.854 385 201.854 385 200.58 385 199.306 385 198.032 387.063 198.032 389.126 198.032 391.189 198.032 398.408 198.032 403.651 196.346 406.918 192.972 408.98 190.769 410.012 185.468 410.012 177.068 410.012 146.913 410.012 116.757 410.012 86.6014 410.012 79.51 409.453 74.8283 408.336 72.5563 407.476 70.8351 405.714 69.3549 403.05 68.1156 399.354 66.4632 395.4 65.6371 391.189 65.6371 389.126 65.6371 387.063 65.6371 385 65.6371 385 64.3634 385 63.0897 385 61.816ZM2047.39 55.2065C2056.41 55.2065 2064.71 57.5474 2072.27 62.2291 2077.26 65.3272 2079.75 68.8041 2079.75 72.6596 2079.75 74.725 2078.63 76.67 2076.4 78.4945 2074.16 80.319 2071.76 81.2312 2069.18 81.2312 2067.2 81.2312 2065.12 80.6632 2062.93 79.5272 2060.73 78.3912 2058.05 75.9471 2054.87 72.1949 2051.69 68.4426 2048.77 65.9125 2046.1 64.6043 2043.44 63.2962 2040.47 62.6422 2037.2 62.6422 2033.25 62.6422 2029.9 63.4856 2027.15 65.1723 2024.4 66.8591 2022.42 69.4754 2021.22 73.021 2020.01 76.5667 2019.41 85.7064 2019.41 100.44 2019.41 102.712 2019.41 104.984 2019.41 107.256 2029.56 107.256 2039.7 107.256 2049.84 107.256 2049.84 109.734 2049.84 112.213 2049.84 114.692 2039.7 114.692 2029.56 114.692 2019.41 114.692 2019.41 135.415 2019.41 156.138 2019.41 176.862 2019.41 185.674 2020.62 191.251 2023.02 193.592 2026.2 196.621 2030.46 198.136 2035.79 198.136 2039.35 198.136 2042.92 198.136 2046.49 198.136 2046.49 199.375 2046.49 200.614 2046.49 201.854 2022.98 201.854 1999.47 201.854 1975.96 201.854 1975.96 200.614 1975.96 199.375 1975.96 198.136 1977.73 198.136 1979.49 198.136 1981.25 198.136 1984.69 198.136 1987.83 197.447 1990.66 196.07 1993.5 194.693 1995.45 192.834 1996.53 190.494 1997.6 188.153 1998.14 183.609 1998.14 176.862 1998.14 156.138 1998.14 135.415 1998.14 114.692 1990.49 114.692 1982.84 114.692 1975.19 114.692 1975.19 112.213 1975.19 109.734 1975.19 107.256 1982.84 107.256 1990.49 107.256 1998.14 107.256 1998.14 105.19 1998.14 103.125 1998.14 101.06 1998.14 91.6273 2000.03 83.6409 2003.81 77.1003 2007.59 70.5597 2013.37 65.2756 2021.15 61.248 2028.93 57.2204 2037.68 55.2065 2047.39 55.2065ZM2904.16 55C2906.13 55 2908.11 55 2910.09 55 2910.09 78.0642 2910.09 101.128 2910.09 124.193 2919.63 115.793 2927.19 110.406 2932.78 108.03 2938.36 105.655 2943.95 104.468 2949.54 104.468 2956.24 104.468 2962 105.948 2966.82 108.908 2971.63 111.869 2975.2 116.516 2977.52 122.85 2979.15 127.256 2979.97 135.312 2979.97 147.016 2979.97 158.169 2979.97 169.323 2979.97 180.476 2979.97 186.466 2980.57 190.562 2981.77 192.766 2982.63 194.418 2984.09 195.726 2986.15 196.69 2988.22 197.654 2992 198.136 2997.5 198.136 2997.5 199.375 2997.5 200.614 2997.5 201.854 2978.16 201.854 2958.82 201.854 2939.48 201.854 2939.48 200.614 2939.48 199.375 2939.48 198.136 2940.38 198.136 2941.29 198.136 2942.19 198.136 2947.69 198.136 2951.52 197.464 2953.66 196.122 2955.81 194.779 2957.32 192.8 2958.18 190.184 2958.43 189.082 2958.56 185.846 2958.56 180.476 2958.56 169.323 2958.56 158.169 2958.56 147.016 2958.56 136.689 2957.9 129.907 2956.57 126.671 2955.23 123.435 2953.11 121.008 2950.18 119.39 2947.26 117.772 2943.74 116.964 2939.61 116.964 2935.4 116.964 2931.02 117.859 2926.46 119.649 2921.91 121.439 2916.45 125.053 2910.09 130.492 2910.09 147.154 2910.09 163.815 2910.09 180.476 2910.09 186.948 2910.54 190.975 2911.44 192.559 2912.34 194.143 2914.02 195.468 2916.47 196.535 2918.92 197.602 2923.15 198.136 2929.17 198.136 2929.17 199.375 2929.17 200.614 2929.17 201.854 2909.66 201.854 2890.15 201.854 2870.64 201.854 2870.64 200.614 2870.64 199.375 2870.64 198.136 2875.88 198.136 2880 197.482 2883.01 196.174 2884.73 195.485 2886.11 194.177 2887.14 192.249 2888.17 190.321 2888.68 186.397 2888.68 180.476 2888.68 151.938 2888.68 123.401 2888.68 94.8632 2888.68 84.054 2888.36 77.4101 2887.72 74.9316 2887.07 72.453 2886.08 70.7663 2884.75 69.8712 2883.42 68.9762 2881.64 68.5287 2879.4 68.5287 2877.6 68.5287 2874.67 69.0795 2870.64 70.1811 2870.03 68.9762 2869.43 67.7714 2868.83 66.5665 2880.61 62.711 2892.38 58.8555 2904.16 55ZM2714.75 55C2718.36 55 2721.43 56.0155 2723.97 58.0465 2726.5 60.0776 2727.77 62.5389 2727.77 65.4305 2727.77 68.3222 2726.5 70.8007 2723.97 72.8661 2721.43 74.9316 2718.36 75.9643 2714.75 75.9643 2711.14 75.9643 2708.04 74.9316 2705.46 72.8661 2702.89 70.8007 2701.6 68.3222 2701.6 65.4305 2701.6 62.5389 2702.86 60.0776 2705.4 58.0465 2707.94 56.0155 2711.05 55 2714.75 55ZM1467.88 55C1471.49 55 1474.56 56.0155 1477.09 58.0465 1479.63 60.0776 1480.9 62.5389 1480.9 65.4305 1480.9 68.3222 1479.63 70.8007 1477.09 72.8661 1474.56 74.9316 1471.49 75.9643 1467.88 75.9643 1464.27 75.9643 1461.17 74.9316 1458.59 72.8661 1456.01 70.8007 1454.73 68.3222 1454.73 65.4305 1454.73 62.5389 1455.99 60.0776 1458.53 58.0465 1461.06 56.0155 1464.18 55 1467.88 55Z" fill="#FFFF00" fill-rule="evenodd" fill-opacity="1"/><text fill="#000000" fill-opacity="0" font-family="Arial,Arial_MSFontService,sans-serif" font-size="192.5" direction="ltr" writing-mode="lr-tb" x="385" y="223.437">Future Reign of Messiah</text></g></svg>