<svg width="2228" height="944" xmlns="http://www.w3.org/2000/svg" xmlns:xlink="http://www.w3.org/1999/xlink" xml:space="preserve" overflow="hidden"><defs><filter id="fx0" x="-10%" y="-10%" width="120%" height="120%" filterUnits="userSpaceOnUse" primitiveUnits="userSpaceOnUse"><feComponentTransfer color-interpolation-filters="sRGB"><feFuncR type="discrete" tableValues="0.000000 0.000000"/><feFuncG type="discrete" tableValues="0.000000 0.000000"/><feFuncB type="discrete" tableValues="0.000000 0.000000"/><feFuncA type="linear" slope="0.380392" intercept="0.000000"/></feComponentTransfer><feGaussianBlur stdDeviation="4.811899 4.811899"/></filter><filter id="fx1" x="-10%" y="-10%" width="120%" height="120%" filterUnits="userSpaceOnUse" primitiveUnits="userSpaceOnUse"><feComponentTransfer color-interpolation-filters="sRGB"><feFuncR type="discrete" tableValues="0.000000 0.000000"/><feFuncG type="discrete" tableValues="0.000000 0.000000"/><feFuncB type="discrete" tableValues="0.000000 0.000000"/><feFuncA type="linear" slope="0.380392" intercept="0.000000"/></feComponentTransfer><feGaussianBlur stdDeviation="4.811899 4.811899"/></filter><filter id="fx2" x="-10%" y="-10%" width="120%" height="120%" filterUnits="userSpaceOnUse" primitiveUnits="userSpaceOnUse"><feComponentTransfer color-interpolation-filters="sRGB"><feFuncR type="discrete" tableValues="0.000000 0.000000"/><feFuncG type="discrete" tableValues="0.000000 0.000000"/><feFuncB type="discrete" tableValues="0.000000 0.000000"/><feFuncA type="linear" slope="0.380392" intercept="0.000000"/></feComponentTransfer><feGaussianBlur stdDeviation="4.811899 4.811899"/></filter><clipPath id="clip3"><rect x="577" y="513" width="2228" height="944"/></clipPath><clipPath id="clip4"><rect x="-13.4359" y="-14.4357" width="2252.87" height="972.871"/></clipPath><clipPath id="clip5"><rect x="0" y="0" width="2226" height="944"/></clipPath><clipPath id="clip6"><rect x="1.56433" y="1.78223" width="1659.87" height="398.871"/></clipPath><clipPath id="clip7"><rect x="0" y="0" width="1663" height="402"/></clipPath><clipPath id="clip8"><rect x="-14.4357" y="-14.4357" width="1777.87" height="560.871"/></clipPath><clipPath id="clip9"><rect x="0" y="0" width="1749" height="532"/></clipPath></defs><g clip-path="url(#clip3)" transform="translate(-577 -513)"><g clip-path="url(#clip4)" filter="url(#fx0)" transform="translate(579 512)"><g clip-path="url(#clip5)"><path d="M26.4998 472.218 305.1 427.821 63.5221 354.843 360.154 342.059 172.063 245.468 466.518 265.163 344.729 151.545 616.936 202.379 569.75 79.4752 801.163 157.984 831.793 34.1708 1006.63 135.004 1113 18.7179 1219.37 135.004 1394.21 34.1708 1424.84 157.984 1656.25 79.4752 1609.06 202.379 1881.27 151.545 1759.48 265.163 2053.94 245.468 1865.85 342.059 2162.48 354.843 1920.9 427.821 2199.5 472.218 1920.9 516.615 2162.48 589.592 1865.85 602.377 2053.94 698.968 1759.48 679.272 1881.27 792.89 1609.06 742.056 1656.25 864.96 1424.84 786.452 1394.21 910.265 1219.37 809.431 1113 925.718 1006.63 809.431 831.793 910.265 801.163 786.452 569.75 864.96 616.936 742.056 344.729 792.89 466.518 679.272 172.063 698.968 360.154 602.377 63.5221 589.592 305.1 516.615Z" stroke="#98B954" stroke-width="3" stroke-linecap="butt" stroke-linejoin="miter" stroke-miterlimit="8" stroke-opacity="1" fill="#FFFF00" fill-rule="evenodd" fill-opacity="1"/></g></g><path d="M605.5 977 884.1 932.603 642.522 859.626 939.154 846.841 751.063 750.25 1045.52 769.945 923.729 656.327 1195.94 707.162 1148.75 584.257 1380.16 662.766 1410.79 538.953 1585.63 639.786 1692 523.5 1798.37 639.786 1973.21 538.953 2003.84 662.766 2235.25 584.257 2188.06 707.162 2460.27 656.327 2338.48 769.945 2632.94 750.25 2444.85 846.841 2741.48 859.626 2499.9 932.603 2778.5 977 2499.9 1021.4 2741.48 1094.37 2444.85 1107.16 2632.94 1203.75 2338.48 1184.05 2460.27 1297.67 2188.06 1246.84 2235.25 1369.74 2003.84 1291.23 1973.21 1415.05 1798.37 1314.21 1692 1430.5 1585.63 1314.21 1410.79 1415.05 1380.16 1291.23 1148.75 1369.74 1195.94 1246.84 923.729 1297.67 1045.52 1184.05 751.063 1203.75 939.154 1107.16 642.522 1094.37 884.1 1021.4Z" stroke="#98B954" stroke-width="3.4375" stroke-linecap="butt" stroke-linejoin="miter" stroke-miterlimit="8" stroke-opacity="1" fill="#FFFF00" fill-rule="evenodd" fill-opacity="1"/><g clip-path="url(#clip6)" filter="url(#fx1)" transform="translate(879 778)"><g clip-path="url(#clip7)"><rect x="17.5" y="17.7179" width="1628" height="367" stroke="#98B954" stroke-width="3" stroke-linecap="butt" stroke-linejoin="round" stroke-miterlimit="10" stroke-opacity="1" fill="#FFFF00" fill-opacity="1"/></g></g><g clip-path="url(#clip8)" filter="url(#fx2)" transform="translate(836 734)"><g clip-path="url(#clip9)"><path d="M92.6792-102.264 95.2598-70.7075 92.6792-70.7075C90.074-78.5721 86.707-84.4951 82.5781-88.4766 76.6305-94.2275 68.9871-97.103 59.6479-97.103 46.9171-97.103 37.2339-92.0648 30.5981-81.9883 25.0438-73.4847 22.2666-63.359 22.2666-51.6113 22.2666-42.0755 24.1099-33.3753 27.7964-25.5107 31.4829-17.6462 36.3122-11.8829 42.2844-8.22095 48.2566-4.559 54.3885-2.72803 60.6802-2.72803 64.3667-2.72803 67.9303-3.19499 71.3711-4.12891 74.8118-5.06283 78.1297-6.43913 81.3247-8.25781L81.3247-37.1602C81.3247-42.1738 80.9438-45.4548 80.1819-47.0032 79.42-48.5515 78.2403-49.7312 76.6428-50.5422 75.0453-51.3533 72.2313-51.7588 68.2007-51.7588L68.2007-54.5605 106.909-54.5605 106.909-51.7588 105.066-51.7588C101.232-51.7588 98.6022-50.4808 97.1768-47.9248 96.1937-46.1061 95.7021-42.5179 95.7021-37.1602L95.7021-6.56201C90.0495-3.51449 84.4705-1.27799 78.9653 0.147461 73.4601 1.57292 67.3405 2.28564 60.6064 2.28564 41.2891 2.28564 26.6167-3.90771 16.5894-16.2944 9.06885-25.5845 5.30859-36.3 5.30859-48.4409 5.30859-57.2394 7.4222-65.6693 11.6494-73.7305 16.6631-83.3154 23.5446-90.6885 32.2939-95.8496 39.6178-100.126 48.2689-102.264 58.2471-102.264 61.8844-102.264 65.19-101.969 68.1638-101.379 71.1376-100.79 75.3525-99.487 80.8086-97.4717 83.5612-96.4394 85.4044-95.9233 86.3384-95.9233 87.2723-95.9233 88.071-96.3534 88.7346-97.2136 89.3982-98.0738 89.8037-99.7573 89.9512-102.264ZM125.5-42.1001C125.451-32.0728 127.884-24.2082 132.8-18.5063 137.715-12.8045 143.491-9.95361 150.126-9.95361 154.55-9.95361 158.396-11.1702 161.665-13.6033 164.934-16.0364 167.674-20.2021 169.886-26.1006L172.172-24.626C171.139-17.8919 168.141-11.76 163.177-6.23022 158.212-0.70044 151.994 2.06445 144.523 2.06445 136.412 2.06445 129.469-1.09367 123.694-7.40991 117.918-13.7262 115.031-22.2174 115.031-32.8838 115.031-44.4349 117.992-53.4423 123.915-59.906 129.838-66.3697 137.273-69.6016 146.219-69.6016 153.788-69.6016 160.006-67.107 164.872-62.1179 169.739-57.1288 172.172-50.4562 172.172-42.1001ZM125.5-46.3765 156.762-46.3765C156.516-50.702 156-53.7495 155.214-55.519 153.985-58.2716 152.154-60.4344 149.721-62.0073 147.288-63.5802 144.744-64.3667 142.09-64.3667 138.01-64.3667 134.36-62.7815 131.141-59.6111 127.921-56.4407 126.041-52.0291 125.5-46.3765ZM160.67-102.485 138.919-77.0483 136.412-77.0483 144.154-102.485ZM200.863-55.2241C208.777-64.7599 216.322-69.5278 223.498-69.5278 227.185-69.5278 230.355-68.6062 233.01-66.7629 235.664-64.9197 237.777-61.8844 239.35-57.6572 240.432-54.708 240.972-50.1859 240.972-44.0908L240.972-15.2622C240.972-10.9858 241.317-8.08577 242.005-6.56201 242.545-5.33317 243.418-4.37467 244.622-3.68652 245.826-2.99837 248.051-2.6543 251.295-2.6543L251.295 0 217.895 0 217.895-2.6543 219.296-2.6543C222.442-2.6543 224.641-3.13354 225.895-4.09204 227.148-5.05054 228.02-6.4637 228.512-8.33154 228.709-9.06885 228.807-11.3791 228.807-15.2622L228.807-42.9111C228.807-49.0553 228.008-53.516 226.411-56.2932 224.813-59.0704 222.122-60.459 218.337-60.459 212.488-60.459 206.663-57.264 200.863-50.874L200.863-15.2622C200.863-10.6909 201.133-7.86458 201.674-6.7832 202.362-5.35775 203.308-4.31323 204.513-3.64966 205.717-2.98608 208.162-2.6543 211.849-2.6543L211.849 0 178.449 0 178.449-2.6543 179.924-2.6543C183.364-2.6543 185.687-3.52677 186.891-5.27173 188.095-7.01668 188.698-10.3468 188.698-15.2622L188.698-40.3306C188.698-48.4409 188.513-53.3809 188.145-55.1504 187.776-56.9199 187.211-58.1242 186.449-58.7632 185.687-59.4022 184.667-59.7217 183.389-59.7217 182.013-59.7217 180.366-59.353 178.449-58.6157L177.343-61.27 197.693-69.5278 200.863-69.5278ZM268.157-42.1001C268.107-32.0728 270.54-24.2082 275.456-18.5063 280.371-12.8045 286.147-9.95361 292.783-9.95361 297.206-9.95361 301.053-11.1702 304.321-13.6033 307.59-16.0364 310.33-20.2021 312.542-26.1006L314.828-24.626C313.796-17.8919 310.797-11.76 305.833-6.23022 300.868-0.70044 294.65 2.06445 287.179 2.06445 279.069 2.06445 272.126-1.09367 266.35-7.40991 260.575-13.7262 257.687-22.2174 257.687-32.8838 257.687-44.4349 260.648-53.4423 266.571-59.906 272.494-66.3697 279.929-69.6016 288.875-69.6016 296.444-69.6016 302.662-67.107 307.529-62.1179 312.395-57.1288 314.828-50.4562 314.828-42.1001ZM268.157-46.3765 299.418-46.3765C299.172-50.702 298.656-53.7495 297.87-55.519 296.641-58.2716 294.81-60.4344 292.377-62.0073 289.944-63.5802 287.4-64.3667 284.746-64.3667 280.666-64.3667 277.016-62.7815 273.797-59.6111 270.577-56.4407 268.697-52.0291 268.157-46.3765ZM367.482-69.5278 367.482-46.5239 365.049-46.5239C363.181-53.7495 360.785-58.6649 357.86-61.27 354.935-63.8752 351.212-65.1777 346.69-65.1777 343.249-65.1777 340.472-64.2684 338.358-62.4497 336.245-60.631 335.188-58.6157 335.188-56.4038 335.188-53.6512 335.974-51.2918 337.547-49.3257 339.071-47.3104 342.168-45.1722 346.837-42.9111L357.602-37.6763C367.58-32.8101 372.569-26.3955 372.569-18.4326 372.569-12.2884 370.247-7.33618 365.602-3.57593 360.957 0.184326 355.759 2.06445 350.008 2.06445 345.879 2.06445 341.16 1.32715 335.851-0.147461 334.229-0.638997 332.902-0.884766 331.87-0.884766 330.739-0.884766 329.855-0.245768 329.216 1.03223L326.783 1.03223 326.783-23.0776 329.216-23.0776C330.592-16.1961 333.222-11.0104 337.105-7.52051 340.988-4.0306 345.338-2.28564 350.155-2.28564 353.547-2.28564 356.312-3.28101 358.45-5.27173 360.588-7.26245 361.657-9.65869 361.657-12.4604 361.657-15.852 360.465-18.703 358.081-21.0132 355.697-23.3234 350.942-26.248 343.814-29.7871 336.687-33.3262 332.017-36.5212 329.805-39.3721 327.594-42.1738 326.488-45.7129 326.488-49.9893 326.488-55.5436 328.392-60.1886 332.202-63.9243 336.011-67.66 340.939-69.5278 346.985-69.5278 349.639-69.5278 352.859-68.9626 356.643-67.832 359.15-67.0947 360.821-66.7261 361.657-66.7261 362.443-66.7261 363.058-66.8981 363.5-67.2422 363.943-67.5863 364.459-68.3481 365.049-69.5278ZM400.023-104.845C402.087-104.845 403.845-104.12 405.295-102.67 406.745-101.22 407.47-99.4624 407.47-97.3979 407.47-95.3335 406.745-93.5639 405.295-92.0893 403.845-90.6147 402.087-89.8774 400.023-89.8774 397.958-89.8774 396.189-90.6147 394.714-92.0893 393.24-93.5639 392.502-95.3335 392.502-97.3979 392.502-99.4624 393.227-101.22 394.677-102.67 396.128-104.12 397.909-104.845 400.023-104.845ZM406.143-69.5278 406.143-15.2622C406.143-11.035 406.45-8.22095 407.064-6.82007 407.679-5.41919 408.588-4.37467 409.792-3.68652 410.996-2.99837 413.196-2.6543 416.391-2.6543L416.391 0 383.581 0 383.581-2.6543C386.874-2.6543 389.086-2.9738 390.217-3.61279 391.347-4.25179 392.244-5.30859 392.908-6.7832 393.571-8.25781 393.903-11.0841 393.903-15.2622L393.903-41.2891C393.903-48.6129 393.682-53.3563 393.24-55.519 392.896-57.092 392.355-58.1856 391.618-58.8 390.88-59.4145 389.873-59.7217 388.595-59.7217 387.218-59.7217 385.547-59.353 383.581-58.6157L382.549-61.27 402.898-69.5278ZM468.315-69.5278 468.315-46.5239 465.882-46.5239C464.014-53.7495 461.618-58.6649 458.693-61.27 455.769-63.8752 452.045-65.1777 447.523-65.1777 444.082-65.1777 441.305-64.2684 439.192-62.4497 437.078-60.631 436.021-58.6157 436.021-56.4038 436.021-53.6512 436.808-51.2918 438.38-49.3257 439.904-47.3104 443.001-45.1722 447.671-42.9111L458.435-37.6763C468.413-32.8101 473.402-26.3955 473.402-18.4326 473.402-12.2884 471.08-7.33618 466.435-3.57593 461.79 0.184326 456.592 2.06445 450.841 2.06445 446.712 2.06445 441.993 1.32715 436.685-0.147461 435.063-0.638997 433.735-0.884766 432.703-0.884766 431.573-0.884766 430.688-0.245768 430.049 1.03223L427.616 1.03223 427.616-23.0776 430.049-23.0776C431.425-16.1961 434.055-11.0104 437.938-7.52051 441.821-4.0306 446.171-2.28564 450.988-2.28564 454.38-2.28564 457.145-3.28101 459.283-5.27173 461.421-7.26245 462.49-9.65869 462.49-12.4604 462.49-15.852 461.298-18.703 458.914-21.0132 456.53-23.3234 451.775-26.248 444.648-29.7871 437.52-33.3262 432.851-36.5212 430.639-39.3721 428.427-42.1738 427.321-45.7129 427.321-49.9893 427.321-55.5436 429.226-60.1886 433.035-63.9243 436.844-67.66 441.772-69.5278 447.818-69.5278 450.472-69.5278 453.692-68.9626 457.477-67.832 459.984-67.0947 461.655-66.7261 462.49-66.7261 463.277-66.7261 463.891-66.8981 464.334-67.2422 464.776-67.5863 465.292-68.3481 465.882-69.5278ZM534.466-90.1724 558.797-102.043 561.23-102.043 561.23-17.6216C561.23-12.0181 561.464-8.52816 561.931-7.15185 562.398-5.77555 563.368-4.71875 564.843-3.98144 566.318-3.24414 569.316-2.82633 573.838-2.72803L573.838 0 536.236 0 536.236-2.72803C540.954-2.82633 544.002-3.23185 545.378-3.94458 546.754-4.65731 547.713-5.6158 548.254-6.82007 548.794-8.02433 549.065-11.6248 549.065-17.6216L549.065-71.5923C549.065-78.867 548.819-83.5366 548.327-85.6011 547.983-87.174 547.357-88.3291 546.447-89.0664 545.538-89.8037 544.444-90.1723 543.166-90.1724 541.348-90.1723 538.816-89.4105 535.572-87.8867ZM661.629-19.2437 654.624 0 595.64 0 595.64-2.72803C612.991-18.5555 625.206-31.4829 632.284-41.5103 639.362-51.5376 642.901-60.7047 642.901-69.0117 642.901-75.3525 640.96-80.5628 637.076-84.6426 633.193-88.7223 628.548-90.7622 623.141-90.7622 618.226-90.7622 613.814-89.3244 609.907-86.449 605.999-83.5735 603.111-79.3586 601.243-73.8042L598.515-73.8042C599.744-82.8976 602.902-89.8774 607.99-94.7436 613.077-99.6098 619.43-102.043 627.049-102.043 635.159-102.043 641.93-99.4378 647.362-94.2275 652.793-89.0172 655.509-82.873 655.509-75.7949 655.509-70.7321 654.329-65.6693 651.97-60.6064 648.333-52.6435 642.434-44.2137 634.275-35.3169 622.035-21.9471 614.392-13.8859 611.344-11.1333L637.445-11.1333C642.754-11.1333 646.477-11.3299 648.615-11.7231 650.753-12.1164 652.683-12.9151 654.403-14.1194 656.123-15.3236 657.623-17.0317 658.901-19.2437ZM689.329-69.6016C691.59-69.6016 693.519-68.8028 695.117-67.2053 696.714-65.6078 697.513-63.6785 697.513-61.4175 697.513-59.1564 696.714-57.2271 695.117-55.6296 693.519-54.0321 691.59-53.2334 689.329-53.2334 687.068-53.2334 685.138-54.0321 683.541-55.6296 681.943-57.2271 681.145-59.1564 681.145-61.4175 681.145-63.6785 681.943-65.6078 683.541-67.2053 685.138-68.8028 687.068-69.6016 689.329-69.6016ZM689.181-14.3774C691.492-14.3774 693.445-13.5664 695.043-11.9443 696.64-10.3223 697.439-8.3807 697.439-6.11963 697.439-3.85856 696.628-1.92928 695.006-0.331787 693.384 1.26571 691.442 2.06445 689.181 2.06445 686.92 2.06445 684.991 1.26571 683.394-0.331787 681.796-1.92928 680.997-3.85856 680.997-6.11963 680.997-8.3807 681.796-10.3223 683.394-11.9443 684.991-13.5664 686.92-14.3774 689.181-14.3774ZM727.539-90.1724 751.87-102.043 754.303-102.043 754.303-17.6216C754.303-12.0181 754.537-8.52816 755.004-7.15185 755.471-5.77555 756.441-4.71875 757.916-3.98144 759.391-3.24414 762.389-2.82633 766.911-2.72803L766.911 0 729.309 0 729.309-2.72803C734.027-2.82633 737.075-3.23185 738.451-3.94458 739.827-4.65731 740.786-5.6158 741.327-6.82007 741.867-8.02433 742.138-11.6248 742.138-17.6216L742.138-71.5923C742.138-78.867 741.892-83.5366 741.4-85.6011 741.056-87.174 740.43-88.3291 739.52-89.0664 738.611-89.8037 737.517-90.1723 736.239-90.1724 734.42-90.1723 731.889-89.4105 728.645-87.8867Z" fill="#000000" fill-rule="nonzero" fill-opacity="1" transform="matrix(1 0 0 1 418.401 208)"/><path d="M6.11963-39.4458 44.2383-39.4458 44.2383-28.3125 6.11963-28.3125Z" fill="#000000" fill-rule="nonzero" fill-opacity="1" transform="matrix(1 0 0 1 1203.87 208)"/><path d="M7.66797-80.956C10.5189-87.6901 14.1194-92.8881 18.4695-96.55 22.8196-100.212 28.2388-102.043 34.727-102.043 42.7391-102.043 48.8833-99.4378 53.1597-94.2275 56.4038-90.3444 58.0259-86.1909 58.0259-81.7671 58.0259-74.4923 53.4546-66.9718 44.312-59.2056 50.4562-56.797 55.1012-53.3563 58.2471-48.8833 61.3929-44.4103 62.9658-39.1509 62.9658-33.105 62.9658-24.4539 60.2132-16.958 54.708-10.6172 47.5316-2.35938 37.1356 1.76953 23.52 1.76953 16.786 1.76953 12.2024 0.933919 9.76929-0.737305 7.33618-2.40853 6.11963-4.20264 6.11963-6.11963 6.11963-7.54508 6.69718-8.7985 7.85229-9.87988 9.0074-10.9613 10.396-11.502 12.0181-11.502 13.2469-11.502 14.5003-11.3053 15.7783-10.9121 16.6139-10.6663 18.5063-9.76929 21.4556-8.22095 24.4048-6.67261 26.4447-5.75098 27.5752-5.45605 29.3939-4.91536 31.3354-4.64502 33.3999-4.64502 38.4136-4.64502 42.776-6.58659 46.4871-10.4697 50.1982-14.3529 52.0537-18.9487 52.0537-24.2573 52.0537-28.1405 51.1935-31.9253 49.4731-35.6118 48.1951-38.3644 46.7943-40.4534 45.2705-41.8789 43.1569-43.845 40.2568-45.6269 36.5703-47.2244 32.8838-48.8219 29.1235-49.6206 25.2895-49.6206L22.9302-49.6206 22.9302-51.8325C26.8133-52.3241 30.7087-53.7249 34.6165-56.0352 38.5242-58.3454 41.3628-61.1226 43.1323-64.3667 44.9019-67.6108 45.7866-71.1745 45.7866-75.0576 45.7866-80.1204 44.2014-84.2125 41.031-87.3337 37.8606-90.455 33.916-92.0156 29.1973-92.0156 21.5784-92.0156 15.2131-87.9359 10.1011-79.7764Z" fill="#000000" fill-rule="nonzero" fill-opacity="1" transform="matrix(1 0 0 1 1254.29 208)"/><path d="M24.0361-102.264 24.0361-99.2412C19.7106-96.9801 16.6139-94.6208 14.7461-92.1631 12.8783-89.7054 11.9443-87.0265 11.9443-84.1265 11.9443-82.4061 12.1901-81.2264 12.6816-80.5874 13.124-79.8992 13.6647-79.5552 14.3037-79.5552 14.9427-79.5552 15.8029-79.7395 16.8843-80.1081 17.9657-80.4768 18.9487-80.6611 19.8335-80.6611 21.8488-80.6611 23.606-79.9115 25.1052-78.4123 26.6044-76.9132 27.354-75.0822 27.354-72.9194 27.354-70.5601 26.4447-68.5325 24.626-66.8367 22.8073-65.1409 20.5462-64.293 17.8428-64.293 14.5495-64.293 11.5757-65.7184 8.92139-68.5693 6.26709-71.4202 4.93994-74.9347 4.93994-79.1128 4.93994-84.0282 6.5743-88.6117 9.84302-92.8635 13.1117-97.1153 17.8428-100.249 24.0361-102.264ZM59.2056-102.043 59.2056-99.2412C54.241-96.3903 50.9723-93.8343 49.3994-91.5732 47.8265-89.3122 47.04-86.6579 47.04-83.6103 47.04-82.234 47.3104-81.2018 47.8511-80.5137 48.3918-79.8255 48.957-79.4814 49.5469-79.4814 50.0876-79.4814 50.8986-79.678 51.98-80.0713 53.0614-80.4645 54.1427-80.6611 55.2241-80.6611 57.2394-80.6611 58.9967-79.9361 60.4958-78.4861 61.995-77.036 62.7446-75.2542 62.7446-73.1406 62.7446-70.7321 61.7984-68.6431 59.906-66.8735 58.0136-65.104 55.6911-64.2192 52.9385-64.2192 49.6943-64.2192 46.7697-65.6201 44.1645-68.4219 41.5594-71.2236 40.2568-74.7135 40.2568-78.8916 40.2568-84.0527 41.9035-88.7592 45.1968-93.011 48.4901-97.2628 53.1597-100.273 59.2056-102.043ZM91.3623-89.73 91.3623-67.5371 107.141-67.5371 107.141-62.376 91.3623-62.376 91.3623-18.5801C91.3623-14.2054 91.989-11.2562 93.2424-9.73242 94.4958-8.20866 96.1056-7.44678 98.0718-7.44678 99.6938-7.44678 101.267-7.9506 102.791-8.95825 104.314-9.9659 105.494-11.4528 106.33-13.4189L109.205-13.4189C107.485-8.60189 105.052-4.97681 101.906-2.5437 98.7599-0.110596 95.5158 1.10596 92.1733 1.10596 89.9123 1.10596 87.7003 0.479248 85.5376-0.77417 83.3748-2.02759 81.7773-3.8217 80.7451-6.15649 79.7129-8.49129 79.1968-12.0918 79.1968-16.958L79.1968-62.376 68.5059-62.376 68.5059-64.8091C71.2093-65.8904 73.9742-67.7214 76.8005-70.302 79.6269-72.8826 82.146-75.9424 84.3579-79.4814 85.4884-81.3493 87.0614-84.7655 89.0767-89.73ZM130.752-104.845C132.817-104.845 134.574-104.12 136.024-102.67 137.474-101.22 138.199-99.4624 138.199-97.3979 138.199-95.3335 137.474-93.5639 136.024-92.0893 134.574-90.6147 132.817-89.8774 130.752-89.8774 128.688-89.8774 126.918-90.6147 125.444-92.0893 123.969-93.5639 123.232-95.3335 123.232-97.3979 123.232-99.4624 123.957-101.22 125.407-102.67 126.857-104.12 128.638-104.845 130.752-104.845ZM136.872-69.5278 136.872-15.2622C136.872-11.035 137.179-8.22095 137.793-6.82007 138.408-5.41919 139.317-4.37467 140.521-3.68652 141.726-2.99837 143.925-2.6543 147.12-2.6543L147.12 0 114.31 0 114.31-2.6543C117.604-2.6543 119.815-2.9738 120.946-3.61279 122.076-4.25179 122.974-5.30859 123.637-6.7832 124.301-8.25781 124.632-11.0841 124.632-15.2622L124.632-41.2891C124.632-48.6129 124.411-53.3563 123.969-55.519 123.625-57.092 123.084-58.1856 122.347-58.8 121.61-59.4145 120.602-59.7217 119.324-59.7217 117.948-59.7217 116.276-59.353 114.31-58.6157L113.278-61.27 133.628-69.5278ZM166.75-42.1001C166.701-32.0728 169.134-24.2082 174.05-18.5063 178.965-12.8045 184.741-9.95361 191.376-9.95361 195.8-9.95361 199.646-11.1702 202.915-13.6033 206.184-16.0364 208.924-20.2021 211.136-26.1006L213.422-24.626C212.389-17.8919 209.391-11.76 204.427-6.23022 199.462-0.70044 193.244 2.06445 185.773 2.06445 177.662 2.06445 170.719-1.09367 164.944-7.40991 159.168-13.7262 156.281-22.2174 156.281-32.8838 156.281-44.4349 159.242-53.4423 165.165-59.906 171.088-66.3697 178.523-69.6016 187.469-69.6016 195.038-69.6016 201.256-67.107 206.122-62.1179 210.989-57.1288 213.422-50.4562 213.422-42.1001ZM166.75-46.3765 198.012-46.3765C197.766-50.702 197.25-53.7495 196.464-55.519 195.235-58.2716 193.404-60.4344 190.971-62.0073 188.538-63.5802 185.994-64.3667 183.34-64.3667 179.26-64.3667 175.61-62.7815 172.391-59.6111 169.171-56.4407 167.291-52.0291 166.75-46.3765ZM242.187-69.5278 242.187-54.3394C247.839-64.465 253.64-69.5278 259.587-69.5278 262.291-69.5278 264.527-68.7045 266.297-67.0579 268.066-65.4112 268.951-63.5065 268.951-61.3437 268.951-59.4267 268.312-57.8047 267.034-56.4775 265.756-55.1504 264.232-54.4868 262.463-54.4868 260.742-54.4868 258.813-55.3347 256.675-57.0305 254.537-58.7263 252.951-59.5742 251.919-59.5742 251.034-59.5742 250.076-59.0827 249.044-58.0996 246.832-56.0843 244.546-52.7664 242.187-48.146L242.187-15.7783C242.187-12.0426 242.654-9.21631 243.588-7.29932 244.227-5.97217 245.357-4.86621 246.979-3.98144 248.601-3.09668 250.936-2.6543 253.984-2.6543L253.984 0 219.404 0 219.404-2.6543C222.845-2.6543 225.401-3.19499 227.072-4.27637 228.301-5.06282 229.161-6.31624 229.653-8.03662 229.898-8.87223 230.021-11.2562 230.021-15.1885L230.021-41.3628C230.021-49.2274 229.862-53.9093 229.542-55.4084 229.223-56.9076 228.633-58.0013 227.773-58.6894 226.912-59.3776 225.843-59.7217 224.565-59.7217 223.041-59.7217 221.321-59.353 219.404-58.6157L218.667-61.27 239.09-69.5278ZM292.603-69.5278 292.603-54.3394C298.256-64.465 304.056-69.5278 310.004-69.5278 312.707-69.5278 314.944-68.7045 316.713-67.0579 318.483-65.4112 319.368-63.5065 319.368-61.3437 319.368-59.4267 318.729-57.8047 317.451-56.4775 316.173-55.1504 314.649-54.4868 312.879-54.4868 311.159-54.4868 309.23-55.3347 307.092-57.0305 304.953-58.7263 303.368-59.5742 302.336-59.5742 301.451-59.5742 300.493-59.0827 299.46-58.0996 297.249-56.0843 294.963-52.7664 292.603-48.146L292.603-15.7783C292.603-12.0426 293.07-9.21631 294.004-7.29932 294.643-5.97217 295.774-4.86621 297.396-3.98144 299.018-3.09668 301.353-2.6543 304.4-2.6543L304.4 0 269.821 0 269.821-2.6543C273.262-2.6543 275.818-3.19499 277.489-4.27637 278.718-5.06282 279.578-6.31624 280.069-8.03662 280.315-8.87223 280.438-11.2562 280.438-15.1885L280.438-41.3628C280.438-49.2274 280.278-53.9093 279.959-55.4084 279.639-56.9076 279.049-58.0013 278.189-58.6894 277.329-59.3776 276.26-59.7217 274.982-59.7217 273.458-59.7217 271.738-59.353 269.821-58.6157L269.083-61.27 289.507-69.5278ZM361.526-9.73242C354.596-4.37467 350.246-1.27799 348.476-0.442383 345.822 0.786458 342.996 1.40088 339.997 1.40088 335.328 1.40088 331.481-0.196615 328.458-3.3916 325.435-6.58659 323.924-10.7892 323.924-15.9995 323.924-19.2928 324.661-22.1437 326.136-24.5522 328.151-27.8947 331.653-31.0405 336.642-33.9897 341.632-36.939 349.926-40.5272 361.526-44.7544L361.526-47.4087C361.526-54.1427 360.457-58.7632 358.319-61.27 356.181-63.7768 353.072-65.0303 348.992-65.0303 345.896-65.0303 343.438-64.1947 341.619-62.5234 339.751-60.8522 338.818-58.9352 338.818-56.7725L338.965-52.4961C338.965-50.235 338.387-48.4901 337.232-47.2612 336.077-46.0324 334.566-45.418 332.698-45.418 330.879-45.418 329.392-46.057 328.237-47.335 327.082-48.6129 326.505-50.3579 326.505-52.5698 326.505-56.797 328.667-60.6802 332.993-64.2192 337.318-67.7583 343.389-69.5278 351.204-69.5278 357.201-69.5278 362.116-68.5202 365.95-66.5049 368.85-64.9811 370.989-62.5972 372.365-59.353 373.25-57.2394 373.692-52.9139 373.692-46.3765L373.692-23.4463C373.692-17.0072 373.815-13.0626 374.061-11.6125 374.306-10.1625 374.712-9.19173 375.277-8.70019 375.842-8.20866 376.494-7.96289 377.231-7.96289 378.018-7.96289 378.706-8.13493 379.296-8.479 380.328-9.118 382.318-10.9121 385.268-13.8613L385.268-9.73242C379.762-2.35938 374.503 1.32715 369.489 1.32715 367.081 1.32715 365.164 0.491536 363.738-1.17969 362.313-2.85091 361.576-5.70182 361.526-9.73242ZM361.526-14.5249 361.526-40.2568C354.104-37.3076 349.312-35.2186 347.149-33.9897 343.266-31.827 340.489-29.5659 338.818-27.2065 337.146-24.8472 336.311-22.2666 336.311-19.4648 336.311-15.9258 337.367-12.9888 339.481-10.6541 341.595-8.31925 344.028-7.15185 346.78-7.15185 350.516-7.15185 355.431-9.60954 361.526-14.5249ZM393.683 25.1421 393.683 21.8979C398.746 20.2267 402.666 17.6339 405.443 14.1194 408.22 10.6049 409.609 6.88151 409.609 2.94922 409.609 2.0153 409.388 1.22884 408.945 0.589844 408.601 0.147461 408.257-0.0737305 407.913-0.0737305 407.372-0.0737305 406.193 0.417806 404.374 1.40088 403.489 1.84326 402.555 2.06445 401.572 2.06445 399.164 2.06445 397.247 1.35173 395.821-0.0737305 394.396-1.49919 393.683-3.46533 393.683-5.97217 393.683-8.3807 394.605-10.4451 396.448-12.1655 398.291-13.8859 400.54-14.7461 403.194-14.7461 406.439-14.7461 409.326-13.3329 411.858-10.5066 414.389-7.68026 415.655-3.93229 415.655 0.737305 415.655 5.80013 413.898 10.5066 410.383 14.8567 406.869 19.2068 401.302 22.6353 393.683 25.1421ZM489.142-104.845 489.142-15.2622C489.142-11.035 489.449-8.23323 490.063-6.85693 490.678-5.48063 491.624-4.43612 492.902-3.72339 494.18-3.01066 496.564-2.6543 500.054-2.6543L500.054 0 466.949 0 466.949-2.6543C470.046-2.6543 472.159-2.9738 473.29-3.61279 474.42-4.25179 475.305-5.30859 475.944-6.7832 476.583-8.25781 476.902-11.0841 476.902-15.2622L476.902-76.6059C476.902-84.2248 476.73-88.9066 476.386-90.6516 476.042-92.3966 475.489-93.5885 474.727-94.2275 473.966-94.8665 472.995-95.186 471.815-95.186 470.537-95.186 468.915-94.7928 466.949-94.0063L465.695-96.5869 485.824-104.845ZM524.919-104.845C526.983-104.845 528.74-104.12 530.19-102.67 531.64-101.22 532.365-99.4624 532.365-97.3979 532.365-95.3335 531.64-93.5639 530.19-92.0893 528.74-90.6147 526.983-89.8774 524.919-89.8774 522.854-89.8774 521.085-90.6147 519.61-92.0893 518.135-93.5639 517.398-95.3335 517.398-97.3979 517.398-99.4624 518.123-101.22 519.573-102.67 521.023-104.12 522.805-104.845 524.919-104.845ZM531.038-69.5278 531.038-15.2622C531.038-11.035 531.346-8.22095 531.96-6.82007 532.574-5.41919 533.484-4.37467 534.688-3.68652 535.892-2.99837 538.092-2.6543 541.287-2.6543L541.287 0 508.477 0 508.477-2.6543C511.77-2.6543 513.982-2.9738 515.113-3.61279 516.243-4.25179 517.14-5.30859 517.804-6.7832 518.467-8.25781 518.799-11.0841 518.799-15.2622L518.799-41.2891C518.799-48.6129 518.578-53.3563 518.135-55.519 517.791-57.092 517.251-58.1856 516.513-58.8 515.776-59.4145 514.768-59.7217 513.49-59.7217 512.114-59.7217 510.443-59.353 508.477-58.6157L507.445-61.27 527.794-69.5278ZM569.248-55.2241C577.162-64.7599 584.707-69.5278 591.884-69.5278 595.57-69.5278 598.741-68.6062 601.395-66.7629 604.049-64.9197 606.163-61.8844 607.736-57.6572 608.817-54.708 609.358-50.1859 609.358-44.0908L609.358-15.2622C609.358-10.9858 609.702-8.08577 610.39-6.56201 610.931-5.33317 611.803-4.37467 613.008-3.68652 614.212-2.99837 616.436-2.6543 619.68-2.6543L619.68 0 586.28 0 586.28-2.6543 587.681-2.6543C590.827-2.6543 593.026-3.13354 594.28-4.09204 595.533-5.05054 596.406-6.4637 596.897-8.33154 597.094-9.06885 597.192-11.3791 597.192-15.2622L597.192-42.9111C597.192-49.0553 596.394-53.516 594.796-56.2932 593.199-59.0704 590.507-60.459 586.723-60.459 580.873-60.459 575.049-57.264 569.248-50.874L569.248-15.2622C569.248-10.6909 569.519-7.86458 570.06-6.7832 570.748-5.35775 571.694-4.31323 572.898-3.64966 574.102-2.98608 576.548-2.6543 580.234-2.6543L580.234 0 546.834 0 546.834-2.6543 548.309-2.6543C551.75-2.6543 554.072-3.52677 555.277-5.27173 556.481-7.01668 557.083-10.3468 557.083-15.2622L557.083-40.3306C557.083-48.4409 556.899-53.3809 556.53-55.1504 556.161-56.9199 555.596-58.1242 554.834-58.7632 554.072-59.4022 553.052-59.7217 551.774-59.7217 550.398-59.7217 548.751-59.353 546.834-58.6157L545.728-61.27 566.078-69.5278 569.248-69.5278ZM663.454-9.73242C656.523-4.37467 652.173-1.27799 650.403-0.442383 647.749 0.786458 644.923 1.40088 641.924 1.40088 637.255 1.40088 633.408-0.196615 630.385-3.3916 627.362-6.58659 625.851-10.7892 625.851-15.9995 625.851-19.2928 626.588-22.1437 628.063-24.5522 630.078-27.8947 633.58-31.0405 638.57-33.9897 643.559-36.939 651.853-40.5272 663.454-44.7544L663.454-47.4087C663.453-54.1427 662.384-58.7632 660.246-61.27 658.108-63.7768 654.999-65.0303 650.919-65.0303 647.823-65.0303 645.365-64.1947 643.546-62.5234 641.678-60.8522 640.745-58.9352 640.745-56.7725L640.892-52.4961C640.892-50.235 640.314-48.4901 639.159-47.2612 638.004-46.0324 636.493-45.418 634.625-45.418 632.806-45.418 631.319-46.057 630.164-47.335 629.009-48.6129 628.432-50.3579 628.432-52.5698 628.432-56.797 630.594-60.6802 634.92-64.2192 639.245-67.7583 645.316-69.5278 653.131-69.5278 659.128-69.5278 664.043-68.5202 667.877-66.5049 670.777-64.9811 672.916-62.5972 674.292-59.353 675.177-57.2394 675.619-52.9139 675.619-46.3765L675.619-23.4463C675.619-17.0072 675.742-13.0626 675.988-11.6125 676.234-10.1625 676.639-9.19173 677.204-8.70019 677.77-8.20866 678.421-7.96289 679.158-7.96289 679.945-7.96289 680.633-8.13493 681.223-8.479 682.255-9.118 684.246-10.9121 687.195-13.8613L687.195-9.73242C681.69-2.35938 676.43 1.32715 671.416 1.32715 669.008 1.32715 667.091 0.491536 665.665-1.17969 664.24-2.85091 663.503-5.70182 663.454-9.73242ZM663.454-14.5249 663.454-40.2568C656.031-37.3076 651.239-35.2186 649.076-33.9897 645.193-31.827 642.416-29.5659 640.745-27.2065 639.073-24.8472 638.238-22.2666 638.238-19.4648 638.238-15.9258 639.294-12.9888 641.408-10.6541 643.522-8.31925 645.955-7.15185 648.707-7.15185 652.443-7.15185 657.358-9.60954 663.454-14.5249ZM709.324-104.918C711.438-104.918 713.232-104.181 714.706-102.707 716.181-101.232 716.918-99.4378 716.918-97.3242 716.918-95.2598 716.181-93.4902 714.706-92.0156 713.232-90.541 711.438-89.8037 709.324-89.8037 707.26-89.8037 705.49-90.541 704.016-92.0156 702.541-93.4902 701.804-95.2598 701.804-97.3242 701.804-99.4378 702.541-101.232 704.016-102.707 705.49-104.181 707.26-104.918 709.324-104.918ZM715.665-69.5278 715.665-1.54834C715.665 10.0028 713.207 18.5801 708.292 24.1836 703.377 29.7871 696.987 32.5889 689.122 32.5889 684.649 32.5889 681.331 31.7778 679.168 30.1558 677.006 28.5337 675.924 26.8625 675.924 25.1421 675.924 23.4217 676.526 21.9471 677.731 20.7183 678.935 19.4894 680.348 18.875 681.97 18.875 683.248 18.875 684.551 19.1945 685.878 19.8335 686.713 20.1776 688.323 21.4187 690.707 23.5569 693.091 25.6951 695.094 26.7642 696.716 26.7642 697.896 26.7642 699.051 26.3095 700.182 25.4001 701.312 24.4908 702.148 22.967 702.688 20.8289 703.229 18.6907 703.499 14.0579 703.499 6.93066L703.499-41.1416C703.499-48.5638 703.278-53.3317 702.836-55.4453 702.492-57.0674 701.951-58.1856 701.214-58.8 700.476-59.4145 699.469-59.7217 698.191-59.7217 696.815-59.7217 695.143-59.353 693.177-58.6157L692.145-61.27 712.495-69.5278ZM745.396-42.1001C745.347-32.0728 747.78-24.2082 752.695-18.5063 757.611-12.8045 763.386-9.95361 770.022-9.95361 774.446-9.95361 778.292-11.1702 781.561-13.6033 784.83-16.0364 787.57-20.2021 789.782-26.1006L792.068-24.626C791.035-17.8919 788.037-11.76 783.072-6.23022 778.108-0.70044 771.89 2.06445 764.419 2.06445 756.308 2.06445 749.365-1.09367 743.59-7.40991 737.814-13.7262 734.926-22.2174 734.926-32.8838 734.926-44.4349 737.888-53.4423 743.811-59.906 749.734-66.3697 757.168-69.6016 766.114-69.6016 773.684-69.6016 779.902-67.107 784.768-62.1179 789.634-57.1288 792.068-50.4562 792.068-42.1001ZM745.396-46.3765 776.658-46.3765C776.412-50.702 775.896-53.7495 775.109-55.519 773.881-58.2716 772.05-60.4344 769.617-62.0073 767.183-63.5802 764.64-64.3667 761.985-64.3667 757.906-64.3667 754.256-62.7815 751.036-59.6111 747.817-56.4407 745.937-52.0291 745.396-46.3765ZM804.464 25.1421 804.464 21.8979C809.527 20.2267 813.447 17.6339 816.224 14.1194 819.002 10.6049 820.39 6.88151 820.39 2.94922 820.39 2.0153 820.169 1.22884 819.727 0.589844 819.383 0.147461 819.038-0.0737305 818.694-0.0737305 818.154-0.0737305 816.974 0.417806 815.155 1.40088 814.271 1.84326 813.337 2.06445 812.354 2.06445 809.945 2.06445 808.028 1.35173 806.603-0.0737305 805.177-1.49919 804.464-3.46533 804.464-5.97217 804.464-8.3807 805.386-10.4451 807.229-12.1655 809.073-13.8859 811.321-14.7461 813.976-14.7461 817.22-14.7461 820.108-13.3329 822.639-10.5066 825.17-7.68026 826.436-3.93229 826.436 0.737305 826.436 5.80013 824.679 10.5066 821.164 14.8567 817.65 19.2068 812.083 22.6353 804.464 25.1421ZM895.204-55.8877C901.742-64.9811 908.795-69.5278 916.365-69.5278 923.295-69.5278 929.341-66.5663 934.503-60.6433 939.664-54.7203 942.244-46.6222 942.244-36.3491 942.244-24.3556 938.263-14.6969 930.3-7.37305 923.468-1.08138 915.849 2.06445 907.443 2.06445 903.511 2.06445 899.517 1.35173 895.462-0.0737305 891.407-1.49919 887.266-3.63737 883.039-6.48828L883.039-76.4585C883.039-84.1264 882.854-88.8452 882.486-90.6147 882.117-92.3843 881.539-93.5885 880.753-94.2275 879.967-94.8665 878.984-95.186 877.804-95.186 876.427-95.186 874.707-94.7928 872.643-94.0063L871.61-96.5869 891.886-104.845 895.204-104.845ZM895.204-51.1689 895.204-10.7646C897.711-8.30696 900.304-6.45142 902.983-5.198 905.662-3.94458 908.402-3.31787 911.204-3.31787 915.677-3.31787 919.842-5.77555 923.701-10.6909 927.56-15.6063 929.489-22.7581 929.489-32.1465 929.489-40.7975 927.56-47.4456 923.701-52.0906 919.842-56.7356 915.455-59.0581 910.54-59.0581 907.935-59.0581 905.33-58.3945 902.725-57.0674 900.759-56.0843 898.252-54.1182 895.204-51.1689ZM963.677-42.1001C963.628-32.0728 966.061-24.2082 970.977-18.5063 975.892-12.8045 981.668-9.95361 988.303-9.95361 992.727-9.95361 996.573-11.1702 999.842-13.6033 1003.11-16.0364 1005.85-20.2021 1008.06-26.1006L1010.35-24.626C1009.32-17.8919 1006.32-11.76 1001.35-6.23022 996.389-0.70044 990.171 2.06445 982.7 2.06445 974.589 2.06445 967.646-1.09367 961.871-7.40991 956.095-13.7262 953.208-22.2174 953.208-32.8838 953.208-44.4349 956.169-53.4423 962.092-59.906 968.015-66.3697 975.45-69.6016 984.396-69.6016 991.965-69.6016 998.183-67.107 1003.05-62.1179 1007.92-57.1288 1010.35-50.4562 1010.35-42.1001ZM963.677-46.3765 994.939-46.3765C994.693-50.702 994.177-53.7495 993.391-55.519 992.162-58.2716 990.331-60.4344 987.898-62.0073 985.465-63.5802 982.921-64.3667 980.267-64.3667 976.187-64.3667 972.537-62.7815 969.318-59.6111 966.098-56.4407 964.218-52.0291 963.677-46.3765ZM1039.04-55.2241C1046.95-64.7599 1054.5-69.5278 1061.68-69.5278 1065.36-69.5278 1068.53-68.6062 1071.19-66.7629 1073.84-64.9197 1075.95-61.8844 1077.53-57.6572 1078.61-54.708 1079.15-50.1859 1079.15-44.0908L1079.15-15.2622C1079.15-10.9858 1079.49-8.08577 1080.18-6.56201 1080.72-5.33317 1081.59-4.37467 1082.8-3.68652 1084-2.99837 1086.23-2.6543 1089.47-2.6543L1089.47 0 1056.07 0 1056.07-2.6543 1057.47-2.6543C1060.62-2.6543 1062.82-3.13354 1064.07-4.09204 1065.32-5.05054 1066.2-6.4637 1066.69-8.33154 1066.89-9.06885 1066.98-11.3791 1066.98-15.2622L1066.98-42.9111C1066.98-49.0553 1066.19-53.516 1064.59-56.2932 1062.99-59.0704 1060.3-60.459 1056.51-60.459 1050.67-60.459 1044.84-57.264 1039.04-50.874L1039.04-15.2622C1039.04-10.6909 1039.31-7.86458 1039.85-6.7832 1040.54-5.35775 1041.49-4.31323 1042.69-3.64966 1043.89-2.98608 1046.34-2.6543 1050.03-2.6543L1050.03 0 1016.63 0 1016.63-2.6543 1018.1-2.6543C1021.54-2.6543 1023.86-3.52677 1025.07-5.27173 1026.27-7.01668 1026.87-10.3468 1026.87-15.2622L1026.87-40.3306C1026.87-48.4409 1026.69-53.3809 1026.32-55.1504 1025.95-56.9199 1025.39-58.1242 1024.63-58.7632 1023.86-59.4022 1022.84-59.7217 1021.57-59.7217 1020.19-59.7217 1018.54-59.353 1016.63-58.6157L1015.52-61.27 1035.87-69.5278 1039.04-69.5278ZM1142.68-7.59424C1139.39-4.15348 1136.17-1.68351 1133.02-0.184326 1129.88 1.31486 1126.49 2.06445 1122.85 2.06445 1115.48 2.06445 1109.04-1.01994 1103.53-7.18872 1098.03-13.3575 1095.27-21.2835 1095.27-30.9668 1095.27-40.6501 1098.32-49.51 1104.42-57.5466 1110.51-65.5832 1118.35-69.6016 1127.94-69.6016 1133.88-69.6016 1138.8-67.7091 1142.68-63.9243L1142.68-76.3848C1142.68-84.1019 1142.5-88.8452 1142.13-90.6147 1141.76-92.3843 1141.18-93.5885 1140.4-94.2275 1139.61-94.8665 1138.63-95.186 1137.45-95.186 1136.17-95.186 1134.47-94.7928 1132.36-94.0063L1131.4-96.5869 1151.53-104.845 1154.85-104.845 1154.85-26.7642C1154.85-18.8504 1155.03-14.0211 1155.4-12.2761 1155.77-10.5312 1156.36-9.31461 1157.17-8.62646 1157.98-7.93831 1158.93-7.59424 1160.01-7.59424 1161.34-7.59424 1163.11-8.01204 1165.32-8.84766L1166.13-6.26709 1146.07 2.06445 1142.68 2.06445ZM1142.68-12.7554 1142.68-47.5561C1142.39-50.8986 1141.5-53.9461 1140.03-56.6987 1138.55-59.4513 1136.6-61.5281 1134.17-62.9289 1131.73-64.3298 1129.36-65.0303 1127.05-65.0303 1122.73-65.0303 1118.87-63.0887 1115.48-59.2056 1111-54.0936 1108.77-46.6222 1108.77-36.7915 1108.77-26.8625 1110.93-19.2559 1115.26-13.9719 1119.58-8.68791 1124.4-6.0459 1129.71-6.0459 1134.18-6.0459 1138.5-8.28239 1142.68-12.7554ZM1187.78-104.845C1189.85-104.845 1191.6-104.12 1193.06-102.67 1194.51-101.22 1195.23-99.4624 1195.23-97.3979 1195.23-95.3335 1194.51-93.5639 1193.06-92.0893 1191.6-90.6147 1189.85-89.8774 1187.78-89.8774 1185.72-89.8774 1183.95-90.6147 1182.47-92.0893 1181-93.5639 1180.26-95.3335 1180.26-97.3979 1180.26-99.4624 1180.99-101.22 1182.44-102.67 1183.89-104.12 1185.67-104.845 1187.78-104.845ZM1193.9-69.5278 1193.9-15.2622C1193.9-11.035 1194.21-8.22095 1194.82-6.82007 1195.44-5.41919 1196.35-4.37467 1197.55-3.68652 1198.76-2.99837 1200.96-2.6543 1204.15-2.6543L1204.15 0 1171.34 0 1171.34-2.6543C1174.63-2.6543 1176.85-2.9738 1177.98-3.61279 1179.11-4.25179 1180-5.30859 1180.67-6.7832 1181.33-8.25781 1181.66-11.0841 1181.66-15.2622L1181.66-41.2891C1181.66-48.6129 1181.44-53.3563 1181-55.519 1180.66-57.092 1180.12-58.1856 1179.38-58.8 1178.64-59.4145 1177.63-59.7217 1176.36-59.7217 1174.98-59.7217 1173.31-59.353 1171.34-58.6157L1170.31-61.27 1190.66-69.5278ZM1269.79-25.6582C1267.97-16.7614 1264.41-9.91675 1259.1-5.12427 1253.79-0.331787 1247.92 2.06445 1241.48 2.06445 1233.81 2.06445 1227.12-1.15511 1221.42-7.59424 1215.72-14.0334 1212.87-22.7336 1212.87-33.6948 1212.87-44.312 1216.03-52.9385 1222.34-59.5742 1228.66-66.2099 1236.24-69.5278 1245.09-69.5278 1251.73-69.5278 1257.18-67.7706 1261.46-64.2561 1265.73-60.7416 1267.87-57.092 1267.87-53.3071 1267.87-51.4393 1267.27-49.9278 1266.07-48.7727 1264.86-47.6176 1263.18-47.04 1261.02-47.04 1258.12-47.04 1255.93-47.974 1254.45-49.8418 1253.62-50.874 1253.06-52.8402 1252.79-55.7402 1252.52-58.6403 1251.53-60.8522 1249.81-62.376 1248.09-63.8506 1245.7-64.5879 1242.66-64.5879 1237.74-64.5879 1233.78-62.7692 1230.79-59.1318 1226.8-54.3148 1224.81-47.9494 1224.81-40.0356 1224.81-31.9744 1226.79-24.8595 1230.75-18.6907 1234.71-12.5219 1240.05-9.4375 1246.79-9.4375 1251.6-9.4375 1255.93-11.0841 1259.76-14.3774 1262.47-16.6385 1265.1-20.7428 1267.65-26.6904ZM1296.64-104.845C1298.7-104.845 1300.46-104.12 1301.91-102.67 1303.36-101.22 1304.08-99.4624 1304.08-97.3979 1304.08-95.3335 1303.36-93.5639 1301.91-92.0893 1300.46-90.6147 1298.7-89.8774 1296.64-89.8774 1294.57-89.8774 1292.8-90.6147 1291.33-92.0893 1289.85-93.5639 1289.12-95.3335 1289.12-97.3979 1289.12-99.4624 1289.84-101.22 1291.29-102.67 1292.74-104.12 1294.52-104.845 1296.64-104.845ZM1302.76-69.5278 1302.76-15.2622C1302.76-11.035 1303.06-8.22095 1303.68-6.82007 1304.29-5.41919 1305.2-4.37467 1306.41-3.68652 1307.61-2.99837 1309.81-2.6543 1313.01-2.6543L1313.01 0 1280.2 0 1280.2-2.6543C1283.49-2.6543 1285.7-2.9738 1286.83-3.61279 1287.96-4.25179 1288.86-5.30859 1289.52-6.7832 1290.19-8.25781 1290.52-11.0841 1290.52-15.2622L1290.52-41.2891C1290.52-48.6129 1290.3-53.3563 1289.85-55.519 1289.51-57.092 1288.97-58.1856 1288.23-58.8 1287.49-59.4145 1286.49-59.7217 1285.21-59.7217 1283.83-59.7217 1282.16-59.353 1280.2-58.6157L1279.16-61.27 1299.51-69.5278ZM1354.31-69.5278C1364.54-69.5278 1372.74-65.6447 1378.94-57.8784 1384.2-51.2427 1386.83-43.6239 1386.83-35.022 1386.83-28.9761 1385.38-22.8564 1382.48-16.6631 1379.58-10.4697 1375.58-5.80013 1370.5-2.6543 1365.41 0.491536 1359.74 2.06445 1353.5 2.06445 1343.33 2.06445 1335.24-1.99072 1329.24-10.1011 1324.18-16.9334 1321.65-24.6014 1321.65-33.105 1321.65-39.2983 1323.19-45.4548 1326.26-51.5745 1329.33-57.6941 1333.37-62.2162 1338.39-65.1409 1343.4-68.0655 1348.71-69.5278 1354.31-69.5278ZM1352.03-64.7353C1349.42-64.7353 1346.8-63.9612 1344.17-62.4128 1341.54-60.8645 1339.42-58.1488 1337.8-54.2656 1336.17-50.3825 1335.36-45.3934 1335.36-39.2983 1335.36-29.4676 1337.32-20.9886 1341.23-13.8613 1345.13-6.73405 1350.28-3.17041 1356.67-3.17041 1361.44-3.17041 1365.37-5.13656 1368.47-9.06885 1371.57-13.0011 1373.11-19.7598 1373.11-29.3447 1373.11-41.3382 1370.53-50.7757 1365.37-57.6572 1361.88-62.376 1357.43-64.7353 1352.03-64.7353ZM1369.87-102.485 1348.12-77.0483 1345.61-77.0483 1353.35-102.485ZM1416.59-55.2241C1424.51-64.7599 1432.05-69.5278 1439.23-69.5278 1442.91-69.5278 1446.08-68.6062 1448.74-66.7629 1451.39-64.9197 1453.51-61.8844 1455.08-57.6572 1456.16-54.708 1456.7-50.1859 1456.7-44.0908L1456.7-15.2622C1456.7-10.9858 1457.05-8.08577 1457.73-6.56201 1458.27-5.33317 1459.15-4.37467 1460.35-3.68652 1461.56-2.99837 1463.78-2.6543 1467.02-2.6543L1467.02 0 1433.62 0 1433.62-2.6543 1435.02-2.6543C1438.17-2.6543 1440.37-3.13354 1441.62-4.09204 1442.88-5.05054 1443.75-6.4637 1444.24-8.33154 1444.44-9.06885 1444.54-11.3791 1444.54-15.2622L1444.54-42.9111C1444.54-49.0553 1443.74-53.516 1442.14-56.2932 1440.54-59.0704 1437.85-60.459 1434.07-60.459 1428.22-60.459 1422.39-57.264 1416.59-50.874L1416.59-15.2622C1416.59-10.6909 1416.86-7.86458 1417.4-6.7832 1418.09-5.35775 1419.04-4.31323 1420.24-3.64966 1421.45-2.98608 1423.89-2.6543 1427.58-2.6543L1427.58 0 1394.18 0 1394.18-2.6543 1395.65-2.6543C1399.09-2.6543 1401.42-3.52677 1402.62-5.27173 1403.82-7.01668 1404.43-10.3468 1404.43-15.2622L1404.43-40.3306C1404.43-48.4409 1404.24-53.3809 1403.87-55.1504 1403.5-56.9199 1402.94-58.1242 1402.18-58.7632 1401.42-59.4022 1400.4-59.7217 1399.12-59.7217 1397.74-59.7217 1396.1-59.353 1394.18-58.6157L1393.07-61.27 1413.42-69.5278 1416.59-69.5278ZM1476.29-64.2192 1476.29-67.3159C1481.26-70.1177 1484.51-72.6614 1486.06-74.947 1487.61-77.2327 1488.38-79.8747 1488.38-82.873 1488.38-84.2493 1488.14-85.2816 1487.65-85.9697 1487.11-86.6579 1486.52-87.0019 1485.88-87.0019 1485.38-87.0019 1484.6-86.8053 1483.52-86.4121 1482.44-86.0189 1481.35-85.8223 1480.27-85.8223 1478.21-85.8223 1476.44-86.5596 1474.96-88.0342 1473.49-89.5088 1472.75-91.3029 1472.75-93.4165 1472.75-95.7759 1473.7-97.8403 1475.59-99.6099 1477.48-101.379 1479.78-102.264 1482.48-102.264 1485.73-102.264 1488.67-100.863 1491.3-98.0615 1493.93-95.2598 1495.24-91.7207 1495.24-87.4443 1495.24-82.2832 1493.58-77.5644 1490.26-73.2881 1486.95-69.0117 1482.29-65.9888 1476.29-64.2192ZM1511.46-64.2192 1511.46-67.3159C1515.74-69.5278 1518.82-71.8749 1520.71-74.3572 1522.61-76.8394 1523.55-79.5306 1523.55-82.4307 1523.55-84.151 1523.31-85.3553 1522.82-86.0434 1522.32-86.6824 1521.78-87.0019 1521.19-87.0019 1520.55-87.0019 1519.69-86.8053 1518.61-86.4121 1517.48-86.0189 1516.5-85.8223 1515.66-85.8223 1513.65-85.8223 1511.89-86.5841 1510.39-88.1079 1508.89-89.6317 1508.14-91.4503 1508.14-93.564 1508.14-95.9233 1509.05-97.9632 1510.87-99.6836 1512.69-101.404 1514.93-102.264 1517.58-102.264 1520.92-102.264 1523.92-100.826 1526.58-97.9509 1529.23-95.0754 1530.56-91.5487 1530.56-87.3706 1530.56-82.4552 1528.92-77.8717 1525.65-73.6199 1522.39-69.3681 1517.65-66.2345 1511.46-64.2192Z" fill="#000000" fill-rule="nonzero" fill-opacity="1" transform="matrix(1 0 0 1 106.734 390)"/></g></g><rect x="896.5" y="788.5" width="1628" height="367" stroke="#98B954" stroke-width="3.4375" stroke-linecap="butt" stroke-linejoin="round" stroke-miterlimit="10" stroke-opacity="1" fill="#FFFF00" fill-opacity="1"/><text fill="#000000" fill-opacity="1" font-family="Times New Roman,Times New Roman_MSFontService,sans-serif" font-style="normal" font-variant="normal" font-weight="400" font-stretch="normal" font-size="151" text-anchor="start" direction="ltr" writing-mode="lr-tb" unicode-bidi="normal" text-decoration="none" transform="matrix(1 0 0 1 1254.4 934)">Génesis 12:1</text><text fill="#000000" fill-opacity="1" font-family="Times New Roman,Times New Roman_MSFontService,sans-serif" font-style="normal" font-variant="normal" font-weight="400" font-stretch="normal" font-size="151" text-anchor="start" direction="ltr" writing-mode="lr-tb" unicode-bidi="normal" text-decoration="none" transform="matrix(1 0 0 1 2039.87 934)">-</text><text fill="#000000" fill-opacity="1" font-family="Times New Roman,Times New Roman_MSFontService,sans-serif" font-style="normal" font-variant="normal" font-weight="400" font-stretch="normal" font-size="151" text-anchor="start" direction="ltr" writing-mode="lr-tb" unicode-bidi="normal" text-decoration="none" transform="matrix(1 0 0 1 2090.29 934)">3</text><text fill="#000000" fill-opacity="1" font-family="Times New Roman,Times New Roman_MSFontService,sans-serif" font-style="normal" font-variant="normal" font-weight="400" font-stretch="normal" font-size="151" text-anchor="start" direction="ltr" writing-mode="lr-tb" unicode-bidi="normal" text-decoration="none" transform="matrix(1 0 0 1 942.734 1116)">“tierra, linaje, bendición”</text></g></svg>