<svg width="2438" height="550" xmlns="http://www.w3.org/2000/svg" xmlns:xlink="http://www.w3.org/1999/xlink" xml:space="preserve" overflow="hidden"><defs><filter id="fx0" x="-10%" y="-10%" width="120%" height="120%" filterUnits="userSpaceOnUse" primitiveUnits="userSpaceOnUse"><feComponentTransfer color-interpolation-filters="sRGB"><feFuncR type="discrete" tableValues="1.000000 1.000000"/><feFuncG type="discrete" tableValues="1.000000 1.000000"/><feFuncB type="discrete" tableValues="1.000000 1.000000"/><feFuncA type="linear" slope="1.000000" intercept="0.000000"/></feComponentTransfer><feGaussianBlur stdDeviation="3.683745 3.683745"/></filter><clipPath id="clip1"><rect x="504" y="27" width="2438" height="550"/></clipPath><clipPath id="clip2"><rect x="-11.0512" y="-11.0512" width="2463.1" height="567.102"/></clipPath><clipPath id="clip3"><rect x="0" y="0" width="2441" height="545"/></clipPath></defs><g clip-path="url(#clip1)" transform="translate(-504 -27)"><g clip-path="url(#clip2)" filter="url(#fx0)" transform="translate(503 31)"><g clip-path="url(#clip3)"><path d="M51.8281-155.242 51.8281-90.3359 87.9141-90.3359C97.2786-90.3359 103.535-91.7487 106.684-94.5742 110.882-98.2878 113.223-104.827 113.707-114.191L118.187-114.191 118.187-57.0352 113.707-57.0352C112.577-65.0273 111.447-70.1536 110.316-72.4141 108.863-75.2396 106.482-77.4596 103.172-79.0742 99.862-80.6888 94.776-81.4961 87.9141-81.4961L51.8281-81.4961 51.8281-27.3672C51.8281-20.1016 52.151-15.6816 52.7969-14.1074 53.4427-12.5332 54.5729-11.2819 56.1875-10.3535 57.8021-9.42513 60.8698-8.96094 65.3906-8.96094L93.2422-8.96094C102.526-8.96094 109.267-9.60677 113.465-10.8984 117.663-12.1901 121.699-14.7331 125.574-18.5273 130.579-23.5325 135.706-31.0807 140.953-41.1719L145.797-41.1719 131.629 0 5.08594 0 5.08594-4.48047 10.8984-4.48047C14.7734-4.48047 18.4466-5.40885 21.918-7.26562 24.5013-8.55729 26.2572-10.4948 27.1855-13.0781 28.1139-15.6615 28.5781-20.9492 28.5781-28.9414L28.5781-135.625C28.5781-146.039 27.5286-152.457 25.4297-154.879 22.5234-158.108 17.6797-159.723 10.8984-159.723L5.08594-159.723 5.08594-164.203 131.629-164.203 133.445-128.238 128.723-128.238C127.027-136.876 125.15-142.81 123.092-146.039 121.033-149.268 117.986-151.73 113.949-153.426 110.72-154.637 105.029-155.242 96.875-155.242ZM197.145-172.195 197.145-25.0664C197.145-18.1237 197.649-13.5221 198.658-11.2617 199.667-9.0013 201.221-7.28581 203.32-6.11523 205.419-4.94466 209.335-4.35937 215.066-4.35937L215.066 0 160.695 0 160.695-4.35937C165.781-4.35937 169.253-4.88411 171.109-5.93359 172.966-6.98307 174.419-8.71875 175.469-11.1406 176.518-13.5625 177.043-18.2044 177.043-25.0664L177.043-125.816C177.043-138.329 176.76-146.019 176.195-148.885 175.63-151.751 174.722-153.708 173.471-154.758 172.219-155.807 170.625-156.332 168.687-156.332 166.589-156.332 163.924-155.686 160.695-154.395L158.637-158.633 191.695-172.195ZM332.734-76.8945 332.734-29.0625C332.734-18.7292 333.865-12.3112 336.125-9.80859 339.193-6.25651 343.835-4.48047 350.051-4.48047L356.348-4.48047 356.348 0 285.992 0 285.992-4.48047 292.168-4.48047C299.111-4.48047 304.076-6.74088 307.062-11.2617 308.677-13.7643 309.484-19.6979 309.484-29.0625L309.484-135.141C309.484-145.474 308.395-151.892 306.215-154.395 303.066-157.947 298.384-159.723 292.168-159.723L285.992-159.723 285.992-164.203 346.176-164.203C360.868-164.203 372.453-162.689 380.93-159.662 389.406-156.635 396.551-151.529 402.363-144.344 408.176-137.159 411.082-128.642 411.082-118.793 411.082-105.392 406.662-94.4935 397.822-86.0976 388.982-77.7018 376.49-73.5039 360.344-73.5039 356.388-73.5039 352.109-73.7865 347.508-74.3516 342.906-74.9167 337.982-75.7643 332.734-76.8945ZM332.734-83.7969C337.013-82.9896 340.807-82.3841 344.117-81.9805 347.427-81.5768 350.253-81.375 352.594-81.375 360.99-81.375 368.235-84.6243 374.33-91.123 380.425-97.6217 383.473-106.038 383.473-116.371 383.473-123.475 382.02-130.075 379.113-136.17 376.207-142.265 372.09-146.826 366.762-149.854 361.434-152.881 355.379-154.395 348.598-154.395 344.48-154.395 339.193-153.628 332.734-152.094ZM489.973-15.9844C478.59-7.1849 471.445-2.09896 468.539-0.726562 464.18 1.29167 459.538 2.30078 454.613 2.30078 446.944 2.30078 440.627-0.322917 435.662-5.57031 430.697-10.8177 428.215-17.7201 428.215-26.2773 428.215-31.6862 429.426-36.3685 431.848-40.3242 435.157-45.8138 440.909-50.9805 449.103-55.8242 457.297-60.668 470.92-66.5612 489.973-73.5039L489.973-77.8633C489.973-88.9232 488.217-96.5117 484.705-100.629 481.193-104.746 476.087-106.805 469.387-106.805 464.301-106.805 460.264-105.432 457.277-102.687 454.21-99.9427 452.676-96.7943 452.676-93.2422L452.918-86.2187C452.918-82.5052 451.969-79.6393 450.072-77.6211 448.175-75.6029 445.693-74.5937 442.625-74.5937 439.638-74.5937 437.196-75.6432 435.299-77.7422 433.402-79.8411 432.453-82.707 432.453-86.3398 432.453-93.2825 436.005-99.6601 443.109-105.473 450.213-111.285 460.184-114.191 473.019-114.191 482.868-114.191 490.941-112.536 497.238-109.227 502.001-106.724 505.513-102.809 507.773-97.4805 509.227-94.0091 509.953-86.9049 509.953-76.168L509.953-38.5078C509.953-27.9323 510.155-21.4538 510.559-19.0723 510.962-16.6908 511.628-15.0964 512.557-14.2891 513.485-13.4818 514.555-13.0781 515.766-13.0781 517.057-13.0781 518.187-13.3607 519.156-13.9258 520.851-14.9753 524.121-17.9219 528.965-22.7656L528.965-15.9844C519.923-3.875 511.285 2.17969 503.051 2.17969 499.095 2.17969 495.947 0.807291 493.605-1.9375 491.264-4.68229 490.053-9.36458 489.973-15.9844ZM489.973-23.8555 489.973-66.1172C477.782-61.2734 469.911-57.8424 466.359-55.8242 459.982-52.2721 455.421-48.5586 452.676-44.6836 449.931-40.8086 448.559-36.5703 448.559-31.9687 448.559-26.1562 450.294-21.3327 453.766-17.498 457.237-13.6634 461.233-11.7461 465.754-11.7461 471.889-11.7461 479.962-15.7826 489.973-23.8555ZM631.336-42.1406C628.349-27.5286 622.496-16.2871 613.777-8.41601 605.059-0.544922 595.411 3.39062 584.836 3.39062 572.242 3.39062 561.263-1.89714 551.898-12.4727 542.534-23.0482 537.852-37.3372 537.852-55.3398 537.852-72.7773 543.038-86.9453 553.412-97.8437 563.786-108.742 576.238-114.191 590.769-114.191 601.668-114.191 610.629-111.305 617.652-105.533 624.676-99.7611 628.187-93.7669 628.187-87.5508 628.187-84.4831 627.198-82.0006 625.221-80.1035 623.243-78.2064 620.478-77.2578 616.926-77.2578 612.163-77.2578 608.57-78.7917 606.148-81.8594 604.776-83.5547 603.868-86.7838 603.424-91.5469 602.98-96.3099 601.345-99.9427 598.519-102.445 595.694-104.867 591.779-106.078 586.773-106.078 578.7-106.078 572.202-103.091 567.277-97.1172 560.738-89.2057 557.469-78.7513 557.469-65.7539 557.469-52.5143 560.718-40.8288 567.217-30.6973 573.715-20.5658 582.495-15.5 593.555-15.5 601.466-15.5 608.57-18.2044 614.867-23.6133 619.307-27.3268 623.626-34.0677 627.824-43.8359ZM679.336-147.371 679.336-110.922 705.25-110.922 705.25-102.445 679.336-102.445 679.336-30.5156C679.336-23.3307 680.365-18.487 682.424-15.9844 684.482-13.4818 687.126-12.2305 690.355-12.2305 693.019-12.2305 695.603-13.0579 698.105-14.7129 700.608-16.3678 702.546-18.8099 703.918-22.0391L708.641-22.0391C705.815-14.1276 701.819-8.17383 696.652-4.17773 691.486-0.181641 686.157 1.81641 680.668 1.81641 676.954 1.81641 673.322 0.787109 669.769-1.27148 666.217-3.33008 663.594-6.27669 661.898-10.1113 660.203-13.946 659.355-19.8594 659.355-27.8516L659.355-102.445 641.797-102.445 641.797-106.441C646.237-108.217 650.778-111.225 655.42-115.463 660.062-119.701 664.199-124.727 667.832-130.539 669.689-133.607 672.272-139.217 675.582-147.371ZM770.125-114.191C786.917-114.191 800.398-107.814 810.57-95.0586 819.208-84.1601 823.527-71.6471 823.527-57.5195 823.527-47.5898 821.146-37.5391 816.383-27.3672 811.62-17.1953 805.06-9.52604 796.705-4.35937 788.35 0.807291 779.046 3.39062 768.793 3.39062 752.082 3.39062 738.802-3.26953 728.953-16.5898 720.638-27.8112 716.48-40.4049 716.48-54.3711 716.48-64.543 719.003-74.6543 724.049-84.7051 729.094-94.7558 735.734-102.183 743.969-106.986 752.203-111.79 760.922-114.191 770.125-114.191ZM766.371-106.32C762.092-106.32 757.794-105.049 753.475-102.506 749.156-99.9629 745.664-95.5026 743-89.125 740.336-82.7474 739.004-74.5534 739.004-64.543 739.004-48.3971 742.213-34.4714 748.631-22.7656 755.049-11.0599 763.505-5.20703 774-5.20703 781.831-5.20703 788.289-8.4362 793.375-14.8945 798.461-21.3529 801.004-32.4531 801.004-48.1953 801.004-67.8932 796.766-83.3932 788.289-94.6953 782.557-102.445 775.251-106.32 766.371-106.32ZM1007.21-54.9766 943.641-54.9766 932.5-29.0625C929.755-22.6849 928.383-17.9219 928.383-14.7734 928.383-12.2708 929.573-10.071 931.955-8.17383 934.336-6.27669 939.483-5.04557 947.394-4.48047L947.394 0 895.687 0 895.687-4.48047C902.549-5.69141 906.99-7.26562 909.008-9.20312 913.125-13.0781 917.686-20.9492 922.691-32.8164L980.453-167.957 984.691-167.957 1041.85-31.3633C1046.45-20.3841 1050.63-13.2598 1054.38-9.99023 1058.13-6.7207 1063.36-4.88411 1070.06-4.48047L1070.06 0 1005.28 0 1005.28-4.48047C1011.82-4.80338 1016.24-5.89323 1018.54-7.75 1020.84-9.60677 1021.99-11.8672 1021.99-14.5312 1021.99-18.0833 1020.37-23.694 1017.14-31.3633ZM1003.82-63.9375 975.973-130.297 947.394-63.9375ZM1110.64-91.7891C1121.38-106.724 1132.97-114.191 1145.4-114.191 1156.78-114.191 1166.71-109.327 1175.19-99.5996 1183.66-89.8717 1187.9-76.5716 1187.9-59.6992 1187.9-40.0013 1181.36-24.138 1168.29-12.1094 1157.06-1.77604 1144.55 3.39062 1130.75 3.39062 1124.29 3.39062 1117.73 2.22005 1111.07-0.121094 1104.41-2.46224 1097.61-5.97396 1090.66-10.6562L1090.66-125.574C1090.66-138.168 1090.36-145.918 1089.76-148.824 1089.15-151.73 1088.2-153.708 1086.91-154.758 1085.62-155.807 1084-156.332 1082.07-156.332 1079.81-156.332 1076.98-155.686 1073.59-154.395L1071.89-158.633 1105.2-172.195 1110.64-172.195ZM1110.64-84.0391 1110.64-17.6797C1114.76-13.6432 1119.02-10.5957 1123.42-8.53711 1127.82-6.47851 1132.32-5.44922 1136.92-5.44922 1144.27-5.44922 1151.11-9.48568 1157.45-17.5586 1163.78-25.6315 1166.95-37.3776 1166.95-52.7969 1166.95-67.0052 1163.78-77.9238 1157.45-85.5527 1151.11-93.1816 1143.9-96.9961 1135.83-96.9961 1131.55-96.9961 1127.27-95.9062 1123-93.7266 1119.77-92.112 1115.65-88.8828 1110.64-84.0391ZM1236.45-114.191 1236.45-89.2461C1245.74-105.876 1255.26-114.191 1265.03-114.191 1269.47-114.191 1273.14-112.839 1276.05-110.135 1278.96-107.43 1280.41-104.302 1280.41-100.75 1280.41-97.6015 1279.36-94.9375 1277.26-92.7578 1275.16-90.5781 1272.66-89.4883 1269.75-89.4883 1266.93-89.4883 1263.76-90.8808 1260.25-93.666 1256.74-96.4512 1254.13-97.8437 1252.44-97.8437 1250.98-97.8437 1249.41-97.0364 1247.71-95.4219 1244.08-92.112 1240.33-86.6628 1236.45-79.0742L1236.45-25.9141C1236.45-19.7786 1237.22-15.1367 1238.75-11.9883 1239.8-9.80859 1241.66-7.99219 1244.32-6.53906 1246.99-5.08594 1250.82-4.35937 1255.83-4.35937L1255.83 0 1199.04 0 1199.04-4.35937C1204.69-4.35937 1208.88-5.2474 1211.63-7.02344 1213.65-8.3151 1215.06-10.3737 1215.87-13.1992 1216.27-14.5716 1216.47-18.487 1216.47-24.9453L1216.47-67.9336C1216.47-80.8503 1216.21-88.5397 1215.69-91.0019 1215.16-93.4642 1214.19-95.2604 1212.78-96.3906 1211.37-97.5208 1209.61-98.0859 1207.51-98.0859 1205.01-98.0859 1202.18-97.4805 1199.04-96.2695L1197.82-100.629 1231.37-114.191ZM1349.35-15.9844C1337.96-7.1849 1330.82-2.09896 1327.91-0.726562 1323.55 1.29167 1318.91 2.30078 1313.99 2.30078 1306.32 2.30078 1300-0.322917 1295.04-5.57031 1290.07-10.8177 1287.59-17.7201 1287.59-26.2773 1287.59-31.6862 1288.8-36.3685 1291.22-40.3242 1294.53-45.8138 1300.28-50.9805 1308.48-55.8242 1316.67-60.668 1330.3-66.5612 1349.35-73.5039L1349.35-77.8633C1349.35-88.9232 1347.59-96.5117 1344.08-100.629 1340.57-104.746 1335.46-106.805 1328.76-106.805 1323.68-106.805 1319.64-105.432 1316.65-102.687 1313.58-99.9427 1312.05-96.7943 1312.05-93.2422L1312.29-86.2187C1312.29-82.5052 1311.34-79.6393 1309.45-77.6211 1307.55-75.6029 1305.07-74.5937 1302-74.5937 1299.01-74.5937 1296.57-75.6432 1294.67-77.7422 1292.78-79.8411 1291.83-82.707 1291.83-86.3398 1291.83-93.2825 1295.38-99.6601 1302.48-105.473 1309.59-111.285 1319.56-114.191 1332.39-114.191 1342.24-114.191 1350.32-112.536 1356.61-109.227 1361.38-106.724 1364.89-102.809 1367.15-97.4805 1368.6-94.0091 1369.33-86.9049 1369.33-76.168L1369.33-38.5078C1369.33-27.9323 1369.53-21.4538 1369.93-19.0723 1370.34-16.6908 1371-15.0964 1371.93-14.2891 1372.86-13.4818 1373.93-13.0781 1375.14-13.0781 1376.43-13.0781 1377.56-13.3607 1378.53-13.9258 1380.23-14.9753 1383.5-17.9219 1388.34-22.7656L1388.34-15.9844C1379.3-3.875 1370.66 2.17969 1362.43 2.17969 1358.47 2.17969 1355.32 0.807291 1352.98-1.9375 1350.64-4.68229 1349.43-9.36458 1349.35-15.9844ZM1349.35-23.8555 1349.35-66.1172C1337.16-61.2734 1329.29-57.8424 1325.73-55.8242 1319.36-52.2721 1314.8-48.5586 1312.05-44.6836 1309.31-40.8086 1307.93-36.5703 1307.93-31.9687 1307.93-26.1562 1309.67-21.3327 1313.14-17.498 1316.61-13.6634 1320.61-11.7461 1325.13-11.7461 1331.26-11.7461 1339.34-15.7826 1349.35-23.8555ZM1429.07-172.195 1429.07-91.0625C1438.03-100.911 1445.14-107.229 1450.39-110.014 1455.63-112.799 1460.88-114.191 1466.13-114.191 1472.43-114.191 1477.83-112.456 1482.36-108.984 1486.88-105.513 1490.23-100.064 1492.41-92.6367 1493.94-87.47 1494.71-78.0247 1494.71-64.3008L1494.71-25.0664C1494.71-18.043 1495.27-13.2396 1496.4-10.6562 1497.21-8.71875 1498.58-7.1849 1500.52-6.05469 1502.46-4.92448 1506.01-4.35937 1511.18-4.35937L1511.18 0 1456.68 0 1456.68-4.35937 1459.23-4.35937C1464.39-4.35937 1467.99-5.14648 1470-6.7207 1472.02-8.29492 1473.43-10.6159 1474.24-13.6836 1474.48-14.9753 1474.61-18.7695 1474.61-25.0664L1474.61-64.3008C1474.61-76.4101 1473.98-84.362 1472.73-88.1562 1471.48-91.9505 1469.48-94.7962 1466.73-96.6934 1463.99-98.5905 1460.68-99.5391 1456.8-99.5391 1452.85-99.5391 1448.73-98.4896 1444.45-96.3906 1440.17-94.2917 1435.05-90.0534 1429.07-83.6758L1429.07-25.0664C1429.07-17.4779 1429.5-12.7552 1430.35-10.8984 1431.19-9.04167 1432.77-7.48763 1435.07-6.23633 1437.37-4.98503 1441.34-4.35937 1447-4.35937L1447 0 1392.02 0 1392.02-4.35937C1396.94-4.35937 1400.82-5.1263 1403.64-6.66016 1405.26-7.46745 1406.55-9.0013 1407.52-11.2617 1408.49-13.5221 1408.97-18.1237 1408.97-25.0664L1408.97-125.453C1408.97-138.128 1408.67-145.918 1408.06-148.824 1407.46-151.73 1406.53-153.708 1405.28-154.758 1404.03-155.807 1402.35-156.332 1400.25-156.332 1398.56-156.332 1395.81-155.686 1392.02-154.395L1390.32-158.633 1423.5-172.195ZM1583.1-15.9844C1571.71-7.1849 1564.57-2.09896 1561.66-0.726562 1557.3 1.29167 1552.66 2.30078 1547.74 2.30078 1540.07 2.30078 1533.75-0.322917 1528.79-5.57031 1523.82-10.8177 1521.34-17.7201 1521.34-26.2773 1521.34-31.6862 1522.55-36.3685 1524.97-40.3242 1528.28-45.8138 1534.03-50.9805 1542.23-55.8242 1550.42-60.668 1564.05-66.5612 1583.1-73.5039L1583.1-77.8633C1583.1-88.9232 1581.34-96.5117 1577.83-100.629 1574.32-104.746 1569.21-106.805 1562.51-106.805 1557.43-106.805 1553.39-105.432 1550.4-102.687 1547.33-99.9427 1545.8-96.7943 1545.8-93.2422L1546.04-86.2187C1546.04-82.5052 1545.09-79.6393 1543.2-77.6211 1541.3-75.6029 1538.82-74.5937 1535.75-74.5937 1532.76-74.5937 1530.32-75.6432 1528.42-77.7422 1526.53-79.8411 1525.58-82.707 1525.58-86.3398 1525.58-93.2825 1529.13-99.6601 1536.23-105.473 1543.34-111.285 1553.31-114.191 1566.14-114.191 1575.99-114.191 1584.07-112.536 1590.36-109.227 1595.13-106.724 1598.64-102.809 1600.9-97.4805 1602.35-94.0091 1603.08-86.9049 1603.08-76.168L1603.08-38.5078C1603.08-27.9323 1603.28-21.4538 1603.68-19.0723 1604.09-16.6908 1604.75-15.0964 1605.68-14.2891 1606.61-13.4818 1607.68-13.0781 1608.89-13.0781 1610.18-13.0781 1611.31-13.3607 1612.28-13.9258 1613.98-14.9753 1617.25-17.9219 1622.09-22.7656L1622.09-15.9844C1613.05-3.875 1604.41 2.17969 1596.18 2.17969 1592.22 2.17969 1589.07 0.807291 1586.73-1.9375 1584.39-4.68229 1583.18-9.36458 1583.1-15.9844ZM1583.1-23.8555 1583.1-66.1172C1570.91-61.2734 1563.04-57.8424 1559.48-55.8242 1553.11-52.2721 1548.55-48.5586 1545.8-44.6836 1543.06-40.8086 1541.68-36.5703 1541.68-31.9687 1541.68-26.1562 1543.42-21.3327 1546.89-17.498 1550.36-13.6634 1554.36-11.7461 1558.88-11.7461 1565.01-11.7461 1573.09-15.7826 1583.1-23.8555ZM1595.09-168.32 1559.36-126.543 1555.25-126.543 1567.96-168.32ZM1663.19-90.5781C1671.26-98.651 1676.02-103.293 1677.48-104.504 1681.11-107.572 1685.02-109.953 1689.22-111.648 1693.42-113.344 1697.58-114.191 1701.7-114.191 1708.64-114.191 1714.61-112.173 1719.62-108.137 1724.62-104.1 1727.97-98.2474 1729.67-90.5781 1737.98-100.266 1745.01-106.623 1750.74-109.65 1756.47-112.678 1762.36-114.191 1768.42-114.191 1774.31-114.191 1779.54-112.678 1784.1-109.65 1788.66-106.623 1792.27-101.678 1794.94-94.8164 1796.71-90.1341 1797.6-82.7878 1797.6-72.7773L1797.6-25.0664C1797.6-18.1237 1798.13-13.3607 1799.18-10.7773 1799.98-9.0013 1801.48-7.48763 1803.66-6.23633 1805.84-4.98503 1809.39-4.35937 1814.31-4.35937L1814.31 0 1759.58 0 1759.58-4.35937 1761.88-4.35937C1766.64-4.35937 1770.36-5.28776 1773.02-7.14453 1774.88-8.4362 1776.21-10.4948 1777.02-13.3203 1777.34-14.6927 1777.5-18.6081 1777.5-25.0664L1777.5-72.7773C1777.5-81.819 1776.41-88.1966 1774.23-91.9101 1771.08-97.0768 1766.04-99.6601 1759.09-99.6601 1754.81-99.6601 1750.52-98.5905 1746.2-96.4512 1741.88-94.3118 1736.65-90.3359 1730.52-84.5234L1730.27-83.1914 1730.52-77.9844 1730.52-25.0664C1730.52-17.4779 1730.94-12.7552 1731.79-10.8984 1732.63-9.04167 1734.23-7.48763 1736.57-6.23633 1738.91-4.98503 1742.91-4.35937 1748.56-4.35937L1748.56 0 1692.49 0 1692.49-4.35937C1698.63-4.35937 1702.85-5.08594 1705.15-6.53906 1707.45-7.99219 1709.04-10.1719 1709.93-13.0781 1710.33-14.4505 1710.53-18.4466 1710.54-25.0664L1710.54-72.7773C1710.53-81.819 1709.2-88.3177 1706.54-92.2734 1702.99-97.4401 1698.02-100.023 1691.64-100.023 1687.28-100.023 1682.97-98.8529 1678.69-96.5117 1671.99-92.9596 1666.82-88.9635 1663.19-84.5234L1663.19-25.0664C1663.19-17.8008 1663.69-13.0781 1664.7-10.8984 1665.71-8.71875 1667.2-7.08398 1669.18-5.99414 1671.16-4.9043 1675.18-4.35937 1681.23-4.35937L1681.23 0 1626.37 0 1626.37-4.35937C1631.46-4.35937 1635.01-4.9043 1637.03-5.99414 1639.05-7.08398 1640.58-8.81966 1641.63-11.2012 1642.68-13.5827 1643.21-18.2044 1643.21-25.0664L1643.21-67.4492C1643.21-79.6393 1642.84-87.5104 1642.12-91.0625 1641.55-93.7265 1640.66-95.5631 1639.45-96.5723 1638.24-97.5814 1636.59-98.0859 1634.49-98.0859 1632.23-98.0859 1629.52-97.4805 1626.37-96.2695L1624.56-100.629 1657.98-114.191 1663.19-114.191ZM1850.96-172.195C1854.36-172.195 1857.24-171.005 1859.62-168.623 1862-166.242 1863.2-163.355 1863.2-159.965 1863.2-156.574 1862-153.668 1859.62-151.246 1857.24-148.824 1854.36-147.613 1850.96-147.613 1847.57-147.613 1844.67-148.824 1842.25-151.246 1839.82-153.668 1838.61-156.574 1838.61-159.965 1838.61-163.355 1839.8-166.242 1842.19-168.623 1844.57-171.005 1847.49-172.195 1850.96-172.195ZM1861.02-114.191 1861.02-25.0664C1861.02-18.1237 1861.52-13.502 1862.53-11.2012 1863.54-8.90039 1865.03-7.1849 1867.01-6.05469 1868.99-4.92448 1872.6-4.35937 1877.85-4.35937L1877.85 0 1823.96 0 1823.96-4.35937C1829.37-4.35937 1833-4.88411 1834.86-5.93359 1836.72-6.98307 1838.19-8.71875 1839.28-11.1406 1840.37-13.5625 1840.91-18.2044 1840.91-25.0664L1840.91-67.8125C1840.91-79.8411 1840.55-87.6315 1839.82-91.1836 1839.26-93.7669 1838.37-95.5631 1837.16-96.5723 1835.95-97.5814 1834.29-98.0859 1832.2-98.0859 1829.93-98.0859 1827.19-97.4805 1823.96-96.2695L1822.27-100.629 1855.69-114.191ZM1985.71-42.1406C1982.72-27.5286 1976.87-16.2871 1968.15-8.41601 1959.43-0.544922 1949.79 3.39062 1939.21 3.39062 1926.62 3.39062 1915.64-1.89714 1906.27-12.4727 1896.91-23.0482 1892.23-37.3372 1892.23-55.3398 1892.23-72.7773 1897.41-86.9453 1907.79-97.8437 1918.16-108.742 1930.61-114.191 1945.14-114.191 1956.04-114.191 1965-111.305 1972.03-105.533 1979.05-99.7611 1982.56-93.7669 1982.56-87.5508 1982.56-84.4831 1981.57-82.0006 1979.6-80.1035 1977.62-78.2064 1974.85-77.2578 1971.3-77.2578 1966.54-77.2578 1962.95-78.7917 1960.52-81.8594 1959.15-83.5547 1958.24-86.7838 1957.8-91.5469 1957.35-96.3099 1955.72-99.9427 1952.89-102.445 1950.07-104.867 1946.15-106.078 1941.15-106.078 1933.08-106.078 1926.58-103.091 1921.65-97.1172 1915.11-89.2057 1911.84-78.7513 1911.84-65.7539 1911.84-52.5143 1915.09-40.8288 1921.59-30.6973 1928.09-20.5658 1936.87-15.5 1947.93-15.5 1955.84-15.5 1962.95-18.2044 1969.24-23.6133 1973.68-27.3268 1978-34.0677 1982.2-43.8359ZM2055.75-114.191C2072.54-114.191 2086.02-107.814 2096.2-95.0586 2104.83-84.1601 2109.15-71.6471 2109.15-57.5195 2109.15-47.5898 2106.77-37.5391 2102.01-27.3672 2097.24-17.1953 2090.69-9.52604 2082.33-4.35937 2073.97 0.807291 2064.67 3.39062 2054.42 3.39062 2037.71 3.39062 2024.43-3.26953 2014.58-16.5898 2006.26-27.8112 2002.11-40.4049 2002.11-54.3711 2002.11-64.543 2004.63-74.6543 2009.67-84.7051 2014.72-94.7558 2021.36-102.183 2029.59-106.986 2037.83-111.79 2046.55-114.191 2055.75-114.191ZM2052-106.32C2047.72-106.32 2043.42-105.049 2039.1-102.506 2034.78-99.9629 2031.29-95.5026 2028.62-89.125 2025.96-82.7474 2024.63-74.5534 2024.63-64.543 2024.63-48.3971 2027.84-34.4714 2034.26-22.7656 2040.67-11.0599 2049.13-5.20703 2059.62-5.20703 2067.46-5.20703 2073.91-8.4362 2079-14.8945 2084.09-21.3529 2086.63-32.4531 2086.63-48.1953 2086.63-67.8932 2082.39-83.3932 2073.91-94.6953 2068.18-102.445 2060.88-106.32 2052-106.32Z" fill="#FFFF00" fill-rule="nonzero" fill-opacity="1" transform="matrix(1 0 0 1 161.95 326)"/></g></g><text fill="#FFFF00" fill-opacity="1" font-family="Times New Roman,Times New Roman_MSFontService,sans-serif" font-style="normal" font-variant="normal" font-weight="400" font-stretch="normal" font-size="248" text-anchor="start" direction="ltr" writing-mode="lr-tb" unicode-bidi="normal" text-decoration="none" transform="matrix(1 0 0 1 657.135 349)">El Pacto Abrahámico</text></g></svg>