<svg width="2251" height="308" xmlns="http://www.w3.org/2000/svg" xmlns:xlink="http://www.w3.org/1999/xlink" xml:space="preserve" overflow="hidden"><defs><clipPath id="clip0"><rect x="1122" y="2112" width="2251" height="308"/></clipPath></defs><g clip-path="url(#clip0)" transform="translate(-1122 -2112)"><rect x="0" y="119.523" width="2083.48" height="149.477" fill="#FFC000" fill-opacity="1" transform="matrix(1 0 0 -1 1161.5 2415.5)"/><path d="M2083.48 119.523 2203 0 2203 149.477 2083.48 269Z" fill="#CD9A00" fill-rule="evenodd" fill-opacity="1" transform="matrix(1 0 0 -1 1161.5 2415.5)"/><path d="M0 119.523 119.522 0 2203 0 2083.48 119.523Z" fill="#FFCC32" fill-rule="evenodd" fill-opacity="1" transform="matrix(1 0 0 -1 1161.5 2415.5)"/><path d="M0 119.523 119.522 0 2203 0 2203 149.477 2083.48 269 0 269ZM0 119.523 2083.48 119.523 2203 0M2083.48 119.523 2083.48 269" stroke="#000000" stroke-width="9.16667" stroke-linecap="butt" stroke-linejoin="miter" stroke-miterlimit="8" stroke-opacity="1" fill="none" fill-rule="evenodd" transform="matrix(1 0 0 -1 1161.5 2415.5)"/><text fill="#000000" fill-opacity="1" font-family="Times New Roman,Times New Roman_MSFontService,sans-serif" font-style="normal" font-variant="normal" font-weight="700" font-stretch="normal" font-size="110" text-anchor="start" direction="ltr" writing-mode="lr-tb" unicode-bidi="normal" text-decoration="none" transform="matrix(1 0 0 1 1193.57 2255)">Daniel  (605</text><text fill="#000000" fill-opacity="1" font-family="Times New Roman,Times New Roman_MSFontService,sans-serif" font-style="normal" font-variant="normal" font-weight="700" font-stretch="normal" font-size="110" text-anchor="start" direction="ltr" writing-mode="lr-tb" unicode-bidi="normal" text-decoration="none" transform="matrix(1 0 0 1 1755.6 2255)">-</text><text fill="#000000" fill-opacity="1" font-family="Times New Roman,Times New Roman_MSFontService,sans-serif" font-style="normal" font-variant="normal" font-weight="700" font-stretch="normal" font-size="110" text-anchor="start" direction="ltr" writing-mode="lr-tb" unicode-bidi="normal" text-decoration="none" transform="matrix(1 0 0 1 1792.27 2255)">536)</text></g></svg>