<?xml version="1.0" encoding="UTF-8" standalone="no"?>
<svg
   xmlns:dc="http://purl.org/dc/elements/1.1/"
   xmlns:cc="http://creativecommons.org/ns#"
   xmlns:rdf="http://www.w3.org/1999/02/22-rdf-syntax-ns#"
   xmlns:svg="http://www.w3.org/2000/svg"
   xmlns="http://www.w3.org/2000/svg"
   xmlns:sodipodi="http://sodipodi.sourceforge.net/DTD/sodipodi-0.dtd"
   xmlns:inkscape="http://www.inkscape.org/namespaces/inkscape"
   viewBox="0 0 1202 832"
   version="1.1"
   id="svg4809"
   sodipodi:docname="temple-artemis.svg"
   inkscape:version="1.0.2 (e86c8708, 2021-01-15)">
  <metadata
     id="metadata4815">
    <rdf:RDF>
      <cc:Work
         rdf:about="">
        <dc:format>image/svg+xml</dc:format>
        <dc:type
           rdf:resource="http://purl.org/dc/dcmitype/StillImage" />
      </cc:Work>
    </rdf:RDF>
  </metadata>
  <defs
     id="defs4813" />
  <sodipodi:namedview
     pagecolor="#ffffff"
     bordercolor="#666666"
     borderopacity="1"
     objecttolerance="10"
     gridtolerance="10"
     guidetolerance="10"
     inkscape:pageopacity="0"
     inkscape:pageshadow="2"
     inkscape:window-width="1410"
     inkscape:window-height="901"
     id="namedview4811"
     showgrid="false"
     inkscape:zoom="0.3636868"
     inkscape:cx="554.59614"
     inkscape:cy="552.56052"
     inkscape:window-x="0"
     inkscape:window-y="25"
     inkscape:window-maximized="0"
     inkscape:current-layer="g4807" />
  <g
     fill-rule="evenodd"
     stroke-width=".5"
     id="g4807">
    <path
       d="m250.8 423.5l0.2-29.5 2.5 0.2 2.5 0.3 15.5 5q15.5 5 18.5 9.5t7 5.8q4 1.2 4.2 32.7 0.3 31.5 0.8 37.5l0.5 6 0.5-9.5q0.5-9.5 1-33.5l0.5-24 0.3 45 0.2 45h-0.5l-0.5 1-0.5 1-0.5-3.5-0.5-3.5-0.3-0.2-0.2-0.3-0.2-0.3-0.3-0.2-1.3 115.5q-1.2 115.5-2.2 115.5t-1.5 4.5-4.7 6q-4.3 1.5-5 4-0.8 2.5-10 2.5-9.3 0-9.8-1t-0.8-1h-0.2l-0.2-0.5q-0.3-0.5-0.6-0.5h-2.2q-2 0-2.2-4-0.3-4-6.6-5-6.2-1-5.7-83l0.5-82 0.2-1 0.3-1 0.5-62q0.5-62 0.8-91.5z"
       fill="#fefefe"
       stroke="#fefefe"
       id="path4717" />
    <path
       d="m679 177l1 0.5 1 0.5 1 0.5 0.5 0.3 0.5 0.2v0.5l0.5 0.3 0.5 0.2v0.5l0.2 0.3 0.3 0.2v1l-0.3 0.2-0.2 0.3-0.2 0.3-0.3 0.2-0.3 0.2-0.2 0.3-1 0.5-1 0.5-1 0.3q-1 0.2-1 1.2t-2 1.5-2 1.5-4.5 2.2q-4.5 1.3-175 39.3t-268.5 58-109.5 20.7l-11.5 0.8 0.2-1 0.3-1 0.3-1.5 0.2-1.5 0.2-0.5 0.3-0.5 0.5-1 0.5-1 103-113.5q103-113.5 118.7-130.7 15.8-17.3 16.8-17.6 1-0.2 4-3.4 3-3.3 14.5-5.8t14.7-1.2q3.3 1.2 47.6 22.4 44.2 21.3 147.2 72.8t104 52z"
       fill="#ccc"
       stroke="#ccc"
       id="path4719" />
    <path
       d="m683 180v-1l2.5 1.2q2.5 1.3 8 1.6 5.5 0.2 6.5 11.4 1 11.3 2.5 12 1.5 0.8 2 2 0.5 1.3 41.7 22.6 41.3 21.2 212.8 113.7t171.8 92.7l0.2 0.3 1 0.5 1 0.5 0.2 0.3 0.3 0.2 0.3 0.2 0.2 0.3 0.2 0.3 0.3 0.2 0.3 0.2 0.2 0.3 1 0.3 1 0.2v2l-2 0.2-2 0.3-3.5 0.5q-3.5 0.5-8.7 1.2-5.3 0.8-50-22.4l-44.8-23.3-1-0.3-1-0.2-0.2-0.5q-0.3-0.5-0.6-0.5h-0.2l-0.5-0.2q-0.5-0.3-110.5-57.8t-161-84.5-52-32.3q-1-5.2-6-5.4-5-0.3-11.5 0.2l-6.5 0.5-0.2 0.3-0.3 0.2-0.3 0.2-0.2 0.3v0.5l-3 0.2q-3 0.3-20 3.6l-17 3.2-2.5 0.2q-2.5 0.3-2.5 0.6v0.2l-2.5 0.2q-2.5 0.3-44 7.8t-152.5 30.5-204.5 45.5-103 24-10-0.2q-0.5-1.8-4-1.8t-3.7-1l-0.3-1-0.3 0.2-0.2 0.3-2 0.3-2 0.2v2h-2l-0.2 1-0.3 1-0.3 1.5-0.2 1.5-1-0.2q-1-0.3-4.5-1.3l-3.5-1-1.5-0.5-1.5-0.5-1-0.5-1-0.5-0.2-0.3-0.3-0.2v-8q0-8 0.5-8.5t8.2-2.7q7.8-2.3 11-5.6l3.3-3.2 0.3-0.2 0.2-0.3 0.2-0.3 0.3-0.2h0.5l-0.2 1.5-0.3 1.5-0.3 1-0.2 1 11.5-0.8q11.5-0.7 109.5-20.7t268.5-58 175-39.3q4.5-1.2 4.5-2.2t2-1.5 2-1.5 1-1.2l1-0.3 1-0.5 1-0.5 0.2-0.3 0.3-0.2 0.3-0.2 0.2-0.3 0.2-0.3 0.3-0.2 0.3-0.2q0.2-0.3-0.8-0.6-1-0.2-1-1.2z"
       fill="#d1d1d1"
       stroke="#d1d1d1"
       id="path4721" />
    <path
       d="m892.8 621l0.2-115 0.8 28q0.7 28 1 118 0.2 90 5.4 91 5.3 1 5.6 5 0.2 4 3 4.5 2.7 0.5 3 4l0.2 3.5h7v0.5l14.5 1q14.5 1 24 1h9.5l0.2-0.3 0.3-0.2v-3l-0.3-0.2-0.2-0.3-0.2-0.3q-0.3-0.2-1-2.2-0.8-2 0.2-2.2 1-0.3 0.5-1.6-0.5-1.2 1-1.7l1.5-0.5h3.5q3.5 0 4 3.8 0.5 3.7 2.5 4 2 0.2 2 2 0 1.7 0.2 2l0.3 0.2v1l-0.3 0.2-0.2 0.3 0.2 0.3 0.3 0.2 0.3 0.2 0.2 0.3 1.5 0.3 1.5 0.2v0.5l8.5 0.5q8.5 0.5 16 0.8l7.5 0.2-0.2-2-0.3-2-0.3-0.2q-0.2-0.3-1.7-4.8l-1.5-4.5-0.2-0.3-0.3-0.2-0.3-1-0.2-1 1 0.2 1 0.3 4-0.5q4-0.5 5.2-0.8 1.3-0.2 1.6-5.7l0.2-5.5 0.5 8q0.5 8 6 8.5t5.5 4 2 3.7q2 0.3 2.2 0.6l0.3 0.2 0.3 1 0.2 1v4l1 0.2 1 0.3 8 0.5q8 0.5 19.5 0.8l11.5 0.2-0.2-1.5-0.3-1.5-0.3-0.2-0.2-0.3-0.2-0.3-0.3-0.2-0.5-2q-0.5-2-0.8-3.5l-0.2-1.5 1 0.2q1 0.3 3 0.8t3.2 2.8q1.3 2.2 3 3.2 1.8 1 2.3 3.5t15 4.7q14.5 2.3 16.7 8 2.3 5.8 10.6 7.8 8.2 2 9 7 0.7 5 9 7.2 8.2 2.3 9 8.6 0.7 6.2-2.6 8-3.2 1.7-149.7 2.7l-146.5 1 111.5 0.5 111.5 0.5-108.5 0.5q-108.5 0.5-109 0.5t-70.5 1-71.5 1.7l-1.5 0.8h-696v-0.5l-1-0.3q-1-0.2-0.8-7.2 0.3-7 13-8 12.8-1 13.3-9.5t13.5-9 13.5-9 13-9.3q12.5-0.7 13.5-9 1-8.2 25-9.4 24-1.3 24.8-4 0.7-2.8 3-4 2.2-1.3 2.7-5 0.5-3.8 6.3-4.8 5.7-1 7.4-15l1.8-14h0.5l0.3-2.5 0.2-2.5h0.2q0.3 0 0.8-1l0.5-1 0.5-4q0.5-4 1.2-12.5 0.8-8.5 1.8-8.5t1.2 1.5q0.3 1.5 1-0.3 0.8-1.7 1.6-5l0.7-3.2 0.5-2 0.5-2 0.5 1 0.5 1 1.3 34.2q1.2 34.3-1 35-2.3 0.8-2.8 4.8l-0.5 4v5l0.3 1 0.2 1 4-0.2 4-0.3 1-0.5 1-0.5 0.2-0.3 0.3-0.2 0.3-0.2 0.2-0.3 0.2-0.3 0.3-0.2 0.3-0.2q0.2-0.3 2.2-3.8t3.2-8.2l1.3-4.8 0.5-2 0.5-2h0.5v4h2l0.2 1.5 0.3 1.5 2 7q2 7 2.3 8l0.2 1h13v1.5q0 1.5 1 1.3l1-0.3 0.2-0.3 0.3-0.2 0.3 0.2 0.2 0.3h2l0.2-0.3 0.3-0.2 0.3 0.2 0.2 0.3 9 0.5 9 0.5-14 0.5-14 0.5-0.2 0.3-0.3 0.2-0.3 0.2-0.2 0.3h6l15-0.5 15-0.5-3-0.5-3-0.5 10 0.5q10 0.5 13.5 0.5h3.5l3.5 0.5 3.5 0.5-11.5 0.5q-11.5 0.5-34 1l-22.5 0.5-0.2 0.3-0.3 0.2-0.3 0.2-0.2 0.3-1 0.5-1 0.5h22q22 0 27 0.5t8 0.5h3l1.5-0.3 1.5-0.2v2l-10 0.2q-10 0.3-28 1.3t-23 2l-5 1-4 0.5-4 0.5 1 0.5 1 0.5 48.5-1q48.5-1 62.5-1.5l14-0.5-3.5-0.5-3.5-0.5 16-1.5q16-1.5 86-5.5t100.5-4.5 40-1l9.5-0.5-3-0.5-3-0.5-2.5-0.5q-2.5-0.5-0.5-1t-5-0.5h-9l-1-0.5-1-0.5 16-1q16-1 32.5-2.3 16.5-1.2 16.5-2.2t2.5-1.2q2.5-0.3 2.5-1.3t-1-1.3q-1-0.2 0.5-4.4 1.5-4.3 0-4.6-1.5-0.2 0.5-2.4 2-2.3 3-2.6 1-0.2 1.2-1.2l0.3-1 0.3-0.2 0.2-0.3 0.2-0.3 0.3-0.2 0.3-1 0.2-1h-9v-0.5l4-0.3 4-0.2v-6h0.5l0.5 1.5 0.5 1.5 0.3 1 0.2 1 1-0.2 1-0.3 0.2-0.3 0.3-0.2 0.3 0.2 0.2 0.3 0.2 0.3 0.3 0.2 0.5-1 0.5-1 1.3-2q1.2-2 3.7-2.2 2.5-0.3 4-1 1.5-0.8 1.7-1.8l0.3-1 0.3-0.2 0.2-0.3 0.2-0.3 0.3-0.2 0.3-0.2 0.2-0.3h2l0.2 0.3 0.3 0.2 0.5 1.5 0.5 1.5 0.5 1 0.5 1 0.3 0.2 0.2 0.3 0.2 0.3 0.3 0.2 0.5 1.5q0.5 1.5 0.8 2l0.2 0.5h-0.2q-0.3 0-0.6 0.5l-0.2 0.5-1.8 1q-1.7 1-2.2 5.5t-0.5 6.5v2l0.5 1.5 0.5 1.5 0.3 0.2 0.2 0.3h10l0.2-0.3 0.3-0.2 0.3-0.2 0.2-0.3 0.2-0.3 0.3-0.2 0.3-0.2 0.2-0.3 0.2-0.3 0.3-0.2 0.5-2q0.5-2 2-8t3.5-13.5 2.5-10 3.5-29 5.5-41.5l2.5-15 0.5-1.5 0.5-1.5 0.5-1 0.5-1 0.3-0.2 0.2-0.3 0.2-0.3 0.3-0.2 0.3-0.2 0.2-0.3 0.2-0.3 0.3-0.2 0.3-0.2 0.2-0.3 0.2-0.3 0.3-0.2 0.3 0.2 0.2 0.3 0.2 0.3 0.3 0.2 0.5 1.5 0.5 1.5 4 32q4 32 4.5 34l0.5 2 0.5 2.5 0.5 2.5 0.3 0.2 0.2 0.3 0.2 0.3 0.3 0.2 0.5 1 0.5 1 0.5-5 0.5-5 0.5 2.5 0.5 2.5 1.5 4.5q1.5 4.5 2 7l0.5 2.5 0.3 0.2 0.2 0.3 0.2 0.3 0.3 0.2 0.3-0.2 0.2-0.3 0.2-0.3 0.3-0.2 0.5-1.5 0.5-1.5 0.5 2 0.5 2 0.5-12.5 0.5-12.5h0.5l0.5 23.2q0.5 23.3 7.3 24.6 6.7 1.2 7 5.7 0.2 4.5 3.7 5.7 3.5 1.3 3.5 4.3t8.5 4 13 1.3l4.5 0.2h0.5l0.3 0.2 0.2 0.3 23 1.5q23 1.5 26 1.2l3-0.2v-4l-1-0.2-1-0.3-0.2-0.3-0.3-0.2-0.3-0.2-0.2-0.3 0.2-0.3 0.3-0.2v-0.5q0-0.5 0-1.5t-2.3-3.2q-2.2-2.3-4.2-3.6-2-1.2-2-2.7t-1.8-3l-1.7-1.5-0.3-2-0.2-2h4l0.2-1.5 0.3-1.5 0.5 1 0.5 1 0.5-1 0.5-1 0.5 1.5 0.5 1.5 0.5-1.5 0.5-1.5 1.3 1.8q1.2 1.7 1.7 1.4l0.5-0.2h0.2q0.3 0 0.6 5l0.2 5h4l0.2-3.5 0.3-3.5 0.5-8 0.5-8h0.5l1.2 8.5q1.3 8.5 2 11.7 0.8 3.3 2 4 1.3 0.8 2 5 0.8 4.3 3 5 2.3 0.8 2.6 4.3 0.2 3.5 3.2 3.7 3 0.3 10 0.6l7 0.2v0.5l0.2 0.3q0.3 0.2 0.6-0.3l0.2-0.5 7.5 0.8q7.5 0.7 16.5 0.7h9l-0.2-0.3-0.3-0.2v-3q0-1-0.5-5t-1.2-7l-0.8-3h-2l0.2-1 0.3-1 0.3-0.2 0.2-0.3h3l2.8 0.7q2.7 0.8 4 0.3 1.2-0.5 1.4 0.5l0.3 1 0.3-0.2 0.2-0.3 0.2-0.3 0.3-0.2 0.3-115z"
       fill="#d0d0d0"
       stroke="#d0d0d0"
       id="path4723" />
    <path
       d="m387.8 540l0.2-99 2.2 10.5q2.3 10.5 2.8 13l0.5 2.5 0.5 1 0.5 1 0.5 1 0.5 1 0.5 1 0.5 1 0.5-4 0.5-4 0.5 2 0.5 2 9 22.5q9 22.5 12.5 27.5t3.8 5.2l0.2 0.3 0.2 0.3 0.3 0.2 0.3 0.2 0.2 0.3 0.2 0.3 0.3 0.2 0.3 0.2 0.2 0.3h3l0.2-0.3 0.3-0.2 0.3-0.2 0.2-0.3 0.2-0.3 0.3-0.2 0.3-0.2 0.2-0.3 0.2-0.3 0.3-0.2 0.3-0.2q0.2-0.3 3.7-5.3t6.7-20.7l3.3-15.8 0.5-1.5 0.5-1.5 0.3 0.2 0.2 0.3 0.2 0.3 0.3 0.2 0.5 4 0.5 4 0.5-3.5 0.5-3.5 0.5-3 0.5-3 1 71q1 71 2.5 78t2 11l0.5 4 0.5-4.5 0.5-4.5 0.5 2 0.5 2 0.5 38q0.5 38 0.8 38h0.2v10.5q0 10.5-7 11.5t-7.2 5q-0.3 4-3 5-2.8 1-3 4.5-0.3 3.5-28.6 4.5l-28.2 1-0.2-0.5-0.3-0.5-0.3-0.2-0.2-0.3 1-0.5 1-0.5 0.2-0.3 0.3-0.2 0.3-0.2 0.2-0.3-1.5-0.5q-1.5-0.5-1.7-5.8-0.3-5.2 0.4-5.7 0.8-0.5 2-22.5 1.3-22 1.8-20t1-26.5 0.8-127.5z"
       fill="#838383"
       stroke="#838383"
       id="path4725" />
    <path
       d="m671 219.2l3-0.2 8.5 0.2 8.5 0.3-0.2 0.3-0.3 0.2-0.3 0.2-0.2 0.3-1 0.5-1 0.5 1 0.3 1 0.2 0.2 1 0.3 1 0.3 0.2 0.2 0.3 0.2 0.3 0.3 0.2 0.5 1 0.5 1 0.3 0.2 0.2 0.3 0.2 0.3 0.3 0.2v2l-0.3 0.2-0.2 0.3-1 0.5q-1 0.5-4 1.8l-3 1.2-2 0.2q-2 0.3-2 0.6v0.2l-2 0.2q-2 0.3-7.5 2l-5.5 1.8-2 0.2q-2 0.3-18.8 5-16.7 4.8-16 5.6 0.8 0.7-6.2 2.7t-7.8 5.3q-0.7 3.2-1.2 2.7l-0.5-0.5-0.5-1-0.5-1-0.5 1-0.5 1v4l0.3 0.2 0.2 0.3 1-1.3q1-1.2 2-1.2t1.2 1.5l0.3 1.5 0.5 2 0.5 2v1l-0.7 1.2q-0.8 1.3-2 1-1.3-0.2-1.6 0.8-0.2 1-2 2-1.7 1-2 2-0.2 1 1.6 1.5 1.7 0.5 2 2.5l0.2 2h-0.2q-0.3 0-0.6-1.5-0.2-1.5-2.7-1.5t-3-7-3.5-8.2q-3-1.3-15-1.3t-27 3-18.2 6.3q-3.3 3.2-8 6-4.8 2.7-4.8 4.2t-8.5 2.5-21 3.3q-12.5 2.2-12.7 3.7-0.3 1.5 0.7 3.5t-0.3 2.5l-1.2 0.5-0.2-0.5q-0.3-0.5-6.6-2.3-6.2-1.7-4.7-2.2t0.3-1.2q-1.3-0.8-0.8-2.3t5.2-2.3l4.8-0.7-6-0.5q-6-0.5-8.5-0.5h-7.5l0.2-0.3 0.3-0.2 0.3-0.2 0.2-0.3 1.5-0.5 1.5-0.5 1.5-0.5 1.5-0.5 12.5-2q12.5-2 15-2.5l2.5-0.5 1-0.5 1-0.5 0.2-0.3 0.3-0.2 0.3-0.2 0.2-0.3 1-0.5 1-0.5 0.2-0.3 0.3-0.2 0.3-0.2 0.2-0.3 0.2-0.3 0.3-0.2 0.3-0.2 0.2-0.3h-6.5q-6.5 0-12 1t-21.7 4.7q-16.3 3.8-17 7.8-0.8 4-2.8 4t-2.2 3.5q-0.3 3.5-1.3 5.5t-1.7 6.5l-0.8 4.5h-0.5l-0.5-2q-0.5-2-1-1t-14.2 2.2q-13.8 1.3-18.6 3-4.7 1.8-7.4 3-2.8 1.3-26.3 3l-23.5 1.8-0.2 1-0.3 1-0.3 0.2-0.2 0.3 1 0.5 1 0.5-0.2 0.3-0.3 0.2-0.3 0.2-0.2 0.3 0.5 1.3q0.5 1.2-0.3 1.7-0.7 0.5-0.2 2t3 4.5 2.8 4.5q0.2 1.5-2.3 2.7-2.5 1.3-3.5 1.6l-1 0.2v2l1 0.2q1 0.3 1 0.6v0.2l-8 0.2q-8 0.3-9 0.6-1 0.2-1.5 4.7l-0.5 4.5h-0.5l-0.5 1-0.5 1-0.3-1.5q-0.2-1.5-1.2-1.3l-1 0.3h-1l-1-0.3-1-0.2-0.2-1-0.3-1-0.3-0.2q-0.2-0.3-1 0.4-0.7 0.8-1.7-1.7t-2.3-3.7q-1.2-1.3-0.7-4 0.5-2.8-0.5-2.8t-1.2-3.5q-0.3-3.5-3.6-5-3.2-1.5-3-2.5 0.3-1-0.7-5t-2.3-4.8l-1.2-0.7-0.2-0.3-0.3-0.2-0.3 0.2-0.2 0.3-0.2 0.3-0.3 0.2-0.3 0.2-0.2 0.3h-1l-0.2-0.3-0.3-0.2-0.3 0.2-0.2 0.3h-4l-1 0.3-1 0.2v8q0 8 1.5 8t1.7 1q0.3 1 0.6 5.5l0.2 4.5h-0.5l-0.3 0.2-0.2 0.3h-2l-0.2-0.3-0.3-0.2-0.3-1q-0.2-1-11.7 1.2l-11.5 2.3-1 0.5-1 0.5v0.5h-0.2q-0.3 0-13.6-1.2l-13.2-1.3h-3l-0.2 0.3-0.3 0.2-0.5 1-0.5 1v2l1.7 2.2q1.8 2.3 0 3.6-1.7 1.2-1.4 3.4 0.2 2.3 0.4 2.6 0.3 0.2 0.8 1.2l0.5 1 0.3 0.2 0.2 0.3-0.2 0.3-0.3 0.2-0.3 0.2-0.2 0.3-6 0.3q-6 0.2-6.2 3.2-0.3 3-0.6 7l-0.2 4-0.5-0.2-0.5-0.3-0.2-0.3-0.3-0.2-0.5-1-0.5-1-0.3-0.2-0.2-0.3-1-0.3-1-0.2-0.2-1q-0.3-1-1.6-3.2-1.2-2.3-4.7-3l-3.5-0.8-0.2-0.5q-0.3-0.5-0.6-0.5h-2.2v-0.5l-1-0.5-1-0.5 1-0.5q1-0.5 1.5-1l0.5-0.5 2-0.5 2-0.5-2-0.5-2-0.5-0.2-0.3-0.3-0.2-0.3-0.2q-0.2-0.3-0.7-3.3t-5-4l-4.5-1-1.5-0.5-1.5-0.5 2.5-0.5q2.5-0.5 2.7-0.8l0.3-0.2 0.3-0.2 0.2-0.3-3.5-0.5q-3.5-0.5-7.5-1.5l-4-1-0.2-0.3-0.3-0.2-0.3-0.2-0.2-0.3 0.2-0.3 0.3-0.2 0.3-0.2 0.2-0.3-0.2-0.3-0.3-0.2-0.3-0.2-0.2-0.3 0.2-0.3 0.3-0.2 0.3-0.2 0.2-0.3 0.2-0.3 0.3-0.2 0.3-0.2 0.2-0.3-0.2-0.3-0.3-0.2-0.3-0.2-0.2-0.3 0.2-0.3 0.3-0.2 0.3-0.2 0.2-0.3 1.5-0.5q1.5-0.5 0-1t-1.5-2.2q0-1.8 5-3l5-1.3 1-0.3 1-0.2v-2l-1.5-0.2-1.5-0.3-0.2-0.3-0.3-0.2-0.3 0.2-0.2 0.3h-16l2-0.5 2-0.5 2-0.5 2-0.5 6.5-3q6.5-3 48.5-14t96-23.5 152.8-33.2q98.7-20.8 107-23 8.2-2.3 19-4.6 10.7-2.2 11-2.7l0.2-0.5 2.5-0.2q2.5-0.3 2.5-0.6v-0.2l17-3.2q17-3.3 20-3.6z"
       fill="#c0c0c0"
       stroke="#c0c0c0"
       id="path4727" />
    <path
       d="m665.5 287.8l12.5-0.8v0.5l2 0.5 2 0.5 1.5 0.5 1.5 0.5 0.2 0.3 0.3 0.2 0.3 0.2 0.2 0.3 9 1.5q9 1.5 10.5 3t1.7 1.8l0.3 0.2 0.5 1 0.5 1 0.3 0.2 0.2 0.3 0.5 0.3 0.5 0.2 0.2 9.5 0.3 9.5h0.5v137l0.2 6.5q0.3 6.5 0.6 111l0.2 104.5h-0.5l-0.5 12.5-0.5 12.5-0.5-2-0.5-2-0.5 1.5-0.5 1.5-0.3 0.2-0.2 0.3-0.2 0.3-0.3 0.2-0.3-0.2-0.2-0.3-0.2-0.3-0.3-0.2-0.5-2.5q-0.5-2.5-2-7l-1.5-4.5-0.5-2.5-0.5-2.5-0.5 5-0.5 5-0.5-1-0.5-1-0.3-0.2-0.2-0.3-0.2-0.3-0.3-0.2-0.5-2.5-0.5-2.5-0.5-2q-0.5-2-4.5-34l-4-32-0.5-1.5-0.5-1.5-0.3-0.2-0.2-0.3-0.2-0.3-0.3-0.2-0.3 0.2-0.2 0.3-0.2 0.3-0.3 0.2-0.3 0.2-0.2 0.3-0.2 0.3-0.3 0.2-0.3 0.2-0.2 0.3-0.2 0.3-0.3 0.2-0.5 1-0.5 1-0.5 1.5-0.5 1.5-2.5 15q-2.5 15-5.5 41.5t-3.5 29-2.5 10-3.5 13.5-2 8l-0.5 2-0.3 0.2-0.2 0.3-0.2 0.3-0.3 0.2-0.3 0.2-0.2 0.3-0.2 0.3-0.3 0.2-0.3 0.2-0.2 0.3h-10l-0.2-0.3-0.3-0.2-0.5-1.5-0.5-1.5v-2q0-2 0.5-6.5t2.2-5.5l1.8-1 0.5-0.2q0.5-0.3 0.5-0.6v-0.2h0.2q0.3 0 0.3-3v-3l-0.5-38q-0.5-38-1-213t0.2-176.2q0.8-1.3 13.3-2z"
       fill="#e9e9e9"
       stroke="#e9e9e9"
       id="path4729" />
    <path
       d="m682.5 234.2l2.5-0.2v0.2q0 0.3-21.5 6.3t-20.5 6.5-5.5 2.5l-6.5 2-1 0.5-1 0.5-0.2 0.3-0.3 0.2-0.5 1-0.5 1-0.3 0.2-0.2 0.3 1 0.5 1 0.5 1 0.5 1 0.5 14.5-0.5q14.5-0.5 27.5-0.5h13l2 0.5 2 0.5-1 0.5-1 0.5 0.2 0.3 0.3 0.2 0.3 0.2 0.2 0.3-1 0.3-1 0.2-0.2 1-0.3 1-0.3 0.2-0.2 0.3-1 0.5q-1 0.5-0.8 0.8 0.3 0.2-1.4 1.2-1.8 1-1.8 2t1 1.2q1 0.3-16.5 1.8l-17.5 1.5-0.2 0.3-0.3 0.2-0.3 0.2-0.2 0.3-0.2 0.3-0.3 0.2-0.5 1-0.5 1v4l0.3 0.2 0.2 0.3 14 1.5q14 1.5 18.5 2l4.5 0.5 1.5 0.5 1.5 0.5 2.5 0.5 2.5 0.5-6.5 0.5-6.5 0.5v0.5l-12.5 0.8q-12.5 0.7-13.3 2-0.7 1.2-0.2 176.2t1 213l0.5 38 0.3 3.5 0.2 3.5h-2l-0.2-2.5-0.3-2.5-0.3-0.2-0.2-0.3-0.2-0.3-0.3-0.2-0.5-1-0.5-1-0.5-1.5-0.5-1.5-0.3-0.2-0.2-0.3h-2l-0.2 0.3-0.3 0.2-0.3 0.2-0.2 0.3-0.2 0.3-0.3 0.2-0.3 1q-0.2 1-1.7 1.8-1.5 0.7-4 1-2.5 0.2-3.7 2.2l-1.3 2-0.5 1-0.5 1-0.3-0.2-0.2-0.3-0.2-0.3-0.3-0.2-0.3 0.2-0.2 0.3-1 0.3-1 0.2-0.2-1-0.3-1-0.5-1.5-0.5-1.5h-0.5l0.2-2q0.3-2 0-180l-0.2-178v-39l-0.2-13.5q-0.3-13.5-0.6-13.7-0.2-0.3-6.4-0.6l-6.3-0.2-0.3-4.5-0.2-4.5-0.2-2q-0.3-2-2-2.5-1.8-0.5-1.6-1.5 0.3-1 2-2 1.8-1 2-2 0.3-1 1.6-0.8 1.2 0.3 2-1l0.7-1.2v-1l-0.5-2-0.5-2-0.3-1.5q-0.2-1.5-1.2-1.5t-2 1.2l-1 1.3-0.2-0.3-0.3-0.2v-4l0.5-1 0.5-1 0.5 1 0.5 1 0.5 0.5q0.5 0.5 1.2-2.7 0.8-3.3 7.8-5.3t6.2-2.7q-0.7-0.8 25-8 25.8-7.3 28.3-7.6z"
       fill="#d0d0d0"
       stroke="#d0d0d0"
       id="path4731" />
    <path
       d="m304.2 320.2l0.3-0.2 0.3 0.2 0.2 0.3 1.2 0.7q1.3 0.8 2.3 4.8t0.7 5q-0.2 1 3 2.5 3.3 1.5 3.6 5 0.2 3.5 1.2 3.5t0.5 2.8q-0.5 2.7 0.7 4 1.3 1.2 2.3 3.7t1.7 1.7q0.8-0.7 1-0.4l0.3 0.2 0.3 1 0.2 1 1 0.2 1 0.3h1l1-0.3q1-0.2 1.2 1.3l0.3 1.5 0.5-1 0.5-1h0.5l-0.2 132q-0.3 132-0.3 189.5v57.5l-0.3 0.2-0.2 0.3-1 0.3-1 0.2 0.2-1 0.3-1v-4l-0.3-0.2-0.2-0.3-0.2-0.3-0.3-0.2-0.5-2-0.5-2-0.3-0.2-0.2-0.3-0.2-0.3-0.3-0.2-0.3 0.2-0.2 0.3-1 0.3-1 0.2-1 3.2q-1 3.3-2.2 2-1.3-1.2-2.3 0.3t-1.3 1.7l-0.2 0.3-0.2 0.3-0.3 0.2-0.3 0.2-0.2 0.3-0.2 0.3-0.3 0.2-0.3 0.2-0.2 0.3-0.2 0.3-0.3 0.2-0.3 0.2-0.2 0.3-1 0.3-1 0.2-0.2-2.5q-0.3-2.5-0.8-6l-0.5-3.5h-0.5l0.2-1 0.3-1 0.5-72.5q0.5-72.5 1.5-177.5t0-111.5-3.3-6.7q-2.2-0.3-5.7-3l-3.5-2.8-0.2-4.5q-0.3-4.5-0.6-5.5-0.2-1-1.7-1t-1.5-8v-8l1-0.2 1-0.3h4l0.2-0.3 0.3-0.2 0.3 0.2 0.2 0.3h1l0.2-0.3 0.3-0.2 0.3-0.2 0.2-0.3 0.2-0.3z"
       fill="#d1d1d1"
       stroke="#d1d1d1"
       id="path4733" />
    <path
       d="m822.2 328.5l-0.2 5.5-0.8 2.5q-0.7 2.5-1.2 3.5l-0.5 1-0.3 0.2-0.2 0.3-0.2 0.3-0.3 0.2-0.3 0.2-0.2 0.3-0.2 0.3q-0.3 0.2-0.6 0.7l-0.2 0.5-0.5 0.2q-0.5 0.3-0.5 0.6v0.2l-3.2 1.5q-3.3 1.5-3.3 84.5t0.3 188l0.2 105-0.5 0.2q-0.5 0.3-1.7-1.4l-1.3-1.8-0.5 1.5-0.5 1.5-0.5-1.5-0.5-1.5-0.5 1-0.5 1-0.5-1-0.5-1-0.3 1.5-0.2 1.5h-4l-0.2-0.5q-0.3-0.5-3.8-10t-6-24.5l-2.5-15-0.5-1.5-0.5-1.5-0.5-1-0.5-1-0.3-0.2-0.2-0.3-0.2-0.3-0.3-0.2-0.3-0.2-0.2-0.3-0.2-0.3-0.3-0.2-0.3-0.2-0.2-0.3-0.2-0.3-0.3-0.2-0.3 0.2-0.2 0.3-0.2 0.3-0.3 0.2-0.5 1-0.5 1-0.5 2-0.5 2-1.5 6.5q-1.5 6.5-2 5.5t-1 2-1 2-2 4-2 4-1 4l-0.5 5-0.5-1-0.5-1-0.5-1.5-0.5-1.5h-0.5l-0.2-77q-0.3-77-0.3-163.5t1-91 3.7-17.5l2.8-13 1.5-2.2q1.5-2.3 4.5-2.8t5.5-0.5h2.5l2-0.5 2-0.5-0.2-0.3-0.3-0.2-0.3-0.2-0.2-0.3-1-0.5-1-0.5-1.5-0.5q-1.5-0.5-3-1.5l-1.5-1-1.5-0.3-1.5-0.2 0.2-1 0.3-1 0.3-0.2 0.2-0.3 0.2-0.3 0.3-0.2 0.3-0.2 0.2-0.3 0.2-0.3 0.3-0.2 0.3-0.2 0.2-0.3h5q5 0 12-1.3 7-1.2 6.5-3.7t5-1.3q5.5 1.3 9.7 3.6 4.3 2.2 4.3 2.7t-0.3 6z"
       fill="#dedede"
       stroke="#dedede"
       id="path4735" />
    <path
       d="m631 226.2l3-0.2v0.2q0 0.3-13.5 3.3t-21.7 5.3q-8.3 2.2-107 23-98.8 20.7-152.8 33.2t-96 23.5-48.5 14l-6.5 3-2 0.5-2 0.5-2 0.5-2 0.5h16l0.2-0.3 0.3-0.2 0.3 0.2 0.2 0.3 1.5 0.3 1.5 0.2v2l-1 0.2-1 0.3-5 1.3q-5 1.2-5 3 0 1.7 1.5 2.2t0 1l-1.5 0.5-0.2 0.3-0.3 0.2-0.3 0.2-0.2 0.3 0.2 0.3 0.3 0.2 0.3 0.2 0.2 0.3-0.2 0.3-0.3 0.2-0.3 0.2-0.2 0.3-0.2 0.3-0.3 0.2-0.3 0.2-0.2 0.3 0.2 0.3 0.3 0.2 0.3 0.2 0.2 0.3-0.2 0.3-0.3 0.2-0.3 0.2-0.2 0.3 0.2 0.3 0.3 0.2 0.3 0.2 0.2 0.3 4 1q4 1 7.5 1.5l3.5 0.5-0.2 0.3-0.3 0.2-0.3 0.2q-0.2 0.3-2.7 0.8l-2.5 0.5 1.5 0.5 1.5 0.5 4.5 1q4.5 1 5 4t0.7 3.3l0.3 0.2 0.3 0.2 0.2 0.3 2 0.5 2 0.5-2 0.5-2 0.5-0.5 0.5q-0.5 0.5-1.5 1l-1 0.5 1 0.5 1 0.5v0.5l-6.2 1q-6.3 1-8.3 25t-2.5 41-1 40.5l-0.5 23.5-0.5-12-0.5-12-1 50q-1 50-1.5 48.5t-1 29-1 29.5-1.5 9.5-1.5 17.5l-0.5 7-0.5 1.5-0.5 1.5h-0.5l0.2-24.5q0.3-24.5 1.3-145.5l1-121-0.5 1-0.5 1-0.5 4.5-0.5 4.5-0.5-1-0.5-1v-4l0.3-0.2 0.2-0.3-0.2-0.3-0.3-0.2-0.5-1q-0.5-1-5.2-3.2-4.8-2.3-6.6-6-1.7-3.8-3-4.6-1.2-0.7-26-8.4-24.7-7.8-25.4-13.8-0.8-6-7.3-7.8l-6.5-1.7-1-0.3-1-0.2-0.2-0.5-0.3-0.5h-0.5l0.2-0.5 0.3-0.5 0.3-0.2 0.2-0.3 0.2-0.3 0.3-0.2 0.3-1 0.2-1h2v-2l2-0.2 2-0.3 0.2-0.3 0.3-0.2 0.3 1q0.2 1 3.7 1t4 1.8q0.5 1.7 10 0.2t103-24 204.5-45.5 154.5-31 46.5-8.3z"
       fill="#c7c7c7"
       stroke="#c7c7c7"
       id="path4737" />
    <path
       d="m626.8 359h0.2l0.2 178q0.3 178 0 180l-0.2 2v1h-0.5l-0.5-3q-0.5-3-1.2-3.2-0.8-0.3-1.6-2.6-0.7-2.2-3.4-6.2-2.8-4-3.8-4t-1.2 1q-0.3 1-2.6-1.2-2.2-2.3-5.7-4-3.5-1.8-6.7-8.8-3.3-7-5.3-18t-7-25-12.3-25q-7.2-11-8.4-11.5-1.3-0.5-5-1.3-3.8-0.7-5.8 0.3t-4 1-4.2 1.7q-2.3 1.8-3.3 6.3l-1 4.5-0.5 2.5-0.5 2.5-0.5-5-0.5-5-0.5 3.5-0.5 3.5-0.5 1-0.5 1h-0.5v-112h0.5l0.3-27 0.2-27h0.5l0.5 5.5 0.5 5.5 0.5 1.5 0.5 1.5 0.5-4 0.5-4 0.7 4.2q0.8 4.3 4.8 5.3t9.5 0.5 13.3-9.2q7.7-8.8 11.2-17.8t10-28 8.8-22.8q2.2-3.7 5-5.4 2.7-1.8 5.2-4.8t3.2-2.2q0.8 0.7 4-3.6 3.3-4.2 4.3-8.2t2-9 1.3-5z"
       fill="#868686"
       stroke="#868686"
       id="path4739" />
    <path
       d="m560.2 309l1.3-5 6 1.5q6 1.5 6.7 3 0.8 1.5 8 5 7.3 3.5 7 4.3-0.2 0.7 2.8 1.7t15.5 0.5 15.5-0.5h3l0.5 0.3 0.5 0.2v39h-0.2q-0.3 0-1.3 5t-2 9-4.3 8.2q-3.2 4.3-4 3.6-0.7-0.8-3.2 2.2t-5.2 4.8q-2.8 1.7-5 5.4-2.3 3.8-8.8 22.8t-10 28-11.2 17.8q-7.8 8.7-13.3 9.2t-9.5-0.5-4.8-5.3l-0.7-4.2-0.5 4-0.5 4-0.5-1.5-0.5-1.5-0.5-5.5-0.5-5.5h-0.5l0.2-66q0.3-66 6.6-66.8 6.2-0.7 6.7-6 0.5-5.2 3-5.7t3.7-5.5z"
       fill="#7b7b7b"
       stroke="#7b7b7b"
       id="path4741" />
    <path
       d="m445 320.8l1 0.2v0.2q0 0.3 0.5 0.6l0.5 0.2 1 2.2q1 2.3 3.5 3.3t5.5 1.7q3 0.8 3.2 52.8 0.3 52 0 190l-0.2 138h-0.2q-0.3 0-0.8-38l-0.5-38-0.5-2-0.5-2-0.5 4.5-0.5 4.5-0.5-4q-0.5-4-2-11t-2.5-78l-1-71-0.5 3-0.5 3-0.5 3.5-0.5 3.5-0.5-4-0.5-4-0.3-0.2-0.2-0.3-0.2-0.3-0.3-0.2-0.5 1.5-0.5 1.5-3.3 15.8q-3.2 15.7-6.7 20.7t-3.7 5.3l-0.3 0.2-0.3 0.2-0.2 0.3-0.2 0.3-0.3 0.2-0.3 0.2-0.2 0.3-0.2 0.3-0.3 0.2-0.3 0.2-0.2 0.3h-3l-0.2-0.3-0.3-0.2-0.3-0.2-0.2-0.3-0.2-0.3-0.3-0.2-0.3-0.2-0.2-0.3-0.2-0.3q-0.3-0.2-3.8-5.2t-12.5-27.5l-9-22.5-0.5-2-0.5-2-0.5 4-0.5 4-0.5-1-0.5-1-0.5-1-0.5-1-0.5-1-0.5-1-0.5-2.5q-0.5-2.5-2.8-13l-2.2-10.5 0.2-0.5q0.3-0.5 0.8-8.5t3.2-9.8l2.8-1.7 1-0.5 1-0.5 0.2-0.3 0.3-0.2 0.5-1 0.5-1 0.3-0.2 0.2-0.3h-3l0.2 0.3 0.3 0.2 0.3 0.2 0.2 0.3-1 0.3-1 0.2-0.2-1q-0.3-1-2 0-1.8 1-2 2l-0.3 1-0.5-1q-0.5-1-1.2-4.2-0.8-3.3-1.8-10-1-6.8-2-6.8t-1.2-1.5q-0.3-1.5-2.3-21.5t-1.3-22.2q0.8-2.3 6.8-3l6-0.8v-2l-1-0.2q-1-0.3-2-5-1-4.8 0-5 1-0.3 0.8-2.6-0.3-2.2-0.8-4.7l-0.5-2.5 0.3-0.2 0.2-0.3 16-1q16-1 24-3t11-2 4 0.3z"
       fill="#7f7f7f"
       stroke="#7f7f7f"
       id="path4743" />
    <path
       d="m1049.8 439.2l0.2 0.3 0.2 0.3 0.3 0.2 0.3 0.5 0.2 0.5-9.5 0.2q-9.5 0.3-14 1.6-4.5 1.2-3.7 96.2 0.7 95 1 147.5l0.2 52.5-0.2 5.5q-0.3 5.5-1.6 5.7-1.2 0.3-5.2 0.8l-4 0.5-1-0.3-1-0.2 0.2 1 0.3 1 0.3 0.2 0.2 0.3 1.5 4.5q1.5 4.5 1.7 4.8l0.3 0.2 0.3 2 0.2 2-7.5-0.2q-7.5-0.3-16-0.8l-8.5-0.5v-0.5h5l-0.2-3q-0.3-3-0.8-74t-0.5-150.5 2.3-90l2.2-10.5h0.5l0.3-0.2 0.2-0.3 1-0.5 1-0.5 2-0.5 2-0.5-1-0.5q-1-0.5-2-0.8-1-0.2 0.2-2.7l1.3-2.5 1.7-1.2q1.8-1.3 13.8-0.8t14.8 1.8q2.7 1.2 2.4 4-0.2 2.7 5.3 3.2t9.3 2.2q3.7 1.8 4 2z"
       fill="#d4d4d4"
       stroke="#d4d4d4"
       id="path4745" />
    <path
       d="m834.5 309.2l1.5-0.2 36 17.8q36 17.7 37 18.2l1 0.5 1 0.5 1 0.5v0.5l-2.5 0.2q-2.5 0.3-2.3 0.6 0.3 0.2 0.6 8.7 0.2 8.5-1.3 8.7-1.5 0.3-2.3 5-0.7 4.8-4.4 6.6l-3.8 1.7-0.2 0.3-0.3 0.2-0.5 2-0.5 2-0.3 0.2-0.2 0.3-0.2 0.3-0.3 0.2-0.3 0.2-0.2 0.3v0.5l-0.8 0.5q-0.7 0.5-0.2 52t0.8 54l0.2 2.5v12l-0.2 115-0.3 115-0.3 0.2-0.2 0.3-0.2 0.3-0.3 0.2-0.3-1q-0.2-1-1.4-0.5-1.3 0.5-4-0.3l-2.8-0.7-1-0.3-1-0.2-0.2 1-0.3 1-0.3 0.2-0.2 0.3 0.2 0.3 0.3 0.2 1 3q1 3 1.5 7t0.5 5v3l0.3 0.2 0.2 0.3h-9q-9 0-17-0.5l-8-0.5v-1l0.2-0.3q0.3-0.2 0.8-176.7l0.5-176.5 0.3-4 0.2-4v-0.2q0-0.3 3-10 3-9.8 4-10 1-0.3-0.2-2-1.3-1.8-0.6-2.6 0.8-0.7 1.6-2.4 0.7-1.8 3.4-4 2.8-2.3 2-3-0.7-0.8-0.2-2.8l0.5-2v-4l-0.3-0.2-0.2-0.3-1.5-0.5q-1.5-0.5-22.5-2.5l-21-2-1 0.5-1 0.5-1 0.3-1 0.2v-2l1-0.2 1-0.3 0.2-0.3 0.3-0.2 0.3-0.2 0.2-0.3 0.2-0.3 0.3-0.2 0.5-1q0.5-1 1.2-3.5l0.8-2.5h0.5l0.5-3.5 0.5-3.5 0.3-0.2 0.2-0.3 0.2-0.3 0.3-0.2 0.3 0.2 0.2 0.3 1.5 0.3q1.5 0.2 2.5-7.8t2.5-8.8q1.5-0.7 3-1z"
       fill="#d7d7d7"
       stroke="#d7d7d7"
       id="path4747" />
    <path
       d="m513.2 453.5l1.8-87.5 3.2 37.5q3.3 37.5 3.8 47.5l0.5 10 0.5-16q0.5-16 1-23t1-6 1-13.5l0.5-14.5 0.5 4 0.5 4 0.5-5 0.5-5 0.5 1 0.5 1 1 34q1 34 1.5 44l0.5 10 0.5-23.5q0.5-23.5 1-28.5l0.5-5 0.5-2.5 0.5-2.5 1 6q1 6 1.5 49.5l0.5 43.5h0.5v165q0 53 6.8 54.5 6.7 1.5 7 5.5 0.2 4 1.2 4.2l1 0.3 1.5 0.3 1.5 0.2v3l1 0.2 1 0.3v0.5l-10 0.2q-10 0.3-21.5 1.3t-19 0-7.3-8.7q0.3-7.8-2.4-8.8l-2.8-1v-3l0.2-1q0.3-1 2.8-18.5t7-92 6.2-162z"
       fill="#c1c1c1"
       stroke="#c1c1c1"
       id="path4749" />
    <path
       d="m440 309l0.5 2h0.5v1.5q0 1.5 1 1.5t1 1 1.2 1.5q1.3 0.5 1.8 2t0.8 2.5l0.2 1-1-0.2q-1-0.3-4.5-0.8t-11.5 1.5-24 3l-16 1-0.2 0.3-0.3 0.2 0.5 2.5q0.5 2.5 0.8 4.7 0.2 2.3-0.8 2.6-1 0.2 0 5 1 4.7 2 5l1 0.2v2l-6 0.8q-6 0.7-6.8 3-0.7 2.2 1.3 22.2t2.3 21.5q0.2 1.5 1.2 1.5t2 6.8q1 6.7 1.8 10 0.7 3.2 1.2 4.2l0.5 1 0.3-1q0.2-1 2-2 1.7-1 2 0l0.2 1 1-0.2 1-0.3-0.2-0.3-0.3-0.2-0.3-0.2-0.2-0.3h3l-0.2 0.3-0.3 0.2-0.5 1-0.5 1-0.3 0.2-0.2 0.3-1 0.5-1 0.5-2.8 1.7q-2.7 1.8-3.2 9.8t-0.8 8.5l-0.2 0.5-0.2 99q-0.3 99-0.8 127.5t-1 26.5-1.8 20q-1.2 22-2 22.5-0.7 0.5-0.4 5.7 0.2 5.3 1.7 5.8l1.5 0.5-0.2 0.3-0.3 0.2-0.3 0.2-0.2 0.3-1 0.5-1 0.5 0.2 0.3 0.3 0.2 0.3 0.5 0.2 0.5h-14q-14 0-14.2-2.5-0.3-2.5-1-3.3-0.8-0.7-0.6-4.4 0.3-3.8-1.2-5.8t-2-9l-0.5-7h-0.5l0.2-2q0.3-2 4.3-74l4-72 0.5 8 0.5 8 0.5 4.5 0.5 4.5 0.5-10q0.5-10 1-18t1-54.5-1-99-3.5-59.5-4.7-8l-2.8-1v-0.2q0-0.3-1-0.6l-1-0.2v-2l1-0.2q1-0.3 3.5-1.6 2.5-1.2 2.3-2.7-0.3-1.5-2.8-4.5t-3-4.5 0.2-2q0.8-0.5 0.3-1.7l-0.5-1.3 0.2-0.3 0.3-0.2 0.3-0.2 0.2-0.3-1-0.5-1-0.5 0.2-0.3 0.3-0.2 0.3-1 0.2-1 23.5-1.8q23.5-1.7 26.3-3 2.7-1.2 7.4-3 4.8-1.7 18.6-3 13.7-1.2 14.2-2.2t1 1z"
       fill="#a7a7a7"
       stroke="#a7a7a7"
       id="path4751" />
    <path
       d="m770 339h1l-2.8 13q-2.7 13-3.7 17.5t-1 91 0.3 163.5l0.2 77-0.5 22.5q-0.5 22.5-1.5 22.5h-1l-0.2-2q-0.3-2-0.3-10t-4.5-29.5l-4.5-21.5-0.5-2-0.5-2-0.5 3.5-0.5 3.5-0.3-0.2-0.2-0.3-0.2-0.3-0.3-0.2-0.5-4q-0.5-4-1.8-18.5-1.2-14.5-2.2-14.5t-1.2 1q-0.3 1-0.8-2.5t-2.2-5q-1.8-1.5-3.6-13-1.7-11.5-2-10.5-0.2 1-1.2 1t-2.8-16q-1.7-16-2.2-48t1-46.5 2.5-42.5l1-28 0.5 1.5q0.5 1.5 1 3.5l0.5 2 0.5-1 0.5-1 0.3-7.5 0.2-7.5 0.2-8.5q0.3-8.5 1.8-20l1.5-11.5 0.5-2 0.5-2 0.5-1 0.5-1 0.7 2.2q0.8 2.3 1 2 0.3-0.2 0.8 2.8l0.5 3 0.5-3.5 0.5-3.5 0.5-4.5q0.5-4.5 0.8-7l0.2-2.5v-0.5l0.2-0.3 0.3-0.2 0.5-2 0.5-2 0.3 0.2 0.2 0.3 0.2 0.3 0.3 0.2 0.5-1 0.5-1 1.5-4q1.5-4 2-3t2.5-3 3.5-6 2.5-0.5 2.7-2.7q1.8-4.3 2.8-4.6 1-0.2 1-1.2t1-1z"
       fill="#a0a0a0"
       stroke="#a0a0a0"
       id="path4753" />
    <path
       d="m729.5 433l3-11 1 2.5q1 2.5 1.3 2.7l0.2 0.3 0.5 0.3 0.5 0.2-0.2 7.5-0.3 7.5-0.5 1-0.5 1-0.5-2q-0.5-2-1-3.5l-0.5-1.5-1 28q-1 28-2.5 42.5t-1 46.5 2.2 48q1.8 16 2.8 16t1.2-1q0.3-1 2 10.5 1.8 11.5 3.6 13 1.7 1.5 2.2 5t0.8 2.5q0.2-1 1.2-1t2.2 14.5q1.3 14.5 1.8 18.5l0.5 4 0.3 0.2 0.2 0.3 0.2 0.3 0.3 0.2 0.5-3.5 0.5-3.5 0.5 2 0.5 2 4.5 21.5q4.5 21.5 4.5 29.5t0.3 10l0.2 2-0.5 0.2-0.5 0.3v0.5l-4.5-0.2q-4.5-0.3-13-1.3t-8.5-4-3.5-4.3q-3.5-1.2-3.7-5.7-0.3-4.5-7-5.7-6.8-1.3-7.3-24.6l-0.5-23.2-0.2-104.5q-0.3-104.5-0.6-111l-0.2-6.5h0.5l0.5 1 0.5 1 0.5 2 0.5 2 0.5-1.5 0.5-1.5 0.5-1 0.5-1 0.5 3 0.5 3 0.5-1 0.5-1 0.5-1.5q0.5-1.5 2.5-6.5t2.5-4 2-2 4.5-14z"
       fill="#939393"
       stroke="#939393"
       id="path4755" />
    <path
       d="m626 717l0.5 3h0.5v5l-4 0.2-4 0.3v0.5l-2.5 0.2q-2.5 0.3-3 5-0.5 4.8-3.5 5.3t-3.5 4.3q-0.5 3.7-23.5 5l-23 1.2v-0.5l-1-0.3-1-0.2v-3l-1.5-0.2-1.5-0.3-1-0.3q-1-0.2-1.2-4.2-0.3-4-7-5.5-6.8-1.5-6.8-54.5v-53h0.5l0.5-1 0.5-1 0.5-3.5 0.5-3.5 0.5 5 0.5 5 0.5-2.5 0.5-2.5 1-4.5q1-4.5 3.3-6.3 2.2-1.7 4.2-1.7t4-1 5.8-0.3q3.7 0.8 5 1.3 1.2 0.5 8.4 11.5 7.3 11 12.3 25t7 25 5.3 18q3.2 7 6.7 8.8 3.5 1.7 5.7 4 2.3 2.2 2.6 1.2 0.2-1 1.2-1t3.8 4q2.7 4 3.4 6.2 0.8 2.3 1.6 2.6 0.7 0.2 1.2 3.2z"
       fill="#797979"
       stroke="#797979"
       id="path4757" />
    <path
       d="m952.8 410.8l0.2-0.3h5l0.2 0.3 0.3 0.2 0.3-0.2 0.2-0.3 0.2-0.3 0.3-0.2 0.5 4.5q0.5 4.5 1 7.5l0.5 3h0.5l0.8 112q0.7 112 1 160l0.2 48-0.5 0.2q-0.5 0.3-2-0.7t-2.3-2.7q-0.7-1.8-3.2-17.3t-5.5-51.5-6-91l-3-55-0.5-2.5-0.5-2.5-0.5-1.5-0.5-1.5-0.5 2-0.5 2-0.5 2-0.5 2-0.5 4q-0.5 4-1 9l-0.5 5-0.5-8q-0.5-8-1.5-29l-1-21-1 27q-1 27-1.5 36l-0.5 9-0.5-2.5q-0.5-2.5-1-5l-0.5-2.5-0.5 6-0.5 6-0.5-3-0.5-3-0.3-0.2-0.2-0.3-0.2-0.3-0.3-0.2h-0.5l0.2-56.5q0.3-56.5 1-66l0.8-9.5h0.5l0.3-0.5 0.2-0.5h0.5l0.3-0.2 0.2-0.3 0.2-0.3 0.3-0.2 0.3 1.5 0.2 1.5h1q1 0 1.2 1l0.3 1 0.5 1 0.5 1 0.5 1 0.5 1 0.3-0.2 0.2-0.3 0.2-0.3 0.3-0.2 0.7-2.5q0.8-2.5 3.8-2.5t6.5-5.8q3.5-5.7 4.7-5.4 1.3 0.2 1.6 0l0.2-0.3 0.2-0.3 0.3-0.2 0.3-0.2z"
       fill="#dcdcdc"
       stroke="#dcdcdc"
       id="path4759" />
    <path
       d="m1068.2 451.2l-0.2 0.3h5l-0.2-0.3-0.3-0.2-1.3-0.5q-1.2-0.5-0.7-1.7 0.5-1.3 7-0.8t8.3 1.2q1.7 0.8 1.7 3.8t0.3 3.5l0.2 0.5v0.2q0 0.3-1 0.6-1 0.2-1.8-1.3l-0.7-1.5-0.3-0.2-0.2-0.3-3.5-0.3-3.5-0.2 0.2 2 0.3 2 0.3 0.2 0.2 0.3 2.5 1q2.5 1 3.5 1.3l1 0.2v4l-1 0.2-1 0.3-1.5 0.5q-1.5 0.5-6.5-0.2l-5-0.8-0.8 10q-0.7 10-1.2 31.5l-0.5 21.5-0.5-13-0.5-13v23q0 23 0.5 41l0.5 18 0.5-10 0.5-10 3.5 89q3.5 89 4.5 96.5t1.7 9.3q0.8 1.7 1.3 2l0.5 0.2 0.2 1.5q0.3 1.5 0.8 3.5l0.5 2 0.3 0.2 0.2 0.3 0.2 0.3 0.3 0.2 0.3 1.5 0.2 1.5-11.5-0.2q-11.5-0.3-19.5-0.8l-8-0.5-1-0.3-1-0.2v-4h0.5l0.3 1.5 0.2 1.5h3l-0.2-2.5-0.3-2.5v-1.5q0-1.5 0-146t1.7-150q1.8-5.5 4.8-6.3 3-0.7 1-1.7t1.5-4.3l3.5-3.2h3l0.5-1.2q0.5-1.3 3.7-1.6 3.3-0.2 3.3 1.3t-0.3 1.7z"
       fill="#d1d1d1"
       stroke="#d1d1d1"
       id="path4761" />
    <path
       d="m818.5 343.8l1.5-0.3 21 2q21 2 22.5 2.5l1.5 0.5 0.2 0.3 0.3 0.2v4l-0.5 2q-0.5 2 0.2 2.8 0.8 0.7-2 3-2.7 2.2-3.4 4-0.8 1.7-1.6 2.4-0.7 0.8 0.6 2.6 1.2 1.7 0.2 2-1 0.2-4 10-3 9.7-3 10v0.2l-0.5 0.2-0.5 0.3-2.2 6.7q-2.3 6.8-4.3 21.8t-3.3 16.2q-1.2 1.3-3 8.6-1.7 7.2-2.7 54.2t-2 97-1.5 53.5-1 8.5l-0.5 5-0.5-2q-0.5-2-1.5 1t-1.5 1-1.8 1.8q-1.2 3.7-2.4 9.4-1.3 5.8-1.8 19.3l-0.5 13.5-0.5 1-0.5 1-0.5-1q-0.5-1-1-3l-0.5-2-0.3 3.5-0.2 3.5h-0.5l-0.5 8-0.5 8-0.3 3.5-0.2 3.5h-4l-0.2-5q-0.3-5-0.6-5h-0.2l-0.2-105q-0.3-105-0.3-188t3.3-84.5l3.2-1.5h0.2q0.3 0 0.6-0.5l0.2-0.5 1.5-0.2z"
       fill="#878787"
       stroke="#878787"
       id="path4763" />
    <g
       fill="#e7e7e7"
       stroke="#e7e7e7"
       id="g4769">
      <path
         d="m342 347.2l8-0.2 2.8 1q2.7 1 4.7 8t3.5 59.5 1 99-1 54.5-1 18l-0.5 10-0.5-4.5-0.5-4.5-0.5-8-0.5-8-4 72q-4 72-4.3 74l-0.2 2h-0.5l-0.5 1-0.5 1-0.3 1-0.2 1h-2l-0.2 1.5-0.3 1.5-1.7 7.2q-1.8 7.3-3.3 8-1.5 0.8-2.7 3.8-1.3 3-1.6 3.2l-0.2 0.3-0.2 0.3-0.3 0.2-0.3 0.2-0.2 0.3-0.2 0.3-0.3 0.2-0.3 0.2-0.2 0.3-0.2 0.3-0.3 0.2-0.3 0.2-0.2 0.3-3 0.3-3 0.2-0.2-1-0.3-1-0.5-1.5-0.5-1.5-0.3-0.2-0.2-0.3 0.2-0.3 0.3-0.2 0.5-4.5q0.5-4.5 1.8-5l1.2-0.5 0.5-0.2q0.5-0.3 0.5-0.6v-0.2h1q1 0 1-189.5v-189.5l0.5-4.5q0.5-4.5 1.5-4.7 1-0.3 9-0.6z"
         id="path4765" />
      <path
         d="m485.8 320l3.2-1 9 0.5q9 0.5 10.8 5.5 1.7 5 3.7 20.5t2.3 18l0.2 2.5-1.8 87.5q-1.7 87.5-6.2 162t-7 92-2.8 18.5l-0.2 1-0.2 1.5q-0.3 1.5 0 1.5h0.2v3q0 3-1.2 3.5-1.3 0.5-3.3 4.5t-2.5 5l-0.5 1-0.3 0.2-0.2 0.3-1 0.5-1 0.5h-8l-0.2-0.3-0.3-0.2-0.3-0.2-0.2-0.3-0.2-0.3-0.3-0.2-0.5-1.5-0.5-1.5v-3l0.5-4.5q0.5-4.5 2.5-5.5t2.5-205.5 3.8-205.5z"
         id="path4767" />
    </g>
    <path
       d="m500.5 273.5h6.5l-0.2 0.3-0.3 0.2-0.3 0.2-0.2 0.3-0.2 0.3-0.3 0.2-0.3 0.2-0.2 0.3-1 0.5-1 0.5-0.2 0.3-0.3 0.2-0.3 0.2-0.2 0.3-1 0.5-1 0.5-2.5 0.5q-2.5 0.5-15 2.5l-12.5 2-1.5 0.5-1.5 0.5-1.5 0.5-1.5 0.5-0.2 0.3-0.3 0.2-0.3 0.2-0.2 0.3h7.5q2.5 0 8.5 0.5l6 0.5-4.8 0.7q-4.7 0.8-5.2 2.3t0.8 2.3q1.2 0.7-0.3 1.2t4.7 2.2q6.3 1.8 6.6 2.3l0.2 0.5-2 0.2-2 0.3-0.2 0.3-0.3 0.2-0.3 0.2-0.2 0.3 1 0.5 1 0.5 6 1q6 1 7 1.5l1 0.5 0.2 0.3 0.3 0.2 0.3 0.2 0.2 0.3 0.2 0.3 0.3 0.2 0.3 0.2 0.2 0.3 0.2 0.3 0.3 0.2 0.3 0.2 0.2 0.3 0.2 0.3 0.3 0.2v1l-0.3 0.2-0.2 0.3-0.2 0.3-0.3 0.2-0.3 0.2-0.2 0.3-0.2 0.3-0.3 0.2-0.3 0.2-0.2 0.3-0.2 0.3-0.3 0.2-0.3 0.2-0.2 0.3-1 0.5q-1 0.5-1.2 0.8-0.3 0.2-6 1.4l-5.8 1.3-0.2 0.3-0.3 0.2-0.3 0.2-0.2 0.3 3 0.5 3 0.5v0.5l-3.2 1q-3.3 1-3.8 205.5t-2.5 205.5-2.5 5.5l-0.5 4.5v3l0.5 1.5 0.5 1.5 0.3 0.2 0.2 0.3 0.2 0.3 0.3 0.2 0.3 0.2 0.2 0.3h8l1-0.5 1-0.5 0.2-0.3 0.3-0.2 0.5-1q0.5-1 2.5-5t3.3-4.5q1.2-0.5 1.7-3t-0.5-2.5-0.5-2l0.5-2 1.5 1.8q1.5 1.7 2.7 2.4 1.3 0.8 1 8.6-0.2 7.7 7.3 8.7t19 0 21.5-1.3l10-0.2 23-1.2q23-1.3 23.5-5 0.5-3.8 3.5-4.3t3.5-5.3q0.5-4.7 3-5l2.5-0.2h9l-0.2 1-0.3 1-0.3 0.2-0.2 0.3-0.2 0.3-0.3 0.2-0.3 1q-0.2 1-1.2 1.2-1 0.3-3 2.6-2 2.2-0.5 2.4 1.5 0.3 0 4.6-1.5 4.2-0.3 4.7 1.3 0.5-1 2.5-2.2 2-2.4 1-0.3-1-0.6 0-0.2 1-16.7 2.2-16.5 1.3-32.5 2.3l-16 1 1 0.5 1 0.5h9q7 0 5 0.5t0.5 1l2.5 0.5 3 0.5 3 0.5-9.5 0.5q-9.5 0.5-40 1t-100.5 4.5-86 5.5l-16 1.5 3.5 0.5 3.5 0.5-14 0.5q-14 0.5-62.5 1.5l-48.5 1-1-0.5-1-0.5 4-0.5 4-0.5 5-1q5-1 23-2t28-1.3l10-0.2v-2l-1.5 0.2-1.5 0.3h-3q-3 0-8-0.5t-27-0.5h-22l1-0.5 1-0.5 0.2-0.3 0.3-0.2 0.3-0.2 0.2-0.3 22.5-0.5q22.5-0.5 34-1l11.5-0.5-3.5-0.5-3.5-0.5h-3.5q-3.5 0-13.5-0.5l-10-0.5 3 0.5 3 0.5-15 0.5-15 0.5h-6l0.2-0.3 0.3-0.2 0.3-0.2 0.2-0.3 14-0.5 14-0.5-9-0.5-9-0.5-0.2-0.3-0.3-0.2-0.3 0.2-0.2 0.3h-2l-0.2-0.3-0.3-0.2-0.3 0.2-0.2 0.3-2 0.3-2 0.2v-2l1-0.2 1-0.3v-0.5l18.5-0.5q18.5-0.5 18.5-2v-1.5h1q1 0 1.2 1.5 0.3 1.5 9.6 1.5 9.2 0 10-2.5 0.7-2.5 5-4 4.2-1.5 4.7-6t1.5-4.5 2.2-115.5l1.3-115.5 0.3 0.2 0.2 0.3 0.2 0.3 0.3 0.2 0.5 3.5 0.5 3.5 0.5-1 0.5-1h0.5l-0.8 80.5q-0.7 80.5 0.6 94.7 1.2 14.3 2 12.6 0.7-1.8 1.2 13.2l0.5 15 0.3-2.5 0.2-2.5h0.5l0.5 3.5q0.5 3.5 0.8 6l0.2 2.5 1-0.2 1-0.3 0.2-0.3 0.3-0.2 0.3-0.2 0.2-0.3 0.2-0.3 0.3-0.2 0.3-0.2 0.2-0.3 0.2-0.3 0.3-0.2 0.3-0.2 0.2-0.3 0.2-0.3q0.3-0.2 1.3-1.7t2.3-0.3q1.2 1.3 2.2-2l1-3.2 1-0.2 1-0.3 0.2-0.3 0.3-0.2 0.3 0.2 0.2 0.3 0.2 0.3 0.3 0.2 0.5 2 0.5 2 0.3 0.2 0.2 0.3 0.2 0.3 0.3 0.2 0.3 2.5 0.2 2.5h-0.2q-0.3 0-0.6 0.5l-0.2 0.5-1.2 0.5q-1.3 0.5-1.8 5l-0.5 4.5-0.3 0.2-0.2 0.3 0.2 0.3 0.3 0.2 0.5 1.5 0.5 1.5 0.3 1 0.2 1 3-0.2 3-0.3 0.2-0.3 0.3-0.2 0.3-0.2 0.2-0.3 0.2-0.3 0.3-0.2 0.3-0.2 0.2-0.3 0.2-0.3 0.3-0.2 0.3-0.2 0.2-0.3 0.2-0.3q0.3-0.2 1.6-3.2 1.2-3 2.7-3.8 1.5-0.7 3.3-8l1.7-7.2 0.3-1.5 0.2-1.5h2l0.2-1 0.3-1 0.5-1 0.5-1h1l0.5 7q0.5 7 2 9t1.2 5.8q-0.2 3.7 0.6 4.4 0.7 0.8 1 3.3 0.2 2.5 14.2 2.5h14l28.2-1q28.3-1 28.6-4.5 0.2-3.5 3-4.5 2.7-1 3-5 0.2-4 7.2-5t7-11.5v-10.5l0.2-138q0.3-138 0-190-0.2-52-3.2-52.8-3-0.7-5.5-1.7t-3.5-3.3l-1-2.2-0.2-0.5q-0.3-0.5-0.6-0.5h-0.2l-0.2-2q-0.3-2-1.6-2.5-1.2-0.5-1.2-1.5t-1-1-1-1.5v-1.5l0.8-4.5q0.7-4.5 1.7-6.5t1.3-5.5q0.2-3.5 2.2-3.5t2.8-4q0.7-4 17-7.8 16.2-3.7 21.7-4.7t12-1z"
       fill="#c7c7c7"
       stroke="#c7c7c7"
       id="path4771" />
    <path
       d="m1041.5 441.2l9.5-0.2 2 0.2q2 0.3 4.5 0.8l2.5 0.5 1 0.3 1 0.2-0.2 1q-0.3 1-2.6 3.2l-2.2 2.3 0.2 0.3 0.3 0.2 0.3 0.5 0.2 0.5-3.5 3.2q-3.5 3.3-1.5 4.3t-1 1.7q-3 0.8-4.8 6.3-1.7 5.5-1.7 150t0 146v1.5l0.3 2.5 0.2 2.5h-3l-0.2-1.5-0.3-1.5h-0.5l-0.2-1-0.3-1-0.3-0.2q-0.2-0.3-2.2-0.6-2-0.2-2-3.7t-5.5-4-6-8.5l-0.5-8-0.2-52.5q-0.3-52.5-1-147.5-0.8-95 3.7-96.2 4.5-1.3 14-1.6z"
       fill="#898989"
       stroke="#898989"
       id="path4773" />
    <path
       d="m202.8 373l6.2-1h2v0.2q0 0.3 0.5 0.6l0.5 0.2 1 0.8q1 0.7 0.2 1.4-0.7 0.8-0.4 1 0.2 0.3 0.4 0.6l0.3 0.2 1 2q1 2 1.5 9t0.5 56.5-4 164-4.3 120l-0.2 5.5h-0.5l-0.5 2-0.5 2-1.3 4.8q-1.2 4.7-3.2 8.2t-2.2 3.8l-0.3 0.2-0.3 0.2-0.2 0.3-0.2 0.3-0.3 0.2-0.3 0.2-0.2 0.3-1 0.5-1 0.5-4 0.3-4 0.2-0.2-1-0.3-1v-5l0.5-4q0.5-4 2.8-4.8 2.2-0.7 1-35l-1.3-34.2-0.5-1-0.5-1-0.5 2-0.5 2-0.7 3.2q-0.8 3.3-1.6 5-0.7 1.8-1 0.3-0.2-1.5-1.2-1.5t-1.8 8.5q-0.7 8.5-1.2 12.5l-0.5 4-0.5 1.5-0.5 1.5-0.5 2-0.5 2h-0.5l0.2-3 0.3-3 0.5-10.5q0.5-10.5 0.8-17.5l0.2-7h0.5l0.5-1.5 0.5-1.5 0.5-7q0.5-7 1.5-17.5t1.5-9.5 1-29.5 1-29 1.5-48.5l1-50 0.5 12 0.5 12 0.5-23.5q0.5-23.5 1-40.5t2.5-41 8.3-25z"
       fill="#e8e8e8"
       stroke="#e8e8e8"
       id="path4775" />
    <path
       d="m931.5 514l1-27 1 21q1 21 1.5 29l0.5 8 0.5-5q0.5-5 1-9l0.5-4 0.5-2 0.5-2 0.5-2 0.5-2 0.5 1.5 0.5 1.5 0.5 2.5 0.5 2.5 3 55q3 55 6 91t5.5 51.5 3.2 17.3q0.8 1.7 2.3 2.7t2 0.7l0.5-0.2v2q0 2 2.5 2.2l2.5 0.3v0.5l-1.5 0.5q-1.5 0.5-1 1.7 0.5 1.3-0.5 1.6-1 0.2-0.2 2.2 0.7 2 1 2.2l0.2 0.3 0.2 0.3 0.3 0.2v3l-0.3 0.2-0.2 0.3h-9.5q-9.5 0-24-1l-14.5-1v-0.5l2-0.2 2-0.3 1.5-0.3 1.5-0.2-0.2-2.5q-0.3-2.5-0.3-5.5t-0.7-100l-0.8-97h0.5l0.3 0.2 0.2 0.3 0.2 0.3 0.3 0.2 0.5 3 0.5 3 0.5-6 0.5-6 0.5 2.5q0.5 2.5 1 5l0.5 2.5 0.5-9q0.5-9 1.5-36z"
       fill="#cdcdcd"
       stroke="#cdcdcd"
       id="path4777" />
    <path
       d="m848.8 399.2l2.2-6.7 0.5-0.3 0.5-0.2-0.2 4-0.3 4v175.5q0 175.5-0.3 177l-0.2 1.5h-1l-7-0.2q-7-0.3-10-0.6-3-0.2-3.2-3.7-0.3-3.5-2.6-4.3-2.2-0.7-3-5-0.7-4.2-2-5-1.2-0.7-2-4-0.7-3.2-2-11.7l-1.2-8.5 0.2-3.5 0.3-3.5 0.5 2q0.5 2 1 3l0.5 1 0.5-1 0.5-1 0.5-13.5q0.5-13.5 1.8-19.3 1.2-5.7 2.4-9.4 1.3-3.8 1.8-1.8t1.5-1 1.5-1l0.5 2 0.5-5q0.5-5 1-8.5t1.5-53.5 2-97 2.7-54.2q1.8-7.3 3-8.6 1.3-1.2 3.3-16.2t4.3-21.8z"
       fill="#959595"
       stroke="#959595"
       id="path4779" />
    <path
       d="m984.5 415l6.5 0.5 1 0.3 1 0.2-1 2.8q-1 2.7-1 3.7t1.8 1.7q1.7 0.8 0.2 3.8t-1.5 4v1l0.3 0.2 0.2 0.3 1 0.5 1 0.5-0.2 0.3-0.3 0.2-0.3 1-0.2 1-2.2 10.5q-2.3 10.5-2.3 90t0.5 150.5 0.8 74l0.2 3h-5l-1.5-0.2-1.5-0.3-0.2-0.3-0.3-0.2-0.3-0.2-0.2-0.3 0.2-0.3 0.3-0.2v-1l-0.3-0.2q-0.2-0.3-0.2-2 0-1.8-2-2-2-0.3-2.5-4-0.5-3.8-4-3.8h-3.5v-0.5l-2.5-0.3q-2.5-0.2-2.5-2.2v-2l-0.2-48q-0.3-48-1-160l-0.8-112 0.5-4.2q0.5-4.3 8-5.3t14-0.5z"
       fill="#808080"
       stroke="#808080"
       id="path4781" />
    <path
       d="m211 373v-1l4.2 1.5q4.3 1.5 5.3 3.5t1.3 3l0.2 1 1 0.2 1 0.3 0.2 0.3 0.3 0.2 0.5 1 0.5 1 0.3 0.2 0.2 0.3 0.5 0.3 0.5 0.2 1.2 5q1.3 5 3.8 72t2.2 82.5l-0.2 15.5-2.8 77.5q-2.7 77.5-4.4 88.5-1.8 11-2.8 11t-1 1-1 0.8l-1-0.3-0.2-0.3-0.3-0.2-0.5 1-0.5 1-0.3 0.2-0.2 0.3 0.2 0.3 0.3 0.2 2.7 0.5q2.8 0.5 2.3 5.3-0.5 4.7 0 5.2t0.7 0.8l0.3 0.2 0.3 0.2 0.2 0.3 2 0.5 2 0.5-1.5 0.3-1.5 0.2v2h-12l-0.2-1q-0.3-1-2.3-8l-2-7-0.3-1.5-0.2-1.5h-2v-4l0.2-5.5q0.3-5.5 4.3-120t4-164-0.5-56.5-1.5-9l-1-2-0.3-0.2q-0.2-0.3-0.4-0.6-0.3-0.2 0.4-1 0.8-0.7-0.7-1-1.5-0.2-1.5-1.2z"
       fill="#bebebe"
       stroke="#bebebe"
       id="path4783" />
    <path
       d="m919.2 385.5l-1.2-1.5 4 0.2q4 0.3 5.5 0.6l1.5 0.2-1.2 3.5q-1.3 3.5 0.7 4.5t-0.3 5.2q-2.2 4.3 0 5.6 2.3 1.2 0.8 6.7t-1.8 8l-0.2 2.5-0.5 0.2q-0.5 0.3-0.5 0.6v0.2l-0.8 9.5q-0.7 9.5-1 66l-0.2 56.5 0.8 97q0.7 97 0.7 100t0.3 5.5l0.2 2.5-1.5 0.2-1.5 0.3-2 0.3-2 0.2h-7l-0.2-3.5q-0.3-3.5-3-4-2.8-0.5-3-4.5-0.3-4-5.6-5-5.2-1-5.4-91-0.3-90-1-118l-0.8-28v-12h0.5l0.5 2 0.5 2 0.5 1 0.5 1 0.3 0.2 0.2 0.3 0.2 0.3 0.3 0.2 0.3 0.2 0.2 0.3 0.2 0.3q0.3 0.2 0.8 3.2l0.5 3 0.5 1.5 0.5 1.5 0.5 2 0.5 2 0.5-2 0.5-2 0.5-8.5q0.5-8.5 1.5-22.5t1.5-13 5-26 4.8-31q0.2-4-1.6-5-1.7-1 1-4.8 2.8-3.7 2.3-6-0.5-2.2 0.5-2.4 1-0.3 2.2-2.6 1.3-2.2 0-3.7z"
       fill="#868686"
       stroke="#868686"
       id="path4785" />
    <path
       d="m909.5 347.2l2.5-0.2 54.5 27.8q54.5 27.7 55 28l0.5 0.2v0.5l40.8 21.3q40.7 21.2 42 22 1.2 0.7 2.2 1.2l1 0.5 0.2 0.3 0.3 0.2 0.3 0.2 0.2 0.3 1 0.3 1 0.2v2h2v2l-2 0.2-2 0.3-0.2 0.3-0.3 0.2-0.3-0.2-0.2-0.3-0.2-0.3-0.3-0.2-0.3 0.2-0.2 0.3-2.5 0.5q-2.5 0.5-9.5 1.2l-7 0.8h-1l0.2-2q0.3-2 0.3-3.5t-1.7-2.3q-1.8-0.7-8.3-1.2t-7 0.8q-0.5 1.2 0.7 1.7l1.3 0.5 0.3 0.2 0.2 0.3h-5l0.2-0.3q0.3-0.2 0.3-1.7t-3.3-1.3q-3.2 0.3-3.7 1.6l-0.5 1.2h-3l-0.2-0.5-0.3-0.5-0.3-0.2-0.2-0.3 2.2-2.3q2.3-2.2 2.6-3.2l0.2-1-1-0.2-1-0.3-2.5-0.5q-2.5-0.5-4.5-0.8l-2-0.2-0.2-0.5-0.3-0.5-0.3-0.2-0.2-0.3-0.2-0.3q-0.3-0.2-4-2-3.8-1.7-9.3-2.2t-5.3-3.2q0.3-2.8-2.4-4-2.8-1.3-14.8-1.8t-13.8 0.8l-1.7 1.2-1.3 2.5q-1.2 2.5-0.2 2.7 1 0.3 2 0.8l1 0.5-2 0.5-2 0.5-1 0.5-1 0.5-0.2 0.3-0.3 0.2h-0.5l0.2-1 0.3-1 0.3-0.2 0.2-0.3-1-0.5-1-0.5-0.2-0.3-0.3-0.2v-1q0-1 1.5-4t-0.2-3.8q-1.8-0.7-1.8-1.7t1-3.7l1-2.8-1-0.2-1-0.3-6.5-0.5q-6.5-0.5-14 0.5t-8 5.3l-0.5 4.2h-0.5l-0.5-3q-0.5-3-1-7.5l-0.5-4.5-0.3 0.2-0.2 0.3-0.2 0.3-0.3 0.2-0.3-0.2-0.2-0.3h-5l-0.2 0.3-0.3 0.2-0.3 0.2-0.2 0.3-0.2 0.3q-0.3 0.2-1.6 0-1.2-0.3-4.7 5.4-3.5 5.8-6.5 5.8t-3.8 2.5l-0.7 2.5-0.3 0.2-0.2 0.3-0.2 0.3-0.3 0.2-0.5-1-0.5-1-0.5-1-0.5-1-0.3-1q-0.2-1-1.2-1h-1l-0.2-1.5-0.3-1.5-0.3 1q-0.2 1-1.2 1h-1l0.2-1q0.3-1 2.3-8.5t-0.3-8.7q-2.2-1.3 0-5.6 2.3-4.2 0.3-5.2t-0.7-4.5l1.2-3.5-1.5-0.2q-1.5-0.3-5.5-0.6l-4-0.2-10 0.2-10 0.3-2.5 0.3-2.5 0.2v-0.5l0.2-0.3 0.3-0.2 0.3-0.2 0.2-0.3 0.2-0.3 0.3-0.2 0.5-2 0.5-2 0.3-0.2 0.2-0.3 3.8-1.7q3.7-1.8 4.4-6.6 0.8-4.7 2.3-5 1.5-0.2 1.3-8.7-0.3-8.5-0.6-8.7-0.2-0.3 2.3-0.6z"
       fill="#bcbcbc"
       stroke="#bcbcbc"
       id="path4787" />
    <path
       d="m612.8 283h0.2l0.2 4.5 0.3 4.5 6.3 0.2q6.2 0.3 6.4 0.6 0.3 0.2 0.6 13.7l0.2 13.5-0.5-0.2-0.5-0.3h-3q-3 0-15.5 0.5t-15.5-0.5-2.8-1.7q0.3-0.8-7-4.3-7.2-3.5-8-5-0.7-1.5-6.7-3l-6-1.5-1.3 5q-1.2 5-3.7 5.5t-3 5.7q-0.5 5.3-6.7 6-6.3 0.8-6.6 66.8l-0.2 66-0.2 27-0.3 27h-1l-0.5-43.5q-0.5-43.5-1.5-49.5l-1-6-0.5 2.5-0.5 2.5-0.5 5q-0.5 5-1 28.5l-0.5 23.5-0.5-10q-0.5-10-1.5-44l-1-34-0.5-1-0.5-1-0.5 5-0.5 5-0.5-4-0.5-4-0.5 14.5q-0.5 14.5-1 13.5t-1 6-1 23l-0.5 16-0.5-10q-0.5-10-3.8-47.5l-3.2-37.5-0.2-2.5q-0.3-2.5-2.3-18t-3.7-20.5q-1.8-5-10.8-5.5l-9-0.5v-0.5l-3-0.5-3-0.5 0.2-0.3 0.3-0.2 0.3-0.2 0.2-0.3 5.8-1.3q5.7-1.2 6-1.4 0.2-0.3 1.2-0.8l1-0.5 0.2-0.3 0.3-0.2 0.3-0.2 0.2-0.3 0.2-0.3 0.3-0.2 0.3-0.2 0.2-0.3 0.2-0.3 0.3-0.2 0.3-0.2 0.2-0.3 0.2-0.3 0.3-0.2v-1l-0.3-0.2-0.2-0.3-0.2-0.3-0.3-0.2-0.3-0.2-0.2-0.3-0.2-0.3-0.3-0.2-0.3-0.2-0.2-0.3-0.2-0.3-0.3-0.2-0.3-0.2-0.2-0.3-1-0.5q-1-0.5-7-1.5l-6-1-1-0.5-1-0.5 0.2-0.3 0.3-0.2 0.3-0.2 0.2-0.3 2-0.3 2-0.2 1.2-0.5q1.3-0.5 0.3-2.5t-0.7-3.5q0.2-1.5 12.7-3.7 12.5-2.3 21-3.3t8.5-2.5 4.8-4.2q4.7-2.8 8-6 3.2-3.3 18.2-6.3t27-3 15 1.3q3 1.2 3.5 8.2t3 7 2.7 1.5q0.3 1.5 0.6 1.5z"
       fill="#aaa"
       stroke="#aaa"
       id="path4789"
       style="fill:#939393;fill-opacity:1" />
    <path
       d="m231.2 637.5l2.8-77.5h1q1 0 1.8 6 0.7 6 1.2 4.5t1 42.5l0.5 44 0.5-5q0.5-5 1-9.5l0.5-4.5 0.5 4.5 0.5 4.5 0.5-5.5q0.5-5.5 1-12.5l0.5-7 0.5 13 0.5 13 0.5-1 0.5-1 0.5-42.5 0.5-42.5 0.5 9 0.5 9h0.5l-0.5 82q-0.5 82 5.7 83 6.3 1 6.6 5 0.2 4 2.2 4h2v0.2q0 0.3 0.5 0.6l0.5 0.2v0.2q0 0.3-0.5 0.8t-19 1.2l-18.5 0.8h-1v-2l1.5-0.2 1.5-0.3-2-0.5-2-0.5-0.2-0.3-0.3-0.2-0.3-0.2q-0.2-0.3-0.7-0.8t0-5.2q0.5-4.8-2.3-5.3l-2.7-0.5-0.3-0.2-0.2-0.3 0.2-0.3 0.3-0.2 0.5-1 0.5-1 0.3 0.2 0.2 0.3 1 0.3q1 0.2 1-0.8t1-1 2.8-11q1.7-11 4.4-88.5z"
       fill="#9b9b9b"
       stroke="#9b9b9b"
       id="path4791" />
    <path
       d="m740.5 308.5h3.5l0.2 0.3 0.3 0.2 0.3 0.2 0.2 0.3 0.2 0.3 0.3 0.2v3l-0.3 1q-0.2 1-1 1.5-0.7 0.5-1.4 1.7-0.8 1.3 0.7 1.6 1.5 0.2 1.5 1.2t-1 1-1.8 3.5q-0.7 3.5-1.4 4.3-0.8 0.7-1 1l-0.3 0.2-0.3 0.2-0.2 0.3 0.2 0.3 0.3 0.2 0.3 0.2 0.2 0.3 4.8 1.7q4.7 1.8 4 7-0.8 5.3-1.8 5.6-1 0.2-2.5 5.4-1.5 5.3-0.3 7 1.3 1.8 1.8 7.3l0.5 5.5h0.5l-0.2 2.5q-0.3 2.5-0.8 7l-0.5 4.5-0.5 3.5-0.5 3.5-0.5-3q-0.5-3-0.8-2.8-0.2 0.3-1-2l-0.7-2.2-0.5 1-0.5 1-0.5 2-0.5 2-1.5 11.5q-1.5 11.5-1.8 20l-0.2 8.5-0.5-0.2-0.5-0.3-0.2-0.3q-0.3-0.2-1.3-2.7l-1-2.5-3 11q-3 11-4.5 14t-2 2-2.5 4-2.5 6.5l-0.5 1.5-0.5 1-0.5 1-0.5-3-0.5-3-0.5 1-0.5 1-0.5 1.5-0.5 1.5-0.5-2-0.5-2-0.5-1-0.5-1h-0.5v-137l0.2-1 0.3-1 0.5-1.5 0.5-1.5 1.7-1.8q1.8-1.7 12.3-2.7t14-1z"
       fill="#858585"
       stroke="#858585"
       id="path4793" />
    <path
       d="m895.5 384.8l2.5-0.3 10-0.3 10-0.2 1.2 1.5q1.3 1.5 0 3.7-1.2 2.3-2.2 2.6-1 0.2-0.5 2.4 0.5 2.3-2.3 6-2.7 3.8-1 4.8 1.8 1 1.6 5-0.3 4-4.8 31t-5 26-1.5 13-1.5 22.5l-0.5 8.5-0.5 2-0.5 2-0.5-2-0.5-2-0.5-1.5-0.5-1.5-0.5-3q-0.5-3-0.8-3.2l-0.2-0.3-0.2-0.3-0.3-0.2-0.3-0.2-0.2-0.3-0.2-0.3-0.3-0.2-0.5-1-0.5-1-0.5-2-0.5-2h-0.5l-0.2-2.5q-0.3-2.5-0.8-54t0.2-52l0.8-0.5 2.5-0.2z"
       fill="#727272"
       stroke="#727272"
       id="path4795" />
    <path
       d="m836 308.8v0.2l-1.5 0.2q-1.5 0.3-3 1-1.5 0.8-2.5 8.8t-2.5 7.8l-1.5-0.3-0.2-0.3-0.3-0.2-0.3 0.2-0.2 0.3-0.2 0.3-0.3 0.2-0.5 3.5-0.5 3.5h-0.5l-0.2-5q-0.3-5-1.3-7t-3.7-3.2q-2.8-1.3-8.3-2.6-5.5-1.2-5 1.3t-6.5 3.7q-7 1.3-12 1.3h-5l-0.2 0.3-0.3 0.2-0.3 0.2-0.2 0.3-0.2 0.3-0.3 0.2-0.3 0.2-0.2 0.3-0.2 0.3-0.3 0.2-0.3 1-0.2 1 1.5 0.2 1.5 0.3 1.5 1q1.5 1 3 1.5l1.5 0.5 1 0.5 1 0.5 0.2 0.3 0.3 0.2 0.3 0.2 0.2 0.3-2 0.5-2 0.5h-2.5q-2.5 0-5.5 0.5t-4.5 2.8l-1.5 2.2h-1q-1 0-1 1t-1 1.2q-1 0.3-2.8 4.6-1.7 4.2-2.7 2.7t-2.7 0.7q-1.8 2.3-3.6 6.6-1.7 4.2-3.4 4.7-1.8 0.5-2 2.5l-0.3 2-0.5 1-0.5 1-0.3-0.2-0.2-0.3-0.2-0.3-0.3-0.2-0.5 2-0.5 2-0.3 0.2-0.2 0.3v0.5h-0.5l-0.5-5.5q-0.5-5.5-1.8-7.3-1.2-1.7 0.3-7 1.5-5.2 2.5-5.4 1-0.3 1.8-5.6 0.7-5.2-4-7l-4.8-1.7-0.2-0.3-0.3-0.2-0.3-0.2-0.2-0.3 0.2-0.3 0.3-0.2 0.3-0.2q0.2-0.3 1-1 0.7-0.8 1.4-4.3 0.8-3.5 1.8-3.5t1-1-1.5-1.2q-1.5-0.3-0.7-1.6 0.7-1.2 1.4-1.7 0.8-0.5 1-1.5l0.3-1v-3l-0.3-0.2-0.2-0.3-0.2-0.3-0.3-0.2-0.3-0.2-0.2-0.3h-3.5q-3.5 0-14 1t-12.3 2.7l-1.7 1.8-0.5 1.5-0.5 1.5-0.3 1-0.2 1h-0.5l-0.3-9.5-0.2-9.5 0.2-5q0.3-5 0.8-6l0.5-1 0.3-0.2 0.2-0.3 5 0.5q5 0.5 6 1l1 0.5 1 0.3 1 0.2v-5q0-5 3-5t3.8-6q0.7-6 2.4-7 1.8-1 1.8-2t6.5-0.8q6.5 0.3 49.5 22.3t43 22.3zm-82.8 49q-0.2-0.3 0-0.6 0.3-0.2 0.3 0.3t-0.3 0.3z"
       fill="#b5b5b5"
       stroke="#b5b5b5"
       id="path4797" />
    <path
       d="m239.8 350.8l0.2-0.3h3l13.2 1.3q13.3 1.2 13.6 1.2h2.2v2l4.5 1.2q4.5 1.3 5.3 2 0.7 0.8 1 1l0.2 0.3 0.2 0.3 0.3 0.2 0.5 1 0.5 1v5l-0.3 1-0.2 1-2 0.2q-2 0.3-8 2.8t-8.2 5.8q-2.3 3.2-7 6l-4.8 2.7-1 0.3-1 0.2-0.2 1-0.3 1-0.3 2.5-0.2 2.5-0.2 29.5q-0.3 29.5-0.8 91.5l-0.5 62-0.3 1-0.2 1h-0.5l-0.5-9-0.5-9-0.5 42.5-0.5 42.5-0.5 1-0.5 1-0.5-13-0.5-13-0.5 7q-0.5 7-1 12.5l-0.5 5.5-0.5-4.5-0.5-4.5-0.5 4.5q-0.5 4.5-1 9.5l-0.5 5-0.5-44q-0.5-44-1-42.5t-1.2-4.5q-0.8-6-1.8-6h-1l0.2-15.5q0.3-15.5-2.2-82.5t-3.8-72l-1.2-5 0.2-4q0.3-4 0.6-7 0.2-3 6.2-3.2l6-0.3 0.2-0.3 0.3-0.2 0.3-0.2 0.2-0.3-0.2-0.3-0.3-0.2-0.5-1q-0.5-1-0.8-1.2-0.2-0.3-0.4-2.6-0.3-2.2 1.4-3.4 1.8-1.3 0-3.6l-1.7-2.2v-2l0.5-1 0.5-1 0.3-0.2z"
       fill="#999"
       stroke="#999"
       id="path4799"
       style="fill:#a9a9a9;fill-opacity:1" />
    <path
       d="m295.2 348l0.3 1 0.3 0.2 0.2 0.3h2l0.2-0.3 0.3-0.2h0.5l3.5 2.8q3.5 2.7 5.7 3 2.3 0.2 3.3 6.7t0 111.5-1.5 177.5l-0.5 72.5-0.3 1-0.2 1-0.2 2.5-0.3 2.5-0.5-15q-0.5-15-1.2-13.2-0.8 1.7-2-12.6-1.3-14.2-0.6-94.7l0.8-80.5-0.2-45-0.3-45-0.5 24q-0.5 24-1 33.5l-0.5 9.5-0.5-6q-0.5-6-0.8-37.5-0.2-31.5-4.2-32.7-4-1.3-7-5.8t-18.5-9.5l-15.5-5-2.5-0.3-2.5-0.2 0.2-2.5 0.3-2.5 0.3-1 0.2-1 1-0.2 1-0.3 4.8-2.7q4.7-2.8 7-6 2.2-3.3 8.2-5.8t8-2.8l2-0.2 0.2-1 0.3-1v-5l-0.5-1-0.5-1-0.3-0.2-0.2-0.3-0.2-0.3q-0.3-0.2-1-1-0.8-0.7-5.3-2l-4.5-1.2v-2h-2v-0.5l1-0.5 1-0.5 11.5-2.3q11.5-2.2 11.7-1.2z"
       fill="#a9a9a9"
       stroke="#a9a9a9"
       id="path4801" />
    <path
       d="m779.8 666.8l0.2-0.3 0.2-0.3 0.3-0.2 0.3 0.2 0.2 0.3 0.2 0.3 0.3 0.2 0.3 0.2 0.2 0.3 0.2 0.3 0.3 0.2 0.3 0.2 0.2 0.3 0.2 0.3 0.3 0.2 0.5 1 0.5 1 0.5 1.5 0.5 1.5 2.5 15q2.5 15 6 24.5t3.8 10l0.2 0.5 0.2 2 0.3 2 1.7 1.5q1.8 1.5 1.8 3t2 2.7q2 1.3 4.2 3.6 2.3 2.2 2.3 3.2t0 1.5v0.5l-0.3 0.2-0.2 0.3 0.2 0.3 0.3 0.2 0.3 0.2 0.2 0.3 1 0.3 1 0.2v4l-3 0.2q-3 0.3-26-1.2l-23-1.5-0.2-0.3-0.3-0.2h-0.5v-0.5l0.5-0.3 0.5-0.2h1q1 0 1.5-22.5l0.5-22.5h0.5l0.5 1.5 0.5 1.5 0.5 1 0.5 1 0.5-5q0.5-5 1-4t2-4 2-4 1-2 1-2 2-5.5l1.5-6.5 0.5-2 0.5-2 0.5-1 0.5-1 0.3-0.2z"
       fill="#c4c4c4"
       stroke="#c4c4c4"
       id="path4803" />
    <path
       d="m1022.5 396.8l0.5 0.2v0.2q0 0.3 0.5 0.6l0.5 0.2 0.2 0.5q0.3 0.5 0.6 1.5l0.2 1 1 0.2 1 0.3 1 0.5 1 0.5 1 0.5 1 0.5 0.2 0.3 0.3 0.2 0.3 0.2 0.2 0.3 0.2 0.3 0.3 0.2 0.3 0.2 0.2 0.3 1.5 0.3 1.5 0.2v2l-1-0.2-1-0.3-1-0.5-1-0.5-1-0.5-1-0.5-1-0.5-1-0.5-1-0.5q-1-0.5-3-0.8l-2-0.2-0.5-0.2q-0.5-0.3-55-28l-54.5-27.8v-0.5l-1-0.5-1-0.5-1-0.5q-1-0.5-37-18.2l-36-17.8v-0.2q0-0.3-43-22.3t-49.5-22.3q-6.5-0.2-6.5 0.8t-1.8 2q-1.7 1-2.4 7-0.8 6-3.8 6t-3 5v5l-1-0.2-1-0.3-1-0.5q-1-0.5-6-1l-5-0.5-0.2 0.3-0.3 0.2-0.5 1q-0.5 1-0.8 6l-0.2 5-0.5-0.2-0.5-0.3-0.2-0.3-0.3-0.2-0.5-1-0.5-1-0.3-0.2q-0.2-0.3-1.7-1.8t-10.5-3l-9-1.5-0.2-0.3-0.3-0.2-0.3-0.2-0.2-0.3-1.5-0.5-1.5-0.5-2-0.5-2-0.5v-1l6.5-0.5 6.5-0.5-2.5-0.5-2.5-0.5-1.5-0.5-1.5-0.5-4.5-0.5q-4.5-0.5-18.5-2l-14-1.5-0.2-0.3-0.3-0.2v-4l0.5-1 0.5-1 0.3-0.2 0.2-0.3 0.2-0.3 0.3-0.2 0.3-0.2 0.2-0.3 17.5-1.5q17.5-1.5 16.5-1.8-1-0.2-1-1.2t1.8-2q1.7-1 1.4-1.2-0.2-0.3 0.8-0.8l1-0.5 0.2-0.3 0.3-0.2 0.3-1 0.2-1 1-0.2 1-0.3-0.2-0.3-0.3-0.2-0.3-0.2-0.2-0.3 1-0.5 1-0.5-2-0.5-2-0.5h-13q-13 0-27.5 0.5l-14.5 0.5-1-0.5-1-0.5-1-0.5-1-0.5 0.2-0.3 0.3-0.2 0.5-1 0.5-1 0.3-0.2 0.2-0.3 1-0.5 1-0.5 6.5-2q6.5-2 5.5-2.5t11-4 12-3.8v-0.2l7.5-1.8q7.5-1.7 7.5-2v-0.2l2-0.2q2-0.3 2-0.6v-0.2l3-1.2q3-1.3 4-1.8l1-0.5 0.2-0.3 0.3-0.2v-2l-0.3-0.2-0.2-0.3-0.2-0.3-0.3-0.2-0.5-1-0.5-1-0.3-0.2-0.2-0.3-0.2-0.3-0.3-0.2-0.3-1-0.2-1-1-0.2-1-0.3 1-0.5 1-0.5 0.2-0.3 0.3-0.2 0.3-0.2 0.2-0.3-8.5-0.3-8.5-0.2v-0.5l0.2-0.3 0.3-0.2 0.3-0.2 0.2-0.3 6.5-0.5q6.5-0.5 11.5-0.2 5 0.2 6 5.4 1 5.3 52 32.3t161 84.5 110.5 57.8z"
       fill="#d8d8d8"
       stroke="#d8d8d8"
       id="path4805" />
  </g>
</svg>
