<?xml version="1.0" encoding="UTF-8"?>
<svg viewBox="0 0 562.5 575" xmlns="http://www.w3.org/2000/svg">
 <path d="m317.09 558.64c0.825-0.71577 1.5-1.9509 1.5-2.7447 0-0.89138 2.4029-2.2119 6.2835-3.4533 5.9481-1.9027 6.5181-1.923 10.678-0.38137 2.4168 0.89572 5.3267 1.3847 6.4665 1.0866s2.0655-0.15195 2.057 0.3247c-0.04377 2.4768-2.3741 3.3944-11.025 4.3412-5.2029 0.56945-11.26 1.2812-13.46 1.5818-3.3543 0.45821-3.7579 0.33634-2.5-0.75499zm16.457-3.7323c1.089-1.762-1.354-2.1168-4.6526-0.67587l-3.3047 1.4436 3.691 0.08158c2.03 0.04486 3.9499-0.33734 4.2663-0.84933zm-33.457 3.1651c0-1.3669 1.9522-2.0346 8.2378-2.8176 4.9993-0.62273 5.1785-0.5676 3.5868 1.1036-1.8759 1.9696-11.825 3.4117-11.825 1.714zm158.5-1.1758c-2.75-1.0282-11.225-4.4242-18.834-7.5466s-14.092-5.4189-14.408-5.1032 4.3346 2.8881 10.334 5.7165c10.555 4.9762 12.607 7.1148 4.7323 4.932-2.1034-0.58303-7.1993-2.7469-11.324-4.8086-5.5903-2.794-7.5813-4.321-7.8193-5.9968-0.34596-2.4358-0.95782-2.6512-11.181-3.9352-5.5612-0.69852-6.5-1.1053-6.5-2.8164 0-2.9644-1.1776-4.2703-4.5115-5.0025-2.6682-0.58604-4.383-3.4975-2.06-3.4975 0.51072 0 1.6357-0.70714 2.5-1.5714 1.4286-1.4286 1.4269-1.716-0.01881-3.1617-0.87464-0.87464-3.3141-2.755-5.4211-4.1786s-4.799-3.8258-5.9823-5.3383c-2.5415-3.2484-4.0064-3.5227-4.0064-0.75 0 1.1-0.5625 2.0532-1.25 2.1183s0.09451 0.40605 1.7378 0.75771c1.7069 0.36529 3.1316 1.3863 3.3233 2.3817 0.26625 1.3825-0.37156 1.7423-3.0886 1.7423-1.8833 0-4.8587 0.50011-6.6122 1.1114-2.9489 1.028-3.0538 1.2132-1.3992 2.4682 1.6721 1.2683 1.6388 1.3589-0.51083 1.3886-1.2648 0.01749-3.6508-0.6669-5.3022-1.5209-1.8193-0.94079-4.8538-1.4334-7.7003-1.25l-4.6978 0.30266 6 3.8013c4.4662 2.8295 6.703 3.6668 8.75 3.275 3.4762-0.66527 3.8314 1.9739 0.47166 3.5047-2.3629 1.0766-7.7217-0.20075-7.7217-1.8406 0-1.8353-6.0628-4.2396-10.654-4.225-9.1232 0.02883-8.9994 2.4115 0.30873 5.9448 2.623 0.99566 4.9274 2.2853 5.1209 2.8659s-1.5892 1.611-3.9617 2.2899-4.8102 1.6059-5.4172 2.0601c-1.1995 0.89764-10.274-6.3e-4 -11.896-1.1776-1.743-1.2643-9.5-2.0988-9.5-1.022 0 0.55 1.7918 1.2865 3.9818 1.6367 4.1078 0.65687 4.5879 2.3261 0.70916 2.4659-1.205 0.04342-1.6285 0.30592-0.94098 0.58333 2.3697 0.95618 1.2401 2.2487-2.5 2.8608-2.0625 0.33752-7.0686 1.9608-11.125 3.6072-7.9528 3.2282-17.972 5.0492-16.731 3.0407 0.38911-0.62958 3.2721-1.8954 6.4066-2.8128s5.1211-1.8661 4.4147-2.108-2.9881 0.24188-5.0704 1.075c-4.5131 1.8058-7.9252 0.61776-4.8952-1.7045 2.3322-1.7875 2.2104-3.8522-0.32061-5.4328-1.8455-1.1525-2.5054-0.90034-6.0693 2.3194-4.0588 3.6669-7.0942 4.2313-7.6356 1.4199-0.16415-0.85236 0.73068-2.1124 1.9885-2.8001s3.1274-2.39 4.1546-3.7828c1.548-2.099 1.6707-2.9648 0.7169-5.0581-0.97734-2.145-0.91973-2.437 0.38236-1.9373 0.94857 0.364 1.5331 0.02837 1.5331-0.88031 0-0.80774-0.47045-1.4686-1.0454-1.4686-1.7426 0-5.9546 4.7842-5.9546 6.7634 0 1.0199-0.6753 2.7278-1.5007 3.7954-1.4756 1.9087-1.5326 1.9035-3.4103-0.30887-1.3138-1.5479-3.0113-2.25-5.4403-2.25-1.9419 0-3.8098-0.45165-4.151-1.0037s-1.7877-0.71066-3.2146-0.35254c-1.894 0.47537-2.9606 0.15024-3.9512-1.2046-1.3156-1.7991-1.451-1.8001-4.4436-0.03235-2.7735 1.6384-3.2422 1.6678-4.62 0.29003-1.1944-1.1944-2.0501-1.2978-3.8714-0.46801-1.9731 0.89901-2.6568 0.69112-4.3795-1.3318-1.1228-1.3184-2.3173-3.6346-2.6544-5.1471-0.69802-3.1313-1.1032-3.2611-3.8042-1.2182-1.0676 0.80751-2.984 1.4682-4.2587 1.4682-2.2296 0-2.2931-0.21829-1.672-5.75 0.3551-3.1625 1.034-6.5079 1.5087-7.4343 1.3846-2.7019 1.0366-6.8157-0.57652-6.8157-0.94105 0-1.5471 1.2959-1.75 3.7417-0.21691 2.615-0.83735 3.8416-2.0604 4.0733-1.2106 0.22942-1.75-0.30742-1.75-1.7417 0-2.4953-0.35516-2.5419-3.5275-0.46337-2.3398 1.5331-5.7247 1.3203-5.2834-0.33212 0.42262-1.5824-1.3384-10.278-2.0815-10.278-0.42336 0-1.3718 1.125-2.1077 2.5-1.4112 2.6368-4.4633 3.363-5.2534 1.25-0.25708-0.6875-0.38374-3.8922-0.28146-7.1216 0.15023-4.7436-0.04184-5.5601-0.99981-4.25-1.8289 2.5012-4.4653 2.0309-4.4653-0.79658 0-3.4291 0.99187-5.5818 2.5718-5.5818 2.9204 0 4.6721-8.4849 2.4703-11.966-0.73811-1.167-1.1636-0.86105-2.0859 1.5-0.63724 1.6314-1.3973 4.6536-1.6891 6.7161-0.29922 2.1153-1.0913 3.75-1.817 3.75-0.7076 0-1.9577 0.25754-2.778 0.57232-0.94211 0.36152-1.7337-0.19097-2.1492-1.5-0.36175-1.1398-1.0293-2.0723-1.4834-2.0723-2.3144 0-1.6163 4.1593 2.3197 13.821 2.3929 5.8736 4.5853 12.479 4.8721 14.679s1.3101 5.8 2.2742 8c2.1088 4.8122 2.6672 11.881 1.107 14.015-0.83585 1.1431-3.4837 1.6456-10.122 1.9208-15.092 0.62577-38.137 3.1169-51.99 5.6202-10.026 1.8116-14.326 2.2244-16.097 1.5451-2.3471-0.90067-1.5262-1.4246 4.6953-2.9968 9.1272-2.3065 23.736-4.5417 41.401-6.3346 5.2324-0.53104 5.6281-0.70951 3.0929-1.3949-4.0789-1.1028-25.434 1.6722-40.909 5.316-6.3939 1.5055-9.1178 1.7747-9.9128 0.97964s-0.29587-1.4017 1.8166-2.2078c4.0463-1.544 17.852-4.6754 24.163-5.4806 2.8875-0.36841 5.25-1.0776 5.25-1.576 0-1.4756-7.3201-1.0463-21.238 1.2457-12.101 1.9928-13.156 2.0297-14.275 0.5-0.66434-0.90853-1.7349-1.6519-2.379-1.6519-1.9897 0-2.3392-2.7181-0.67591-5.2566 1.4778-2.2554 1.4476-2.542-0.44925-4.2586-1.9993-1.8094-2.1136-1.7541-6.7584 3.2688-5.3071 5.739-12.225 9.2736-12.225 6.2464 0-0.55 0.58367-1 1.297-1 1.6908 0 8.703-7.1881 8.703-8.9214 0-1.9143-13.164-0.5155-18.905 2.0089-4.7562 2.0914-6.6358 1.7893-3.5225-0.56605 1.0757-0.81383 1.3786-1.4719 0.68565-1.4897-0.68274-0.01749-3.3047 1.5432-5.8266 3.4682-4.3235 3.3002-6.4321 4.2543-6.4321 2.9103 0-0.32434 1.0064-1.4046 2.2364-2.4007l2.2364-1.811-3.4864-1.5178-3.4864-1.5178 3.382-0.08158c3.6952-0.08912 10.138-3.5473 10.085-5.4131-0.0183-0.64264-0.87559-2.1781-1.9051-3.412l-1.8718-2.2436-4.3449 1.9716c-7.9504 3.6078-16.85 2.111-19.758-3.3229-0.73855-1.38-2.5226-2.8017-3.9646-3.1594-3.0752-0.76285-7.2946-4.4135-6.5303-5.6502 0.29143-0.47154 1.4461-0.367 2.5659 0.23231 2.3732 1.2701 11.833 0.47997 19.389-1.6196 7.6624-2.129 10.802-6.2479 11.874-15.576l0.64477-5.6118-5.6735 2.8618c-12.394 6.2517-26.225 1.3023-35.82-12.818-3.422-5.036-3.4259-7.4712-0.00672-4.2591l2.5646 2.4093-1.0646-2.8001c-0.58553-1.5401-1.0457-4.0083-1.0227-5.485l0.04191-2.6849 1.7081 3.1376c4.1601 7.6418 11.215 13.569 18.453 15.505 3.8892 1.0402 5.1919 0.96163 9.1559-0.55225 4.2532-1.6243 8.234-5.5909 5.6109-5.5909-0.5996 0-0.37238-1.0468 0.52428-2.4152 1.4676-2.2398 1.4521-2.4404-0.21294-2.761-1.4737-0.28381-1.1259-0.95503 1.9405-3.7455 2.0548-1.8698 3.736-3.8471 3.736-4.394s-0.82293-0.24956-1.8287 0.66068-2.1176 1.655-2.4708 1.655-2.6159 1.3913-5.0284 3.0918c-2.9381 2.071-6.1365 3.3092-9.6866 3.75-4.7858 0.59429-5.1317 0.79777-3.5633 2.0966 0.9553 0.79113 3.6136 1.5541 5.9074 1.6954s4.3955 0.29586 4.6705 0.34338-0.37351 0.74709-1.4411 1.5546c-5.5948 4.2317-15.927-1.5558-21.454-12.017-3.2795-6.2079-2.5268-6.9814 2.6447-2.7176 6.2978 5.1924 7.6589 5.5523 13.656 3.6106 7.4855-2.4235 11.231-6.4746 13.723-14.841 3.4746-11.667 0.93379-20.101-7.5539-25.076-5.3662-3.1448-7.6321-3.1281-13.135 0.09694-7.5614 4.4313-15.864 6.3982-26.94 6.3823-10.907-0.01562-14.42-1.0906-22.141-6.7757-5.3312-3.9256-9.6739-12.371-8.7463-17.009 0.97995-4.8997 2.0718-4.6762 2.6602 0.54479 0.89823 7.969 6.6229 10.502 18.812 8.3236 18.001-3.2169 31.244-23.63 24.049-37.07-1.703-3.1812-2.351-3.5377-7.4481-4.0969-6.4835-0.71127-15.949-6.039-15.022-8.455 0.66341-1.7288 0.86-1.7466 3.1948-0.28846 1.4687 0.91719 2.9383 0.63752 7.4116-1.4104 9.774-4.4747 17.88-13.741 20.105-22.984 0.58607-2.4342 0.37959-2.75-1.7979-2.75-3.1996 0-4.2034-1.6668-1.5172-2.5193 2.2369-0.70997 1.7855-1.9469-0.71817-1.9679-1.1027-0.00927-1.6004-1.3402-1.825-4.8805-0.20176-3.1805-0.98593-5.5449-2.2623-6.8213-2.7046-2.7046-8.9631-4.0118-12.986-2.7123-1.7767 0.57396-3.7164 0.74323-4.3104 0.37615-1.8334-1.1331-6.9765 1.658-8.5064 4.6164-2.0887 4.0391-1.8075 7.3683 1.1855 14.038 3.0381 6.7697 7.0761 9.8711 12.852 9.8711 3.2239 0 3.5785 0.21197 2.5095 1.5-1.887 2.2736-7.2332 1.8021-12.9-1.1378-6.3428-3.2908-6.3698-3.3268-9.0478-12.096l-2.2091-7.2338 2.3193-4.6439c1.2756-2.5542 3.8442-5.6801 5.7079-6.9465l3.3886-2.3026-3.8796-0.60076c-8.0336-1.244-14.032-3.5666-16.875-6.5338-2.1235-2.2164-2.5957-3.3135-1.7782-4.131s2.3592-0.2183 5.8055 2.2566c4.685 3.3645 4.7104 3.3698 16.33 3.3698 11.499 0 11.73-0.04589 19.316-3.8422 7.9575-3.9818 11.426-7.5168 6.0829-6.1996-1.5187 0.37441-4.1113 1.548-5.7613 2.608-7.5602 4.8569-11.686 6.1946-17.485 5.6688-9.277-0.84122-20.7-7.9374-19.853-12.333 0.29326-1.5228 0.86234-1.32 3.9818 1.4189 4.941 4.3382 11.972 7.2888 18.856 7.913 7.3799 0.66919 8.8926-1.2268 1.7315-2.1702-5.9237-0.78038-13.042-4.8753-17.703-10.185-3.4074-3.8808-3.6097-4.6507-1.6498-6.2773 1.083-0.89883 1.4917-0.70818 1.9099 0.89093 1.3429 5.1351 17.539 6.766 28.994 2.9198 8.4109-2.8241 16.808-8.0704 21.563-13.473 4.801-5.4542 9.1557-16.619 9.1557-23.474 0-4.1452-0.39387-5.1778-2.5018-6.559-1.393-0.91274-3.609-1.4276-5-1.1617-2.5643 0.4902-3.4867-0.67955-1.2482-1.5828 2.2139-0.89331-1.7122-0.7116-7.3635 0.34081-7.1114 1.3243-10.886 2.9258-10.886 4.6182 0 0.75827-0.45 1.3787-1 1.3787s-1 0.675-1 1.5 0.54 1.5 1.2 1.5c0.8254 0 0.8776 0.32241 0.16722 1.0328-0.56803 0.56803-1.8248 0.72887-2.7928 0.35742-2.1782-0.83585-1.7815-4.2024 1.5668-13.297 3.2225-8.7528 5.3836-10.173 17.038-11.198 13.138-1.1555 18.339-2.9185 25.593-8.6749 5.2351-4.1546 6.7872-7.682 7.6679-17.427l0.68149-7.5405-5.9926 2.0993c-5.327 1.8662-6.5105 1.9608-10.656 0.85211-5.5587-1.4867-10.779-5.266-14.647-10.604-2.3272-3.2115-2.8261-4.9224-2.8261-9.691 0-3.185 0.45-6.0691 1-6.409s1 0.10587 1 0.99064c0 2.1546 2.8209 7.5094 3.9559 7.5094 0.53408 0 0.52356-1.3283-0.02568-3.2434-1.0478-3.6535-1.1991-10.152-0.31326-13.456 0.49032-1.8286 1.2055-0.9865 4.2462 5 3.0104 5.9267 4.3986 7.5745 7.855 9.324 2.3091 1.1688 3.9172 2.4063 3.5734 2.75-1.6018 1.6018-5.6464 0.29922-9.2888-2.9914-5.1759-4.6762-5.1925-2.7184-0.02295 2.7159 3.8772 4.0758 4.1095 4.1684 9 3.5892 2.761-0.327 5.0201-0.38414 5.0201-0.12697s-1.38 1.3068-3.0667 2.3325c-2.3209 1.4114-3.9016 1.6766-6.5 1.0906-1.8883-0.42588-3.4333-0.42515-3.4333 0.00164 0 1.3849 8.5191 2.9651 12.563 2.3304l3.9366-0.61783-1.905 2.1504c-1.0846 1.2243-3.2379 2.215-5 2.3002l-3.095 0.14983 2.849 0.42614c2.6607 0.39798 12.562-2.8319 15.425-5.0318 1.6843-1.2941 2.8053-0.09716 1.4445 1.5425-0.97177 1.1709-3.3272 19.767-2.6138 20.635 0.40947 0.49857 12.268-9.0014 15.319-12.273 2.78-2.9802 2.2444-3.2546-2.0341-1.0421-1.6558 0.85623-4.6709 1.4187-6.7003 1.25l-3.6899-0.30678 6-3.5 6-3.5-4.25-0.3075c-2.3375-0.16912-4.25-0.63338-4.25-1.0317s2.1375-1.3121 4.75-2.0307c11.902-3.2736 21.25-8.0328 21.25-10.818 0-1.8015 0.18825-1.8609-10.123 3.1949-13.218 6.4812-15.944 7.1638-20.32 5.0873-1.9565-0.92843-3.5573-2.1169-3.5573-2.6411s-1.5382-0.95308-3.4182-0.95308c-6.6832 0-8.9698-2.3803-3.3318-3.4682 9.4006-1.814 12.75-2.8466 12.75-3.9306 0-0.65966 1.6663-1.8019 3.7029-2.5384s5.0741-2.1752 6.75-3.1972c2.7212-1.6594 2.8117-1.8586 0.84629-1.8619-3.882-0.0066-12.016 2.0675-15.926 4.061-2.647 1.3495-5.8457 1.9352-10.569 1.9352-6.1549 0-7.0707-0.27641-10.039-3.0299l-3.2658-3.0299 3.8651 2.1966c5.4149 3.0774 11.03 2.8614 17.526-0.67406 8.8198-4.8003 11.906-9.8175 20.708-33.666 4.6222-12.523 8.6988-21.245 10.43-22.315 0.74443-0.46008 0.71312-1.0869-0.10343-2.0708-1.4899-1.7952-0.04363-3.7054 4.107-5.4247 1.6318-0.6759 2.9668-1.9047 2.9668-2.7307s1.3106-4.0339 2.9124-7.1287 4.3019-8.6072 6.0001-12.25c2.2899-4.9116 4.9812-8.4216 10.415-13.583 9.512-9.0355 13.946-12.015 30.278-20.347 7.4321-3.7917 14.614-7.7605 15.961-8.8195 3.1178-2.4525 18.158-8.2581 30.434-11.748 12.299-3.4964 15.407-4.8325 17.688-7.6035 5.4588-6.6309 12.193-8.7733 19.536-6.215 7.5486 2.6302 10.741 4.4729 12.968 7.4856l2.1774 2.9451 13.065-0.24547c12.693-0.23849 13.295-0.15287 21.136 3.008 4.4388 1.7894 12.764 6.2554 18.5 9.9245s13.129 7.9925 16.429 9.6077c7.4439 3.6433 26.557 22.558 34.069 33.714 4.669 6.9344 10.421 17.784 10.438 19.688 0.00396 0.44656 1.9165 2.0423 4.25 3.5461 3.4085 2.1965 3.8128 2.7373 2.0562 2.75-1.732 0.01255-2.2518 0.69163-2.5 3.2658-0.43517 4.5134-2.2894 4.0578-5.0878-1.25-1.8247-3.4608-3.0188-4.5758-5.1709-4.8282-4.3796-0.51363-5.1445 1.272-1.62 3.7817 3.6634 2.6086 3.1746 4.1337-1.2156 3.7926-2.576-0.20016-3.1724 0.12738-3.1934 1.7539-0.03025 2.3471-1.0138 2.3112-8.5258-0.31162-3.025-1.0562-7.075-2.2024-9-2.5473s-0.35 0.49373 3.5 1.8635 7.7061 3.3409 8.5691 4.3803c1.4346 1.7279 8.9663 6.1151 10.498 6.1151 0.35576 0 0.37687-0.70351 0.04692-1.5634-0.49526-1.2906 1.7567-7.4366 2.7248-7.4366 0.86278 0 26.102 13.163 28.876 15.06 1.8067 1.2353 5.5936 4.4711 8.4154 7.1908s5.3874 4.5292 5.7014 4.0211-0.98306-2.3894-2.8823-4.1807c-3.3866-3.1944-5.0452-6.8046-4.2382-9.2254 0.22366-0.67098 1.3704 0.33935 2.5482 2.2452 2.2644 3.6638 7.745 7.2155 12.74 8.2563 2.4545 0.5114 2.1594 0.17942-1.6229-1.8257-4.6125-2.4452-5.826-3.6692-13.377-13.493-4.8064-6.2531-7.9299-8.0456-16.5-9.4689-3.575-0.59374-6.5-1.5295-6.5-2.0795s2.4184-1.138 5.3742-1.3066c8.1619-0.46559 14.584 3.0859 21.907 12.115 7.2955 8.9957 11.165 11.691 16.782 11.691 3.4456 0 4.8126-0.5777 7.0989-3 4.9486-5.2431 5.3956-2.6834 0.652 3.7332-1.9853 2.6855-2.0873 3.1225-0.6021 2.5798 0.9834-0.3594 2.9023-1.5092 4.2641-2.555 3.9794-3.056 3.9121 0.13711-0.073 3.464-4.4364 3.7037-9.9776 5.124-16.71 4.2829-3.8371-0.47941-5.2191-0.35565-4.7371 0.42423 0.94462 1.5284 7.2936 4.0708 10.166 4.0708 1.3078 0 2.3779 0.44143 2.3779 0.98095 0 1.2503-3.6301 2.1106-7.5 1.7774l-3-0.2583 0.31963 6c0.69243 12.998 4.1232 19.268 11.645 21.279 9.8167 2.6256 14.798 0.80472 25.63-9.368 7.4367-6.9845 9.1103-7.947 6.2538-3.5966-3.1109 4.7377-4.6804 6.5372-9.1011 10.435-4.593 4.0499-4.2346 4.6073 1.4385 2.2369 1.9918-0.83222 3.8524-1.2822 4.1346-1 0.6978 0.69788 0.493 0.86068-6.3347 5.0336l-5.9855 3.6583 4.5-0.70056c2.475-0.38531 6.3878-1.5505 8.6951-2.5894s4.6698-1.8888 5.25-1.8888c1.961 0 1.071 1.9282-1.9059 4.1291-1.6284 1.2039-2.7135 2.5889-2.4114 3.0777 1.2466 2.017-8.318 8.7932-12.412 8.7932-3.6674 0-3.064 1.2716 1.7393 3.6652 13.192 6.5741 19.348 16.336 23.053 36.555 7.2809 39.741 10.626 45.78 25.36 45.78 3.6476 0 6.632 0.39541 6.632 0.87868 0 2.4913-10.51 4.1984-16.265 2.6421-4.8377-1.308 2.7022 2.3881 8.2655 4.0518 6.4943 1.9422 14.965 1.4868 20.411-1.0973 4.7516-2.2548 5.4822-1.4046 1.6002 1.8619-5.5724 4.6889-13.345 5.7573-23.011 3.1629-7.2148-1.9365-7.659-1.8864-5.405 0.60934 2.6965 2.9858 12.8 7.8907 16.254 7.8907 2.8928 0 8.1095-1.9435 11.353-4.2296 0.9361-0.65984 2.0611-0.83326 2.5-0.38538s-1.1145 2.5181-3.452 4.6005-4.25 4.2153-4.25 4.7398c0 3.1488-10.977 4.2524-17.923 1.8018l-4.1744-1.4728 2.1584 3.0312c2.8094 3.9455 8.4788 7.5366 13.189 8.3542 2.0625 0.358 3.75 1.072 3.75 1.5866 0 1.6286-5.0747 2.2864-8.8056 1.1413-1.976-0.60645-3.7011-0.99422-3.8337-0.86171s1.0093 2.2554 2.5373 4.7175c5.2492 8.4581 8.2032 17.534 8.8236 27.11 0.3664 5.6548 0.1752 9.7494-0.5206 11.151-0.6047 1.2183-2.4944 5.5901-4.1994 9.7151s-4.9679 10.65-7.2511 14.5c-6.0943 10.276-9.4543 17.568-11.2 24.307-2.4019 9.269-2.0374 12.906 1.9231 19.193 11.16 17.715 14.497 28.587 12.391 40.373-1.624 9.0872-5.4623 14.329-12.579 17.179-4.3152 1.7281-5.8203 3.0904-9.5357 8.6311-5.9299 8.8431-15.583 19.505-18.904 20.881-1.4852 0.61519-3.4776 1.9774-4.4276 3.0272-1.7444 1.9275-5.4173 2.638-5.4173 1.0479 0-0.47339-2.2527-1.1275-5.0059-1.4536-3.2634-0.3865-6.2764-1.5619-8.6559-3.3769l-3.65-2.784 0.7476 3.9876c0.4111 2.1932 1.3747 5.7876 2.1413 7.9876 1.671 4.7956 1.8305 7.87 0.3612 6.9619-0.5839-0.36089-1.4965-1.7999-2.028-3.1977-1.2984-3.4152-2.2739-2.196-1.4057 1.7569 0.4682 2.1317 1.8044 3.8187 4.0952 5.1703 3.7695 2.2241 4.5646 4.3464 1.3093 3.4951-1.8357-0.48004-2.0137-0.21964-1.4583 2.1334 0.3479 1.4741 1.6888 3.5801 2.9798 4.6801 1.8436 1.5709 2.2394 2.6972 1.8448 5.25-0.2764 1.7875-0.663 3.25-0.8593 3.25s-2.7327-1.0722-5.6365-2.3827c-6.8096-3.0731-10.199-4.1053-9.4383-2.8741 0.3255 0.52664 3.9818 2.4356 8.1252 4.2422s7.5335 3.6739 7.5335 4.1496c0 1.1314 0.6795 1.2982-9.0083-2.2108-17.977-6.5113-25.467-8.9306-26.46-8.5473-0.56728 0.21884 1.2186 1.3938 3.9686 2.6111 12.974 5.7428 25.291 11.865 25.921 12.885 0.8626 1.3958 1.0912 1.4336-4.9214-0.81451zm-143.5-14.058c0-0.55-0.41547-1-0.92327-1s-2.2741-1.1366-3.925-2.5258c-1.9505-1.6412-3.2382-2.1433-3.6769-1.4335-0.78119 1.264-0.47007 1.6492 3.2676 4.0453 3.1383 2.0119 5.2576 2.3803 5.2576 0.91401zm11.269 0.34406c-0.67703-0.27392-2.027-0.29059-3-0.03705s-0.41903 0.47766 1.231 0.49804 2.4461-0.18706 1.769-0.46099zm137.73 0.1204c0-0.55756-8.6641-4.4768-9.8329-4.448-0.3669 0.00905 1.1329 1.0916 3.3329 2.4057 3.8786 2.3168 6.5 3.1404 6.5 2.0423zm-140-4.3062c0-0.7295-6.479-3.1583-8.425-3.1583-1.7893 0 0.87427 2.0698 3.7243 2.894 4.2478 1.2284 4.7008 1.2539 4.7008 0.26431zm119 0.37689c0-1.0366-4.4216-2.7224-9.0665-3.4566-5.5004-0.8695-6.7496 0.22349-1.6835 1.473 1.7875 0.44089 4.375 1.1189 5.75 1.5067 3.1769 0.89596 5 1.0698 5 0.47687zm-27.5-4.0713c-1.65-0.75553-3.675-1.3574-4.5-1.3376-0.825 0.01987-0.15 0.65427 1.5 1.4098s3.675 1.3574 4.5 1.3376c0.825-0.01987 0.15-0.65427-1.5-1.4098zm-200.74-0.71389c-0.52298-1.5931-5.744-2.1047-12.667-1.241-7.7 0.96064-4.5316 2.4566 5.2435 2.4757 5.8241 0.01138 7.7281-0.30532 7.423-1.2347zm135.24 0.82339c0-0.79145-10.731-6.5738-12.122-6.5318-2.7671 0.08357 6.4097 6.9584 9.2883 6.9584 1.5584 0 2.8334-0.19197 2.8334-0.42661zm-22-1.2687c0-0.38241-1.2092-1.9574-2.6871-3.5-3.1125-3.2488-6.3129-3.7188-6.3129-0.92716 0 2.2972 1.691 3.7821 5 4.3904l3.25 0.59582c0.4125 0.0749 0.75-0.1767 0.75-0.5591zm6.5-2.3047c-1.5808-1.65-3.5775-2.9868-4.4371-2.9707-1.0498 0.01969-0.49076 1.0046 1.7029 3 4.2625 3.8774 6.4545 3.8538 2.7342-0.02931zm121.5 2.107c0-0.96183-2.432-2.1269-4.3318-2.0752-0.64251 0.0175-0.2947 0.6925 0.77292 1.5 2.2036 1.6667 3.5589 1.8858 3.5589 0.57519zm-189.34-6.7217c2.5651-2.3204 2.9444-3.3853 1.2057-3.3853-1.4104 0-7.8681 6.7516-7.8681 8.2262 0 1.0194 0.93583 0.3394 6.6623-4.8409zm45.805 1.8647c-0.34277-2.0625-0.79904-4.3125-1.0139-5-0.61485-1.9671-2.4535-1.4586-2.4535 0.67857 0 1.0607-0.73607 2.6646-1.6357 3.5643-2.1364 2.1364-0.49283 3.6 4.931 4.3911 0.43743 0.0638 0.51486-1.5715 0.17209-3.634zm109.53 1.3418c0-0.73724-12.335-4.5918-14.694-4.5918-3.8981 0-2.5601 1.8613 2.4442 3.4001 4.4163 1.358 12.25 2.1201 12.25 1.1917zm-164.61-5.0918c0.67344-3.3472-0.57568-6.1231-2.2811-5.0691-0.61149 0.37792-1.1118 2.3856-1.1118 4.4614 0 6.1533 2.1979 6.547 3.3929 0.60765zm-92.393 1.4913c0-0.63644-2.1221-0.76971-5.75-0.3611-7.7314 0.87081-7.8832 1.3698-0.41667 1.3698 3.48 0 6.1667-0.43947 6.1667-1.0087zm122 0.56776c0-0.24254-0.45-0.7191-1-1.059s-1-0.14148-1 0.44098 0.45 1.059 1 1.059 1-0.19844 1-0.44098zm66-3.39c0-0.91894-3.2707-2.699-6.75-3.6735-1.3217-0.3702-2.25-0.18984-2.25 0.43715 0 0.58707-0.0149 1.4049-0.03312 1.8174s1.6693 1.0236 3.75 1.3581 4.1206 0.67196 4.5331 0.75 0.75-0.23205 0.75-0.68911zm-143-2.669c0-0.825-0.45-1.5-1-1.5s-1 0.675-1 1.5 0.45 1.5 1 1.5 1-0.675 1-1.5zm37-1.5c0-0.55-0.45-1-1-1s-1 0.45-1 1 0.45 1 1 1 1-0.45 1-1zm92-1c-0.825-0.53316-2.4-0.94464-3.5-0.9144-2 0.05497-2 0.05497 0 0.9144 1.1 0.47269 2.675 0.88417 3.5 0.9144 1.3333 0.04887 1.3333-0.05273 0-0.9144zm-26.249-5.2374c-1.6207-3.257-1.6236-3.258-1.6874-0.59439-0.09351 3.9013 0.96414 6.2037 2.2562 4.9116 0.73948-0.73948 0.56951-2.0295-0.56883-4.3172zm48.165 4.8781c-1.1782-1.016-6.0233-1.6222-5.4414-0.68076 0.35354 0.57204 1.8162 1.0401 3.2504 1.0401s2.4202-0.1617 2.191-0.35932zm13.083-3.1407c0-1.3264-4.2315-4.5-6-4.5-2.8421 0-2.4749 1.6785 0.75 3.428 2.7599 1.4973 5.25 2.0057 5.25 1.072zm-75.07-3.7434c-0.5116-1.7839-0.93019-3.3589-0.93019-3.5s-0.45-0.2566-1-0.2566c-1.8289 0-1.1376 5.8174 0.75 6.3107 0.9625 0.25153 1.8311 0.50953 1.9302 0.57333s-0.23839-1.3435-0.75-3.1274zm-26.237-1.4876c-0.25354-0.97297-0.47766-0.41903-0.49804 1.231s0.18706 2.4461 0.46099 1.769 0.29059-2.027 0.03705-3zm124.76-0.66685c-0.56563-3.015-1.0904-3.6022-3.2195-3.6022-2.401 0-2.4508 0.10262-0.88871 1.8287 0.91025 1.0058 1.655 2.2658 1.655 2.8 0 1.1461 2.1958 3.5088 2.7478 2.9568 0.20963-0.20964 0.07705-2.0021-0.29463-3.9833zm-285.86-1.2236c3.5114-2.9999 5.4095-5.3947 5.4095-6.8252 0-1.3325 2.1744-4.3955 5.5-7.7478 3.9578-3.9895 5.5-6.3062 5.5-8.2621 0-2.5826-0.29863-2.4147-5.9935 3.3692-3.2964 3.348-6.4296 6.0872-6.9627 6.0872-1.0368 0-7.6624 9.3745-10.425 14.75-1.5265 2.9704-1.5312 3.25-0.05402 3.25 0.8889 0 4.0505-2.0797 7.0257-4.6215zm5.829 2.7616c1.6057-0.94253 3.8473-2.9563 4.9812-4.475 1.7747-2.377 1.8555-2.895 0.58046-3.7215-1.1297-0.73232-2.4848 0.16899-5.7106 3.7981-5.7242 6.44-5.6776 7.8184 0.14897 4.3984zm236.58 1.4189c0-0.24254-0.45-0.7191-1-1.059s-1-0.14148-1 0.44098 0.45 1.059 1 1.059 1-0.19844 1-0.44098zm25.5-0.55902c-0.33992-0.55-1.4915-1-2.559-1s-1.941 0.45-1.941 1 1.1516 1 2.559 1c1.4514 0 2.2915-0.43284 1.941-1zm-293-2.8635c2.2-1.0008 4.5872-2.5293 5.305-3.3967 1.1835-1.4304 0.87177-1.4468-3.3507-0.17601-2.5606 0.77062-7.603 1.7031-11.205 2.0722-5.8121 0.59547-6.3423 0.82266-4.7082 2.0175 2.578 1.8851 9.2194 1.6391 13.959-0.51698zm16.808-3.1375c1.5442-2.7494 2.333-4.999 1.7529-4.999s-2.9686 1.6736-5.3077 3.719-4.4648 3.8699-4.7239 4.0544c-0.72681 0.51745 2.2857 2.1942 3.971 2.2103 0.825 0.00786 2.7635-2.2352 4.3077-4.9847zm369.69 3.9696c0-1.4159-2.3851-2.2088-5.1773-1.7211l-2.3227 0.40565 2.5 1.11c3.2194 1.4295 5 1.5026 5 0.20544zm-193.93-1.2436c-0.04125-0.39875-0.075-1.4-0.075-2.225s-0.45-1.5-1-1.5-1 1.1625-1 2.5833 0.48375 2.4221 1.075 2.225 1.0412-0.68458 1-1.0833zm84.425-2.725c-0.33992-0.55-1.293-1-2.118-1s-1.2219 0.45-0.88197 1 1.293 1 2.118 1 1.2219-0.45 0.88197-1zm16.041-0.93347c-0.36254-0.58659-1.4201-1.0522-2.3501-1.0347-1.4846 0.02793-1.4558 0.2097 0.23602 1.4897 2.0551 1.5548 3.2034 1.3076 2.1141-0.45494zm90.612-0.02088c6.8201-1.1238 9.9407-2.3455 11.956-4.6809 3.4049-3.946 5.1658-19.021 2.766-23.68-0.6187-1.2013-2.0472-3.1968-3.1743-4.4343-2.3171-2.544-1.2059-2.9926 1.9454-0.78531 1.1501 0.80559 2.2628 1.2933 2.4725 1.0838s0.2255-2.6683 0.0349-5.4641c-0.3614-5.3016-2.1535-6.1549-2.1535-1.0254 0 1.6175-0.45 2.941-1 2.941s-1-0.65285-1-1.4508c0-4.2443-2.2949-11.549-3.6282-11.549-1.1647 0-1.3005 0.76358-0.6671 3.75 1.3767 6.4915 0.9133 11.91-1.2203 14.267l-1.9672 2.1738-0.5972-2.3455c-0.5827-2.2886-0.6919-2.2472-4.5086 1.7113-5.3918 5.5922-9.1941 18.603-8.5512 29.261 0.1085 1.7988 0.5657 2.1822 2.043 1.7133 1.0468-0.33224 4.3093-1.0005 7.25-1.4851zm-385.76-2.1958c4.9904-1.0022 6.5311-1.9348 11.977-7.25 3.4373-3.3549 7.2352-8.2324 8.4396-10.839 2.4959-5.4011 2.9072-7.8782 0.98994-5.9609-2.4047 2.4047-2.6068 1.081-0.67447-4.4168 1.0858-3.0892 1.7545-5.8365 1.486-6.105s-1.9327 1.1571-3.6983 3.1679-4.4933 4.3197-6.0616 5.1307c-2.5234 1.3049-2.8522 2.0183-2.8571 6.1989-0.01246 10.561-3.67 16.205-12.519 19.319-5.9088 2.079-4.9318 2.3319 2.9186 0.75528zm42.606-5.1231c0-1.9858-0.12723-2.028-1.6183-0.53695-0.89008 0.89008-1.309 2.1188-0.93091 2.7306 1.0061 1.6279 2.5492 0.29995 2.5492-2.1936zm149 0.65527c0-0.825-0.45-1.2219-1-0.88197s-1 1.293-1 2.118 0.45 1.2219 1 0.88197 1-1.293 1-2.118zm104.5 0.61803c-0.33992-0.55-1.0415-1-1.559-1s-0.94098 0.45-0.94098 1 0.70156 1 1.559 1 1.2809-0.45 0.94098-1zm-138.5-4c0-1.65-0.45-3-1-3-1.1123 0-1.3802 4.2865-0.33333 5.3333 1.1298 1.1298 1.3333 0.77354 1.3333-2.3333zm-6.9651-1c0.41008-3.0443-0.06285-5.1008-1.0349-4.5-0.55 0.33992-1 2.2565-1 4.259 0 3.4751 1.5742 3.6615 2.0349 0.24098zm21.309 0.20633c-0.6216-2.377-2.3437-3.0429-2.3437-0.90633 0 1.2651 2.0894 3.944 2.6437 3.3897 0.15235-0.15235 0.01737-1.2698-0.29996-2.4833zm35.742-6.252c1.0839-0.58009 1.7237-1.4545 1.4217-1.9431s0.08749-1.2535 0.86548-1.6998 2.8919-3.9482 4.6976-7.7819 3.4394-6.5012 3.6306-5.9277-1.1643 4.3852-3.0122 8.4704c-2.8729 6.3512-3.2258 7.935-2.4352 10.928 0.50853 1.925 1.7282 4.2525 2.7105 5.1722 1.695 1.5872 1.8177 1.4346 2.4126-3 0.61153-4.5591 3.0381-10.567 9.1238-22.589 3.4705-6.8556 6.6613-9.2248 3.9538-2.9357-5.3964 12.535-7.5214 18.434-6.9652 19.334 1.0305 1.6674 3.5088 1.156 3.5447-0.73149 0.02791-1.4681 0.35009-1.3697 2 0.61078l1.9667 2.3608v-3.6023c0-2.5827 0.59034-3.9585 2.0856-4.8608 1.1471-0.69216 3.8878-4.521 6.0904-8.5085 4.133-7.4822 7.4274-10.313 3.8569-3.3144-2.1054 4.127-3.0612 9.3883-1.7829 9.8144 0.4125 0.1375 0.73393 0.00893 0.71429-0.28571s0.59812-1.1696 1.3728-1.9443 3.1464-4.3793 5.2704-8.0103c4.1288-7.0581 5.9238-7.4316 2.3857-0.49636l-2.1237 4.1628 2.3153-0.72289c2.7687-0.86446 3.8211-2.2745 3.1001-4.1535-0.3147-0.8201 0.0277-1.2634 0.84252-1.0907 1.5396 0.32626 1.6854-3.3825 0.3622-9.2091-0.77913-3.4307-0.75565-3.4654 1.1866-1.75 3.9638 3.5008 5.246 2.3589 4.7724-4.25-0.23652-3.3-0.09667-6.0035 0.31077-6.0078 1.2737-0.01342 3.1343-4.94 2.1057-5.5757-0.52045-0.32166-0.67804-1.43-0.3502-2.4629s0.10532-2.7951-0.4945-3.9158c-0.93127-1.7401-0.79328-2.0378 0.9446-2.0378 1.1194 0 2.0352 0.45 2.0352 1s0.43886 1 0.97525 1c0.63366 0 0.63366-0.89843 0-2.5651-1.3442-3.5356-1.2277-4.4349 0.57465-4.4349 1.255 0 1.4928-1.0943 1.25-5.75-0.26251-5.0332-0.57135-5.7886-2.4773-6.06-2.2877-0.32575-5.434-3.19-3.5041-3.19 0.58488 0 1.3415 0.45 1.6815 1 0.95901 1.5517 3.5 1.178 3.5-0.5147 0-0.83308-1.3838-2.3562-3.0752-3.3848s-3.7419-2.822-4.5567-3.9853c-2.0413-2.9144-3.514-2.6707-8.3681 1.3848-2.3041 1.925-4.4414 3.5-4.7496 3.5-1.1402 0 3.2277-4.1324 6.5161-6.1647l3.3981-2.1001 4.9148 2.302c5.4596 2.5571 7.6859 2.1153 3.2574-0.64646-1.5602-0.97301-4.7722-3.3079-7.1378-5.1887-4.144-3.2947-4.3722-3.3552-6.25-1.6558-1.0719 0.97008-1.949 1.4392-1.949 1.0424 0-1.1812-11.105 7.9176-16.621 13.619-2.8165 2.9109-5.3619 6.305-5.6564 7.5425s-0.40338 2.25-0.24202 2.25 5.0386-4.6125 10.838-10.25c10.41-10.119 17.251-15.398 16.114-12.435-0.29837 0.77752-1.6602 1.923-3.0263 2.5454-3.5599 1.622-11.711 9.4676-18.663 17.964-4.6518 5.685-5.7231 7.5878-4.7852 8.5 0.93421 0.90863 3.152-0.86671 9.7748-7.8247 4.7115-4.95 7.7116-7.875 6.6669-6.5s-2.1793 2.725-2.5214 3-2.7047 2.9483-5.2504 5.9407c-3.3405 3.9267-4.2806 5.6617-3.3781 6.2347 2.015 1.2794 2.4262 1.0546 6.9454-3.7982 5.9305-6.3682 15.666-15.712 17.366-16.668 0.77342-0.43482-2.8625 3.5411-8.0799 8.8353s-9.7482 10.67-10.068 11.946c-0.62249 2.4802-4.0637 4.0572-4.6982 2.153-0.44514-1.336-24.16-1.5289-37.715-0.30672-8.2938 0.7478-19.471 3.2716-25.5 5.7581-1.65 0.68046-3.225 1.2801-3.5 1.3326s-1.9515 0.70271-3.7256 1.445c-2.7282 1.1415-3.0698 1.6409-2.2148 3.2384 0.78348 1.464 0.67133 1.8888-0.49867 1.8888-0.83022 0-2.1496-1.2375-2.932-2.75s-4.0564-5.2863-7.2757-8.3862c-8.9251-8.5943-13.118-13.254-10.853-12.062 1.1 0.57907 4.6859 3.7855 7.9687 7.1254s6.3203 6.0726 6.75 6.0726c2.4022 0-0.01042-4.634-5.7386-11.022-3.586-3.9992-6.3389-7.4523-6.1176-7.6735 0.44762-0.44762 11.944 11.334 12.471 12.781 0.18334 0.5034 0.74584 0.91527 1.25 0.91527 2.0255 0 0.66169-2.8198-4.2853-8.8604-3.2623-3.9835-5.2199-7.3377-5.25-8.9958-0.03498-1.9257-0.59127-2.6716-2.048-2.7458l-4.75-0.25c-3.5061-0.18877-3.818-3.1481-0.33179-3.1481 3.5464 0 5.5818-1.0066 5.5818-2.7604 0-2.152 22.614-24.251 24.756-24.192 1.1253 0.03103-1.2242 2.8186-6.6193 7.8536-7.175 6.6962-8.0715 7.8819-6.3079 8.3431 2.4318 0.63592 3.1716 0.07336 3.1716-2.4115 0-1.1481 0.72548-1.8333 1.941-1.8333 1.0675 0 2.2191-0.45 2.559-1s1.4915-1 2.559-1 1.941-0.42179 1.941-0.93732c0-1.4043 7.9188-1.0209 8.7664 0.42444 1.5443 2.6333 4.915 2.6518 8.0141 0.04413 1.6545-1.3922 3.4121-2.5312 3.9057-2.5312s2.8848-2.025 5.3138-4.5c4.3944-4.4776 4.4894-5.932 0.19083-2.9211-5.1459 3.6043-12.832 3.3842-22.093-0.63271-4.6424-2.0137-0.65601-2.8057 6.2513-1.242 5.8506 1.3245 7.4411 1.3552 10.909 0.21063 2.233-0.73694 4.8114-2.1465 5.7298-3.1323 1.6048-1.7226 1.8845-1.7186 7.1781 0.10267 3.0295 1.0423 6.9091 2.6196 8.6214 3.505s3.998 1.6099 5.0795 1.6099 2.1163 0.35871 2.2997 0.79713c0.7476 1.7878 16.374 7.9958 17.441 6.9289 0.90297-0.90297-1.7802-12.608-3.3484-14.607-1.059-1.3498-1.1031-1.1507-0.26475 1.1957 1.0257 2.8708 1.3721 7.6849 0.55288 7.6849-2.1111 0-5.6328-2.8073-6.4453-5.1378-1.0394-2.9817-2.907-3.657-4.8208-1.7432-0.8253 0.8253-1.7167-0.02766-3.3964-3.25-1.5057-2.8886-2.3984-3.8108-2.6346-2.7216-0.55131 2.5427-4.0453 2.983-5.6372 0.71031-0.75468-1.0774-2.4388-2.0815-3.7425-2.2313-5.6218-0.64585-8.1116-1.9681-9.4362-5.0111-1.1639-2.6741-1.3615-2.7966-1.3951-0.86526-0.07633 4.3879-1.7598 2.1502-3.885-5.1637-1.1848-4.0775-2.1208-8.915-2.08-10.75l0.07417-3.3363 1.9403 4 1.9403 4-0.46326-4c-0.45427-3.9224 1.7925-8.5 4.172-8.5 0.50439 0 2.0073 2.3625 3.3397 5.25 2.1281 4.6117 2.7874 5.2534 5.4226 5.2781 2.5804 0.02419 3.3935 0.75853 5.8135 5.25 1.5474 2.872 3.2208 5.2219 3.7186 5.2219s0.64613-0.675 0.32955-1.5c-0.85959-2.24 1.4012-1.8116 2.6384 0.5 1.3922 2.6012 3 2.562 3-0.07332 0-3.22 3.1447-1.9517 4.4115 1.7792 1.4506 4.2723 3.5885 6.4731 3.5885 3.6941 0-1.1-0.52525-2.5252-1.1672-3.1672-1.7647-1.7647 1.7862-2.7939 3.819-1.1068 0.89446 0.74234 2.6301 1.2182 3.8569 1.0574 1.7844-0.23384 2.5551 0.51875 3.8529 3.7622 1.2513 3.1272 2.1592 4.0545 3.9699 4.0545 1.5718 0 2.7484 0.87972 3.5604 2.6619 1.0969 2.4075 1.3614 2.5134 2.7671 1.1077s1.8548-1.3972 4.6977 0.08806c1.7289 0.90327 3.278 1.9335 3.4424 2.2894s1.7395 2.18 3.5 4.0535 3.7091 4.2823 4.3301 5.3529c0.94542 1.6299 1.2388 0.80783 1.8035-5.0535 1.1431-11.865 1.2964-11.482 1.3995 3.5 0.11137 16.181 0.7568 22.8 2.4186 24.802 0.67663 0.81529 0.74994 1.6174 0.18502 2.0242-1.3527 0.97403-0.23338 33.778 1.2014 35.212 1.9895 1.988 2.1885-0.21214 1.3148-14.538-1.068-17.513-1.2084-55.089-0.20195-54.085 0.4125 0.41185 0.99782 15.245 1.3007 32.963 0.49193 28.776 0.74091 32.476 2.3326 34.668 1.726 2.3766 1.7601 1.913 1.0857-14.774-0.38293-9.4753-0.31952-23.65 0.14092-31.5l0.83716-14.272 0.67499 25.684c0.69733 26.535 1.9257 37.866 4.4785 41.311 1.2714 1.7158 1.6158 1.7858 2.4605 0.5 0.54022-0.82232 0.75434-3.2951 0.47583-5.4951-1.0641-8.4052-1.7388-68.041-0.79719-70.457 0.66075-1.6956 1.1844 7.7194 1.6898 30.382 0.40282 18.061 1.1174 33.792 1.588 34.957 0.69082 1.7102 0.86778 1.7811 0.91896 0.36806 0.07304-2.0164 1.6618-2.3492 2.3869-0.5 0.26958 0.6875 0.64458-13.756 0.83333-32.097s0.01257-33.866-0.39151-34.5c-0.53625-0.84141-0.73882-0.81515-0.75 0.09723-0.00842 0.6875-0.47687 1.25-1.041 1.25-0.56595 0-0.27106-1.4567 0.65792-3.25 2.0054-3.8711 2.6874-8.4344 1.3813-9.2416-0.58087-0.359-0.57151-1.5409 0.02463-3.1089 1.1987-3.1528 1.2201-8.4431 0.04178-10.304-0.6652-1.0507-1.5436-0.11378-3.4847 3.7168-2.0189 3.9842-2.6268 6.7391-2.7373 12.405l-0.14198 7.2832-0.72227-7c-0.39725-3.85-0.38904-7.9 0.01826-9 1.1483-3.1013 4.7544-17.99 6.903-28.5 3.4822-17.034 5.2313-24 6.0264-24 0.42965 0 0.58338 1.2375 0.34162 2.75-1.0684 6.6845-4.43 22.679-4.9399 23.504-0.74508 1.2056-3.2731 11.84-3.2678 13.746 0.0061 2.1666 2.9928-4.182 6.5863-14 3.2729-8.942 4.8259-15.664 6.4531-27.928 0.54203-4.0856 1.3992-8.1356 1.9049-9 1.5791-2.6991 1.095 6.4815-1.0171 19.288-1.5252 9.248-1.7025 12.331-0.80534 14 1.1178 2.0796 1.1746 2.0552 1.9972-0.85947 0.83451-2.9568 2.1954-11.25 3.774-23 0.44337-3.3 1.116-6.7512 1.4948-7.6692 0.39888-0.96687-0.07242-2.8603-1.1201-4.5-1.5307-2.3956-1.5553-2.6306-0.16009-1.5281 2.8206 2.2286 3.2422-1.9545 0.64927-6.4412l-2.2316-3.8614 3.0869 3.2351c1.6978 1.7793 3.3929 4.0293 3.7668 5 0.64251 1.6677 0.73699 1.6633 1.7156-0.08022 0.80659-1.437 0.34814-3.2065-2.0726-8-1.7096-3.3852-2.3184-5.0543-1.3529-3.7092s2.5279 3.3701 3.4721 4.5c1.6976 2.0314 1.7171 2.0207 1.75-0.95368 0.0183-1.6544-1.1143-5.2544-2.5169-8-2.6902-5.2661-1.2997-4.0208 3.9076 3.4996 4.7791 6.9021 4.1068 3.719-1.2749-6.0361-5.199-9.424-6.5743-13.42-3.0825-8.9556 1.0755 1.375 1.9655 2.7971 1.9778 3.1603 0.03382 1.0041 5.3207 8.8746 5.7039 8.4914 0.41107-0.41107-6.0925-12.987-8.5636-16.56-0.98594-1.4254-2.0654-3.3497-2.3988-4.2762-0.99554-2.7664-4.1507-3.9516-6.312-2.3712-1.7092 1.2498-1.6141 1.3268 1.1119 0.90042 4.3334-0.67787 1.1345 1.0437-5.019 2.7011-2.75 0.7407-7.6015 2.8944-10.781 4.7859-5.6859 3.3825-8.2257 3.6889-5.7389 0.69245 1.0862-1.3087 0.83507-1.5242-1.7765-1.5242-1.6728 0-4.3988 0.77905-6.0579 1.7312-3.6567 2.0987-5.5324 0.82346-2.3356-1.5879 3.516-2.6521 1.3374-3.3938-2.7134-0.92369-2.7169 1.6567-3.2609 1.7758-2.2242 0.48675 1.2259-1.5242 1.0905-1.7064-1.269-1.7064-2.3219 0-2.5652-0.30406-2.0108-2.513 0.61395-2.4462-0.89068-5.487-2.7151-5.487-0.48266 0-0.88445 1.0125-0.89287 2.25-0.02049 3.0104-1.4905 5.1735-2.9167 4.292-0.63559-0.39282-1.6984-0.2966-2.3618 0.21381s-4.5812 2.0116-8.7062 3.3361c-9.8345 3.1576-25.724 3.3726-29.017 0.39258-2.0188-1.827-2.194-1.8269-7.5827 0.00474-3.0338 1.0312-6.2775 2.476-7.2082 3.2105s0.78292 0.39083 3.8079-0.76382c7.7977-2.9764 9-3.2827 9-2.2931 0 0.97086-2.062 2.3891-9.5 6.5344-5.5984 3.12-5.6037 3.5997-0.01404 1.2642 4.5891-1.9174 5.8358-1.1763 1.6567 0.98482-1.6738 0.86554-3.4952 2.3612-4.0477 3.3237-0.95662 1.6667-1.1533 1.6667-4.1307 2e-5 -1.7195-0.9625-3.9633-1.75-4.9862-1.75s-2.1141-0.41126-2.4248-0.91391-3.7352-2.1578-7.61-3.678c-6.7799-2.66-10.79-5.3728-5.8184-3.9359 6.2919 1.8185 6.4717 1.738 3.1252-1.3982-3.721-3.4872-4.1726-4.6381-1.1946-3.0443 3.7874 2.027 4.2676 0.40784 0.98714-3.3284-1.7874-2.0357-2.7797-3.7013-2.2052-3.7013s1.3212 0.44758 1.6593 0.99462 1.6021 1.5196 2.809 2.1613c1.5272 0.81194 1.0542-0.0994-1.5557-2.9975-4.6858-5.2032-4.766-6.0351-0.25-2.5906 4.9334 3.7628 4.3956 1.6759-0.69678-2.7042-3.8638-3.3234-4.1301-3.8508-3.093-6.1269 2.0719-4.5472 7.3615-9.7366 9.9248-9.7366 1.3353 0 2.6802-0.65787 2.9888-1.4619 0.51965-1.3542 2.9385-2.5762 6.2478-3.1563 0.75435-0.13224 2.6043-1.4215 4.111-2.865 2.1486-2.0585 3.3242-2.4778 5.4504-1.9442 2.2087 0.55435 3.3338 0.0767 6.0731-2.5783 1.92-1.861 3.9816-3.0211 4.8062-2.7046 0.79423 0.30478 1.9489 0.04931 2.5659-0.56771 0.82915-0.82915 1.4146-0.82915 2.2437 0 0.61702 0.61702 1.6965 0.90134 2.3988 0.63182s1.5876 0.0125 1.9672 0.6267c0.49999 0.80901 1.1 0.77663 2.1774-0.11752 1.192-0.9893 1.6743-0.94933 2.43 0.20144 0.8003 1.2187 1.1455 1.1712 2.284-0.3143 1.694-2.2103 3.6208-2.2609 3.6208-0.09501 0 1.54 0.12708 1.54 1.8287 0 2.2891-2.0716 3.2861-2.1179 2.5183-0.11699-0.45526 1.1864 0.23848 1.0491 3.0346-0.60066 1.9936-1.1763 3.8749-2.5434 4.1806-3.038s1.0058-0.89934 1.5558-0.89934 0.72189 0.45 0.38197 1c-0.97772 1.582 1.1204 1.1624 2.5-0.5 1.7714-2.1344 4-1.8558 4 0.5 0 2.2749 0.38131 2.4015 3.005 0.9973 1.279-0.68448 2.083-0.66381 2.5335 0.06514 0.43642 0.70614 1.2702 0.51563 2.4614-0.56244 1.1801-1.068 2.0272-1.2649 2.4561-0.57103 0.71068 1.1499-2.7621 6.1405-7.183 10.323-5.5344 5.2353-6.9379 8.2372-3.5231 7.5356 0.9625-0.19776 1.6282-1.0851 1.4794-1.9719-0.28169-1.6787 13.355-14.784 15.404-14.804 0.62335-0.00609 1.3687 0.88893 1.6564 1.9889s1.2401 2 2.1166 2 1.5936 0.41968 1.5936 0.93261 0.96134 1.2377 2.1363 1.6106 4.1344 2.2032 6.5766 4.0674 5.3058 3.3894 6.3637 3.3894 1.9234 0.34767 1.9234 0.7726c0 0.65232 1.7967 1.7381 8.4045 5.0791 0.49748 0.25153 0.58342-0.0622 0.19098-0.69718-0.88647-1.4344 0.89844-1.4957 3.4702-0.11933 1.2844 0.68737 1.9343 0.69605 1.9343 0.02586 0-0.55514-3.2625-2.8329-7.25-5.0616s-8.8756-5.0529-10.862-6.2759-6.8243-4.1874-10.75-6.5876c-8.7939-5.3766-9.4394-6.5777-0.8876-1.6517 10.177 5.862 25.598 13.516 27.232 13.516 3.442 0 1.3336-3.6-3.7328-6.3735-7.2376-3.9621-19.72-12.001-19.736-12.71-0.00711-0.32076 5.1328 2.0462 11.422 5.2598 11.452 5.8516 14.37 6.2268 11.237 1.4448-1.2894-1.9679-11.524-8.2848-29.877-18.44-2.588-1.432-4.5487-2.7605-4.3571-2.9521s7.6448 3.3052 16.563 7.7707 16.376 7.9572 16.574 7.7593 0.0143-1.6872-0.40798-3.3095c-0.60298-2.3166-2.152-3.6695-7.2169-6.3032-7.2174-3.7529-24.949-14.193-24.949-14.689 0-0.17654 4.6258 2.0109 10.28 4.8609 19.349 9.7536 21.23 10.29 19.013 5.4252-0.60853-1.3356-4.4712-4.0772-9.4124-6.6806-9.395-4.95-19.23-11.046-18.692-11.585 0.19503-0.19503 5.7448 2.3158 12.333 5.5796s12.502 5.9361 13.142 5.9384c0.77873 0.00279 0.92366-0.90528 0.43823-2.7458-0.57019-2.1619-2.7924-3.9131-10.391-8.1887-5.3164-2.9913-9.5166-5.5883-9.3338-5.7711s4.1808 1.4372 8.8845 3.6c8.0036 3.6802 8.5846 3.8083 9.0582 1.9969 0.38377-1.4675-0.398-2.3967-3.2336-3.8433-4.2798-2.1834-16.086-9.903-16.086-10.518 0-0.22537 3.5442 1.3642 7.876 3.5323 8.9873 4.4983 10.693 4.8745 9.1665 2.0214-0.56535-1.0564-5.0724-4.2352-10.016-7.064-7.8128-4.4709-11.319-7.0153-9.6672-7.0153 0.26264 0 3.7472 1.567 7.7435 3.4821s7.4571 3.2911 7.6906 3.0576c0.81915-0.81916-3.8673-6.4283-5.9135-7.0778-2.7641-0.87728-11.119-6.5562-10.523-7.1524 0.25936-0.25936 1.3805 0.0149 2.4915 0.60946 2.9894 1.5999 3.9248 1.311 1.4248-0.44-1.7022-1.1922-12.244-3.2541-17.63-3.4481-0.47134-0.01699-0.62313-0.6403-0.3373-1.3852 0.40667-1.0598-1.6903-1.4967-9.643-2.009-5.5895-0.36011-11.343-0.91715-12.785-1.2379-2.4899-0.55371-2.6161-0.38927-2.5 3.259 0.10207 3.2081-0.20579 3.8424-1.8656 3.8439-1.606 0.00142-2.117 0.90422-2.6599 4.6997-0.79446 5.554-1.4385 6.7985-3.5182 6.7985-1.0655 0-1.337-0.54543-0.87095-1.75 2.1848-5.6473 0.58221-15.219-3.3331-19.908-2.7908-3.3424-11.834-8.5201-14.361-8.2228-1.248 0.14681-3.7931-0.53823-5.6558-1.5223l-3.3867-1.7892 2.2954 3.3464c1.2625 1.8405 3.5347 4.6964 5.0494 6.3464 4.4048 4.7982 7.12 10.808 6.1128 13.531-0.82973 2.243-0.88571 2.2112-1.4981-0.85054-1.0461-5.2305-2.3327-3.6102-2.4374 3.0694-0.16333 10.422-5.4493 20.107-14.171 25.966l-4.5774 3.0748 4.1673-4.3956c4.6208-4.8739 9.8191-14.462 10.835-19.984 0.56569-3.076-1.4079-10.912-2.7484-10.912-0.19163 0-0.16454 2.8877 0.0602 6.4172 0.49892 7.8354-2.2705 14.676-8.7381 21.583l-4.2137 4.5 3.1735-4.8322c3.8808-5.909 6.9644-14.399 6.9644-19.175 0-3.9516-2.1438-9.8456-3.9977-10.991-0.93122-0.57552-0.9371-0.24814-0.02612 1.454 0.64663 1.2082 1.2135 4.975 1.2597 8.3707 0.15991 11.749-6.4719 19.327-20.236 23.124-1.375 0.37929 0.425-0.80649 4-2.6351 4.9788-2.5466 7.283-4.4938 9.8458-8.3198 3.0926-4.6172 3.3181-5.488 2.9806-11.51-0.29626-5.2856-0.90258-7.219-3.2144-10.25-1.5671-2.0546-3.3294-3.7356-3.9162-3.7356s-2.1303-0.99903-3.43-2.2201c-3.2242-3.029-13.706-3.6563-21.895-1.3103-14.643 4.1946-33.595 18.251-38.634 28.654-3.528 7.2846-21.575 19.12-34.149 22.395-10.89 2.8364-17.324 1.3869-22.968-5.174l-2.2314-2.5942-5.1288 4.9956c-5.7682 5.6184-9.5684 12.699-9.0841 16.926 0.32327 2.8219 0.33444 2.8163 6.0739-3.0571 3.1625-3.2364 5.75-5.2273 5.75-4.4243s-1.1054 2.4984-2.4564 3.7677c-3.3978 3.192-11.544 15.503-11.544 17.446 0 2.8927 1.4371 1.6499 6.8479-5.9218 2.9413-4.116 5.7673-7.4837 6.2799-7.4837 0.80343 0-2.5526 5.5785-4.2112 7-2.413 2.0681-9.176 15.645-9.5684 19.209l-0.47249 4.2909 3.1974-3.5 3.1974-3.5-3.1913 5.7197c-2.5805 4.6249-3.1327 6.6346-2.8853 10.5l0.30603 4.7803 7.348-10.752c4.0414-5.9134 7.7539-11.002 8.25-11.309 1.7389-1.0747 0.88149 1.2691-1.1304 3.0898-1.1178 1.0116-4.9428 6.4047-8.5 11.985-4.9393 7.748-6.4677 11.013-6.4677 13.816 0 4.8457 1.6188 4.6745 3.1182-0.32976 0.65913-2.2 1.6038-4 2.0992-4s0.62262 0.45 0.2827 1c-0.87975 1.4235 0.85684 1.24 2.3664-0.25 0.69652-0.6875-0.3323 1.4133-2.2863 4.6684s-3.8518 7.5301-4.2173 9.5-1.2255 4.4816-1.911 5.5816c-1.4406 2.3116-4.7613 13.524-4.1781 14.107 0.21568 0.21567 1.8739-1.4517 3.6849-3.7053s5.9532-6.9414 9.2047-10.417 5.4921-6.5793 4.979-6.8964-1.2198 0.17111-1.5704 1.0849c-0.43828 1.1422-0.96018 1.3389-1.6697 0.62932-0.64354-0.64354-0.77082-3.3421-0.33805-7.1672 0.67338-5.9519 1.8936-7.9567 2.6691-4.3851 0.20898 0.9625 0.71797-0.37701 1.1311-2.9767 0.93798-5.9024 2.6052-7.176 2.7258-2.0823l0.09019 3.809 0.97096-3.5c0.53403-1.925 1.4209-5.2251 1.9709-7.3336 0.71845-2.7545 1.4156-3.6741 2.4767-3.2669 0.81224 0.31169 1.7319-0.09813 2.0437-0.9107 0.98944-2.5784 2.3111-0.54133 1.8165 2.7999-0.33602 2.2701 0.03991 1.7459 1.2828-1.7888 0.96695-2.75 2.2081-4.775 2.7581-4.5s0.87982 1.175 0.73294 2c-1.5064 8.4611-1.4498 8.7153 0.83568 3.75 2.1799-4.736 3.9314-6.1546 3.9314-3.1843 0 0.86116-0.47845 2.4597-1.0632 3.5524s-0.90603 2.7506-0.7139 3.6843c0.21366 1.0383 1.3819-0.53557 3.0079-4.0524 2.8744-6.2168 5.386-7.8346 4.2692-2.75-0.73792 3.3598 0.00185 3.7608 2.6 1.4095 1.5207-1.3762 2.2723-1.4155 5.5787-0.29142 2.1017 0.71448 4.3524 1.6843 5.0015 2.1551 0.76097 0.5519 1.5728 0.12255 2.2852-1.2086 1.7308-3.2341 4.0177-2.5795 4.1409 1.1854l0.10638 3.25 1.0867-2.75c1.0114-2.5595 1.4889-2.75 6.8936-2.75 5.3488 0 5.8087 0.17753 5.8292 2.25l0.02223 2.25 1.8406-2.3938c1.9046-2.4771 4.4578-2.1632 3.4643 0.42585-0.62892 1.6389 1.1833 2.0332 2.1507 0.46797 0.33992-0.55 1.9112-1 3.4916-1 2.0538 0 3.0665 0.60766 3.5497 2.1301 0.65897 2.0762 0.73246 2.0594 2.9057-0.66612 2.752-3.4513 3.6531-2.3269 3.707 4.6257 0.02895 3.7376 0.54667 5.5298 1.9428 6.7251 1.0468 0.89631 1.9033 2.2205 1.9033 2.9426 0 1.0149 0.46664 1.0632 2.0554 0.21291 1.1305-0.60502 2.5368-0.93959 3.1251-0.74348s-0.78663 1.1936-3.0554 2.2167-4.1251 2.2936-4.1251 2.8233 1.125 0.22601 2.5-0.67492 2.5574-1.5152 2.6276-1.365c1.0633 2.2749 0.26451 5.0537-1.6634 5.7867-1.2485 0.47466-2.6125 1.4172-3.0311 2.0946-0.74648 1.2078-0.51512 1.1644 4.3169-0.81118 1.7758-0.72603 1.547 1.0265-0.5 3.8295-1.9512 2.6718-2.824 4.0773-7.167 11.541-3.6469 6.2672-6.0538 8.1559-3.1566 2.4769 1.1405-2.2356 2.0737-4.3076 2.0737-4.6045 0-1.2473-2.0733-0.38427-4.1085 1.7102-1.2562 1.2927-1.9693 1.6118-1.6762 0.75 1.6316-4.7964 1.8256-6 0.96712-6-1.3144 0-3.5214 3.6069-5.6513 9.2358-1.7137 4.529-4.0514 7.5772-5.0473 6.5813-0.25734-0.25734 1.0488-4.259 2.9026-8.8925 5.2736-13.182 5.2644-13.126 2.0442-12.318-1.8809 0.47208-2.5162 0.34075-2.0445-0.42257 1.1342-1.8352-6.7566-5.1842-12.215-5.1842h-4.9082l-0.51796 3.8616c-0.73469 5.4776-3.331 8.8996-8.5592 11.281-7.4646 3.4005-10.868 2.9735-15.199-1.9074l-3.7003-4.1697-2.0032 2.217c-1.1018 1.2194-2.4807 4.1777-3.0642 6.5741l-1.061 4.3571 14.671-0.40829 14.671-0.4083 9.5-4.8081c5.225-2.6445 10.328-5.5402 11.34-6.4348 1.7608-1.557 1.8076-1.4559 1.0931 2.3594-1.2174 6.5006-3.2563 10.486-5.3643 10.486-1.0476 0-2.6803 0.29759-3.6281 0.66131-1.5116 0.58005-1.6365 0.19856-1.0168-3.105 0.89362-4.7634-1.4128-4.5362-2.6561 0.26172-0.80833 3.1194-3.7674 4.5324-3.7674 1.799 0-1.1499-0.71644-1.1204-4.25 0.17524-7.3062 2.6788-41.616 1.8514-43.407-1.0468-0.3274-0.52975 2.0491-3.3678 5.281-6.3067s10.045-9.19 15.139-13.891 9.7072-8.5476 10.25-8.5476 0.9869-0.5051 0.9869-1.1224c0-0.7687-0.39395-0.80488-1.25-0.11482-1.4548 1.1727-10.659 1.1103-12.515-0.08494-1.8438-1.187-9.235-1.7011-9.235-0.64225 0 0.49592-0.74882 0.61433-1.664 0.26313-1.002-0.38449-1.4145-0.23471-1.0368 0.37643 0.34501 0.55824-4.2111 5.9437-10.125 11.968-12.968 13.21-19.64 22.851-20.526 29.659-0.73805 5.673 0.0639 5.4756 4.4796-1.1026 5.5548-8.2753 15.348-21.157 16.1-21.179 0.40033-0.01126-1.996 3.6016-5.3251 8.0285-10.111 13.445-16.054 23.815-15.679 27.359l0.32711 3.0925 1.9745-3.2437c2.9334-4.819 3.7515-3.9435 0.92857 0.99368-2.7064 4.7335-2.9686 6.9757-1.3562 11.601 1.1574 3.3202 3.4692 4.511 2.4356 1.2547-0.41808-1.3173-0.13971-1.8505 0.91356-1.75 0.85949 0.08201 3.6852-3.1002 6.5314-7.3555 2.7591-4.125 5.0177-6.9982 5.019-6.3849s-0.95196 2.3286-2.1186 3.8117-3.3607 4.9633-4.8758 7.7338c-2.3679 4.3301-2.6009 5.4446-1.6596 7.9383 0.60225 1.5956 1.4274 2.901 1.8336 2.901s2.8951-2.9158 5.5308-6.4796 5.2081-6.4888 5.7165-6.5 0.01856 0.99206-1.0885 2.2296c-3.5278 3.9435-8.3369 11.791-8.304 13.55 0.0175 0.93493 0.67843 2.5541 1.4688 3.5982 1.216 1.6065 1.6825 1.6946 3.0341 0.57284 0.87846-0.72906 2.2757-2.6376 3.105-4.2413s1.7264-2.6972 1.9936-2.43-0.7691 2.7334-2.3029 5.4805c-2.5458 4.5598-2.6669 5.2222-1.3906 7.6071 1.7494 3.2687 2.7914 3.2963 4.2421 0.1124 1.4547-3.1926 2.0446-3.1444 3.5654 0.29144 0.67958 1.5353 2.673 4.746 4.4298 7.1348l3.1942 4.3434 2.3656-2.7502c2.9966-3.4838 4.2142-2.5441 1.3771 1.0628-2.4937 3.1702-2.6625 5.3198-0.6265 7.9767 1.4554 1.8992 1.5305 1.8872 3.4778-0.55887 2.2782-2.8617 2.6266-1.6971 0.59181 1.9785-1.1689 2.1115-1.1598 2.889 0.06111 5.25 0.78825 1.5243 1.0198 2.7715 0.51449 2.7715s-1.2265-0.7875-1.6028-1.75c-0.58902-1.5068-0.88586-1.3686-2.1358 0.99399-1.2779 2.4154-1.2672 3.1007 0.0889 5.7231 1.2947 2.5037 1.3115 2.8912 0.10548 2.4284-1.754-0.67308-3.8215 2.8335-2.9736 5.0433 0.4392 1.1445 0.17176 1.4165-0.9643 0.98053s-2.8117 1.313-6.1113 6.4138c-4.9182 7.6028-5.3286 8.9267-3.0393 9.8052 0.825 0.31659 1.5 1.454 1.5 2.5276 0 3.3396 1.6399 1.187 7.4295-9.7516 5.8996-11.147 8.5749-15.331 9.8349-15.383 0.85935-0.03532-4.7918 11.645-6.7584 13.969-0.69819 0.825-1.5914 2.5547-1.9849 3.8439s-2.0217 4.2794-3.6183 6.645c-2.1608 3.2018-2.9028 5.4782-2.9028 8.9061 0 2.5327 0.40986 4.605 0.91079 4.605s1.9328-2.1375 3.1818-4.75c4.1619-8.7048 16.632-27.859 17.543-26.947 0.19635 0.19634-2.4154 4.5653-5.8039 9.7089-7.5498 11.46-13.855 23.543-13.764 26.377 0.06641 2.0721 0.0881 2.0695 1.1528-0.13814 1.551-3.216 2.7766-2.7778 2.7971 1 0.01513 2.793 0.87116 1.6569 6.0876-8.079 3.3385-6.231 6.2467-11.152 6.4626-10.937s-2.3671 5.8602-5.7401 12.543c-4.4973 8.9103-5.854 12.493-5.0878 13.436 0.57466 0.70739 1.2106 2.1794 1.4133 3.2712 0.24551 1.3228 2.3379-1.9442 6.2717-9.7924 3.2468-6.4776 6.3378-12.046 6.8689-12.374s0.78195-0.19666 0.55744 0.29239-2.5329 5.3183-5.1297 10.732c-4.1134 8.5748-4.7215 10.668-4.7215 16.25 0 3.5242 0.38284 6.4076 0.85076 6.4076s2.5917-3.8662 4.7195-8.5916 4.0421-8.0714 4.254-7.4356-1.6038 5.2895-4.035 10.342c-4.2092 8.747-4.368 9.397-3.3248 13.612 1.4574 5.8895 3.5355 6.5693 3.5355 1.1567 0-3.9275 1.84-5.9222 2.1523-2.3333 0.08378 0.9625 0.25687 2.2 0.38465 2.75s0.28425 2.6875 0.34769 4.75c0.09366 3.0449 0.49141 3.75 2.1154 3.75 1.4392 0 2-0.66667 2-2.3776 0-1.3076 0.60819-2.8823 1.3515-3.4992 1.1102-0.92143 1.4556 0.35099 1.9345 7.1276 0.80685 11.417 2.0719 14.097 2.714 5.7492l0.5-6.5 1.75 3.2003c0.9625 1.7602 1.75 5.2742 1.75 7.809 0 2.8178 0.38859 4.3685 1 3.9906 0.55-0.33992 1-2.3915 1-4.559s0.3375-3.9286 0.75-3.9134 1.875 1.5778 3.25 3.4725 2.8375 3.4573 3.25 3.4725 0.82697-1.885 0.92105-4.2225c0.26096-6.484 0.35002-7.1661 1.0926-8.3676 0.37907-0.61334-0.20018-1.92-1.2872-2.9038-1.8081-1.6363-2.7228-4.4787-1.4412-4.4787 0.29435 0 1.6444 0.72675 3 1.615 3.1941 2.0928 3.173 0.77062-0.03518-2.2026-2.7416-2.5408-3.2397-4.4124-1.1743-4.4124 1.9237 0 5.4178 4.0639 6.1983 7.209 0.36974 1.4899 1.3031 3.2325 2.0741 3.8724 1.8772 1.558 1.7826 3.9186-0.15713 3.9186-0.85746 0-1.307 0.40775-0.999 0.90612s1.4307 0.67842 2.495 0.40012c1.5894-0.41564 2.0639 0.18156 2.6569 3.3439 0.39706 2.1174 1.5509 5.3261 2.564 7.1303 1.1558 2.0582 1.8683 5.4115 1.9124 9 0.07847 6.3863 1.3053 10.762 2.3048 8.2196 0.32435-0.825 0.71015-5.55 0.85733-10.5 0.21451-7.2144 0.5652-9 1.7676-9 1.1852 0 1.5 1.4169 1.5 6.7518 0 6.5177 0.66023 8.379 1.8616 5.2482 0.93955-2.4484 3.8125-1.8446 3.4512 0.72535-0.20945 1.4898 0.27291 2.3418 1.4593 2.5776 1.66 0.32996 3.4743-1.319 8.5851-7.8029 2.8667-3.637 3.6205-1.8569 1.2125 2.8633-2.199 4.3104-2.7116 8.1367-1.0901 8.1367 0.53882 0 1.8916-1.7875 3.0061-3.9722 3.2892-6.4474 10.014-13.331 10.014-10.251 0 0.4273-1.6875 3.0367-3.75 5.7986-6.1257 8.2029-6.8352 9.9822-4.7942 12.023 1.453 1.453 1.867 1.5026 2.6197 0.31354 0.49166-0.7767 0.90083-2.1773 0.90925-3.1125s0.61826-2.0602 1.3552-2.5 2.6242-3.013 4.1938-5.7183c3.7686-6.4949 4.467-4.0244 0.82749 2.927-2.2326 4.2642-2.5763 5.6765-1.6153 6.6375 0.67142 0.67142 1.3751 1.0258 1.5637 0.78743 1.749-2.2102 6.6904-10.208 6.6904-10.828 0-1.0931 3.9007-4.5374 4.4812-3.957 0.25794 0.25795-1.3316 3.5502-3.5323 7.3162-3.74 6.4001-3.9264 7.082-2.8543 10.442 1.7575 5.5076 2.9054 6.019 2.9054 1.2943 0-3.7335 0.2592-4.2 2.3336-4.2 1.8179 0 2.9782-1.2338 5.25-5.5822 1.604-3.0702 3.4788-6.0503 4.1664-6.6224 2.4463-2.0359 1.2772 1.3679-3.2112 9.3493-4.4318 7.8806-4.4482 7.9459-2.5 9.8941 1.0786 1.0786 1.9612 2.6627 1.9612 3.5202s0.45 1.2809 1 0.94098 1-1.9149 1-3.5 0.48169-3.1797 1.0704-3.5435 2.4514-3.5526 4.1392-7.086 3.5326-6.7111 4.0995-7.0615c0.66588-0.41153 0.74831 0.04049 0.23288 1.277-4.416 10.594-4.6991 11.747-3.1046 12.639 0.85939 0.48094 1.5625 1.5271 1.5625 2.3247 0 3.3283 1.8375 0.86021 6.8234-9.165 2.9036-5.8384 5.5216-10.373 5.8176-10.077s-1.5289 4.874-4.0556 10.173c-3.5973 7.5447-4.376 10.042-3.5897 11.511 0.5523 1.032 1.0828 2.9184 1.1789 4.1921s0.34686 0.40528 0.55727-1.9297c0.26497-2.9404 0.98839-4.5697 2.3533-5.3002zm-66.585-41.954c-0.33992-0.55-0.14148-1 0.44098-1s1.059 0.45 1.059 1-0.19844 1-0.44098 1-0.7191-0.45-1.059-1zm2.8316-6.8356c-3.3926-3.6635-6.0011-6.8282-5.7966-7.0328 0.65393-0.65394 13.398 11.318 13.432 12.618 0.05818 2.2288-1.3598 1.1915-7.6358-5.5856zm10.668 5.0156c0-0.451-1.6285-2.7225-3.6188-5.0478-4.9117-5.7383-3.7046-6.2916 1.4726-0.67498 4.0894 4.4365 5.1023 6.5428 3.1462 6.5428-0.55 0-1-0.369-1-0.82zm98.638-5.68c0.31659-0.825 1.2576-1.5 2.0911-1.5 1.2337 0 1.284 0.27889 0.27057 1.5-0.68469 0.825-1.6257 1.5-2.0911 1.5s-0.58715-0.675-0.27057-1.5zm-5.8842-4c1.3401-2.4778 8.0571-9.022 8.6509-8.4283 0.46546 0.46546-4.8105 6.4435-7.8797 8.9283-1.7167 1.3898-1.7733 1.353-0.77117-0.5zm-5.7542-3.4514c0-1.246 15.009-16.373 15.629-15.753 0.19755 0.19755-3.2382 4.0894-7.6349 8.6487s-7.9941 7.7561-7.9941 7.1043zm-117.67-10.299c-0.01228-1.7875-0.46887-5.275-1.0146-7.75l-0.9923-4.5-0.82878 5c-0.45582 2.75-0.8862 5.675-0.95639 6.5-0.07018 0.825-0.55689 1.5-1.0816 1.5s-0.80011-2.1375-0.61209-4.75c0.23176-3.2203-0.04501-4.75-0.85941-4.75-0.77935 0-1.0606-1.2046-0.80085-3.4298 0.22023-1.8864 0.08258-3.2334-0.3059-2.9933s-1.0242 3.8287-1.4127 7.9747c-0.69711 7.4393-0.73242 7.5146-2.6913 5.7433-1.7904-1.619-1.9166-2.5787-1.288-9.7928 0.38332-4.3989 1.3684-9.7989 2.189-12s2.4073-6.8372 3.5258-10.303 2.1965-6.1378 2.3954-5.9389c0.45402 0.45403-1.2223 15.369-2.1702 19.309-0.38779 1.6119-0.39648 2.6479-0.01931 2.3022s1.5841-4.3956 2.6821-9c2.5532-10.706 5.089-16.722 5.9791-14.184 0.53082 1.5133 0.89562 1.2883 2.2931-1.4142 2.0869-4.0356 5.4034-6.0564 6.263-3.8162 0.32568 0.84871 0.3179 2.3306-0.01729 3.2931-0.50804 1.4588-0.35944 1.427 0.89301-0.19113 0.82635-1.0676 1.5024-2.5036 1.5024-3.191s0.51046-1.5653 1.1344-1.9509c0.78579-0.48565 0.99265 0.26439 0.67319 2.441-0.61575 4.1954 0.93872 3.9936 2.7569-0.35795 2.1375-5.1157 3.6841-4.4564 2.9325 1.25-1.055 8.0099-1.618 10.25-2.5764 10.25-0.50629 0-0.92668 1.4625-0.93419 3.25-0.03072 7.3118-2.886 10.993-3.1024 4-0.0638-2.0625-0.32296-2.85-0.5759-1.75-1.8584 8.0819-2.4261 9.392-3.8354 8.8512-1.1311-0.43405-1.4958 0.32951-1.5724 3.2918-0.12949 5.0104-1.3071 8.9112-2.6112 8.6495-0.56862-0.11411-1.6028 2.4734-2.2981 5.75-1.3861 6.5317-2.6284 7.7946-2.6634 2.7075zm20.672-32.024c0-2.4157 0.43404-6.8298 0.96452-9.809s1.2282-7.1168 1.5505-9.1946 0.94697-3.5547 1.3882-3.282 1.656-0.15052 2.6995-0.94041c2.7847-2.1079 3.3973-1.8374 3.3973 1.5002 0 4.3028 1.4609 3.6971 3.015-1.25 0.73434-2.3375 2.1564-5.179 3.1601-6.3144s1.8565-3.3854 1.8952-5c0.08475-3.5398 1.7434-8.1128 1.8594-5.1265 0.13934 3.5864 2.0269 0.49875 2.6731-4.3726 0.36344-2.7397 1.0087-5.1964 1.4339-5.4591s0.53162 1.3223 0.23652 3.5224c-0.77548 5.7816 1.2187 5.0335 3.3311-1.2498 1.4728-4.3806 1.8587-4.8676 2.3304-2.941 0.63665 2.6004 1.9271 3.0158 3.1882 1.0264 0.60046-0.94726 0.85095-0.64584 0.86181 1.037 0.01287 1.9949 0.25401 2.1744 1.5153 1.1276 1.7933-1.4883 1.7817-1.7063 0.38867 7.3084-0.61122 3.9554-1.5343 7.4574-2.0512 7.7822-0.78888 0.49577-1.4464 3.2032-1.7685 7.2818-0.0379 0.47985-0.69208 0.35526-1.4538-0.27687-1.1086-0.92006-1.5343-0.5954-2.134 1.6276l-0.74917 2.7769-0.90381-3.2856c-1.1228-4.0818-2.8282-3.271-2.8282 1.3447 0 1.8925-0.45 3.441-1 3.441s-1-0.47656-1-1.059-0.45-0.7809-1-0.44098-1 2.149-1 4.0201c0 2.212-0.76558 4.1153-2.1886 5.441-3.1152 2.9023-4.1393 2.5351-3.3775-1.211 0.36352-1.7875 0.886-4.825 1.1611-6.75 0.74951-5.2453-1.2066-1.5116-2.0957 4-0.82459 5.112-3.3407 10-5.1476 10-0.66935 0-1.5026 0.9-1.8518 2-0.6514 2.0524-2.5 2.7918-2.5 1 0-0.55-0.45-1-1-1s-1 1.3234-1 2.941-0.45 3.2191-1 3.559c-0.60869 0.37619-1-1.1007-1-3.7742zm3.6623-6.9758c-0.27741-0.6875-0.50439-0.125-0.50439 1.25s0.22698 1.9375 0.50439 1.25 0.27741-1.8125 0-2.5zm133.34-6.691c0-1.0675 0.38499-2.1789 0.85554-2.4697s0.64309 0.58263 0.38343 1.941c-0.56402 2.9505-1.239 3.2385-1.239 0.52876zm-124.62-16.794c0.35053-2.3294 1.7299-7.5044 3.0653-11.5 2.0522-6.1403 2.4376-6.7397 2.4906-3.8726 0.03442 1.8657-0.87937 6.5907-2.0307 10.5-2.4894 8.453-4.4774 11.201-3.5252 4.8726zm126.19-8.1483c-0.35955-0.58177 0.03966-2.3986 0.88713-4.0375s1.5409-3.7269 1.5409-4.6402c0-1.3213-0.42203-1.1782-2.0662 0.70034-1.2764 1.4584-0.73123-0.12375 1.4263-4.1392 1.9682-3.6629 3.9914-9.3371 4.6354-13 1.8234-10.37 3.1661-15.018 4.1607-14.403 0.5088 0.31445 0.61382 1.5464 0.23337 2.7376s-1.0332 4.8658-1.4504 8.1658c-0.92878 7.3448-6.2574 27.218-7.6792 28.64-0.71231 0.71231-1.2377 0.70499-1.688-0.02353zm-150.56-9.3665c0.01239-1.8194 0.20082-1.963 0.98469-0.75 1.2529 1.9388 1.2529 3 0 3-0.55 0-0.99311-1.0125-0.98469-2.25zm2.7347-2.0818c-0.4125-1.0075-0.73632-3.0325-0.71959-4.5 0.02644-2.3198 0.16539-2.4363 1.064-0.89271 0.56845 0.97653 0.89227 3.0015 0.71959 4.5-0.26221 2.2754-0.43759 2.4226-1.064 0.89271zm3.5559-1.1709c-0.56608-1.0985-1.3378-3.3473-1.715-4.9973s-0.93766-3.8438-1.2455-4.8752c-1.276-4.2755 1.6164-0.256 3.16 4.3914 1.7526 5.2765 1.6168 9.0059-0.1995 5.4811zm140.69-1.1763c0-1.6518 2.4787-7.321 3.2009-7.321 1.0749 0 1.0068 1.1059-0.29872 4.8508-0.95625 2.7431-2.9022 4.3994-2.9022 2.4702zm-137.35-1.321c-0.26738-0.825-0.72686-2.625-1.0211-4s-1.0479-4.7743-1.6749-7.554c-1.0699-4.7435-0.97472-5.3272 1.5492-9.5 2.7281-4.5104 8.247-9.446 10.562-9.446 2.4822 0 1.8944 2.0303-0.95261 3.2905-1.5907 0.70412-4.1173 3.1314-5.6146 5.394-2.2911 3.462-2.6478 4.8897-2.2518 9.0114 0.51462 5.3557 4.2388 10.385 8.4775 11.449 1.2527 0.31442 2.2777 0.97288 2.2777 1.4633 0 1.432-4.362 1.0268-6.719-0.62414-1.9625-1.3746-2.2563-1.3513-3.1553 0.25-0.83049 1.4794-1.0701 1.5225-1.4774 0.26573zm70.801-2.8983c0.08892-0.88093 0.65544-2.7267 1.2589-4.1017 3.4579-7.8786 6.2921-15.306 6.2921-16.489 0-1.9446-4.7659-7.3384-7.9299-8.9746-1.4804-0.76556-4.1217-2.8546-5.8694-4.6422-3.3569-3.4335-5.8165-3.337-2.7007 0.10596 2.0682 2.2854 1.3236 3.9284-0.93203 2.0564-1.9554-1.6228-3.8079-0.3877-3.0413 2.0278 0.33992 1.071 0.13736 1.9158-0.45932 1.9158-0.58707 0-1.0674 0.675-1.0674 1.5s0.69018 1.5 1.5337 1.5 2.4833 1.6094 3.6438 3.5763c1.3663 2.3157 2.3667 3.161 2.8382 2.3982 0.88911-1.4386 3.9842 2.5942 3.9842 5.1913 0 3.8512-7.578 6.2008-12.134 3.7623-1.6272-0.87086-2.4429-0.63639-4.3484 1.25-5.0953 5.0442-9.8211 8.3314-12.253 8.5231-2.9017 0.2287-7.4293-1.8663-10.354-4.7908-1.0908-1.0908-2.3659-1.7468-2.8335-1.4578s-1.4063-0.14459-2.086-0.96353c-1.7802-2.145-3.4667-1.8369-4.932 0.90094-2.8257 5.2798-9.4634 5.8309-10.704 0.88864-0.85235-3.396 0.58578-5.5582 4.4798-6.7354 2.166-0.65474 3.1865-1.6018 3.2328-3 0.06435-1.9427 0.12108-1.9325 1.1528 0.2068 1.3036 2.7029 4.3621 3.1676 3.2906 0.5-1.657-4.1252-1.4881-4.4971 0.4541-1 2.207 3.9739 4.557 5.1156 3.6022 1.75-1.6654-5.8702-1.3901-5.9405 1.3886-0.35447 1.6814 3.38 3.7291 6.4034 4.5505 6.7186 1.9087 0.73243 1.9346 0.8823-0.99395-5.7397-3.351-7.5773-2.3237-7.154 1.5183 0.62557 3.1168 6.3111 5.5123 9.5401 6.411 8.6414 0.26924-0.26924-0.54204-2.5271-1.8028-5.0176s-2.5965-5.3933-2.9682-6.451c-0.63901-1.8183-0.58968-1.8141 0.90642 0.07708 0.87023 1.1 2.6789 4.1375 4.0193 6.75s3.1045 4.75 3.9202 4.75c2.0662 0 1.8692-1.3047-1.0738-7.1124-3.4722-6.852-2.4808-8.7028 1.1528-2.152 1.5973 2.8796 3.44 5.2421 4.0951 5.25 1.7537 0.02122 2.6286-1.8921 1.4995-3.2794-1.6898-2.0762-4.1319-8.7062-3.2069-8.7062 0.48487 0 1.1555 0.86289 1.4902 1.9175s1.536 3.0966 2.6696 4.5376c1.6315 2.0741 2.3523 2.3784 3.4588 1.46 1.8797-1.56 1.7995-2.0202-1.1385-6.5256l-2.5363-3.8896 2.4306 2.6829c1.3368 1.4756 2.6123 3.228 2.8344 3.8942 0.31578 0.94732 1.2106 0.94504 4.1057-0.01042 2.0361-0.67196 3.6876-1.5244 3.6701-1.8942-0.07926-1.6757-2.7275-3.9058-5.441-4.5818-2.9588-0.73712-2.9639-0.73079-1.0895 1.3405 1.0359 1.1446 1.5861 2.3784 1.2228 2.7416-0.77243 0.77242-0.51388 1.0341-4.5182-4.5728-3.462-4.8476-3.9567-6.6264-1.5904-5.7184 1.8365 0.70473 1.3424-0.29912-2.7198-5.5255-1.5577-2.0042-2.8322-3.9066-2.8322-4.2277 0-0.46847 7.6982 7.7258 8.7259 9.2882 0.15074 0.22916 0.49923 0.1915 0.77443-0.0837 0.44553-0.44553-6.8248-11.579-8.3802-12.833-0.34108-0.275-1.2725-1.4-2.0699-2.5s0.56968-0.0875 3.0378 2.25c4.1745 3.9535 6.837 5.556 5.419 3.2614-0.36096-0.58404 0.07991-0.72343 1.0774-0.34065 2.8513 1.0942 1.3029-1.1801-6.9016-10.137-9.3891-10.25-8.812-11.435 0.74691-1.5339 3.7169 3.85 6.9407 7 7.1641 7s0.40613-0.72998 0.40613-1.6222-3.6383-5.3497-8.0852-9.9056c-6.9979-7.1694-7.8199-8.3676-6.1121-8.9096 1.2502-0.3968 5.3115 0.90308 11.085 3.548 8.1912 3.7523 9.1121 4.4462 9.1121 6.8651 0 3.5832-0.91257 4.3044-3.4202 2.703-3.1424-2.0069-5.5798-2.7299-5.5798-1.6552 0 0.52841 1.6374 1.7518 3.6387 2.7186s3.5313 2.2079 3.4 2.7579-0.64369 0.8875-1.1387 0.75-0.9-0.08542-0.9 0.11574c0 0.7182 10.841 11.634 11.555 11.634 1.8415 0 10.245 7.4729 11.938 10.615 1.5806 2.935 1.717 4.1486 0.83703 7.4456-0.73258 2.7446-0.73355 3.939-0.00322 3.939 0.57649 0-0.24072 1.3453-1.816 2.9896-3.7057 3.8679-2.703 4.8852 1.4067 1.4271 4.9445-4.1605 4.9596-1.8859 0.02096 3.1524-5.3424 5.4501-9.7391 8.0138-9.4887 5.5326zm-7.949-14.102c0.33992-0.55 0.14148-1-0.44098-1s-1.059 0.45-1.059 1 0.19844 1 0.44098 1 0.7191-0.45 1.059-1zm-5.5-41.01c0-0.55565-3.4875-2.634-7.75-4.6184s-8.2-3.8524-8.75-4.151 0.125 0.71592 1.5 2.2544c2.3574 2.6376 11.019 7.3419 13.75 7.4677 0.6875 0.03169 1.25-0.39701 1.25-0.95266zm27 55.307c0-0.52147 1.1861-2.0391 2.6357-3.3724 2.3519-2.1633 2.5193-2.2001 1.5546-0.34207-1.2911 2.4866-4.1903 5.0566-4.1903 3.7145zm-6-1.1818c0-0.48674 1.125-1.6221 2.5-2.523 2.8967-1.898 3.3622-0.68226 0.67126 1.753-2.0283 1.8356-3.1713 2.1131-3.1713 0.77zm-66-38.909c0-0.52849 0.7269-1.5642 1.6153-2.3015 1.3975-1.1599 1.5661-1.0864 1.25 0.54469-0.37664 1.9436-2.8653 3.4695-2.8653 1.7568zm-102-3.5833c0-0.20765 0.7875-0.99515 1.75-1.75 1.5861-1.2439 1.6214-1.2085 0.37756 0.37756-1.3064 1.6658-2.1276 2.1955-2.1276 1.3724zm100-1.7544c0-1.8841 4.3528-8.3097 4.7737-7.047 0.21546 0.64636-0.58219 2.751-1.7725 4.6771-2.2706 3.6739-3.0012 4.2508-3.0012 2.3699zm-4-5.4169c0-1.1161 8.3863-12.398 8.8622-11.922 0.5669 0.56691-3.4214 8.1139-5.6658 10.721-1.4499 1.6843-3.1964 2.3406-3.1964 1.2011zm-2.9974-4.2011c0.00404-1.1775 6.9133-12.347 10.235-16.546 4.2803-5.4106 4.5963-3.817 0.49136 2.4781-1.9073 2.9249-4.6945 7.4556-6.1936 10.068-2.4274 4.23-4.5404 6.0945-4.5332 4zm55.997-4.8459c-11.158-4.9423-22.15-10.588-21.629-11.109 0.726-0.726 26.558 10.884 26.6 11.955 0.04199 1.0838-1.024 0.90242-4.9709-0.84587zm-4-6.7618c-9.8795-4.3538-14.291-6.6851-13.723-7.2527 0.2546-0.25461 2.7223 0.42766 5.4838 1.5162s5.2258 1.7742 5.4763 1.5237c0.96214-0.96215 11.763 4.6003 11.763 6.0579 0 2.0349-0.36616 1.9598-9-1.8451zm104-12.622c0-1.1943 6.1569-5.1969 6.8807-4.4731 0.48716 0.48717-2.041 2.7069-5.1307 4.5047-1.202 0.69945-1.75 0.68956-1.75-0.03158zm-32.921-9.6038c0.04798-1.165 0.28494-1.4019 0.60416-0.60417 0.28887 0.72188 0.25335 1.5844-0.07894 1.9167s-0.56864-0.25834-0.52522-1.3125zm-201.1-15.386c1.1631-1.6334 2.6253-3.2854 3.2495-3.6712s-0.12518 0.95063-1.6652 2.9698c-3.3427 4.3825-4.6026 4.9403-1.5843 0.70139zm-2.9785-23.03c2.241-3.3 4.3093-6 4.5963-6 0.65394 0-0.12298 1.2836-4.3882 7.25-4.8788 6.8247-5.0388 5.8636-0.20805-1.25zm221-11c-0.90129-0.58246-1.0246-0.97549-0.30902-0.98469 0.65504-0.00842 1.4691 0.43469 1.809 0.98469 0.7673 1.2415 0.42112 1.2415-1.5 0zm-58-59.41c0-6.2349-2.3974-10.406-7.2088-12.543-3.852-1.7108-4.0145-1.9131-1.5883-1.9765 6.2995-0.16463 10.417 3.8764 11.422 11.211 0.44575 3.2521 0.1983 4.6205-1.0181 5.63-1.4261 1.1836-1.607 0.92235-1.607-2.3209zm14 356.11c0-1.4296-1.9504-3.7-3.1786-3.7-0.42821 0-0.26598 1.125 0.36051 2.5 1.2155 2.6676 2.818 3.3501 2.818 1.2zm-72.336-2.2672c0.79115-2.0617-1.2824-4.2145-2.697-2.8-1.1452 1.1452-0.28116 4.3672 1.1712 4.3672 0.50842 0 1.195-0.70525 1.5258-1.5672zm77.019-2.6203c-0.31922-0.79773-0.55618-0.56078-0.60416 0.60417-0.04342 1.0542 0.19293 1.6448 0.52522 1.3125s0.36781-1.1948 0.07894-1.9167zm-90.698-1.0625c-0.00842-0.6875-0.45153-1.925-0.98469-2.75-0.75538-1.1689-0.97275-0.89294-0.98469 1.25-0.00842 1.5125 0.43469 2.75 0.98469 2.75s0.99311-0.5625 0.98469-1.25zm-39.891-6.0562c-1.3059-1.3059-1.4876 0.14136-0.37332 2.9744 0.69488 1.7668 0.7337 1.7659 1.0938-0.02443 0.20532-1.0209-0.11888-2.3484-0.72046-2.95zm-117.88 1.1238c2.1707-0.65035 6.1604-3.2608 8.866-5.801 4.1577-3.9035 4.9258-4.301 4.961-2.5675 0.03493 1.721 0.61885 1.4075 3.6298-1.949 3.853-4.2952 7.9079-12.147 8.9411-17.313 0.94509-4.7255-0.7295-3.871-4.0446 2.0636-3.619 6.4788-13.434 16.443-19.929 20.233-3.8497 2.2461-6.0346 2.8217-10.5 2.766-3.1013-0.03866-6.9019-0.5594-8.4459-1.1572-4.427-1.7141-2.1945 0.77544 2.6805 2.9892 4.8132 2.1857 8.3698 2.3747 13.841 0.73538zm423.28-7.9478c0.4713-9.0098-1.1563-16.649-4.4406-20.842-1.52-1.9405-3.3542-4.6519-4.0759-6.0255-0.7739-1.4728-1.4826-1.9864-1.7274-1.2519-0.2283 0.68501 0.5489 2.8053 1.7272 4.7118 3.9408 6.3763 6.9591 18.762 6.4225 26.355-0.2816 3.9854-0.0865 5.2692 0.6835 4.4992 0.5927-0.59265 1.2275-3.9439 1.4107-7.4473zm-170.51 4.2636c-0.00842-0.89835-0.41298-2.2614-0.89902-3.029-0.68376-1.0799-1.2369-0.7126-2.4448 1.6232-0.85861 1.6604-1.328 3.252-1.0431 3.5369 1.0633 1.0633 4.4016-0.55837 4.3869-2.1311zm183.92 0.29158c5.2887-4.4501 7.2749-14.806 5.0901-26.538-1.418-7.6145-2.7504-10.417-5.705-11.998-2.9811-1.5954-6.529-6.8525-8.0235-11.889-2.4933-8.4017-3.6067-15.174-2.6027-15.83 0.563-0.3683 1.988-3.8196 3.1666-7.6696s4.1825-10.6 6.6752-15c14.414-25.443 16.918-33.811 14.189-47.419-1.977-9.8571-6.4822-19.216-11.943-24.81-2.2707-2.326-4.3245-4.033-4.5641-3.7934s2.1083 4.6986 5.2174 9.909 6.532 12.028 7.6064 15.151c3.4498 10.027 3.568 23.102 0.2191 24.218-0.8013 0.26709-1.1438-1.5877-1.1099-6.01 0.027-3.518-0.4749-8.3425-1.1154-10.721-1.5318-5.6885-5.8852-15.48-6.5757-14.789-0.2987 0.2987 0.1899 3.372 1.0858 6.8294 2.6305 10.151 3.0039 18.851 1.0604 24.702-0.9278 2.7932-2.281 5.5716-3.0072 6.1744s-1.6041 2.7748-1.9508 4.827c-0.8514 5.0397-3.8542 8.7194-7.1639 8.779-2.603 0.04688-2.6481-0.05915-2.1255-5 0.4903-4.6366 0.451-4.7627-0.4829-1.5479-3.6102 12.428-5.2447 16.697-6.9638 18.186-1.8214 1.5776-1.8779 2.2839-0.8811 11 2.3992 20.978 5.1665 33.276 9.0122 40.051 0.5422 0.95504 0.9858 2.4804 0.9858 3.3898s0.7129 2.1747 1.5844 2.8119c3.3928 2.4809 5.8948 22.929 3.3804 27.628-1.5388 2.8753 1.1827 2.5224 4.942-0.64079zm-29.907-0.42495c0-0.55-0.4766-1-1.0591-1s-0.7809 0.45-0.4409 1 0.8164 1 1.059 1 0.441-0.45 0.441-1zm-131.66-3.7937c-0.31734-1.2135-1.1995-2.2063-1.9603-2.2063-1.8283 0-1.7461 0.94169 0.27717 3.1774 2.0054 2.216 2.4496 1.9597 1.6832-0.97106zm110.71 0.22773c0.7148-0.86126 2.5997-2.2382 4.1887-3.06 2.55-1.3186 2.8108-1.8685 2.2215-4.6841-2.1042-10.053-7.3831-15.405-6.1223-6.207 0.6213 4.5326-0.8279 11.517-2.3896 11.517-0.5242 0-0.953 0.9-0.953 2 0 2.3981 1.2744 2.5792 3.0547 0.43406zm-88.765-5.4341c-0.28766-1.1-0.92053-2-1.4064-2-1.0455 0-1.0819 0.319-0.27638 2.4182 0.88109 2.2961 2.3003 1.9434 1.6828-0.41821zm84.514-2.8542c-1.4535-0.55453-1.9145 0.40092-1.152 2.3879 0.6636 1.7293 0.7328 1.724 1.3894-0.10687 0.38-1.0598 0.2732-2.0863-0.2374-2.2811zm-114.44 0.35417c-0.31659-0.825-0.75246-1.5-0.96862-1.5s-0.39301 0.675-0.39301 1.5 0.43588 1.5 0.96862 1.5 0.70959-0.675 0.39301-1.5zm-227.48-5.5-0.08437-2.5-0.80064 2.5c-0.44035 1.375-0.83861 3.175-0.88501 4-0.07499 1.3333 0.02334 1.3333 0.88501 0 0.53316-0.825 0.93141-2.625 0.88501-4zm258.1 0.75c-0.0292-2.6731-1.2568-5.7009-2.1-5.1797-1.0348 0.63951-1.1929 4.7898-0.21964 5.7631 1.0801 1.0801 2.3344 0.7647 2.3197-0.58333zm-169.49-2.75c0.33992-0.55 0.14148-1-0.44098-1s-1.059 0.45-1.059 1 0.19844 1 0.44098 1 0.7191-0.45 1.059-1zm-118.09-10.655c2.0266-4.2104 3.5481-8.5979 3.3811-9.75-0.31698-2.1868-1.8723 0.54861-6.6992 11.782-2.3871 5.5556-2.4018 5.6229-1.2311 5.6229 0.47547 0 2.5226-3.4448 4.5492-7.6552zm389.94-5.5948c-1.4755-2.8875-3.4839-7.725-4.463-10.75-2.13-6.5805-2.4581-3.7317-0.4424 3.8411 1.384 5.1998 5.2789 12.138 6.8214 12.152 0.4218 0.00376-0.4404-2.3557-1.916-5.2432zm-87.863-5.5c-1.1215-6.9753-1.5439-8.3333-2.4231-7.7899-0.48224 0.29804-0.71885 1.3289-0.5258 2.2909s0.62119 3.4365 0.95143 5.499 1.0504 3.75 1.6004 3.75c0.59607 0 0.75646-1.5147 0.39707-3.75zm-149.06-0.13669c0.65323-1.057-2.213-3.6636-3.0777-2.7989-0.8332 0.8332 0.37204 3.6856 1.5573 3.6856 0.5348 0 1.219-0.39901 1.5204-0.88669zm5.0133-3.3358c1.7719-2.5297 1.978-3.7775 0.62409-3.7775-0.51294 0-1.2183 0.9-1.5674 2-0.73109 2.3035-2.5 2.699-2.5 0.55902 0-1.7388-1.6506-2.9334-2.393-1.7321-0.55671 0.90077 2.3876 5.1369 3.5864 5.1598 0.38131 0.00729 1.3938-0.98688 2.25-2.2093zm136.08-13.288c-0.54708-7.2969-1.01-9.4044-1.8756-8.5392-1.2637 1.2632-2.2374 17.075-1.2155 19.738 0.58459 1.5234 0.77684 1.5302 2.2286 0.07843 1.3414-1.3414 1.4757-3.0979 0.8625-11.277zm-218.72 8.4383c0.14364-1.8851-0.16059-2.8283-0.78729-2.441-1.1472 0.70902-1.3754 3.8259-0.35472 4.8466 0.92322 0.92322 0.8817 1.0107 1.142-2.4056zm96.223 0.04501c1.2856-1.115 3.4919-2.2726 4.903-2.5725 14.145-3.0062 19.753-5.2062 10.142-3.9783-6.4402 0.82283-19.24 5.5533-19.829 7.3281-0.64195 1.9356 2.1852 1.4762 4.7835-0.77723zm-15.282-2.5562c-0.95295-0.95296-2.8635 0.5906-2.1533 1.7397 0.42212 0.683 0.98146 0.66575 1.6996-0.05243 0.58876-0.58876 0.79291-1.348 0.45366-1.6873zm233.7-6.3357c-2.0295-8.3499-3.9623-9.5498-2.9493-1.8309 0.6563 5.001 3.0861 10.496 4.1644 9.4176 0.2782-0.27825-0.2686-3.6923-1.2151-7.5868zm-187.72 5.315c-0.33229-0.33229-1.1948-0.36781-1.9167-0.07894-0.79773 0.31922-0.56078 0.55618 0.60417 0.60416 1.0542 0.04342 1.6448-0.19293 1.3125-0.52522zm13.145-4.7066c4.465-5.2058 5.93-9.6292 2.0183-6.0942-2.9045 2.6249-5.4848 6.4255-6.3851 9.405-0.41548 1.375-0.53132 2.275-0.25742 2s2.3548-2.6649 4.6242-5.3108zm2.1262 4.8926c0-0.23002-0.27755-1.1415-0.61678-2.0255-0.4774-1.2441-0.92939-1.3479-2-0.45934-1.9763 1.6402-1.708 2.9031 0.61678 2.9031 1.1 0 2-0.1882 2-0.41821zm-64.276-2.5292c-0.31431-1.2019 0.04301-2.0632 0.93348-2.25 2.8947-0.60722-1.0314-3.5528-5.4615-4.0976-4.8484-0.59618-4.895-0.28274-0.70157 4.7215 3.2928 3.9295 6.0567 4.7889 5.2296 1.626zm4.7333 1.0165c0.31644-0.512 0.11799-1.2136-0.44098-1.559s-1.0163 0.07344-1.0163 0.9309c0 1.7565 0.60006 2.0152 1.4573 0.62812zm7.5686-1.3191c1.9186-2.052 1.9499-2.2816 0.35505-2.6087-0.96181-0.19731-2.341 0.4512-3.0648 1.4411-2.7985 3.8272-0.64472 4.7552 2.7098 1.1676zm133.68-1.25c-0.09685-3.417-0.98988-4.4626-2.1744-2.546-0.75202 1.2168 0.43093 6.046 1.481 6.046 0.43594 0 0.74797-1.575 0.6934-3.5zm-348.6 0.3298c5.2433-1.805 10.73-5.7847 12.292-8.9155l1.4136-2.8336-2.4344 1.5951c-3.8753 2.5392-4.0484 0.62714-0.30366-3.3545l3.4316-3.6487-3.75 2.2452c-5.1413 3.0782-5.0824 0.48757 0.08334-3.6637 2.1083-1.6943 3.8333-3.7309 3.8333-4.5258s-2.5923 1.3259-5.7606 4.7129c-7.4448 7.9585-13.939 11.215-24.156 12.113-4.2625 0.37457-7.75 1.0623-7.75 1.5284 0 0.98667 3.5354 3.0489 4.1586 2.4258 0.23185-0.23186 3.1035 0.43478 6.3815 1.4814 7.1467 2.2819 8.1736 2.3506 12.561 0.84031zm251.39 0.18165c0.35034-0.56686-0.05106-0.7345-0.94098-0.39301-1.7324 0.66479-2.0494 1.3816-0.61096 1.3816 0.51754 0 1.2159-0.44485 1.5519-0.98855zm-235.49-6.1572c3.7754-3.3802 8.3298-8.2177 10.121-10.75l3.2565-4.6042-4.9417 4.5502c-2.7179 2.5026-6.4042 5.4121-8.1917 6.4656s-3.25 2.6858-3.25 3.6274-1.4625 2.8645-3.25 4.2733-2.6556 2.5664-1.9292 2.5725 4.4098-2.7545 8.1852-6.1347zm244.87 0.9889c1.1787-2.8363 1.9656-5.3344 1.7487-5.5513-1.0062-1.0062-5.4818 4.5598-5.9972 7.4582-0.92828 5.2202 1.7945 3.9981 4.2485-1.9069zm-50.106 2.3444c0.24054-0.72161-0.66572-1.1875-2.3099-1.1875-2.3179 0-2.5234 0.21982-1.4332 1.5333 1.3925 1.6779 3.1219 1.5181 3.7432-0.3458zm-169.02-1.4375c-0.8203-1.2375-2.3377-2.3794-3.372-2.5376-1.4258-0.21803-1.1551 0.32485 1.1195 2.245 3.6992 3.1229 4.1691 3.1839 2.2525 0.29253zm212.22 0.28906c2.6774-1.6932 0.45563-2.0373-4.0426-0.62612l-4.4285 1.3893 3.5 0.08356c1.925 0.04595 4.162-0.33509 4.971-0.84676zm104.6-6.6325 0.07395-6.5932-1.782 3.3433c-2.2444 4.2107-2.2842 5.7236-0.21087 8.0146 0.91024 1.0058 1.6977 1.8287 1.75 1.8286s0.12829-2.9671 0.16896-6.5933zm-137.57 3.5467c9.1394-1.7955 26.189-3.9361 31.421-3.9449 7.8326-0.01322 8.5255-1.2083 6.6606-11.487-1.3717-7.5607-1.8235-8.6014-4.0574-9.3461-2.2458-0.7486-7.8159-0.01918-12.024 1.5746-0.825 0.31244-1.9158 0.47053-2.424 0.35131s-3.2082 0.33876-6 1.0177-8.451 1.2676-12.576 1.308c-6.2339 0.06111-8.5973 0.5976-14 3.1781-3.575 1.7075-7.5792 3.9932-8.8983 5.0793-2.3113 1.9031-2.3476 2.1336-1 6.3549 1.3685 4.2867 1.537 4.4153 7.8983 6.025 3.575 0.90463 7.175 1.493 8 1.3074s3.975-0.82363 7-1.4179zm-19.37-4.2032c-0.33164-1.2375-0.59544-3.15-0.58623-4.25 0.01343-1.6033 0.18233-1.7024 0.8514-0.5 1.4032 2.5219 2.1966 7 1.2402 7-0.49633 0-1.1738-1.0125-1.5054-2.25zm6.0549-1.2839c-1.8575-3.8952-2.1076-5.4661-0.87042-5.4661 0.85946 0 4.1852 6.3841 4.1852 8.0339 0 2.1096-1.7195 0.77758-3.3148-2.5679zm144.31 4.5339c0-1.65-0.41968-3-0.93261-3-1.2153 0-2.3778 3.6888-1.5729 4.991 1.2232 1.9792 2.5055 0.96026 2.5055-1.991zm-316 1c0-0.55-0.47656-1-1.059-1s-0.7809 0.45-0.44098 1 0.81648 1 1.059 1 0.44098-0.45 0.44098-1zm240.47-16.41c-1.7096-4.0917-2.9939-4.8011-2.0768-1.1472 0.8276 3.2974-0.83816 6.5489-4.8963 9.5573-3.2328 2.3966-5.5 5.797-5.5 8.2492 0 0.63531 3.1439-2.0454 6.9865-5.9572l6.9865-7.1123-1.5-3.5899zm72.599 11.269c3.1944-6.2614 1.198-16.969-2.0369-10.925-1.0142 1.8951-1.4998 15.066-0.5555 15.066 0.26382 0 1.4304-1.8636 2.5924-4.1412zm-61.322-10.72c3.2552-2.2787 4.2188-4.1388 2.1439-4.1388-0.60834 0-1.991 1.125-3.0726 2.5s-2.6281 2.5-3.4368 2.5c-2.2909 0-11.385 9.0224-11.385 11.295 0 1.6097 1.2736 0.80887 6.25-3.9299 3.4375-3.2734 7.7125-6.9753 9.5-8.2266zm-254.73 11.338c1.0568-1.2734 0.99492-1.4197-0.37756-0.89301-0.90279 0.34643-1.6414 1.0317-1.6414 1.5229 0 1.286 0.57887 1.1054 2.019-0.62988zm162.97-0.22711c-0.01885-2.1534-1.6641-4.9039-2.4583-4.1097-0.63699 0.637 1.1 5.8597 1.9489 5.8597 0.28861 0 0.51786-0.7875 0.50944-1.75zm146.69-16.437c0.26127-12.282 0.10955-14.019-1.1151-12.765-1.4801 1.5161-1.7954 5.4219-1.6466 20.402 0.0685 6.8991 0.36045 8.6784 1.2741 7.7648 0.77108-0.77108 1.2909-6.1529 1.4876-15.402zm14.829 9.822c0.91255-2.3895 1.4846-5.6473 1.2711-7.2397-0.38331-2.8595-0.41482-2.8397-2.5585 1.6049-2.165 4.4889-3.0402 11.628-1.2931 10.549 0.50668-0.31315 1.6679-2.5244 2.5804-4.9139zm-92.521 0.1152c-0.03311-3.8623-2.5191-12.096-3.7789-12.516-1.5156-0.5052-1.516 1.6245-0.00174 8.9559 1.1832 5.7287 3.8205 8.2122 3.7806 3.5602zm4.7676-2c-0.25611-0.6875-1.0697-2.9375-1.8079-5s-1.7018-3.75-2.1413-3.75c-1.029 0-1.014 0.26087 0.3196 5.5572 0.69645 2.7658 1.6805 4.4428 2.607 4.4428 0.81855 0 1.2787-0.5625 1.0226-1.25zm94.437-6.3841c-0.84518-1.5102-1.0219-1.4546-1.6484 0.51923-0.42449 1.3374-0.17524 2.8497 0.63091 3.8279 1.2032 1.46 1.3633 1.4096 1.6484-0.51923 0.17368-1.1749-0.11023-2.8975-0.63091-3.8279zm-82.685 3.6341c0.33992-0.55 0.16803-1-0.38197-1s-1.2781 0.45-1.618 1-0.16803 1 0.38197 1 1.2781-0.45 1.618-1zm74.512-5.0245c1.8012-3.5308 1.907-4.5122 0.86203-8-1.3441-4.4863-2.3596-5.0264-3.2442-1.7255-0.71736 2.6768-0.83865 13.75-0.15061 13.75 0.26382 0 1.4036-1.811 2.5328-4.0245zm-158.51 2.0245c0.33992-0.55 0.14148-1-0.44098-1s-1.059 0.45-1.059 1 0.19844 1 0.44098 1 0.7191-0.45 1.059-1zm150.95-4.0822c1.4039-2.7952 2.5383-6.2827 2.5208-7.75-0.03054-2.5617-0.09021-2.5906-1.5-0.72671-0.80751 1.0676-1.4682 3.1676-1.4682 4.6667s-0.41673 2.8755-0.92606 3.0589c-1.0114 0.36404-2.6381 5.8333-1.735 5.8333 0.30568 0 1.7045-2.287 3.1084-5.0822zm2.2357 0.89466c-0.31922-0.79773-0.55618-0.56078-0.60416 0.60417-0.04342 1.0542 0.19293 1.6448 0.52522 1.3125s0.36781-1.1948 0.07894-1.9167zm-65.993-8.5506c-1.5386-1.5386-1.6905-1.544-1.6905-0.05952 0 0.89702 0.5625 1.8318 1.25 2.0774 2.0432 0.72972 2.2483-0.21 0.44048-2.0179zm64.221-3.2619c2.6716-7.0383 2.7827-18 0.18256-18-2.1068 0-4.9236 16.558-3.668 21.561 0.82869 3.3018 0.91327 3.2154 3.4854-3.561zm109.57-2.6178c0.2927-3.2352 0.3055-5.4322 0.0285-4.8822-1.1953 2.3736-3.292 12.047-2.7879 12.863 0.9856 1.5948 2.2148-1.9602 2.7594-7.9805zm-212.01-2.2409c-0.65795-0.65795-6.4746 4.9497-6.4746 6.242 0 0.55499 1.5683-0.51094 3.485-2.3687s3.2621-3.6008 2.9896-3.8733zm112.73 2.3984c0-1.9765-0.4911-4.1854-1.0913-4.9087s-0.82914-1.5772-0.5087-1.8976 0.25996-1.5993-0.13441-2.8418c-0.71298-2.2464-0.72525-2.2435-2.1666 0.50732-1.7284 3.2988-1.0712 5.8347 1.2785 4.933 1.3118-0.5034 1.5178-0.20771 0.99745 1.4318-0.66799 2.1046 0.27133 7.7233 1.1451 6.8496 0.26394-0.26395 0.4799-2.0971 0.4799-4.0736zm-246.95-1.9297c1.5623-3.2762 1.5384-3.4636-0.70929-5.5752-1.6024-1.5054-2.5463-1.8285-3.0343-1.0389-0.86292 1.3962 0.31885 10.004 1.3735 10.004 0.41443 0 1.481-1.5256 2.3702-3.3901zm251.75-3.0509c0-2.4425-0.45-4.7191-1-5.059-0.61633-0.38091-1 1.323-1 4.441 0 2.7825 0.45 5.059 1 5.059s1-1.9984 1-4.441zm-343.32 1.2535c-0.31923-0.79773-0.55619-0.56078-0.60417 0.60417-0.04342 1.0542 0.19293 1.6448 0.52522 1.3125s0.36782-1.1948 0.07895-1.9167zm322.76-4.2362c1.0495-6.852 1.1872-14.621 0.25369-14.309-0.53339 0.1778-1.8103 2.4629-2.8375 5.0781-1.4304 3.6416-1.7137 6.0655-1.2097 10.353 0.58509 4.9782 0.80552 5.3965 1.9902 3.7764 0.7327-1.002 1.5442-3.2062 1.8034-4.8981zm-226.45-2.1114c0-2.6913-2.6314-7.4648-4.115-7.4648-1.4662 0-0.99793 4.0002 0.83062 7.0957 2.1129 3.5769 3.2844 3.7086 3.2844 0.36911zm170.12 0.26851c-0.98762-0.98026-1.1025-0.8654-0.5598 0.5598 0.37553 0.98622 0.93469 1.5412 1.2426 1.2333s6.4e-4 -1.1148-0.68278-1.7931zm68.246-3.0712c0.32532-1.2962-0.03044-4.338-0.7906-6.7594l-1.3821-4.4027 0.01111 7.2412c0.01077 7.0257 0.95327 8.7353 2.1616 3.921zm-342.37-0.16215c0-1.375-0.45-2.5-1-2.5-2.224 0-0.76966-2.8504 3-5.8798 2.2-1.768 4-3.8683 4-4.6674 0-2.1722-0.75373-1.803-4.1005 2.0088-1.6716 1.9039-4.6575 4.4617-6.6352 5.684l-3.5958 2.2223 2.3594 1.566c1.2976 0.86131 2.8347 2.1114 3.4157 2.778 1.6691 1.9149 2.5564 1.4942 2.5564-1.212zm-11.5 0.5c-0.33992-0.55-1.068-1-1.618-1s-0.72189 0.45-0.38197 1 1.068 1 1.618 1 0.72188-0.45 0.38196-1zm357.16-3.25c-0.27741-0.6875-0.50439-0.125-0.50439 1.25s0.22698 1.9375 0.50439 1.25 0.27741-1.8125 0-2.5zm-238.69-2.6911c-0.03942-1.9319-2.3338-5.0589-3.7118-5.0589-1.8464 0-2.181 4.2452-0.57868 7.3437 1.4921 2.8853 1.6394 2.9431 2.9464 1.1556 0.75671-1.0349 1.3615-2.5831 1.344-3.4404zm228.45-2.1894c-0.94594-1.5306-2.395 1.0012-2.364 4.1305l0.02473 2.5 1.5043-2.7737c0.82738-1.5255 1.2031-3.2611 0.83496-3.8568zm-237.43-0.17854c-0.02043-2.9231-1.496-5.1111-2.8729-4.2601-1.3694 0.84631-1.3888 1.7105-0.11367 5.0642 1.1359 2.9876 3.0095 2.4831 2.9866-0.80409zm240.7 1.1215c-0.31922-0.79773-0.55618-0.56078-0.60416 0.60417-0.04342 1.0542 0.19293 1.6448 0.52522 1.3125s0.36781-1.1948 0.07894-1.9167zm117.32-10.127c-1.7504-9.897-2.2901-7.5402-0.7862 3.4333 0.7552 5.5103 1.4313 8.1432 1.6385 6.381 0.1941-1.65-0.1894-6.0665-0.8523-9.8144zm-110.39 8.7411c0.36482-1.4536 0.15556-3.0635-0.48095-3.7-0.61973-0.61973-1.1268-2.4832-1.1268-4.1411 0-2.6276-0.18291-2.8264-1.4256-1.55-1.1558 1.1871-1.2254 2.458-0.36749 6.7143 1.1537 5.7242 2.3915 6.6984 3.4008 2.6768zm-14.692-6.6555 3.2181-9.2712c2.9371-8.45 3.4213-17.5 0.93621-17.5-0.7194 0-2.3483 8.3708-2.5297 13-0.03233 0.825-0.57836 2.4105-1.2134 3.5234-1.3089 2.2937-4.3268 13.405-4.3268 15.93 0 3.1204 1.7362 0.60096 3.9156-5.6821zm-220.88 4.1617c1.5388-2.8753-1.4146-7.6934-3.6028-5.8774-1.7444 1.4477-1.8708 5.1067-0.2331 6.7445 1.6975 1.6975 2.5688 1.5006 3.8359-0.86706zm229.01-3.9329c1.8579-7.2136 2.2651-12.091 1.1062-13.25-1.5436-1.5436-3.4467 3.9049-2.7942 7.9995 0.28488 1.7875 0.14871 3.25-0.30259 3.25-1.05 0-2.014 4.94-1.3179 6.7538 0.78806 2.0537 2.0059 0.30381 3.3085-4.7538zm11.537 1.2475c-1.1537-1.1537-1.7456 0.65318-0.95886 2.9272l0.80455 2.3254 0.36756-2.3359c0.20215-1.2847 0.10619-2.5972-0.21325-2.9167zm112.11 1.0216c-0.2536-0.97297-0.4777-0.41903-0.4981 1.231s0.1871 2.4461 0.461 1.769 0.2906-2.027 0.0371-3zm-361.14-0.44216c0.37935-1.1952 1.5347-3.0801 2.5674-4.1886 2.3245-2.4951 2.3234-3.5008-0.00736-6.5321-3.108-4.0423-5.6804 0.10022-3.0798 4.9596 0.59561 1.1129 0.64104 1.9343 0.10699 1.9343-0.5105 0-1.1982-0.70352-1.5281-1.5634-0.78796-2.0534-2.614-0.87413-2.614 1.6881 0 2.439 1.7358 5.8752 2.9678 5.8752 0.49358 0 1.2078-0.97791 1.5872-2.1731zm-7.555-1.2618c0-2.4322-1.8927-6.5651-3.0066-6.5651-1.9243 0-2.238 2.9777-0.58027 5.5077 1.8051 2.7549 3.5869 3.2802 3.5869 1.0574zm258.6-5.2943c-1.0165-1.0165-1.8552 0.51389-1.0212 1.8634 0.63003 1.0194 0.86558 1.0202 1.2043 0.00404 0.2316-0.69479 0.14921-1.5351-0.18308-1.8674zm-256.16-4.3714c-0.82464-1.5947-1.9378-2.8994-2.4737-2.8994-1.2976 0-1.2411 3.633 0.09542 6.1303 0.84431 1.5776 1.3656 1.7533 2.4737 0.83367 1.2026-0.99809 1.1889-1.5809-0.09542-4.0646zm232.05 1.3506c0.32295-2.0625 0.78209-4.9875 1.0203-6.5 0.60234-3.8243-0.12485-3.4388-2.5759 1.3657-1.3001 2.5483-1.8718 5.0237-1.5013 6.5 0.89188 3.5536 2.3915 2.8836 3.0569-1.3657zm-239.09 0.89654c0.79682-1.2893-1.7043-7.2142-2.8821-6.8273-0.56502 0.18559-1.1744 1.3395-1.3541 2.5642-0.48989 3.3383 2.7763 6.6253 4.2362 4.2632zm11.591-6.614c0-1.2224-0.86419-3.0046-1.9204-3.9605-1.8303-1.6564-1.9709-1.6436-2.9964 0.27257-1.0759 2.0103-0.63504 4.5417 1.2047 6.9177 1.3547 1.7496 3.7121-0.30149 3.7121-3.2298zm-8.0222-0.78254c-0.01223-0.6875-0.84784-2.3237-1.8569-3.636-2.4194-3.1465-3.7878-1.0615-1.5474 2.3578 1.7701 2.7015 3.4408 3.3288 3.4043 1.2782zm-9.2049-5.4104c-1.7097-2.8977-2.2434-3.2502-2.9661-1.9589-0.57161 1.0214-0.31926 2.6614 0.71826 4.6677 1.2633 2.443 1.8867 2.8547 2.9661 1.9589 1.14-0.94611 1.0209-1.7201-0.71826-4.6677zm263.16 0.41037c0.03866-0.4125-0.37971-0.75-0.92971-0.75s-0.96837 1.2375-0.92971 2.75c0.06228 2.4368 0.16815 2.5222 0.92971 0.75 0.47269-1.1 0.89106-2.3375 0.92971-2.75zm3.7534-0.9375c-0.31922-0.79773-0.55618-0.56078-0.60416 0.60417-0.04342 1.0542 0.19293 1.6448 0.52522 1.3125s0.36781-1.1948 0.07894-1.9167zm-338.55-9.6549c-0.81735-2.2311-0.97178-1.6948-0.96234 3.3424 0.0103 5.5008 0.09131 5.7219 0.97359 2.6576 0.61953-2.1517 0.61552-4.2891-0.01125-6zm75.869 7.4532c0-1.7213-3.9207-6.5722-3.9667-4.9078-0.05033 1.8199 2.1731 6.297 3.1272 6.297 0.46171 0 0.83948-0.62515 0.83948-1.3892zm255-5.8019c0-1.5449-0.45-2.8089-1-2.8089s-1.0061 1.0125-1.0136 2.25-0.26591 3.375-0.57422 4.75c-0.54104 2.4129-0.50572 2.4324 1.0136 0.55887 0.86582-1.0676 1.5742-3.2051 1.5742-4.75zm-337 1.0969c0-3.2626-2.2913-7.4199-4.5718-8.295-1.2454-0.47792-1.2369-0.14158 0.05999 2.3664 0.83149 1.6079 1.5118 4.2208 1.5118 5.8065s0.28777 3.1708 0.63948 3.5225c1.2152 1.2152 2.3605-0.43474 2.3605-3.4004zm73.194-0.37867c-1.6953-3.7208-3.247-3.1977-2.1245 0.71627 0.5116 1.7839 0.93019 3.4489 0.93019 3.7s0.52779-0.07119 1.1729-0.71627c0.8894-0.8894 0.89458-1.7837 0.02144-3.7zm269.71-5.7771c0.14976-4.1317-1.6133-3.3079-2.1401 1-0.58691 4.7995 0.35837 7.7886 1.344 4.25 0.383-1.375 0.74122-3.7375 0.79604-5.25zm-266.87-0.69456c-0.60502-1.1305-1.5201-2.0554-2.0335-2.0554-1.0394 0-0.25882 2.7637 1.3725 4.8596 1.5006 1.928 2.0182-0.26816 0.66099-2.8042zm271.77-2.9794c0.12892-1.6918-0.22276-3.076-0.7815-3.076s-1.0159 1.6016-1.0159 3.559c0 4.2747 1.4648 3.8811 1.7974-0.483zm-8.3394-4.326c0.40975-3.4348 0.30465-5.75-0.26102-5.75-1.1216 0-2.197 4.8093-2.197 9.825 0 5.3549 1.6617 2.6 2.458-4.075zm13.542 0.08333c0-3.6413-0.43653-3.5093-1.3784 0.41667-0.39164 1.6325-0.24563 2.75 0.35933 2.75 0.56048 0 1.019-1.425 1.019-3.1667zm-353.69 0.23584c-0.69827-2.6702-2.0336-2.9309-7.8078-1.5245l-5 1.2178 4 0.13411c2.2 0.07376 4.675 0.57032 5.5 1.1035 2.4198 1.5638 3.8546 1.16 3.3078-0.93083zm-14.058 0.26855c-0.6875-0.27741-1.8125-0.27741-2.5 0s-0.125 0.50439 1.25 0.50439 1.9375-0.22698 1.25-0.50439zm24.933-1.5544c-0.71756-0.71756-1.1833-0.7766-1.1833-0.15 0 1.3348 1.1826 2.5174 1.85 1.85 0.28417-0.28416-0.01583-1.0492-0.66667-1.7zm334.82-3.2243c0-1.8925-0.45-3.7191-1-4.059-0.60393-0.37325-1 0.98962-1 3.441 0 2.2325 0.45 4.059 1 4.059s1-1.5484 1-3.441zm109-2.059c0-0.825-0.7301-1.5-1.6225-1.5-1.3288 0-1.3971 0.27149-0.3775 1.5 0.6847 0.825 1.4148 1.5 1.6224 1.5s0.3776-0.675 0.3776-1.5zm9.4189-4.3383c-2.7945-1.5412-6.7443-4.0708-8.7772-5.6213s-3.9321-2.5833-4.2204-2.295c-0.7681 0.76806 6.4409 6.4765 11.079 8.7727 6.1106 3.0254 7.6843 2.3231 1.9189-0.85635zm-122.94-2.0531c0.23105-1.1998-0.00543-1.9013-0.53136-1.5763-0.52125 0.32215-0.94773 1.5342-0.94773 2.6934 0 2.5529 0.90375 1.8704 1.4791-1.1171zm-329.48-4.016c4.125-2.6961 10.2-7.7526 13.5-11.237s4.425-4.9405 2.5-3.2367c-5.8747 5.1996-16.981 13.33-21.032 15.397-2.108 1.0754-4.1148 2.4117-4.4596 2.9696-1.4214 2.2999 2.4383 0.71673 9.4912-3.8931zm-20.5 0.56209 3-1.6748-3.75 0.51007c-2.0625 0.28054-5.3591 0.76186-7.3258 1.0696-2.0212 0.31628-4.1628 0.07235-4.9261-0.56111-0.74266-0.61635-3.296-0.98064-5.6742-0.80953l-4.3239 0.31111 3 1.7744c3.8003 2.2478 15.514 1.8849 20-0.61974zm357.03-5.554c-0.3667-1.1554-1.0864-2.1007-1.5993-2.1007-1.0762 0-1.2164 2.0968-0.29983 4.4854 0.93015 2.4239 2.7143 0.18356 1.8992-2.3848zm4.1512-1.2882c-0.31922-0.79773-0.55618-0.56078-0.60416 0.60417-0.04342 1.0542 0.19293 1.6448 0.52522 1.3125s0.36781-1.1948 0.07894-1.9167zm93.701-9.3471c0.2541-2.7201 0.0937-5.4001-0.3564-5.9556-1.7346-2.1401-5.0993-15.222-7.5383-29.308-3.0496-17.613-4.8605-24.344-8.0129-29.785-4.4554-7.6899-14.515-14.799-22.113-15.627-5.0075-0.54569-3.375 1.7607 3.3063 4.6714 7.0286 3.062 13.712 8.1123 12.765 9.6454-0.3075 0.49746-2.5048-0.43425-4.8829-2.0705-4.4757-3.0793-14.474-7.4462-15.257-6.6634-0.2449 0.24494 0.463 0.73366 1.5733 1.086 3.6318 1.1527 13.412 9.4413 16.856 14.286 2.3617 3.3217 3.2009 5.4202 2.8025 7.0074-0.3128 1.2462 0.1432 3.6425 1.0133 5.325 2.0878 4.0374 1.3079 6.1465-0.9811 2.6532-3.4913-5.3284-3.4653-2.6291 0.0359 3.7408 1.9561 3.5587 3.4471 7.4962 3.3132 8.75-0.2267 2.1233 3.8819 17.137 6.2338 22.78 1.2588 3.0203 9.9078 15.284 10.419 14.773 0.1992-0.19923 0.5701-2.5878 0.8242-5.3079zm-93.272 0.2471c-0.81667-0.81667-1.1125-0.70476-1.1125 0.42083 0 1.9879 1.3447 3.3326 1.8417 1.8417 0.21083-0.6325-0.11729-1.6506-0.72917-2.2625zm-336.26-4.9625c6.9906-9.3572 11.413-19.937 11.559-27.652 0.07607-4.0167-0.24465-4.6188-3.6666-6.8829-2.0625-1.3646-3.75-2.8102-3.75-3.2123s1.9233-0.99481 4.2741-1.317c4.909-0.67285 31.238-13.972 32.098-16.213 0.74319-1.9367-1.7589-1.9164-3.3721 0.02737-0.68469 0.825-1.6875 1.5-2.2285 1.5s-2.6758 1.3402-4.7441 2.9783c-4.0419 3.2013-11.518 6.781-16.786 8.0376-2.3759 0.56675-3.4686 0.40126-4.0352-0.61115-0.61053-1.091-1.5191-1.1688-4.2418-0.36314-1.9057 0.56386-6.3898 1.031-9.9648 1.038-8.3661 0.01652-13.159 1.3204-14.849 4.0398-1.223 1.9678-1.1763 2.1011 0.5 1.4271 3.3976-1.3662 9.1835-1.8011 13.036-0.97973 3.6699 0.7825 3.5577 0.83729-2.9849 1.4571-4.5895 0.43478-7.3511 1.2257-8.5 2.4342-1.6185 1.7026-1.5672 1.7588 1.0489 1.1469 11.384-2.6626 17.423-1.4874 20.85 4.0573 2.0493 3.3158 2.1101 3.9528 0.98072 10.272-1.3362 7.477-4.6228 15.287-8.6612 20.582-1.4614 1.916-2.1683 3.4837-1.5708 3.4837s2.8513-2.3625 5.0085-5.25zm83.143-0.19098c0-0.24254-0.45-0.7191-1-1.059s-1-0.14148-1 0.44098 0.45 1.059 1 1.059 1-0.19844 1-0.44098zm54.985-6.9315c0.00842-0.47985-0.65474-0.31636-1.4737 0.3633s-1.2127 1.6828-0.875 2.2292c0.61975 1.0028 2.3185-0.87232 2.3487-2.5925zm-83.055-1.9366c0.03866-0.44496-0.37971-0.5309-0.92971-0.19098s-0.96837 1.604-0.92971 2.809c0.06776 2.1124 0.10112 2.1192 0.92971 0.19098 0.47269-1.1 0.89106-2.3641 0.92971-2.809zm102.26-3.441c2.3567-2.7442 3.0179-4.25 1.8661-4.25-1.3426 0-5.059 3.673-5.059 5 0 1.5451 1.5307 1.1855 3.1929-0.75zm-134.21-5.2037c1.3372-3.2283 1.0064-9.6494-0.48083-9.3346-0.55 0.11642-1.3049 2.2866-1.6775 4.8226s-1.1614 5.9992-1.7529 7.696c-1.0448 2.997-1.0209 3.0356 0.83612 1.3551 1.0514-0.95147 2.4352-2.994 3.0751-4.5391zm309.07 1.0506c-1.1496-2.2533-2.5827-4.0969-3.1848-4.0969-0.68485 0-0.54831 0.84237 0.36471 2.25 0.80267 1.2375 2.0159 3.301 2.696 4.5856s1.4566 2.1157 1.7254 1.8469-0.4518-2.3324-1.6013-4.5856zm-177.4-0.78098c-0.84898-0.84898-3.6493 1.028-3.6493 2.446 0 1.3084 0.31047 1.267 2.0061-0.26753 1.1034-0.99854 1.8428-1.9789 1.6431-2.1785zm-97.483-0.34548c0.18346-0.84126-0.11643-1.6428-0.66643-1.7811s-1.1471 0.99995-1.327 2.5296c-0.33953 2.8881 1.3376 2.2584 1.9934-0.74846zm52.797 0.57335c1.4845-1.7888 0.54347-3.5438-1.9002-3.5438-2.2038 0-4.4833 2.5116-3.5905 3.9562 0.93659 1.5154 4.0871 1.2788 5.4907-0.4124zm98.036-1.5438c0-0.55-0.45-1-1-1s-1 0.45-1 1 0.45 1 1 1 1-0.45 1-1zm-51-2.5c0.69443-0.83674 0.80272-1.5 0.24489-1.5-0.55 0-1.5602 0.675-2.2449 1.5-0.69443 0.83674-0.80272 1.5-0.24489 1.5 0.55 0 1.5602-0.675 2.2449-1.5zm47-0.39301c0-0.49116-0.73865-1.1765-1.6414-1.5229-1.3725-0.52667-1.4343-0.38034-0.37756 0.89301 1.4401 1.7352 2.019 1.9158 2.019 0.62988zm57.71-2.5045c8.2965-2.9272 10.438-4.4971 10.101-7.4062-0.23688-2.049-1.61-3.464-5.7667-5.9428-6.3603-3.7929-7.034-3.9303-6.3444-1.2934 1.127 4.3095-8.2661 14.04-13.553 14.04-3.8897 0-7.9764-2.8534-10.67-7.4502-1.7394-2.968-3.087-4.2527-4.0667-3.8768-1.5552 0.59678-3.7862 4.0517-3.8634 5.9829-0.05693 1.4235-4.8677 5.315-6.704 5.423-1.0092 0.05935-1.0323 0.20403-0.09314 0.58304 0.68701 0.27725 3.2846-0.27324 5.7723-1.2233 4.3545-1.663 7.4492-1.2746 4.4776 0.56191-1.252 0.77379-1.2482 0.95464 0.02897 1.3664 0.80958 0.26101 2.147 0.72819 2.972 1.0382 2.7105 1.0184 23.558-0.33777 27.71-1.8027zm45.473-2.3525c4.2892-2.0625 7.8027-4.0216 7.8078-4.3535 0.01848-1.1882-10.395 2.1228-13.654 4.3411-3.0957 2.1075-4.259 3.7624-2.6447 3.7624 0.38068 0 4.2015-1.6875 8.4906-3.75zm-14.642 1.6835c0.92034-1.4892-0.14673-2.2988-2.0614-1.5641-0.88358 0.33906-1.3264 1.0696-0.98412 1.6235 0.81058 1.3115 2.2151 1.2841 3.0455-0.05947zm-274.17-5.711c-0.59659-0.94737-1.9365-1.8873-2.9775-2.0887-1.8093-0.35006-1.8156-0.28039-0.14282 1.5787 0.9625 1.0697 1.75 2.562 1.75 3.3162 0 1.0836 0.25749 1.1138 1.2275 0.14374 0.9022-0.9022 0.94005-1.684 0.14282-2.95zm7.6297-0.75386c0-1.6121-2.6616-3.1404-3.6856-2.1163-0.71223 0.71222 1.5476 3.6477 2.8081 3.6477 0.48266 0 0.87756-0.68912 0.87756-1.5314zm281.04-2.0929c2.7746-1.9933 4.8135-3.8554 4.531-4.138-0.78131-0.7813-9.5711 1.8945-9.5711 2.9137 0 0.49031-1.125 1.4041-2.5 2.0306-3.2043 1.46-3.2054 2.818-0.00231 2.818 1.3737 0 4.7678-1.6309 7.5424-3.6243zm7.3113-0.4732c1.4361-1.6773 2.4823-1.9687 5.2222-1.4547 1.8845 0.35353 3.4263 0.2624 3.4263-0.20253 0-1.3043-2.2449-3.2453-3.7534-3.2453-1.5255 0-8.2465 5.0938-8.2465 6.25-6e-5 1.3862 1.5414 0.76649 3.3514-1.3475zm-224.97-4.4025c0.4151-1.9197 0.33224-2.4599-0.23011-1.5-0.48333 0.825-1.1707 2.85-1.5275 4.5-0.4151 1.9197-0.33224 2.4599 0.23011 1.5 0.48333-0.825 1.1707-2.85 1.5275-4.5zm200.46-0.14209c1.5256 1.3806 2.3261 1.1082 8.5917-2.9231 8.6296-5.5523 8.2981-5.1438 5.287-6.5158-2.2339-1.0178-3.2342-0.72003-8.3792 2.4943-9.0569 5.6584-9.6958 6.2607-8.792 8.2886 0.71042 1.594 0.84725 1.5334 1.2058-0.53425 0.36716-2.1176 0.55926-2.1921 2.0867-0.8098zm-93.343 0.64209c-0.33992-0.55-1.068-1-1.618-1s-0.72189 0.45-0.38197 1 1.068 1 1.618 1 0.72189-0.45 0.38197-1zm52.885-0.87286c1.6309-1.8021 1.5423-1.8689-2.345-1.7669-4.345 0.11393-5.0795 0.93493-2.2899 2.5597 2.3988 1.3972 2.6996 1.3457 4.6349-0.79276zm57.445-2.1296c3.863-2.4044 4.2008-2.881 2.6552-3.746-1.3556-0.75862-2.9111-0.28238-6.6313 2.0302-2.6732 1.6617-5.4125 3.6867-6.0874 4.4998-1.9723 2.3764 4.7686 0.51158 10.064-2.7841zm19.505 1.176c-0.59908-2.2909-6.5627-5.9907-7.0928-4.4003-0.20432 0.61295-1.0912 0.83825-1.9709 0.50068-1.0648-0.40859-1.357-0.22145-0.87411 0.55985 0.40272 0.65162 1.739 0.91921 3.0043 0.60163 1.7104-0.42929 2.6987 0.06871 3.9618 1.9963 1.9493 2.975 3.668 3.4041 2.9718 0.74183zm-48.335-0.17352c0-0.55-0.47656-1-1.059-1s-0.7809 0.45-0.44098 1 0.81648 1 1.059 1 0.44098-0.45 0.44098-1zm8.3305-2.3258c2.8432-1.8292 6.5039-4.1531 8.135-5.1642 2.8861-1.7892 2.9086-1.8638 0.84127-2.7863-3.5794-1.5972-17.165 6.598-15.994 9.6484 0.83867 2.1855 1.0682 2.13 7.018-1.6979zm29.022 1.1511c-1.4993-0.72568-2.7066-0.71443-4 0.03728-1.5412 0.89574-1.1804 1.0704 2.1475 1.0394 3.49-0.03252 3.7262-0.16978 1.8525-1.0767zm-34.087-4.838c6.547-3.7679 9.2417-5.8138 8.5579-6.4975-0.54122-0.54122-13.269 6.5565-15.175 8.4622-2.0811 2.0811 1.3651 1.0579 6.6172-1.9647zm-266.14-0.4644c4.394-1.9247 14.128-8.7907 14.64-10.326 0.22148-0.66444-0.49587-1.1966-1.613-1.1966-1.9944 0-4.3959 1.8261-5.8827 4.4734-0.42463 0.75607-3.4456 2.9838-6.7132 4.9506-6.1347 3.6925-6.3389 4.6868-0.43095 2.0989zm299.74 0.57898c1.0393-0.65836 0.4409-1.4984-2.4821-3.4847-4.2933-2.9174-6.5981-3.273-8.257-1.2741-0.86481 1.042-0.55871 1.5963 1.3657 2.4732 1.3642 0.62156 3.1791 0.86198 4.0331 0.53427s1.4811-0.20314 1.3934 0.27684c-0.45513 2.4931 1.3025 3.1497 3.9469 1.4746zm-37.495-2.6874c4.7938-2.6793 5.9172-4.4145 2.8581-4.4145-2.4135 0-9.4248 4.8792-8.699 6.0536 0.77481 1.2537 0.55451 1.3155 5.8409-1.6391zm124.63-0.30636c0-2.1212-9.2534-10.916-14.152-13.451l-5.3483-2.7673 3.5 2.7588c1.925 1.5174 5.975 5.3228 9 8.4566 5.4291 5.6244 7 6.747 7 5.0024zm-98.588-3.7129c1.8307-0.7025 1.1441-2.3952-0.97149-2.3952-0.79254 0-1.441 0.675-1.441 1.5 0 1.6823 0.18368 1.7505 2.4125 0.89522zm-38.917-7.2334c-0.3076-0.30759-2.0074 0.94468-3.7772 2.7828l-3.218 3.3421 3.7772-2.7828c2.0775-1.5306 3.5255-3.0345 3.218-3.3421zm26.922 2.8104c1.6042-1.6347 2.6167-3.2722 2.25-3.6389-0.68606-0.68606-6.5892 4.5749-6.6389 5.9167-0.05432 1.4665 1.5126 0.65326 4.3889-2.2778zm7.3542 0.21528c0.59996-1.7999-1.467-1.4216-2.1645 0.39606-0.37373 0.97391-0.15024 1.4311 0.58051 1.1875 0.6535-0.21783 1.3663-0.93044 1.584-1.5836zm-9.7708-6.3778c0-1.3144-2.2728-0.49134-2.7711 1.0035-0.24358 0.73075 0.21359 0.95424 1.1875 0.58051 0.87096-0.33422 1.5836-1.047 1.5836-1.584zm108.86-21.687c0.9172-0.59211-0.8774-1.2662-5.5-2.0661-8.3535-1.4453-18.362-5.7321-18.362-7.8648 0-0.84409-0.60602-2.2451-1.3467-3.1134-2.0906-2.4508-4.8145-13.671-5.4029-22.256l-0.53279-7.7732-3.2866 2.7252c-2.9188 2.4202-3.2947 3.3073-3.3588 7.9259-0.08349 6.014 1.5628 14.608 3.5408 18.483 0.75338 1.476 3.8526 5.3654 6.8872 8.6431l5.5174 5.9594 10.241 0.10782c5.6327 0.05931 10.854-0.28767 11.603-0.77105zm-353.61-11.769c4.4702-2.2843 3.1658-2.3632-3.25-0.1965-3.3 1.1144-6 2.2457-6 2.5139 0 0.78186 6.2483-0.7835 9.25-2.3174zm72.788-11.572c5.7351-2.8016 11.012-6.2218 13.397-8.6838 4.5817-4.7292 4.1982-6.4457-0.61934-2.772-8.2574 6.2966-23.363 11.554-38.184 13.29-5.58 0.65346-5.7519 0.75472-3.5 2.0622 1.6484 0.95706 4.9634 1.2764 10.907 1.0506 7.7956-0.2962 9.3614-0.72646 18-4.9465zm-76.513-4.798c2.8175-1.7413 6.1352-6.699 6.9336-10.361 0.13468-0.61775 1.2161-3.2234 2.4031-5.7904s2.6097-7.067 3.1616-10c2.4812-13.187 6.0152-18.701 16.324-25.469 4.0745-2.6749 8.2506-5.4195 9.28-6.099 1.6457-1.0863 1.5095-1.1648-1.1282-0.64987-4.3337 0.84606-16.716 6.8413-18.639 9.0244-2.5494 2.8946-6.4697 10.964-10.377 21.361-4.3889 11.678-9.0251 22.434-11.53 26.75-2.1828 3.761-1.1141 4.1303 3.5718 1.2342zm85.052-10.477c5.1772-3.034 10.422-7.3601 10.422-8.5962 0-1.8197-2.3397-0.83695-6.1039 2.5638-2.1154 1.9112-7.0075 5.0668-10.871 7.0126s-7.0249 3.713-7.0249 3.9273c0 0.88477 9.6386-2.5989 13.578-4.9074zm-28.578 3.5438c5.8894-1.0479 3.6258-1.6116-8.5-2.1165-6.0711-0.25281-8.5493 1.0216-4.309 2.2158 3.1529 0.888 7.4476 0.85471 12.809-0.09928zm19-8.0602c4.2615-1.2151 6.6594-2.6648 5.8111-3.5131-0.34704-0.34704-3.709 0.50391-7.471 1.891-6.8485 2.5251-5.642 3.7042 1.66 1.6221zm-8.8008-4.0701c5.3346-1.6211 9.9756-3.3946 10.313-3.9412 1.2813-2.0732-2.7692-2.0997-11.56-0.07571-5.0071 1.1529-11.947 2.0961-15.421 2.0961-6.4434 0-7.5315 0.67658-7.5315 4.6833 0 2.2773 12.196 0.88501 24.199-2.7625zm-27.449-2.5042c-0.95295-0.95296-2.8635 0.5906-2.1533 1.7397 0.42212 0.683 0.98146 0.66575 1.6996-0.05243 0.58876-0.58876 0.79291-1.348 0.45366-1.6873zm-18.308-6.4659c1.486-3.3112 2.514-6.5672 2.2845-7.2355-0.42014-1.2234-5.7985 8.6397-7.24 13.277-1.4626 4.7055 2.0597 0.41124 4.9555-6.0415zm91.325 0.79936c2.5449-1.7875 6.001-4.0186 7.6802-4.9581 5.4177-3.031 0.2637-1.8232-6.4357 1.5081-3.6481 1.814-6.6353 3.9869-6.8233 4.9633-0.46426 2.4107 0.27943 2.209 5.5789-1.5133zm134.23-1.75c0-0.55-0.7875-0.99311-1.75-0.98469-1.4956 0.01309-1.5319 0.15626-0.25 0.98469 1.8872 1.2196 2 1.2196 2 0zm-78.6-9.8105c-2.1451-1.8751-4.868-4.0572-6.0508-4.8492-2.8125-1.8832-15.808-3.0253-16.767-1.4735-0.47916 0.77531 0.62146 1.1332 3.485 1.1332 4.3956 0 13.717 4.1177 19.391 8.5659 4.6214 3.6229 4.5702 0.66965-0.05849-3.3764zm48.096 2.8853c-2.2023-0.98117-5.1273-2.1227-6.5-2.5367-2.2324-0.6733-2.3375-0.59084-0.99584 0.78127 1.4786 1.5121 7.0743 3.4817 10 3.5198 0.825 0.01076-0.30187-0.78322-2.5042-1.7644zm-111.5-7.0748c0.825-0.53316 1.05-0.96937 0.5-0.96937s-1.675 0.43621-2.5 0.96937-1.05 0.96937-0.5 0.96937 1.675-0.43621 2.5-0.96937zm79-1.3395c0-0.73672-1.2375-1.9014-2.75-2.5882l-2.75-1.2487 2.4243 2.5882c2.7802 2.9681 3.0757 3.0881 3.0757 1.2487zm-105.27-12.265c-0.3323-0.33229-1.1948-0.36781-1.9167-0.07894-0.79773 0.31922-0.56078 0.55618 0.60417 0.60416 1.0542 0.04342 1.6448-0.19292 1.3125-0.52522zm-29.812-4.0365c1.0035-0.86538-3.5663-0.22744-4.9167 0.68637-1.0955 0.74131-0.69092 0.83408 1.5 0.34401 1.65-0.36908 3.1875-0.83275 3.4167-1.0304zm46.721-1.0546c-0.70086-0.70085-7.6381 0.84334-7.6381 1.7002 0 0.43031 1.8162 0.32139 4.0359-0.24204s3.8407-1.2196 3.6022-1.4582zm-65.638 0.25426c0-0.79254-0.45-1.7191-1-2.059s-1-0.40328-1-0.1408-0.27314 1.189-0.60699 2.059c-0.39831 1.038-0.05452 1.5818 1 1.5818 0.88385 0 1.607-0.64844 1.607-1.441zm37.304-1.7175c2.6422-0.58679 4.5797-1.2912 4.3055-1.5654-0.7555-0.75549-17.035 1.737-18.675 2.8593-1.678 1.148 6.8199 0.38277 14.37-1.294zm211.7 0.84596c0-0.72189-2.7098-5.2837-6.0218-10.137-13.658-20.015-23.582-29.977-42.978-43.142-18.568-12.603-36.948-19.477-45.96-17.19-2.222 0.56401-4.04 1.3962-4.04 1.8493s3.1159 2.4612 6.9241 4.4624c3.8893 2.0438 10.472 6.9342 15.018 11.158 10.732 9.9706 25.806 29.546 30.079 39.063 1.6411 3.655 2.3356 4.25 4.9606 4.25h3.0524l-2.4113-4.75c-1.3262-2.6125-4.0338-7.1577-6.0168-10.1-3.9077-5.7989-4.0611-6.1495-2.6907-6.1495 1.184 0 7.1017 8.1002 10.593 14.5 2.8956 5.3077 5.4921 8.5847 5.4921 6.9316 0-1.038-5.6892-11.722-9.0163-16.932-4.017-6.2903-4.0476-6.8578-0.13777-2.5604 2.2216 2.4418 6.3664 8.4043 9.2106 13.25 4.7466 8.0866 7.9434 11.034 7.9434 7.3238 0-0.81761-3.5141-6.1051-7.8091-11.75l-12.5-16.419c-2.58-3.3858-4.6909-6.3751-4.6909-6.643s0.69418-0.75345 1.5426-1.079c1.0168-0.39017 3.9392 1.7039 8.5732 6.143 6.962 6.6694 11.318 9.7254 7.301 5.1222-3.582-4.1048-9.861-11.108-11.167-12.455-1.6706-1.7232-1.5892-2.7266 0.1405-1.7319 2.4509 1.4095 15.863 13.575 22.931 20.8 6.2847 6.4238 16.678 20.278 16.678 22.232 0 1.3323 3.0307 5.2677 4.0567 5.2677 0.51882 0 0.9433-0.59063 0.9433-1.3125zm-236.33-5.6009c7.1805-13.581 27.457-33.45 40.852-40.031 2.7362-1.3443 8.125-4.9829 11.975-8.0858s8.2515-6.4514 9.7812-7.4412c5.0195-3.248 2.1641-2.6419-6.6524 1.412-4.7643 2.1907-8.9215 4.6585-9.2383 5.484s-3.1217 2.4511-6.2332 3.6124c-10.557 3.9402-26.537 15.297-38.96 27.688-7.6342 7.6145-10.197 12.005-10.197 17.47 0 3.1516 0.11993 3.0566 3.6256-2.8693 1.9941-3.3708 6.8201-9.2105 10.725-12.977s6.098-5.6946 4.8744-4.2841-2.2246 3.0195-2.2246 3.5757-1.1751 2.1022-2.6114 3.4356c-3.2443 3.0118-9.8551 12.623-10.845 15.766-1.3174 4.1851 2.561 2.1016 5.129-2.7554zm8.0926-2.0866c1.3386-2.475 3.9578-6.75 5.8203-9.5 6.4484-9.5212 6.6011-9.9748 1.5144-4.5-5.2262 5.6249-13.1 16.582-13.1 18.23 0 2.4182 3.5974-0.22079 5.7656-4.2296zm6.2344 1.2455c0-2.3893 6.3477-12.712 12.886-20.955l5.3857-6.7902-5.2039 5c-5.3396 5.1304-12.509 14.52-15.425 20.2-2.0834 4.0593-2.0635 4.2997 0.35741 4.2997 1.24 0 2-0.66667 2-1.7545zm182 1.3614c0-0.21616-0.675-0.65203-1.5-0.96862s-1.5-0.13972-1.5 0.39301 0.675 0.96862 1.5 0.96862 1.5-0.17686 1.5-0.39301zm22-0.44121c0-1.4494-8.0106-12.341-15.566-21.164-12.318-14.385-14.281-16.488-14.856-15.913-0.52854 0.52854 2.1497 3.8329 12.525 15.453 5.3876 6.034 12.897 15.836 12.897 16.835 0 0.38187 0.72675 1.8035 1.615 3.1591 1.5824 2.415 3.385 3.2834 3.385 1.6306zm-193.23-6.4158c3.148-5.5731 16.693-20.635 15.518-17.256-0.38136 1.0966-2.886 4.6966-5.5659 8-6.5162 8.0322-8.0522 11.345-2.2051 4.7561 4.3245-4.8732 6.4788-6.3606 6.4788-4.4731 0 0.4273-1.8522 3.2398-4.1159 6.25-3.4634 4.6054-3.8367 5.5288-2.3547 5.8244 1.0582 0.21109 2.7301-0.88659 4.1884-2.75 1.3349-1.7057 3.0695-3.1013 3.8547-3.1013 1.7004 0 1.7646 0.50167 0.39234 3.0657-0.80615 1.5063-0.70859 1.9343 0.44098 1.9343 0.81189 0 1.7282-0.40775 2.0362-0.90612s1.4227-0.68052 2.4771-0.40479 9.0414-0.18893 17.749-1.0326c32.188-3.1186 48.164-3.9327 67.66-3.4479 21.41 0.53242 20.341 0.79458 18.179-4.4586-1.2689-3.0822 0.90004-1.8291 3.9354 2.2736 2.5917 3.5031 6.5582 5.4169 6.5582 3.1642 0-1.3978-3.9349-9.0296-4.9926-9.6833-0.55406-0.34243-1.0074-1.5567-1.0074-2.6984 0-1.8591 0.23268-1.7746 2.2287 0.80902 1.2258 1.5867 2.6883 3.368 3.25 3.9584s1.9112 2.7279 2.9987 4.75c1.1472 2.133 2.7301 3.6765 3.7703 3.6765 1.6661 0 1.64-0.30072-0.3687-4.25-1.1889-2.3375-3.898-6.8693-6.0203-10.071s-3.8587-6.069-3.8587-6.3724c0-1.2722 3.4888 2.5058 7.3552 7.9649 2.2797 3.2188 5.4303 7.6515 7.0014 9.8504s3.1136 3.741 3.4279 3.4268c1.2011-1.2011-8.7137-16.483-15.107-23.284-4.5784-4.8707-2.6662-4.8715 2.3998-0.00101 6.0298 5.7971 11.121 12.162 15.364 19.209 1.9573 3.2504 3.5576 5.2613 3.5562 4.4687-0.00311-1.7456-6.0918-11.999-10.235-17.237-1.6517-2.0879-2.687-4.1122-2.3008-4.4984s1.228-0.02802 1.8706 0.79611 2.0294 2.1734 3.082 2.9984c4.2268 3.313-0.40529-2.8208-7.6586-10.142-13.11-13.232-29.672-24.009-41.859-27.237-2.9678-0.78616-6.6627-1.9226-8.211-2.5253-3.9802-1.5495-17.784-1.3997-20.212 0.21936-1.0849 0.72341-3.885 1.8665-6.2225 2.5401s-4.25 1.713-4.25 2.3097c0 0.68396-1.1662 0.85162-3.1558 0.45371-2.4722-0.49444-4.5165 0.1168-9.438 2.822-15.721 8.6413-31.273 23.039-40.573 37.56-5.0331 7.8593-9.8337 16.417-9.8337 17.53 0 1.3475 1.0999-0.04562 3.7746-4.7808zm72.725-11.36-4-5.3383-5.75-0.02573c-5.8854-0.02634-6.9367-0.79594-4.1954-3.071 3.4195-2.8379 3.7134-4.9134 1.1709-8.269-1.3276-1.7521-2.9803-4.2554-3.6729-5.5628-1.725-3.2567-0.17075-4.0882 7.677-4.1075 6.2229-0.01529 6.2318-0.01953 8.2074-3.892 2.8975-5.6796 4.6862-5.9073 9.4884-1.2082 4.0243 3.938 4.1761 3.99 12.324 4.2257 4.5375 0.13126 8.25 0.56068 8.25 0.95428s-1.575 2.6008-3.5 4.9049-3.5 4.398-3.5 4.6532 1.4069 2.2148 3.1265 4.3545c4.6198 5.7487 3.545 7.3304-4.4024 6.4793l-6.2775-0.67227-4.4452 5.5708c-2.4449 3.0639-4.9078 5.7444-5.4733 5.9566s-2.8281-2.0164-5.0281-4.9524zm8.108-3.1397c1.9774-2.6049 1.6913-3.25-1.4413-3.25-3.7693 0-4.5224 0.94939-2.5139 3.1688 2.043 2.2575 2.2991 2.2628 3.9551 0.08115zm5.7347-8.0795c3.7474-3.3518 3.9777-5.0618 1.1761-8.7348-2.5411-3.3315-2.8306-3.4357-9.5493-3.4357h-6.9288l-2.0582 4.0343c-2.1088 4.1336-1.9961 4.9987 1.1026 8.4657 1.5046 1.6835 2.7868 1.9461 8.1012 1.6593 4.051-0.2186 6.974-0.93135 8.1563-1.9888zm8.6574-0.17048c-0.90009-1.6818-4-2.9077-4-1.5818 0 0.23002-0.27314 1.13-0.60699 2-0.47413 1.2356 0.08078 1.5818 2.5352 1.5818 2.8323 0 3.0366-0.19724 2.0718-2zm-28.032-10.75c0.01954-0.76796-1.3179-1.25-3.4682-1.25-4.0764 0-4.2763 0.54472-1.3451 3.6649 2.0135 2.1433 2.241 2.1803 3.4682 0.56446 0.72232-0.95113 1.3276-2.2918 1.3451-2.9793zm28.818-0.05481c1.4215-2.141 1.3557-2.1952-2.6644-2.1952-4.558 0-4.9149 0.46638-2.445 3.1956 1.9852 2.1937 3.1385 1.9679 5.1094-1.0004zm-15.786-5.5402c0-0.73976-0.86419-2.1271-1.9204-3.083-1.8304-1.6565-1.971-1.6434-3 0.27927-1.7196 3.2132-1.2866 4.1487 1.9204 4.1487 1.8464 0 3-0.51722 3-1.345zm-1.25 43.629c-1.5125-0.22913-3.9875-0.22913-5.5 0s-0.275 0.41659 2.75 0.41659 4.2625-0.18747 2.75-0.41659zm80.201-8.3807c-1.1495-2.2533-2.3029-3.8841-2.563-3.624-0.63703 0.63703 2.9087 7.6652 3.8828 7.6963 0.42368 0.01353-0.17021-1.819-1.3198-4.0723zm-60.951-58.903c-1.9388-1.2529-3-1.2529-3 0 0 0.55 1.0125 0.99311 2.25 0.98469 1.8194-0.01238 1.963-0.20081 0.75-0.98469zm-6.6325-4.2113c-0.24071-0.3912-2.1094-1.0124-4.1526-1.3804s-4.2431-1.0871-4.8887-1.5979c-0.76069-0.60193-2.6084-0.19695-5.25 1.1507-2.2419 1.1437-4.0762 2.2053-4.0762 2.3589s4.2312 0.25703 9.4026 0.22968 9.2056-0.3698 8.9649-0.761zm71.299 535.2c-3.2082-2.7461-6.9176-5.2651-8.2431-5.5978s-2.127-1.0628-1.7812-1.6224c0.60376-0.9769 10.89-0.40983 16.107 0.88797 3.2543 0.80952 2.7634 2.3429-0.75 2.3429-1.65 0-3 0.36581-3 0.81291s1.35 2.1063 3 3.6871 3 3.24 3 3.6871c0 1.9184-2.8864 0.46442-8.3331-4.1978zm-195.23-0.08861c-0.3514-0.56857-0.45599-1.2167-0.23243-1.4403 0.55868-0.55867 13.508-3.2884 23.794-5.0159 11.99-2.0137 38-3.1093 38-1.6007 0 0.63587-1.125 1.2124-2.5 1.2811s-2.8375 0.21251-3.25 0.31946-4.8 0.53136-9.75 0.94313c-9.41 0.78277-26.436 3.0491-34.364 4.5742-9.4583 1.8195-11.073 1.9491-11.698 0.93891z"/>
</svg>
