<?xml version='1.0' encoding='utf-8'?>
<svg xmlns="http://www.w3.org/2000/svg" enable-background="new 0 0 56.2 26.3" version="1.1" viewBox="0 0 56.2 26.3">
<radialGradient id="ce" cx="16.512" cy="-11.364" r="14.753" gradientTransform="matrix(.4567 .8896 .8896 -.4567 20.219 -10.38)" gradientUnits="userSpaceOnUse">
	<stop stop-color="#523729" offset="0"/>
	<stop stop-color="#473125" offset="1"/>
</radialGradient>
<path d="m30.75 9.6c0.3 0.167 0.9 1.017 1.8 2.55 0.834 1.5 1.316 2.25 1.45 2.25 0.4 0 0.833 0.216 1.3 0.649 0.601 0.601 0.767 1.384 0.5 2.351-0.267 0.966-0.967 1.449-2.1 1.449l-1.6-0.349c-0.399-0.134-0.866-0.2-1.399-0.2-1-0.033-1.733 0.25-2.2 0.851-0.5 0.699-1.6 1.05-3.3 1.05-1.5 0-2.684-0.217-3.55-0.65-0.5-0.233-1.167-0.2-2 0.101-1 0.399-1.8 0.566-2.4 0.5-0.3-0.034-1.25-0.4-2.85-1.101-1.167-0.533-2.217-0.633-3.15-0.3-0.967 0.333-2.167 0.2-3.6-0.4-1.267-0.666-1.967-1.033-2.1-1.1-0.2-0.066-0.5-0.384-0.9-0.95-0.367-0.566-0.517-0.916-0.45-1.05 0.066-0.134 0.283-0.316 0.65-0.55 0.767-0.5 1.217-0.8 1.35-0.9 0.867-0.667 2.35-1.417 4.45-2.25 0.434-0.167 1.217-0.45 2.35-0.85 1-0.4 1.7-0.784 2.1-1.15 3.267-3.1 5.033-4.95 5.3-5.55 1.567-0.267 3.233 0.117 5 1.15 0.567 0.3 0.783 0.75 0.65 1.35-0.168 0.699-0.184 1.132-0.051 1.299 0.2 0.3 0.95 0.65 2.25 1.05 1.533 0.433 2.366 0.683 2.5 0.75z" clip-rule="evenodd" fill="url(#ce)" fill-rule="evenodd"/>
<radialGradient id="av" cx="13.554" cy="-20.657" r="2.9909" gradientTransform="matrix(.4556 .8902 .9738 -.4179 39.141 -16.799)" gradientUnits="userSpaceOnUse">
	<stop stop-color="#7D4E35" offset="0"/>
	<stop stop-color="#593826" offset="1"/>
</radialGradient>
<path d="m25.35 2.3c1.133-0.167 2 0.25 2.6 1.25s0.533 1.917-0.2 2.75c-0.533 0.6-1.35 0.833-2.45 0.7-1.033-0.133-1.716-0.483-2.05-1.05-0.467-0.833-0.517-1.6-0.15-2.3 0.4-0.767 1.15-1.217 2.25-1.35z" clip-rule="evenodd" fill="url(#av)" fill-rule="evenodd"/>
<radialGradient id="bg" cx="13.97" cy="-10.842" r="2.9909" gradientTransform="matrix(.4556 .8902 .9738 -.4179 20.544 -8.8174)" gradientUnits="userSpaceOnUse">
	<stop stop-color="#7D4E35" offset="0"/>
	<stop stop-color="#593826" offset="1"/>
</radialGradient>
<path d="m16.5 6.55c1.133-0.133 2 0.3 2.6 1.3s0.533 1.9-0.2 2.7c-0.5 0.6-1.3 0.833-2.4 0.7-1.067-0.1-1.767-0.433-2.1-1-0.433-0.833-0.483-1.6-0.15-2.3 0.4-0.767 1.15-1.233 2.25-1.4z" clip-rule="evenodd" fill="url(#bg)" fill-rule="evenodd"/>
<radialGradient id="bp" cx="14.241" cy="-.4482" r="2.9909" gradientTransform="matrix(.4556 .8902 .9738 -.4179 .8493 -.3646)" gradientUnits="userSpaceOnUse">
	<stop stop-color="#7D4E35" offset="0"/>
	<stop stop-color="#593826" offset="1"/>
</radialGradient>
<path d="m7.05 10.9c1.133-0.133 2 0.3 2.6 1.3s0.55 1.9-0.15 2.7c-0.533 0.6-1.35 0.833-2.45 0.699-1.066-0.1-1.75-0.433-2.05-1-0.467-0.833-0.517-1.6-0.15-2.3 0.367-0.766 1.1-1.232 2.2-1.399z" clip-rule="evenodd" fill="url(#bp)" fill-rule="evenodd"/>
<radialGradient id="bq" cx="18.857" cy="-7.1763" r="2.9909" gradientTransform="matrix(.4556 .8902 .9738 -.4179 13.598 -5.8361)" gradientUnits="userSpaceOnUse">
	<stop stop-color="#7D4E35" offset="0"/>
	<stop stop-color="#593826" offset="1"/>
</radialGradient>
<path d="m15.35 12.35c1.133-0.133 2 0.3 2.6 1.3s0.533 1.9-0.2 2.7c-0.533 0.601-1.35 0.834-2.45 0.7-1.033-0.1-1.716-0.434-2.05-1-0.467-0.833-0.517-1.6-0.15-2.3 0.4-0.767 1.15-1.233 2.25-1.4z" clip-rule="evenodd" fill="url(#bq)" fill-rule="evenodd"/>
<radialGradient id="br" cx="24.412" cy="-9.3145" r="2.9909" gradientTransform="matrix(.4556 .8902 .9738 -.4179 17.649 -7.5749)" gradientUnits="userSpaceOnUse">
	<stop stop-color="#7D4E35" offset="0"/>
	<stop stop-color="#593826" offset="1"/>
</radialGradient>
<path d="m19.8 16.45c1.167-0.167 2.05 0.25 2.65 1.25 0.566 1 0.5 1.916-0.2 2.75-0.533 0.6-1.35 0.833-2.45 0.7-1.033-0.134-1.716-0.483-2.05-1.051-0.467-0.833-0.517-1.6-0.15-2.3 0.367-0.766 1.1-1.216 2.2-1.349z" clip-rule="evenodd" fill="url(#br)" fill-rule="evenodd"/>
<radialGradient id="bs" cx="17.335" cy="-15.638" r="2.9909" gradientTransform="matrix(.4556 .8902 .9738 -.4179 29.631 -12.717)" gradientUnits="userSpaceOnUse">
	<stop stop-color="#7D4E35" offset="0"/>
	<stop stop-color="#593826" offset="1"/>
</radialGradient>
<path d="m22.45 7.65c1.133-0.133 2 0.3 2.6 1.3s0.534 1.9-0.2 2.7c-0.533 0.6-1.35 0.833-2.45 0.7-1.033-0.1-1.717-0.434-2.05-1-0.467-0.867-0.517-1.65-0.15-2.35 0.4-0.767 1.15-1.217 2.25-1.35z" clip-rule="evenodd" fill="url(#bs)" fill-rule="evenodd"/>
<radialGradient id="bt" cx="22.896" cy="-17.284" r="2.9909" gradientTransform="matrix(.4556 .8902 .9738 -.4179 32.751 -14.056)" gradientUnits="userSpaceOnUse">
	<stop stop-color="#7D4E35" offset="0"/>
	<stop stop-color="#593826" offset="1"/>
</radialGradient>
<path d="m26.5 11.95c1.133-0.167 2 0.25 2.6 1.25 0.601 1 0.551 1.916-0.149 2.75-0.533 0.6-1.35 0.833-2.45 0.7-1.067-0.134-1.767-0.483-2.1-1.051-0.433-0.833-0.483-1.6-0.15-2.3 0.399-0.766 1.149-1.216 2.249-1.349z" clip-rule="evenodd" fill="url(#bt)" fill-rule="evenodd"/>
<radialGradient id="cp" cx="25.393" cy="-22.401" r="2.9909" gradientTransform="matrix(.4556 .8902 .9738 -.4179 42.446 -18.217)" gradientUnits="userSpaceOnUse">
	<stop stop-color="#7D4E35" offset="0"/>
	<stop stop-color="#593826" offset="1"/>
</radialGradient>
<path d="m32.35 12.15c1.134-0.133 2 0.3 2.601 1.3 0.6 1 0.55 1.899-0.15 2.7-0.533 0.6-1.35 0.833-2.45 0.699-1.066-0.1-1.75-0.433-2.05-1-0.467-0.866-0.517-1.649-0.149-2.35 0.365-0.766 1.098-1.216 2.198-1.349z" clip-rule="evenodd" fill="url(#cp)" fill-rule="evenodd"/>
<radialGradient id="bu" cx="29.79" cy="-25.6" r="2.9909" gradientTransform="matrix(.4556 .8902 .9738 -.4179 48.508 -20.819)" gradientUnits="userSpaceOnUse">
	<stop stop-color="#7D4E35" offset="0"/>
	<stop stop-color="#593826" offset="1"/>
</radialGradient>
<path d="m37.3 14.8c1.134-0.166 2 0.25 2.601 1.25 0.6 1.033 0.55 1.95-0.15 2.75-0.533 0.601-1.35 0.834-2.45 0.7-1.066-0.134-1.75-0.483-2.05-1.05-0.467-0.834-0.517-1.601-0.15-2.3 0.366-0.766 1.099-1.216 2.199-1.35z" clip-rule="evenodd" fill="url(#bu)" fill-rule="evenodd"/>
<radialGradient id="bv" cx="20.352" cy="-23.319" r="2.9909" gradientTransform="matrix(.4556 .8902 .9738 -.4179 44.186 -18.964)" gradientUnits="userSpaceOnUse">
	<stop stop-color="#7D4E35" offset="0"/>
	<stop stop-color="#593826" offset="1"/>
</radialGradient>
<path d="m30.9 7.3c1.133-0.167 2 0.25 2.6 1.25s0.55 1.917-0.15 2.75c-0.534 0.6-1.35 0.833-2.45 0.7-1.067-0.133-1.75-0.483-2.051-1.05-0.466-0.833-0.517-1.6-0.149-2.3 0.366-0.767 1.1-1.217 2.2-1.35z" clip-rule="evenodd" fill="url(#bv)" fill-rule="evenodd"/>
<radialGradient id="bw" cx="9.7661" cy="-18.007" r="2.907" gradientTransform="matrix(.4558 .8901 .9761 -.4171 34.175 -14.604)" gradientUnits="userSpaceOnUse">
	<stop stop-color="#8D5739" offset="0"/>
	<stop stop-color="#5E3B29" offset="1"/>
</radialGradient>
<path d="m21.2 0.05c1.1-0.167 1.95 0.233 2.55 1.2 0.6 1 0.55 1.9-0.15 2.7-0.533 0.566-1.333 0.783-2.4 0.65-1.034-0.1-1.7-0.434-2-1-0.434-0.8-0.483-1.55-0.15-2.25 0.367-0.733 1.083-1.167 2.15-1.3z" clip-rule="evenodd" fill="url(#bw)" fill-rule="evenodd"/>
<radialGradient id="bx" cx="12.362" cy="-14.368" r="3.054" gradientTransform="matrix(.4341 .9009 .9295 -.4218 26.443 -11.998)" gradientUnits="userSpaceOnUse">
	<stop stop-color="#8D5739" offset="0"/>
	<stop stop-color="#5E3B29" offset="1"/>
</radialGradient>
<path d="m18.6 3.5c1.133-0.133 1.983 0.317 2.55 1.35s0.5 1.967-0.2 2.8c-0.5 0.633-1.284 0.883-2.35 0.75-1.033-0.133-1.7-0.5-2-1.1-0.467-0.867-0.517-1.667-0.15-2.4 0.367-0.767 1.083-1.233 2.15-1.4z" clip-rule="evenodd" fill="url(#bx)" fill-rule="evenodd"/>
<radialGradient id="by" cx="17.504" cy="-19.575" r="3.0178" gradientTransform="matrix(.4389 .8985 .9399 -.4224 36.264 -16.295)" gradientUnits="userSpaceOnUse">
	<stop stop-color="#8D5739" offset="0"/>
	<stop stop-color="#5E3B29" offset="1"/>
</radialGradient>
<path d="m25.7 6.05c1.133-0.133 1.983 0.3 2.55 1.3 0.566 1.033 0.5 1.967-0.2 2.8-0.5 0.6-1.283 0.833-2.35 0.7-1.034-0.133-1.7-0.483-2-1.05-0.467-0.833-0.517-1.617-0.15-2.35 0.367-0.767 1.083-1.233 2.15-1.4z" clip-rule="evenodd" fill="url(#by)" fill-rule="evenodd"/>
<radialGradient id="bz" cx="14.644" cy="-4.9097" r="2.907" gradientTransform="matrix(.4558 .8901 .9761 -.4171 9.3179 -3.982)" gradientUnits="userSpaceOnUse">
	<stop stop-color="#8D5739" offset="0"/>
	<stop stop-color="#5E3B29" offset="1"/>
</radialGradient>
<path d="m11.35 9.55c1.133-0.167 1.983 0.233 2.55 1.2 0.567 1 0.5 1.9-0.2 2.7-0.5 0.566-1.284 0.783-2.35 0.649-1.033-0.1-1.717-0.433-2.05-1-0.433-0.8-0.466-1.55-0.1-2.25 0.367-0.732 1.083-1.166 2.15-1.299z" clip-rule="evenodd" fill="url(#bz)" fill-rule="evenodd"/>
<radialGradient id="ca" cx="22.29" cy="-11.652" r="2.907" gradientTransform="matrix(.4558 .8901 .9761 -.4171 22.114 -9.4498)" gradientUnits="userSpaceOnUse">
	<stop stop-color="#8D5739" offset="0"/>
	<stop stop-color="#5E3B29" offset="1"/>
</radialGradient>
<path d="m21.05 13.65c1.1-0.133 1.95 0.283 2.55 1.25 0.6 1 0.55 1.883-0.15 2.649-0.534 0.601-1.333 0.834-2.4 0.7-1.033-0.1-1.7-0.434-2-1-0.433-0.8-0.483-1.55-0.15-2.25 0.367-0.732 1.083-1.182 2.15-1.349z" clip-rule="evenodd" fill="url(#ca)" fill-rule="evenodd"/>
<radialGradient id="cb" cx="27.461" cy="-18.642" r="2.907" gradientTransform="matrix(.4558 .8901 .9761 -.4171 35.379 -15.118)" gradientUnits="userSpaceOnUse">
	<stop stop-color="#8D5739" offset="0"/>
	<stop stop-color="#5E3B29" offset="1"/>
</radialGradient>
<path d="m29.85 15.55c1.134-0.133 1.983 0.283 2.551 1.25 0.566 1 0.5 1.884-0.2 2.65-0.5 0.566-1.283 0.8-2.351 0.7-1.033-0.134-1.716-0.467-2.05-1-0.433-0.834-0.483-1.601-0.15-2.301 0.367-0.733 1.1-1.165 2.2-1.299z" clip-rule="evenodd" fill="url(#cb)" fill-rule="evenodd"/>
<radialGradient id="cc" cx="20.021" cy="-3.6064" r="2.907" gradientTransform="matrix(.4558 .8901 .9761 -.4171 6.8445 -2.9251)" gradientUnits="userSpaceOnUse">
	<stop stop-color="#8D5739" offset="0"/>
	<stop stop-color="#5E3B29" offset="1"/>
</radialGradient>
<path d="m12.6 14.85c1.1-0.166 1.95 0.233 2.55 1.2 0.567 1 0.5 1.9-0.2 2.7-0.5 0.566-1.284 0.783-2.35 0.65-1.033-0.101-1.717-0.434-2.05-1-0.433-0.801-0.483-1.551-0.15-2.25 0.367-0.733 1.1-1.167 2.2-1.3z" clip-rule="evenodd" fill="url(#cc)" fill-rule="evenodd"/>
<radialGradient id="cd" cx="14.733" cy="4.7896" r="2.907" gradientTransform="matrix(.4558 .8901 .9761 -.4171 -9.09 3.8839)" gradientUnits="userSpaceOnUse">
	<stop stop-color="#8D5739" offset="0"/>
	<stop stop-color="#5E3B29" offset="1"/>
</radialGradient>
<path d="m2.45 13.45c1.133-0.133 1.983 0.283 2.55 1.25s0.517 1.85-0.15 2.649c-0.533 0.567-1.333 0.801-2.4 0.7-1.034-0.133-1.7-0.467-2-1-0.434-0.833-0.483-1.6-0.15-2.3 0.367-0.732 1.083-1.166 2.15-1.299z" clip-rule="evenodd" fill="url(#cd)" fill-rule="evenodd"/>
<radialGradient id="cf" cx="11.158" cy="-8.5854" r="2.907" gradientTransform="matrix(.4558 .8901 .9761 -.4171 16.294 -6.963)" gradientUnits="userSpaceOnUse">
	<stop stop-color="#8D5739" offset="0"/>
	<stop stop-color="#5E3B29" offset="1"/>
</radialGradient>
<path d="m13.15 5c1.133-0.133 1.983 0.283 2.55 1.25 0.566 0.967 0.517 1.85-0.15 2.65-0.533 0.567-1.333 0.8-2.4 0.7-1.033-0.133-1.7-0.467-2-1-0.433-0.833-0.483-1.6-0.15-2.3 0.367-0.733 1.083-1.167 2.15-1.3z" clip-rule="evenodd" fill="url(#cf)" fill-rule="evenodd"/>
<radialGradient id="cg" cx="22.954" cy="-24.07" r="2.907" gradientTransform="matrix(.4558 .8901 .9761 -.4171 45.682 -19.521)" gradientUnits="userSpaceOnUse">
	<stop stop-color="#8D5739" offset="0"/>
	<stop stop-color="#5E3B29" offset="1"/>
</radialGradient>
<path d="m32.8 9.4c1.134-0.133 1.983 0.283 2.55 1.25s0.517 1.85-0.149 2.65c-0.533 0.567-1.334 0.783-2.4 0.65-1.033-0.1-1.7-0.434-2-1-0.434-0.8-0.483-1.55-0.149-2.25 0.365-0.733 1.081-1.167 2.148-1.3z" clip-rule="evenodd" fill="url(#cg)" fill-rule="evenodd"/>
<radialGradient id="ch" cx="27.556" cy="-12.826" r="3.0188" gradientTransform="matrix(.4389 .8985 .9399 -.4224 23.761 -10.676)" gradientUnits="userSpaceOnUse">
	<stop stop-color="#8D5739" offset="0"/>
	<stop stop-color="#5E3B29" offset="1"/>
</radialGradient>
<path d="m23.95 17.9c1.133-0.167 1.983 0.267 2.55 1.3 0.567 1 0.5 1.916-0.2 2.75-0.5 0.633-1.283 0.883-2.35 0.75-1.034-0.134-1.717-0.483-2.05-1.05-0.433-0.867-0.467-1.667-0.1-2.4 0.367-0.767 1.083-1.217 2.15-1.35z" clip-rule="evenodd" fill="url(#ch)" fill-rule="evenodd"/>
<radialGradient id="ci" cx="14.872" cy="-8.8745" r="3.1586" gradientTransform="matrix(.4551 .8904 .9735 -.4155 16.821 -7.1799)" gradientUnits="userSpaceOnUse">
	<stop stop-color="#A66B49" offset="0"/>
	<stop stop-color="#865236" offset=".7412"/>
	<stop stop-color="#663D29" offset="1"/>
</radialGradient>
<path d="m15.1 8.05c1.2-0.167 2.117 0.284 2.75 1.35 0.633 1.033 0.566 1.983-0.2 2.85-0.566 0.633-1.433 0.883-2.6 0.75-1.1-0.133-1.816-0.5-2.15-1.1-0.467-0.9-0.517-1.717-0.15-2.45 0.4-0.8 1.183-1.267 2.35-1.4z" clip-rule="evenodd" fill="url(#ci)" fill-rule="evenodd"/>
<radialGradient id="cj" cx="18.527" cy="2.041" r="3.1586" gradientTransform="matrix(.4551 .8904 .9735 -.4155 -3.8689 1.6512)" gradientUnits="userSpaceOnUse">
	<stop stop-color="#A66B49" offset="0"/>
	<stop stop-color="#865236" offset=".7412"/>
	<stop stop-color="#663D29" offset="1"/>
</radialGradient>
<path d="m6.7 15.6c1.2-0.166 2.133 0.284 2.8 1.351 0.633 1.033 0.567 1.983-0.2 2.85-0.533 0.634-1.4 0.884-2.6 0.75-1.1-0.133-1.817-0.5-2.15-1.1-0.5-0.867-0.566-1.684-0.2-2.45 0.4-0.768 1.183-1.234 2.35-1.401z" clip-rule="evenodd" fill="url(#cj)" fill-rule="evenodd"/>
<radialGradient id="ck" cx="19.265" cy="-14.624" r="3.1586" gradientTransform="matrix(.4551 .8904 .9735 -.4155 27.719 -11.832)" gradientUnits="userSpaceOnUse">
	<stop stop-color="#A66B49" offset="0"/>
	<stop stop-color="#865236" offset=".7412"/>
	<stop stop-color="#663D29" offset="1"/>
</radialGradient>
<path d="m22.4 9.7c1.2-0.133 2.117 0.333 2.75 1.4 0.633 1.033 0.567 1.983-0.2 2.85-0.534 0.633-1.4 0.883-2.6 0.75-1.1-0.134-1.817-0.5-2.15-1.1-0.5-0.867-0.55-1.684-0.15-2.45 0.4-0.8 1.183-1.283 2.35-1.45z" clip-rule="evenodd" fill="url(#ck)" fill-rule="evenodd"/>
<radialGradient id="cl" cx="12.57" cy="-16.627" r="3.1586" gradientTransform="matrix(.4551 .8904 .9735 -.4155 31.516 -13.452)" gradientUnits="userSpaceOnUse">
	<stop stop-color="#A66B49" offset="0"/>
	<stop stop-color="#865236" offset=".7412"/>
	<stop stop-color="#663D29" offset="1"/>
</radialGradient>
<path d="m21.2 3c1.2-0.167 2.117 0.283 2.75 1.35 0.633 1.033 0.566 1.983-0.2 2.85-0.567 0.633-1.433 0.883-2.6 0.75-1.1-0.133-1.816-0.5-2.15-1.1-0.5-0.867-0.55-1.684-0.15-2.45 0.4-0.8 1.183-1.267 2.35-1.4z" clip-rule="evenodd" fill="url(#cl)" fill-rule="evenodd"/>
<radialGradient id="cm" cx="23.261" cy="-5.1187" r="3.1608" gradientTransform="matrix(.4551 .8904 .9735 -.4155 9.702 -4.1413)" gradientUnits="userSpaceOnUse">
	<stop stop-color="#A66B49" offset="0"/>
	<stop stop-color="#865236" offset=".7412"/>
	<stop stop-color="#663D29" offset="1"/>
</radialGradient>
<path d="m15.5 17c1.2-0.167 2.117 0.283 2.75 1.35 0.633 1.034 0.567 1.983-0.2 2.851-0.533 0.633-1.4 0.883-2.6 0.75-1.1-0.101-1.817-0.45-2.15-1.05-0.5-0.867-0.55-1.684-0.15-2.45 0.4-0.801 1.183-1.284 2.35-1.451z" clip-rule="evenodd" fill="url(#cm)" fill-rule="evenodd"/>
<radialGradient id="cn" cx="12.472" cy="-16.913" r="1.6553" gradientTransform="matrix(.4229 .9062 .9062 -.4229 30.652 -14.304)" gradientUnits="userSpaceOnUse">
	<stop stop-color="#A66B49" offset="0"/>
	<stop stop-color="#804E33" offset="1"/>
</radialGradient>
<path d="m20.4 3.55c0.6-0.233 1.1-0.3 1.5-0.2 0.367 0.1 0.55 0.333 0.55 0.7 0 0.4-0.167 0.767-0.5 1.1-0.434 0.4-1.034 0.583-1.8 0.55-0.767-0.034-1.033-0.367-0.8-1 0.233-0.6 0.583-0.983 1.05-1.15z" clip-rule="evenodd" fill="url(#cn)" fill-rule="evenodd"/>
<radialGradient id="co" cx="14.589" cy="-7.2813" r="1.4091" gradientTransform="matrix(.4258 .9048 .9048 -.4258 13.177 -6.2001)" gradientUnits="userSpaceOnUse">
	<stop stop-color="#A66B49" offset="0"/>
	<stop stop-color="#804E33" offset="1"/>
</radialGradient>
<path d="m13.4 9.5c0.2 0.4 0.333 0.817 0.4 1.25 0.034 0.5-0.083 0.85-0.35 1.05-0.3 0.2-0.6 0.083-0.9-0.35-0.3-0.434-0.45-0.883-0.45-1.35 0-0.434 0.167-0.717 0.5-0.85 0.367-0.167 0.633-0.083 0.8 0.25z" clip-rule="evenodd" fill="url(#co)" fill-rule="evenodd"/>
<radialGradient id="aw" cx="18.606" cy="-14.938" r="1.7278" gradientTransform="matrix(.4268 .9043 .9043 -.4268 27.016 -12.752)" gradientUnits="userSpaceOnUse">
	<stop stop-color="#A66B49" offset="0"/>
	<stop stop-color="#804E33" offset="1"/>
</radialGradient>
<path d="m20.8 9.85c1.367-0.6 2.15-0.483 2.35 0.35 0.233 0.8-0.233 1.417-1.4 1.85-1 0.367-1.517 0.133-1.55-0.7-0.033-0.767 0.167-1.267 0.6-1.5z" clip-rule="evenodd" fill="url(#aw)" fill-rule="evenodd"/>
<radialGradient id="ax" cx="28.896" cy="-20.632" r="1.5601" gradientTransform="matrix(.4246 .9054 .9054 -.4246 37.359 -17.523)" gradientUnits="userSpaceOnUse">
	<stop stop-color="#A66B49" offset="0"/>
	<stop stop-color="#804E33" offset="1"/>
</radialGradient>
<path d="m30.95 16.5c0.5 0 0.883 0.184 1.149 0.55 0.233 0.334 0.317 0.717 0.25 1.15-0.233 1-0.866 1.217-1.899 0.649-0.5-0.267-0.65-0.733-0.45-1.399 0.2-0.667 0.517-0.983 0.95-0.95z" clip-rule="evenodd" fill="url(#ax)" fill-rule="evenodd"/>
<radialGradient id="ay" cx="29.82" cy="-28.06" r="1.465" gradientTransform="matrix(.4266 .9044 .9044 -.4266 50.756 -23.941)" gradientUnits="userSpaceOnUse">
	<stop stop-color="#A66B49" offset="0"/>
	<stop stop-color="#804E33" offset="1"/>
</radialGradient>
<path d="m37.65 14.35c0.666 0 1.233 0.217 1.699 0.65 0.434 0.4 0.534 0.733 0.301 1-0.334 0.434-1.067 0.35-2.2-0.25-0.5-0.3-0.684-0.616-0.55-0.95 0.133-0.333 0.383-0.484 0.75-0.45z" clip-rule="evenodd" fill="url(#ay)" fill-rule="evenodd"/>
<radialGradient id="az" cx="12.849" cy="-.5107" r="1.259" gradientTransform="matrix(.4272 .9041 .9041 -.4272 .9237 -.4368)" gradientUnits="userSpaceOnUse">
	<stop stop-color="#A66B49" offset="0"/>
	<stop stop-color="#804E33" offset="1"/>
</radialGradient>
<path d="m5.85 11.15c0.667-0.367 1.1-0.467 1.3-0.3 0.2 0.133 0.2 0.367 0 0.7-0.1 0.267-0.367 0.517-0.8 0.75-0.367 0.2-0.717 0.317-1.05 0.35s-0.433-0.15-0.3-0.55 0.417-0.717 0.85-0.95z" clip-rule="evenodd" fill="url(#az)" fill-rule="evenodd"/>
<radialGradient id="ba" cx="13.152" cy="4.8149" r="1.4371" gradientTransform="matrix(.4262 .9046 .9046 -.4262 -8.711 4.1041)" gradientUnits="userSpaceOnUse">
	<stop stop-color="#A66B49" offset="0"/>
	<stop stop-color="#804E33" offset="1"/>
</radialGradient>
<path d="m1.45 13.35c1.2-0.067 1.683 0.316 1.45 1.15-0.066 0.366-0.4 0.566-1 0.6-0.7 0-1.2 0.017-1.5 0.051-0.467 0.066-0.533-0.2-0.2-0.801 0.367-0.6 0.783-0.933 1.25-1z" clip-rule="evenodd" fill="url(#ba)" fill-rule="evenodd"/>
<radialGradient id="bb" cx="19.599" cy=".8994" r="1.7784" gradientTransform="matrix(.4217 .9067 .9067 -.4217 -1.6311 .7587)" gradientUnits="userSpaceOnUse">
	<stop stop-color="#A66B49" offset="0"/>
	<stop stop-color="#804E33" offset="1"/>
</radialGradient>
<path d="m7.5 17.2c1.133-0.2 1.683 0.25 1.65 1.35-0.066 1.134-0.617 1.634-1.65 1.5-0.967-0.1-1.4-0.566-1.3-1.399 0.1-0.868 0.533-1.351 1.3-1.451z" clip-rule="evenodd" fill="url(#bb)" fill-rule="evenodd"/>
<radialGradient id="bc" cx="29.713" cy="-14.642" r="1.644" gradientTransform="matrix(.4258 .9048 .9048 -.4258 26.497 -12.469)" gradientUnits="userSpaceOnUse">
	<stop stop-color="#A66B49" offset="0"/>
	<stop stop-color="#804E33" offset="1"/>
</radialGradient>
<path d="m26.2 19.7c0.533-0.066 0.85-0.033 0.95 0.1 0.133 0.167 0.117 0.584-0.05 1.25-0.167 0.667-0.45 1.117-0.85 1.351-0.4 0.267-0.767 0.216-1.1-0.15s-0.367-0.866-0.1-1.5c0.233-0.635 0.617-0.984 1.15-1.051z" clip-rule="evenodd" fill="url(#bc)" fill-rule="evenodd"/>
<radialGradient id="bd" cx="19.435" cy="-19.483" r="1.616" gradientTransform="matrix(.4254 .905 .905 -.4254 35.264 -16.577)" gradientUnits="userSpaceOnUse">
	<stop stop-color="#A66B49" offset="0"/>
	<stop stop-color="#804E33" offset="1"/>
</radialGradient>
<path d="m25.65 8.45c1.367-0.2 1.983 0.2 1.85 1.2-0.133 1.033-0.667 1.467-1.6 1.3-0.767-0.133-1.15-0.567-1.15-1.3 0-0.7 0.3-1.1 0.9-1.2z" clip-rule="evenodd" fill="url(#bd)" fill-rule="evenodd"/>
<radialGradient id="be" cx="12.415" cy="-16.991" r="1.0625" gradientTransform="matrix(.4235 .9059 .9059 -.4235 30.784 -14.392)" gradientUnits="userSpaceOnUse">
	<stop stop-color="#804E33" offset="0"/>
	<stop stop-color="#704630" offset="1"/>
</radialGradient>
<path d="m20.4 3.8c1.067-0.3 1.567-0.25 1.5 0.15-0.033 0.233-0.167 0.45-0.4 0.65-0.333 0.233-0.733 0.35-1.2 0.35-0.466 0-0.65-0.167-0.55-0.5 0.1-0.3 0.317-0.517 0.65-0.65z" clip-rule="evenodd" fill="url(#be)" fill-rule="evenodd"/>
<radialGradient id="bf" cx="14.657" cy="-7.0576" r=".7159" gradientTransform="matrix(.4191 .908 .908 -.4191 12.816 -5.9152)" gradientUnits="userSpaceOnUse">
	<stop stop-color="#804E33" offset="0"/>
	<stop stop-color="#704630" offset="1"/>
</radialGradient>
<path d="m12.4 10.1c-0.066-0.3 0-0.35 0.2-0.15 0.167 0.167 0.25 0.45 0.25 0.85 0 0.467-0.05 0.65-0.15 0.55s-0.2-0.517-0.3-1.25z" clip-rule="evenodd" fill="url(#bf)" fill-rule="evenodd"/>
<radialGradient id="bh" cx="12.828" cy="-.439" r=".7718" gradientTransform="matrix(.4211 .907 .907 -.4211 .7961 -.37)" gradientUnits="userSpaceOnUse">
	<stop stop-color="#804E33" offset="0"/>
	<stop stop-color="#704630" offset="1"/>
</radialGradient>
<path d="m6.35 11.1c0.367-0.033 0.433 0.117 0.2 0.45s-0.583 0.534-1.05 0.6c-0.467 0.033-0.517-0.133-0.15-0.5 0.333-0.367 0.667-0.55 1-0.55z" clip-rule="evenodd" fill="url(#bh)" fill-rule="evenodd"/>
<radialGradient id="bi" cx="13.089" cy="4.9595" r=".8722" gradientTransform="matrix(.4299 .9029 .9029 -.4299 -8.9551 4.2646)" gradientUnits="userSpaceOnUse">
	<stop stop-color="#804E33" offset="0"/>
	<stop stop-color="#704630" offset="1"/>
</radialGradient>
<path d="m1.45 13.6c0.466 0 0.716 0.15 0.75 0.45 0.033 0.233-0.117 0.4-0.45 0.5-0.333 0.134-0.683 0.101-1.05-0.1-0.367-0.167-0.417-0.35-0.15-0.55s0.567-0.3 0.9-0.3z" clip-rule="evenodd" fill="url(#bi)" fill-rule="evenodd"/>
<radialGradient id="bj" cx="19.839" cy=".7754" r="1.0621" gradientTransform="matrix(.4235 .9059 .9059 -.4235 -1.4048 .6569)" gradientUnits="userSpaceOnUse">
	<stop stop-color="#A66B49" offset="0"/>
	<stop stop-color="#865236" offset=".7412"/>
	<stop stop-color="#663D29" offset="1"/>
</radialGradient>
<path d="m8 17.7c0.367 0.033 0.583 0.149 0.65 0.35 0.033 0.066 0.033 0.283 0 0.65-0.033 0.3-0.2 0.517-0.5 0.649-0.367 0.167-0.7 0.134-1-0.1-0.3-0.233-0.316-0.566-0.05-1 0.267-0.399 0.567-0.582 0.9-0.549z" clip-rule="evenodd" fill="url(#bj)" fill-rule="evenodd"/>
<radialGradient id="bk" cx="30.138" cy="-14.98" r=".7997" gradientTransform="matrix(.422 .9066 .9066 -.422 27.162 -12.644)" gradientUnits="userSpaceOnUse">
	<stop stop-color="#804E33" offset="0"/>
	<stop stop-color="#704630" offset="1"/>
</radialGradient>
<path d="m26.85 20.5c-0.033 0.566-0.2 1.017-0.5 1.35-0.3 0.334-0.45 0.267-0.45-0.199 0-0.4 0.167-0.733 0.5-1s0.483-0.318 0.45-0.151z" clip-rule="evenodd" fill="url(#bk)" fill-rule="evenodd"/>
<radialGradient id="bl" cx="28.683" cy="-21.263" r=".9455" gradientTransform="matrix(.4098 .9122 .9122 -.4098 38.79 -17.428)" gradientUnits="userSpaceOnUse">
	<stop stop-color="#804E33" offset="0"/>
	<stop stop-color="#704630" offset="1"/>
</radialGradient>
<path d="m31.35 16.9c0.301 0.133 0.5 0.283 0.601 0.449 0.033 0.101 0.017 0.301-0.05 0.601-0.101 0.333-0.25 0.533-0.45 0.6-0.267 0.101-0.517-0.05-0.75-0.45-0.2-0.399-0.2-0.716 0-0.949 0.165-0.267 0.382-0.351 0.649-0.251z" clip-rule="evenodd" fill="url(#bl)" fill-rule="evenodd"/>
<radialGradient id="bm" cx="29.658" cy="-28.302" r=".7325" gradientTransform="matrix(.4266 .9044 .9044 -.4266 51.194 -24.148)" gradientUnits="userSpaceOnUse">
	<stop stop-color="#804E33" offset="0"/>
	<stop stop-color="#704630" offset="1"/>
</radialGradient>
<path d="m38.5 14.6c0.533 0.301 0.75 0.534 0.65 0.7-0.167 0.101-0.617-0.05-1.351-0.45-0.267-0.133-0.283-0.25-0.05-0.35s0.484-0.066 0.751 0.1z" clip-rule="evenodd" fill="url(#bm)" fill-rule="evenodd"/>
<radialGradient id="bn" cx="19.649" cy="-19.606" r=".9115" gradientTransform="matrix(.4251 .9051 .9051 -.4251 35.492 -16.671)" gradientUnits="userSpaceOnUse">
	<stop stop-color="#804E33" offset="0"/>
	<stop stop-color="#704630" offset="1"/>
</radialGradient>
<path d="m26.15 9c0.434 0.1 0.684 0.2 0.75 0.3 0.1 0.1 0.083 0.25-0.05 0.45-0.434 0.7-0.833 0.833-1.2 0.4-0.267-0.267-0.3-0.55-0.1-0.85 0.167-0.3 0.367-0.4 0.6-0.3z" clip-rule="evenodd" fill="url(#bn)" fill-rule="evenodd"/>
<radialGradient id="bo" cx="18.539" cy="-14.843" r="1.0512" gradientTransform="matrix(.4281 .9037 .9037 -.4281 26.828 -12.708)" gradientUnits="userSpaceOnUse">
	<stop stop-color="#804E33" offset="0"/>
	<stop stop-color="#704630" offset="1"/>
</radialGradient>
<path d="m21.7 9.85c0.433 0.033 0.683 0.1 0.75 0.2 0.066 0.1 0.017 0.284-0.15 0.55-0.2 0.3-0.533 0.533-1 0.7-0.466 0.167-0.716 0.117-0.75-0.15-0.033-0.267 0.083-0.55 0.35-0.85s0.533-0.45 0.8-0.45z" clip-rule="evenodd" fill="url(#bo)" fill-rule="evenodd"/>
</svg>