<?xml version="1.0" encoding="UTF-8"?>
<svg enable-background="new 0 0 133.267 177.113" viewBox="0 0 133.267 177.113" xmlns="http://www.w3.org/2000/svg" xmlns:xlink="http://www.w3.org/1999/xlink">
 <defs>
  <linearGradient id="i" x2="0" y1="21.89" y2="4.8574" gradientUnits="userSpaceOnUse">
   <stop stop-color="#261a00" offset="0"/>
   <stop stop-color="#9f5b00" offset="1"/>
  </linearGradient>
  <linearGradient id="c" x1="81.584" x2="47.567" y1="98.667" y2="98.971" gradientUnits="userSpaceOnUse">
   <stop stop-color="#fff" stop-opacity=".41237" offset="0"/>
   <stop stop-opacity=".50515" offset="1"/>
  </linearGradient>
  <linearGradient id="h" x1="84.132" x2="116.69" gradientUnits="userSpaceOnUse">
   <stop stop-color="#bf8200" offset="0"/>
   <stop stop-color="#c48605" offset=".2268"/>
   <stop stop-color="#d49214" offset=".509"/>
   <stop stop-color="#eda62d" offset=".8194"/>
   <stop stop-color="#ffb43f" offset="1"/>
  </linearGradient>
  <linearGradient id="b" x1="16.216" x2="119.48" gradientUnits="userSpaceOnUse">
   <stop offset="0"/>
   <stop stop-color="#291d0a" offset=".0318"/>
   <stop stop-color="#74521d" offset=".0953"/>
   <stop stop-color="#ac7a2a" offset=".1478"/>
   <stop stop-color="#ce9233" offset=".1868"/>
   <stop stop-color="#db9b36" offset=".2079"/>
   <stop stop-color="#ffb43f" offset=".8427"/>
   <stop offset="1"/>
  </linearGradient>
  <linearGradient id="a" x1="-379.29" x2="-369.63" y1="23.026" y2="21.468" gradientTransform="matrix(-1 0 0 1 -357.57 0)" gradientUnits="userSpaceOnUse">
   <stop offset="0"/>
   <stop stop-color="#080808" stop-opacity=".57732" offset=".0855"/>
   <stop stop-color="#1e1e1e" stop-opacity=".59794" offset=".2191"/>
   <stop stop-color="#434343" offset=".3841"/>
   <stop stop-color="#757575" stop-opacity=".52577" offset=".574"/>
   <stop stop-color="#b6b6b6" stop-opacity=".45361" offset=".7852"/>
   <stop stop-color="#fff" stop-opacity=".45361" offset="1"/>
  </linearGradient>
  <linearGradient id="f" x1="115.26" x2="122.3" y1="43.042" y2="41.907" gradientUnits="userSpaceOnUse">
   <stop offset="0"/>
   <stop stop-color="#161616" offset=".0513"/>
   <stop stop-color="#535353" offset=".2024"/>
   <stop stop-color="#888" offset=".3526"/>
   <stop stop-color="#b2b2b2" offset=".4982"/>
   <stop stop-color="#d4d4d4" offset=".6384"/>
   <stop stop-color="#ececec" offset=".7718"/>
   <stop stop-color="#fafafa" offset=".8954"/>
   <stop stop-color="#fff" offset="1"/>
  </linearGradient>
  <linearGradient id="e" x1="-328.55" x2="-321.52" y1="43.041" y2="41.906" gradientTransform="matrix(-1 0 0 1 -308.84 0)" gradientUnits="userSpaceOnUse">
   <stop offset="0"/>
   <stop stop-color="#161616" offset=".0513"/>
   <stop stop-color="#535353" offset=".2024"/>
   <stop stop-color="#888" offset=".3526"/>
   <stop stop-color="#b2b2b2" offset=".4982"/>
   <stop stop-color="#d4d4d4" offset=".6384"/>
   <stop stop-color="#ececec" offset=".7718"/>
   <stop stop-color="#fafafa" offset=".8954"/>
   <stop stop-color="#fff" offset="1"/>
  </linearGradient>
  <linearGradient id="d" x1="111.46" x2="121.12" y1="23.026" y2="21.468" gradientUnits="userSpaceOnUse" xlink:href="#a"/>
  <linearGradient id="g" x2="0" y1="30.107" y2="21.717" gradientUnits="userSpaceOnUse" xlink:href="#c">
   <stop stop-opacity=".52577" offset="0"/>
  </linearGradient>
 </defs>
 <path d="m132.157,26.479c-1.349-11.55-8.467-16.45-19.742-13.591-16.82,4.266-74.701,4.268-91.521,0-11.273-2.861-18.391,2.038-19.741,13.591-1.196,10.234 4.804,19.926 11.272,27.95-2.968,22.187 3.372,43.311 12.635,63.691 6.311,13.885 11.764,28.15 16.326,42.704-.644,2.845-.109,5.827 2.211,7.595 6.666,5.079 14.679,7.63 23.059,7.692s17.096-1.805 23.058-7.692c2.079-2.054 2.863-4.746 2.211-7.595 4.563-14.554 8.687-29.505 16.326-42.704 11.214-19.374 15.604-41.506 12.635-63.691 6.467-8.021 10.366-17.687 11.271-27.95zm-99.131,12.15c-4.004,4.25-7.939,8.563-11.806,12.939-6.683-7.105-10.725-16.066-11.628-25.78 .529-4.447 3.268-6.335 7.601-5.227 4.625,2.126 9.715,2.485 14.589,1.025l5.152,2.209c1.641,5.538.248,10.816-3.908,14.834zm68.551,0c-4.156-4.018-5.549-9.296-3.908-14.833l5.152-2.209c4.874,1.459 9.963,1.101 14.589-1.025 4.333-1.108 7.071.78 7.601,5.227-.903,9.714-4.945,18.675-11.628,25.78-3.866-4.377-7.802-8.69-11.806-12.94z" fill="#8e5823"/>
 <path d="m132.157,26.479c-1.349-11.55-8.467-16.45-19.742-13.591-16.82,4.266-74.701,4.268-91.521,0-11.273-2.861-18.391,2.038-19.741,13.591-1.196,10.234 4.804,19.926 11.272,27.95-2.968,22.187 3.372,43.311 12.635,63.691 6.311,13.885 11.764,28.15 16.326,42.704-.644,2.845-.109,5.827 2.211,7.595 6.666,5.079 14.679,7.63 23.059,7.692s17.096-1.805 23.058-7.692c2.079-2.054 2.863-4.746 2.211-7.595 4.563-14.554 8.687-29.505 16.326-42.704 11.214-19.374 15.604-41.506 12.635-63.691 6.467-8.021 10.366-17.687 11.271-27.95zm-99.131,12.15c-4.004,4.25-7.939,8.563-11.806,12.939-6.683-7.105-10.725-16.066-11.628-25.78 .529-4.447 3.268-6.335 7.601-5.227 4.625,2.126 9.715,2.485 14.589,1.025l5.152,2.209c1.641,5.538.248,10.816-3.908,14.834zm68.551,0c-4.156-4.018-5.549-9.296-3.908-14.833l5.152-2.209c4.874,1.459 9.963,1.101 14.589-1.025 4.333-1.108 7.071.78 7.601,5.227-.903,9.714-4.945,18.675-11.628,25.78-3.866-4.377-7.802-8.69-11.806-12.94z" fill="none" stroke="#54341e" stroke-linecap="square" stroke-miterlimit="10" stroke-width="2"/>
 <path d="m29.442,13.42c.284,7.621 14.66,10.042 20.22,10.968 8.502,1.416 17.224,1.733 25.813,1.008 7.934-.67 17.349-1.735 24.14-6.263 10.057-6.705-1.419-12.87-8.293-14.95-10.651-3.223-22.462-3.691-33.487-2.758-5.593.473-11.136,1.333-16.518,2.961-4.067,1.231-11.705,3.798-11.875,9.034" fill="#8e5823" stroke="#56351f" stroke-linecap="square" stroke-miterlimit="10" stroke-width="2"/>
 <path d="m33.41,13.42c2.034,3.844 8.853,5.371 12.733,6.233 13.324,2.961 27.71,3.004 41.033,0 2.289-.516 12.709-2.85 12.723-6.233 .014-3.541-11.083-5.884-13.424-6.411-12.954-2.911-27.406-2.881-40.331.169-3.897.919-10.713,2.349-12.734,6.242" fill="url(#i)" stroke="#3d2617" stroke-linecap="square" stroke-miterlimit="10"/>
 <path d="m18.756,59.638c-3.848,7.347-4.096,23.79 1.749,39.884 6.039,16.629 23.791,60.875 23.791,60.875s-2.274,3.124 0,5.398 11.954,5.761 19.16,7.197c7.347,1.465 19.344-2 19.344-2s1.909-3.428-.54-3.428-17.672,1.578-22.57-.171-11.895-5.247-11.895-5.247-20.641-64.024-22.74-72.071-3.15-30.437 9.794-38.834 9.796-14.345 9.796-18.193c0-9.199.377-3.471-4.723-8.572 0,0 1.224,11.721-2.974,15.919s-13.541,10.362-18.192,19.243z" fill="url(#c)" opacity=".39"/>
 <path d="m92.616 27.496s4.909 13.569 8.951 17.612 11.838 8.662 13.57 13.57 2.598 25.697-0.578 33.204-18.768 40.42-20.788 47.062-4.62 23.388-4.62 23.388l-4.619 1.731s-1.288-22.365 1.888-30.449 12.896-36.405 14.341-41.891 3.982-25.76 1.096-28.647-4.991-7.769-9.549-14.605c-3.543-5.314-8.176-19.398-8.176-19.398l8.484-1.577z" fill="url(#h)" opacity=".12"/>
 <path d="m23.808 52.186s-6.214 6.258-7.558 9.917c-1.273 3.468 32.7 15.839 52.065 15.839 20.061 0 50.623-10.273 50.623-10.273s1.959-0.557-1.58-6.769c-2.886-5.066-4.765-6.126-4.765-6.126s-27.922 13.365-50.425 12.06c-19.202-1.113-38.36-14.648-38.36-14.648z" fill="url(#b)" opacity=".15"/>
 <path d="m23.808 49.959s-6.214 5.177-7.558 8.203c-1.273 2.868 32.7 13.101 52.065 13.101 20.061 0 50.623-8.497 50.623-8.497s1.959-0.46-1.58-5.599c-2.886-4.19-4.765-5.067-4.765-5.067s-27.923 11.055-50.426 9.976c-19.201-0.922-38.359-12.117-38.359-12.117z" fill="url(#b)" opacity=".07"/>
 <path d="m38.053 22.736 0.206 3.584s17.435 3.787 29.104 3.787c12.529 0 27.967-4.251 27.967-4.251l2.572-4.139c-10.068 3.58-20.02 4.816-29.861 4.816-11.412 1e-3 -29.988-3.797-29.988-3.797z" fill="url(#g)" opacity=".31"/>
 <path d="m25.895,16.795c0,0-.565,1.79-2.263,1.79-.424,0-7.328-2.22-9.273-2.22-1.374,0-2.449-.651-5.678,1.49-2.993,1.985-4.08,9.68-5.027,9.68-1.228,0 .48-6.837 4.468-10.611 2.445-2.314 7.146-2.483 8.437-2.143 3.396.895 9.336,2.014 9.336,2.014z" fill="url(#a)" opacity=".3"/>
 <path d="m126.36 30.887s-2.049 9.123-5.027 13.218-6.888 8.192-6.888 8.192l1.07 1.07s7.214-8.703 8.61-11.961 2.235-10.519 2.235-10.519z" fill="url(#f)" opacity=".12222"/>
 <path d="m8.625 30.887s2.048 9.123 5.027 13.218 6.888 8.192 6.888 8.192l-1.07 1.07s-7.214-8.703-8.61-11.961-2.235-10.519-2.235-10.519z" fill="url(#e)" opacity=".12222"/>
 <path d="m107.28 16.795s0.565 1.79 2.263 1.79c0.424 0 7.328-2.22 9.273-2.22 1.374 0 2.449-0.651 5.678 1.49 2.993 1.985 4.08 9.68 5.027 9.68 1.228 0-0.48-6.837-4.468-10.611-2.445-2.314-7.146-2.483-8.437-2.143-3.396 0.895-9.336 2.014-9.336 2.014z" fill="url(#d)" opacity=".3"/>
</svg>
