<svg width="1018" height="248" xmlns="http://www.w3.org/2000/svg" xmlns:xlink="http://www.w3.org/1999/xlink" xml:space="preserve" overflow="hidden"><defs><clipPath id="clip0"><rect x="1952" y="2071" width="1018" height="248"/></clipPath></defs><g clip-path="url(#clip0)" transform="translate(-1952 -2071)"><rect x="0" y="95.9729" width="889.027" height="120.027" fill="#66FFFF" fill-opacity="1" transform="matrix(1 0 0 -1 1976.5 2314.5)"/><path d="M889.027 95.9729 985 0 985 120.027 889.027 216Z" fill="#52CDCD" fill-rule="evenodd" fill-opacity="1" transform="matrix(1 0 0 -1 1976.5 2314.5)"/><path d="M0 95.9729 95.9728 0 985 0 889.027 95.9729Z" fill="#84FFFF" fill-rule="evenodd" fill-opacity="1" transform="matrix(1 0 0 -1 1976.5 2314.5)"/><path d="M0 95.9729 95.9728 0 985 0 985 120.027 889.027 216 0 216ZM0 95.9729 889.027 95.9729 985 0M889.027 95.9729 889.027 216" stroke="#000000" stroke-width="9.16667" stroke-linecap="butt" stroke-linejoin="miter" stroke-miterlimit="8" stroke-opacity="1" fill="none" fill-rule="evenodd" transform="matrix(1 0 0 -1 1976.5 2314.5)"/><text fill="#000000" fill-opacity="1" font-family="Times New Roman,Times New Roman_MSFontService,sans-serif" font-style="normal" font-variant="normal" font-weight="700" font-stretch="normal" font-size="92" text-anchor="start" direction="ltr" writing-mode="lr-tb" unicode-bidi="normal" text-decoration="none" transform="matrix(1 0 0 1 2008.62 2192)">Nehemias</text><text fill="#000000" fill-opacity="1" font-family="Times New Roman,Times New Roman_MSFontService,sans-serif" font-style="normal" font-variant="normal" font-weight="700" font-stretch="normal" font-size="92" text-anchor="start" direction="ltr" writing-mode="lr-tb" unicode-bidi="normal" text-decoration="none" transform="matrix(1 0 0 1 2413.09 2192)">(445</text><text fill="#000000" fill-opacity="1" font-family="Times New Roman,Times New Roman_MSFontService,sans-serif" font-style="normal" font-variant="normal" font-weight="700" font-stretch="normal" font-size="92" text-anchor="start" direction="ltr" writing-mode="lr-tb" unicode-bidi="normal" text-decoration="none" transform="matrix(1 0 0 1 2580.96 2192)">-</text><text fill="#000000" fill-opacity="1" font-family="Times New Roman,Times New Roman_MSFontService,sans-serif" font-style="normal" font-variant="normal" font-weight="700" font-stretch="normal" font-size="92" text-anchor="start" direction="ltr" writing-mode="lr-tb" unicode-bidi="normal" text-decoration="none" transform="matrix(1 0 0 1 2611.32 2192)">420)</text></g></svg>