<svg width="1155" height="463" xmlns="http://www.w3.org/2000/svg" xmlns:xlink="http://www.w3.org/1999/xlink" xml:space="preserve" overflow="hidden"><defs><clipPath id="clip0"><rect x="618" y="1902" width="1155" height="463"/></clipPath></defs><g clip-path="url(#clip0)" transform="translate(-618 -1902)"><rect x="0" y="96.4177" width="811.583" height="120.583" fill="#FF99CC" fill-opacity="1" transform="matrix(1 0 0 -1 627.5 2144.5)"/><path d="M811.583 96.4177 908 0 908 120.583 811.583 217Z" fill="#CD7BA4" fill-rule="evenodd" fill-opacity="1" transform="matrix(1 0 0 -1 627.5 2144.5)"/><path d="M0 96.4177 96.4174 0 908 0 811.583 96.4177Z" fill="#FFADD6" fill-rule="evenodd" fill-opacity="1" transform="matrix(1 0 0 -1 627.5 2144.5)"/><path d="M0 96.4177 96.4174 0 908 0 908 120.583 811.583 217 0 217ZM0 96.4177 811.583 96.4177 908 0M811.583 96.4177 811.583 217" stroke="#000000" stroke-width="9.16667" stroke-linecap="butt" stroke-linejoin="miter" stroke-miterlimit="8" stroke-opacity="1" fill="none" fill-rule="evenodd" transform="matrix(1 0 0 -1 627.5 2144.5)"/><text fill="#000000" fill-opacity="1" font-family="Times New Roman,Times New Roman_MSFontService,sans-serif" font-style="normal" font-variant="normal" font-weight="700" font-stretch="normal" font-size="92" text-anchor="start" direction="ltr" writing-mode="lr-tb" unicode-bidi="normal" text-decoration="none" transform="matrix(1 0 0 1 683.486 2022)">Hageo</text><text fill="#000000" fill-opacity="1" font-family="Times New Roman,Times New Roman_MSFontService,sans-serif" font-style="normal" font-variant="normal" font-weight="700" font-stretch="normal" font-size="92" text-anchor="start" direction="ltr" writing-mode="lr-tb" unicode-bidi="normal" text-decoration="none" transform="matrix(1 0 0 1 955.621 2022)">(520)</text><rect x="0" y="95.9736" width="1046.03" height="120.026" fill="#FF99CC" fill-opacity="1" transform="matrix(1 0 0 -1 624.5 2360.5)"/><path d="M1046.03 95.9736 1142 0 1142 120.026 1046.03 216Z" fill="#CD7BA4" fill-rule="evenodd" fill-opacity="1" transform="matrix(1 0 0 -1 624.5 2360.5)"/><path d="M0 95.9736 95.9735 0 1142 0 1046.03 95.9736Z" fill="#FFADD6" fill-rule="evenodd" fill-opacity="1" transform="matrix(1 0 0 -1 624.5 2360.5)"/><path d="M0 95.9736 95.9735 0 1142 0 1142 120.026 1046.03 216 0 216ZM0 95.9736 1046.03 95.9736 1142 0M1046.03 95.9736 1046.03 216" stroke="#000000" stroke-width="9.16667" stroke-linecap="butt" stroke-linejoin="miter" stroke-miterlimit="8" stroke-opacity="1" fill="none" fill-rule="evenodd" transform="matrix(1 0 0 -1 624.5 2360.5)"/><text fill="#000000" fill-opacity="1" font-family="Times New Roman,Times New Roman_MSFontService,sans-serif" font-style="normal" font-variant="normal" font-weight="700" font-stretch="normal" font-size="92" text-anchor="start" direction="ltr" writing-mode="lr-tb" unicode-bidi="normal" text-decoration="none" transform="matrix(1 0 0 1 681.417 2247)">Zacarias</text><text fill="#000000" fill-opacity="1" font-family="Times New Roman,Times New Roman_MSFontService,sans-serif" font-style="normal" font-variant="normal" font-weight="700" font-stretch="normal" font-size="92" text-anchor="start" direction="ltr" writing-mode="lr-tb" unicode-bidi="normal" text-decoration="none" transform="matrix(1 0 0 1 1045.22 2247)">(520</text><text fill="#000000" fill-opacity="1" font-family="Times New Roman,Times New Roman_MSFontService,sans-serif" font-style="normal" font-variant="normal" font-weight="700" font-stretch="normal" font-size="92" text-anchor="start" direction="ltr" writing-mode="lr-tb" unicode-bidi="normal" text-decoration="none" transform="matrix(1 0 0 1 1213.08 2247)">-</text><text fill="#000000" fill-opacity="1" font-family="Times New Roman,Times New Roman_MSFontService,sans-serif" font-style="normal" font-variant="normal" font-weight="700" font-stretch="normal" font-size="92" text-anchor="start" direction="ltr" writing-mode="lr-tb" unicode-bidi="normal" text-decoration="none" transform="matrix(1 0 0 1 1243.45 2247)">490)</text></g></svg>