<svg width="1027" height="394" xmlns="http://www.w3.org/2000/svg" xmlns:xlink="http://www.w3.org/1999/xlink" xml:space="preserve" overflow="hidden"><defs><clipPath id="clip0"><rect x="1599" y="229" width="1027" height="394"/></clipPath></defs><g clip-path="url(#clip0)" transform="translate(-1599 -229)"><path d="M1605 515.956 1886.11 234 2618 234 2618 332.044 2336.89 614 1605 614 1605 515.956Z" fill="#FFC000" fill-rule="evenodd" fill-opacity="1"/><path d="M2336 515.956 2618 234 2618 332.044 2336 614 2336 515.956Z" fill="#000000" fill-rule="evenodd" fill-opacity="0.196078"/><path d="M1605 515 1886.11 234 2618 234 2336.89 515 1605 515Z" fill="#FFFFFF" fill-rule="evenodd" fill-opacity="0.196078"/><path d="M1605.5 516.457 1886.61 234.5 2618.5 234.5 2618.5 332.544 2337.39 614.5 1605.5 614.5 1605.5 516.457ZM1605.5 516.457 2337.39 516.457 2618.5 234.5M2337.39 516.457 2337.39 614.5" stroke="#000000" stroke-width="9.16667" stroke-linecap="butt" stroke-linejoin="round" stroke-miterlimit="10" stroke-opacity="1" fill="none" fill-rule="evenodd"/></g></svg>