<?xml version="1.0" encoding="UTF-8"?>
<svg viewBox="0 0 507.84512 509.89581" xmlns="http://www.w3.org/2000/svg">
 <path d="m167.47 381.4c6.991-10.991 6.2893-25.332 5.4781-37.867-5.5373-20.756-20.475-37.801-24.789-59.058-4.8528-13.307-11.648-26.405-10.947-41.013 0.23999-16.472-0.75253-33.05 0.54721-49.457 4.0561-16.96 17.993-29.664 33.833-35.897 15.863-8.8695 34.69-9.928 50.426-19.145 13.312-4.9492 27.833-0.94202 41.669-2.0204 13.8-0.17615 27.966-0.82666 40.931 4.8174 15.151 2.6765 27.597 12.516 36.749 24.485 7.8611 9.0665 15.369 19.338 13.971 32.089 0.40509 12.244 0.76474 25.883-8.0612 35.583-8.4685 11.374-22.285 18.386-27.378 32.284-7.2562 19.212-25.697 20.182-37.272 36.406-6.9031 8.0194-22.589 20.124-20.806 33.839 1.2775 10.818 3.1162 21.854-3.046 31.632-4.5165 9.397-2.5966 26.066-16.311 27.159-21.329 1.4945-43.446-0.15601-62.872-9.7981-3.8434-1.916-8.2785-2.1248-12.122-4.0406z" fill="#ff5" fill-rule="evenodd" stroke="#000" stroke-width="1.25"/>
 <path d="m155.35 384.26c4.3419-8.4014 5.2926-18.973 6.2196-28.53-0.16571-12.728-6.4854-24.338-10.846-36.083-8.3062-21.352-16.256-42.71-21.174-65.108-3.8528-17.138-4.8815-34.796-3.2283-52.249 4.3344-19.111 19.831-32.786 35.27-43.707 24.584-16.626 48.936-26.3 78.225-27.115 35.175-0.34607 71.16 2.4932 103.25 17.832 13.62 7.3578 20.105 20.671 21.643 35.574-0.82581 19.173-3.8397 39.054-13.849 55.664-9.5267 13.927-20.612 26.774-32.999 38.217-8.8023 7.3242-17.005 15.224-25.168 23.239-7.4854 9.3079-15.315 18.503-20.948 29.051-4.0502 8.816-3.6419 18.38-3.6646 27.84 0.44373 9.0319-0.07101 17.857-1.546 26.745l-23.653 11.745c1.2592-8.8362 2.376-17.521 1.7103-26.515-0.01558-9.6822-0.58997-19.607 3.2774-28.711 5.0429-11.164 13.278-20.284 20.665-30.02 8.0062-8.2542 16.221-16.239 25.092-23.58 12.731-11.064 23.829-23.986 33.634-37.704 10.277-15.798 13.65-35.322 14.277-53.944-1.7227-14.054-6.845-26.453-20.083-33.381-31.647-15.938-67.419-18.473-102.38-16.898-16.565 0.79663-74.585 20.697-33.456 2.5834-15.387 10.24-30.574 23.153-35.836 41.49-2.1488 17.181-1.1141 34.735 2.3156 51.7 5.4699 22.087 12.044 43.812 21.228 64.699 4.5313 12.041 11.454 23.771 11.754 36.846-0.90591 10.138-2.6239 20.19-5.0072 30.074l-24.73 10.244z"/>
 <path d="m174.51 371.5c9.2844 3.4028 18.441 7.63 27.829 10.967 12.563 5.0112 25.923 4.8857 39.116 6.1122 7.4015 1.9735 13.719 0.58667 20.621-1.4974l-20.659 16.407c-7.2032 1.5709-14.084 1.9284-21.398 0.2262-13.354-0.95227-26.644-1.6484-39.36-6.429-9.1912-3.429-18.198-8.4564-27.823-10.038l21.675-15.748z"/>
 <path d="m163.24 387.68c2.7451 8.3029 11.135 12.473 18.679 16.24 12.707 3.2618 25.797 5.3574 38.923 6.033 11.51 0.32129 23.228-0.76331 34.434-3.39 2.2183-0.17578 4.2549-1.1292 6.4005-1.6985l-20.978 16.122c-2.1679 0.50415-4.2595 1.3578-6.5098 1.5137-11.34 2.1112-22.9 3.4158-34.464 2.6517-13.372-0.80115-26.96-2.7716-39.738-6.7354-8.3193-4.4993-17.087-9.3999-20.618-18.573l23.872-12.163z"/>
 <path d="m166.43 417.97c7.784 3.6222 15.597 7.7073 23.718 10.857 23.56 4.5735 33.618 5.0375 57.679 5.0889 22.474-10.554-21.18 21.366-9.8842 3.7424l23.806-11.46c-5.2487 13.99-20.493 21.295-35.064 23.261-24.198-1.3567-34.12-1.8744-57.931-6.1772-8.0373-2.9164-15.984-7.3906-23.998-9.564l21.675-15.748z"/>
 <path d="m173.35 438.19c3.327 8.7078 11.481 13.549 18.901 18.675 9.7774 5.9067 20.834 5.7185 31.861 5.7312 9.6668 0.75012 18.599-0.81177 27.532-4.1766-35.251 21.209-16.888 14.046-13.85 0.10046l23.436-12.118c-0.52881 17.479-13.851 19.772-30.297 28.402-9.2488 2.6202-18.424 4.0398-28.131 3.2709-11.437-0.16492-22.762-0.56751-32.671-7.0503-8.129-5.6904-16.502-11.29-20.653-20.672l23.872-12.163z"/>
 <path d="m221.83 474.55c0.11191 7.9094-1.2498 15.687-1.9622 23.542l-23.533 11.802c0.63504-7.7368 2.2124-15.402 1.6239-23.181l23.872-12.163z"/>
 <path d="m19.608 102.03c13.764 9.7628 12.385 10.812 27.585 18.435 10.686 5.0255 20.506 11.579 31.11 16.791 6.1851 3.28 1.8132 5.2714 11.543 9.3213l-14.099 14.164c-5.5677-3.9774-11.085-8.0697-17.217-11.161-10.582-5.2646-20.577-11.455-31.125-16.761-14.66-7.8263-12.79-10.038-27.405-17.096l19.608-13.693z"/>
 <path d="m164.19-1.2e-4c12.15 12.29 35.234 66.62 37.614 73.711l-17.061 8.5895c-2.2965-6.8735-23.837-61.532-37.315-72.355l16.762-9.9456z"/>
 <path d="m347.88 9.7807c-5.0361 20.346-14.512 53.758-22.288 73.293l-17.598-8.9177c8.6834-18.68 18.449-51.752 22.076-71.971l17.811 7.5956z"/>
 <path d="m425.5 161.11c22.865-13.489 53.42-17.967 79.503-25.331l2.8374 16.354c-25.062 6.8988-51.567 14.028-75.394 22.926l-6.9467-13.949z"/>
</svg>
