<?xml version="1.0" encoding="UTF-8"?>
<svg enable-background="new 0 0 504.03 117.795" viewBox="0 0 504.03 117.795" xmlns="http://www.w3.org/2000/svg">
 <path d="m122.37,4.583c-5.641-2.92-12.782-2.966-20.073-2.409 1.107-1.909 6.689-1.997 10.438-1.605 1.497.156 3.282.497 4.416.803 2.195.59 4.906,1.429 5.219,3.211z" fill-rule="evenodd"/>
 <path d="m110.728,5.386c1.834-.013.021,1.409.401,2.409 .173.898 1.979.163 2.81.401 .9-.572.767-2.178 1.606-2.81h2.409c-.231,1.258-3.358,1.703-1.605,3.613-.11.826-1.496.378-1.606,1.204-2.188-2.286-8.713-.555-10.438-1.204 .543-1.345 3.826-1.589 5.219-.803 1.283-.423-.001-1.816 1.204-2.81z" fill-rule="evenodd"/>
 <path d="m129.195,13.816c.385-3.709-2.052-6.648-4.818-6.825-2.127-.136-3.151,1.765-5.219,2.007 1.729-4.924 10.229-3.882 11.241.803 .123.569.749,3.846-1.204,4.015z" fill-rule="evenodd"/>
 <path d="m103.1,8.598c-.653,2.078-3.03,1.196-4.416,1.605-2.284.676-4.944,1.892-6.825,3.212-1.91,1.34-2.876,3.979-5.219,3.613 .595-1.81 2.767-3.741 4.416-4.818 3.076-2.008 6.767-3.386 12.044-3.612z" fill-rule="evenodd"/>
 <path d="m114.34,11.006c1.053.605 2.022,2.805 1.205,4.015-1.582-.077-2.111-2.716-1.205-4.015z" fill-rule="evenodd"/>
 <path d="m111.129,19.036c-5.938-.218-8.661-3.65-14.453-4.015-1.48.292.171,1.208-.803,2.007-1.265.828-4.691,2.096-6.022.401-.156-1.628 2.502-.442 3.613-.803 1.042-.339-.772-1.761.402-2.409 4.646-.788 8.61.143 11.241,2.409 2.542.269 5.205.416 6.022,2.41z" fill-rule="evenodd"/>
 <path d="m492.117,23.05c-.332,1.441.905,1.942 0,2.81-1.367.029-1.496-1.181-2.008-2.007 .062-2.419 3.448-3.682 5.22-2.007 .264,1.737-2.814.131-3.212,1.204z" fill-rule="evenodd"/>
 <path d="m72.588,21.846c1.643.506.217,4.353-1.605,4.015-.28-2.154 1.186-2.561 1.605-4.015z" fill-rule="evenodd"/>
 <path d="m87.443,25.058c-1.589,3.63-4.208,6.23-5.621,10.036-2.793-1.482.98-4.858 2.409-6.825 .619-.852 1.268-3.808 3.212-3.211z" fill-rule="evenodd"/>
 <path d="m442.737,34.291c-2.002,2.091-2.419-.08-5.219,0-.171-.839.274-1.063.401-1.606 1.288-.352.832,1.042 1.605,1.205 .687.018 1.04-.298 1.204-.803-.479-1.259-1.374-.139-2.408-1.205 .44-1.639 1.726-1.236.401-2.81 2.349-.775 2.618,3.733 4.016,5.219z" fill-rule="evenodd"/>
 <path d="m242.005,35.496c-1.362-.11-1.376-1.568-2.81-1.606-.046-1.425.29-3.234-1.205-3.212-.773.041.624,1.496-.401,2.007-2.783-2.442-6.302,1.073-8.029.803 .348-3.8 6.015-2.283 8.029-4.416 2.061-.053 3.021.993 3.212,2.81 2.205-.31 2.377,2.832 1.204,3.614z" fill-rule="evenodd"/>
 <path d="m383.722,29.072c1.246.761 2.292,1.722 2.81,3.211-1.564.961-4.074-1.263-2.81-3.211z" fill-rule="evenodd"/>
 <path d="m65.764,31.882c.071,1.41-1.356,1.32-1.606,2.409-1.097-.865.077-2.84 1.606-2.409z" fill-rule="evenodd"/>
 <path d="m304.633,33.488c.146,1.694-1.389,3.136-2.81,2.007-.113-1.05.146-1.727 1.204-1.606 .241-1.58-2.778.102-2.409-1.606 1.383-.989 3.618-.056 4.015,1.205z" fill-rule="evenodd"/>
 <path d="m447.153,33.087c.192,1.263-.571,1.569-.803,2.409-1.228.29-1.463-.411-2.409-.402-.184-1.254.857-1.283 2.008-1.204-.095-2.006-2.604.729-2.409-1.205 .928-.81 3.08-.41 3.613.402z" fill-rule="evenodd"/>
 <path d="m383.72 35.897c1.594-0.122 1.912 1.031 2.408 2.007h-2.408v-2.007z" fill-rule="evenodd"/>
 <path d="m58.538,36.7c1.49.058 2.792,1.732 2.007,2.811-1.76.21-2.798-1.728-2.007-2.811z" fill-rule="evenodd"/>
 <path d="m241.604,40.714c-2.111.49-4.389-.943-3.613-2.007 1.026.296 3.734-.61 3.613,2.007z" fill-rule="evenodd"/>
 <path d="m449.16,38.306c.413,1.617-.625,1.784-1.204,2.409-1.608-.437-.521-2.894 1.204-2.409z" fill-rule="evenodd"/>
 <path d="m305.035,40.313c.338.466.53,1.076.402,2.007-.938.124-1.659.786-2.409,0-.244-1.582.898-1.778 2.007-2.007z" fill-rule="evenodd"/>
 <path d="m87.041,57.174c-1.288,1.79-3.406,2.75-5.219,4.015 .646-2.432 2.732-3.424 5.219-4.015z" fill-rule="evenodd"/>
 <path d="m105.107,61.189c.648-.113.691.379 1.205.401-1.042,2.572-2.294,4.932-2.811,8.03 1.341,1.09 4.442-.994 4.818,1.605-1.029.636-3.177-.384-5.219,0-1.354,1.725-1.814,4.342-2.81,6.424 1.297,1.379 4.575.777 6.022,2.007 1.186-.955-.135-4.417 2.007-4.416 .941,1.059.067,2.737 0,4.015 4.635.315 8.938-1.717 12.445-1.204-2.287,3.239-7.355,2.388-12.445,2.408-1.259.005-2.146.538-3.212.401-1.198-.153-2.105-.893-3.212-1.204-2.165-.608-4.7-.176-5.62-2.007 .056-1.148 1.674-.734 2.81-.804 2.203-5.023 3.675-10.777 6.022-15.656z" fill-rule="evenodd"/>
 <path d="m244.816,85.276c2.011-.239 2.93,2.192 2.007,3.613-1.622-.25-1.466-2.28-2.007-3.613z" fill-rule="evenodd"/>
 <path d="m76.202,41.116c-.627-3.391-3.218-4.861-6.423-3.613-.397-1.602 1.2-1.209.803-2.811-1.613-.064-3.313,1.211-4.416.401 .296-2.202 2.378-1.566 1.205-4.416 1.113,2.232 4.492,2.2 4.817,5.219 4.126-.112 5.949,2.081 5.621,6.423-1.967,1.645-5.221,1.937-8.029.803 .533,2.278 3.277,2.344 5.219,3.212-.347,1.66-1.333,2.682-3.211,2.81-.02,1.358.935,1.742 1.606,2.409 1.042-.339-.772-1.761.401-2.409 1.26-.189 1.061,1.081 2.007,1.205 1.108-1.072-.474-.873-.401-2.007 3.979.209 8.307,1.273 12.445,0 1.869-.575 4.488-3.055 7.627-4.015 .473-.145 1.154.193 1.606,0 1.884-.807 5.613-2.784 6.423-4.015 .5-.758.45-2.088.803-2.81 2.78-1.101 3.85-3.912 6.423-5.219 .615,4.403-6.748,4.066-4.416,7.628-1.896-.022-2.282,1.465-3.212,2.409 2.153,1.072 4.07-1.542 4.817-3.212 1.698-.092.91,2.303 3.212,1.606 2.003-.405 2.107-2.71 3.211-4.015-1.637.643-1.982.753-4.014.401 .921-1.755.77-4.583 2.409-5.62-.097-1.035-.691.551-1.606,0 .417-1.591 2.53-1.484 3.613-2.409 .257-3.089 2.491-4.2 2.81-7.227-.059-.877-1.012-.862-2.007-.803-1.922,1.557-1.091,5.867-3.613,6.825-.037-2.714 1.788-3.565 2.007-6.022-4.326-2.05-8.583.883-12.044-.803-1.599-.127-1.087,1.856-2.409,2.007-2.071.198-3.194-.553-3.211-2.409 1.421.698 4.116,1.483 4.015-1.205 1.5-.429 1.144.997 2.409.803 3.767.16 7.686-1.112 10.438,0 .274-.796 2.392.25 2.007-1.204 1.114.09 1.136,1.273 2.007,1.606 .701-.016 1.622-.702 2.007-1.205-.038.049 1.219-2.487 1.204-2.007 .036-1.187-5.1-4.654-2.007-8.029 2.665.28 3.956,1.932 6.424,2.409-1.112,2.597-3.195-.719-5.219-.803-.325.076-.4.403-.803.401-.06,4.802 5.336,7.59 9.233,4.817-.253-2.155-3.416-1.402-3.613-3.613 1.447-.001 4.423,1.653 6.022,2.81-1.292,2.054-3.077,3.614-6.825,3.211-1.103.771-1.726,2.021-1.606,4.015-2.416,3.606-3.539,8.505-6.022,12.044v2.007c-1.24,3.133-4.525,5.718-5.62,8.833-1.371,3.896-2.875,7.665-4.818,11.241-.897,1.652-1.592,3.894-2.81,6.022-.183.319-1.049.494-1.205.803-.746,1.486-1.266,3.219-2.007,4.818-1.532,3.303-1.692,7.557-5.62,8.832-.594-2.821 1.444-5.253 2.409-7.627 1.061-2.614 2.227-5.115 3.211-7.628 1.783-4.551 3.374-9.395 5.621-13.65 .89-1.686 2.727-2.773 2.81-4.817-1.43-.092-2.099.577-2.007,2.007-6.266,2.328-10.384,8.846-17.263,9.233-1.615.293-4.004,2.118-5.219.401-1.182,2.063-4.221.418-6.825.401-.397,1.602 1.2,1.209.803,2.811-1.849.242-1.132-2.08-2.409-2.409-.896.059.521,1.011 0,2.007-1.228.291-1.181-.693-2.409-.402 1.878,1.869 5.41,2.084 8.833,2.409-.514,1.646-3.117.417-4.015,0 1.772.904 2.656,2.696 4.416,3.613 1.09.288-.287-1.893.803-1.605 2.476.468 2.841,3.047 4.818,4.015 .992-.5-1.552-2.051-.402-2.811 1.653,1.023 3.261,2.092 5.219,2.811 .325-.077.4-.403.803-.402-.543-2.267-1.695-3.925-3.613-4.817 .768-1.939 1.779.593 3.212.401-.698-1.979-3.036-2.317-4.817-3.211 .261-1.479 2.387-1.092 3.613-1.606 .14,2.403 2.124,2.961 3.212,4.416 .188,1.258-1.009,1.132-1.606,1.606-.11,1.583 1.716,1.228 1.606,2.81-.347,2.346-3.213,2.124-4.817,1.205-.995.292 1.325,1.208 0,2.007-3.237.159-3.563-2.593-5.621-3.613-2.215.148-3.694.748-5.219-.401 .277,2.401 1.316,3.758 1.205,6.022-.042.838-1.008,1.646-1.205,2.408-.515,1.997-.326,5.542 0,7.227 5.864,2.969 11.132,6.532 18.066,8.431 4.061,5.077.007,12.781-.803,18.869 1.621,2.661 6.284,2.279 10.037,2.81 1.733-.273 1.648-2.365 4.015-2.007 .879,1.529.9,3.917 2.007,5.219-.425,3.055-5.199,1.761-7.227,3.212-6.179-1.806-13.541-.042-17.664-3.613v-3.212c1.848-.916 1.833-4.438 2.409-7.226 1.066-5.169 2.979-7.929-3.613-7.628-.754-.71.478-1.172-.401-2.008-.914.971-4.207,1.159-4.015-1.204-2.375.501-2.87-.878-4.015-1.605-3.55.947-5.502-2.293-8.029-3.613-1.077,1.469 1.188,2.373 2.409,2.81-3.726,5.91-8.519,10.752-14.051,14.854-8.208.313-12.577-3.214-20.876-2.811-1.097,1.446-.653,4.433-2.007,5.621 .299,1.173 2.167.776 2.007,2.408-.819.772-1.641-.718-2.81-.803-.623-2.889 1.053-5.895 1.606-8.832 .995-.35 3.112-.784 4.015,0 .846-.84-.529-1.509-1.205-2.008-2.076.998-3.469-.547-4.817,0-3.494,1.417-.878,7.375-2.811,11.241 .888,2.056 5.089.799 6.825,2.008 1.212-1.114-1.317-1.878.401-2.811 1.638.235 2.867.88 3.211,2.409-.875,1.3-2.176,2.297-4.015,2.408-.668.041-1.327-.816-2.81-1.204-2.881-.753-4.903.253-5.621-2.008 1.421-3.466 1.42-6.168 1.205-10.839 5.128-5.819 17.328-.217 24.489-.803 1.834-.977 1.803-3.817 2.81-5.621 2.268-1.077 4.033-2.658 5.621-4.416-5.221.963-10.399,3.251-16.46,4.416-8.629,1.659-21.449.607-28.103-2.007-.785-.309-1.863-1.17-2.81-1.606-4.852-2.232-9.042-5.934-12.445-10.036-2.027-2.443-5.27-8.197-2.409-12.445 2.008-2.981 7.715-2.577 7.627,2.811-2.219.211-1.525-2.49-3.211-2.811-1.18.693-2.894.853-3.613,2.007-.896,4.992 1.566,7.593 4.015,10.438 2.202,2.557 3.739,4.277 7.227,6.423 13.82,8.508 40.216,6.597 51.387-2.408-.764-5.244 3.756-4.265 3.212-9.636-.436-4.298-5.266-6.171-6.423-10.438 2.186-.271 1.786,2.661 4.015,1.204-1.508-1.302-3.525-2.095-4.818-3.613-1.262,1.128 1.042,1.099 0,2.007-3.965.619-5.591-1.1-8.431-1.606 1.005-3.426 1.727-4.001.803-8.029 .466-.337 1.076-.529 2.007-.401-.42-1.052-1.274-1.67-2.007-2.409 .443-2.82 2.042-4.641 4.416-6.423-.351-3.128-5.382-1.577-5.219-5.219-.967-.165-.873.733-2.007.401-.356-.714-1.121-1.02-.803-2.409-2.239-.247-.189-2.286-2.81-2.007-.292-1.228.692-1.181.401-2.409-.474-1.199-.348,1.468-1.606.803-.422-1.76 1.358-1.318 1.205-2.81-1.139-.068-.784,1.357-2.409.803-.216-1.554 1.023-1.653 1.205-2.81-.967-.165-.873.733-2.007.401 1.114-2.123-1.915-3.291-.803-5.219-1.523.05-.573-2.372-2.409-2.007 .208-.594.594-1.012.803-1.606-.394-1.125-1.071.583-1.606-.401 1.403-2.125-1.318-3.111-2.007-4.818-.463-1.148.609-2.017-.401-2.81 2.762-3.394 6.799-5.513 11.241-7.226-.065-1.249-1.787-3.36 0-4.015 1.65.627.606,2.657.803,3.613 .44,2.139 2.667,3.375 4.817,4.416v2.811c.506.966 2.135.809 2.81,1.606 1.055-.284.792-1.884 1.606-2.409-.27-1.603-1.745-2.002-3.211-2.409 .152-3.235-1.809-6.023-4.818-7.226 3.255-2.547 3.519,4.385 8.431,2.81 .159-.962-1.829.223-1.205-1.205 2.725-.449 2.949,1.601 4.817,2.008 .94,4.088 3.264,8.674 3.212,12.445 .065.47.732.338 1.204.401-.619,1.003.035,4.747.402,6.825 .375,2.127 1.232,3.584 1.605,5.219-.39.011-.312.491-.401.803-.594.465-1.012.465-1.606,0-1.111,2.635-6.709.785-6.825,4.416-1.408-.465-2.606-1.141-4.015-1.606-3.386,2.985.799,6.252 2.811,8.431 1.553.215 1.959-.716 3.613-.401 .282,1.486-1.716.692-2.007,1.606 .684,1.189 2.549,1.198 4.015,1.606-.018,1.222.848,1.561 1.205,2.409 2.498.215 5.939,3.192 8.029,1.204-2.692-1.59-5.96-2.604-6.423-6.423 2.294-1.071 7.19,3.309 9.23.002zm30.912,5.62c-.944,2.016-1.774,4.104-2.007,6.423-2.056,2.263-3.565,7.082-3.613,7.227 .404-1.215-1.022,1.515-.401,1.204 1.223-.611.895-1.752.803-1.605 2.738-4.366 6.334-12.249 8.029-16.862-1.746-.07-2.212,2.334-2.811,3.613zm-48.978-24.489c.65.657 2.521.484 2.409-.803-1.512-.207-1.829-.507-2.409.803zm55,13.249c2.833-.532 2.646-3.876 3.613-6.022 .975-2.163 2.83-4.133 3.211-6.423-.542-.126-.767-.572-1.606-.402-1.58,4.441-3.82,8.222-5.218,12.847zm-52.993-9.636c-.459,1.263.63.976.803,1.606-.022.513-.515.556-.402,1.204 1.345-.127 2.531-.413 3.212-1.204-.877-.059-.862-1.012-.803-2.007-1.303-.233-1.867.273-2.81.401zm0,20.074c1.258-.843 1.291-.584 3.212-.401 .372-2.112-2.889-.591-3.613-1.606-.165.967.733.872.401,2.007zm.401,9.634h4.015c-.217-1.79-3.012-1.002-4.015-2.007v2.007zm9.234.804c-1.175.104-1.233-.908-2.409-.803-.525,1.702 2.237,2.167 2.409.803zm-4.416,6.022c1.467.272 2.227,1.252 2.81,2.409 1.021-.049 1.557-.584 1.606-1.606-1.289.071-2.586-.444-3.613-1.606-.004.53-.704.367-.803.803zm28.906,46.168c1.405-.334 1.633-1.846 1.606-3.613h-1.205c.059,1.743-1.129,2.24-.401,3.613zm-1.205,1.605c-.137,1.068-1.491.918-1.606,2.008 1.044,1.081 1.211-.491 2.409-.401-.018.553.189.882.401,1.204 4.608.635 9.083,2.079 14.051,1.204-.747-1.817 1.443-.697 1.605-1.605-3.504-1.345-9.653-.981-14.051-3.212-.102,1.967-1.807,1.679-2.809.802z" fill-rule="evenodd"/>
 <path d="m381.313,27.065c-1.094.369.561,1.255 0,2.409-3.015-.885-6.339-1.085-8.029,1.204 .528,1.058 1.318,1.231 2.409.803-.014,2.405-2.507,3.526-1.205,6.022 .625,1.427-1.363.242-1.204,1.204 .731.89 2.979,2.354 4.416,1.205 1.313,1.737-1.818,2.785-2.811,4.817-1.261.21-2.239.705-3.211,1.205 1.332,1.997 2.941-1.143 4.817-2.007 1.647-.759 5.587-.668 3.613-2.007 .365-1.099 1.406.712 2.007-.401 .141-1.913-2.276-2.847-1.204-4.417 2.244-.504 1.239,2.24 2.408,2.811 2.46-1.239 4.142,2.011 6.825.401 .181-2.054-1.1-2.647-1.204-4.416 1.743-.137 2.106,1.105 2.408,2.409 1.433-.261.015-2.387 0-3.613 1.369-.03 1.189,1.488 1.205,2.811 .838-.76.223-1.719.401-2.811 .065-.401.787-1.8.803-1.605-.198-2.427-2.582-3.283-3.212-5.621 4.773,1.173 6.739,7.393 4.817,12.847-2.308,2.596-7.821,3.954-10.036.401-.506,1.683.344,3.098.401,5.219-2.803,5.156-6.717,11.616-10.84,16.46-.704.828-1.011,1.735-1.605,2.409-.449.509-2.916,2.296-3.212,4.014-.6,3.487 3.915,5.021 2.008,9.234 1.34.801 2.094,2.188 3.613,2.81 .225-2.327-2.054-7.016 1.605-8.029 1.564-.092 2.082.863 3.212,1.205 5.129-.881 9.311-3.386 12.847-6.424 2.38-2.045 7.264-3.593 10.84-6.022 2.085-2.866 5.997-3.905 8.431-6.423-2.325-2.011-7.157.824-9.234-1.204 .081-5.272 5.167-5.54 7.628-8.431 3.453-.538 5.933,1.199 8.431.803 2.8-.444 3.979-3.525 6.825-4.015 1.37.102 1.929,1.015 3.613.803 .665-1.184-.636-1.345-.803-2.409-.662-4.202 2.414-7.591 5.62-8.832-1.123-2.797 1.377-2.955 0-5.621 3.238.108 3.158,2.3 2.811,5.219-2.663,2.019-7.403,3.196-6.022,8.029h3.212c1.074,1.066 1.488,2.793 2.811,3.613 2.665.658 2.899-1.115 4.817-1.204-.63,2.629-4.872,2.711-6.825,2.81-.383-1.758-.946-3.336-2.007-4.416-1.143.731-1.542,2.206-2.409,3.212-1.276,1.352-5.501,1.608-4.015,4.416 2.729-1.018 4.177-3.317 6.825-4.416 1.403.919-1.255,1.116-1.205,2.007 .118.818 1.087.787 1.205,1.605 6.092.874 8.524-1.914 10.839-4.817 .236-1.236.104-2.841 1.606-2.81v2.409c3.214-.43 6.6.429 6.824-3.613 .062-1.802-1.804-1.675-3.612-1.606-.04-1.244.182-2.227.803-2.81-.38-1.494-3.436-.312-3.212-2.409 1.664-.46 1.564.844 2.811.803-.501-3.01-4.061-5.168-7.227-5.219-1.737-.028-2.881,1.849-4.416.803 4.41-5.613 15.993.125 14.452,7.226 .591,1.15 1.973,1.507 2.409,2.811-.219,6.023-7.234,4.21-10.036,6.022-.187,1.257.349,1.792 1.605,1.606 1.053,2.41 2.052,6.652 0,8.832-.055,5.46-2.838,10.172-.803,14.452 1.216,2.56 3.881,3.934 5.62,6.825-.309,1.513.49,1.919.401,3.212 2.419,2.276 5.664,3.037 11.241,2.408 9.399-1.059 19.79-7.515 25.693-14.051 .983-1.089 1.682-2.879 2.811-4.416 .898-1.224 2.413-2.363 3.212-3.613 .322-.505.057-1.423.401-2.007 1.153-1.958 3.402-5.001 4.416-7.627 2.066-5.358 2.777-12.698 1.204-18.869-.845-3.313-3.309-5.611-5.62-8.029 4.881-1.711 7.58,5.833 8.431,10.84 1.012,5.956-1.131,11.417-1.205,15.657-2.332,3.678-3.718,8.378-6.021,12.044-1.371,2.182-2.74,3.14-4.416,5.219-1.168,1.449-1.968,3.682-3.613,5.219-8.587,8.021-18.747,14.702-33.321,13.248-.255,5.072 4.371,5.265 3.613,10.84 .788-.181 1.771.845 2.81.803 2.097-.085 3.556-1.582 5.22-1.605 2.354-.033 3.625,1.485 6.824,2.007 .997.163 2.436-.358 3.613,0 2.965.902 4.654,3.416 4.416,7.227-.801.403-.633,1.775-2.007,1.605-.861-2.083.167-6.055-1.606-7.226-3.968.355-6.168-1.059-9.233-1.606-.492,1.582 1.408,2.16 1.606.803 .928.544 1.33,1.614 3.211,1.205 3.266,3.387 1.137,11.598 1.205,14.452-1.854.06-3.311,1.137-4.817.401 .502,2.451 3.628.032 5.62,1.205 2.479-1.67 2.045-6.252 4.015-8.431 2.801.362.408,3.407-.401,5.62-.768,2.098-1.021,4.161-3.212,4.817-1.429.09-2.406-.271-2.811-1.204-1.558,2.262-5.352.534-7.227-.401-.3-2.04.4-3.079 1.606-3.613 1.149-.079 2.19-.05 2.007,1.204 4.293-.885 4.138-4.594 4.818-8.431-2.344-4.004-11.171.783-15.657-2.007-1.271-.066-1.342,1.066-2.811.803-4.623-2.871-6.645-8.344-8.029-14.453-.349-1.553.98-1.428 1.204-2.408-3.004.345-4.896,5.271-9.635,5.219-1.621,1.499-4.682,3.103-7.628,2.007-1.943,1.938-6.017,1.745-6.423,5.22-5.467,3.098-11.5,5.63-14.052,11.643-1.704.303-3.077.937-5.219.803-1.404-.394-1.899-3.444-4.416-6.825-1.012-1.358-2.829-2.499-3.613-3.613-.314-.446-.066-1.167-.401-1.605-1.677-2.192-4.668-4.011-.803-6.022 1.474-.001 1.538,1.406 2.408,2.008 .153,1.491-1.627,1.05-1.204,2.811 1.362,1.042 1.933-3.369 4.015-1.606 .623,1.694-2.229-.088-1.605,1.606 .486,1.677 1.87.187 2.007-.804 .759.045.278,1.327 1.204,1.205 1.096-.363-1.221-.898 0-1.606 1.879.664 3.045,2.041 3.212,4.416 1.914-.04 2.257,1.49 3.613,2.008 .922-.315.391-2.485-.803-2.008 3.835-4.328 9.238-7.088 12.044-12.445 .967.165.872-.733 2.007-.401-1.317-.985.772-2.542.804-4.015 .128-6.087-4.8-10.838-12.044-7.628-.474,1.72.029,1.638.401,3.212 2.262.656 1.435-1.777 3.613-1.204 1.108,4.314-6.021,3.524-6.424,0 .617-2.934 4.12-4.804 7.227-4.817 4.828-.022 7.321,3.576 9.233,6.423 .432,3.644-.354,6.069-2.007,7.628 6.022-1.337 10.383-4.337 14.854-7.227-1.009-6.218-7.873-6.579-10.036-11.642 2.159,1.934 2.422-.084 4.817.401-.982-3.19 2.509-4.84 4.015-6.825-2.168-.154-5.497,1.992-4.817,6.021-2.348.287-2.82.187-4.416-.803-1.484.22-2.682,1.44-4.015,1.606-4.452.554-9.625-2.25-13.65-1.606-1.29.207-1.863,1.479-3.212,2.008-2.965,1.16-6.717.433-8.832,1.204-2.088.762-9.554,6.836-10.839,9.635-.562,1.223-.057,2.594-.804,3.613 7.747,5.002 19.547,8.506 31.314,6.022 .299,1.235-1.102.771-.803,2.007-5.084,1.182-10.034,1.095-14.854.401-7.312-1.051-13.6-4.874-21.277-4.817-2.501-3.387-7.653-4.123-10.839-6.825-.745,1.897 1.184,3.024 1.605,5.22 .309,1.602-.438,3.64 0,5.219 .688,2.479 3.856,4.25 2.408,6.825 1.746.302 2.979-.838 4.417-.804 1.977.048 4.974,2.283 8.028,2.811 .633.109 1.394-.175 2.008,0 1.691.481 3.103,1.837 6.424,1.204 .401.535.661,1.212 1.204,1.606 .106,4.79-3.888,5.48-4.817,9.233-.721.051-.847-.491-1.606-.401-.258-4.675 3.719-5.114 5.22-8.029-.467-1.423-3.296-2.119-4.818-1.204-1.068,1.187 1.491,1.179.804,3.211-5.002.619-2.778,8.464-8.431,8.432-1.146-1.108.785-.917 1.204-1.606-.1-.436-.799-.272-.803-.803-1.959-.067-.495,1.412-1.205,2.007-1.388.326-1.694-.749-2.408,0 .306,1.033.975,1.702 2.007,2.008 3.474-1.093 5.457-.939 8.431-.803 .071,1.409-1.355,1.32-1.605,2.408-3.384-1.766-6.267.844-9.635-.803-1.764-3.926 2.461-6.617 6.021-5.219 1.515-1.332 3.708-4.298 2.007-6.424-4.039,1.804-7.385-.919-12.445-.401-2.065-.197-2.094-2.274-4.416-1.204-5.938-5.436-4.492-18.257-11.642-22.482-4.678.811-5.228,5.747-10.84,5.621-.502.836-.983,1.693-1.605,2.408-4.513.156-7.162,2.99-6.825,6.825-3.105,2.382-2.18,8.793-4.817,11.643 .456,2.522-.205,2.741-.401,5.219-2.369,4.052-8.575.897-12.847,1.606-1.213.2-2.104,1.523-3.212,1.605-2.602.192-4.548-.951-5.621-2.409-1.43.759-3.031.369-3.211-1.204-1.172.829-1.512,1.294-3.212.803-.579-.893-1.009-1.936-.803-3.613 1.427-.786 1.459.524 3.211.401-.497,1.089-1.549,1-.803,2.409 2.097.356 1.607-1.872 2.008-3.212 2.354.214 2.465-1.817 2.81-3.613-4.977-2.003-9.332-.444-16.46-.803-.358-.711-1.629-.512-1.204-2.007-.623.092-1.873,1.543-2.408.401-1.208.404-.712-.895-.804-1.606-5.99-1.235-5.446-9.006-8.431-13.248-.055-1.393 2.034-.643 2.008-2.007-.467.065-.715-.089-.803-.401-.471-1.195-.499,1.316-1.205,1.204-1.734-.509-3.854-.348-5.62.803-.282.185-.569,1.122-.803,1.204-2.994,1.054-6.21.111-9.233,1.205-.545.124-.333,1.005-.402,1.605-3.064.28-4.062,2.629-4.416,5.62-3.077-.936-2.287,1.995-4.416,2.008 8.342,2.614 20.363.177 28.103,0-1.71,1.874-8.046,2.884-11.643,3.212-6.202.565-14.144,1.059-16.861-2.811-2.776,4.479-11.201,2.051-12.043-2.409-1.299-.496-.307,1.3-1.606.804-5.816-2.883-11.008-6.39-15.657-10.438-2.021,1.668 1.079,4.316 2.007,5.62-.065.471-.732.339-1.204.402 .662.864 2.412,2.212 3.613,2.81 1.084.539 2.18.645 4.015.803 4.012,2.947 6.715,7.202 12.044,8.833 2.364,3.831-2.002,5.736-6.022,5.62-2.195.481-2.371,2.981-4.416,3.613-2.125-.46-2.976-.183-5.219,0-.665-2.413-4.313-1.843-3.613-5.621 4.627.346 7.982-.582 10.839-2.007-3.715-3.913-9.921-5.335-13.65-9.233-5.613.526-5.67-3.832-6.825-8.832-.381-1.653-1.573-3.082-2.007-4.417-.552-1.696-.061-3.359-1.606-4.416-1.034.438-1.929,1.015-2.409,2.008-1.709-.565-3.771-.778-4.817-2.008-1.058.28-.849,1.828-2.007,2.008-1.982.376-2.723-.489-3.613-1.204-1.062.826-3.608,1.806-4.817,1.204-1.14,5.15-8.45,4.129-10.438,8.431-4.409-.094-4.931.413-7.628,2.409-1.854,1.372-5.293,4.808-7.628.803-1.08-1.853-1.584-6.218-2.81-8.431-.991-1.79-4.062-5.628-3.613-8.431 .434-2.713 3.907-4.278 6.423-4.015 .92,5.503 1.566,11.281 5.621,13.649 6.183-1.414 10.206-8.079 16.059-11.643 3.527-2.147 9.25-2.043 15.657-2.408 .703-.04 2.46.119 2.811,0 3.466-1.184 4.633-6.425 2.409-8.833-.284-2.158.458-3.289.803-4.817-1.043-1.081-1.21.491-2.409.401-.337-.466-.529-1.077-.401-2.007-1.135-.332-1.04.566-2.007.401-1.515-3.57-4.241-5.929-4.817-10.438-.429-.913-1.218,1.153-2.409.803-7.604-3.637-10.552-11.93-16.058-17.664-2.601.058-4.133-.953-6.825-.803-3.628-5.816-15.837-7.385-24.087-4.817-.578.091-.14,1.198-.803,1.205-3.127-.77-2.684-3.202-2.007-6.423 .467-2.223.912-2.934 1.606-4.417 1.069-2.283 1.724-6.805 4.416-6.825 .533.672 1.064,1.345.803,2.81 6.243,6.336 16.697,8.461 26.496,11.241 .409,2.282-.991,2.755-2.409,3.211-.194-1.264 1.232-.909.803-2.409-1.761-.422-1.319,1.358-2.811,1.205v-1.606c-2.786.098-.586,2.731-1.204,3.613-1.267.196-1.418-.724-2.811-.401 2.412,3.342 8.43,2.375 12.044,3.613-.676-1.599-2.786-1.764-4.015-2.81 .147-1.458.935-2.277 2.007-2.81 5.918.956 12.233,4.721 17.263,4.015-.185,1.555-1.968,1.511-2.409,2.81 .416,1.726.787,3.496 1.606,4.817 1.261.198 1.061-1.384 2.007-.401 .133,1.471-.446,2.23-.803,3.212 1.213-.542.984,1.679 2.007,2.409 1.235-1.919-.359-4.447 0-6.825 .926-.796.446.101 1.204.402 .6-1.098-.031-3.818-.401-5.219-.56-1.262-1.981.552-2.409-.401 .291-1.448 1.685-1.795 3.613-1.606 .372,1.575.875,1.492.401,3.212 5.257.713 12.233,4.942 16.861,2.409 1.395.868 1.452,2.917 1.606,4.015 .126.944 1.903.238 1.606,1.606-1.265.45-.909.036-2.409,0 .542,3.409 4.06,2.65 6.022,2.81 1.208-.56-.835-2.078.401-2.81 1.551.322 1.335,2.412 2.409,3.211 1.778.773 4.735.515 5.219-1.204 .46-1.665-.844-1.564-.803-2.811 .819-.806.787.178 1.606.401 .554-1.898-1.258-2.639-.401-3.613 .706.097.915.69.803,1.605 .739-.599 1.409-1.268 2.007-2.007 .092-1.564-.863-2.081-1.205-3.211h-4.015c.611-1.262 1.34-2.407 1.606-4.015 1.334-.13.436,1.973 2.409,1.205 1.87,3.818 5.646,3.964 4.416,11.642-.021.137-.682.677-.401,1.205-2.15,3.162-5.463,1.547-9.233,2.007 2.075,6.982-3.034,9.782-7.227,14.051-.631.643-.985,1.802-1.605,2.409-1.524,1.489-2.722,1.646-4.015,3.613-1.004,1.529-.939,2.174-1.606,4.417 .988,2.438-.956-.244-1.205,0-1.197,1.175 2.505,2.385 2.811,5.219 .287,2.667-.627,3.296-2.409,5.219 2.471,4.889 7.083,7.638 10.438,11.643 3.34,1.209 4.964,4.136 8.029,5.62 .115-2.129-2.75-4.739-4.416-6.423v-4.417c2.326-.483 1.53-4.09 4.416-4.015-.53,1.803-1.168,2.819 0,4.416-1.157,1.164-1.255-.781-2.81-.401 .588,1.028.472,2.622 0,4.417 3.018,3.138 5.524,6.787 8.431,10.036 2.19-.276 3.314.74 5.62,1.204 .764-.79-2.284-1.175-1.605-3.212 1.831-.226 1.698,1.514 3.613,1.205 .651-1.346-1.656-1.668.401-2.811-.479-.993-1.374-1.569-2.409-2.007-1.781-.177-.993,2.219-3.211,1.605-1.896-1.985-4.214-3.548-5.219-6.424 2.977.503 3.402,3.557 6.022,4.416 5.054-.968 5.137-6.906 9.635-8.431 1.375-5.048 5.33-7.517 11.241-8.029-1.344-3.191-5.42-4.472-5.62-8.431-.115-2.268 1.896-3.573 1.204-6.021 1.545,1.344.229-2.744 2.007-2.409v-3.212c1.613-1.399 4.679-3.257 4.416-5.219-7.19-3.114-9.979-10.63-12.847-18.066-3.954-1.533-4.795-6.178-8.431-8.029-4.958-.394-7.544-3.162-13.649-2.409-1.502.371-2.109,1.638-3.613,2.007-2.622-.188-3.078-2.542-4.817-3.613-.276-7.105 2.082-14.679 10.438-14.453 .616,2.195 3.093,2.528 2.81,5.621 2.854,3.836 7.183,6.199 11.241,8.832 4.057-1.677 3.663,2.853 7.227,2.81 .409.528.394,1.48.803,2.007 3.965.986 7.257,2.646 10.438,4.417 2.198.056 3.819-.463 5.621-.803 2.827,1.856 5.74,3.627 7.628,6.423 1.229-.778 1.001-3.013 2.007-4.015 2.038-1.654 4.6-.312 5.62-2.81 1.176-.104 1.233.908 2.409.803 .982-.684-1.477-2.76 0-4.015 2.257-.31 1.038,1.328 1.605,2.007 .834-.103.11-1.764.804-2.007 1.129.477 1.492,1.719 2.408,2.409 6.557-3.068 12.505,7.162 8.029,12.043-.309.337-1.298.81-1.605,1.205-1.17,1.497-1.669,3.581-5.621,2.81-.885,1.39-1.261,3.289-3.211,3.613 1.893,6.39-3.883,8.37-5.22,12.847-1.135.332-1.04-.566-2.007-.401 .058,2.215-2.129,4.535-1.606,8.431h-1.605c2.023,2.228 5.811,4.485 4.015,9.233 3.125,4.235 7.68,7.041 12.044,10.036 .643-1.07 2.206-2.395 2.408-4.015 .266-2.112-1.029-3.075-.803-4.416 5.51.594 1.538,7.404 0,9.234 4.875,3.658 14.658,3.743 22.081,3.612-.056,3.143-6.23,3.151-10.037,2.811-5.055-.453-11.481-2.762-14.854-4.416-2.192.752-2.823,3.064-6.022,2.811 .409-2 3.284-1.533 4.015-3.212-.683-1.19-1.957-1.79-3.613-2.008-1.674-2.072-3.433-4.061-6.021-5.219-1.064,2.326 3.28,2.43 1.605,5.621 1.178,1.632 2.824,2.796 2.409,6.021 3.422,3.214 8.91.445 14.051,2.409 .573.219.893,1.06 1.606,1.204 1.501.303 3.571-.41 5.219.401 1.739,2.246.308,6.193 0,8.832-2.678-1.015-.045-4.867-1.205-7.227-1.026-1.917-5.202-.686-6.824-2.007-.834.73-.081,3.27.803,3.613 .855-2.232.414-.026 1.605.401 1.091.391.646-2.182 1.606-.401-.646,1.628.083,4.633-1.204,5.62 2.273-.267 3.726.288 4.416,1.605 3.492-.388 7.738-.022 10.438-1.204 1.451-5.689 1.662-13.705 4.817-18.868-.463-4.393 2.928-5.496 5.621-7.628 1.725-1.366 4.461-3.678 6.824-4.416 .119-1.056-1.558-.316-1.204-1.606 5.705-10.927-16.062-17.972-20.475-10.839-1.766,2.854-1.085,7.806 2.811,8.03 1.562-.043.69-2.521 2.007-2.811 1.427.046 1.616,1.328 1.606,2.811-1.05,1.359-3.52,1.298-6.022,1.204-3.05-1.772-4.695-5.871-2.408-9.635 5.042-8.299 25.245-3.673 25.693,7.226 .062,1.52-1.08,2.815-.803,4.817 6.04-3.831 14.729-3.598 14.854-12.043 .014-.895-.621-1.152-.803-2.007-.56-2.633.392-5.236 1.605-7.628-1.748-2.132-2.652-5.108-4.015-7.627-.712,1.295-2.194,1.819-3.211,2.81-2.279-1.594-4.684.813-5.621-1.204-.827.109-.096,1.777-1.204,1.605-1.074-.264-1.202-1.474-2.007-2.007 .835-5.587 2.506-10.34 6.824-12.445-1.49-4.13-6.194-5.046-6.021-10.839-7.097-.302-12.087-4.722-18.468-4.416-1.602-.272-2.251-1.496-3.212-2.409-4.421-.543-9.158-2.59-14.051-1.606-1.576.317-2.749,1.672-5.219.803-1.557-6.014 2.014-13.382 7.628-14.854 1.266,3.521 2.986,6.276 6.423,8.431 .551.345 1.452.1 2.008.401 .682.37 1.027,1.324 1.605,1.606 .659.321 1.692.05 2.409.401 3.932,1.927 8.307,4.538 11.642,5.621 4.1,1.33 8.439,1.758 11.643,4.015 1.685-.959 5.663-1.325 5.621,1.606 4.2,1.254 6.819.585 10.438,1.204 .463.475.454,1.419.401,2.409 1.423.853 3.513,1.037 4.817,2.007 2.05-1.301 4.015-4.812 7.227-3.613 1.713-.429 2.017-2.266 4.015-2.409 1.04.433.938,2.006 2.811,1.605 1.128-.818.266-2.101.803-2.81 2.222.455 4.258,1.095 4.015,4.015-1.782.31-1.616-1.328-2.409-2.007-.925-.123-.445,1.16-1.204,1.205-.284,1.728 2.41,1.806 1.204,3.211-1.218.147-.833-1.308-1.204-2.007-2.851-.06-3.318-.049-4.823-1.209zm-73.468-10.037c2.661-1.131 5.162-2.064 8.832-1.606 5.421.677 11.075,3.555 15.256,4.817 4.261,1.287 8.021,2.673 11.241,2.409-10.886-4.638-24.712-6.335-30.11-16.46-.553.018-.881-.189-1.204-.401-1.904,3.181-3.729,6.442-4.015,11.241zm-73.066,5.62c1.421-.217.987,1.422 2.409,1.205 3.824-2.283 7.397-10.042 4.817-14.854-6.472.486-7.535,6.382-7.226,13.649zm-78.285,2.008c1.786.109 3.382-1.311 5.621-1.605 3.384-.445 8.336.229 12.044.803 2.639.409 5.698,2.55 7.627.401-1.94-2.227-5.222-2.512-8.029-3.613-2.737-1.074-5.481-2.677-8.431-3.212-1.239-1.972-3.592-2.832-4.416-5.219h-1.205c-1.342,3.875-2.745,7.692-3.211,12.445zm85.511-2.409c2.604-.275 6.09-.06 8.833.803 1.299.409 2.287,1.716 3.613,2.007 1.486.326 1.966.637 2.409.803 1.558.583 4.552.367 4.817,2.409-1.245.041-1.918-.491-2.811-.803 1.51,2.767 6.364.859 5.621,7.226 1.371.165.51,1.084 2.007.401 .367.704.138,2.003.803,2.409 .717-1.907 1.086.598 2.008.803 .904-2.893-5.861-5.13-2.811-8.832 4.496,2.061 9.498,3.616 13.248,6.423 .006-.798 1.096-.511.804-1.606-6.249-2.049-11.93-4.665-17.264-7.628-.091.711.405,2.011-.803,1.606 .261-1.465-.271-2.138-.803-2.81-1.227-.29-1.463.41-2.409.401-.718-.753-1.434-1.51-2.007-2.409-5.686-1.674-9.19-5.53-13.249-8.832 .274,3.224-2.458,5.563-2.006,7.629zm111.205,6.022c-1.198-.407-2.568-.644-3.613-1.204 .965,1.99-.284,3.235 1.606,5.219 1.393.322 1.543-.598 2.81-.401 1.354,1.863 2.947,5.611 4.818,5.621-1.022-1.789-2.081-3.54-2.409-6.022 .712-.092 2.011.404 1.605-.803-1.97-1.776-3.064-4.429-5.219-6.022 .018,1.321.679,1.998.402,3.612zm-153.759.803c-2.875-.953-5.538-2.112-8.832-2.409-.085-.485-.446-.247-.803,0-.313.089-.467.336-.401.803 4.156,2.134 9.332,3.248 14.854,4.015-.626-1.749-3.132-1.85-4.818-2.409zm167.811,1.606c-3.867-.686-7.181-4.057-11.241-3.211 3.709.843 7.496,3.741 11.241,3.211zm-67.847.402c.177,1.694 1.366,2.292-.401,3.211-1.308-.768-2.622-1.353-1.204-2.81-2.037-.163-2.345,1.402-3.613,2.007-2.306-1.49-3.661,1.414-4.015,3.211 1.642.091 3.11.66 4.817,1.606-.621.583-.354,2.055-.401,3.212h-2.409c.294,2.124 2.445,3.587 4.416,2.81 .188,1.701 3.976,1.439 5.22.803-.046-1.426-1.485-1.459-1.205-3.211 .543-.126.768-.572 1.606-.401-.053.989-.061,1.934.401,2.409 1.515-.552 3.324.377 5.219-.401 .344-2.01.935-2.217.401-4.417-.706-.231-2.358.485-2.408-.401 .589-1.721 3.104-.403 4.015,0 .401-1.437.056-2.038 1.605-.803-.095-6.742-5.233-8.405-10.036-8.431 .281,1.485-1.409,1.001-2.008,1.606zm65.037,12.846c.038-.631-.054-1.392.803-1.205 4.062,1.383 5.755-1.631 10.438-.803-1.217-1.594-3.864-1.756-4.416-4.015 .22-1.602.22-1.209 0-2.811-1.372.301-.511-1.631-2.008-1.204-2.791,1.565-6.921,1.733-9.635,1.606-.029-1.367 1.181-1.496 2.007-2.007 1.462.693 5.388,1.703 5.621-.803-1.005-1.011-1.577.461-2.811.402-.122-2.688-3.33-2.291-5.219-3.212-2.218,5.187 1.966,10.735 5.22,14.052zm-158.578.402c1.569-4.563-1.117-8.213-2.409-11.241-3.159-.99-6.216-2.082-9.635-2.811 2.619,6.08 9.836,7.562 12.044,14.052zm67.446-3.614c3.015.465 5.713,1.245 7.628,2.811 1.022-1.794-.234-3.071-.401-4.818-2.561-.176-3.122-1.927-3.212-3.613-4.201-.884-7.088-3.083-10.84-4.416 .852,4.768 5.869,5.371 6.825,10.036zm15.256,8.833c-.416-2.42-1.868-6.487-3.212-9.234 3.186-3.941-2.019-7.176-5.22-8.431 2.011,2.997 1.415,6.5 2.008,10.438 1.9-.187.596.349.803,1.606 .69.158 1.029-.596 1.204,0-.875.839.201,1.146 0,2.409 1.428.624.243-1.364 1.205-1.205-.808,3.638 1.779,1.412 1.204,4.818 1.261-.275 1.64.046 2.008-.401zm83.504-15.256c-.293-1.095.798-.808.803-1.606-1.641.169-1.623-1.321-3.613-.803 .332,1.407 1.6,1.879 2.81,2.409zm-159.783-.803c1.92.63 5.479,1.737 7.227,1.204-2.659.304-5.438-3.285-7.227-1.204zm4.015,15.657c.468.602 1.16.982 1.205,2.007 .759.09.885-.452 1.605-.401v1.606c1.393.055.643-2.034 2.007-2.007 2.912-1.504 6.736-2.096 8.833-4.416-3.702-.222-5.318,1.641-8.029,2.409-.068-.601.143-1.481-.402-1.606-.813.525-.551,2.125-1.605,2.409-3.596.246-5.656-3.17-6.022-4.817 3.686.341 6.238-.453 8.832-1.205 .798.005.511,1.096 1.606.803 1.287-.989 4.832.281 5.219-1.606-.174-.416-.345-2.274-.803-2.81-2.552-2.987-10.839-1.841-14.453-4.015-.848,1.025-1.971,1.775-3.212,2.409-.532,4.894 2.737,10.147 5.219,11.24zm12.445-11.241v-1.606c-1.753.526-3.627-.892-4.416,0 1.796.212 2.535,1.48 4.416,1.606zm63.431,2.81c.337-.466.53-1.076.401-2.007-1.507-.099-3.94-1.013-5.219-.803 1.346,1.198 2.771,2.316 4.818,2.81zm63.432,2.409c1.178-1.379-1.229-1.744-.803-3.613h-1.205c.425,1.449.619,3.128 2.008,3.613zm-69.052-2.81c-.164.967.733.873.401,2.007 1.713-1.253 3.778,1.989 4.416-.803-1.99.102-2.719-2.695-4.817-1.204zm8.029,8.029c-1.29.353-.55-1.323-1.605-1.205-.767.974-2.015,1.465-3.212,2.007 .934.271.302,2.106 2.007,1.606 .968-2.774 5.848-2.416 6.825-4.015-.66-.678-2.179-.498-2.811-1.204-.605.734-.426,2.251-1.204,2.811zm130.074,3.212c.513.022.556.515 1.204.402-.524-1.729 1.139-1.27 1.605-2.007-.86-5.103-6.799-3.387-9.233-.803v-1.204c-2.542,1.583-4.612-1.715-6.825-.402 1.177,2.303 6.421.539 6.022,4.417 2.051.312 1.022-2.457 2.408-2.811-.807,2.681 1.725,2.023 2.008,3.613-.015,1.324-1.142,1.535-2.409,1.606-3.233,2.922-6.187,6.125-10.438,8.029-.24.715 1.177,1.667 0,2.007-2.124-.152-3.136-1.415-4.817-2.007-7.027,4.482-13.02,9.998-21.68,12.847 1.223,2.525 2.549,4.945 4.416,6.825 2.465-8.241 11.536-9.876 16.059-16.059-.937-.134-1.729-.412-2.007-1.205 1.214.125 3.122-.446 3.212.803 .258,1.731-1.684,1.261-1.606,2.811 2.03-.762.951-.037 1.606,1.205 3.143.332 3.499-2.122 6.423-2.008v-1.605c2.49-.247 3.011-2.038 5.62-1.205-.276-2.623-3.579.222-4.817-1.205 3.196-1.889 9.892-.279 13.249-2.007-.696-2.017-1.797-4.081-2.008-6.022-.13-1.193.722-1.274.803-2.409-.008.106-.765-.227-.803-.401-.161-.735.348-2.159.401-2.409 .56.511.175,1.966 1.204,2.007 1.363-2.367-1.513-3.54 0-4.416 1.387.924 1.257,2.251.403,3.613zm-59.818-3.212c1.224.02 2.044-.365 2.409-1.205-.76-.711-2.808-.448-2.409,1.205zm71.46,7.628c1.712-1.902 2.891-4.336 4.015-6.825-2.996.355-4.321,4.505-4.015,6.825zm-30.109,6.022c2.331.787 5.116-2.019 7.227-3.613 .934-.706 2.253-1.62 3.212-2.409 .784-.646 3.182-1.909 1.605-2.811-4.349,2.611-8.979,4.94-12.044,8.833zm-183.469-5.219c1.231,1.563 3.782.191 4.817-.803-1.324-.827-3.28.568-4.817.803zm140.11-.401c1.322,1.604 4.928,2.11 6.022,0-1.745-.299-4.177-.48-6.022,0zm70.256-.402c-1.475,1.797-4.29,3.526-6.423,4.416-.619.258-1.766-.341-1.605.803v.803c4.019-1.201 7.423-3.016 10.036-5.621 .067-.87-1.424-.182-2.008-.401zm-144.928,6.424c.002.403-.325.478-.401.803 2.017-.62 4.172,1.322 4.817-.401-1.629-1.772-1.928-.429-4.014,0-1-2.212-2.747-3.677-4.417-5.219 .587,2.358 1.453,4.436 4.015,4.817zm-70.255-2.008c1.257.186 1.792-.349 1.606-1.606h-1.606v1.606zm201.132,4.818v-1.606h-1.605c-.187,1.256.348,1.792 1.605,1.606zm-142.117,10.438c.839,1.262-.365,2.24.401,3.212 1.634.162 1.583-1.361 2.408-2.008-.711-.091-2.01.405-1.605-.803 .989-.053 1.935-.061 2.409.401 .32-.75.67-1.47.803-2.408-1.585.514-.972-1.17-2.008-1.205 .207,1.575-.696,3.154-2.408,2.811zm109.599,10.839c-1.978-5.383-3.724-10.997-10.036-12.044-1.086,7.346 5.161,12.875 10.036,12.044zm-217.191-5.621c3.019,3.94 4.612,9.306 6.825,14.052 .759-.09.886.452 1.606.401 3.044-1.098 1.957-5.96 6.022-5.219 .521-1.486 1.59-2.426 2.811-3.212-2.595-2.017-4.623,2.286-7.628,2.408-3.495-1.857-4.146-6.559-6.825-9.233v-2.408c-.848-.357-1.187-1.223-2.409-1.205-.189,1.984.386,2.49-.402,4.416zm50.986-.401c1.864,1.01 3.087-.424 4.416-.401-.274-2.463-3.778-.467-4.416.401zm67.445,5.621c2.379,1.562 3.493-1.521 4.817-1.205-.832-2.852-4.299-.035-4.817,1.205zm179.855,12.847c-.753-.452-.853-1.557-1.606-2.008-1.336,1.025.428,3.585 1.606,2.008zm-165.001-.402v1.204c1.265.45.909.036 2.408,0 .549-1.801-1.616-1.949-2.408-1.204zm4.818,2.81c.069-1.427-.846-3.944-2.007-2.81 1.474.132.356,2.855 2.007,2.81zm2.409.804c-.167-1.707-.502-3.245-2.008-3.613 .284,1.589.619,3.127 2.008,3.613zm89.525-2.41c-.298,2.306 2.141,1.875 3.212,2.811-.333,1.264 1.78,3.206 2.811,4.817 .334.522.455,1.84.803,2.007 1.685.81 3.808-.05 4.416-2.81-2.189-.634-3.304-2.093-3.212-4.015-.067.468-.635.436-1.204.401-.97-1.038-.02-3.995-2.007-4.015-.784,1.891-2.849.708-4.819.804zm-155.767,7.628c-1.026,2.186-4.095,2.328-6.423,3.212-.068.601.144,1.481-.401,1.605-1.959.128.387.634 1.204.401-.005.798-1.095.511-.803,1.605 2.772.632 2.742-1.54 4.015-2.408 1.954-1.392 5.65-1.041 7.227-2.811-1.265.194-.301-1.841-1.205-2.007-1.343,2.365-2.471-1.946-4.416-1.606-.062,1.001.63,1.245.802,2.009zm86.717,5.621c.116-1.723-.56-2.652-1.205-3.613h-1.204c.234,1.773 1.361,2.654 2.409,3.613zm-16.46-1.205c-1.277-.062-1.767-.91-3.212-.803-.062.998.631,1.242.803,2.007 2.471-.737 3.768.002 4.817,1.606 4.415-.647 7.726-2.562 11.241-2.008 .332-1.135-.565-1.04-.401-2.007-3.848.301-8.065.231-11.241,1.204 .271-1.877-1.72-1.492-2.811-2.008-1.193,1.158 1.005.699.804,2.009z" fill-rule="evenodd"/>
</svg>
