<?xml version="1.0" encoding="UTF-8"?>
<svg viewBox="0 0 941.74677 481.54587" xmlns="http://www.w3.org/2000/svg">
 <g transform="translate(427.5 .00012)">
  <path d="m-179.16 165.5 9.9547 2.8253 10.292 2.3193 10.503 1.8976 10.756 1.4338 10.883 1.012 11.051 0.50603 6.6224 0.0843 7.5082-0.12651 7.4239-0.29518 7.2973-0.5482 7.1708-0.71687 7.0864-0.92772 6.9177-1.0964 6.8333-1.3072 6.6646-1.4759 6.4537-1.6024 6.3693-1.8133 6.1584-2.0241 5.9897-2.1506 5.7788-2.2771 10.967-5.0603 5.1461-2.6988 4.9774-2.9097 4.6821-2.994 4.5134-3.1627 4.2181-3.2048 3.9228-3.3735 3.7119-3.4579 3.4167-3.6265 3.1214-3.6687 2.8683-3.753 2.5309-3.8795 2.2356-3.9639 1.856-3.9639 1.6029-4.1326 1.2233-4.1747 0.92798-4.2591 0.54835-4.2591 0.16873-4.3856-0.16873-4.3856-0.54835-4.2591-0.92798-4.2591-1.2233-4.1747-1.6029-4.1326-1.856-3.9639-2.2356-3.9639-2.5309-3.8796-2.8683-3.7952-3.1214-3.6265-3.4167-3.6265-3.7119-3.4579-3.9228-3.3735-4.2181-3.2048-4.5134-3.1627-4.6821-2.994-4.9774-2.9097-5.1461-2.741-10.967-5.0181-5.7788-2.2771-5.9897-2.1506-6.1584-2.0241-6.3693-1.8133-6.4537-1.6446-6.6646-1.4338-6.8333-1.3072-6.9177-1.0964-7.0864-0.92772-7.1708-0.71687-7.2973-0.5482-7.4239-0.29518-7.5082-0.12651-7.466 0.12651-7.4239 0.29518-7.2973 0.5482-7.1708 0.71687-7.0864 0.92772-6.9177 1.0964-6.8333 1.3072-6.6646 1.4338-6.4537 1.6446-6.3694 1.8133-6.1584 2.0241-5.9897 2.1506-5.7788 2.2771-10.967 5.0181-5.1461 2.741-4.9774 2.9097-4.6821 2.994-4.5134 3.1627-4.2181 3.2048-3.9228 3.3735-3.7119 3.4579-3.4167 3.6265-3.1214 3.6265-2.8683 3.7952-2.5309 3.8796-2.2356 3.9639-1.856 3.9639-1.6029 4.1326-1.2232 4.1747-0.92798 4.2591-0.54836 4.2591-0.16872 4.3856 0.16872 4.2169 0.46399 4.1326 0.80144 4.1326 1.0967 4.006 1.392 4.006 1.7294 3.8374 3.1636 5.735 3.8807 5.5663 4.5556 5.3555 5.2726 5.229 5.9054 4.9759 4.3025 3.2892 9.6173 6.2832 0.2109-0.21084-37.534 49.443 75.244-32.871-0.0844 0.0843z" fill="#fff" fill-rule="evenodd" stroke="#000" stroke-linecap="round" stroke-linejoin="round" stroke-width="2"/>
  <path d="m-331.54 279.54c39.827 0 72.118-32.286 72.118-72.116s-32.292-72.122-72.118-72.122-72.122 32.292-72.122 72.122 32.29 72.116 72.122 72.116z"/>
  <path d="m-427.5 481.5c23.955 0 194.13 0.0434 194.13 0.0434s-0.16314-69.309-0.16314-98.869c0-53.517-43.388-96.905-96.9-96.905-53.52 0-96.905 43.388-96.905 96.905s-0.16314 31.297-0.16314 98.826z"/>
 </g>
 <g transform="matrix(-1 0 0 1 514.24 .00012)">
  <path d="m-179.16 165.5 9.9547 2.8253 10.292 2.3193 10.503 1.8976 10.756 1.4338 10.883 1.012 11.051 0.50603 6.6224 0.0843 7.5082-0.12651 7.4239-0.29518 7.2973-0.5482 7.1708-0.71687 7.0864-0.92772 6.9177-1.0964 6.8333-1.3072 6.6646-1.4759 6.4537-1.6024 6.3693-1.8133 6.1584-2.0241 5.9897-2.1506 5.7788-2.2771 10.967-5.0603 5.1461-2.6988 4.9774-2.9097 4.6821-2.994 4.5134-3.1627 4.2181-3.2048 3.9228-3.3735 3.7119-3.4579 3.4167-3.6265 3.1214-3.6687 2.8683-3.753 2.5309-3.8795 2.2356-3.9639 1.856-3.9639 1.6029-4.1326 1.2233-4.1747 0.92798-4.2591 0.54835-4.2591 0.16873-4.3856-0.16873-4.3856-0.54835-4.2591-0.92798-4.2591-1.2233-4.1747-1.6029-4.1326-1.856-3.9639-2.2356-3.9639-2.5309-3.8796-2.8683-3.7952-3.1214-3.6265-3.4167-3.6265-3.7119-3.4579-3.9228-3.3735-4.2181-3.2048-4.5134-3.1627-4.6821-2.994-4.9774-2.9097-5.1461-2.741-10.967-5.0181-5.7788-2.2771-5.9897-2.1506-6.1584-2.0241-6.3693-1.8133-6.4537-1.6446-6.6646-1.4338-6.8333-1.3072-6.9177-1.0964-7.0864-0.92772-7.1708-0.71687-7.2973-0.5482-7.4239-0.29518-7.5082-0.12651-7.466 0.12651-7.4239 0.29518-7.2973 0.5482-7.1708 0.71687-7.0864 0.92772-6.9177 1.0964-6.8333 1.3072-6.6646 1.4338-6.4537 1.6446-6.3694 1.8133-6.1584 2.0241-5.9897 2.1506-5.7788 2.2771-10.967 5.0181-5.1461 2.741-4.9774 2.9097-4.6821 2.994-4.5134 3.1627-4.2181 3.2048-3.9228 3.3735-3.7119 3.4579-3.4167 3.6265-3.1214 3.6265-2.8683 3.7952-2.5309 3.8796-2.2356 3.9639-1.856 3.9639-1.6029 4.1326-1.2232 4.1747-0.92798 4.2591-0.54836 4.2591-0.16872 4.3856 0.16872 4.2169 0.46399 4.1326 0.80144 4.1326 1.0967 4.006 1.392 4.006 1.7294 3.8374 3.1636 5.735 3.8807 5.5663 4.5556 5.3555 5.2726 5.229 5.9054 4.9759 4.3025 3.2892 9.6173 6.2832 0.2109-0.21084-37.534 49.443 75.244-32.871-0.0844 0.0843z" fill="#fff" fill-rule="evenodd" stroke="#000" stroke-linecap="round" stroke-linejoin="round" stroke-width="2"/>
  <path d="m-331.54 279.54c39.827 0 72.118-32.286 72.118-72.116s-32.292-72.122-72.118-72.122-72.122 32.292-72.122 72.122 32.29 72.116 72.122 72.116z"/>
  <path d="m-427.5 481.5c23.955 0 194.13 0.0434 194.13 0.0434s-0.16314-69.309-0.16314-98.869c0-53.517-43.388-96.905-96.9-96.905-53.52 0-96.905 43.388-96.905 96.905s-0.16314 31.297-0.16314 98.826z"/>
 </g>
</svg>
