<?xml version="1.0" encoding="UTF-8" standalone="no"?>
<svg
   viewBox="0 0 941.74677 481.54587"
   version="1.1"
   id="svg198"
   sodipodi:docname="persons.svg"
   inkscape:version="1.2.2 (b0a84865, 2022-12-01)"
   xmlns:inkscape="http://www.inkscape.org/namespaces/inkscape"
   xmlns:sodipodi="http://sodipodi.sourceforge.net/DTD/sodipodi-0.dtd"
   xmlns="http://www.w3.org/2000/svg"
   xmlns:svg="http://www.w3.org/2000/svg">
  <defs
     id="defs202">
    <rect
       x="514.5953"
       y="28.02907"
       width="395.60835"
       height="283.25657"
       id="rect1260" />
    <rect
       x="503.29075"
       y="140.78907"
       width="325.13138"
       height="212.20854"
       id="rect551" />
    <rect
       x="501.1817"
       y="139.18667"
       width="161.96409"
       height="101.58626"
       id="rect545" />
    <rect
       x="205.0195"
       y="31.02307"
       width="621.36218"
       height="168.26321"
       id="rect489" />
    <rect
       x="217.25205"
       y="23.74887"
       width="204.91525"
       height="127.709"
       id="rect429" />
  </defs>
  <sodipodi:namedview
     id="namedview200"
     pagecolor="#ffffff"
     bordercolor="#000000"
     borderopacity="0.25"
     inkscape:showpageshadow="2"
     inkscape:pageopacity="0.0"
     inkscape:pagecheckerboard="0"
     inkscape:deskcolor="#d1d1d1"
     showgrid="false"
     inkscape:zoom="0.49008831"
     inkscape:cx="379.52344"
     inkscape:cy="263.21787"
     inkscape:window-width="1445"
     inkscape:window-height="854"
     inkscape:window-x="0"
     inkscape:window-y="38"
     inkscape:window-maximized="0"
     inkscape:current-layer="svg198"
     showguides="false" />
  <g
     transform="translate(427.5 .00012)"
     id="g188">
    <path
       d="m-179.16 165.5 9.9547 2.8253 10.292 2.3193 10.503 1.8976 10.756 1.4338 10.883 1.012 11.051 0.50603 6.6224 0.0843 7.5082-0.12651 7.4239-0.29518 7.2973-0.5482 7.1708-0.71687 7.0864-0.92772 6.9177-1.0964 6.8333-1.3072 6.6646-1.4759 6.4537-1.6024 6.3693-1.8133 6.1584-2.0241 5.9897-2.1506 5.7788-2.2771 10.967-5.0603 5.1461-2.6988 4.9774-2.9097 4.6821-2.994 4.5134-3.1627 4.2181-3.2048 3.9228-3.3735 3.7119-3.4579 3.4167-3.6265 3.1214-3.6687 2.8683-3.753 2.5309-3.8795 2.2356-3.9639 1.856-3.9639 1.6029-4.1326 1.2233-4.1747 0.92798-4.2591 0.54835-4.2591 0.16873-4.3856-0.16873-4.3856-0.54835-4.2591-0.92798-4.2591-1.2233-4.1747-1.6029-4.1326-1.856-3.9639-2.2356-3.9639-2.5309-3.8796-2.8683-3.7952-3.1214-3.6265-3.4167-3.6265-3.7119-3.4579-3.9228-3.3735-4.2181-3.2048-4.5134-3.1627-4.6821-2.994-4.9774-2.9097-5.1461-2.741-10.967-5.0181-5.7788-2.2771-5.9897-2.1506-6.1584-2.0241-6.3693-1.8133-6.4537-1.6446-6.6646-1.4338-6.8333-1.3072-6.9177-1.0964-7.0864-0.92772-7.1708-0.71687-7.2973-0.5482-7.4239-0.29518-7.5082-0.12651-7.466 0.12651-7.4239 0.29518-7.2973 0.5482-7.1708 0.71687-7.0864 0.92772-6.9177 1.0964-6.8333 1.3072-6.6646 1.4338-6.4537 1.6446-6.3694 1.8133-6.1584 2.0241-5.9897 2.1506-5.7788 2.2771-10.967 5.0181-5.1461 2.741-4.9774 2.9097-4.6821 2.994-4.5134 3.1627-4.2181 3.2048-3.9228 3.3735-3.7119 3.4579-3.4167 3.6265-3.1214 3.6265-2.8683 3.7952-2.5309 3.8796-2.2356 3.9639-1.856 3.9639-1.6029 4.1326-1.2232 4.1747-0.92798 4.2591-0.54836 4.2591-0.16872 4.3856 0.16872 4.2169 0.46399 4.1326 0.80144 4.1326 1.0967 4.006 1.392 4.006 1.7294 3.8374 3.1636 5.735 3.8807 5.5663 4.5556 5.3555 5.2726 5.229 5.9054 4.9759 4.3025 3.2892 9.6173 6.2832 0.2109-0.21084-37.534 49.443 75.244-32.871-0.0844 0.0843z"
       fill="#fff"
       fill-rule="evenodd"
       stroke="#000"
       stroke-linecap="round"
       stroke-linejoin="round"
       stroke-width="2"
       id="path182" />
    <path
       d="m-331.54 279.54c39.827 0 72.118-32.286 72.118-72.116s-32.292-72.122-72.118-72.122-72.122 32.292-72.122 72.122 32.29 72.116 72.122 72.116z"
       id="path184" />
    <path
       d="m-427.5 481.5c23.955 0 194.13 0.0434 194.13 0.0434s-0.16314-69.309-0.16314-98.869c0-53.517-43.388-96.905-96.9-96.905-53.52 0-96.905 43.388-96.905 96.905s-0.16314 31.297-0.16314 98.826z"
       id="path186" />
  </g>
  <path
     d="m 693.4,165.50012 -9.9547,2.8253 -10.292,2.3193 -10.503,1.8976 -10.756,1.4338 -10.883,1.012 -11.051,0.50603 -6.6224,0.0843 -7.5082,-0.12651 -7.4239,-0.29518 -7.2973,-0.5482 -7.1708,-0.71687 -7.0864,-0.92772 -6.9177,-1.0964 -6.8333,-1.3072 -6.6646,-1.4759 -6.4537,-1.6024 -6.3693,-1.8133 -6.1584,-2.0241 -5.9897,-2.1506 -5.7788,-2.2771 -10.967,-5.0603 -5.1461,-2.6988 -4.9774,-2.9097 -4.6821,-2.994 -4.5134,-3.1627 -4.2181,-3.2048 -3.9228,-3.3735 -3.7119,-3.4579 -3.4167,-3.6265 -3.1214,-3.6687 -2.8683,-3.753 -2.5309,-3.8795 -2.2356,-3.9639 -1.856,-3.9639 -1.6029,-4.1326 -1.2233,-4.1747 -0.92798,-4.2591 -0.54835,-4.2591 -0.16873,-4.3856 0.16873,-4.3856 0.54835,-4.2591 0.92798,-4.2591 1.2233,-4.1747 1.6029,-4.1326 1.856,-3.9639 2.2356,-3.9639 2.5309,-3.8796 2.8683,-3.7952 3.1214,-3.6265 3.4167,-3.6265 3.7119,-3.4579 3.9228,-3.3735 4.2181,-3.2048 4.5134,-3.1627 4.6821,-2.994 4.9774,-2.9097 5.1461,-2.741 10.967,-5.0181 5.7788,-2.2771 5.9897,-2.1506 6.1584,-2.0241 6.3693,-1.8133 6.4537,-1.6446 6.6646,-1.4338 6.8333,-1.3072 6.9177,-1.0964 7.0864,-0.92772 7.1708,-0.71687 7.2973,-0.5482 7.4239,-0.29518 7.5082,-0.12651 7.466,0.12651 7.4239,0.29518 7.2973,0.5482 7.1708,0.71687 7.0864,0.92772 6.9177,1.0964 6.8333,1.3072 6.6646,1.4338 6.4537,1.6446 6.3694,1.8133 6.1584,2.0241 5.9897,2.1506 5.7788,2.2771 10.967,5.0181 5.1461,2.741 4.9774,2.9097 4.6821,2.994 4.5134,3.1627 4.2181,3.2048 3.9228,3.3735 3.7119,3.4579 3.4167,3.6265 3.1214,3.6265 2.8683,3.7952 2.5309,3.8796 2.2356,3.9639 1.856,3.9639 1.6029,4.1326 1.2232,4.1747 0.92798,4.2591 0.54836,4.2591 0.16872,4.3856 -0.16872,4.2169 -0.46399,4.1326 -0.80144,4.1326 -1.0967,4.006 -1.392,4.006 -1.7294,3.8374 -3.1636,5.735 -3.8807,5.5663 -4.5556,5.3555 -5.2726,5.229 -5.9054,4.9759 -4.3025,3.2892 -9.6173,6.2832 -0.2109,-0.21084 37.534,49.443 -75.244,-32.871 0.0844,0.0843 z"
     fill="#ffffff"
     fill-rule="evenodd"
     stroke="#000000"
     stroke-linecap="round"
     stroke-linejoin="round"
     stroke-width="2"
     id="path190" />
  <path
     d="m 845.78,279.54012 c -39.827,0 -72.118,-32.286 -72.118,-72.116 0,-39.83 32.292,-72.122 72.118,-72.122 39.826,0 72.122,32.292 72.122,72.122 0,39.83 -32.29,72.116 -72.122,72.116 z"
     id="path192" />
  <path
     d="m 941.74,481.50012 c -23.955,0 -194.13,0.0434 -194.13,0.0434 0,0 0.16314,-69.309 0.16314,-98.869 0,-53.517 43.388,-96.905 96.9,-96.905 53.52,0 96.905,43.388 96.905,96.905 0,53.517 0.16314,31.297 0.16314,98.826 z"
     id="path194" />
  <g
     id="g1419"
     class="fragment"
     data-fragment-index="2">
    <text
       xml:space="preserve"
       transform="matrix(1,0,0,1.0665052,-95.17869,22.26453)"
       id="text1258"
       style="font-style:normal;font-variant:normal;font-weight:bold;font-stretch:normal;font-size:37.3333px;line-height:0.8;font-family:sans-serif;-inkscape-font-specification:'sans-serif, Bold';font-variant-ligatures:normal;font-variant-caps:normal;font-variant-numeric:normal;font-variant-east-asian:normal;text-align:center;white-space:pre;display:inline;fill:#008080;stroke:none;stroke-width:4.58;stroke-miterlimit:4.7;shape-inside:url(#rect1260)"><tspan
         x="658.33175"
         y="53.689607"
         id="tspan1653">χαῖρε</tspan></text>
  </g>
  <g
     id="g1410"
     class="fragment"
     data-fragment-index="1">
    <text
       xml:space="preserve"
       id="text487"
       style="font-style:normal;font-variant:normal;font-weight:bold;font-stretch:normal;font-size:37.3333px;line-height:0.8;font-family:sans-serif;-inkscape-font-specification:'sans-serif, Bold';font-variant-ligatures:normal;font-variant-caps:normal;font-variant-numeric:normal;font-variant-east-asian:normal;text-align:center;white-space:pre;display:inline;fill:#008080;stroke:none;stroke-width:4.58;stroke-miterlimit:4.7;shape-inside:url(#rect489)"
       transform="matrix(1.2311665,0,0,1.3820696,-313.63674,6.1776692)"><tspan
         x="461.63253"
         y="56.683748"
         id="tspan1655">χαῖρε</tspan></text>
  </g>
  <text
     xml:space="preserve"
     id="text543"
     style="font-weight:bold;font-size:74.6667px;line-height:0.8;font-family:Calibri, Calibri_MSFontService, sans-serif;-inkscape-font-specification:'Calibri, Calibri_MSFontService, sans-serif, Bold';text-align:center;white-space:pre;shape-inside:url(#rect545);display:inline;fill:#d40000;stroke:#000000;stroke-width:4.58;stroke-miterlimit:4.7" />
  <text
     xml:space="preserve"
     id="text549"
     style="font-weight:bold;font-size:74.6667px;line-height:0.8;font-family:Calibri, Calibri_MSFontService, sans-serif;-inkscape-font-specification:'Calibri, Calibri_MSFontService, sans-serif, Bold';text-align:center;white-space:pre;shape-inside:url(#rect551);display:inline;fill:#d40000;stroke:#000000;stroke-width:4.58;stroke-miterlimit:4.7" />
</svg>
