<?xml version='1.0' encoding='utf-8'?>
<svg xmlns="http://www.w3.org/2000/svg" viewBox="0 0 2759.44 3619.57"> <defs> <style> .cls-1 { fill: #fefdc1; stroke-width: 34.43px; } .cls-1, .cls-18, .cls-19, .cls-2, .cls-20, .cls-21, .cls-22, .cls-23, .cls-24, .cls-25, .cls-26, .cls-27, .cls-28, .cls-29, .cls-3, .cls-31, .cls-4, .cls-5, .cls-6, .cls-7 { stroke: #000; } .cls-1, .cls-10, .cls-11, .cls-12, .cls-13, .cls-14, .cls-15, .cls-16, .cls-17, .cls-18, .cls-19, .cls-2, .cls-20, .cls-21, .cls-22, .cls-25, .cls-26, .cls-27, .cls-28, .cls-29, .cls-3, .cls-31, .cls-4, .cls-5, .cls-6, .cls-7 { stroke-linecap: square; } .cls-2, .cls-20 { fill: #00d10f; } .cls-18, .cls-2, .cls-20, .cls-21, .cls-22, .cls-3, .cls-4, .cls-5, .cls-6 { fill-opacity: 0.57; } .cls-2, .cls-3, .cls-4, .cls-5, .cls-6 { stroke-width: 6.05px; } .cls-21, .cls-3, .cls-8 { fill: #fee315; } .cls-22, .cls-4 { fill: #ff7503; } .cls-19, .cls-5 { fill: #1f4aed; } .cls-18, .cls-23, .cls-6 { fill: #e7253a; } .cls-7 { fill: #3c221e; stroke-width: 25.19px; } .cls-8 { fill-opacity: 0.23; } .cls-10, .cls-12, .cls-13, .cls-15, .cls-9 { fill: #3f2517; } .cls-10, .cls-11, .cls-12, .cls-13, .cls-14, .cls-15, .cls-16, .cls-17, .cls-9 { stroke: #231710; } .cls-23, .cls-24, .cls-9 { stroke-linecap: round; stroke-linejoin: round; } .cls-9 { stroke-width: 20.09px; } .cls-10, .cls-11 { stroke-width: 20.73px; } .cls-11, .cls-14 { fill: #513423; } .cls-12, .cls-23, .cls-24 { fill-opacity: 0.58; } .cls-12, .cls-13, .cls-14, .cls-15 { stroke-width: 19.44px; } .cls-15 { fill-opacity: 0.64; } .cls-16 { fill: #b7cde9; fill-opacity: 0.27; } .cls-16, .cls-17 { stroke-width: 10.83px; } .cls-17 { fill: #f8fbcb; } .cls-18, .cls-20, .cls-21, .cls-22 { stroke-width: 1.26px; } .cls-19 { fill-opacity: 0.65; stroke-width: 0.31px; } .cls-23 { stroke-width: 1.51px; } .cls-24 { fill: #3162a6; stroke-width: 1.21px; } .cls-25, .cls-26, .cls-29 { stroke-width: 19.06px; } .cls-26, .cls-28, .cls-30 { fill: #231710; } .cls-27, .cls-28 { stroke-width: 17.55px; } .cls-29, .cls-31 { fill: none; } .cls-31 { stroke-width: 10.16px; } </style> </defs> <title>Church Stained Glass Windows</title> <g id="Layer_2" data-name="Layer 2"> <g id="Church_Stained_Glass_Windows" data-name="Church Stained Glass Windows"> <g id="document"> <g> <g> <g> <path class="cls-1" d="M1583,3579.7l-405.53,10.77,29.82-456.77c-53.85-322.68,112.78-443,148.7-443,22.7,0,194.36,121.73,246.06,216.85ZM1184.42,634.53c69.95-158.41,178.14-325.67,179.08-325.67l-7.56,722.36H1111.76S1114.47,792.94,1184.42,634.53Zm980.4,2912.06-11.43-612.08c0-103.07,127.08-257.84,157.68-287.5,30.32,27.93,149.35,177.25,149.35,287.5l8.93,624.55ZM1726,2329V2145.74c0-106.5,100-188.53,100-188.53s111.75,86.87,111.75,188.53V2329ZM974.53,2145.74c0,103.19,4.67,188,4.67,188H767.41s-4.66-84.61-4.66-188c0-96.87,99.37-187.49,99.37-187.49S974.53,2043,974.53,2145.74ZM676.4,3582l-2.5-723.39c-2.31-180.52,159.61-343.17,159.61-343.17s172,146.07,172,335.91c0,69.54,2.49,723.39,2.49,723.39ZM587.83,3528l-299.75,7-2.5-602.26c0-85,122.28-253,158.86-285.79,30.6,27.56,140.9,190.34,140.9,267ZM2068.17,3582H1748s-2.5-589-2.5-723.39c0-206.37,174.87-343.17,174.87-343.17s145.3,149.75,145.3,343.17ZM1621.49,1045.39V2331.14H1377.3V1045.39ZM1359,1048V2333.7l-247.23-2.56V1045.39Zm17.2-735.64c20.15,0,107.59,163.09,172.07,335.14s67.1,380.1,67.59,386.6l-239.61-3Z"/> <g> <path class="cls-2" d="M1741,2863.49h290.33v66.41H1917.21l93.53,324.7,20.61-67.22V3313.1h0L1741,2996.85V3467h13.76l65.89-212.43L1884.56,3467h65.31l55.19-183.51-373.49-420H1741v-62.73h290.2v-2.32a322,322,0,0,0-5.68-64.09H1917.09l44.84-150.83c-39.66-60.08-81.58-96.17-81.58-96.17s-11.57,10.17-28,29.15l64.78,217.85h-170.8a383.49,383.49,0,0,0-5.4,64.09v2.32h.13v62.73ZM945.75,2929.9h14v-66.41H669.41v66.41h86.28l-86.28,281.38v77.45L723,3467h66.32l65.89-212.43L917.14,3467h42.6V2977l-12.48-42,1.51-5.08Zm355-2597.55q-9,11.49-17.91,23.77c-7.08,12.48-14.59,26.8-22.37,42.64H1328V332.35ZM2401.79,2800.76c-9.66-22.23-22.44-44.92-36.32-66.41h-65.1l19.28-62.88c-17-20.82-32.37-37.24-42.46-46.24-1.26,1.13-2.63,2.42-4.12,3.89l30.31,105.23H2192.84c-13.5,21.79-25.82,44.61-34.74,66.41ZM551.86,2964.93,463,3254.6,366.5,2929.9H551.86v-56q0-5.16-.36-10.37H275q-.32,5.18-.32,10.37v56h94.86l-94.86,309.34v21L336.87,3467h66.32l65.89-212.43L533,3467h18.89Zm-15.49-164.17c-9-23-21.21-45.48-34.56-66.41H369.52l29.3-95.58a600.21,600.21,0,0,0-43.23,48.73l13.93,46.85H322.25c-13,20.7-24.78,43.14-33.36,66.41Zm442.91-603L945.75,2085h33.44a197,197,0,0,0-14.34-66.42H811.23c-7.7,20.5-13.05,42.92-13.81,66.42H948.77L893,2272.65h86.31Zm-19.54,603v-2.32a436.41,436.41,0,0,0-4.74-64.09h-6.23l4.06-13.25c-9.45-52.77-27.54-99.24-47.58-137.87l43.52,151.12H755.69l78.47-255.93c-11.79-13.53-19.45-20.7-19.45-20.7s-55.56,56.85-98,145.65l39,131h-81a397.34,397.34,0,0,0-5.28,64.09v2.32ZM797.33,2225v47.64h14.16Zm961.27-14c-1.28,40.45-2.71,66.27-2.71,66.27h22.41Zm99.63,66.27h79.61s2.46-44.15,3.8-107.53L1917.21,2085h25.19c-.93-23.25-7.35-45.74-16.5-66.42H1774.12c-7.52,20.34-12.74,42.71-13.48,66.42h156.57Zm29.42-321.49c-22-28.38-42.29-46.07-42.29-46.07s-18.54,17.26-38.29,46.07ZM2144,3467l65.89-212.43L2271.75,3467H2334l65.89-212.43,19.74,65.65V3180.36l-22.76,74.24-96.54-324.7h119.3v-57.74q0-4.26-.35-8.67H2143.78v66.41h156.59l-96.55,324.7-60-201.94V3467ZM1191.68,564.43c-42.62,120.2-78.09,259.84-78.09,369.57v5.25l1.87,6.27h56.74l69.22-225.76,65,225.76H1328V422L1238.4,719.76ZM929,1955.82c-22.87-30.43-44.93-48.4-44.93-48.4s-19.36,18.37-39.79,48.4Zm184.56-911.36v66.41H1328v-66.41H1141.86l14.19-46.3h-24.94l13.76,46.3Zm0,129.14v70.1h28.27l-28.27,91.14V1784.2l31.28,105.2h-31.28v66.42H1328V1889.4H1141.86l99.56-324.69L1328,1865.14V1267l-89.55,297.76-96.54-321H1328v-70.1Zm0,844.94V2085h28.27l-28.27,92.18v97.63h84.7L1141.86,2085H1328v-66.42Zm164.92,256.23H1328v-166.3ZM1328,1020.19v-22h-6.34Zm51.19,24.27v66.41H1593.5v-66.41H1531l13.77-46.3h-27.53l13.76,46.3Zm0,129.14v70.1H1531l-99.56,321-52.34-174v354.58l55.36-180.54L1531,1889.4h-151.9v66.42H1593.5V1889.4H1531l62.46-210.05V1468.43L1528,1243.7h65.47v-70.1Zm0,844.94V2085H1531l-58.2,189.81H1582.7L1528,2085h65.47v-66.42Zm0,215.07v41.16h12.24Zm0-1901.26v66.41h67.15c-13.31-27.12-25.84-49.77-36.71-66.41Zm0,213.37V900.31l55.36-180.55,67.13,225.76h58.83L1588,852.81c-13.81-110.66-51.83-236.68-92.26-340.33l-64.29,207.28Z"/> <path class="cls-3" d="M1397.19,271h-3v-2.12a7.2,7.2,0,0,1,1.29.12l1.74,2ZM1496,444.91C1553.31,584,1611.5,778,1611.5,922.07V934h-8c-55.33-149.13-92.52-314.1-107.46-489ZM1408.82,934h-14.66V883.5q7,25.44,14.66,50.46Zm772.23,2177.48V2924c0-51.8,26.44-107.19,57-153.79,40.74-24.55,83.59-43.35,128-55.71,42.65,50.76,96,130.62,96,209.5v24.29c-107.62,9.32-205.1,69.45-281,163.18Zm281,87.31v256c-33.37,10.88-60.06,40.32-75.15,81.34H2202.54c23.86-180.27,129-319.11,259.56-337.37Zm-529.93-1054.4c-60.19,46.13-117.21,99.46-170.48,159.18h-14V2115.76c0-109.13,96.51-189.13,96.51-189.13s88,85,88,189.13v28.59Zm-1063.62,164A1300,1300,0,0,0,772.22,2210c-.67-27.9-1.16-60.07-1.16-94.23,0-58.1,33.75-112.16,61.74-147A1449.24,1449.24,0,0,1,953,2084.32a201.32,201.32,0,0,1,2.5,31.44c0,105.73,4.73,192.59,4.73,192.59ZM682.14,3125.57c53.91,120.83,88.52,260.63,97.81,410.55H682.14V3125.57Zm10.72-368.25c22.61-89.68,75.85-160.82,110.4-199.68,66.33,84.07,124.67,180.55,173.25,286.92v691.56H956.39c-14.93-308-113.55-582.51-263.53-778.8ZM425.1,3536.12H287.26V3259c70.25,59.4,121.45,159.22,137.84,277.12ZM287.26,2984.64v-62.42c0-49.84,35.12-115,72.13-168,77.28,40.6,147.52,101.48,207.6,178V3349.7C514,3178.45,412,3044.4,287.26,2984.64Zm1734.89,551.48h-176.6c15-242.09,95.66-456.55,216.31-608v408.41a882.42,882.42,0,0,0-39.71,199.6Zm-254.66-481.45V2846.14c0-211.46,147.06-351.62,147.06-351.62s61,63.59,104.54,161.76c-104.23,103-190.54,239.33-251.6,398.39Zm-156-1669.78v350c-81.39-98.61-154.37-210.68-217.34-333.95V988.29h32c48.44,144.87,111.08,278.29,185.35,396.6Zm0,769.08v151.75H1499.83A1729.94,1729.94,0,0,1,1611.5,2154Zm-217.34-55.58V1790.46a1796.5,1796.5,0,0,0,118.11,154,1796.65,1796.65,0,0,0-118.11,154Zm-51.9-806.77q-15.26-34.63-29.5-70.24c-39.38,100.63-84,193.8-136.51,279.52q-25.26,42.7-51.33,82.37V1177.39a1947.61,1947.61,0,0,0,74.29-189.1h143v303.33Zm0,419v467.67q-15,24.28-29.5,49.42c-57.17-98.8-119-187.58-187.84-269.5v-28c66.69-81.8,130.78-170.43,187.84-269q14.54,25.14,29.5,49.42Zm-216.58,595.13h-.76v-1.16l.76,1.16ZM1342.26,271h-5.8a11.13,11.13,0,0,1,5.8-2.12V271Zm0,373.81V934h-125.7c59.26-194.76,93.39-409.31,96-634.63l.33-.5a2352.25,2352.25,0,0,0,29.34,346Z"/> <path class="cls-4" d="M1383,448.33V743.07c60.62,70.71,132.47,134.85,213.67,190.95-5.07-70.6-21.91-149.92-44.21-227-74-77.25-131.81-164.5-169.46-258.65Zm0,503.37v35.93h44.24Q1404.58,970.1,1383,951.7ZM552.28,3378.21v-165c-81.64-40-176.42-65.24-278.35-70.81v129.1c108.78,7.9,206.74,47.27,278.35,106.7Zm0-311.68V2927a1165.69,1165.69,0,0,0-274-42.58,189.09,189.09,0,0,0-4.36,39.51v89.38c99,4.19,192.92,22.78,278.35,53.19Zm-53.06-287c-10.87-16.67-22.39-32.28-33.51-46.24q-58.57,9.95-119.35,14.94-3.76,5-7.51,10.21a1366.29,1366.29,0,0,1,160.37,21.09ZM273.93,3403.08V3519.6H479.37c-39.31-61.55-115.13-106.14-205.44-116.52ZM967.82,2067.25c-34.06,86.86-92.46,165.44-169.06,230.78v22.23H981.47V2137.55c0-25.26-5.41-48.92-13.65-70.3Zm797.79,121.26c-1.1,78.41-4.31,136.43-4.31,136.43h140.53c-21.76-16-42.19-32.62-60.69-50.73a658.43,658.43,0,0,1-75.53-85.7Zm182.9-14.92c.11-11.68.18-23.73.18-36,0-96.59-97.55-181.69-97.55-181.69s-6.11,5.68-15.05,16c17.33,74.66,57.13,143.32,112.42,201.75Zm88.24,1293.28V3258c-97.87,66.81-168.15,157.88-195.4,261.56h170.3a293.41,293.41,0,0,1,25.1-52.73Zm0-368.65V2950.89c-110.9,40.78-209.79,98.09-291.54,167.93V3345c65.33-102.63,166.81-188.15,291.54-246.76Zm-1.66-286.73c-5-48.07-20.33-92-39.43-130A1214.84,1214.84,0,0,1,1823.93,2608c-22.1,32.08-45.38,73.95-60.83,123.8q22.65,10.9,46.13,21.1-29.49,13.13-58,27.42a385.16,385.16,0,0,0-6,67.91v94.51c86.8-54.56,184.39-99.07,289.88-131.25ZM2188,3519.6h239.87V3398.92c-105.7,2.15-196.28,50.69-239.87,120.68Zm239.87-249.51V3141.27c-99.91.93-194.16,20.79-277,55.29v154.53c75.06-49.44,171.72-79.66,277-81Zm0-257.63v-90.2c0-12.64-2.36-26.29-6.5-40.48A1178.92,1178.92,0,0,0,2150.8,2916v138.32c85.76-26.37,179.15-41.11,277-41.81Zm-74-257.24-3.52-4.84q-60.66-3.63-119.35-12.29c-7.6,10.41-15.35,21.57-22.88,33.14a1391.6,1391.6,0,0,1,145.75-16ZM824.7,3519.6c-23.27-88.32-77.85-167.79-154.39-230.84V3519.6Zm137.15-97.08V3155.81c-79.48-77.16-178.62-141.35-291.54-188v151c135,72.94,238.35,178.87,291.54,303.63Zm0-452.5V2848.23a437,437,0,0,0-2.26-44.39q-49.64-27.3-102.73-50.94,42.9-19.08,83.62-40.63c-15.78-49.81-38.16-92.13-59.58-125.22A1197.58,1197.58,0,0,1,711.13,2667c-20.4,46.06-36.6,99.74-40.11,158,106.78,36.23,204.8,85.45,290.83,145.12Zm154.49-1764.37v195.77c125.52,132.14,203.79,293.25,215.24,467.94V1423.73c-58.72-80.56-131.27-153.87-215.24-218.08Zm0,471.19v452c30.84-71,48.19-146.95,49.69-226-1.5-79.06-18.85-155-49.69-226Zm68.93,645.55h146.31V1936.33c-9.18,140.06-61.31,271.39-146.31,386.06ZM1331.58,1197.5v-157h-166.3q-9.3,6.19-18.78,12.3c68.14,43.83,129,91.44,185.08,144.71Zm51.41-42.78c42.39-36,87.62-70.42,136.6-101.93q-9.48-6.11-18.77-12.3H1383Zm0,206.75v305.67c42.43-112.94,113.55-216.27,207.79-304.84q3.72-3.4,7.46-6.78V1170.91a1176.85,1176.85,0,0,0-137.56,110.65,845.15,845.15,0,0,0-77.69,79.91Zm0,777.08v183.84h100.24c-42.15-57.47-75.91-119.08-100.24-183.84Zm215.25,76.88V1590.26c-59.4,94.87-93.57,201.32-95.72,312.59,2.15,111.26,36.32,217.71,95.72,312.58ZM1312.82,355.11c-22.74,91.75-64,178.31-120.64,257.15-31.87,91.07-59.37,192.57-70.53,283.58,81.72-63.22,152.45-135.14,209.93-214V340.46c-4.64,0-11,5.16-18.76,14.65Zm-74,632.52h92.71V908.07a1205.5,1205.5,0,0,1-92.71,79.56Z"/> <path class="cls-5" d="M1319.84,271h3v-2.12a7.18,7.18,0,0,0-1.28.12l-1.75,2ZM1221,444.91C1163.73,584,1105.53,778,1105.53,922.07V934h8c55.33-149.13,92.53-314.1,107.46-489ZM1308.22,934h14.65V883.5q-7,25.44-14.65,50.46ZM536,3111.44V2924c0-51.8-26.44-107.19-57.05-153.79-40.73-24.55-83.58-43.35-128-55.71-42.64,50.76-96,130.62-96,209.5v24.29C362.55,2957.58,460,3017.71,536,3111.44Zm-281,87.31v256c33.37,10.88,60.05,40.32,75.15,81.34H514.5c-23.87-180.27-129-319.11-259.56-337.37Zm529.93-1054.4c60.18,46.13,117.2,99.46,170.48,159.18h14V2115.76c0-109.13-96.5-189.13-96.5-189.13s-88,85-88,189.13v28.59Zm1063.61,164a1298.16,1298.16,0,0,1,96.34-98.36c.66-27.9,1.16-60.07,1.16-94.23,0-58.1-33.75-112.16-61.74-147A1446.12,1446.12,0,0,0,1764,2084.32a201.32,201.32,0,0,0-2.51,31.44c0,105.73-4.73,192.59-4.73,192.59Zm186.42,817.22c-53.91,120.83-88.52,260.63-97.82,410.55h97.82V3125.57Zm-10.73-368.25c-22.61-89.68-75.85-160.82-110.39-199.68-66.33,84.07-124.68,180.55-173.26,286.92v691.56h20.13c14.92-308,113.55-582.51,263.52-778.8Zm267.76,778.8h137.84V3259c-70.25,59.4-121.44,159.22-137.84,277.12Zm137.84-551.48v-62.42c0-49.84-35.11-115-72.12-168-77.28,40.6-147.52,101.48-207.6,178V3349.7c53-171.25,154.95-305.3,279.72-365.06ZM694.88,3536.12h176.6c-15-242.09-95.65-456.55-216.31-608v408.41a881.87,881.87,0,0,1,39.71,199.6Zm254.66-481.45V2846.14c0-211.46-147-351.62-147-351.62s-61,63.59-104.54,161.76c104.22,103,190.53,239.33,251.59,398.39Zm156-1669.78v350c81.4-98.61,154.37-210.68,217.34-333.95V988.29h-32c-48.44,144.87-111.09,278.29-185.36,396.6Zm0,769.08v151.75H1217.2A1729.94,1729.94,0,0,0,1105.53,2154Zm217.34-55.58V1790.46a1796.5,1796.5,0,0,1-118.11,154,1796.65,1796.65,0,0,1,118.11,154Zm51.9-806.77q15.26-34.63,29.51-70.24c39.37,100.63,84,193.8,136.51,279.52q25.26,42.7,51.32,82.37V1177.39a1952.74,1952.74,0,0,1-74.29-189.1h-143v303.33Zm0,419v467.67q15,24.28,29.51,49.42c57.16-98.8,119-187.58,187.83-269.5v-28c-66.69-81.8-130.78-170.43-187.83-269q-14.55,25.14-29.51,49.42Zm216.58,595.13h.76v-1.16l-.76,1.16ZM1374.77,271h5.8a11.07,11.07,0,0,0-5.8-2.12V271Zm0,373.81V934h125.7c-59.26-194.76-93.38-409.31-96-634.63l-.32-.5a2353.6,2353.6,0,0,1-29.35,346Z"/> <path class="cls-6" d="M1372.83,495.76c23.53-13.25,45.36-41.07,64.34-79.2-8.69-17.37-17-32.75-24.72-45.71-12.61-16.46-24.87-31.65-36.53-45.17a8.46,8.46,0,0,0-3.09-.67V495.76Zm0,263.3V978.47h81.1c40.16-38.38,77-96.11,109.16-168q3.18-7.29,6.29-14.75c-14.77-69.14-36.06-140.28-59.38-205.64q-3,7.7-6.1,15.06c-36.29,83.65-81.32,137.92-131.07,153.91ZM534.05,3385V2933.62c0-86.25-76-182.66-119.41-229.89,63.61,181.52,106.64,417.75,119.41,681.27ZM305.31,2785.82c-28.52,43.82-52.32,96-52.32,147.8v68.74c57.75,125.53,94.93,318.15,96.12,532.69h94.42c-1.65-306.92-55.63-577.62-138.22-749.23ZM253,3518.19v16.86h.27q-.07-8.48-.27-16.86ZM967.41,2186.85v-47.28c0-63.74-34.11-117.37-61.77-150.38-44.56,98.28-84.77,210.66-119.78,334.86h125.9q26.32-73,55.65-137.2Zm790.8,52.19q17.91,43.08,34.61,89.74h125.53c-33.37-119.11-71.51-227.43-113.67-323-22.19,33.13-45.13,80.32-45.13,133.75,0,36.39-.58,70.5-1.34,99.47Zm273.7,588C2018.35,2660.85,1880,2541.74,1880,2541.74s-6.93,6.09-17.71,17.64c69.88,277.32,111.26,613.28,112.33,975.67H1976c.18-252.26,20.15-492,55.88-708Zm-253.38-143.77c-22.57,48.11-40,106.9-40,173.9v152.53c28.57,158.44,45,336.58,45.75,525.36h95.84c-1.1-318.54-38.59-612.39-101.64-851.79Zm386.39,851.79c1.38-330.18,49.77-627.87,128-844.39-3.52-3.56-6.72-6.62-9.53-9.12-31,27.75-135.26,161.34-135.26,238.54v615Zm94.43,0h94.42c1-185.81,29.06-355.18,74.06-478.76V2931.9c0-35.37-18.33-78.62-42.46-119.52-75.67,172.3-124.45,431.14-126,722.67Zm-1532.5,0h1.43c1.08-363,42.58-699.42,112.67-977-22.92-30-40.4-46.35-40.4-46.35s-107.14,109.63-138.68,262.67c41.42,229.51,64.78,487.73,65,760.68Zm95.86,0h95.84c.63-148.19,10.86-289.82,29.05-420.52V2857.16c0-57.91-11.43-110.38-27.9-155.93-60.24,236.06-95.91,523.2-97,833.82Zm280.88-2475.67V1365c65.61,97.37,139.54,158.54,217.34,173.89V1285.42c-80.31-21.2-154.67-103-217.34-226Zm0,596.51v303.44c67.13-82.27,140.4-133.21,217.34-146.07v-14.12c-76.93-12.51-150.18-62.12-217.34-143.25Zm0,594.92v75.39h217.34v-249c-78.35,15.22-152,76.3-217.34,173.58Zm269.24-963.25v252.92c77.54-11.67,151.44-68.89,217.34-162.24V1076.85c-63.13,117.83-137.42,194.29-217.34,210.71Zm0,512.89v11.46c76.79,9.8,150.05,57.5,217.34,136.47V1666.67c-67.33,77.83-140.56,124.26-217.34,133.78Zm0,275.21V2326.2h217.34v-88.66c-65.63-93.2-139.22-150.3-217.34-161.88ZM1261.09,407c17.61,37.88,37.89,66.73,59.84,82.89V325c-11.51,0-33.79,31.37-59.84,81.94ZM1188,577.51c-23.36,64.18-45,134.57-60.5,203.52q6,15.08,12.29,29.45c32.13,71.88,69,129.61,109.16,168h72V755.68c-46.13-19.4-87.89-72-122-150.53-3.67-8.85-7.35-18.11-11-27.64Z"/> </g> <path class="cls-7" d="M1743.06,1733.32l-.42-941.42c-2.85-1.9-388.45-628.3-388.45-628.3S985.31,790.34,982.47,792.24c2.75,839.4.43,962.4.43,967.05L718.08,1968.78l.19,422.11C461.7,2529,247.44,2637.53,156.32,2686.56l.41,920.41,916.62-.41h-.21l-.31-692.95c-.13-292.29,258.83-464,281.44-464,35.79,0,281.32,184.94,281.44,459.41l.32,697.28,904.25-.41-.41-891c-82-38.28-406.28-219-506-265.55l-.22-478.8Zm79.38-972.8-436-677.69A47.71,47.71,0,0,0,1353.2,68.6c-12.36,0-24.71,4.76-33.25,14.26L900.73,760.94c-18,18.06-38.7,35.68-62.4,57.53,19.33,19.32,110.9,28,129.9,9.9l386-643.85L1756.91,828c18.06,19,120.29,22.58,120.27-10C1874,818,1841.45,778.57,1822.44,760.52ZM560.2,3525.12l-276.19.12-.26-591c-.05-109.06,107.37-220.13,137.58-247.77,30.5,29.33,138.56,145.69,138.61,247.65ZM985.53,2334.88l-181.29.09s0-81.07-.08-181.3c0-100.56,86.37-182.64,86.37-182.64s94.88,77.2,94.92,182.56C985.5,2250.85,985.53,2334.88,985.53,2334.88Zm778.36-181.64c-.05-101.63,84.41-180.32,84.41-180.32s96.83,84.4,96.88,180.24c0,102.24-4.57,185.94-4.57,185.94l-181.29.08S1763.93,2255.32,1763.89,2153.24Zm270.42,1371.22-289.28.13s-.26-597.36-.3-666.16c-.08-187.8,138.82-310,138.82-310s152.69,131.31,150.46,309.89Zm112-.05-.28-604.34c0-75.86,102.34-207.18,132.82-234.46,36.46,32.45,142,161.82,142.08,246l.26,592.71Zm-1469,.66-.3-666.16c-.08-191.34,144.62-339.55,144.62-339.55s144.57,135.26,144.66,339.42c.06,132.94.3,666.16.3,666.16ZM1118.78,1065l213.58-.09.58,1272-213.58.1Zm264.59-.12,213.58-.09.57,1272-213.58.1Zm-51.32-694.57.29,642.14-213.58.1V1001C1118.65,758.86,1291.89,370.29,1332.05,370.28Zm51,0c39.31,0,213.75,388.36,213.86,630.58v11.48l-213.58.09Z"/> <path class="cls-8" d="M1255.36,3529.32l289.82,9.82,9.12-266.92-71.09,99.39c-6.09,11.53,9.12,0,0,0-3,0-24.33,15.38-24.33,15.38-9.12,0-15.2-3.85-21.29-11.54l-66.89-153.83c-15.21-11.54-15.21-38.46-3-53.85,9.13-19.23,30.41-19.23,42.58-3.85l42.57,126.92,94.26-130.76a38.56,38.56,0,0,1,7.24-7L1530,3106.24c0-249.83-192.78-145.22-225.36-145.22-18.42,0-115.28,8.52-155.07,225.63l63,4.2c18.25,0,30.41-141,30.41-121.81l15.21,91c0,23.08-15.21,38.46-30.41,38.46h-3c-18.25,0-30.41-23.08-30.41-42.31l-18.25-52.58-33.78-1.85v.68l24.32,419.36,112.85-146.39c9.12-15.38-33.45-15.38-21.28,0,12.16,11.54,3-30.77-9.13-15.38L1218.65,3487Zm151.83-311.55s-3,0-9.13-3.85l-109.47-38.46c-9.12,0-15.2-7.69-21.28-15.38s-6.08-15.38-6.08-26.92V3046c3-23.08,21.28-38.46,36.49-34.62,18.24,3.85,30.4,26.92,27.36,46.15l6.08,48.74,79.07,30.76c18.24,3.85,30.4,26.92,27.36,46.16S1422.39,3217.77,1407.19,3217.77Z"/> </g> <g> <path class="cls-9" d="M1690.76,2812.09c-27.35-215.14-129-352.52-295.93-435.31-4.48-2.59-9.71-3.24-14.93-3.23a45,45,0,0,0-15.67,3.25c-166.85,82.93-268.39,220.4-295.54,435.57l622.07-.28Z"/> <path class="cls-9" d="M1588.9,2533.4l.12,276.38,47.18,0-.09-197.47a492.87,492.87,0,0,0-47.21-78.89ZM1494.5,2437l.17,372.84,47.17,0-.14-331.31a501.22,501.22,0,0,0-47.2-41.51Zm-94.38-59.09.19,432,47.18,0-.18-405.56q-22.63-14-47.19-26.39Zm-90.29,29.25.18,402.76,47.18,0-.2-429.7q-24.56,12.66-47.16,27Zm-94.32,76,.15,326.79,47.17,0-.16-369.34a495.39,495.39,0,0,0-47.16,42.57Zm-94.29,138.92.08,187.91,47.18,0-.12-270.2a497.33,497.33,0,0,0-47.14,82.31Z"/> </g> <g> <g> <path class="cls-10" d="M1085.28,2844.77l234.32-.11.34,747.26-234.32.11Z"/> <path class="cls-11" d="M1317.45,2848.35l-47.18,0,.34,748.49,47.18,0Zm-94.35.05-47.18,0,.34,748.49,47.18,0Zm-94.36,0-47.17,0,.33,748.49,47.18,0Z"/> <path class="cls-11" d="M1100.16,2897.82l3.77,629.42c0,14,1.75,28,3.5,28l16.14,1.75c1.74,0,3.48-14,3.47-28l-3.77-631.17c0-14-1.75-28-3.5-28l-16.14-1.74C1101.67,2869.82,1100.15,2880.32,1100.16,2897.82Zm74.61,0,.28,631.17c0,14,2.2,28,3.94,28h39.68c1.74,0,3-14,3-28l-.29-631.17c0-14-1.32-29.76-3.06-29.75h-39.68C1176.28,2869.78,1174.76,2880.29,1174.77,2897.79Zm-42.29-3.48.29,634.67c0,14,1.54,28,3.28,28h22.18c1.75,0,3.48-14,3.48-28l-.07-632.91c0-14-1.76-28-3.5-28l-22.4-1.74C1133.78,2866.3,1132.48,2880.31,1132.48,2894.31Zm108.66,1.7.28,632.92c0,14,1.76,28,3.5,28l54,0c1.74,0,3.48-14,3.47-28l-.28-632.91c0-14-1.76-28-3.5-28l-53.8,0C1242.65,2868,1241.13,2882,1241.14,2896Z"/> </g> <g> <path class="cls-12" d="M1332.61,3609.21H1070.4V2829.26h262.21Z"/> <g> <g> <path class="cls-13" d="M1673.11,2843.51l-234.32-.1-.33,747.26,234.32.11Z"/> <path class="cls-14" d="M1441,2847.1l47.17,0-.34,748.49-47.17,0Zm94.35.05,47.18,0-.34,748.48-47.18,0Zm94.35,0,47.18,0-.34,748.49-47.17,0Z"/> <path class="cls-14" d="M1658.24,2896.58,1654.47,3526c0,14-1.76,28-3.5,28l-16.14,1.75c-1.75,0-3.48-14-3.48-28l3.77-631.17c0-14,1.76-28,3.5-28l16.15-1.74C1656.73,2868.57,1658.25,2879.07,1658.24,2896.58Zm-74.61,0-.29,631.17c0,14-2.19,28-3.93,28l-39.68,0c-1.75,0-3-14-3-28l.28-631.17c0-14,1.32-29.76,3.07-29.76l39.68,0C1582.11,2868.53,1583.64,2879,1583.63,2896.54Zm42.28-3.48-.28,634.67c0,14-1.54,28-3.28,28h-22.19c-1.74,0-3.48-14-3.47-28l.07-632.91c0-14,1.75-28,3.5-28l22.4-1.74C1624.62,2865.05,1625.92,2879.05,1625.91,2893.06Zm-108.65,1.7-.28,632.92c0,14-1.76,28-3.5,28l-54,0c-1.75,0-3.48-14-3.48-28l.29-632.92c0-14,1.75-28,3.5-28l53.8,0C1515.75,2866.75,1517.27,2880.76,1517.26,2894.76Z"/> </g> <path class="cls-15" d="M1428.92,3609.53h262.21v-780H1428.92Z"/> </g> </g> </g> <g> <path class="cls-16" d="M1124.72,2767.81c432-.19,507,4.25,506.5-.23-9.77-145-116.62-296-241.76-348.1a23.38,23.38,0,0,0-10.22-1.86,36,36,0,0,0-10.72,1.87C1243.42,2471.73,1134.35,2622.8,1124.72,2767.81Z"/> <g> <path class="cls-17" d="M1124.86,2766.53c432-.2,507,4.24,506.5-.23-9.77-145-116.62-296-241.76-348.11a23.38,23.38,0,0,0-10.22-1.86,36,36,0,0,0-10.72,1.87C1243.57,2470.45,1134.49,2621.51,1124.86,2766.53Z"/> <g> <g> <path class="cls-18" d="M1213.57,2723.4l2-76.65c.37-14.64-12.1-31.35-19.27-39.55,10,31.1,16.28,71.4,17.3,116.2Zm-36.23-102.74c-5,7.31-9.3,16.08-9.52,24.87l-.3,11.67c9.25,21.57,14.73,54.44,14,90.87l16,.41c1-52.12-6.93-98.32-20.21-127.82Zm-12.07,124.13-.08,2.86h0c0-1,0-1.91,0-2.86Zm127.11-222.95c.06-2.58.13-5.27.2-8-17.82-9.31-25.14,9.6-31.63,30.54l21.38.54q4.79-12.27,10.05-23Zm134,12.31q2.85,7.39,5.48,15.39l21.32.54c-21.81-49.8-25.91-41.89-26.14-32.82-.16,6.18-.41,12-.66,16.89Zm43.91,101c-1.58-28.27-24.56-49.1-24.56-49.1s-1.2,1-3.08,2.92c10.66,47.39,16.22,104.62,14.82,166.15h.24a747.33,747.33,0,0,1,12.58-120Zm-42.4-25.51a69.32,69.32,0,0,0-7.54,29.35c-.08,3.22-.34,13.14-.66,25.9a519.65,519.65,0,0,1,5.47,89.4l16.28.42c1.2-54.09-3.89-104.15-13.55-145.07Zm61.9,146.31c1.67-56.06,11.19-106.39,25.41-142.82-.58-.62-1.12-1.15-1.58-1.59-5.39,4.58-23.67,26.81-24,39.92L1487,2755.91l2.86.07Zm16,.41,16,.42c1-31.55,6.48-60.19,14.66-81l.54-21.13c.15-6-2.77-13.42-6.69-20.47-13.6,28.92-23,72.66-24.55,122.15Zm-260.22-6.68h.25c1.76-61.63,10.28-118.58,23.39-165.4a69.93,69.93,0,0,0-6.66-8.05s-18.67,18.15-24.69,44c6,39.15,8.87,83.1,7.71,129.44Zm16.28.42,16.28.42a536.85,536.85,0,0,1,6.76-71.28c.48-18.49.91-35.5,1.12-43.7A77.74,77.74,0,0,0,1282,2609c-11.25,39.82-18.56,88.42-20.1,141.16Zm53.29-216.84-.33,12.81,36.91.94,1.08-42.27c-13.37,2.24-26.13,12.29-37.66,28.52Zm46.48-28.56-1.09,42.54,36.91.95.38-15.06c-10.74-16.11-23-26.13-36.2-28.43Z"/> <path class="cls-19" d="M1231.3,2669l1.22-35.31c.33-9.75-4.29-20.36-9.75-29.33a96.83,96.83,0,0,0-23.75-11.32c-8.36,9.28-18.92,24-19.44,38.83l-.15,4.58c20.21,2.45,38.18,14.41,51.87,32.55Zm-53.5,14.63-1.65,48.22c6.21,2.26,11,8,13.62,15.8l34.74,1.2c-3.33-34.11-22.23-60.94-46.71-65.22Zm106.64-195.16a233.48,233.48,0,0,1,31.08,31.09l2.64.09c74.62,54.8-32.85-56.18-33.53-36.56-.06,1.83-.12,3.63-.19,5.38Zm199.27,37.78c-51.15-113.91-17.28-.59-17.28-.59l17.28.59Zm29.81,155.13c-10.94,22.4-18.36,48.51-21.08,76.68l18.42.64,2.66-77.32Zm.37-69.43c-3.68-17-13.25-30.78-19.5-38.32a264.65,264.65,0,0,0-34.49,52.91c0,.1,0,.2,0,.3-.46,13.42-4.47,130-4.47,130l3.79.13c4.8-57.91,25.16-109,54.68-145Zm45.38,148.42,26,.89,1.8-52.2c-13.62,10.74-23.91,29.21-27.76,51.31Zm29.54-103,.4-11.76c.32-9.38-5.87-21.89-12.5-32.1-14.81,7.15-28.44,18.16-40.25,32.19l-2.7,78.61c11.09-31.9,31.16-56.49,55-66.94ZM1258.48,2750l33.26,1.14c-1.25-45.69-15.06-86.61-36.8-115.92l-2.65,76.93a166.17,166.17,0,0,1,6.19,37.85Zm51.08-89c.58-16.82,1.09-31.53,1.35-39.27,1.37-39.83-25.42-67.18-25.42-67.18a116.35,116.35,0,0,0-20.73,29.78c19,20.07,34.33,46.32,44.8,76.67Zm125.73-136.9h.15v-.21l-.16.21Z"/> <path class="cls-20" d="M1440.22,2647.83l49.3,1.26-.29,11.28-19.38-.5,14.46,55.54,3.79-11.32-.54,21.35h0l-47.92-55c-.87,33.73-2.05,79.84-2.05,79.84l2.33.06,12.12-35.78,9.92,36.35,11.09.28,10.17-30.92-61.59-73,18.59.48c.12-5,.22-8.71.27-10.65l49.28,1.26v-.39a55.07,55.07,0,0,0-.69-10.91l-18.41-.47,8.27-25.42a85.76,85.76,0,0,0-13.44-16.68,56.56,56.56,0,0,0-4.88,4.82l10,37.28-29-.75a64.92,64.92,0,0,0-1.2,10.86c0,.12,0,.25,0,.4h0l-.27,10.65Zm-135.33,7.81h0l2.38.06c.1-4.09.2-7.89.29-11.28l-49.3-1.26-.29,11.27,14.65.38-15.88,47.4-.34,13.15,8.33,30.51,11.27.29,12.11-35.78,9.58,36.34,7.24.19s1.24-48.27,2.13-83.22l-1.93-7.18.27-.86Zm247.8-15.58a80,80,0,0,0-5.88-11.44l-11-.28,3.54-10.59a74.69,74.69,0,0,0-7-8c-.22.18-.46.4-.72.64l4.69,18-18.77-.48a78.2,78.2,0,0,0-6.19,11.12Zm-314.83,19.81-16.35,48.8-15-55.56,31.48.81.24-9.52c0-.58,0-1.17,0-1.76l-47-1.2c0,.58-.08,1.17-.09,1.76l-.25,9.51,16.11.42-17.46,52.11-.09,3.56,9.66,35.39,11.26.29,12.12-35.79,9.92,36.35,3.21.09Zm-1.92-27.94a66,66,0,0,0-5.58-11.43l-22.46-.58,5.39-16.1a102.56,102.56,0,0,0-7.55,8.09l2.16,8-8-.2a61.51,61.51,0,0,0-5.95,11.13Zm77.84-100.47-5.2-19.29,5.67.14a33.76,33.76,0,0,0-2.14-11.34l-26.09-.67a35.57,35.57,0,0,0-2.63,11.22l25.7.66-10.3,31.63,14.66.37S1313.58,2539.09,1313.78,2531.46Zm-6,102.31v-.39a73.39,73.39,0,0,0-.53-10.91l-1,0,.74-2.24a82.19,82.19,0,0,0-7.48-23.61l6.74,25.85-32.79-.85,14.44-43.11c-1.94-2.35-3.21-3.6-3.21-3.6a101,101,0,0,0-17.27,24.31l6,22.4-13.75-.35a67.35,67.35,0,0,0-1.18,10.86v.4Zm-25.07-98.47c-.13,5-.21,8.09-.21,8.09l2.41.06Zm163.29,1.82c-.4,6.86-.75,11.24-.75,11.24l3.8.1Zm16.63,11.69,13.51.34s.61-7.48,1.12-18.24l-3.78-14.51,4.27.11a30.86,30.86,0,0,0-2.51-11.35l-25.77-.66a35.69,35.69,0,0,0-2.58,11.22l26.59.68Zm6.39-54.47a60.51,60.51,0,0,0-7-8,51.45,51.45,0,0,0-6.7,7.65ZM1506,2752.07l12.11-35.79,9.58,36.34,10.58.28,12.11-35.79,3.07,11.23.61-23.75-4.19,12.51-15-55.56,20.26.52.25-9.8a14.69,14.69,0,0,0,0-1.48l-46.78-1.2-.29,11.28,26.58.68-17.8,54.72-9.32-34.55-1.8,70.36Zm-199.71-261.9a51.2,51.2,0,0,0-7.42-8.42,55.22,55.22,0,0,0-7,8.05Zm68.13-13.66-31.19,3.32-5.31-.14-.29,11.28,36.39.94.29-11.28-31.59-.81Zm-37.07,25.11-.29,11.28,4.8.12-5.2,15.53-.42,16.58,14.38.37-8.76-32.48,31.6.81.29-11.27Zm26.89,44.23,8.39.21.73-28.23Zm44.56-64.34h0l-25.79-.66-.29,11.28,36.4.93.28-11.27Zm-26.36,21.27-.29,11.28,25.8.66-10.71,32,18.65.47-8.46-32.47,11.12.29.29-11.28Zm-.93,36.52-.18,7,2.07.05Z"/> <g> <path class="cls-21" d="M1513.61,2681.75l.82-31.83c.22-8.8,5-18.09,10.35-25.87a88,88,0,0,1,22-8.9c7,8.81,15.72,22.6,15.38,36l-.11,4.13c-18.31,1.11-35.12,10.9-48.43,26.48ZM1561,2697.8l32.82,47.59c-5.71,1.7-.31-.31-3,6.59l-75.31,2c4.84-30.5,23.29-53.62,45.54-56.15Zm-85.38-181.35a210.87,210.87,0,0,0-29.65,26.29l-2.37-.06s.38-14.78.81-31.88c.48-18.53-62.71-50.79-62.71-50.79s94.49,33.9,94,51.59c0,1.65-.08,3.27-.12,4.85Zm-115.23,25.88c-5.09-6.08-76.5-14.46-82-19.79,0-4.74.07-10.2.21-16,.26-9.87,15.63-3.27,20.54-9.06,6.91,6.21,70.24,0,76.59,7.18a33.69,33.69,0,0,1,.29,5.35c-.46,17.95,0,32.72,0,32.72l-15.58-.4ZM1259,2677.62a202.33,202.33,0,0,1,14.82,70.13l-16.6-.42,1.78-69.71Zm3.43-62.48c4.23-15.13,13.58-27,19.62-33.43,10.89,14.57,86.47,33.87,94.26,52.14a2.44,2.44,0,0,0,0,.27c-.31,12.1-3,117.16-3,117.16l-3.42-.09c-1.19-52.37-82.83-102.07-107.44-136.05Zm-79.61,138.07-23.4-.6,1.2-47.05c11.67,10.39,85.6,35,22.2,47.65ZM1192.6,2652l.27-10.6c.22-8.47,6.47-19.38,13-28.21,12.94,7.23,24.61,17.87,34.47,31.13l-1.82,70.88c-8.25-29.31-25-52.51-45.9-63.2Zm285.88,102.6-30-.77c-86.88-43.64,24.53-78.51,45.68-103.7l-1.78,69.35c-3.7,10.46-12.61,23.2-13.91,35.12Zm-34.84-84.26c.39-15.17-5.57-27-5.39-34,.92-35.9,32.8-60.46,32.8-60.46s7.63,30.24,14.59,47.1c-18.15,17-30.94,20.63-42,47.37Zm-22.56-153.62-.67,25.77-19-.49a292.79,292.79,0,0,1,19.63-25.28Zm-36.67-10.38c7.42-42.93,57.32,5.61,64.2,14.06-7.3,8.09-57.65-23.1-64.2-14.06Zm-45-29.73,35.82,43.06q-2.64,4.07-5.22,8.27a319.3,319.3,0,0,0-30.72-46.58Zm-1.51,63.76h-.13l5.33,17.23c0,.07-5.24-17.3-5.2-17.23Z"/> <path class="cls-22" d="M1247.7,2718.47l.72-28a122.76,122.76,0,0,0-47-13.24l-.56,21.92c18.43,1.82,34.89,8.93,46.79,19.34Zm1.36-52.93.61-23.69a198.42,198.42,0,0,0-46.34-8.42,32.43,32.43,0,0,0-.91,6.69l-.39,15.18a161.56,161.56,0,0,1,47,10.24Zm-7.76-49c-1.77-2.88-3.66-5.58-5.48-8-6.66,1-13.45,1.64-20.33,2-.45.55-.89,1.12-1.33,1.7a232.68,232.68,0,0,1,27.14,4.28Zm-41,104.89-.51,19.79,34.89.89c-6.41-10.62-19.09-18.52-34.38-20.68ZM1324,2497.68c-6.17,14.6-20.08,54.61-33.37,65.37-.07,2.4-.1,3.77-.1,3.77l31,.8s4-41.3,4.46-57.95a33.26,33.26,0,0,0-2-12Zm131.28,51c-.53,13.31-1.33,23.14-1.33,23.14l23.86.62a97.47,97.47,0,0,1-10.08-8.88,110.85,110.85,0,0,1-12.45-14.88ZM1490,2520c.07-2,.14-4,.19-6.12-15.78-15.88-9.32-4-.19,6.12Zm9.35,220,.91-35.46c-16.91,10.92-88,26.83-93.06,44.31h87.66a49.66,49.66,0,0,1,4.49-8.84Zm1.61-62.59.64-25c-19,6.44-94.8,16.49-109,28-.33,13-.69,26.71-1,38.4,11.54-17.14,87.89-32,109.33-41.37Zm1-48.7a64.14,64.14,0,0,0-6.12-22.25c-10.16-3.75-78.56-7.44-87.59-12.47a78.19,78.19,0,0,0-10.87,20.75c2.53,1.3,5.12,2.56,7.74,3.79-3.37,1.4-6.7,2.87-10,4.4a64.93,64.93,0,0,0-1.32,11.51c-.06,2.32-.21,8.16-.41,16,15-8.88,90.48-16.76,108.53-21.77Zm22.88,120.9,40.73,1.05.52-20.49c-18-.1-33.55,7.75-41.25,19.44Zm41.81-41.32.56-21.87a125.64,125.64,0,0,0-47.28,8.18l-.67,26.24c13-8.07,29.5-12.78,47.39-12.55Zm1.13-43.74.39-15.32a25.08,25.08,0,0,0-.93-6.9,200.12,200.12,0,0,0-46.08,4.62l-.61,23.49a164,164,0,0,1,47.23-5.89Zm-11.45-44c-.19-.29-.38-.57-.58-.84q-10.27-.88-20.21-2.61c-1.33,1.74-2.7,3.6-4,5.53a234.15,234.15,0,0,1,24.82-2.08ZM1354.6,2748.85c-3.56-15.09-73.74-34-86.46-45.06l-1,39.2,87.47,5.86Zm23.71-15.88c.31-11.89.74-28.71,1.17-45.29-13.16-13.45-91-30-110-38.38l-.65,25.65c22.6,13,100.95,36.6,109.43,58Zm2-76.84c.22-8.79.41-16.11.53-20.68.06-2.57,0-5.09-.19-7.54q-8.31-4.86-17.22-9.1,7.36-3.06,14.37-6.53a88.66,88.66,0,0,0-9.57-21.53c-9.16,4.94-80.18,4-90.43,7.64a78,78,0,0,0-7.5,26.64c18,6.62,95.66,20.6,110,31.1Zm-24.16-87.26,24.84.64c-.48-41.81-9.91-19.74-24.84-.64Zm38-57.28-4.46,58.14,17,.44c-6.9-10-8.71-47.47-12.56-58.58Zm32.56,40.92c-15-34.59-9.67-16.37,0,0Z"/> </g> </g> <g> <path class="cls-23" d="M1501,2753.91l.17-.45.48-73.1-2.37-6.66,2.42,0,0-8.7-244.73-1.73L1257,2672l26,.19-16.23,42.38L1256.9,2686l-.38,57.4,10.71-28.81,13.48,37.9,3.47,0,14.44-37.7,13,37.88,3.43,0,14.43-37.68,13.47,37.87,3,0,14.43-37.67,13,37.85,3.45,0,14.42-37.65,13.46,37.84,3.46,0,14-37.64,13.45,37.82,3,0,14.42-37.63,13.44,37.81,3.48,0,14-37.61,13.44,37.8,3.55,0Zm-243.93-98.83,244.74,1.74.05-8.7H1500l2-5.1.48-73-2.32-6.45,2.37,0v-1.74c0-2.5-.09-5-.31-7.44l-244-1.73q-.36,3.72-.39,7.55v1.62l26,.19-16.23,41.9-9.89-28.41-.38,57.35L1268,2604l15.16,42.6-26-.18-.06,8.69Zm2.22-110.57,241.67,1.71a83.41,83.41,0,0,0-2.19-8.71l-29-.2,12-32.17a169.82,169.82,0,0,0-22.28-24.15l-5.31,13.71-9.28-25.79c-3.17-2.42-6.36-4.73-9.52-6.92l-12.59,32.49-14.67-42.12,12.51.09c-5.57-3.36-10.87-6.31-15.69-8.81l-49.15-.35c-5,2.43-10.45,5.29-16.18,8.58l6.7.05-16.23,41.9-10.51-29.2c-4.23,3-8.45,6.15-12.6,9.53l-7.32,19.45-3.57-9.92a148,148,0,0,0-21.74,25.42L1284,2536l-22.44-.16a86.72,86.72,0,0,0-2.18,8.68Zm115.38-109.29,12.2.09a24.68,24.68,0,0,0-6-1.78,26.35,26.35,0,0,0-6.24,1.69Zm-130.65,117.39-3.77,0a115.47,115.47,0,0,0-10.11,9.11l13.82.09Zm-.22,32.5-7.21,18.64-12.71-35.32c-3.06,3.51-6,7.21-8.88,11.05l-9.32,24.05-2.38-6.83c-7,11.15-13.14,22.69-18.5,33.45l5.61,15.77-13.16-.1c-1.42,3-2.76,5.94-4,8.67l70.1.49.06-8.69-22.09-.15,16.24-42.39,6,16.92.23-35.56Zm-.51,78.08-73.82-.52c-1.09,2.35-2.09,4.49-3,6.38-.36.73-.71,1.49-1.06,2.28l24.33.18L1174,2713.89l-12-33.7c-9.43,27.55-15.7,71.37-15.7,71.37l13.71.09,14.46-37.75,13.5,37.93,3.38,0,14-37.74,13.49,37.93,3.45,0,14.45-37.72,6.06,17,.24-36-7.27,19-15.15-42.61,22.58.17Zm274.47-108.64-.06,9.17,12.4.09a85.59,85.59,0,0,0-7.73-9.23l-4.61,0Zm-.3,45.21-.07,9.48,13.46,39.09-13.72-.1-.05,8.69,67.71.49q-2.11-4.35-4.34-8.73l-18.21-.13,7.52-20.24c-6.4-11.8-13-23.29-19.27-33.63l-4.37,11.26-14.33-39.85-1.11-1.5-13.22,35.17Zm-.44,65.37-.06,8.69,13.23.1-13.47,36.22-.06,9.83,11.75,34.12,3,0,14.4-37.58,13.43,37.77,3.57,0,14.39-37.57,13,37.75,17.51.12c.14-19.86-2.5-52.88-16.09-82.75q-1.41-3.07-2.89-6.23l-71.72-.51Zm44.56,9-16.24,42.38-15.15-42.6Zm0,0,30.42.22-15.27,42.39Zm-61.82-.44-30.9-.22,14.67,42.6Zm-62.29-.44-16.24,42.38-14.66-42.6Zm31.39.22-16.24,42.39-15.15-42.61Zm-93.2-.66L1360,2715.21l-15.15-42.61Zm31.39.23-16.24,42.38-15.15-42.61Zm-93.2-.66-15.75,42.38-15.16-42.6Zm30.91.21L1328.56,2715l-15.15-42.61Zm-123.63-.87-30.9-.22,14.67,42.6Zm309.24-23.4,31.39.22-15.15-42.61Zm-61.33-.44,15.75-42.38,15.16,42.6Zm-61.81-.44,15.75-42.38,15.16,42.6Zm30.42.22,16.24-42.38,15.15,42.6ZM1345,2647l16.23-42.38,14.67,42.6Zm30.9.22,16.24-42.38,15.15,42.6Zm-92.71-.66,16.23-42.38,14.67,42.6Zm30.9.22,16.24-42.38,15.15,42.61Zm-123.62-.87,15.75-42.39,15.15,42.61Zm310.14-82.32-30.91-.22,14.67,42.12Zm-62.3-.44-16.23,41.9-14.67-42.12Zm31.39.22-16.23,41.9-15.16-42.12Zm-93.2-.66-15.75,41.91-15.15-42.13Zm31.39.23-16.23,41.89-15.16-42.12Zm-93.2-.67-15.75,41.91-15.16-42.12Zm30.91.22-16.24,41.9-15.15-42.12Zm62.47-25.63,15.76-42.39,15.15,42.61Zm30.43.21,16.23-42.38,15.15,42.61Zm-92.72-.65L1362,2494l14.67,42.61Zm30.91.22,16.23-42.38,15.15,42.6ZM1284,2536l16.24-42.38,14.66,42.6Zm30.9.22,16.24-42.38,15.15,42.6Zm62.41-84.07-15.75,41.9-15.15-42.12Zm31.39.22-31.39-.22,15.16,42.12Z"/> <path class="cls-24" d="M1616.34,2757l-20.53-.14c0-4.06,2.71-7.73,5.92-10.66l3.21-2.2a28,28,0,0,1,9.87-3.53q-1.47-12.35-3.87-24.68a77.91,77.91,0,0,0-28.75,8.85,30.37,30.37,0,0,0-7.48,5.12c-8.56,7.33-14,16.53-14,26.5l-35.65-.25c.11-16.25,8.19-31,22.1-42.32a122.51,122.51,0,0,1,12.3-8.41,119.12,119.12,0,0,1,45.84-14q-3.32-12.37-7.47-24.61c-22.91,2.63-43.82,9.35-61.12,19.25a126.12,126.12,0,0,0-17.64,12.07c-18.73,15.75-30.57,36-30.72,58.14l-35.65-.24c.19-28.07,15.27-53.82,39.35-74,6.42-5.5,13.9-10.25,21.91-15,21.37-12.21,46.94-20.68,74.85-24.28q-5-12.22-10.84-24.17c-32.5,4.65-62.09,14.68-86.75,28.73a211,211,0,0,0-25.66,17.92c-29.43,24.17-47.2,55.81-47.44,89.78l-35.64-.24c.27-40.25,20.74-77,55.52-105.61a222,222,0,0,1,31-21.21c27.52-15.63,60.49-27.08,96.66-32.84q-2.89-5.11-5.91-10.16c-100.38-19.28-174.37-82.68-176.06-157.66h-.11c-3,77-81.58,140.56-185.64,156.31q-2.48,4-4.86,8c108.11,16.54,188.88,83.68,188.33,163.18l-36.17-.25c.47-69.23-70.52-127-165.09-139.55q-6.11,11.88-11.43,24.08c80.37,9.05,141.26,57.67,140.87,115.6l-35.65-.25c.32-46.81-50-85.43-114.81-91.33q-4.36,12-7.9,24.27c48.83,3.26,87.27,32.17,86.54,66.45l-35.65-.25c.15-22.37-25.12-40.68-57-41.72a324,324,0,0,0-6.36,44.05c407.52,2.59,478.21,7.26,477.76,3l-.12-1.81Zm-77.27-203.55c-32.53-45.13-73-83.37-117.26-108.94C1431.59,2493.14,1476.89,2533.82,1539.07,2553.48Zm-192.64-113.23a337.4,337.4,0,0,0-52.12,34.19c-9.46,13.13-22.4,24.77-38,34.39a435.26,435.26,0,0,0-37.9,44.59c68.31-18,118.63-61,128-113.17Zm99.28,168.64a258.63,258.63,0,0,0-35.81,24.5A175,175,0,0,0,1382,2660.9c-24.27-30.08-59.74-55.07-102.72-72.35,43.21-16.69,79-41.19,103.7-70.94,24.27,30.08,59.75,55.07,102.72,72.35A252.5,252.5,0,0,0,1445.71,2608.89Zm-63.37,8.43a295.19,295.19,0,0,1,40.63-27.79,267.48,267.48,0,0,1-40.25-28.34A267.56,267.56,0,0,1,1342.1,2589,266.67,266.67,0,0,1,1382.34,2617.32Zm-239.7,119.5c13.83.09,23.89,7.55,23.82,16.78l-23.94-.16Z"/> </g> </g> </g> </g> </g> <g> <g> <path class="cls-25" d="M943,805.08l422.16-688,438.36,679.72c-3.25-2.12-438.36-679.72-438.36-679.72S946.17,802.9,943,805.08Zm950.53-44.64C1390,14.65,1375.91,9.41,1363,9.53l-512.88,761c-20.24,20.63-43.44,40.79-70,65.78,22.09,21.66,125.84,30.5,147.15,9.85l436.82-729,456,720.45c20.64,21.31,131.82,35.1,131.46-1.79C1947.84,835.77,1915.2,780.68,1893.49,760.44Z"/> <path class="cls-26" d="M1371,172.57ZM1839,776.94C1393.32,85,1380.75,80.47,1369.18,80.58L904.05,785.94c-18.14,17.66-38.94,34.92-62.78,56.3,19.78,18.53,112.73,26,131.84,8.37l397-678,403,670.33c18.49,18.23,122.21,20.74,121.91-10.82C1891.74,832.13,1858.4,794.24,1839,776.94Z"/> </g> <g> <g> <path class="cls-27" d="M1022.75,1784.24l0-101.5L635.18,1965.6c-28.72,14.43-61.59,28.5-99.31,46,30.76,15.42,176.44,22.28,206.67,7.86l280.21-229.84v-4.47c-133.6,107.21-255.5,204.78-257.54,205.46l257.54-206.33ZM1692,1765.59,1974.67,1990c-2.15-.72-139.28-109.55-282.65-223.61v5.35l305.34,247.09c28.73,15.16,191.38,18,191.37-8-5.1,0-56.83-31.48-87.08-45.88-176.14-133.54-309.07-233.61-409.68-308.6l0,109.25Z"/> <path class="cls-28" d="M1023.73,1824.45l0-91.7L690.43,1972.37c-26.54,12.27-56.91,24.24-91.77,39.08,28.42,13.11,163,19,191,6.68l234.1-189.38v-3.43C910,1915.66,812.32,1993.06,810.58,1993.6l213.15-169.15ZM1693,1802.52l235.13,190.57c-1.87-.57-113-90.56-235.13-189.7v3.81l256.1,210.41c26.55,12.88,176.84,15.28,176.83-6.84-4.71,0-52.52-26.76-80.46-39C1896.89,1857.87,1782,1770.39,1693,1703.21l0,99.31Z"/> </g> <g> <g> <path d="M203.28,2681.27c351.48-188.85,479.49-263.85,520.51-285.89-1.27-43.54-1.74-59.73-1.83-62.61L112.27,2646.42c-23.82,9.09-50.94,24.2-82.25,35.27C56,2689.92,178.19,2690.39,203.28,2681.27Z"/> <path class="cls-29" d="M203.28,2681.27c351.48-188.85,479.49-263.85,520.51-285.89-1.27-43.54-1.74-59.73-1.83-62.61L112.27,2646.42c-23.82,9.09-50.94,24.2-82.25,35.27C56,2689.92,178.19,2690.39,203.28,2681.27Z"/> </g> <g> <path class="cls-30" d="M202.08,2697.46c44.36-25.35,452.62-259.51,521.86-298.2,0-56.6,0-26.92,0-35.71L188.25,2650.08c-23.32,8.49-59.38,37.05-90,47.42C123.89,2704.3,161.31,2715.45,202.08,2697.46Z"/> <path class="cls-31" d="M202.08,2697.46c44.36-25.35,452.62-259.51,521.86-298.2,0-56.6,0-26.92,0-35.71L188.25,2650.08c-23.32,8.49-59.38,37.05-90,47.42C123.89,2704.3,161.31,2715.45,202.08,2697.46Z"/> </g> </g> <g> <g> <path d="M2556.23,2748.61c-356.92-178.36-480.41-260.28-522.06-281.09,0-43.56,0-60.78,0-63.66l612,307.23c24.07,8.38,51.63,22.68,83.25,32.82C2703.66,2752.9,2581.57,2757,2556.23,2748.61Z"/> <path class="cls-29" d="M2556.23,2748.61c-356.92-178.36-480.41-260.28-522.06-281.09,0-43.56,0-60.78,0-63.66l612,307.23c24.07,8.38,51.63,22.68,83.25,32.82C2703.66,2752.9,2581.57,2757,2556.23,2748.61Z"/> </g> <g> <path class="cls-30" d="M2548,2747.6c-64.76-34.5-405.68-215.61-514-270.16,0-4.61,0-48.31,0-58.58l527.83,281.35c26.07,13.89,71.16,37,101.84,47.34C2637.89,2754.37,2588.73,2765.56,2548,2747.6Z"/> <path class="cls-29" d="M2548,2747.6c-64.76-34.5-405.68-215.61-514-270.16,0-4.61,0-48.31,0-58.58l527.83,281.35c26.07,13.89,71.16,37,101.84,47.34C2637.89,2754.37,2588.73,2765.56,2548,2747.6Z"/> </g> </g> </g> </g> </g> </g> </g> </g> </svg>