<?xml version="1.0" encoding="UTF-8" standalone="no"?>
<svg
   xmlns:dc="http://purl.org/dc/elements/1.1/"
   xmlns:cc="http://creativecommons.org/ns#"
   xmlns:rdf="http://www.w3.org/1999/02/22-rdf-syntax-ns#"
   xmlns:svg="http://www.w3.org/2000/svg"
   xmlns="http://www.w3.org/2000/svg"
   xmlns:xlink="http://www.w3.org/1999/xlink"
   xmlns:sodipodi="http://sodipodi.sourceforge.net/DTD/sodipodi-0.dtd"
   xmlns:inkscape="http://www.inkscape.org/namespaces/inkscape"
   viewBox="0 0 48 48"
   version="1.1"
   id="svg130989"
   sodipodi:docname="scroll.svg"
   inkscape:version="1.0.2 (e86c8708, 2021-01-15)">
  <metadata
     id="metadata130993">
    <rdf:RDF>
      <cc:Work
         rdf:about="">
        <dc:format>image/svg+xml</dc:format>
        <dc:type
           rdf:resource="http://purl.org/dc/dcmitype/StillImage" />
      </cc:Work>
    </rdf:RDF>
  </metadata>
  <sodipodi:namedview
     pagecolor="#ffffff"
     bordercolor="#666666"
     borderopacity="1"
     objecttolerance="10"
     gridtolerance="10"
     guidetolerance="10"
     inkscape:pageopacity="0"
     inkscape:pageshadow="2"
     inkscape:window-width="1303"
     inkscape:window-height="909"
     id="namedview130991"
     showgrid="false"
     inkscape:zoom="4.2418892"
     inkscape:cx="45.92869"
     inkscape:cy="67.063056"
     inkscape:window-x="124"
     inkscape:window-y="1105"
     inkscape:window-maximized="0"
     inkscape:current-layer="svg130989" />
  <defs
     id="defs130953">
    <filter
       id="o">
      <feGaussianBlur
         stdDeviation=".55743"
         id="feGaussianBlur130922" />
    </filter>
    <filter
       id="b" />
    <filter
       id="n"
       x="-.2314"
       y="-.11157"
       width="1.4628"
       height="1.2231">
      <feGaussianBlur
         stdDeviation=".2301"
         id="feGaussianBlur130926" />
    </filter>
    <filter
       id="m"
       x="-.13293"
       y="-.19525"
       width="1.2659"
       height="1.3905">
      <feGaussianBlur
         stdDeviation=".2301"
         id="feGaussianBlur130929" />
    </filter>
    <filter
       id="l"
       x="-.24378"
       y="-.12315"
       width="1.4876"
       height="1.2463">
      <feGaussianBlur
         stdDeviation=".43993"
         id="feGaussianBlur130932" />
    </filter>
    <linearGradient
       id="c">
      <stop
         stop-color="#bd0000"
         offset="0"
         id="stop130935" />
      <stop
         stop-color="#ff0909"
         offset="1"
         id="stop130937" />
    </linearGradient>
    <linearGradient
       id="a">
      <stop
         stop-color="#f4e9b0"
         offset="0"
         id="stop130940" />
      <stop
         stop-color="#fffbe5"
         offset="1"
         id="stop130942" />
    </linearGradient>
    <linearGradient
       id="k"
       x1="23"
       x2="27"
       y1="1026.9"
       y2="1021.9"
       gradientUnits="userSpaceOnUse"
       xlink:href="#a" />
    <linearGradient
       id="j"
       x1="19"
       x2="25"
       y1="1033.9"
       y2="1024.9"
       gradientUnits="userSpaceOnUse"
       xlink:href="#a" />
    <linearGradient
       id="i"
       x1="40"
       x2="29"
       y1="1035.9"
       y2="1054.9"
       gradientUnits="userSpaceOnUse"
       xlink:href="#a" />
    <linearGradient
       id="h"
       x1="40"
       x2="35"
       y1="1035.9"
       y2="1043.9"
       gradientUnits="userSpaceOnUse"
       xlink:href="#a" />
    <linearGradient
       id="g"
       x1="31"
       x2="36"
       y1="1043.9"
       y2="1041.9"
       gradientUnits="userSpaceOnUse"
       xlink:href="#a" />
    <linearGradient
       id="f"
       x1="19.401"
       x2="22.76"
       y1="1028.3"
       y2="1025.5"
       gradientUnits="userSpaceOnUse"
       xlink:href="#c" />
    <linearGradient
       id="e"
       x1="15.998"
       x2="18.385"
       y1="1038.7"
       y2="1033.7"
       gradientUnits="userSpaceOnUse"
       xlink:href="#c" />
    <linearGradient
       id="d"
       x1="31.816"
       x2="34.24"
       y1="1029.4"
       y2="1024.1"
       gradientUnits="userSpaceOnUse"
       xlink:href="#c" />
  </defs>
  <g
     transform="translate(0 -1004.4)"
     id="g130987">
    <path
       transform="translate(0 1004.4)"
       d="m11.875 9.4375-5.9688 7.3125c5.0573 3.5055 9.0561 7.16 12.438 10.875-2.0886 2.9076-4.505 4.249-6.7812 6.2188l3.1562-0.46875-0.78125 4c4.3898-2.4131 6.1607-3.9641 7-6.0625 3.0475 1.5378 5.4757 8.2291 9.5938 11.875 5.8754 1.4688 11.588-3.9686 13.844-6.9062l-13.781-11.375 0.71875-0.8125c2.8883-1.1367 4.0454-2.2874 6.0681-4.8264l-3.6306 0.88893 1.1875-3.875-3.625 4.5625-1 3.8125-18.438-15.219z"
       fill-opacity=".76863"
       filter="url(#o)"
       id="path130955" />
    <path
       d="m29.615 1029.4c4.2382-1.7455 6.8385-4.1462 7.5416-7.3057l-3.1058 1.6202 0.32682-4.7583c-1.9983 4.9959-4.9943 6.2506-7.9035 7.8303l3.1409 2.6135z"
       fill="url(#d)"
       id="path130957" />
    <path
       d="m18.12 1030.8c-1.0383 4.2705-4.6625 5.3087-7.4246 7.4246l4.1542-0.7955-1.3258 3.8891c3.6435-1.9242 7.1391-3.9508 7.7782-7.955l-3.182-2.5632z"
       fill="url(#e)"
       id="path130959" />
    <path
       d="m30 1046.9c4.9056 1.998 16.197-3.9746 14-11l-12-6-9 7 7 10z"
       fill="url(#i)"
       id="path130961" />
    <path
       d="m44 1037.9c-2 4-4 7-12 8l-7-8 7-5 12 5z"
       fill-opacity=".51339"
       filter="url(#b)"
       id="path130963" />
    <path
       d="m44 1037.9c-2 4-4 7-12 8l-7-8 7-5 12 5z"
       fill="url(#h)"
       id="path130965" />
    <path
       d="m32 1045.9c0-2 2-4 5-5 0.94868-0.3162-8-5-8-5l-3 3 6 7z"
       fill-opacity=".51339"
       filter="url(#b)"
       id="path130967" />
    <path
       d="m32 1045.9c0-2 2-4 5-5 0.94868-0.3162-8-5-8-5l-3 3 6 7z"
       fill="url(#g)"
       id="path130969" />
    <path
       d="m14.22 1012.6c-3.2197-0.7443-9.2197 2.2557-8.2197 8.2557 12.039 8.0491 17.412 16.835 24 26 0-4 7-10 14-9-11-7-25.313-16.298-29.78-25.256z"
       fill-opacity=".51339"
       filter="url(#b)"
       id="path130971" />
    <path
       d="m14.22 1012.6c-3.2197-0.7443-9.2197 2.2557-8.2197 8.2557 12.039 8.0491 17.412 16.835 24 26 0-4 7-10 14-9-11-7-25.313-16.298-29.78-25.256z"
       fill="url(#j)"
       id="path130973" />
    <path
       d="m14 1011.9c-2-1-5 0-6 2l26 24c4-3 7-3 10-2-10.501-5.499-22.223-12.898-30-24z"
       fill-opacity=".38839"
       filter="url(#b)"
       id="path130975" />
    <path
       d="m14 1011.9c-2-1-5 0-6 2l26 24c4-3 7-3 10-2-10.501-5.499-22.223-12.898-30-24z"
       fill="url(#k)"
       id="path130977" />
    <path
       d="m16.794 1030.3c1.4681 1.4732 1.7579 1.974 3.0052 3.4472 1.9371-2.8493 2.8812-6.5196 8.9272-7.955-1.7152-1.2669-2.4962-1.5615-3.9775-2.8284-3.8491 0.9486-5.9562 4.0747-7.955 7.3362z"
       fill="url(#f)"
       id="path130979" />
    <path
       d="m8.3085 1015.2c-1.9512 1.9307-1.8006 3.5986-1.9445 5.3033l4.331 3.2704c-1.5119-2.2012-3.5716-3.9002-2.3865-8.5737z"
       fill="#fff"
       filter="url(#l)"
       id="path130981" />
    <path
       d="m19.534 1026.8-2.3865 3.2704 1.7678 1.6793c-1.0362-1.8274 0.13684-3.3392 0.61872-4.9497z"
       fill="#fff"
       fill-opacity=".77679"
       filter="url(#n)"
       id="path130983" />
    <path
       d="m11.932 1037.8 4.1542-2.8284c-0.50506 0.5884-1.6219 1.0545-1.0607 1.8562l-3.0936 0.9722z"
       fill="#fff"
       fill-opacity=".77679"
       filter="url(#m)"
       id="path130985" />
  </g>
  <text
     xml:space="preserve"
     style="font-style:normal;font-variant:normal;font-weight:bold;font-stretch:normal;font-size:2.00334px;line-height:1.25;font-family:sans-serif;-inkscape-font-specification:'sans-serif, Bold';font-variant-ligatures:normal;font-variant-caps:normal;font-variant-numeric:normal;font-variant-east-asian:normal;fill:#ffffff;fill-opacity:1;stroke:none;stroke-width:0.0500837"
     x="-0.66684538"
     y="32.447678"
     id="text131558"
     transform="matrix(0.77282914,-0.62859552,0.6071834,0.80008271,0,0)"><tspan
       sodipodi:role="line"
       id="tspan131556"
       x="-0.66684538"
       y="32.447678"
       style="font-style:normal;font-variant:normal;font-weight:bold;font-stretch:normal;font-size:2.00334px;font-family:sans-serif;-inkscape-font-specification:'sans-serif, Bold';font-variant-ligatures:normal;font-variant-caps:normal;font-variant-numeric:normal;font-variant-east-asian:normal;fill:#ffffff;stroke-width:0.0500837">Timoteo</tspan></text>
</svg>
