<?xml version="1.0" encoding="UTF-8"?>
<svg viewBox="0 0 235 113" xmlns="http://www.w3.org/2000/svg">
 <g transform="translate(-134.37 -410.83)">
  <path d="m330.38 515.45v-6.5h-4c-3.9048 0-4-0.08333-4-3.5v-3.5h23v3.5c0 3.457-0.05275 3.5-4.2974 3.5h-4.2974l0.41389 6.5 0.41389 6.5h-7.233v-6.5zm-107-35.596c0-21.539-0.3465-22.62-9.6098-29.991-7.2829-5.7952-7.2996-4.9204 0.29894-15.671l4.4233-6.258 3.3708 2.571c4.9434 3.7706 11.583 12.822 12.591 17.165 0.48266 2.0789 0.8883 10.49 0.90142 18.692 0.02295 14.341-0.07781 15.088-2.6311 19.5-1.4602 2.5233-4.1602 6.2767-6 8.3407l-3.345 3.7529v-18.102zm26.654 7.7543c4.6503-9.3614 4.8019-9.5354 9.2869-10.653 6.9796-1.74 13.031-5.692 14.65-9.5681 1.7241-4.1264 1.8349-10.611 0.2091-12.237-0.80753-0.80753-5.3596-1.2-13.918-1.2-6.995 0-13.43-0.27314-14.3-0.60699-1.3043-0.50049-1.5818-2.4605-1.5818-11.171 0-7.856-0.37409-10.978-1.4593-12.177-1.3001-1.4366-0.83673-2.4594 4.25-9.38l5.7093-7.7676 1.3884 3.3013c0.76364 1.8157 1.6636 7.1263 2 11.801l0.61156 8.5 15.333 0.5c18.715 0.61027 18.66 0.57297 17.777 12-1.3278 17.185-9.2165 31.935-21.17 39.581-4.9749 3.1824-13.343 6.4512-20.228 7.9017l-3.2869 0.69246 4.7275-9.5168zm70.812 8.4557c-1.1191-0.48968-2.5144-1.5032-3.1007-2.2522s-4.0513-10.271-7.7-21.159c-4.0593-12.114-7.8357-21.544-9.7304-24.298l-3.0964-4.5005 3.8311-4.5482c2.1071-2.5015 4.9895-5.91 6.4053-7.5744l2.5742-3.0262 2.339 5.3724c1.2864 2.9548 4.0083 10.753 6.0486 17.33s4.1904 12.118 4.7781 12.314c1.3927 0.46422 4.1859-4.9712 4.1859-8.1454 0-1.3604-0.51941-4.7236-1.1542-7.4738l-1.1542-5.0005 6.1608-7.1404c3.6417-4.2207 6.3356-6.6029 6.5881-5.8258 0.235 0.72304 0.90704 3.6993 1.4934 6.6138 2.4997 12.425 0.42786 19.641-8.3218 28.983-5.9235 6.325-6.2405 6.9065-5.4263 9.9547 0.61091 2.287 1.6225 3.4275 3.4463 3.8852 6.3226 1.5869 22.493-5.1911 24.409-10.232 1.7786-4.6782 0.63983-15.351-2.5014-23.444-0.38618-0.99488 1.6546-4.3465 5.6786-9.3263l6.2814-7.7733 1.8093 5.8263c0.99514 3.2044 2.0555 9.6513 2.3564 14.326 1.3172 20.464-7.3484 36.213-24.322 44.203-6.5531 3.0846-18.001 4.6078-21.879 2.9111zm-173.74-5.864c-1.845-4.0616-2.2144-7.0327-2.5485-20.5l-0.39082-15.75h-7.7742l1.6718-4.25c2.1974-5.586 5.5561-10.908 9.964-15.787 4.0832-4.5197 5.3415-4.9217 5.3633-1.7135 0.03043 4.4707 0.61576 4.6094 20.839 4.9371l19.314 0.31293 2.8112 3.1487c6.3876 7.1544 6.6118 28.681 0.51133 49.101l-1.5684 5.25h-46.035l-2.1577-4.75zm40.645-15.375c1.7141-8.5704-0.22449-17.654-4.2246-19.795-1.1424-0.61141-7.5365-1.0805-14.728-1.0805h-12.709l0.67312 7.25c0.88027 9.4812 2.272 14.45 4.3937 15.686 0.9462 0.55149 7.1766 1.0164 13.845 1.0331l12.125 0.03041 0.625-3.125zm41.625-50.375v-4.5h9v9h-9v-4.5zm114-2v-4.5h9v9h-9v-4.5z"/>
 </g>
</svg>
