<svg width="816" height="376" xmlns="http://www.w3.org/2000/svg" xmlns:xlink="http://www.w3.org/1999/xlink" xml:space="preserve" overflow="hidden"><defs><filter id="fx0" x="-10%" y="-10%" width="120%" height="120%" filterUnits="userSpaceOnUse" primitiveUnits="userSpaceOnUse"><feComponentTransfer color-interpolation-filters="sRGB"><feFuncR type="discrete" tableValues="0.000000 0.000000"/><feFuncG type="discrete" tableValues="0.000000 0.000000"/><feFuncB type="discrete" tableValues="0.000000 0.000000"/><feFuncA type="linear" slope="0.349020" intercept="0.000000"/></feComponentTransfer><feGaussianBlur stdDeviation="4.811899 4.811899"/></filter><filter id="fx1" x="-10%" y="-10%" width="120%" height="120%" filterUnits="userSpaceOnUse" primitiveUnits="userSpaceOnUse"><feComponentTransfer color-interpolation-filters="sRGB"><feFuncR type="discrete" tableValues="0.000000 0.000000"/><feFuncG type="discrete" tableValues="0.000000 0.000000"/><feFuncB type="discrete" tableValues="0.000000 0.000000"/><feFuncA type="linear" slope="0.431373" intercept="0.000000"/></feComponentTransfer><feGaussianBlur stdDeviation="2.102971 2.102971"/></filter><filter id="fx2" x="-10%" y="-10%" width="120%" height="120%" filterUnits="userSpaceOnUse" primitiveUnits="userSpaceOnUse"><feComponentTransfer color-interpolation-filters="sRGB"><feFuncR type="discrete" tableValues="0.000000 0.000000"/><feFuncG type="discrete" tableValues="0.000000 0.000000"/><feFuncB type="discrete" tableValues="0.000000 0.000000"/><feFuncA type="linear" slope="0.431373" intercept="0.000000"/></feComponentTransfer><feGaussianBlur stdDeviation="1.869331 1.869331"/></filter><filter id="fx3" x="-10%" y="-10%" width="120%" height="120%" filterUnits="userSpaceOnUse" primitiveUnits="userSpaceOnUse"><feComponentTransfer color-interpolation-filters="sRGB"><feFuncR type="discrete" tableValues="0.000000 0.000000"/><feFuncG type="discrete" tableValues="0.000000 0.000000"/><feFuncB type="discrete" tableValues="0.000000 0.000000"/><feFuncA type="linear" slope="0.431373" intercept="0.000000"/></feComponentTransfer><feGaussianBlur stdDeviation="1.869331 1.869331"/></filter><filter id="fx4" x="-10%" y="-10%" width="120%" height="120%" filterUnits="userSpaceOnUse" primitiveUnits="userSpaceOnUse"><feComponentTransfer color-interpolation-filters="sRGB"><feFuncR type="discrete" tableValues="0.000000 0.000000"/><feFuncG type="discrete" tableValues="0.000000 0.000000"/><feFuncB type="discrete" tableValues="0.000000 0.000000"/><feFuncA type="linear" slope="0.431373" intercept="0.000000"/></feComponentTransfer><feGaussianBlur stdDeviation="1.869331 1.869331"/></filter><filter id="fx5" x="-10%" y="-10%" width="120%" height="120%" filterUnits="userSpaceOnUse" primitiveUnits="userSpaceOnUse"><feComponentTransfer color-interpolation-filters="sRGB"><feFuncR type="discrete" tableValues="0.000000 0.000000"/><feFuncG type="discrete" tableValues="0.000000 0.000000"/><feFuncB type="discrete" tableValues="0.000000 0.000000"/><feFuncA type="linear" slope="0.349020" intercept="0.000000"/></feComponentTransfer><feGaussianBlur stdDeviation="4.811899 4.811899"/></filter><filter id="fx6" x="-10%" y="-10%" width="120%" height="120%" filterUnits="userSpaceOnUse" primitiveUnits="userSpaceOnUse"><feComponentTransfer color-interpolation-filters="sRGB"><feFuncR type="discrete" tableValues="0.000000 0.000000"/><feFuncG type="discrete" tableValues="0.000000 0.000000"/><feFuncB type="discrete" tableValues="0.000000 0.000000"/><feFuncA type="linear" slope="0.431373" intercept="0.000000"/></feComponentTransfer><feGaussianBlur stdDeviation="2.102971 2.102971"/></filter><filter id="fx7" x="-10%" y="-10%" width="120%" height="120%" filterUnits="userSpaceOnUse" primitiveUnits="userSpaceOnUse"><feComponentTransfer color-interpolation-filters="sRGB"><feFuncR type="discrete" tableValues="0.000000 0.000000"/><feFuncG type="discrete" tableValues="0.000000 0.000000"/><feFuncB type="discrete" tableValues="0.000000 0.000000"/><feFuncA type="linear" slope="0.431373" intercept="0.000000"/></feComponentTransfer><feGaussianBlur stdDeviation="1.869331 1.869331"/></filter><filter id="fx8" x="-10%" y="-10%" width="120%" height="120%" filterUnits="userSpaceOnUse" primitiveUnits="userSpaceOnUse"><feComponentTransfer color-interpolation-filters="sRGB"><feFuncR type="discrete" tableValues="0.000000 0.000000"/><feFuncG type="discrete" tableValues="0.000000 0.000000"/><feFuncB type="discrete" tableValues="0.000000 0.000000"/><feFuncA type="linear" slope="0.431373" intercept="0.000000"/></feComponentTransfer><feGaussianBlur stdDeviation="1.869331 1.869331"/></filter><filter id="fx9" x="-10%" y="-10%" width="120%" height="120%" filterUnits="userSpaceOnUse" primitiveUnits="userSpaceOnUse"><feComponentTransfer color-interpolation-filters="sRGB"><feFuncR type="discrete" tableValues="0.000000 0.000000"/><feFuncG type="discrete" tableValues="0.000000 0.000000"/><feFuncB type="discrete" tableValues="0.000000 0.000000"/><feFuncA type="linear" slope="0.431373" intercept="0.000000"/></feComponentTransfer><feGaussianBlur stdDeviation="1.869331 1.869331"/></filter><clipPath id="clip10"><rect x="1672" y="572" width="816" height="376"/></clipPath><clipPath id="clip11"><path d="M1691.5 619.5 1691.5 858.5 2468.5 858.5 2468.5 619.5ZM1672 572 2488 572 2488 948 1672 948Z" fill-rule="evenodd" clip-rule="evenodd"/></clipPath><clipPath id="clip12"><rect x="1.56445" y="1.86475" width="808.871" height="270.871"/></clipPath><clipPath id="clip13"><rect x="0" y="0" width="812" height="275"/></clipPath><clipPath id="clip14"><rect x="-14.4357" y="-14.4357" width="589.871" height="403.871"/></clipPath><clipPath id="clip15"><rect x="0" y="0" width="561" height="375"/></clipPath><clipPath id="clip16"><rect x="-6.30891" y="-6.30891" width="543.618" height="259.618"/></clipPath><clipPath id="clip17"><rect x="0" y="0" width="531" height="247"/></clipPath><clipPath id="clip18"><rect x="-5.60799" y="-5.60799" width="252.216" height="218.216"/></clipPath><clipPath id="clip19"><rect x="0" y="0" width="241" height="207"/></clipPath><clipPath id="clip20"><rect x="-5.60799" y="-5.60799" width="164.216" height="218.216"/></clipPath><clipPath id="clip21"><rect x="0" y="0" width="153" height="207"/></clipPath><clipPath id="clip22"><rect x="-5.60799" y="-5.60799" width="227.216" height="218.216"/></clipPath><clipPath id="clip23"><rect x="0" y="0" width="216" height="207"/></clipPath><clipPath id="clip24"><rect x="-6.30896" y="-6.3089" width="543.618" height="259.618"/></clipPath><clipPath id="clip25"><rect x="0" y="0" width="531" height="247"/></clipPath><clipPath id="clip26"><rect x="-5.60803" y="-5.60797" width="252.216" height="217.216"/></clipPath><clipPath id="clip27"><rect x="0" y="0" width="241" height="206"/></clipPath><clipPath id="clip28"><rect x="-5.60803" y="-5.60797" width="164.216" height="217.216"/></clipPath><clipPath id="clip29"><rect x="0" y="0" width="153" height="206"/></clipPath><clipPath id="clip30"><rect x="-5.60803" y="-5.60797" width="227.216" height="217.216"/></clipPath><clipPath id="clip31"><rect x="0" y="0" width="216" height="206"/></clipPath></defs><g clip-path="url(#clip10)" transform="translate(-1672 -572)"><g clip-path="url(#clip11)"><g clip-path="url(#clip12)" filter="url(#fx0)" transform="translate(1674 610)"><g clip-path="url(#clip13)"><rect x="17.5001" y="17.8005" width="777" height="239" stroke="#000000" stroke-width="3" stroke-linecap="butt" stroke-linejoin="round" stroke-miterlimit="10" stroke-opacity="1" fill="#404040" fill-opacity="1"/></g></g><g clip-path="url(#clip14)" filter="url(#fx5)" transform="translate(1803 574)"><g clip-path="url(#clip15)"><g clip-path="url(#clip16)" filter="url(#fx1)" transform="translate(15 15)"><g clip-path="url(#clip17)" transform="translate(-1803 -574)"><path d="M46.5674-63.7012C46.5674-62.6269 46.5226-61.7228 46.4331-60.9888 46.3436-60.2547 46.2004-59.6728 46.0034-59.2432 45.8065-58.8135 45.5827-58.4912 45.332-58.2764 45.0814-58.0615 44.7949-57.9541 44.4727-57.9541L21.7529-57.9541 21.7529-39.2627 43.0762-39.2627C43.3984-39.2627 43.6849-39.1732 43.9355-38.9941 44.1862-38.8151 44.41-38.5107 44.6069-38.0811 44.8039-37.6514 44.9471-37.0784 45.0366-36.3623 45.1261-35.6462 45.1709-34.751 45.1709-33.6768 45.1709-32.6025 45.1261-31.7074 45.0366-30.9912 44.9471-30.2751 44.8039-29.6842 44.6069-29.2187 44.41-28.7533 44.1862-28.422 43.9355-28.2251 43.6849-28.0282 43.3984-27.9297 43.0762-27.9297L21.7529-27.9297 21.7529-2.04102C21.7529-1.64714 21.6455-1.30697 21.4307-1.02051 21.2158-0.734049 20.8309-0.49235 20.2759-0.29541 19.7209-0.09847 18.9958 0.0537109 18.1006 0.161133 17.2054 0.268555 16.0596 0.322266 14.6631 0.322266 13.3024 0.322266 12.1655 0.268555 11.2524 0.161133 10.3394 0.0537109 9.61426-0.09847 9.07715-0.29541 8.54004-0.49235 8.15511-0.734049 7.92236-1.02051 7.68962-1.30697 7.57324-1.64714 7.57324-2.04102L7.57324-65.0439C7.57324-66.6195 7.97607-67.7563 8.78174-68.4546 9.5874-69.1528 10.5811-69.5019 11.7627-69.5019L44.4727-69.5019C44.7949-69.5019 45.0814-69.4035 45.332-69.2065 45.5827-69.0096 45.8065-68.6873 46.0034-68.2397 46.2004-67.7921 46.3436-67.1924 46.4331-66.4404 46.5226-65.6885 46.5674-64.7754 46.5674-63.7012ZM70.7194-1.82617C70.7194-1.4681 70.612-1.15479 70.3971-0.88623 70.1823-0.617676 69.8153-0.39388 69.2961-0.214844 68.7769-0.0358073 68.0876 0.09847 67.2282 0.187988 66.3688 0.277506 65.2767 0.322266 63.9518 0.322266 62.6269 0.322266 61.5348 0.277506 60.6755 0.187988 59.8161 0.09847 59.1268-0.0358073 58.6076-0.214844 58.0884-0.39388 57.7214-0.617676 57.5065-0.88623 57.2917-1.15479 57.1842-1.4681 57.1842-1.82617L57.1842-49.6289C57.1842-49.987 57.2917-50.3003 57.5065-50.5688 57.7214-50.8374 58.0884-51.0701 58.6076-51.2671 59.1268-51.464 59.8161-51.6162 60.6755-51.7236 61.5348-51.8311 62.6269-51.8848 63.9518-51.8848 65.2767-51.8848 66.3688-51.8311 67.2282-51.7236 68.0876-51.6162 68.7769-51.464 69.2961-51.2671 69.8153-51.0701 70.1823-50.8374 70.3971-50.5688 70.612-50.3003 70.7194-49.987 70.7194-49.6289ZM71.7399-65.957C71.7399-63.2357 71.1849-61.3558 70.0749-60.3174 68.9648-59.279 66.9059-58.7598 63.8981-58.7598 60.8545-58.7598 58.8045-59.2611 57.7482-60.2637 56.6919-61.2663 56.1637-63.0745 56.1637-65.6885 56.1637-68.4098 56.7098-70.2987 57.8019-71.355 58.894-72.4113 60.9619-72.9394 64.0055-72.9394 67.0133-72.9394 69.0544-72.4292 70.1286-71.4087 71.2028-70.3882 71.7399-68.571 71.7399-65.957ZM97.6465-1.82617C97.6465-1.4681 97.5391-1.15479 97.3242-0.88623 97.1094-0.617676 96.7423-0.39388 96.2231-0.214844 95.7039-0.0358073 95.0146 0.09847 94.1553 0.187988 93.2959 0.277506 92.2038 0.322266 90.8789 0.322266 89.554 0.322266 88.4619 0.277506 87.6025 0.187988 86.7432 0.09847 86.0539-0.0358073 85.5347-0.214844 85.0155-0.39388 84.6484-0.617676 84.4336-0.88623 84.2188-1.15479 84.1113-1.4681 84.1113-1.82617L84.1113-72.456C84.1113-72.8141 84.2188-73.1364 84.4336-73.4228 84.6484-73.7093 85.0155-73.951 85.5347-74.1479 86.0539-74.3449 86.7432-74.4971 87.6025-74.6045 88.4619-74.7119 89.554-74.7656 90.8789-74.7656 92.2038-74.7656 93.2959-74.7119 94.1553-74.6045 95.0146-74.4971 95.7039-74.3449 96.2231-74.1479 96.7423-73.951 97.1094-73.7093 97.3242-73.4228 97.5391-73.1364 97.6465-72.8141 97.6465-72.456ZM159.486-26.2646C159.486-22.1826 158.949-18.4587 157.874-15.0928 156.8-11.7269 155.171-8.8265 152.987-6.3916 150.802-3.95671 148.063-2.07682 144.769-0.751953 141.475 0.572917 137.625 1.23535 133.221 1.23535 128.96 1.23535 125.254 0.644531 122.103-0.537109 118.952-1.71875 116.338-3.4375 114.261-5.69336 112.184-7.94922 110.645-10.7243 109.642-14.0186 108.639-17.3128 108.138-21.0726 108.138-25.2978 108.138-29.3799 108.684-33.1128 109.776-36.4966 110.868-39.8804 112.507-42.7808 114.691-45.1978 116.875-47.6147 119.605-49.4857 122.882-50.8105 126.158-52.1354 129.998-52.7978 134.403-52.7978 138.7-52.7978 142.423-52.216 145.575-51.0522 148.726-49.8885 151.331-48.1787 153.389-45.9228 155.448-43.667 156.979-40.8919 157.982-37.5977 158.984-34.3034 159.486-30.5257 159.486-26.2646ZM145.575-25.7275C145.575-28.0908 145.387-30.2661 145.011-32.2534 144.635-34.2407 143.999-35.9684 143.104-37.4365 142.209-38.9046 141.018-40.0505 139.532-40.874 138.046-41.6976 136.175-42.1094 133.919-42.1094 131.914-42.1094 130.16-41.7423 128.656-41.0083 127.152-40.2742 125.916-39.2 124.95-37.7856 123.983-36.3713 123.258-34.6704 122.774-32.6831 122.291-30.6958 122.049-28.431 122.049-25.8887 122.049-23.5254 122.246-21.3501 122.64-19.3628 123.034-17.3755 123.669-15.6478 124.547-14.1797 125.424-12.7116 126.615-11.5747 128.118-10.769 129.622-9.96338 131.484-9.56054 133.704-9.56055 135.745-9.56054 137.518-9.92757 139.022-10.6616 140.526-11.3957 141.761-12.4609 142.728-13.8574 143.695-15.2539 144.411-16.9458 144.876-18.9331 145.342-20.9204 145.575-23.1852 145.575-25.7275ZM203.779-15.3613C203.779-12.64 203.269-10.2409 202.249-8.16406 201.228-6.08724 199.787-4.35058 197.925-2.9541 196.063-1.55762 193.861-0.510254 191.318 0.187988 188.776 0.88623 186.019 1.23535 183.047 1.23535 181.257 1.23535 179.547 1.10107 177.917 0.832519 176.288 0.563965 174.829 0.223796 173.54-0.187988 172.251-0.599772 171.177-1.02051 170.317-1.4502 169.458-1.87988 168.831-2.28271 168.438-2.65869 168.044-3.03467 167.739-3.62549 167.524-4.43115 167.31-5.23682 167.202-6.42741 167.202-8.00293 167.202-9.04134 167.238-9.87386 167.31-10.5005 167.381-11.1271 167.489-11.6284 167.632-12.0044 167.775-12.3804 167.954-12.631 168.169-12.7563 168.384-12.8817 168.652-12.9443 168.975-12.9443 169.368-12.9443 169.95-12.7205 170.72-12.2729 171.49-11.8254 172.448-11.333 173.594-10.7959 174.74-10.2588 176.073-9.75749 177.595-9.29199 179.117-8.8265 180.845-8.59375 182.778-8.59375 183.996-8.59375 185.079-8.71907 186.028-8.96973 186.977-9.22038 187.8-9.57845 188.499-10.0439 189.197-10.5094 189.725-11.1003 190.083-11.8164 190.441-12.5326 190.62-13.3561 190.62-14.2871 190.62-15.3613 190.289-16.2834 189.626-17.0532 188.964-17.8231 188.087-18.4945 186.995-19.0674 185.902-19.6403 184.667-20.1774 183.289-20.6787 181.91-21.18 180.496-21.735 179.045-22.3437 177.595-22.9525 176.181-23.6507 174.802-24.4385 173.424-25.2262 172.188-26.193 171.096-27.3389 170.004-28.4847 169.127-29.8633 168.464-31.4746 167.802-33.0859 167.471-35.0195 167.471-37.2754 167.471-39.5671 167.918-41.6707 168.813-43.5864 169.709-45.5021 170.998-47.1403 172.681-48.501 174.364-49.8616 176.414-50.918 178.831-51.6699 181.248-52.4219 183.96-52.7978 186.968-52.7978 188.472-52.7978 189.931-52.6904 191.345-52.4756 192.76-52.2607 194.04-51.9922 195.186-51.6699 196.331-51.3476 197.298-50.9985 198.086-50.6226 198.874-50.2466 199.438-49.9243 199.778-49.6558 200.118-49.3872 200.36-49.1186 200.503-48.8501 200.646-48.5815 200.754-48.2593 200.825-47.8833 200.897-47.5073 200.959-47.0418 201.013-46.4868 201.067-45.9318 201.094-45.2425 201.094-44.4189 201.094-43.4521 201.067-42.6644 201.013-42.0557 200.959-41.4469 200.87-40.9635 200.745-40.6055 200.619-40.2474 200.449-40.0057 200.234-39.8804 200.02-39.755 199.769-39.6924 199.482-39.6924 199.16-39.6924 198.659-39.8804 197.979-40.2563 197.298-40.6323 196.448-41.0351 195.427-41.4648 194.407-41.8945 193.225-42.2974 191.882-42.6733 190.54-43.0493 189.009-43.2373 187.29-43.2373 186.073-43.2373 185.016-43.112 184.121-42.8613 183.226-42.6107 182.492-42.2526 181.919-41.7871 181.346-41.3216 180.916-40.7756 180.63-40.1489 180.343-39.5223 180.2-38.8509 180.2-38.1348 180.2-37.0247 180.54-36.0937 181.221-35.3418 181.901-34.5898 182.796-33.9274 183.906-33.3545 185.016-32.7816 186.278-32.2445 187.693-31.7432 189.107-31.2419 190.54-30.6958 191.99-30.105 193.44-29.5142 194.872-28.8249 196.287-28.0371 197.701-27.2493 198.963-26.2825 200.073-25.1367 201.183-23.9909 202.078-22.6213 202.759-21.0278 203.439-19.4344 203.779-17.5456 203.779-15.3613ZM262.611-26.2646C262.611-22.1826 262.074-18.4587 260.999-15.0928 259.925-11.7269 258.296-8.8265 256.112-6.3916 253.927-3.95671 251.188-2.07682 247.894-0.751953 244.6 0.572917 240.75 1.23535 236.346 1.23535 232.085 1.23535 228.379 0.644531 225.228-0.537109 222.077-1.71875 219.463-3.4375 217.386-5.69336 215.309-7.94922 213.77-10.7243 212.767-14.0186 211.764-17.3128 211.263-21.0726 211.263-25.2978 211.263-29.3799 211.809-33.1128 212.901-36.4966 213.993-39.8804 215.632-42.7808 217.816-45.1978 220-47.6147 222.73-49.4857 226.007-50.8105 229.283-52.1354 233.123-52.7978 237.528-52.7978 241.825-52.7978 245.548-52.216 248.7-51.0522 251.851-49.8885 254.456-48.1787 256.514-45.9228 258.573-43.667 260.104-40.8919 261.107-37.5977 262.109-34.3034 262.611-30.5257 262.611-26.2646ZM248.7-25.7275C248.7-28.0908 248.512-30.2661 248.136-32.2534 247.76-34.2407 247.124-35.9684 246.229-37.4365 245.334-38.9046 244.143-40.0505 242.657-40.874 241.171-41.6976 239.3-42.1094 237.044-42.1094 235.039-42.1094 233.284-41.7423 231.781-41.0083 230.277-40.2742 229.041-39.2 228.075-37.7856 227.108-36.3713 226.383-34.6704 225.899-32.6831 225.416-30.6958 225.174-28.431 225.174-25.8887 225.174-23.5254 225.371-21.3501 225.765-19.3628 226.159-17.3755 226.794-15.6478 227.672-14.1797 228.549-12.7116 229.74-11.5747 231.243-10.769 232.747-9.96338 234.609-9.56054 236.829-9.56055 238.87-9.56054 240.643-9.92757 242.147-10.6616 243.651-11.3957 244.886-12.4609 245.853-13.8574 246.82-15.2539 247.536-16.9458 248.001-18.9331 248.467-20.9204 248.7-23.1852 248.7-25.7275ZM302.07-67.998C302.07-66.9596 302.034-66.1271 301.963-65.5005 301.891-64.8738 301.784-64.3904 301.641-64.0503 301.497-63.7101 301.336-63.4774 301.157-63.352 300.978-63.2267 300.781-63.1641 300.566-63.1641 300.316-63.1641 300.038-63.2267 299.734-63.352 299.43-63.4774 299.054-63.6116 298.606-63.7549 298.158-63.8981 297.63-64.0324 297.021-64.1577 296.413-64.283 295.697-64.3457 294.873-64.3457 293.906-64.3457 293.074-64.1935 292.375-63.8892 291.677-63.5848 291.095-63.1014 290.63-62.439 290.164-61.7765 289.824-60.9171 289.609-59.8608 289.395-58.8045 289.287-57.5065 289.287-55.9668L289.287-51.5625 298.042-51.5625C298.364-51.5625 298.66-51.473 298.928-51.2939 299.197-51.1149 299.421-50.8195 299.6-50.4077 299.779-49.9959 299.913-49.432 300.002-48.7158 300.092-47.9997 300.137-47.1224 300.137-46.084 300.137-44.1146 299.958-42.7091 299.6-41.8677 299.242-41.0262 298.722-40.6055 298.042-40.6055L289.287-40.6055 289.287-1.82617C289.287-1.4681 289.18-1.15479 288.965-0.88623 288.75-0.617676 288.392-0.39388 287.891-0.214844 287.389-0.0358073 286.691 0.09847 285.796 0.187988 284.901 0.277506 283.809 0.322266 282.52 0.322266 281.23 0.322266 280.147 0.277506 279.27 0.187988 278.393 0.09847 277.694-0.0358073 277.175-0.214844 276.656-0.39388 276.298-0.617676 276.101-0.88623 275.904-1.15479 275.806-1.4681 275.806-1.82617L275.806-40.6055 269.79-40.6055C269.11-40.6055 268.599-41.0262 268.259-41.8677 267.919-42.7091 267.749-44.1146 267.749-46.084 267.749-47.1224 267.794-47.9997 267.883-48.7158 267.973-49.432 268.098-49.9959 268.259-50.4077 268.42-50.8195 268.635-51.1149 268.904-51.2939 269.172-51.473 269.486-51.5625 269.844-51.5625L275.806-51.5625 275.806-55.5908C275.806-58.8493 276.128-61.7049 276.772-64.1577 277.417-66.6105 278.429-68.6515 279.807-70.2808 281.186-71.91 282.94-73.1364 285.071-73.96 287.201-74.7835 289.717-75.1953 292.617-75.1953 294.014-75.1953 295.339-75.0789 296.592-74.8462 297.845-74.6134 298.83-74.3628 299.546-74.0942 300.262-73.8257 300.745-73.575 300.996-73.3423 301.247-73.1095 301.453-72.7694 301.614-72.3218 301.775-71.8742 301.891-71.3013 301.963-70.603 302.034-69.9048 302.07-69.0364 302.07-67.998ZM321.657-1.82617C321.657-1.4681 321.549-1.15479 321.335-0.88623 321.12-0.617676 320.753-0.39388 320.234-0.214844 319.714-0.0358073 319.025 0.09847 318.166 0.187988 317.306 0.277506 316.214 0.322266 314.889 0.322266 313.564 0.322266 312.472 0.277506 311.613 0.187988 310.754 0.09847 310.064-0.0358073 309.545-0.214844 309.026-0.39388 308.659-0.617676 308.444-0.88623 308.229-1.15479 308.122-1.4681 308.122-1.82617L308.122-49.7363C308.122-50.0944 308.229-50.4077 308.444-50.6763 308.659-50.9448 309.026-51.1686 309.545-51.3477 310.064-51.5267 310.754-51.661 311.613-51.7505 312.472-51.84 313.564-51.8848 314.889-51.8848 316.214-51.8848 317.306-51.84 318.166-51.7505 319.025-51.661 319.714-51.5267 320.234-51.3477 320.753-51.1686 321.12-50.9448 321.335-50.6763 321.549-50.4077 321.657-50.0944 321.657-49.7363ZM316.501-73.2617C316.751-73.6556 317.056-73.9958 317.414-74.2822 317.772-74.5687 318.219-74.7925 318.757-74.9536 319.294-75.1147 319.974-75.2311 320.798-75.3027 321.621-75.3743 322.624-75.4101 323.805-75.4101 325.452-75.4101 326.75-75.3385 327.699-75.1953 328.648-75.0521 329.329-74.8462 329.74-74.5776 330.152-74.3091 330.34-73.9958 330.304-73.6377 330.269-73.2796 330.09-72.9036 329.767-72.5098L319.347-60.0488C319.061-59.6908 318.774-59.3953 318.488-59.1626 318.201-58.9298 317.834-58.7419 317.387-58.5986 316.939-58.4554 316.375-58.348 315.695-58.2764 315.015-58.2048 314.155-58.1689 313.117-58.1689 311.864-58.1689 310.87-58.2227 310.136-58.3301 309.402-58.4375 308.892-58.6076 308.605-58.8403 308.319-59.0731 308.202-59.3685 308.256-59.7266 308.31-60.0846 308.498-60.4964 308.82-60.9619ZM375.869-1.66504C375.869-1.16374 375.69-0.769857 375.332-0.483398 374.974-0.19694 374.41 0.00895182 373.64 0.134277 372.87 0.259603 371.733 0.322266 370.229 0.322266 368.618 0.322266 367.445 0.259603 366.711 0.134277 365.977 0.00895182 365.458-0.19694 365.154-0.483398 364.849-0.769857 364.697-1.16374 364.697-1.66504L364.697-5.47852C362.728-3.36589 360.481-1.71875 357.957-0.537109 355.432 0.644531 352.63 1.23535 349.551 1.23535 347.008 1.23535 344.672 0.904134 342.542 0.241699 340.411-0.420736 338.567-1.40544 337.009-2.7124 335.452-4.01937 334.243-5.63965 333.384-7.57324 332.524-9.50683 332.095-11.7627 332.095-14.3408 332.095-17.1338 332.641-19.5597 333.733-21.6187 334.825-23.6776 336.454-25.3784 338.621-26.7212 340.787-28.064 343.481-29.0576 346.704-29.7021 349.927-30.3467 353.669-30.6689 357.93-30.6689L362.603-30.6689 362.603-33.5693C362.603-35.0732 362.45-36.3892 362.146-37.5171 361.842-38.645 361.34-39.585 360.642-40.3369 359.944-41.0889 359.013-41.6439 357.849-42.0019 356.685-42.36 355.244-42.5391 353.525-42.5391 351.27-42.5391 349.255-42.2884 347.483-41.7871 345.71-41.2858 344.144-40.7308 342.783-40.1221 341.423-39.5133 340.286-38.9583 339.373-38.457 338.459-37.9557 337.716-37.7051 337.144-37.7051 336.75-37.7051 336.401-37.8304 336.096-38.0811 335.792-38.3317 335.541-38.6898 335.344-39.1553 335.147-39.6208 334.995-40.1937 334.888-40.874 334.78-41.5544 334.727-42.3063 334.727-43.1299 334.727-44.2399 334.816-45.1172 334.995-45.7617 335.174-46.4062 335.514-46.9881 336.016-47.5073 336.517-48.0265 337.394-48.5994 338.647-49.2261 339.901-49.8527 341.369-50.4346 343.052-50.9717 344.735-51.5088 346.57-51.9474 348.557-52.2876 350.544-52.6278 352.594-52.7978 354.707-52.7978 358.467-52.7978 361.68-52.4308 364.348-51.6968 367.016-50.9627 369.209-49.8348 370.928-48.313 372.646-46.7912 373.9-44.8307 374.688-42.4316 375.475-40.0325 375.869-37.1859 375.869-33.8916ZM362.603-22.1826 357.446-22.1826C355.262-22.1826 353.4-22.0215 351.86-21.6992 350.321-21.3769 349.067-20.8936 348.101-20.249 347.134-19.6045 346.427-18.8257 345.979-17.9126 345.531-16.9995 345.308-15.9521 345.308-14.7705 345.308-12.7653 345.943-11.1898 347.214-10.0439 348.486-8.89811 350.249-8.32519 352.505-8.32519 354.403-8.32519 356.148-8.80859 357.742-9.77539 359.335-10.7422 360.955-12.1566 362.603-14.0186Z" fill="#FFFFFF" fill-rule="nonzero" fill-opacity="1" transform="matrix(1 0 0 1 74.3226 144)"/></g></g><path d="M46.5674-63.7012C46.5674-62.6269 46.5226-61.7228 46.4331-60.9888 46.3436-60.2547 46.2004-59.6728 46.0034-59.2432 45.8065-58.8135 45.5827-58.4912 45.332-58.2764 45.0814-58.0615 44.7949-57.9541 44.4727-57.9541L21.7529-57.9541 21.7529-39.2627 43.0762-39.2627C43.3984-39.2627 43.6849-39.1732 43.9355-38.9941 44.1862-38.8151 44.41-38.5107 44.6069-38.0811 44.8039-37.6514 44.9471-37.0784 45.0366-36.3623 45.1261-35.6462 45.1709-34.751 45.1709-33.6768 45.1709-32.6025 45.1261-31.7074 45.0366-30.9912 44.9471-30.2751 44.8039-29.6842 44.6069-29.2187 44.41-28.7533 44.1862-28.422 43.9355-28.2251 43.6849-28.0282 43.3984-27.9297 43.0762-27.9297L21.7529-27.9297 21.7529-2.04102C21.7529-1.64714 21.6455-1.30697 21.4307-1.02051 21.2158-0.734049 20.8309-0.49235 20.2759-0.29541 19.7209-0.09847 18.9958 0.0537109 18.1006 0.161133 17.2054 0.268555 16.0596 0.322266 14.6631 0.322266 13.3024 0.322266 12.1655 0.268555 11.2524 0.161133 10.3394 0.0537109 9.61426-0.09847 9.07715-0.29541 8.54004-0.49235 8.15511-0.734049 7.92236-1.02051 7.68962-1.30697 7.57324-1.64714 7.57324-2.04102L7.57324-65.0439C7.57324-66.6195 7.97607-67.7563 8.78174-68.4546 9.5874-69.1528 10.5811-69.5019 11.7627-69.5019L44.4727-69.5019C44.7949-69.5019 45.0814-69.4035 45.332-69.2065 45.5827-69.0096 45.8065-68.6873 46.0034-68.2397 46.2004-67.7921 46.3436-67.1924 46.4331-66.4404 46.5226-65.6885 46.5674-64.7754 46.5674-63.7012ZM70.7194-1.82617C70.7194-1.4681 70.612-1.15479 70.3971-0.88623 70.1823-0.617676 69.8153-0.39388 69.2961-0.214844 68.7769-0.0358073 68.0876 0.09847 67.2282 0.187988 66.3688 0.277506 65.2767 0.322266 63.9518 0.322266 62.6269 0.322266 61.5348 0.277506 60.6755 0.187988 59.8161 0.09847 59.1268-0.0358073 58.6076-0.214844 58.0884-0.39388 57.7214-0.617676 57.5065-0.88623 57.2917-1.15479 57.1842-1.4681 57.1842-1.82617L57.1842-49.6289C57.1842-49.987 57.2917-50.3003 57.5065-50.5688 57.7214-50.8374 58.0884-51.0701 58.6076-51.2671 59.1268-51.464 59.8161-51.6162 60.6755-51.7236 61.5348-51.8311 62.6269-51.8848 63.9518-51.8848 65.2767-51.8848 66.3688-51.8311 67.2282-51.7236 68.0876-51.6162 68.7769-51.464 69.2961-51.2671 69.8153-51.0701 70.1823-50.8374 70.3971-50.5688 70.612-50.3003 70.7194-49.987 70.7194-49.6289ZM71.7399-65.957C71.7399-63.2357 71.1849-61.3558 70.0749-60.3174 68.9648-59.279 66.9059-58.7598 63.8981-58.7598 60.8545-58.7598 58.8045-59.2611 57.7482-60.2637 56.6919-61.2663 56.1637-63.0745 56.1637-65.6885 56.1637-68.4098 56.7098-70.2987 57.8019-71.355 58.894-72.4113 60.9619-72.9394 64.0055-72.9394 67.0133-72.9394 69.0544-72.4292 70.1286-71.4087 71.2028-70.3882 71.7399-68.571 71.7399-65.957ZM97.6465-1.82617C97.6465-1.4681 97.5391-1.15479 97.3242-0.88623 97.1094-0.617676 96.7423-0.39388 96.2231-0.214844 95.7039-0.0358073 95.0146 0.09847 94.1553 0.187988 93.2959 0.277506 92.2038 0.322266 90.8789 0.322266 89.554 0.322266 88.4619 0.277506 87.6025 0.187988 86.7432 0.09847 86.0539-0.0358073 85.5347-0.214844 85.0155-0.39388 84.6484-0.617676 84.4336-0.88623 84.2188-1.15479 84.1113-1.4681 84.1113-1.82617L84.1113-72.456C84.1113-72.8141 84.2188-73.1364 84.4336-73.4228 84.6484-73.7093 85.0155-73.951 85.5347-74.1479 86.0539-74.3449 86.7432-74.4971 87.6025-74.6045 88.4619-74.7119 89.554-74.7656 90.8789-74.7656 92.2038-74.7656 93.2959-74.7119 94.1553-74.6045 95.0146-74.4971 95.7039-74.3449 96.2231-74.1479 96.7423-73.951 97.1094-73.7093 97.3242-73.4228 97.5391-73.1364 97.6465-72.8141 97.6465-72.456ZM159.486-26.2646C159.486-22.1826 158.949-18.4587 157.874-15.0928 156.8-11.7269 155.171-8.8265 152.987-6.3916 150.802-3.95671 148.063-2.07682 144.769-0.751953 141.475 0.572917 137.625 1.23535 133.221 1.23535 128.96 1.23535 125.254 0.644531 122.103-0.537109 118.952-1.71875 116.338-3.4375 114.261-5.69336 112.184-7.94922 110.645-10.7243 109.642-14.0186 108.639-17.3128 108.138-21.0726 108.138-25.2978 108.138-29.3799 108.684-33.1128 109.776-36.4966 110.868-39.8804 112.507-42.7808 114.691-45.1978 116.875-47.6147 119.605-49.4857 122.882-50.8105 126.158-52.1354 129.998-52.7978 134.403-52.7978 138.7-52.7978 142.423-52.216 145.575-51.0522 148.726-49.8885 151.331-48.1787 153.389-45.9228 155.448-43.667 156.979-40.8919 157.982-37.5977 158.984-34.3034 159.486-30.5257 159.486-26.2646ZM145.575-25.7275C145.575-28.0908 145.387-30.2661 145.011-32.2534 144.635-34.2407 143.999-35.9684 143.104-37.4365 142.209-38.9046 141.018-40.0505 139.532-40.874 138.046-41.6976 136.175-42.1094 133.919-42.1094 131.914-42.1094 130.16-41.7423 128.656-41.0083 127.152-40.2742 125.916-39.2 124.95-37.7856 123.983-36.3713 123.258-34.6704 122.774-32.6831 122.291-30.6958 122.049-28.431 122.049-25.8887 122.049-23.5254 122.246-21.3501 122.64-19.3628 123.034-17.3755 123.669-15.6478 124.547-14.1797 125.424-12.7116 126.615-11.5747 128.118-10.769 129.622-9.96338 131.484-9.56054 133.704-9.56055 135.745-9.56054 137.518-9.92757 139.022-10.6616 140.526-11.3957 141.761-12.4609 142.728-13.8574 143.695-15.2539 144.411-16.9458 144.876-18.9331 145.342-20.9204 145.575-23.1852 145.575-25.7275ZM203.779-15.3613C203.779-12.64 203.269-10.2409 202.249-8.16406 201.228-6.08724 199.787-4.35058 197.925-2.9541 196.063-1.55762 193.861-0.510254 191.318 0.187988 188.776 0.88623 186.019 1.23535 183.047 1.23535 181.257 1.23535 179.547 1.10107 177.917 0.832519 176.288 0.563965 174.829 0.223796 173.54-0.187988 172.251-0.599772 171.177-1.02051 170.317-1.4502 169.458-1.87988 168.831-2.28271 168.438-2.65869 168.044-3.03467 167.739-3.62549 167.524-4.43115 167.31-5.23682 167.202-6.42741 167.202-8.00293 167.202-9.04134 167.238-9.87386 167.31-10.5005 167.381-11.1271 167.489-11.6284 167.632-12.0044 167.775-12.3804 167.954-12.631 168.169-12.7563 168.384-12.8817 168.652-12.9443 168.975-12.9443 169.368-12.9443 169.95-12.7205 170.72-12.2729 171.49-11.8254 172.448-11.333 173.594-10.7959 174.74-10.2588 176.073-9.75749 177.595-9.29199 179.117-8.8265 180.845-8.59375 182.778-8.59375 183.996-8.59375 185.079-8.71907 186.028-8.96973 186.977-9.22038 187.8-9.57845 188.499-10.0439 189.197-10.5094 189.725-11.1003 190.083-11.8164 190.441-12.5326 190.62-13.3561 190.62-14.2871 190.62-15.3613 190.289-16.2834 189.626-17.0532 188.964-17.8231 188.087-18.4945 186.995-19.0674 185.902-19.6403 184.667-20.1774 183.289-20.6787 181.91-21.18 180.496-21.735 179.045-22.3437 177.595-22.9525 176.181-23.6507 174.802-24.4385 173.424-25.2262 172.188-26.193 171.096-27.3389 170.004-28.4847 169.127-29.8633 168.464-31.4746 167.802-33.0859 167.471-35.0195 167.471-37.2754 167.471-39.5671 167.918-41.6707 168.813-43.5864 169.709-45.5021 170.998-47.1403 172.681-48.501 174.364-49.8616 176.414-50.918 178.831-51.6699 181.248-52.4219 183.96-52.7978 186.968-52.7978 188.472-52.7978 189.931-52.6904 191.345-52.4756 192.76-52.2607 194.04-51.9922 195.186-51.6699 196.331-51.3476 197.298-50.9985 198.086-50.6226 198.874-50.2466 199.438-49.9243 199.778-49.6558 200.118-49.3872 200.36-49.1186 200.503-48.8501 200.646-48.5815 200.754-48.2593 200.825-47.8833 200.897-47.5073 200.959-47.0418 201.013-46.4868 201.067-45.9318 201.094-45.2425 201.094-44.4189 201.094-43.4521 201.067-42.6644 201.013-42.0557 200.959-41.4469 200.87-40.9635 200.745-40.6055 200.619-40.2474 200.449-40.0057 200.234-39.8804 200.02-39.755 199.769-39.6924 199.482-39.6924 199.16-39.6924 198.659-39.8804 197.979-40.2563 197.298-40.6323 196.448-41.0351 195.427-41.4648 194.407-41.8945 193.225-42.2974 191.882-42.6733 190.54-43.0493 189.009-43.2373 187.29-43.2373 186.073-43.2373 185.016-43.112 184.121-42.8613 183.226-42.6107 182.492-42.2526 181.919-41.7871 181.346-41.3216 180.916-40.7756 180.63-40.1489 180.343-39.5223 180.2-38.8509 180.2-38.1348 180.2-37.0247 180.54-36.0937 181.221-35.3418 181.901-34.5898 182.796-33.9274 183.906-33.3545 185.016-32.7816 186.278-32.2445 187.693-31.7432 189.107-31.2419 190.54-30.6958 191.99-30.105 193.44-29.5142 194.872-28.8249 196.287-28.0371 197.701-27.2493 198.963-26.2825 200.073-25.1367 201.183-23.9909 202.078-22.6213 202.759-21.0278 203.439-19.4344 203.779-17.5456 203.779-15.3613ZM262.611-26.2646C262.611-22.1826 262.074-18.4587 260.999-15.0928 259.925-11.7269 258.296-8.8265 256.112-6.3916 253.927-3.95671 251.188-2.07682 247.894-0.751953 244.6 0.572917 240.75 1.23535 236.346 1.23535 232.085 1.23535 228.379 0.644531 225.228-0.537109 222.077-1.71875 219.463-3.4375 217.386-5.69336 215.309-7.94922 213.77-10.7243 212.767-14.0186 211.764-17.3128 211.263-21.0726 211.263-25.2978 211.263-29.3799 211.809-33.1128 212.901-36.4966 213.993-39.8804 215.632-42.7808 217.816-45.1978 220-47.6147 222.73-49.4857 226.007-50.8105 229.283-52.1354 233.123-52.7978 237.528-52.7978 241.825-52.7978 245.548-52.216 248.7-51.0522 251.851-49.8885 254.456-48.1787 256.514-45.9228 258.573-43.667 260.104-40.8919 261.107-37.5977 262.109-34.3034 262.611-30.5257 262.611-26.2646ZM248.7-25.7275C248.7-28.0908 248.512-30.2661 248.136-32.2534 247.76-34.2407 247.124-35.9684 246.229-37.4365 245.334-38.9046 244.143-40.0505 242.657-40.874 241.171-41.6976 239.3-42.1094 237.044-42.1094 235.039-42.1094 233.284-41.7423 231.781-41.0083 230.277-40.2742 229.041-39.2 228.075-37.7856 227.108-36.3713 226.383-34.6704 225.899-32.6831 225.416-30.6958 225.174-28.431 225.174-25.8887 225.174-23.5254 225.371-21.3501 225.765-19.3628 226.159-17.3755 226.794-15.6478 227.672-14.1797 228.549-12.7116 229.74-11.5747 231.243-10.769 232.747-9.96338 234.609-9.56054 236.829-9.56055 238.87-9.56054 240.643-9.92757 242.147-10.6616 243.651-11.3957 244.886-12.4609 245.853-13.8574 246.82-15.2539 247.536-16.9458 248.001-18.9331 248.467-20.9204 248.7-23.1852 248.7-25.7275ZM302.07-67.998C302.07-66.9596 302.034-66.1271 301.963-65.5005 301.891-64.8738 301.784-64.3904 301.641-64.0503 301.497-63.7101 301.336-63.4774 301.157-63.352 300.978-63.2267 300.781-63.1641 300.566-63.1641 300.316-63.1641 300.038-63.2267 299.734-63.352 299.43-63.4774 299.054-63.6116 298.606-63.7549 298.158-63.8981 297.63-64.0324 297.021-64.1577 296.413-64.283 295.697-64.3457 294.873-64.3457 293.906-64.3457 293.074-64.1935 292.375-63.8892 291.677-63.5848 291.095-63.1014 290.63-62.439 290.164-61.7765 289.824-60.9171 289.609-59.8608 289.395-58.8045 289.287-57.5065 289.287-55.9668L289.287-51.5625 298.042-51.5625C298.364-51.5625 298.66-51.473 298.928-51.2939 299.197-51.1149 299.421-50.8195 299.6-50.4077 299.779-49.9959 299.913-49.432 300.002-48.7158 300.092-47.9997 300.137-47.1224 300.137-46.084 300.137-44.1146 299.958-42.7091 299.6-41.8677 299.242-41.0262 298.722-40.6055 298.042-40.6055L289.287-40.6055 289.287-1.82617C289.287-1.4681 289.18-1.15479 288.965-0.88623 288.75-0.617676 288.392-0.39388 287.891-0.214844 287.389-0.0358073 286.691 0.09847 285.796 0.187988 284.901 0.277506 283.809 0.322266 282.52 0.322266 281.23 0.322266 280.147 0.277506 279.27 0.187988 278.393 0.09847 277.694-0.0358073 277.175-0.214844 276.656-0.39388 276.298-0.617676 276.101-0.88623 275.904-1.15479 275.806-1.4681 275.806-1.82617L275.806-40.6055 269.79-40.6055C269.11-40.6055 268.599-41.0262 268.259-41.8677 267.919-42.7091 267.749-44.1146 267.749-46.084 267.749-47.1224 267.794-47.9997 267.883-48.7158 267.973-49.432 268.098-49.9959 268.259-50.4077 268.42-50.8195 268.635-51.1149 268.904-51.2939 269.172-51.473 269.486-51.5625 269.844-51.5625L275.806-51.5625 275.806-55.5908C275.806-58.8493 276.128-61.7049 276.772-64.1577 277.417-66.6105 278.429-68.6515 279.807-70.2808 281.186-71.91 282.94-73.1364 285.071-73.96 287.201-74.7835 289.717-75.1953 292.617-75.1953 294.014-75.1953 295.339-75.0789 296.592-74.8462 297.845-74.6134 298.83-74.3628 299.546-74.0942 300.262-73.8257 300.745-73.575 300.996-73.3423 301.247-73.1095 301.453-72.7694 301.614-72.3218 301.775-71.8742 301.891-71.3013 301.963-70.603 302.034-69.9048 302.07-69.0364 302.07-67.998ZM321.657-1.82617C321.657-1.4681 321.549-1.15479 321.335-0.88623 321.12-0.617676 320.753-0.39388 320.234-0.214844 319.714-0.0358073 319.025 0.09847 318.166 0.187988 317.306 0.277506 316.214 0.322266 314.889 0.322266 313.564 0.322266 312.472 0.277506 311.613 0.187988 310.754 0.09847 310.064-0.0358073 309.545-0.214844 309.026-0.39388 308.659-0.617676 308.444-0.88623 308.229-1.15479 308.122-1.4681 308.122-1.82617L308.122-49.7363C308.122-50.0944 308.229-50.4077 308.444-50.6763 308.659-50.9448 309.026-51.1686 309.545-51.3477 310.064-51.5267 310.754-51.661 311.613-51.7505 312.472-51.84 313.564-51.8848 314.889-51.8848 316.214-51.8848 317.306-51.84 318.166-51.7505 319.025-51.661 319.714-51.5267 320.234-51.3477 320.753-51.1686 321.12-50.9448 321.335-50.6763 321.549-50.4077 321.657-50.0944 321.657-49.7363ZM316.501-73.2617C316.751-73.6556 317.056-73.9958 317.414-74.2822 317.772-74.5687 318.219-74.7925 318.757-74.9536 319.294-75.1147 319.974-75.2311 320.798-75.3027 321.621-75.3743 322.624-75.4101 323.805-75.4101 325.452-75.4101 326.75-75.3385 327.699-75.1953 328.648-75.0521 329.329-74.8462 329.74-74.5776 330.152-74.3091 330.34-73.9958 330.304-73.6377 330.269-73.2796 330.09-72.9036 329.767-72.5098L319.347-60.0488C319.061-59.6908 318.774-59.3953 318.488-59.1626 318.201-58.9298 317.834-58.7419 317.387-58.5986 316.939-58.4554 316.375-58.348 315.695-58.2764 315.015-58.2048 314.155-58.1689 313.117-58.1689 311.864-58.1689 310.87-58.2227 310.136-58.3301 309.402-58.4375 308.892-58.6076 308.605-58.8403 308.319-59.0731 308.202-59.3685 308.256-59.7266 308.31-60.0846 308.498-60.4964 308.82-60.9619ZM375.869-1.66504C375.869-1.16374 375.69-0.769857 375.332-0.483398 374.974-0.19694 374.41 0.00895182 373.64 0.134277 372.87 0.259603 371.733 0.322266 370.229 0.322266 368.618 0.322266 367.445 0.259603 366.711 0.134277 365.977 0.00895182 365.458-0.19694 365.154-0.483398 364.849-0.769857 364.697-1.16374 364.697-1.66504L364.697-5.47852C362.728-3.36589 360.481-1.71875 357.957-0.537109 355.432 0.644531 352.63 1.23535 349.551 1.23535 347.008 1.23535 344.672 0.904134 342.542 0.241699 340.411-0.420736 338.567-1.40544 337.009-2.7124 335.452-4.01937 334.243-5.63965 333.384-7.57324 332.524-9.50683 332.095-11.7627 332.095-14.3408 332.095-17.1338 332.641-19.5597 333.733-21.6187 334.825-23.6776 336.454-25.3784 338.621-26.7212 340.787-28.064 343.481-29.0576 346.704-29.7021 349.927-30.3467 353.669-30.6689 357.93-30.6689L362.603-30.6689 362.603-33.5693C362.603-35.0732 362.45-36.3892 362.146-37.5171 361.842-38.645 361.34-39.585 360.642-40.3369 359.944-41.0889 359.013-41.6439 357.849-42.0019 356.685-42.36 355.244-42.5391 353.525-42.5391 351.27-42.5391 349.255-42.2884 347.483-41.7871 345.71-41.2858 344.144-40.7308 342.783-40.1221 341.423-39.5133 340.286-38.9583 339.373-38.457 338.459-37.9557 337.716-37.7051 337.144-37.7051 336.75-37.7051 336.401-37.8304 336.096-38.0811 335.792-38.3317 335.541-38.6898 335.344-39.1553 335.147-39.6208 334.995-40.1937 334.888-40.874 334.78-41.5544 334.727-42.3063 334.727-43.1299 334.727-44.2399 334.816-45.1172 334.995-45.7617 335.174-46.4062 335.514-46.9881 336.016-47.5073 336.517-48.0265 337.394-48.5994 338.647-49.2261 339.901-49.8527 341.369-50.4346 343.052-50.9717 344.735-51.5088 346.57-51.9474 348.557-52.2876 350.544-52.6278 352.594-52.7978 354.707-52.7978 358.467-52.7978 361.68-52.4308 364.348-51.6968 367.016-50.9627 369.209-49.8348 370.928-48.313 372.646-46.7912 373.9-44.8307 374.688-42.4316 375.475-40.0325 375.869-37.1859 375.869-33.8916ZM362.603-22.1826 357.446-22.1826C355.262-22.1826 353.4-22.0215 351.86-21.6992 350.321-21.3769 349.067-20.8936 348.101-20.249 347.134-19.6045 346.427-18.8257 345.979-17.9126 345.531-16.9995 345.308-15.9521 345.308-14.7705 345.308-12.7653 345.943-11.1898 347.214-10.0439 348.486-8.89811 350.249-8.32519 352.505-8.32519 354.403-8.32519 356.148-8.80859 357.742-9.77539 359.335-10.7422 360.955-12.1566 362.603-14.0186Z" fill="#FFFFFF" fill-rule="nonzero" fill-opacity="1" transform="matrix(1 0 0 1 84.8616 155)"/><g clip-path="url(#clip18)" filter="url(#fx2)" transform="translate(99 153)"><g clip-path="url(#clip19)" transform="translate(-1803 -574)"><path d="M41.5078-3.32422C41.5078-2.78516 41.4704-2.30599 41.3955-1.88672 41.3206-1.46745 41.2158-1.11556 41.0811-0.831055 40.9463-0.546549 40.7666-0.336914 40.542-0.202148 40.3174-0.0673828 40.0703 0 39.8008 0L7.68164 0C7.26237 0 6.89551-0.0524089 6.58105-0.157227 6.2666-0.262044 5.99707-0.434245 5.77246-0.673828 5.54785-0.913411 5.38314-1.25781 5.27832-1.70703 5.1735-2.15625 5.12109-2.71029 5.12109-3.36914 5.12109-3.9681 5.14426-4.49219 5.19058-4.94141 5.23691-5.39062 5.33716-5.78743 5.49135-6.13184 5.64553-6.47624 5.83844-6.82064 6.07007-7.16504 6.3017-7.50944 6.60258-7.8763 6.97272-8.26562L18.5913-20.2148C21.2764-22.97 23.429-25.4408 25.0492-27.627 26.6694-29.8131 27.9193-31.8047 28.7988-33.6016 29.6783-35.3984 30.2569-37.0306 30.5346-38.498 30.8123-39.9655 30.9512-41.3431 30.9512-42.6309 30.9512-43.9186 30.7349-45.139 30.3023-46.292 29.8697-47.445 29.2439-48.4557 28.425-49.3242 27.6061-50.1927 26.5787-50.8815 25.3426-51.3906 24.1065-51.8997 22.6851-52.1543 21.0782-52.1543 19.1933-52.1543 17.5015-51.8997 16.0027-51.3906 14.5039-50.8815 13.1905-50.3275 12.0626-49.7285 10.9346-49.1296 9.99219-48.5755 9.2353-48.0664 8.47842-47.5573 7.91444-47.3027 7.54337-47.3027 7.32718-47.3027 7.13404-47.3626 6.96394-47.4824 6.79385-47.6022 6.65475-47.7969 6.54666-48.0664 6.43857-48.3359 6.35364-48.6953 6.29187-49.1445 6.2301-49.5937 6.19922-50.1328 6.19922-50.7617 6.19922-51.2109 6.21419-51.6003 6.24414-51.9297 6.27409-52.2591 6.3265-52.5436 6.40137-52.7832 6.47624-53.0228 6.57357-53.2474 6.69336-53.457 6.81315-53.6667 7.05273-53.9287 7.41211-54.2432 7.77148-54.5576 8.3929-54.9844 9.27637-55.5234 10.1598-56.0625 11.2679-56.5941 12.6006-57.1182 13.9333-57.6422 15.4007-58.084 17.0029-58.4434 18.6051-58.8027 20.2897-58.9824 22.0566-58.9824 24.8717-58.9824 27.335-58.5856 29.4463-57.792 31.5576-56.9984 33.3096-55.9128 34.7021-54.5352 36.0947-53.1575 37.1354-51.5553 37.8242-49.7285 38.513-47.9017 38.8574-45.9551 38.8574-43.8887 38.8574-42.0319 38.6927-40.1826 38.3633-38.3408 38.0339-36.499 37.3376-34.5075 36.2744-32.3662 35.2113-30.2249 33.6764-27.8441 31.6699-25.2236 29.6634-22.6032 26.998-19.5859 23.6738-16.1719L14.4648-6.55859 39.7559-6.55859C39.9954-6.55859 40.2275-6.49121 40.4521-6.35644 40.6768-6.22168 40.8714-6.01953 41.0361-5.75 41.2008-5.48047 41.3206-5.14355 41.3955-4.73926 41.4704-4.33496 41.5078-3.86328 41.5078-3.32422ZM64.2402-35.9375C64.2402-34.9792 64.1728-34.1706 64.0381-33.5117 63.9033-32.8529 63.6488-32.3213 63.2744-31.917 62.9001-31.5127 62.4134-31.2282 61.8144-31.0635 61.2155-30.8988 60.4518-30.8164 59.5234-30.8164 58.5651-30.8164 57.7865-30.8988 57.1875-31.0635 56.5885-31.2282 56.1094-31.5127 55.75-31.917 55.3906-32.3213 55.1435-32.8529 55.0088-33.5117 54.874-34.1706 54.8066-34.9792 54.8066-35.9375 54.8066-36.9557 54.874-37.8018 55.0088-38.4756 55.1435-39.1494 55.3906-39.6885 55.75-40.0928 56.1094-40.4971 56.5885-40.7816 57.1875-40.9463 57.7865-41.111 58.5651-41.1934 59.5234-41.1934 60.4518-41.1934 61.2155-41.111 61.8144-40.9463 62.4134-40.7816 62.9001-40.4971 63.2744-40.0928 63.6488-39.6885 63.9033-39.1494 64.0381-38.4756 64.1728-37.8018 64.2402-36.9557 64.2402-35.9375ZM64.2402-4.76172C64.2402-3.77344 64.1728-2.94987 64.0381-2.29102 63.9033-1.63216 63.6488-1.10059 63.2744-0.696289 62.9001-0.291992 62.4134-0.00748697 61.8144 0.157227 61.2155 0.32194 60.4518 0.404297 59.5234 0.404297 58.5651 0.404297 57.7865 0.32194 57.1875 0.157227 56.5885-0.00748697 56.1094-0.291992 55.75-0.696289 55.3906-1.10059 55.1435-1.63216 55.0088-2.29102 54.874-2.94987 54.8066-3.77344 54.8066-4.76172 54.8066-5.75 54.874-6.58105 55.0088-7.25488 55.1435-7.92871 55.3906-8.46029 55.75-8.84961 56.1094-9.23893 56.5885-9.52344 57.1875-9.70312 57.7865-9.88281 58.5651-9.97266 59.5234-9.97266 60.4518-9.97266 61.2155-9.88281 61.8144-9.70312 62.4134-9.52344 62.9001-9.23893 63.2744-8.84961 63.6488-8.46029 63.9033-7.92871 64.0381-7.25488 64.1728-6.58105 64.2402-5.75 64.2402-4.76172ZM113.897-14.9141C113.897-12.3984 113.448-10.1598 112.549-8.19824 111.651-6.23665 110.356-4.58203 108.664-3.23437 106.972-1.88672 104.883-0.868489 102.397-0.179687 99.9115 0.509115 97.0664 0.853516 93.862 0.853516 90.8672 0.853516 88.1868 0.539062 85.821-0.0898437 83.4551-0.71875 81.4486-1.64714 79.8014-2.875 78.1543-4.10286 76.8965-5.61523 76.028-7.41211 75.1595-9.20898 74.7253-11.2604 74.7253-13.5664 74.7253-15.3932 75.0247-17.0703 75.6237-18.5977 76.2226-20.125 77.0836-21.5326 78.2067-22.8203 79.3297-24.1081 80.7148-25.3135 82.362-26.4365 84.0091-27.5596 85.8659-28.6302 87.9323-29.6484 86.1354-30.5768 84.5482-31.5576 83.1706-32.5908 81.793-33.624 80.625-34.7471 79.6667-35.96 78.7083-37.1728 77.9821-38.4681 77.488-39.8457 76.9938-41.2233 76.7467-42.7207 76.7467-44.3379 76.7467-46.3743 77.1136-48.2835 77.8473-50.0654 78.581-51.8473 79.6891-53.3971 81.1715-54.7148 82.654-56.0325 84.5407-57.0732 86.8317-57.8369 89.1227-58.6006 91.7956-58.9824 94.8503-58.9824 97.7851-58.9824 100.323-58.6305 102.465-57.9268 104.606-57.223 106.373-56.2646 107.765-55.0518 109.158-53.8389 110.184-52.4089 110.842-50.7617 111.501-49.1146 111.831-47.3476 111.831-45.4609 111.831-43.9336 111.584-42.4661 111.09-41.0586 110.595-39.651 109.869-38.3184 108.911-37.0605 107.952-35.8027 106.777-34.6273 105.384-33.5342 103.992-32.4411 102.397-31.4154 100.6-30.457 102.727-29.4089 104.621-28.3307 106.283-27.2227 107.945-26.1146 109.338-24.9242 110.461-23.6514 111.584-22.3786 112.437-21.0309 113.021-19.6084 113.605-18.1859 113.897-16.6211 113.897-14.9141ZM104.194-44.7422C104.194-46 103.977-47.138 103.543-48.1562 103.108-49.1745 102.472-50.043 101.633-50.7617 100.795-51.4805 99.7542-52.027 98.5114-52.4014 97.2686-52.7757 95.8535-52.9629 94.2663-52.9629 91.0319-52.9629 88.5836-52.2292 86.9215-50.7617 85.2594-49.2943 84.4284-47.2878 84.4284-44.7422 84.4284-43.5742 84.6305-42.4886 85.0348-41.4853 85.4391-40.4821 86.068-39.5312 86.9215-38.6328 87.7751-37.7344 88.8532-36.8584 90.1559-36.0049 91.4586-35.1514 93.0085-34.2604 94.8053-33.332 97.8301-34.8893 100.151-36.6113 101.768-38.498 103.385-40.3848 104.194-42.4661 104.194-44.7422ZM106.081-14.1055C106.081-15.4831 105.826-16.7334 105.317-17.8564 104.808-18.9795 104.037-20.0277 103.004-21.001 101.97-21.9743 100.683-22.9176 99.1403-23.8311 97.598-24.7445 95.8086-25.6953 93.7721-26.6836 91.8854-25.7552 90.2308-24.8268 88.8083-23.8984 87.3857-22.9701 86.2178-22.0117 85.3044-21.0234 84.3909-20.0352 83.7021-18.9945 83.238-17.9014 82.7738-16.8083 82.5417-15.6029 82.5417-14.2852 82.5417-11.3802 83.5374-9.13411 85.529-7.54687 87.5205-5.95963 90.4928-5.16601 94.446-5.16602 98.2793-5.16601 101.177-5.96712 103.138-7.56934 105.1-9.17155 106.081-11.3503 106.081-14.1055Z" fill="#FFFFFF" fill-rule="nonzero" fill-opacity="1" transform="matrix(1 0 0 1 62.0145 121)"/></g></g><path d="M41.5078-3.32422C41.5078-2.78516 41.4704-2.30599 41.3955-1.88672 41.3206-1.46745 41.2158-1.11556 41.0811-0.831055 40.9463-0.546549 40.7666-0.336914 40.542-0.202148 40.3174-0.0673828 40.0703 0 39.8008 0L7.68164 0C7.26237 0 6.89551-0.0524089 6.58105-0.157227 6.2666-0.262044 5.99707-0.434245 5.77246-0.673828 5.54785-0.913411 5.38314-1.25781 5.27832-1.70703 5.1735-2.15625 5.12109-2.71029 5.12109-3.36914 5.12109-3.9681 5.14426-4.49219 5.19058-4.94141 5.23691-5.39062 5.33716-5.78743 5.49135-6.13184 5.64553-6.47624 5.83844-6.82064 6.07007-7.16504 6.3017-7.50944 6.60258-7.8763 6.97272-8.26562L18.5913-20.2148C21.2764-22.97 23.429-25.4408 25.0492-27.627 26.6694-29.8131 27.9193-31.8047 28.7988-33.6016 29.6783-35.3984 30.2569-37.0306 30.5346-38.498 30.8123-39.9655 30.9512-41.3431 30.9512-42.6309 30.9512-43.9186 30.7349-45.139 30.3023-46.292 29.8697-47.445 29.2439-48.4557 28.425-49.3242 27.6061-50.1927 26.5787-50.8815 25.3426-51.3906 24.1065-51.8997 22.6851-52.1543 21.0782-52.1543 19.1933-52.1543 17.5015-51.8997 16.0027-51.3906 14.5039-50.8815 13.1905-50.3275 12.0626-49.7285 10.9346-49.1296 9.99219-48.5755 9.2353-48.0664 8.47842-47.5573 7.91444-47.3027 7.54337-47.3027 7.32718-47.3027 7.13404-47.3626 6.96394-47.4824 6.79385-47.6022 6.65475-47.7969 6.54666-48.0664 6.43857-48.3359 6.35364-48.6953 6.29187-49.1445 6.2301-49.5937 6.19922-50.1328 6.19922-50.7617 6.19922-51.2109 6.21419-51.6003 6.24414-51.9297 6.27409-52.2591 6.3265-52.5436 6.40137-52.7832 6.47624-53.0228 6.57357-53.2474 6.69336-53.457 6.81315-53.6667 7.05273-53.9287 7.41211-54.2432 7.77148-54.5576 8.3929-54.9844 9.27637-55.5234 10.1598-56.0625 11.2679-56.5941 12.6006-57.1182 13.9333-57.6422 15.4007-58.084 17.0029-58.4434 18.6051-58.8027 20.2897-58.9824 22.0566-58.9824 24.8717-58.9824 27.335-58.5856 29.4463-57.792 31.5576-56.9984 33.3096-55.9128 34.7021-54.5352 36.0947-53.1575 37.1354-51.5553 37.8242-49.7285 38.513-47.9017 38.8574-45.9551 38.8574-43.8887 38.8574-42.0319 38.6927-40.1826 38.3633-38.3408 38.0339-36.499 37.3376-34.5075 36.2744-32.3662 35.2113-30.2249 33.6764-27.8441 31.6699-25.2236 29.6634-22.6032 26.998-19.5859 23.6738-16.1719L14.4648-6.55859 39.7559-6.55859C39.9954-6.55859 40.2275-6.49121 40.4521-6.35644 40.6768-6.22168 40.8714-6.01953 41.0361-5.75 41.2008-5.48047 41.3206-5.14355 41.3955-4.73926 41.4704-4.33496 41.5078-3.86328 41.5078-3.32422ZM64.2402-35.9375C64.2402-34.9792 64.1728-34.1706 64.0381-33.5117 63.9033-32.8529 63.6488-32.3213 63.2744-31.917 62.9001-31.5127 62.4134-31.2282 61.8144-31.0635 61.2155-30.8988 60.4518-30.8164 59.5234-30.8164 58.5651-30.8164 57.7865-30.8988 57.1875-31.0635 56.5885-31.2282 56.1094-31.5127 55.75-31.917 55.3906-32.3213 55.1435-32.8529 55.0088-33.5117 54.874-34.1706 54.8066-34.9792 54.8066-35.9375 54.8066-36.9557 54.874-37.8018 55.0088-38.4756 55.1435-39.1494 55.3906-39.6885 55.75-40.0928 56.1094-40.4971 56.5885-40.7816 57.1875-40.9463 57.7865-41.111 58.5651-41.1934 59.5234-41.1934 60.4518-41.1934 61.2155-41.111 61.8144-40.9463 62.4134-40.7816 62.9001-40.4971 63.2744-40.0928 63.6488-39.6885 63.9033-39.1494 64.0381-38.4756 64.1728-37.8018 64.2402-36.9557 64.2402-35.9375ZM64.2402-4.76172C64.2402-3.77344 64.1728-2.94987 64.0381-2.29102 63.9033-1.63216 63.6488-1.10059 63.2744-0.696289 62.9001-0.291992 62.4134-0.00748697 61.8144 0.157227 61.2155 0.32194 60.4518 0.404297 59.5234 0.404297 58.5651 0.404297 57.7865 0.32194 57.1875 0.157227 56.5885-0.00748697 56.1094-0.291992 55.75-0.696289 55.3906-1.10059 55.1435-1.63216 55.0088-2.29102 54.874-2.94987 54.8066-3.77344 54.8066-4.76172 54.8066-5.75 54.874-6.58105 55.0088-7.25488 55.1435-7.92871 55.3906-8.46029 55.75-8.84961 56.1094-9.23893 56.5885-9.52344 57.1875-9.70312 57.7865-9.88281 58.5651-9.97266 59.5234-9.97266 60.4518-9.97266 61.2155-9.88281 61.8144-9.70312 62.4134-9.52344 62.9001-9.23893 63.2744-8.84961 63.6488-8.46029 63.9033-7.92871 64.0381-7.25488 64.1728-6.58105 64.2402-5.75 64.2402-4.76172ZM113.897-14.9141C113.897-12.3984 113.448-10.1598 112.549-8.19824 111.651-6.23665 110.356-4.58203 108.664-3.23437 106.972-1.88672 104.883-0.868489 102.397-0.179687 99.9115 0.509115 97.0664 0.853516 93.862 0.853516 90.8672 0.853516 88.1868 0.539062 85.821-0.0898437 83.4551-0.71875 81.4486-1.64714 79.8014-2.875 78.1543-4.10286 76.8965-5.61523 76.028-7.41211 75.1595-9.20898 74.7253-11.2604 74.7253-13.5664 74.7253-15.3932 75.0247-17.0703 75.6237-18.5977 76.2226-20.125 77.0836-21.5326 78.2067-22.8203 79.3297-24.1081 80.7148-25.3135 82.362-26.4365 84.0091-27.5596 85.8659-28.6302 87.9323-29.6484 86.1354-30.5768 84.5482-31.5576 83.1706-32.5908 81.793-33.624 80.625-34.7471 79.6667-35.96 78.7083-37.1728 77.9821-38.4681 77.488-39.8457 76.9938-41.2233 76.7467-42.7207 76.7467-44.3379 76.7467-46.3743 77.1136-48.2835 77.8473-50.0654 78.581-51.8473 79.6891-53.3971 81.1715-54.7148 82.654-56.0325 84.5407-57.0732 86.8317-57.8369 89.1227-58.6006 91.7956-58.9824 94.8503-58.9824 97.7851-58.9824 100.323-58.6305 102.465-57.9268 104.606-57.223 106.373-56.2646 107.765-55.0518 109.158-53.8389 110.184-52.4089 110.842-50.7617 111.501-49.1146 111.831-47.3476 111.831-45.4609 111.831-43.9336 111.584-42.4661 111.09-41.0586 110.595-39.651 109.869-38.3184 108.911-37.0605 107.952-35.8027 106.777-34.6273 105.384-33.5342 103.992-32.4411 102.397-31.4154 100.6-30.457 102.727-29.4089 104.621-28.3307 106.283-27.2227 107.945-26.1146 109.338-24.9242 110.461-23.6514 111.584-22.3786 112.437-21.0309 113.021-19.6084 113.605-18.1859 113.897-16.6211 113.897-14.9141ZM104.194-44.7422C104.194-46 103.977-47.138 103.543-48.1562 103.108-49.1745 102.472-50.043 101.633-50.7617 100.795-51.4805 99.7542-52.027 98.5114-52.4014 97.2686-52.7757 95.8535-52.9629 94.2663-52.9629 91.0319-52.9629 88.5836-52.2292 86.9215-50.7617 85.2594-49.2943 84.4284-47.2878 84.4284-44.7422 84.4284-43.5742 84.6305-42.4886 85.0348-41.4853 85.4391-40.4821 86.068-39.5312 86.9215-38.6328 87.7751-37.7344 88.8532-36.8584 90.1559-36.0049 91.4586-35.1514 93.0085-34.2604 94.8053-33.332 97.8301-34.8893 100.151-36.6113 101.768-38.498 103.385-40.3848 104.194-42.4661 104.194-44.7422ZM106.081-14.1055C106.081-15.4831 105.826-16.7334 105.317-17.8564 104.808-18.9795 104.037-20.0277 103.004-21.001 101.97-21.9743 100.683-22.9176 99.1403-23.8311 97.598-24.7445 95.8086-25.6953 93.7721-26.6836 91.8854-25.7552 90.2308-24.8268 88.8083-23.8984 87.3857-22.9701 86.2178-22.0117 85.3044-21.0234 84.3909-20.0352 83.7021-18.9945 83.238-17.9014 82.7738-16.8083 82.5417-15.6029 82.5417-14.2852 82.5417-11.3802 83.5374-9.13411 85.529-7.54687 87.5205-5.95963 90.4928-5.16601 94.446-5.16602 98.2793-5.16601 101.177-5.96712 103.138-7.56934 105.1-9.17155 106.081-11.3503 106.081-14.1055Z" fill="#FFFFFF" fill-rule="nonzero" fill-opacity="1" transform="matrix(1 0 0 1 157.049 270)"/><g clip-path="url(#clip20)" filter="url(#fx3)" transform="translate(216 153)"><g clip-path="url(#clip21)" transform="translate(-1803 -574)"><path d="M25.0664-22.6855C25.0664-21.5176 24.9316-20.709 24.6621-20.2598 24.3926-19.8105 24.0033-19.5859 23.4941-19.5859L4.7168-19.5859C4.17773-19.5859 3.77344-19.818 3.50391-20.2822 3.23437-20.7464 3.09961-21.5475 3.09961-22.6855 3.09961-23.8236 3.23437-24.6172 3.50391-25.0664 3.77344-25.5156 4.17773-25.7402 4.7168-25.7402L23.4941-25.7402C23.7337-25.7402 23.9508-25.6953 24.1455-25.6055 24.3402-25.5156 24.5049-25.3434 24.6396-25.0889 24.7744-24.8343 24.8792-24.5124 24.9541-24.123 25.029-23.7337 25.0664-23.2546 25.0664-22.6855Z" fill="#FFFFFF" fill-rule="nonzero" fill-opacity="1" transform="matrix(1 0 0 1 62.4624 121)"/></g></g><path d="M25.0664-22.6855C25.0664-21.5176 24.9316-20.709 24.6621-20.2598 24.3926-19.8105 24.0033-19.5859 23.4941-19.5859L4.7168-19.5859C4.17773-19.5859 3.77344-19.818 3.50391-20.2822 3.23437-20.7464 3.09961-21.5475 3.09961-22.6855 3.09961-23.8236 3.23437-24.6172 3.50391-25.0664 3.77344-25.5156 4.17773-25.7402 4.7168-25.7402L23.4941-25.7402C23.7337-25.7402 23.9508-25.6953 24.1455-25.6055 24.3402-25.5156 24.5049-25.3434 24.6396-25.0889 24.7744-24.8343 24.8792-24.5124 24.9541-24.123 25.029-23.7337 25.0664-23.2546 25.0664-22.6855Z" fill="#FFFFFF" fill-rule="nonzero" fill-opacity="1" transform="matrix(1 0 0 1 274.497 270)"/><g clip-path="url(#clip22)" filter="url(#fx4)" transform="translate(245 153)"><g clip-path="url(#clip23)" transform="translate(-1803 -574)"><path d="M41.6426-3.05469C41.6426-2.48568 41.5977-2.00651 41.5078-1.61719 41.418-1.22786 41.2982-0.913411 41.1484-0.673828 40.9987-0.434245 40.8265-0.262044 40.6318-0.157227 40.4372-0.0524089 40.235 0 40.0254 0L9.6582 0C9.44857 0 9.2539-0.0524089 9.07422-0.157227 8.89453-0.262044 8.72233-0.434245 8.55762-0.673828 8.3929-0.913411 8.26562-1.22786 8.17578-1.61719 8.08594-2.00651 8.04101-2.48568 8.04101-3.05469 8.04101-3.59375 8.08594-4.05794 8.17578-4.44727 8.26562-4.83659 8.37793-5.15853 8.51269-5.41309 8.64746-5.66764 8.81217-5.8623 9.00683-5.99707 9.2015-6.13184 9.41862-6.19922 9.6582-6.19922L21.7871-6.19922 21.7871-50.4023 10.5566-43.709C9.98763-43.4095 9.53092-43.2298 9.18652-43.1699 8.84212-43.11 8.5651-43.1774 8.35547-43.3721 8.14583-43.5667 8.00358-43.8887 7.92871-44.3379 7.85384-44.7871 7.81641-45.3561 7.81641-46.0449 7.81641-46.554 7.83887-46.9883 7.88379-47.3477 7.92871-47.707 7.99609-48.0065 8.08594-48.2461 8.17578-48.4857 8.30306-48.6953 8.46777-48.875 8.63249-49.0547 8.84961-49.2344 9.11914-49.4141L22.5059-57.9941C22.6256-58.084 22.7754-58.1588 22.9551-58.2187 23.1348-58.2786 23.3594-58.3385 23.6289-58.3984 23.8984-58.4583 24.2129-58.4958 24.5723-58.5107 24.9316-58.5257 25.3809-58.5332 25.9199-58.5332 26.6387-58.5332 27.2376-58.5033 27.7168-58.4434 28.196-58.3835 28.5703-58.3011 28.8398-58.1963 29.1094-58.0915 29.2891-57.9567 29.3789-57.792 29.4687-57.6273 29.5137-57.4551 29.5137-57.2754L29.5137-6.19922 40.0254-6.19922C40.265-6.19922 40.4896-6.13184 40.6992-5.99707 40.9088-5.8623 41.081-5.66764 41.2158-5.41309 41.3506-5.15853 41.4554-4.83659 41.5303-4.44727 41.6051-4.05794 41.6426-3.59375 41.6426-3.05469ZM89.8457-29.1992C89.8457-24.737 89.4938-20.6641 88.79-16.9805 88.0863-13.2969 86.9183-10.1299 85.2861-7.47949 83.654-4.8291 81.5202-2.77767 78.8848-1.3252 76.2493 0.127279 73 0.853516 69.1367 0.853516 65.4831 0.853516 62.4059 0.202148 59.9053-1.10059 57.4046-2.40332 55.3906-4.31999 53.8633-6.85059 52.3359-9.38118 51.2503-12.4958 50.6064-16.1943 49.9626-19.8929 49.6406-24.138 49.6406-28.9297 49.6406-33.362 50-37.4274 50.7187-41.126 51.4375-44.8245 52.6055-47.999 54.2227-50.6494 55.8398-53.2998 57.9661-55.3512 60.6016-56.8037 63.237-58.2562 66.4713-58.9824 70.3047-58.9824 73.9883-58.9824 77.0804-58.331 79.581-57.0283 82.0817-55.7256 84.0957-53.8089 85.623-51.2783 87.1504-48.7477 88.236-45.6331 88.8799-41.9346 89.5238-38.236 89.8457-33.9909 89.8457-29.1992ZM81.9394-28.6602C81.9394-31.5651 81.8346-34.1706 81.625-36.4766 81.4154-38.7825 81.1084-40.819 80.7041-42.5859 80.2998-44.3529 79.7757-45.8727 79.1318-47.1455 78.4879-48.4183 77.7168-49.4665 76.8184-50.29 75.9199-51.1136 74.8942-51.7126 73.7412-52.0869 72.5882-52.4613 71.293-52.6484 69.8555-52.6484 67.3099-52.6484 65.2435-52.0495 63.6562-50.8516 62.069-49.6536 60.8187-48.0065 59.9053-45.9102 58.9919-43.8138 58.3704-41.3581 58.041-38.543 57.7116-35.7279 57.5469-32.7031 57.5469-29.4687 57.5469-25.1263 57.7715-21.4352 58.2207-18.3955 58.6699-15.3558 59.3812-12.8776 60.3545-10.9609 61.3278-9.04427 62.5706-7.65169 64.083-6.7832 65.5954-5.91471 67.4297-5.48047 69.5859-5.48047 71.263-5.48047 72.7379-5.75 74.0107-6.28906 75.2835-6.82812 76.3766-7.59928 77.29-8.60254 78.2034-9.60579 78.9596-10.8112 79.5586-12.2187 80.1575-13.6263 80.6367-15.1836 80.9961-16.8906 81.3555-18.5977 81.6025-20.4469 81.7373-22.4385 81.8721-24.43 81.9394-26.5039 81.9394-28.6602Z" fill="#FFFFFF" fill-rule="nonzero" fill-opacity="1" transform="matrix(1 0 0 1 61.5353 121)"/></g></g><path d="M41.6426-3.05469C41.6426-2.48568 41.5977-2.00651 41.5078-1.61719 41.418-1.22786 41.2982-0.913411 41.1484-0.673828 40.9987-0.434245 40.8265-0.262044 40.6318-0.157227 40.4372-0.0524089 40.235 0 40.0254 0L9.6582 0C9.44857 0 9.2539-0.0524089 9.07422-0.157227 8.89453-0.262044 8.72233-0.434245 8.55762-0.673828 8.3929-0.913411 8.26562-1.22786 8.17578-1.61719 8.08594-2.00651 8.04101-2.48568 8.04101-3.05469 8.04101-3.59375 8.08594-4.05794 8.17578-4.44727 8.26562-4.83659 8.37793-5.15853 8.51269-5.41309 8.64746-5.66764 8.81217-5.8623 9.00683-5.99707 9.2015-6.13184 9.41862-6.19922 9.6582-6.19922L21.7871-6.19922 21.7871-50.4023 10.5566-43.709C9.98763-43.4095 9.53092-43.2298 9.18652-43.1699 8.84212-43.11 8.5651-43.1774 8.35547-43.3721 8.14583-43.5667 8.00358-43.8887 7.92871-44.3379 7.85384-44.7871 7.81641-45.3561 7.81641-46.0449 7.81641-46.554 7.83887-46.9883 7.88379-47.3477 7.92871-47.707 7.99609-48.0065 8.08594-48.2461 8.17578-48.4857 8.30306-48.6953 8.46777-48.875 8.63249-49.0547 8.84961-49.2344 9.11914-49.4141L22.5059-57.9941C22.6256-58.084 22.7754-58.1588 22.9551-58.2187 23.1348-58.2786 23.3594-58.3385 23.6289-58.3984 23.8984-58.4583 24.2129-58.4958 24.5723-58.5107 24.9316-58.5257 25.3809-58.5332 25.9199-58.5332 26.6387-58.5332 27.2376-58.5033 27.7168-58.4434 28.196-58.3835 28.5703-58.3011 28.8398-58.1963 29.1094-58.0915 29.2891-57.9567 29.3789-57.792 29.4687-57.6273 29.5137-57.4551 29.5137-57.2754L29.5137-6.19922 40.0254-6.19922C40.265-6.19922 40.4896-6.13184 40.6992-5.99707 40.9088-5.8623 41.081-5.66764 41.2158-5.41309 41.3506-5.15853 41.4554-4.83659 41.5303-4.44727 41.6051-4.05794 41.6426-3.59375 41.6426-3.05469ZM89.8457-29.1992C89.8457-24.737 89.4938-20.6641 88.79-16.9805 88.0863-13.2969 86.9183-10.1299 85.2861-7.47949 83.654-4.8291 81.5202-2.77767 78.8848-1.3252 76.2493 0.127279 73 0.853516 69.1367 0.853516 65.4831 0.853516 62.4059 0.202148 59.9053-1.10059 57.4046-2.40332 55.3906-4.31999 53.8633-6.85059 52.3359-9.38118 51.2503-12.4958 50.6064-16.1943 49.9626-19.8929 49.6406-24.138 49.6406-28.9297 49.6406-33.362 50-37.4274 50.7187-41.126 51.4375-44.8245 52.6055-47.999 54.2227-50.6494 55.8398-53.2998 57.9661-55.3512 60.6016-56.8037 63.237-58.2562 66.4713-58.9824 70.3047-58.9824 73.9883-58.9824 77.0804-58.331 79.581-57.0283 82.0817-55.7256 84.0957-53.8089 85.623-51.2783 87.1504-48.7477 88.236-45.6331 88.8799-41.9346 89.5238-38.236 89.8457-33.9909 89.8457-29.1992ZM81.9394-28.6602C81.9394-31.5651 81.8346-34.1706 81.625-36.4766 81.4154-38.7825 81.1084-40.819 80.7041-42.5859 80.2998-44.3529 79.7757-45.8727 79.1318-47.1455 78.4879-48.4183 77.7168-49.4665 76.8184-50.29 75.9199-51.1136 74.8942-51.7126 73.7412-52.0869 72.5882-52.4613 71.293-52.6484 69.8555-52.6484 67.3099-52.6484 65.2435-52.0495 63.6562-50.8516 62.069-49.6536 60.8187-48.0065 59.9053-45.9102 58.9919-43.8138 58.3704-41.3581 58.041-38.543 57.7116-35.7279 57.5469-32.7031 57.5469-29.4687 57.5469-25.1263 57.7715-21.4352 58.2207-18.3955 58.6699-15.3558 59.3812-12.8776 60.3545-10.9609 61.3278-9.04427 62.5706-7.65169 64.083-6.7832 65.5954-5.91471 67.4297-5.48047 69.5859-5.48047 71.263-5.48047 72.7379-5.75 74.0107-6.28906 75.2835-6.82812 76.3766-7.59928 77.29-8.60254 78.2034-9.60579 78.9596-10.8112 79.5586-12.2187 80.1575-13.6263 80.6367-15.1836 80.9961-16.8906 81.3555-18.5977 81.6025-20.4469 81.7373-22.4385 81.8721-24.43 81.9394-26.5039 81.9394-28.6602Z" fill="#FFFFFF" fill-rule="nonzero" fill-opacity="1" transform="matrix(1 0 0 1 302.57 270)"/></g></g></g><rect x="1691.5" y="619.5" width="777" height="239" stroke="#000000" stroke-width="3.4375" stroke-linecap="butt" stroke-linejoin="round" stroke-miterlimit="10" stroke-opacity="1" fill="#404040" fill-opacity="1"/><g clip-path="url(#clip24)" filter="url(#fx6)" transform="translate(1818 581)"><g clip-path="url(#clip25)"><path d="M46.5674-63.7012C46.5674-62.6269 46.5226-61.7228 46.4331-60.9888 46.3436-60.2547 46.2004-59.6728 46.0034-59.2432 45.8065-58.8135 45.5827-58.4912 45.332-58.2764 45.0814-58.0615 44.7949-57.9541 44.4727-57.9541L21.7529-57.9541 21.7529-39.2627 43.0762-39.2627C43.3984-39.2627 43.6849-39.1732 43.9355-38.9941 44.1862-38.8151 44.41-38.5107 44.6069-38.0811 44.8039-37.6514 44.9471-37.0784 45.0366-36.3623 45.1261-35.6462 45.1709-34.751 45.1709-33.6768 45.1709-32.6025 45.1261-31.7074 45.0366-30.9912 44.9471-30.2751 44.8039-29.6842 44.6069-29.2187 44.41-28.7533 44.1862-28.422 43.9355-28.2251 43.6849-28.0282 43.3984-27.9297 43.0762-27.9297L21.7529-27.9297 21.7529-2.04102C21.7529-1.64714 21.6455-1.30697 21.4307-1.02051 21.2158-0.734049 20.8309-0.49235 20.2759-0.29541 19.7209-0.09847 18.9958 0.0537109 18.1006 0.161133 17.2054 0.268555 16.0596 0.322266 14.6631 0.322266 13.3024 0.322266 12.1655 0.268555 11.2524 0.161133 10.3394 0.0537109 9.61426-0.09847 9.07715-0.29541 8.54004-0.49235 8.15511-0.734049 7.92236-1.02051 7.68962-1.30697 7.57324-1.64714 7.57324-2.04102L7.57324-65.0439C7.57324-66.6195 7.97607-67.7563 8.78174-68.4546 9.5874-69.1528 10.5811-69.5019 11.7627-69.5019L44.4727-69.5019C44.7949-69.5019 45.0814-69.4035 45.332-69.2065 45.5827-69.0096 45.8065-68.6873 46.0034-68.2397 46.2004-67.7921 46.3436-67.1924 46.4331-66.4404 46.5226-65.6885 46.5674-64.7754 46.5674-63.7012ZM70.7194-1.82617C70.7194-1.4681 70.612-1.15479 70.3971-0.88623 70.1823-0.617676 69.8153-0.39388 69.2961-0.214844 68.7769-0.0358073 68.0876 0.09847 67.2282 0.187988 66.3688 0.277506 65.2767 0.322266 63.9518 0.322266 62.6269 0.322266 61.5348 0.277506 60.6755 0.187988 59.8161 0.09847 59.1268-0.0358073 58.6076-0.214844 58.0884-0.39388 57.7214-0.617676 57.5065-0.88623 57.2917-1.15479 57.1842-1.4681 57.1842-1.82617L57.1842-49.6289C57.1842-49.987 57.2917-50.3003 57.5065-50.5688 57.7214-50.8374 58.0884-51.0701 58.6076-51.2671 59.1268-51.464 59.8161-51.6162 60.6755-51.7236 61.5348-51.8311 62.6269-51.8848 63.9518-51.8848 65.2767-51.8848 66.3688-51.8311 67.2282-51.7236 68.0876-51.6162 68.7769-51.464 69.2961-51.2671 69.8153-51.0701 70.1823-50.8374 70.3971-50.5688 70.612-50.3003 70.7194-49.987 70.7194-49.6289ZM71.7399-65.957C71.7399-63.2357 71.1849-61.3558 70.0749-60.3174 68.9648-59.279 66.9059-58.7598 63.8981-58.7598 60.8545-58.7598 58.8045-59.2611 57.7482-60.2637 56.6919-61.2663 56.1637-63.0745 56.1637-65.6885 56.1637-68.4098 56.7098-70.2987 57.8019-71.355 58.894-72.4113 60.9619-72.9394 64.0055-72.9394 67.0133-72.9394 69.0544-72.4292 70.1286-71.4087 71.2028-70.3882 71.7399-68.571 71.7399-65.957ZM97.6465-1.82617C97.6465-1.4681 97.5391-1.15479 97.3242-0.88623 97.1094-0.617676 96.7423-0.39388 96.2231-0.214844 95.7039-0.0358073 95.0146 0.09847 94.1553 0.187988 93.2959 0.277506 92.2038 0.322266 90.8789 0.322266 89.554 0.322266 88.4619 0.277506 87.6025 0.187988 86.7432 0.09847 86.0539-0.0358073 85.5347-0.214844 85.0155-0.39388 84.6484-0.617676 84.4336-0.88623 84.2188-1.15479 84.1113-1.4681 84.1113-1.82617L84.1113-72.456C84.1113-72.8141 84.2188-73.1364 84.4336-73.4228 84.6484-73.7093 85.0155-73.951 85.5347-74.1479 86.0539-74.3449 86.7432-74.4971 87.6025-74.6045 88.4619-74.7119 89.554-74.7656 90.8789-74.7656 92.2038-74.7656 93.2959-74.7119 94.1553-74.6045 95.0146-74.4971 95.7039-74.3449 96.2231-74.1479 96.7423-73.951 97.1094-73.7093 97.3242-73.4228 97.5391-73.1364 97.6465-72.8141 97.6465-72.456ZM159.486-26.2646C159.486-22.1826 158.949-18.4587 157.874-15.0928 156.8-11.7269 155.171-8.8265 152.987-6.3916 150.802-3.95671 148.063-2.07682 144.769-0.751953 141.475 0.572917 137.625 1.23535 133.221 1.23535 128.96 1.23535 125.254 0.644531 122.103-0.537109 118.952-1.71875 116.338-3.4375 114.261-5.69336 112.184-7.94922 110.645-10.7243 109.642-14.0186 108.639-17.3128 108.138-21.0726 108.138-25.2978 108.138-29.3799 108.684-33.1128 109.776-36.4966 110.868-39.8804 112.507-42.7808 114.691-45.1978 116.875-47.6147 119.605-49.4857 122.882-50.8105 126.158-52.1354 129.998-52.7978 134.403-52.7978 138.7-52.7978 142.423-52.216 145.575-51.0522 148.726-49.8885 151.331-48.1787 153.389-45.9228 155.448-43.667 156.979-40.8919 157.982-37.5977 158.984-34.3034 159.486-30.5257 159.486-26.2646ZM145.575-25.7275C145.575-28.0908 145.387-30.2661 145.011-32.2534 144.635-34.2407 143.999-35.9684 143.104-37.4365 142.209-38.9046 141.018-40.0505 139.532-40.874 138.046-41.6976 136.175-42.1094 133.919-42.1094 131.914-42.1094 130.16-41.7423 128.656-41.0083 127.152-40.2742 125.916-39.2 124.95-37.7856 123.983-36.3713 123.258-34.6704 122.774-32.6831 122.291-30.6958 122.049-28.431 122.049-25.8887 122.049-23.5254 122.246-21.3501 122.64-19.3628 123.034-17.3755 123.669-15.6478 124.547-14.1797 125.424-12.7116 126.615-11.5747 128.118-10.769 129.622-9.96338 131.484-9.56054 133.704-9.56055 135.745-9.56054 137.518-9.92757 139.022-10.6616 140.526-11.3957 141.761-12.4609 142.728-13.8574 143.695-15.2539 144.411-16.9458 144.876-18.9331 145.342-20.9204 145.575-23.1852 145.575-25.7275ZM203.779-15.3613C203.779-12.64 203.269-10.2409 202.249-8.16406 201.228-6.08724 199.787-4.35058 197.925-2.9541 196.063-1.55762 193.861-0.510254 191.318 0.187988 188.776 0.88623 186.019 1.23535 183.047 1.23535 181.257 1.23535 179.547 1.10107 177.917 0.832519 176.288 0.563965 174.829 0.223796 173.54-0.187988 172.251-0.599772 171.177-1.02051 170.317-1.4502 169.458-1.87988 168.831-2.28271 168.438-2.65869 168.044-3.03467 167.739-3.62549 167.524-4.43115 167.31-5.23682 167.202-6.42741 167.202-8.00293 167.202-9.04134 167.238-9.87386 167.31-10.5005 167.381-11.1271 167.489-11.6284 167.632-12.0044 167.775-12.3804 167.954-12.631 168.169-12.7563 168.384-12.8817 168.652-12.9443 168.975-12.9443 169.368-12.9443 169.95-12.7205 170.72-12.2729 171.49-11.8254 172.448-11.333 173.594-10.7959 174.74-10.2588 176.073-9.75749 177.595-9.29199 179.117-8.8265 180.845-8.59375 182.778-8.59375 183.996-8.59375 185.079-8.71907 186.028-8.96973 186.977-9.22038 187.8-9.57845 188.499-10.0439 189.197-10.5094 189.725-11.1003 190.083-11.8164 190.441-12.5326 190.62-13.3561 190.62-14.2871 190.62-15.3613 190.289-16.2834 189.626-17.0532 188.964-17.8231 188.087-18.4945 186.995-19.0674 185.902-19.6403 184.667-20.1774 183.289-20.6787 181.91-21.18 180.496-21.735 179.045-22.3437 177.595-22.9525 176.181-23.6507 174.802-24.4385 173.424-25.2262 172.188-26.193 171.096-27.3389 170.004-28.4847 169.127-29.8633 168.464-31.4746 167.802-33.0859 167.471-35.0195 167.471-37.2754 167.471-39.5671 167.918-41.6707 168.813-43.5864 169.709-45.5021 170.998-47.1403 172.681-48.501 174.364-49.8616 176.414-50.918 178.831-51.6699 181.248-52.4219 183.96-52.7978 186.968-52.7978 188.472-52.7978 189.931-52.6904 191.345-52.4756 192.76-52.2607 194.04-51.9922 195.186-51.6699 196.331-51.3476 197.298-50.9985 198.086-50.6226 198.874-50.2466 199.438-49.9243 199.778-49.6558 200.118-49.3872 200.36-49.1186 200.503-48.8501 200.646-48.5815 200.754-48.2593 200.825-47.8833 200.897-47.5073 200.959-47.0418 201.013-46.4868 201.067-45.9318 201.094-45.2425 201.094-44.4189 201.094-43.4521 201.067-42.6644 201.013-42.0557 200.959-41.4469 200.87-40.9635 200.745-40.6055 200.619-40.2474 200.449-40.0057 200.234-39.8804 200.02-39.755 199.769-39.6924 199.482-39.6924 199.16-39.6924 198.659-39.8804 197.979-40.2563 197.298-40.6323 196.448-41.0351 195.427-41.4648 194.407-41.8945 193.225-42.2974 191.882-42.6733 190.54-43.0493 189.009-43.2373 187.29-43.2373 186.073-43.2373 185.016-43.112 184.121-42.8613 183.226-42.6107 182.492-42.2526 181.919-41.7871 181.346-41.3216 180.916-40.7756 180.63-40.1489 180.343-39.5223 180.2-38.8509 180.2-38.1348 180.2-37.0247 180.54-36.0937 181.221-35.3418 181.901-34.5898 182.796-33.9274 183.906-33.3545 185.016-32.7816 186.278-32.2445 187.693-31.7432 189.107-31.2419 190.54-30.6958 191.99-30.105 193.44-29.5142 194.872-28.8249 196.287-28.0371 197.701-27.2493 198.963-26.2825 200.073-25.1367 201.183-23.9909 202.078-22.6213 202.759-21.0278 203.439-19.4344 203.779-17.5456 203.779-15.3613ZM262.611-26.2646C262.611-22.1826 262.074-18.4587 260.999-15.0928 259.925-11.7269 258.296-8.8265 256.112-6.3916 253.927-3.95671 251.188-2.07682 247.894-0.751953 244.6 0.572917 240.75 1.23535 236.346 1.23535 232.085 1.23535 228.379 0.644531 225.228-0.537109 222.077-1.71875 219.463-3.4375 217.386-5.69336 215.309-7.94922 213.77-10.7243 212.767-14.0186 211.764-17.3128 211.263-21.0726 211.263-25.2978 211.263-29.3799 211.809-33.1128 212.901-36.4966 213.993-39.8804 215.632-42.7808 217.816-45.1978 220-47.6147 222.73-49.4857 226.007-50.8105 229.283-52.1354 233.123-52.7978 237.528-52.7978 241.825-52.7978 245.548-52.216 248.7-51.0522 251.851-49.8885 254.456-48.1787 256.514-45.9228 258.573-43.667 260.104-40.8919 261.107-37.5977 262.109-34.3034 262.611-30.5257 262.611-26.2646ZM248.7-25.7275C248.7-28.0908 248.512-30.2661 248.136-32.2534 247.76-34.2407 247.124-35.9684 246.229-37.4365 245.334-38.9046 244.143-40.0505 242.657-40.874 241.171-41.6976 239.3-42.1094 237.044-42.1094 235.039-42.1094 233.284-41.7423 231.781-41.0083 230.277-40.2742 229.041-39.2 228.075-37.7856 227.108-36.3713 226.383-34.6704 225.899-32.6831 225.416-30.6958 225.174-28.431 225.174-25.8887 225.174-23.5254 225.371-21.3501 225.765-19.3628 226.159-17.3755 226.794-15.6478 227.672-14.1797 228.549-12.7116 229.74-11.5747 231.243-10.769 232.747-9.96338 234.609-9.56054 236.829-9.56055 238.87-9.56054 240.643-9.92757 242.147-10.6616 243.651-11.3957 244.886-12.4609 245.853-13.8574 246.82-15.2539 247.536-16.9458 248.001-18.9331 248.467-20.9204 248.7-23.1852 248.7-25.7275ZM302.07-67.998C302.07-66.9596 302.034-66.1271 301.963-65.5005 301.891-64.8738 301.784-64.3904 301.641-64.0503 301.497-63.7101 301.336-63.4774 301.157-63.352 300.978-63.2267 300.781-63.1641 300.566-63.1641 300.316-63.1641 300.038-63.2267 299.734-63.352 299.43-63.4774 299.054-63.6116 298.606-63.7549 298.158-63.8981 297.63-64.0324 297.021-64.1577 296.413-64.283 295.697-64.3457 294.873-64.3457 293.906-64.3457 293.074-64.1935 292.375-63.8892 291.677-63.5848 291.095-63.1014 290.63-62.439 290.164-61.7765 289.824-60.9171 289.609-59.8608 289.395-58.8045 289.287-57.5065 289.287-55.9668L289.287-51.5625 298.042-51.5625C298.364-51.5625 298.66-51.473 298.928-51.2939 299.197-51.1149 299.421-50.8195 299.6-50.4077 299.779-49.9959 299.913-49.432 300.002-48.7158 300.092-47.9997 300.137-47.1224 300.137-46.084 300.137-44.1146 299.958-42.7091 299.6-41.8677 299.242-41.0262 298.722-40.6055 298.042-40.6055L289.287-40.6055 289.287-1.82617C289.287-1.4681 289.18-1.15479 288.965-0.88623 288.75-0.617676 288.392-0.39388 287.891-0.214844 287.389-0.0358073 286.691 0.09847 285.796 0.187988 284.901 0.277506 283.809 0.322266 282.52 0.322266 281.23 0.322266 280.147 0.277506 279.27 0.187988 278.393 0.09847 277.694-0.0358073 277.175-0.214844 276.656-0.39388 276.298-0.617676 276.101-0.88623 275.904-1.15479 275.806-1.4681 275.806-1.82617L275.806-40.6055 269.79-40.6055C269.11-40.6055 268.599-41.0262 268.259-41.8677 267.919-42.7091 267.749-44.1146 267.749-46.084 267.749-47.1224 267.794-47.9997 267.883-48.7158 267.973-49.432 268.098-49.9959 268.259-50.4077 268.42-50.8195 268.635-51.1149 268.904-51.2939 269.172-51.473 269.486-51.5625 269.844-51.5625L275.806-51.5625 275.806-55.5908C275.806-58.8493 276.128-61.7049 276.772-64.1577 277.417-66.6105 278.429-68.6515 279.807-70.2808 281.186-71.91 282.94-73.1364 285.071-73.96 287.201-74.7835 289.717-75.1953 292.617-75.1953 294.014-75.1953 295.339-75.0789 296.592-74.8462 297.845-74.6134 298.83-74.3628 299.546-74.0942 300.262-73.8257 300.745-73.575 300.996-73.3423 301.247-73.1095 301.453-72.7694 301.614-72.3218 301.775-71.8742 301.891-71.3013 301.963-70.603 302.034-69.9048 302.07-69.0364 302.07-67.998ZM321.657-1.82617C321.657-1.4681 321.549-1.15479 321.335-0.88623 321.12-0.617676 320.753-0.39388 320.234-0.214844 319.714-0.0358073 319.025 0.09847 318.166 0.187988 317.306 0.277506 316.214 0.322266 314.889 0.322266 313.564 0.322266 312.472 0.277506 311.613 0.187988 310.754 0.09847 310.064-0.0358073 309.545-0.214844 309.026-0.39388 308.659-0.617676 308.444-0.88623 308.229-1.15479 308.122-1.4681 308.122-1.82617L308.122-49.7363C308.122-50.0944 308.229-50.4077 308.444-50.6763 308.659-50.9448 309.026-51.1686 309.545-51.3477 310.064-51.5267 310.754-51.661 311.613-51.7505 312.472-51.84 313.564-51.8848 314.889-51.8848 316.214-51.8848 317.306-51.84 318.166-51.7505 319.025-51.661 319.714-51.5267 320.234-51.3477 320.753-51.1686 321.12-50.9448 321.335-50.6763 321.549-50.4077 321.657-50.0944 321.657-49.7363ZM316.501-73.2617C316.751-73.6556 317.056-73.9958 317.414-74.2822 317.772-74.5687 318.219-74.7925 318.757-74.9536 319.294-75.1147 319.974-75.2311 320.798-75.3027 321.621-75.3743 322.624-75.4101 323.805-75.4101 325.452-75.4101 326.75-75.3385 327.699-75.1953 328.648-75.0521 329.329-74.8462 329.74-74.5776 330.152-74.3091 330.34-73.9958 330.304-73.6377 330.269-73.2796 330.09-72.9036 329.767-72.5098L319.347-60.0488C319.061-59.6908 318.774-59.3953 318.488-59.1626 318.201-58.9298 317.834-58.7419 317.387-58.5986 316.939-58.4554 316.375-58.348 315.695-58.2764 315.015-58.2048 314.155-58.1689 313.117-58.1689 311.864-58.1689 310.87-58.2227 310.136-58.3301 309.402-58.4375 308.892-58.6076 308.605-58.8403 308.319-59.0731 308.202-59.3685 308.256-59.7266 308.31-60.0846 308.498-60.4964 308.82-60.9619ZM375.869-1.66504C375.869-1.16374 375.69-0.769857 375.332-0.483398 374.974-0.19694 374.41 0.00895182 373.64 0.134277 372.87 0.259603 371.733 0.322266 370.229 0.322266 368.618 0.322266 367.445 0.259603 366.711 0.134277 365.977 0.00895182 365.458-0.19694 365.154-0.483398 364.849-0.769857 364.697-1.16374 364.697-1.66504L364.697-5.47852C362.728-3.36589 360.481-1.71875 357.957-0.537109 355.432 0.644531 352.63 1.23535 349.551 1.23535 347.008 1.23535 344.672 0.904134 342.542 0.241699 340.411-0.420736 338.567-1.40544 337.009-2.7124 335.452-4.01937 334.243-5.63965 333.384-7.57324 332.524-9.50683 332.095-11.7627 332.095-14.3408 332.095-17.1338 332.641-19.5597 333.733-21.6187 334.825-23.6776 336.454-25.3784 338.621-26.7212 340.787-28.064 343.481-29.0576 346.704-29.7021 349.927-30.3467 353.669-30.6689 357.93-30.6689L362.603-30.6689 362.603-33.5693C362.603-35.0732 362.45-36.3892 362.146-37.5171 361.842-38.645 361.34-39.585 360.642-40.3369 359.944-41.0889 359.013-41.6439 357.849-42.0019 356.685-42.36 355.244-42.5391 353.525-42.5391 351.27-42.5391 349.255-42.2884 347.483-41.7871 345.71-41.2858 344.144-40.7308 342.783-40.1221 341.423-39.5133 340.286-38.9583 339.373-38.457 338.459-37.9557 337.716-37.7051 337.144-37.7051 336.75-37.7051 336.401-37.8304 336.096-38.0811 335.792-38.3317 335.541-38.6898 335.344-39.1553 335.147-39.6208 334.995-40.1937 334.888-40.874 334.78-41.5544 334.727-42.3063 334.727-43.1299 334.727-44.2399 334.816-45.1172 334.995-45.7617 335.174-46.4062 335.514-46.9881 336.016-47.5073 336.517-48.0265 337.394-48.5994 338.647-49.2261 339.901-49.8527 341.369-50.4346 343.052-50.9717 344.735-51.5088 346.57-51.9474 348.557-52.2876 350.544-52.6278 352.594-52.7978 354.707-52.7978 358.467-52.7978 361.68-52.4308 364.348-51.6968 367.016-50.9627 369.209-49.8348 370.928-48.313 372.646-46.7912 373.9-44.8307 374.688-42.4316 375.475-40.0325 375.869-37.1859 375.869-33.8916ZM362.603-22.1826 357.446-22.1826C355.262-22.1826 353.4-22.0215 351.86-21.6992 350.321-21.3769 349.067-20.8936 348.101-20.249 347.134-19.6045 346.427-18.8257 345.979-17.9126 345.531-16.9995 345.308-15.9521 345.308-14.7705 345.308-12.7653 345.943-11.1898 347.214-10.0439 348.486-8.89811 350.249-8.32519 352.505-8.32519 354.403-8.32519 356.148-8.80859 357.742-9.77539 359.335-10.7422 360.955-12.1566 362.603-14.0186Z" fill="#FFFFFF" fill-rule="nonzero" fill-opacity="1" transform="matrix(1 0 0 1 74.3226 144)"/></g></g><text fill="#FFFFFF" fill-opacity="1" font-family="Calibri,Calibri_MSFontService,sans-serif" font-style="normal" font-variant="normal" font-weight="700" font-stretch="normal" font-size="110" text-anchor="start" direction="ltr" writing-mode="lr-tb" unicode-bidi="normal" text-decoration="none" transform="matrix(1 0 0 1 1887.86 720)">Filosofa</text><g clip-path="url(#clip26)" filter="url(#fx7)" transform="translate(1902 719)"><g clip-path="url(#clip27)"><path d="M41.5078-3.32422C41.5078-2.78516 41.4704-2.30599 41.3955-1.88672 41.3206-1.46745 41.2158-1.11556 41.0811-0.831055 40.9463-0.546549 40.7666-0.336914 40.542-0.202148 40.3174-0.0673828 40.0703 0 39.8008 0L7.68164 0C7.26237 0 6.89551-0.0524089 6.58105-0.157227 6.2666-0.262044 5.99707-0.434245 5.77246-0.673828 5.54785-0.913411 5.38314-1.25781 5.27832-1.70703 5.1735-2.15625 5.12109-2.71029 5.12109-3.36914 5.12109-3.9681 5.14426-4.49219 5.19058-4.94141 5.23691-5.39062 5.33716-5.78743 5.49135-6.13184 5.64553-6.47624 5.83844-6.82064 6.07007-7.16504 6.3017-7.50944 6.60258-7.8763 6.97272-8.26562L18.5913-20.2148C21.2764-22.97 23.429-25.4408 25.0492-27.627 26.6694-29.8131 27.9193-31.8047 28.7988-33.6016 29.6783-35.3984 30.2569-37.0306 30.5346-38.498 30.8123-39.9655 30.9512-41.3431 30.9512-42.6309 30.9512-43.9186 30.7349-45.139 30.3023-46.292 29.8697-47.445 29.2439-48.4557 28.425-49.3242 27.6061-50.1927 26.5787-50.8815 25.3426-51.3906 24.1065-51.8997 22.6851-52.1543 21.0782-52.1543 19.1933-52.1543 17.5015-51.8997 16.0027-51.3906 14.5039-50.8815 13.1905-50.3275 12.0626-49.7285 10.9346-49.1296 9.99219-48.5755 9.2353-48.0664 8.47842-47.5573 7.91444-47.3027 7.54337-47.3027 7.32718-47.3027 7.13404-47.3626 6.96394-47.4824 6.79385-47.6022 6.65475-47.7969 6.54666-48.0664 6.43857-48.3359 6.35364-48.6953 6.29187-49.1445 6.2301-49.5937 6.19922-50.1328 6.19922-50.7617 6.19922-51.2109 6.21419-51.6003 6.24414-51.9297 6.27409-52.2591 6.3265-52.5436 6.40137-52.7832 6.47624-53.0228 6.57357-53.2474 6.69336-53.457 6.81315-53.6667 7.05273-53.9287 7.41211-54.2432 7.77148-54.5576 8.3929-54.9844 9.27637-55.5234 10.1598-56.0625 11.2679-56.5941 12.6006-57.1182 13.9333-57.6422 15.4007-58.084 17.0029-58.4434 18.6051-58.8027 20.2897-58.9824 22.0566-58.9824 24.8717-58.9824 27.335-58.5856 29.4463-57.792 31.5576-56.9984 33.3096-55.9128 34.7021-54.5352 36.0947-53.1575 37.1354-51.5553 37.8242-49.7285 38.513-47.9017 38.8574-45.9551 38.8574-43.8887 38.8574-42.0319 38.6927-40.1826 38.3633-38.3408 38.0339-36.499 37.3376-34.5075 36.2744-32.3662 35.2113-30.2249 33.6764-27.8441 31.6699-25.2236 29.6634-22.6032 26.998-19.5859 23.6738-16.1719L14.4648-6.55859 39.7559-6.55859C39.9954-6.55859 40.2275-6.49121 40.4521-6.35644 40.6768-6.22168 40.8714-6.01953 41.0361-5.75 41.2008-5.48047 41.3206-5.14355 41.3955-4.73926 41.4704-4.33496 41.5078-3.86328 41.5078-3.32422ZM64.2402-35.9375C64.2402-34.9792 64.1728-34.1706 64.0381-33.5117 63.9033-32.8529 63.6488-32.3213 63.2744-31.917 62.9001-31.5127 62.4134-31.2282 61.8144-31.0635 61.2155-30.8988 60.4518-30.8164 59.5234-30.8164 58.5651-30.8164 57.7865-30.8988 57.1875-31.0635 56.5885-31.2282 56.1094-31.5127 55.75-31.917 55.3906-32.3213 55.1435-32.8529 55.0088-33.5117 54.874-34.1706 54.8066-34.9792 54.8066-35.9375 54.8066-36.9557 54.874-37.8018 55.0088-38.4756 55.1435-39.1494 55.3906-39.6885 55.75-40.0928 56.1094-40.4971 56.5885-40.7816 57.1875-40.9463 57.7865-41.111 58.5651-41.1934 59.5234-41.1934 60.4518-41.1934 61.2155-41.111 61.8144-40.9463 62.4134-40.7816 62.9001-40.4971 63.2744-40.0928 63.6488-39.6885 63.9033-39.1494 64.0381-38.4756 64.1728-37.8018 64.2402-36.9557 64.2402-35.9375ZM64.2402-4.76172C64.2402-3.77344 64.1728-2.94987 64.0381-2.29102 63.9033-1.63216 63.6488-1.10059 63.2744-0.696289 62.9001-0.291992 62.4134-0.00748697 61.8144 0.157227 61.2155 0.32194 60.4518 0.404297 59.5234 0.404297 58.5651 0.404297 57.7865 0.32194 57.1875 0.157227 56.5885-0.00748697 56.1094-0.291992 55.75-0.696289 55.3906-1.10059 55.1435-1.63216 55.0088-2.29102 54.874-2.94987 54.8066-3.77344 54.8066-4.76172 54.8066-5.75 54.874-6.58105 55.0088-7.25488 55.1435-7.92871 55.3906-8.46029 55.75-8.84961 56.1094-9.23893 56.5885-9.52344 57.1875-9.70312 57.7865-9.88281 58.5651-9.97266 59.5234-9.97266 60.4518-9.97266 61.2155-9.88281 61.8144-9.70312 62.4134-9.52344 62.9001-9.23893 63.2744-8.84961 63.6488-8.46029 63.9033-7.92871 64.0381-7.25488 64.1728-6.58105 64.2402-5.75 64.2402-4.76172ZM113.897-14.9141C113.897-12.3984 113.448-10.1598 112.549-8.19824 111.651-6.23665 110.356-4.58203 108.664-3.23437 106.972-1.88672 104.883-0.868489 102.397-0.179687 99.9115 0.509115 97.0664 0.853516 93.862 0.853516 90.8672 0.853516 88.1868 0.539062 85.821-0.0898437 83.4551-0.71875 81.4486-1.64714 79.8014-2.875 78.1543-4.10286 76.8965-5.61523 76.028-7.41211 75.1595-9.20898 74.7253-11.2604 74.7253-13.5664 74.7253-15.3932 75.0247-17.0703 75.6237-18.5977 76.2226-20.125 77.0836-21.5326 78.2067-22.8203 79.3297-24.1081 80.7148-25.3135 82.362-26.4365 84.0091-27.5596 85.8659-28.6302 87.9323-29.6484 86.1354-30.5768 84.5482-31.5576 83.1706-32.5908 81.793-33.624 80.625-34.7471 79.6667-35.96 78.7083-37.1728 77.9821-38.4681 77.488-39.8457 76.9938-41.2233 76.7467-42.7207 76.7467-44.3379 76.7467-46.3743 77.1136-48.2835 77.8473-50.0654 78.581-51.8473 79.6891-53.3971 81.1715-54.7148 82.654-56.0325 84.5407-57.0732 86.8317-57.8369 89.1227-58.6006 91.7956-58.9824 94.8503-58.9824 97.7851-58.9824 100.323-58.6305 102.465-57.9268 104.606-57.223 106.373-56.2646 107.765-55.0518 109.158-53.8389 110.184-52.4089 110.842-50.7617 111.501-49.1146 111.831-47.3476 111.831-45.4609 111.831-43.9336 111.584-42.4661 111.09-41.0586 110.595-39.651 109.869-38.3184 108.911-37.0605 107.952-35.8027 106.777-34.6273 105.384-33.5342 103.992-32.4411 102.397-31.4154 100.6-30.457 102.727-29.4089 104.621-28.3307 106.283-27.2227 107.945-26.1146 109.338-24.9242 110.461-23.6514 111.584-22.3786 112.437-21.0309 113.021-19.6084 113.605-18.1859 113.897-16.6211 113.897-14.9141ZM104.194-44.7422C104.194-46 103.977-47.138 103.543-48.1562 103.108-49.1745 102.472-50.043 101.633-50.7617 100.795-51.4805 99.7542-52.027 98.5114-52.4014 97.2686-52.7757 95.8535-52.9629 94.2663-52.9629 91.0319-52.9629 88.5836-52.2292 86.9215-50.7617 85.2594-49.2943 84.4284-47.2878 84.4284-44.7422 84.4284-43.5742 84.6305-42.4886 85.0348-41.4853 85.4391-40.4821 86.068-39.5312 86.9215-38.6328 87.7751-37.7344 88.8532-36.8584 90.1559-36.0049 91.4586-35.1514 93.0085-34.2604 94.8053-33.332 97.8301-34.8893 100.151-36.6113 101.768-38.498 103.385-40.3848 104.194-42.4661 104.194-44.7422ZM106.081-14.1055C106.081-15.4831 105.826-16.7334 105.317-17.8564 104.808-18.9795 104.037-20.0277 103.004-21.001 101.97-21.9743 100.683-22.9176 99.1403-23.8311 97.598-24.7445 95.8086-25.6953 93.7721-26.6836 91.8854-25.7552 90.2308-24.8268 88.8083-23.8984 87.3857-22.9701 86.2178-22.0117 85.3044-21.0234 84.3909-20.0352 83.7021-18.9945 83.238-17.9014 82.7738-16.8083 82.5417-15.6029 82.5417-14.2852 82.5417-11.3802 83.5374-9.13411 85.529-7.54687 87.5205-5.95963 90.4928-5.16601 94.446-5.16602 98.2793-5.16601 101.177-5.96712 103.138-7.56934 105.1-9.17155 106.081-11.3503 106.081-14.1055Z" fill="#FFFFFF" fill-rule="nonzero" fill-opacity="1" transform="matrix(1 0 0 1 62.0145 120)"/></g></g><text fill="#FFFFFF" fill-opacity="1" font-family="Calibri,Calibri_MSFontService,sans-serif" font-style="normal" font-variant="normal" font-weight="400" font-stretch="normal" font-size="92" text-anchor="start" direction="ltr" writing-mode="lr-tb" unicode-bidi="normal" text-decoration="none" transform="matrix(1 0 0 1 1960.05 835)">2:8</text><g clip-path="url(#clip28)" filter="url(#fx8)" transform="translate(2019 719)"><g clip-path="url(#clip29)"><path d="M25.0664-22.6855C25.0664-21.5176 24.9316-20.709 24.6621-20.2598 24.3926-19.8105 24.0033-19.5859 23.4941-19.5859L4.7168-19.5859C4.17773-19.5859 3.77344-19.818 3.50391-20.2822 3.23437-20.7464 3.09961-21.5475 3.09961-22.6855 3.09961-23.8236 3.23437-24.6172 3.50391-25.0664 3.77344-25.5156 4.17773-25.7402 4.7168-25.7402L23.4941-25.7402C23.7337-25.7402 23.9508-25.6953 24.1455-25.6055 24.3402-25.5156 24.5049-25.3434 24.6396-25.0889 24.7744-24.8343 24.8792-24.5124 24.9541-24.123 25.029-23.7337 25.0664-23.2546 25.0664-22.6855Z" fill="#FFFFFF" fill-rule="nonzero" fill-opacity="1" transform="matrix(1 0 0 1 62.4624 120)"/></g></g><text fill="#FFFFFF" fill-opacity="1" font-family="Calibri,Calibri_MSFontService,sans-serif" font-style="normal" font-variant="normal" font-weight="400" font-stretch="normal" font-size="92" text-anchor="start" direction="ltr" writing-mode="lr-tb" unicode-bidi="normal" text-decoration="none" transform="matrix(1 0 0 1 2077.5 835)">-</text><g clip-path="url(#clip30)" filter="url(#fx9)" transform="translate(2048 719)"><g clip-path="url(#clip31)"><path d="M41.6426-3.05469C41.6426-2.48568 41.5977-2.00651 41.5078-1.61719 41.418-1.22786 41.2982-0.913411 41.1484-0.673828 40.9987-0.434245 40.8265-0.262044 40.6318-0.157227 40.4372-0.0524089 40.235 0 40.0254 0L9.6582 0C9.44857 0 9.2539-0.0524089 9.07422-0.157227 8.89453-0.262044 8.72233-0.434245 8.55762-0.673828 8.3929-0.913411 8.26562-1.22786 8.17578-1.61719 8.08594-2.00651 8.04101-2.48568 8.04101-3.05469 8.04101-3.59375 8.08594-4.05794 8.17578-4.44727 8.26562-4.83659 8.37793-5.15853 8.51269-5.41309 8.64746-5.66764 8.81217-5.8623 9.00683-5.99707 9.2015-6.13184 9.41862-6.19922 9.6582-6.19922L21.7871-6.19922 21.7871-50.4023 10.5566-43.709C9.98763-43.4095 9.53092-43.2298 9.18652-43.1699 8.84212-43.11 8.5651-43.1774 8.35547-43.3721 8.14583-43.5667 8.00358-43.8887 7.92871-44.3379 7.85384-44.7871 7.81641-45.3561 7.81641-46.0449 7.81641-46.554 7.83887-46.9883 7.88379-47.3477 7.92871-47.707 7.99609-48.0065 8.08594-48.2461 8.17578-48.4857 8.30306-48.6953 8.46777-48.875 8.63249-49.0547 8.84961-49.2344 9.11914-49.4141L22.5059-57.9941C22.6256-58.084 22.7754-58.1588 22.9551-58.2187 23.1348-58.2786 23.3594-58.3385 23.6289-58.3984 23.8984-58.4583 24.2129-58.4958 24.5723-58.5107 24.9316-58.5257 25.3809-58.5332 25.9199-58.5332 26.6387-58.5332 27.2376-58.5033 27.7168-58.4434 28.196-58.3835 28.5703-58.3011 28.8398-58.1963 29.1094-58.0915 29.2891-57.9567 29.3789-57.792 29.4687-57.6273 29.5137-57.4551 29.5137-57.2754L29.5137-6.19922 40.0254-6.19922C40.265-6.19922 40.4896-6.13184 40.6992-5.99707 40.9088-5.8623 41.081-5.66764 41.2158-5.41309 41.3506-5.15853 41.4554-4.83659 41.5303-4.44727 41.6051-4.05794 41.6426-3.59375 41.6426-3.05469ZM89.8457-29.1992C89.8457-24.737 89.4938-20.6641 88.79-16.9805 88.0863-13.2969 86.9183-10.1299 85.2861-7.47949 83.654-4.8291 81.5202-2.77767 78.8848-1.3252 76.2493 0.127279 73 0.853516 69.1367 0.853516 65.4831 0.853516 62.4059 0.202148 59.9053-1.10059 57.4046-2.40332 55.3906-4.31999 53.8633-6.85059 52.3359-9.38118 51.2503-12.4958 50.6064-16.1943 49.9626-19.8929 49.6406-24.138 49.6406-28.9297 49.6406-33.362 50-37.4274 50.7187-41.126 51.4375-44.8245 52.6055-47.999 54.2227-50.6494 55.8398-53.2998 57.9661-55.3512 60.6016-56.8037 63.237-58.2562 66.4713-58.9824 70.3047-58.9824 73.9883-58.9824 77.0804-58.331 79.581-57.0283 82.0817-55.7256 84.0957-53.8089 85.623-51.2783 87.1504-48.7477 88.236-45.6331 88.8799-41.9346 89.5238-38.236 89.8457-33.9909 89.8457-29.1992ZM81.9394-28.6602C81.9394-31.5651 81.8346-34.1706 81.625-36.4766 81.4154-38.7825 81.1084-40.819 80.7041-42.5859 80.2998-44.3529 79.7757-45.8727 79.1318-47.1455 78.4879-48.4183 77.7168-49.4665 76.8184-50.29 75.9199-51.1136 74.8942-51.7126 73.7412-52.0869 72.5882-52.4613 71.293-52.6484 69.8555-52.6484 67.3099-52.6484 65.2435-52.0495 63.6562-50.8516 62.069-49.6536 60.8187-48.0065 59.9053-45.9102 58.9919-43.8138 58.3704-41.3581 58.041-38.543 57.7116-35.7279 57.5469-32.7031 57.5469-29.4687 57.5469-25.1263 57.7715-21.4352 58.2207-18.3955 58.6699-15.3558 59.3812-12.8776 60.3545-10.9609 61.3278-9.04427 62.5706-7.65169 64.083-6.7832 65.5954-5.91471 67.4297-5.48047 69.5859-5.48047 71.263-5.48047 72.7379-5.75 74.0107-6.28906 75.2835-6.82812 76.3766-7.59928 77.29-8.60254 78.2034-9.60579 78.9596-10.8112 79.5586-12.2187 80.1575-13.6263 80.6367-15.1836 80.9961-16.8906 81.3555-18.5977 81.6025-20.4469 81.7373-22.4385 81.8721-24.43 81.9394-26.5039 81.9394-28.6602Z" fill="#FFFFFF" fill-rule="nonzero" fill-opacity="1" transform="matrix(1 0 0 1 61.5354 120)"/></g></g><text fill="#FFFFFF" fill-opacity="1" font-family="Calibri,Calibri_MSFontService,sans-serif" font-style="normal" font-variant="normal" font-weight="400" font-stretch="normal" font-size="92" text-anchor="start" direction="ltr" writing-mode="lr-tb" unicode-bidi="normal" text-decoration="none" transform="matrix(1 0 0 1 2105.57 835)">10</text></g></svg>