<svg width="811" height="376" xmlns="http://www.w3.org/2000/svg" xmlns:xlink="http://www.w3.org/1999/xlink" xml:space="preserve" overflow="hidden"><defs><filter id="fx0" x="-10%" y="-10%" width="120%" height="120%" filterUnits="userSpaceOnUse" primitiveUnits="userSpaceOnUse"><feComponentTransfer color-interpolation-filters="sRGB"><feFuncR type="discrete" tableValues="0.000000 0.000000"/><feFuncG type="discrete" tableValues="0.000000 0.000000"/><feFuncB type="discrete" tableValues="0.000000 0.000000"/><feFuncA type="linear" slope="0.349020" intercept="0.000000"/></feComponentTransfer><feGaussianBlur stdDeviation="4.811899 4.811899"/></filter><filter id="fx1" x="-10%" y="-10%" width="120%" height="120%" filterUnits="userSpaceOnUse" primitiveUnits="userSpaceOnUse"><feComponentTransfer color-interpolation-filters="sRGB"><feFuncR type="discrete" tableValues="0.000000 0.000000"/><feFuncG type="discrete" tableValues="0.000000 0.000000"/><feFuncB type="discrete" tableValues="0.000000 0.000000"/><feFuncA type="linear" slope="0.431373" intercept="0.000000"/></feComponentTransfer><feGaussianBlur stdDeviation="2.102971 2.102971"/></filter><filter id="fx2" x="-10%" y="-10%" width="120%" height="120%" filterUnits="userSpaceOnUse" primitiveUnits="userSpaceOnUse"><feComponentTransfer color-interpolation-filters="sRGB"><feFuncR type="discrete" tableValues="0.000000 0.000000"/><feFuncG type="discrete" tableValues="0.000000 0.000000"/><feFuncB type="discrete" tableValues="0.000000 0.000000"/><feFuncA type="linear" slope="0.431373" intercept="0.000000"/></feComponentTransfer><feGaussianBlur stdDeviation="1.869331 1.869331"/></filter><filter id="fx3" x="-10%" y="-10%" width="120%" height="120%" filterUnits="userSpaceOnUse" primitiveUnits="userSpaceOnUse"><feComponentTransfer color-interpolation-filters="sRGB"><feFuncR type="discrete" tableValues="0.000000 0.000000"/><feFuncG type="discrete" tableValues="0.000000 0.000000"/><feFuncB type="discrete" tableValues="0.000000 0.000000"/><feFuncA type="linear" slope="0.431373" intercept="0.000000"/></feComponentTransfer><feGaussianBlur stdDeviation="1.869331 1.869331"/></filter><filter id="fx4" x="-10%" y="-10%" width="120%" height="120%" filterUnits="userSpaceOnUse" primitiveUnits="userSpaceOnUse"><feComponentTransfer color-interpolation-filters="sRGB"><feFuncR type="discrete" tableValues="0.000000 0.000000"/><feFuncG type="discrete" tableValues="0.000000 0.000000"/><feFuncB type="discrete" tableValues="0.000000 0.000000"/><feFuncA type="linear" slope="0.431373" intercept="0.000000"/></feComponentTransfer><feGaussianBlur stdDeviation="1.869331 1.869331"/></filter><filter id="fx5" x="-10%" y="-10%" width="120%" height="120%" filterUnits="userSpaceOnUse" primitiveUnits="userSpaceOnUse"><feComponentTransfer color-interpolation-filters="sRGB"><feFuncR type="discrete" tableValues="0.000000 0.000000"/><feFuncG type="discrete" tableValues="0.000000 0.000000"/><feFuncB type="discrete" tableValues="0.000000 0.000000"/><feFuncA type="linear" slope="0.349020" intercept="0.000000"/></feComponentTransfer><feGaussianBlur stdDeviation="4.811899 4.811899"/></filter><filter id="fx6" x="-10%" y="-10%" width="120%" height="120%" filterUnits="userSpaceOnUse" primitiveUnits="userSpaceOnUse"><feComponentTransfer color-interpolation-filters="sRGB"><feFuncR type="discrete" tableValues="0.000000 0.000000"/><feFuncG type="discrete" tableValues="0.000000 0.000000"/><feFuncB type="discrete" tableValues="0.000000 0.000000"/><feFuncA type="linear" slope="0.431373" intercept="0.000000"/></feComponentTransfer><feGaussianBlur stdDeviation="2.102971 2.102971"/></filter><filter id="fx7" x="-10%" y="-10%" width="120%" height="120%" filterUnits="userSpaceOnUse" primitiveUnits="userSpaceOnUse"><feComponentTransfer color-interpolation-filters="sRGB"><feFuncR type="discrete" tableValues="0.000000 0.000000"/><feFuncG type="discrete" tableValues="0.000000 0.000000"/><feFuncB type="discrete" tableValues="0.000000 0.000000"/><feFuncA type="linear" slope="0.431373" intercept="0.000000"/></feComponentTransfer><feGaussianBlur stdDeviation="1.869331 1.869331"/></filter><filter id="fx8" x="-10%" y="-10%" width="120%" height="120%" filterUnits="userSpaceOnUse" primitiveUnits="userSpaceOnUse"><feComponentTransfer color-interpolation-filters="sRGB"><feFuncR type="discrete" tableValues="0.000000 0.000000"/><feFuncG type="discrete" tableValues="0.000000 0.000000"/><feFuncB type="discrete" tableValues="0.000000 0.000000"/><feFuncA type="linear" slope="0.431373" intercept="0.000000"/></feComponentTransfer><feGaussianBlur stdDeviation="1.869331 1.869331"/></filter><filter id="fx9" x="-10%" y="-10%" width="120%" height="120%" filterUnits="userSpaceOnUse" primitiveUnits="userSpaceOnUse"><feComponentTransfer color-interpolation-filters="sRGB"><feFuncR type="discrete" tableValues="0.000000 0.000000"/><feFuncG type="discrete" tableValues="0.000000 0.000000"/><feFuncB type="discrete" tableValues="0.000000 0.000000"/><feFuncA type="linear" slope="0.431373" intercept="0.000000"/></feComponentTransfer><feGaussianBlur stdDeviation="1.869331 1.869331"/></filter><clipPath id="clip10"><rect x="2479" y="2094" width="811" height="376"/></clipPath><clipPath id="clip11"><path d="M2500.5 2136.5 2500.5 2386.5 3270.5 2386.5 3270.5 2136.5ZM2479 2094 3290 2094 3290 2470 2479 2470Z" fill-rule="evenodd" clip-rule="evenodd"/></clipPath><clipPath id="clip12"><rect x="1.56421" y="1.86475" width="801.871" height="281.872"/></clipPath><clipPath id="clip13"><rect x="0" y="0" width="805" height="286"/></clipPath><clipPath id="clip14"><rect x="-14.4358" y="-14.4358" width="481.872" height="402.872"/></clipPath><clipPath id="clip15"><rect x="0" y="0" width="453" height="374"/></clipPath><clipPath id="clip16"><rect x="-6.30891" y="-6.30891" width="435.618" height="259.618"/></clipPath><clipPath id="clip17"><rect x="0" y="0" width="423" height="247"/></clipPath><clipPath id="clip18"><rect x="-5.60799" y="-5.60799" width="252.216" height="217.216"/></clipPath><clipPath id="clip19"><rect x="0" y="0" width="241" height="206"/></clipPath><clipPath id="clip20"><rect x="-5.60799" y="-5.60799" width="163.216" height="217.216"/></clipPath><clipPath id="clip21"><rect x="0" y="0" width="152" height="206"/></clipPath><clipPath id="clip22"><rect x="-5.60799" y="-5.60799" width="228.216" height="217.216"/></clipPath><clipPath id="clip23"><rect x="0" y="0" width="217" height="206"/></clipPath><clipPath id="clip24"><rect x="-6.30884" y="-6.30884" width="435.618" height="259.618"/></clipPath><clipPath id="clip25"><rect x="0" y="0" width="423" height="247"/></clipPath><clipPath id="clip26"><rect x="-5.60791" y="-5.60791" width="252.216" height="218.216"/></clipPath><clipPath id="clip27"><rect x="0" y="0" width="241" height="207"/></clipPath><clipPath id="clip28"><rect x="-5.60791" y="-5.60791" width="163.216" height="218.216"/></clipPath><clipPath id="clip29"><rect x="0" y="0" width="152" height="207"/></clipPath><clipPath id="clip30"><rect x="-5.60791" y="-5.60791" width="228.216" height="218.216"/></clipPath><clipPath id="clip31"><rect x="0" y="0" width="217" height="207"/></clipPath></defs><g clip-path="url(#clip10)" transform="translate(-2479 -2094)"><g clip-path="url(#clip11)"><g clip-path="url(#clip12)" filter="url(#fx0)" transform="translate(2483 2127)"><g clip-path="url(#clip13)"><rect x="17.5" y="17.8005" width="770" height="250" stroke="#000000" stroke-width="3" stroke-linecap="butt" stroke-linejoin="round" stroke-miterlimit="10" stroke-opacity="1" fill="#008000" fill-opacity="1"/></g></g><g clip-path="url(#clip14)" filter="url(#fx5)" transform="translate(2663 2097)"><g clip-path="url(#clip15)"><g clip-path="url(#clip16)" filter="url(#fx1)" transform="translate(15 15)"><g clip-path="url(#clip17)" transform="translate(-2663 -2097)"><path d="M55.6445-10.5273C55.6445-9.63216 55.6177-8.87126 55.564-8.24463 55.5102-7.618 55.4297-7.08089 55.3223-6.6333 55.2148-6.18571 55.0716-5.80078 54.8926-5.47852 54.7135-5.15625 54.4271-4.78922 54.0332-4.37744 53.6393-3.96566 52.8784-3.4375 51.7505-2.79297 50.6226-2.14844 49.244-1.53076 47.6147-0.939941 45.9855-0.349121 44.1235 0.143229 42.0288 0.537109 39.9341 0.930989 37.6693 1.12793 35.2344 1.12793 30.472 1.12793 26.1751 0.39388 22.3437-1.07422 18.5124-2.54232 15.2539-4.73551 12.5684-7.65381 9.88281-10.5721 7.82389-14.2155 6.3916-18.584 4.95931-22.9525 4.24316-28.0371 4.24316-33.8379 4.24316-39.7461 5.03092-44.9919 6.60644-49.5752 8.18196-54.1585 10.3841-58.0078 13.2129-61.123 16.0417-64.2383 19.4344-66.6016 23.3911-68.2129 27.3478-69.8242 31.7074-70.6299 36.4697-70.6299 38.4033-70.6299 40.2653-70.4687 42.0557-70.1465 43.846-69.8242 45.5021-69.4035 47.0239-68.8843 48.5457-68.3651 49.9154-67.7653 51.1328-67.085 52.3503-66.4046 53.2007-65.8227 53.6841-65.3393 54.1675-64.8559 54.4987-64.4531 54.6777-64.1309 54.8568-63.8086 55-63.3968 55.1074-62.8955 55.2148-62.3942 55.2954-61.8034 55.3491-61.123 55.4028-60.4427 55.4297-59.6012 55.4297-58.5986 55.4297-57.5244 55.3939-56.6113 55.3223-55.8594 55.2506-55.1074 55.1253-54.4987 54.9463-54.0332 54.7672-53.5677 54.5524-53.2275 54.3018-53.0127 54.0511-52.7978 53.7646-52.6904 53.4424-52.6904 52.9053-52.6904 52.2249-53.0037 51.4014-53.6304 50.5778-54.257 49.5125-54.9552 48.2056-55.7251 46.8986-56.4949 45.341-57.1932 43.5327-57.8198 41.7244-58.4464 39.5671-58.7598 37.0605-58.7598 34.3034-58.7598 31.8416-58.1958 29.6753-57.0679 27.5089-55.9399 25.6649-54.3286 24.1431-52.2339 22.6213-50.1392 21.4665-47.6058 20.6787-44.6338 19.8909-41.6618 19.4971-38.3138 19.4971-34.5898 19.4971-30.5078 19.9178-26.9718 20.7593-23.9819 21.6007-20.992 22.8003-18.5303 24.3579-16.5967 25.9155-14.6631 27.7954-13.2218 29.9976-12.2729 32.1997-11.3241 34.6794-10.8496 37.4365-10.8496 39.943-10.8496 42.1094-11.145 43.9355-11.7358 45.7617-12.3267 47.3283-12.9801 48.6353-13.6963 49.9422-14.4124 51.0164-15.057 51.8579-15.6299 52.6994-16.2028 53.3529-16.4893 53.8184-16.4893 54.1764-16.4893 54.4629-16.4176 54.6777-16.2744 54.8926-16.1312 55.0716-15.8447 55.2148-15.415 55.3581-14.9853 55.4655-14.3856 55.5371-13.6157 55.6087-12.8459 55.6445-11.8164 55.6445-10.5273ZM78.7402-1.82617C78.7402-1.4681 78.6328-1.15479 78.418-0.88623 78.2031-0.617676 77.8361-0.39388 77.3169-0.214844 76.7977-0.0358073 76.1084 0.09847 75.249 0.187988 74.3896 0.277506 73.2975 0.322266 71.9726 0.322266 70.6478 0.322266 69.5557 0.277506 68.6963 0.187988 67.8369 0.09847 67.1476-0.0358073 66.6284-0.214844 66.1092-0.39388 65.7422-0.617676 65.5273-0.88623 65.3125-1.15479 65.2051-1.4681 65.2051-1.82617L65.2051-49.6289C65.2051-49.987 65.3125-50.3003 65.5273-50.5688 65.7422-50.8374 66.1092-51.0701 66.6284-51.2671 67.1476-51.464 67.8369-51.6162 68.6963-51.7236 69.5557-51.8311 70.6478-51.8848 71.9726-51.8848 73.2975-51.8848 74.3896-51.8311 75.249-51.7236 76.1084-51.6162 76.7977-51.464 77.3169-51.2671 77.8361-51.0701 78.2031-50.8374 78.418-50.5688 78.6328-50.3003 78.7402-49.987 78.7402-49.6289ZM79.7607-65.957C79.7607-63.2357 79.2057-61.3558 78.0957-60.3174 76.9857-59.279 74.9268-58.7598 71.9189-58.7598 68.8753-58.7598 66.8253-59.2611 65.769-60.2637 64.7127-61.2663 64.1846-63.0745 64.1846-65.6885 64.1846-68.4098 64.7306-70.2987 65.8227-71.355 66.9149-72.4113 68.9827-72.9394 72.0264-72.9394 75.0342-72.9394 77.0752-72.4292 78.1494-71.4087 79.2236-70.3882 79.7607-68.571 79.7607-65.957ZM136.39-27.1777C136.39-25.5306 136.023-24.3131 135.289-23.5254 134.555-22.7376 133.543-22.3437 132.254-22.3437L103.089-22.3437C103.089-20.3027 103.331-18.4497 103.814-16.7847 104.298-15.1196 105.068-13.7052 106.124-12.5415 107.18-11.3778 108.541-10.4915 110.206-9.88281 111.871-9.27409 113.867-8.96973 116.195-8.96973 118.558-8.96973 120.635-9.13981 122.425-9.47998 124.215-9.82015 125.764-10.1961 127.071-10.6079 128.378-11.0197 129.461-11.3957 130.321-11.7358 131.18-12.076 131.878-12.2461 132.415-12.2461 132.738-12.2461 133.006-12.1834 133.221-12.0581 133.436-11.9328 133.615-11.709 133.758-11.3867 133.901-11.0645 134-10.6079 134.054-10.0171 134.107-9.42627 134.134-8.68327 134.134-7.78809 134.134-7.00033 134.116-6.32894 134.08-5.77393 134.045-5.21891 133.991-4.74447 133.919-4.35059 133.848-3.95671 133.74-3.62549 133.597-3.35693 133.454-3.08838 133.266-2.82878 133.033-2.57812 132.8-2.32747 132.165-1.9873 131.126-1.55762 130.088-1.12793 128.763-0.707194 127.152-0.29541 125.54 0.116374 123.696 0.474447 121.619 0.778809 119.543 1.08317 117.323 1.23535 114.959 1.23535 110.698 1.23535 106.965 0.698242 103.761-0.375977 100.556-1.4502 97.8792-3.07943 95.7308-5.26367 93.5824-7.44792 91.98-10.2051 90.9237-13.5352 89.8673-16.8652 89.3392-20.7682 89.3392-25.2441 89.3392-29.5052 89.8942-33.3455 91.0042-36.7651 92.1143-40.1847 93.7256-43.0851 95.8382-45.4663 97.9508-47.8475 100.52-49.6647 103.546-50.918 106.571-52.1712 109.982-52.7978 113.778-52.7978 117.788-52.7978 121.217-52.207 124.063-51.0254 126.91-49.8437 129.246-48.2056 131.073-46.1108 132.899-44.0161 134.242-41.5365 135.101-38.6719 135.96-35.8073 136.39-32.6921 136.39-29.3262ZM123.285-31.0449C123.392-34.8405 122.631-37.8214 121.002-39.9878 119.373-42.1541 116.857-43.2373 113.455-43.2373 111.737-43.2373 110.242-42.915 108.971-42.2705 107.699-41.626 106.643-40.7576 105.802-39.6655 104.96-38.5734 104.316-37.2843 103.868-35.7983 103.42-34.3123 103.161-32.7279 103.089-31.0449ZM178.481-45.2783C178.481-43.9893 178.446-42.9329 178.374-42.1094 178.302-41.2858 178.195-40.6413 178.052-40.1758 177.909-39.7103 177.721-39.388 177.488-39.209 177.255-39.0299 176.96-38.9404 176.602-38.9404 176.315-38.9404 175.993-39.0031 175.635-39.1284 175.277-39.2537 174.874-39.388 174.426-39.5312 173.979-39.6745 173.486-39.8088 172.949-39.9341 172.412-40.0594 171.821-40.1221 171.177-40.1221 170.425-40.1221 169.673-39.9699 168.921-39.6655 168.169-39.3612 167.39-38.8867 166.584-38.2422 165.779-37.5976 164.937-36.7383 164.06-35.6641 163.183-34.5898 162.243-33.265 161.24-31.6895L161.24-1.82617C161.24-1.4681 161.133-1.15479 160.918-0.88623 160.703-0.617676 160.336-0.39388 159.817-0.214844 159.298-0.0358073 158.608 0.09847 157.749 0.187988 156.89 0.277506 155.798 0.322266 154.473 0.322266 153.148 0.322266 152.056 0.277506 151.196 0.187988 150.337 0.09847 149.648-0.0358073 149.128-0.214844 148.609-0.39388 148.242-0.617676 148.027-0.88623 147.812-1.15479 147.705-1.4681 147.705-1.82617L147.705-49.7363C147.705-50.0944 147.795-50.4077 147.974-50.6763 148.153-50.9448 148.475-51.1686 148.94-51.3477 149.406-51.5267 150.006-51.661 150.74-51.7505 151.474-51.84 152.396-51.8848 153.506-51.8848 154.652-51.8848 155.601-51.84 156.353-51.7505 157.104-51.661 157.686-51.5267 158.098-51.3477 158.51-51.1686 158.805-50.9448 158.984-50.6763 159.163-50.4077 159.253-50.0944 159.253-49.7363L159.253-43.7744C160.506-45.5648 161.688-47.0418 162.798-48.2056 163.908-49.3693 164.964-50.2913 165.967-50.9717 166.969-51.652 167.972-52.1265 168.975-52.395 169.977-52.6636 170.98-52.7978 171.982-52.7978 172.448-52.7978 172.949-52.771 173.486-52.7173 174.023-52.6636 174.578-52.5741 175.151-52.4487 175.724-52.3234 176.226-52.1802 176.655-52.019 177.085-51.8579 177.398-51.6878 177.595-51.5088 177.792-51.3298 177.935-51.1328 178.025-50.918 178.114-50.7031 178.195-50.4077 178.267-50.0317 178.338-49.6558 178.392-49.0918 178.428-48.3398 178.464-47.5879 178.481-46.5674 178.481-45.2783ZM217.44-45.2783C217.44-43.9893 217.404-42.9329 217.332-42.1094 217.261-41.2858 217.153-40.6413 217.01-40.1758 216.867-39.7103 216.679-39.388 216.446-39.209 216.213-39.0299 215.918-38.9404 215.56-38.9404 215.273-38.9404 214.951-39.0031 214.593-39.1284 214.235-39.2537 213.832-39.388 213.385-39.5312 212.937-39.6745 212.445-39.8088 211.908-39.9341 211.37-40.0594 210.78-40.1221 210.135-40.1221 209.383-40.1221 208.631-39.9699 207.879-39.6655 207.127-39.3612 206.348-38.8867 205.543-38.2422 204.737-37.5976 203.896-36.7383 203.018-35.6641 202.141-34.5898 201.201-33.265 200.199-31.6895L200.199-1.82617C200.199-1.4681 200.091-1.15479 199.876-0.88623 199.661-0.617676 199.294-0.39388 198.775-0.214844 198.256-0.0358073 197.567 0.09847 196.707 0.187988 195.848 0.277506 194.756 0.322266 193.431 0.322266 192.106 0.322266 191.014 0.277506 190.155 0.187988 189.295 0.09847 188.606-0.0358073 188.087-0.214844 187.568-0.39388 187.201-0.617676 186.986-0.88623 186.771-1.15479 186.663-1.4681 186.663-1.82617L186.663-49.7363C186.663-50.0944 186.753-50.4077 186.932-50.6763 187.111-50.9448 187.433-51.1686 187.899-51.3477 188.364-51.5267 188.964-51.661 189.698-51.7505 190.432-51.84 191.354-51.8848 192.464-51.8848 193.61-51.8848 194.559-51.84 195.311-51.7505 196.063-51.661 196.645-51.5267 197.056-51.3477 197.468-51.1686 197.764-50.9448 197.943-50.6763 198.122-50.4077 198.211-50.0944 198.211-49.7363L198.211-43.7744C199.465-45.5648 200.646-47.0418 201.756-48.2056 202.866-49.3693 203.923-50.2913 204.925-50.9717 205.928-51.652 206.93-52.1265 207.933-52.395 208.936-52.6636 209.938-52.7978 210.941-52.7978 211.406-52.7978 211.908-52.771 212.445-52.7173 212.982-52.6636 213.537-52.5741 214.11-52.4487 214.683-52.3234 215.184-52.1802 215.614-52.019 216.043-51.8579 216.357-51.6878 216.554-51.5088 216.75-51.3298 216.894-51.1328 216.983-50.918 217.073-50.7031 217.153-50.4077 217.225-50.0317 217.297-49.6558 217.35-49.0918 217.386-48.3398 217.422-47.5879 217.44-46.5674 217.44-45.2783ZM269.88-27.1777C269.88-25.5306 269.513-24.3131 268.778-23.5254 268.044-22.7376 267.033-22.3437 265.744-22.3437L236.579-22.3437C236.579-20.3027 236.82-18.4497 237.304-16.7847 237.787-15.1196 238.557-13.7052 239.613-12.5415 240.67-11.3778 242.03-10.4915 243.695-9.88281 245.361-9.27409 247.357-8.96973 249.684-8.96973 252.048-8.96973 254.124-9.13981 255.915-9.47998 257.705-9.82015 259.254-10.1961 260.561-10.6079 261.868-11.0197 262.951-11.3957 263.81-11.7358 264.67-12.076 265.368-12.2461 265.905-12.2461 266.227-12.2461 266.496-12.1834 266.711-12.0581 266.925-11.9328 267.104-11.709 267.248-11.3867 267.391-11.0645 267.489-10.6079 267.543-10.0171 267.597-9.42627 267.624-8.68327 267.624-7.78809 267.624-7.00033 267.606-6.32894 267.57-5.77393 267.534-5.21891 267.48-4.74447 267.409-4.35059 267.337-3.95671 267.23-3.62549 267.087-3.35693 266.943-3.08838 266.755-2.82878 266.523-2.57812 266.29-2.32747 265.654-1.9873 264.616-1.55762 263.577-1.12793 262.253-0.707194 260.641-0.29541 259.03 0.116374 257.186 0.474447 255.109 0.778809 253.032 1.08317 250.812 1.23535 248.449 1.23535 244.188 1.23535 240.455 0.698242 237.25-0.375977 234.045-1.4502 231.369-3.07943 229.22-5.26367 227.072-7.44792 225.47-10.2051 224.413-13.5352 223.357-16.8652 222.829-20.7682 222.829-25.2441 222.829-29.5052 223.384-33.3455 224.494-36.7651 225.604-40.1847 227.215-43.0851 229.328-45.4663 231.44-47.8475 234.01-49.6647 237.035-50.918 240.061-52.1712 243.472-52.7978 247.267-52.7978 251.278-52.7978 254.706-52.207 257.553-51.0254 260.4-49.8437 262.736-48.2056 264.562-46.1108 266.388-44.0161 267.731-41.5365 268.59-38.6719 269.45-35.8073 269.88-32.6921 269.88-29.3262ZM256.774-31.0449C256.882-34.8405 256.121-37.8214 254.491-39.9878 252.862-42.1541 250.347-43.2373 246.945-43.2373 245.226-43.2373 243.731-42.915 242.46-42.2705 241.189-41.626 240.133-40.7576 239.291-39.6655 238.45-38.5734 237.805-37.2843 237.358-35.7983 236.91-34.3123 236.65-32.7279 236.579-31.0449Z" fill="#FFFFFF" fill-rule="nonzero" fill-opacity="1" transform="matrix(1 0 0 1 74.4082 144)"/></g></g><path d="M55.6445-10.5273C55.6445-9.63216 55.6177-8.87126 55.564-8.24463 55.5102-7.618 55.4297-7.08089 55.3223-6.6333 55.2148-6.18571 55.0716-5.80078 54.8926-5.47852 54.7135-5.15625 54.4271-4.78922 54.0332-4.37744 53.6393-3.96566 52.8784-3.4375 51.7505-2.79297 50.6226-2.14844 49.244-1.53076 47.6147-0.939941 45.9855-0.349121 44.1235 0.143229 42.0288 0.537109 39.9341 0.930989 37.6693 1.12793 35.2344 1.12793 30.472 1.12793 26.1751 0.39388 22.3437-1.07422 18.5124-2.54232 15.2539-4.73551 12.5684-7.65381 9.88281-10.5721 7.82389-14.2155 6.3916-18.584 4.95931-22.9525 4.24316-28.0371 4.24316-33.8379 4.24316-39.7461 5.03092-44.9919 6.60644-49.5752 8.18196-54.1585 10.3841-58.0078 13.2129-61.123 16.0417-64.2383 19.4344-66.6016 23.3911-68.2129 27.3478-69.8242 31.7074-70.6299 36.4697-70.6299 38.4033-70.6299 40.2653-70.4687 42.0557-70.1465 43.846-69.8242 45.5021-69.4035 47.0239-68.8843 48.5457-68.3651 49.9154-67.7653 51.1328-67.085 52.3503-66.4046 53.2007-65.8227 53.6841-65.3393 54.1675-64.8559 54.4987-64.4531 54.6777-64.1309 54.8568-63.8086 55-63.3968 55.1074-62.8955 55.2148-62.3942 55.2954-61.8034 55.3491-61.123 55.4028-60.4427 55.4297-59.6012 55.4297-58.5986 55.4297-57.5244 55.3939-56.6113 55.3223-55.8594 55.2506-55.1074 55.1253-54.4987 54.9463-54.0332 54.7672-53.5677 54.5524-53.2275 54.3018-53.0127 54.0511-52.7978 53.7646-52.6904 53.4424-52.6904 52.9053-52.6904 52.2249-53.0037 51.4014-53.6304 50.5778-54.257 49.5125-54.9552 48.2056-55.7251 46.8986-56.4949 45.341-57.1932 43.5327-57.8198 41.7244-58.4464 39.5671-58.7598 37.0605-58.7598 34.3034-58.7598 31.8416-58.1958 29.6753-57.0679 27.5089-55.9399 25.6649-54.3286 24.1431-52.2339 22.6213-50.1392 21.4665-47.6058 20.6787-44.6338 19.8909-41.6618 19.4971-38.3138 19.4971-34.5898 19.4971-30.5078 19.9178-26.9718 20.7593-23.9819 21.6007-20.992 22.8003-18.5303 24.3579-16.5967 25.9155-14.6631 27.7954-13.2218 29.9976-12.2729 32.1997-11.3241 34.6794-10.8496 37.4365-10.8496 39.943-10.8496 42.1094-11.145 43.9355-11.7358 45.7617-12.3267 47.3283-12.9801 48.6353-13.6963 49.9422-14.4124 51.0164-15.057 51.8579-15.6299 52.6994-16.2028 53.3529-16.4893 53.8184-16.4893 54.1764-16.4893 54.4629-16.4176 54.6777-16.2744 54.8926-16.1312 55.0716-15.8447 55.2148-15.415 55.3581-14.9853 55.4655-14.3856 55.5371-13.6157 55.6087-12.8459 55.6445-11.8164 55.6445-10.5273ZM78.7402-1.82617C78.7402-1.4681 78.6328-1.15479 78.418-0.88623 78.2031-0.617676 77.8361-0.39388 77.3169-0.214844 76.7977-0.0358073 76.1084 0.09847 75.249 0.187988 74.3896 0.277506 73.2975 0.322266 71.9726 0.322266 70.6478 0.322266 69.5557 0.277506 68.6963 0.187988 67.8369 0.09847 67.1476-0.0358073 66.6284-0.214844 66.1092-0.39388 65.7422-0.617676 65.5273-0.88623 65.3125-1.15479 65.2051-1.4681 65.2051-1.82617L65.2051-49.6289C65.2051-49.987 65.3125-50.3003 65.5273-50.5688 65.7422-50.8374 66.1092-51.0701 66.6284-51.2671 67.1476-51.464 67.8369-51.6162 68.6963-51.7236 69.5557-51.8311 70.6478-51.8848 71.9726-51.8848 73.2975-51.8848 74.3896-51.8311 75.249-51.7236 76.1084-51.6162 76.7977-51.464 77.3169-51.2671 77.8361-51.0701 78.2031-50.8374 78.418-50.5688 78.6328-50.3003 78.7402-49.987 78.7402-49.6289ZM79.7607-65.957C79.7607-63.2357 79.2057-61.3558 78.0957-60.3174 76.9857-59.279 74.9268-58.7598 71.9189-58.7598 68.8753-58.7598 66.8253-59.2611 65.769-60.2637 64.7127-61.2663 64.1846-63.0745 64.1846-65.6885 64.1846-68.4098 64.7306-70.2987 65.8227-71.355 66.9149-72.4113 68.9827-72.9394 72.0264-72.9394 75.0342-72.9394 77.0752-72.4292 78.1494-71.4087 79.2236-70.3882 79.7607-68.571 79.7607-65.957ZM136.39-27.1777C136.39-25.5306 136.023-24.3131 135.289-23.5254 134.555-22.7376 133.543-22.3437 132.254-22.3437L103.089-22.3437C103.089-20.3027 103.331-18.4497 103.814-16.7847 104.298-15.1196 105.068-13.7052 106.124-12.5415 107.18-11.3778 108.541-10.4915 110.206-9.88281 111.871-9.27409 113.867-8.96973 116.195-8.96973 118.558-8.96973 120.635-9.13981 122.425-9.47998 124.215-9.82015 125.764-10.1961 127.071-10.6079 128.378-11.0197 129.461-11.3957 130.321-11.7358 131.18-12.076 131.878-12.2461 132.415-12.2461 132.738-12.2461 133.006-12.1834 133.221-12.0581 133.436-11.9328 133.615-11.709 133.758-11.3867 133.901-11.0645 134-10.6079 134.054-10.0171 134.107-9.42627 134.134-8.68327 134.134-7.78809 134.134-7.00033 134.116-6.32894 134.08-5.77393 134.045-5.21891 133.991-4.74447 133.919-4.35059 133.848-3.95671 133.74-3.62549 133.597-3.35693 133.454-3.08838 133.266-2.82878 133.033-2.57812 132.8-2.32747 132.165-1.9873 131.126-1.55762 130.088-1.12793 128.763-0.707194 127.152-0.29541 125.54 0.116374 123.696 0.474447 121.619 0.778809 119.543 1.08317 117.323 1.23535 114.959 1.23535 110.698 1.23535 106.965 0.698242 103.761-0.375977 100.556-1.4502 97.8792-3.07943 95.7308-5.26367 93.5824-7.44792 91.98-10.2051 90.9237-13.5352 89.8673-16.8652 89.3392-20.7682 89.3392-25.2441 89.3392-29.5052 89.8942-33.3455 91.0042-36.7651 92.1143-40.1847 93.7256-43.0851 95.8382-45.4663 97.9508-47.8475 100.52-49.6647 103.546-50.918 106.571-52.1712 109.982-52.7978 113.778-52.7978 117.788-52.7978 121.217-52.207 124.063-51.0254 126.91-49.8437 129.246-48.2056 131.073-46.1108 132.899-44.0161 134.242-41.5365 135.101-38.6719 135.96-35.8073 136.39-32.6921 136.39-29.3262ZM123.285-31.0449C123.392-34.8405 122.631-37.8214 121.002-39.9878 119.373-42.1541 116.857-43.2373 113.455-43.2373 111.737-43.2373 110.242-42.915 108.971-42.2705 107.699-41.626 106.643-40.7576 105.802-39.6655 104.96-38.5734 104.316-37.2843 103.868-35.7983 103.42-34.3123 103.161-32.7279 103.089-31.0449ZM178.481-45.2783C178.481-43.9893 178.446-42.9329 178.374-42.1094 178.302-41.2858 178.195-40.6413 178.052-40.1758 177.909-39.7103 177.721-39.388 177.488-39.209 177.255-39.0299 176.96-38.9404 176.602-38.9404 176.315-38.9404 175.993-39.0031 175.635-39.1284 175.277-39.2537 174.874-39.388 174.426-39.5312 173.979-39.6745 173.486-39.8088 172.949-39.9341 172.412-40.0594 171.821-40.1221 171.177-40.1221 170.425-40.1221 169.673-39.9699 168.921-39.6655 168.169-39.3612 167.39-38.8867 166.584-38.2422 165.779-37.5976 164.937-36.7383 164.06-35.6641 163.183-34.5898 162.243-33.265 161.24-31.6895L161.24-1.82617C161.24-1.4681 161.133-1.15479 160.918-0.88623 160.703-0.617676 160.336-0.39388 159.817-0.214844 159.298-0.0358073 158.608 0.09847 157.749 0.187988 156.89 0.277506 155.798 0.322266 154.473 0.322266 153.148 0.322266 152.056 0.277506 151.196 0.187988 150.337 0.09847 149.648-0.0358073 149.128-0.214844 148.609-0.39388 148.242-0.617676 148.027-0.88623 147.812-1.15479 147.705-1.4681 147.705-1.82617L147.705-49.7363C147.705-50.0944 147.795-50.4077 147.974-50.6763 148.153-50.9448 148.475-51.1686 148.94-51.3477 149.406-51.5267 150.006-51.661 150.74-51.7505 151.474-51.84 152.396-51.8848 153.506-51.8848 154.652-51.8848 155.601-51.84 156.353-51.7505 157.104-51.661 157.686-51.5267 158.098-51.3477 158.51-51.1686 158.805-50.9448 158.984-50.6763 159.163-50.4077 159.253-50.0944 159.253-49.7363L159.253-43.7744C160.506-45.5648 161.688-47.0418 162.798-48.2056 163.908-49.3693 164.964-50.2913 165.967-50.9717 166.969-51.652 167.972-52.1265 168.975-52.395 169.977-52.6636 170.98-52.7978 171.982-52.7978 172.448-52.7978 172.949-52.771 173.486-52.7173 174.023-52.6636 174.578-52.5741 175.151-52.4487 175.724-52.3234 176.226-52.1802 176.655-52.019 177.085-51.8579 177.398-51.6878 177.595-51.5088 177.792-51.3298 177.935-51.1328 178.025-50.918 178.114-50.7031 178.195-50.4077 178.267-50.0317 178.338-49.6558 178.392-49.0918 178.428-48.3398 178.464-47.5879 178.481-46.5674 178.481-45.2783ZM217.44-45.2783C217.44-43.9893 217.404-42.9329 217.332-42.1094 217.261-41.2858 217.153-40.6413 217.01-40.1758 216.867-39.7103 216.679-39.388 216.446-39.209 216.213-39.0299 215.918-38.9404 215.56-38.9404 215.273-38.9404 214.951-39.0031 214.593-39.1284 214.235-39.2537 213.832-39.388 213.385-39.5312 212.937-39.6745 212.445-39.8088 211.908-39.9341 211.37-40.0594 210.78-40.1221 210.135-40.1221 209.383-40.1221 208.631-39.9699 207.879-39.6655 207.127-39.3612 206.348-38.8867 205.543-38.2422 204.737-37.5976 203.896-36.7383 203.018-35.6641 202.141-34.5898 201.201-33.265 200.199-31.6895L200.199-1.82617C200.199-1.4681 200.091-1.15479 199.876-0.88623 199.661-0.617676 199.294-0.39388 198.775-0.214844 198.256-0.0358073 197.567 0.09847 196.707 0.187988 195.848 0.277506 194.756 0.322266 193.431 0.322266 192.106 0.322266 191.014 0.277506 190.155 0.187988 189.295 0.09847 188.606-0.0358073 188.087-0.214844 187.568-0.39388 187.201-0.617676 186.986-0.88623 186.771-1.15479 186.663-1.4681 186.663-1.82617L186.663-49.7363C186.663-50.0944 186.753-50.4077 186.932-50.6763 187.111-50.9448 187.433-51.1686 187.899-51.3477 188.364-51.5267 188.964-51.661 189.698-51.7505 190.432-51.84 191.354-51.8848 192.464-51.8848 193.61-51.8848 194.559-51.84 195.311-51.7505 196.063-51.661 196.645-51.5267 197.056-51.3477 197.468-51.1686 197.764-50.9448 197.943-50.6763 198.122-50.4077 198.211-50.0944 198.211-49.7363L198.211-43.7744C199.465-45.5648 200.646-47.0418 201.756-48.2056 202.866-49.3693 203.923-50.2913 204.925-50.9717 205.928-51.652 206.93-52.1265 207.933-52.395 208.936-52.6636 209.938-52.7978 210.941-52.7978 211.406-52.7978 211.908-52.771 212.445-52.7173 212.982-52.6636 213.537-52.5741 214.11-52.4487 214.683-52.3234 215.184-52.1802 215.614-52.019 216.043-51.8579 216.357-51.6878 216.554-51.5088 216.75-51.3298 216.894-51.1328 216.983-50.918 217.073-50.7031 217.153-50.4077 217.225-50.0317 217.297-49.6558 217.35-49.0918 217.386-48.3398 217.422-47.5879 217.44-46.5674 217.44-45.2783ZM269.88-27.1777C269.88-25.5306 269.513-24.3131 268.778-23.5254 268.044-22.7376 267.033-22.3437 265.744-22.3437L236.579-22.3437C236.579-20.3027 236.82-18.4497 237.304-16.7847 237.787-15.1196 238.557-13.7052 239.613-12.5415 240.67-11.3778 242.03-10.4915 243.695-9.88281 245.361-9.27409 247.357-8.96973 249.684-8.96973 252.048-8.96973 254.124-9.13981 255.915-9.47998 257.705-9.82015 259.254-10.1961 260.561-10.6079 261.868-11.0197 262.951-11.3957 263.81-11.7358 264.67-12.076 265.368-12.2461 265.905-12.2461 266.227-12.2461 266.496-12.1834 266.711-12.0581 266.925-11.9328 267.104-11.709 267.248-11.3867 267.391-11.0645 267.489-10.6079 267.543-10.0171 267.597-9.42627 267.624-8.68327 267.624-7.78809 267.624-7.00033 267.606-6.32894 267.57-5.77393 267.534-5.21891 267.48-4.74447 267.409-4.35059 267.337-3.95671 267.23-3.62549 267.087-3.35693 266.943-3.08838 266.755-2.82878 266.523-2.57812 266.29-2.32747 265.654-1.9873 264.616-1.55762 263.577-1.12793 262.253-0.707194 260.641-0.29541 259.03 0.116374 257.186 0.474447 255.109 0.778809 253.032 1.08317 250.812 1.23535 248.449 1.23535 244.188 1.23535 240.455 0.698242 237.25-0.375977 234.045-1.4502 231.369-3.07943 229.22-5.26367 227.072-7.44792 225.47-10.2051 224.413-13.5352 223.357-16.8652 222.829-20.7682 222.829-25.2441 222.829-29.5052 223.384-33.3455 224.494-36.7651 225.604-40.1847 227.215-43.0851 229.328-45.4663 231.44-47.8475 234.01-49.6647 237.035-50.918 240.061-52.1712 243.472-52.7978 247.267-52.7978 251.278-52.7978 254.706-52.207 257.553-51.0254 260.4-49.8437 262.736-48.2056 264.562-46.1108 266.388-44.0161 267.731-41.5365 268.59-38.6719 269.45-35.8073 269.88-32.6921 269.88-29.3262ZM256.774-31.0449C256.882-34.8405 256.121-37.8214 254.491-39.9878 252.862-42.1541 250.347-43.2373 246.945-43.2373 245.226-43.2373 243.731-42.915 242.46-42.2705 241.189-41.626 240.133-40.7576 239.291-39.6655 238.45-38.5734 237.805-37.2843 237.358-35.7983 236.91-34.3123 236.65-32.7279 236.579-31.0449Z" fill="#FFFFFF" fill-rule="nonzero" fill-opacity="1" transform="matrix(1 0 0 1 84.947 154)"/><g clip-path="url(#clip18)" filter="url(#fx2)" transform="translate(45 153)"><g clip-path="url(#clip19)" transform="translate(-2663 -2097)"><path d="M43.9785-16.5312C43.9785-15.543 43.8288-14.7643 43.5293-14.1953 43.2298-13.6263 42.8105-13.3418 42.2715-13.3418L35.7129-13.3418 35.7129-1.12305C35.7129-0.883463 35.6512-0.681315 35.5279-0.516602 35.4046-0.351888 35.1887-0.209635 34.8801-0.0898437 34.5715 0.0299479 34.1705 0.119792 33.677 0.179687 33.1836 0.239583 32.5513 0.269531 31.7801 0.269531 31.0398 0.269531 30.423 0.239583 29.9295 0.179687 29.4361 0.119792 29.0428 0.0299479 28.7496-0.0898437 28.4565-0.209635 28.256-0.351888 28.1481-0.516602 28.0403-0.681315 27.9863-0.883463 27.9863-1.12305L27.9863-13.3418 4.20511-13.3418C3.84854-13.3418 3.55152-13.3867 3.31404-13.4766 3.07656-13.5664 2.86131-13.7311 2.66829-13.9707 2.47527-14.2103 2.34167-14.5547 2.2675-15.0039 2.19333-15.4531 2.15625-16.0371 2.15625-16.7559 2.15625-17.3249 2.17111-17.834 2.20082-18.2832 2.23053-18.7324 2.28985-19.1442 2.37875-19.5186 2.46766-19.8929 2.58617-20.2523 2.73427-20.5967 2.88237-20.9411 3.0603-21.3079 3.26807-21.6973L23.9883-57.0059C24.1408-57.2454 24.3622-57.4551 24.6523-57.6348 24.9424-57.8144 25.3165-57.9642 25.7746-58.084 26.2327-58.2038 26.7976-58.2861 27.4694-58.3311 28.1411-58.376 28.9348-58.3984 29.8506-58.3984 30.858-58.3984 31.7359-58.361 32.4841-58.2861 33.2324-58.2113 33.8354-58.1139 34.2933-57.9941 34.7512-57.8743 35.1022-57.7171 35.3465-57.5225 35.5908-57.3278 35.7129-57.0957 35.7129-56.8262L35.7129-19.7207 42.2715-19.7207C42.7806-19.7207 43.1924-19.4587 43.5068-18.9346 43.8213-18.4105 43.9785-17.6094 43.9785-16.5312ZM27.9863-51.6152 27.8979-51.6152 9.20898-19.7207 27.9863-19.7207ZM64.2402-35.9375C64.2402-34.9792 64.1728-34.1706 64.0381-33.5117 63.9033-32.8529 63.6488-32.3213 63.2744-31.917 62.9001-31.5127 62.4134-31.2282 61.8144-31.0635 61.2155-30.8988 60.4518-30.8164 59.5234-30.8164 58.5651-30.8164 57.7865-30.8988 57.1875-31.0635 56.5885-31.2282 56.1094-31.5127 55.75-31.917 55.3906-32.3213 55.1435-32.8529 55.0088-33.5117 54.874-34.1706 54.8066-34.9792 54.8066-35.9375 54.8066-36.9557 54.874-37.8018 55.0088-38.4756 55.1435-39.1494 55.3906-39.6885 55.75-40.0928 56.1094-40.4971 56.5885-40.7816 57.1875-40.9463 57.7865-41.111 58.5651-41.1934 59.5234-41.1934 60.4518-41.1934 61.2155-41.111 61.8144-40.9463 62.4134-40.7816 62.9001-40.4971 63.2744-40.0928 63.6488-39.6885 63.9033-39.1494 64.0381-38.4756 64.1728-37.8018 64.2402-36.9557 64.2402-35.9375ZM64.2402-4.76172C64.2402-3.77344 64.1728-2.94987 64.0381-2.29102 63.9033-1.63216 63.6488-1.10059 63.2744-0.696289 62.9001-0.291992 62.4134-0.00748697 61.8144 0.157227 61.2155 0.32194 60.4518 0.404297 59.5234 0.404297 58.5651 0.404297 57.7865 0.32194 57.1875 0.157227 56.5885-0.00748697 56.1094-0.291992 55.75-0.696289 55.3906-1.10059 55.1435-1.63216 55.0088-2.29102 54.874-2.94987 54.8066-3.77344 54.8066-4.76172 54.8066-5.75 54.874-6.58105 55.0088-7.25488 55.1435-7.92871 55.3906-8.46029 55.75-8.84961 56.1094-9.23893 56.5885-9.52344 57.1875-9.70312 57.7865-9.88281 58.5651-9.97266 59.5234-9.97266 60.4518-9.97266 61.2155-9.88281 61.8144-9.70312 62.4134-9.52344 62.9001-9.23893 63.2744-8.84961 63.6488-8.46029 63.9033-7.92871 64.0381-7.25488 64.1728-6.58105 64.2402-5.75 64.2402-4.76172ZM113.897-14.9141C113.897-12.3984 113.448-10.1598 112.549-8.19824 111.651-6.23665 110.356-4.58203 108.664-3.23437 106.972-1.88672 104.883-0.868489 102.397-0.179687 99.9115 0.509115 97.0664 0.853516 93.862 0.853516 90.8672 0.853516 88.1868 0.539062 85.821-0.0898437 83.4551-0.71875 81.4486-1.64714 79.8014-2.875 78.1543-4.10286 76.8965-5.61523 76.028-7.41211 75.1595-9.20898 74.7253-11.2604 74.7253-13.5664 74.7253-15.3932 75.0247-17.0703 75.6237-18.5977 76.2226-20.125 77.0836-21.5326 78.2067-22.8203 79.3297-24.1081 80.7148-25.3135 82.362-26.4365 84.0091-27.5596 85.8659-28.6302 87.9323-29.6484 86.1354-30.5768 84.5482-31.5576 83.1706-32.5908 81.793-33.624 80.625-34.7471 79.6667-35.96 78.7083-37.1728 77.9821-38.4681 77.488-39.8457 76.9938-41.2233 76.7467-42.7207 76.7467-44.3379 76.7467-46.3743 77.1136-48.2835 77.8473-50.0654 78.581-51.8473 79.6891-53.3971 81.1715-54.7148 82.654-56.0325 84.5407-57.0732 86.8317-57.8369 89.1227-58.6006 91.7956-58.9824 94.8503-58.9824 97.7851-58.9824 100.323-58.6305 102.465-57.9268 104.606-57.223 106.373-56.2646 107.765-55.0518 109.158-53.8389 110.184-52.4089 110.842-50.7617 111.501-49.1146 111.831-47.3476 111.831-45.4609 111.831-43.9336 111.584-42.4661 111.09-41.0586 110.595-39.651 109.869-38.3184 108.911-37.0605 107.952-35.8027 106.777-34.6273 105.384-33.5342 103.992-32.4411 102.397-31.4154 100.6-30.457 102.727-29.4089 104.621-28.3307 106.283-27.2227 107.945-26.1146 109.338-24.9242 110.461-23.6514 111.584-22.3786 112.437-21.0309 113.021-19.6084 113.605-18.1859 113.897-16.6211 113.897-14.9141ZM104.194-44.7422C104.194-46 103.977-47.138 103.543-48.1562 103.108-49.1745 102.472-50.043 101.633-50.7617 100.795-51.4805 99.7542-52.027 98.5114-52.4014 97.2686-52.7757 95.8535-52.9629 94.2663-52.9629 91.0319-52.9629 88.5836-52.2292 86.9215-50.7617 85.2594-49.2943 84.4284-47.2878 84.4284-44.7422 84.4284-43.5742 84.6305-42.4886 85.0348-41.4853 85.4391-40.4821 86.068-39.5312 86.9215-38.6328 87.7751-37.7344 88.8532-36.8584 90.1559-36.0049 91.4586-35.1514 93.0085-34.2604 94.8053-33.332 97.8301-34.8893 100.151-36.6113 101.768-38.498 103.385-40.3848 104.194-42.4661 104.194-44.7422ZM106.081-14.1055C106.081-15.4831 105.826-16.7334 105.317-17.8564 104.808-18.9795 104.037-20.0277 103.004-21.001 101.97-21.9743 100.683-22.9176 99.1403-23.8311 97.598-24.7445 95.8086-25.6953 93.7721-26.6836 91.8854-25.7552 90.2308-24.8268 88.8083-23.8984 87.3857-22.9701 86.2178-22.0117 85.3044-21.0234 84.3909-20.0352 83.7021-18.9945 83.238-17.9014 82.7738-16.8083 82.5417-15.6029 82.5417-14.2852 82.5417-11.3802 83.5374-9.13411 85.529-7.54687 87.5205-5.95963 90.4928-5.16601 94.446-5.16602 98.2793-5.16601 101.177-5.96712 103.138-7.56934 105.1-9.17155 106.081-11.3503 106.081-14.1055Z" fill="#FFFFFF" fill-rule="nonzero" fill-opacity="1" transform="matrix(1 0 0 1 61.948 120)"/></g></g><path d="M43.9785-16.5312C43.9785-15.543 43.8288-14.7643 43.5293-14.1953 43.2298-13.6263 42.8105-13.3418 42.2715-13.3418L35.7129-13.3418 35.7129-1.12305C35.7129-0.883463 35.6512-0.681315 35.5279-0.516602 35.4046-0.351888 35.1887-0.209635 34.8801-0.0898437 34.5715 0.0299479 34.1705 0.119792 33.677 0.179687 33.1836 0.239583 32.5513 0.269531 31.7801 0.269531 31.0398 0.269531 30.423 0.239583 29.9295 0.179687 29.4361 0.119792 29.0428 0.0299479 28.7496-0.0898437 28.4565-0.209635 28.256-0.351888 28.1481-0.516602 28.0403-0.681315 27.9863-0.883463 27.9863-1.12305L27.9863-13.3418 4.20511-13.3418C3.84854-13.3418 3.55152-13.3867 3.31404-13.4766 3.07656-13.5664 2.86131-13.7311 2.66829-13.9707 2.47527-14.2103 2.34167-14.5547 2.2675-15.0039 2.19333-15.4531 2.15625-16.0371 2.15625-16.7559 2.15625-17.3249 2.17111-17.834 2.20082-18.2832 2.23053-18.7324 2.28985-19.1442 2.37875-19.5186 2.46766-19.8929 2.58617-20.2523 2.73427-20.5967 2.88237-20.9411 3.0603-21.3079 3.26807-21.6973L23.9883-57.0059C24.1408-57.2454 24.3622-57.4551 24.6523-57.6348 24.9424-57.8144 25.3165-57.9642 25.7746-58.084 26.2327-58.2038 26.7976-58.2861 27.4694-58.3311 28.1411-58.376 28.9348-58.3984 29.8506-58.3984 30.858-58.3984 31.7359-58.361 32.4841-58.2861 33.2324-58.2113 33.8354-58.1139 34.2933-57.9941 34.7512-57.8743 35.1022-57.7171 35.3465-57.5225 35.5908-57.3278 35.7129-57.0957 35.7129-56.8262L35.7129-19.7207 42.2715-19.7207C42.7806-19.7207 43.1924-19.4587 43.5068-18.9346 43.8213-18.4105 43.9785-17.6094 43.9785-16.5312ZM27.9863-51.6152 27.8979-51.6152 9.20898-19.7207 27.9863-19.7207ZM64.2402-35.9375C64.2402-34.9792 64.1728-34.1706 64.0381-33.5117 63.9033-32.8529 63.6488-32.3213 63.2744-31.917 62.9001-31.5127 62.4134-31.2282 61.8144-31.0635 61.2155-30.8988 60.4518-30.8164 59.5234-30.8164 58.5651-30.8164 57.7865-30.8988 57.1875-31.0635 56.5885-31.2282 56.1094-31.5127 55.75-31.917 55.3906-32.3213 55.1435-32.8529 55.0088-33.5117 54.874-34.1706 54.8066-34.9792 54.8066-35.9375 54.8066-36.9557 54.874-37.8018 55.0088-38.4756 55.1435-39.1494 55.3906-39.6885 55.75-40.0928 56.1094-40.4971 56.5885-40.7816 57.1875-40.9463 57.7865-41.111 58.5651-41.1934 59.5234-41.1934 60.4518-41.1934 61.2155-41.111 61.8144-40.9463 62.4134-40.7816 62.9001-40.4971 63.2744-40.0928 63.6488-39.6885 63.9033-39.1494 64.0381-38.4756 64.1728-37.8018 64.2402-36.9557 64.2402-35.9375ZM64.2402-4.76172C64.2402-3.77344 64.1728-2.94987 64.0381-2.29102 63.9033-1.63216 63.6488-1.10059 63.2744-0.696289 62.9001-0.291992 62.4134-0.00748697 61.8144 0.157227 61.2155 0.32194 60.4518 0.404297 59.5234 0.404297 58.5651 0.404297 57.7865 0.32194 57.1875 0.157227 56.5885-0.00748697 56.1094-0.291992 55.75-0.696289 55.3906-1.10059 55.1435-1.63216 55.0088-2.29102 54.874-2.94987 54.8066-3.77344 54.8066-4.76172 54.8066-5.75 54.874-6.58105 55.0088-7.25488 55.1435-7.92871 55.3906-8.46029 55.75-8.84961 56.1094-9.23893 56.5885-9.52344 57.1875-9.70312 57.7865-9.88281 58.5651-9.97266 59.5234-9.97266 60.4518-9.97266 61.2155-9.88281 61.8144-9.70312 62.4134-9.52344 62.9001-9.23893 63.2744-8.84961 63.6488-8.46029 63.9033-7.92871 64.0381-7.25488 64.1728-6.58105 64.2402-5.75 64.2402-4.76172ZM113.897-14.9141C113.897-12.3984 113.448-10.1598 112.549-8.19824 111.651-6.23665 110.356-4.58203 108.664-3.23437 106.972-1.88672 104.883-0.868489 102.397-0.179687 99.9115 0.509115 97.0664 0.853516 93.862 0.853516 90.8672 0.853516 88.1868 0.539062 85.821-0.0898437 83.4551-0.71875 81.4486-1.64714 79.8014-2.875 78.1543-4.10286 76.8965-5.61523 76.028-7.41211 75.1595-9.20898 74.7253-11.2604 74.7253-13.5664 74.7253-15.3932 75.0247-17.0703 75.6237-18.5977 76.2226-20.125 77.0836-21.5326 78.2067-22.8203 79.3297-24.1081 80.7148-25.3135 82.362-26.4365 84.0091-27.5596 85.8659-28.6302 87.9323-29.6484 86.1354-30.5768 84.5482-31.5576 83.1706-32.5908 81.793-33.624 80.625-34.7471 79.6667-35.96 78.7083-37.1728 77.9821-38.4681 77.488-39.8457 76.9938-41.2233 76.7467-42.7207 76.7467-44.3379 76.7467-46.3743 77.1136-48.2835 77.8473-50.0654 78.581-51.8473 79.6891-53.3971 81.1715-54.7148 82.654-56.0325 84.5407-57.0732 86.8317-57.8369 89.1227-58.6006 91.7956-58.9824 94.8503-58.9824 97.7851-58.9824 100.323-58.6305 102.465-57.9268 104.606-57.223 106.373-56.2646 107.765-55.0518 109.158-53.8389 110.184-52.4089 110.842-50.7617 111.501-49.1146 111.831-47.3476 111.831-45.4609 111.831-43.9336 111.584-42.4661 111.09-41.0586 110.595-39.651 109.869-38.3184 108.911-37.0605 107.952-35.8027 106.777-34.6273 105.384-33.5342 103.992-32.4411 102.397-31.4154 100.6-30.457 102.727-29.4089 104.621-28.3307 106.283-27.2227 107.945-26.1146 109.338-24.9242 110.461-23.6514 111.584-22.3786 112.437-21.0309 113.021-19.6084 113.605-18.1859 113.897-16.6211 113.897-14.9141ZM104.194-44.7422C104.194-46 103.977-47.138 103.543-48.1562 103.108-49.1745 102.472-50.043 101.633-50.7617 100.795-51.4805 99.7542-52.027 98.5114-52.4014 97.2686-52.7757 95.8535-52.9629 94.2663-52.9629 91.0319-52.9629 88.5836-52.2292 86.9215-50.7617 85.2594-49.2943 84.4284-47.2878 84.4284-44.7422 84.4284-43.5742 84.6305-42.4886 85.0348-41.4853 85.4391-40.4821 86.068-39.5312 86.9215-38.6328 87.7751-37.7344 88.8532-36.8584 90.1559-36.0049 91.4586-35.1514 93.0085-34.2604 94.8053-33.332 97.8301-34.8893 100.151-36.6113 101.768-38.498 103.385-40.3848 104.194-42.4661 104.194-44.7422ZM106.081-14.1055C106.081-15.4831 105.826-16.7334 105.317-17.8564 104.808-18.9795 104.037-20.0277 103.004-21.001 101.97-21.9743 100.683-22.9176 99.1403-23.8311 97.598-24.7445 95.8086-25.6953 93.7721-26.6836 91.8854-25.7552 90.2308-24.8268 88.8083-23.8984 87.3857-22.9701 86.2178-22.0117 85.3044-21.0234 84.3909-20.0352 83.7021-18.9945 83.238-17.9014 82.7738-16.8083 82.5417-15.6029 82.5417-14.2852 82.5417-11.3802 83.5374-9.13411 85.529-7.54687 87.5205-5.95963 90.4928-5.16601 94.446-5.16602 98.2793-5.16601 101.177-5.96712 103.138-7.56934 105.1-9.17155 106.081-11.3503 106.081-14.1055Z" fill="#FFFFFF" fill-rule="nonzero" fill-opacity="1" transform="matrix(1 0 0 1 102.982 269)"/><g clip-path="url(#clip20)" filter="url(#fx3)" transform="translate(162 153)"><g clip-path="url(#clip21)" transform="translate(-2663 -2097)"><path d="M25.0664-22.6855C25.0664-21.5176 24.9316-20.709 24.6621-20.2598 24.3926-19.8105 24.0033-19.5859 23.4941-19.5859L4.7168-19.5859C4.17773-19.5859 3.77344-19.818 3.50391-20.2822 3.23437-20.7464 3.09961-21.5475 3.09961-22.6855 3.09961-23.8236 3.23437-24.6172 3.50391-25.0664 3.77344-25.5156 4.17773-25.7402 4.7168-25.7402L23.4941-25.7402C23.7337-25.7402 23.9508-25.6953 24.1455-25.6055 24.3402-25.5156 24.5049-25.3434 24.6396-25.0889 24.7744-24.8343 24.8792-24.5124 24.9541-24.123 25.029-23.7337 25.0664-23.2546 25.0664-22.6855Z" fill="#FFFFFF" fill-rule="nonzero" fill-opacity="1" transform="matrix(1 0 0 1 62.3959 120)"/></g></g><path d="M25.0664-22.6855C25.0664-21.5176 24.9316-20.709 24.6621-20.2598 24.3926-19.8105 24.0033-19.5859 23.4941-19.5859L4.7168-19.5859C4.17773-19.5859 3.77344-19.818 3.50391-20.2822 3.23437-20.7464 3.09961-21.5475 3.09961-22.6855 3.09961-23.8236 3.23437-24.6172 3.50391-25.0664 3.77344-25.5156 4.17773-25.7402 4.7168-25.7402L23.4941-25.7402C23.7337-25.7402 23.9508-25.6953 24.1455-25.6055 24.3402-25.5156 24.5049-25.3434 24.6396-25.0889 24.7744-24.8343 24.8792-24.5124 24.9541-24.123 25.029-23.7337 25.0664-23.2546 25.0664-22.6855Z" fill="#FFFFFF" fill-rule="nonzero" fill-opacity="1" transform="matrix(1 0 0 1 220.43 269)"/><g clip-path="url(#clip22)" filter="url(#fx4)" transform="translate(190 153)"><g clip-path="url(#clip23)" transform="translate(-2663 -2097)"><path d="M41.6426-3.05469C41.6426-2.48568 41.5977-2.00651 41.5078-1.61719 41.418-1.22786 41.2982-0.913411 41.1484-0.673828 40.9987-0.434245 40.8265-0.262044 40.6318-0.157227 40.4372-0.0524089 40.235 0 40.0254 0L9.6582 0C9.44857 0 9.2539-0.0524089 9.07422-0.157227 8.89453-0.262044 8.72233-0.434245 8.55762-0.673828 8.3929-0.913411 8.26562-1.22786 8.17578-1.61719 8.08594-2.00651 8.04101-2.48568 8.04101-3.05469 8.04101-3.59375 8.08594-4.05794 8.17578-4.44727 8.26562-4.83659 8.37793-5.15853 8.51269-5.41309 8.64746-5.66764 8.81217-5.8623 9.00683-5.99707 9.2015-6.13184 9.41862-6.19922 9.6582-6.19922L21.7871-6.19922 21.7871-50.4023 10.5566-43.709C9.98763-43.4095 9.53092-43.2298 9.18652-43.1699 8.84212-43.11 8.5651-43.1774 8.35547-43.3721 8.14583-43.5667 8.00358-43.8887 7.92871-44.3379 7.85384-44.7871 7.81641-45.3561 7.81641-46.0449 7.81641-46.554 7.83887-46.9883 7.88379-47.3477 7.92871-47.707 7.99609-48.0065 8.08594-48.2461 8.17578-48.4857 8.30306-48.6953 8.46777-48.875 8.63249-49.0547 8.84961-49.2344 9.11914-49.4141L22.5059-57.9941C22.6256-58.084 22.7754-58.1588 22.9551-58.2187 23.1348-58.2786 23.3594-58.3385 23.6289-58.3984 23.8984-58.4583 24.2129-58.4958 24.5723-58.5107 24.9316-58.5257 25.3809-58.5332 25.9199-58.5332 26.6387-58.5332 27.2376-58.5033 27.7168-58.4434 28.196-58.3835 28.5703-58.3011 28.8398-58.1963 29.1094-58.0915 29.2891-57.9567 29.3789-57.792 29.4687-57.6273 29.5137-57.4551 29.5137-57.2754L29.5137-6.19922 40.0254-6.19922C40.265-6.19922 40.4896-6.13184 40.6992-5.99707 40.9088-5.8623 41.081-5.66764 41.2158-5.41309 41.3506-5.15853 41.4554-4.83659 41.5303-4.44727 41.6051-4.05794 41.6426-3.59375 41.6426-3.05469ZM89.2617-14.9141C89.2617-12.3984 88.8125-10.1598 87.9141-8.19824 87.0156-6.23665 85.7204-4.58203 84.0283-3.23437 82.3363-1.88672 80.2474-0.868489 77.7617-0.179687 75.276 0.509115 72.431 0.853516 69.2266 0.853516 66.2318 0.853516 63.5514 0.539062 61.1855-0.0898437 58.8197-0.71875 56.8131-1.64714 55.166-2.875 53.5189-4.10286 52.2611-5.61523 51.3926-7.41211 50.5241-9.20898 50.0898-11.2604 50.0898-13.5664 50.0898-15.3932 50.3893-17.0703 50.9883-18.5977 51.5872-20.125 52.4482-21.5326 53.5713-22.8203 54.6943-24.1081 56.0794-25.3135 57.7266-26.4365 59.3737-27.5596 61.2305-28.6302 63.2969-29.6484 61.5-30.5768 59.9128-31.5576 58.5352-32.5908 57.1575-33.624 55.9896-34.7471 55.0312-35.96 54.0729-37.1728 53.3467-38.4681 52.8525-39.8457 52.3584-41.2233 52.1113-42.7207 52.1113-44.3379 52.1113-46.3743 52.4782-48.2835 53.2119-50.0654 53.9456-51.8473 55.0537-53.3971 56.5361-54.7148 58.0185-56.0325 59.9053-57.0732 62.1963-57.8369 64.4873-58.6006 67.1601-58.9824 70.2148-58.9824 73.1497-58.9824 75.6878-58.6305 77.8291-57.9268 79.9704-57.223 81.7373-56.2646 83.1299-55.0518 84.5225-53.8389 85.5482-52.4089 86.207-50.7617 86.8659-49.1146 87.1953-47.3476 87.1953-45.4609 87.1953-43.9336 86.9482-42.4661 86.4541-41.0586 85.9599-39.651 85.2337-38.3184 84.2754-37.0605 83.317-35.8027 82.1416-34.6273 80.749-33.5342 79.3564-32.4411 77.7617-31.4154 75.9648-30.457 78.0911-29.4089 79.9853-28.3307 81.6475-27.2227 83.3096-26.1146 84.7021-24.9242 85.8252-23.6514 86.9482-22.3786 87.8018-21.0309 88.3857-19.6084 88.9697-18.1859 89.2617-16.6211 89.2617-14.9141ZM79.5586-44.7422C79.5586-46 79.3415-47.138 78.9072-48.1562 78.473-49.1745 77.8366-50.043 76.998-50.7617 76.1595-51.4805 75.1188-52.027 73.876-52.4014 72.6331-52.7757 71.2181-52.9629 69.6309-52.9629 66.3965-52.9629 63.9482-52.2292 62.2861-50.7617 60.624-49.2943 59.793-47.2878 59.793-44.7422 59.793-43.5742 59.9951-42.4886 60.3994-41.4853 60.8037-40.4821 61.4326-39.5312 62.2861-38.6328 63.1396-37.7344 64.2178-36.8584 65.5205-36.0049 66.8232-35.1514 68.373-34.2604 70.1699-33.332 73.1947-34.8893 75.5156-36.6113 77.1328-38.498 78.75-40.3848 79.5586-42.4661 79.5586-44.7422ZM81.4453-14.1055C81.4453-15.4831 81.1908-16.7334 80.6816-17.8564 80.1725-18.9795 79.4014-20.0277 78.3682-21.001 77.3349-21.9743 76.0472-22.9176 74.5049-23.8311 72.9626-24.7445 71.1732-25.6953 69.1367-26.6836 67.25-25.7552 65.5954-24.8268 64.1728-23.8984 62.7503-22.9701 61.5824-22.0117 60.6689-21.0234 59.7555-20.0352 59.0667-18.9945 58.6025-17.9014 58.1383-16.8083 57.9062-15.6029 57.9062-14.2852 57.9062-11.3802 58.902-9.13411 60.8936-7.54687 62.8851-5.95963 65.8574-5.16601 69.8105-5.16602 73.6439-5.16601 76.5413-5.96712 78.5029-7.56934 80.4645-9.17155 81.4453-11.3503 81.4453-14.1055Z" fill="#FFFFFF" fill-rule="nonzero" fill-opacity="1" transform="matrix(1 0 0 1 62.4688 120)"/></g></g><path d="M41.6426-3.05469C41.6426-2.48568 41.5977-2.00651 41.5078-1.61719 41.418-1.22786 41.2982-0.913411 41.1484-0.673828 40.9987-0.434245 40.8265-0.262044 40.6318-0.157227 40.4372-0.0524089 40.235 0 40.0254 0L9.6582 0C9.44857 0 9.2539-0.0524089 9.07422-0.157227 8.89453-0.262044 8.72233-0.434245 8.55762-0.673828 8.3929-0.913411 8.26562-1.22786 8.17578-1.61719 8.08594-2.00651 8.04101-2.48568 8.04101-3.05469 8.04101-3.59375 8.08594-4.05794 8.17578-4.44727 8.26562-4.83659 8.37793-5.15853 8.51269-5.41309 8.64746-5.66764 8.81217-5.8623 9.00683-5.99707 9.2015-6.13184 9.41862-6.19922 9.6582-6.19922L21.7871-6.19922 21.7871-50.4023 10.5566-43.709C9.98763-43.4095 9.53092-43.2298 9.18652-43.1699 8.84212-43.11 8.5651-43.1774 8.35547-43.3721 8.14583-43.5667 8.00358-43.8887 7.92871-44.3379 7.85384-44.7871 7.81641-45.3561 7.81641-46.0449 7.81641-46.554 7.83887-46.9883 7.88379-47.3477 7.92871-47.707 7.99609-48.0065 8.08594-48.2461 8.17578-48.4857 8.30306-48.6953 8.46777-48.875 8.63249-49.0547 8.84961-49.2344 9.11914-49.4141L22.5059-57.9941C22.6256-58.084 22.7754-58.1588 22.9551-58.2187 23.1348-58.2786 23.3594-58.3385 23.6289-58.3984 23.8984-58.4583 24.2129-58.4958 24.5723-58.5107 24.9316-58.5257 25.3809-58.5332 25.9199-58.5332 26.6387-58.5332 27.2376-58.5033 27.7168-58.4434 28.196-58.3835 28.5703-58.3011 28.8398-58.1963 29.1094-58.0915 29.2891-57.9567 29.3789-57.792 29.4687-57.6273 29.5137-57.4551 29.5137-57.2754L29.5137-6.19922 40.0254-6.19922C40.265-6.19922 40.4896-6.13184 40.6992-5.99707 40.9088-5.8623 41.081-5.66764 41.2158-5.41309 41.3506-5.15853 41.4554-4.83659 41.5303-4.44727 41.6051-4.05794 41.6426-3.59375 41.6426-3.05469ZM89.2617-14.9141C89.2617-12.3984 88.8125-10.1598 87.9141-8.19824 87.0156-6.23665 85.7204-4.58203 84.0283-3.23437 82.3363-1.88672 80.2474-0.868489 77.7617-0.179687 75.276 0.509115 72.431 0.853516 69.2266 0.853516 66.2318 0.853516 63.5514 0.539062 61.1855-0.0898437 58.8197-0.71875 56.8131-1.64714 55.166-2.875 53.5189-4.10286 52.2611-5.61523 51.3926-7.41211 50.5241-9.20898 50.0898-11.2604 50.0898-13.5664 50.0898-15.3932 50.3893-17.0703 50.9883-18.5977 51.5872-20.125 52.4482-21.5326 53.5713-22.8203 54.6943-24.1081 56.0794-25.3135 57.7266-26.4365 59.3737-27.5596 61.2305-28.6302 63.2969-29.6484 61.5-30.5768 59.9128-31.5576 58.5352-32.5908 57.1575-33.624 55.9896-34.7471 55.0312-35.96 54.0729-37.1728 53.3467-38.4681 52.8525-39.8457 52.3584-41.2233 52.1113-42.7207 52.1113-44.3379 52.1113-46.3743 52.4782-48.2835 53.2119-50.0654 53.9456-51.8473 55.0537-53.3971 56.5361-54.7148 58.0185-56.0325 59.9053-57.0732 62.1963-57.8369 64.4873-58.6006 67.1601-58.9824 70.2148-58.9824 73.1497-58.9824 75.6878-58.6305 77.8291-57.9268 79.9704-57.223 81.7373-56.2646 83.1299-55.0518 84.5225-53.8389 85.5482-52.4089 86.207-50.7617 86.8659-49.1146 87.1953-47.3476 87.1953-45.4609 87.1953-43.9336 86.9482-42.4661 86.4541-41.0586 85.9599-39.651 85.2337-38.3184 84.2754-37.0605 83.317-35.8027 82.1416-34.6273 80.749-33.5342 79.3564-32.4411 77.7617-31.4154 75.9648-30.457 78.0911-29.4089 79.9853-28.3307 81.6475-27.2227 83.3096-26.1146 84.7021-24.9242 85.8252-23.6514 86.9482-22.3786 87.8018-21.0309 88.3857-19.6084 88.9697-18.1859 89.2617-16.6211 89.2617-14.9141ZM79.5586-44.7422C79.5586-46 79.3415-47.138 78.9072-48.1562 78.473-49.1745 77.8366-50.043 76.998-50.7617 76.1595-51.4805 75.1188-52.027 73.876-52.4014 72.6331-52.7757 71.2181-52.9629 69.6309-52.9629 66.3965-52.9629 63.9482-52.2292 62.2861-50.7617 60.624-49.2943 59.793-47.2878 59.793-44.7422 59.793-43.5742 59.9951-42.4886 60.3994-41.4853 60.8037-40.4821 61.4326-39.5312 62.2861-38.6328 63.1396-37.7344 64.2178-36.8584 65.5205-36.0049 66.8232-35.1514 68.373-34.2604 70.1699-33.332 73.1947-34.8893 75.5156-36.6113 77.1328-38.498 78.75-40.3848 79.5586-42.4661 79.5586-44.7422ZM81.4453-14.1055C81.4453-15.4831 81.1908-16.7334 80.6816-17.8564 80.1725-18.9795 79.4014-20.0277 78.3682-21.001 77.3349-21.9743 76.0472-22.9176 74.5049-23.8311 72.9626-24.7445 71.1732-25.6953 69.1367-26.6836 67.25-25.7552 65.5954-24.8268 64.1728-23.8984 62.7503-22.9701 61.5824-22.0117 60.6689-21.0234 59.7555-20.0352 59.0667-18.9945 58.6025-17.9014 58.1383-16.8083 57.9062-15.6029 57.9062-14.2852 57.9062-11.3802 58.902-9.13411 60.8936-7.54687 62.8851-5.95963 65.8574-5.16601 69.8105-5.16602 73.6439-5.16601 76.5413-5.96712 78.5029-7.56934 80.4645-9.17155 81.4453-11.3503 81.4453-14.1055Z" fill="#FFFFFF" fill-rule="nonzero" fill-opacity="1" transform="matrix(1 0 0 1 248.503 269)"/></g></g></g><rect x="2500.5" y="2136.5" width="770" height="250" stroke="#000000" stroke-width="3.4375" stroke-linecap="butt" stroke-linejoin="round" stroke-miterlimit="10" stroke-opacity="1" fill="#008000" fill-opacity="1"/><g clip-path="url(#clip24)" filter="url(#fx6)" transform="translate(2678 2103)"><g clip-path="url(#clip25)"><path d="M55.6445-10.5273C55.6445-9.63216 55.6177-8.87126 55.564-8.24463 55.5102-7.618 55.4297-7.08089 55.3223-6.6333 55.2148-6.18571 55.0716-5.80078 54.8926-5.47852 54.7135-5.15625 54.4271-4.78922 54.0332-4.37744 53.6393-3.96566 52.8784-3.4375 51.7505-2.79297 50.6226-2.14844 49.244-1.53076 47.6147-0.939941 45.9855-0.349121 44.1235 0.143229 42.0288 0.537109 39.9341 0.930989 37.6693 1.12793 35.2344 1.12793 30.472 1.12793 26.1751 0.39388 22.3437-1.07422 18.5124-2.54232 15.2539-4.73551 12.5684-7.65381 9.88281-10.5721 7.82389-14.2155 6.3916-18.584 4.95931-22.9525 4.24316-28.0371 4.24316-33.8379 4.24316-39.7461 5.03092-44.9919 6.60644-49.5752 8.18196-54.1585 10.3841-58.0078 13.2129-61.123 16.0417-64.2383 19.4344-66.6016 23.3911-68.2129 27.3478-69.8242 31.7074-70.6299 36.4697-70.6299 38.4033-70.6299 40.2653-70.4687 42.0557-70.1465 43.846-69.8242 45.5021-69.4035 47.0239-68.8843 48.5457-68.3651 49.9154-67.7653 51.1328-67.085 52.3503-66.4046 53.2007-65.8227 53.6841-65.3393 54.1675-64.8559 54.4987-64.4531 54.6777-64.1309 54.8568-63.8086 55-63.3968 55.1074-62.8955 55.2148-62.3942 55.2954-61.8034 55.3491-61.123 55.4028-60.4427 55.4297-59.6012 55.4297-58.5986 55.4297-57.5244 55.3939-56.6113 55.3223-55.8594 55.2506-55.1074 55.1253-54.4987 54.9463-54.0332 54.7672-53.5677 54.5524-53.2275 54.3018-53.0127 54.0511-52.7978 53.7646-52.6904 53.4424-52.6904 52.9053-52.6904 52.2249-53.0037 51.4014-53.6304 50.5778-54.257 49.5125-54.9552 48.2056-55.7251 46.8986-56.4949 45.341-57.1932 43.5327-57.8198 41.7244-58.4464 39.5671-58.7598 37.0605-58.7598 34.3034-58.7598 31.8416-58.1958 29.6753-57.0679 27.5089-55.9399 25.6649-54.3286 24.1431-52.2339 22.6213-50.1392 21.4665-47.6058 20.6787-44.6338 19.8909-41.6618 19.4971-38.3138 19.4971-34.5898 19.4971-30.5078 19.9178-26.9718 20.7593-23.9819 21.6007-20.992 22.8003-18.5303 24.3579-16.5967 25.9155-14.6631 27.7954-13.2218 29.9976-12.2729 32.1997-11.3241 34.6794-10.8496 37.4365-10.8496 39.943-10.8496 42.1094-11.145 43.9355-11.7358 45.7617-12.3267 47.3283-12.9801 48.6353-13.6963 49.9422-14.4124 51.0164-15.057 51.8579-15.6299 52.6994-16.2028 53.3529-16.4893 53.8184-16.4893 54.1764-16.4893 54.4629-16.4176 54.6777-16.2744 54.8926-16.1312 55.0716-15.8447 55.2148-15.415 55.3581-14.9853 55.4655-14.3856 55.5371-13.6157 55.6087-12.8459 55.6445-11.8164 55.6445-10.5273ZM78.7402-1.82617C78.7402-1.4681 78.6328-1.15479 78.418-0.88623 78.2031-0.617676 77.8361-0.39388 77.3169-0.214844 76.7977-0.0358073 76.1084 0.09847 75.249 0.187988 74.3896 0.277506 73.2975 0.322266 71.9726 0.322266 70.6478 0.322266 69.5557 0.277506 68.6963 0.187988 67.8369 0.09847 67.1476-0.0358073 66.6284-0.214844 66.1092-0.39388 65.7422-0.617676 65.5273-0.88623 65.3125-1.15479 65.2051-1.4681 65.2051-1.82617L65.2051-49.6289C65.2051-49.987 65.3125-50.3003 65.5273-50.5688 65.7422-50.8374 66.1092-51.0701 66.6284-51.2671 67.1476-51.464 67.8369-51.6162 68.6963-51.7236 69.5557-51.8311 70.6478-51.8848 71.9726-51.8848 73.2975-51.8848 74.3896-51.8311 75.249-51.7236 76.1084-51.6162 76.7977-51.464 77.3169-51.2671 77.8361-51.0701 78.2031-50.8374 78.418-50.5688 78.6328-50.3003 78.7402-49.987 78.7402-49.6289ZM79.7607-65.957C79.7607-63.2357 79.2057-61.3558 78.0957-60.3174 76.9857-59.279 74.9268-58.7598 71.9189-58.7598 68.8753-58.7598 66.8253-59.2611 65.769-60.2637 64.7127-61.2663 64.1846-63.0745 64.1846-65.6885 64.1846-68.4098 64.7306-70.2987 65.8227-71.355 66.9149-72.4113 68.9827-72.9394 72.0264-72.9394 75.0342-72.9394 77.0752-72.4292 78.1494-71.4087 79.2236-70.3882 79.7607-68.571 79.7607-65.957ZM136.39-27.1777C136.39-25.5306 136.023-24.3131 135.289-23.5254 134.555-22.7376 133.543-22.3437 132.254-22.3437L103.089-22.3437C103.089-20.3027 103.331-18.4497 103.814-16.7847 104.298-15.1196 105.068-13.7052 106.124-12.5415 107.18-11.3778 108.541-10.4915 110.206-9.88281 111.871-9.27409 113.867-8.96973 116.195-8.96973 118.558-8.96973 120.635-9.13981 122.425-9.47998 124.215-9.82015 125.764-10.1961 127.071-10.6079 128.378-11.0197 129.461-11.3957 130.321-11.7358 131.18-12.076 131.878-12.2461 132.415-12.2461 132.738-12.2461 133.006-12.1834 133.221-12.0581 133.436-11.9328 133.615-11.709 133.758-11.3867 133.901-11.0645 134-10.6079 134.054-10.0171 134.107-9.42627 134.134-8.68327 134.134-7.78809 134.134-7.00033 134.116-6.32894 134.08-5.77393 134.045-5.21891 133.991-4.74447 133.919-4.35059 133.848-3.95671 133.74-3.62549 133.597-3.35693 133.454-3.08838 133.266-2.82878 133.033-2.57812 132.8-2.32747 132.165-1.9873 131.126-1.55762 130.088-1.12793 128.763-0.707194 127.152-0.29541 125.54 0.116374 123.696 0.474447 121.619 0.778809 119.543 1.08317 117.323 1.23535 114.959 1.23535 110.698 1.23535 106.965 0.698242 103.761-0.375977 100.556-1.4502 97.8792-3.07943 95.7308-5.26367 93.5824-7.44792 91.98-10.2051 90.9237-13.5352 89.8673-16.8652 89.3392-20.7682 89.3392-25.2441 89.3392-29.5052 89.8942-33.3455 91.0042-36.7651 92.1143-40.1847 93.7256-43.0851 95.8382-45.4663 97.9508-47.8475 100.52-49.6647 103.546-50.918 106.571-52.1712 109.982-52.7978 113.778-52.7978 117.788-52.7978 121.217-52.207 124.063-51.0254 126.91-49.8437 129.246-48.2056 131.073-46.1108 132.899-44.0161 134.242-41.5365 135.101-38.6719 135.96-35.8073 136.39-32.6921 136.39-29.3262ZM123.285-31.0449C123.392-34.8405 122.631-37.8214 121.002-39.9878 119.373-42.1541 116.857-43.2373 113.455-43.2373 111.737-43.2373 110.242-42.915 108.971-42.2705 107.699-41.626 106.643-40.7576 105.802-39.6655 104.96-38.5734 104.316-37.2843 103.868-35.7983 103.42-34.3123 103.161-32.7279 103.089-31.0449ZM178.481-45.2783C178.481-43.9893 178.446-42.9329 178.374-42.1094 178.302-41.2858 178.195-40.6413 178.052-40.1758 177.909-39.7103 177.721-39.388 177.488-39.209 177.255-39.0299 176.96-38.9404 176.602-38.9404 176.315-38.9404 175.993-39.0031 175.635-39.1284 175.277-39.2537 174.874-39.388 174.426-39.5312 173.979-39.6745 173.486-39.8088 172.949-39.9341 172.412-40.0594 171.821-40.1221 171.177-40.1221 170.425-40.1221 169.673-39.9699 168.921-39.6655 168.169-39.3612 167.39-38.8867 166.584-38.2422 165.779-37.5976 164.937-36.7383 164.06-35.6641 163.183-34.5898 162.243-33.265 161.24-31.6895L161.24-1.82617C161.24-1.4681 161.133-1.15479 160.918-0.88623 160.703-0.617676 160.336-0.39388 159.817-0.214844 159.298-0.0358073 158.608 0.09847 157.749 0.187988 156.89 0.277506 155.798 0.322266 154.473 0.322266 153.148 0.322266 152.056 0.277506 151.196 0.187988 150.337 0.09847 149.648-0.0358073 149.128-0.214844 148.609-0.39388 148.242-0.617676 148.027-0.88623 147.812-1.15479 147.705-1.4681 147.705-1.82617L147.705-49.7363C147.705-50.0944 147.795-50.4077 147.974-50.6763 148.153-50.9448 148.475-51.1686 148.94-51.3477 149.406-51.5267 150.006-51.661 150.74-51.7505 151.474-51.84 152.396-51.8848 153.506-51.8848 154.652-51.8848 155.601-51.84 156.353-51.7505 157.104-51.661 157.686-51.5267 158.098-51.3477 158.51-51.1686 158.805-50.9448 158.984-50.6763 159.163-50.4077 159.253-50.0944 159.253-49.7363L159.253-43.7744C160.506-45.5648 161.688-47.0418 162.798-48.2056 163.908-49.3693 164.964-50.2913 165.967-50.9717 166.969-51.652 167.972-52.1265 168.975-52.395 169.977-52.6636 170.98-52.7978 171.982-52.7978 172.448-52.7978 172.949-52.771 173.486-52.7173 174.023-52.6636 174.578-52.5741 175.151-52.4487 175.724-52.3234 176.226-52.1802 176.655-52.019 177.085-51.8579 177.398-51.6878 177.595-51.5088 177.792-51.3298 177.935-51.1328 178.025-50.918 178.114-50.7031 178.195-50.4077 178.267-50.0317 178.338-49.6558 178.392-49.0918 178.428-48.3398 178.464-47.5879 178.481-46.5674 178.481-45.2783ZM217.44-45.2783C217.44-43.9893 217.404-42.9329 217.332-42.1094 217.261-41.2858 217.153-40.6413 217.01-40.1758 216.867-39.7103 216.679-39.388 216.446-39.209 216.213-39.0299 215.918-38.9404 215.56-38.9404 215.273-38.9404 214.951-39.0031 214.593-39.1284 214.235-39.2537 213.832-39.388 213.385-39.5312 212.937-39.6745 212.445-39.8088 211.908-39.9341 211.37-40.0594 210.78-40.1221 210.135-40.1221 209.383-40.1221 208.631-39.9699 207.879-39.6655 207.127-39.3612 206.348-38.8867 205.543-38.2422 204.737-37.5976 203.896-36.7383 203.018-35.6641 202.141-34.5898 201.201-33.265 200.199-31.6895L200.199-1.82617C200.199-1.4681 200.091-1.15479 199.876-0.88623 199.661-0.617676 199.294-0.39388 198.775-0.214844 198.256-0.0358073 197.567 0.09847 196.707 0.187988 195.848 0.277506 194.756 0.322266 193.431 0.322266 192.106 0.322266 191.014 0.277506 190.155 0.187988 189.295 0.09847 188.606-0.0358073 188.087-0.214844 187.568-0.39388 187.201-0.617676 186.986-0.88623 186.771-1.15479 186.663-1.4681 186.663-1.82617L186.663-49.7363C186.663-50.0944 186.753-50.4077 186.932-50.6763 187.111-50.9448 187.433-51.1686 187.899-51.3477 188.364-51.5267 188.964-51.661 189.698-51.7505 190.432-51.84 191.354-51.8848 192.464-51.8848 193.61-51.8848 194.559-51.84 195.311-51.7505 196.063-51.661 196.645-51.5267 197.056-51.3477 197.468-51.1686 197.764-50.9448 197.943-50.6763 198.122-50.4077 198.211-50.0944 198.211-49.7363L198.211-43.7744C199.465-45.5648 200.646-47.0418 201.756-48.2056 202.866-49.3693 203.923-50.2913 204.925-50.9717 205.928-51.652 206.93-52.1265 207.933-52.395 208.936-52.6636 209.938-52.7978 210.941-52.7978 211.406-52.7978 211.908-52.771 212.445-52.7173 212.982-52.6636 213.537-52.5741 214.11-52.4487 214.683-52.3234 215.184-52.1802 215.614-52.019 216.043-51.8579 216.357-51.6878 216.554-51.5088 216.75-51.3298 216.894-51.1328 216.983-50.918 217.073-50.7031 217.153-50.4077 217.225-50.0317 217.297-49.6558 217.35-49.0918 217.386-48.3398 217.422-47.5879 217.44-46.5674 217.44-45.2783ZM269.88-27.1777C269.88-25.5306 269.513-24.3131 268.778-23.5254 268.044-22.7376 267.033-22.3437 265.744-22.3437L236.579-22.3437C236.579-20.3027 236.82-18.4497 237.304-16.7847 237.787-15.1196 238.557-13.7052 239.613-12.5415 240.67-11.3778 242.03-10.4915 243.695-9.88281 245.361-9.27409 247.357-8.96973 249.684-8.96973 252.048-8.96973 254.124-9.13981 255.915-9.47998 257.705-9.82015 259.254-10.1961 260.561-10.6079 261.868-11.0197 262.951-11.3957 263.81-11.7358 264.67-12.076 265.368-12.2461 265.905-12.2461 266.227-12.2461 266.496-12.1834 266.711-12.0581 266.925-11.9328 267.104-11.709 267.248-11.3867 267.391-11.0645 267.489-10.6079 267.543-10.0171 267.597-9.42627 267.624-8.68327 267.624-7.78809 267.624-7.00033 267.606-6.32894 267.57-5.77393 267.534-5.21891 267.48-4.74447 267.409-4.35059 267.337-3.95671 267.23-3.62549 267.087-3.35693 266.943-3.08838 266.755-2.82878 266.523-2.57812 266.29-2.32747 265.654-1.9873 264.616-1.55762 263.577-1.12793 262.253-0.707194 260.641-0.29541 259.03 0.116374 257.186 0.474447 255.109 0.778809 253.032 1.08317 250.812 1.23535 248.449 1.23535 244.188 1.23535 240.455 0.698242 237.25-0.375977 234.045-1.4502 231.369-3.07943 229.22-5.26367 227.072-7.44792 225.47-10.2051 224.413-13.5352 223.357-16.8652 222.829-20.7682 222.829-25.2441 222.829-29.5052 223.384-33.3455 224.494-36.7651 225.604-40.1847 227.215-43.0851 229.328-45.4663 231.44-47.8475 234.01-49.6647 237.035-50.918 240.061-52.1712 243.472-52.7978 247.267-52.7978 251.278-52.7978 254.706-52.207 257.553-51.0254 260.4-49.8437 262.736-48.2056 264.562-46.1108 266.388-44.0161 267.731-41.5365 268.59-38.6719 269.45-35.8073 269.88-32.6921 269.88-29.3262ZM256.774-31.0449C256.882-34.8405 256.121-37.8214 254.491-39.9878 252.862-42.1541 250.347-43.2373 246.945-43.2373 245.226-43.2373 243.731-42.915 242.46-42.2705 241.189-41.626 240.133-40.7576 239.291-39.6655 238.45-38.5734 237.805-37.2843 237.358-35.7983 236.91-34.3123 236.65-32.7279 236.579-31.0449Z" fill="#FFFFFF" fill-rule="nonzero" fill-opacity="1" transform="matrix(1 0 0 1 74.4082 144)"/></g></g><text fill="#FFFFFF" fill-opacity="1" font-family="Calibri,Calibri_MSFontService,sans-serif" font-style="normal" font-variant="normal" font-weight="700" font-stretch="normal" font-size="110" text-anchor="start" direction="ltr" writing-mode="lr-tb" unicode-bidi="normal" text-decoration="none" transform="matrix(1 0 0 1 2747.95 2243)">Cierre</text><g clip-path="url(#clip26)" filter="url(#fx7)" transform="translate(2708 2241)"><g clip-path="url(#clip27)"><path d="M43.9785-16.5312C43.9785-15.543 43.8288-14.7643 43.5293-14.1953 43.2298-13.6263 42.8105-13.3418 42.2715-13.3418L35.7129-13.3418 35.7129-1.12305C35.7129-0.883463 35.6512-0.681315 35.5279-0.516602 35.4046-0.351888 35.1887-0.209635 34.8801-0.0898437 34.5715 0.0299479 34.1705 0.119792 33.677 0.179687 33.1836 0.239583 32.5513 0.269531 31.7801 0.269531 31.0398 0.269531 30.423 0.239583 29.9295 0.179687 29.4361 0.119792 29.0428 0.0299479 28.7496-0.0898437 28.4565-0.209635 28.256-0.351888 28.1481-0.516602 28.0403-0.681315 27.9863-0.883463 27.9863-1.12305L27.9863-13.3418 4.20511-13.3418C3.84854-13.3418 3.55152-13.3867 3.31404-13.4766 3.07656-13.5664 2.86131-13.7311 2.66829-13.9707 2.47527-14.2103 2.34167-14.5547 2.2675-15.0039 2.19333-15.4531 2.15625-16.0371 2.15625-16.7559 2.15625-17.3249 2.17111-17.834 2.20082-18.2832 2.23053-18.7324 2.28985-19.1442 2.37875-19.5186 2.46766-19.8929 2.58617-20.2523 2.73427-20.5967 2.88237-20.9411 3.0603-21.3079 3.26807-21.6973L23.9883-57.0059C24.1408-57.2454 24.3622-57.4551 24.6523-57.6348 24.9424-57.8144 25.3165-57.9642 25.7746-58.084 26.2327-58.2038 26.7976-58.2861 27.4694-58.3311 28.1411-58.376 28.9348-58.3984 29.8506-58.3984 30.858-58.3984 31.7359-58.361 32.4841-58.2861 33.2324-58.2113 33.8354-58.1139 34.2933-57.9941 34.7512-57.8743 35.1022-57.7171 35.3465-57.5225 35.5908-57.3278 35.7129-57.0957 35.7129-56.8262L35.7129-19.7207 42.2715-19.7207C42.7806-19.7207 43.1924-19.4587 43.5068-18.9346 43.8213-18.4105 43.9785-17.6094 43.9785-16.5312ZM27.9863-51.6152 27.8979-51.6152 9.20898-19.7207 27.9863-19.7207ZM64.2402-35.9375C64.2402-34.9792 64.1728-34.1706 64.0381-33.5117 63.9033-32.8529 63.6488-32.3213 63.2744-31.917 62.9001-31.5127 62.4134-31.2282 61.8144-31.0635 61.2155-30.8988 60.4518-30.8164 59.5234-30.8164 58.5651-30.8164 57.7865-30.8988 57.1875-31.0635 56.5885-31.2282 56.1094-31.5127 55.75-31.917 55.3906-32.3213 55.1435-32.8529 55.0088-33.5117 54.874-34.1706 54.8066-34.9792 54.8066-35.9375 54.8066-36.9557 54.874-37.8018 55.0088-38.4756 55.1435-39.1494 55.3906-39.6885 55.75-40.0928 56.1094-40.4971 56.5885-40.7816 57.1875-40.9463 57.7865-41.111 58.5651-41.1934 59.5234-41.1934 60.4518-41.1934 61.2155-41.111 61.8144-40.9463 62.4134-40.7816 62.9001-40.4971 63.2744-40.0928 63.6488-39.6885 63.9033-39.1494 64.0381-38.4756 64.1728-37.8018 64.2402-36.9557 64.2402-35.9375ZM64.2402-4.76172C64.2402-3.77344 64.1728-2.94987 64.0381-2.29102 63.9033-1.63216 63.6488-1.10059 63.2744-0.696289 62.9001-0.291992 62.4134-0.00748697 61.8144 0.157227 61.2155 0.32194 60.4518 0.404297 59.5234 0.404297 58.5651 0.404297 57.7865 0.32194 57.1875 0.157227 56.5885-0.00748697 56.1094-0.291992 55.75-0.696289 55.3906-1.10059 55.1435-1.63216 55.0088-2.29102 54.874-2.94987 54.8066-3.77344 54.8066-4.76172 54.8066-5.75 54.874-6.58105 55.0088-7.25488 55.1435-7.92871 55.3906-8.46029 55.75-8.84961 56.1094-9.23893 56.5885-9.52344 57.1875-9.70312 57.7865-9.88281 58.5651-9.97266 59.5234-9.97266 60.4518-9.97266 61.2155-9.88281 61.8144-9.70312 62.4134-9.52344 62.9001-9.23893 63.2744-8.84961 63.6488-8.46029 63.9033-7.92871 64.0381-7.25488 64.1728-6.58105 64.2402-5.75 64.2402-4.76172ZM113.897-14.9141C113.897-12.3984 113.448-10.1598 112.549-8.19824 111.651-6.23665 110.356-4.58203 108.664-3.23437 106.972-1.88672 104.883-0.868489 102.397-0.179687 99.9115 0.509115 97.0664 0.853516 93.862 0.853516 90.8672 0.853516 88.1868 0.539062 85.821-0.0898437 83.4551-0.71875 81.4486-1.64714 79.8014-2.875 78.1543-4.10286 76.8965-5.61523 76.028-7.41211 75.1595-9.20898 74.7253-11.2604 74.7253-13.5664 74.7253-15.3932 75.0247-17.0703 75.6237-18.5977 76.2226-20.125 77.0836-21.5326 78.2067-22.8203 79.3297-24.1081 80.7148-25.3135 82.362-26.4365 84.0091-27.5596 85.8659-28.6302 87.9323-29.6484 86.1354-30.5768 84.5482-31.5576 83.1706-32.5908 81.793-33.624 80.625-34.7471 79.6667-35.96 78.7083-37.1728 77.9821-38.4681 77.488-39.8457 76.9938-41.2233 76.7467-42.7207 76.7467-44.3379 76.7467-46.3743 77.1136-48.2835 77.8473-50.0654 78.581-51.8473 79.6891-53.3971 81.1715-54.7148 82.654-56.0325 84.5407-57.0732 86.8317-57.8369 89.1227-58.6006 91.7956-58.9824 94.8503-58.9824 97.7851-58.9824 100.323-58.6305 102.465-57.9268 104.606-57.223 106.373-56.2646 107.765-55.0518 109.158-53.8389 110.184-52.4089 110.842-50.7617 111.501-49.1146 111.831-47.3476 111.831-45.4609 111.831-43.9336 111.584-42.4661 111.09-41.0586 110.595-39.651 109.869-38.3184 108.911-37.0605 107.952-35.8027 106.777-34.6273 105.384-33.5342 103.992-32.4411 102.397-31.4154 100.6-30.457 102.727-29.4089 104.621-28.3307 106.283-27.2227 107.945-26.1146 109.338-24.9242 110.461-23.6514 111.584-22.3786 112.437-21.0309 113.021-19.6084 113.605-18.1859 113.897-16.6211 113.897-14.9141ZM104.194-44.7422C104.194-46 103.977-47.138 103.543-48.1562 103.108-49.1745 102.472-50.043 101.633-50.7617 100.795-51.4805 99.7542-52.027 98.5114-52.4014 97.2686-52.7757 95.8535-52.9629 94.2663-52.9629 91.0319-52.9629 88.5836-52.2292 86.9215-50.7617 85.2594-49.2943 84.4284-47.2878 84.4284-44.7422 84.4284-43.5742 84.6305-42.4886 85.0348-41.4853 85.4391-40.4821 86.068-39.5312 86.9215-38.6328 87.7751-37.7344 88.8532-36.8584 90.1559-36.0049 91.4586-35.1514 93.0085-34.2604 94.8053-33.332 97.8301-34.8893 100.151-36.6113 101.768-38.498 103.385-40.3848 104.194-42.4661 104.194-44.7422ZM106.081-14.1055C106.081-15.4831 105.826-16.7334 105.317-17.8564 104.808-18.9795 104.037-20.0277 103.004-21.001 101.97-21.9743 100.683-22.9176 99.1403-23.8311 97.598-24.7445 95.8086-25.6953 93.7721-26.6836 91.8854-25.7552 90.2308-24.8268 88.8083-23.8984 87.3857-22.9701 86.2178-22.0117 85.3044-21.0234 84.3909-20.0352 83.7021-18.9945 83.238-17.9014 82.7738-16.8083 82.5417-15.6029 82.5417-14.2852 82.5417-11.3802 83.5374-9.13411 85.529-7.54687 87.5205-5.95963 90.4928-5.16601 94.446-5.16602 98.2793-5.16601 101.177-5.96712 103.138-7.56934 105.1-9.17155 106.081-11.3503 106.081-14.1055Z" fill="#FFFFFF" fill-rule="nonzero" fill-opacity="1" transform="matrix(1 0 0 1 61.948 121)"/></g></g><text fill="#FFFFFF" fill-opacity="1" font-family="Calibri,Calibri_MSFontService,sans-serif" font-style="normal" font-variant="normal" font-weight="400" font-stretch="normal" font-size="92" text-anchor="start" direction="ltr" writing-mode="lr-tb" unicode-bidi="normal" text-decoration="none" transform="matrix(1 0 0 1 2765.98 2358)">4:8</text><g clip-path="url(#clip28)" filter="url(#fx8)" transform="translate(2825 2241)"><g clip-path="url(#clip29)"><path d="M25.0664-22.6855C25.0664-21.5176 24.9316-20.709 24.6621-20.2598 24.3926-19.8105 24.0033-19.5859 23.4941-19.5859L4.7168-19.5859C4.17773-19.5859 3.77344-19.818 3.50391-20.2822 3.23437-20.7464 3.09961-21.5475 3.09961-22.6855 3.09961-23.8236 3.23437-24.6172 3.50391-25.0664 3.77344-25.5156 4.17773-25.7402 4.7168-25.7402L23.4941-25.7402C23.7337-25.7402 23.9508-25.6953 24.1455-25.6055 24.3402-25.5156 24.5049-25.3434 24.6396-25.0889 24.7744-24.8343 24.8792-24.5124 24.9541-24.123 25.029-23.7337 25.0664-23.2546 25.0664-22.6855Z" fill="#FFFFFF" fill-rule="nonzero" fill-opacity="1" transform="matrix(1 0 0 1 62.396 121)"/></g></g><text fill="#FFFFFF" fill-opacity="1" font-family="Calibri,Calibri_MSFontService,sans-serif" font-style="normal" font-variant="normal" font-weight="400" font-stretch="normal" font-size="92" text-anchor="start" direction="ltr" writing-mode="lr-tb" unicode-bidi="normal" text-decoration="none" transform="matrix(1 0 0 1 2883.43 2358)">-</text><g clip-path="url(#clip30)" filter="url(#fx9)" transform="translate(2853 2241)"><g clip-path="url(#clip31)"><path d="M41.6426-3.05469C41.6426-2.48568 41.5977-2.00651 41.5078-1.61719 41.418-1.22786 41.2982-0.913411 41.1484-0.673828 40.9987-0.434245 40.8265-0.262044 40.6318-0.157227 40.4372-0.0524089 40.235 0 40.0254 0L9.6582 0C9.44857 0 9.2539-0.0524089 9.07422-0.157227 8.89453-0.262044 8.72233-0.434245 8.55762-0.673828 8.3929-0.913411 8.26562-1.22786 8.17578-1.61719 8.08594-2.00651 8.04101-2.48568 8.04101-3.05469 8.04101-3.59375 8.08594-4.05794 8.17578-4.44727 8.26562-4.83659 8.37793-5.15853 8.51269-5.41309 8.64746-5.66764 8.81217-5.8623 9.00683-5.99707 9.2015-6.13184 9.41862-6.19922 9.6582-6.19922L21.7871-6.19922 21.7871-50.4023 10.5566-43.709C9.98763-43.4095 9.53092-43.2298 9.18652-43.1699 8.84212-43.11 8.5651-43.1774 8.35547-43.3721 8.14583-43.5667 8.00358-43.8887 7.92871-44.3379 7.85384-44.7871 7.81641-45.3561 7.81641-46.0449 7.81641-46.554 7.83887-46.9883 7.88379-47.3477 7.92871-47.707 7.99609-48.0065 8.08594-48.2461 8.17578-48.4857 8.30306-48.6953 8.46777-48.875 8.63249-49.0547 8.84961-49.2344 9.11914-49.4141L22.5059-57.9941C22.6256-58.084 22.7754-58.1588 22.9551-58.2187 23.1348-58.2786 23.3594-58.3385 23.6289-58.3984 23.8984-58.4583 24.2129-58.4958 24.5723-58.5107 24.9316-58.5257 25.3809-58.5332 25.9199-58.5332 26.6387-58.5332 27.2376-58.5033 27.7168-58.4434 28.196-58.3835 28.5703-58.3011 28.8398-58.1963 29.1094-58.0915 29.2891-57.9567 29.3789-57.792 29.4687-57.6273 29.5137-57.4551 29.5137-57.2754L29.5137-6.19922 40.0254-6.19922C40.265-6.19922 40.4896-6.13184 40.6992-5.99707 40.9088-5.8623 41.081-5.66764 41.2158-5.41309 41.3506-5.15853 41.4554-4.83659 41.5303-4.44727 41.6051-4.05794 41.6426-3.59375 41.6426-3.05469ZM89.2617-14.9141C89.2617-12.3984 88.8125-10.1598 87.9141-8.19824 87.0156-6.23665 85.7204-4.58203 84.0283-3.23437 82.3363-1.88672 80.2474-0.868489 77.7617-0.179687 75.276 0.509115 72.431 0.853516 69.2266 0.853516 66.2318 0.853516 63.5514 0.539062 61.1855-0.0898437 58.8197-0.71875 56.8131-1.64714 55.166-2.875 53.5189-4.10286 52.2611-5.61523 51.3926-7.41211 50.5241-9.20898 50.0898-11.2604 50.0898-13.5664 50.0898-15.3932 50.3893-17.0703 50.9883-18.5977 51.5872-20.125 52.4482-21.5326 53.5713-22.8203 54.6943-24.1081 56.0794-25.3135 57.7266-26.4365 59.3737-27.5596 61.2305-28.6302 63.2969-29.6484 61.5-30.5768 59.9128-31.5576 58.5352-32.5908 57.1575-33.624 55.9896-34.7471 55.0312-35.96 54.0729-37.1728 53.3467-38.4681 52.8525-39.8457 52.3584-41.2233 52.1113-42.7207 52.1113-44.3379 52.1113-46.3743 52.4782-48.2835 53.2119-50.0654 53.9456-51.8473 55.0537-53.3971 56.5361-54.7148 58.0185-56.0325 59.9053-57.0732 62.1963-57.8369 64.4873-58.6006 67.1601-58.9824 70.2148-58.9824 73.1497-58.9824 75.6878-58.6305 77.8291-57.9268 79.9704-57.223 81.7373-56.2646 83.1299-55.0518 84.5225-53.8389 85.5482-52.4089 86.207-50.7617 86.8659-49.1146 87.1953-47.3476 87.1953-45.4609 87.1953-43.9336 86.9482-42.4661 86.4541-41.0586 85.9599-39.651 85.2337-38.3184 84.2754-37.0605 83.317-35.8027 82.1416-34.6273 80.749-33.5342 79.3564-32.4411 77.7617-31.4154 75.9648-30.457 78.0911-29.4089 79.9853-28.3307 81.6475-27.2227 83.3096-26.1146 84.7021-24.9242 85.8252-23.6514 86.9482-22.3786 87.8018-21.0309 88.3857-19.6084 88.9697-18.1859 89.2617-16.6211 89.2617-14.9141ZM79.5586-44.7422C79.5586-46 79.3415-47.138 78.9072-48.1562 78.473-49.1745 77.8366-50.043 76.998-50.7617 76.1595-51.4805 75.1188-52.027 73.876-52.4014 72.6331-52.7757 71.2181-52.9629 69.6309-52.9629 66.3965-52.9629 63.9482-52.2292 62.2861-50.7617 60.624-49.2943 59.793-47.2878 59.793-44.7422 59.793-43.5742 59.9951-42.4886 60.3994-41.4853 60.8037-40.4821 61.4326-39.5312 62.2861-38.6328 63.1396-37.7344 64.2178-36.8584 65.5205-36.0049 66.8232-35.1514 68.373-34.2604 70.1699-33.332 73.1947-34.8893 75.5156-36.6113 77.1328-38.498 78.75-40.3848 79.5586-42.4661 79.5586-44.7422ZM81.4453-14.1055C81.4453-15.4831 81.1908-16.7334 80.6816-17.8564 80.1725-18.9795 79.4014-20.0277 78.3682-21.001 77.3349-21.9743 76.0472-22.9176 74.5049-23.8311 72.9626-24.7445 71.1732-25.6953 69.1367-26.6836 67.25-25.7552 65.5954-24.8268 64.1728-23.8984 62.7503-22.9701 61.5824-22.0117 60.6689-21.0234 59.7555-20.0352 59.0667-18.9945 58.6025-17.9014 58.1383-16.8083 57.9062-15.6029 57.9062-14.2852 57.9062-11.3802 58.902-9.13411 60.8936-7.54687 62.8851-5.95963 65.8574-5.16601 69.8105-5.16602 73.6439-5.16601 76.5413-5.96712 78.5029-7.56934 80.4645-9.17155 81.4453-11.3503 81.4453-14.1055Z" fill="#FFFFFF" fill-rule="nonzero" fill-opacity="1" transform="matrix(1 0 0 1 62.4688 121)"/></g></g><text fill="#FFFFFF" fill-opacity="1" font-family="Calibri,Calibri_MSFontService,sans-serif" font-style="normal" font-variant="normal" font-weight="400" font-stretch="normal" font-size="92" text-anchor="start" direction="ltr" writing-mode="lr-tb" unicode-bidi="normal" text-decoration="none" transform="matrix(1 0 0 1 2911.5 2358)">18</text></g></svg>