<svg width="2626" height="206" xmlns="http://www.w3.org/2000/svg" xmlns:xlink="http://www.w3.org/1999/xlink" xml:space="preserve" overflow="hidden"><defs><filter id="fx0" x="-10%" y="-10%" width="120%" height="120%" filterUnits="userSpaceOnUse" primitiveUnits="userSpaceOnUse"><feComponentTransfer color-interpolation-filters="sRGB"><feFuncR type="discrete" tableValues="0.752941 0.752941"/><feFuncG type="discrete" tableValues="0.752941 0.752941"/><feFuncB type="discrete" tableValues="0.752941 0.752941"/><feFuncA type="linear" slope="0.800000" intercept="0.000000"/></feComponentTransfer><feGaussianBlur stdDeviation="0.000000 0.000000"/></filter><clipPath id="clip1"><rect x="385" y="55" width="2626" height="206"/></clipPath><clipPath id="clip2"><rect x="1.16669" y="1.16666" width="2612.5" height="192.5"/></clipPath><clipPath id="clip3"><rect x="0" y="0" width="2615" height="195"/></clipPath></defs><g clip-path="url(#clip1)" transform="translate(-385 -55)"><g clip-path="url(#clip2)" filter="url(#fx0)" transform="translate(393 63)"><g clip-path="url(#clip3)"><path d="M1664.13 117.463C1646.35 122.774 1634.87 126.535 1629.69 128.748 1620.39 132.642 1613.74 136.713 1609.74 140.961 1605.73 145.21 1603.73 149.856 1603.73 154.901 1603.73 161.274 1606.26 166.562 1611.33 170.766 1616.39 174.97 1622.22 177.072 1628.81 177.072 1637.76 177.072 1649.53 172.647 1664.13 163.796 1664.13 148.352 1664.13 132.907 1664.13 117.463ZM709.617 117.463C691.838 122.774 680.357 126.535 675.177 128.748 665.875 132.642 659.222 136.713 655.219 140.961 651.215 145.21 649.214 149.856 649.214 154.901 649.214 161.274 651.745 166.562 656.808 170.766 661.871 174.97 667.7 177.072 674.294 177.072 683.242 177.072 695.016 172.647 709.617 163.796 709.617 148.352 709.617 132.907 709.617 117.463ZM2530.3 73.3873C2524.06 73.3873 2517.79 74.7813 2511.49 77.5692 2505.19 80.3572 2500.1 85.2471 2496.22 92.2391 2492.33 99.231 2490.39 108.214 2490.39 119.189 2490.39 136.89 2495.07 152.157 2504.43 164.991 2513.79 177.824 2526.12 184.241 2541.43 184.241 2552.85 184.241 2562.27 180.701 2569.69 173.62 2577.11 166.54 2580.82 154.37 2580.82 137.111 2580.82 115.516 2574.63 98.523 2562.27 86.1322 2553.91 77.6356 2543.26 73.3873 2530.3 73.3873ZM1113.6 73.3873C1107.36 73.3873 1101.09 74.7813 1094.79 77.5692 1088.49 80.3572 1083.4 85.2471 1079.51 92.2391 1075.63 99.231 1073.68 108.214 1073.68 119.189 1073.68 136.89 1078.36 152.157 1087.72 164.991 1097.09 177.824 1109.42 184.241 1124.73 184.241 1136.15 184.241 1145.57 180.701 1152.98 173.62 1160.4 166.54 1164.11 154.37 1164.11 137.111 1164.11 115.516 1157.93 98.523 1145.57 86.1322 1137.21 77.6356 1126.55 73.3873 1113.6 73.3873ZM2091.39 72.8563C2081.03 72.8563 2071.79 76.3523 2063.66 83.3442 2052.95 92.5488 2047.59 106.002 2047.59 123.703 2047.59 141.581 2052.77 155.277 2063.13 164.792 2073.49 174.306 2085.03 179.063 2097.75 179.063 2108.46 179.063 2118.82 175.036 2128.83 166.982 2128.83 146.095 2128.83 125.207 2128.83 104.32 2128.13 98.3017 2126.01 92.8144 2122.47 87.858 2118.94 82.9017 2114.26 79.1623 2108.43 76.6399 2102.61 74.1175 2096.92 72.8563 2091.39 72.8563ZM1724.93 68.3425C1750.3 68.3425 1775.68 68.3425 1801.05 68.3425 1801.05 69.9799 1801.05 71.6172 1801.05 73.2546 1799.4 73.2546 1797.75 73.2546 1796.11 73.2546 1791.51 73.2546 1788.01 74.0954 1785.6 75.777 1783.18 77.4586 1781.98 79.7155 1781.98 82.5477 1781.98 85.6454 1783.21 89.3184 1785.69 93.5667 1798.23 115.959 1810.77 138.351 1823.31 160.742 1835.9 137.51 1848.5 114.277 1861.1 91.0442 1863.81 86.0879 1865.16 82.3264 1865.16 79.7598 1865.16 78.5207 1864.69 77.5029 1863.75 76.7063 1862.46 75.3787 1860.81 74.4715 1858.81 73.9847 1856.8 73.498 1852.74 73.2546 1846.62 73.2546 1846.62 71.6172 1846.62 69.9799 1846.62 68.3425 1864.22 68.3425 1881.82 68.3425 1899.43 68.3425 1899.43 69.9799 1899.43 71.6172 1899.43 73.2546 1893.3 73.6086 1889.07 74.5379 1886.71 76.0425 1882.59 78.6977 1878.88 83.123 1875.58 89.3184 1856.45 124.101 1837.32 158.884 1818.18 193.667 1815.77 193.667 1813.36 193.667 1810.94 193.667 1791.69 159.459 1772.44 125.252 1753.19 91.0442 1750.6 86.2649 1748.13 82.8353 1745.77 80.7554 1743.42 78.6756 1740.41 76.9276 1736.76 75.5115 1734.76 74.7149 1730.82 73.9626 1724.93 73.2546 1724.93 71.6172 1724.93 69.9799 1724.93 68.3425ZM2535.78 64.758C2560.27 64.758 2579.93 71.75 2594.77 85.7339 2607.37 97.6822 2613.67 111.401 2613.67 126.889 2613.67 137.775 2610.19 148.794 2603.25 159.946 2596.3 171.098 2586.73 179.506 2574.55 185.17 2562.36 190.834 2548.79 193.667 2533.84 193.667 2509.46 193.667 2490.09 186.365 2475.73 171.761 2463.6 159.459 2457.54 145.652 2457.54 130.341 2457.54 119.189 2461.22 108.104 2468.58 97.0847 2475.93 86.0658 2485.62 77.9233 2497.63 72.6572 2509.64 67.3911 2522.36 64.758 2535.78 64.758ZM2374.13 64.758C2390.03 64.758 2403.1 67.9221 2413.34 74.2503 2423.59 80.5784 2428.71 87.15 2428.71 93.9649 2428.71 97.3281 2427.27 100.05 2424.38 102.13 2421.5 104.209 2417.46 105.249 2412.28 105.249 2405.34 105.249 2400.1 103.568 2396.56 100.205 2394.56 98.346 2393.24 94.8057 2392.59 89.5839 2391.94 84.362 2389.56 80.3793 2385.44 77.6356 2381.32 74.9805 2375.61 73.6529 2368.31 73.6529 2356.53 73.6529 2347.05 76.9276 2339.87 83.477 2330.33 92.1506 2325.56 103.612 2325.56 117.861 2325.56 132.376 2330.3 145.188 2339.78 156.295 2349.26 167.403 2362.07 172.956 2378.2 172.956 2389.74 172.956 2400.1 169.991 2409.28 164.061 2415.76 159.99 2422.06 152.6 2428.18 141.891 2429.89 142.51 2431.59 143.13 2433.3 143.749 2428.94 159.769 2420.41 172.093 2407.69 180.723 2394.98 189.352 2380.9 193.667 2365.48 193.667 2347.11 193.667 2331.1 187.87 2317.44 176.275 2303.78 164.681 2296.95 149.015 2296.95 129.279 2296.95 110.161 2304.52 94.6287 2319.65 82.6804 2334.78 70.7322 2352.94 64.758 2374.13 64.758ZM2243.46 64.758C2246.05 64.758 2248.64 64.758 2251.23 64.758 2251.23 97.3281 2251.23 129.898 2251.23 162.468 2251.23 170.08 2251.96 175.147 2253.44 177.669 2254.91 180.192 2257.09 182.072 2259.97 183.311 2262.86 184.551 2268.13 185.17 2275.78 185.17 2275.78 186.763 2275.78 188.356 2275.78 189.949 2249.58 189.949 2223.38 189.949 2197.18 189.949 2197.18 188.356 2197.18 186.763 2197.18 185.17 2205.07 185.17 2210.37 184.595 2213.08 183.444 2215.79 182.294 2217.94 180.391 2219.53 177.736 2221.12 175.08 2221.91 169.991 2221.91 162.468 2221.91 146.847 2221.91 131.226 2221.91 115.605 2221.91 102.417 2221.38 93.8764 2220.32 89.9822 2219.5 87.15 2218.2 85.1807 2216.44 84.0744 2214.67 82.9681 2212.25 82.4149 2209.19 82.4149 2205.9 82.4149 2201.89 83.0787 2197.18 84.4063 2196.36 82.8132 2195.54 81.2201 2194.71 79.627 2210.96 74.6707 2227.21 69.7143 2243.46 64.758ZM1962.13 64.758C1964.66 64.758 1967.19 64.758 1969.72 64.758 1969.72 97.3281 1969.72 129.898 1969.72 162.468 1969.72 170.08 1970.49 175.147 1972.02 177.669 1973.55 180.192 1975.75 182.072 1978.64 183.311 1981.52 184.551 1986.79 185.17 1994.45 185.17 1994.45 186.763 1994.45 188.356 1994.45 189.949 1968.25 189.949 1942.05 189.949 1915.85 189.949 1915.85 188.356 1915.85 186.763 1915.85 185.17 1923.74 185.17 1929.04 184.595 1931.75 183.444 1934.46 182.294 1936.61 180.391 1938.19 177.736 1939.78 175.08 1940.58 169.991 1940.58 162.468 1940.58 146.847 1940.58 131.226 1940.58 115.605 1940.58 102.417 1940.05 93.8764 1938.99 89.9822 1938.17 87.15 1936.87 85.1807 1935.1 84.0744 1933.34 82.9681 1930.92 82.4149 1927.86 82.4149 1924.57 82.4149 1920.56 83.0787 1915.85 84.4063 1915.03 82.8132 1914.2 81.2201 1913.38 79.627 1929.63 74.6707 1945.88 69.7143 1962.13 64.758ZM1639.41 64.758C1653.77 64.758 1665.55 66.5724 1674.73 70.2011 1681.68 72.9448 1686.8 77.2373 1690.1 83.0787 1692.22 86.8845 1693.28 94.673 1693.28 106.444 1693.28 120.207 1693.28 133.97 1693.28 147.732 1693.28 159.326 1693.57 166.429 1694.16 169.04 1694.75 171.651 1695.72 173.399 1697.07 174.284 1698.43 175.169 1699.99 175.611 1701.75 175.611 1703.64 175.611 1705.29 175.302 1706.7 174.682 1709.17 173.532 1713.94 170.301 1721 164.991 1721 167.469 1721 169.947 1721 172.425 1707.82 185.701 1695.22 192.339 1683.21 192.339 1677.44 192.339 1672.85 190.834 1669.43 187.825 1666.02 184.816 1664.25 179.683 1664.13 172.425 1647.53 182.072 1637.11 187.648 1632.87 189.153 1626.51 191.365 1619.74 192.472 1612.56 192.472 1601.38 192.472 1592.16 189.595 1584.92 183.842 1577.68 178.09 1574.06 170.522 1574.06 161.141 1574.06 155.211 1575.83 150.078 1579.36 145.741 1584.19 139.722 1592.57 134.058 1604.53 128.748 1616.48 123.437 1636.35 116.976 1664.13 109.365 1664.13 107.772 1664.13 106.179 1664.13 104.586 1664.13 92.4603 1661.57 84.1408 1656.45 79.627 1651.33 75.1132 1643.88 72.8563 1634.11 72.8563 1626.69 72.8563 1620.8 74.3609 1616.45 77.3701 1611.97 80.3793 1609.74 83.831 1609.74 87.7253 1609.85 90.2919 1609.97 92.8586 1610.09 95.4253 1610.09 99.4965 1608.71 102.638 1605.94 104.851 1603.17 107.064 1599.55 108.17 1595.08 108.17 1590.72 108.17 1587.16 107.02 1584.39 104.718 1581.62 102.417 1580.24 99.2753 1580.24 95.2925 1580.24 87.681 1585.42 80.6891 1595.78 74.3167 1606.14 67.9442 1620.69 64.758 1639.41 64.758ZM1119.07 64.758C1143.56 64.758 1163.23 71.75 1178.06 85.7339 1190.66 97.6822 1196.96 111.401 1196.96 126.889 1196.96 137.775 1193.49 148.794 1186.54 159.946 1179.59 171.098 1170.03 179.506 1157.84 185.17 1145.65 190.834 1132.08 193.667 1117.13 193.667 1092.76 193.667 1073.39 186.365 1059.02 171.761 1046.9 159.459 1040.83 145.652 1040.83 130.341 1040.83 119.189 1044.51 108.104 1051.87 97.0847 1059.23 86.0658 1068.91 77.9233 1080.92 72.6572 1092.93 67.3911 1105.65 64.758 1119.07 64.758ZM856.955 64.758C872.85 64.758 885.92 67.9221 896.164 74.2503 906.407 80.5784 911.529 87.15 911.529 93.9649 911.529 97.3281 910.087 100.05 907.202 102.13 904.317 104.209 900.285 105.249 895.104 105.249 888.157 105.249 882.917 103.568 879.385 100.205 877.383 98.346 876.059 94.8057 875.411 89.5839 874.764 84.362 872.379 80.3793 868.258 77.6356 864.137 74.9805 858.426 73.6529 851.126 73.6529 839.352 73.6529 829.873 76.9276 822.691 83.477 813.154 92.1506 808.385 103.612 808.385 117.861 808.385 132.376 813.124 145.188 822.603 156.295 832.081 167.403 844.886 172.956 861.017 172.956 872.556 172.956 882.917 169.991 892.101 164.061 898.577 159.99 904.877 152.6 911 141.891 912.707 142.51 914.414 143.13 916.121 143.749 911.765 159.769 903.228 172.093 890.512 180.723 877.795 189.352 863.725 193.667 848.3 193.667 829.932 193.667 813.919 187.87 800.261 176.275 786.602 164.681 779.773 149.015 779.773 129.279 779.773 110.161 787.338 94.6287 802.468 82.6804 817.599 70.7322 835.761 64.758 856.955 64.758ZM684.891 64.758C699.255 64.758 711.03 66.5724 720.214 70.2011 727.161 72.9448 732.283 77.2373 735.58 83.0787 737.699 86.8845 738.759 94.673 738.759 106.444 738.759 120.207 738.759 133.97 738.759 147.732 738.759 159.326 739.053 166.429 739.642 169.04 740.231 171.651 741.202 173.399 742.556 174.284 743.91 175.169 745.47 175.611 747.236 175.611 749.12 175.611 750.769 175.302 752.182 174.682 754.654 173.532 759.423 170.301 766.488 164.991 766.488 167.469 766.488 169.947 766.488 172.425 753.3 185.701 740.702 192.339 728.692 192.339 722.922 192.339 718.33 190.834 714.916 187.825 711.501 184.816 709.735 179.683 709.617 172.425 693.015 182.072 682.595 187.648 678.356 189.153 671.998 191.365 665.227 192.472 658.045 192.472 646.859 192.472 637.646 189.595 630.404 183.842 623.163 178.09 619.542 170.522 619.542 161.141 619.542 155.211 621.308 150.078 624.841 145.741 629.668 139.722 638.057 134.058 650.009 128.748 661.96 123.437 681.829 116.976 709.617 109.365 709.617 107.772 709.617 106.179 709.617 104.586 709.617 92.4603 707.056 84.1408 701.934 79.627 696.812 75.1132 689.365 72.8563 679.592 72.8563 672.174 72.8563 666.287 74.3609 661.93 77.3701 657.456 80.3793 655.219 83.831 655.219 87.7253 655.337 90.2919 655.454 92.8586 655.572 95.4253 655.572 99.4965 654.189 102.638 651.422 104.851 648.655 107.064 645.034 108.17 640.56 108.17 636.203 108.17 632.641 107.02 629.874 104.718 627.107 102.417 625.724 99.2753 625.724 95.2925 625.724 87.681 630.904 80.6891 641.266 74.3167 651.628 67.9442 666.169 64.758 684.891 64.758ZM980.979 28.3822C982.804 28.3822 984.629 28.3822 986.454 28.3822 986.454 41.7023 986.454 55.0224 986.454 68.3425 999.053 68.3425 1011.65 68.3425 1024.25 68.3425 1024.25 71.4402 1024.25 74.5379 1024.25 77.6356 1011.65 77.6356 999.053 77.6356 986.454 77.6356 986.454 103.922 986.454 130.208 986.454 156.494 986.454 164.371 987.956 169.682 990.958 172.425 993.961 175.169 997.817 176.541 1002.53 176.541 1006.41 176.541 1010.18 175.634 1013.83 173.819 1017.48 172.005 1020.31 169.328 1022.31 165.787 1024.6 165.787 1026.9 165.787 1029.2 165.787 1025.07 174.461 1019.25 180.988 1011.71 185.369 1004.17 189.75 996.404 191.941 988.397 191.941 982.981 191.941 977.682 190.812 972.502 188.555 967.321 186.299 963.494 183.068 961.021 178.864 958.549 174.66 957.312 168.177 957.312 159.415 957.312 132.155 957.312 104.895 957.312 77.6356 948.776 77.6356 940.24 77.6356 931.703 77.6356 931.703 76.1753 931.703 74.7149 931.703 73.2546 938.179 71.3074 944.802 68.0106 951.572 63.3641 958.343 58.7175 964.377 53.208 969.676 46.8356 972.384 43.4724 976.152 37.3212 980.979 28.3822ZM503.014 20.6822C497.009 20.6822 489.297 21.523 479.877 23.2046 479.877 48.1632 479.877 73.1218 479.877 98.0804 486.118 98.9655 491.652 99.6293 496.479 100.072 501.307 100.514 505.428 100.736 508.842 100.736 521.088 100.736 531.655 97.1733 540.545 90.0486 549.435 82.9238 553.88 73.6971 553.88 62.3684 553.88 54.5799 551.76 47.3445 547.522 40.6623 543.283 33.9802 537.278 28.9796 529.507 25.6606 521.735 22.3417 512.905 20.6822 503.014 20.6822ZM1410.67 20.0184C1400.07 20.0184 1388 21.3017 1374.46 23.8684 1374.46 74.8919 1374.46 125.915 1374.46 176.939 1389.42 179.417 1401.96 180.656 1412.08 180.656 1439.4 180.656 1462.06 173.443 1480.08 159.017 1498.09 144.59 1507.1 125.03 1507.1 100.337 1507.1 75.4672 1498.09 55.8632 1480.08 41.5253 1462.06 27.1873 1438.93 20.0184 1410.67 20.0184ZM1306.11 9.92872C1338.61 9.92872 1371.11 9.92872 1403.6 9.92872 1439.4 9.92872 1466.63 12.9822 1485.29 19.0891 1503.95 25.196 1518.96 35.3741 1530.33 49.6235 1541.69 63.873 1547.37 80.335 1547.37 99.0098 1547.37 124.057 1537.24 144.988 1516.99 161.805 1494.27 180.568 1459.65 189.949 1413.14 189.949 1377.46 189.949 1341.79 189.949 1306.11 189.949 1306.11 188.312 1306.11 186.675 1306.11 185.037 1309.11 185.037 1312.12 185.037 1315.12 185.037 1325.24 185.037 1332.43 182.603 1336.67 177.736 1339.26 174.815 1340.55 168.265 1340.55 158.087 1340.55 119.322 1340.55 80.5563 1340.55 41.7908 1340.55 30.5506 1338.9 23.5144 1335.61 20.6822 1331.01 16.7879 1324.19 14.8408 1315.12 14.8408 1312.12 14.8408 1309.11 14.8408 1306.11 14.8408 1306.11 13.2034 1306.11 11.5661 1306.11 9.92872ZM411.703 9.92872C440.963 9.92872 470.222 9.92872 499.482 9.92872 520.911 9.92872 537.808 11.5882 550.171 14.9072 562.534 18.2261 572.954 23.8241 581.432 31.7011 589.91 39.5781 594.148 48.9155 594.148 59.7132 594.148 74.4052 587.702 86.3534 574.809 95.558 561.916 104.763 543.695 109.365 520.146 109.365 514.376 109.365 508.136 109.055 501.425 108.436 494.713 107.816 487.531 106.887 479.877 105.648 479.877 123.128 479.877 140.607 479.877 158.087 479.877 169.416 481.526 176.452 484.823 179.196 489.297 183.09 496.067 185.037 505.134 185.037 508.195 185.037 511.256 185.037 514.318 185.037 514.318 186.675 514.318 188.312 514.318 189.949 480.113 189.949 445.908 189.949 411.703 189.949 411.703 188.312 411.703 186.675 411.703 185.037 414.706 185.037 417.708 185.037 420.711 185.037 430.837 185.037 438.078 182.559 442.434 177.603 444.789 174.859 445.967 168.354 445.967 158.087 445.967 119.322 445.967 80.5563 445.967 41.7908 445.967 30.4621 444.377 23.4259 441.198 20.6822 436.606 16.7879 429.777 14.8408 420.711 14.8408 417.708 14.8408 414.706 14.8408 411.703 14.8408 411.703 13.2034 411.703 11.5661 411.703 9.92872ZM1.16666 9.92872C62.6883 9.92872 124.21 9.92872 185.731 9.92872 186.615 23.0718 187.498 36.2149 188.381 49.358 186.085 49.358 183.789 49.358 181.493 49.358 179.02 39.8879 176.282 33.3828 173.28 29.8425 170.277 26.3023 165.833 23.6029 159.945 21.7442 155.236 20.4167 146.935 19.7529 135.042 19.7529 113.142 19.7529 91.2414 19.7529 69.3408 19.7529 69.3408 43.4724 69.3408 67.1919 69.3408 90.9115 86.8848 90.9115 104.429 90.9115 121.973 90.9115 135.631 90.9115 144.756 89.3626 149.348 86.2649 155.471 82.1937 158.886 75.0247 159.592 64.758 161.77 64.758 163.949 64.758 166.127 64.758 166.127 85.6454 166.127 106.533 166.127 127.42 163.949 127.42 161.77 127.42 159.592 127.42 157.944 118.658 156.295 113.038 154.647 110.56 152.527 107.462 149.054 105.028 144.226 103.258 139.399 101.488 131.981 100.603 121.973 100.603 104.429 100.603 86.8848 100.603 69.3408 100.603 69.3408 120.384 69.3408 140.165 69.3408 159.946 69.3408 167.911 69.8118 172.757 70.7538 174.483 71.6957 176.209 73.3442 177.581 75.6991 178.599 78.0539 179.616 82.5282 180.125 89.122 180.125 102.663 180.125 116.203 180.125 129.744 180.125 143.285 180.125 153.116 179.417 159.239 178.001 165.362 176.585 171.249 173.797 176.901 169.637 184.201 164.15 191.678 155.875 199.331 144.811 201.686 144.811 204.041 144.811 206.396 144.811 199.508 159.857 192.62 174.903 185.731 189.949 124.21 189.949 62.6883 189.949 1.16666 189.949 1.16666 188.312 1.16666 186.675 1.16666 185.037 3.99254 185.037 6.81841 185.037 9.64428 185.037 15.296 185.037 20.6534 184.02 25.7164 181.984 29.4843 180.568 32.0452 178.444 33.3993 175.611 34.7533 172.779 35.4304 166.982 35.4304 158.22 35.4304 119.233 35.4304 80.2465 35.4304 41.2598 35.4304 29.8425 33.8997 22.8063 30.8383 20.1511 26.5995 16.6109 19.5348 14.8408 9.64428 14.8408 6.81841 14.8408 3.99254 14.8408 1.16666 14.8408 1.16666 13.2034 1.16666 11.5661 1.16666 9.92872ZM1951.18 5.41495C1964.36 5.41495 1977.55 5.41495 1990.74 5.41495 1973.37 20.6822 1956 35.9494 1938.64 51.2167 1936.63 51.2167 1934.63 51.2167 1932.63 51.2167 1938.81 35.9494 1944.99 20.6822 1951.18 5.41495ZM2236.57 1.16666C2241.51 1.16666 2245.72 2.47213 2249.2 5.08304 2252.67 7.69396 2254.41 10.858 2254.41 14.5753 2254.41 18.2925 2252.67 21.4787 2249.2 24.1339 2245.72 26.7891 2241.51 28.1167 2236.57 28.1167 2231.62 28.1167 2227.39 26.7891 2223.85 24.1339 2220.32 21.4787 2218.55 18.2925 2218.55 14.5753 2218.55 10.858 2220.29 7.69396 2223.76 5.08304 2227.24 2.47213 2231.51 1.16666 2236.57 1.16666ZM2150.03 1.16666C2152.68 1.16666 2155.33 1.16666 2157.97 1.16666 2157.97 48.0304 2157.97 94.8942 2157.97 141.758 2157.97 156.007 2158.42 164.703 2159.3 167.845 2160.18 170.987 2161.6 173.178 2163.54 174.417 2165.48 175.656 2167.75 176.275 2170.34 176.275 2173.52 176.275 2177.76 175.523 2183.05 174.018 2183.7 175.567 2184.35 177.116 2185 178.665 2168.98 183.665 2152.97 188.666 2136.96 193.667 2134.25 193.667 2131.54 193.667 2128.83 193.667 2128.83 187.87 2128.83 182.072 2128.83 176.275 2120.94 182.471 2113.23 186.918 2105.7 189.618 2098.16 192.317 2090.04 193.667 2081.32 193.667 2063.66 193.667 2048.24 188.113 2035.05 177.005 2021.86 165.898 2015.27 151.626 2015.27 134.191 2015.27 116.755 2022.57 100.802 2037.17 86.3313 2051.77 71.8606 2070.55 64.6253 2093.51 64.6253 2107.76 64.6253 2119.53 68.0327 2128.83 74.8477 2128.83 67.3689 2128.83 59.8902 2128.83 52.4115 2128.83 38.5161 2128.39 29.9753 2127.51 26.7891 2126.63 23.6029 2125.24 21.4345 2123.36 20.2839 2121.47 19.1333 2119.12 18.558 2116.29 18.558 2113.23 18.558 2109.17 19.2661 2104.11 20.6822 2103.34 19.1333 2102.58 17.5845 2101.81 16.0356 2117.88 11.0793 2133.95 6.12298 2150.03 1.16666ZM273.785 1.16666C276.434 1.16666 279.083 1.16666 281.733 1.16666 281.733 54.9339 281.733 108.701 281.733 162.468 281.733 170.08 282.469 175.125 283.94 177.603 285.412 180.081 287.679 181.962 290.74 183.245 293.801 184.528 299.512 185.17 307.872 185.17 307.872 186.763 307.872 188.356 307.872 189.949 281.438 189.949 255.005 189.949 228.571 189.949 228.571 188.356 228.571 186.763 228.571 185.17 235.989 185.17 241.052 184.595 243.76 183.444 246.468 182.294 248.587 180.391 250.118 177.736 251.649 175.08 252.414 169.991 252.414 162.468 252.414 125.65 252.414 88.8316 252.414 52.0132 252.414 38.2948 252.002 29.8647 251.178 26.7227 250.354 23.5807 249.029 21.4345 247.204 20.2839 245.379 19.1333 243.053 18.558 240.228 18.558 237.166 18.558 233.281 19.2661 228.571 20.6822 227.57 19.1333 226.569 17.5845 225.568 16.0356 241.641 11.0793 257.713 6.12298 273.785 1.16666Z" fill="#FFFF00" fill-rule="evenodd" fill-opacity="1"/></g></g><path d="M2047.97 171.297C2030.19 176.607 2018.71 180.368 2013.53 182.581 2004.23 186.475 1997.57 190.547 1993.57 194.795 1989.57 199.043 1987.56 203.69 1987.56 208.734 1987.56 215.107 1990.1 220.395 1995.16 224.599 2000.22 228.803 2006.05 230.905 2012.64 230.905 2021.59 230.905 2033.37 226.48 2047.97 217.629 2047.97 202.185 2047.97 186.741 2047.97 171.297ZM1093.45 171.297C1075.67 176.607 1064.19 180.368 1059.01 182.581 1049.71 186.475 1043.06 190.547 1039.05 194.795 1035.05 199.043 1033.05 203.69 1033.05 208.734 1033.05 215.107 1035.58 220.395 1040.64 224.599 1045.7 228.803 1051.53 230.905 1058.13 230.905 1067.08 230.905 1078.85 226.48 1093.45 217.629 1093.45 202.185 1093.45 186.741 1093.45 171.297ZM2914.14 127.221C2907.9 127.221 2901.63 128.615 2895.33 131.403 2889.03 134.191 2883.94 139.08 2880.05 146.072 2876.16 153.064 2874.22 162.048 2874.22 173.022 2874.22 190.724 2878.9 205.991 2888.26 218.824 2897.62 231.657 2909.96 238.074 2925.26 238.074 2936.68 238.074 2946.1 234.534 2953.52 227.453 2960.94 220.373 2964.65 208.203 2964.65 190.945 2964.65 169.349 2958.47 152.356 2946.1 139.965 2937.74 131.469 2927.09 127.221 2914.14 127.221ZM1497.43 127.221C1491.19 127.221 1484.92 128.615 1478.62 131.403 1472.32 134.191 1467.23 139.08 1463.35 146.072 1459.46 153.064 1457.52 162.048 1457.52 173.022 1457.52 190.724 1462.2 205.991 1471.56 218.824 1480.92 231.657 1493.25 238.074 1508.56 238.074 1519.98 238.074 1529.4 234.534 1536.82 227.453 1544.24 220.373 1547.94 208.203 1547.94 190.945 1547.94 169.349 1541.76 152.356 1529.4 139.965 1521.04 131.469 1510.38 127.221 1497.43 127.221ZM2475.22 126.69C2464.86 126.69 2455.62 130.186 2447.49 137.178 2436.78 146.382 2431.42 159.835 2431.42 177.536 2431.42 195.414 2436.6 209.111 2446.96 218.625 2457.33 228.139 2468.87 232.897 2481.58 232.897 2492.3 232.897 2502.66 228.87 2512.67 220.815 2512.67 199.928 2512.67 179.041 2512.67 158.153 2511.96 152.135 2509.84 146.648 2506.31 141.691 2502.78 136.735 2498.1 132.996 2492.27 130.473 2486.44 127.951 2480.76 126.69 2475.22 126.69ZM2108.76 122.176C2134.14 122.176 2159.51 122.176 2184.88 122.176 2184.88 123.813 2184.88 125.451 2184.88 127.088 2183.24 127.088 2181.59 127.088 2179.94 127.088 2175.35 127.088 2171.84 127.929 2169.43 129.61 2167.02 131.292 2165.81 133.549 2165.81 136.381 2165.81 139.479 2167.05 143.152 2169.52 147.4 2182.06 169.792 2194.6 192.184 2207.14 214.576 2219.74 191.343 2232.34 168.11 2244.93 144.878 2247.64 139.921 2249 136.16 2249 133.593 2249 132.354 2248.53 131.336 2247.58 130.54 2246.29 129.212 2244.64 128.305 2242.64 127.818 2240.64 127.331 2236.57 127.088 2230.45 127.088 2230.45 125.451 2230.45 123.813 2230.45 122.176 2248.05 122.176 2265.66 122.176 2283.26 122.176 2283.26 123.813 2283.26 125.451 2283.26 127.088 2277.14 127.442 2272.9 128.371 2270.54 129.876 2266.42 132.531 2262.71 136.956 2259.42 143.152 2240.28 177.934 2221.15 212.717 2202.02 247.5 2199.6 247.5 2197.19 247.5 2194.78 247.5 2175.52 213.293 2156.27 179.085 2137.02 144.878 2134.43 140.098 2131.96 136.669 2129.6 134.589 2127.25 132.509 2124.25 130.761 2120.6 129.345 2118.59 128.548 2114.65 127.796 2108.76 127.088 2108.76 125.451 2108.76 123.813 2108.76 122.176ZM2919.61 118.591C2944.1 118.591 2963.77 125.583 2978.6 139.567 2991.2 151.516 2997.5 165.234 2997.5 180.722 2997.5 191.609 2994.03 202.628 2987.08 213.779 2980.13 224.931 2970.57 233.339 2958.38 239.003 2946.19 244.668 2932.62 247.5 2917.67 247.5 2893.3 247.5 2873.93 240.198 2859.56 225.595 2847.43 213.293 2841.37 199.486 2841.37 184.174 2841.37 173.022 2845.05 161.937 2852.41 150.918 2859.77 139.899 2869.45 131.757 2881.46 126.491 2893.47 121.224 2906.19 118.591 2919.61 118.591ZM2757.97 118.591C2773.86 118.591 2786.93 121.755 2797.18 128.084 2807.42 134.412 2812.54 140.983 2812.54 147.798 2812.54 151.161 2811.1 153.883 2808.22 155.963 2805.33 158.043 2801.3 159.083 2796.12 159.083 2789.17 159.083 2783.93 157.401 2780.4 154.038 2778.4 152.179 2777.07 148.639 2776.42 143.417 2775.78 138.195 2773.39 134.213 2769.27 131.469 2765.15 128.814 2759.44 127.486 2752.14 127.486 2740.36 127.486 2730.89 130.761 2723.7 137.31 2714.17 145.984 2709.4 157.445 2709.4 171.695 2709.4 186.21 2714.14 199.021 2723.62 210.128 2733.09 221.236 2745.9 226.79 2762.03 226.79 2773.57 226.79 2783.93 223.825 2793.11 217.895 2799.59 213.824 2805.89 206.433 2812.01 195.724 2813.72 196.344 2815.43 196.963 2817.13 197.583 2812.78 213.602 2804.24 225.927 2791.52 234.556 2778.81 243.185 2764.74 247.5 2749.31 247.5 2730.95 247.5 2714.93 241.703 2701.27 230.109 2687.62 218.514 2680.79 202.849 2680.79 183.112 2680.79 163.995 2688.35 148.462 2703.48 136.514 2718.61 124.566 2736.77 118.591 2757.97 118.591ZM2627.29 118.591C2629.88 118.591 2632.47 118.591 2635.06 118.591 2635.06 151.161 2635.06 183.732 2635.06 216.302 2635.06 223.913 2635.8 228.98 2637.27 231.503 2638.74 234.025 2640.92 235.906 2643.8 237.145 2646.69 238.384 2651.96 239.003 2659.61 239.003 2659.61 240.597 2659.61 242.19 2659.61 243.783 2633.41 243.783 2607.22 243.783 2581.02 243.783 2581.02 242.19 2581.02 240.597 2581.02 239.003 2588.91 239.003 2594.2 238.428 2596.91 237.278 2599.62 236.127 2601.77 234.224 2603.36 231.569 2604.95 228.914 2605.74 223.825 2605.74 216.302 2605.74 200.68 2605.74 185.059 2605.74 169.438 2605.74 156.251 2605.21 147.71 2604.15 143.816 2603.33 140.983 2602.03 139.014 2600.27 137.908 2598.5 136.801 2596.09 136.248 2593.03 136.248 2589.73 136.248 2585.73 136.912 2581.02 138.24 2580.19 136.647 2579.37 135.053 2578.54 133.46 2594.79 128.504 2611.04 123.548 2627.29 118.591ZM2345.96 118.591C2348.49 118.591 2351.02 118.591 2353.55 118.591 2353.55 151.161 2353.55 183.732 2353.55 216.302 2353.55 223.913 2354.32 228.98 2355.85 231.503 2357.38 234.025 2359.59 235.906 2362.47 237.145 2365.36 238.384 2370.63 239.003 2378.28 239.003 2378.28 240.597 2378.28 242.19 2378.28 243.783 2352.08 243.783 2325.88 243.783 2299.69 243.783 2299.69 242.19 2299.69 240.597 2299.69 239.003 2307.57 239.003 2312.87 238.428 2315.58 237.278 2318.29 236.127 2320.44 234.224 2322.03 231.569 2323.62 228.914 2324.41 223.825 2324.41 216.302 2324.41 200.68 2324.41 185.059 2324.41 169.438 2324.41 156.251 2323.88 147.71 2322.82 143.816 2322 140.983 2320.7 139.014 2318.94 137.908 2317.17 136.801 2314.76 136.248 2311.7 136.248 2308.4 136.248 2304.4 136.912 2299.69 138.24 2298.86 136.647 2298.04 135.053 2297.21 133.46 2313.46 128.504 2329.71 123.548 2345.96 118.591ZM2023.24 118.591C2037.61 118.591 2049.38 120.406 2058.56 124.034 2065.51 126.778 2070.63 131.071 2073.93 136.912 2076.05 140.718 2077.11 148.506 2077.11 160.278 2077.11 174.04 2077.11 187.803 2077.11 201.566 2077.11 213.16 2077.4 220.262 2077.99 222.873 2078.58 225.484 2079.55 227.232 2080.91 228.117 2082.26 229.002 2083.82 229.445 2085.59 229.445 2087.47 229.445 2089.12 229.135 2090.53 228.516 2093 227.365 2097.77 224.134 2104.84 218.824 2104.84 221.302 2104.84 223.78 2104.84 226.259 2091.65 239.534 2079.05 246.172 2067.04 246.172 2061.27 246.172 2056.68 244.668 2053.27 241.659 2049.85 238.649 2048.08 233.516 2047.97 226.259 2031.37 235.906 2020.94 241.482 2016.71 242.986 2010.35 245.199 2003.58 246.305 1996.4 246.305 1985.21 246.305 1976 243.429 1968.75 237.676 1961.51 231.923 1957.89 224.356 1957.89 214.974 1957.89 209.044 1959.66 203.911 1963.19 199.574 1968.02 193.556 1976.41 187.891 1988.36 182.581 2000.31 177.271 2020.18 170.81 2047.97 163.198 2047.97 161.605 2047.97 160.012 2047.97 158.419 2047.97 146.294 2045.41 137.974 2040.28 133.46 2035.16 128.947 2027.72 126.69 2017.94 126.69 2010.52 126.69 2004.64 128.194 2000.28 131.203 1995.81 134.213 1993.57 137.664 1993.57 141.559 1993.69 144.125 1993.8 146.692 1993.92 149.259 1993.92 153.33 1992.54 156.472 1989.77 158.684 1987.01 160.897 1983.38 162.003 1978.91 162.003 1974.55 162.003 1970.99 160.853 1968.22 158.552 1965.46 156.251 1964.07 153.109 1964.07 149.126 1964.07 141.514 1969.26 134.522 1979.62 128.15 1989.98 121.778 2004.52 118.591 2023.24 118.591ZM1502.91 118.591C1527.4 118.591 1547.06 125.583 1561.9 139.567 1574.5 151.516 1580.8 165.234 1580.8 180.722 1580.8 191.609 1577.32 202.628 1570.37 213.779 1563.43 224.931 1553.86 233.339 1541.67 239.003 1529.49 244.668 1515.92 247.5 1500.96 247.5 1476.59 247.5 1457.22 240.198 1442.86 225.595 1430.73 213.293 1424.67 199.486 1424.67 184.174 1424.67 173.022 1428.35 161.937 1435.7 150.918 1443.06 139.899 1452.75 131.757 1464.76 126.491 1476.77 121.224 1489.48 118.591 1502.91 118.591ZM1240.79 118.591C1256.68 118.591 1269.75 121.755 1280 128.084 1290.24 134.412 1295.36 140.983 1295.36 147.798 1295.36 151.161 1293.92 153.883 1291.04 155.963 1288.15 158.043 1284.12 159.083 1278.94 159.083 1271.99 159.083 1266.75 157.401 1263.22 154.038 1261.22 152.179 1259.89 148.639 1259.24 143.417 1258.6 138.195 1256.21 134.213 1252.09 131.469 1247.97 128.814 1242.26 127.486 1234.96 127.486 1223.19 127.486 1213.71 130.761 1206.52 137.31 1196.99 145.984 1192.22 157.445 1192.22 171.695 1192.22 186.21 1196.96 199.021 1206.44 210.128 1215.91 221.236 1228.72 226.79 1244.85 226.79 1256.39 226.79 1266.75 223.825 1275.93 217.895 1282.41 213.824 1288.71 206.433 1294.83 195.724 1296.54 196.344 1298.25 196.963 1299.95 197.583 1295.6 213.602 1287.06 225.927 1274.35 234.556 1261.63 243.185 1247.56 247.5 1232.13 247.5 1213.77 247.5 1197.75 241.703 1184.09 230.109 1170.44 218.514 1163.61 202.849 1163.61 183.112 1163.61 163.995 1171.17 148.462 1186.3 136.514 1201.43 124.566 1219.59 118.591 1240.79 118.591ZM1068.72 118.591C1083.09 118.591 1094.86 120.406 1104.05 124.034 1110.99 126.778 1116.12 131.071 1119.41 136.912 1121.53 140.718 1122.59 148.506 1122.59 160.278 1122.59 174.04 1122.59 187.803 1122.59 201.566 1122.59 213.16 1122.89 220.262 1123.48 222.873 1124.06 225.484 1125.04 227.232 1126.39 228.117 1127.74 229.002 1129.3 229.445 1131.07 229.445 1132.95 229.445 1134.6 229.135 1136.02 228.516 1138.49 227.365 1143.26 224.134 1150.32 218.824 1150.32 221.302 1150.32 223.78 1150.32 226.259 1137.13 239.534 1124.53 246.172 1112.52 246.172 1106.76 246.172 1102.16 244.668 1098.75 241.659 1095.33 238.649 1093.57 233.516 1093.45 226.259 1076.85 235.906 1066.43 241.482 1062.19 242.986 1055.83 245.199 1049.06 246.305 1041.88 246.305 1030.69 246.305 1021.48 243.429 1014.24 237.676 1007 231.923 1003.38 224.356 1003.38 214.974 1003.38 209.044 1005.14 203.911 1008.67 199.574 1013.5 193.556 1021.89 187.891 1033.84 182.581 1045.79 177.271 1065.66 170.81 1093.45 163.198 1093.45 161.605 1093.45 160.012 1093.45 158.419 1093.45 146.294 1090.89 137.974 1085.77 133.46 1080.65 128.947 1073.2 126.69 1063.43 126.69 1056.01 126.69 1050.12 128.194 1045.76 131.203 1041.29 134.213 1039.05 137.664 1039.05 141.559 1039.17 144.125 1039.29 146.692 1039.41 149.259 1039.41 153.33 1038.02 156.472 1035.25 158.684 1032.49 160.897 1028.87 162.003 1024.39 162.003 1020.04 162.003 1016.47 160.853 1013.71 158.552 1010.94 156.251 1009.56 153.109 1009.56 149.126 1009.56 141.514 1014.74 134.522 1025.1 128.15 1035.46 121.778 1050 118.591 1068.72 118.591ZM1364.81 82.2155C1366.64 82.2155 1368.46 82.2155 1370.29 82.2155 1370.29 95.5356 1370.29 108.856 1370.29 122.176 1382.89 122.176 1395.48 122.176 1408.08 122.176 1408.08 125.274 1408.08 128.371 1408.08 131.469 1395.48 131.469 1382.89 131.469 1370.29 131.469 1370.29 157.755 1370.29 184.041 1370.29 210.328 1370.29 218.205 1371.79 223.515 1374.79 226.259 1377.79 229.002 1381.65 230.374 1386.36 230.374 1390.25 230.374 1394.01 229.467 1397.66 227.653 1401.31 225.838 1404.14 223.161 1406.14 219.621 1408.44 219.621 1410.73 219.621 1413.03 219.621 1408.91 228.294 1403.08 234.822 1395.54 239.203 1388.01 243.584 1380.24 245.774 1372.23 245.774 1366.81 245.774 1361.52 244.646 1356.33 242.389 1351.15 240.132 1347.33 236.901 1344.85 232.697 1342.38 228.493 1341.15 222.01 1341.15 213.248 1341.15 185.988 1341.15 158.729 1341.15 131.469 1332.61 131.469 1324.07 131.469 1315.54 131.469 1315.54 130.009 1315.54 128.548 1315.54 127.088 1322.01 125.141 1328.64 121.844 1335.41 117.197 1342.18 112.551 1348.21 107.041 1353.51 100.669 1356.22 97.3057 1359.98 91.1546 1364.81 82.2155ZM886.847 74.5155C880.843 74.5155 873.13 75.3563 863.711 77.0379 863.711 101.997 863.711 126.955 863.711 151.914 869.951 152.799 875.485 153.463 880.313 153.905 885.14 154.348 889.261 154.569 892.676 154.569 904.921 154.569 915.489 151.007 924.379 143.882 933.268 136.757 937.713 127.53 937.713 116.202 937.713 108.413 935.594 101.178 931.355 94.4957 927.116 87.8135 921.111 82.8129 913.34 79.494 905.569 76.175 896.738 74.5155 886.847 74.5155ZM1794.5 73.8517C1783.91 73.8517 1771.84 75.1351 1758.3 77.7017 1758.3 128.725 1758.3 179.749 1758.3 230.772 1773.25 233.251 1785.79 234.49 1795.92 234.49 1823.23 234.49 1845.9 227.276 1863.91 212.85 1881.93 198.424 1890.93 178.864 1890.93 154.171 1890.93 129.301 1881.93 109.697 1863.91 95.3586 1845.9 81.0207 1822.76 73.8517 1794.5 73.8517ZM1689.94 63.7621C1722.44 63.7621 1754.94 63.7621 1787.44 63.7621 1823.23 63.7621 1850.46 66.8155 1869.12 72.9224 1887.79 79.0293 1902.8 89.2075 1914.16 103.457 1925.52 117.706 1931.2 134.168 1931.2 152.843 1931.2 177.89 1921.08 198.822 1900.83 215.638 1878.1 234.401 1843.48 243.783 1796.97 243.783 1761.3 243.783 1725.62 243.783 1689.94 243.783 1689.94 242.145 1689.94 240.508 1689.94 238.871 1692.95 238.871 1695.95 238.871 1698.95 238.871 1709.08 238.871 1716.26 236.437 1720.5 231.569 1723.09 228.648 1724.39 222.099 1724.39 211.921 1724.39 173.155 1724.39 134.39 1724.39 95.6241 1724.39 84.3839 1722.74 77.3477 1719.44 74.5155 1714.85 70.6213 1708.02 68.6741 1698.95 68.6741 1695.95 68.6741 1692.95 68.6741 1689.94 68.6741 1689.94 67.0368 1689.94 65.3994 1689.94 63.7621ZM795.536 63.7621C824.796 63.7621 854.056 63.7621 883.315 63.7621 904.745 63.7621 921.641 65.4215 934.004 68.7405 946.368 72.0595 956.788 77.6575 965.266 85.5345 973.743 93.4115 977.982 102.749 977.982 113.547 977.982 128.238 971.535 140.187 958.642 149.391 945.749 158.596 927.528 163.198 903.979 163.198 898.21 163.198 891.969 162.888 885.258 162.269 878.546 161.649 871.364 160.72 863.711 159.481 863.711 176.961 863.711 194.441 863.711 211.921 863.711 223.249 865.359 230.286 868.656 233.029 873.13 236.924 879.901 238.871 888.967 238.871 892.028 238.871 895.09 238.871 898.151 238.871 898.151 240.508 898.151 242.145 898.151 243.783 863.946 243.783 829.741 243.783 795.536 243.783 795.536 242.145 795.536 240.508 795.536 238.871 798.539 238.871 801.541 238.871 804.544 238.871 814.67 238.871 821.911 236.393 826.268 231.436 828.623 228.693 829.8 222.187 829.8 211.921 829.8 173.155 829.8 134.39 829.8 95.6241 829.8 84.2954 828.211 77.2592 825.031 74.5155 820.439 70.6213 813.61 68.6741 804.544 68.6741 801.541 68.6741 798.539 68.6741 795.536 68.6741 795.536 67.0368 795.536 65.3994 795.536 63.7621ZM385 63.7621C446.522 63.7621 508.043 63.7621 569.565 63.7621 570.448 76.9052 571.331 90.0483 572.214 103.191 569.918 103.191 567.622 103.191 565.326 103.191 562.853 93.7213 560.116 87.2161 557.113 83.6758 554.111 80.1356 549.666 77.4362 543.779 75.5776 539.069 74.25 530.768 73.5862 518.876 73.5862 496.975 73.5862 475.075 73.5862 453.174 73.5862 453.174 97.3057 453.174 121.025 453.174 144.745 470.718 144.745 488.262 144.745 505.806 144.745 519.464 144.745 528.59 143.196 533.182 140.098 539.304 136.027 542.719 128.858 543.425 118.591 545.604 118.591 547.782 118.591 549.96 118.591 549.96 139.479 549.96 160.366 549.96 181.253 547.782 181.253 545.604 181.253 543.425 181.253 541.777 172.491 540.129 166.871 538.48 164.393 536.361 161.295 532.887 158.861 528.06 157.091 523.232 155.321 515.814 154.436 505.806 154.436 488.262 154.436 470.718 154.436 453.174 154.436 453.174 174.217 453.174 193.998 453.174 213.779 453.174 221.745 453.645 226.59 454.587 228.316 455.529 230.042 457.178 231.414 459.532 232.432 461.887 233.45 466.362 233.959 472.955 233.959 486.496 233.959 500.037 233.959 513.577 233.959 527.118 233.959 536.95 233.251 543.072 231.834 549.195 230.418 555.082 227.63 560.734 223.471 568.034 217.983 575.511 209.708 583.164 198.645 585.519 198.645 587.874 198.645 590.229 198.645 583.341 213.691 576.453 228.737 569.565 243.783 508.043 243.783 446.522 243.783 385 243.783 385 242.145 385 240.508 385 238.871 387.826 238.871 390.652 238.871 393.478 238.871 399.129 238.871 404.487 237.853 409.55 235.817 413.318 234.401 415.879 232.277 417.233 229.445 418.587 226.613 419.264 220.815 419.264 212.053 419.264 173.067 419.264 134.08 419.264 95.0931 419.264 83.6758 417.733 76.6396 414.672 73.9845 410.433 70.4442 403.368 68.6741 393.478 68.6741 390.652 68.6741 387.826 68.6741 385 68.6741 385 67.0368 385 65.3994 385 63.7621ZM2335.01 59.2483C2348.2 59.2483 2361.38 59.2483 2374.57 59.2483 2357.2 74.5155 2339.84 89.7828 2322.47 105.05 2320.47 105.05 2318.47 105.05 2316.46 105.05 2322.65 89.7828 2328.83 74.5155 2335.01 59.2483ZM2620.4 55C2625.35 55 2629.56 56.3055 2633.03 58.9164 2636.5 61.5273 2638.24 64.6914 2638.24 68.4086 2638.24 72.1259 2636.5 75.3121 2633.03 77.9672 2629.56 80.6224 2625.35 81.95 2620.4 81.95 2615.46 81.95 2611.22 80.6224 2607.69 77.9672 2604.15 75.3121 2602.39 72.1259 2602.39 68.4086 2602.39 64.6914 2604.12 61.5273 2607.6 58.9164 2611.07 56.3055 2615.34 55 2620.4 55ZM2533.86 55C2536.51 55 2539.16 55 2541.81 55 2541.81 101.864 2541.81 148.728 2541.81 195.591 2541.81 209.841 2542.25 218.536 2543.13 221.678 2544.02 224.82 2545.43 227.011 2547.37 228.25 2549.31 229.489 2551.58 230.109 2554.17 230.109 2557.35 230.109 2561.59 229.356 2566.89 227.852 2567.54 229.401 2568.18 230.949 2568.83 232.498 2552.82 237.499 2536.8 242.499 2520.79 247.5 2518.08 247.5 2515.37 247.5 2512.67 247.5 2512.67 241.703 2512.67 235.906 2512.67 230.109 2504.78 236.304 2497.07 240.751 2489.53 243.451 2481.99 246.15 2473.87 247.5 2465.16 247.5 2447.49 247.5 2432.07 241.946 2418.88 230.839 2405.7 219.731 2399.1 205.46 2399.1 188.024 2399.1 170.588 2406.4 154.635 2421 140.165 2435.6 125.694 2454.38 118.459 2477.34 118.459 2491.59 118.459 2503.36 121.866 2512.67 128.681 2512.67 121.202 2512.67 113.724 2512.67 106.245 2512.67 92.3494 2512.22 83.8086 2511.34 80.6224 2510.46 77.4362 2509.07 75.2678 2507.19 74.1172 2505.31 72.9667 2502.95 72.3914 2500.13 72.3914 2497.07 72.3914 2493 73.0994 2487.94 74.5155 2487.17 72.9667 2486.41 71.4178 2485.64 69.869 2501.72 64.9126 2517.79 59.9563 2533.86 55ZM657.618 55C660.267 55 662.917 55 665.566 55 665.566 108.767 665.566 162.534 665.566 216.302 665.566 223.913 666.302 228.958 667.774 231.436 669.245 233.914 671.512 235.795 674.573 237.078 677.635 238.362 683.345 239.003 691.705 239.003 691.705 240.597 691.705 242.19 691.705 243.783 665.272 243.783 638.838 243.783 612.404 243.783 612.404 242.19 612.404 240.597 612.404 239.003 619.822 239.003 624.885 238.428 627.593 237.278 630.301 236.127 632.421 234.224 633.951 231.569 635.482 228.914 636.248 223.825 636.248 216.302 636.248 179.483 636.248 142.665 636.248 105.847 636.248 92.1282 635.835 83.698 635.011 80.556 634.187 77.4141 632.862 75.2678 631.037 74.1172 629.212 72.9667 626.887 72.3914 624.061 72.3914 621 72.3914 617.114 73.0994 612.404 74.5155 611.403 72.9667 610.403 71.4178 609.402 69.869 625.474 64.9126 641.546 59.9563 657.618 55Z" fill="#FFFF00" fill-rule="evenodd" fill-opacity="1"/><text fill="#000000" fill-opacity="0" font-family="Arial,Arial_MSFontService,sans-serif" font-size="192.5" direction="ltr" writing-mode="lr-tb" x="385" y="223.437">El Pacto Davídico</text></g></svg>