<svg width="775" height="248" xmlns="http://www.w3.org/2000/svg" xmlns:xlink="http://www.w3.org/1999/xlink" xml:space="preserve" overflow="hidden"><defs><clipPath id="clip0"><rect x="2204" y="2213" width="775" height="248"/></clipPath></defs><g clip-path="url(#clip0)" transform="translate(-2204 -2213)"><rect x="0" y="96.4173" width="645.583" height="120.583" fill="#66FFFF" fill-opacity="1" transform="matrix(1 0 0 -1 2228.5 2456.5)"/><path d="M645.583 96.4173 742 0 742 120.583 645.583 217Z" fill="#52CDCD" fill-rule="evenodd" fill-opacity="1" transform="matrix(1 0 0 -1 2228.5 2456.5)"/><path d="M0 96.4173 96.417 0 742 0 645.583 96.4173Z" fill="#84FFFF" fill-rule="evenodd" fill-opacity="1" transform="matrix(1 0 0 -1 2228.5 2456.5)"/><path d="M0 96.4173 96.417 0 742 0 742 120.583 645.583 217 0 217ZM0 96.4173 645.583 96.4173 742 0M645.583 96.4173 645.583 217" stroke="#000000" stroke-width="9.16667" stroke-linecap="butt" stroke-linejoin="miter" stroke-miterlimit="8" stroke-opacity="1" fill="none" fill-rule="evenodd" transform="matrix(1 0 0 -1 2228.5 2456.5)"/><text fill="#000000" fill-opacity="1" font-family="Times New Roman,Times New Roman_MSFontService,sans-serif" font-style="normal" font-variant="normal" font-weight="700" font-stretch="normal" font-size="92" text-anchor="start" direction="ltr" writing-mode="lr-tb" unicode-bidi="normal" text-decoration="none" transform="matrix(1 0 0 1 2261.17 2334)">Malaquias</text><text fill="#000000" fill-opacity="1" font-family="Times New Roman,Times New Roman_MSFontService,sans-serif" font-style="normal" font-variant="normal" font-weight="700" font-stretch="normal" font-size="92" text-anchor="start" direction="ltr" writing-mode="lr-tb" unicode-bidi="normal" text-decoration="none" transform="matrix(1 0 0 1 2696.01 2334)">(420)</text></g></svg>