<svg width="2626" height="206" xmlns="http://www.w3.org/2000/svg" xmlns:xlink="http://www.w3.org/1999/xlink" xml:space="preserve" overflow="hidden"><defs><filter id="fx0" x="-10%" y="-10%" width="120%" height="120%" filterUnits="userSpaceOnUse" primitiveUnits="userSpaceOnUse"><feComponentTransfer color-interpolation-filters="sRGB"><feFuncR type="discrete" tableValues="0.752941 0.752941"/><feFuncG type="discrete" tableValues="0.752941 0.752941"/><feFuncB type="discrete" tableValues="0.752941 0.752941"/><feFuncA type="linear" slope="0.800000" intercept="0.000000"/></feComponentTransfer><feGaussianBlur stdDeviation="0.000000 0.000000"/></filter><clipPath id="clip1"><rect x="385" y="55" width="2626" height="206"/></clipPath><clipPath id="clip2"><rect x="1.16672" y="1.16666" width="2612.5" height="192.5"/></clipPath><clipPath id="clip3"><rect x="0" y="0" width="2615" height="195"/></clipPath></defs><g clip-path="url(#clip1)" transform="translate(-385 -55)"><g clip-path="url(#clip2)" filter="url(#fx0)" transform="translate(393 63)"><g clip-path="url(#clip3)"><path d="M1626.15 91.8279C1607.66 95.9677 1595.72 98.9001 1590.34 100.625 1580.66 103.661 1573.74 106.835 1569.58 110.146 1565.42 113.458 1563.34 117.081 1563.34 121.013 1563.34 125.981 1565.97 130.104 1571.23 133.381 1576.5 136.658 1582.56 138.297 1589.42 138.297 1598.72 138.297 1610.97 134.847 1626.15 127.948 1626.15 115.908 1626.15 103.868 1626.15 91.8279ZM717.055 91.8279C698.564 95.9677 686.624 98.9001 681.237 100.625 671.563 103.661 664.644 106.835 660.481 110.146 656.317 113.458 654.235 117.081 654.235 121.013 654.235 125.981 656.868 130.104 662.134 133.381 667.399 136.658 673.461 138.297 680.318 138.297 689.625 138.297 701.87 134.847 717.055 127.948 717.055 115.908 717.055 103.868 717.055 91.8279ZM519.597 65.7473C513.719 65.7473 507.903 66.5753 502.147 68.2312 497.739 69.4731 490.453 73.1989 480.289 79.4086 480.289 91.207 480.289 103.005 480.289 114.804 480.289 122.462 480.84 127.499 481.942 129.914 483.657 133.916 487.851 137.435 494.525 140.47 501.198 143.506 509.617 145.024 519.781 145.024 532.026 145.024 541.945 142.333 549.537 136.952 559.456 129.914 564.415 120.013 564.415 107.249 564.415 92.7594 558.782 81.6165 547.517 73.8199 539.679 68.4382 530.373 65.7473 519.597 65.7473ZM2526.97 57.4677C2520.48 57.4677 2513.96 58.5544 2507.41 60.7278 2500.86 62.9012 2495.56 66.7132 2491.52 72.164 2487.48 77.6147 2485.46 84.6178 2485.46 93.1734 2485.46 106.973 2490.32 118.875 2500.06 128.879 2509.79 138.883 2522.62 143.886 2538.54 143.886 2550.42 143.886 2560.21 141.126 2567.93 135.606 2575.64 130.086 2579.5 120.599 2579.5 107.145 2579.5 90.31 2573.07 77.0627 2560.22 67.4032 2551.52 60.7796 2540.44 57.4677 2526.97 57.4677ZM1137.19 57.4677C1130.7 57.4677 1124.18 58.5544 1117.63 60.7278 1111.08 62.9012 1105.79 66.7132 1101.74 72.164 1097.7 77.6147 1095.68 84.6178 1095.68 93.1734 1095.68 106.973 1100.55 118.875 1110.29 128.879 1120.02 138.883 1132.85 143.886 1148.77 143.886 1160.64 143.886 1170.44 141.126 1178.16 135.606 1185.87 130.086 1189.73 120.599 1189.73 107.145 1189.73 90.31 1183.3 77.0627 1170.44 67.4032 1161.75 60.7796 1150.66 57.4677 1137.19 57.4677ZM2070.5 57.0537C2059.72 57.0538 2050.11 59.7791 2041.66 65.2298 2030.52 72.4055 2024.95 82.8929 2024.95 96.6922 2024.95 110.629 2030.34 121.307 2041.11 128.724 2051.89 136.141 2063.89 139.849 2077.11 139.849 2088.26 139.849 2099.03 136.71 2109.44 130.431 2109.44 114.148 2109.44 97.8651 2109.44 81.582 2108.71 76.8902 2106.5 72.6124 2102.83 68.7486 2099.15 64.8848 2094.29 61.9697 2088.23 60.0033 2082.16 58.037 2076.26 57.0538 2070.5 57.0537ZM1422.64 57.0537C1411.86 57.0538 1402.25 59.7791 1393.8 65.2298 1382.65 72.4055 1377.08 82.8929 1377.08 96.6922 1377.08 110.629 1382.47 121.307 1393.25 128.724 1404.02 136.141 1416.02 139.849 1429.25 139.849 1440.39 139.849 1451.17 136.71 1461.58 130.431 1461.58 114.148 1461.58 97.8651 1461.58 81.582 1460.84 76.8902 1458.64 72.6124 1454.96 68.7486 1451.29 64.8848 1446.42 61.9697 1440.36 60.0033 1434.3 58.037 1428.39 57.0538 1422.64 57.0537ZM1689.38 53.5349C1715.77 53.5349 1742.16 53.5349 1768.55 53.5349 1768.55 54.8114 1768.55 56.0878 1768.55 57.3642 1766.83 57.3642 1765.12 57.3642 1763.41 57.3642 1758.63 57.3642 1754.99 58.0197 1752.48 59.3306 1749.97 60.6416 1748.71 62.401 1748.71 64.6089 1748.71 67.0237 1750 69.8871 1752.57 73.1989 1765.61 90.655 1778.65 108.111 1791.69 125.567 1804.8 107.456 1817.9 89.3441 1831 71.2325 1833.82 67.3687 1835.22 64.4364 1835.22 62.4355 1835.22 61.4695 1834.73 60.6761 1833.76 60.0551 1832.41 59.0201 1830.69 58.3129 1828.61 57.9335 1826.53 57.554 1822.31 57.3642 1815.94 57.3642 1815.94 56.0878 1815.94 54.8114 1815.94 53.5349 1834.25 53.5349 1852.55 53.5349 1870.86 53.5349 1870.86 54.8114 1870.86 56.0878 1870.86 57.3642 1864.49 57.6402 1860.08 58.3647 1857.63 59.5376 1853.35 61.6075 1849.49 65.0573 1846.06 69.8871 1826.16 97.0027 1806.26 124.118 1786.37 151.234 1783.86 151.234 1781.34 151.234 1778.83 151.234 1758.81 124.567 1738.79 97.8996 1718.77 71.2325 1716.08 67.5067 1713.51 64.8331 1711.06 63.2117 1708.61 61.5903 1705.48 60.2276 1701.69 59.1236 1699.61 58.5027 1695.5 57.9162 1689.38 57.3642 1689.38 56.0878 1689.38 54.8114 1689.38 53.5349ZM2532.66 50.7406C2558.13 50.7406 2578.58 56.1913 2594.01 67.0927 2607.11 76.4072 2613.67 87.1017 2613.67 99.1761 2613.67 107.663 2610.05 116.253 2602.83 124.946 2595.6 133.64 2585.66 140.194 2572.98 144.61 2560.31 149.026 2546.19 151.234 2530.64 151.234 2505.29 151.234 2485.15 145.542 2470.21 134.157 2457.6 124.567 2451.29 113.803 2451.29 101.867 2451.29 93.1734 2455.12 84.5316 2462.77 75.9415 2470.43 67.3515 2480.5 61.0038 2492.99 56.8985 2505.48 52.7932 2518.7 50.7406 2532.66 50.7406ZM2364.55 50.7406C2381.08 50.7406 2394.68 53.2072 2405.33 58.1404 2415.98 63.0737 2421.31 68.1967 2421.31 73.5094 2421.31 76.1313 2419.81 78.2529 2416.81 79.8743 2413.81 81.4957 2409.62 82.3064 2404.23 82.3064 2397 82.3064 2391.55 80.9955 2387.88 78.3736 2385.8 76.9247 2384.42 74.1649 2383.75 70.0941 2383.07 66.0233 2380.59 62.9184 2376.31 60.7796 2372.02 58.7097 2366.08 57.6747 2358.49 57.6747 2346.25 57.6747 2336.39 60.2276 2328.92 65.3333 2319 72.095 2314.04 81.03 2314.04 92.1384 2314.04 103.454 2318.97 113.441 2328.83 122.1 2338.69 130.759 2352 135.089 2368.78 135.089 2380.78 135.089 2391.55 132.777 2401.11 128.155 2407.84 124.981 2414.39 119.22 2420.76 110.871 2422.54 111.354 2424.31 111.837 2426.09 112.32 2421.56 124.808 2412.68 134.416 2399.45 141.143 2386.23 147.87 2371.59 151.234 2355.55 151.234 2336.45 151.234 2319.8 146.715 2305.59 137.676 2291.39 128.638 2284.28 116.425 2284.28 101.039 2284.28 86.1357 2292.15 74.0269 2307.89 64.7123 2323.62 55.3978 2342.51 50.7406 2364.55 50.7406ZM2228.65 50.7406C2231.34 50.7406 2234.04 50.7406 2236.73 50.7406 2236.73 76.1312 2236.73 101.522 2236.73 126.913 2236.73 132.846 2237.5 136.796 2239.03 138.763 2240.56 140.729 2242.82 142.195 2245.82 143.161 2248.82 144.127 2254.3 144.61 2262.26 144.61 2262.26 145.852 2262.26 147.094 2262.26 148.336 2235.02 148.336 2207.77 148.336 2180.53 148.336 2180.53 147.094 2180.53 145.852 2180.53 144.61 2188.73 144.61 2194.24 144.162 2197.06 143.265 2199.87 142.368 2202.11 140.884 2203.76 138.814 2205.41 136.745 2206.24 132.777 2206.24 126.913 2206.24 114.735 2206.24 102.557 2206.24 90.379 2206.24 80.0986 2205.69 73.4404 2204.59 70.4046 2203.73 68.1967 2202.38 66.6615 2200.55 65.799 2198.71 64.9366 2196.2 64.5054 2193.02 64.5054 2189.59 64.5054 2185.42 65.0228 2180.53 66.0578 2179.67 64.8158 2178.81 63.5739 2177.95 62.332 2194.85 58.4682 2211.75 54.6044 2228.65 50.7406ZM1936.07 50.7406C1938.7 50.7406 1941.33 50.7406 1943.96 50.7406 1943.96 76.1312 1943.96 101.522 1943.96 126.913 1943.96 132.846 1944.76 136.796 1946.35 138.763 1947.94 140.729 1950.24 142.195 1953.24 143.161 1956.24 144.127 1961.72 144.61 1969.68 144.61 1969.68 145.852 1969.68 147.094 1969.68 148.336 1942.43 148.336 1915.19 148.336 1887.94 148.336 1887.94 147.094 1887.94 145.852 1887.94 144.61 1896.15 144.61 1901.66 144.162 1904.47 143.265 1907.29 142.368 1909.52 140.884 1911.18 138.814 1912.83 136.745 1913.66 132.777 1913.66 126.913 1913.66 114.735 1913.66 102.557 1913.66 90.379 1913.66 80.0986 1913.11 73.4404 1912 70.4046 1911.15 68.1967 1909.8 66.6615 1907.96 65.799 1906.13 64.9366 1903.62 64.5054 1900.43 64.5054 1897 64.5054 1892.84 65.0228 1887.94 66.0578 1887.08 64.8158 1886.23 63.5739 1885.37 62.332 1902.27 58.4682 1919.17 54.6044 1936.07 50.7406ZM1600.44 50.7406C1615.38 50.7406 1627.62 52.155 1637.18 54.9839 1644.4 57.1227 1649.73 60.4691 1653.16 65.0228 1655.36 67.9897 1656.46 74.0614 1656.46 83.2379 1656.46 93.9668 1656.46 104.696 1656.46 115.425 1656.46 124.463 1656.77 130 1657.38 132.036 1657.99 134.071 1659 135.434 1660.41 136.124 1661.82 136.814 1663.44 137.159 1665.28 137.159 1667.24 137.159 1668.95 136.917 1670.42 136.434 1672.99 135.537 1677.95 133.019 1685.3 128.879 1685.3 130.811 1685.3 132.743 1685.3 134.675 1671.58 145.024 1658.48 150.199 1645.99 150.199 1639.99 150.199 1635.22 149.026 1631.67 146.68 1628.11 144.334 1626.28 140.332 1626.15 134.675 1608.89 142.195 1598.05 146.542 1593.64 147.715 1587.03 149.44 1579.99 150.302 1572.52 150.302 1560.89 150.302 1551.3 148.06 1543.77 143.575 1536.24 139.09 1532.48 133.191 1532.48 125.878 1532.48 121.255 1534.31 117.253 1537.99 113.872 1543.01 109.181 1551.73 104.765 1564.16 100.625 1576.59 96.4852 1597.26 91.4485 1626.15 85.5148 1626.15 84.2728 1626.15 83.0309 1626.15 81.789 1626.15 72.3365 1623.49 65.8508 1618.16 62.332 1612.84 58.8132 1605.09 57.0538 1594.93 57.0537 1587.21 57.0538 1581.09 58.2267 1576.56 60.5726 1571.91 62.9184 1569.58 65.6093 1569.58 68.6451 1569.7 70.646 1569.83 72.6469 1569.95 74.6478 1569.95 77.8217 1568.51 80.271 1565.63 81.996 1562.75 83.7209 1558.99 84.5833 1554.34 84.5833 1549.8 84.5833 1546.1 83.6864 1543.22 81.8925 1540.34 80.0986 1538.91 77.6492 1538.91 74.5443 1538.91 68.6106 1544.29 63.1599 1555.07 58.1922 1565.85 53.2244 1580.97 50.7406 1600.44 50.7406ZM1142.89 50.7406C1168.36 50.7406 1188.81 56.1913 1204.24 67.0927 1217.34 76.4072 1223.89 87.1017 1223.89 99.1761 1223.89 107.663 1220.28 116.253 1213.06 124.946 1205.83 133.64 1195.88 140.194 1183.21 144.61 1170.53 149.026 1156.42 151.234 1140.87 151.234 1115.52 151.234 1095.38 145.542 1080.44 134.157 1067.82 124.567 1061.52 113.803 1061.52 101.867 1061.52 93.1734 1065.34 84.5316 1073 75.9415 1080.65 67.3515 1090.72 61.0038 1103.21 56.8985 1115.7 52.7932 1128.93 50.7406 1142.89 50.7406ZM870.285 50.7406C886.817 50.7406 900.409 53.2072 911.063 58.1404 921.716 63.0737 927.043 68.1967 927.043 73.5094 927.043 76.1313 925.543 78.2529 922.543 79.8743 919.543 81.4957 915.349 82.3064 909.961 82.3064 902.736 82.3064 897.287 80.9955 893.613 78.3736 891.531 76.9247 890.154 74.1649 889.48 70.0941 888.807 66.0233 886.327 62.9184 882.041 60.7796 877.755 58.7097 871.816 57.6747 864.224 57.6747 851.979 57.6747 842.121 60.2276 834.651 65.3333 824.733 72.095 819.773 81.03 819.773 92.1384 819.773 103.454 824.702 113.441 834.559 122.1 844.417 130.759 857.734 135.089 874.51 135.089 886.511 135.089 897.287 132.777 906.838 128.155 913.573 124.981 920.124 119.22 926.492 110.871 928.268 111.354 930.043 111.837 931.819 112.32 927.288 124.808 918.41 134.416 905.185 141.143 891.96 147.87 877.327 151.234 861.285 151.234 842.182 151.234 825.529 146.715 811.324 137.676 797.119 128.638 790.017 116.425 790.017 101.039 790.017 86.1357 797.884 74.0269 813.62 64.7123 829.355 55.3978 848.244 50.7406 870.285 50.7406ZM691.339 50.7406C706.279 50.7406 718.524 52.155 728.076 54.9839 735.3 57.1227 740.627 60.4691 744.056 65.0228 746.26 67.9897 747.362 74.0614 747.362 83.2379 747.362 93.9668 747.362 104.696 747.362 115.425 747.362 124.463 747.668 130 748.28 132.036 748.892 134.071 749.903 135.434 751.311 136.124 752.719 136.814 754.342 137.159 756.179 137.159 758.138 137.159 759.852 136.917 761.322 136.434 763.893 135.537 768.852 133.019 776.2 128.879 776.2 130.811 776.2 132.743 776.2 134.675 762.485 145.024 749.383 150.199 736.892 150.199 730.892 150.199 726.116 149.026 722.565 146.68 719.014 144.334 717.177 140.332 717.055 134.675 699.789 142.195 688.951 146.542 684.543 147.715 677.93 149.44 670.889 150.302 663.419 150.302 651.786 150.302 642.204 148.06 634.673 143.575 627.142 139.09 623.377 133.191 623.377 125.878 623.377 121.255 625.214 117.253 628.887 113.872 633.908 109.181 642.633 104.765 655.062 100.625 667.491 96.4852 688.155 91.4485 717.055 85.5148 717.055 84.2728 717.055 83.0309 717.055 81.789 717.055 72.3365 714.391 65.8508 709.064 62.332 703.738 58.8132 695.992 57.0538 685.828 57.0537 678.114 57.0538 671.991 58.2267 667.461 60.5726 662.807 62.9184 660.48 65.6093 660.481 68.6451 660.603 70.646 660.726 72.6469 660.848 74.6478 660.848 77.8217 659.409 80.271 656.531 81.996 653.654 83.7209 649.888 84.5833 645.235 84.5833 640.704 84.5833 637 83.6864 634.122 81.8925 631.245 80.0986 629.806 77.6492 629.806 74.5443 629.806 68.6106 635.194 63.1599 645.97 58.1922 656.746 53.2244 671.869 50.7406 691.339 50.7406ZM534.108 50.7406C551.006 50.7406 565.089 54.4664 576.354 61.918 590.192 71.0255 597.111 82.8929 597.111 97.5201 597.111 113.872 588.784 127.396 572.13 138.09 558.415 146.853 541.149 151.234 520.332 151.234 511.27 151.234 503.433 150.509 496.821 149.06 491.922 148.026 486.412 145.956 480.289 142.851 480.289 152.476 480.289 162.101 480.289 171.726 480.289 178.211 480.993 182.334 482.402 184.093 483.81 185.853 486.259 187.25 489.749 188.285 493.239 189.32 499.576 189.837 508.76 189.837 508.76 191.114 508.76 192.39 508.76 193.667 479.371 193.667 449.982 193.667 420.593 193.667 420.593 192.39 420.593 191.114 420.593 189.837 422.123 189.837 423.654 189.837 425.185 189.837 431.92 189.906 437.675 189.182 442.451 187.664 444.777 186.905 446.584 185.68 447.869 183.99 449.155 182.299 449.798 178.004 449.798 171.105 449.798 141.229 449.798 111.354 449.798 81.4785 449.798 75.3378 449.308 71.4395 448.329 69.7836 447.349 68.1277 445.788 66.8857 443.645 66.0578 441.502 65.2298 438.594 64.8159 434.92 64.8158 431.981 64.8159 428.246 65.2988 423.715 66.2648 422.981 65.1608 422.246 64.0569 421.511 62.9529 438.777 59.0201 456.043 55.0873 473.309 51.1546 475.636 51.1546 477.963 51.1546 480.289 51.1546 480.289 58.5372 480.289 65.9198 480.289 73.3024 488.983 64.9538 497.708 59.1064 506.464 55.7601 515.219 52.4137 524.434 50.7406 534.108 50.7406ZM999.271 22.383C1001.17 22.383 1003.07 22.383 1004.96 22.383 1004.96 32.767 1004.96 43.151 1004.96 53.5349 1018.07 53.5349 1031.17 53.5349 1044.27 53.5349 1044.27 55.9498 1044.27 58.3647 1044.27 60.7796 1031.17 60.7796 1018.07 60.7796 1004.96 60.7796 1004.96 81.2715 1004.96 101.763 1004.96 122.255 1004.96 128.396 1006.53 132.536 1009.65 134.675 1012.77 136.814 1016.78 137.883 1021.68 137.883 1025.72 137.883 1029.64 137.176 1033.44 135.761 1037.23 134.347 1040.17 132.26 1042.25 129.5 1044.64 129.5 1047.03 129.5 1049.42 129.5 1045.13 136.262 1039.07 141.35 1031.23 144.765 1023.39 148.181 1015.31 149.888 1006.99 149.888 1001.35 149.888 995.842 149.009 990.454 147.249 985.066 145.49 981.086 142.972 978.515 139.694 975.943 136.417 974.657 131.363 974.657 124.532 974.657 103.281 974.657 82.0304 974.657 60.7796 965.779 60.7796 956.902 60.7796 948.024 60.7796 948.024 59.6411 948.024 58.5027 948.024 57.3642 954.759 55.8463 961.647 53.2762 968.688 49.6539 975.729 46.0316 982.005 41.7365 987.515 36.7688 990.332 34.1469 994.25 29.3517 999.271 22.383ZM1.16669 7.9973C65.149 7.9973 129.131 7.9973 193.114 7.9973 194.032 18.2433 194.95 28.4892 195.869 38.7352 193.481 38.7352 191.093 38.7352 188.705 38.7352 186.134 31.3526 183.287 26.2814 180.164 23.5215 177.042 20.7616 172.419 18.6572 166.296 17.2083 161.398 16.1734 152.765 15.6559 140.397 15.6559 117.621 15.6559 94.8441 15.6559 72.0677 15.6559 72.0677 34.1469 72.0677 52.638 72.0677 71.129 90.3133 71.129 108.559 71.129 126.805 71.129 141.009 71.129 150.5 69.9216 155.275 67.5067 161.643 64.3329 165.194 58.7442 165.929 50.7406 168.194 50.7406 170.46 50.7406 172.725 50.7406 172.725 67.0237 172.725 83.3069 172.725 99.59 170.46 99.59 168.194 99.59 165.929 99.59 164.214 92.7594 162.5 88.3781 160.786 86.4462 158.581 84.0314 154.969 82.1339 149.949 80.754 144.928 79.3741 137.213 78.6841 126.805 78.6841 108.559 78.6841 90.3133 78.6841 72.0677 78.6841 72.0677 94.1048 72.0677 109.526 72.0677 124.946 72.0677 131.156 72.5574 134.933 73.5371 136.279 74.5166 137.624 76.2311 138.694 78.6802 139.487 81.1292 140.281 85.7824 140.677 92.6399 140.677 106.722 140.677 120.804 140.677 134.887 140.677 148.969 140.677 159.194 140.125 165.561 139.021 171.929 137.918 178.052 135.744 183.929 132.501 191.522 128.224 199.298 121.772 207.257 113.148 209.706 113.148 212.155 113.148 214.604 113.148 207.441 124.877 200.277 136.607 193.114 148.336 129.131 148.336 65.149 148.336 1.16669 148.336 1.16669 147.06 1.16669 145.783 1.16669 144.507 4.10559 144.507 7.0445 144.507 9.9834 144.507 15.8612 144.507 21.4329 143.713 26.6983 142.126 30.6168 141.022 33.2802 139.366 34.6885 137.159 36.0968 134.951 36.8009 130.431 36.8009 123.601 36.8009 93.2079 36.8009 62.8149 36.8009 32.422 36.8009 23.5215 35.209 18.0363 32.025 15.9664 27.6167 13.2065 20.2696 11.8266 9.9834 11.8266 7.0445 11.8266 4.10559 11.8266 1.16669 11.8266 1.16669 10.5502 1.16669 9.27373 1.16669 7.9973ZM1924.68 4.47849C1938.39 4.47849 1952.11 4.47849 1965.82 4.47849 1947.76 16.3804 1929.7 28.2822 1911.64 40.1841 1909.55 40.1841 1907.47 40.1841 1905.39 40.1841 1911.82 28.2822 1918.25 16.3804 1924.68 4.47849ZM2221.49 1.16666C2226.63 1.16666 2231.01 2.18436 2234.62 4.21975 2238.23 6.25515 2240.04 8.72176 2240.04 11.6196 2240.04 14.5175 2238.23 17.0013 2234.62 19.0712 2231.01 21.1411 2226.63 22.1761 2221.49 22.1761 2216.34 22.1761 2211.94 21.1411 2208.26 19.0712 2204.59 17.0013 2202.75 14.5175 2202.75 11.6196 2202.75 8.72176 2204.56 6.25515 2208.17 4.21975 2211.78 2.18436 2216.22 1.16666 2221.49 1.16666ZM2131.48 1.16666C2134.24 1.16666 2136.99 1.16666 2139.75 1.16666 2139.75 37.7003 2139.75 74.2339 2139.75 110.767 2139.75 121.876 2140.21 128.655 2141.13 131.104 2142.04 133.554 2143.51 135.261 2145.53 136.227 2147.55 137.193 2149.91 137.676 2152.61 137.676 2155.91 137.676 2160.32 137.09 2165.83 135.917 2166.5 137.124 2167.18 138.332 2167.85 139.539 2151.2 143.437 2134.54 147.336 2117.89 151.234 2115.07 151.234 2112.26 151.234 2109.44 151.234 2109.44 146.715 2109.44 142.195 2109.44 137.676 2101.24 142.506 2093.22 145.973 2085.38 148.077 2077.54 150.182 2069.09 151.234 2060.03 151.234 2041.66 151.234 2025.62 146.904 2011.91 138.245 1998.19 129.586 1991.33 118.461 1991.33 104.868 1991.33 91.276 1998.93 78.8394 2014.11 67.5585 2029.29 56.2775 2048.83 50.6371 2072.7 50.6371 2087.52 50.6371 2099.77 53.2934 2109.44 58.6062 2109.44 52.776 2109.44 46.9458 2109.44 41.1156 2109.44 30.2831 2108.98 23.625 2108.06 21.1411 2107.14 18.6572 2105.71 16.9668 2103.75 16.0699 2101.79 15.1729 2099.34 14.7244 2096.4 14.7244 2093.22 14.7244 2088.99 15.2764 2083.73 16.3804 2082.93 15.1729 2082.13 13.9655 2081.34 12.758 2098.05 8.89425 2114.77 5.03046 2131.48 1.16666ZM1483.62 1.16666C1486.37 1.16666 1489.13 1.16666 1491.88 1.16666 1491.88 37.7003 1491.88 74.2339 1491.88 110.767 1491.88 121.876 1492.34 128.655 1493.26 131.104 1494.18 133.554 1495.65 135.261 1497.67 136.227 1499.69 137.193 1502.05 137.676 1504.74 137.676 1508.05 137.676 1512.46 137.09 1517.97 135.917 1518.64 137.124 1519.31 138.332 1519.99 139.539 1503.33 143.437 1486.68 147.336 1470.03 151.234 1467.21 151.234 1464.39 151.234 1461.58 151.234 1461.58 146.715 1461.58 142.195 1461.58 137.676 1453.37 142.506 1445.35 145.973 1437.51 148.077 1429.68 150.182 1421.23 151.234 1412.17 151.234 1393.8 151.234 1377.76 146.904 1364.04 138.245 1350.33 129.586 1343.47 118.461 1343.47 104.868 1343.47 91.276 1351.06 78.8394 1366.25 67.5585 1381.43 56.2775 1400.96 50.6371 1424.84 50.6371 1439.66 50.6371 1451.9 53.2934 1461.58 58.6062 1461.58 52.776 1461.58 46.9458 1461.58 41.1156 1461.58 30.2831 1461.12 23.625 1460.2 21.1411 1459.28 18.6572 1457.84 16.9668 1455.88 16.0699 1453.92 15.1729 1451.47 14.7244 1448.53 14.7244 1445.35 14.7244 1441.13 15.2764 1435.86 16.3804 1435.06 15.1729 1434.27 13.9655 1433.47 12.758 1450.19 8.89425 1466.9 5.03046 1483.62 1.16666ZM284.689 1.16666C287.444 1.16666 290.199 1.16666 292.955 1.16666 292.955 43.082 292.955 84.9973 292.955 126.913 292.955 132.846 293.72 136.779 295.251 138.711 296.781 140.643 299.139 142.109 302.322 143.11 305.506 144.11 311.445 144.61 320.139 144.61 320.139 145.852 320.139 147.094 320.139 148.336 292.649 148.336 265.158 148.336 237.667 148.336 237.667 147.094 237.667 145.852 237.667 144.61 245.381 144.61 250.647 144.162 253.463 143.265 256.28 142.368 258.484 140.884 260.076 138.814 261.668 136.745 262.463 132.777 262.464 126.913 262.464 98.2101 262.464 69.5076 262.464 40.8051 262.463 30.1107 262.035 23.5387 261.178 21.0894 260.321 18.64 258.943 16.9668 257.045 16.0699 255.147 15.1729 252.728 14.7244 249.79 14.7244 246.606 14.7244 242.565 15.2764 237.667 16.3804 236.626 15.1729 235.585 13.9655 234.544 12.758 251.259 8.89425 267.974 5.03046 284.689 1.16666Z" fill="#FFFF00" fill-rule="evenodd" fill-opacity="1"/></g></g><path d="M2009.99 145.661C1991.5 149.801 1979.56 152.733 1974.17 154.458 1964.5 157.494 1957.58 160.668 1953.41 163.98 1949.25 167.292 1947.17 170.914 1947.17 174.847 1947.17 179.814 1949.8 183.937 1955.07 187.214 1960.33 190.492 1966.39 192.13 1973.25 192.13 1982.56 192.13 1994.8 188.681 2009.99 181.781 2009.99 169.741 2009.99 157.701 2009.99 145.661ZM1100.89 145.661C1082.4 149.801 1070.46 152.733 1065.07 154.458 1055.4 157.494 1048.48 160.668 1044.31 163.98 1040.15 167.292 1038.07 170.914 1038.07 174.847 1038.07 179.814 1040.7 183.937 1045.97 187.214 1051.23 190.492 1057.29 192.13 1064.15 192.13 1073.46 192.13 1085.7 188.681 1100.89 181.781 1100.89 169.741 1100.89 157.701 1100.89 145.661ZM903.43 119.581C897.553 119.581 891.736 120.409 885.981 122.065 881.572 123.306 874.286 127.032 864.123 133.242 864.123 145.04 864.123 156.839 864.123 168.637 864.123 176.296 864.674 181.332 865.776 183.747 867.49 187.749 871.684 191.268 878.358 194.304 885.032 197.34 893.45 198.858 903.614 198.858 915.859 198.858 925.778 196.167 933.37 190.785 943.289 183.747 948.249 173.846 948.249 161.082 948.249 146.593 942.616 135.45 931.35 127.653 923.513 122.271 914.206 119.581 903.43 119.581ZM2910.8 111.301C2904.31 111.301 2897.79 112.388 2891.24 114.561 2884.69 116.735 2879.39 120.547 2875.35 125.997 2871.31 131.448 2869.29 138.451 2869.29 147.007 2869.29 160.806 2874.16 172.708 2883.89 182.712 2893.63 192.717 2906.46 197.719 2922.37 197.719 2934.25 197.719 2944.05 194.959 2951.76 189.439 2959.48 183.92 2963.33 174.433 2963.33 160.978 2963.33 144.143 2956.91 130.896 2944.05 121.237 2935.35 114.613 2924.27 111.301 2910.8 111.301ZM1521.03 111.301C1514.54 111.301 1508.02 112.388 1501.47 114.561 1494.91 116.735 1489.62 120.547 1485.58 125.997 1481.54 131.448 1479.52 138.451 1479.52 147.007 1479.52 160.806 1484.38 172.708 1494.12 182.712 1503.85 192.717 1516.68 197.719 1532.6 197.719 1544.48 197.719 1554.27 194.959 1561.99 189.439 1569.7 183.92 1573.56 174.433 1573.56 160.978 1573.56 144.143 1567.13 130.896 1554.27 121.237 1545.58 114.613 1534.5 111.301 1521.03 111.301ZM2454.33 110.887C2443.56 110.887 2433.95 113.612 2425.5 119.063 2414.35 126.239 2408.78 136.726 2408.78 150.526 2408.78 164.463 2414.17 175.14 2424.94 182.557 2435.72 189.974 2447.72 193.683 2460.95 193.683 2472.09 193.683 2482.87 190.543 2493.27 184.265 2493.27 167.982 2493.27 151.698 2493.27 135.415 2492.54 130.724 2490.34 126.446 2486.66 122.582 2482.99 118.718 2478.12 115.803 2472.06 113.837 2466 111.87 2460.09 110.887 2454.33 110.887ZM1806.47 110.887C1795.69 110.887 1786.08 113.612 1777.63 119.063 1766.49 126.239 1760.92 136.726 1760.92 150.526 1760.92 164.463 1766.3 175.14 1777.08 182.557 1787.86 189.974 1799.86 193.683 1813.08 193.683 1824.22 193.683 1835 190.543 1845.41 184.265 1845.41 167.982 1845.41 151.698 1845.41 135.415 1844.67 130.724 1842.47 126.446 1838.8 122.582 1835.12 118.718 1830.26 115.803 1824.19 113.837 1818.13 111.87 1812.22 110.887 1806.47 110.887ZM2073.22 107.368C2099.6 107.368 2125.99 107.368 2152.38 107.368 2152.38 108.645 2152.38 109.921 2152.38 111.198 2150.67 111.198 2148.95 111.198 2147.24 111.198 2142.46 111.198 2138.82 111.853 2136.31 113.164 2133.8 114.475 2132.54 116.234 2132.54 118.442 2132.54 120.857 2133.83 123.72 2136.4 127.032 2149.44 144.488 2162.48 161.944 2175.53 179.401 2188.63 161.289 2201.73 143.177 2214.83 125.066 2217.65 121.202 2219.06 118.27 2219.06 116.269 2219.06 115.303 2218.57 114.509 2217.59 113.888 2216.24 112.853 2214.53 112.146 2212.45 111.767 2210.36 111.387 2206.14 111.198 2199.77 111.198 2199.77 109.921 2199.77 108.645 2199.77 107.368 2218.08 107.368 2236.39 107.368 2254.69 107.368 2254.69 108.645 2254.69 109.921 2254.69 111.198 2248.32 111.474 2243.92 112.198 2241.47 113.371 2237.18 115.441 2233.32 118.891 2229.9 123.72 2210 150.836 2190.1 177.952 2170.2 205.067 2167.69 205.067 2165.18 205.067 2162.67 205.067 2142.65 178.4 2122.63 151.733 2102.6 125.066 2099.91 121.34 2097.34 118.666 2094.89 117.045 2092.44 115.424 2089.32 114.061 2085.52 112.957 2083.44 112.336 2079.34 111.75 2073.22 111.198 2073.22 109.921 2073.22 108.645 2073.22 107.368ZM2916.5 104.574C2941.97 104.574 2962.42 110.025 2977.85 120.926 2990.95 130.241 2997.5 140.935 2997.5 153.009 2997.5 161.496 2993.89 170.086 2986.66 178.78 2979.44 187.473 2969.49 194.028 2956.81 198.444 2944.14 202.859 2930.03 205.067 2914.48 205.067 2889.13 205.067 2868.98 199.375 2854.04 187.991 2841.43 178.4 2835.13 167.637 2835.13 155.7 2835.13 147.007 2838.95 138.365 2846.61 129.775 2854.26 121.185 2864.33 114.837 2876.82 110.732 2889.31 106.627 2902.54 104.574 2916.5 104.574ZM2748.39 104.574C2764.92 104.574 2778.51 107.041 2789.16 111.974 2799.82 116.907 2805.14 122.03 2805.14 127.343 2805.14 129.965 2803.64 132.086 2800.64 133.708 2797.64 135.329 2793.45 136.14 2788.06 136.14 2780.84 136.14 2775.39 134.829 2771.71 132.207 2769.63 130.758 2768.26 127.998 2767.58 123.927 2766.91 119.857 2764.43 116.752 2760.14 114.613 2755.86 112.543 2749.92 111.508 2742.33 111.508 2730.08 111.508 2720.22 114.061 2712.75 119.167 2702.83 125.928 2697.87 134.863 2697.87 145.972 2697.87 157.287 2702.8 167.274 2712.66 175.933 2722.52 184.592 2735.84 188.922 2752.61 188.922 2764.61 188.922 2775.39 186.611 2784.94 181.988 2791.67 178.814 2798.23 173.053 2804.59 164.704 2806.37 165.187 2808.14 165.67 2809.92 166.153 2805.39 178.642 2796.51 188.249 2783.29 194.976 2770.06 201.704 2755.43 205.067 2739.39 205.067 2720.28 205.067 2703.63 200.548 2689.43 191.509 2675.22 182.471 2668.12 170.258 2668.12 154.872 2668.12 139.969 2675.99 127.86 2691.72 118.546 2707.46 109.231 2726.34 104.574 2748.39 104.574ZM2612.48 104.574C2615.18 104.574 2617.87 104.574 2620.57 104.574 2620.57 129.965 2620.57 155.355 2620.57 180.746 2620.57 186.68 2621.33 190.63 2622.86 192.596 2624.39 194.562 2626.66 196.029 2629.66 196.995 2632.66 197.961 2638.14 198.444 2646.1 198.444 2646.1 199.685 2646.1 200.927 2646.1 202.169 2618.85 202.169 2591.6 202.169 2564.36 202.169 2564.36 200.927 2564.36 199.685 2564.36 198.444 2572.56 198.444 2578.07 197.995 2580.89 197.098 2583.71 196.201 2585.94 194.718 2587.59 192.648 2589.25 190.578 2590.07 186.611 2590.07 180.746 2590.07 168.568 2590.07 156.39 2590.07 144.212 2590.07 133.932 2589.52 127.274 2588.42 124.238 2587.56 122.03 2586.22 120.495 2584.38 119.632 2582.54 118.77 2580.03 118.339 2576.85 118.339 2573.42 118.339 2569.26 118.856 2564.36 119.891 2563.5 118.649 2562.64 117.407 2561.79 116.165 2578.69 112.302 2595.58 108.438 2612.48 104.574ZM2319.9 104.574C2322.53 104.574 2325.16 104.574 2327.8 104.574 2327.8 129.965 2327.8 155.355 2327.8 180.746 2327.8 186.68 2328.59 190.63 2330.19 192.596 2331.78 194.562 2334.07 196.029 2337.07 196.995 2340.07 197.961 2345.55 198.444 2353.51 198.444 2353.51 199.685 2353.51 200.927 2353.51 202.169 2326.27 202.169 2299.02 202.169 2271.77 202.169 2271.77 200.927 2271.77 199.685 2271.77 198.444 2279.98 198.444 2285.49 197.995 2288.31 197.098 2291.12 196.201 2293.36 194.718 2295.01 192.648 2296.66 190.578 2297.49 186.611 2297.49 180.746 2297.49 168.568 2297.49 156.39 2297.49 144.212 2297.49 133.932 2296.94 127.274 2295.84 124.238 2294.98 122.03 2293.63 120.495 2291.8 119.632 2289.96 118.77 2287.45 118.339 2284.27 118.339 2280.84 118.339 2276.67 118.856 2271.77 119.891 2270.92 118.649 2270.06 117.407 2269.2 116.165 2286.1 112.302 2303 108.438 2319.9 104.574ZM1984.27 104.574C1999.21 104.574 2011.46 105.988 2021.01 108.817 2028.23 110.956 2033.56 114.302 2036.99 118.856 2039.19 121.823 2040.3 127.895 2040.3 137.071 2040.3 147.8 2040.3 158.529 2040.3 169.258 2040.3 178.297 2040.6 183.834 2041.21 185.869 2041.83 187.904 2042.84 189.267 2044.24 189.957 2045.65 190.647 2047.28 190.992 2049.11 190.992 2051.07 190.992 2052.79 190.75 2054.26 190.267 2056.83 189.371 2061.79 186.852 2069.13 182.712 2069.13 184.644 2069.13 186.576 2069.13 188.508 2055.42 198.858 2042.32 204.032 2029.83 204.032 2023.83 204.032 2019.05 202.859 2015.5 200.513 2011.95 198.168 2010.11 194.166 2009.99 188.508 1992.72 196.029 1981.88 200.375 1977.48 201.548 1970.86 203.273 1963.82 204.136 1956.35 204.136 1944.72 204.136 1935.14 201.893 1927.61 197.409 1920.08 192.924 1916.31 187.025 1916.31 179.711 1916.31 175.088 1918.15 171.086 1921.82 167.706 1926.84 163.014 1935.57 158.598 1948 154.458 1960.42 150.319 1981.09 145.282 2009.99 139.348 2009.99 138.106 2009.99 136.864 2009.99 135.622 2009.99 126.17 2007.32 119.684 2002 116.165 1996.67 112.647 1988.93 110.887 1978.76 110.887 1971.05 110.887 1964.92 112.06 1960.39 114.406 1955.74 116.752 1953.41 119.443 1953.41 122.478 1953.54 124.479 1953.66 126.48 1953.78 128.481 1953.78 131.655 1952.34 134.104 1949.46 135.829 1946.59 137.554 1942.82 138.417 1938.17 138.417 1933.64 138.417 1929.93 137.52 1927.06 135.726 1924.18 133.932 1922.74 131.483 1922.74 128.378 1922.74 122.444 1928.13 116.993 1938.9 112.026 1949.68 107.058 1964.8 104.574 1984.27 104.574ZM1526.72 104.574C1552.19 104.574 1572.64 110.025 1588.07 120.926 1601.17 130.241 1607.73 140.935 1607.73 153.009 1607.73 161.496 1604.11 170.086 1596.89 178.78 1589.66 187.473 1579.71 194.028 1567.04 198.444 1554.37 202.859 1540.25 205.067 1524.7 205.067 1499.35 205.067 1479.21 199.375 1464.27 187.991 1451.66 178.4 1445.35 167.637 1445.35 155.7 1445.35 147.007 1449.18 138.365 1456.83 129.775 1464.48 121.185 1474.56 114.837 1487.05 110.732 1499.54 106.627 1512.76 104.574 1526.72 104.574ZM1254.12 104.574C1270.65 104.574 1284.24 107.041 1294.9 111.974 1305.55 116.907 1310.88 122.03 1310.88 127.343 1310.88 129.965 1309.38 132.086 1306.38 133.708 1303.38 135.329 1299.18 136.14 1293.79 136.14 1286.57 136.14 1281.12 134.829 1277.45 132.207 1275.36 130.758 1273.99 127.998 1273.31 123.927 1272.64 119.857 1270.16 116.752 1265.87 114.613 1261.59 112.543 1255.65 111.508 1248.06 111.508 1235.81 111.508 1225.95 114.061 1218.48 119.167 1208.57 125.928 1203.61 134.863 1203.61 145.972 1203.61 157.287 1208.54 167.274 1218.39 175.933 1228.25 184.592 1241.57 188.922 1258.34 188.922 1270.34 188.922 1281.12 186.611 1290.67 181.988 1297.41 178.814 1303.96 173.053 1310.33 164.704 1312.1 165.187 1313.88 165.67 1315.65 166.153 1311.12 178.642 1302.24 188.249 1289.02 194.976 1275.79 201.704 1261.16 205.067 1245.12 205.067 1226.02 205.067 1209.36 200.548 1195.16 191.509 1180.95 182.471 1173.85 170.258 1173.85 154.872 1173.85 139.969 1181.72 127.86 1197.45 118.546 1213.19 109.231 1232.08 104.574 1254.12 104.574ZM1075.17 104.574C1090.11 104.574 1102.36 105.988 1111.91 108.817 1119.13 110.956 1124.46 114.302 1127.89 118.856 1130.09 121.823 1131.2 127.895 1131.2 137.071 1131.2 147.8 1131.2 158.529 1131.2 169.258 1131.2 178.297 1131.5 183.834 1132.11 185.869 1132.73 187.904 1133.74 189.267 1135.14 189.957 1136.55 190.647 1138.18 190.992 1140.01 190.992 1141.97 190.992 1143.69 190.75 1145.15 190.267 1147.73 189.371 1152.69 186.852 1160.03 182.712 1160.03 184.644 1160.03 186.576 1160.03 188.508 1146.32 198.858 1133.22 204.032 1120.73 204.032 1114.73 204.032 1109.95 202.859 1106.4 200.513 1102.85 198.168 1101.01 194.166 1100.89 188.508 1083.62 196.029 1072.78 200.375 1068.38 201.548 1061.76 203.273 1054.72 204.136 1047.25 204.136 1035.62 204.136 1026.04 201.893 1018.51 197.409 1010.98 192.924 1007.21 187.025 1007.21 179.711 1007.21 175.088 1009.05 171.086 1012.72 167.706 1017.74 163.014 1026.47 158.598 1038.9 154.458 1051.32 150.319 1071.99 145.282 1100.89 139.348 1100.89 138.106 1100.89 136.864 1100.89 135.622 1100.89 126.17 1098.22 119.684 1092.9 116.165 1087.57 112.647 1079.83 110.887 1069.66 110.887 1061.95 110.887 1055.82 112.06 1051.29 114.406 1046.64 116.752 1044.31 119.443 1044.31 122.478 1044.44 124.479 1044.56 126.48 1044.68 128.481 1044.68 131.655 1043.24 134.104 1040.36 135.829 1037.49 137.554 1033.72 138.417 1029.07 138.417 1024.54 138.417 1020.83 137.52 1017.96 135.726 1015.08 133.932 1013.64 131.483 1013.64 128.378 1013.64 122.444 1019.03 116.993 1029.8 112.026 1040.58 107.058 1055.7 104.574 1075.17 104.574ZM917.941 104.574C934.84 104.574 948.922 108.3 960.188 115.751 974.025 124.859 980.944 136.726 980.944 151.353 980.944 167.706 972.617 181.229 955.963 191.923 942.248 200.686 924.982 205.067 904.165 205.067 895.103 205.067 887.266 204.343 880.654 202.894 875.756 201.859 870.245 199.789 864.123 196.684 864.123 206.309 864.123 215.934 864.123 225.559 864.123 232.045 864.827 236.167 866.235 237.927 867.643 239.686 870.092 241.083 873.582 242.118 877.072 243.153 883.409 243.671 892.593 243.671 892.593 244.947 892.593 246.224 892.593 247.5 863.204 247.5 833.815 247.5 804.426 247.5 804.426 246.224 804.426 244.947 804.426 243.671 805.957 243.671 807.487 243.671 809.018 243.671 815.753 243.74 821.508 243.015 826.284 241.497 828.611 240.738 830.417 239.514 831.703 237.823 832.989 236.133 833.631 231.838 833.631 224.938 833.631 195.063 833.631 165.187 833.631 135.312 833.631 129.171 833.142 125.273 832.162 123.617 831.182 121.961 829.621 120.719 827.478 119.891 825.335 119.063 822.427 118.649 818.753 118.649 815.814 118.649 812.08 119.132 807.549 120.098 806.814 118.994 806.079 117.89 805.345 116.786 822.611 112.853 839.877 108.921 857.143 104.988 859.469 104.988 861.796 104.988 864.123 104.988 864.123 112.371 864.123 119.753 864.123 127.136 872.817 118.787 881.542 112.94 890.297 109.593 899.053 106.247 908.267 104.574 917.941 104.574ZM1383.1 76.2164C1385 76.2164 1386.9 76.2164 1388.8 76.2164 1388.8 86.6003 1388.8 96.9843 1388.8 107.368 1401.9 107.368 1415 107.368 1428.11 107.368 1428.11 109.783 1428.11 112.198 1428.11 114.613 1415 114.613 1401.9 114.613 1388.8 114.613 1388.8 135.105 1388.8 155.597 1388.8 176.089 1388.8 182.229 1390.36 186.369 1393.48 188.508 1396.6 190.647 1400.61 191.716 1405.51 191.716 1409.55 191.716 1413.47 191.009 1417.27 189.595 1421.06 188.18 1424 186.093 1426.09 183.333 1428.47 183.333 1430.86 183.333 1433.25 183.333 1428.96 190.095 1422.9 195.183 1415.06 198.599 1407.23 202.014 1399.15 203.722 1390.82 203.722 1385.19 203.722 1379.68 202.842 1374.29 201.083 1368.9 199.323 1364.92 196.805 1362.35 193.528 1359.78 190.25 1358.49 185.196 1358.49 178.366 1358.49 157.115 1358.49 135.864 1358.49 114.613 1349.61 114.613 1340.73 114.613 1331.86 114.613 1331.86 113.474 1331.86 112.336 1331.86 111.198 1338.59 109.68 1345.48 107.11 1352.52 103.487 1359.56 99.8649 1365.84 95.5699 1371.35 90.6021 1374.16 87.9803 1378.08 83.185 1383.1 76.2164ZM385 61.8306C448.982 61.8306 512.965 61.8306 576.947 61.8306 577.865 72.0766 578.784 82.3226 579.702 92.5685 577.314 92.5685 574.926 92.5685 572.539 92.5685 569.967 85.1859 567.12 80.1147 563.997 77.3548 560.875 74.595 556.252 72.4906 550.129 71.0417 545.231 70.0067 536.598 69.4892 524.23 69.4892 501.454 69.4892 478.677 69.4892 455.901 69.4892 455.901 87.9803 455.901 106.471 455.901 124.962 474.147 124.962 492.392 124.962 510.638 124.962 524.843 124.962 534.333 123.755 539.109 121.34 545.476 118.166 549.027 112.577 549.762 104.574 552.028 104.574 554.293 104.574 556.558 104.574 556.558 120.857 556.558 137.14 556.558 153.423 554.293 153.423 552.028 153.423 549.762 153.423 548.048 146.593 546.333 142.211 544.619 140.28 542.415 137.865 538.802 135.967 533.782 134.587 528.761 133.207 521.047 132.517 510.638 132.517 492.392 132.517 474.147 132.517 455.901 132.517 455.901 147.938 455.901 163.359 455.901 178.78 455.901 184.989 456.391 188.767 457.37 190.112 458.35 191.458 460.064 192.527 462.514 193.321 464.963 194.114 469.616 194.511 476.473 194.511 490.555 194.511 504.638 194.511 518.72 194.511 532.802 194.511 543.027 193.959 549.395 192.855 555.762 191.751 561.885 189.577 567.763 186.335 575.355 182.057 583.131 175.606 591.091 166.981 593.54 166.981 595.989 166.981 598.438 166.981 591.274 178.711 584.11 190.44 576.947 202.169 512.965 202.169 448.982 202.169 385 202.169 385 200.893 385 199.616 385 198.34 387.939 198.34 390.878 198.34 393.817 198.34 399.695 198.34 405.266 197.547 410.532 195.96 414.45 194.856 417.114 193.2 418.522 190.992 419.93 188.784 420.634 184.265 420.634 177.434 420.634 147.041 420.634 116.648 420.634 86.2554 420.634 77.3548 419.042 71.8696 415.858 69.7997 411.45 67.0399 404.103 65.6599 393.817 65.6599 390.878 65.6599 387.939 65.6599 385 65.6599 385 64.3835 385 63.1071 385 61.8306ZM2308.51 58.3118C2322.23 58.3118 2335.94 58.3118 2349.66 58.3118 2331.59 70.2137 2313.53 82.1156 2295.47 94.0175 2293.39 94.0175 2291.31 94.0175 2289.22 94.0175 2295.65 82.1156 2302.08 70.2137 2308.51 58.3118ZM2605.32 55C2610.46 55 2614.84 56.0177 2618.45 58.0531 2622.06 60.0885 2623.87 62.5551 2623.87 65.4529 2623.87 68.3508 2622.06 70.8347 2618.45 72.9046 2614.84 74.9745 2610.46 76.0094 2605.32 76.0094 2600.18 76.0094 2595.77 74.9745 2592.09 72.9046 2588.42 70.8347 2586.58 68.3508 2586.58 65.4529 2586.58 62.5551 2588.39 60.0885 2592 58.0531 2595.61 56.0177 2600.05 55 2605.32 55ZM2515.32 55C2518.07 55 2520.83 55 2523.58 55 2523.58 91.5336 2523.58 128.067 2523.58 164.601 2523.58 175.709 2524.04 182.488 2524.96 184.937 2525.88 187.387 2527.35 189.095 2529.37 190.06 2531.39 191.026 2533.75 191.509 2536.44 191.509 2539.75 191.509 2544.15 190.923 2549.66 189.75 2550.34 190.957 2551.01 192.165 2551.68 193.372 2535.03 197.271 2518.38 201.169 2501.72 205.067 2498.91 205.067 2496.09 205.067 2493.27 205.067 2493.27 200.548 2493.27 196.029 2493.27 191.509 2485.07 196.339 2477.05 199.806 2469.21 201.911 2461.37 204.015 2452.93 205.067 2443.86 205.067 2425.5 205.067 2409.45 200.738 2395.74 192.079 2382.02 183.42 2375.17 172.294 2375.17 158.702 2375.17 145.109 2382.76 132.673 2397.94 121.392 2413.13 110.111 2432.66 104.47 2456.54 104.47 2471.35 104.47 2483.6 107.127 2493.27 112.44 2493.27 106.609 2493.27 100.779 2493.27 94.9489 2493.27 84.1165 2492.81 77.4583 2491.9 74.9745 2490.98 72.4906 2489.54 70.8002 2487.58 69.9032 2485.62 69.0063 2483.17 68.5578 2480.23 68.5578 2477.05 68.5578 2472.82 69.1098 2467.56 70.2137 2466.76 69.0063 2465.97 67.7988 2465.17 66.5914 2481.89 62.7276 2498.6 58.8638 2515.32 55ZM1867.45 55C1870.21 55 1872.96 55 1875.72 55 1875.72 91.5336 1875.72 128.067 1875.72 164.601 1875.72 175.709 1876.18 182.488 1877.09 184.937 1878.01 187.387 1879.48 189.095 1881.5 190.06 1883.52 191.026 1885.88 191.509 1888.57 191.509 1891.88 191.509 1896.29 190.923 1901.8 189.75 1902.47 190.957 1903.15 192.165 1903.82 193.372 1887.17 197.271 1870.51 201.169 1853.86 205.067 1851.04 205.067 1848.23 205.067 1845.41 205.067 1845.41 200.548 1845.41 196.029 1845.41 191.509 1837.2 196.339 1829.18 199.806 1821.35 201.911 1813.51 204.015 1805.06 205.067 1796 205.067 1777.63 205.067 1761.59 200.738 1747.87 192.079 1734.16 183.42 1727.3 172.294 1727.3 158.702 1727.3 145.109 1734.89 132.673 1750.08 121.392 1765.26 110.111 1784.79 104.47 1808.67 104.47 1823.49 104.47 1835.74 107.127 1845.41 112.44 1845.41 106.609 1845.41 100.779 1845.41 94.9489 1845.41 84.1165 1844.95 77.4583 1844.03 74.9745 1843.11 72.4906 1841.67 70.8002 1839.72 69.9032 1837.76 69.0063 1835.31 68.5578 1832.37 68.5578 1829.18 68.5578 1824.96 69.1098 1819.69 70.2137 1818.9 69.0063 1818.1 67.7988 1817.31 66.5914 1834.02 62.7276 1850.74 58.8638 1867.45 55ZM668.522 55C671.278 55 674.033 55 676.788 55 676.788 96.9153 676.788 138.831 676.788 180.746 676.788 186.68 677.553 190.612 679.084 192.544 680.615 194.476 682.972 195.942 686.156 196.943 689.34 197.943 695.279 198.444 703.973 198.444 703.973 199.685 703.973 200.927 703.973 202.169 676.482 202.169 648.991 202.169 621.5 202.169 621.5 200.927 621.5 199.685 621.5 198.444 629.214 198.444 634.48 197.995 637.297 197.098 640.113 196.201 642.317 194.718 643.909 192.648 645.501 190.578 646.297 186.611 646.297 180.746 646.297 152.043 646.297 123.341 646.297 94.6384 646.297 83.944 645.868 77.3721 645.011 74.9227 644.154 72.4733 642.776 70.8002 640.878 69.9032 638.98 69.0063 636.562 68.5578 633.623 68.5578 630.439 68.5578 626.398 69.1098 621.5 70.2137 620.459 69.0063 619.418 67.7988 618.377 66.5914 635.092 62.7276 651.807 58.8638 668.522 55Z" fill="#FFFF00" fill-rule="evenodd" fill-opacity="1"/><text fill="#000000" fill-opacity="0" font-family="Arial,Arial_MSFontService,sans-serif" font-size="192.5" direction="ltr" writing-mode="lr-tb" x="385" y="223.437">El pacto davídico</text></g></svg>