<svg width="2003" height="577" xmlns="http://www.w3.org/2000/svg" xmlns:xlink="http://www.w3.org/1999/xlink" xml:space="preserve" overflow="hidden"><defs><clipPath id="clip0"><rect x="32" y="1865" width="2003" height="577"/></clipPath></defs><g clip-path="url(#clip0)" transform="translate(-32 -1865)"><path d="M0 75.2328 75.1677 0 2002 0 2002 497.767 1926.83 573 0 573 0 75.2328Z" fill="#70720E" fill-rule="evenodd" fill-opacity="1" transform="matrix(1 -1.22465e-16 -1.22465e-16 -1 33 2441)"/><path d="M0 75.2328 76 0 76 497.767 0 573 0 75.2328Z" fill="#000000" fill-rule="evenodd" fill-opacity="0.196078" transform="matrix(1 -1.22465e-16 -1.22465e-16 -1 1959 2441)"/><path d="M0 76 75.1677 0 2002 0 1926.83 76 0 76Z" fill="#FFFFFF" fill-rule="evenodd" fill-opacity="0.196078" transform="matrix(1 -1.22465e-16 -1.22465e-16 -1 33 2441)"/></g></svg>