<?xml version='1.0' encoding='utf-8'?>
<svg xmlns="http://www.w3.org/2000/svg" version="1.1" id="Layer_1" x="0px" y="0px" viewBox="0 0 5000 1850.98" enable-background="new 0 0 5000 1850.98"> <g transform="translate(1399.4 -34.2595)"> <path d="M2460.134,1877.02c-27.412-9.3-30.365-13.11-18.628-24.045c7.594-7.075,8.077-10.028,5.887-35.944 c-2.4-28.398,1.696-47.122,10.313-47.139c6.041-0.011,48.102-22.361,55.702-29.597c11.134-10.601-1.806-10.103,3.201-54.879 c4.716-42.154-2.014-47.884-37.387-31.833c-18.971,8.608-26.934,7.427-34.592,7.427c7.374-113.57,6.106-390.294,3.509-399.56 c-8.003-28.557,29.154-46.915,69.98-68.575c-0.06-5.016-1.313-159.609-3.744-162.039c-2.086-2.086-225.134,6.051-302.274,11.027 c-114.484,7.385-941.338,6.326-1081.389,21.59c-37.947,4.136-29.432-2.875-112.645,1.218c-34.075,1.676-103.352,1.901-153.948,0.5 c-127.741-3.538-123.823-3.62-127.809,2.682c-1.922,3.04-3.521,10.687-3.553,16.995c-0.068,13.658-15.871,39.769-35.099,57.996 c-54.594,51.752-147.013,24.845-169.676-49.399c-4.52-14.808-12.736-21.048-31.125-23.642 c-31.758-4.479-35.786-10.349-26.057,0.557c10.633,11.919,8.007,22.008-9.387,36.063c-48.598,39.271-135.922,37.837-280.673-4.609 c-92.112-27.01-94.215-27.137-104.923-6.318c-24.474,47.586-84.036,41.184-116.484-12.52l-15.538-25.716 c-162.826,4.134-148.059-1.777-150.722,29.875c-4.027,47.859-42.756,205.772-52.971,215.988c-1.337,1.336-2.429,5.302-2.429,8.813 c0,5.525-3.342,15.187-18.79,54.32c-29.928,75.818-42.06,83.848-49.83,104.24c-13.614,35.736-97.552,129.474-143.528,160.285 c-10.326,6.92-22.154,15.552-26.284,19.183c-131.349,115.47-416.842,123.102-580.379,15.515 c-40.819-26.853-52.307-35.104-52.307-37.569c0-1.556-4.927-5.74-10.948-9.297c-15.041-8.885-51.014-46.92-69.496-73.481 c-25.687-36.914-30.921-38.763-49.883-75.619c-7.969-15.489-17.382-32.501-20.917-37.805 c-33.484-50.235-81.736-209.367-96.697-318.903c-35.643-260.952-17.735-421.525,47.884-658.971 c16.442-59.496,54.864-146.125,84.933-191.496c37.111-55.996,119.266-131.32,165.815-152.028 c10.326-4.593,27.223-12.544,37.548-17.669c30.77-15.27,65.905-23.401,82.606-31.296c40.79-19.281,156.94-34.515,177.168-23.237 c4.511,2.515,19.113,4.573,32.449,4.573c38.314,0,131.329,19.859,143.148,30.563c1.962,1.777,6.186,3.232,9.387,3.233 c19.903,0.01,113.046,57.775,150.246,93.18c9.367,8.915,22.704,21.587,29.637,28.161c58.332,55.307,88.455,126.999,113.011,169.655 c15.626,27.142,52.893,135.07,64.18,185.864c16.798,75.595,25.609,86.866,34.32,150.193h-11.617 c-19.367,0-14.338,9.908,6.219,12.251c14.865,1.694,119.003,1.372,145.868-0.452c5.376-0.365,10.131-5.53,14.973-16.267 c26.914-59.683,80.439-71.086,124.914-26.612l20.688,20.688c35.412-5.258,54.071-6.658,102.793-27.769 c21.519-9.324,24.43-5.739,29.329-9.999c40.263-35.013,188.33-22.909,230.768,18.865c29.258,28.8,39.292,25.459,61.901-20.618 c25.572-52.116,35.54-61.932,71.668-70.577c56.235-13.456,94.227,3.553,130.597,58.469c15.487,23.385,14.573,24.196-26.707,23.697 c-37.103-0.449-39.188-0.169-59.011,7.925c-8.722,3.561-9.962,5.274-5.718,7.897c3.432,2.121,7.516,1.62,11.137-1.367 c17.959-14.813,30.124-14.582,30.124,0.571v9.242c0.101-0.002,2606.283-45.989,2875.143-47.204 c35.588,27.144,53.577,37.838,56.357,170.767c2.854,136.503-20.673,186.517-91.069,193.591 c-27.093,2.723-29.811,3.721-28.532,10.474c1.805,9.528,2.227,98.678,2.385,116.355l40.302,1.065 c47.689,1.26,43.415-5.222,44.955,68.19l1.059,50.482c-35.879,18.403-103.482,43.488-164.676,79.582l0.075,89.802 c125.9-6.119,130.022,5.903,159.918-3.215c15.729-4.797,33.432-0.734,18.496,4.245c-3.073,1.024-4.42,15.676-4.42,48.095 c0,61.622,5.19,51.078-86.361,95.91c-0.22,14.723-1.271,87.436-1.609,98.089c-0.229,7.231,1.53,8.364,12.205,7.865 c19.473-0.91,19.039-10.395-0.802-17.542c-17.635-6.352,40.507-6.797,82.2-8.064c-0.645,26.789-3.343,89.21-22.482,108.149 c-15.717,15.552-45.673,40.071-48.959,40.071c-1.417,0-8.871,4.985-16.564,11.078c-57.249,45.342-82.489,49.732-336.292,58.493 c-226.316,7.812-241.162,22.397-247.806-16.929c-2.188-12.952-3.892-15.094-12.009-15.094c-6.762,0-8.857,1.567-7.349,5.497 c6.901,17.984-50.346,39.009-106.983,39.291c-82.271,0.411-85.095,10.226-142.621,3.943c-82.44-9.005-124.968,14.345-183.292-5.442 L2460.134,1877.02z M2516.954,1827.192c0.815-9.829,3.143-14.424,7.748-15.297c6.712-1.272,7.922,0.67,12.017,19.287 c3.178,14.452,11.439,10.636,11.439-5.284c0-20.391,18.263-19.026,19.953,1.492c1.015,12.322,2.32,14.135,9.387,13.053 c5.072-0.777,7.644-3.375,6.732-6.801c-3.528-13.249-1.958-20.393,4.781-21.753c8.926-1.802,14.147,6.28,9.575,14.822 c-7.987,14.925-5.406,15.781,40.204,13.337c45.851-2.457,50.591-3.647,43.353-10.885c-11.104-11.105-0.124-25.744,12.428-16.566 c5.775,4.223,5.808,5.072,0.364,9.589c-9.726,8.072-7.225,15.301,5.293,15.301c11.917,0,13.659-3.529,7.462-15.109 c-5.741-10.727,10.49-18.897,22.478-11.316c4.676,2.957,4.179,4.942-3.21,12.807c-10.731,11.423-8.229,16.663,6.898,14.443 c13.028-1.912,12.561-1.116,7.878-13.432c-4.498-11.83,3.307-20.043,13.583-14.292c14.268,7.985,19.43-14,31.641,8.817 c4.409,8.237-6.351,8.772-24.137,1.199c-5.872-2.5-6.69-1.35-5.632,7.917c2.733,23.942,40.664,6.159,40.664-19.064 c0-18.65-8.346-21.865-50.092-19.295c-53.896,3.319-224.735,6.103-255.927,7.422c-12.029,0.509-17.119,14.97-5.632,16.001 c16.97,1.524,20.204-1.083,17.549,12.193c-2.304,11.52-0.453,15.463,7.257,15.463 C2513.819,1841.242,2516.268,1835.453,2516.954,1827.192L2516.954,1827.192z M2613.53,1823.938 c-4.799-5.783,2.901-16.49,11.86-16.49c7.003,0,11.868,11.335,7.252,16.897C2626.589,1831.637,2619.8,1831.493,2613.53,1823.938z M2648.412,1825.471c-5.587-5.587-1.231-14.268,7.16-14.268c4.471,0,7.108,2.637,7.108,7.108 C2662.68,1826.702,2653.999,1831.058,2648.412,1825.471L2648.412,1825.471z M2940.537,1820.812c0-7.106,1.764-14.01,3.919-15.343 c5.271-3.258,15.656,5.742,13.401,11.615c-5.016,13.073,26.383,22.08,40.637,11.657c5.674-4.149,6.084-6.375,2.433-13.198 c-3.586-6.702-3.329-8.615,1.402-10.43c9.981-3.83,16.506,1.437,17.743,14.323c1.007,10.484,2.842,12.608,11.785,13.632 c10.411,1.193,10.49,1.057,4.608-7.919c-7.07-10.79-4.161-21.456,5.852-21.456c5.632,0,7.108,2.753,7.108,13.26 c0,14.014,6.313,19.483,17.524,15.18c4.771-1.831,5.218-3.444,1.877-6.785c-8.173-8.173-5.429-22.326,4.066-20.975 c7.073,1.006,8.287,3.235,7.457,13.689c-1.322,16.641,11.241,15.509,14.129-1.272c3.038-17.657,17.559-17.787,20.86-0.187 c2.399,12.786,8.744,18.535,9.582,8.682c0.222-2.581,0.642-8.073,0.939-12.203c1.012-14.087,16.731-11.869,18.12,2.558 c0.815,8.469,3.377,12.814,8.083,13.706c5.753,1.091,6.682-0.761,5.632-11.234c-1.123-11.208-0.259-12.54,8.13-12.54 c8.329,0,9.254,1.375,8.208,12.203c-1.058,10.951-0.173,12.203,8.618,12.203c9.208,0,9.646-0.81,7.271-13.466 c-2.363-12.595-1.949-13.384,6.401-12.203c8.693,1.229,10.635,7.497,6.648,21.445c-3.109,10.874,16.212,10.095,16.914-9.482 c0.297-8.294,2.406-10.986,9.378-11.971c8.369-1.183,8.843-0.341,6.818,12.134c-1.197,7.373-0.75,14.287,0.993,15.364 c6.775,4.187,14.736-3.008,15.835-14.313c1.387-14.267,13.621-19.057,16.876-6.609c3.026,11.573,7.573,9.526,9.695-4.367 c3.327-21.78,2.493-21.972-92.662-21.366c-253.372,1.613-263.802,2.79-259.033,29.245 C2932.015,1837.841,2940.537,1842.403,2940.537,1820.812z M2970.575,1814.958c0-10.076,1.226-11.613,8.448-10.587 c6.188,0.879,8.448,3.711,8.448,10.587s-2.26,9.708-8.448,10.587C2971.802,1826.57,2970.575,1825.033,2970.575,1814.958z M2824.137,1766.323c63.262-23.939,78.061-23.371-275.98-18.331l-23.65,11.608c-32.559,15.98-36.831,27.171-8.978,23.517 C2598.485,1772.233,2798.972,1775.845,2824.137,1766.323z M3118.891,1771.591c150.886-1.899,205.587-5.378,210.538-13.389 c1.129-1.827,5.211-3.321,9.072-3.321c7.566,0,18.821-9.37,18.821-15.668c0-4.74-8.433-0.04-361.705,4.831 c-11.054,4.654-43.63,18.454-54.368,22.541c-11.624,4.424-6.373,12.166,6.298,9.285 C2952.985,1774.634,3030.089,1772.708,3118.891,1771.591L3118.891,1771.591z M2581.951,1703.929c0-21.7-1.07-26.125-6.571-27.185 c-6.787-1.307-10.394,46.778-3.99,53.183C2578.287,1736.823,2581.951,1727.802,2581.951,1703.929z M-761.719,1720.284 c0-5.181-10.373,0.803-13.67,0.803c-0.985,0-0.793,1.616,0.427,3.591C-772.268,1729.037-761.719,1725.537-761.719,1720.284z M2552.742,1695.742c-0.971-38.423-8.169-42.326-8.656-4.693c-0.361,27.796,1.223,37.548,6.093,37.548 C2552.046,1728.597,2553.199,1713.812,2552.742,1695.742L2552.742,1695.742z M2611.587,1722.657 c5.592-14.573,2.517-35.364-5.23-35.364c-6.6,0-7.51,2.503-7.51,20.652C2598.847,1728.578,2606.101,1736.955,2611.587,1722.657z M2644.161,1720.609c3.334-6.23,3.157-8.695-0.807-11.207c-10.276-6.512-16.52-0.696-12.58,11.718 C2633.848,1730.806,2638.805,1730.616,2644.161,1720.609L2644.161,1720.609z M2731.339,1721.029 c-3.018-11.542-8.583-12.865-8.583-2.04c0,5.754,2.119,9.609,5.281,9.609C2731.483,1728.597,2732.63,1725.967,2731.339,1721.029z M2923.332,1726.318c6.306-2.42,8.215-18.4,2.612-21.863c-1.831-1.131-4.173,0.881-5.207,4.472 C2915.745,1726.281,2908.976,1731.827,2923.332,1726.318L2923.332,1726.318z M3550.208,1720.148 c5.165-19.27,3.032-25.345-8.898-25.345c-12.835,0-12.757-0.22-6.915,19.277 C3539.228,1730.214,3546.738,1733.095,3550.208,1720.148z M3033.409,1702.313c0.21-22.19-6.146-31.17-11.741-16.59 c-3.061,7.977-2.905,33.486,0.225,36.615c7.56,7.56,11.319,1.025,11.517-20.026L3033.409,1702.313z M3059.935,1711.219 c0.755-7.521-1.391-13.44-6.571-18.128c-7.513-6.799-7.692-6.783-7.692,0.661 C3045.672,1720.668,3057.529,1735.188,3059.935,1711.219z M3002.825,1711.708c2.603-10.371-0.09-20.66-5.41-20.66 c-4.142,0-8.054,18.19-5.399,25.107C2995.038,1724.032,3000.272,1721.879,3002.825,1711.708z M-754.214,1702.313 c0-4.636,1.917-4.373-42.242-5.795c-37.886-1.22-51.748,4.344-16.897,6.782C-806.19,1703.801-754.214,1708.084-754.214,1702.313z M-865.225,1695.197c2.882-4.663-7.06-7.903-24.249-7.903c-7.97,0-15.535-1.69-16.811-3.755c-1.276-2.065-6.783-3.755-12.237-3.755 c-16.464,0-3.902,8.227,20.596,13.489C-870.568,1699.148-867.768,1699.313-865.225,1695.197L-865.225,1695.197z M-671.608,1691.049 c4.189-2.707,2.025-3.655-8.448-3.697c-7.744-0.03-14.081,1.632-14.081,3.697C-694.137,1695.831-679.008,1695.831-671.608,1691.049 z M-633.195,1679.784c6.597-6.146,6.95-7.51,1.942-7.51c-3.365,0-7.163,1.69-8.439,3.755c-3.33,5.389-20.651,2.144-20.651,7.51 C-660.343,1690.154-641.533,1687.553-633.195,1679.784z M3004.415,1675.909c5.527-13.343,4.424-15.366-6.785-12.435 c-5.399,1.412-8.284,5.065-8.284,10.49C2989.345,1690.637,2997.859,1691.736,3004.415,1675.909z M-941.942,1675.22 c-7.228-2.089-18.143-6.021-24.254-8.739c-11.394-5.067-18.857-3.924-15.011,2.298c3.088,4.997,16.148,2.017,24.246,7.25 c6.615,4.274,20.249,3.217,28.161,2.988L-941.942,1675.22L-941.942,1675.22z M-737.304,1664.934 c35.214-5.239,36.314-7.727,63.832-13.434c22.146-4.593,80.599-32.539,80.67-38.569c0.038-3.238-8.532-0.576-25.286,7.855 c-55.046,27.698-74.474,22.473-100.442,32.892c-7.162,2.873-24.551,4.932-82.121,9.723c-38.107,3.171-26.754-4.165-62.44-7.696 c-40.494-4.007-89.656-15.61-106.517-25.14c-4.953-2.799-8.208-2.771-11.077,0.099c-2.914,2.914-2.688,4.063,0.802,4.063 c7.1,0,19.539,12.994,37.94,16.563c77.283,14.991,114.494,14.012,119.117,18.802 C-819.755,1673.271-775.34,1670.593-737.304,1664.934L-737.304,1664.934z M-739.182,1644.359 c31.105-5.121,84.851-20.769,99.078-28.846c27.353-15.528,33.185-18.335,38.087-18.335c3.035,0,5.518-1.277,5.518-2.838 s5.145-5.115,11.433-7.899c15.658-6.931,24.855-21.158,18.572-28.729c-3.882-4.678-2.841-7.002,6.127-13.676 c20.762-15.451,86.212-84.036,94.407-98.928c26.855-48.809,46.496-90.492,53.299-113.114c18.65-62.024,30.44-93.086,30.875-134.7 c0.128-12.393,1.568-24.222,3.197-26.287c2.501-3.172,5.119-30.06,3.975-40.824c-0.192-1.802-2.883-1.172-5.98,1.398 c-6.788,5.633-6.264,13.383-5.747-85.113c0.379-72.205-3.469-99.213-9.531-66.898c-15.329,81.706-9.185-171.311-17.165-180.925 c-3.054-3.679-2.897-6.504,0.594-10.71c6.649-8.011,6.843-32.486,9.702-35.346c15.593-15.593,2.916,210.09,14.29,198.448 c2.26-2.314,3.8-124.355,2.811-222.791c-0.858-85.377,1.064-99.664,11.943-88.785c4.971,4.971,2.707,445.202-2.332,453.294 c-3.029,4.866,0.297,16.297,4.74,16.297c3.637,0,8.057-49.836,7.859-88.614c-0.082-16.315,0.511-47.405,1.32-69.089 c3.909-104.807,1.83-295.576-3.312-303.896c-0.763-1.234-4.159-29.251-7.547-62.26c-10.684-104.089-19.935-130.714-26.458-155.764 c-6.39-24.543-24.346-57.116-24.346-63.657c0-4.637-37.548-63.465-37.548-67.44c0-4.248-52.568-54.103-52.568-59.52 c0-2.067-3.212-4.598-7.137-5.624c-7.038-1.84-18.434-17.786-12.708-17.781c2.532,0.002,27.1,21.781,61.148,54.208 c16.883,16.079,24.907,26.323,30.282,38.662c5.938,13.631,15.071,19.838,12.019,8.169c-2.836-10.848-8.509-8.223-8.509-18.39 c0-7.358-43.62-51.422-49.294-49.796c-1.801,0.516-3.274-0.751-3.274-2.816c0-2.065-2.957-6.965-6.571-10.889 c-22.221-24.124-36.439-37.924-39.074-37.924c-4.258,0-43.48-25.398-46.321-29.995c-3.296-5.333-7.5-0.885-29.075-11.308 c-22.561-10.9-14.138-4.165-37.641-14.529c-25.202-11.113-40.967-12.882-58.336-19.656c-13.244-5.166-27.922-1.003-34.555-8.996 c-5.784-6.969,8.423-7.657,31.916-1.546c25.053,6.517,43.326,8.967,59.357,16.184c40.235,18.113,69.284,24.134,59.488,12.331 c-6.401-7.713-0.297-10.99,7.436-3.992c3.902,3.531,9.437,5.059,13.156,3.632c5.633-2.161,5.304-3.228-2.676-8.686 c-5.003-3.422-10.364-8.01-11.913-10.195c-1.888-2.663-3.929-2.244-6.193,1.27c-2.722,4.225-5.342,3.277-13.504-4.886 c-10.185-10.185-17.052-11.203-19.806-2.938c-0.818,2.452,1.189,4.459,4.459,4.459c10.825,0,5.698,15.154-5.285,1.919 c-2.552-3.075-5.986-4.759-7.631-3.743c-5.324,3.29-14.941-2.56-14.636-8.904c0.188-3.896,0.995-4.44,2.19-1.476 c1.041,2.581,6.315,4.694,11.719,4.694c7.642,0,8.824-1.001,5.32-4.506c-7.304-7.304-5.241-10.513,6.759-10.513 c35.049,0-25.702-24.913-76.974-31.565c-8.26-1.072-26.002-3.699-39.426-5.838c-26.576-4.235-124.865-5.487-141.652-1.803 c-20.231,4.439-21.06,5.009-16.047,11.049c2.531,3.051,6.524,4.326,8.871,2.834c6.418-4.079,40.354-4.669,37.875-0.659 c-3.006,4.863-35.485,1.946-35.485,7.209c0,5.395-24.815,2.094-28.161,7.51c-3.156,5.106,32.997,4.927,38.113-0.189 c4.79-4.79,108.767-2.436,142.119,3.217c19.606,3.323,54.445,7.877,54.445,12.486c0,4.379-27.595,4.182-32.104-0.23 c-13.544-13.254-195.134-9.051-224.522,5.196c-13.277,6.437-15.241,6.528-24.406,1.132c-13.219-7.782-90.1,20.005-110.521,39.945 c-29.329,28.638-125.17,61.515-201.947,250.093c-22.625,55.57-20.498,41.116-27.548,69.705 c-19.577,79.388-34.857,104.12-47.296,217.539c-2.265,20.651-6.648,56.481-9.74,79.62c-7.143,53.447-6.709,223.772,0.696,273.333 c13.046,87.324,12.492,97.489,17.171,105.135c25.831,42.2,14.803,41.789,21.41,49c5.362,5.854,23.988,81.061,56.398,156.576 c5.549,12.929,9.757,17.835,15.298,17.835c10.339,0,9.258,7.51,2.011,7.51c-3.098,0-5.632,2.328-5.632,5.172 c0,7.539,11.265,12.035,11.265,20.053c0,8.5,12.653,20.202,16.394,35.682c4.348,17.99,33.398,25.827,13.584,4.737 c-6.075-6.467-7.638-10.635-4.982-13.291c4.036-4.036,18.568,11.986,40.793,44.978c32.596,48.386,128.338,126.005,146.722,118.951 c7.849-3.012,16.533,1.456,16.533,8.506c0,3.413,3.379,8.315,7.51,10.895c6.289,3.927,7.51,3.75,7.51-1.092 c0-3.18-2.535-6.754-5.632-7.943c-8.058-3.092-6.956-8.867,1.691-8.867c11.859,0,12.339,15.186,16.822,7.932 c1.948-3.151,5.34-2.873,12.723,1.043c61.708,32.727,197.071,36.987,289.802,9.12c20.245-6.084,83.487-37.033,92.741-45.386 c12.869-11.615,38.043-4.619-16.758,23.937c-8.806,4.589-17.884,10.599-20.173,13.358c-6.394,7.704-18.107,2.937-24.081,8.094 c-3.689,3.184-42.062,15.389-74.909,23.826c-20.204,5.19-141.297,6.313-161.457,1.498c-17.904-4.276-46.935-5.598-46.935-10.106 c0-1.802-3.042-3.277-6.759-3.277c-11.635,0-13.194-11.588-19.734-5.048c-5.563,5.563,10.796,8.581,28.752,17.028 C-896.888,1646.518-794.102,1653.401-739.182,1644.359L-739.182,1644.359z M-859.336,1602.197 c-18.696-3.874-107.537-28.682-119.301-26.433c-6.358,1.215-10.155-1.112-14.89-9.129c-7.239-12.254-14.72-14.888-8.32-2.929 c5.663,10.581,2.547,12.662-5.554,3.709c-3.623-4.004-8.793-6.433-11.488-5.399c-6.557,2.516-11.752-6.141-4.003-6.141 c20.378,0-22.859-27.713-26.103-22.463c-1.254,2.029-0.067,3.702,2.635,3.718c2.703,0.015,6.868,4.24,9.255,9.387 c10.677,23.02-17.54-5.662-23.247-5.662c-9.583,0-66.743-55.956-85.76-83.953c-13.915-20.485-24.719-32.536-30.466-33.978 c-9.056-2.273-31.958-32.096-31.958-41.616c0-2.872-1.689-6.267-3.755-7.543c-5.268-3.255-0.966-8.619-10.963-29.792 c-10.338-21.897-18.125-46.747-26.667-85.094c-15.489-69.535-16.311-83.238-16.757-279.37 c-0.36-159.235-1.511-198.73-6.818-234.438c-16.112-108.401,4.906-227.412,9.612-240.548c3.484-9.725,14.926-57.643,16.818-70.438 c0.996-6.731,3.313-13.167,5.151-14.302c5.869-3.627,3.583-9.131-3.792-9.131c-10.507,0-4.31,6.948-20.144,69.464 c-26.092,103.011-30.72,181.883-17.186,292.876c3.626,29.734,4.733,82.321,3.953,187.741 c-1.626,219.897,5.995,166.564,12.316,253.451c2.65,36.421,13.264,45.058,1.78,45.058c-7.512,0-9.261-6.746-20.504-79.072 c-8.799-56.613-11.637-116.279-8.919-187.52c6.858-179.709-40.511-399.308,30.577-563.224c5.95-13.717,3.634-13.42,7.423-17.21 c1.549-1.549,2.816-5.218,2.816-8.154c0-5.303,10.377-28.903,33.603-76.421c14.526-29.717,50.539-70.035,64.022-71.674 c5.374-0.653,10.952-4.707,13.048-9.484c2.014-4.589,8.234-10.237,13.823-12.552c5.589-2.315,19.149-12.604,30.133-22.864 c48.321-45.139,61.589-40.909,87.557-56.473c15.879-9.518,16.581-3.68,38.539-14.29c8.549-4.13,19.75-7.51,24.89-7.51 s10.391-1.69,11.667-3.755c1.276-2.065,11.092-3.61,21.812-3.432c17.186,0.285,18.198,0.71,8.549,3.595 c-6.019,1.8-12.429,2.354-14.246,1.231c-4.687-2.897-18.956,9.87-27.247,9.87c-3.17,0-5.764,1.585-5.764,3.521 s-2.957,3.32-6.571,3.075c-6.03-0.41-26.3,7.291-43.695,16.602c-48.49,25.953-39.815,26.131-65.644,39.184 c-10.065,5.086-57.32,54.516-5.557,15.394c36.335-27.462,80.232-47.054,87.673-55.268c38.953-42.999,275.916-32.965,345.189,14.617 c5.303,3.642,15.216,8.846,22.028,11.564c17.713,7.066,30.506,26.408,37.04,26.408c2.416,0,4.956,1.337,5.645,2.972 c0.688,1.634,7.666,7.808,15.505,13.72c16.541,12.473,13.789,22.809-3.122,11.728c-13.424-8.795-15.177-2.136-9.88-2.136 c2.41,0,4.381,2.393,4.381,5.317c0,7.63,26.624,23.195,40.337,44.991c14.325,22.767,38.514,48.146,38.514,52.837 c0,1.737,4.203,8.669,9.339,15.403c37.803,49.563,67.268,153.41,66.396,234.005c-0.502,46.339-13.413,118.675-26.545,148.716 c-10.395,23.78-32.204,100.016-35.984,125.787c-4.275,29.141,14.157,118.675,28.214,137.051 c3.004,3.927,11.939,31.874,20.408,63.832c18.436,69.572,13.652,204.436-9.525,268.47c-6.354,17.554-12.907,36.241-14.563,41.526 c-21.944,70.029-132.961,170.008-227.358,204.751C-722.899,1599.8-822.75,1609.779-859.336,1602.197L-859.336,1602.197z M-712.898,1554.373c131.879-40.046,230.414-149.959,244.381-272.6c1.764-15.489,4.902-42.523,6.973-60.077 c6.211-52.632-6.389-150.417-27.819-215.902c-35.358-108.048-35.387-132.408-0.281-240.309 c42.714-131.287,45.905-179.251,19.234-289.121c-11.577-47.69-44.705-114.363-72.301-145.51 c-6.867-7.75-12.485-15.616-12.485-17.48c0-5.122-48.621-36.992-65.731-54.996c-54.57-57.424-198.671-52.361-270.326-52.361 c-82.63,35.584-97.92,39.252-161.612,101.73c-46.548,45.661-61.759,94.156-76.661,128.503 c-35.263,81.274-33.919,273.941,2.299,329.547c2.802,4.302,8.57,21.091,12.818,37.31c20.458,78.109,21.699,119.549,5.395,180.158 c-38.765,144.1-40.833,187.517-15.655,328.547c31.533,176.627,234.726,296.322,411.769,242.561L-712.898,1554.373z M-1060.97,1528.317c1.106-2.881-2.741-7.788-9.005-11.488c-15.034-8.881-20.818-28.541-26.012-28.541 c-7.713,0-3.07,9.206,11.361,22.529c8.26,7.626,15.019,15.815,15.019,18.197 C-1069.606,1534.982-1063.333,1534.476-1060.97,1528.317L-1060.97,1528.317z M-1191.869,1367.283 c-13.144-30.6-19.483-46.939-24.678-50.149c-5.938-3.67,0,21.305,6.92,29.174c3.07,3.484,4.406,8.237,2.969,10.562 c-3.765,6.091,7.835,13.129,10.161,24.406c0.853,4.13,3.687,7.045,6.299,6.478c2.612-0.568,3.774,0.547,2.581,2.477 c-1.193,1.93-0.911,6.618,0.626,10.419c2.524,6.24,2.913,6.099,4.017-1.451C-1182.301,1394.6-1186.304,1380.238-1191.869,1367.283 L-1191.869,1367.283z M-1226.829,1247.98c-12.177-72.625-15.692-189.877-8.216-274.102c4.271-48.111,1.998-128.775-4.92-174.599 c-14.162-93.816-18.726-194.414-0.138-286.305c2.843-14.055-2.679-16.413-8.79-3.755c-12.428,25.743-17.969,166.016-9.011,228.105 c6.073,42.094,7.346,67.138,10.107,71.606c1.126,1.822,1.638,41.792,1.137,88.824c-2.774,260.696-0.542,310.694,16.801,376.38 c6.325,23.955,8.412,5.941,3.03-26.155L-1226.829,1247.98z M-449.768,1059.03c-6.173-6.173-2.053-19.644-7.803-23.198 c-4.793-2.962-4.727,3.642,0.225,22.529c6.342,24.184,8.544,27.541,10.169,15.5 C-446.376,1067.931-447.541,1061.257-449.768,1059.03L-449.768,1059.03z M-465.21,1011.115c-6.518-15.737-9.11-10.664-3.387,6.631 C-462.337,1036.665-458.958,1026.21-465.21,1011.115L-465.21,1011.115z M-488.014,937.291c-6.112-28.107-9.334-16.271-2.947,13.096 C-484.848,978.495-481.627,966.657-488.014,937.291z M-454.984,734.507c-2.295-8.785-2.295,21.925,0,13.142 C-454.039,744.035-454.039,738.121-454.984,734.507z M-439.978,701.098c-3.343-3.343-10.084,2.376-10.084,8.554 c0,4.904,0.83,4.849,6.079-0.4C-440.639,705.908-438.837,702.239-439.978,701.098L-439.978,701.098z M-1229.279,467.915 c3.762-20.211,21.47-65.296,18.95-67.816c-3.084-3.084-13.221,7.444-13.318,13.831c-0.053,3.361-3.43,16.089-7.51,28.284 C-1245.913,486.325-1233.825,492.334-1229.279,467.915L-1229.279,467.915z M-451.535,457.282c-1.254-3.267-2.279-9-2.279-12.74 s-2.957-7.927-6.571-9.302c-5.269-2.006-5.641-1.564-1.877,2.227c2.581,2.601,4.694,9.459,4.694,15.242 C-457.57,467.161-448.67,464.752-451.535,457.282L-451.535,457.282z M-1231.063,393.61c0-2.673,2.112-5.614,4.693-6.536 c2.582-0.922,3.507-2.954,2.056-4.515c-3.727-4.011-11.659,7.828-18.623,10.149c-2.663,0.888-3.438,4.26-1.9,8.268 C-1241.907,408.609-1231.063,402.809-1231.063,393.61z M-1198.217,372.167c8.134-16.861,8.481-25.622,0.852-21.539 c-14.112,7.553-19.843,0.327-10.071-12.698c13.561-18.077,15.069-21.351,8.711-18.911c-7.32,2.809-17.669,18.769-18.391,28.364 c-0.312,4.16-3.579,9.175-7.257,11.143c-11.598,6.207-7.074,25.244,5.942,6.663c6.991-9.981,14.434-5.882,11.384,6.269 C-1209.936,382.962-1203.667,383.465-1198.217,372.167L-1198.217,372.167z M-1176.107,329.185 c-5.619-5.619-16.681,22.275-3.55,9.144C-1176.166,334.838-1174.568,330.723-1176.107,329.185z M-1145.121,288.767 c24.786-28.233,25.792-30.166,17.361-33.402c-3.073-1.179-5.209-0.938-4.747,0.537c1.065,3.396-27.329,41.627-37.978,51.137 c-4.406,3.934-8.011,9.788-8.011,13.008C-1178.495,326.959-1179.374,327.783-1145.121,288.767z M-1184.119,301.738 c1.174-3.699,6.529-11.12,11.901-16.491c11.953-11.953,8.368-12.642-7.575-1.456c-13.601,9.543-20.94,17.954-21.112,24.193 C-1201.092,314.754-1186.531,309.337-1184.119,301.738L-1184.119,301.738z M-975.221,226.902 c38.451-20.021,91.359-37.722,112.849-37.755c9.687-0.015,18.823-1.984,20.301-4.376c3.259-5.274-49.099-1.849-56.074,3.668 c-9.574,7.571-15.691-3.471-99.895,41.509c-4.904,2.62-10.317,11.74-6.967,11.74 C-1004.243,241.687-990.839,235.033-975.221,226.902L-975.221,226.902z M-1031.414,220.453c11.33-10.253,7.766-12.838-6.275-4.553 c-7.228,4.265-13.142,8.432-13.142,9.26C-1050.831,229.182-1037.483,225.946-1031.414,220.453z M-640.616,189.327 c-4.647-0.114-8.448-1.897-8.448-3.963c0-6.793-28.716-5.488,5.907,11.804c23.002,11.488,19.504,14.48,24.639,14.48 C-614.15,211.648-628.77,189.618-640.616,189.327z M-970.474,187.629c32.219-15.569,43.366-18.808,97.686-28.386 c35.073-6.184,145.695,1.592,158.015,11.108c12.235,9.45,74.366,8.505,4.658-6.786c-122.879-26.954-192.576-21.283-278.76,22.68 C-1032.409,208.452-1016.103,209.678-970.474,187.629L-970.474,187.629z M-694.122,202.168c0-11.661-129.964-32.026-136.534-21.395 c-1.601,2.591,6.419,4.747,22.916,6.161c50.732,4.348,92.417,10.068,98.258,13.483 C-702.909,204.261-694.122,205.263-694.122,202.168z M-1225.76,1402.807c-5.617-3.794-9.118-19.175-4.95-21.751 c1.871-1.156,3.402-1.569,3.402-0.918c0,1.698,7.245,25.564,6.309,25.484C-1221.371,1405.593-1223.514,1404.324-1225.76,1402.807z M-1313.723,1082.731c-10.164-6.283-3.161-270.287-8.63-331.812c-1.263-14.206-1.152-24.684,0.248-23.286 c6.541,6.541,11.999,41.224,11.656,74.08c-0.207,19.926,0.931,38.345,2.528,40.931c3.343,5.409,3.108,137.192-0.323,181.922 c-1.412,18.402-0.719,34.154,1.788,40.662c4.934,12.805,0.891,22.546-7.266,17.504L-1313.723,1082.731z M-427.127,914.553 c-14.175-26.487,10.745-154.785,10.745-42.057C-416.382,914.637-419.84,928.171-427.127,914.553L-427.127,914.553z M-673.277,92.524c-1.01-2.632-6.114-4.785-11.341-4.785c-5.228,0-9.505-1.69-9.505-3.755s-4.969-3.755-11.043-3.755 c-11.492,0-17.32-4.862-13.411-11.188c1.346-2.178,4.882-2.366,8.67-0.461c10.527,5.294,32.7,11.649,40.647,11.649 c8.482,0,27.631,8.171,27.675,11.809C-641.525,96.943-671.406,97.401-673.277,92.524z M-770.604,70.084 c-1.45-1.45-8.909-2.213-16.576-1.697c-13.382,0.901-14.033-4.95-0.813-7.309c9.749-1.74,52.484,4.714,54.673,8.257 C-730.881,73.281-766.687,74-770.604,70.084L-770.604,70.084z M-834.664,65.639c-2.566-4.152,14.805-7.714,24.832-5.091 c5.716,1.495,6.285,2.69,2.443,5.125C-814.011,69.871-832.062,69.848-834.664,65.639L-834.664,65.639z M-1032.057,1638.482 c0-2.065-1.552-3.755-3.448-3.755c-8.769,0-20.723-9.487-12.051,1.174C-1041.921,1642.828-1032.057,1644.471-1032.057,1638.482z M-987.915,1626.279c-0.847-2.582-6.117-5.234-11.71-5.894c-5.592-0.661-12.205-4.462-14.694-8.448 c-2.489-3.986-7.583-7.248-11.319-7.248c-12.644,0-31.027-15.754-28.172-6.883c2.63,8.169,47.336,30.991,64.306,32.828 C-987.782,1630.82-987.068,1628.86-987.915,1626.279L-987.915,1626.279z M-1062.096,1623.463c0-2.065-0.707-3.755-1.57-3.755 c-5.094,0-14.764-7.799-11.213,1.459C-1072.358,1627.737-1062.096,1629.579-1062.096,1623.463z M-487.533,1621.495 c6.513-7.847-0.075-11.645-0.075-6.167c0,2.409-2.535,4.38-5.632,4.38C-503.532,1619.708-498.707,1634.959-487.533,1621.495 L-487.533,1621.495z M2544.198,1620.721c-1.624-3.655-2.589-72.542-2.144-153.083c0.74-133.993-0.871-163.233-8.571-155.533 c-1.073,1.073-2.132,60.414-2.354,131.868c-0.471,152.195-3.733,188.926-15.266,171.872c-5.958-8.812,0.172-286.688-5.995-302.759 c-15.65-40.782-3.622,299.327-12.39,304.746c-8.519,5.265-2.324,7.563,22.966,8.522 C2544.793,1627.276,2546.89,1626.779,2544.198,1620.721L2544.198,1620.721z M2690.415,1618.463 c-9.827-26.408-7.3-340.444,2.74-340.444c12.504,0,8.333,336.501,8.209,349.198l60.453-0.03 c76.739-0.038,68.653,22.53,68.042-189.897c-0.607-210.997,10.702-186.298-84.075-183.615 c-275.147,7.789-264.311-4.121-268.496,25.236c-3.252,22.811-7.055,324.344-4.205,333.326 c16.439,51.795,6.025-169.276,12.692-323.692c0.623-14.409,42.781-14.545,44.825-0.145c1.425,10.036,8.18,7.481,8.18-3.093 c0-5.148,2.593-7.288,8.83-7.288c11.691,0,18.985,213.777,6.613,348.616l139.221-0.03L2690.415,1618.463L2690.415,1618.463z M2574.23,1615.595c-5.109-8.267-4.854-336.986,0.263-338.949c13.087-5.022,13.564,1.074,13.218,168.804 C2587.369,1611.16,2585.564,1633.933,2574.23,1615.595z M2776.495,1615.015c-4.726-7.302-5.99-333.667-1.311-338.347 c10.512-10.512,12.068,5.804,12.177,127.652C2787.561,1626.724,2787.306,1631.714,2776.495,1615.015z M2801.567,1461.342 c-0.038-87.404-1.004-162.466-2.169-166.805c-2.398-8.932,8.725-22.779,14.033-17.471c7.144,7.144,2.032,340.528-5.242,341.928 C2802.021,1620.182,2801.567,1610.422,2801.567,1461.342z M2601.197,1612.945c-2.799-4.53-2.774-320.956-2.799-333.048h17.356 C2615.754,1606.199,2617.672,1639.603,2601.197,1612.945L2601.197,1612.945z M2633.899,1612.971 c-5.211-3.221-5.765-139.2-7.834-334.952c5.501,0,17.83-0.938,17.957,4.693c1.413,62.549-1.009,328.136-3.01,330.137 c-1.535,1.535-4.736,1.589-7.113,0.12V1612.971z M2659.733,1611.496c-5.325-5.327-4.553-108.039-4.553-333.476h17.279 C2672.081,1609.793,2673.835,1625.597,2659.733,1611.496L2659.733,1611.496z M2720.223,1612.891 c-7.045-4.453-9.224-331.158-2.227-333.843c11.065-4.246,12.167,11.133,12.224,170.534 C2730.276,1604.91,2729.43,1618.711,2720.223,1612.891z M2748.625,1278.019c12.382,0,10.716,7.325,9.813,332.302l-16.896,2.4 C2741.542,1283.236,2740.335,1278.019,2748.625,1278.019z M3239.003,1621.595c60.952-2.781,55.962,7.502,55.049-113.445 c-1.501-198.854-2.469-248.321-4.907-250.758c-7.669-7.664-342.664-0.83-347.726,7.094c-2.81,4.399-1.275,355.165,1.574,359.853 C2944.729,1627.195,3160.002,1625.2,3239.003,1621.595L3239.003,1621.595z M2984.366,1613.137 c-3.719-14.019-2.126-331.162,1.675-333.511c2.099-1.297,6.239,0.767,9.199,4.588c5.233,6.755,5.533,6.752,10.834-0.095 c17.414-22.493,18.828-3.5,18.926,254.226c0.038,51.966-1.289,75.56-4.331,78.095c-8.008,6.673-8.604-2.27-10.41-155.907 c-0.987-83.959-2.83-154.329-4.098-156.379c-7.719-12.489-9.294,13.301-9.294,152.135c0,83.348-1.026,154.214-2.279,157.481 C2991.573,1621.63,2986.537,1621.319,2984.366,1613.137L2984.366,1613.137z M3069.572,1615.342 c-1.782-2.761-3.822-28.139-4.533-56.396c-1.865-74.122-11.849-71.811-11.849,2.742c0,46.634-2.748,60.266-10.575,52.456 c-8.958-8.937-6.402-337.052,2.613-335.32c5.387,1.035,6.301,13.407,7.963,107.823c2.71,153.972,11.264,156.002,11.264,2.673 c0-103.796,1.568-118.81,11.373-108.909c1.765,1.782,3.536,77.272,3.936,167.756 C3080.467,1607.09,3079.067,1630.055,3069.572,1615.342L3069.572,1615.342z M3096.716,1612.757 c-2.618-4.236-3.604-330.852-1.007-333.45c12.808-12.808,13.804-0.755,13.804,167.16 C3109.513,1610.615,3107.949,1630.933,3096.716,1612.757z M3126.503,1611.572c-6.654-18.637-4.704-333.553,2.066-333.553 c11.007,0,11.361,6.325,9.877,176.267C3137.127,1605.39,3134.877,1635.022,3126.503,1611.572L3126.503,1611.572z M2954.734,1449.802c-1.71-162.344-0.445-181.819,11.067-170.308c7.269,7.269,4.888,332.704-2.435,332.704 C2956.774,1612.198,2956.364,1604.472,2954.734,1449.802z M3153.409,1609.784c-7.533-7.533-2.728-331.765,4.917-331.765 c9.366,0,8.794-12.824,7.703,172.722C3165.157,1598.913,3163.494,1619.87,3153.409,1609.784z M3181.201,1606.983 c-8.26-9.953-2.233-327.087,6.217-327.087c6.169,0,6.579,10.28,6.579,164.901 C3193.996,1610.375,3193.13,1621.357,3181.201,1606.983z M3209.737,1606.035c-3.678-3.678-1.416-300.536-4.422-305.4 c-4.099-6.632,2.476-22.616,9.302-22.616c8.931,0,11.183,10.293,11.244,51.407c0.038,18.981,1.741,35.555,3.806,36.831 c4.431,2.739,4.609,0.417,3.795-49.751c-0.655-40.352,9.382-57.166,16.81-28.161c3.84,14.998,2.325,313.69-1.611,317.627 c-9.93,9.93-11.491-4.865-11.748-111.333c-0.244-101.026-2.66-134.355-8.628-118.994c-1.204,3.098-2.653,56.299-3.219,118.226 C3224.017,1608.429,3222.588,1618.886,3209.737,1606.035L3209.737,1606.035z M3265.967,1601.872 c-5.307-8.837-1.995-324.285,3.427-326.366c9.987-3.832,10.24-0.077,11.183,165.805 C3281.532,1609.27,3280.069,1625.352,3265.967,1601.872z M-969.398,1610.499c-6.163-6.163-21.367-8.013-21.367-2.599 c0,3.135,23.043,11.606,25.792,9.481C-964.211,1616.792-966.202,1613.695-969.398,1610.499L-969.398,1610.499z M-572.694,1604.688 c5.52-6.195,8.597-11.265,6.837-11.265c-5.563,0-23.468,17.196-20.742,19.922C-583.113,1616.832-584.013,1617.392-572.694,1604.688 z M3323.536,1589.669c0-14.933-7.51-15.026-7.51,0C3316.027,1604.602,3323.536,1604.695,3323.536,1589.669z M3353.575,1591.325 c0-6.196-5.934-7.243-9.387-1.656c-3.062,4.954,1.427,11.986,5.892,9.227C3352.002,1597.708,3353.575,1594.301,3353.575,1591.325z M-430.649,1574.939c31.387-29.408,25.717-37.02-5.841-3.045C-465.505,1603.13-462.441,1604.727-430.649,1574.939 L-430.649,1574.939z M-1124.184,1578.003c-3.246-7.72-35.699-29.045-48.729-50.962c-5.132-8.631-11.497-17.924-14.145-20.652 c-8.134-8.379-23.103-30.744-23.813-35.579c-0.368-2.517-4.369-8.485-8.889-13.262c-4.519-4.777-11.629-15.866-15.799-24.643 c-6.145-12.932-14.266-21.208-14.266-14.539c0,4.544,13.335,32.201,20.136,41.761c13.918,19.564,0.737,8.449,23.461,34.829 c8.49,9.856,16.504,21.258,17.809,25.339c2.641,8.256,61.853,67.52,64.657,64.715 C-1122.784,1584.034-1122.974,1580.88-1124.184,1578.003L-1124.184,1578.003z M-1075.745,1580.282 c-1.189-3.098-4.211-5.632-6.717-5.632c-6.511,0-24.006-26.284-28.712-26.284c-4.213,0-82.328-78.83-82.328-83.081 c0-1.804-1.689-3.28-3.755-3.28c-8.653,0-1.934,9.239,30.039,41.303c18.586,18.64,33.793,35.558,33.793,37.597 c0,2.039,1.443,3.706,3.207,3.706C-1123.191,1544.611-1066.465,1604.468-1075.745,1580.282z M-530.08,1577.75 c10.06-9.451,14.205-24.807-2.574-8.733c-10.799,10.346-14.168,16.897-8.69,16.897 C-539.928,1585.914-534.859,1582.24-530.08,1577.75z M-529.167,1544.917c19.404-15.924,54.577-56.139,51.655-59.06 c-2.086-2.087-77.671,71.74-77.671,75.865C-555.183,1564.771-546.621,1559.24-529.167,1544.917L-529.167,1544.917z M-493.991,1538.861c15.568-21.391-12.378,0.097-12.378,6.332C-506.369,1551.057-500.79,1548.203-493.991,1538.861 L-493.991,1538.861z M-371.427,1502.912c27.79-38.088,15.478-32.68,6.588-20.249c-4.427,6.192-12.738,16.034-18.468,21.872 c-8.57,8.732-14.435,25.056-9.002,25.056C-391.53,1529.592-382.133,1517.586-371.427,1502.912z M-424.911,1467.013 c5.337-6.997,8.623-13.803,7.303-15.124c-1.321-1.321-2.89-1.697-3.487-0.837c-2.574,3.708-48.373,54.111-45.304,57.181 C-463.944,1510.688-440.318,1487.214-424.911,1467.013L-424.911,1467.013z M-461.312,1468.595c0-4.886-11.264,4.305-11.264,9.349 C-472.576,1482.832-461.312,1473.635-461.312,1468.595z M3424.442,1475.755c4.427-5.334,32.83-14.502,69.969-22.583 c14.665-3.191,22.529-6.765,22.529-10.238c0-7.073-8.966-4.245-112.645-1.58l-1.135,19.713 C3401.968,1481.783,3413.076,1489.45,3424.442,1475.755z M-335.863,1448.863c14.336-21.878-12.796,0.617-12.796,6.214 C-348.659,1461.353-341.893,1458.067-335.863,1448.863z M-431.27,1427.273c0-5.926-6.897-2.426-12.706,6.439 c-9.432,14.395-7.134,19.441,3.318,7.287C-435.497,1434.998-431.273,1428.822-431.27,1427.273z M-401.227,1427.497 c0-7.722-0.226-7.756-7.51-1.163c-4.13,3.738-7.51,9.128-7.51,11.978c0,4.019,1.686,4.28,7.51,1.163 C-404.606,1437.265-401.227,1431.875-401.227,1427.497z M-316.722,1413.169c10.038-11.092,4.665-12.837-5.667-1.84 C-334.099,1423.794-325.839,1423.243-316.722,1413.169L-316.722,1413.169z M-338.9,1404.963c8.188-15.835,13-33.074,9.231-33.074 c-4.155,0-22.752,38.255-20.426,42.018C-347.034,1418.859-345.419,1417.569-338.9,1404.963z M-1257.153,1390.985 c-4.468-8.349-9.624-10.047-13.155-4.333C-1273.077,1391.131-1245.31,1413.114-1257.153,1390.985z M-412.404,1394.195 c1.376-2.975,4.453-9.188,6.84-13.806c5.331-10.319,5.681-21.037,0.583-17.886c-2.065,1.276-3.792,5.178-3.839,8.67 c-0.045,3.492-3.388,10.574-7.426,15.736C-433.074,1408.422-416.104,1402.197-412.404,1394.195z M-299.966,1375.456 c0.162-8.154,5.012-8.339,10.487-24.219c6.701-19.437,10.992-24.406,3.176-24.406c-3.319,0-6.034,2.309-6.034,5.131 c0,5.05-12.645,39.673-18.891,51.725c-1.758,3.391-2.195,7.167-0.972,8.39C-309.202,1395.075-300.115,1382.73-299.966,1375.456 L-299.966,1375.456z M-1269.975,1359.515c-5.074-14.762-12.1-24.206-15.486-20.819c-1.087,1.087,1.677,10.77,6.144,21.517 C-1270.217,1382.114-1262.406,1381.531-1269.975,1359.515z M-315,1346.812c-0.105-5.489-1.193-4.985-5.499,2.548 C-334.883,1374.522-314.78,1358.092-315,1346.812L-315,1346.812z M-359.873,1344.667c6.712-21.384,11.213-20.682,11.213-30.164 c0-11.447-8.758-5.173-12.325,8.829c-1.805,7.088-4.84,14.492-6.743,16.454C-374.378,1346.639-370.892,1379.767-359.873,1344.667 L-359.873,1344.667z M-377.283,1307.268c11.145-34.261,11.796-38.636,5.745-38.636c-4.661,0-14.528,25.838-14.614,38.266 c-0.038,4.525-1.746,9.271-3.811,10.547s-3.755,7.39-3.755,13.585C-393.717,1348.849-388.227,1340.911-377.283,1307.268 L-377.283,1307.268z M-1285.387,1311.647c2.863-4.633-5.245-15.6-9.562-12.932 C-1299.448,1301.496-1293.506,1324.782-1285.387,1311.647z M-298.326,1305.754c1.399-3.646,5.085-5.337,9.256-4.246 c13.776,3.603,31.547-14.494,7.406-9.666c-11.169,2.234-11.693,1.847-9.036-6.665c4.193-13.434,5.071-28.256,9.363-39.075 c11.341-28.593,16.079-65.21,7.774-60.077c-2.065,1.276-3.755,8.642-3.755,16.367c0,20.357-3.862,9.76-11.111,43.71 c-2.646,12.391-7.011,27.598-9.702,33.793c-7.669,17.66-10.474,31.916-6.279,31.916 C-302.343,1311.812-299.605,1309.086-298.326,1305.754z M-263.666,1267.891c-5.619-5.619-16.68,22.273-3.55,9.144 C-263.725,1273.544-262.127,1269.429-263.666,1267.891z M-253.535,1233.899c1.272-6.712,0.779-12.203-1.095-12.203 c-3.868,0-6.035,6.594-9.256,28.161C-266.723,1268.844-257.448,1254.547-253.535,1233.899z M-329.213,1232.589 c-0.109-7.974,1.383-15.476,3.318-16.672c4.5-2.781,4.615-16.751,0.139-16.751c-4.813,0-10.774,35.836-16.277,46.474 c-2.61,5.045-2.217,7.931,1.381,10.156C-333.725,1260.079-328.966,1250.427-329.213,1232.589L-329.213,1232.589z M3137.694,1239.135c166.189-1.868,197.366-5.161,214.902-22.696c9.087-9.087-359.108-9.394-380.829-0.317 c-36.952,15.44-46.266,32.412-15.241,27.775c10.842-1.62,92.369-3.763,181.17-4.761L3137.694,1239.135z M2666.354,1235.281 c155.309-2.01,159.831-2.279,179.236-10.64c40.523-17.46,29.386-19.965-83.432-18.761c-221.171,2.36-268.418,7.082-268.418,26.83 c0,3.527,7.958,7.521,11.337,5.689C2506.149,1237.819,2578.724,1236.416,2666.354,1235.281L2666.354,1235.281z M-352.985,1202.117 c3.912-20.937-0.726-32.43-6.722-16.659c-5.157,13.565-5.35,42.874-0.248,37.773 C-357.908,1221.184-354.771,1211.683-352.985,1202.117L-352.985,1202.117z M-245.934,1200.106 c11.116-39.48,0.472-34.993-2.661-20.651c-3.398,15.546-8.292,27.222-3.128,27.222 C-249.557,1206.677-246.952,1203.72-245.934,1200.106z M3044.846,1196.06c4.347,4.348,19.629,0.724,19.629-4.655 c0-1.926-1.613-3.502-3.585-3.502c-7.516,0-7.69-34.956-11.496-187.741l20.713,0c0,192.113-1.303,193.373,7.51,193.373 c4.13,0,7.144-1.943,6.696-4.319c-3.658-19.413-4.688-188.692-1.161-190.872c12.733-7.869,15.116,5.044,15.15,82.067 c0.041,95.497,2.109,115.001,12.193,115.001c5.852,0,6.956-1.789,5.211-8.448c-4.483-17.112-7.463-185.561-3.328-188.117 c20.714-12.803,11.326,43.245,17.176,45.433c8.005,2.995,10.019-1.265,10.019-21.188c0-15.99,1.529-22.714,5.512-24.242 c9.137-3.506,9.713,1.288,11.757,97.867c2.1,99.207,2.414,102.482,9.835,102.393c11.795-0.141,14.615-5.804,8.531-17.131 c-10.108-18.819-1.516-66.547-7.405-135.155c-3.035-35.368,0.27-50.417,11.074-50.417c8.197,0,8.825,7.228,9.125,105.034 c0.271,88.045,0.593,92.007,7.723,94.644c9.06,3.352,13.036-1.909,8.252-10.92c-2.773-5.225-6.894-163.041-4.812-184.325 c0.278-2.844,3.926-4.444,8.566-3.755c9.635,1.431,15.372,182.534,6.135,193.664c-5.022,6.052-0.593,4.87,17.7,2.787 c-7.326-207.829-5.811-195.251,13.349-195.251c3.104,183.439,2.249,200.694,11.843,194.765c2.752-1.701,3.559-32.81,2.557-98.558 c-1.332-87.336-0.896-96.184,4.785-97.292c9.118-1.779,10.202,5.704,10.773,74.304c0.749,90.034,3.315,120.154,10.235,120.154 c4.904,0,5.452-12.564,4.209-96.615c-1.297-87.705-0.854-96.727,4.802-97.835c18.029-3.532,5.956,196.327,17.594,196.327 c11.189,0-2.699-197.128,9.92-197.128c8.461,0,8.809,2.404,10.891,75.096c2.838,99.091,4.047,115.895,8.67,120.518 c6.874,6.874,12.58,0.59,8.709-9.591c-4.87-12.809-6.902-163.288-8.532-176.634c-0.634-5.199,1.577-7.864,7.191-8.665 c7.512-1.072,8.268,0.86,10.283,26.282c4.067,51.31,4.996,160.922,1.382,163.156c-5.845,3.613,3.484,10.089,10.6,7.358 c5.951-2.284,6.218-7.683,3.316-67.147c-4.427-90.711-3.085-147.954-6.334-151.205c-1.955-1.955-204.208-3.889-383.545,3.935 l-2.979,11.181c-2.93,10.994-3.527,196.562-0.649,201.742c9.568,17.223,12.497-5.003,12.497-94.825 c0-91.792,1.669-104.788,12.116-94.341c2.562,2.562,3.789,33.93,3.49,89.197c-0.576,106.299,0.513,110.897,24.281,102.545 C3037.459,1193.448,3042.7,1193.914,3044.846,1196.06L3044.846,1196.06z M3025.263,1183.487 c-2.993-9.07-4.742-175.282-1.893-179.892c11.473-18.564,14.818-0.226,15.446,84.688c0.345,46.531,0.766,87.535,0.939,91.121 C3040.127,1187.143,3027.631,1190.664,3025.263,1183.487L3025.263,1183.487z M3143.783,1187.786 c-0.781-5.098-2.131-35.037-3-66.531c-1.618-58.659-12.071-89.505-12.725-37.548c-0.405,32.177,1.74,100.207,3.56,112.92 c0.244,1.7,3.399,2.492,7.014,1.76C3143.268,1197.447,3144.785,1194.325,3143.783,1187.786L3143.783,1187.786z M2879.707,1192.22 c4.888-3.101,3.033-200.395-1.959-208.473c-2.4-3.883-317.697-0.557-330.818,3.489l-8.766,2.703 c5.319,205.262,2.986,201.719,18.185,201.719c9.159,0,9.459-0.49,4.029-6.571c-6.665-7.462-6.641-37.319-10.17-177.918 c15.085,2.144,20.794-8.511,21.944,130.983c0.427,51.804,0.694,53.506,8.369,53.506c6.867,0,7.65-1.633,5.85-12.203 c-2.642-15.519-6.373-145.353-7.247-172.434l17.876,2.528c0.653,22.494,4.439,154.428,5.106,169.906 c0.447,10.373,1.934,12.203,9.913,12.203c9.124,0,12.619-5.069,6.221-9.023c-4.412-2.726-7.393-147.973-10.465-163.33 c-1.988-9.938,10.569-19.702,17.028-13.242c1.466,1.465,6.17,108.838,7.598,173.393c0.244,11.028,1.367,12.203,11.667,12.203 c10.131,0,10.962-0.812,7.483-7.313c-11.024-20.598-14.083-177.596-3.5-179.614c7.243-1.381,6.548,9.53,13.361,140.177 c2.348,45.043,2.804,47.071,10.326,45.995c5.503-0.787,7.509-3.383,6.671-8.634c-7.244-45.405-10.852-169.682-5.094-175.44 c10.846-10.846,13.151,4.38,17.939,118.521c2.041,48.645,3.856,63.695,7.868,65.234c7.996,3.068,7.938,4.68,3.163-89.043 c-3.665-71.932-3.596-89.233,0.376-93.62c7.41-8.184,21.507,5.17,16.108,15.259c-5.78,10.802,3.27,73.941,3.771,130.928 c0.255,28.996,2.612,36.635,10.225,33.136c4.821-2.215-1.856-127.526-4.166-150.425c-2.565-25.441-2.144-29.352,3.391-31.476 c13.145-5.044,12.747-8.117,21.938,169.369c0.58,11.21,2.519,15.307,7.712,16.304c6.453,1.239,6.765-0.853,4.464-29.992 c-9.045-114.568-9.131-157.11-0.315-157.11c8.07,0,9.683,9.347,11.605,67.24c3.15,94.909,5.388,116.746,11.964,116.746 c5.141,0,5.461-7.1,2.754-61.016c-5.549-110.495-4.139-129.54,8.985-121.429c3.522,2.177,6.968,53.301,9.387,139.264 c1.21,43.039,1.636,45.112,9.496,46.276c6.874,1.018,7.912-0.218,6.309-7.51c-7.855-35.731-11.194-169.844-4.369-175.509 c11.811-9.802,16.409,13.132,16.952,84.547c0.836,109.97,5.055,98.293,32.233,102.227c2.065,0.299,5.938-0.842,8.606-2.534 L2879.707,1192.22z M2856.248,1175.699c-2.515-7.998-7.327-92.856-7.506-132.357l-0.169-37.548h18.774 c0.598,32.627,1.451,86.657,3.225,134.235C2871.998,1178.294,2863.623,1199.151,2856.248,1175.699L2856.248,1175.699z M-352.027,1156.751c-3.022-3.022-4.113-1.145-4.03,6.933c0.101,9.71,0.611,10.222,4.144,4.144 c2.888-4.969,2.856-8.107-0.113-11.077L-352.027,1156.751z M-259.46,1157.923c5.537-17.741,6.078-33.853,1.136-33.853 c-5.397,0-6.757,3.827-9.666,27.223C-271.082,1176.155-266.308,1179.866-259.46,1157.923z M3521.573,1160.842 c8.193-6.743,1.09-10.488-19.893-10.488c-19.526,0-20.43,0.434-20.43,9.813C3481.249,1170.539,3509.222,1171.007,3521.573,1160.842 L3521.573,1160.842z M-308.986,1110.929c2.824-58.064,6.594-96.435,5.265-133.296c-0.559-15.489-0.84-34.92-0.626-43.18 c3.414-131.511-5.249-313.477-14.648-307.669c-3.145,1.944-2.818,10.298,2.637,67.36c4.392,45.946,2.724,383.544-2.091,423.315 c-2.435,20.113-3.193,38.565-1.685,41.006C-315.339,1166.225-310.716,1146.514-308.986,1110.929L-308.986,1110.929z M-343.413,1126.887c7.415-60.41,14.797-351.086,9.635-400.827c-3.664-35.153-11.644-200.337-33.382-262.838 c-2.842-8.174-25.724-88.267-37.628-95.624c-6.528-4.035-4.5,6.727,4.975,26.396c11.141,23.125,33.895,116.204,39.412,161.222 c9.687,79.036,19.486,256.97,17.059,309.773c-1.568,34.142-3.827,225.817-9.064,244.039c-5.492,19.109-4.782,33.818,1.632,33.818 C-347.229,1142.845-344.699,1137.359-343.413,1126.887L-343.413,1126.887z M360.076,1106.235c2.103-6.387-3.617-5.905-12.443,1.049 c-7.058,5.561-7.001,5.709,1.804,4.694C354.438,1111.401,359.225,1108.817,360.076,1106.235L360.076,1106.235z M285.986,1089.489 c-13.107-1.924-23.874,2.778-12.835,5.604C298.921,1101.693,305.089,1092.293,285.986,1089.489z M345.976,1089.531 c46.809-13.707,39.608-25.725,14.783-13.73c-21.975,10.617-41.708,10.768-44.051,17.797 C314.573,1100.003,321.753,1096.624,345.976,1089.531L345.976,1089.531z M34.326,1079.013c0-4.965-11.264-4.965-11.264,0 C23.061,1083.978,34.326,1083.978,34.326,1079.013z M321.85,1067.295c2.644-4.278-28.441-4.492-28.441,0.178 C293.409,1074.736,317.344,1074.586,321.85,1067.295L321.85,1067.295z M439.847,1050.546c0-3.65-22.998,17.16-20.288,21.546 C421.575,1075.354,439.847,1055.949,439.847,1050.546z M432.337,1025.926c0-4.25-7.51-4.546-7.51,0.678 c0,10.774-33.923,34.814-33.653,42.687C391.336,1074.006,432.337,1030.812,432.337,1025.926L432.337,1025.926z M79.384,1060.677 c0-3.806-15.019-9.738-15.019-1.964C64.364,1065.959,79.384,1064.763,79.384,1060.677z M368.776,1047.264 c-2.474-1.529-7.349-0.301-10.833,2.73c-9.886,8.6-20.966,9.579-10.089,9.815C355.994,1059.986,375.762,1051.582,368.776,1047.264z M668.891,1053.75c0-1.504-6.336-8.699-14.081-15.989c-16.628-15.653-30.977-35.261-30.977-42.328 c0-10.064-3.773,0.895-11.287-35.831c-3.291-16.082-6.069-22.437-8.671-19.835c-3.691,3.691,3.381,44.596,8.494,49.131 c1.164,1.033,4.465,8.589,7.335,16.791c5.006,14.309,22.585,35.776,29.295,35.776c1.768,0,5.65,3.379,8.627,7.51 C663.019,1056.457,668.891,1058.947,668.891,1053.75L668.891,1053.75z M823.752,1041.465c57.32,0,100.466-1.457,100.466-3.393 c0-7.444-247.71-5.931-247.978,1.515c-0.192,5.327,22.462,8.402,35.806,4.861C718.228,1042.807,768.496,1041.465,823.752,1041.465 L823.752,1041.465z M-121.588,1037.147c4.253-3.933-114.8-4.004-117.323,3.585 C-240.834,1046.516-127.988,1043.068-121.588,1037.147L-121.588,1037.147z M49.652,1033.955c-7.996,0-15.326-7.999-15.326,2.832 c0,5.859,1.946,7.019,9.387,5.596C56.877,1039.867,53.343,1033.955,49.652,1033.955z M1027.784,1041.465 c28.931,0,35.364-1.024,35.364-5.632c0-4.728-8.135-5.632-50.69-5.632c-41.511,0-50.69,0.975-50.69,5.383 c0,5.302,15.813,9.726,25.652,7.177C990.17,1042.048,1008.334,1041.465,1027.784,1041.465z M-70.81,1037.459 c0-4.718-27.298-4.429-24.762-0.324C-92.868,1041.51-70.809,1041.798-70.81,1037.459L-70.81,1037.459z M383.524,1035.832 c5.074-6.114,3.86-6.878-5.325-3.353C366.82,1036.846,373.43,1047.995,383.524,1035.832z M1226.482,1036.004 c243.842-5.082,507.546-4.783,497.839-14.49c-3.531-3.531-264.875-4.284-270.546-0.78c-1.113,0.688-78.899,2.37-172.858,3.738 c-180.324,2.625-183.977,2.866-183.977,12.097c0,4.805,3.218,5.459,17.835,3.627 C1124.585,1038.967,1174.853,1037.08,1226.482,1036.004L1226.482,1036.004z M522.452,1025.006c0-5.791,2.65-9.642,7.51-10.913 c9.288-2.429,9.662-13.352,1.846-53.966c-6.997-36.353-3.792-55.373,0.047-133.977c2.274-46.553,7.473-87.098,13.05-101.767 c5.077-13.355,4.839-15.099-1.362-9.953c-6.722,5.579-12.219-6.393-5.724-12.467c8.637-8.078,3.672,11.324,13.055-1.051 c6.901-9.101,6.673-16.157-0.521-16.157c-12.74,0-4.41-16.809,8.966-18.092c21.604-2.073,33.245-29.16,53.689-33.249 c6.308-1.262,12.35-4.588,13.426-7.392c1.177-3.068,7.69-5.098,16.352-5.098c12.143,0,22.612-5.286,18.031-9.105 c-5.137-4.283-29.476-4.817-29.476-0.647c0,2.637-6.961,7.092-15.468,9.9c-8.508,2.808-21.211,10.682-28.229,17.498 c-12.077,11.729-23.889,16.254-23.889,9.152c0-6.859,37.522-38.064,45.836-38.12c12.798-0.086,21.417-6.458,14.64-10.823 c-30.973-19.953-97.655,61.582-109.516,133.908c-2.281,13.909-5.811,32.047-7.844,40.308c-11.493,46.69-6.5,193.373,6.582,193.373 c2.884,0,5.243,3.041,5.243,6.759s2.028,8.786,4.506,11.264c5.923,5.923-1.484,6.025-7.447,0.063 c-7.369-7.369-9.793-0.251-5.17,15.18c6.24,20.828,2.894,34.321,8.111,34.321C520.763,1033.955,522.453,1029.928,522.452,1025.006 L522.452,1025.006z M295.285,1020.253c12.391-1.072,24.219-3.679,26.284-5.793c2.558-2.618-7.016-3.081-30.039-1.453 c-40.085,2.835-35.94,2.843-62.893-0.129c-14.889-1.642-21.59-1.072-21.59,1.838c0,6.067,25.546,2.564,33.793,8.148 C248.072,1027.76,262.661,1023.077,295.285,1020.253L295.285,1020.253z M2141.761,1022.399c32.162,0.96,51.588-2.014,51.588-7.899 c0-6.09-314.431,1.84-378.803,0.648c-38.469-0.713-83.04,3.889-83.04,8.573C1731.506,1030.167,2077.861,1020.493,2141.761,1022.399 L2141.761,1022.399z M-153.416,1014.947c0-2.003-20.23-3.521-46.935-3.521c-40.49,0-61.125,4.128-40.85,8.173 C-228.073,1022.218-153.416,1018.261-153.416,1014.947L-153.416,1014.947z M-110.236,1015.181c3.19-5.161-24.406-4.839-24.406,0 C-134.642,1020.081-113.315,1020.165-110.236,1015.181z M950.502,1013.765c126.208-1.459,127.664-1.547,127.664-7.727 c0-5.613-74.472-5.577-260.96,0.127c-145.049,4.436-163.335-3.111-163.335,7.263 C653.871,1023.571,694.546,1016.724,950.502,1013.765z M2331.474,1016.487c21.931-2.634,25.446-11.083,4.203-10.103 c-49.233,2.271-111.522-1.064-122.193,7.018C2205.76,1019.252,2290.092,1021.457,2331.474,1016.487L2331.474,1016.487z M2405.498,1011.223c7.119-0.289,7.083-0.512-0.7-4.273c-9.633-4.656-28.915-0.913-25.314,4.913 C2382.772,1017.183,2393.652,1011.705,2405.498,1011.223L2405.498,1011.223z M2497.022,1012.834 c6.454-1.291,11.734-3.825,11.734-5.632c0-4.451-81.592-4.21-84.348,0.249C2421.069,1012.853,2476.412,1016.956,2497.022,1012.834 L2497.022,1012.834z M190.152,1007.671c-3.075-4.975-20.652-4.908-20.652,0C169.501,1012.568,193.305,1012.772,190.152,1007.671z M560.002,1006.016c0-7.464-7.51-12.379-7.51-2.321C552.493,1014.215,560.002,1012.899,560.002,1006.016z M1359.78,1005.636 c243.167-2.541,220.709-5.427,354.831-7.435c89.747-1.344,85.395-1.036,82.429-5.835c-2.212-3.579-241.791-1.749-287.067,2.193 c-48.164,4.194-407.137-2.852-412.28,12.696C1095.022,1015.333,1116.684,1008.176,1359.78,1005.636z M2962.011,1001.578 c1.733-5.27-14.503-9.866-18.992-5.376c-1.818,1.818-2.11,5.238-0.649,7.601C2945.612,1009.051,2960.094,1007.41,2962.011,1001.578 z M131.952,1000.599c0-6.83-88.758-9.573-102.268-13.861c-4.218-1.339-6.622-0.153-6.622,3.266c0,3.92,8.353,6.369,30.977,9.079 C95.084,1003.999,131.952,1004.717,131.952,1000.599z M354.426,993.376c7.196-6.18,8.631-11.989,2.962-11.989 c-4.381,0-18.92,15.141-18.92,19.704C338.468,1004.766,344.635,1001.785,354.426,993.376L354.426,993.376z M1862.926,992.318 c0-4.348-43.931-4.527-46.612-0.19c-1.098,1.777-1.344,3.889-0.547,4.693C1818.744,999.823,1862.926,995.604,1862.926,992.318z M2076.951,992.804c0-8.745-206.515-5.298-206.515,0.002C1870.436,997.062,2076.951,998.046,2076.951,992.804L2076.951,992.804z M2267.662,990.477c57.413-12.013-178.019-8.899-160.335,2.535C2112.474,996.34,2250.033,994.165,2267.662,990.477z M3471.867,992.652c3.1-5.016-18.118-5.014-15.019,0C3459.879,997.557,3468.83,997.566,3471.867,992.652z M3503.22,990.558 c2.516-2.222-3.665-9.17-8.107-9.113c-7.848,0.101-14.913,6.464-12.147,10.94C3485.215,996.022,3498.378,994.835,3503.22,990.558z M309.518,984.719c41.421-20.787,56.28-55.578,60.515-141.69c6.286-127.828-44.38-166.679-172.37-132.174 c-21.448,5.782-40.632,9.759-63.832,15.596c-22.747,5.723-112.697,7.547-118.972,13.821c-8.255,8.255,8.713,9.709,58.623,5.024 c161.265-15.138,248.54-88.099,280.184,30.842c8.454,31.777,9.199,72.165,2.053,111.379c-10.226,56.115-20.279,72.371-55.62,89.94 c-33.813,16.809-270.675-26.491-288.19-15.091c-10.838,7.054-7.145,7.672,93.522,15.651c29.813,2.363,61.917,6.413,71.342,9 C207.644,995.49,290.928,994.048,309.518,984.719L309.518,984.719z M2492.798,990.285c13.601-3.645,9.722-8.898-6.571-8.898 c-14.093,0-18.319,2.958-12.516,8.761C2476.773,993.211,2481.747,993.247,2492.798,990.285L2492.798,990.285z M2375.459,985.142 c-3.081-4.985-87.03-4.993-90.116,0C2282.172,990.273,2378.637,990.284,2375.459,985.142z M2433.659,985.142 c0-4.977-48.813-4.986-48.813,0C2384.847,990.119,2433.659,990.128,2433.659,985.142z M-55.788,966.59 c0-10.204-1.55-19.51-3.443-20.681c-6.383-3.945-5.139-114.715,1.289-114.715c4.469,0,5.213,4.234,3.795,21.59 c-3.945,48.272,0.346,106.074,7.87,106.074c3.604,0,4.557-18.325,4.154-79.79c-0.601-91.453,5.562-126.722,29.932-171.294 c14.304-26.161,14.423-28.818,1.042-23.251c-25.355,10.549-35.47,30.83-56.295,112.878c-10.08,39.713-3.241,187.741,8.675,187.741 C-57.13,985.142-55.789,976.794-55.788,966.59L-55.788,966.59z M2947.09,982.787c14.398-3.859,5.251-8.909-16.137-8.909 c-15.657,0-20.43,1.316-20.43,5.632C2910.523,985.463,2930.444,987.248,2947.09,982.787z M-140.614,976.708 c14.248-0.612,22.786-2.715,23.858-5.878c1.328-3.918-5.517-4.542-33.452-3.052c-48.675,2.596-82.057,1.412-82.057,5.839 C-232.266,983.901-181.542,978.465-140.614,976.708z M475.37,977.393c3.036,4.912,10.273-0.365,18.922-5.227 C484.165,970.636,469.278,967.534,475.37,977.393z M807.82,976.253c0-7.706-39.979-2.637-124.769-2.099 c-15.961,0.101-30.001,1.77-31.199,3.709c-1.331,2.154,28.579,3.525,76.895,3.525C793.121,981.387,807.82,980.433,807.82,976.253z M845.369,973.44c0-4.271-17.695-4.346-20.328-0.086C818.208,984.411,845.368,977.757,845.369,973.44L845.369,973.44z M923.907,975.247c0.861-0.753,0.58-2.353-0.623-3.556c-3.55-3.55-44.236,2.721-41.924,6.462 C883.242,981.196,919.975,978.687,923.907,975.247L923.907,975.247z M961.768,977.881c7.878-2.314,6.178-3.222-10.566-5.643 c-20.599-2.979-29.024-0.568-19.364,5.542C938.19,981.796,948.324,981.831,961.768,977.881L961.768,977.881z M-239.776,973.878 c0-4.96-22.529-4.96-22.529,0C-262.305,978.838-239.776,978.838-239.776,973.878z M862.265,973.878c2.985-4.83-8.119-5.09-11.264,0 C848.015,978.708,859.119,978.968,862.265,973.878z M989.929,973.878c-3.141-5.082-18.007-4.834-15.019,0 C978.051,978.96,992.917,978.712,989.929,973.878z M1128.208,975.176c18.191-3.006,10.912-8.669-11.247-8.75 c-19.992-0.074-30.232,3.429-23.151,7.917C1099.806,978.143,1108.913,978.364,1128.208,975.176L1128.208,975.176z M1223.766,970.766c0.862-2.587-2.438-4.398-8.012-4.398c-9.067,0-15.445,4.49-11.698,8.236 C1207.466,978.016,1222.313,975.125,1223.766,970.766z M3530.436,962.075c-12.393-7.051-29.659-34.311-31.979-50.487 c-13.075-91.2-8.556-77.96-3.91-142.348c8.828-122.316,64.043-126.982,73.589-6.219c5.998,75.875-0.639,147.954-17.427,189.266 c-1.871,4.604-0.904,6.571,3.231,6.571c25.354,0,39.418-199.066,17.906-253.451c-26.653-67.383-76.969-53.063-84.881,24.158 c-1.389,13.56-3.426,30.569-4.526,37.797c-13.644,89.651-1.145,167.983,32.113,201.241 C3529.781,983.83,3553.251,975.056,3530.436,962.075z M1287.874,964.344c-24.666,0.106-34.917,1.522-36.081,4.986 c-1.266,3.768,6.077,4.599,33.164,3.755C1328.677,971.722,1336.455,964.136,1287.874,964.344z M1455.22,964.892 c-9.185-3.525-10.399-2.761-5.325,3.353C1459.979,980.396,1466.604,969.26,1455.22,964.892z M3462.481,970.123 c0-4.96-26.284-4.959-26.284,0C3436.197,975.083,3462.481,975.082,3462.481,970.123z M1581.314,966.905 c7.707-0.628,8.315-1.392,3.398-4.267c-4.408-2.577-49.462-2.753-62.758-0.244c-0.638,0.121-0.329,1.564,0.687,3.208 C1524.288,968.267,1555.981,968.971,1581.314,966.905L1581.314,966.905z M1621.473,962.048c-3.146-1.761-8.699-2.058-12.339-0.661 c-6.145,2.358-6.101,2.725,0.616,5.119C1619.794,970.085,1629.346,966.454,1621.473,962.048L1621.473,962.048z M305.633,952.593 c47.113-29.648,53.115-170.601,9.285-218.085c-8.459-9.164-70.397-12.671-89.857-5.087c-7.462,2.908-46.924,12.106-98.741,23.015 c-8.261,1.739-33.605,4.355-56.322,5.813c-69.253,4.444-34.626,3.088-55.605,5.072c-1.671,0.158-1.993,1.977-0.717,4.042 c4.552,7.365,100.488-0.011,148.316-11.405c107.243-25.545,163.783-50.087,170.077,59.217 c10.682,185.511-79.452,131.647-300.892,118.428c-24.489-1.462-27.415-0.93-26.284,4.776c1.836,9.256,14.747,5.089,113.918,15.502 C246.622,967.3,282.658,967.051,305.633,952.593L305.633,952.593z M1698.55,957.525c-26.85,2.508-32.681,8.375-8.345,8.397 C1737.691,965.969,1726.72,954.893,1698.55,957.525z M1943.709,961.934c1.146-1.146-3.313-3.164-9.91-4.483 c-12.909-2.582-19.163-0.008-11.495,4.73C1927.478,965.378,1940.414,965.229,1943.709,961.934L1943.709,961.934z M1990.146,958.584 c-5.695-3.52-11.844-0.665-8.883,4.125c1.132,1.832,4.681,2.325,7.886,1.095C1993.7,962.058,1993.918,960.915,1990.146,958.584z M1784.075,958.859c0-4.96-37.548-4.96-37.548,0C1746.527,963.819,1784.075,963.818,1784.075,958.859z M1819.746,958.859 c3.147-5.092-33.182-5.087-30.039,0C1792.756,963.792,1816.69,963.803,1819.746,958.859z M1855.417,958.859 c0-4.705-3.985-4.705-11.265,0c-4.554,2.943-4.016,3.651,2.816,3.697C1851.615,962.586,1855.417,960.924,1855.417,958.859z M1879.833,956.241c-19.077,1.957-20.818,6.373-2.513,6.373C1898.417,962.613,1897.046,954.475,1879.833,956.241z M2171.588,953.086c-3.304,3.304,7.388,9.572,11.74,6.882C2187.943,957.116,2174.783,949.891,2171.588,953.086z M549.491,946.843 c-3.505-3.504-4.506-2.503-4.506,4.506c0,7.009,1.001,8.01,4.506,4.506C552.995,952.35,552.995,950.348,549.491,946.843 L549.491,946.843z M2332.281,952.788c0-1.692-20.006-2.716-17.115,1.963C2317.09,957.864,2332.281,956.122,2332.281,952.788 L2332.281,952.788z M2394.236,951.349c-2.541-4.112-27.767-5.111-37.241-1.476c-10.875,4.173-6.406,10.017,5.794,7.577 C2380.342,953.94,2397.35,956.389,2394.236,951.349z M2427.785,955.497c2.512-4.063-8.401-8.805-13.299-5.778 c-1.912,1.182-2.505,3.722-1.317,5.644C2415.921,959.814,2425.066,959.898,2427.785,955.497L2427.785,955.497z M-86.985,945.586 c7.715-5.72-171.299-6.677-180.119-0.963c-4.874,3.158,3.764,11.565,8.73,8.496C-252.417,949.437-98.804,954.35-86.985,945.586z M787.172,949.529c532.94-8.515,550.083-1.725,550.083-14.085c0-4.735-707.551,2.039-712.943,6.825 c-8.704,7.73,5.442,12.832,30.418,10.972C669.748,952.124,729.347,950.453,787.172,949.529L787.172,949.529z M2468.097,950.49 c-2.396-2.396-5.959-2.396-10.241,0c-5.545,3.103-4.973,3.674,3.675,3.674C2468.209,954.165,2470.493,952.887,2468.097,950.49z M2784.576,951.608c2.777-4.493-4.287-8.945-9.288-5.854c-4.199,2.595-1.442,9.349,3.816,9.349 C2780.926,955.104,2783.388,953.531,2784.576,951.608z M488.385,946.051c5.596-6.743,2.487-8.271-19.053-9.36 c-17.03-0.861-24.77,3.339-20.095,10.903C452.787,953.339,483.336,952.134,488.385,946.051L488.385,946.051z M2899.26,947.594 c0-4.96-18.774-4.96-18.774,0C2880.485,952.554,2899.26,952.554,2899.26,947.594z M2966.846,943.108 c0-4.097-28.312-0.482-37.548,4.795C2921.729,952.227,2966.846,954.468,2966.846,943.108z M3323.554,943.839 c0-5.016-16.189-4.931-13.142,0C3313.476,948.796,3323.554,948.754,3323.554,943.839z M3366.735,943.839 c3.15-5.096-20.651-4.906-20.651,0C3346.083,948.748,3363.661,948.814,3366.735,943.839z M3424.622,941.434 c1.803-1.556-22.216-2.782-22.216,2.477C3402.406,947.278,3420.137,945.301,3424.622,941.434z M385.517,933.223 c5.513-13.468,12.011-69.558,9.152-79.008c-3.646-12.054-4.313-10.789-5.682,10.773c-1.498,23.59-5.96,49.982-9.205,54.445 c-1.502,2.065-3.829,8.356-5.172,13.981C371.858,944.941,380.784,944.785,385.517,933.223L385.517,933.223z M261.873,936.64 c5.987-1.894,15.585-4.474,21.328-5.733c11.475-2.515,25.192-21.353,25.214-34.629c0.008-4.474,2.126-8.988,4.708-10.029 c3.332-1.344,3.405-1.98,0.252-2.19c-2.443-0.163-10.523,7.124-17.955,16.194c-22.129,27.005-50.789,30.255-154.08,17.47 c-64.434-7.975-141.228-12.511-145.165-8.574c-6.415,6.415,0.524,13.061,11.371,10.891c9.882-1.977,149.237,9.678,188.239,15.743 C225.029,940.33,249.218,940.644,261.873,936.64L261.873,936.64z M1723.997,935.492c3.098-0.109,15.77,0.11,28.161,0.485 c31.688,0.961,520.426-6.921,578.243-9.325c46.207-1.921,70.908,0.033,67.219-5.938c-3.777-6.111-162.508-1.338-547.835,2.341 c-362.484,3.461-508.779,7.58-508.779,14.323C1341.006,940.331,1626.163,938.926,1723.997,935.492L1723.997,935.492z M-23.7,911.022c-1.538-4.009-3.544-4.741-6.069-2.216c-2.525,2.525-2.262,7.385,0.793,14.708 C-23.835,935.833-18.776,923.854-23.7,911.022z M605.206,924.596c-0.952-2.84-2.677-21.215-3.833-40.834 c-1.997-33.892-2.26-34.779-5.272-17.792c-4.038,22.77,0.398,67.642,6.465,65.403C604.97,930.485,606.159,927.436,605.206,924.596 L605.206,924.596z M2708.699,921.449c26.232-1.292-16.365-8.496-49.751-8.414c-68.577,0.168-241.761,4.721-243.439,6.4 C2402.891,932.052,2635.286,925.061,2708.699,921.449z M-87.705,917.555c0-4.886-11.933-5.459-90.116-4.321 c-90.881,1.323-97.668,1.932-93.669,8.401C-267.429,928.208-87.705,924.218-87.705,917.555z M540.664,881.536 c-4.246-2.625-0.876,34.274,3.805,41.651C550.021,931.939,550.143,887.394,540.664,881.536z M770.272,919.548 c153.119-3.679,1032.371-8.274,1027.733-22.144c-2.714-8.124-250.672,0.381-1012.714,11.01 c-172.28,2.403-168.967,2.18-168.967,11.394C616.323,929.298,628.201,922.961,770.272,919.548L770.272,919.548z M3151.254,915.415 c10.523-6.504-1.707-8.508-42.668-6.993c-120.887,4.471-389.563-1.944-389.563,9.277 C2719.024,927.594,3140.286,922.193,3151.254,915.415z M484.796,917.702c8.6-5.439,2.224-8.492-18.381-8.803 c-19.887-0.3-25.17,1.806-21.091,8.407C448.361,922.218,477.198,922.507,484.796,917.702L484.796,917.702z M3452.154,912.347 c28.905-13.656-34.136-6.328-148.94-5.026c-57.973,0.657-75.154,1.961-76.434,5.799 C3224.884,918.804,3440.048,918.067,3452.154,912.347z M256.878,909.827c50.703-14.08,50.913-136.426,0.235-136.728 c-23.145-0.138-26.007-8.26-3.54-10.046c45.429-3.613,54.856,10.194,54.856,80.342c0,20.738,1.231,29.374,3.817,26.787 c14.037-14.036,1.873-102.319-16.147-117.193c-8.506-7.021-56.539-3.811-96.56,6.452c-59.039,15.14-74.385,16.49-194.571,27.22 c-13.356,76.697-16.878,88.151,34.545,84.98c39.664-2.446,87.545,8.055,125.072,8.247c12.785,0.065,24.29,1.809,25.567,3.874 c10.952,17.721,78.818-1.298,76.189-21.352c-1.658-12.654,5.952-10.85,9.783,2.32c3.836,13.187,1.333,13.547-23.843,37.998 l-23.555-3.823c-33.391-5.419-59.226-2.642-59.226-7.54c0-2.016-4.773-2.706-10.624-1.536c-20.643,4.128-144.972-20.3-158.342-4.19 c-10.97,13.218-2.701,0.169,122.032,15.161c41.821,5.027,94.964,10.818,114.522,12.479 C240.185,913.543,249.091,911.989,256.878,909.827L256.878,909.827z M190.041,868.563c-3.995-6.463-18.663,1.385-18.663-7.119 c0-5.664,29.47-6.372,57.883-1.39c11.872,2.081,12.307,2.627,5.853,7.346C226.912,873.398,193.561,874.258,190.041,868.563 L190.041,868.563z M132.113,860.909c-5.074-2.07-13.022-3.267-17.662-2.659c-4.64,0.608-8.529-0.451-8.642-2.353 c-0.305-5.106,51.301-7.034,54.393-2.031C165.092,861.778,145.986,866.569,132.113,860.909L132.113,860.909z M71.876,853.723 c0-4.96,18.774-4.96,18.774,0C90.65,858.683,71.876,858.683,71.876,853.723z M268.5,829.276c8.281-21.58-9.992-37.32-30.821-26.548 c-13.06,6.754-29.044,7.787-32.555,2.104c-3.413-5.522,21.552-14.941,39.601-14.941c20.663,0,28.82,5.054,31.765,19.682 c4.271,21.218,8.586,25.376-2.001,25.376C268.747,834.949,266.97,833.265,268.5,829.276L268.5,829.276z M155.42,809.832 c8.767-2.291,24.252,1.717,6.571,1.717C154.763,811.549,151.806,810.776,155.42,809.832z M184.52,807.414 c0-7.062,3.613-9.831,9.754-7.475c7.987,3.065,6.293,12.481-2.245,12.481C187.9,812.42,184.52,810.167,184.52,807.414z M43.572,804.681c-3.978-6.437,64.661-18.289,73.67-12.721c7.773,4.804-1.745,9.205-20.243,9.36 C68.69,801.556,46.207,808.942,43.572,804.681L43.572,804.681z M130.703,786.8c9.42,1.827,10.714,10.601,1.563,10.601 C121.628,797.401,122.465,785.202,130.703,786.8z M147.906,788.966c1.98-5.941,19.82-7.826,39.933-12.366 c18.115-4.089,13.98,5.032-5.328,11.751C163.522,794.961,145.803,795.275,147.906,788.966L147.906,788.966z M3052.266,889.123 c12.752-2.034,17.024-9.034,5.632-9.228c-138.217-2.351-542.816,6.131-977.193,9.656c-253.507,2.058-277.857,2.949-277.857,10.171 C1802.848,905.257,3038.653,891.294,3052.266,889.123z M-86.856,893.551c8.139-8.139-9.619-9.662-93.577-8.023 c-92.47,1.805-95.798,2.151-91.259,9.496C-269.108,899.206-91.092,897.787-86.856,893.551L-86.856,893.551z M481.152,885.639 c0-6.535-28.019-8.183-31.916-1.877c-3.515,5.688,1.9,12.059,8.196,9.643C466.871,889.783,481.152,893.736,481.152,885.639z M946.749,889.32c1541.702-31.32,2504.467-19.147,2504.467-42.194c0-11.076-3.662,1.181-1368.633,12.089 C1492.436,863.93,831.449,879.841,756.651,879.9c-108.801,0.086-136.48,1.104-139.834,5.146 C605.739,898.393,626.66,895.823,946.749,889.32L946.749,889.32z M3548.842,891.272c0-4.96-37.548-4.96-37.548,0 C3511.293,896.232,3548.842,896.231,3548.842,891.272z M3454.131,876.922c1.626-4.904-337.275-3.488-369.949,1.546 C2982.808,894.085,3449.703,890.275,3454.131,876.922z M-95.459,868.836c23.963-9.11,7.792-11.357-81.736-11.357 c-92.147,0-99.728,0.821-92.127,9.98C-264.242,873.578-111.123,874.791-95.459,868.836z M3554.474,864.988 c0-4.448-4.341-5.416-20.652-4.605c-24.737,1.231-31.332,3.229-28.072,8.504C3509.764,875.382,3554.474,871.804,3554.474,864.988z M487.962,860.294c1.067-5.615-1.764-6.571-19.456-6.571c-20.362,0-27.716,3.675-22.912,11.449 C449.875,872.099,486.52,867.88,487.962,860.294z M941.117,861.235c385.927-11.487,1489.962-21.522,2341.085-33.308 c161.837-2.241,170.867-2.728,172.124-9.275c1.402-7.303-52.996-7.404-348.553-0.649c-0.1,0.002-2481.468,30.239-2488.59,37.365 C604.427,868.125,669.854,869.309,941.117,861.235L941.117,861.235z M3556.351,838.532c0-7.082-1.955-7.595-25.046-6.571 c-33.755,1.496-36.809,9.63-4.305,11.466c13.045,0.737,24.986,1.665,26.535,2.063 C3555.084,845.888,3556.351,842.757,3556.351,838.532z M-89.583,834.597c0-7.335-1.321-7.675-19.713-5.075 c-40.099,5.669-156.835,0.006-159.58,8.244c-1.222,3.668,18.191,4.694,88.864,4.694C-90.735,842.459-89.583,842.359-89.583,834.597 z M477.749,838.516c25.286-13.533-46.54-17.212-27.887,1.44C453.667,843.762,469.471,842.946,477.749,838.516z M1061.271,831.217 c878.718-21.36,2388.465-27.476,2392.762-40.387c1.92-5.767,14.719-5.243-130.879-5.36c-109.404-0.088-137.237-1.88-130.701-8.416 c1.764-1.764,74.909-4.295,212.866-7.366c51.711-1.151,51.126-0.874,56.52-26.741c2.154-10.33,5.118-21.912,6.585-25.737 c2.481-6.466-303.153-7.144-313.587-0.695c-4.678,2.892-1583.201,22.303-2050.388,30.014 c-367.083,6.059-478.768,16.292-443.069,1.055c22.364-9.546,936.522-11.741,1000.66-17.551 c49.353-4.471,349.519-2.672,444.947-7.78c92.96-4.976,324.599-2.234,441.192-7.541c121.751-5.542,499.297-6.003,595.139-9.125 c267.18-8.702,326.798-8.444,329.246-10.892c26.074-26.075-280.094,11.868-2833.07,36.996 c-16.863,40.582-15.663,40.951-15.663,80.973c468.138-9.532,1488.67-29.534,1958.14-32.07 c499.527-2.698,629.221-10.091,584.869,3.238c-37.501,11.27-1669.678,20.153-2191.634,35.973 c-274.361,8.316-363.437-1.34-353.755,14.326c2.657,4.299,195.682,3.02,439.821-2.914L1061.271,831.217z M-82.989,811.482 c10.025-20.62,8.616-55.361-2.256-55.628c-62.46-1.531-98.419-0.703-169.933,0.244c-7.789,19.179-9.329,19.794-14.895,63.832 C-84.922,819.93-87.858,821.496-82.989,811.482L-82.989,811.482z M-177.821,771.117c-3.106-5.026,10.905-4.089,49.751-6.075 c43.12-2.204,46.311,4.061,3.755,7.374C-166.526,775.701-175.116,775.493-177.821,771.117L-177.821,771.117z M3554.474,808.665 c0-4.421-5.18-5.632-24.094-5.632c-27.27,0-36.809,7.838-12.749,10.475C3542.749,816.261,3554.474,814.72,3554.474,808.665z M481.151,806.788c0-8.687-24.701-6.431-30.039,0c-4.04,4.868-2.32,5.632,12.682,5.632 C476.719,812.42,481.151,810.982,481.151,806.788z M479.765,784.446c13.695-3.914,13.022-49.059-0.796-53.421 c-10.628-3.354-14.465,6.551-5.328,13.752l9.387,7.399l-10.229,0.083c-14.937,0.122-29.481,30.169-16.993,35.107 C460.514,789.229,464.896,788.695,479.765,784.446L479.765,784.446z M3547.903,776.547c2.582-0.792,4.694-3.4,4.694-5.796 c0-3.962-36.479-1.954-40.672,2.238C3504.673,780.24,3528.257,782.572,3547.903,776.547z M-210.037,738.702 c6.033-5.313-28.94-10.259-37.06-5.241c-9.523,5.886-0.128,10.446,17.601,8.541C-219.654,740.944-210.898,739.459-210.037,738.702 L-210.037,738.702z M-128.996,737.324c3.166-5.122-78.275-5.143-75.096,0C-201.032,742.276-132.058,742.279-128.996,737.324z M-76.428,737.324c3.094-5.007-16.897-4.968-16.897,0C-93.325,742.194-79.514,742.318-76.428,737.324z M3548.854,737.324 c0-4.96-26.284-4.96-26.284,0C3522.57,742.284,3548.854,742.283,3548.854,737.324z M58.978,721.929 c2.769-4.481-33.268-4.475-30.503,0C31.216,726.365,56.222,726.388,58.978,721.929z M451.124,720.427 c0-7.452-11.264-7.441-11.264,0C439.86,727.879,451.124,727.868,451.124,720.427z M633.101,722.519 c3.403-5.506,257.85-2.072,401.899-7.729c126.663-4.974,461.588-2.572,527.553-7.452c66.253-4.902,446.177-2.75,480.617-7.577 c41.388-5.801,846.634-12.439,1092.654-20.602c210.962-7,368.568-0.779,357.956-17.95c-5.204-8.42-538.492,9.1-840.449,14.219 c-1902.1,32.248-1998.998,29.924-2001.091,31.654c-7.395,6.113-25.77,2.252-27.696,12.407c-1.311,6.913,4.818,9.084,8.559,3.031 L633.101,722.519z M131.963,713.971c20.021-5.928,28.063-10.441,37.725-10.441c11.623,0,10.884-13.334-12.203-4.036 c-12.846,5.174-74.334,15.106-74.334,19.872C83.151,723.151,111.57,720.01,131.963,713.971L131.963,713.971z M361.008,707.94 c0-14.017-68.765-41.125-82.613-32.566c-7.833,4.841,0.529,8.564,25.159,11.201c19.914,2.133,28.048,5.006,38.456,13.585 C355.436,711.227,361.008,713.509,361.008,707.94L361.008,707.94z M655.559,697.07c3.251-8.471,0.89-9.186-8.536-2.584 C630.491,706.066,650.23,710.958,655.559,697.07L655.559,697.07z M69.848,700.035c1.188-1.922,0.596-4.462-1.317-5.644 c-4.439-2.744-15.419,1.377-15.419,5.787C53.111,704.621,67.087,704.502,69.848,700.035L69.848,700.035z M-233.711,664.029 l-5.428-22.454l-0.312,17.659c-0.56,31.462,18.29,56.699,5.741,4.795L-233.711,664.029z M232.406,688.568 c28.132-5.532,32.121-13.393,5.176-10.201C202.841,682.481,132.079,708.296,232.406,688.568L232.406,688.568z M41.848,676.809 c0-4.268-13.944-4.34-16.573-0.086c-1.098,1.777-1.1,4.128,0,5.224c2.945,2.945,16.577-1.28,16.577-5.138L41.848,676.809z M-258.756,656.186c-10.902-20.369-14.326-0.184-7.291,4.164c2.065,1.276,3.806,6.023,3.869,10.547 c0.105,7.704,0.372,7.783,4.171,1.247C-255.025,667.01-255.223,662.789-258.756,656.186z M630.979,647.726 c23.747-7.951,56.701-0.201,56.701-9.653c0-12.167-41.141-11.573-60.077,0.867c-15.014,9.864-31.484,15.459-33.209,24.695 C591.924,676.848,605.483,656.263,630.979,647.726L630.979,647.726z M351.38,658.866c2.668-4.317-6.733-7.903-20.715-7.903 c-13.885,0-14.364,6.495-0.632,8.575C348.322,662.308,349.271,662.278,351.38,658.866z M-262.29,628.434 c0-3.887-1.689-8.111-3.755-9.387c-2.065-1.276-3.755-8.88-3.755-16.897c0-21.191-7.51-14.655-7.51-27.632 c0-18.21-20.689-21.594-12.016-12.92c6.249,6.249,3.191,24.277,7.724,27.079c1.77,1.094,4.177,11.288,5.351,22.654 C-273.471,638.26-262.291,651.958-262.29,628.434L-262.29,628.434z M-241.236,618.74c-1.254-3.267-2.279-6.646-2.279-7.51 c0-0.864-2.549-1.57-5.664-1.57c-4.724,0-4.886,1.246-0.974,7.51C-244.589,626.081-237.973,627.246-241.236,618.74L-241.236,618.74 z M-316.351,598.889c-2.936-10.473-9.766-84.381-22.884-124.403c-8.408-25.656-35.817-124.748-68.049-167.778 c-12.789-17.074-3.834-11.066-22.095-33.35c-24.883-30.366-11.816-33.928,16.66-4.542c24.709,25.5,24.866,14.84,2.663-8.355 c-25.364-26.497-26.929-27.46-35.715-21.972c-6.405,4-8.807,3.645-15.339-2.267c-11.563-10.465-5.43-29.846,6.351-20.069 c7.163,5.945,10.391,0.621,3.687-6.083c-5.69-5.69-28.976-6.623-28.989-1.162c0,5.225-29.168-11.856-36.802-21.562 c-7.235-9.198-15.772-12.676-15.772-6.426c0,5.122,57.222,50.485,98.563,100.191c16.736,20.122,54.819,95.601,66.974,132.738 c22.854,69.831,14.124,33.861,29.319,105.694c5.74,27.133,7.435,54.192,10.004,67.587c2.42,12.62-0.734,23.21,7.399,20.089 C-317.218,606.007-315.407,602.259-316.351,598.889L-316.351,598.889z M-265.812,522.033c-7.226-19.007-16.607-6.091-7.743-0.611 c6.275,3.878,1.266,20.888,7.649,14.504C-263.251,533.27-263.221,528.851-265.812,522.033z M-288.573,522.939 c0-2.263-2.923-9.062-6.495-15.109c-7.556-12.791-3.55-23.186,9.695-25.157c9.22-1.372,10.64-6.396,2.672-9.453 c-17.975-6.898-27.411,17.132-18.561,47.262C-299.168,527.611-288.574,529.662-288.573,522.939L-288.573,522.939z M-314.528,439.754c-10.763-24.249-33.299-87.805-40.4-98.864c-5.551-8.645-3.344-13.416,4.766-10.304 c2.896,1.111,5.265,0.015,5.265-2.434c0-3.044-3.747-3.632-11.828-1.857c-9.624,2.114-11.424,1.544-9.658-3.057 c2.257-5.882-14.268-24.519-18.229-20.558c-2.292,2.292,5.002,18.352,9.817,21.614c3.814,2.585,11.886,22.523,20.217,37.548 c8.397,15.145,31.351,75.878,34.068,85.422c1.322,4.647,4.803,8.448,7.735,8.448C-308.446,455.712-308.776,452.715-314.528,439.754 L-314.528,439.754z M-292.328,437.689c0-6.884-19.854-20.554-11.264-4.506C-299.624,440.599-292.328,443.517-292.328,437.689z M-303.46,408.936c-10.047-12.105-15.887-2.902-6.703,7.195C-303.683,423.255-297.281,416.382-303.46,408.936L-303.46,408.936z M-1289.5,396.574c3.706-11.875,7.977-23.28,9.49-25.345c5.201-7.1,7.733-17.378,3.661-14.862 c-5.972,3.691-22.901,42.725-20.332,46.881c1.241,2.008,0.467,3.651-1.72,3.651C-1306.181,406.899-1302.599,438.538-1289.5,396.574 L-1289.5,396.574z M-414.273,343.35c-1.36-4.286-4.049-7.793-5.975-7.793c-5.262,0-4.213,14.139,1.192,16.07 C-412.436,353.992-411.441,352.272-414.273,343.35z M-1269.3,337.126c-3.623,6.977-2.994,6.838,5.837-1.284 C-1243.024,317.042-1258.916,317.125-1269.3,337.126z M-408.731,236.055c-6.389-7.698-10.197-4.005-3.755,3.755 C-406.097,247.509-402.288,243.815-408.731,236.055z M-1165.955,204.021c5.019-0.135,19.559-18.656,14.646-18.656 c-4.46,0-23.475,20.25-23.111,24.612c0.161,1.952,1.149,1.437,2.19-1.144C-1171.188,206.251-1168.364,204.086-1165.955,204.021z M-484.766,191.403c-8.721-6.62-1.684-4.339-21.339-25.001c-8.368-8.796-13.889-17.815-12.74-20.81 c2.299-5.99-4.606-7.284-8.162-1.53c-3.659,5.92-12.926,4.42-24.765-4.01c-24.93-17.751-2.79,14.728,24.025,26.222 c23.369,10.017,35.597,29.965,43.92,30.055C-479.304,196.379-479.489,195.409-484.766,191.403z M-468.257,177.563 c-4.559-4.248-11.195-7.03-14.746-6.184c-11.398,2.718,11.05,5.86,16.084,14.004C-463.723,190.555-456.834,188.205-468.257,177.563 L-468.257,177.563z M-553.602,167.093c3.441-5.568-11.952-16.662-19.238-13.866c-6.029,2.314-5.766,3.273,2.676,9.759 C-559.678,171.042-556.526,171.824-553.602,167.093L-553.602,167.093z M-1104.908,153.891 c11.203-3.491,27.388-21.093,19.396-21.093c-3.285,0-6.536,1.328-7.225,2.952c-1.997,4.709-25.682,18.093-25.6,24.526 c0.041,3.188,0.834,3.259,2.816,0.25C-1114.004,158.223-1109.228,155.237-1104.908,153.891z M-528.888,137.134 c0-7.779-60.949-41.885-74.85-41.885c-7.547,0-3.998,6.242,6.325,11.124c18.296,8.653,35.802,18.915,43.692,18.915 c3.333,0,6.06,1.69,6.06,3.755c0,2.065,2.535,3.755,5.632,3.755s5.632,1.69,5.632,3.755 C-536.398,141.444-528.888,141.399-528.888,137.134L-528.888,137.134z M-1059.568,122.787c-2.925-2.925-13.644,3.422-11.537,6.831 C-1068.004,134.638-1057.909,124.447-1059.568,122.787z M-944.363,93.492c2.924-7.621-5.066-10.067-5.066-8.159 c0,3.279-5.957,13.671-0.804,13.671C-948.168,99.004-945.526,96.524-944.363,93.492z M-923.145,91.494 c0-5.016-16.189-4.931-13.142,0C-933.224,96.451-923.145,96.409-923.145,91.494z M-934.755,77.857 c0.842-0.724,3.799,0.565,6.571,2.865c8.776,7.284,0.041-5.819,12.549-9.09c4.13-1.08,7.51-3.992,7.51-6.472 c0-6.333-6.616,0.277-25.345,2.911c-6.712,0.944-12.203,3.321-12.203,5.282s-1.69,2.521-3.755,1.245 c-4.963-3.067-11.984,1.431-9.218,5.905C-956.767,83.545-939.095,81.587-934.755,77.857L-934.755,77.857z"/> </g> </svg>