<!-- Created with Inkscape (http://www.inkscape.org/) -->
<svg width="1315.2" height="896.35" version="1.1" viewBox="0 0 953.39 649.75" xml:space="preserve" xmlns="http://www.w3.org/2000/svg"><defs><clipPath id="clip0"><rect x="1562" y="1155" width="1183" height="550"/></clipPath><clipPath id="clip0-90"><rect x="2745" y="1251" width="568" height="371"/></clipPath><clipPath id="clip0-18"><rect x="2452" y="1842" width="1003" height="568"/></clipPath><clipPath id="clip0-226"><rect x="151" y="1177" width="1045" height="578"/></clipPath><clipPath id="clip0-67"><rect x="32" y="1865" width="2003" height="577"/></clipPath><clipPath id="clip0-841"><rect y="1177" width="160" height="1265"/></clipPath><clipPath id="clip0-71"><rect x="252" y="45" width="1778" height="385"/></clipPath><clipPath id="clip0-87"><rect x="1599" y="229" width="1027" height="394"/></clipPath><clipPath id="clip0-877"><rect x="2163" y="417" width="1343" height="371"/></clipPath></defs><g transform="translate(293.04 249.9)"><g transform="matrix(.26458 0 0 .26458 -135.56 -33.976)"><path d="m9 6 1 131" clip-path="url(#clipPath618)" fill="none" fill-rule="evenodd" stroke="#000000" stroke-linejoin="round" stroke-miterlimit="10" stroke-width="18.333"/></g><g transform="matrix(.26458 0 0 .26458 574.54 -33.447)"><path d="m12 6 1 130" clip-path="url(#clipPath647)" fill="none" fill-rule="evenodd" stroke="#000000" stroke-linejoin="round" stroke-miterlimit="10" stroke-width="18.333"/></g><g transform="matrix(.26458 0 0 .26458 219.34 -31.496)"><path d="m11 5 1 130" clip-path="url(#clipPath676)" fill="none" fill-rule="evenodd" stroke="#000000" stroke-linejoin="round" stroke-miterlimit="10" stroke-width="18.333"/></g><g transform="matrix(.26458 0 0 .26458 399.23 -34.505)"><path d="m13 6 1 131" clip-path="url(#clipPath705)" fill="none" fill-rule="evenodd" stroke="#000000" stroke-linejoin="round" stroke-miterlimit="10" stroke-width="18.333"/></g><g transform="matrix(.26458 0 0 .26458 38.956 -31.893)"><path d="m14 6 1 131" clip-path="url(#clipPath734)" fill="none" fill-rule="evenodd" stroke="#000000" stroke-linejoin="round" stroke-miterlimit="10" stroke-width="18.333"/></g><g class="fragment" transform="matrix(.26458 0 0 .26458 527.53 162.65)" data-fragment-index="11"><path d="m2.04 59.83 232.76 0.93-0.07 18.34-232.77-0.93zm201.04-20.72 48.98 30.89-49.22 30.49c-4.31 2.67-9.96 1.34-12.62-2.96-2.67-4.31-1.34-9.96 2.96-12.62l36.76-22.77-0.06 15.55-36.58-23.07c-4.28-2.7-5.56-8.36-2.86-12.64s8.36-5.57 12.64-2.87z" clip-path="url(#clipPath786)" fill="#000000"/></g><g transform="matrix(.26458 0 0 .26458 -285.69 -16.282)"><path d="M 3397,14 9,11" clip-path="url(#clipPath1647)" fill="none" fill-rule="evenodd" stroke="#000000" stroke-linejoin="round" stroke-miterlimit="10" stroke-width="18.333"/></g><g class="fragment" transform="translate(-39.646 33.373)" data-fragment-index="9"><g transform="matrix(.26458 0 0 .26458 338.8 -179.83)"><g transform="translate(-2163,-417)" clip-path="url(#clip0-877)" fill-rule="evenodd"><path d="m2168 688.89 265.26-264.89h1064.7v92.109l-265.26 264.89h-1064.7z" fill="#4f81bd"/><path d="m3233 688.89 265-264.89v92.109l-265 264.89z" fill="#000000" fill-opacity=".19608"/><path d="m2168 689 265.26-265h1064.7l-265.26 265z" fill="#ffffff" fill-opacity=".19608"/><path d="m2168.5 689.39 265.26-264.89h1064.7v92.109l-265.26 264.89h-1064.7zh1064.7l265.26-264.89m-265.26 264.89v92.109" fill="none" stroke="#000000" stroke-linejoin="round" stroke-miterlimit="10" stroke-width="9.1667"/></g></g><g transform="matrix(.26458 0 0 .26458 439.67 -182.55)"><text x="71.050003" y="144" fill="#000000" font-family="'Times New Roman', 'Times New Roman_MSFontService', sans-serif" font-size="110px" font-weight="400" style="text-decoration-line:none">Persia</text></g><g transform="matrix(.26458 0 0 .26458 333.92 -111.5)"><text x="47.240002" y="96" fill="#000000" font-family="'Times New Roman', 'Times New Roman_MSFontService', sans-serif" font-size="73px" font-weight="400" style="text-decoration-line:none">550</text></g></g><g class="fragment" transform="translate(-39.646 33.373)" data-fragment-index="2"><g transform="matrix(.26458 0 0 .26458 -193.5 28.734)"><g transform="translate(-151,-1177)" clip-path="url(#clip0-226)" fill-rule="evenodd"><path transform="matrix(1,0,0,-1,155,1755)" d="M 0,75.7579 75.7604,0 H 1039 V 501.242 L 963.239,577 H 0 Z" fill="#edf086"/><path transform="matrix(1,0,0,-1,1118,1755)" d="M 0,75.7579 76,0 V 501.242 L 0,577 Z" fill="#000000" fill-opacity=".19608"/><path transform="matrix(1,0,0,-1,155,1755)" d="m0 75 75.76-75h963.24l-75.761 75z" fill="#ffffff" fill-opacity=".19608"/></g></g><g transform="matrix(.26458 0 0 .26458 -53.649 89.452)"><text x="71.386002" y="144" fill="#000000" font-family="'Times New Roman', 'Times New Roman_MSFontService', sans-serif" font-size="110px" font-weight="400" style="text-decoration-line:none">Oseas</text></g><g transform="matrix(.26458 0 0 .26458 -61.33 43.299)"><text x="70.311996" y="144" fill="#000000" font-family="'Times New Roman', 'Times New Roman_MSFontService', sans-serif" font-size="110px" font-weight="400" style="text-decoration-line:none">Amos</text></g><g transform="matrix(.26458 0 0 .26458 -192.18 18.137)"><text x="69.322998" y="144" fill="#000000" font-family="'Times New Roman', 'Times New Roman_MSFontService', sans-serif" font-size="110px" font-weight="400" style="text-decoration-line:none">Israel</text></g></g><g class="fragment" transform="translate(-39.646 33.373)" data-fragment-index="3"><g transform="matrix(.26458 0 0 .26458 -224.49 211.07)"><g transform="translate(-32,-1865)" clip-path="url(#clip0-67)" fill-rule="evenodd"><path transform="matrix(1,0,0,-1,33,2441)" d="M 0,75.2328 75.1677,0 H 2002 V 497.767 L 1926.83,573 H 0 Z" fill="#70720e"/><path transform="matrix(1,0,0,-1,1959,2441)" d="M 0,75.2328 76,0 V 497.767 L 0,573 Z" fill="#000000" fill-opacity=".19608"/><path transform="matrix(1,0,0,-1,33,2441)" d="m0 76 75.168-76h1926.8l-75.17 76z" fill="#ffffff" fill-opacity=".19608"/></g></g><g transform="matrix(.26458 0 0 .26458 109.37 300.6)"><text x="68.099998" y="142" fill="#000000" font-family="'Times New Roman', 'Times New Roman_MSFontService', sans-serif" font-size="110px" font-weight="400" style="text-decoration-line:none">JEREMIAS</text></g><g transform="matrix(.26458 0 0 .26458 133.81 262.03)"><text x="68.919998" y="143" fill="#000000" font-family="'Times New Roman', 'Times New Roman_MSFontService', sans-serif" font-size="110px" font-weight="400" style="text-decoration-line:none">Habacuc</text></g><g transform="matrix(.26458 0 0 .26458 108.88 222.39)"><text x="68.099998" y="142" fill="#000000" font-family="'Times New Roman', 'Times New Roman_MSFontService', sans-serif" font-size="110px" font-weight="400" style="text-decoration-line:none">Sofonías</text></g><g transform="matrix(.26458 0 0 .26458 -28.945 242.56)"><text x="71.052002" y="144" fill="#000000" font-family="'Times New Roman', 'Times New Roman_MSFontService', sans-serif" font-size="110px" font-weight="400" style="text-decoration-line:none">ISAIAS</text></g><g transform="matrix(.26458 0 0 .26458 -13.23 275.55)"><text x="67.197998" y="144" fill="#000000" font-family="'Times New Roman', 'Times New Roman_MSFontService', sans-serif" font-size="110px" font-weight="400" style="text-decoration-line:none">Miqueas</text></g><g transform="matrix(.26458 0 0 .26458 -182.8 262)"><text x="70.561996" y="144" fill="#000000" font-family="'Times New Roman', 'Times New Roman_MSFontService', sans-serif" font-size="110px" font-weight="400" style="text-decoration-line:none">Joel</text></g><g transform="matrix(.26458 0 0 .26458 -186.37 202.02)"><text x="67.936996" y="142" fill="#000000" font-family="'Times New Roman', 'Times New Roman_MSFontService', sans-serif" font-size="110px" font-weight="400" style="text-decoration-line:none">Judá</text></g></g></g><g transform="translate(253.39 283.27)"><g transform="matrix(.26458 0 0 .26458 182.83 21.246)"><g transform="translate(-1562,-1155)" clip-path="url(#clip0)" fill="#000000" font-family="'Times New Roman', 'Times New Roman_MSFontService', sans-serif" font-size="165px" font-weight="400" text-decoration="underline"><text transform="translate(1663.2 1367)" style="fill:#000000;font-family:'Times New Roman', 'Times New Roman_MSFontService', sans-serif;font-size:165px;font-weight:400;text-decoration-line:underline;text-decoration:underline"><tspan style="font-family:'Times New Roman', 'Times New Roman_MSFontService', sans-serif;font-size:165px;font-variant-caps:normal;font-variant-east-asian:normal;font-variant-ligatures:normal;font-variant-numeric:normal;font-weight:bold">Cronología de</tspan></text><text transform="translate(1745.7 1565)" style="fill:#000000;font-family:'Times New Roman', 'Times New Roman_MSFontService', sans-serif;font-size:165px;font-weight:400;text-decoration-line:underline;text-decoration:underline"><tspan style="font-family:'Times New Roman', 'Times New Roman_MSFontService', sans-serif;font-size:165px;font-variant-caps:normal;font-variant-east-asian:normal;font-variant-ligatures:normal;font-variant-numeric:normal;font-weight:bold">los Profetas</tspan></text></g></g><g class="fragment" data-fragment-index="7"><g transform="matrix(.26458 0 0 .26458 251.5 162.14)"><path d="m135 91.55 44.28-84.05-4.36 77.16 50.27-12.57-19.97 41.41 52.3 11.91-41.53 33.88 47.51 40.79-56.67-5.04 15.56 74.67-49.08-52.72-9.2 76.51-32.3-69.58-24.35 96.58-9.17-86.55-35.13 28.83 10.77-53.32-65.82 9.42 42.68-40.75-44.29-45.79 55.05-14.46-50.65-77.12 82.6 58.32 12.37-58.32z" clip-path="url(#clipPath537)" fill="#ff0000" fill-rule="evenodd" stroke="#4b4c09" stroke-linejoin="round" stroke-miterlimit="10" stroke-width="9.1667"/></g><g transform="matrix(.26458 0 0 .26458 245.76 182.73)"><text x="59.27" y="121" fill="#000000" font-family="'Times New Roman', 'Times New Roman_MSFontService', sans-serif" font-size="92px" font-weight="400" style="text-decoration-line:none">586</text></g></g><g class="fragment" data-fragment-index="5"><g transform="matrix(.26458 0 0 .26458 45.924 62.953)"><path d="m137 93.55 44.28-84.05-4.36 77.16 50.27-12.57-19.97 41.41 52.3 11.91-41.53 33.88 47.51 40.79-56.67-5.04 15.56 74.67-49.08-52.72-9.2 76.51-32.3-69.58-24.35 96.58-9.17-86.55-35.13 28.83 10.77-53.32-65.82 9.42 42.68-40.75-44.29-45.79 55.05-14.46-50.65-77.12 82.6 58.32 12.37-58.32z" clip-path="url(#clipPath589)" fill="#ff0000" fill-rule="evenodd" stroke="#4b4c09" stroke-linejoin="round" stroke-miterlimit="10" stroke-width="9.1667"/></g><g transform="matrix(.26458 0 0 .26458 44.881 79.127)"><text x="56.73" y="119" fill="#000000" font-family="'Times New Roman', 'Times New Roman_MSFontService', sans-serif" font-size="92px" font-weight="400" style="text-decoration-line:none">722</text></g></g><g class="fragment" transform="matrix(.26458 0 0 .26458 495.47 46.107)" data-fragment-index="11"><g transform="translate(-2745,-1251)" clip-path="url(#clip0-90)" fill="#000000" font-family="'Times New Roman', 'Times New Roman_MSFontService', sans-serif" font-size="110px" font-weight="400"><text transform="translate(2849.4,1394)" style="text-decoration-line:none">Años de</text><text transform="translate(2851.4 1526)" style="text-decoration-line:none">Silencio</text></g></g><g class="fragment" data-fragment-index="8"><g transform="matrix(.26458 0 0 .26458 290.72 286.46)"><text x="58.700001" y="118" fill="#000000" font-family="'Times New Roman', 'Times New Roman_MSFontService', sans-serif" font-size="92px" font-weight="400" style="text-decoration-line:none">EZEKIEL</text></g><g transform="matrix(.26458 0 0 .26458 293.14 241.99)"><text x="61.299999" y="130" fill="#000000" font-family="'Times New Roman', 'Times New Roman_MSFontService', sans-serif" font-size="101px" font-weight="400" style="text-decoration-line:none">DANIEL</text></g><g transform="matrix(.26458 0 0 .26458 307.61 198.86)"><text x="68.190002" y="141" fill="#000000" font-family="'Times New Roman', 'Times New Roman_MSFontService', sans-serif" font-size="110px" font-weight="400" style="text-decoration-line:none">Exilio</text></g></g><g class="fragment" data-fragment-index="1"><g transform="matrix(.26458 0 0 .26458 -205.95 170.29)"><text x="59.011002" y="120" fill="#000000" font-family="'Times New Roman', 'Times New Roman_MSFontService', sans-serif" font-size="92px" font-weight="400" style="text-decoration-line:none">931</text></g></g><g class="fragment" data-fragment-index="6"><g transform="matrix(.26458 0 0 .26458 191.05 -227.84)"><g transform="translate(-1599,-229)" clip-path="url(#clip0-87)" fill-rule="evenodd"><path d="m1605 515.96 281.11-281.96h731.89v98.044l-281.11 281.96h-731.89z" fill="#ffc000"/><path d="m2336 515.96 282-281.96v98.044l-282 281.96z" fill="#000000" fill-opacity=".19608"/><path d="m1605 515 281.11-281h731.89l-281.11 281z" fill="#ffffff" fill-opacity=".19608"/><path d="m1605.5 516.46 281.11-281.96h731.89v98.044l-281.11 281.96h-731.89zh731.89l281.11-281.96m-281.11 281.96v98.043" fill="none" stroke="#000000" stroke-linejoin="round" stroke-miterlimit="10" stroke-width="9.1667"/></g></g><g transform="matrix(.26458 0 0 .26458 334.59 -156.66)"><text x="47.240002" y="95" fill="#000000" font-family="'Times New Roman', 'Times New Roman_MSFontService', sans-serif" font-size="73px" font-weight="400" style="text-decoration-line:none">539</text></g><g transform="matrix(.26458 0 0 .26458 181.8 -155.07)"><text x="46.18" y="95" fill="#000000" font-family="'Times New Roman', 'Times New Roman_MSFontService', sans-serif" font-size="73px" font-weight="400" style="text-decoration-line:none">625</text></g><g transform="matrix(.26458 0 0 .26458 261.07 -231.46)"><text x="69.169998" y="144" fill="#000000" font-family="'Times New Roman', 'Times New Roman_MSFontService', sans-serif" font-size="110px" font-weight="400" style="text-decoration-line:none">Babilonia</text></g></g><g class="fragment" data-fragment-index="4"><g transform="matrix(.26458 0 0 .26458 305.46 -63.391)"><text transform="rotate(-90)" x="-33.156151" y="-1632.4268" fill="#000000" font-family="'Times New Roman', 'Times New Roman_MSFontService', sans-serif" font-size="110px" font-weight="400" style="text-decoration-line:none">Abdias</text></g><g transform="matrix(.26458 0 0 .26458 -167.69 -275.83)"><g transform="translate(-252,-45)" clip-path="url(#clip0-71)" fill-rule="evenodd"><path d="m258 328.28 275.46-275.28h1489.5v95.721l-275.45 275.28h-1489.6z" fill="#cc6600"/><path d="m1747 328.28 276-275.28v95.721l-276 275.28z" fill="#000000" fill-opacity=".19608"/><path d="m258 328 275.46-275h1489.5l-275.45 275z" fill="#ffffff" fill-opacity=".19608"/><path d="m258.5 328.78 275.45-275.28h1489.5v95.722l-275.45 275.28h-1489.6zh1489.6l275.45-275.28m-275.45 275.28v95.721" fill="none" stroke="#000000" stroke-linejoin="round" stroke-miterlimit="10" stroke-width="9.1667"/></g></g><g transform="matrix(.26458 0 0 .26458 78.931 -247.61)"><text x="69.669998" y="142" fill="#000000" font-family="'Times New Roman', 'Times New Roman_MSFontService', sans-serif" font-size="110px" font-weight="400" style="text-decoration-line:none">Nahúm</text></g><g transform="matrix(.26458 0 0 .26458 -74.388 -248.55)"><text x="71.052002" y="142" fill="#000000" font-family="'Times New Roman', 'Times New Roman_MSFontService', sans-serif" font-size="110px" font-weight="400" style="text-decoration-line:none">Jonas</text></g><g transform="matrix(.26458 0 0 .26458 173.64 -205.87)"><text x="45.099998" y="95" fill="#000000" font-family="'Times New Roman', 'Times New Roman_MSFontService', sans-serif" font-size="73px" font-weight="400" style="text-decoration-line:none">612</text></g><g transform="matrix(.26458 0 0 .26458 -175.64 -208.51)"><text x="47.562" y="97" fill="#000000" font-family="'Times New Roman', 'Times New Roman_MSFontService', sans-serif" font-size="73px" font-weight="400" style="text-decoration-line:none">880</text></g><g transform="matrix(.26458 0 0 .26458 -117.73 -284.05)"><text x="69.905998" y="144" fill="#000000" font-family="'Times New Roman', 'Times New Roman_MSFontService', sans-serif" font-size="110px" font-weight="400" style="text-decoration-line:none">Asiria</text></g></g><g transform="matrix(.26458 0 0 .26458 -234.5 -284.05)" clip-path="url(#clip0-841)" fill-rule="evenodd"><path transform="matrix(1,0,0,-1,0,2441)" d="m0 21.05 21.007-21.05h138.99v1242l-21.008 21.05h-138.99z" fill="#70720e"/><path transform="matrix(1,0,0,-1,139,2441)" d="m0 21.05 21-21.05v1242l-21 21.05z" fill="#000000" fill-opacity=".19608"/><path transform="matrix(1,0,0,-1,0,2441)" d="m0 21 21.007-21h138.99l-21.008 21z" fill="#ffffff" fill-opacity=".19608"/></g><g transform="matrix(.26458 0 0 .26458 -241.18 124.28)"><text transform="rotate(-90)" x="-634" y="143.46899" fill="#000000" font-family="'Times New Roman', 'Times New Roman_MSFontService', sans-serif" font-size="110px" font-weight="400" style="text-decoration-line:none">Reino Unido</text></g><g transform="matrix(.26458 0 0 .26458 567.63 -27.107)"><text x="67.279999" y="142" fill="#000000" font-family="'Times New Roman', 'Times New Roman_MSFontService', sans-serif" font-size="110px" font-weight="400" style="text-decoration-line:none">400</text></g><g transform="matrix(.26458 0 0 .26458 394.45 -27.107)"><text x="69.010002" y="142" fill="#000000" font-family="'Times New Roman', 'Times New Roman_MSFontService', sans-serif" font-size="110px" font-weight="400" style="text-decoration-line:none">500</text></g><g transform="matrix(.26458 0 0 .26458 219.07 -26.049)"><text x="67.449997" y="144" fill="#000000" font-family="'Times New Roman', 'Times New Roman_MSFontService', sans-serif" font-size="110px" font-weight="400" style="text-decoration-line:none">600</text></g><g transform="matrix(.26458 0 0 .26458 37.2 -27.936)"><text x="69.410004" y="142" fill="#000000" font-family="'Times New Roman', 'Times New Roman_MSFontService', sans-serif" font-size="110px" font-weight="400" style="text-decoration-line:none">700</text></g><g transform="matrix(.26458 0 0 .26458 -142.88 -27.907)"><text x="67.936996" y="142" fill="#000000" font-family="'Times New Roman', 'Times New Roman_MSFontService', sans-serif" font-size="110px" font-weight="400" style="text-decoration-line:none">800</text></g><g class="fragment" data-fragment-index="10"><g transform="matrix(.26458 0 0 .26458 -228.6 -283.46)" clip-path="url(#clip0-18)" fill-rule="evenodd"><path transform="matrix(1,0,0,-1,2458,2403)" d="M 0,72.4756 72.5357,0 H 991 V 479.524 L 918.464,552 H 0 Z" fill="#99ffcc"/><path transform="matrix(1,0,0,-1,3376,2403)" d="m0 72.476 73-72.476v479.52l-73 72.476z" fill="#000000" fill-opacity=".19608"/><path transform="matrix(1,0,0,-1,2458,2403)" d="m0 72 72.536-72h918.46l-72.536 72z" fill="#ffffff" fill-opacity=".19608"/><path transform="matrix(1,0,0,-1,2458.5,2403.5)" d="m0 72.476 72.536-72.476h918.46v479.52l-72.536 72.476h-918.46zh918.46l72.536-72.476m-72.536 72.476v479.52" fill="none" stroke="#000066" stroke-linejoin="round" stroke-miterlimit="10" stroke-width="9.1667"/></g><g transform="matrix(.26458 0 0 .26458 486.11 282.48)"><text x="68.349998" y="141" fill="#000000" font-family="'Times New Roman', 'Times New Roman_MSFontService', sans-serif" font-size="110px" font-weight="400" style="text-decoration-line:none">Malaquías</text></g><g transform="matrix(.26458 0 0 .26458 418.32 230.3)"><text x="68.68" y="143" fill="#000000" font-family="'Times New Roman', 'Times New Roman_MSFontService', sans-serif" font-size="110px" font-weight="400" style="text-decoration-line:none">Zacarías</text></g><g transform="matrix(.26458 0 0 .26458 409.47 201.08)"><text x="69.739998" y="144" fill="#000000" font-family="'Times New Roman', 'Times New Roman_MSFontService', sans-serif" font-size="110px" font-weight="400" style="text-decoration-line:none">Hageo</text></g><g transform="matrix(.26458 0 0 .26458 427.66 324.02)"><text x="46.18" y="97" fill="#000000" font-family="'Times New Roman', 'Times New Roman_MSFontService', sans-serif" font-size="73px" font-weight="400" style="text-decoration-line:none">536</text></g></g></g></svg>
