<svg width="3567" height="2427" xmlns="http://www.w3.org/2000/svg" xmlns:xlink="http://www.w3.org/1999/xlink" overflow="hidden"><defs><clipPath id="clip0"><rect x="-64" y="22" width="3567" height="2427"/></clipPath></defs><g clip-path="url(#clip0)" transform="translate(64 -22)"><path d="M2168 688.891 2433.26 424 3498 424 3498 516.109 3232.74 781 2168 781 2168 688.891Z" fill="#4F81BD" fill-rule="evenodd"/><path d="M3233 688.891 3498 424 3498 516.109 3233 781 3233 688.891Z" fill="#000000" fill-rule="evenodd" fill-opacity="0.196078"/><path d="M2168 689 2433.26 424 3498 424 3232.74 689 2168 689Z" fill="#FFFFFF" fill-rule="evenodd" fill-opacity="0.196078"/><path d="M2168.5 689.391 2433.76 424.5 3498.5 424.5 3498.5 516.609 3233.24 781.5 2168.5 781.5 2168.5 689.391ZM2168.5 689.391 3233.24 689.391 3498.5 424.5M3233.24 689.391 3233.24 781.5" stroke="#000000" stroke-width="9.16667" stroke-linejoin="round" stroke-miterlimit="10" fill="none" fill-rule="evenodd"/><path d="M1605 515.956 1886.11 234 2618 234 2618 332.044 2336.89 614 1605 614 1605 515.956Z" fill="#FFC000" fill-rule="evenodd"/><path d="M2336 515.956 2618 234 2618 332.044 2336 614 2336 515.956Z" fill="#000000" fill-rule="evenodd" fill-opacity="0.196078"/><path d="M1605 515 1886.11 234 2618 234 2336.89 515 1605 515Z" fill="#FFFFFF" fill-rule="evenodd" fill-opacity="0.196078"/><path d="M1605.5 516.457 1886.61 234.5 2618.5 234.5 2618.5 332.544 2337.39 614.5 1605.5 614.5 1605.5 516.457ZM1605.5 516.457 2337.39 516.457 2618.5 234.5M2337.39 516.457 2337.39 614.5" stroke="#000000" stroke-width="9.16667" stroke-linejoin="round" stroke-miterlimit="10" fill="none" fill-rule="evenodd"/><path d="M258 328.278 533.455 52.9999 2023 52.9999 2023 148.721 1747.55 424 258 424 258 328.278Z" fill="#CC6600" fill-rule="evenodd"/><path d="M1747 328.278 2023 52.9999 2023 148.721 1747 424 1747 328.278Z" fill="#000000" fill-rule="evenodd" fill-opacity="0.196078"/><path d="M258 328 533.455 52.9999 2023 52.9999 1747.55 328 258 328Z" fill="#FFFFFF" fill-rule="evenodd" fill-opacity="0.196078"/><path d="M258.5 328.779 533.954 53.5001 2023.5 53.5001 2023.5 149.222 1748.05 424.5 258.5 424.5 258.5 328.779ZM258.5 328.779 1748.05 328.779 2023.5 53.5001M1748.05 328.779 1748.05 424.5" stroke="#000000" stroke-width="9.16667" stroke-linejoin="round" stroke-miterlimit="10" fill="none" fill-rule="evenodd"/><path d="M0 21.05 21.0074 0 160 0 160 1241.95 138.992 1263 0 1263 0 21.05Z" fill="#70720E" fill-rule="evenodd" transform="matrix(1 -1.22465e-16 -1.22465e-16 -1 7.35235e-14 2441)"/><path d="M0 21.05 21 0 21 1241.95 0 1263 0 21.05Z" fill="#000000" fill-rule="evenodd" fill-opacity="0.196078" transform="matrix(1 -1.22465e-16 -1.22465e-16 -1 139 2441)"/><path d="M0 21 21.0074 0 160 0 138.992 21 0 21Z" fill="#FFFFFF" fill-rule="evenodd" fill-opacity="0.196078" transform="matrix(1 -1.22465e-16 -1.22465e-16 -1 0 2441)"/><path d="M0 75.2328 75.1677 0 2002 0 2002 497.767 1926.83 573 0 573 0 75.2328Z" fill="#70720E" fill-rule="evenodd" transform="matrix(1 -1.22465e-16 -1.22465e-16 -1 33 2441)"/><path d="M0 75.2328 76 0 76 497.767 0 573 0 75.2328Z" fill="#000000" fill-rule="evenodd" fill-opacity="0.196078" transform="matrix(1 -1.22465e-16 -1.22465e-16 -1 1959 2441)"/><path d="M0 76 75.1677 0 2002 0 1926.83 76 0 76Z" fill="#FFFFFF" fill-rule="evenodd" fill-opacity="0.196078" transform="matrix(1 -1.22465e-16 -1.22465e-16 -1 33 2441)"/><path d="M0 75.7579 75.7604 0 1039 0 1039 501.242 963.239 577 0 577 0 75.7579Z" fill="#EDF086" fill-rule="evenodd" transform="matrix(1 -1.22465e-16 -1.22465e-16 -1 155 1755)"/><path d="M0 75.7579 76 0 76 501.242 0 577 0 75.7579Z" fill="#000000" fill-rule="evenodd" fill-opacity="0.196078" transform="matrix(1 -1.22465e-16 -1.22465e-16 -1 1118 1755)"/><path d="M0 74.9999 75.7604 0 1039 0 963.239 74.9999 0 74.9999Z" fill="#FFFFFF" fill-rule="evenodd" fill-opacity="0.196078" transform="matrix(1 -1.22465e-16 -1.22465e-16 -1 155 1755)"/><path d="M3333 903-55 900" stroke="#000000" stroke-width="18.3333" stroke-linejoin="round" stroke-miterlimit="10" fill="none" fill-rule="evenodd"/><path d="M0 72.4756 72.5357 0 991 0 991 479.524 918.464 552 0 552 0 72.4756Z" fill="#99FFCC" fill-rule="evenodd" transform="matrix(1 -1.22465e-16 -1.22465e-16 -1 2458 2403)"/><path d="M0 72.4756 72.9999 0 72.9999 479.524 0 552 0 72.4756Z" fill="#000000" fill-rule="evenodd" fill-opacity="0.196078" transform="matrix(1 -1.22465e-16 -1.22465e-16 -1 3376 2403)"/><path d="M0 72.0002 72.5357 0 991 0 918.464 72.0002 0 72.0002Z" fill="#FFFFFF" fill-rule="evenodd" fill-opacity="0.196078" transform="matrix(1 -1.22465e-16 -1.22465e-16 -1 2458 2403)"/><path d="M0 72.4756 72.5357 0 991 0 991 479.524 918.464 552 0 552 0 72.4756ZM0 72.4756 918.464 72.4756 991 0M918.464 72.4756 918.464 552" stroke="#000066" stroke-width="9.16667" stroke-linejoin="round" stroke-miterlimit="10" fill="none" fill-rule="evenodd" transform="matrix(1 -1.22465e-16 -1.22465e-16 -1 2458.5 2403.5)"/><text font-family="Times New Roman,Times New Roman_MSFontService,sans-serif" font-weight="700" font-size="110" transform="matrix(1 0 0 1 415.937 1113)">800<tspan font-size="110" x="675.469" y="0">700</tspan><tspan font-size="110" x="1351.51" y="2">600</tspan><tspan font-size="110" x="2008.07" y="0">500</tspan><tspan font-size="110" x="2662.34" y="0">400</tspan></text><text font-family="Times New Roman,Times New Roman_MSFontService,sans-serif" font-weight="700" font-size="110" transform="matrix(-1.83697e-16 -1 1 -1.83697e-16 125.469 2174)">Reino Unido</text><text font-family="Times New Roman,Times New Roman_MSFontService,sans-serif" font-weight="700" font-size="110" transform="matrix(1 0 0 1 234.323 1294)">Israel<tspan font-size="110" x="16.6144" y="676">Judá</tspan><tspan font-size="110" x="279.583" y="-1132">Asiria</tspan><tspan font-size="110" x="1699.84" y="-940">Babilonia</tspan><tspan font-size="110" x="2370.73" y="-752">Persia</tspan><tspan font-size="73" x="37.2394" y="-904">880</tspan><tspan font-size="73" x="1345.78" y="-888">612</tspan><tspan font-size="73" x="1373.85" y="-704">625</tspan><tspan font-size="73" x="1947.92" y="-704">539</tspan><tspan font-size="73" x="1947.92" y="-534">550</tspan><tspan font-size="92" x="-65.3125" y="544">931</tspan><tspan font-style="italic" font-size="110" x="490.989" y="82">Amos</tspan><tspan font-style="italic" font-size="110" x="519.063" y="261">Oseas</tspan><tspan font-style="italic" font-size="110" x="37.2394" y="907">Joel</tspan><tspan font-style="italic" font-size="110" x="666.875" y="962">Miqueas</tspan><tspan font-style="italic" font-size="110" x="610.729" y="834">ISAIAS</tspan><tspan font-style="italic" font-size="110" x="445.729" y="-1001">Jonas</tspan><tspan font-style="italic" font-size="110" x="1012.34" y="-1001">Nahúm</tspan><tspan font-style="italic" font-size="110" x="1125.78" y="759">Sofonías</tspan><tspan font-style="italic" font-size="110" x="1218.59" y="906">Habacuc</tspan><tspan font-style="italic" font-size="110" x="1125.78" y="1048">JEREMIAS</tspan><tspan font-size="110" x="1872.86" y="671">Exilio</tspan><tspan font-style="italic" font-size="101" x="1806.98" y="825">DANIEL</tspan><tspan font-style="italic" font-size="92" x="1794.38" y="973">EZEKIEL</tspan><tspan font-size="73" x="2308.85" y="1094">536</tspan><tspan font-style="italic" font-size="110" x="2250.42" y="674">Hageo</tspan><tspan font-style="italic" font-size="110" x="2281.35" y="792">Zacarías</tspan><tspan font-style="italic" font-size="110" x="2542.03" y="982">Malaquías</tspan><tspan font-size="110" x="2608.78" y="100">Años de</tspan><tspan font-size="110" x="2613.93" y="232">Silencio</tspan></text><path d="M3008.04 1621.83 3240.8 1622.76 3240.73 1641.1 3007.96 1640.17ZM3209.08 1601.11 3258.06 1632 3208.84 1662.49C3204.53 1665.16 3198.88 1663.83 3196.22 1659.53 3193.55 1655.22 3194.88 1649.57 3199.18 1646.91L3235.94 1624.14 3235.88 1639.69 3199.3 1616.62C3195.02 1613.92 3193.74 1608.26 3196.44 1603.98 3199.14 1599.7 3204.8 1598.41 3209.08 1601.11Z"/><text font-family="Times New Roman,Times New Roman_MSFontService,sans-serif" font-style="italic" font-weight="700" font-size="110" transform="matrix(-1.83697e-16 -1 1 -1.83697e-16 414.792 877)">Abdias</text><path d="M531 844 532 975" stroke="#000000" stroke-width="18.3333" stroke-linejoin="round" stroke-miterlimit="10" fill="none" fill-rule="evenodd"/><path d="M1195 844 1196 975" stroke="#000000" stroke-width="18.3333" stroke-linejoin="round" stroke-miterlimit="10" fill="none" fill-rule="evenodd"/><path d="M1871 839 1872 969" stroke="#000000" stroke-width="18.3333" stroke-linejoin="round" stroke-miterlimit="10" fill="none" fill-rule="evenodd"/><path d="M2537 835 2538 965" stroke="#000000" stroke-width="18.3333" stroke-linejoin="round" stroke-miterlimit="10" fill="none" fill-rule="evenodd"/><path d="M3199 844 3200 975" stroke="#000000" stroke-width="18.3333" stroke-linejoin="round" stroke-miterlimit="10" fill="none" fill-rule="evenodd"/><path d="M1195 1403.55 1239.28 1319.5 1234.92 1396.66 1285.19 1384.09 1265.22 1425.5 1317.52 1437.41 1275.99 1471.29 1323.5 1512.08 1266.83 1507.04 1282.39 1581.71 1233.31 1528.99 1224.11 1605.5 1191.81 1535.92 1167.46 1632.5 1158.29 1545.95 1123.16 1574.78 1133.93 1521.46 1068.11 1530.88 1110.79 1490.13 1066.5 1444.34 1121.55 1429.88 1070.9 1352.76 1153.5 1411.08 1165.87 1352.76 1195 1403.55Z" stroke="#4B4C09" stroke-width="9.16667" stroke-linejoin="round" stroke-miterlimit="10" fill="#FF0000" fill-rule="evenodd"/><text font-family="Times New Roman,Times New Roman_MSFontService,sans-serif" font-weight="700" font-size="92" transform="matrix(1 0 0 1 1105.73 1498)">722</text><path d="M1954 1782.55 1998.28 1698.5 1993.92 1775.66 2044.19 1763.09 2024.22 1804.5 2076.52 1816.41 2034.99 1850.29 2082.5 1891.08 2025.83 1886.04 2041.39 1960.71 1992.31 1907.99 1983.11 1984.5 1950.81 1914.92 1926.46 2011.5 1917.29 1924.95 1882.16 1953.78 1892.93 1900.46 1827.11 1909.88 1869.79 1869.13 1825.5 1823.34 1880.55 1808.88 1829.9 1731.76 1912.5 1790.08 1924.87 1731.76 1954 1782.55Z" stroke="#4B4C09" stroke-width="9.16667" stroke-linejoin="round" stroke-miterlimit="10" fill="#FF0000" fill-rule="evenodd"/><text font-family="Times New Roman,Times New Roman_MSFontService,sans-serif" font-weight="700" font-size="92" transform="matrix(1 0 0 1 1864.27 1885)">586<tspan font-size="165" x="-227.104" y="-518">Cronología de </tspan></text><path d="M1637.22 1384.71 1885.22 1384.71 2133.22 1384.71 2381.22 1384.71 2629.22 1384.71 2629.22 1400.71 2381.22 1400.71 2133.22 1400.71 1885.22 1400.71 1637.22 1400.71Z" fill-rule="evenodd"/><text font-family="Times New Roman,Times New Roman_MSFontService,sans-serif" font-weight="700" font-size="165" transform="matrix(1 0 0 1 1724.25 1565)">los Profetas</text><path d="M1724.22 1582.71 1928.47 1582.71 2132.72 1582.71 2336.97 1582.71 2541.22 1582.71 2541.22 1598.71 2336.97 1598.71 2132.72 1598.71 1928.47 1598.71 1724.22 1598.71Z" fill-rule="evenodd"/></g></svg>