<svg width="2466" height="376" xmlns="http://www.w3.org/2000/svg" xmlns:xlink="http://www.w3.org/1999/xlink" xml:space="preserve" overflow="hidden"><defs><filter id="fx0" x="-10%" y="-10%" width="120%" height="120%" filterUnits="userSpaceOnUse" primitiveUnits="userSpaceOnUse"><feComponentTransfer color-interpolation-filters="sRGB"><feFuncR type="discrete" tableValues="0.752941 0.752941"/><feFuncG type="discrete" tableValues="0.752941 0.752941"/><feFuncB type="discrete" tableValues="0.752941 0.752941"/><feFuncA type="linear" slope="0.800000" intercept="0.000000"/></feComponentTransfer><feGaussianBlur stdDeviation="0.000000 0.000000"/></filter><clipPath id="clip1"><rect x="462" y="77" width="2466" height="376"/></clipPath><clipPath id="clip2"><rect x="0.666595" y="0.666656" width="2447.5" height="357.5"/></clipPath><clipPath id="clip3"><rect x="0" y="0" width="2449" height="359"/></clipPath></defs><g clip-path="url(#clip1)" transform="translate(-462 -77)"><g clip-path="url(#clip2)" filter="url(#fx0)" transform="translate(476 91)"><g clip-path="url(#clip3)"><path d="M548.799 273.395C543.81 279.916 540.042 285.989 537.495 291.615 534.948 297.241 533.674 302.419 533.674 307.15 533.674 313.287 536.752 318.658 542.908 323.26 553.522 331.188 568.86 335.152 588.921 335.152 608.026 335.152 622.116 331.092 631.191 322.973 640.266 314.854 644.804 306.191 644.804 296.985 644.804 290.336 642.097 285.605 636.684 282.792 631.165 279.979 620.232 278.317 603.887 277.806 580.005 277.039 561.642 275.568 548.799 273.395ZM1988.86 168.676C1972.83 176.348 1962.48 181.782 1957.81 184.979 1949.42 190.604 1943.43 196.486 1939.82 202.623 1936.21 208.761 1934.41 215.473 1934.41 222.762 1934.41 231.968 1936.69 239.607 1941.25 245.681 1945.82 251.754 1951.07 254.791 1957.01 254.791 1965.08 254.791 1975.69 248.398 1988.86 235.612 1988.86 213.3 1988.86 190.988 1988.86 168.676ZM2383.21 105.96C2374.4 105.96 2366.52 110.084 2359.56 118.331 2352.61 126.578 2348.55 138.054 2347.39 152.758 2369.89 152.758 2392.39 152.758 2414.89 152.758 2414.36 141.506 2413.25 133.578 2411.55 128.975 2408.89 121.815 2404.94 116.189 2399.69 112.098 2394.43 108.006 2388.94 105.96 2383.21 105.96ZM1468.41 105.96C1459.6 105.96 1451.72 110.084 1444.77 118.331 1437.81 126.578 1433.75 138.054 1432.59 152.758 1455.09 152.758 1477.59 152.758 1500.09 152.758 1499.56 141.506 1498.45 133.578 1496.75 128.975 1494.1 121.815 1490.14 116.189 1484.89 112.098 1479.63 108.006 1474.14 105.96 1468.41 105.96ZM734.759 105.96C725.949 105.96 718.068 110.084 711.116 118.331 704.164 126.578 700.104 138.054 698.936 152.758 721.438 152.758 743.94 152.758 766.442 152.758 765.912 141.506 764.797 133.578 763.099 128.975 760.445 121.815 756.492 116.189 751.237 112.098 745.983 108.006 740.491 105.96 734.759 105.96ZM426.807 105.96C417.997 105.96 410.116 110.084 403.164 118.331 396.212 126.578 392.152 138.054 390.984 152.758 413.486 152.758 435.988 152.758 458.49 152.758 457.96 141.506 456.845 133.578 455.147 128.975 452.493 121.815 448.54 116.189 443.286 112.098 438.032 108.006 432.539 105.96 426.807 105.96ZM2120.4 104.234C2111.06 104.234 2102.73 109.285 2095.41 119.386 2085.75 132.683 2080.92 152.118 2080.92 177.691 2080.92 203.518 2085.59 223.305 2094.93 237.05 2104.27 250.795 2114.67 257.668 2126.13 257.668 2135.79 257.668 2145.13 251.85 2154.15 240.215 2154.15 210.039 2154.15 179.864 2154.15 149.689 2153.52 140.994 2151.61 133.067 2148.42 125.907 2145.24 118.747 2141.02 113.344 2135.77 109.7 2130.51 106.056 2125.39 104.234 2120.4 104.234ZM1314.29 104.234C1304.95 104.234 1296.62 109.285 1289.3 119.386 1279.64 132.683 1274.81 152.118 1274.81 177.691 1274.81 203.518 1279.48 223.305 1288.82 237.05 1298.16 250.795 1308.56 257.668 1320.02 257.668 1329.68 257.668 1339.02 251.85 1348.04 240.215 1348.04 210.039 1348.04 179.864 1348.04 149.689 1347.41 140.994 1345.5 133.067 1342.31 125.907 1339.13 118.747 1334.91 113.344 1329.66 109.7 1324.4 106.056 1319.28 104.234 1314.29 104.234ZM578.094 101.741C570.24 101.741 563.659 105.513 558.352 113.057 553.045 120.6 550.391 132.172 550.391 147.771 550.391 167.973 554 183.636 561.218 194.76 566.737 203.199 573.742 207.418 582.234 207.418 590.3 207.418 596.934 203.774 602.135 196.486 607.336 189.198 609.937 177.754 609.937 162.155 609.937 141.825 606.275 125.907 598.951 114.399 593.538 105.96 586.585 101.741 578.094 101.741ZM197.542 97.7133C220.415 97.7133 243.288 97.7133 266.162 97.7133 266.162 100.079 266.162 102.444 266.162 104.81 261.81 104.81 258.759 105.705 257.007 107.495 255.256 109.285 254.38 111.65 254.38 114.591 254.38 117.66 256.238 122.391 259.953 128.784 261.12 130.829 262.871 134.026 265.207 138.373 268.656 145.022 272.106 151.671 275.556 158.32 279.536 151.671 283.516 145.022 287.496 138.373 295.139 125.715 298.96 117.724 298.96 114.399 298.96 111.714 298.057 109.445 296.253 107.591 294.449 105.737 291.53 104.81 287.496 104.81 287.496 102.444 287.496 100.079 287.496 97.7133 303.948 97.7133 320.4 97.7133 336.852 97.7133 336.852 100.079 336.852 102.444 336.852 104.81 331.651 105.193 327.14 106.919 323.319 109.988 318.118 114.335 311.007 123.797 301.985 138.373 295.351 149.05 288.717 159.726 282.083 170.402 294.183 191.372 306.283 212.341 318.384 233.31 327.3 248.781 333.668 258.083 337.489 261.216 341.31 264.348 346.246 266.107 352.296 266.49 352.296 268.792 352.296 271.093 352.296 273.395 329.369 273.395 306.443 273.395 283.516 273.395 283.516 271.093 283.516 268.792 283.516 266.49 288.292 266.49 292.007 265.212 294.661 262.654 296.678 260.864 297.686 258.499 297.686 255.558 297.686 252.617 294.289 245.201 287.496 233.31 280.385 220.78 273.273 208.249 266.162 195.719 258.36 208.249 250.559 220.78 242.758 233.31 235.54 244.946 231.931 251.85 231.931 254.024 231.931 257.092 233.125 259.873 235.514 262.367 237.902 264.86 241.484 266.234 246.26 266.49 246.26 268.792 246.26 271.093 246.26 273.395 230.392 273.395 214.524 273.395 198.656 273.395 198.656 271.093 198.656 268.792 198.656 266.49 202.477 265.851 205.821 264.253 208.686 261.695 212.72 257.987 219.513 248.526 229.066 233.31 239.255 217.008 249.445 200.706 259.634 184.403 250.4 168.293 241.166 152.182 231.931 136.072 224.077 122.263 218 113.6 213.701 110.084 209.403 106.568 204.016 104.81 197.542 104.81 197.542 102.444 197.542 100.079 197.542 97.7133ZM2250.16 92.5349C2252.39 92.5349 2254.62 92.5349 2256.85 92.5349 2256.85 105.705 2256.85 118.874 2256.85 132.044 2269.05 105.705 2281.58 92.5349 2294.42 92.5349 2300.26 92.5349 2305.09 94.6766 2308.91 98.96 2312.73 103.243 2314.64 108.198 2314.64 113.824 2314.64 118.81 2313.26 123.03 2310.5 126.482 2307.74 129.934 2304.45 131.66 2300.63 131.66 2296.91 131.66 2292.75 129.455 2288.13 125.044 2283.51 120.632 2280.09 118.427 2277.86 118.427 2275.95 118.427 2273.88 119.705 2271.65 122.263 2266.88 127.505 2261.94 136.136 2256.85 148.155 2256.85 176.22 2256.85 204.286 2256.85 232.351 2256.85 242.069 2257.85 249.421 2259.87 254.407 2261.25 257.859 2263.69 260.736 2267.2 263.038 2270.7 265.339 2275.74 266.49 2282.32 266.49 2282.32 268.792 2282.32 271.093 2282.32 273.395 2257.43 273.395 2232.54 273.395 2207.65 273.395 2207.65 271.093 2207.65 268.792 2207.65 266.49 2215.08 266.49 2220.6 265.084 2224.21 262.271 2226.86 260.225 2228.72 256.964 2229.78 252.489 2230.31 250.316 2230.58 244.114 2230.58 233.886 2230.58 211.19 2230.58 188.495 2230.58 165.799 2230.58 145.342 2230.23 133.163 2229.54 129.263 2228.85 125.363 2227.58 122.518 2225.72 120.728 2223.86 118.938 2221.55 118.043 2218.79 118.043 2215.5 118.043 2211.79 119.002 2207.65 120.92 2207.12 118.619 2206.59 116.317 2206.06 114.016 2220.76 106.855 2235.46 99.6952 2250.16 92.5349ZM1966.57 92.5349C1979.52 92.5349 1990.13 95.1561 1998.41 100.398 2004.67 104.362 2009.29 110.563 2012.26 119.002 2014.17 124.5 2015.13 135.752 2015.13 152.758 2015.13 172.64 2015.13 192.522 2015.13 212.405 2015.13 229.155 2015.39 239.416 2015.92 243.187 2016.45 246.959 2017.33 249.485 2018.55 250.763 2019.77 252.042 2021.18 252.681 2022.77 252.681 2024.47 252.681 2025.95 252.234 2027.23 251.339 2029.46 249.676 2033.75 245.009 2040.12 237.338 2040.12 240.918 2040.12 244.498 2040.12 248.078 2028.23 267.257 2016.88 276.847 2006.05 276.847 2000.85 276.847 1996.71 274.673 1993.63 270.326 1990.55 265.979 1988.96 258.563 1988.86 248.078 1973.89 262.015 1964.5 270.07 1960.68 272.244 1954.94 275.44 1948.84 277.039 1942.37 277.039 1932.28 277.039 1923.98 272.883 1917.45 264.572 1910.92 256.261 1907.66 245.329 1907.66 231.776 1907.66 223.209 1909.25 215.793 1912.43 209.528 1916.79 200.833 1924.35 192.65 1935.12 184.979 1945.9 177.307 1963.81 167.973 1988.86 156.977 1988.86 154.676 1988.86 152.374 1988.86 150.073 1988.86 132.556 1986.55 120.537 1981.93 114.016 1977.31 107.495 1970.6 104.234 1961.79 104.234 1955.1 104.234 1949.8 106.408 1945.87 110.755 1941.84 115.102 1939.82 120.089 1939.82 125.715 1939.93 129.423 1940.03 133.131 1940.14 136.839 1940.14 142.72 1938.89 147.26 1936.4 150.456 1933.9 153.653 1930.64 155.251 1926.6 155.251 1922.68 155.251 1919.47 153.589 1916.97 150.264 1914.48 146.94 1913.23 142.401 1913.23 136.647 1913.23 125.651 1917.9 115.55 1927.24 106.344 1936.58 97.1379 1949.69 92.5349 1966.57 92.5349ZM1086.71 92.5349C1092.44 92.5349 1099.39 94.0053 1107.56 96.9461 1112.98 98.8641 1116.59 99.823 1118.39 99.823 1120.09 99.823 1121.41 99.3755 1122.37 98.4805 1123.33 97.5855 1124.44 95.6036 1125.71 92.5349 1127.46 92.5349 1129.22 92.5349 1130.97 92.5349 1130.97 112.481 1130.97 132.428 1130.97 152.374 1129.22 152.374 1127.46 152.374 1125.71 152.374 1121.68 133.578 1116.51 120.792 1110.19 114.016 1103.87 107.239 1095.83 103.851 1086.07 103.851 1078.64 103.851 1072.64 106.216 1068.08 110.947 1063.51 115.678 1061.23 120.92 1061.23 126.674 1061.23 133.834 1062.93 139.971 1066.33 145.086 1069.62 150.328 1076.3 155.89 1086.39 161.772 1094.14 166.311 1101.88 170.85 1109.63 175.389 1131.18 188.047 1141.95 204.733 1141.95 225.447 1141.95 241.429 1136.94 254.311 1126.91 264.093 1116.88 273.874 1105.65 278.765 1093.23 278.765 1084.32 278.765 1074.13 276.847 1062.67 273.011 1059.16 271.732 1056.3 271.093 1054.07 271.093 1051.63 271.093 1049.72 272.755 1048.34 276.08 1046.59 276.08 1044.83 276.08 1043.08 276.08 1043.08 255.174 1043.08 234.269 1043.08 213.364 1044.83 213.364 1046.59 213.364 1048.34 213.364 1051.31 231.264 1056.99 244.754 1065.37 253.832 1073.76 262.91 1083.15 267.449 1093.55 267.449 1100.88 267.449 1106.85 264.86 1111.46 259.682 1116.08 254.503 1118.39 248.27 1118.39 240.982 1118.39 232.159 1115.82 224.743 1110.67 218.734 1105.52 212.724 1095.25 205.117 1079.86 195.911 1064.47 186.705 1054.39 178.394 1049.61 170.978 1044.83 163.69 1042.45 154.484 1042.45 143.36 1042.45 128.911 1046.56 116.829 1054.78 107.111 1063.01 97.3937 1073.65 92.5349 1086.71 92.5349ZM989.446 92.5349C991.781 92.5349 994.116 92.5349 996.451 92.5349 996.451 139.588 996.451 186.641 996.451 233.694 996.451 244.69 997.114 252.01 998.441 255.654 999.768 259.298 1001.73 262.015 1004.33 263.805 1006.93 265.595 1011.68 266.49 1018.58 266.49 1018.58 268.792 1018.58 271.093 1018.58 273.395 994.965 273.395 971.349 273.395 947.732 273.395 947.732 271.093 947.732 268.792 947.732 266.49 954.843 266.49 959.62 265.659 962.061 263.997 964.503 262.335 966.44 259.586 967.872 255.75 969.305 251.914 970.022 244.562 970.022 233.694 970.022 211.126 970.022 188.559 970.022 165.991 970.022 146.94 969.544 134.601 968.589 128.975 967.846 124.884 966.678 122.039 965.086 120.441 963.494 118.842 961.318 118.043 958.558 118.043 955.586 118.043 951.978 119.002 947.732 120.92 946.989 118.619 946.246 116.317 945.503 114.016 960.151 106.855 974.798 99.6952 989.446 92.5349ZM869.329 92.5349C875.06 92.5349 882.013 94.0053 890.186 96.9461 895.599 98.8641 899.208 99.823 901.012 99.823 902.71 99.823 904.037 99.3755 904.992 98.4805 905.948 97.5855 907.062 95.6036 908.336 92.5349 910.087 92.5349 911.838 92.5349 913.59 92.5349 913.59 112.481 913.59 132.428 913.59 152.374 911.838 152.374 910.087 152.374 908.336 152.374 904.302 133.578 899.128 120.792 892.812 114.016 886.497 107.239 878.457 103.851 868.692 103.851 861.262 103.851 855.265 106.216 850.701 110.947 846.137 115.678 843.855 120.92 843.855 126.674 843.855 133.834 845.553 139.971 848.95 145.086 852.24 150.328 858.927 155.89 869.01 161.772 876.759 166.311 884.507 170.85 892.255 175.389 913.802 188.047 924.575 204.733 924.575 225.447 924.575 241.429 919.56 254.311 909.53 264.093 899.499 273.874 888.275 278.765 875.856 278.765 866.941 278.765 856.751 276.847 845.288 273.011 841.785 271.732 838.919 271.093 836.69 271.093 834.249 271.093 832.338 272.755 830.959 276.08 829.207 276.08 827.456 276.08 825.705 276.08 825.705 255.174 825.705 234.269 825.705 213.364 827.456 213.364 829.207 213.364 830.959 213.364 833.931 231.264 839.609 244.754 847.994 253.832 856.38 262.91 865.773 267.449 876.175 267.449 883.499 267.449 889.469 264.86 894.086 259.682 898.703 254.503 901.012 248.27 901.012 240.982 901.012 232.159 898.438 224.743 893.29 218.734 888.142 212.724 877.873 205.117 862.483 195.911 847.092 186.705 837.009 178.394 832.232 170.978 827.456 163.69 825.068 154.484 825.068 143.36 825.068 128.911 829.181 116.829 837.407 107.111 845.633 97.3937 856.273 92.5349 869.329 92.5349ZM580.801 92.5349C594.705 92.5349 606.752 96.6265 616.942 104.81 627.238 104.81 637.533 104.81 647.829 104.81 652.393 104.81 655.047 104.969 655.79 105.289 656.533 105.609 657.063 106.152 657.382 106.919 658.019 108.07 658.337 110.116 658.337 113.057 658.337 116.381 658.072 118.683 657.541 119.961 657.223 120.6 656.665 121.112 655.869 121.495 655.073 121.879 652.393 122.071 647.829 122.071 641.514 122.071 635.198 122.071 628.883 122.071 634.827 131.277 637.799 143.04 637.799 157.361 637.799 173.727 632.598 187.728 622.196 199.363 611.794 210.998 597.836 216.816 580.323 216.816 573.105 216.816 565.729 215.537 558.193 212.98 553.522 217.839 550.365 222.09 548.719 225.734 547.074 229.378 546.252 232.479 546.252 235.036 546.252 237.21 547.127 239.32 548.879 241.365 550.63 243.411 554.053 244.882 559.148 245.777 562.12 246.288 569.55 246.736 581.438 247.119 603.303 247.758 617.473 248.653 623.947 249.804 633.818 251.466 641.699 255.878 647.59 263.038 653.481 270.198 656.427 279.021 656.427 289.505 656.427 303.953 650.801 317.507 639.55 330.165 622.992 348.833 601.392 358.167 574.751 358.167 554.265 358.167 536.964 352.605 522.848 341.481 514.887 335.088 510.907 328.439 510.907 321.534 510.907 318.466 511.49 315.397 512.658 312.328 514.462 307.598 518.177 301.013 523.803 292.574 524.546 291.423 529.959 284.519 540.042 271.86 534.523 267.897 530.622 264.348 528.34 261.216 526.058 258.083 524.917 254.535 524.917 250.571 524.917 246.096 526.43 240.854 529.455 234.844 532.48 228.835 539.459 220.332 550.391 209.336 541.475 204.094 534.629 196.774 529.853 187.376 525.076 177.978 522.688 167.589 522.688 156.21 522.688 138.821 528.128 123.861 539.008 111.331 549.887 98.8001 563.818 92.5349 580.801 92.5349ZM2392.12 92.3431C2408.47 92.3431 2421.9 98.8321 2432.4 111.81 2442.91 124.788 2448.17 142.145 2448.17 163.882 2414.57 163.882 2380.98 163.882 2347.39 163.882 2347.28 189.965 2352.53 210.423 2363.15 225.255 2373.76 240.087 2386.23 247.503 2400.56 247.503 2410.11 247.503 2418.42 244.338 2425.48 238.009 2432.54 231.68 2438.45 220.844 2443.23 205.5 2444.88 206.779 2446.52 208.058 2448.17 209.336 2445.94 226.853 2439.46 242.804 2428.74 257.188 2418.02 271.573 2404.6 278.765 2388.46 278.765 2370.95 278.765 2355.96 270.55 2343.48 254.12 2331.01 237.689 2324.78 215.601 2324.78 187.855 2324.78 157.808 2331.17 134.378 2343.96 117.564 2356.75 100.75 2372.81 92.3431 2392.12 92.3431ZM1477.33 92.3431C1493.67 92.3431 1507.1 98.8321 1517.61 111.81 1528.11 124.788 1533.37 142.145 1533.37 163.882 1499.77 163.882 1466.18 163.882 1432.59 163.882 1432.48 189.965 1437.73 210.423 1448.35 225.255 1458.96 240.087 1471.43 247.503 1485.76 247.503 1495.32 247.503 1503.62 244.338 1510.68 238.009 1517.74 231.68 1523.66 220.844 1528.43 205.5 1530.08 206.779 1531.72 208.058 1533.37 209.336 1531.14 226.853 1524.66 242.804 1513.94 257.188 1503.22 271.573 1489.8 278.765 1473.66 278.765 1456.15 278.765 1441.16 270.55 1428.69 254.12 1416.21 237.689 1409.98 215.601 1409.98 187.855 1409.98 157.808 1416.37 134.378 1429.16 117.564 1441.95 100.75 1458.01 92.3431 1477.33 92.3431ZM743.675 92.3431C760.021 92.3431 773.448 98.8321 783.956 111.81 794.464 124.788 799.718 142.145 799.718 163.882 766.124 163.882 732.53 163.882 698.936 163.882 698.83 189.965 704.084 210.423 714.698 225.255 725.312 240.087 737.784 247.503 752.113 247.503 761.666 247.503 769.971 244.338 777.03 238.009 784.088 231.68 790.006 220.844 794.782 205.5 796.427 206.779 798.072 208.058 799.718 209.336 797.489 226.853 791.014 242.804 780.294 257.188 769.573 271.573 756.146 278.765 740.013 278.765 722.5 278.765 707.507 270.55 695.036 254.12 682.564 237.689 676.328 215.601 676.328 187.855 676.328 157.808 682.723 134.378 695.513 117.564 708.303 100.75 724.357 92.3431 743.675 92.3431ZM435.723 92.3431C452.069 92.3431 465.496 98.8321 476.004 111.81 486.512 124.788 491.766 142.145 491.766 163.882 458.172 163.882 424.578 163.882 390.984 163.882 390.878 189.965 396.132 210.423 406.746 225.255 417.361 240.087 429.832 247.503 444.161 247.503 453.714 247.503 462.02 244.338 469.078 238.009 476.136 231.68 482.054 220.844 486.83 205.5 488.475 206.779 490.121 208.058 491.766 209.336 489.537 226.853 483.062 242.804 472.342 257.188 461.622 271.573 448.195 278.765 432.061 278.765 414.548 278.765 399.555 270.55 387.084 254.12 374.612 237.689 368.376 215.601 368.376 187.855 368.376 157.808 374.771 134.378 387.561 117.564 400.351 100.75 416.405 92.3431 435.723 92.3431ZM1802.61 28.8601C1797.2 28.8601 1790.25 30.0747 1781.76 32.5041 1781.76 68.561 1781.76 104.618 1781.76 140.675 1787.38 141.953 1792.37 142.912 1796.72 143.552 1801.07 144.191 1804.79 144.511 1807.87 144.511 1818.91 144.511 1828.43 139.364 1836.45 129.071 1844.46 118.778 1848.47 105.449 1848.47 89.0827 1848.47 77.8309 1846.56 67.3782 1842.74 57.7247 1838.91 48.0712 1833.5 40.847 1826.5 36.0522 1819.49 31.2574 1811.53 28.8601 1802.61 28.8601ZM1720.3 13.3249C1746.68 13.3249 1773.05 13.3249 1799.43 13.3249 1818.75 13.3249 1833.98 15.7223 1845.12 20.5171 1856.27 25.3119 1865.66 33.3991 1873.3 44.7788 1880.95 56.1584 1884.77 69.6478 1884.77 85.2468 1884.77 106.472 1878.96 123.733 1867.33 137.031 1855.71 150.328 1839.29 156.977 1818.06 156.977 1812.86 156.977 1807.23 156.529 1801.18 155.634 1795.13 154.739 1788.66 153.397 1781.76 151.607 1781.76 176.859 1781.76 202.112 1781.76 227.365 1781.76 243.731 1783.24 253.896 1786.21 257.859 1790.25 263.485 1796.35 266.298 1804.52 266.298 1807.28 266.298 1810.04 266.298 1812.8 266.298 1812.8 268.664 1812.8 271.029 1812.8 273.395 1781.97 273.395 1751.14 273.395 1720.3 273.395 1720.3 271.029 1720.3 268.664 1720.3 266.298 1723.01 266.298 1725.71 266.298 1728.42 266.298 1737.55 266.298 1744.08 262.718 1748 255.558 1750.13 251.594 1751.19 242.196 1751.19 227.365 1751.19 171.361 1751.19 115.358 1751.19 59.3549 1751.19 42.9887 1749.76 32.8238 1746.89 28.8601 1742.75 23.2342 1736.59 20.4212 1728.42 20.4212 1725.71 20.4212 1723.01 20.4212 1720.3 20.4212 1720.3 18.0558 1720.3 15.6903 1720.3 13.3249ZM0.666602 13.3249C56.1256 13.3249 111.585 13.3249 167.043 13.3249 167.84 32.3123 168.636 51.2997 169.432 70.2871 167.362 70.2871 165.292 70.2871 163.222 70.2871 160.993 56.6059 158.526 47.2082 155.819 42.0937 153.112 36.9792 149.106 33.0795 143.798 30.3944 139.553 28.4765 132.07 27.5175 121.35 27.5175 101.607 27.5175 81.8649 27.5175 62.1225 27.5175 62.1225 61.7843 62.1225 96.0511 62.1225 130.318 77.9376 130.318 93.7527 130.318 109.568 130.318 121.88 130.318 130.106 128.08 134.246 123.605 139.765 117.724 142.843 107.367 143.48 92.5349 145.444 92.5349 147.407 92.5349 149.371 92.5349 149.371 122.71 149.371 152.885 149.371 183.061 147.407 183.061 145.444 183.061 143.48 183.061 141.994 170.402 140.508 162.283 139.022 158.703 137.112 154.228 133.98 150.712 129.629 148.155 125.277 145.597 118.59 144.319 109.568 144.319 93.7527 144.319 77.9376 144.319 62.1225 144.319 62.1225 172.896 62.1225 201.473 62.1225 230.05 62.1225 241.557 62.5471 248.558 63.3962 251.051 64.2454 253.544 65.7314 255.526 67.8542 256.996 69.977 258.467 74.0104 259.202 79.9543 259.202 92.1606 259.202 104.367 259.202 116.573 259.202 128.779 259.202 137.642 258.179 143.162 256.133 148.681 254.088 153.988 250.06 159.083 244.05 165.664 236.123 172.404 224.168 179.303 208.185 181.426 208.185 183.548 208.185 185.671 208.185 179.462 229.922 173.253 251.658 167.043 273.395 111.585 273.395 56.1256 273.395 0.666602 273.395 0.666602 271.029 0.666602 268.664 0.666602 266.298 3.214 266.298 5.7614 266.298 8.30879 266.298 13.4036 266.298 18.233 264.828 22.7971 261.887 26.1936 259.841 28.5022 256.773 29.7228 252.681 30.9435 248.59 31.5538 240.215 31.5538 227.556 31.5538 171.234 31.5538 114.911 31.5538 58.5878 31.5538 42.0937 30.1739 31.9287 27.4143 28.0929 23.5932 22.9784 17.2247 20.4212 8.30879 20.4212 5.7614 20.4212 3.214 20.4212 0.666602 20.4212 0.666602 18.0558 0.666602 15.6903 0.666602 13.3249ZM431.265 6.80402C443.153 6.80402 455.041 6.80402 466.929 6.80402 451.273 28.8601 435.617 50.9161 419.961 72.9722 418.157 72.9722 416.352 72.9722 414.548 72.9722 420.12 50.9161 425.693 28.8601 431.265 6.80402ZM2173.26 0.66666C2175.65 0.66666 2178.04 0.66666 2180.42 0.66666 2180.42 68.3692 2180.42 136.072 2180.42 203.774 2180.42 224.36 2180.82 236.922 2181.62 241.461 2182.41 246 2183.69 249.165 2185.44 250.955 2187.19 252.745 2189.23 253.64 2191.57 253.64 2194.43 253.64 2198.26 252.553 2203.03 250.38 2203.62 252.617 2204.2 254.855 2204.78 257.092 2190.35 264.316 2175.91 271.541 2161.48 278.765 2159.04 278.765 2156.6 278.765 2154.15 278.765 2154.15 270.39 2154.15 262.015 2154.15 253.64 2147.04 262.59 2140.09 269.015 2133.3 272.915 2126.5 276.815 2119.18 278.765 2111.33 278.765 2095.4 278.765 2081.5 270.741 2069.61 254.695 2057.72 238.648 2051.78 218.031 2051.78 192.842 2051.78 167.653 2058.36 144.606 2071.52 123.701 2084.68 102.796 2101.61 92.3431 2122.31 92.3431 2135.15 92.3431 2145.77 97.2658 2154.15 107.111 2154.15 96.3068 2154.15 85.5026 2154.15 74.6983 2154.15 54.6241 2153.76 42.2855 2152.96 37.6825 2152.16 33.0795 2150.92 29.9469 2149.22 28.2847 2147.52 26.6225 2145.4 25.7914 2142.85 25.7914 2140.09 25.7914 2136.43 26.8143 2131.86 28.8601 2131.17 26.6225 2130.48 24.3849 2129.79 22.1473 2144.28 14.9871 2158.77 7.82689 2173.26 0.66666ZM1595.97 0.66666C1598.36 0.66666 1600.75 0.66666 1603.14 0.66666 1603.14 78.3423 1603.14 156.018 1603.14 233.694 1603.14 244.69 1603.8 251.978 1605.13 255.558 1606.46 259.138 1608.5 261.855 1611.26 263.709 1614.02 265.563 1619.17 266.49 1626.7 266.49 1626.7 268.792 1626.7 271.093 1626.7 273.395 1602.87 273.395 1579.04 273.395 1555.22 273.395 1555.22 271.093 1555.22 268.792 1555.22 266.49 1561.9 266.49 1566.47 265.659 1568.91 263.997 1571.35 262.335 1573.26 259.586 1574.64 255.75 1576.02 251.914 1576.71 244.562 1576.71 233.694 1576.71 180.503 1576.71 127.313 1576.71 74.1229 1576.71 54.3045 1576.34 42.1257 1575.59 37.5866 1574.85 33.0475 1573.66 29.9469 1572.01 28.2847 1570.37 26.6225 1568.27 25.7914 1565.72 25.7914 1562.96 25.7914 1559.46 26.8143 1555.22 28.8601 1554.31 26.6225 1553.41 24.3849 1552.51 22.1473 1567 14.9871 1581.49 7.82689 1595.97 0.66666ZM1367.15 0.66666C1369.54 0.66666 1371.93 0.66666 1374.31 0.66666 1374.31 68.3692 1374.31 136.072 1374.31 203.774 1374.31 224.36 1374.71 236.922 1375.51 241.461 1376.3 246 1377.58 249.165 1379.33 250.955 1381.08 252.745 1383.12 253.64 1385.46 253.64 1388.33 253.64 1392.15 252.553 1396.92 250.38 1397.51 252.617 1398.09 254.855 1398.67 257.092 1384.24 264.316 1369.8 271.541 1355.37 278.765 1352.93 278.765 1350.49 278.765 1348.04 278.765 1348.04 270.39 1348.04 262.015 1348.04 253.64 1340.93 262.59 1333.98 269.015 1327.19 272.915 1320.39 276.815 1313.07 278.765 1305.22 278.765 1289.3 278.765 1275.39 270.741 1263.5 254.695 1251.61 238.648 1245.67 218.031 1245.67 192.842 1245.67 167.653 1252.25 144.606 1265.41 123.701 1278.58 102.796 1295.5 92.3431 1316.2 92.3431 1329.05 92.3431 1339.66 97.2658 1348.04 107.111 1348.04 96.3068 1348.04 85.5026 1348.04 74.6983 1348.04 54.6241 1347.65 42.2855 1346.85 37.6825 1346.05 33.0795 1344.81 29.9469 1343.11 28.2847 1341.41 26.6225 1339.29 25.7914 1336.74 25.7914 1333.98 25.7914 1330.32 26.8143 1325.75 28.8601 1325.06 26.6225 1324.38 24.3849 1323.69 22.1473 1338.17 14.9871 1352.66 7.82689 1367.15 0.66666ZM983.236 0.66666C987.694 0.66666 991.489 2.55263 994.62 6.32452 997.751 10.0964 999.317 14.6675 999.317 20.0376 999.317 25.4078 997.751 30.0108 994.62 33.8466 991.489 37.6825 987.694 39.6004 983.236 39.6004 978.778 39.6004 974.957 37.6825 971.773 33.8466 968.589 30.0108 966.997 25.4078 966.997 20.0376 966.997 14.6675 968.562 10.0964 971.694 6.32452 974.825 2.55263 978.672 0.66666 983.236 0.66666Z" fill="#FFFF00" fill-rule="evenodd" fill-opacity="1"/></g></g><path d="M1015.63 355.228C1010.64 361.749 1006.88 367.822 1004.33 373.448 1001.78 379.074 1000.51 384.252 1000.51 388.983 1000.51 395.121 1003.59 400.491 1009.74 405.094 1020.36 413.021 1035.69 416.985 1055.75 416.985 1074.86 416.985 1088.95 412.925 1098.02 404.806 1107.1 396.687 1111.64 388.024 1111.64 378.818 1111.64 372.17 1108.93 367.439 1103.52 364.626 1098 361.813 1087.07 360.151 1070.72 359.639 1046.84 358.872 1028.48 357.402 1015.63 355.228ZM2455.69 250.51C2439.66 258.181 2429.31 263.615 2424.64 266.812 2416.26 272.438 2410.26 278.319 2406.65 284.457 2403.04 290.594 2401.24 297.307 2401.24 304.595 2401.24 313.801 2403.52 321.441 2408.09 327.514 2412.65 333.587 2417.9 336.624 2423.85 336.624 2431.91 336.624 2442.53 330.231 2455.69 317.445 2455.69 295.133 2455.69 272.821 2455.69 250.51ZM2850.04 187.794C2841.23 187.794 2833.35 191.917 2826.4 200.164 2819.45 208.411 2815.39 219.887 2814.22 234.591 2836.72 234.591 2859.22 234.591 2881.72 234.591 2881.19 223.339 2880.08 215.412 2878.38 210.809 2875.73 203.649 2871.77 198.023 2866.52 193.931 2861.27 189.839 2855.77 187.794 2850.04 187.794ZM1935.24 187.794C1926.43 187.794 1918.55 191.917 1911.6 200.164 1904.65 208.411 1900.59 219.887 1899.42 234.591 1921.92 234.591 1944.42 234.591 1966.93 234.591 1966.4 223.339 1965.28 215.412 1963.58 210.809 1960.93 203.649 1956.97 198.023 1951.72 193.931 1946.47 189.839 1940.97 187.794 1935.24 187.794ZM1201.59 187.794C1192.78 187.794 1184.9 191.917 1177.95 200.164 1171 208.411 1166.94 219.887 1165.77 234.591 1188.27 234.591 1210.77 234.591 1233.28 234.591 1232.74 223.339 1231.63 215.412 1229.93 210.809 1227.28 203.649 1223.32 198.023 1218.07 193.931 1212.82 189.839 1207.32 187.794 1201.59 187.794ZM893.641 187.794C884.831 187.794 876.95 191.917 869.997 200.164 863.045 208.411 858.985 219.887 857.818 234.591 880.32 234.591 902.822 234.591 925.324 234.591 924.793 223.339 923.679 215.412 921.98 210.809 919.327 203.649 915.373 198.023 910.119 193.931 904.865 189.839 899.372 187.794 893.641 187.794ZM2587.23 186.068C2577.89 186.068 2569.56 191.118 2562.24 201.219 2552.58 214.517 2547.75 233.952 2547.75 259.524 2547.75 285.352 2552.42 305.138 2561.76 318.883 2571.1 332.629 2581.5 339.501 2592.97 339.501 2602.62 339.501 2611.97 333.683 2620.99 322.048 2620.99 291.873 2620.99 261.698 2620.99 231.522 2620.35 222.828 2618.44 214.9 2615.26 207.74 2612.07 200.58 2607.85 195.178 2602.6 191.534 2597.34 187.89 2592.22 186.068 2587.23 186.068ZM1781.12 186.068C1771.78 186.068 1763.45 191.118 1756.13 201.219 1746.47 214.517 1741.64 233.952 1741.64 259.524 1741.64 285.352 1746.31 305.138 1755.65 318.883 1764.99 332.629 1775.39 339.501 1786.86 339.501 1796.52 339.501 1805.86 333.683 1814.88 322.048 1814.88 291.873 1814.88 261.698 1814.88 231.522 1814.24 222.828 1812.33 214.9 1809.15 207.74 1805.96 200.58 1801.74 195.178 1796.49 191.534 1791.23 187.89 1786.11 186.068 1781.12 186.068ZM1044.93 183.574C1037.07 183.574 1030.49 187.346 1025.19 194.89 1019.88 202.434 1017.22 214.005 1017.22 229.604 1017.22 249.806 1020.83 265.469 1028.05 276.593 1033.57 285.032 1040.58 289.252 1049.07 289.252 1057.13 289.252 1063.77 285.608 1068.97 278.319 1074.17 271.031 1076.77 259.588 1076.77 243.989 1076.77 223.659 1073.11 207.74 1065.78 196.233 1060.37 187.794 1053.42 183.574 1044.93 183.574ZM664.375 179.547C687.248 179.547 710.122 179.547 732.995 179.547 732.995 181.912 732.995 184.278 732.995 186.643 728.644 186.643 725.592 187.538 723.841 189.328 722.089 191.118 721.214 193.484 721.214 196.424 721.214 199.493 723.071 204.224 726.786 210.617 727.953 212.663 729.705 215.859 732.04 220.207 735.49 226.855 738.939 233.504 742.389 240.153 746.369 233.504 750.349 226.855 754.33 220.207 761.972 207.548 765.793 199.557 765.793 196.233 765.793 193.547 764.891 191.278 763.086 189.424 761.282 187.57 758.363 186.643 754.33 186.643 754.33 184.278 754.33 181.912 754.33 179.547 770.782 179.547 787.234 179.547 803.686 179.547 803.686 181.912 803.686 184.278 803.686 186.643 798.485 187.027 793.974 188.753 790.153 191.821 784.952 196.169 777.84 205.63 768.818 220.207 762.184 230.883 755.55 241.559 748.917 252.236 761.017 273.205 773.117 294.174 785.217 315.143 794.133 330.615 800.501 339.917 804.322 343.049 808.144 346.182 813.079 347.94 819.129 348.323 819.129 350.625 819.129 352.926 819.129 355.228 796.203 355.228 773.276 355.228 750.349 355.228 750.349 352.926 750.349 350.625 750.349 348.323 755.126 348.323 758.841 347.045 761.494 344.488 763.511 342.698 764.519 340.332 764.519 337.391 764.519 334.451 761.123 327.035 754.33 315.143 747.218 302.613 740.107 290.083 732.995 277.552 725.194 290.083 717.392 302.613 709.591 315.143 702.373 326.779 698.765 333.683 698.765 335.857 698.765 338.926 699.959 341.707 702.347 344.2 704.735 346.693 708.317 348.068 713.094 348.323 713.094 350.625 713.094 352.926 713.094 355.228 697.226 355.228 681.357 355.228 665.489 355.228 665.489 352.926 665.489 350.625 665.489 348.323 669.31 347.684 672.654 346.086 675.52 343.529 679.553 339.821 686.346 330.359 695.899 315.143 706.088 298.841 716.278 282.539 726.468 266.237 717.233 250.126 707.999 234.016 698.765 217.905 690.91 204.096 684.834 195.433 680.535 191.917 676.236 188.401 670.849 186.643 664.375 186.643 664.375 184.278 664.375 181.912 664.375 179.547ZM2716.99 174.368C2719.22 174.368 2721.45 174.368 2723.68 174.368 2723.68 187.538 2723.68 200.708 2723.68 213.877 2735.89 187.538 2748.41 174.368 2761.25 174.368 2767.09 174.368 2771.92 176.51 2775.74 180.793 2779.56 185.077 2781.47 190.031 2781.47 195.657 2781.47 200.644 2780.09 204.863 2777.33 208.315 2774.57 211.768 2771.28 213.494 2767.46 213.494 2763.75 213.494 2759.58 211.288 2754.96 206.877 2750.35 202.466 2746.92 200.26 2744.7 200.26 2742.79 200.26 2740.72 201.539 2738.49 204.096 2733.71 209.338 2728.77 217.969 2723.68 229.988 2723.68 258.053 2723.68 286.119 2723.68 314.185 2723.68 323.902 2724.69 331.254 2726.7 336.241 2728.08 339.693 2730.53 342.57 2734.03 344.871 2737.53 347.173 2742.57 348.323 2749.15 348.323 2749.15 350.625 2749.15 352.926 2749.15 355.228 2724.26 355.228 2699.37 355.228 2674.48 355.228 2674.48 352.926 2674.48 350.625 2674.48 348.323 2681.91 348.323 2687.43 346.917 2691.04 344.104 2693.69 342.058 2695.55 338.798 2696.61 334.323 2697.14 332.149 2697.41 325.948 2697.41 315.719 2697.41 293.023 2697.41 270.328 2697.41 247.633 2697.41 227.175 2697.06 214.996 2696.37 211.096 2695.68 207.197 2694.41 204.352 2692.55 202.562 2690.7 200.772 2688.39 199.877 2685.63 199.877 2682.34 199.877 2678.62 200.836 2674.48 202.753 2673.95 200.452 2673.42 198.15 2672.89 195.849 2687.59 188.689 2702.29 181.529 2716.99 174.368ZM2433.4 174.368C2446.35 174.368 2456.96 176.989 2465.24 182.232 2471.5 186.195 2476.12 192.397 2479.09 200.836 2481 206.334 2481.96 217.585 2481.96 234.591 2481.96 254.473 2481.96 274.356 2481.96 294.238 2481.96 310.988 2482.23 321.249 2482.76 325.021 2483.29 328.793 2484.16 331.318 2485.38 332.597 2486.6 333.875 2488.01 334.514 2489.6 334.514 2491.3 334.514 2492.79 334.067 2494.06 333.172 2496.29 331.51 2500.59 326.843 2506.96 319.171 2506.96 322.751 2506.96 326.331 2506.96 329.911 2495.07 349.091 2483.71 358.68 2472.88 358.68 2467.68 358.68 2463.54 356.507 2460.47 352.159 2457.39 347.812 2455.8 340.396 2455.69 329.911 2440.72 343.848 2431.33 351.904 2427.51 354.077 2421.78 357.274 2415.67 358.872 2409.2 358.872 2399.12 358.872 2390.81 354.717 2384.28 346.406 2377.76 338.095 2374.49 327.162 2374.49 313.609 2374.49 305.042 2376.08 297.626 2379.27 291.361 2383.62 282.667 2391.18 274.484 2401.96 266.812 2412.73 259.14 2430.64 249.806 2455.69 238.81 2455.69 236.509 2455.69 234.207 2455.69 231.906 2455.69 214.389 2453.38 202.37 2448.76 195.849 2444.15 189.328 2437.43 186.068 2428.62 186.068 2421.94 186.068 2416.63 188.241 2412.7 192.589 2408.67 196.936 2406.65 201.922 2406.65 207.548 2406.76 211.256 2406.86 214.964 2406.97 218.672 2406.97 224.554 2405.72 229.093 2403.23 232.289 2400.74 235.486 2397.47 237.084 2393.44 237.084 2389.51 237.084 2386.3 235.422 2383.81 232.098 2381.31 228.773 2380.06 224.234 2380.06 218.48 2380.06 207.484 2384.73 197.383 2394.07 188.177 2403.41 178.971 2416.52 174.368 2433.4 174.368ZM1553.54 174.368C1559.27 174.368 1566.22 175.839 1574.4 178.779 1579.81 180.697 1583.42 181.656 1585.22 181.656 1586.92 181.656 1588.25 181.209 1589.2 180.314 1590.16 179.419 1591.27 177.437 1592.55 174.368 1594.3 174.368 1596.05 174.368 1597.8 174.368 1597.8 194.315 1597.8 214.261 1597.8 234.207 1596.05 234.207 1594.3 234.207 1592.55 234.207 1588.51 215.412 1583.34 202.626 1577.02 195.849 1570.71 189.072 1562.67 185.684 1552.9 185.684 1545.47 185.684 1539.48 188.049 1534.91 192.78 1530.35 197.511 1528.07 202.753 1528.07 208.507 1528.07 215.667 1529.76 221.805 1533.16 226.919 1536.45 232.162 1543.14 237.724 1553.22 243.605 1560.97 248.144 1568.72 252.683 1576.47 257.222 1598.01 269.881 1608.79 286.566 1608.79 307.28 1608.79 323.263 1603.77 336.145 1593.74 345.926 1583.71 355.707 1572.49 360.598 1560.07 360.598 1551.15 360.598 1540.96 358.68 1529.5 354.844 1526 353.566 1523.13 352.926 1520.9 352.926 1518.46 352.926 1516.55 354.589 1515.17 357.913 1513.42 357.913 1511.67 357.913 1509.92 357.913 1509.92 337.008 1509.92 316.102 1509.92 295.197 1511.67 295.197 1513.42 295.197 1515.17 295.197 1518.14 313.098 1523.82 326.587 1532.21 335.665 1540.59 344.743 1549.98 349.282 1560.39 349.282 1567.71 349.282 1573.68 346.693 1578.3 341.515 1582.91 336.336 1585.22 330.103 1585.22 322.815 1585.22 313.993 1582.65 306.577 1577.5 300.567 1572.35 294.558 1562.08 286.95 1546.69 277.744 1531.3 268.538 1521.22 260.227 1516.44 252.811 1511.67 245.523 1509.28 236.317 1509.28 225.193 1509.28 210.745 1513.39 198.662 1521.62 188.944 1529.84 179.227 1540.48 174.368 1553.54 174.368ZM1456.28 174.368C1458.61 174.368 1460.95 174.368 1463.28 174.368 1463.28 221.421 1463.28 268.474 1463.28 315.527 1463.28 326.523 1463.95 333.843 1465.27 337.487 1466.6 341.131 1468.56 343.848 1471.17 345.638 1473.77 347.428 1478.52 348.323 1485.41 348.323 1485.41 350.625 1485.41 352.926 1485.41 355.228 1461.8 355.228 1438.18 355.228 1414.57 355.228 1414.57 352.926 1414.57 350.625 1414.57 348.323 1421.68 348.323 1426.45 347.492 1428.89 345.83 1431.34 344.168 1433.27 341.419 1434.71 337.583 1436.14 333.747 1436.85 326.395 1436.85 315.527 1436.85 292.96 1436.85 270.392 1436.85 247.825 1436.85 228.773 1436.38 216.435 1435.42 210.809 1434.68 206.717 1433.51 203.872 1431.92 202.274 1430.33 200.676 1428.15 199.877 1425.39 199.877 1422.42 199.877 1418.81 200.836 1414.57 202.753 1413.82 200.452 1413.08 198.15 1412.34 195.849 1426.98 188.689 1441.63 181.529 1456.28 174.368ZM1336.16 174.368C1341.89 174.368 1348.85 175.839 1357.02 178.779 1362.43 180.697 1366.04 181.656 1367.85 181.656 1369.54 181.656 1370.87 181.209 1371.83 180.314 1372.78 179.419 1373.9 177.437 1375.17 174.368 1376.92 174.368 1378.67 174.368 1380.42 174.368 1380.42 194.315 1380.42 214.261 1380.42 234.207 1378.67 234.207 1376.92 234.207 1375.17 234.207 1371.14 215.412 1365.96 202.626 1359.65 195.849 1353.33 189.072 1345.29 185.684 1335.53 185.684 1328.1 185.684 1322.1 188.049 1317.53 192.78 1312.97 197.511 1310.69 202.753 1310.69 208.507 1310.69 215.667 1312.39 221.805 1315.78 226.919 1319.07 232.162 1325.76 237.724 1335.84 243.605 1343.59 248.144 1351.34 252.683 1359.09 257.222 1380.64 269.881 1391.41 286.566 1391.41 307.28 1391.41 323.263 1386.39 336.145 1376.36 345.926 1366.33 355.707 1355.11 360.598 1342.69 360.598 1333.77 360.598 1323.58 358.68 1312.12 354.844 1308.62 353.566 1305.75 352.926 1303.52 352.926 1301.08 352.926 1299.17 354.589 1297.79 357.913 1296.04 357.913 1294.29 357.913 1292.54 357.913 1292.54 337.008 1292.54 316.102 1292.54 295.197 1294.29 295.197 1296.04 295.197 1297.79 295.197 1300.76 313.098 1306.44 326.587 1314.83 335.665 1323.21 344.743 1332.61 349.282 1343.01 349.282 1350.33 349.282 1356.3 346.693 1360.92 341.515 1365.54 336.336 1367.85 330.103 1367.85 322.815 1367.85 313.993 1365.27 306.577 1360.12 300.567 1354.98 294.558 1344.71 286.95 1329.32 277.744 1313.93 268.538 1303.84 260.227 1299.07 252.811 1294.29 245.523 1291.9 236.317 1291.9 225.193 1291.9 210.745 1296.01 198.662 1304.24 188.944 1312.47 179.227 1323.11 174.368 1336.16 174.368ZM1047.63 174.368C1061.54 174.368 1073.59 178.46 1083.78 186.643 1094.07 186.643 1104.37 186.643 1114.66 186.643 1119.23 186.643 1121.88 186.803 1122.62 187.122 1123.37 187.442 1123.9 187.986 1124.22 188.753 1124.85 189.903 1125.17 191.949 1125.17 194.89 1125.17 198.214 1124.91 200.516 1124.37 201.795 1124.06 202.434 1123.5 202.945 1122.7 203.329 1121.91 203.712 1119.23 203.904 1114.66 203.904 1108.35 203.904 1102.03 203.904 1095.72 203.904 1101.66 213.11 1104.63 224.873 1104.63 239.194 1104.63 255.56 1099.43 269.561 1089.03 281.196 1078.63 292.832 1064.67 298.649 1047.16 298.649 1039.94 298.649 1032.56 297.371 1025.03 294.814 1020.36 299.672 1017.2 303.924 1015.55 307.568 1013.91 311.212 1013.09 314.312 1013.09 316.87 1013.09 319.043 1013.96 321.153 1015.71 323.199 1017.46 325.245 1020.89 326.715 1025.98 327.61 1028.95 328.121 1036.38 328.569 1048.27 328.952 1070.14 329.592 1084.31 330.487 1090.78 331.638 1100.65 333.3 1108.53 337.711 1114.42 344.871 1120.31 352.031 1123.26 360.854 1123.26 371.338 1123.26 385.787 1117.63 399.34 1106.38 411.998 1089.83 430.666 1068.23 440 1041.58 440 1021.1 440 1003.8 434.438 989.681 423.314 981.72 416.921 977.74 410.272 977.74 403.368 977.74 400.299 978.324 397.23 979.491 394.162 981.296 389.431 985.011 382.846 990.636 374.407 991.379 373.256 996.792 366.352 1006.88 353.694 1001.36 349.73 997.456 346.182 995.174 343.049 992.892 339.917 991.751 336.368 991.751 332.405 991.751 327.93 993.263 322.687 996.288 316.678 999.313 310.668 1006.29 302.166 1017.22 291.169 1008.31 285.927 1001.46 278.607 996.686 269.209 991.91 259.812 989.522 249.423 989.522 238.043 989.522 220.654 994.961 205.694 1005.84 193.164 1016.72 180.633 1030.65 174.368 1047.63 174.368ZM2858.96 174.176C2875.3 174.176 2888.73 180.665 2899.24 193.643 2909.75 206.621 2915 223.978 2915 245.715 2881.41 245.715 2847.81 245.715 2814.22 245.715 2814.11 271.799 2819.37 292.256 2829.98 307.088 2840.59 321.92 2853.07 329.336 2867.4 329.336 2876.95 329.336 2885.25 326.172 2892.31 319.842 2899.37 313.513 2905.29 302.677 2910.06 287.334 2911.71 288.612 2913.35 289.891 2915 291.169 2912.77 308.686 2906.3 324.637 2895.58 339.022 2884.86 353.406 2871.43 360.598 2855.3 360.598 2837.78 360.598 2822.79 352.383 2810.32 335.953 2797.85 319.523 2791.61 297.435 2791.61 269.689 2791.61 239.641 2798 216.211 2810.8 199.397 2823.59 182.583 2839.64 174.176 2858.96 174.176ZM1944.16 174.176C1960.5 174.176 1973.93 180.665 1984.44 193.643 1994.95 206.621 2000.2 223.978 2000.2 245.715 1966.61 245.715 1933.01 245.715 1899.42 245.715 1899.31 271.799 1904.57 292.256 1915.18 307.088 1925.8 321.92 1938.27 329.336 1952.6 329.336 1962.15 329.336 1970.45 326.172 1977.51 319.842 1984.57 313.513 1990.49 302.677 1995.27 287.334 1996.91 288.612 1998.56 289.891 2000.2 291.169 1997.97 308.686 1991.5 324.637 1980.78 339.022 1970.06 353.406 1956.63 360.598 1940.5 360.598 1922.98 360.598 1907.99 352.383 1895.52 335.953 1883.05 319.523 1876.81 297.435 1876.81 269.689 1876.81 239.641 1883.21 216.211 1896 199.397 1908.79 182.583 1924.84 174.176 1944.16 174.176ZM1210.51 174.176C1226.85 174.176 1240.28 180.665 1250.79 193.643 1261.3 206.621 1266.55 223.978 1266.55 245.715 1232.96 245.715 1199.36 245.715 1165.77 245.715 1165.66 271.799 1170.92 292.256 1181.53 307.088 1192.15 321.92 1204.62 329.336 1218.95 329.336 1228.5 329.336 1236.8 326.172 1243.86 319.842 1250.92 313.513 1256.84 302.677 1261.62 287.334 1263.26 288.612 1264.91 289.891 1266.55 291.169 1264.32 308.686 1257.85 324.637 1247.13 339.022 1236.41 353.406 1222.98 360.598 1206.85 360.598 1189.33 360.598 1174.34 352.383 1161.87 335.953 1149.4 319.523 1143.16 297.435 1143.16 269.689 1143.16 239.641 1149.56 216.211 1162.35 199.397 1175.14 182.583 1191.19 174.176 1210.51 174.176ZM902.556 174.176C918.902 174.176 932.329 180.665 942.837 193.643 953.345 206.621 958.599 223.978 958.599 245.715 925.005 245.715 891.412 245.715 857.818 245.715 857.712 271.799 862.966 292.256 873.58 307.088 884.194 321.92 896.665 329.336 910.995 329.336 920.547 329.336 928.853 326.172 935.911 319.842 942.97 313.513 948.887 302.677 953.664 287.334 955.309 288.612 956.954 289.891 958.599 291.169 956.37 308.686 949.896 324.637 939.175 339.022 928.455 353.406 915.028 360.598 898.894 360.598 881.381 360.598 866.389 352.383 853.917 335.953 841.445 319.523 835.21 297.435 835.21 269.689 835.21 239.641 841.605 216.211 854.395 199.397 867.185 182.583 883.239 174.176 902.556 174.176ZM2269.45 110.693C2264.03 110.693 2257.08 111.908 2248.59 114.337 2248.59 150.394 2248.59 186.451 2248.59 222.508 2254.22 223.787 2259.2 224.746 2263.56 225.385 2267.91 226.024 2271.62 226.344 2274.7 226.344 2285.74 226.344 2295.27 221.197 2303.28 210.905 2311.29 200.612 2315.3 187.282 2315.3 170.916 2315.3 159.664 2313.39 149.212 2309.57 139.558 2305.75 129.905 2300.33 122.68 2293.33 117.886 2286.32 113.091 2278.36 110.693 2269.45 110.693ZM2187.13 95.1582C2213.51 95.1582 2239.89 95.1582 2266.26 95.1582 2285.58 95.1582 2300.81 97.5556 2311.96 102.35 2323.1 107.145 2332.5 115.232 2340.14 126.612 2347.78 137.992 2351.6 151.481 2351.6 167.08 2351.6 188.305 2345.79 205.566 2334.17 218.864 2322.54 232.162 2306.12 238.81 2284.89 238.81 2279.69 238.81 2274.06 238.363 2268.01 237.468 2261.96 236.573 2255.49 235.23 2248.59 233.44 2248.59 258.693 2248.59 283.945 2248.59 309.198 2248.59 325.564 2250.08 335.729 2253.05 339.693 2257.08 345.319 2263.18 348.132 2271.36 348.132 2274.12 348.132 2276.88 348.132 2279.64 348.132 2279.64 350.497 2279.64 352.863 2279.64 355.228 2248.8 355.228 2217.97 355.228 2187.13 355.228 2187.13 352.863 2187.13 350.497 2187.13 348.132 2189.84 348.132 2192.55 348.132 2195.25 348.132 2204.38 348.132 2210.91 344.552 2214.84 337.391 2216.96 333.428 2218.02 324.03 2218.02 309.198 2218.02 253.195 2218.02 197.192 2218.02 141.188 2218.02 124.822 2216.59 114.657 2213.72 110.693 2209.58 105.068 2203.43 102.255 2195.25 102.255 2192.55 102.255 2189.84 102.255 2187.13 102.255 2187.13 99.8891 2187.13 97.5237 2187.13 95.1582ZM467.5 95.1582C522.959 95.1582 578.418 95.1582 633.877 95.1582 634.673 114.146 635.469 133.133 636.265 152.12 634.195 152.12 632.125 152.12 630.056 152.12 627.827 138.439 625.359 129.041 622.652 123.927 619.946 118.813 615.939 114.913 610.632 112.228 606.386 110.31 598.903 109.351 588.183 109.351 568.441 109.351 548.698 109.351 528.956 109.351 528.956 143.618 528.956 177.884 528.956 212.151 544.771 212.151 560.586 212.151 576.401 212.151 588.714 212.151 596.94 209.914 601.079 205.439 606.598 199.557 609.677 189.2 610.313 174.368 612.277 174.368 614.241 174.368 616.204 174.368 616.204 204.544 616.204 234.719 616.204 264.894 614.241 264.894 612.277 264.894 610.313 264.894 608.827 252.236 607.341 244.117 605.855 240.536 603.945 236.061 600.814 232.545 596.462 229.988 592.11 227.431 585.423 226.152 576.401 226.152 560.586 226.152 544.771 226.152 528.956 226.152 528.956 254.729 528.956 283.306 528.956 311.883 528.956 323.391 529.38 330.391 530.23 332.884 531.079 335.378 532.565 337.359 534.688 338.83 536.81 340.3 540.844 341.035 546.788 341.035 558.994 341.035 571.2 341.035 583.406 341.035 595.613 341.035 604.476 340.012 609.995 337.967 615.514 335.921 620.821 331.893 625.916 325.884 632.497 317.956 639.237 306.001 646.136 290.019 648.259 290.019 650.382 290.019 652.505 290.019 646.295 311.755 640.086 333.492 633.877 355.228 578.418 355.228 522.959 355.228 467.5 355.228 467.5 352.863 467.5 350.497 467.5 348.132 470.047 348.132 472.595 348.132 475.142 348.132 480.237 348.132 485.066 346.661 489.63 343.72 493.027 341.675 495.336 338.606 496.556 334.514 497.777 330.423 498.387 322.048 498.387 309.39 498.387 253.067 498.387 196.744 498.387 140.421 498.387 123.927 497.007 113.762 494.248 109.926 490.427 104.812 484.058 102.255 475.142 102.255 472.595 102.255 470.047 102.255 467.5 102.255 467.5 99.8891 467.5 97.5237 467.5 95.1582ZM898.099 88.6374C909.986 88.6374 921.874 88.6374 933.762 88.6374 918.106 110.693 902.45 132.749 886.794 154.806 884.99 154.806 883.185 154.806 881.381 154.806 886.954 132.749 892.526 110.693 898.099 88.6374ZM2640.09 82.5C2642.48 82.5 2644.87 82.5 2647.26 82.5 2647.26 150.203 2647.26 217.905 2647.26 285.608 2647.26 306.193 2647.66 318.756 2648.45 323.295 2649.25 327.834 2650.52 330.998 2652.27 332.788 2654.02 334.578 2656.07 335.473 2658.4 335.473 2661.27 335.473 2665.09 334.387 2669.87 332.213 2670.45 334.451 2671.03 336.688 2671.62 338.926 2657.18 346.15 2642.75 353.374 2628.31 360.598 2625.87 360.598 2623.43 360.598 2620.99 360.598 2620.99 352.223 2620.99 343.848 2620.99 335.473 2613.88 344.424 2606.92 350.849 2600.13 354.749 2593.34 358.648 2586.01 360.598 2578.16 360.598 2562.24 360.598 2548.33 352.575 2536.45 336.528 2524.56 320.482 2518.61 299.864 2518.61 274.675 2518.61 249.487 2525.19 226.44 2538.36 205.534 2551.52 184.629 2568.45 174.176 2589.15 174.176 2601.99 174.176 2612.6 179.099 2620.99 188.944 2620.99 178.14 2620.99 167.336 2620.99 156.532 2620.99 136.457 2620.59 124.119 2619.79 119.516 2619 114.913 2617.75 111.78 2616.05 110.118 2614.35 108.456 2612.23 107.625 2609.68 107.625 2606.92 107.625 2603.26 108.648 2598.7 110.693 2598.01 108.456 2597.32 106.218 2596.63 103.981 2611.12 96.8204 2625.6 89.6602 2640.09 82.5ZM2062.81 82.5C2065.2 82.5 2067.58 82.5 2069.97 82.5 2069.97 160.176 2069.97 237.851 2069.97 315.527 2069.97 326.523 2070.63 333.811 2071.96 337.391 2073.29 340.971 2075.33 343.688 2078.09 345.542 2080.85 347.396 2086 348.323 2093.53 348.323 2093.53 350.625 2093.53 352.926 2093.53 355.228 2069.71 355.228 2045.88 355.228 2022.05 355.228 2022.05 352.926 2022.05 350.625 2022.05 348.323 2028.74 348.323 2033.3 347.492 2035.74 345.83 2038.18 344.168 2040.09 341.419 2041.47 337.583 2042.85 333.747 2043.54 326.395 2043.54 315.527 2043.54 262.337 2043.54 209.147 2043.54 155.956 2043.54 136.138 2043.17 123.959 2042.43 119.42 2041.68 114.881 2040.49 111.78 2038.85 110.118 2037.2 108.456 2035.1 107.625 2032.56 107.625 2029.8 107.625 2026.29 108.648 2022.05 110.693 2021.15 108.456 2020.24 106.218 2019.34 103.981 2033.83 96.8204 2048.32 89.6602 2062.81 82.5ZM1833.98 82.5C1836.37 82.5 1838.76 82.5 1841.15 82.5 1841.15 150.203 1841.15 217.905 1841.15 285.608 1841.15 306.193 1841.55 318.756 1842.34 323.295 1843.14 327.834 1844.41 330.998 1846.16 332.788 1847.91 334.578 1849.96 335.473 1852.29 335.473 1855.16 335.473 1858.98 334.387 1863.76 332.213 1864.34 334.451 1864.92 336.688 1865.51 338.926 1851.07 346.15 1836.64 353.374 1822.2 360.598 1819.76 360.598 1817.32 360.598 1814.88 360.598 1814.88 352.223 1814.88 343.848 1814.88 335.473 1807.77 344.424 1800.81 350.849 1794.02 354.749 1787.23 358.648 1779.9 360.598 1772.05 360.598 1756.13 360.598 1742.22 352.575 1730.34 336.528 1718.45 320.482 1712.5 299.864 1712.5 274.675 1712.5 249.487 1719.09 226.44 1732.25 205.534 1745.41 184.629 1762.34 174.176 1783.04 174.176 1795.88 174.176 1806.49 179.099 1814.88 188.944 1814.88 178.14 1814.88 167.336 1814.88 156.532 1814.88 136.457 1814.48 124.119 1813.68 119.516 1812.89 114.913 1811.64 111.78 1809.94 110.118 1808.24 108.456 1806.12 107.625 1803.57 107.625 1800.81 107.625 1797.15 108.648 1792.59 110.693 1791.9 108.456 1791.21 106.218 1790.52 103.981 1805.01 96.8204 1819.5 89.6602 1833.98 82.5ZM1450.07 82.5C1454.53 82.5 1458.32 84.386 1461.45 88.1579 1464.58 91.9298 1466.15 96.5008 1466.15 101.871 1466.15 107.241 1464.58 111.844 1461.45 115.68 1458.32 119.516 1454.53 121.434 1450.07 121.434 1445.61 121.434 1441.79 119.516 1438.61 115.68 1435.42 111.844 1433.83 107.241 1433.83 101.871 1433.83 96.5008 1435.4 91.9298 1438.53 88.1579 1441.66 84.386 1445.51 82.5 1450.07 82.5Z" fill="#FFFF00" fill-rule="evenodd" fill-opacity="1"/><text fill="#000000" fill-opacity="0" font-family="Arial,Arial_MSFontService,sans-serif" font-size="357.5" direction="ltr" writing-mode="lr-tb" x="467.5" y="395.312">Exégesis del Padre</text></g></svg>