<svg width="2182" height="220" xmlns="http://www.w3.org/2000/svg" xmlns:xlink="http://www.w3.org/1999/xlink" xml:space="preserve" overflow="hidden"><defs><filter id="fx0" x="-10%" y="-10%" width="120%" height="120%" filterUnits="userSpaceOnUse" primitiveUnits="userSpaceOnUse"><feComponentTransfer color-interpolation-filters="sRGB"><feFuncR type="discrete" tableValues="0.000000 0.000000"/><feFuncG type="discrete" tableValues="0.000000 0.000000"/><feFuncB type="discrete" tableValues="0.000000 0.000000"/><feFuncA type="linear" slope="0.400000" intercept="0.000000"/></feComponentTransfer><feGaussianBlur stdDeviation="2.824232 2.824232"/></filter><clipPath id="clip1"><rect x="288" y="2232" width="2182" height="220"/></clipPath><clipPath id="clip2"><rect x="1.65009" y="1.09644" width="2179.12" height="130.832"/></clipPath><clipPath id="clip3"><rect x="0" y="0" width="2182" height="133"/></clipPath></defs><g clip-path="url(#clip1)" transform="translate(-288 -2232)"><g clip-path="url(#clip2)" filter="url(#fx0)" transform="translate(288 2279)"><g clip-path="url(#clip3)"><path d="M713.395 82.4829C710.811 83.3442 706.719 84.3731 701.121 85.5693 695.522 86.7656 691.862 87.938 690.139 89.0864 687.507 90.9526 686.191 93.3213 686.191 96.1924 686.191 99.0156 687.244 101.456 689.349 103.514 691.455 105.571 694.135 106.6 697.388 106.6 701.025 106.6 704.494 105.404 707.796 103.011 710.237 101.193 711.84 98.9678 712.605 96.3359 713.132 94.6133 713.395 91.3354 713.395 86.5024ZM1162.04 57.5762C1156.78 57.5762 1152.35 59.5859 1148.76 63.6055 1145.18 67.625 1143.38 73.415 1143.38 80.9756 1143.38 88.5361 1145.18 94.3262 1148.76 98.3457 1152.35 102.365 1156.78 104.375 1162.04 104.375 1167.31 104.375 1171.72 102.365 1175.29 98.3457 1178.85 94.3262 1180.63 88.4883 1180.63 80.832 1180.63 73.3672 1178.85 67.625 1175.29 63.6055 1171.72 59.5859 1167.31 57.5762 1162.04 57.5762ZM575.95 57.5762C570.686 57.5762 566.26 59.5859 562.671 63.6055 559.082 67.625 557.288 73.415 557.288 80.9756 557.288 88.5361 559.082 94.3262 562.671 98.3457 566.26 102.365 570.686 104.375 575.95 104.375 581.213 104.375 585.628 102.365 589.193 98.3457 592.757 94.3262 594.54 88.4883 594.54 80.832 594.54 73.3672 592.757 67.625 589.193 63.6055 585.628 59.5859 581.213 57.5762 575.95 57.5762ZM2134.49 56.5713C2130.09 56.5713 2126.45 58.1743 2123.58 61.3804 2120.71 64.5864 2119.29 68.9409 2119.34 74.4438L2149.49 74.4438C2149.35 68.606 2147.84 64.1677 2144.97 61.1292 2142.1 58.0906 2138.6 56.5713 2134.49 56.5713ZM1947.14 56.5713C1942.74 56.5713 1939.1 58.1743 1936.23 61.3804 1933.36 64.5864 1931.95 68.9409 1932 74.4438L1962.15 74.4438C1962 68.606 1960.49 64.1677 1957.62 61.1292 1954.75 58.0906 1951.26 56.5713 1947.14 56.5713ZM1287.72 56.5713C1283.31 56.5713 1279.68 58.1743 1276.81 61.3804 1273.94 64.5864 1272.52 68.9409 1272.57 74.4438L1302.72 74.4438C1302.57 68.606 1301.07 64.1677 1298.2 61.1292 1295.33 58.0906 1291.83 56.5713 1287.72 56.5713ZM484.852 56.5713C480.067 56.5713 476.059 58.4734 472.829 62.2776 469.599 66.0818 467.984 71.7642 467.984 79.3247 467.984 87.4595 469.109 93.3452 471.358 96.9819 474.612 102.246 479.158 104.877 484.996 104.877 489.637 104.877 493.585 102.904 496.839 98.9558 500.093 95.0081 501.72 89.1104 501.72 81.2627 501.72 72.5059 500.141 66.2014 496.982 62.3494 493.824 58.4973 489.781 56.5713 484.852 56.5713ZM1827.05 42.8618 1847.22 42.8618 1847.22 77.8892C1847.22 88.6079 1847.59 95.1755 1848.33 97.592 1849.07 100.009 1850.42 101.923 1852.39 103.334 1854.35 104.746 1856.84 105.452 1859.85 105.452 1863.3 105.452 1866.38 104.507 1869.11 102.616 1871.84 100.726 1873.7 98.3816 1874.71 95.5823 1875.71 92.783 1876.22 85.9282 1876.22 75.0181L1876.22 42.8618 1896.39 42.8618 1896.39 119.089 1877.65 119.089 1877.65 107.677C1874.88 111.744 1871.23 114.95 1866.71 117.295 1862.18 119.64 1857.41 120.812 1852.39 120.812 1847.27 120.812 1842.67 119.688 1838.6 117.438 1834.54 115.189 1831.59 112.031 1829.78 107.964 1827.96 103.896 1827.05 98.2739 1827.05 91.0962ZM1566.37 42.8618 1586.54 42.8618 1586.54 77.8892C1586.54 88.6079 1586.91 95.1755 1587.65 97.592 1588.39 100.009 1589.75 101.923 1591.71 103.334 1593.67 104.746 1596.16 105.452 1599.17 105.452 1602.62 105.452 1605.71 104.507 1608.43 102.616 1611.16 100.726 1613.03 98.3816 1614.03 95.5823 1615.04 92.783 1615.54 85.9282 1615.54 75.0181L1615.54 42.8618 1635.71 42.8618 1635.71 119.089 1616.97 119.089 1616.97 107.677C1614.2 111.744 1610.55 114.95 1606.03 117.295 1601.51 119.64 1596.73 120.812 1591.71 120.812 1586.59 120.812 1581.99 119.688 1577.93 117.438 1573.86 115.189 1570.92 112.031 1569.1 107.964 1567.28 103.896 1566.37 98.2739 1566.37 91.0962ZM956.646 42.8618 976.815 42.8618 976.815 119.089 956.646 119.089ZM411.229 42.8618 431.399 42.8618 431.399 119.089 411.229 119.089ZM232.049 42.8618 252.218 42.8618 252.218 77.8892C252.218 88.6079 252.589 95.1755 253.33 97.592 254.072 100.009 255.424 101.923 257.386 103.334 259.348 104.746 261.836 105.452 264.851 105.452 268.296 105.452 271.382 104.507 274.11 102.616 276.838 100.726 278.704 98.3816 279.709 95.5823 280.714 92.783 281.216 85.9282 281.216 75.0181L281.216 42.8618 301.385 42.8618 301.385 119.089 282.652 119.089 282.652 107.677C279.876 111.744 276.227 114.95 271.705 117.295 267.184 119.64 262.41 120.812 257.386 120.812 252.266 120.812 247.672 119.688 243.605 117.438 239.537 115.189 236.594 112.031 234.776 107.964 232.958 103.896 232.049 98.2739 232.049 91.0962ZM2133.27 41.1392C2144.61 41.1392 2153.56 44.8836 2160.11 52.3723 2166.67 59.8611 2169.8 71.3335 2169.52 86.7896L2118.98 86.7896C2119.13 92.771 2120.75 97.4246 2123.86 100.75 2126.98 104.076 2130.85 105.739 2135.49 105.739 2138.65 105.739 2141.31 104.877 2143.46 103.155 2145.61 101.432 2147.24 98.6567 2148.34 94.8286L2168.44 98.2021C2165.85 105.571 2161.78 111.182 2156.2 115.034 2150.63 118.886 2143.65 120.812 2135.28 120.812 2122.02 120.812 2112.21 116.481 2105.85 107.82 2100.82 100.882 2098.31 92.125 2098.31 81.5498 2098.31 68.917 2101.61 59.0237 2108.22 51.8699 2114.82 44.7161 2123.17 41.1392 2133.27 41.1392ZM2033.45 41.1392C2038.04 41.1392 2042.47 42.4072 2046.73 44.9434L2040.49 62.5288C2037.09 60.3276 2033.93 59.2271 2031.01 59.2271 2028.19 59.2271 2025.79 60.0046 2023.83 61.5598 2021.87 63.115 2020.33 65.9263 2019.2 69.9937 2018.08 74.061 2017.52 82.5786 2017.52 95.5464L2017.52 119.089 1997.35 119.089 1997.35 42.8618 2016.08 42.8618 2016.08 53.7002C2019.29 48.5801 2022.17 45.2066 2024.73 43.5796 2027.29 41.9526 2030.2 41.1392 2033.45 41.1392ZM1945.92 41.1392C1957.26 41.1392 1966.21 44.8836 1972.77 52.3723 1979.32 59.8611 1982.46 71.3335 1982.17 86.7896L1931.64 86.7896C1931.78 92.771 1933.41 97.4246 1936.52 100.75 1939.63 104.076 1943.51 105.739 1948.15 105.739 1951.31 105.739 1953.96 104.877 1956.12 103.155 1958.27 101.432 1959.9 98.6567 1961 94.8286L1981.09 98.2021C1978.51 105.571 1974.43 111.182 1968.86 115.034 1963.28 118.886 1956.31 120.812 1947.93 120.812 1934.68 120.812 1924.87 116.481 1918.5 107.82 1913.48 100.882 1910.97 92.125 1910.97 81.5498 1910.97 68.917 1914.27 59.0237 1920.87 51.8699 1927.48 44.7161 1935.83 41.1392 1945.92 41.1392ZM1737.7 41.1392C1742.58 41.1392 1746.81 42.144 1750.4 44.1538 1753.99 46.1636 1756.93 49.2022 1759.23 53.2695 1762.58 49.2022 1766.19 46.1636 1770.07 44.1538 1773.94 42.144 1778.08 41.1392 1782.48 41.1392 1788.08 41.1392 1792.82 42.2756 1796.7 44.5486 1800.57 46.8215 1803.47 50.1592 1805.38 54.5615 1806.77 57.8154 1807.46 63.0791 1807.46 70.3525L1807.46 119.089 1787.29 119.089 1787.29 75.5205C1787.29 67.96 1786.6 63.0791 1785.21 60.8779 1783.35 58.0068 1780.47 56.5713 1776.6 56.5713 1773.78 56.5713 1771.12 57.4326 1768.63 59.1553 1766.14 60.8779 1764.35 63.4021 1763.25 66.7278 1762.15 70.0535 1761.6 75.3052 1761.6 82.4829L1761.6 119.089 1741.43 119.089 1741.43 77.3149C1741.43 69.8979 1741.07 65.1128 1740.35 62.9595 1739.63 60.8062 1738.52 59.2031 1737.01 58.1504 1735.51 57.0977 1733.46 56.5713 1730.88 56.5713 1727.77 56.5713 1724.97 57.4087 1722.48 59.0835 1719.99 60.7583 1718.21 63.1748 1717.13 66.333 1716.05 69.4912 1715.52 74.731 1715.52 82.0522L1715.52 119.089 1695.35 119.089 1695.35 42.8618 1713.94 42.8618 1713.94 53.2695C1720.59 45.1826 1728.51 41.1392 1737.7 41.1392ZM1382.49 41.1392C1386.94 41.1392 1391.01 41.9407 1394.7 43.5437 1398.38 45.1467 1401.17 47.1924 1403.06 49.6807 1404.95 52.169 1406.26 54.9922 1407.01 58.1504 1407.75 61.3086 1408.12 65.8306 1408.12 71.7163L1408.12 119.089 1387.95 119.089 1387.95 80.186C1387.95 71.9556 1387.52 66.6321 1386.66 64.2156 1385.8 61.7991 1384.4 59.9209 1382.46 58.5811 1380.52 57.2412 1378.19 56.5713 1375.46 56.5713 1371.97 56.5713 1368.83 57.5283 1366.06 59.4424 1363.28 61.3564 1361.38 63.8926 1360.35 67.0508 1359.32 70.209 1358.81 76.0469 1358.81 84.5645L1358.81 119.089 1338.64 119.089 1338.64 42.8618 1357.37 42.8618 1357.37 54.0591C1364.02 45.4458 1372.4 41.1392 1382.49 41.1392ZM1286.5 41.1392C1297.84 41.1392 1306.79 44.8836 1313.34 52.3723 1319.9 59.8611 1323.03 71.3335 1322.74 86.7896L1272.21 86.7896C1272.36 92.771 1273.98 97.4246 1277.09 100.75 1280.2 104.076 1284.08 105.739 1288.72 105.739 1291.88 105.739 1294.54 104.877 1296.69 103.155 1298.84 101.432 1300.47 98.6567 1301.57 94.8286L1321.67 98.2021C1319.08 105.571 1315 111.182 1309.43 115.034 1303.85 118.886 1296.88 120.812 1288.51 120.812 1275.25 120.812 1265.44 116.481 1259.08 107.82 1254.05 100.882 1251.54 92.125 1251.54 81.5498 1251.54 68.917 1254.84 59.0237 1261.45 51.8699 1268.05 44.7161 1276.4 41.1392 1286.5 41.1392ZM1161.97 41.1392C1173.5 41.1392 1182.95 44.8836 1190.32 52.3723 1197.69 59.8611 1201.38 69.3237 1201.38 80.7603 1201.38 92.2925 1197.66 101.851 1190.22 109.435 1182.78 117.02 1173.41 120.812 1162.12 120.812 1155.13 120.812 1148.47 119.233 1142.13 116.075 1135.78 112.917 1130.96 108.287 1127.66 102.186 1124.36 96.0847 1122.71 88.6558 1122.71 79.8989 1122.71 73.1997 1124.36 66.7158 1127.66 60.4473 1130.96 54.1787 1135.64 49.3936 1141.69 46.0918 1147.75 42.79 1154.51 41.1392 1161.97 41.1392ZM1025.1 41.1392C1035.53 41.1392 1043.28 42.8379 1048.36 46.2354 1053.43 49.6328 1056.92 54.6572 1058.84 61.3086L1039.81 64.8257C1039 61.8589 1037.46 59.5859 1035.19 58.0068 1032.91 56.4277 1029.67 55.6382 1025.46 55.6382 1020.15 55.6382 1016.34 56.3799 1014.05 57.8633 1012.52 58.916 1011.75 60.2798 1011.75 61.9546 1011.75 63.3901 1012.42 64.6104 1013.76 65.6152 1015.58 66.9551 1021.86 68.8452 1032.6 71.2856 1043.34 73.7261 1050.84 76.7168 1055.1 80.2578 1059.31 83.8467 1061.42 88.8472 1061.42 95.2593 1061.42 102.246 1058.5 108.251 1052.66 113.275 1046.83 118.3 1038.19 120.812 1026.75 120.812 1016.37 120.812 1008.15 118.707 1002.1 114.496 996.043 110.285 992.083 104.566 990.217 97.3408L1010.46 94.2544C1011.32 98.1782 1013.07 101.157 1015.7 103.191 1018.33 105.224 1022.01 106.241 1026.75 106.241 1031.97 106.241 1035.89 105.284 1038.52 103.37 1040.29 102.03 1041.18 100.236 1041.18 97.9868 1041.18 96.4556 1040.7 95.1875 1039.74 94.1826 1038.74 93.2256 1036.49 92.3403 1033 91.5269 1016.73 87.938 1006.41 84.6602 1002.06 81.6934 996.031 77.5781 993.016 71.8599 993.016 64.5386 993.016 57.9351 995.624 52.3843 1000.84 47.8862 1006.06 43.3882 1014.14 41.1392 1025.1 41.1392ZM934.597 41.1392C939.191 41.1392 943.617 42.4072 947.876 44.9434L941.631 62.5288C938.233 60.3276 935.075 59.2271 932.156 59.2271 929.333 59.2271 926.94 60.0046 924.979 61.5598 923.017 63.115 921.474 65.9263 920.349 69.9937 919.224 74.061 918.662 82.5786 918.662 95.5464L918.662 119.089 898.493 119.089 898.493 42.8618 917.227 42.8618 917.227 53.7002C920.433 48.5801 923.316 45.2066 925.876 43.5796 928.436 41.9526 931.343 41.1392 934.597 41.1392ZM701.121 41.1392C710.117 41.1392 716.816 42.2039 721.219 44.3333 725.621 46.4627 728.719 49.1663 730.514 52.4441 732.308 55.7219 733.205 61.7393 733.205 70.4961L732.99 94.0391C732.99 100.738 733.313 105.679 733.959 108.861 734.605 112.043 735.813 115.453 737.584 119.089L717.63 119.089C717.103 117.75 716.457 115.764 715.692 113.132 715.357 111.936 715.117 111.146 714.974 110.763 711.529 114.113 707.844 116.625 703.92 118.3 699.996 119.975 695.809 120.812 691.359 120.812 683.511 120.812 677.327 118.683 672.805 114.424 668.283 110.165 666.022 104.782 666.022 98.2739 666.022 93.9673 667.051 90.1272 669.108 86.7537 671.166 83.3801 674.049 80.7961 677.757 79.0017 681.466 77.2073 686.813 75.6401 693.8 74.3003 703.226 72.5298 709.758 70.8789 713.395 69.3477L713.395 67.3379C713.395 63.4619 712.438 60.6985 710.524 59.0476 708.61 57.3967 704.997 56.5713 699.685 56.5713 696.096 56.5713 693.297 57.2771 691.287 58.6887 689.278 60.1003 687.651 62.5767 686.406 66.1177L668.103 62.8159C670.161 55.4468 673.702 49.9917 678.726 46.4507 683.751 42.9097 691.216 41.1392 701.121 41.1392ZM575.878 41.1392C587.41 41.1392 596.861 44.8836 604.23 52.3723 611.599 59.8611 615.284 69.3237 615.284 80.7603 615.284 92.2925 611.563 101.851 604.122 109.435 596.681 117.02 587.314 120.812 576.021 120.812 569.035 120.812 562.372 119.233 556.031 116.075 549.691 112.917 544.87 108.287 541.568 102.186 538.267 96.0847 536.616 88.6558 536.616 79.8989 536.616 73.1997 538.267 66.7158 541.568 60.4473 544.87 54.1787 549.548 49.3936 555.601 46.0918 561.654 42.79 568.413 41.1392 575.878 41.1392ZM365.567 41.1392C370.017 41.1392 374.084 41.9407 377.769 43.5437 381.453 45.1467 384.241 47.1924 386.131 49.6807 388.021 52.169 389.337 54.9922 390.079 58.1504 390.82 61.3086 391.191 65.8306 391.191 71.7163L391.191 119.089 371.022 119.089 371.022 80.186C371.022 71.9556 370.591 66.6321 369.73 64.2156 368.868 61.7991 367.469 59.9209 365.531 58.5811 363.593 57.2412 361.26 56.5713 358.532 56.5713 355.039 56.5713 351.905 57.5283 349.13 59.4424 346.354 61.3564 344.452 63.8926 343.423 67.0508 342.394 70.209 341.88 76.0469 341.88 84.5645L341.88 119.089 321.711 119.089 321.711 42.8618 340.444 42.8618 340.444 54.0591C347.096 45.4458 355.47 41.1392 365.567 41.1392ZM138.226 41.1392C148.657 41.1392 156.409 42.8379 161.482 46.2354 166.554 49.6328 170.047 54.6572 171.961 61.3086L152.94 64.8257C152.127 61.8589 150.583 59.5859 148.31 58.0068 146.038 56.4277 142.796 55.6382 138.585 55.6382 133.273 55.6382 129.469 56.3799 127.172 57.8633 125.641 58.916 124.875 60.2798 124.875 61.9546 124.875 63.3901 125.545 64.6104 126.885 65.6152 128.703 66.9551 134.984 68.8452 145.727 71.2856 156.469 73.7261 163.97 76.7168 168.229 80.2578 172.44 83.8467 174.545 88.8472 174.545 95.2593 174.545 102.246 171.626 108.251 165.788 113.275 159.95 118.3 151.313 120.812 139.877 120.812 129.493 120.812 121.274 118.707 115.221 114.496 109.168 110.285 105.208 104.566 103.342 97.3408L123.583 94.2544C124.445 98.1782 126.191 101.157 128.823 103.191 131.455 105.224 135.139 106.241 139.877 106.241 145.092 106.241 149.016 105.284 151.648 103.37 153.419 102.03 154.304 100.236 154.304 97.9868 154.304 96.4556 153.825 95.1875 152.868 94.1826 151.863 93.2256 149.614 92.3403 146.121 91.5269 129.852 87.938 119.54 84.6602 115.185 81.6934 109.156 77.5781 106.141 71.8599 106.141 64.5386 106.141 57.9351 108.749 52.3843 113.965 47.8862 119.181 43.3882 127.268 41.1392 138.226 41.1392ZM2076.67 15.9453 2076.67 42.8618 2090.46 42.8618 2090.46 58.9399 2076.67 58.9399 2076.67 89.6606C2076.67 95.8813 2076.81 99.5061 2077.07 100.535 2077.33 101.564 2077.93 102.413 2078.86 103.083 2079.8 103.753 2080.93 104.088 2082.27 104.088 2084.14 104.088 2086.84 103.442 2090.38 102.15L2092.11 117.797C2087.42 119.807 2082.11 120.812 2076.17 120.812 2072.53 120.812 2069.26 120.202 2066.34 118.982 2063.42 117.761 2061.28 116.182 2059.91 114.244 2058.55 112.306 2057.61 109.687 2057.08 106.385 2056.65 104.04 2056.43 99.3027 2056.43 92.1729L2056.43 58.9399 2047.17 58.9399 2047.17 42.8618 2056.43 42.8618 2056.43 27.7168ZM1099.85 15.9453 1099.85 42.8618 1113.63 42.8618 1113.63 58.9399 1099.85 58.9399 1099.85 89.6606C1099.85 95.8813 1099.98 99.5061 1100.25 100.535 1100.51 101.564 1101.11 102.413 1102.04 103.083 1102.97 103.753 1104.11 104.088 1105.45 104.088 1107.32 104.088 1110.02 103.442 1113.56 102.15L1115.28 117.797C1110.59 119.807 1105.28 120.812 1099.35 120.812 1095.71 120.812 1092.43 120.202 1089.52 118.982 1086.6 117.761 1084.45 116.182 1083.09 114.244 1081.73 112.306 1080.78 109.687 1080.26 106.385 1079.83 104.04 1079.61 99.3027 1079.61 92.1729L1079.61 58.9399 1070.35 58.9399 1070.35 42.8618 1079.61 42.8618 1079.61 27.7168ZM956.646 13.8638 976.815 13.8638 976.815 32.5259 956.646 32.5259ZM501.648 13.8638 521.817 13.8638 521.817 119.089 503.083 119.089 503.083 107.892C499.973 112.247 496.3 115.489 492.066 117.618 487.831 119.747 483.56 120.812 479.253 120.812 470.497 120.812 462.996 117.283 456.751 110.225 450.507 103.167 447.384 93.3213 447.384 80.6885 447.384 67.7686 450.423 57.947 456.5 51.2239 462.577 44.5007 470.257 41.1392 479.54 41.1392 488.058 41.1392 495.427 44.6802 501.648 51.7622ZM411.229 13.8638 431.399 13.8638 431.399 32.5259 411.229 32.5259ZM12.6228 13.8638 90.6447 13.8638 90.6447 31.6646 33.8688 31.6646 33.8688 54.9922 86.697 54.9922 86.697 72.7212 33.8688 72.7212 33.8688 101.36 92.6545 101.36 92.6545 119.089 12.6228 119.089ZM1505.8 12.0693C1519.01 12.0693 1528.95 14.9644 1535.62 20.7544 1542.3 26.5444 1545.8 34.2725 1546.14 43.9385L1524.89 44.8716C1523.98 39.4644 1522.03 35.5764 1519.04 33.2078 1516.05 30.8391 1511.56 29.6548 1505.58 29.6548 1499.41 29.6548 1494.58 30.9229 1491.08 33.459 1488.84 35.0859 1487.71 37.2632 1487.71 39.9907 1487.71 42.479 1488.76 44.6084 1490.87 46.3789 1493.55 48.6279 1500.06 50.9727 1510.39 53.4131 1520.73 55.8535 1528.37 58.3777 1533.33 60.9856 1538.28 63.5935 1542.15 67.1584 1544.95 71.6804 1547.75 76.2024 1549.15 81.7891 1549.15 88.4404 1549.15 94.4697 1547.48 100.116 1544.13 105.38 1540.78 110.644 1536.04 114.555 1529.92 117.115 1523.79 119.676 1516.16 120.956 1507.02 120.956 1493.72 120.956 1483.5 117.881 1476.37 111.732 1469.24 105.583 1464.98 96.623 1463.59 84.8516L1484.27 82.8418C1485.51 89.7803 1488.03 94.8765 1491.84 98.1304 1495.64 101.384 1500.77 103.011 1507.23 103.011 1514.08 103.011 1519.23 101.564 1522.7 98.6687 1526.17 95.7737 1527.91 92.3882 1527.91 88.5122 1527.91 86.0239 1527.18 83.9065 1525.72 82.1599 1524.26 80.4133 1521.71 78.894 1518.07 77.6021 1515.58 76.7407 1509.91 75.2095 1501.06 73.0083 1489.67 70.1851 1481.68 66.7158 1477.09 62.6006 1470.63 56.8106 1467.4 49.7524 1467.4 41.4263 1467.4 36.0669 1468.92 31.0544 1471.96 26.3889 1474.99 21.7234 1479.37 18.1704 1485.09 15.73 1490.81 13.2896 1497.71 12.0693 1505.8 12.0693ZM839.015 12.0693C851.887 12.0693 862.343 15.8735 870.382 23.4819 875.167 27.98 878.756 34.44 881.148 42.8618L860.117 47.8862C858.873 42.4312 856.277 38.1245 852.33 34.9663 848.382 31.8081 843.585 30.229 837.938 30.229 830.138 30.229 823.81 33.0283 818.953 38.627 814.096 44.2256 811.668 53.2935 811.668 65.8306 811.668 79.1333 814.06 88.6079 818.845 94.2544 823.631 99.9009 829.851 102.724 837.508 102.724 843.154 102.724 848.011 100.93 852.078 97.3408 856.146 93.752 859.065 88.1055 860.835 80.4014L881.435 86.9331C878.277 98.4175 873.025 106.947 865.68 112.522 858.335 118.096 849.016 120.884 837.723 120.884 823.75 120.884 812.266 116.111 803.27 106.564 794.274 97.0178 789.776 83.9663 789.776 67.4097 789.776 49.896 794.298 36.2942 803.342 26.6043 812.386 16.9143 824.277 12.0693 839.015 12.0693Z" stroke="#054697" stroke-width="5" stroke-linecap="butt" stroke-linejoin="round" stroke-miterlimit="10" stroke-opacity="1" fill="#F4F1E3" fill-rule="evenodd" fill-opacity="1"/></g></g><path d="M997.705 2359.35C995.121 2360.21 991.029 2361.24 985.431 2362.44 979.832 2363.64 976.171 2364.81 974.449 2365.96 971.817 2367.82 970.501 2370.19 970.501 2373.06 970.501 2375.89 971.554 2378.33 973.659 2380.38 975.765 2382.44 978.444 2383.47 981.698 2383.47 985.335 2383.47 988.804 2382.27 992.106 2379.88 994.546 2378.06 996.149 2375.84 996.915 2373.21 997.441 2371.48 997.704 2368.2 997.705 2363.37ZM1446.35 2334.45C1441.09 2334.45 1436.66 2336.46 1433.07 2340.47 1429.49 2344.49 1427.69 2350.28 1427.69 2357.84 1427.69 2365.41 1429.49 2371.2 1433.07 2375.22 1436.66 2379.23 1441.09 2381.24 1446.35 2381.24 1451.62 2381.24 1456.03 2379.23 1459.6 2375.22 1463.16 2371.2 1464.94 2365.36 1464.94 2357.7 1464.94 2350.24 1463.16 2344.49 1459.6 2340.47 1456.03 2336.46 1451.62 2334.45 1446.35 2334.45ZM860.259 2334.45C854.996 2334.45 850.569 2336.46 846.981 2340.47 843.392 2344.49 841.597 2350.28 841.597 2357.84 841.597 2365.41 843.392 2371.2 846.981 2375.22 850.569 2379.23 854.996 2381.24 860.259 2381.24 865.523 2381.24 869.937 2379.23 873.502 2375.22 877.067 2371.2 878.85 2365.36 878.85 2357.7 878.85 2350.24 877.067 2344.49 873.502 2340.47 869.937 2336.46 865.523 2334.45 860.259 2334.45ZM2418.8 2333.44C2414.4 2333.44 2410.76 2335.04 2407.89 2338.25 2405.02 2341.46 2403.6 2345.81 2403.65 2351.31L2433.8 2351.31C2433.66 2345.48 2432.15 2341.04 2429.28 2338 2426.41 2334.96 2422.91 2333.44 2418.8 2333.44ZM2231.45 2333.44C2227.05 2333.44 2223.41 2335.04 2220.54 2338.25 2217.67 2341.46 2216.26 2345.81 2216.31 2351.31L2246.46 2351.31C2246.31 2345.48 2244.8 2341.04 2241.93 2338 2239.06 2334.96 2235.57 2333.44 2231.45 2333.44ZM1572.03 2333.44C1567.62 2333.44 1563.99 2335.04 1561.12 2338.25 1558.25 2341.46 1556.83 2345.81 1556.88 2351.31L1587.03 2351.31C1586.88 2345.48 1585.38 2341.04 1582.51 2338 1579.64 2334.96 1576.14 2333.44 1572.03 2333.44ZM769.162 2333.44C764.377 2333.44 760.369 2335.34 757.139 2339.15 753.909 2342.95 752.294 2348.63 752.294 2356.19 752.294 2364.33 753.419 2370.21 755.668 2373.85 758.922 2379.11 763.467 2381.75 769.305 2381.75 773.947 2381.75 777.895 2379.77 781.149 2375.83 784.402 2371.88 786.029 2365.98 786.029 2358.13 786.029 2349.38 784.45 2343.07 781.292 2339.22 778.134 2335.37 774.091 2333.44 769.162 2333.44ZM2111.36 2319.73 2131.53 2319.73 2131.53 2354.76C2131.53 2365.48 2131.9 2372.04 2132.64 2374.46 2133.38 2376.88 2134.73 2378.79 2136.7 2380.2 2138.66 2381.62 2141.15 2382.32 2144.16 2382.32 2147.61 2382.32 2150.69 2381.38 2153.42 2379.49 2156.15 2377.6 2158.01 2375.25 2159.02 2372.45 2160.02 2369.65 2160.53 2362.8 2160.53 2351.89L2160.53 2319.73 2180.7 2319.73 2180.7 2395.96 2161.96 2395.96 2161.96 2384.55C2159.19 2388.61 2155.54 2391.82 2151.02 2394.16 2146.49 2396.51 2141.72 2397.68 2136.7 2397.68 2131.58 2397.68 2126.98 2396.56 2122.91 2394.31 2118.85 2392.06 2115.9 2388.9 2114.09 2384.83 2112.27 2380.77 2111.36 2375.14 2111.36 2367.97ZM1850.68 2319.73 1870.85 2319.73 1870.85 2354.76C1870.85 2365.48 1871.22 2372.04 1871.96 2374.46 1872.7 2376.88 1874.06 2378.79 1876.02 2380.2 1877.98 2381.62 1880.47 2382.32 1883.48 2382.32 1886.93 2382.32 1890.02 2381.38 1892.74 2379.49 1895.47 2377.6 1897.34 2375.25 1898.34 2372.45 1899.35 2369.65 1899.85 2362.8 1899.85 2351.89L1899.85 2319.73 1920.02 2319.73 1920.02 2395.96 1901.28 2395.96 1901.28 2384.55C1898.51 2388.61 1894.86 2391.82 1890.34 2394.16 1885.82 2396.51 1881.04 2397.68 1876.02 2397.68 1870.9 2397.68 1866.3 2396.56 1862.24 2394.31 1858.17 2392.06 1855.23 2388.9 1853.41 2384.83 1851.59 2380.77 1850.68 2375.14 1850.68 2367.97ZM1240.96 2319.73 1261.12 2319.73 1261.12 2395.96 1240.96 2395.96ZM695.539 2319.73 715.708 2319.73 715.708 2395.96 695.539 2395.96ZM516.358 2319.73 536.528 2319.73 536.528 2354.76C536.528 2365.48 536.899 2372.04 537.64 2374.46 538.382 2376.88 539.734 2378.79 541.696 2380.2 543.658 2381.62 546.146 2382.32 549.161 2382.32 552.606 2382.32 555.692 2381.38 558.42 2379.49 561.147 2377.6 563.014 2375.25 564.018 2372.45 565.023 2369.65 565.526 2362.8 565.526 2351.89L565.526 2319.73 585.695 2319.73 585.695 2395.96 566.961 2395.96 566.961 2384.55C564.186 2388.61 560.537 2391.82 556.015 2394.16 551.493 2396.51 546.72 2397.68 541.696 2397.68 536.576 2397.68 531.982 2396.56 527.914 2394.31 523.847 2392.06 520.904 2388.9 519.086 2384.83 517.267 2380.77 516.358 2375.14 516.358 2367.97ZM2417.58 2318.01C2428.92 2318.01 2437.87 2321.75 2444.42 2329.24 2450.98 2336.73 2454.11 2348.2 2453.82 2363.66L2403.29 2363.66C2403.44 2369.64 2405.06 2374.29 2408.17 2377.62 2411.28 2380.95 2415.16 2382.61 2419.8 2382.61 2422.96 2382.61 2425.62 2381.75 2427.77 2380.02 2429.92 2378.3 2431.55 2375.53 2432.65 2371.7L2452.75 2375.07C2450.16 2382.44 2446.08 2388.05 2440.51 2391.9 2434.94 2395.76 2427.96 2397.68 2419.59 2397.68 2406.33 2397.68 2396.52 2393.35 2390.16 2384.69 2385.13 2377.75 2382.62 2368.99 2382.62 2358.42 2382.62 2345.79 2385.92 2335.89 2392.53 2328.74 2399.13 2321.59 2407.48 2318.01 2417.58 2318.01ZM2317.76 2318.01C2322.35 2318.01 2326.78 2319.28 2331.04 2321.81L2324.79 2339.4C2321.4 2337.2 2318.24 2336.1 2315.32 2336.1 2312.5 2336.1 2310.1 2336.87 2308.14 2338.43 2306.18 2339.98 2304.64 2342.8 2303.51 2346.86 2302.39 2350.93 2301.83 2359.45 2301.83 2372.42L2301.83 2395.96 2281.66 2395.96 2281.66 2319.73 2300.39 2319.73 2300.39 2330.57C2303.6 2325.45 2306.48 2322.08 2309.04 2320.45 2311.6 2318.82 2314.51 2318.01 2317.76 2318.01ZM2230.23 2318.01C2241.57 2318.01 2250.52 2321.75 2257.08 2329.24 2263.63 2336.73 2266.77 2348.2 2266.48 2363.66L2215.95 2363.66C2216.09 2369.64 2217.72 2374.29 2220.83 2377.62 2223.94 2380.95 2227.82 2382.61 2232.46 2382.61 2235.62 2382.61 2238.27 2381.75 2240.43 2380.02 2242.58 2378.3 2244.21 2375.53 2245.31 2371.7L2265.4 2375.07C2262.82 2382.44 2258.74 2388.05 2253.17 2391.9 2247.59 2395.76 2240.62 2397.68 2232.24 2397.68 2218.99 2397.68 2209.18 2393.35 2202.81 2384.69 2197.79 2377.75 2195.28 2368.99 2195.28 2358.42 2195.28 2345.79 2198.58 2335.89 2205.18 2328.74 2211.79 2321.59 2220.14 2318.01 2230.23 2318.01ZM2022.01 2318.01C2026.89 2318.01 2031.12 2319.01 2034.71 2321.02 2038.3 2323.03 2041.24 2326.07 2043.54 2330.14 2046.89 2326.07 2050.5 2323.03 2054.38 2321.02 2058.25 2319.01 2062.39 2318.01 2066.79 2318.01 2072.39 2318.01 2077.13 2319.15 2081.01 2321.42 2084.88 2323.69 2087.78 2327.03 2089.69 2331.43 2091.08 2334.68 2091.77 2339.95 2091.77 2347.22L2091.77 2395.96 2071.6 2395.96 2071.6 2352.39C2071.6 2344.83 2070.91 2339.95 2069.52 2337.75 2067.66 2334.88 2064.78 2333.44 2060.91 2333.44 2058.09 2333.44 2055.43 2334.3 2052.94 2336.02 2050.45 2337.75 2048.66 2340.27 2047.56 2343.6 2046.46 2346.92 2045.91 2352.17 2045.91 2359.35L2045.91 2395.96 2025.74 2395.96 2025.74 2354.18C2025.74 2346.77 2025.38 2341.98 2024.66 2339.83 2023.94 2337.68 2022.83 2336.07 2021.32 2335.02 2019.82 2333.97 2017.77 2333.44 2015.19 2333.44 2012.08 2333.44 2009.28 2334.28 2006.79 2335.95 2004.3 2337.63 2002.52 2340.04 2001.44 2343.2 2000.36 2346.36 1999.83 2351.6 1999.83 2358.92L1999.83 2395.96 1979.66 2395.96 1979.66 2319.73 1998.25 2319.73 1998.25 2330.14C2004.9 2322.05 2012.82 2318.01 2022.01 2318.01ZM1666.8 2318.01C1671.25 2318.01 1675.32 2318.81 1679.01 2320.41 1682.69 2322.02 1685.48 2324.06 1687.37 2326.55 1689.26 2329.04 1690.57 2331.86 1691.32 2335.02 1692.06 2338.18 1692.43 2342.7 1692.43 2348.59L1692.43 2395.96 1672.26 2395.96 1672.26 2357.06C1672.26 2348.82 1671.83 2343.5 1670.97 2341.08 1670.1 2338.67 1668.71 2336.79 1666.77 2335.45 1664.83 2334.11 1662.5 2333.44 1659.77 2333.44 1656.28 2333.44 1653.14 2334.4 1650.37 2336.31 1647.59 2338.23 1645.69 2340.76 1644.66 2343.92 1643.63 2347.08 1643.12 2352.92 1643.12 2361.43L1643.12 2395.96 1622.95 2395.96 1622.95 2319.73 1641.68 2319.73 1641.68 2330.93C1648.33 2322.32 1656.71 2318.01 1666.8 2318.01ZM1570.81 2318.01C1582.15 2318.01 1591.1 2321.75 1597.65 2329.24 1604.21 2336.73 1607.34 2348.2 1607.05 2363.66L1556.52 2363.66C1556.67 2369.64 1558.29 2374.29 1561.4 2377.62 1564.51 2380.95 1568.39 2382.61 1573.03 2382.61 1576.19 2382.61 1578.85 2381.75 1581 2380.02 1583.15 2378.3 1584.78 2375.53 1585.88 2371.7L1605.98 2375.07C1603.39 2382.44 1599.31 2388.05 1593.74 2391.9 1588.16 2395.76 1581.19 2397.68 1572.82 2397.68 1559.56 2397.68 1549.75 2393.35 1543.39 2384.69 1538.36 2377.75 1535.85 2368.99 1535.85 2358.42 1535.85 2345.79 1539.15 2335.89 1545.76 2328.74 1552.36 2321.59 1560.71 2318.01 1570.81 2318.01ZM1446.28 2318.01C1457.81 2318.01 1467.26 2321.75 1474.63 2329.24 1482 2336.73 1485.69 2346.19 1485.69 2357.63 1485.69 2369.16 1481.97 2378.72 1474.53 2386.3 1467.08 2393.89 1457.72 2397.68 1446.42 2397.68 1439.44 2397.68 1432.78 2396.1 1426.43 2392.94 1420.09 2389.79 1415.27 2385.16 1411.97 2379.06 1408.67 2372.95 1407.02 2365.53 1407.02 2356.77 1407.02 2350.07 1408.67 2343.59 1411.97 2337.32 1415.27 2331.05 1419.95 2326.26 1426 2322.96 1432.06 2319.66 1438.82 2318.01 1446.28 2318.01ZM1309.41 2318.01C1319.84 2318.01 1327.59 2319.71 1332.67 2323.1 1337.74 2326.5 1341.23 2331.53 1343.15 2338.18L1324.12 2341.7C1323.31 2338.73 1321.77 2336.46 1319.49 2334.88 1317.22 2333.3 1313.98 2332.51 1309.77 2332.51 1304.46 2332.51 1300.65 2333.25 1298.36 2334.73 1296.83 2335.79 1296.06 2337.15 1296.06 2338.82 1296.06 2340.26 1296.73 2341.48 1298.07 2342.48 1299.89 2343.82 1306.17 2345.71 1316.91 2348.16 1327.65 2350.6 1335.15 2353.59 1339.41 2357.13 1343.62 2360.72 1345.73 2365.72 1345.73 2372.13 1345.73 2379.11 1342.81 2385.12 1336.97 2390.14 1331.13 2395.17 1322.5 2397.68 1311.06 2397.68 1300.68 2397.68 1292.46 2395.58 1286.41 2391.36 1280.35 2387.15 1276.39 2381.44 1274.53 2374.21L1294.77 2371.12C1295.63 2375.05 1297.38 2378.03 1300.01 2380.06 1302.64 2382.09 1306.32 2383.11 1311.06 2383.11 1316.28 2383.11 1320.2 2382.15 1322.83 2380.24 1324.6 2378.9 1325.49 2377.11 1325.49 2374.86 1325.49 2373.32 1325.01 2372.06 1324.05 2371.05 1323.05 2370.09 1320.8 2369.21 1317.31 2368.4 1301.04 2364.81 1290.72 2361.53 1286.37 2358.56 1280.34 2354.45 1277.33 2348.73 1277.33 2341.41 1277.33 2334.8 1279.93 2329.25 1285.15 2324.76 1290.37 2320.26 1298.45 2318.01 1309.41 2318.01ZM1218.91 2318.01C1223.5 2318.01 1227.93 2319.28 1232.19 2321.81L1225.94 2339.4C1222.54 2337.2 1219.39 2336.1 1216.47 2336.1 1213.64 2336.1 1211.25 2336.87 1209.29 2338.43 1207.33 2339.98 1205.78 2342.8 1204.66 2346.86 1203.53 2350.93 1202.97 2359.45 1202.97 2372.42L1202.97 2395.96 1182.8 2395.96 1182.8 2319.73 1201.54 2319.73 1201.54 2330.57C1204.74 2325.45 1207.63 2322.08 1210.19 2320.45 1212.75 2318.82 1215.65 2318.01 1218.91 2318.01ZM985.431 2318.01C994.427 2318.01 1001.13 2319.07 1005.53 2321.2 1009.93 2323.33 1013.03 2326.04 1014.82 2329.31 1016.62 2332.59 1017.52 2338.61 1017.52 2347.37L1017.3 2370.91C1017.3 2377.61 1017.62 2382.55 1018.27 2385.73 1018.91 2388.91 1020.12 2392.32 1021.89 2395.96L1001.94 2395.96C1001.41 2394.62 1000.77 2392.63 1000 2390 999.667 2388.8 999.427 2388.02 999.284 2387.63 995.838 2390.98 992.154 2393.49 988.23 2395.17 984.306 2396.84 980.119 2397.68 975.669 2397.68 967.821 2397.68 961.636 2395.55 957.115 2391.29 952.592 2387.03 950.331 2381.65 950.332 2375.14 950.331 2370.84 951.36 2367 953.418 2363.62 955.476 2360.25 958.359 2357.67 962.067 2355.87 965.776 2354.08 971.123 2352.51 978.109 2351.17 987.536 2349.4 994.068 2347.75 997.705 2346.22L997.705 2344.21C997.704 2340.33 996.747 2337.57 994.833 2335.92 992.919 2334.27 989.307 2333.44 983.995 2333.44 980.406 2333.44 977.607 2334.15 975.597 2335.56 973.587 2336.97 971.96 2339.45 970.716 2342.99L952.413 2339.69C954.471 2332.32 958.012 2326.86 963.036 2323.32 968.06 2319.78 975.525 2318.01 985.431 2318.01ZM860.188 2318.01C871.72 2318.01 881.171 2321.75 888.54 2329.24 895.909 2336.73 899.593 2346.19 899.593 2357.63 899.593 2369.16 895.873 2378.72 888.432 2386.3 880.991 2393.89 871.624 2397.68 860.331 2397.68 853.345 2397.68 846.682 2396.1 840.341 2392.94 834.001 2389.79 829.18 2385.16 825.878 2379.06 822.576 2372.95 820.925 2365.53 820.925 2356.77 820.925 2350.07 822.576 2343.59 825.878 2337.32 829.18 2331.05 833.857 2326.26 839.911 2322.96 845.964 2319.66 852.723 2318.01 860.188 2318.01ZM649.876 2318.01C654.327 2318.01 658.394 2318.81 662.078 2320.41 665.763 2322.02 668.55 2324.06 670.441 2326.55 672.331 2329.04 673.647 2331.86 674.388 2335.02 675.13 2338.18 675.501 2342.7 675.501 2348.59L675.501 2395.96 655.331 2395.96 655.331 2357.06C655.331 2348.82 654.901 2343.5 654.039 2341.08 653.178 2338.67 651.778 2336.79 649.84 2335.45 647.902 2334.11 645.57 2333.44 642.842 2333.44 639.349 2333.44 636.215 2334.4 633.439 2336.31 630.664 2338.23 628.762 2340.76 627.733 2343.92 626.704 2347.08 626.19 2352.92 626.19 2361.43L626.19 2395.96 606.02 2395.96 606.02 2319.73 624.754 2319.73 624.754 2330.93C631.406 2322.32 639.78 2318.01 649.876 2318.01ZM422.536 2318.01C432.967 2318.01 440.719 2319.71 445.791 2323.1 450.864 2326.5 454.357 2331.53 456.271 2338.18L437.25 2341.7C436.436 2338.73 434.893 2336.46 432.62 2334.88 430.347 2333.3 427.105 2332.51 422.894 2332.51 417.583 2332.51 413.779 2333.25 411.482 2334.73 409.951 2335.79 409.185 2337.15 409.185 2338.82 409.185 2340.26 409.855 2341.48 411.195 2342.48 413.013 2343.82 419.294 2345.71 430.036 2348.16 440.779 2350.6 448.28 2353.59 452.538 2357.13 456.749 2360.72 458.855 2365.72 458.855 2372.13 458.855 2379.11 455.936 2385.12 450.098 2390.14 444.26 2395.17 435.623 2397.68 424.186 2397.68 413.803 2397.68 405.584 2395.58 399.531 2391.36 393.478 2387.15 389.518 2381.44 387.652 2374.21L407.893 2371.12C408.754 2375.05 410.501 2378.03 413.133 2380.06 415.765 2382.09 419.449 2383.11 424.186 2383.11 429.402 2383.11 433.326 2382.15 435.958 2380.24 437.728 2378.9 438.614 2377.11 438.614 2374.86 438.614 2373.32 438.135 2372.06 437.178 2371.05 436.173 2370.09 433.924 2369.21 430.431 2368.4 414.161 2364.81 403.849 2361.53 399.495 2358.56 393.466 2354.45 390.451 2348.73 390.451 2341.41 390.451 2334.8 393.059 2329.25 398.275 2324.76 403.491 2320.26 411.578 2318.01 422.536 2318.01ZM2360.98 2292.81 2360.98 2319.73 2374.77 2319.73 2374.77 2335.81 2360.98 2335.81 2360.98 2366.53C2360.98 2372.75 2361.12 2376.38 2361.38 2377.4 2361.64 2378.43 2362.24 2379.28 2363.17 2379.95 2364.11 2380.62 2365.24 2380.96 2366.58 2380.96 2368.45 2380.96 2371.15 2380.31 2374.69 2379.02L2376.42 2394.67C2371.73 2396.68 2366.42 2397.68 2360.48 2397.68 2356.84 2397.68 2353.57 2397.07 2350.65 2395.85 2347.73 2394.63 2345.59 2393.05 2344.22 2391.11 2342.86 2389.18 2341.92 2386.56 2341.39 2383.25 2340.96 2380.91 2340.74 2376.17 2340.74 2369.04L2340.74 2335.81 2331.48 2335.81 2331.48 2319.73 2340.74 2319.73 2340.74 2304.59ZM1384.16 2292.81 1384.16 2319.73 1397.94 2319.73 1397.94 2335.81 1384.16 2335.81 1384.16 2366.53C1384.16 2372.75 1384.29 2376.38 1384.56 2377.4 1384.82 2378.43 1385.42 2379.28 1386.35 2379.95 1387.28 2380.62 1388.42 2380.96 1389.76 2380.96 1391.63 2380.96 1394.33 2380.31 1397.87 2379.02L1399.59 2394.67C1394.9 2396.68 1389.59 2397.68 1383.66 2397.68 1380.02 2397.68 1376.74 2397.07 1373.83 2395.85 1370.91 2394.63 1368.76 2393.05 1367.4 2391.11 1366.04 2389.18 1365.09 2386.56 1364.57 2383.25 1364.14 2380.91 1363.92 2376.17 1363.92 2369.04L1363.92 2335.81 1354.66 2335.81 1354.66 2319.73 1363.92 2319.73 1363.92 2304.59ZM1240.96 2290.73 1261.12 2290.73 1261.12 2309.4 1240.96 2309.4ZM785.958 2290.73 806.127 2290.73 806.127 2395.96 787.393 2395.96 787.393 2384.76C784.283 2389.12 780.61 2392.36 776.375 2394.49 772.141 2396.62 767.87 2397.68 763.563 2397.68 754.806 2397.68 747.306 2394.15 741.061 2387.09 734.816 2380.04 731.694 2370.19 731.694 2357.56 731.694 2344.64 734.733 2334.82 740.81 2328.09 746.887 2321.37 754.567 2318.01 763.85 2318.01 772.368 2318.01 779.737 2321.55 785.958 2328.63ZM695.539 2290.73 715.708 2290.73 715.708 2309.4 695.539 2309.4ZM296.933 2290.73 374.954 2290.73 374.954 2308.53 318.179 2308.53 318.179 2331.86 371.007 2331.86 371.007 2349.59 318.179 2349.59 318.179 2378.23 376.964 2378.23 376.964 2395.96 296.933 2395.96ZM1790.11 2288.94C1803.32 2288.94 1813.26 2291.83 1819.93 2297.62 1826.61 2303.41 1830.11 2311.14 1830.45 2320.81L1809.2 2321.74C1808.29 2316.33 1806.34 2312.45 1803.35 2310.08 1800.36 2307.71 1795.87 2306.52 1789.89 2306.52 1783.72 2306.52 1778.89 2307.79 1775.39 2310.33 1773.14 2311.96 1772.02 2314.13 1772.02 2316.86 1772.02 2319.35 1773.07 2321.48 1775.18 2323.25 1777.86 2325.5 1784.37 2327.84 1794.7 2330.28 1805.04 2332.72 1812.68 2335.25 1817.63 2337.85 1822.59 2340.46 1826.46 2344.03 1829.26 2348.55 1832.06 2353.07 1833.46 2358.66 1833.46 2365.31 1833.46 2371.34 1831.79 2376.99 1828.44 2382.25 1825.09 2387.51 1820.35 2391.42 1814.23 2393.98 1808.1 2396.54 1800.47 2397.82 1791.33 2397.82 1778.03 2397.82 1767.81 2394.75 1760.68 2388.6 1753.55 2382.45 1749.29 2373.49 1747.9 2361.72L1768.58 2359.71C1769.82 2366.65 1772.34 2371.75 1776.15 2375 1779.95 2378.25 1785.08 2379.88 1791.54 2379.88 1798.39 2379.88 1803.54 2378.43 1807.01 2375.54 1810.48 2372.64 1812.22 2369.26 1812.22 2365.38 1812.22 2362.89 1811.49 2360.78 1810.03 2359.03 1808.57 2357.28 1806.02 2355.76 1802.38 2354.47 1799.89 2353.61 1794.22 2352.08 1785.37 2349.88 1773.98 2347.05 1765.99 2343.59 1761.4 2339.47 1754.94 2333.68 1751.71 2326.62 1751.71 2318.3 1751.71 2312.94 1753.23 2307.92 1756.27 2303.26 1759.3 2298.59 1763.68 2295.04 1769.4 2292.6 1775.12 2290.16 1782.02 2288.94 1790.11 2288.94ZM1123.32 2288.94C1136.2 2288.94 1146.65 2292.74 1154.69 2300.35 1159.48 2304.85 1163.07 2311.31 1165.46 2319.73L1144.43 2324.76C1143.18 2319.3 1140.59 2314.99 1136.64 2311.84 1132.69 2308.68 1127.89 2307.1 1122.25 2307.1 1114.45 2307.1 1108.12 2309.9 1103.26 2315.5 1098.41 2321.09 1095.98 2330.16 1095.98 2342.7 1095.98 2356 1098.37 2365.48 1103.16 2371.12 1107.94 2376.77 1114.16 2379.59 1121.82 2379.59 1127.46 2379.59 1132.32 2377.8 1136.39 2374.21 1140.46 2370.62 1143.37 2364.97 1145.15 2357.27L1165.74 2363.8C1162.59 2375.29 1157.34 2383.82 1149.99 2389.39 1142.64 2394.97 1133.33 2397.75 1122.03 2397.75 1108.06 2397.75 1096.58 2392.98 1087.58 2383.43 1078.58 2373.89 1074.09 2360.84 1074.09 2344.28 1074.09 2326.77 1078.61 2313.16 1087.65 2303.47 1096.7 2293.78 1108.59 2288.94 1123.32 2288.94Z" stroke="#054697" stroke-width="5" stroke-linecap="butt" stroke-linejoin="round" stroke-miterlimit="10" stroke-opacity="1" fill="#F4F1E3" fill-rule="evenodd" fill-opacity="1"/><text fill="#000000" fill-opacity="0" font-family="Arial,Arial_MSFontService,sans-serif" font-size="108.886" direction="ltr" writing-mode="lr-tb" x="296.933" y="2384.21">Es unido a Cristo en Su muerte</text></g></svg>