<svg width="1209" height="220" xmlns="http://www.w3.org/2000/svg" xmlns:xlink="http://www.w3.org/1999/xlink" xml:space="preserve" overflow="hidden"><defs><filter id="fx0" x="-10%" y="-10%" width="120%" height="120%" filterUnits="userSpaceOnUse" primitiveUnits="userSpaceOnUse"><feComponentTransfer color-interpolation-filters="sRGB"><feFuncR type="discrete" tableValues="0.000000 0.000000"/><feFuncG type="discrete" tableValues="0.000000 0.000000"/><feFuncB type="discrete" tableValues="0.000000 0.000000"/><feFuncA type="linear" slope="0.400000" intercept="0.000000"/></feComponentTransfer><feGaussianBlur stdDeviation="2.824232 2.824232"/></filter><clipPath id="clip1"><rect x="-4" y="1682" width="1209" height="220"/></clipPath><clipPath id="clip2"><rect x="1.60549" y="1.09656" width="1202.97" height="130.76"/></clipPath><clipPath id="clip3"><rect x="0" y="0" width="1206" height="133"/></clipPath></defs><g clip-path="url(#clip1)" transform="translate(4 -1682)"><g clip-path="url(#clip2)" filter="url(#fx0)" transform="translate(-3 1729)"><g clip-path="url(#clip3)"><path d="M1154.27 57.5761C1149 57.5761 1144.58 59.5858 1140.99 63.6054 1137.4 67.6249 1135.6 73.4149 1135.6 80.9755 1135.6 88.536 1137.4 94.326 1140.99 98.3456 1144.58 102.365 1149 104.375 1154.27 104.375 1159.53 104.375 1163.94 102.365 1167.51 98.3456 1171.07 94.326 1172.86 88.4882 1172.86 80.8319 1172.86 73.3671 1171.07 67.6249 1167.51 63.6054 1163.94 59.5858 1159.53 57.5761 1154.27 57.5761ZM600.828 57.5761C595.564 57.5761 591.138 59.5858 587.549 63.6054 583.96 67.6249 582.165 73.4149 582.165 80.9755 582.165 88.536 583.96 94.326 587.549 98.3456 591.138 102.365 595.564 104.375 600.828 104.375 606.091 104.375 610.506 102.365 614.07 98.3456 617.635 94.326 619.418 88.4882 619.418 80.8319 619.418 73.3671 617.635 67.6249 614.07 63.6054 610.506 59.5858 606.091 57.5761 600.828 57.5761ZM393.064 56.5712C388.661 56.5712 385.025 58.1742 382.154 61.3803 379.283 64.5863 377.871 68.9408 377.919 74.4437L408.065 74.4437C407.922 68.6058 406.414 64.1676 403.543 61.129 400.672 58.0905 397.179 56.5712 393.064 56.5712ZM254.418 56.5712C250.016 56.5712 246.379 58.1742 243.508 61.3803 240.637 64.5863 239.225 68.9408 239.273 74.4437L269.419 74.4437C269.276 68.6058 267.769 64.1676 264.898 61.129 262.026 58.0905 258.533 56.5712 254.418 56.5712ZM948.867 42.8617 969.037 42.8617 969.037 119.089 948.867 119.089ZM134.322 42.8617 154.492 42.8617 154.492 77.889C154.492 88.6078 154.863 95.1754 155.604 97.5919 156.346 100.008 157.698 101.922 159.66 103.334 161.622 104.746 164.11 105.452 167.125 105.452 170.57 105.452 173.656 104.506 176.384 102.616 179.111 100.726 180.978 98.3815 181.982 95.5822 182.987 92.7828 183.49 85.9281 183.49 75.0179L183.49 42.8617 203.659 42.8617 203.659 119.089 184.925 119.089 184.925 107.677C182.15 111.744 178.501 114.95 173.979 117.295 169.457 119.64 164.684 120.812 159.66 120.812 154.54 120.812 149.946 119.687 145.878 117.438 141.811 115.189 138.868 112.031 137.05 107.964 135.231 103.896 134.322 98.2738 134.322 91.0961ZM1154.19 41.139C1165.73 41.139 1175.18 44.8834 1182.55 52.3722 1189.91 59.861 1193.6 69.3236 1193.6 80.7601 1193.6 92.2924 1189.88 101.851 1182.44 109.435 1175 117.02 1165.63 120.812 1154.34 120.812 1147.35 120.812 1140.69 119.233 1134.35 116.075 1128.01 112.916 1123.19 108.287 1119.88 102.186 1116.58 96.0846 1114.93 88.6556 1114.93 79.8988 1114.93 73.1996 1116.58 66.7157 1119.88 60.4471 1123.19 54.1786 1127.86 49.3934 1133.92 46.0917 1139.97 42.7899 1146.73 41.139 1154.19 41.139ZM1017.32 41.139C1027.75 41.139 1035.51 42.8378 1040.58 46.2352 1045.65 49.6327 1049.14 54.6571 1051.06 61.3085L1032.04 64.8256C1031.22 61.8588 1029.68 59.5858 1027.41 58.0067 1025.13 56.4276 1021.89 55.6381 1017.68 55.6381 1012.37 55.6381 1008.57 56.3798 1006.27 57.8632 1004.74 58.9159 1003.97 60.2797 1003.97 61.9545 1003.97 63.39 1004.64 64.6102 1005.98 65.6151 1007.8 66.955 1014.08 68.8451 1024.82 71.2855 1035.57 73.726 1043.07 76.7167 1047.33 80.2577 1051.54 83.8466 1053.64 88.847 1053.64 95.2592 1053.64 102.245 1050.72 108.251 1044.88 113.275 1039.05 118.3 1030.41 120.812 1018.97 120.812 1008.59 120.812 1000.37 118.706 994.318 114.495 988.264 110.285 984.305 104.566 982.439 97.3407L1002.68 94.2543C1003.54 98.1781 1005.29 101.157 1007.92 103.191 1010.55 105.224 1014.24 106.241 1018.97 106.241 1024.19 106.241 1028.11 105.284 1030.74 103.37 1032.52 102.03 1033.4 100.236 1033.4 97.9867 1033.4 96.4554 1032.92 95.1874 1031.96 94.1825 1030.96 93.2255 1028.71 92.3402 1025.22 91.5267 1008.95 87.9379 998.636 84.66 994.282 81.6932 988.252 77.578 985.238 71.8597 985.238 64.5385 985.238 57.9349 987.846 52.3842 993.062 47.8861 998.277 43.3881 1006.36 41.139 1017.32 41.139ZM926.818 41.139C931.412 41.139 935.838 42.4071 940.097 44.9432L933.853 62.5287C930.455 60.3275 927.297 59.2269 924.378 59.2269 921.555 59.2269 919.162 60.0045 917.2 61.5597 915.238 63.1149 913.695 65.9262 912.571 69.9935 911.446 74.0609 910.884 82.5785 910.884 95.5463L910.884 119.089 890.714 119.089 890.714 42.8617 909.448 42.8617 909.448 53.7001C912.654 48.58 915.537 45.2064 918.098 43.5795 920.658 41.9525 923.565 41.139 926.818 41.139ZM699.247 41.139C703.697 41.139 707.764 41.9406 711.449 43.5436 715.133 45.1466 717.921 47.1923 719.811 49.6805 721.701 52.1688 723.017 54.9921 723.758 58.1503 724.5 61.3085 724.871 65.8305 724.871 71.7162L724.871 119.089 704.702 119.089 704.702 80.1859C704.702 71.9555 704.271 66.632 703.41 64.2155 702.548 61.799 701.149 59.9208 699.211 58.5809 697.273 57.2411 694.94 56.5712 692.212 56.5712 688.719 56.5712 685.585 57.5282 682.81 59.4423 680.034 61.3563 678.132 63.8925 677.103 67.0507 676.074 70.2089 675.56 76.0468 675.56 84.5643L675.56 119.089 655.391 119.089 655.391 42.8617 674.124 42.8617 674.124 54.059C680.776 45.4457 689.15 41.139 699.247 41.139ZM600.756 41.139C612.288 41.139 621.739 44.8834 629.108 52.3722 636.477 59.861 640.161 69.3236 640.162 80.7601 640.161 92.2924 636.441 101.851 629 109.435 621.559 117.02 612.192 120.812 600.899 120.812 593.913 120.812 587.25 119.233 580.909 116.075 574.569 112.916 569.748 108.287 566.446 102.186 563.144 96.0846 561.494 88.6556 561.494 79.8988 561.494 73.1996 563.144 66.7157 566.446 60.4471 569.748 54.1786 574.425 49.3934 580.479 46.0917 586.532 42.7899 593.291 41.139 600.756 41.139ZM517.32 41.139C526.603 41.139 533.984 43.1368 539.463 47.1325 544.942 51.1281 548.878 57.2172 551.271 65.3998L531.388 68.9886C530.719 65.017 529.199 62.0263 526.831 60.0165 524.462 58.0067 521.388 57.0018 517.607 57.0018 512.583 57.0018 508.575 58.7365 505.585 62.2057 502.594 65.6749 501.098 71.4769 501.098 79.6117 501.098 88.6556 502.618 95.0438 505.656 98.7762 508.695 102.509 512.774 104.375 517.894 104.375 521.722 104.375 524.857 103.286 527.297 101.109 529.738 98.9318 531.46 95.1874 532.465 89.8759L552.276 93.2494C550.218 102.341 546.27 109.208 540.432 113.849 534.595 118.491 526.771 120.812 516.961 120.812 505.812 120.812 496.923 117.295 490.296 110.261 483.669 103.226 480.355 93.4886 480.355 81.0472 480.355 68.4623 483.68 58.6647 490.332 51.6544 496.983 44.6442 505.979 41.139 517.32 41.139ZM391.844 41.139C403.184 41.139 412.133 44.8834 418.688 52.3722 425.244 59.861 428.378 71.3334 428.091 86.7894L377.56 86.7894C377.703 92.7709 379.33 97.4244 382.441 100.75 385.551 104.076 389.427 105.739 394.069 105.739 397.227 105.739 399.883 104.877 402.036 103.155 404.189 101.432 405.816 98.6566 406.917 94.8285L427.014 98.202C424.431 105.571 420.351 111.182 414.776 115.034 409.202 118.886 402.227 120.812 393.853 120.812 380.599 120.812 370.789 116.481 364.425 107.82 359.4 100.882 356.888 92.1249 356.888 81.5497 356.888 68.9169 360.19 59.0236 366.793 51.8698 373.397 44.7159 381.747 41.139 391.844 41.139ZM340.725 41.139C345.319 41.139 349.745 42.4071 354.004 44.9432L347.759 62.5287C344.362 60.3275 341.203 59.2269 338.284 59.2269 335.461 59.2269 333.069 60.0045 331.107 61.5597 329.145 63.1149 327.602 65.9262 326.477 69.9935 325.353 74.0609 324.79 82.5785 324.79 95.5463L324.79 119.089 304.621 119.089 304.621 42.8617 323.355 42.8617 323.355 53.7001C326.561 48.58 329.444 45.2064 332.004 43.5795 334.564 41.9525 337.471 41.139 340.725 41.139ZM253.198 41.139C264.539 41.139 273.487 44.8834 280.043 52.3722 286.598 59.861 289.732 71.3334 289.445 86.7894L238.914 86.7894C239.058 92.7709 240.685 97.4244 243.795 100.75 246.905 104.076 250.781 105.739 255.423 105.739 258.581 105.739 261.237 104.877 263.39 103.155 265.543 101.432 267.17 98.6566 268.271 94.8285L288.369 98.202C285.785 105.571 281.705 111.182 276.131 115.034 270.556 118.886 263.582 120.812 255.208 120.812 241.953 120.812 232.143 116.481 225.779 107.82 220.754 100.882 218.242 92.1249 218.242 81.5497 218.242 68.9169 221.544 59.0236 228.148 51.8698 234.751 44.7159 243.101 41.139 253.198 41.139ZM1092.07 15.9452 1092.07 42.8617 1105.85 42.8617 1105.85 58.9398 1092.07 58.9398 1092.07 89.6605C1092.07 95.8812 1092.2 99.506 1092.47 100.535 1092.73 101.564 1093.33 102.413 1094.26 103.083 1095.2 103.753 1096.33 104.088 1097.67 104.088 1099.54 104.088 1102.24 103.442 1105.78 102.15L1107.51 117.797C1102.82 119.807 1097.5 120.812 1091.57 120.812 1087.93 120.812 1084.66 120.202 1081.74 118.982 1078.82 117.761 1076.68 116.182 1075.31 114.244 1073.95 112.306 1073 109.686 1072.48 106.385 1072.05 104.04 1071.83 99.3026 1071.83 92.1727L1071.83 58.9398 1062.57 58.9398 1062.57 42.8617 1071.83 42.8617 1071.83 27.7167ZM948.867 13.8637 969.037 13.8637 969.037 32.5258 948.867 32.5258ZM12.5782 13.8637 44.3755 13.8637 63.4683 85.641 82.3458 13.8637 114.215 13.8637 114.215 119.089 94.4761 119.089 94.4761 36.2582 73.5889 119.089 53.1324 119.089 32.3169 36.2582 32.3169 119.089 12.5782 119.089ZM831.237 12.0692C844.109 12.0692 854.564 15.8734 862.603 23.4818 867.388 27.9799 870.977 34.4398 873.37 42.8617L852.339 47.8861C851.095 42.431 848.499 38.1244 844.551 34.9662 840.604 31.808 835.806 30.2289 830.16 30.2289 822.36 30.2289 816.032 33.0282 811.175 38.6268 806.318 44.2255 803.889 53.2933 803.889 65.8304 803.889 79.1332 806.282 88.6078 811.067 94.2543 815.852 99.9008 822.073 102.724 829.729 102.724 835.376 102.724 840.233 100.93 844.3 97.3407 848.367 93.7518 851.286 88.1053 853.057 80.4012L873.657 86.933C870.499 98.4174 865.247 106.947 857.902 112.522 850.557 118.096 841.238 120.884 829.945 120.884 815.972 120.884 804.488 116.11 795.491 106.564 786.495 97.0177 781.997 83.9662 781.997 67.4095 781.997 49.8959 786.519 36.2941 795.563 26.6041 804.607 16.9142 816.498 12.0692 831.237 12.0692Z" stroke="#054697" stroke-width="5" stroke-linecap="butt" stroke-linejoin="round" stroke-miterlimit="10" stroke-opacity="1" fill="#F4F1E3" fill-rule="evenodd" fill-opacity="1"/></g></g><path d="M1147.57 1784.45C1142.31 1784.45 1137.88 1786.46 1134.3 1790.47 1130.71 1794.49 1128.91 1800.28 1128.91 1807.84 1128.91 1815.41 1130.71 1821.2 1134.3 1825.22 1137.88 1829.23 1142.31 1831.24 1147.57 1831.24 1152.84 1831.24 1157.25 1829.23 1160.82 1825.22 1164.38 1821.2 1166.17 1815.36 1166.17 1807.7 1166.17 1800.24 1164.38 1794.49 1160.82 1790.47 1157.25 1786.46 1152.84 1784.45 1147.57 1784.45ZM594.137 1784.45C588.874 1784.45 584.447 1786.46 580.859 1790.47 577.27 1794.49 575.475 1800.28 575.475 1807.84 575.475 1815.41 577.27 1821.2 580.859 1825.22 584.447 1829.23 588.874 1831.24 594.137 1831.24 599.401 1831.24 603.815 1829.23 607.38 1825.22 610.945 1821.2 612.728 1815.36 612.728 1807.7 612.728 1800.24 610.945 1794.49 607.38 1790.47 603.815 1786.46 599.401 1784.45 594.137 1784.45ZM386.374 1783.44C381.971 1783.44 378.335 1785.04 375.463 1788.25 372.592 1791.46 371.181 1795.81 371.229 1801.31L401.375 1801.31C401.231 1795.48 399.724 1791.04 396.853 1788 393.982 1784.96 390.489 1783.44 386.374 1783.44ZM247.728 1783.44C243.325 1783.44 239.689 1785.04 236.818 1788.25 233.946 1791.46 232.535 1795.81 232.583 1801.31L262.729 1801.31C262.586 1795.48 261.078 1791.04 258.207 1788 255.336 1784.96 251.843 1783.44 247.728 1783.44ZM942.177 1769.73 962.347 1769.73 962.347 1845.96 942.177 1845.96ZM127.632 1769.73 147.801 1769.73 147.801 1804.76C147.801 1815.48 148.172 1822.04 148.914 1824.46 149.656 1826.88 151.008 1828.79 152.969 1830.2 154.931 1831.62 157.42 1832.32 160.434 1832.32 163.88 1832.32 166.966 1831.38 169.694 1829.49 172.421 1827.6 174.287 1825.25 175.292 1822.45 176.297 1819.65 176.8 1812.8 176.8 1801.89L176.8 1769.73 196.969 1769.73 196.969 1845.96 178.235 1845.96 178.235 1834.55C175.46 1838.61 171.811 1841.82 167.289 1844.16 162.767 1846.51 157.994 1847.68 152.969 1847.68 147.849 1847.68 143.256 1846.56 139.188 1844.31 135.121 1842.06 132.178 1838.9 130.36 1834.83 128.541 1830.77 127.632 1825.14 127.632 1817.97ZM1147.5 1768.01C1159.04 1768.01 1168.49 1771.75 1175.85 1779.24 1183.22 1786.73 1186.91 1796.19 1186.91 1807.63 1186.91 1819.16 1183.19 1828.72 1175.75 1836.3 1168.31 1843.89 1158.94 1847.68 1147.65 1847.68 1140.66 1847.68 1134 1846.1 1127.66 1842.94 1121.32 1839.79 1116.5 1835.16 1113.19 1829.06 1109.89 1822.95 1108.24 1815.53 1108.24 1806.77 1108.24 1800.07 1109.89 1793.59 1113.19 1787.32 1116.5 1781.05 1121.17 1776.26 1127.23 1772.96 1133.28 1769.66 1140.04 1768.01 1147.5 1768.01ZM1010.63 1768.01C1021.06 1768.01 1028.82 1769.71 1033.89 1773.1 1038.96 1776.5 1042.45 1781.53 1044.37 1788.18L1025.35 1791.7C1024.53 1788.73 1022.99 1786.46 1020.72 1784.88 1018.44 1783.3 1015.2 1782.51 1010.99 1782.51 1005.68 1782.51 1001.88 1783.25 999.578 1784.73 998.047 1785.79 997.281 1787.15 997.281 1788.82 997.281 1790.26 997.951 1791.48 999.291 1792.48 1001.11 1793.82 1007.39 1795.71 1018.13 1798.16 1028.88 1800.6 1036.38 1803.59 1040.64 1807.13 1044.85 1810.72 1046.95 1815.72 1046.95 1822.13 1046.95 1829.11 1044.03 1835.12 1038.19 1840.14 1032.36 1845.17 1023.72 1847.68 1012.28 1847.68 1001.9 1847.68 993.681 1845.58 987.627 1841.36 981.574 1837.15 977.614 1831.44 975.748 1824.21L995.99 1821.12C996.851 1825.05 998.597 1828.03 1001.23 1830.06 1003.86 1832.09 1007.55 1833.11 1012.28 1833.11 1017.5 1833.11 1021.42 1832.15 1024.05 1830.24 1025.82 1828.9 1026.71 1827.11 1026.71 1824.86 1026.71 1823.32 1026.23 1822.06 1025.27 1821.05 1024.27 1820.09 1022.02 1819.21 1018.53 1818.4 1002.26 1814.81 991.946 1811.53 987.592 1808.56 981.562 1804.45 978.547 1798.73 978.548 1791.41 978.547 1784.8 981.155 1779.25 986.371 1774.76 991.587 1770.26 999.674 1768.01 1010.63 1768.01ZM920.128 1768.01C924.722 1768.01 929.148 1769.28 933.407 1771.81L927.162 1789.4C923.765 1787.2 920.607 1786.1 917.688 1786.1 914.864 1786.1 912.472 1786.87 910.51 1788.43 908.548 1789.98 907.005 1792.8 905.88 1796.86 904.756 1800.93 904.194 1809.45 904.194 1822.42L904.194 1845.96 884.024 1845.96 884.024 1769.73 902.758 1769.73 902.758 1780.57C905.964 1775.45 908.847 1772.08 911.407 1770.45 913.967 1768.82 916.874 1768.01 920.128 1768.01ZM692.556 1768.01C697.006 1768.01 701.074 1768.81 704.758 1770.41 708.443 1772.02 711.23 1774.06 713.12 1776.55 715.011 1779.04 716.326 1781.86 717.068 1785.02 717.81 1788.18 718.181 1792.7 718.181 1798.59L718.181 1845.96 698.011 1845.96 698.011 1807.06C698.011 1798.82 697.581 1793.5 696.719 1791.08 695.858 1788.67 694.458 1786.79 692.52 1785.45 690.582 1784.11 688.25 1783.44 685.522 1783.44 682.029 1783.44 678.895 1784.4 676.119 1786.31 673.344 1788.23 671.442 1790.76 670.413 1793.92 669.384 1797.08 668.87 1802.92 668.87 1811.43L668.87 1845.96 648.7 1845.96 648.7 1769.73 667.434 1769.73 667.434 1780.93C674.086 1772.32 682.46 1768.01 692.556 1768.01ZM594.066 1768.01C605.598 1768.01 615.048 1771.75 622.418 1779.24 629.787 1786.73 633.471 1796.19 633.471 1807.63 633.471 1819.16 629.751 1828.72 622.31 1836.3 614.869 1843.89 605.502 1847.68 594.209 1847.68 587.223 1847.68 580.559 1846.1 574.219 1842.94 567.879 1839.79 563.058 1835.16 559.756 1829.06 556.454 1822.95 554.803 1815.53 554.803 1806.77 554.803 1800.07 556.454 1793.59 559.756 1787.32 563.058 1781.05 567.735 1776.26 573.788 1772.96 579.842 1769.66 586.601 1768.01 594.066 1768.01ZM510.63 1768.01C519.913 1768.01 527.294 1770.01 532.773 1774 538.252 1778 542.188 1784.09 544.581 1792.27L524.698 1795.86C524.028 1791.89 522.509 1788.9 520.14 1786.89 517.772 1784.88 514.697 1783.87 510.917 1783.87 505.893 1783.87 501.885 1785.61 498.894 1789.08 495.904 1792.54 494.408 1798.35 494.408 1806.48 494.408 1815.53 495.927 1821.91 498.966 1825.65 502.005 1829.38 506.084 1831.24 511.204 1831.24 515.032 1831.24 518.167 1830.16 520.607 1827.98 523.047 1825.8 524.77 1822.06 525.775 1816.75L545.585 1820.12C543.528 1829.21 539.58 1836.08 533.742 1840.72 527.904 1845.36 520.081 1847.68 510.271 1847.68 499.122 1847.68 490.233 1844.16 483.606 1837.13 476.978 1830.1 473.665 1820.36 473.665 1807.92 473.665 1795.33 476.99 1785.53 483.642 1778.52 490.293 1771.51 499.289 1768.01 510.63 1768.01ZM385.153 1768.01C396.494 1768.01 405.442 1771.75 411.998 1779.24 418.554 1786.73 421.688 1798.2 421.401 1813.66L370.87 1813.66C371.013 1819.64 372.64 1824.29 375.751 1827.62 378.861 1830.95 382.737 1832.61 387.378 1832.61 390.537 1832.61 393.192 1831.75 395.346 1830.02 397.499 1828.3 399.126 1825.53 400.227 1821.7L420.324 1825.07C417.74 1832.44 413.661 1838.05 408.086 1841.9 402.512 1845.76 395.537 1847.68 387.163 1847.68 373.908 1847.68 364.099 1843.35 357.734 1834.69 352.71 1827.75 350.198 1818.99 350.198 1808.42 350.198 1795.79 353.5 1785.89 360.103 1778.74 366.707 1771.59 375.057 1768.01 385.153 1768.01ZM334.035 1768.01C338.628 1768.01 343.055 1769.28 347.313 1771.81L341.069 1789.4C337.671 1787.2 334.513 1786.1 331.594 1786.1 328.771 1786.1 326.378 1786.87 324.416 1788.43 322.454 1789.98 320.911 1792.8 319.787 1796.86 318.662 1800.93 318.1 1809.45 318.1 1822.42L318.1 1845.96 297.931 1845.96 297.931 1769.73 316.664 1769.73 316.664 1780.57C319.871 1775.45 322.754 1772.08 325.314 1770.45 327.874 1768.82 330.781 1768.01 334.035 1768.01ZM246.508 1768.01C257.848 1768.01 266.797 1771.75 273.352 1779.24 279.908 1786.73 283.042 1798.2 282.755 1813.66L232.224 1813.66C232.367 1819.64 233.994 1824.29 237.105 1827.62 240.215 1830.95 244.091 1832.61 248.733 1832.61 251.891 1832.61 254.547 1831.75 256.7 1830.02 258.853 1828.3 260.48 1825.53 261.581 1821.7L281.678 1825.07C279.094 1832.44 275.015 1838.05 269.44 1841.9 263.866 1845.76 256.891 1847.68 248.517 1847.68 235.262 1847.68 225.453 1843.35 219.089 1834.69 214.064 1827.75 211.552 1818.99 211.552 1808.42 211.552 1795.79 214.854 1785.89 221.457 1778.74 228.061 1771.59 236.411 1768.01 246.508 1768.01ZM1085.38 1742.81 1085.38 1769.73 1099.16 1769.73 1099.16 1785.81 1085.38 1785.81 1085.38 1816.53C1085.38 1822.75 1085.51 1826.38 1085.78 1827.4 1086.04 1828.43 1086.64 1829.28 1087.57 1829.95 1088.5 1830.62 1089.64 1830.96 1090.98 1830.96 1092.85 1830.96 1095.55 1830.31 1099.09 1829.02L1100.81 1844.67C1096.13 1846.68 1090.81 1847.68 1084.88 1847.68 1081.24 1847.68 1077.97 1847.07 1075.05 1845.85 1072.13 1844.63 1069.99 1843.05 1068.62 1841.11 1067.26 1839.18 1066.31 1836.56 1065.79 1833.25 1065.36 1830.91 1065.14 1826.17 1065.14 1819.04L1065.14 1785.81 1055.88 1785.81 1055.88 1769.73 1065.14 1769.73 1065.14 1754.59ZM942.177 1740.73 962.347 1740.73 962.347 1759.4 942.177 1759.4ZM5.88791 1740.73 37.6853 1740.73 56.778 1812.51 75.6555 1740.73 107.525 1740.73 107.525 1845.96 87.7859 1845.96 87.7859 1763.13 66.8987 1845.96 46.4421 1845.96 25.6267 1763.13 25.6267 1845.96 5.88791 1845.96ZM824.546 1738.94C837.418 1738.94 847.874 1742.74 855.913 1750.35 860.698 1754.85 864.287 1761.31 866.68 1769.73L845.649 1774.76C844.405 1769.3 841.809 1764.99 837.861 1761.84 833.913 1758.68 829.116 1757.1 823.47 1757.1 815.67 1757.1 809.341 1759.9 804.485 1765.5 799.628 1771.09 797.199 1780.16 797.199 1792.7 797.199 1806 799.592 1815.48 804.377 1821.12 809.162 1826.77 815.383 1829.59 823.039 1829.59 828.685 1829.59 833.542 1827.8 837.61 1824.21 841.677 1820.62 844.596 1814.97 846.367 1807.27L866.967 1813.8C863.808 1825.29 858.557 1833.82 851.212 1839.39 843.866 1844.97 834.547 1847.75 823.254 1847.75 809.282 1847.75 797.797 1842.98 788.801 1833.43 779.805 1823.89 775.307 1810.84 775.307 1794.28 775.307 1776.77 779.829 1763.16 788.873 1753.47 797.917 1743.78 809.808 1738.94 824.546 1738.94Z" stroke="#054697" stroke-width="5" stroke-linecap="butt" stroke-linejoin="round" stroke-miterlimit="10" stroke-opacity="1" fill="#F4F1E3" fill-rule="evenodd" fill-opacity="1"/><text fill="#000000" fill-opacity="0" font-family="Arial,Arial_MSFontService,sans-serif" font-size="108.814" direction="ltr" writing-mode="lr-tb" x="5.88791" y="1834.15">Muere con Cristo</text></g></svg>