<svg width="1462" height="279" xmlns="http://www.w3.org/2000/svg" xmlns:xlink="http://www.w3.org/1999/xlink" xml:space="preserve" overflow="hidden"><defs><filter id="fx0" x="-10%" y="-10%" width="120%" height="120%" filterUnits="userSpaceOnUse" primitiveUnits="userSpaceOnUse"><feComponentTransfer color-interpolation-filters="sRGB"><feFuncR type="discrete" tableValues="0.000000 0.000000"/><feFuncG type="discrete" tableValues="0.000000 0.000000"/><feFuncB type="discrete" tableValues="0.000000 0.000000"/><feFuncA type="linear" slope="0.349020" intercept="0.000000"/></feComponentTransfer><feGaussianBlur stdDeviation="4.217566 4.217566"/></filter><clipPath id="clip1"><rect x="449" y="385" width="1462" height="279"/></clipPath><clipPath id="clip2"><rect x="1.76898" y="1.28653" width="1456.94" height="179.268"/></clipPath><clipPath id="clip3"><rect x="0" y="0" width="1460" height="182"/></clipPath></defs><g clip-path="url(#clip1)" transform="translate(-449 -385)"><g clip-path="url(#clip2)" filter="url(#fx0)" transform="translate(449 446)"><g clip-path="url(#clip3)"><path d="M220.748 111.732C217.197 112.916 211.575 114.33 203.882 115.973 196.189 117.617 191.158 119.228 188.791 120.806 185.175 123.371 183.366 126.626 183.366 130.571 183.366 134.451 184.813 137.804 187.706 140.632 190.599 143.459 194.282 144.873 198.753 144.873 203.75 144.873 208.518 143.229 213.055 139.941 216.408 137.442 218.611 134.385 219.663 130.768 220.387 128.401 220.748 123.897 220.748 117.256ZM1388.51 77.5066C1381.27 77.5066 1375.19 80.2683 1370.26 85.7918 1365.33 91.3152 1362.86 99.2716 1362.86 109.661 1362.86 120.05 1365.33 128.007 1370.26 133.53 1375.19 139.053 1381.27 141.815 1388.51 141.815 1395.74 141.815 1401.8 139.053 1406.7 133.53 1411.6 128.007 1414.05 119.984 1414.05 109.464 1414.05 99.2058 1411.6 91.3152 1406.7 85.7918 1401.8 80.2683 1395.74 77.5066 1388.51 77.5066ZM1157.91 76.1257C1151.86 76.1257 1146.86 78.3285 1142.91 82.7341 1138.97 87.1397 1137.03 93.1235 1137.09 100.685L1178.52 100.685C1178.32 92.6632 1176.25 86.5644 1172.31 82.3889 1168.36 78.2135 1163.56 76.1257 1157.91 76.1257ZM720.77 76.1257C714.721 76.1257 709.723 78.3285 705.778 82.7341 701.833 87.1397 699.893 93.1235 699.959 100.685L741.385 100.685C741.187 92.6632 739.116 86.5644 735.171 82.3889 731.225 78.2135 726.425 76.1257 720.77 76.1257ZM601.243 76.1257C594.667 76.1257 589.16 78.7395 584.722 83.967 580.283 89.1946 578.064 97.003 578.064 107.392 578.064 118.571 579.609 126.659 582.7 131.656 587.171 138.889 593.418 142.506 601.44 142.506 607.818 142.506 613.243 139.793 617.714 134.368 622.186 128.944 624.421 120.839 624.421 110.055 624.421 98.0222 622.251 89.359 617.912 84.0657 613.572 78.7724 608.015 76.1257 601.243 76.1257ZM429.156 76.1257C423.106 76.1257 418.109 78.3285 414.164 82.7341 410.218 87.1397 408.278 93.1235 408.344 100.685L449.77 100.685C449.573 92.6632 447.501 86.5644 443.556 82.3889 439.611 78.2135 434.811 76.1257 429.156 76.1257ZM1215.16 57.2869 1244.26 57.2869 1263.98 110.746 1269.7 128.598C1271.22 124.061 1272.17 121.069 1272.56 119.623 1273.49 116.664 1274.47 113.705 1275.52 110.746L1295.45 57.2869 1323.95 57.2869 1282.33 162.035 1257.38 162.035ZM992.514 57.2869 1020.23 57.2869 1020.23 105.42C1020.23 120.149 1020.74 129.174 1021.76 132.494 1022.78 135.815 1024.64 138.445 1027.33 140.385 1030.03 142.325 1033.45 143.295 1037.59 143.295 1042.32 143.295 1046.56 141.996 1050.31 139.399 1054.06 136.801 1056.63 133.579 1058.01 129.733 1059.39 125.886 1060.08 116.467 1060.08 101.474L1060.08 57.2869 1087.79 57.2869 1087.79 162.035 1062.05 162.035 1062.05 146.352C1058.24 151.941 1053.22 156.347 1047.01 159.569 1040.79 162.791 1034.24 164.402 1027.33 164.402 1020.3 164.402 1013.98 162.857 1008.39 159.766 1002.8 156.676 998.76 152.336 996.262 146.747 993.763 141.158 992.514 133.431 992.514 123.568ZM1388.41 54.9197C1404.25 54.9197 1417.24 60.065 1427.37 70.3557 1437.49 80.6464 1442.56 93.6495 1442.56 109.365 1442.56 125.212 1437.44 138.347 1427.22 148.769 1416.99 159.191 1404.12 164.402 1388.6 164.402 1379 164.402 1369.85 162.232 1361.14 157.892 1352.42 153.552 1345.8 147.191 1341.26 138.807 1336.72 130.423 1334.45 120.215 1334.45 108.181 1334.45 98.9757 1336.72 90.0658 1341.26 81.4519 1345.8 72.838 1352.23 66.2625 1360.54 61.7253 1368.86 57.1882 1378.15 54.9197 1388.41 54.9197ZM1156.23 54.9197C1171.81 54.9197 1184.11 60.065 1193.12 70.3557 1202.13 80.6464 1206.43 96.4112 1206.04 117.65L1136.6 117.65C1136.8 125.87 1139.03 132.264 1143.31 136.834 1147.58 141.404 1152.91 143.689 1159.29 143.689 1163.63 143.689 1167.28 142.506 1170.23 140.138 1173.19 137.771 1175.43 133.957 1176.94 128.697L1204.56 133.333C1201.01 143.459 1195.4 151.169 1187.74 156.462 1180.08 161.755 1170.5 164.402 1158.99 164.402 1140.78 164.402 1127.3 158.451 1118.55 146.55 1111.65 137.015 1108.19 124.982 1108.19 110.45 1108.19 93.0906 1112.73 79.4957 1121.81 69.6653 1130.88 59.8349 1142.35 54.9197 1156.23 54.9197ZM719.094 54.9197C734.677 54.9197 746.974 60.065 755.982 70.3557 764.991 80.6464 769.298 96.4112 768.903 117.65L699.466 117.65C699.663 125.87 701.899 132.264 706.173 136.834 710.447 141.404 715.773 143.689 722.151 143.689 726.491 143.689 730.14 142.506 733.099 140.138 736.058 137.771 738.294 133.957 739.806 128.697L767.424 133.333C763.873 143.459 758.267 151.169 750.607 156.462 742.946 161.755 733.362 164.402 721.855 164.402 703.641 164.402 690.161 158.451 681.416 146.55 674.511 137.015 671.059 124.982 671.059 110.45 671.059 93.0906 675.596 79.4957 684.671 69.6653 693.745 59.8349 705.219 54.9197 719.094 54.9197ZM427.479 54.9197C443.063 54.9197 455.359 60.065 464.368 70.3557 473.376 80.6464 477.683 96.4112 477.289 117.65L407.851 117.65C408.048 125.87 410.284 132.264 414.558 136.834 418.832 141.404 424.158 143.689 430.537 143.689 434.876 143.689 438.526 142.506 441.485 140.138 444.444 137.771 446.68 133.957 448.192 128.697L475.809 133.333C472.258 143.459 466.653 151.169 458.992 156.462 451.332 161.755 441.748 164.402 430.241 164.402 412.026 164.402 398.547 158.451 389.801 146.55 382.897 137.015 379.445 124.982 379.445 110.45 379.445 93.0906 383.982 79.4957 393.056 69.6653 402.13 59.8349 413.605 54.9197 427.479 54.9197ZM319.922 54.9197C332.678 54.9197 342.821 57.665 350.35 63.1555 357.879 68.6461 363.287 77.0134 366.575 88.2576L339.254 93.1892C338.333 87.7315 336.245 83.6218 332.991 80.8601 329.736 78.0984 325.511 76.7175 320.316 76.7175 313.412 76.7175 307.905 79.1012 303.795 83.8684 299.686 88.6357 297.631 96.6085 297.631 107.787 297.631 120.215 299.718 128.993 303.894 134.122 308.069 139.251 313.675 141.815 320.711 141.815 325.971 141.815 330.278 140.319 333.632 137.327 336.985 134.336 339.352 129.19 340.733 121.891L367.956 126.527C365.128 139.021 359.704 148.456 351.681 154.835 343.659 161.213 332.908 164.402 319.429 164.402 304.108 164.402 291.893 159.569 282.786 149.903 273.679 140.237 269.126 126.856 269.126 109.76 269.126 92.4659 273.696 79.0025 282.836 69.3694 291.976 59.7363 304.338 54.9197 319.922 54.9197ZM203.882 54.9197C216.244 54.9197 225.45 56.3827 231.499 59.3088 237.549 62.235 241.806 65.9501 244.272 70.4544 246.738 74.9586 247.971 83.2273 247.971 95.2605L247.675 127.612C247.675 136.818 248.119 143.607 249.006 147.98 249.894 152.352 251.554 157.038 253.987 162.035L226.568 162.035C225.844 160.194 224.957 157.465 223.904 153.848 223.444 152.205 223.115 151.12 222.918 150.594 218.184 155.196 213.121 158.649 207.729 160.95 202.337 163.251 196.583 164.402 190.468 164.402 179.684 164.402 171.185 161.476 164.971 155.624 158.757 149.772 155.651 142.374 155.651 133.431 155.651 127.513 157.064 122.237 159.892 117.601 162.719 112.965 166.681 109.414 171.777 106.948 176.873 104.483 184.221 102.329 193.821 100.488 206.775 98.0551 215.751 95.7866 220.748 93.6824L220.748 90.9207C220.748 85.5945 219.433 81.7971 216.803 79.5286 214.173 77.26 209.208 76.1257 201.909 76.1257 196.978 76.1257 193.131 77.0956 190.369 79.0354 187.608 80.9752 185.372 84.378 183.662 89.2439L158.511 84.7068C161.338 74.5805 166.204 67.0844 173.109 62.2185 180.013 57.3526 190.271 54.9197 203.882 54.9197ZM848.078 17.4392 876.484 17.4392 935.664 114.001 935.664 17.4392 962.788 17.4392 962.788 162.035 933.494 162.035 875.202 67.742 875.202 162.035 848.078 162.035ZM624.323 17.4392 652.039 17.4392 652.039 162.035 626.295 162.035 626.295 146.648C622.021 152.632 616.975 157.087 611.155 160.013 605.336 162.939 599.467 164.402 593.549 164.402 581.516 164.402 571.209 159.553 562.628 149.854 554.047 140.155 549.756 126.626 549.756 109.266 549.756 91.5125 553.932 78.0162 562.283 68.7776 570.634 59.539 581.187 54.9197 593.944 54.9197 605.648 54.9197 615.774 59.7856 624.323 69.5173ZM17.9217 17.4392 46.3279 17.4392 105.508 114.001 105.508 17.4392 132.632 17.4392 132.632 162.035 103.338 162.035 45.0457 67.742 45.0457 162.035 17.9217 162.035Z" stroke="#FEFEFE" stroke-width="7" stroke-linecap="butt" stroke-linejoin="round" stroke-miterlimit="10" stroke-opacity="1" fill="#9BBB59" fill-rule="evenodd" fill-opacity="1"/></g></g><path d="M677.12 547.203C673.57 548.387 667.948 549.801 660.254 551.445 652.561 553.089 647.531 554.7 645.163 556.278 641.547 558.842 639.739 562.097 639.739 566.042 639.739 569.922 641.185 573.275 644.078 576.103 646.972 578.93 650.654 580.344 655.125 580.344 660.123 580.344 664.89 578.7 669.427 575.412 672.781 572.914 674.983 569.856 676.036 566.24 676.759 563.872 677.12 559.368 677.12 552.727ZM1844.88 512.978C1837.64 512.978 1831.56 515.74 1826.63 521.263 1821.7 526.786 1819.23 534.743 1819.23 545.132 1819.23 555.522 1821.7 563.478 1826.63 569.001 1831.56 574.525 1837.64 577.286 1844.88 577.286 1852.11 577.286 1858.18 574.525 1863.08 569.001 1867.97 563.478 1870.42 555.456 1870.42 544.935 1870.42 534.677 1867.97 526.786 1863.08 521.263 1858.18 515.74 1852.11 512.978 1844.88 512.978ZM1614.28 511.597C1608.23 511.597 1603.23 513.8 1599.29 518.205 1595.34 522.611 1593.4 528.595 1593.47 536.157L1634.89 536.157C1634.69 528.134 1632.62 522.036 1628.68 517.86 1624.73 513.685 1619.93 511.597 1614.28 511.597ZM1177.14 511.597C1171.09 511.597 1166.1 513.8 1162.15 518.205 1158.21 522.611 1156.27 528.595 1156.33 536.157L1197.76 536.157C1197.56 528.134 1195.49 522.036 1191.54 517.86 1187.6 513.685 1182.8 511.597 1177.14 511.597ZM1057.61 511.597C1051.04 511.597 1045.53 514.211 1041.09 519.438 1036.66 524.666 1034.44 532.474 1034.44 542.864 1034.44 554.042 1035.98 562.13 1039.07 567.127 1043.54 574.36 1049.79 577.977 1057.81 577.977 1064.19 577.977 1069.62 575.265 1074.09 569.84 1078.56 564.415 1080.79 556.311 1080.79 545.527 1080.79 533.494 1078.62 524.83 1074.28 519.537 1069.94 514.244 1064.39 511.597 1057.61 511.597ZM885.528 511.597C879.479 511.597 874.481 513.8 870.536 518.205 866.591 522.611 864.651 528.595 864.717 536.157L906.142 536.157C905.945 528.134 903.874 522.036 899.928 517.86 895.983 513.685 891.183 511.597 885.528 511.597ZM1671.53 492.758 1700.63 492.758 1720.36 546.217 1726.08 564.07C1727.59 559.533 1728.54 556.541 1728.94 555.094 1729.86 552.135 1730.84 549.176 1731.9 546.217L1751.82 492.758 1780.32 492.758 1738.7 597.506 1713.75 597.506ZM1448.89 492.758 1476.6 492.758 1476.6 540.891C1476.6 555.62 1477.11 564.645 1478.13 567.966 1479.15 571.286 1481.01 573.917 1483.7 575.856 1486.4 577.796 1489.82 578.766 1493.96 578.766 1498.7 578.766 1502.94 577.467 1506.68 574.87 1510.43 572.273 1513 569.051 1514.38 565.204 1515.76 561.357 1516.45 551.938 1516.45 536.946L1516.45 492.758 1544.17 492.758 1544.17 597.506 1518.42 597.506 1518.42 581.824C1514.61 587.413 1509.59 591.818 1503.38 595.04 1497.17 598.262 1490.61 599.873 1483.7 599.873 1476.67 599.873 1470.36 598.328 1464.77 595.238 1459.18 592.147 1455.13 587.807 1452.63 582.218 1450.14 576.629 1448.89 568.903 1448.89 559.039ZM1844.78 490.391C1860.63 490.391 1873.61 495.536 1883.74 505.827 1893.87 516.118 1898.93 529.121 1898.93 544.836 1898.93 560.683 1893.82 573.818 1883.59 584.24 1873.37 594.662 1860.49 599.873 1844.98 599.873 1835.38 599.873 1826.22 597.703 1817.51 593.364 1808.79 589.024 1802.17 582.662 1797.63 574.278 1793.1 565.894 1790.83 555.686 1790.83 543.653 1790.83 534.447 1793.1 525.537 1797.63 516.923 1802.17 508.309 1808.6 501.734 1816.92 497.197 1825.23 492.66 1834.52 490.391 1844.78 490.391ZM1612.6 490.391C1628.19 490.391 1640.48 495.536 1649.49 505.827 1658.5 516.118 1662.81 531.883 1662.41 553.121L1592.97 553.121C1593.17 561.341 1595.41 567.736 1599.68 572.306 1603.95 576.876 1609.28 579.161 1615.66 579.161 1620 579.161 1623.65 577.977 1626.61 575.61 1629.57 573.243 1631.8 569.429 1633.31 564.168L1660.93 568.804C1657.38 578.93 1651.77 586.64 1644.11 591.933 1636.45 597.227 1626.87 599.873 1615.36 599.873 1597.15 599.873 1583.67 593.923 1574.92 582.021 1568.02 572.486 1564.57 560.453 1564.57 545.921 1564.57 528.562 1569.1 514.967 1578.18 505.137 1587.25 495.306 1598.73 490.391 1612.6 490.391ZM1175.47 490.391C1191.05 490.391 1203.35 495.536 1212.35 505.827 1221.36 516.118 1225.67 531.883 1225.28 553.121L1155.84 553.121C1156.04 561.341 1158.27 567.736 1162.54 572.306 1166.82 576.876 1172.15 579.161 1178.52 579.161 1182.86 579.161 1186.51 577.977 1189.47 575.61 1192.43 573.243 1194.67 569.429 1196.18 564.168L1223.8 568.804C1220.25 578.93 1214.64 586.64 1206.98 591.933 1199.32 597.227 1189.73 599.873 1178.23 599.873 1160.01 599.873 1146.53 593.923 1137.79 582.021 1130.88 572.486 1127.43 560.453 1127.43 545.921 1127.43 528.562 1131.97 514.967 1141.04 505.137 1150.12 495.306 1161.59 490.391 1175.47 490.391ZM883.851 490.391C899.435 490.391 911.732 495.536 920.74 505.827 929.748 516.118 934.055 531.883 933.661 553.121L864.223 553.121C864.421 561.341 866.656 567.736 870.93 572.306 875.204 576.876 880.531 579.161 886.909 579.161 891.249 579.161 894.898 577.977 897.857 575.61 900.816 573.243 903.052 569.429 904.564 564.168L932.181 568.804C928.631 578.93 923.025 586.64 915.365 591.933 907.704 597.227 898.12 599.873 886.613 599.873 868.399 599.873 854.919 593.923 846.174 582.021 839.269 572.486 835.817 560.453 835.817 545.921 835.817 528.562 840.354 514.967 849.428 505.137 858.503 495.306 869.977 490.391 883.851 490.391ZM776.294 490.391C789.05 490.391 799.193 493.136 806.722 498.627 814.251 504.117 819.66 512.485 822.947 523.729L795.626 528.661C794.705 523.203 792.618 519.093 789.363 516.331 786.108 513.57 781.883 512.189 776.688 512.189 769.784 512.189 764.277 514.572 760.168 519.34 756.058 524.107 754.003 532.08 754.003 543.258 754.003 555.686 756.091 564.464 760.266 569.593 764.442 574.722 770.047 577.286 777.083 577.286 782.343 577.286 786.65 575.791 790.004 572.799 793.357 569.807 795.725 564.661 797.105 557.363L824.328 561.998C821.501 574.492 816.076 583.928 808.054 590.306 800.032 596.684 789.281 599.873 775.801 599.873 760.48 599.873 748.266 595.04 739.159 585.374 730.052 575.708 725.498 562.327 725.498 545.231 725.498 527.937 730.068 514.474 739.208 504.841 748.348 495.208 760.71 490.391 776.294 490.391ZM660.254 490.391C672.616 490.391 681.822 491.854 687.871 494.78 693.921 497.706 698.179 501.421 700.644 505.926 703.11 510.43 704.343 518.699 704.343 530.732L704.047 563.083C704.047 572.289 704.491 579.078 705.379 583.451 706.266 587.824 707.927 592.509 710.36 597.506L682.94 597.506C682.216 595.665 681.329 592.936 680.277 589.32 679.816 587.676 679.488 586.591 679.29 586.065 674.556 590.668 669.493 594.12 664.101 596.421 658.709 598.723 652.955 599.873 646.84 599.873 636.056 599.873 627.557 596.947 621.344 591.095 615.13 585.243 612.023 577.845 612.023 568.903 612.023 562.985 613.437 557.708 616.264 553.072 619.091 548.436 623.053 544.886 628.149 542.42 633.245 539.954 640.593 537.8 650.194 535.959 663.147 533.526 672.123 531.258 677.12 529.154L677.12 526.392C677.12 521.066 675.805 517.268 673.175 515 670.545 512.731 665.58 511.597 658.282 511.597 653.35 511.597 649.503 512.567 646.742 514.507 643.98 516.446 641.744 519.849 640.035 524.715L614.883 520.178C617.711 510.052 622.577 502.556 629.481 497.69 636.385 492.824 646.643 490.391 660.254 490.391ZM1304.45 452.911 1332.86 452.911 1392.04 549.472 1392.04 452.911 1419.16 452.911 1419.16 597.506 1389.87 597.506 1331.57 503.213 1331.57 597.506 1304.45 597.506ZM1080.69 452.911 1108.41 452.911 1108.41 597.506 1082.67 597.506 1082.67 582.12C1078.39 588.103 1073.35 592.558 1067.53 595.484 1061.71 598.41 1055.84 599.873 1049.92 599.873 1037.89 599.873 1027.58 595.024 1019 585.325 1010.42 575.626 1006.13 562.097 1006.13 544.738 1006.13 526.984 1010.3 513.487 1018.65 504.249 1027.01 495.01 1037.56 490.391 1050.32 490.391 1062.02 490.391 1072.15 495.257 1080.69 504.989ZM474.294 452.911 502.7 452.911 561.88 549.472 561.88 452.911 589.004 452.911 589.004 597.506 559.71 597.506 501.418 503.213 501.418 597.506 474.294 597.506Z" stroke="#FEFEFE" stroke-width="7" stroke-linecap="butt" stroke-linejoin="round" stroke-miterlimit="10" stroke-opacity="1" fill="#9BBB59" fill-rule="evenodd" fill-opacity="1"/><text fill="#000000" fill-opacity="0" font-family="Arial,Arial_MSFontService,sans-serif" font-size="146.963" direction="ltr" writing-mode="lr-tb" x="474.294" y="581.503">Nace de Nuevo</text></g></svg>