<svg width="1793" height="394" xmlns="http://www.w3.org/2000/svg" xmlns:xlink="http://www.w3.org/1999/xlink" xml:space="preserve" overflow="hidden"><defs><filter id="fx0" x="-10%" y="-10%" width="120%" height="120%" filterUnits="userSpaceOnUse" primitiveUnits="userSpaceOnUse"><feComponentTransfer color-interpolation-filters="sRGB"><feFuncR type="discrete" tableValues="0.000000 0.000000"/><feFuncG type="discrete" tableValues="0.000000 0.000000"/><feFuncB type="discrete" tableValues="0.000000 0.000000"/><feFuncA type="linear" slope="0.400000" intercept="0.000000"/></feComponentTransfer><feGaussianBlur stdDeviation="2.824232 2.824232"/></filter><filter id="fx1" x="-10%" y="-10%" width="120%" height="120%" filterUnits="userSpaceOnUse" primitiveUnits="userSpaceOnUse"><feComponentTransfer color-interpolation-filters="sRGB"><feFuncR type="discrete" tableValues="0.000000 0.000000"/><feFuncG type="discrete" tableValues="0.000000 0.000000"/><feFuncB type="discrete" tableValues="0.000000 0.000000"/><feFuncA type="linear" slope="0.400000" intercept="0.000000"/></feComponentTransfer><feGaussianBlur stdDeviation="2.824232 2.824232"/></filter><filter id="fx2" x="-10%" y="-10%" width="120%" height="120%" filterUnits="userSpaceOnUse" primitiveUnits="userSpaceOnUse"><feComponentTransfer color-interpolation-filters="sRGB"><feFuncR type="discrete" tableValues="0.000000 0.000000"/><feFuncG type="discrete" tableValues="0.000000 0.000000"/><feFuncB type="discrete" tableValues="0.000000 0.000000"/><feFuncA type="linear" slope="0.400000" intercept="0.000000"/></feComponentTransfer><feGaussianBlur stdDeviation="2.824232 2.824232"/></filter><clipPath id="clip3"><rect x="1617" y="1049" width="1793" height="394"/></clipPath><clipPath id="clip4"><rect x="1.3656" y="1.39099" width="1787.82" height="158.107"/></clipPath><clipPath id="clip5"><rect x="0" y="0" width="1790" height="161"/></clipPath><clipPath id="clip6"><rect x="1.55103" y="1.66638" width="93.8662" height="101.618"/></clipPath><clipPath id="clip7"><rect x="0" y="0" width="97" height="105"/></clipPath><clipPath id="clip8"><rect x="1.6897" y="1.59656" width="654.051" height="130.76"/></clipPath><clipPath id="clip9"><rect x="0" y="0" width="657" height="134"/></clipPath></defs><g clip-path="url(#clip3)" transform="translate(-1617 -1049)"><g clip-path="url(#clip4)" filter="url(#fx0)" transform="translate(1618 1098)"><g clip-path="url(#clip5)"><path d="M1323.27 80.9829C1320.68 81.8442 1316.59 82.8731 1310.99 84.0693 1305.39 85.2656 1301.73 86.438 1300.01 87.5864 1297.38 89.4526 1296.06 91.8213 1296.06 94.6924 1296.06 97.5156 1297.12 99.9561 1299.22 102.014 1301.33 104.071 1304.01 105.1 1307.26 105.1 1310.9 105.1 1314.37 103.904 1317.67 101.511 1320.11 99.6929 1321.71 97.4678 1322.48 94.8359 1323 93.1133 1323.27 89.8354 1323.27 85.0024ZM754.36 80.9829C751.776 81.8442 747.685 82.8731 742.086 84.0693 736.488 85.2656 732.827 86.438 731.104 87.5864 728.473 89.4526 727.157 91.8213 727.157 94.6924 727.157 97.5156 728.209 99.9561 730.315 102.014 732.42 104.071 735.1 105.1 738.354 105.1 741.991 105.1 745.46 103.904 748.762 101.511 751.202 99.6929 752.805 97.4678 753.571 94.8359 754.097 93.1133 754.36 89.8354 754.36 85.0024ZM917.696 56.0762C912.433 56.0762 908.006 58.0859 904.418 62.1055 900.829 66.125 899.034 71.915 899.034 79.4756 899.034 87.0361 900.829 92.8262 904.418 96.8457 908.006 100.865 912.433 102.875 917.696 102.875 922.96 102.875 927.374 100.865 930.939 96.8457 934.504 92.8262 936.287 86.9883 936.287 79.332 936.287 71.8672 934.504 66.125 930.939 62.1055 927.374 58.0859 922.96 56.0762 917.696 56.0762ZM1742.9 55.0713C1738.5 55.0713 1734.86 56.6743 1731.99 59.8804 1729.12 63.0864 1727.71 67.4409 1727.76 72.9439L1757.9 72.9439C1757.76 67.106 1756.25 62.6677 1753.38 59.6292 1750.51 56.5906 1747.02 55.0713 1742.9 55.0713ZM1523.47 55.0713C1519.07 55.0713 1515.44 56.6743 1512.56 59.8804 1509.69 63.0864 1508.28 67.4409 1508.33 72.9439L1538.48 72.9439C1538.33 67.106 1536.82 62.6677 1533.95 59.6292 1531.08 56.5906 1527.59 55.0713 1523.47 55.0713ZM826.599 55.0713C821.814 55.0713 817.806 56.9734 814.576 60.7776 811.346 64.5818 809.731 70.2642 809.731 77.8247 809.731 85.9595 810.856 91.8452 813.105 95.4819 816.359 100.746 820.904 103.377 826.742 103.377 831.384 103.377 835.332 101.404 838.586 97.4558 841.839 93.5081 843.466 87.6104 843.466 79.7627 843.466 71.0059 841.887 64.7014 838.729 60.8494 835.571 56.9973 831.527 55.0713 826.599 55.0713ZM319.776 55.0713C315.374 55.0713 311.737 56.6743 308.866 59.8804 305.995 63.0864 304.584 67.4409 304.631 72.9439L334.778 72.9439C334.634 67.106 333.127 62.6677 330.256 59.6292 327.385 56.5906 323.892 55.0713 319.776 55.0713ZM1053.33 41.3618 1073.5 41.3618 1073.5 76.3892C1073.5 87.1079 1073.87 93.6755 1074.61 96.092 1075.35 98.5085 1076.7 100.423 1078.66 101.834 1080.63 103.246 1083.11 103.952 1086.13 103.952 1089.57 103.952 1092.66 103.007 1095.39 101.116 1098.12 99.2263 1099.98 96.8816 1100.99 94.0823 1101.99 91.283 1102.49 84.4282 1102.49 73.5181L1102.49 41.3618 1122.66 41.3618 1122.66 117.589 1103.93 117.589 1103.93 106.177C1101.15 110.244 1097.51 113.45 1092.98 115.795 1088.46 118.14 1083.69 119.312 1078.66 119.312 1073.54 119.312 1068.95 118.188 1064.88 115.938 1060.82 113.689 1057.87 110.531 1056.05 106.464 1054.24 102.396 1053.33 96.7739 1053.33 89.5962ZM1012.65 41.3618 1032.82 41.3618 1032.82 115.221C1032.82 124.935 1032.18 131.789 1030.92 135.785 1029.65 139.781 1027.21 142.903 1023.6 145.152 1019.98 147.401 1015.38 148.525 1009.78 148.525 1007.77 148.525 1005.6 148.346 1003.28 147.987 1000.96 147.628 998.461 147.09 995.782 146.372L999.299 129.146C1000.26 129.337 1001.15 129.492 1001.99 129.612 1002.83 129.732 1003.61 129.792 1004.32 129.792 1006.38 129.792 1008.07 129.349 1009.38 128.464 1010.7 127.578 1011.57 126.514 1012 125.27 1012.43 124.025 1012.65 120.293 1012.65 114.072ZM622.924 41.3618 643.093 41.3618 643.093 117.589 622.924 117.589ZM451.764 41.3618 471.934 41.3618 471.934 76.3892C471.934 87.1079 472.304 93.6755 473.046 96.092 473.788 98.5085 475.14 100.423 477.101 101.834 479.063 103.246 481.552 103.952 484.566 103.952 488.012 103.952 491.098 103.007 493.826 101.116 496.553 99.2263 498.419 96.8816 499.424 94.0823 500.429 91.283 500.931 84.4282 500.932 73.5181L500.932 41.3618 521.101 41.3618 521.101 117.589 502.367 117.589 502.367 106.177C499.592 110.244 495.943 113.45 491.421 115.795 486.899 118.14 482.126 119.312 477.101 119.312 471.981 119.312 467.388 118.188 463.32 115.938 459.253 113.689 456.31 110.531 454.492 106.464 452.673 102.396 451.764 96.7739 451.764 89.5962ZM1741.68 39.6392C1753.02 39.6392 1761.97 43.3836 1768.53 50.8723 1775.08 58.3611 1778.22 69.8335 1777.93 85.2896L1727.4 85.2896C1727.54 91.271 1729.17 95.9246 1732.28 99.2502 1735.39 102.576 1739.26 104.239 1743.91 104.239 1747.06 104.239 1749.72 103.377 1751.87 101.655 1754.03 99.9321 1755.65 97.1567 1756.75 93.3286L1776.85 96.7021C1774.27 104.071 1770.19 109.682 1764.61 113.534 1759.04 117.386 1752.06 119.312 1743.69 119.312 1730.44 119.312 1720.63 114.981 1714.26 106.32 1709.24 99.3818 1706.73 90.625 1706.73 80.0498 1706.73 67.417 1710.03 57.5237 1716.63 50.3699 1723.23 43.2161 1731.58 39.6392 1741.68 39.6392ZM1618.25 39.6392C1622.7 39.6392 1626.77 40.4407 1630.45 42.0437 1634.14 43.6467 1636.92 45.6924 1638.81 48.1807 1640.7 50.669 1642.02 53.4922 1642.76 56.6504 1643.5 59.8086 1643.88 64.3306 1643.88 70.2163L1643.88 117.589 1623.71 117.589 1623.71 78.686C1623.71 70.4556 1623.28 65.1321 1622.41 62.7156 1621.55 60.2991 1620.15 58.4209 1618.21 57.0811 1616.28 55.7412 1613.94 55.0713 1611.22 55.0713 1607.72 55.0713 1604.59 56.0283 1601.81 57.9424 1599.04 59.8565 1597.14 62.3926 1596.11 65.5508 1595.08 68.709 1594.56 74.5469 1594.56 83.0645L1594.56 117.589 1574.39 117.589 1574.39 41.3618 1593.13 41.3618 1593.13 52.5591C1599.78 43.9458 1608.15 39.6392 1618.25 39.6392ZM1522.25 39.6392C1533.59 39.6392 1542.54 43.3836 1549.1 50.8723 1555.65 58.3611 1558.79 69.8335 1558.5 85.2896L1507.97 85.2896C1508.11 91.271 1509.74 95.9246 1512.85 99.2502 1515.96 102.576 1519.84 104.239 1524.48 104.239 1527.64 104.239 1530.29 103.377 1532.45 101.655 1534.6 99.9321 1536.23 97.1567 1537.33 93.3286L1557.42 96.7021C1554.84 104.071 1550.76 109.682 1545.19 113.534 1539.61 117.386 1532.64 119.312 1524.26 119.312 1511.01 119.312 1501.2 114.981 1494.83 106.32 1489.81 99.3818 1487.3 90.625 1487.3 80.0498 1487.3 67.417 1490.6 57.5237 1497.2 50.3699 1503.81 43.2161 1512.16 39.6392 1522.25 39.6392ZM1403.4 39.6392C1408.28 39.6392 1412.52 40.644 1416.1 42.6538 1419.69 44.6636 1422.64 47.7022 1424.93 51.7695 1428.28 47.7022 1431.9 44.6636 1435.77 42.6538 1439.65 40.644 1443.79 39.6392 1448.19 39.6392 1453.79 39.6392 1458.53 40.7756 1462.4 43.0486 1466.28 45.3215 1469.17 48.6592 1471.09 53.0615 1472.47 56.3154 1473.17 61.5791 1473.17 68.8525L1473.17 117.589 1453 117.589 1453 74.0205C1453 66.46 1452.3 61.5791 1450.92 59.3779 1449.05 56.5068 1446.18 55.0713 1442.3 55.0713 1439.48 55.0713 1436.82 55.9326 1434.34 57.6553 1431.85 59.3779 1430.05 61.9021 1428.95 65.2278 1427.85 68.5535 1427.3 73.8052 1427.3 80.9829L1427.3 117.589 1407.13 117.589 1407.13 75.8149C1407.13 68.3979 1406.77 63.6128 1406.06 61.4595 1405.34 59.3062 1404.23 57.7031 1402.72 56.6504 1401.21 55.5977 1399.17 55.0713 1396.58 55.0713 1393.47 55.0713 1390.67 55.9087 1388.18 57.5835 1385.7 59.2583 1383.91 61.6748 1382.84 64.833 1381.76 67.9912 1381.22 73.231 1381.22 80.5522L1381.22 117.589 1361.05 117.589 1361.05 41.3618 1379.64 41.3618 1379.64 51.7695C1386.29 43.6826 1394.21 39.6392 1403.4 39.6392ZM1310.99 39.6392C1319.99 39.6392 1326.69 40.7039 1331.09 42.8333 1335.49 44.9627 1338.59 47.6663 1340.39 50.9441 1342.18 54.2219 1343.08 60.2393 1343.08 68.9961L1342.86 92.5391C1342.86 99.2383 1343.18 104.179 1343.83 107.361 1344.48 110.543 1345.69 113.953 1347.46 117.589L1327.5 117.589C1326.97 116.25 1326.33 114.264 1325.56 111.632 1325.23 110.436 1324.99 109.646 1324.85 109.263 1321.4 112.613 1317.72 115.125 1313.79 116.8 1309.87 118.475 1305.68 119.312 1301.23 119.312 1293.38 119.312 1287.2 117.183 1282.68 112.924 1278.15 108.665 1275.89 103.282 1275.89 96.7739 1275.89 92.4673 1276.92 88.6272 1278.98 85.2537 1281.04 81.8801 1283.92 79.2962 1287.63 77.5017 1291.34 75.7073 1296.68 74.1401 1303.67 72.8003 1313.1 71.0298 1319.63 69.3789 1323.27 67.8477L1323.27 65.8379C1323.27 61.9619 1322.31 59.1985 1320.4 57.5476 1318.48 55.8967 1314.87 55.0713 1309.56 55.0713 1305.97 55.0713 1303.17 55.7771 1301.16 57.1887 1299.15 58.6003 1297.52 61.0767 1296.28 64.6177L1277.97 61.3159C1280.03 53.9468 1283.57 48.4917 1288.6 44.9507 1293.62 41.4097 1301.09 39.6392 1310.99 39.6392ZM1186.84 39.6392C1191.29 39.6392 1195.36 40.4407 1199.05 42.0437 1202.73 43.6467 1205.52 45.6924 1207.41 48.1807 1209.3 50.669 1210.61 53.4922 1211.36 56.6504 1212.1 59.8086 1212.47 64.3306 1212.47 70.2163L1212.47 117.589 1192.3 117.589 1192.3 78.686C1192.3 70.4556 1191.87 65.1321 1191.01 62.7156 1190.15 60.2991 1188.75 58.4209 1186.81 57.0811 1184.87 55.7412 1182.54 55.0713 1179.81 55.0713 1176.32 55.0713 1173.18 56.0283 1170.41 57.9424 1167.63 59.8565 1165.73 62.3926 1164.7 65.5508 1163.67 68.709 1163.16 74.5469 1163.16 83.0645L1163.16 117.589 1142.99 117.589 1142.99 41.3618 1161.72 41.3618 1161.72 52.5591C1168.37 43.9458 1176.75 39.6392 1186.84 39.6392ZM917.625 39.6392C929.157 39.6392 938.607 43.3836 945.977 50.8723 953.346 58.3611 957.03 67.8237 957.03 79.2603 957.03 90.7925 953.31 100.351 945.869 107.935 938.428 115.52 929.061 119.312 917.768 119.312 910.782 119.312 904.118 117.733 897.778 114.575 891.438 111.417 886.617 106.787 883.315 100.686 880.013 94.5847 878.362 87.1558 878.362 78.3989 878.362 71.6997 880.013 65.2158 883.315 58.9473 886.617 52.6787 891.294 47.8936 897.348 44.5918 903.401 41.29 910.16 39.6392 917.625 39.6392ZM742.086 39.6392C751.083 39.6392 757.782 40.7039 762.184 42.8333 766.586 44.9627 769.685 47.6663 771.479 50.9441 773.274 54.2219 774.171 60.2393 774.171 68.9961L773.956 92.5391C773.956 99.2383 774.279 104.179 774.925 107.361 775.57 110.543 776.779 113.953 778.549 117.589L758.595 117.589C758.069 116.25 757.423 114.264 756.657 111.632 756.322 110.436 756.083 109.646 755.939 109.263 752.494 112.613 748.81 115.125 744.886 116.8 740.962 118.475 736.775 119.312 732.325 119.312 724.477 119.312 718.292 117.183 713.77 112.924 709.248 108.665 706.987 103.282 706.987 96.7739 706.987 92.4673 708.016 88.6272 710.074 85.2537 712.131 81.8801 715.014 79.2962 718.723 77.5017 722.431 75.7073 727.779 74.1401 734.765 72.8003 744.192 71.0298 750.724 69.3789 754.36 67.8477L754.36 65.8379C754.36 61.9619 753.403 59.1985 751.489 57.5476 749.575 55.8967 745.962 55.0713 740.651 55.0713 737.062 55.0713 734.263 55.7771 732.253 57.1887 730.243 58.6003 728.616 61.0767 727.372 64.6177L709.069 61.3159C711.126 53.9468 714.667 48.4917 719.692 44.9507 724.716 41.4097 732.181 39.6392 742.086 39.6392ZM574.085 39.6392C583.368 39.6392 590.749 41.637 596.228 45.6326 601.707 49.6282 605.643 55.7173 608.035 63.8999L588.153 67.4888C587.483 63.5171 585.964 60.5264 583.595 58.5166 581.227 56.5068 578.152 55.502 574.372 55.502 569.347 55.502 565.34 57.2366 562.349 60.7058 559.358 64.1751 557.863 69.9771 557.863 78.1118 557.863 87.1558 559.382 93.5439 562.421 97.2764 565.46 101.009 569.539 102.875 574.659 102.875 578.487 102.875 581.621 101.786 584.062 99.6091 586.502 97.4319 588.225 93.6875 589.23 88.376L609.04 91.7495C606.983 100.841 603.035 107.708 597.197 112.35 591.359 116.991 583.535 119.312 573.726 119.312 562.577 119.312 553.688 115.795 547.061 108.761 540.433 101.727 537.12 91.9888 537.12 79.5474 537.12 66.9624 540.445 57.1648 547.097 50.1545 553.748 43.1443 562.744 39.6392 574.085 39.6392ZM398.618 39.6392C409.05 39.6392 416.802 41.3379 421.874 44.7354 426.947 48.1328 430.44 53.1572 432.354 59.8086L413.333 63.3257C412.519 60.3589 410.976 58.0859 408.703 56.5068 406.43 54.9277 403.188 54.1382 398.977 54.1382 393.666 54.1382 389.862 54.8799 387.565 56.3633 386.033 57.416 385.268 58.7798 385.268 60.4546 385.268 61.8901 385.938 63.1104 387.278 64.1152 389.096 65.4551 395.376 67.3452 406.119 69.7856 416.862 72.2261 424.363 75.2168 428.621 78.7578 432.832 82.3467 434.938 87.3472 434.938 93.7593 434.938 100.746 432.019 106.751 426.181 111.775 420.343 116.8 411.706 119.312 400.269 119.312 389.885 119.312 381.667 117.207 375.614 112.996 369.561 108.785 365.601 103.066 363.735 95.8408L383.976 92.7544C384.837 96.6782 386.584 99.657 389.216 101.691 391.847 103.724 395.532 104.741 400.269 104.741 405.485 104.741 409.409 103.784 412.041 101.87 413.811 100.53 414.697 98.7358 414.697 96.4868 414.697 94.9556 414.218 93.6875 413.261 92.6826 412.256 91.7256 410.007 90.8403 406.514 90.0269 390.244 86.438 379.932 83.1602 375.578 80.1934 369.549 76.0781 366.534 70.3599 366.534 63.0386 366.534 56.4351 369.142 50.8843 374.358 46.3862 379.573 41.8882 387.66 39.6392 398.618 39.6392ZM318.556 39.6392C329.897 39.6392 338.845 43.3836 345.401 50.8723 351.957 58.3611 355.091 69.8335 354.804 85.2896L304.273 85.2896C304.416 91.271 306.043 95.9246 309.153 99.2502 312.264 102.576 316.14 104.239 320.781 104.239 323.94 104.239 326.595 103.377 328.749 101.655 330.902 99.9321 332.529 97.1567 333.629 93.3286L353.727 96.7021C351.143 104.071 347.064 109.682 341.489 113.534 335.914 117.386 328.94 119.312 320.566 119.312 307.311 119.312 297.502 114.981 291.137 106.32 286.113 99.3818 283.601 90.625 283.601 80.0498 283.601 67.417 286.902 57.5237 293.506 50.3699 300.109 43.2161 308.46 39.6392 318.556 39.6392ZM267.437 39.6392C272.031 39.6392 276.457 40.9072 280.716 43.4434L274.472 61.0288C271.074 58.8276 267.916 57.7271 264.997 57.7271 262.174 57.7271 259.781 58.5047 257.819 60.0598 255.857 61.615 254.314 64.4263 253.19 68.4937 252.065 72.561 251.503 81.0786 251.503 94.0464L251.503 117.589 231.333 117.589 231.333 41.3618 250.067 41.3618 250.067 52.2002C253.273 47.0801 256.156 43.7066 258.716 42.0796 261.276 40.4526 264.183 39.6392 267.437 39.6392ZM137.941 39.6392C148.373 39.6392 156.125 41.3379 161.197 44.7354 166.269 48.1328 169.763 53.1572 171.677 59.8086L152.656 63.3257C151.842 60.3589 150.299 58.0859 148.026 56.5068 145.753 54.9277 142.511 54.1382 138.3 54.1382 132.989 54.1382 129.184 54.8799 126.888 56.3633 125.356 57.416 124.591 58.7798 124.591 60.4546 124.591 61.8901 125.261 63.1104 126.6 64.1152 128.419 65.4551 134.699 67.3452 145.442 69.7856 156.185 72.2261 163.685 75.2168 167.944 78.7578 172.155 82.3467 174.261 87.3472 174.261 93.7593 174.261 100.746 171.342 106.751 165.504 111.775 159.666 116.8 151.029 119.312 139.592 119.312 129.208 119.312 120.99 117.207 114.937 112.996 108.883 108.785 104.924 103.066 103.058 95.8408L123.299 92.7544C124.16 96.6782 125.907 99.657 128.538 101.691 131.17 103.724 134.855 104.741 139.592 104.741 144.808 104.741 148.732 103.784 151.364 101.87 153.134 100.53 154.019 98.7358 154.019 96.4868 154.019 94.9556 153.541 93.6875 152.584 92.6826 151.579 91.7256 149.33 90.8403 145.837 90.0269 129.567 86.438 119.255 83.1602 114.901 80.1934 108.871 76.0781 105.857 70.3599 105.857 63.0386 105.857 56.4351 108.465 50.8843 113.681 46.3862 118.896 41.8882 126.983 39.6392 137.941 39.6392ZM1685.09 14.4453 1685.09 41.3618 1698.87 41.3618 1698.87 57.4399 1685.09 57.4399 1685.09 88.1606C1685.09 94.3813 1685.22 98.0061 1685.48 99.0349 1685.75 100.064 1686.34 100.913 1687.28 101.583 1688.21 102.253 1689.35 102.588 1690.69 102.588 1692.55 102.588 1695.26 101.942 1698.8 100.65L1700.52 116.297C1695.83 118.307 1690.52 119.312 1684.59 119.312 1680.95 119.312 1677.67 118.702 1674.75 117.482 1671.83 116.261 1669.69 114.682 1668.33 112.744 1666.96 110.806 1666.02 108.187 1665.49 104.885 1665.06 102.54 1664.85 97.8027 1664.85 90.6729L1664.85 57.4399 1655.59 57.4399 1655.59 41.3618 1664.85 41.3618 1664.85 26.2168ZM1253.68 14.4453 1253.68 41.3618 1267.46 41.3618 1267.46 57.4399 1253.68 57.4399 1253.68 88.1606C1253.68 94.3813 1253.81 98.0061 1254.08 99.0349 1254.34 100.064 1254.94 100.913 1255.87 101.583 1256.8 102.253 1257.94 102.588 1259.28 102.588 1261.15 102.588 1263.85 101.942 1267.39 100.65L1269.11 116.297C1264.42 118.307 1259.11 119.312 1253.18 119.312 1249.54 119.312 1246.26 118.702 1243.35 117.482 1240.43 116.261 1238.29 114.682 1236.92 112.744 1235.56 110.806 1234.61 108.187 1234.09 104.885 1233.66 102.54 1233.44 97.8027 1233.44 90.6729L1233.44 57.4399 1224.18 57.4399 1224.18 41.3618 1233.44 41.3618 1233.44 26.2168ZM684.775 14.4453 684.775 41.3618 698.556 41.3618 698.556 57.4399 684.775 57.4399 684.775 88.1606C684.775 94.3813 684.907 98.0061 685.17 99.0349 685.433 100.064 686.031 100.913 686.964 101.583 687.898 102.253 689.034 102.588 690.374 102.588 692.24 102.588 694.944 101.942 698.485 100.65L700.207 116.297C695.518 118.307 690.206 119.312 684.273 119.312 680.636 119.312 677.358 118.702 674.439 117.482 671.52 116.261 669.379 114.682 668.015 112.744 666.651 110.806 665.706 108.187 665.18 104.885 664.749 102.54 664.534 97.8027 664.534 90.6729L664.534 57.4399 655.275 57.4399 655.275 41.3618 664.534 41.3618 664.534 26.2168ZM1012.65 12.3638 1032.82 12.3638 1032.82 31.0259 1012.65 31.0259ZM843.395 12.3638 863.564 12.3638 863.564 117.589 844.83 117.589 844.83 106.392C841.72 110.747 838.047 113.989 833.812 116.118 829.578 118.247 825.307 119.312 821 119.312 812.243 119.312 804.743 115.783 798.498 108.725 792.253 101.667 789.131 91.8213 789.131 79.1885 789.131 66.2686 792.17 56.447 798.247 49.7239 804.324 43.0007 812.004 39.6392 821.287 39.6392 829.805 39.6392 837.174 43.1802 843.395 50.2622ZM622.924 12.3638 643.093 12.3638 643.093 31.0259 622.924 31.0259ZM12.3383 12.3638 90.3602 12.3638 90.3602 30.1646 33.5844 30.1646 33.5844 53.4922 86.4125 53.4922 86.4125 71.2212 33.5844 71.2212 33.5844 99.8604 92.37 99.8604 92.37 117.589 12.3383 117.589Z" stroke="#054697" stroke-width="5" stroke-linecap="butt" stroke-linejoin="round" stroke-miterlimit="10" stroke-opacity="1" fill="#F4F1E3" fill-rule="evenodd" fill-opacity="1"/></g></g><path d="M2937.58 1176.85C2934.99 1177.71 2930.9 1178.74 2925.3 1179.94 2919.7 1181.14 2916.04 1182.31 2914.32 1183.46 2911.69 1185.32 2910.37 1187.69 2910.37 1190.56 2910.37 1193.39 2911.43 1195.83 2913.53 1197.88 2915.64 1199.94 2918.32 1200.97 2921.57 1200.97 2925.21 1200.97 2928.68 1199.77 2931.98 1197.38 2934.42 1195.56 2936.02 1193.34 2936.79 1190.71 2937.31 1188.98 2937.58 1185.7 2937.58 1180.87ZM2368.67 1176.85C2366.09 1177.71 2361.99 1178.74 2356.4 1179.94 2350.8 1181.14 2347.14 1182.31 2345.41 1183.46 2342.78 1185.32 2341.47 1187.69 2341.47 1190.56 2341.47 1193.39 2342.52 1195.83 2344.62 1197.88 2346.73 1199.94 2349.41 1200.97 2352.66 1200.97 2356.3 1200.97 2359.77 1199.77 2363.07 1197.38 2365.51 1195.56 2367.11 1193.34 2367.88 1190.71 2368.41 1188.98 2368.67 1185.7 2368.67 1180.87ZM2532.01 1151.95C2526.74 1151.95 2522.32 1153.96 2518.73 1157.97 2515.14 1161.99 2513.34 1167.78 2513.34 1175.34 2513.34 1182.91 2515.14 1188.7 2518.73 1192.72 2522.32 1196.73 2526.74 1198.74 2532.01 1198.74 2537.27 1198.74 2541.68 1196.73 2545.25 1192.72 2548.81 1188.7 2550.6 1182.86 2550.6 1175.2 2550.6 1167.74 2548.81 1161.99 2545.25 1157.97 2541.68 1153.96 2537.27 1151.95 2532.01 1151.95ZM3357.21 1150.94C3352.81 1150.94 3349.17 1152.54 3346.3 1155.75 3343.43 1158.96 3342.02 1163.31 3342.07 1168.81L3372.21 1168.81C3372.07 1162.98 3370.56 1158.54 3367.69 1155.5 3364.82 1152.46 3361.33 1150.94 3357.21 1150.94ZM3137.78 1150.94C3133.38 1150.94 3129.74 1152.54 3126.87 1155.75 3124 1158.96 3122.59 1163.31 3122.64 1168.81L3152.79 1168.81C3152.64 1162.98 3151.13 1158.54 3148.26 1155.5 3145.39 1152.46 3141.9 1150.94 3137.78 1150.94ZM2440.91 1150.94C2436.12 1150.94 2432.12 1152.84 2428.89 1156.65 2425.66 1160.45 2424.04 1166.13 2424.04 1173.69 2424.04 1181.83 2425.17 1187.71 2427.41 1191.35 2430.67 1196.61 2435.21 1199.25 2441.05 1199.25 2445.69 1199.25 2449.64 1197.27 2452.9 1193.33 2456.15 1189.38 2457.78 1183.48 2457.78 1175.63 2457.78 1166.88 2456.2 1160.57 2453.04 1156.72 2449.88 1152.87 2445.84 1150.94 2440.91 1150.94ZM1934.09 1150.94C1929.68 1150.94 1926.05 1152.54 1923.18 1155.75 1920.3 1158.96 1918.89 1163.31 1918.94 1168.81L1949.09 1168.81C1948.94 1162.98 1947.44 1158.54 1944.57 1155.5 1941.69 1152.46 1938.2 1150.94 1934.09 1150.94ZM2667.64 1137.23 2687.81 1137.23 2687.81 1172.26C2687.81 1182.98 2688.18 1189.54 2688.92 1191.96 2689.66 1194.38 2691.01 1196.29 2692.97 1197.7 2694.94 1199.12 2697.42 1199.82 2700.44 1199.82 2703.88 1199.82 2706.97 1198.88 2709.7 1196.99 2712.43 1195.1 2714.29 1192.75 2715.3 1189.95 2716.3 1187.15 2716.8 1180.3 2716.8 1169.39L2716.8 1137.23 2736.97 1137.23 2736.97 1213.46 2718.24 1213.46 2718.24 1202.05C2715.46 1206.11 2711.81 1209.32 2707.29 1211.66 2702.77 1214.01 2698 1215.18 2692.97 1215.18 2687.85 1215.18 2683.26 1214.06 2679.19 1211.81 2675.12 1209.56 2672.18 1206.4 2670.36 1202.33 2668.55 1198.27 2667.64 1192.64 2667.64 1185.47ZM2626.96 1137.23 2647.13 1137.23 2647.13 1211.09C2647.13 1220.8 2646.49 1227.66 2645.23 1231.65 2643.96 1235.65 2641.52 1238.77 2637.91 1241.02 2634.29 1243.27 2629.69 1244.39 2624.09 1244.39 2622.08 1244.39 2619.91 1244.22 2617.59 1243.86 2615.27 1243.5 2612.77 1242.96 2610.09 1242.24L2613.61 1225.01C2614.57 1225.21 2615.46 1225.36 2616.3 1225.48 2617.14 1225.6 2617.92 1225.66 2618.63 1225.66 2620.69 1225.66 2622.38 1225.22 2623.69 1224.33 2625.01 1223.45 2625.88 1222.38 2626.31 1221.14 2626.74 1219.89 2626.96 1216.16 2626.96 1209.94ZM2237.23 1137.23 2257.4 1137.23 2257.4 1213.46 2237.23 1213.46ZM2066.07 1137.23 2086.24 1137.23 2086.24 1172.26C2086.24 1182.98 2086.61 1189.54 2087.36 1191.96 2088.1 1194.38 2089.45 1196.29 2091.41 1197.7 2093.37 1199.12 2095.86 1199.82 2098.88 1199.82 2102.32 1199.82 2105.41 1198.88 2108.14 1196.99 2110.86 1195.1 2112.73 1192.75 2113.73 1189.95 2114.74 1187.15 2115.24 1180.3 2115.24 1169.39L2115.24 1137.23 2135.41 1137.23 2135.41 1213.46 2116.68 1213.46 2116.68 1202.05C2113.9 1206.11 2110.25 1209.32 2105.73 1211.66 2101.21 1214.01 2096.44 1215.18 2091.41 1215.18 2086.29 1215.18 2081.7 1214.06 2077.63 1211.81 2073.56 1209.56 2070.62 1206.4 2068.8 1202.33 2066.98 1198.27 2066.07 1192.64 2066.07 1185.47ZM3355.99 1135.51C3367.33 1135.51 3376.28 1139.25 3382.84 1146.74 3389.39 1154.23 3392.53 1165.7 3392.24 1181.16L3341.71 1181.16C3341.85 1187.14 3343.48 1191.79 3346.59 1195.12 3349.7 1198.45 3353.57 1200.11 3358.22 1200.11 3361.37 1200.11 3364.03 1199.25 3366.18 1197.52 3368.34 1195.8 3369.96 1193.03 3371.06 1189.2L3391.16 1192.57C3388.58 1199.94 3384.5 1205.55 3378.92 1209.4 3373.35 1213.26 3366.37 1215.18 3358 1215.18 3344.75 1215.18 3334.94 1210.85 3328.57 1202.19 3323.55 1195.25 3321.04 1186.49 3321.04 1175.92 3321.04 1163.29 3324.34 1153.39 3330.94 1146.24 3337.54 1139.09 3345.89 1135.51 3355.99 1135.51ZM3232.56 1135.51C3237.01 1135.51 3241.08 1136.31 3244.76 1137.91 3248.45 1139.52 3251.23 1141.56 3253.12 1144.05 3255.01 1146.54 3256.33 1149.36 3257.07 1152.52 3257.81 1155.68 3258.18 1160.2 3258.18 1166.09L3258.18 1213.46 3238.02 1213.46 3238.02 1174.56C3238.02 1166.32 3237.58 1161 3236.72 1158.58 3235.86 1156.17 3234.46 1154.29 3232.52 1152.95 3230.59 1151.61 3228.25 1150.94 3225.53 1150.94 3222.03 1150.94 3218.9 1151.9 3216.12 1153.81 3213.35 1155.73 3211.45 1158.26 3210.42 1161.42 3209.39 1164.58 3208.87 1170.42 3208.87 1178.93L3208.87 1213.46 3188.7 1213.46 3188.7 1137.23 3207.44 1137.23 3207.44 1148.43C3214.09 1139.82 3222.46 1135.51 3232.56 1135.51ZM3136.56 1135.51C3147.9 1135.51 3156.85 1139.25 3163.41 1146.74 3169.96 1154.23 3173.1 1165.7 3172.81 1181.16L3122.28 1181.16C3122.42 1187.14 3124.05 1191.79 3127.16 1195.12 3130.27 1198.45 3134.15 1200.11 3138.79 1200.11 3141.95 1200.11 3144.6 1199.25 3146.76 1197.52 3148.91 1195.8 3150.54 1193.03 3151.64 1189.2L3171.73 1192.57C3169.15 1199.94 3165.07 1205.55 3159.5 1209.4 3153.92 1213.26 3146.95 1215.18 3138.57 1215.18 3125.32 1215.18 3115.51 1210.85 3109.14 1202.19 3104.12 1195.25 3101.61 1186.49 3101.61 1175.92 3101.61 1163.29 3104.91 1153.39 3111.51 1146.24 3118.12 1139.09 3126.47 1135.51 3136.56 1135.51ZM3017.71 1135.51C3022.59 1135.51 3026.83 1136.51 3030.41 1138.52 3034 1140.53 3036.95 1143.57 3039.24 1147.64 3042.59 1143.57 3046.21 1140.53 3050.08 1138.52 3053.96 1136.51 3058.1 1135.51 3062.5 1135.51 3068.1 1135.51 3072.84 1136.65 3076.71 1138.92 3080.59 1141.19 3083.48 1144.53 3085.4 1148.93 3086.78 1152.18 3087.48 1157.45 3087.48 1164.72L3087.48 1213.46 3067.31 1213.46 3067.31 1169.89C3067.31 1162.33 3066.61 1157.45 3065.23 1155.25 3063.36 1152.38 3060.49 1150.94 3056.61 1150.94 3053.79 1150.94 3051.13 1151.8 3048.65 1153.52 3046.16 1155.25 3044.36 1157.77 3043.26 1161.1 3042.16 1164.42 3041.61 1169.67 3041.61 1176.85L3041.61 1213.46 3021.44 1213.46 3021.44 1171.68C3021.44 1164.27 3021.08 1159.48 3020.37 1157.33 3019.65 1155.18 3018.54 1153.57 3017.03 1152.52 3015.52 1151.47 3013.48 1150.94 3010.89 1150.94 3007.78 1150.94 3004.98 1151.78 3002.49 1153.45 3000.01 1155.13 2998.22 1157.54 2997.15 1160.7 2996.07 1163.86 2995.53 1169.1 2995.53 1176.42L2995.53 1213.46 2975.36 1213.46 2975.36 1137.23 2993.95 1137.23 2993.95 1147.64C3000.6 1139.55 3008.52 1135.51 3017.71 1135.51ZM2925.3 1135.51C2934.3 1135.51 2941 1136.57 2945.4 1138.7 2949.8 1140.83 2952.9 1143.54 2954.7 1146.81 2956.49 1150.09 2957.39 1156.11 2957.39 1164.87L2957.17 1188.41C2957.17 1195.11 2957.49 1200.05 2958.14 1203.23 2958.79 1206.41 2959.99 1209.82 2961.77 1213.46L2941.81 1213.46C2941.28 1212.12 2940.64 1210.13 2939.87 1207.5 2939.54 1206.3 2939.3 1205.52 2939.16 1205.13 2935.71 1208.48 2932.03 1210.99 2928.1 1212.67 2924.18 1214.34 2919.99 1215.18 2915.54 1215.18 2907.69 1215.18 2901.51 1213.05 2896.99 1208.79 2892.46 1204.53 2890.2 1199.15 2890.2 1192.64 2890.2 1188.34 2891.23 1184.5 2893.29 1181.12 2895.35 1177.75 2898.23 1175.17 2901.94 1173.37 2905.65 1171.58 2910.99 1170.01 2917.98 1168.67 2927.41 1166.9 2933.94 1165.25 2937.58 1163.72L2937.58 1161.71C2937.58 1157.83 2936.62 1155.07 2934.71 1153.42 2932.79 1151.77 2929.18 1150.94 2923.87 1150.94 2920.28 1150.94 2917.48 1151.65 2915.47 1153.06 2913.46 1154.47 2911.83 1156.95 2910.59 1160.49L2892.28 1157.19C2894.34 1149.82 2897.88 1144.36 2902.91 1140.82 2907.93 1137.28 2915.4 1135.51 2925.3 1135.51ZM2801.15 1135.51C2805.6 1135.51 2809.67 1136.31 2813.36 1137.91 2817.04 1139.52 2819.83 1141.56 2821.72 1144.05 2823.61 1146.54 2824.92 1149.36 2825.67 1152.52 2826.41 1155.68 2826.78 1160.2 2826.78 1166.09L2826.78 1213.46 2806.61 1213.46 2806.61 1174.56C2806.61 1166.32 2806.18 1161 2805.32 1158.58 2804.46 1156.17 2803.06 1154.29 2801.12 1152.95 2799.18 1151.61 2796.85 1150.94 2794.12 1150.94 2790.63 1150.94 2787.49 1151.9 2784.72 1153.81 2781.94 1155.73 2780.04 1158.26 2779.01 1161.42 2777.98 1164.58 2777.47 1170.42 2777.47 1178.93L2777.47 1213.46 2757.3 1213.46 2757.3 1137.23 2776.03 1137.23 2776.03 1148.43C2782.68 1139.82 2791.06 1135.51 2801.15 1135.51ZM2531.93 1135.51C2543.47 1135.51 2552.92 1139.25 2560.29 1146.74 2567.66 1154.23 2571.34 1163.69 2571.34 1175.13 2571.34 1186.66 2567.62 1196.22 2560.18 1203.8 2552.74 1211.39 2543.37 1215.18 2532.08 1215.18 2525.09 1215.18 2518.43 1213.6 2512.09 1210.44 2505.75 1207.29 2500.93 1202.66 2497.62 1196.56 2494.32 1190.45 2492.67 1183.03 2492.67 1174.27 2492.67 1167.57 2494.32 1161.09 2497.62 1154.82 2500.93 1148.55 2505.6 1143.76 2511.66 1140.46 2517.71 1137.16 2524.47 1135.51 2531.93 1135.51ZM2356.4 1135.51C2365.39 1135.51 2372.09 1136.57 2376.49 1138.7 2380.9 1140.83 2383.99 1143.54 2385.79 1146.81 2387.58 1150.09 2388.48 1156.11 2388.48 1164.87L2388.27 1188.41C2388.27 1195.11 2388.59 1200.05 2389.23 1203.23 2389.88 1206.41 2391.09 1209.82 2392.86 1213.46L2372.9 1213.46C2372.38 1212.12 2371.73 1210.13 2370.97 1207.5 2370.63 1206.3 2370.39 1205.52 2370.25 1205.13 2366.8 1208.48 2363.12 1210.99 2359.2 1212.67 2355.27 1214.34 2351.08 1215.18 2346.63 1215.18 2338.79 1215.18 2332.6 1213.05 2328.08 1208.79 2323.56 1204.53 2321.3 1199.15 2321.3 1192.64 2321.3 1188.34 2322.33 1184.5 2324.38 1181.12 2326.44 1177.75 2329.32 1175.17 2333.03 1173.37 2336.74 1171.58 2342.09 1170.01 2349.07 1168.67 2358.5 1166.9 2365.03 1165.25 2368.67 1163.72L2368.67 1161.71C2368.67 1157.83 2367.71 1155.07 2365.8 1153.42 2363.88 1151.77 2360.27 1150.94 2354.96 1150.94 2351.37 1150.94 2348.57 1151.65 2346.56 1153.06 2344.55 1154.47 2342.93 1156.95 2341.68 1160.49L2323.38 1157.19C2325.44 1149.82 2328.98 1144.36 2334 1140.82 2339.03 1137.28 2346.49 1135.51 2356.4 1135.51ZM2188.39 1135.51C2197.68 1135.51 2205.06 1137.51 2210.54 1141.5 2216.02 1145.5 2219.95 1151.59 2222.35 1159.77L2202.46 1163.36C2201.79 1159.39 2200.27 1156.4 2197.91 1154.39 2195.54 1152.38 2192.46 1151.37 2188.68 1151.37 2183.66 1151.37 2179.65 1153.11 2176.66 1156.58 2173.67 1160.04 2172.17 1165.85 2172.17 1173.98 2172.17 1183.03 2173.69 1189.41 2176.73 1193.15 2179.77 1196.88 2183.85 1198.74 2188.97 1198.74 2192.8 1198.74 2195.93 1197.66 2198.37 1195.48 2200.81 1193.3 2202.53 1189.56 2203.54 1184.25L2223.35 1187.62C2221.29 1196.71 2217.34 1203.58 2211.51 1208.22 2205.67 1212.86 2197.85 1215.18 2188.04 1215.18 2176.89 1215.18 2168 1211.66 2161.37 1204.63 2154.74 1197.6 2151.43 1187.86 2151.43 1175.42 2151.43 1162.83 2154.75 1153.03 2161.41 1146.02 2168.06 1139.01 2177.05 1135.51 2188.39 1135.51ZM2012.93 1135.51C2023.36 1135.51 2031.11 1137.21 2036.18 1140.6 2041.26 1144 2044.75 1149.03 2046.66 1155.68L2027.64 1159.2C2026.83 1156.23 2025.29 1153.96 2023.01 1152.38 2020.74 1150.8 2017.5 1150.01 2013.29 1150.01 2007.98 1150.01 2004.17 1150.75 2001.87 1152.23 2000.34 1153.29 1999.58 1154.65 1999.58 1156.32 1999.58 1157.76 2000.25 1158.98 2001.59 1159.98 2003.41 1161.32 2009.69 1163.21 2020.43 1165.66 2031.17 1168.1 2038.67 1171.09 2042.93 1174.63 2047.14 1178.22 2049.25 1183.22 2049.25 1189.63 2049.25 1196.61 2046.33 1202.62 2040.49 1207.64 2034.65 1212.67 2026.02 1215.18 2014.58 1215.18 2004.2 1215.18 1995.98 1213.08 1989.92 1208.86 1983.87 1204.65 1979.91 1198.94 1978.04 1191.71L1998.29 1188.62C1999.15 1192.55 2000.89 1195.53 2003.53 1197.56 2006.16 1199.59 2009.84 1200.61 2014.58 1200.61 2019.79 1200.61 2023.72 1199.65 2026.35 1197.74 2028.12 1196.4 2029.01 1194.61 2029.01 1192.36 2029.01 1190.82 2028.53 1189.56 2027.57 1188.55 2026.57 1187.59 2024.32 1186.71 2020.82 1185.9 2004.55 1182.31 1994.24 1179.03 1989.89 1176.06 1983.86 1171.95 1980.84 1166.23 1980.84 1158.91 1980.84 1152.3 1983.45 1146.75 1988.67 1142.26 1993.88 1137.76 2001.97 1135.51 2012.93 1135.51ZM1932.87 1135.51C1944.21 1135.51 1953.16 1139.25 1959.71 1146.74 1966.27 1154.23 1969.4 1165.7 1969.11 1181.16L1918.58 1181.16C1918.73 1187.14 1920.35 1191.79 1923.46 1195.12 1926.57 1198.45 1930.45 1200.11 1935.09 1200.11 1938.25 1200.11 1940.91 1199.25 1943.06 1197.52 1945.21 1195.8 1946.84 1193.03 1947.94 1189.2L1968.04 1192.57C1965.45 1199.94 1961.37 1205.55 1955.8 1209.4 1950.22 1213.26 1943.25 1215.18 1934.88 1215.18 1921.62 1215.18 1911.81 1210.85 1905.45 1202.19 1900.42 1195.25 1897.91 1186.49 1897.91 1175.92 1897.91 1163.29 1901.21 1153.39 1907.82 1146.24 1914.42 1139.09 1922.77 1135.51 1932.87 1135.51ZM1881.75 1135.51C1886.34 1135.51 1890.77 1136.78 1895.03 1139.31L1888.78 1156.9C1885.38 1154.7 1882.23 1153.6 1879.31 1153.6 1876.48 1153.6 1874.09 1154.37 1872.13 1155.93 1870.17 1157.48 1868.62 1160.3 1867.5 1164.36 1866.37 1168.43 1865.81 1176.95 1865.81 1189.92L1865.81 1213.46 1845.64 1213.46 1845.64 1137.23 1864.38 1137.23 1864.38 1148.07C1867.58 1142.95 1870.47 1139.58 1873.03 1137.95 1875.59 1136.32 1878.49 1135.51 1881.75 1135.51ZM1752.25 1135.51C1762.68 1135.51 1770.43 1137.21 1775.51 1140.6 1780.58 1144 1784.07 1149.03 1785.99 1155.68L1766.97 1159.2C1766.15 1156.23 1764.61 1153.96 1762.34 1152.38 1760.06 1150.8 1756.82 1150.01 1752.61 1150.01 1747.3 1150.01 1743.49 1150.75 1741.2 1152.23 1739.67 1153.29 1738.9 1154.65 1738.9 1156.32 1738.9 1157.76 1739.57 1158.98 1740.91 1159.98 1742.73 1161.32 1749.01 1163.21 1759.75 1165.66 1770.49 1168.1 1778 1171.09 1782.25 1174.63 1786.46 1178.22 1788.57 1183.22 1788.57 1189.63 1788.57 1196.61 1785.65 1202.62 1779.81 1207.64 1773.98 1212.67 1765.34 1215.18 1753.9 1215.18 1743.52 1215.18 1735.3 1213.08 1729.25 1208.86 1723.19 1204.65 1719.23 1198.94 1717.37 1191.71L1737.61 1188.62C1738.47 1192.55 1740.22 1195.53 1742.85 1197.56 1745.48 1199.59 1749.16 1200.61 1753.9 1200.61 1759.12 1200.61 1763.04 1199.65 1765.67 1197.74 1767.44 1196.4 1768.33 1194.61 1768.33 1192.36 1768.33 1190.82 1767.85 1189.56 1766.89 1188.55 1765.89 1187.59 1763.64 1186.71 1760.15 1185.9 1743.88 1182.31 1733.56 1179.03 1729.21 1176.06 1723.18 1171.95 1720.17 1166.23 1720.17 1158.91 1720.17 1152.3 1722.77 1146.75 1727.99 1142.26 1733.21 1137.76 1741.29 1135.51 1752.25 1135.51ZM3299.4 1110.31 3299.4 1137.23 3313.18 1137.23 3313.18 1153.31 3299.4 1153.31 3299.4 1184.03C3299.4 1190.25 3299.53 1193.88 3299.79 1194.9 3300.06 1195.93 3300.65 1196.78 3301.59 1197.45 3302.52 1198.12 3303.66 1198.46 3305 1198.46 3306.86 1198.46 3309.57 1197.81 3313.11 1196.52L3314.83 1212.17C3310.14 1214.18 3304.83 1215.18 3298.89 1215.18 3295.26 1215.18 3291.98 1214.57 3289.06 1213.35 3286.14 1212.13 3284 1210.55 3282.64 1208.61 3281.27 1206.68 3280.33 1204.06 3279.8 1200.75 3279.37 1198.41 3279.16 1193.67 3279.16 1186.54L3279.16 1153.31 3269.9 1153.31 3269.9 1137.23 3279.16 1137.23 3279.16 1122.09ZM2867.99 1110.31 2867.99 1137.23 2881.77 1137.23 2881.77 1153.31 2867.99 1153.31 2867.99 1184.03C2867.99 1190.25 2868.12 1193.88 2868.39 1194.9 2868.65 1195.93 2869.25 1196.78 2870.18 1197.45 2871.11 1198.12 2872.25 1198.46 2873.59 1198.46 2875.46 1198.46 2878.16 1197.81 2881.7 1196.52L2883.42 1212.17C2878.73 1214.18 2873.42 1215.18 2867.49 1215.18 2863.85 1215.18 2860.57 1214.57 2857.66 1213.35 2854.74 1212.13 2852.59 1210.55 2851.23 1208.61 2849.87 1206.68 2848.92 1204.06 2848.4 1200.75 2847.97 1198.41 2847.75 1193.67 2847.75 1186.54L2847.75 1153.31 2838.49 1153.31 2838.49 1137.23 2847.75 1137.23 2847.75 1122.09ZM2299.08 1110.31 2299.08 1137.23 2312.87 1137.23 2312.87 1153.31 2299.08 1153.31 2299.08 1184.03C2299.08 1190.25 2299.22 1193.88 2299.48 1194.9 2299.74 1195.93 2300.34 1196.78 2301.27 1197.45 2302.21 1198.12 2303.34 1198.46 2304.68 1198.46 2306.55 1198.46 2309.25 1197.81 2312.79 1196.52L2314.52 1212.17C2309.83 1214.18 2304.52 1215.18 2298.58 1215.18 2294.95 1215.18 2291.67 1214.57 2288.75 1213.35 2285.83 1212.13 2283.69 1210.55 2282.32 1208.61 2280.96 1206.68 2280.02 1204.06 2279.49 1200.75 2279.06 1198.41 2278.84 1193.67 2278.84 1186.54L2278.84 1153.31 2269.58 1153.31 2269.58 1137.23 2278.84 1137.23 2278.84 1122.09ZM2626.96 1108.23 2647.13 1108.23 2647.13 1126.9 2626.96 1126.9ZM2457.7 1108.23 2477.87 1108.23 2477.87 1213.46 2459.14 1213.46 2459.14 1202.26C2456.03 1206.62 2452.36 1209.86 2448.12 1211.99 2443.89 1214.12 2439.62 1215.18 2435.31 1215.18 2426.55 1215.18 2419.05 1211.65 2412.81 1204.59 2406.56 1197.54 2403.44 1187.69 2403.44 1175.06 2403.44 1162.14 2406.48 1152.32 2412.56 1145.59 2418.63 1138.87 2426.31 1135.51 2435.6 1135.51 2444.11 1135.51 2451.48 1139.05 2457.7 1146.13ZM2237.23 1108.23 2257.4 1108.23 2257.4 1126.9 2237.23 1126.9ZM1626.65 1108.23 1704.67 1108.23 1704.67 1126.03 1647.89 1126.03 1647.89 1149.36 1700.72 1149.36 1700.72 1167.09 1647.89 1167.09 1647.89 1195.73 1706.68 1195.73 1706.68 1213.46 1626.65 1213.46Z" stroke="#054697" stroke-width="5" stroke-linecap="butt" stroke-linejoin="round" stroke-miterlimit="10" stroke-opacity="1" fill="#F4F1E3" fill-rule="evenodd" fill-opacity="1"/><text fill="#000000" fill-opacity="0" font-family="Arial,Arial_MSFontService,sans-serif" font-size="136.162" direction="ltr" writing-mode="lr-tb" x="1626.65" y="1227.37">Es resucitado juntamente</text><g clip-path="url(#clip6)" filter="url(#fx1)" transform="translate(2142 1301)"><g clip-path="url(#clip7)"><path d="M49.489 12.6392C58.7722 12.6392 66.1533 14.637 71.6323 18.6326 77.1113 22.6282 81.0471 28.7173 83.4397 36.8999L63.5574 40.4888C62.8874 36.5171 61.3682 33.5264 58.9995 31.5166 56.6309 29.5068 53.5564 28.502 49.7761 28.502 44.7517 28.502 40.7441 30.2366 37.7534 33.7058 34.7627 37.1751 33.2673 42.9771 33.2673 51.1118 33.2673 60.1558 34.7866 66.5439 37.8252 70.2764 40.8638 74.0088 44.9431 75.875 50.0632 75.875 53.8914 75.875 57.0256 74.7864 59.4661 72.6091 61.9065 70.4319 63.6291 66.6875 64.634 61.376L84.4446 64.7495C82.3869 73.8413 78.4392 80.708 72.6013 85.3496 66.7634 89.9912 58.9397 92.312 49.1301 92.312 37.9807 92.312 29.0923 88.7949 22.4648 81.7607 15.8374 74.7266 12.5237 64.9888 12.5237 52.5474 12.5237 39.9624 15.8494 30.1648 22.5007 23.1545 29.1521 16.1443 38.1482 12.6392 49.489 12.6392Z" stroke="#054697" stroke-width="5" stroke-linecap="butt" stroke-linejoin="round" stroke-miterlimit="10" stroke-opacity="1" fill="#F4F1E3" fill-rule="evenodd" fill-opacity="1"/></g></g><path d="M2187.8 1311.51C2197.08 1311.51 2204.46 1313.51 2209.94 1317.5 2215.42 1321.5 2219.36 1327.59 2221.75 1335.77L2201.87 1339.36C2201.2 1335.39 2199.68 1332.4 2197.31 1330.39 2194.94 1328.38 2191.87 1327.37 2188.09 1327.37 2183.06 1327.37 2179.05 1329.11 2176.06 1332.58 2173.07 1336.04 2171.58 1341.85 2171.58 1349.98 2171.58 1359.03 2173.1 1365.41 2176.13 1369.15 2179.17 1372.88 2183.25 1374.74 2188.37 1374.74 2192.2 1374.74 2195.34 1373.66 2197.78 1371.48 2200.22 1369.3 2201.94 1365.56 2202.94 1360.25L2222.75 1363.62C2220.7 1372.71 2216.75 1379.58 2210.91 1384.22 2205.07 1388.86 2197.25 1391.18 2187.44 1391.18 2176.29 1391.18 2167.4 1387.66 2160.77 1380.63 2154.15 1373.6 2150.83 1363.86 2150.83 1351.42 2150.83 1338.83 2154.16 1329.03 2160.81 1322.02 2167.46 1315.01 2176.46 1311.51 2187.8 1311.51Z" stroke="#054697" stroke-width="5" stroke-linecap="butt" stroke-linejoin="round" stroke-miterlimit="10" stroke-opacity="1" fill="#F4F1E3" fill-rule="evenodd" fill-opacity="1"/><text fill="#000000" fill-opacity="0" font-family="Arial,Arial_MSFontService,sans-serif" font-size="79.6729" direction="ltr" writing-mode="lr-tb" x="2150.83" y="1381.22">c</text><g clip-path="url(#clip8)" filter="url(#fx2)" transform="translate(2223 1272)"><g clip-path="url(#clip9)"><path d="M605.434 58.0762C600.17 58.0762 595.744 60.0859 592.155 64.1055 588.566 68.125 586.772 73.915 586.772 81.4756 586.772 89.0361 588.566 94.8262 592.155 98.8457 595.744 102.865 600.17 104.875 605.434 104.875 610.697 104.875 615.112 102.865 618.677 98.8457 622.242 94.8262 624.024 88.9883 624.024 81.332 624.024 73.8672 622.242 68.125 618.677 64.1055 615.112 60.0859 610.697 58.0762 605.434 58.0762ZM51.9963 58.0762C46.7327 58.0762 42.3064 60.0859 38.7175 64.1055 35.1287 68.125 33.3342 73.915 33.3342 81.4756 33.3342 89.0361 35.1287 94.8262 38.7175 98.8457 42.3064 102.865 46.7327 104.875 51.9963 104.875 57.26 104.875 61.6743 102.865 65.2393 98.8457 68.8042 94.8262 70.5867 88.9883 70.5867 81.332 70.5867 73.8672 68.8042 68.125 65.2393 64.1055 61.6743 60.0859 57.26 58.0762 51.9963 58.0762ZM400.036 43.3618 420.206 43.3618 420.206 119.589 400.036 119.589ZM605.362 41.6392C616.894 41.6392 626.345 45.3836 633.714 52.8723 641.083 60.3611 644.768 69.8237 644.768 81.2603 644.768 92.7925 641.047 102.351 633.606 109.935 626.165 117.52 616.799 121.312 605.506 121.312 598.519 121.312 591.856 119.733 585.516 116.575 579.175 113.417 574.354 108.787 571.052 102.686 567.751 96.5847 566.1 89.1558 566.1 80.3989 566.1 73.6997 567.751 67.2158 571.052 60.9473 574.354 54.6787 579.032 49.8936 585.085 46.5918 591.138 43.29 597.897 41.6392 605.362 41.6392ZM468.491 41.6392C478.923 41.6392 486.675 43.3379 491.747 46.7354 496.819 50.1328 500.312 55.1572 502.226 61.8086L483.205 65.3257C482.392 62.3589 480.849 60.0859 478.576 58.5068 476.303 56.9277 473.061 56.1382 468.85 56.1382 463.538 56.1382 459.734 56.8799 457.437 58.3633 455.906 59.416 455.141 60.7798 455.141 62.4546 455.141 63.8901 455.81 65.1104 457.15 66.1152 458.969 67.4551 465.249 69.3452 475.992 71.7856 486.734 74.2261 494.235 77.2168 498.494 80.7578 502.705 84.3467 504.81 89.3472 504.81 95.7593 504.81 102.746 501.891 108.751 496.054 113.775 490.216 118.8 481.578 121.312 470.142 121.312 459.758 121.312 451.54 119.207 445.486 114.996 439.433 110.785 435.474 105.066 433.607 97.8408L453.849 94.7544C454.71 98.6782 456.456 101.657 459.088 103.691 461.72 105.724 465.405 106.741 470.142 106.741 475.358 106.741 479.282 105.784 481.913 103.87 483.684 102.53 484.569 100.736 484.569 98.4868 484.569 96.9556 484.091 95.6875 483.134 94.6826 482.129 93.7256 479.88 92.8403 476.387 92.0269 460.117 88.438 449.805 85.1602 445.451 82.1934 439.421 78.0781 436.407 72.3599 436.407 65.0386 436.407 58.4351 439.015 52.8843 444.23 48.3862 449.446 43.8882 457.533 41.6392 468.491 41.6392ZM377.987 41.6392C382.581 41.6392 387.007 42.9072 391.266 45.4434L385.021 63.0288C381.624 60.8276 378.466 59.7271 375.547 59.7271 372.724 59.7271 370.331 60.5047 368.369 62.0598 366.407 63.615 364.864 66.4263 363.739 70.4937 362.615 74.561 362.053 83.0786 362.053 96.0464L362.053 119.589 341.883 119.589 341.883 43.3618 360.617 43.3618 360.617 54.2002C363.823 49.0801 366.706 45.7066 369.266 44.0796 371.826 42.4526 374.733 41.6392 377.987 41.6392ZM150.415 41.6392C154.865 41.6392 158.933 42.4407 162.617 44.0437 166.302 45.6467 169.089 47.6924 170.979 50.1807 172.87 52.669 174.186 55.4922 174.927 58.6504 175.669 61.8086 176.04 66.3306 176.04 72.2163L176.04 119.589 155.87 119.589 155.87 80.686C155.87 72.4556 155.44 67.1321 154.578 64.7156 153.717 62.2991 152.317 60.4209 150.379 59.0811 148.441 57.7412 146.109 57.0713 143.381 57.0713 139.888 57.0713 136.754 58.0283 133.978 59.9424 131.203 61.8565 129.301 64.3926 128.272 67.5508 127.243 70.709 126.729 76.5469 126.729 85.0645L126.729 119.589 106.559 119.589 106.559 43.3618 125.293 43.3618 125.293 54.5591C131.945 45.9458 140.319 41.6392 150.415 41.6392ZM51.9246 41.6392C63.4568 41.6392 72.9075 45.3836 80.2766 52.8723 87.6458 60.3611 91.3303 69.8237 91.3303 81.2603 91.3303 92.7925 87.6099 102.351 80.1689 109.935 72.728 117.52 63.3611 121.312 52.0681 121.312 45.0818 121.312 38.4185 119.733 32.0781 116.575 25.7378 113.417 20.9168 108.787 17.615 102.686 14.3132 96.5847 12.6624 89.1558 12.6624 80.3989 12.6624 73.6997 14.3132 67.2158 17.615 60.9473 20.9168 54.6787 25.5942 49.8936 31.6475 46.5918 37.7007 43.29 44.4597 41.6392 51.9246 41.6392ZM543.242 16.4453 543.242 43.3618 557.023 43.3618 557.023 59.4399 543.242 59.4399 543.242 90.1606C543.242 96.3813 543.373 100.006 543.637 101.035 543.9 102.064 544.498 102.913 545.431 103.583 546.364 104.253 547.5 104.588 548.84 104.588 550.707 104.588 553.41 103.942 556.951 102.65L558.674 118.297C553.984 120.307 548.673 121.312 542.739 121.312 539.103 121.312 535.825 120.702 532.906 119.482 529.987 118.261 527.846 116.682 526.482 114.744 525.118 112.806 524.173 110.187 523.647 106.885 523.216 104.54 523.001 99.8027 523.001 92.6729L523.001 59.4399 513.741 59.4399 513.741 43.3618 523.001 43.3618 523.001 28.2168ZM400.036 14.3638 420.206 14.3638 420.206 33.0259 400.036 33.0259ZM282.405 12.5693C295.277 12.5693 305.733 16.3735 313.772 23.9819 318.557 28.48 322.146 34.94 324.539 43.3618L303.508 48.3862C302.264 42.9312 299.668 38.6245 295.72 35.4663 291.772 32.3081 286.975 30.729 281.329 30.729 273.529 30.729 267.2 33.5283 262.344 39.127 257.487 44.7256 255.058 53.7935 255.058 66.3306 255.058 79.6333 257.451 89.1079 262.236 94.7544 267.021 100.401 273.242 103.224 280.898 103.224 286.544 103.224 291.401 101.43 295.469 97.8408 299.536 94.252 302.455 88.6055 304.226 80.9014L324.826 87.4331C321.668 98.9175 316.416 107.447 309.071 113.022 301.725 118.596 292.406 121.384 281.113 121.384 267.141 121.384 255.656 116.611 246.66 107.064 237.664 97.5178 233.166 84.4663 233.166 67.9097 233.166 50.396 237.688 36.7942 246.732 27.1043 255.776 17.4143 267.667 12.5693 282.405 12.5693Z" stroke="#054697" stroke-width="5" stroke-linecap="butt" stroke-linejoin="round" stroke-miterlimit="10" stroke-opacity="1" fill="#F4F1E3" fill-rule="evenodd" fill-opacity="1"/></g></g><path d="M2824.74 1327.95C2819.48 1327.95 2815.05 1329.96 2811.46 1333.97 2807.88 1337.99 2806.08 1343.78 2806.08 1351.34 2806.08 1358.91 2807.88 1364.7 2811.46 1368.72 2815.05 1372.73 2819.48 1374.74 2824.74 1374.74 2830.01 1374.74 2834.42 1372.73 2837.99 1368.72 2841.55 1364.7 2843.33 1358.86 2843.33 1351.2 2843.33 1343.74 2841.55 1337.99 2837.99 1333.97 2834.42 1329.96 2830.01 1327.95 2824.74 1327.95ZM2271.31 1327.95C2266.04 1327.95 2261.62 1329.96 2258.03 1333.97 2254.44 1337.99 2252.64 1343.78 2252.64 1351.34 2252.64 1358.91 2254.44 1364.7 2258.03 1368.72 2261.62 1372.73 2266.04 1374.74 2271.31 1374.74 2276.57 1374.74 2280.98 1372.73 2284.55 1368.72 2288.11 1364.7 2289.9 1358.86 2289.9 1351.2 2289.9 1343.74 2288.11 1337.99 2284.55 1333.97 2280.98 1329.96 2276.57 1327.95 2271.31 1327.95ZM2619.35 1313.23 2639.52 1313.23 2639.52 1389.46 2619.35 1389.46ZM2824.67 1311.51C2836.2 1311.51 2845.65 1315.25 2853.02 1322.74 2860.39 1330.23 2864.08 1339.69 2864.08 1351.13 2864.08 1362.66 2860.36 1372.22 2852.92 1379.8 2845.48 1387.39 2836.11 1391.18 2824.82 1391.18 2817.83 1391.18 2811.17 1389.6 2804.83 1386.44 2798.49 1383.29 2793.66 1378.66 2790.36 1372.56 2787.06 1366.45 2785.41 1359.03 2785.41 1350.27 2785.41 1343.57 2787.06 1337.09 2790.36 1330.82 2793.66 1324.55 2798.34 1319.76 2804.39 1316.46 2810.45 1313.16 2817.21 1311.51 2824.67 1311.51ZM2687.8 1311.51C2698.23 1311.51 2705.98 1313.21 2711.06 1316.6 2716.13 1320 2719.62 1325.03 2721.54 1331.68L2702.52 1335.2C2701.7 1332.23 2700.16 1329.96 2697.89 1328.38 2695.61 1326.8 2692.37 1326.01 2688.16 1326.01 2682.85 1326.01 2679.04 1326.75 2676.75 1328.23 2675.22 1329.29 2674.45 1330.65 2674.45 1332.32 2674.45 1333.76 2675.12 1334.98 2676.46 1335.98 2678.28 1337.32 2684.56 1339.21 2695.3 1341.66 2706.04 1344.1 2713.55 1347.09 2717.8 1350.63 2722.01 1354.22 2724.12 1359.22 2724.12 1365.63 2724.12 1372.61 2721.2 1378.62 2715.36 1383.64 2709.53 1388.67 2700.89 1391.18 2689.45 1391.18 2679.07 1391.18 2670.85 1389.08 2664.8 1384.86 2658.74 1380.65 2654.78 1374.94 2652.92 1367.71L2673.16 1364.62C2674.02 1368.55 2675.77 1371.53 2678.4 1373.56 2681.03 1375.59 2684.71 1376.61 2689.45 1376.61 2694.67 1376.61 2698.59 1375.65 2701.22 1373.74 2702.99 1372.4 2703.88 1370.61 2703.88 1368.36 2703.88 1366.82 2703.4 1365.56 2702.44 1364.55 2701.44 1363.59 2699.19 1362.71 2695.7 1361.9 2679.43 1358.31 2669.11 1355.03 2664.76 1352.06 2658.73 1347.95 2655.72 1342.23 2655.72 1334.91 2655.72 1328.3 2658.32 1322.75 2663.54 1318.26 2668.76 1313.76 2676.84 1311.51 2687.8 1311.51ZM2597.3 1311.51C2601.89 1311.51 2606.32 1312.78 2610.58 1315.31L2604.33 1332.9C2600.93 1330.7 2597.78 1329.6 2594.86 1329.6 2592.03 1329.6 2589.64 1330.37 2587.68 1331.93 2585.72 1333.48 2584.17 1336.3 2583.05 1340.36 2581.92 1344.43 2581.36 1352.95 2581.36 1365.92L2581.36 1389.46 2561.19 1389.46 2561.19 1313.23 2579.93 1313.23 2579.93 1324.07C2583.13 1318.95 2586.02 1315.58 2588.58 1313.95 2591.14 1312.32 2594.04 1311.51 2597.3 1311.51ZM2369.73 1311.51C2374.18 1311.51 2378.24 1312.31 2381.93 1313.91 2385.61 1315.52 2388.4 1317.56 2390.29 1320.05 2392.18 1322.54 2393.5 1325.36 2394.24 1328.52 2394.98 1331.68 2395.35 1336.2 2395.35 1342.09L2395.35 1389.46 2375.18 1389.46 2375.18 1350.56C2375.18 1342.32 2374.75 1337 2373.89 1334.58 2373.03 1332.17 2371.63 1330.29 2369.69 1328.95 2367.75 1327.61 2365.42 1326.94 2362.69 1326.94 2359.2 1326.94 2356.06 1327.9 2353.29 1329.81 2350.51 1331.73 2348.61 1334.26 2347.58 1337.42 2346.55 1340.58 2346.04 1346.42 2346.04 1354.93L2346.04 1389.46 2325.87 1389.46 2325.87 1313.23 2344.6 1313.23 2344.6 1324.43C2351.25 1315.82 2359.63 1311.51 2369.73 1311.51ZM2271.23 1311.51C2282.77 1311.51 2292.22 1315.25 2299.59 1322.74 2306.96 1330.23 2310.64 1339.69 2310.64 1351.13 2310.64 1362.66 2306.92 1372.22 2299.48 1379.8 2292.04 1387.39 2282.67 1391.18 2271.38 1391.18 2264.39 1391.18 2257.73 1389.6 2251.39 1386.44 2245.05 1383.29 2240.23 1378.66 2236.92 1372.56 2233.62 1366.45 2231.97 1359.03 2231.97 1350.27 2231.97 1343.57 2233.62 1337.09 2236.92 1330.82 2240.23 1324.55 2244.9 1319.76 2250.96 1316.46 2257.01 1313.16 2263.77 1311.51 2271.23 1311.51ZM2762.55 1286.31 2762.55 1313.23 2776.33 1313.23 2776.33 1329.31 2762.55 1329.31 2762.55 1360.03C2762.55 1366.25 2762.68 1369.88 2762.95 1370.9 2763.21 1371.93 2763.81 1372.78 2764.74 1373.45 2765.67 1374.12 2766.81 1374.46 2768.15 1374.46 2770.02 1374.46 2772.72 1373.81 2776.26 1372.52L2777.98 1388.17C2773.29 1390.18 2767.98 1391.18 2762.05 1391.18 2758.41 1391.18 2755.13 1390.57 2752.22 1389.35 2749.3 1388.13 2747.16 1386.55 2745.79 1384.61 2744.43 1382.68 2743.48 1380.06 2742.96 1376.75 2742.53 1374.41 2742.31 1369.67 2742.31 1362.54L2742.31 1329.31 2733.05 1329.31 2733.05 1313.23 2742.31 1313.23 2742.31 1298.09ZM2619.35 1284.23 2639.52 1284.23 2639.52 1302.9 2619.35 1302.9ZM2501.72 1282.44C2514.59 1282.44 2525.04 1286.24 2533.08 1293.85 2537.87 1298.35 2541.46 1304.81 2543.85 1313.23L2522.82 1318.26C2521.57 1312.8 2518.98 1308.49 2515.03 1305.34 2511.08 1302.18 2506.28 1300.6 2500.64 1300.6 2492.84 1300.6 2486.51 1303.4 2481.65 1309 2476.8 1314.59 2474.37 1323.66 2474.37 1336.2 2474.37 1349.5 2476.76 1358.98 2481.55 1364.62 2486.33 1370.27 2492.55 1373.09 2500.21 1373.09 2505.85 1373.09 2510.71 1371.3 2514.78 1367.71 2518.85 1364.12 2521.76 1358.47 2523.54 1350.77L2544.14 1357.3C2540.98 1368.79 2535.73 1377.32 2528.38 1382.89 2521.04 1388.47 2511.72 1391.25 2500.42 1391.25 2486.45 1391.25 2474.97 1386.48 2465.97 1376.93 2456.97 1367.39 2452.48 1354.34 2452.48 1337.78 2452.48 1320.27 2457 1306.66 2466.04 1296.97 2475.09 1287.28 2486.98 1282.44 2501.72 1282.44Z" stroke="#054697" stroke-width="5" stroke-linecap="butt" stroke-linejoin="round" stroke-miterlimit="10" stroke-opacity="1" fill="#F4F1E3" fill-rule="evenodd" fill-opacity="1"/><text fill="#000000" fill-opacity="0" font-family="Arial,Arial_MSFontService,sans-serif" font-size="108.814" direction="ltr" writing-mode="lr-tb" x="2231.97" y="1377.65">on Cristo</text></g></svg>