<svg width="3355" height="2386" xmlns="http://www.w3.org/2000/svg" xmlns:xlink="http://www.w3.org/1999/xlink" overflow="hidden"><defs><filter id="fx0" x="-10%" y="-10%" width="120%" height="120%" filterUnits="userSpaceOnUse" primitiveUnits="userSpaceOnUse"><feComponentTransfer color-interpolation-filters="sRGB"><feFuncR type="discrete" tableValues="0.752941 0.752941"/><feFuncG type="discrete" tableValues="0.752941 0.752941"/><feFuncB type="discrete" tableValues="0.752941 0.752941"/><feFuncA type="linear" slope="0.8" intercept="0"/></feComponentTransfer><feGaussianBlur stdDeviation="0 0"/></filter><filter id="fx1" x="-10%" y="-10%" width="120%" height="120%" filterUnits="userSpaceOnUse" primitiveUnits="userSpaceOnUse"><feComponentTransfer color-interpolation-filters="sRGB"><feFuncR type="discrete" tableValues="0.752941 0.752941"/><feFuncG type="discrete" tableValues="0.752941 0.752941"/><feFuncB type="discrete" tableValues="0.752941 0.752941"/><feFuncA type="linear" slope="0.8" intercept="0"/></feComponentTransfer><feGaussianBlur stdDeviation="0 0"/></filter><clipPath id="clip2"><rect x="-55" y="82" width="3355" height="2386"/></clipPath><clipPath id="clip3"><rect x="0" y="0" width="433" height="65"/></clipPath><clipPath id="clip4"><rect x="0" y="0" width="1488" height="222"/></clipPath><clipPath id="clip5"><rect x="0" y="0" width="263" height="65"/></clipPath><clipPath id="clip6"><rect x="0" y="0" width="902" height="222"/></clipPath></defs><g clip-path="url(#clip2)" transform="translate(55 -82)"><text fill="#FFFF00" font-family="Times New Roman,Times New Roman_MSFontService,sans-serif" font-weight="700" font-size="147" transform="matrix(1 0 0 1 33 594)">1.<tspan font-size="147" x="185.625" y="0">Volición</tspan><tspan font-weight="400" font-size="147" x="730.171" y="0">–</tspan><tspan font-weight="400" font-size="147" x="803.504" y="0">Responsabilidad</tspan><tspan font-weight="400" font-size="147" x="1810.69" y="0">Personal</tspan><tspan font-weight="400" font-size="147" x="2316" y="0">–</tspan><tspan font-style="italic" font-weight="400" font-size="128" x="2426" y="0">Gén</tspan><tspan font-style="italic" font-weight="400" font-size="128" x="2639.7" y="0">. 2:15</tspan><tspan font-style="italic" font-weight="400" font-size="128" x="2939.34" y="0">-</tspan><tspan font-style="italic" font-weight="400" font-size="128" x="2982.31" y="0">17</tspan><tspan font-size="147" x="0" y="374">2. </tspan><tspan font-size="147" x="146.667" y="374">Matrimonio</tspan><tspan font-weight="400" font-size="147" x="940.729" y="374">–</tspan><tspan font-weight="400" font-size="147" x="1050.73" y="374">Un hombre y </tspan><tspan font-weight="400" font-size="147" x="1861.41" y="374">una</tspan><tspan font-weight="400" font-size="147" x="2110.05" y="374">mujer</tspan><tspan font-weight="400" font-size="147" x="2488.75" y="374">con el </tspan><tspan font-weight="400" font-size="147" x="123.75" y="550">hombre en </tspan><tspan font-weight="400" font-size="147" x="783.75" y="550">posición</tspan><tspan font-weight="400" font-size="147" x="1317.71" y="550">de </tspan><tspan font-weight="400" font-size="147" x="1493.02" y="550">autoridad</tspan><tspan font-weight="400" font-size="147" x="2047.03" y="550">–</tspan><tspan font-style="italic" font-weight="400" font-size="128" x="2157.03" y="550">Gén</tspan><tspan font-style="italic" font-weight="400" font-size="128" x="2370.73" y="550">. 2:22</tspan><tspan font-style="italic" font-weight="400" font-size="128" x="2670.36" y="550">-</tspan><tspan font-style="italic" font-weight="400" font-size="128" x="2713.33" y="550">24</tspan><tspan font-size="147" x="0" y="924">3. </tspan><tspan font-size="147" x="146.667" y="924">Familia</tspan><tspan font-weight="400" font-size="147" x="663.438" y="924">–</tspan><tspan font-weight="400" font-size="147" x="765.348" y="924">Autoridad</tspan><tspan font-weight="400" font-size="147" x="1433.37" y="924">de los Padres </tspan><tspan font-weight="400" font-size="147" x="2244.62" y="924">–</tspan><tspan font-style="italic" font-weight="400" font-size="147" x="2354.62" y="924">Gén</tspan><tspan font-style="italic" font-weight="400" font-size="147" x="2599.25" y="924">. 4:1</tspan><tspan font-size="147" x="0" y="1276">4. </tspan><tspan font-size="138" x="146.667" y="1276">Gobierno</tspan><tspan font-size="138" x="739.063" y="1276">Humano</tspan><tspan font-weight="400" font-size="138" x="1250.68" y="1276">–</tspan><tspan font-weight="400" font-size="138" x="1346.22" y="1276">Autoridad</tspan><tspan font-weight="400" font-size="138" x="1938.61" y="1276">gubernamental</tspan><tspan font-weight="400" font-size="147" x="2757.31" y="1276">–</tspan><tspan font-style="italic" font-weight="400" font-size="128" x="2867.31" y="1276">Gen. </tspan><tspan font-style="italic" font-weight="400" font-size="128" x="123.75" y="1434">9:1</tspan><tspan font-style="italic" font-weight="400" font-size="128" x="295.052" y="1434">-</tspan><tspan font-style="italic" font-weight="400" font-size="128" x="338.021" y="1434">17</tspan><tspan font-size="147" x="0" y="1694">5. </tspan><tspan font-size="147" x="146.667" y="1694">Nacionalismo</tspan><tspan font-weight="400" font-size="147" x="1030.68" y="1694">–</tspan><tspan font-weight="400" font-size="147" x="1140.68" y="1694">No </tspan><tspan font-weight="400" font-size="147" x="1356.67" y="1694">internacionalismo</tspan><tspan font-weight="400" font-size="147" x="2444.64" y="1694">–</tspan><tspan font-style="italic" font-weight="400" font-size="128" x="2554.64" y="1694">Gen. </tspan><tspan font-style="italic" font-weight="400" font-size="128" x="2832.5" y="1694">11:7</tspan><tspan font-style="italic" font-weight="400" font-size="128" x="3058.44" y="1694">-</tspan><tspan font-style="italic" font-weight="400" font-size="128" x="3101.4" y="1694">9</tspan></text><g clip-path="url(#clip3)" filter="url(#fx0)" transform="translate(421 91)"><g clip-path="url(#clip4)"><path d="M1315.99 83.9632C1308.04 83.9632 1300.93 87.2253 1294.65 93.7494 1288.38 100.274 1284.72 109.352 1283.66 120.984 1303.97 120.984 1324.27 120.984 1344.58 120.984 1344.1 112.083 1343.09 105.811 1341.56 102.17 1339.17 96.5057 1335.6 92.0552 1330.86 88.8184 1326.12 85.5816 1321.16 83.9632 1315.99 83.9632ZM1027.21 83.2046C1022.13 83.2046 1017.03 84.7977 1011.9 87.9839 1006.78 91.1701 1002.64 96.7586 999.476 104.749 996.315 112.74 994.735 123.007 994.735 135.549 994.735 155.779 998.542 173.228 1006.16 187.894 1013.77 202.561 1023.8 209.894 1036.26 209.894 1045.55 209.894 1053.21 205.848 1059.24 197.756 1065.28 189.664 1068.3 175.756 1068.3 156.032 1068.3 131.352 1063.27 111.931 1053.21 97.7701 1046.41 88.0597 1037.74 83.2046 1027.21 83.2046ZM598.161 77.4391C613.534 77.4391 628.908 77.4391 644.281 77.4391 644.281 108.441 644.281 139.444 644.281 170.446 644.281 183.393 646.412 191.89 650.674 195.936 654.936 199.982 660.085 202.005 666.119 202.005 670.237 202.005 674.907 200.639 680.127 197.908 685.347 195.177 691.549 189.968 698.733 182.28 698.733 156.032 698.733 129.784 698.733 103.536 698.733 95.646 697.368 90.3103 694.638 87.5287 691.908 84.7471 686.233 83.2551 677.613 83.0529 677.613 81.1816 677.613 79.3103 677.613 77.4391 692.555 77.4391 707.497 77.4391 722.439 77.4391 722.439 105.508 722.439 133.577 722.439 161.646 722.439 177.729 722.798 187.565 723.516 191.156 724.235 194.747 725.384 197.251 726.964 198.667 728.545 200.083 730.389 200.791 732.496 200.791 735.465 200.791 738.818 199.931 742.553 198.211 743.224 199.982 743.894 201.752 744.564 203.522 731.442 209.237 718.32 214.952 705.198 220.667 703.043 220.667 700.888 220.667 698.733 220.667 698.733 210.855 698.733 201.044 698.733 191.232 687.43 204.179 678.81 212.322 672.872 215.66 666.933 218.998 660.659 220.667 654.05 220.667 646.675 220.667 640.282 218.416 634.87 213.915 629.458 209.414 625.699 203.623 623.592 196.542 621.484 189.462 620.431 179.448 620.431 166.501 620.431 145.816 620.431 125.131 620.431 104.446 620.431 97.8712 619.76 93.3195 618.419 90.7908 617.079 88.262 615.091 86.3149 612.457 84.9494 609.823 83.5839 605.058 82.9517 598.161 83.0529 598.161 81.1816 598.161 79.3103 598.161 77.4391ZM1436.83 73.3425C1442 73.3425 1448.28 74.5057 1455.65 76.8322 1460.54 78.3494 1463.79 79.108 1465.42 79.108 1466.95 79.108 1468.15 78.754 1469.01 78.046 1469.87 77.3379 1470.88 75.7701 1472.03 73.3425 1473.61 73.3425 1475.19 73.3425 1476.77 73.3425 1476.77 89.1218 1476.77 104.901 1476.77 120.68 1475.19 120.68 1473.61 120.68 1472.03 120.68 1468.39 105.811 1463.72 95.6965 1458.02 90.3356 1452.32 84.9747 1445.07 82.2942 1436.25 82.2942 1429.55 82.2942 1424.14 84.1655 1420.02 87.908 1415.9 91.6506 1413.84 95.7977 1413.84 100.349 1413.84 106.014 1415.37 110.869 1418.44 114.915 1421.41 119.062 1427.44 123.462 1436.54 128.115 1443.53 131.706 1450.53 135.297 1457.52 138.887 1476.96 148.901 1486.68 162.101 1486.68 178.487 1486.68 191.131 1482.16 201.322 1473.11 209.06 1464.06 216.798 1453.93 220.667 1442.72 220.667 1434.67 220.667 1425.48 219.149 1415.13 216.115 1411.97 215.103 1409.39 214.598 1407.38 214.598 1405.17 214.598 1403.45 215.913 1402.2 218.542 1400.62 218.542 1399.04 218.542 1397.46 218.542 1397.46 202.005 1397.46 185.467 1397.46 168.929 1399.04 168.929 1400.62 168.929 1402.2 168.929 1404.89 183.09 1410.01 193.761 1417.58 200.943 1425.14 208.124 1433.62 211.715 1443.01 211.715 1449.62 211.715 1455 209.667 1459.17 205.57 1463.34 201.474 1465.42 196.542 1465.42 190.777 1465.42 183.798 1463.1 177.931 1458.45 173.177 1453.81 168.423 1444.54 162.405 1430.65 155.122 1416.76 147.839 1407.66 141.264 1403.35 135.398 1399.04 129.632 1396.89 122.349 1396.89 113.549 1396.89 102.12 1400.6 92.5609 1408.02 84.8735 1415.45 77.1862 1425.05 73.3425 1436.83 73.3425ZM1145.71 73.3425C1147.77 73.3425 1149.82 73.3425 1151.88 73.3425 1151.88 83.154 1151.88 92.9655 1151.88 102.777 1167.3 83.154 1182.01 73.3425 1195.99 73.3425 1203.18 73.3425 1209.35 75.2391 1214.53 79.0322 1219.7 82.8253 1223.82 89.0712 1226.88 97.7701 1228.99 103.839 1230.04 113.145 1230.04 125.687 1230.04 145.462 1230.04 165.237 1230.04 185.011 1230.04 193.811 1230.71 199.779 1232.05 202.915 1233.11 205.444 1234.81 207.416 1237.15 208.832 1239.5 210.248 1243.83 210.956 1250.16 210.956 1250.16 212.777 1250.16 214.598 1250.16 216.418 1228.46 216.418 1206.77 216.418 1185.07 216.418 1185.07 214.598 1185.07 212.777 1185.07 210.956 1185.98 210.956 1186.89 210.956 1187.8 210.956 1193.93 210.956 1198.22 209.97 1200.66 207.998 1203.1 206.025 1204.8 203.117 1205.76 199.274 1206.14 197.756 1206.34 193.002 1206.34 185.011 1206.34 166.046 1206.34 147.08 1206.34 128.115 1206.34 115.471 1204.78 106.292 1201.67 100.577 1198.55 94.862 1193.31 92.0046 1185.93 92.0046 1174.54 92.0046 1163.19 98.5793 1151.88 111.729 1151.88 136.156 1151.88 160.584 1151.88 185.011 1151.88 194.418 1152.41 200.234 1153.46 202.46 1154.81 205.393 1156.65 207.542 1159 208.908 1161.34 210.274 1166.11 210.956 1173.29 210.956 1173.29 212.777 1173.29 214.598 1173.29 216.418 1151.6 216.418 1129.9 216.418 1108.21 216.418 1108.21 214.598 1108.21 212.777 1108.21 210.956 1109.17 210.956 1110.12 210.956 1111.08 210.956 1117.79 210.956 1122.31 209.161 1124.66 205.57 1127 201.979 1128.18 195.126 1128.18 185.011 1128.18 167.816 1128.18 150.621 1128.18 133.425 1128.18 116.736 1127.82 106.57 1127.1 102.929 1126.38 99.2873 1125.28 96.8092 1123.8 95.4942 1122.31 94.1793 1120.32 93.5218 1117.83 93.5218 1115.15 93.5218 1111.94 94.2804 1108.21 95.7977 1107.49 93.977 1106.77 92.1563 1106.05 90.3356 1119.27 84.6712 1132.49 79.0069 1145.71 73.3425ZM1031.66 73.3425C1051.58 73.3425 1067.58 81.3333 1079.65 97.3149 1089.89 110.97 1095.02 126.648 1095.02 144.349 1095.02 156.791 1092.19 169.384 1086.54 182.129 1080.89 194.874 1073.11 204.483 1063.2 210.956 1053.28 217.43 1042.24 220.667 1030.08 220.667 1010.25 220.667 994.496 212.322 982.81 195.632 972.945 181.572 968.012 165.793 968.012 148.294 968.012 135.549 971.005 122.88 976.991 110.287 982.978 97.6942 990.856 88.3885 1000.63 82.3701 1010.4 76.3517 1020.74 73.3425 1031.66 73.3425ZM924.341 73.3425C926.448 73.3425 928.556 73.3425 930.663 73.3425 930.663 110.565 930.663 147.788 930.663 185.011 930.663 193.71 931.262 199.501 932.459 202.384 933.656 205.267 935.428 207.416 937.775 208.832 940.121 210.248 944.408 210.956 950.633 210.956 950.633 212.777 950.633 214.598 950.633 216.418 929.322 216.418 908.01 216.418 886.699 216.418 886.699 214.598 886.699 212.777 886.699 210.956 893.116 210.956 897.427 210.299 899.63 208.984 901.832 207.669 903.581 205.494 904.874 202.46 906.167 199.425 906.813 193.609 906.813 185.011 906.813 167.159 906.813 149.306 906.813 131.453 906.813 116.382 906.382 106.621 905.52 102.17 904.85 98.9333 903.796 96.6827 902.359 95.4184 900.923 94.154 898.959 93.5218 896.469 93.5218 893.787 93.5218 890.53 94.2804 886.699 95.7977 886.028 93.977 885.358 92.1563 884.688 90.3356 897.905 84.6712 911.123 79.0069 924.341 73.3425ZM818.729 73.3425C831.66 73.3425 842.292 76.9586 850.625 84.1908 858.958 91.423 863.124 98.9333 863.124 106.722 863.124 110.566 861.951 113.676 859.604 116.053 857.258 118.43 853.977 119.618 849.763 119.618 844.112 119.618 839.849 117.697 836.976 113.853 835.348 111.729 834.27 107.683 833.743 101.715 833.216 95.7471 831.277 91.1954 827.924 88.0597 824.572 85.0253 819.927 83.508 813.988 83.508 804.41 83.508 796.699 87.2506 790.857 94.7356 783.098 104.648 779.219 117.747 779.219 134.032 779.219 150.621 783.075 165.262 790.785 177.956 798.495 190.651 808.912 196.998 822.034 196.998 831.421 196.998 839.849 193.609 847.32 186.832 852.588 182.179 857.713 173.733 862.693 161.494 864.082 162.202 865.471 162.91 866.86 163.618 863.316 181.926 856.372 196.011 846.027 205.874 835.683 215.736 824.237 220.667 811.689 220.667 796.747 220.667 783.721 214.041 772.61 200.791 761.5 187.54 755.944 169.637 755.944 147.08 755.944 125.232 762.098 107.48 774.406 93.8253 786.714 80.1701 801.489 73.3425 818.729 73.3425ZM483.869 73.3425C485.976 73.3425 488.083 73.3425 490.191 73.3425 490.191 110.565 490.191 147.788 490.191 185.011 490.191 193.71 490.789 199.501 491.987 202.384 493.184 205.267 494.956 207.416 497.303 208.832 499.649 210.248 503.935 210.956 510.161 210.956 510.161 212.777 510.161 214.598 510.161 216.418 488.85 216.418 467.538 216.418 446.227 216.418 446.227 214.598 446.227 212.777 446.227 210.956 452.644 210.956 456.954 210.299 459.157 208.984 461.36 207.669 463.108 205.494 464.401 202.46 465.694 199.425 466.341 193.609 466.341 185.011 466.341 167.159 466.341 149.306 466.341 131.453 466.341 116.382 465.91 106.621 465.048 102.17 464.377 98.9333 463.324 96.6827 461.887 95.4184 460.45 94.154 458.487 93.5218 455.996 93.5218 453.315 93.5218 450.058 94.2804 446.227 95.7977 445.556 93.977 444.886 92.1563 444.215 90.3356 457.433 84.6712 470.651 79.0069 483.869 73.3425ZM293.742 73.3425C298.914 73.3425 305.188 74.5057 312.563 76.8322 317.448 78.3494 320.704 79.108 322.333 79.108 323.865 79.108 325.062 78.754 325.924 78.046 326.786 77.3379 327.792 75.7701 328.941 73.3425 330.522 73.3425 332.102 73.3425 333.683 73.3425 333.683 89.1218 333.683 104.901 333.683 120.68 332.102 120.68 330.522 120.68 328.941 120.68 325.302 105.811 320.632 95.6965 314.933 90.3356 309.234 84.9747 301.979 82.2942 293.167 82.2942 286.462 82.2942 281.05 84.1655 276.932 87.908 272.813 91.6506 270.754 95.7977 270.754 100.349 270.754 106.014 272.286 110.869 275.351 114.915 278.321 119.062 284.355 123.462 293.454 128.115 300.446 131.706 307.438 135.297 314.431 138.887 333.874 148.901 343.596 162.101 343.596 178.487 343.596 191.131 339.07 201.322 330.019 209.06 320.968 216.798 310.839 220.667 299.632 220.667 291.586 220.667 282.391 219.149 272.047 216.115 268.886 215.103 266.3 214.598 264.289 214.598 262.086 214.598 260.362 215.913 259.116 218.542 257.536 218.542 255.956 218.542 254.375 218.542 254.375 202.005 254.375 185.467 254.375 168.929 255.956 168.929 257.536 168.929 259.116 168.929 261.798 183.09 266.923 193.761 274.489 200.943 282.056 208.124 290.533 211.715 299.92 211.715 306.528 211.715 311.916 209.667 316.083 205.57 320.249 201.474 322.333 196.542 322.333 190.777 322.333 183.798 320.01 177.931 315.364 173.177 310.719 168.423 301.452 162.405 287.564 155.122 273.675 147.839 264.576 141.264 260.266 135.398 255.956 129.632 253.8 122.349 253.8 113.549 253.8 102.12 257.512 92.5609 264.935 84.8735 272.358 77.1862 281.96 73.3425 293.742 73.3425ZM132.798 73.3425C134.857 73.3425 136.917 73.3425 138.976 73.3425 138.976 83.154 138.976 92.9655 138.976 102.777 154.397 83.154 169.099 73.3425 183.084 73.3425 190.267 73.3425 196.445 75.2391 201.617 79.0322 206.79 82.8253 210.908 89.0712 213.973 97.7701 216.081 103.839 217.134 113.145 217.134 125.687 217.134 145.462 217.134 165.237 217.134 185.011 217.134 193.811 217.805 199.779 219.146 202.915 220.199 205.444 221.899 207.416 224.246 208.832 226.593 210.248 230.927 210.956 237.248 210.956 237.248 212.777 237.248 214.598 237.248 216.418 215.554 216.418 193.859 216.418 172.164 216.418 172.164 214.598 172.164 212.777 172.164 210.956 173.074 210.956 173.984 210.956 174.894 210.956 181.024 210.956 185.311 209.97 187.753 207.998 190.195 206.025 191.896 203.117 192.853 199.274 193.237 197.756 193.428 193.002 193.428 185.011 193.428 166.046 193.428 147.08 193.428 128.115 193.428 115.471 191.872 106.292 188.759 100.577 185.646 94.862 180.402 92.0046 173.027 92.0046 161.628 92.0046 150.278 98.5793 138.976 111.729 138.976 136.156 138.976 160.584 138.976 185.011 138.976 194.418 139.503 200.234 140.556 202.46 141.897 205.393 143.741 207.542 146.088 208.908 148.434 210.274 153.2 210.956 160.383 210.956 160.383 212.777 160.383 214.598 160.383 216.418 138.689 216.418 116.994 216.418 95.2993 216.418 95.2993 214.598 95.2993 212.777 95.2993 210.956 96.2572 210.956 97.215 210.956 98.1728 210.956 104.878 210.956 109.403 209.161 111.75 205.57 114.097 201.979 115.27 195.126 115.27 185.011 115.27 167.816 115.27 150.621 115.27 133.425 115.27 116.736 114.911 106.57 114.192 102.929 113.474 99.2873 112.373 96.8092 110.888 95.4942 109.403 94.1793 107.416 93.5218 104.925 93.5218 102.244 93.5218 99.0348 94.2804 95.2993 95.7977 94.581 93.977 93.8626 92.1563 93.1442 90.3356 106.362 84.6712 119.58 79.0069 132.798 73.3425ZM1324.03 73.1908C1338.78 73.1908 1350.9 78.3241 1360.38 88.5908 1369.87 98.8575 1374.61 112.588 1374.61 129.784 1344.29 129.784 1313.98 129.784 1283.66 129.784 1283.57 150.418 1288.31 166.602 1297.89 178.336 1307.46 190.069 1318.72 195.936 1331.65 195.936 1340.27 195.936 1347.76 193.432 1354.13 188.425 1360.5 183.418 1365.84 174.846 1370.15 162.708 1371.64 163.72 1373.12 164.731 1374.61 165.742 1372.6 179.6 1366.75 192.218 1357.08 203.598 1347.4 214.977 1335.29 220.667 1320.73 220.667 1304.93 220.667 1291.4 214.168 1280.14 201.17 1268.89 188.172 1263.26 170.699 1263.26 148.749 1263.26 124.979 1269.03 106.444 1280.57 93.1425 1292.11 79.8414 1306.6 73.1908 1324.03 73.1908ZM558.801 31.7701C560.286 31.7701 561.77 31.7701 563.255 31.7701 563.255 46.9931 563.255 62.2161 563.255 77.4391 573.504 77.4391 583.752 77.4391 594.001 77.4391 594.001 80.9793 594.001 84.5195 594.001 88.0597 583.752 88.0597 573.504 88.0597 563.255 88.0597 563.255 118.101 563.255 148.143 563.255 178.184 563.255 187.186 564.476 193.255 566.919 196.391 569.361 199.526 572.498 201.094 576.329 201.094 579.49 201.094 582.555 200.057 585.524 197.984 588.494 195.91 590.792 192.851 592.421 188.805 594.288 188.805 596.156 188.805 598.024 188.805 594.672 198.717 589.93 206.177 583.8 211.184 577.67 216.191 571.349 218.694 564.835 218.694 560.429 218.694 556.119 217.405 551.905 214.825 547.69 212.246 544.577 208.554 542.566 203.749 540.555 198.945 539.549 191.536 539.549 181.522 539.549 150.368 539.549 119.214 539.549 88.0597 532.605 88.0597 525.661 88.0597 518.716 88.0597 518.716 86.3908 518.716 84.7218 518.716 83.0529 523.984 80.8276 529.372 77.0598 534.88 71.7494 540.387 66.4391 545.296 60.1425 549.606 52.8598 551.809 49.0161 554.874 41.9862 558.801 31.7701ZM396.522 31.7701C398.007 31.7701 399.491 31.7701 400.976 31.7701 400.976 46.9931 400.976 62.2161 400.976 77.4391 411.224 77.4391 421.473 77.4391 431.722 77.4391 431.722 80.9793 431.722 84.5195 431.722 88.0597 421.473 88.0597 411.224 88.0597 400.976 88.0597 400.976 118.101 400.976 148.143 400.976 178.184 400.976 187.186 402.197 193.255 404.639 196.391 407.082 199.526 410.219 201.094 414.05 201.094 417.211 201.094 420.276 200.057 423.245 197.984 426.214 195.91 428.513 192.851 430.141 188.805 432.009 188.805 433.877 188.805 435.745 188.805 432.392 198.717 427.651 206.177 421.521 211.184 415.391 216.191 409.069 218.694 402.556 218.694 398.15 218.694 393.84 217.405 389.626 214.825 385.411 212.246 382.298 208.554 380.287 203.749 378.275 198.945 377.27 191.536 377.27 181.522 377.27 150.368 377.27 119.214 377.27 88.0597 370.325 88.0597 363.381 88.0597 356.437 88.0597 356.437 86.3908 356.437 84.7218 356.437 83.0529 361.705 80.8276 367.093 77.0598 372.6 71.7494 378.108 66.4391 383.017 60.1425 387.327 52.8598 389.53 49.0161 392.595 41.9862 396.522 31.7701ZM0.666616 10.6804C28.4913 10.6804 56.316 10.6804 84.1407 10.6804 84.1407 12.5517 84.1407 14.423 84.1407 16.2942 81.7941 16.2942 79.4474 16.2942 77.1007 16.2942 69.1508 16.2942 63.356 18.7724 59.7163 23.7287 57.3217 26.9655 56.1245 34.754 56.1245 47.0942 56.1245 91.3977 56.1245 135.701 56.1245 180.005 56.1245 190.423 56.747 197.301 57.9922 200.639 58.95 203.168 60.9615 205.342 64.0265 207.163 68.1451 209.591 72.5032 210.805 77.1007 210.805 79.4474 210.805 81.7941 210.805 84.1407 210.805 84.1407 212.676 84.1407 214.547 84.1407 216.418 56.316 216.418 28.4913 216.418 0.666616 216.418 0.666616 214.547 0.666616 212.676 0.666616 210.805 2.96539 210.805 5.26416 210.805 7.56293 210.805 15.6086 210.805 21.4513 208.326 25.0911 203.37 27.3898 200.133 28.5392 192.345 28.5392 180.005 28.5392 135.701 28.5392 91.3977 28.5392 47.0942 28.5392 36.6758 27.9166 29.7977 26.6715 26.4598 25.7136 23.931 23.7501 21.7563 20.7809 19.9356 16.5664 17.508 12.1605 16.2942 7.56293 16.2942 5.26416 16.2942 2.96539 16.2942 0.666616 16.2942 0.666616 14.423 0.666616 12.5517 0.666616 10.6804ZM918.738 0.666659C922.761 0.666659 926.185 2.15863 929.011 5.14253 931.836 8.12642 933.249 11.7425 933.249 15.9908 933.249 20.2391 931.836 23.8804 929.011 26.9149 926.185 29.9494 922.761 31.4667 918.738 31.4667 914.715 31.4667 911.267 29.9494 908.394 26.9149 905.52 23.8804 904.083 20.2391 904.083 15.9908 904.083 11.7425 905.496 8.12642 908.322 5.14253 911.147 2.15863 914.619 0.666659 918.738 0.666659ZM478.266 0.666659C482.289 0.666659 485.713 2.15863 488.538 5.14253 491.364 8.12642 492.777 11.7425 492.777 15.9908 492.777 20.2391 491.364 23.8804 488.538 26.9149 485.713 29.9494 482.289 31.4667 478.266 31.4667 474.243 31.4667 470.795 29.9494 467.921 26.9149 465.048 23.8804 463.611 20.2391 463.611 15.9908 463.611 11.7425 465.024 8.12642 467.85 5.14253 470.675 2.15863 474.147 0.666659 478.266 0.666659Z" fill="#FFFF00" fill-rule="evenodd"/></g></g><path d="M1727.82 165.797C1719.87 165.797 1712.76 169.059 1706.49 175.583 1700.21 182.107 1696.55 191.185 1695.5 202.817 1715.8 202.817 1736.11 202.817 1756.41 202.817 1755.93 193.916 1754.93 187.645 1753.4 184.003 1751 178.339 1747.43 173.888 1742.69 170.652 1737.95 167.415 1732.99 165.797 1727.82 165.797ZM1439.04 165.038C1433.96 165.038 1428.86 166.631 1423.74 169.817 1418.61 173.003 1414.47 178.592 1411.31 186.583 1408.15 194.574 1406.57 204.84 1406.57 217.383 1406.57 237.613 1410.38 255.061 1417.99 269.728 1425.61 284.394 1435.64 291.728 1448.09 291.728 1457.38 291.728 1465.04 287.682 1471.08 279.59 1477.11 271.498 1480.13 257.59 1480.13 237.865 1480.13 213.185 1475.1 193.764 1465.04 179.603 1458.24 169.893 1449.57 165.038 1439.04 165.038ZM1009.99 159.272C1025.37 159.272 1040.74 159.272 1056.11 159.272 1056.11 190.275 1056.11 221.277 1056.11 252.279 1056.11 265.226 1058.25 273.723 1062.51 277.769 1066.77 281.815 1071.92 283.838 1077.95 283.838 1082.07 283.838 1086.74 282.472 1091.96 279.741 1097.18 277.01 1103.38 271.801 1110.57 264.114 1110.57 237.865 1110.57 211.617 1110.57 185.369 1110.57 177.479 1109.2 172.144 1106.47 169.362 1103.74 166.58 1098.07 165.088 1089.45 164.886 1089.45 163.015 1089.45 161.144 1089.45 159.272 1104.39 159.272 1119.33 159.272 1134.27 159.272 1134.27 187.341 1134.27 215.41 1134.27 243.479 1134.27 259.562 1134.63 269.399 1135.35 272.99 1136.07 276.58 1137.22 279.084 1138.8 280.5 1140.38 281.916 1142.22 282.624 1144.33 282.624 1147.3 282.624 1150.65 281.764 1154.39 280.045 1155.06 281.815 1155.73 283.585 1156.4 285.355 1143.28 291.07 1130.15 296.785 1117.03 302.5 1114.88 302.5 1112.72 302.5 1110.57 302.5 1110.57 292.688 1110.57 282.877 1110.57 273.065 1099.26 286.013 1090.64 294.155 1084.7 297.493 1078.77 300.831 1072.49 302.5 1065.88 302.5 1058.51 302.5 1052.12 300.249 1046.7 295.748 1041.29 291.247 1037.53 285.456 1035.43 278.376 1033.32 271.295 1032.26 261.282 1032.26 248.334 1032.26 227.649 1032.26 206.964 1032.26 186.279 1032.26 179.705 1031.59 175.153 1030.25 172.624 1028.91 170.095 1026.92 168.148 1024.29 166.783 1021.66 165.417 1016.89 164.785 1009.99 164.886 1009.99 163.015 1009.99 161.144 1009.99 159.272ZM1848.66 155.176C1853.84 155.176 1860.11 156.339 1867.48 158.665 1872.37 160.183 1875.63 160.941 1877.25 160.941 1878.79 160.941 1879.98 160.587 1880.85 159.879 1881.71 159.171 1882.71 157.603 1883.86 155.176 1885.44 155.176 1887.02 155.176 1888.6 155.176 1888.6 170.955 1888.6 186.734 1888.6 202.514 1887.02 202.514 1885.44 202.514 1883.86 202.514 1880.22 187.645 1875.55 177.53 1869.85 172.169 1864.16 166.808 1856.9 164.128 1848.09 164.128 1841.38 164.128 1835.97 165.999 1831.85 169.741 1827.73 173.484 1825.68 177.631 1825.68 182.183 1825.68 187.847 1827.21 192.702 1830.27 196.748 1833.24 200.895 1839.28 205.295 1848.38 209.948 1855.37 213.539 1862.36 217.13 1869.35 220.721 1888.8 230.734 1898.52 243.934 1898.52 260.321 1898.52 272.964 1893.99 283.155 1884.94 290.893 1875.89 298.631 1865.76 302.5 1854.55 302.5 1846.51 302.5 1837.31 300.983 1826.97 297.948 1823.81 296.937 1821.22 296.431 1819.21 296.431 1817.01 296.431 1815.28 297.746 1814.04 300.376 1812.46 300.376 1810.88 300.376 1809.3 300.376 1809.3 283.838 1809.3 267.3 1809.3 250.762 1810.88 250.762 1812.46 250.762 1814.04 250.762 1816.72 264.923 1821.84 275.594 1829.41 282.776 1836.98 289.957 1845.45 293.548 1854.84 293.548 1861.45 293.548 1866.84 291.5 1871 287.403 1875.17 283.307 1877.25 278.376 1877.25 272.61 1877.25 265.631 1874.93 259.764 1870.29 255.01 1865.64 250.256 1856.37 244.238 1842.48 236.955 1828.6 229.672 1819.5 223.098 1815.19 217.231 1810.88 211.465 1808.72 204.183 1808.72 195.383 1808.72 183.953 1812.43 174.394 1819.86 166.707 1827.28 159.02 1836.88 155.176 1848.66 155.176ZM1557.54 155.176C1559.6 155.176 1561.66 155.176 1563.72 155.176 1563.72 164.987 1563.72 174.799 1563.72 184.61 1579.14 164.987 1593.84 155.176 1607.83 155.176 1615.01 155.176 1621.19 157.072 1626.36 160.865 1631.53 164.659 1635.65 170.905 1638.71 179.603 1640.82 185.672 1641.88 194.978 1641.88 207.521 1641.88 227.295 1641.88 247.07 1641.88 266.845 1641.88 275.645 1642.55 281.613 1643.89 284.748 1644.94 287.277 1646.64 289.249 1648.99 290.665 1651.33 292.082 1655.67 292.79 1661.99 292.79 1661.99 294.61 1661.99 296.431 1661.99 298.252 1640.3 298.252 1618.6 298.252 1596.91 298.252 1596.91 296.431 1596.91 294.61 1596.91 292.79 1597.82 292.79 1598.73 292.79 1599.64 292.79 1605.77 292.79 1610.05 291.803 1612.49 289.831 1614.94 287.859 1616.64 284.951 1617.59 281.107 1617.98 279.59 1618.17 274.836 1618.17 266.845 1618.17 247.879 1618.17 228.914 1618.17 209.948 1618.17 197.305 1616.61 188.125 1613.5 182.41 1610.39 176.695 1605.14 173.838 1597.77 173.838 1586.37 173.838 1575.02 180.413 1563.72 193.562 1563.72 217.99 1563.72 242.417 1563.72 266.845 1563.72 276.252 1564.24 282.068 1565.3 284.293 1566.64 287.226 1568.48 289.376 1570.83 290.741 1573.18 292.107 1577.94 292.79 1585.12 292.79 1585.12 294.61 1585.12 296.431 1585.12 298.252 1563.43 298.252 1541.74 298.252 1520.04 298.252 1520.04 296.431 1520.04 294.61 1520.04 292.79 1521 292.79 1521.96 292.79 1522.91 292.79 1529.62 292.79 1534.14 290.994 1536.49 287.403 1538.84 283.813 1540.01 276.96 1540.01 266.845 1540.01 249.649 1540.01 232.454 1540.01 215.259 1540.01 198.569 1539.65 188.403 1538.93 184.762 1538.22 181.121 1537.11 178.643 1535.63 177.328 1534.14 176.013 1532.16 175.355 1529.67 175.355 1526.98 175.355 1523.78 176.114 1520.04 177.631 1519.32 175.81 1518.6 173.99 1517.89 172.169 1531.1 166.505 1544.32 160.84 1557.54 155.176ZM1443.49 155.176C1463.42 155.176 1479.41 163.167 1491.48 179.148 1501.73 192.803 1506.85 208.482 1506.85 226.183 1506.85 238.624 1504.03 251.217 1498.38 263.962 1492.72 276.707 1484.94 286.316 1475.03 292.79 1465.12 299.263 1454.08 302.5 1441.91 302.5 1422.09 302.5 1406.33 294.155 1394.64 277.465 1384.78 263.406 1379.85 247.626 1379.85 230.128 1379.85 217.383 1382.84 204.714 1388.82 192.121 1394.81 179.528 1402.69 170.222 1412.46 164.203 1422.23 158.185 1432.57 155.176 1443.49 155.176ZM1336.17 155.176C1338.28 155.176 1340.39 155.176 1342.5 155.176 1342.5 192.399 1342.5 229.622 1342.5 266.845 1342.5 275.544 1343.09 281.334 1344.29 284.217 1345.49 287.1 1347.26 289.249 1349.61 290.665 1351.95 292.082 1356.24 292.79 1362.47 292.79 1362.47 294.61 1362.47 296.431 1362.47 298.252 1341.16 298.252 1319.84 298.252 1298.53 298.252 1298.53 296.431 1298.53 294.61 1298.53 292.79 1304.95 292.79 1309.26 292.132 1311.46 290.817 1313.67 289.502 1315.41 287.328 1316.71 284.293 1318 281.259 1318.65 275.443 1318.65 266.845 1318.65 248.992 1318.65 231.139 1318.65 213.286 1318.65 198.215 1318.22 188.454 1317.35 184.003 1316.68 180.767 1315.63 178.516 1314.19 177.252 1312.76 175.987 1310.79 175.355 1308.3 175.355 1305.62 175.355 1302.36 176.114 1298.53 177.631 1297.86 175.81 1297.19 173.99 1296.52 172.169 1309.74 166.505 1322.96 160.84 1336.17 155.176ZM1230.56 155.176C1243.49 155.176 1254.13 158.792 1262.46 166.024 1270.79 173.256 1274.96 180.767 1274.96 188.555 1274.96 192.399 1273.78 195.509 1271.44 197.886 1269.09 200.263 1265.81 201.452 1261.6 201.452 1255.94 201.452 1251.68 199.53 1248.81 195.686 1247.18 193.562 1246.1 189.516 1245.58 183.548 1245.05 177.58 1243.11 173.029 1239.76 169.893 1236.41 166.859 1231.76 165.341 1225.82 165.341 1216.24 165.341 1208.53 169.084 1202.69 176.569 1194.93 186.482 1191.05 199.58 1191.05 215.865 1191.05 232.454 1194.91 247.095 1202.62 259.79 1210.33 272.484 1220.75 278.831 1233.87 278.831 1243.25 278.831 1251.68 275.443 1259.15 268.665 1264.42 264.013 1269.55 255.567 1274.53 243.328 1275.92 244.036 1277.3 244.744 1278.69 245.452 1275.15 263.76 1268.21 277.845 1257.86 287.707 1247.52 297.569 1236.07 302.5 1223.52 302.5 1208.58 302.5 1195.55 295.875 1184.44 282.624 1173.33 269.374 1167.78 251.47 1167.78 228.914 1167.78 207.065 1173.93 189.314 1186.24 175.659 1198.55 162.003 1213.32 155.176 1230.56 155.176ZM895.702 155.176C897.81 155.176 899.917 155.176 902.024 155.176 902.024 192.399 902.024 229.622 902.024 266.845 902.024 275.544 902.623 281.334 903.82 284.217 905.017 287.1 906.789 289.249 909.136 290.665 911.483 292.082 915.769 292.79 921.995 292.79 921.995 294.61 921.995 296.431 921.995 298.252 900.683 298.252 879.372 298.252 858.06 298.252 858.06 296.431 858.06 294.61 858.06 292.79 864.477 292.79 868.788 292.132 870.991 290.817 873.194 289.502 874.942 287.328 876.235 284.293 877.528 281.259 878.174 275.443 878.174 266.845 878.174 248.992 878.174 231.139 878.174 213.286 878.174 198.215 877.743 188.454 876.881 184.003 876.211 180.767 875.157 178.516 873.72 177.252 872.284 175.987 870.32 175.355 867.83 175.355 865.148 175.355 861.891 176.114 858.06 177.631 857.39 175.81 856.719 173.99 856.049 172.169 869.267 166.505 882.484 160.84 895.702 155.176ZM705.575 155.176C710.747 155.176 717.021 156.339 724.396 158.665 729.281 160.183 732.538 160.941 734.166 160.941 735.698 160.941 736.896 160.587 737.758 159.879 738.62 159.171 739.625 157.603 740.775 155.176 742.355 155.176 743.936 155.176 745.516 155.176 745.516 170.955 745.516 186.734 745.516 202.514 743.936 202.514 742.355 202.514 740.775 202.514 737.135 187.645 732.466 177.53 726.767 172.169 721.068 166.808 713.812 164.128 705 164.128 698.295 164.128 692.884 165.999 688.765 169.741 684.646 173.484 682.587 177.631 682.587 182.183 682.587 187.847 684.12 192.702 687.185 196.748 690.154 200.895 696.188 205.295 705.288 209.948 712.28 213.539 719.272 217.13 726.264 220.721 745.708 230.734 755.43 243.934 755.43 260.321 755.43 272.964 750.904 283.155 741.852 290.893 732.801 298.631 722.672 302.5 711.466 302.5 703.42 302.5 694.225 300.983 683.88 297.948 680.719 296.937 678.133 296.431 676.122 296.431 673.919 296.431 672.195 297.746 670.95 300.376 669.369 300.376 667.789 300.376 666.208 300.376 666.208 283.838 666.208 267.3 666.208 250.762 667.789 250.762 669.369 250.762 670.95 250.762 673.632 264.923 678.756 275.594 686.323 282.776 693.89 289.957 702.366 293.548 711.753 293.548 718.362 293.548 723.75 291.5 727.916 287.403 732.083 283.307 734.166 278.376 734.166 272.61 734.166 265.631 731.843 259.764 727.198 255.01 722.552 250.256 713.285 244.238 699.397 236.955 685.509 229.672 676.409 223.098 672.099 217.231 667.789 211.465 665.634 204.183 665.634 195.383 665.634 183.953 669.345 174.394 676.768 166.707 684.192 159.02 693.794 155.176 705.575 155.176ZM544.631 155.176C546.691 155.176 548.75 155.176 550.809 155.176 550.809 164.987 550.809 174.799 550.809 184.61 566.23 164.987 580.933 155.176 594.917 155.176 602.101 155.176 608.279 157.072 613.451 160.865 618.623 164.659 622.742 170.905 625.807 179.603 627.914 185.672 628.968 194.978 628.968 207.521 628.968 227.295 628.968 247.07 628.968 266.845 628.968 275.645 629.638 281.613 630.979 284.748 632.033 287.277 633.733 289.249 636.079 290.665 638.426 292.082 642.76 292.79 649.082 292.79 649.082 294.61 649.082 296.431 649.082 298.252 627.387 298.252 605.693 298.252 583.998 298.252 583.998 296.431 583.998 294.61 583.998 292.79 584.908 292.79 585.818 292.79 586.728 292.79 592.858 292.79 597.144 291.803 599.586 289.831 602.029 287.859 603.729 284.951 604.687 281.107 605.07 279.59 605.261 274.836 605.261 266.845 605.261 247.879 605.261 228.914 605.261 209.948 605.261 197.305 603.705 188.125 600.592 182.41 597.479 176.695 592.235 173.838 584.86 173.838 573.462 173.838 562.112 180.413 550.809 193.562 550.809 217.99 550.809 242.417 550.809 266.845 550.809 276.252 551.336 282.068 552.39 284.293 553.731 287.226 555.574 289.376 557.921 290.741 560.268 292.107 565.033 292.79 572.217 292.79 572.217 294.61 572.217 296.431 572.217 298.252 550.522 298.252 528.827 298.252 507.133 298.252 507.133 296.431 507.133 294.61 507.133 292.79 508.091 292.79 509.048 292.79 510.006 292.79 516.711 292.79 521.237 290.994 523.583 287.403 525.93 283.813 527.103 276.96 527.103 266.845 527.103 249.649 527.103 232.454 527.103 215.259 527.103 198.569 526.744 188.403 526.026 184.762 525.307 181.121 524.206 178.643 522.721 177.328 521.237 176.013 519.249 175.355 516.759 175.355 514.077 175.355 510.868 176.114 507.133 177.631 506.414 175.81 505.696 173.99 504.978 172.169 518.195 166.505 531.413 160.84 544.631 155.176ZM1735.87 155.024C1750.62 155.024 1762.73 160.157 1772.22 170.424 1781.7 180.691 1786.44 194.422 1786.44 211.617 1756.13 211.617 1725.81 211.617 1695.5 211.617 1695.4 232.252 1700.14 248.436 1709.72 260.169 1719.3 271.902 1730.55 277.769 1743.48 277.769 1752.1 277.769 1759.6 275.266 1765.97 270.259 1772.34 265.252 1777.68 256.679 1781.99 244.541 1783.47 245.553 1784.96 246.564 1786.44 247.576 1784.43 261.433 1778.59 274.052 1768.91 285.431 1759.24 296.81 1747.12 302.5 1732.56 302.5 1716.76 302.5 1703.23 296.001 1691.98 283.003 1680.72 270.006 1675.09 252.532 1675.09 230.583 1675.09 206.813 1680.86 188.277 1692.41 174.976 1703.95 161.675 1718.43 155.024 1735.87 155.024ZM970.635 113.603C972.119 113.603 973.604 113.603 975.088 113.603 975.088 128.826 975.088 144.049 975.088 159.272 985.337 159.272 995.586 159.272 1005.83 159.272 1005.83 162.813 1005.83 166.353 1005.83 169.893 995.586 169.893 985.337 169.893 975.088 169.893 975.088 199.934 975.088 229.976 975.088 260.017 975.088 269.02 976.31 275.088 978.752 278.224 981.194 281.36 984.331 282.928 988.163 282.928 991.323 282.928 994.388 281.891 997.358 279.817 1000.33 277.744 1002.63 274.684 1004.25 270.638 1006.12 270.638 1007.99 270.638 1009.86 270.638 1006.5 280.551 1001.76 288.01 995.634 293.017 989.504 298.024 983.182 300.528 976.669 300.528 972.263 300.528 967.953 299.238 963.738 296.659 959.524 294.079 956.411 290.387 954.399 285.583 952.388 280.778 951.382 273.369 951.382 263.355 951.382 232.201 951.382 201.047 951.382 169.893 944.438 169.893 937.494 169.893 930.55 169.893 930.55 168.224 930.55 166.555 930.55 164.886 935.818 162.661 941.205 158.893 946.713 153.583 952.22 148.272 957.129 141.976 961.439 134.693 963.642 130.849 966.707 123.82 970.635 113.603ZM808.355 113.603C809.84 113.603 811.324 113.603 812.809 113.603 812.809 128.826 812.809 144.049 812.809 159.272 823.058 159.272 833.306 159.272 843.555 159.272 843.555 162.813 843.555 166.353 843.555 169.893 833.306 169.893 823.058 169.893 812.809 169.893 812.809 199.934 812.809 229.976 812.809 260.017 812.809 269.02 814.03 275.088 816.473 278.224 818.915 281.36 822.052 282.928 825.883 282.928 829.044 282.928 832.109 281.891 835.078 279.817 838.048 277.744 840.346 274.684 841.975 270.638 843.843 270.638 845.71 270.638 847.578 270.638 844.226 280.551 839.484 288.01 833.354 293.017 827.224 298.024 820.903 300.528 814.39 300.528 809.984 300.528 805.673 299.238 801.459 296.659 797.245 294.079 794.132 290.387 792.12 285.583 790.109 280.778 789.103 273.369 789.103 263.355 789.103 232.201 789.103 201.047 789.103 169.893 782.159 169.893 775.215 169.893 768.27 169.893 768.27 168.224 768.27 166.555 768.27 164.886 773.538 162.661 778.926 158.893 784.434 153.583 789.941 148.272 794.85 141.976 799.16 134.693 801.363 130.849 804.428 123.82 808.355 113.603ZM412.5 92.5138C440.325 92.5138 468.149 92.5138 495.974 92.5138 495.974 94.385 495.974 96.2563 495.974 98.1276 493.627 98.1276 491.281 98.1276 488.934 98.1276 480.984 98.1276 475.189 100.606 471.55 105.562 469.155 108.799 467.958 116.587 467.958 128.928 467.958 173.231 467.958 217.534 467.958 261.838 467.958 272.256 468.58 279.134 469.826 282.472 470.783 285.001 472.795 287.176 475.86 288.997 479.978 291.424 484.337 292.638 488.934 292.638 491.281 292.638 493.627 292.638 495.974 292.638 495.974 294.509 495.974 296.38 495.974 298.252 468.149 298.252 440.325 298.252 412.5 298.252 412.5 296.38 412.5 294.509 412.5 292.638 414.799 292.638 417.098 292.638 419.396 292.638 427.442 292.638 433.285 290.16 436.924 285.203 439.223 281.967 440.373 274.178 440.373 261.838 440.373 217.534 440.373 173.231 440.373 128.928 440.373 118.509 439.75 111.631 438.505 108.293 437.547 105.764 435.583 103.59 432.614 101.769 428.4 99.3414 423.994 98.1276 419.396 98.1276 417.098 98.1276 414.799 98.1276 412.5 98.1276 412.5 96.2563 412.5 94.385 412.5 92.5138ZM1330.57 82.5C1334.59 82.5 1338.02 83.992 1340.84 86.9759 1343.67 89.9598 1345.08 93.5759 1345.08 97.8241 1345.08 102.072 1343.67 105.714 1340.84 108.748 1338.02 111.783 1334.59 113.3 1330.57 113.3 1326.55 113.3 1323.1 111.783 1320.23 108.748 1317.35 105.714 1315.92 102.072 1315.92 97.8241 1315.92 93.5759 1317.33 89.9598 1320.16 86.9759 1322.98 83.992 1326.45 82.5 1330.57 82.5ZM890.099 82.5C894.122 82.5 897.546 83.992 900.372 86.9759 903.197 89.9598 904.61 93.5759 904.61 97.8241 904.61 102.072 903.197 105.714 900.372 108.748 897.546 111.783 894.122 113.3 890.099 113.3 886.076 113.3 882.628 111.783 879.755 108.748 876.881 105.714 875.444 102.072 875.444 97.8241 875.444 93.5759 876.857 89.9598 879.683 86.9759 882.508 83.992 885.981 82.5 890.099 82.5Z" fill="#FFFF00" fill-rule="evenodd"/><text fill="#000000" fill-opacity="0" font-family="Arial,Arial_MSFontService,sans-serif" font-size="220" x="412.5" y="275">Instituciones</text><g clip-path="url(#clip5)" filter="url(#fx1)" transform="translate(1996 91)"><g clip-path="url(#clip6)"><path d="M750.085 133.577C735.621 139.646 726.283 143.945 722.068 146.474 714.502 150.924 709.09 155.577 705.833 160.432 702.577 165.287 700.948 170.598 700.948 176.363 700.948 183.646 703.008 189.69 707.126 194.494 711.245 199.299 715.986 201.701 721.35 201.701 728.63 201.701 738.208 196.644 750.085 186.529 750.085 168.878 750.085 151.228 750.085 133.577ZM292.492 77.4391C313.133 77.4391 333.774 77.4391 354.415 77.4391 354.415 79.3103 354.415 81.1816 354.415 83.0529 353.074 83.0529 351.733 83.0529 350.392 83.0529 346.657 83.0529 343.807 84.0138 341.844 85.9356 339.88 87.8575 338.898 90.4368 338.898 93.6735 338.898 97.2138 339.904 101.411 341.915 106.267 352.116 131.857 362.317 157.448 372.518 183.039 382.766 156.487 393.015 129.936 403.264 103.384 405.467 97.7195 406.568 93.4207 406.568 90.4873 406.568 89.0712 406.185 87.908 405.419 86.9977 404.365 85.4804 403.024 84.4437 401.396 83.8873 399.768 83.331 396.463 83.0529 391.483 83.0529 391.483 81.1816 391.483 79.3103 391.483 77.4391 405.802 77.4391 420.121 77.4391 434.441 77.4391 434.441 79.3103 434.441 81.1816 434.441 83.0529 429.46 83.4575 426.012 84.5195 424.096 86.2391 420.744 89.2735 417.727 94.331 415.045 101.411 399.48 141.163 383.916 180.915 368.351 220.667 366.388 220.667 364.424 220.667 362.461 220.667 346.8 181.572 331.14 142.478 315.48 103.384 313.372 97.9218 311.361 94.0023 309.445 91.6253 307.53 89.2483 305.087 87.2506 302.118 85.6322 300.49 84.7218 297.281 83.862 292.492 83.0529 292.492 81.1816 292.492 79.3103 292.492 77.4391ZM850.812 73.3425C855.984 73.3425 862.258 74.5057 869.633 76.8322 874.518 78.3494 877.775 79.108 879.403 79.108 880.935 79.108 882.132 78.754 882.995 78.046 883.857 77.3379 884.862 75.7701 886.012 73.3425 887.592 73.3425 889.172 73.3425 890.753 73.3425 890.753 89.1218 890.753 104.901 890.753 120.68 889.172 120.68 887.592 120.68 886.012 120.68 882.372 105.811 877.703 95.6965 872.004 90.3356 866.305 84.9747 859.049 82.2942 850.237 82.2942 843.532 82.2942 838.121 84.1655 834.002 87.908 829.883 91.6506 827.824 95.7977 827.824 100.349 827.824 106.014 829.357 110.869 832.422 114.915 835.391 119.062 841.425 123.462 850.525 128.115 857.516 131.706 864.509 135.297 871.501 138.887 890.944 148.901 900.666 162.101 900.666 178.487 900.666 191.131 896.141 201.322 887.089 209.06 878.038 216.798 867.909 220.667 856.702 220.667 848.657 220.667 839.462 219.149 829.117 216.115 825.956 215.103 823.37 214.598 821.359 214.598 819.156 214.598 817.432 215.913 816.187 218.542 814.606 218.542 813.026 218.542 811.445 218.542 811.445 202.005 811.445 185.467 811.445 168.929 813.026 168.929 814.606 168.929 816.187 168.929 818.868 183.09 823.993 193.761 831.559 200.943 839.126 208.124 847.603 211.715 856.99 211.715 863.599 211.715 868.986 209.667 873.153 205.57 877.319 201.474 879.403 196.542 879.403 190.777 879.403 183.798 877.08 177.931 872.435 173.177 867.789 168.423 858.522 162.405 844.634 155.122 830.745 147.839 821.646 141.264 817.336 135.398 813.026 129.632 810.871 122.349 810.871 113.549 810.871 102.12 814.582 92.5609 822.005 84.8735 829.428 77.1862 839.031 73.3425 850.812 73.3425ZM729.97 73.3425C741.656 73.3425 751.234 75.4161 758.705 79.5632 764.356 82.6988 768.523 87.6046 771.205 94.2804 772.929 98.6299 773.791 107.531 773.791 120.984 773.791 136.713 773.791 152.441 773.791 168.17 773.791 181.421 774.03 189.538 774.509 192.522 774.988 195.506 775.778 197.503 776.88 198.515 777.981 199.526 779.25 200.032 780.687 200.032 782.22 200.032 783.561 199.678 784.71 198.97 786.721 197.655 790.6 193.963 796.348 187.894 796.348 190.726 796.348 193.559 796.348 196.391 785.62 211.563 775.371 219.149 765.601 219.149 760.908 219.149 757.172 217.43 754.395 213.991 751.617 210.552 750.181 204.685 750.085 196.391 736.579 207.416 728.103 213.788 724.654 215.508 719.482 218.037 713.975 219.301 708.132 219.301 699.033 219.301 691.538 216.014 685.647 209.439 679.757 202.864 676.811 194.216 676.811 183.494 676.811 176.717 678.248 170.851 681.121 165.894 685.049 159.016 691.873 152.542 701.595 146.474 711.317 140.405 727.48 133.021 750.085 124.322 750.085 122.501 750.085 120.68 750.085 118.86 750.085 105.002 748.001 95.4942 743.835 90.3356 739.668 85.177 733.61 82.5977 725.66 82.5977 719.626 82.5977 714.837 84.3172 711.293 87.7563 707.653 91.1954 705.833 95.1402 705.833 99.5908 705.929 102.524 706.025 105.457 706.121 108.391 706.121 113.044 704.995 116.634 702.744 119.163 700.494 121.692 697.548 122.956 693.909 122.956 690.364 122.956 687.467 121.641 685.216 119.011 682.965 116.382 681.84 112.791 681.84 108.239 681.84 99.5402 686.054 91.5494 694.483 84.2666 702.912 76.9839 714.741 73.3425 729.97 73.3425ZM559.688 73.3425C561.747 73.3425 563.807 73.3425 565.866 73.3425 565.866 83.154 565.866 92.9655 565.866 102.777 581.287 83.154 595.989 73.3425 609.974 73.3425 617.157 73.3425 623.335 75.2391 628.507 79.0322 633.68 82.8253 637.798 89.0712 640.863 97.7701 642.971 103.839 644.024 113.145 644.024 125.687 644.024 145.462 644.024 165.237 644.024 185.011 644.024 193.811 644.695 199.779 646.036 202.915 647.089 205.444 648.789 207.416 651.136 208.832 653.483 210.248 657.817 210.956 664.139 210.956 664.139 212.777 664.139 214.598 664.139 216.418 642.444 216.418 620.749 216.418 599.055 216.418 599.055 214.598 599.055 212.777 599.055 210.956 599.964 210.956 600.874 210.956 601.784 210.956 607.914 210.956 612.201 209.97 614.643 207.998 617.086 206.025 618.786 203.117 619.744 199.274 620.127 197.756 620.318 193.002 620.318 185.011 620.318 166.046 620.318 147.08 620.318 128.115 620.318 115.471 618.762 106.292 615.649 100.577 612.536 94.862 607.292 92.0046 599.917 92.0046 588.519 92.0046 577.168 98.5793 565.866 111.729 565.866 136.156 565.866 160.584 565.866 185.011 565.866 194.418 566.393 200.234 567.446 202.46 568.787 205.393 570.631 207.542 572.978 208.908 575.325 210.274 580.09 210.956 587.273 210.956 587.273 212.777 587.273 214.598 587.273 216.418 565.579 216.418 543.884 216.418 522.189 216.418 522.189 214.598 522.189 212.777 522.189 210.956 523.147 210.956 524.105 210.956 525.063 210.956 531.768 210.956 536.293 209.161 538.64 205.57 540.987 201.979 542.16 195.126 542.16 185.011 542.16 167.816 542.16 150.621 542.16 133.425 542.16 116.736 541.801 106.57 541.082 102.929 540.364 99.2873 539.263 96.8092 537.778 95.4942 536.293 94.1793 534.306 93.5218 531.816 93.5218 529.134 93.5218 525.925 94.2804 522.189 95.7977 521.471 93.977 520.753 92.1563 520.034 90.3356 533.252 84.6712 546.47 79.0069 559.688 73.3425ZM486.337 73.3425C488.444 73.3425 490.551 73.3425 492.658 73.3425 492.658 110.565 492.658 147.788 492.658 185.011 492.658 193.71 493.257 199.501 494.454 202.384 495.651 205.267 497.423 207.416 499.77 208.832 502.117 210.248 506.403 210.956 512.629 210.956 512.629 212.777 512.629 214.598 512.629 216.418 491.317 216.418 470.006 216.418 448.694 216.418 448.694 214.598 448.694 212.777 448.694 210.956 455.112 210.956 459.422 210.299 461.625 208.984 463.828 207.669 465.576 205.494 466.869 202.46 468.162 199.425 468.808 193.609 468.808 185.011 468.808 167.159 468.808 149.306 468.808 131.453 468.808 116.382 468.377 106.621 467.515 102.17 466.845 98.9333 465.791 96.6827 464.355 95.4184 462.918 94.154 460.954 93.5218 458.464 93.5218 455.782 93.5218 452.525 94.2804 448.694 95.7977 448.024 93.977 447.353 92.1563 446.683 90.3356 459.901 84.6712 473.119 79.0069 486.337 73.3425ZM256.292 73.3425C258.4 73.3425 260.507 73.3425 262.614 73.3425 262.614 110.565 262.614 147.788 262.614 185.011 262.614 193.71 263.213 199.501 264.41 202.384 265.607 205.267 267.379 207.416 269.726 208.832 272.072 210.248 276.359 210.956 282.584 210.956 282.584 212.777 282.584 214.598 282.584 216.418 261.273 216.418 239.961 216.418 218.65 216.418 218.65 214.598 218.65 212.777 218.65 210.956 225.067 210.956 229.377 210.299 231.581 208.984 233.783 207.669 235.531 205.494 236.824 202.46 238.118 199.425 238.764 193.609 238.764 185.011 238.764 167.159 238.764 149.306 238.764 131.453 238.764 116.382 238.333 106.621 237.471 102.17 236.801 98.9333 235.747 96.6827 234.31 95.4184 232.874 94.154 230.91 93.5218 228.42 93.5218 225.738 93.5218 222.481 94.2804 218.65 95.7977 217.979 93.977 217.309 92.1563 216.639 90.3356 229.856 84.6712 243.074 79.0069 256.292 73.3425ZM85.8898 22.2115C77.2694 22.2115 67.4517 23.6781 56.4369 26.6115 56.4369 84.9241 56.4369 143.237 56.4369 201.549 68.6012 204.382 78.802 205.798 87.0392 205.798 109.261 205.798 127.699 197.554 142.353 181.067 157.008 164.579 164.335 142.225 164.335 114.005 164.335 85.5816 157.008 63.177 142.353 46.7908 127.699 30.4046 108.877 22.2115 85.8898 22.2115ZM0.835205 10.6804C27.2711 10.6804 53.7069 10.6804 80.1428 10.6804 109.261 10.6804 131.41 14.1701 146.592 21.1494 161.773 28.1287 173.985 39.7609 183.228 56.046 192.471 72.331 197.093 91.1448 197.093 112.487 197.093 141.113 188.855 165.034 172.381 184.253 153.895 205.697 125.735 216.418 87.9012 216.418 58.8793 216.418 29.8573 216.418 0.835205 216.418 0.835205 214.547 0.835205 212.676 0.835205 210.805 3.27771 210.805 5.72021 210.805 8.1626 210.805 16.3999 210.805 22.2426 208.023 25.6907 202.46 27.7979 199.122 28.8514 191.637 28.8514 180.005 28.8514 135.701 28.8514 91.3977 28.8514 47.0942 28.8514 34.2483 27.5105 26.2069 24.8287 22.9701 21.0931 18.5195 15.5378 16.2942 8.1626 16.2942 5.72021 16.2942 3.27771 16.2942 0.835205 16.2942 0.835205 14.423 0.835205 12.5517 0.835205 10.6804ZM480.733 0.666659C484.756 0.666659 488.18 2.15861 491.006 5.14252 493.831 8.12642 495.244 11.7425 495.244 15.9908 495.244 20.2391 493.831 23.8804 491.006 26.9149 488.18 29.9494 484.756 31.4667 480.733 31.4667 476.71 31.4667 473.262 29.9494 470.389 26.9149 467.515 23.8804 466.079 20.2391 466.079 15.9908 466.079 11.7425 467.491 8.12642 470.317 5.14252 473.143 2.15861 476.615 0.666659 480.733 0.666659ZM250.689 0.666659C254.712 0.666659 258.136 2.15861 260.962 5.14252 263.787 8.12642 265.2 11.7425 265.2 15.9908 265.2 20.2391 263.787 23.8804 260.962 26.9149 258.136 29.9494 254.712 31.4667 250.689 31.4667 246.666 31.4667 243.218 29.9494 240.344 26.9149 237.471 23.8804 236.034 20.2391 236.034 15.9908 236.034 11.7425 237.447 8.12642 240.273 5.14252 243.098 2.15861 246.57 0.666659 250.689 0.666659Z" fill="#FFFF00" fill-rule="evenodd"/></g></g><path d="M2736.92 215.41C2722.45 221.479 2713.12 225.778 2708.9 228.307 2701.33 232.757 2695.92 237.41 2692.67 242.266 2689.41 247.121 2687.78 252.431 2687.78 258.197 2687.78 265.479 2689.84 271.523 2693.96 276.328 2698.08 281.132 2702.82 283.534 2708.18 283.534 2715.46 283.534 2725.04 278.477 2736.92 268.362 2736.92 250.711 2736.92 233.061 2736.92 215.41ZM2279.33 159.272C2299.97 159.272 2320.61 159.272 2341.25 159.272 2341.25 161.144 2341.25 163.015 2341.25 164.886 2339.91 164.886 2338.57 164.886 2337.23 164.886 2333.49 164.886 2330.64 165.847 2328.68 167.769 2326.71 169.691 2325.73 172.27 2325.73 175.507 2325.73 179.047 2326.74 183.245 2328.75 188.1 2338.95 213.691 2349.15 239.282 2359.35 264.872 2369.6 238.321 2379.85 211.769 2390.1 185.217 2392.3 179.553 2393.4 175.254 2393.4 172.321 2393.4 170.905 2393.02 169.741 2392.25 168.831 2391.2 167.314 2389.86 166.277 2388.23 165.721 2386.6 165.164 2383.3 164.886 2378.32 164.886 2378.32 163.015 2378.32 161.144 2378.32 159.272 2392.64 159.272 2406.95 159.272 2421.27 159.272 2421.27 161.144 2421.27 163.015 2421.27 164.886 2416.29 165.291 2412.85 166.353 2410.93 168.072 2407.58 171.107 2404.56 176.164 2401.88 183.245 2386.31 222.997 2370.75 262.748 2355.18 302.5 2353.22 302.5 2351.26 302.5 2349.29 302.5 2333.63 263.406 2317.97 224.311 2302.31 185.217 2300.21 179.755 2298.19 175.836 2296.28 173.459 2294.36 171.082 2291.92 169.084 2288.95 167.465 2287.32 166.555 2284.11 165.695 2279.33 164.886 2279.33 163.015 2279.33 161.144 2279.33 159.272ZM2837.65 155.176C2842.82 155.176 2849.09 156.339 2856.47 158.665 2861.35 160.183 2864.61 160.941 2866.24 160.941 2867.77 160.941 2868.97 160.587 2869.83 159.879 2870.69 159.171 2871.7 157.603 2872.84 155.176 2874.43 155.176 2876.01 155.176 2877.59 155.176 2877.59 170.955 2877.59 186.734 2877.59 202.514 2876.01 202.514 2874.43 202.514 2872.84 202.514 2869.21 187.645 2864.54 177.53 2858.84 172.169 2853.14 166.808 2845.88 164.128 2837.07 164.128 2830.37 164.128 2824.95 165.999 2820.84 169.741 2816.72 173.484 2814.66 177.631 2814.66 182.183 2814.66 187.847 2816.19 192.702 2819.25 196.748 2822.22 200.895 2828.26 205.295 2837.36 209.948 2844.35 213.539 2851.34 217.13 2858.33 220.721 2877.78 230.734 2887.5 243.934 2887.5 260.321 2887.5 272.964 2882.97 283.155 2873.92 290.893 2864.87 298.631 2854.74 302.5 2843.54 302.5 2835.49 302.5 2826.29 300.983 2815.95 297.948 2812.79 296.937 2810.2 296.431 2808.19 296.431 2805.99 296.431 2804.27 297.746 2803.02 300.376 2801.44 300.376 2799.86 300.376 2798.28 300.376 2798.28 283.838 2798.28 267.3 2798.28 250.762 2799.86 250.762 2801.44 250.762 2803.02 250.762 2805.7 264.923 2810.83 275.594 2818.39 282.776 2825.96 289.957 2834.44 293.548 2843.82 293.548 2850.43 293.548 2855.82 291.5 2859.99 287.403 2864.15 283.307 2866.24 278.376 2866.24 272.61 2866.24 265.631 2863.91 259.764 2859.27 255.01 2854.62 250.256 2845.36 244.238 2831.47 236.955 2817.58 229.672 2808.48 223.098 2804.17 217.231 2799.86 211.465 2797.7 204.183 2797.7 195.383 2797.7 183.953 2801.42 174.394 2808.84 166.707 2816.26 159.02 2825.86 155.176 2837.65 155.176ZM2716.8 155.176C2728.49 155.176 2738.07 157.249 2745.54 161.397 2751.19 164.532 2755.36 169.438 2758.04 176.114 2759.76 180.463 2760.62 189.364 2760.62 202.817 2760.62 218.546 2760.62 234.275 2760.62 250.003 2760.62 263.254 2760.86 271.371 2761.34 274.355 2761.82 277.339 2762.61 279.337 2763.71 280.348 2764.81 281.36 2766.08 281.866 2767.52 281.866 2769.05 281.866 2770.39 281.511 2771.54 280.803 2773.55 279.488 2777.43 275.797 2783.18 269.728 2783.18 272.56 2783.18 275.392 2783.18 278.224 2772.45 293.397 2762.2 300.983 2752.43 300.983 2747.74 300.983 2744.01 299.263 2741.23 295.824 2738.45 292.385 2737.01 286.518 2736.92 278.224 2723.41 289.249 2714.94 295.622 2711.49 297.341 2706.32 299.87 2700.81 301.134 2694.97 301.134 2685.87 301.134 2678.37 297.847 2672.48 291.272 2666.59 284.698 2663.64 276.049 2663.64 265.328 2663.64 258.551 2665.08 252.684 2667.95 247.728 2671.88 240.849 2678.71 234.376 2688.43 228.307 2698.15 222.238 2714.31 214.854 2736.92 206.155 2736.92 204.334 2736.92 202.514 2736.92 200.693 2736.92 186.836 2734.83 177.328 2730.67 172.169 2726.5 167.01 2720.44 164.431 2712.49 164.431 2706.46 164.431 2701.67 166.151 2698.13 169.59 2694.49 173.029 2692.67 176.974 2692.67 181.424 2692.76 184.357 2692.86 187.291 2692.95 190.224 2692.95 194.877 2691.83 198.468 2689.58 200.997 2687.33 203.525 2684.38 204.79 2680.74 204.79 2677.2 204.79 2674.3 203.475 2672.05 200.845 2669.8 198.215 2668.67 194.624 2668.67 190.072 2668.67 181.374 2672.89 173.383 2681.32 166.1 2689.75 158.817 2701.57 155.176 2716.8 155.176ZM2546.52 155.176C2548.58 155.176 2550.64 155.176 2552.7 155.176 2552.7 164.987 2552.7 174.799 2552.7 184.61 2568.12 164.987 2582.82 155.176 2596.81 155.176 2603.99 155.176 2610.17 157.072 2615.34 160.865 2620.51 164.659 2624.63 170.905 2627.7 179.603 2629.8 185.672 2630.86 194.978 2630.86 207.521 2630.86 227.295 2630.86 247.07 2630.86 266.845 2630.86 275.645 2631.53 281.613 2632.87 284.748 2633.92 287.277 2635.62 289.249 2637.97 290.665 2640.32 292.082 2644.65 292.79 2650.97 292.79 2650.97 294.61 2650.97 296.431 2650.97 298.252 2629.28 298.252 2607.58 298.252 2585.89 298.252 2585.89 296.431 2585.89 294.61 2585.89 292.79 2586.8 292.79 2587.71 292.79 2588.62 292.79 2594.75 292.79 2599.03 291.803 2601.48 289.831 2603.92 287.859 2605.62 284.951 2606.58 281.107 2606.96 279.59 2607.15 274.836 2607.15 266.845 2607.15 247.879 2607.15 228.914 2607.15 209.948 2607.15 197.305 2605.59 188.125 2602.48 182.41 2599.37 176.695 2594.13 173.838 2586.75 173.838 2575.35 173.838 2564 180.413 2552.7 193.562 2552.7 217.99 2552.7 242.417 2552.7 266.845 2552.7 276.252 2553.23 282.068 2554.28 284.293 2555.62 287.226 2557.46 289.376 2559.81 290.741 2562.16 292.107 2566.92 292.79 2574.11 292.79 2574.11 294.61 2574.11 296.431 2574.11 298.252 2552.41 298.252 2530.72 298.252 2509.02 298.252 2509.02 296.431 2509.02 294.61 2509.02 292.79 2509.98 292.79 2510.94 292.79 2511.9 292.79 2518.6 292.79 2523.13 290.994 2525.47 287.403 2527.82 283.813 2528.99 276.96 2528.99 266.845 2528.99 249.649 2528.99 232.454 2528.99 215.259 2528.99 198.569 2528.63 188.403 2527.92 184.762 2527.2 181.121 2526.1 178.643 2524.61 177.328 2523.13 176.013 2521.14 175.355 2518.65 175.355 2515.97 175.355 2512.76 176.114 2509.02 177.631 2508.3 175.81 2507.59 173.99 2506.87 172.169 2520.09 166.505 2533.3 160.84 2546.52 155.176ZM2473.17 155.176C2475.28 155.176 2477.38 155.176 2479.49 155.176 2479.49 192.399 2479.49 229.622 2479.49 266.845 2479.49 275.544 2480.09 281.334 2481.29 284.217 2482.48 287.1 2484.26 289.249 2486.6 290.665 2488.95 292.082 2493.24 292.79 2499.46 292.79 2499.46 294.61 2499.46 296.431 2499.46 298.252 2478.15 298.252 2456.84 298.252 2435.53 298.252 2435.53 296.431 2435.53 294.61 2435.53 292.79 2441.94 292.79 2446.26 292.132 2448.46 290.817 2450.66 289.502 2452.41 287.328 2453.7 284.293 2455 281.259 2455.64 275.443 2455.64 266.845 2455.64 248.992 2455.64 231.139 2455.64 213.286 2455.64 198.215 2455.21 188.454 2454.35 184.003 2453.68 180.767 2452.62 178.516 2451.19 177.252 2449.75 175.987 2447.79 175.355 2445.3 175.355 2442.62 175.355 2439.36 176.114 2435.53 177.631 2434.86 175.81 2434.19 173.99 2433.52 172.169 2446.73 166.505 2459.95 160.84 2473.17 155.176ZM2243.13 155.176C2245.23 155.176 2247.34 155.176 2249.45 155.176 2249.45 192.399 2249.45 229.622 2249.45 266.845 2249.45 275.544 2250.05 281.334 2251.24 284.217 2252.44 287.1 2254.21 289.249 2256.56 290.665 2258.91 292.082 2263.19 292.79 2269.42 292.79 2269.42 294.61 2269.42 296.431 2269.42 298.252 2248.11 298.252 2226.79 298.252 2205.48 298.252 2205.48 296.431 2205.48 294.61 2205.48 292.79 2211.9 292.79 2216.21 292.132 2218.41 290.817 2220.62 289.502 2222.36 287.328 2223.66 284.293 2224.95 281.259 2225.6 275.443 2225.6 266.845 2225.6 248.992 2225.6 231.139 2225.6 213.286 2225.6 198.215 2225.17 188.454 2224.3 184.003 2223.63 180.767 2222.58 178.516 2221.14 177.252 2219.71 175.987 2217.74 175.355 2215.25 175.355 2212.57 175.355 2209.31 176.114 2205.48 177.631 2204.81 175.81 2204.14 173.99 2203.47 172.169 2216.69 166.505 2229.91 160.84 2243.13 155.176ZM2072.72 104.045C2064.1 104.045 2054.28 105.511 2043.27 108.445 2043.27 166.757 2043.27 225.07 2043.27 283.383 2055.43 286.215 2065.64 287.631 2073.87 287.631 2096.09 287.631 2114.53 279.387 2129.19 262.9 2143.84 246.413 2151.17 224.059 2151.17 195.838 2151.17 167.415 2143.84 145.01 2129.19 128.624 2114.53 112.238 2095.71 104.045 2072.72 104.045ZM1987.67 92.5138C2014.1 92.5138 2040.54 92.5138 2066.98 92.5138 2096.09 92.5138 2118.24 96.0034 2133.43 102.983 2148.61 109.962 2160.82 121.594 2170.06 137.879 2179.3 154.164 2183.93 172.978 2183.93 194.321 2183.93 222.946 2175.69 246.868 2159.21 266.086 2140.73 287.53 2112.57 298.252 2074.73 298.252 2045.71 298.252 2016.69 298.252 1987.67 298.252 1987.67 296.38 1987.67 294.509 1987.67 292.638 1990.11 292.638 1992.55 292.638 1995 292.638 2003.23 292.638 2009.08 289.856 2012.52 284.293 2014.63 280.955 2015.68 273.47 2015.68 261.838 2015.68 217.534 2015.68 173.231 2015.68 128.928 2015.68 116.082 2014.34 108.04 2011.66 104.803 2007.93 100.353 2002.37 98.1276 1995 98.1276 1992.55 98.1276 1990.11 98.1276 1987.67 98.1276 1987.67 96.2563 1987.67 94.385 1987.67 92.5138ZM2467.57 82.5C2471.59 82.5 2475.01 83.992 2477.84 86.9759 2480.66 89.9598 2482.08 93.5759 2482.08 97.8241 2482.08 102.072 2480.66 105.714 2477.84 108.748 2475.01 111.783 2471.59 113.3 2467.57 113.3 2463.54 113.3 2460.1 111.783 2457.22 108.748 2454.35 105.714 2452.91 102.072 2452.91 97.8241 2452.91 93.5759 2454.32 89.9598 2457.15 86.9759 2459.98 83.992 2463.45 82.5 2467.57 82.5ZM2237.52 82.5C2241.55 82.5 2244.97 83.992 2247.79 86.9759 2250.62 89.9598 2252.03 93.5759 2252.03 97.8241 2252.03 102.072 2250.62 105.714 2247.79 108.748 2244.97 111.783 2241.55 113.3 2237.52 113.3 2233.5 113.3 2230.05 111.783 2227.18 108.748 2224.3 105.714 2222.87 102.072 2222.87 97.8241 2222.87 93.5759 2224.28 89.9598 2227.11 86.9759 2229.93 83.992 2233.4 82.5 2237.52 82.5Z" fill="#FFFF00" fill-rule="evenodd"/><text fill="#000000" fill-opacity="0" font-family="Arial,Arial_MSFontService,sans-serif" font-size="220" x="1987.67" y="275">Divinas</text></g></svg>