<svg width="1343" height="371" xmlns="http://www.w3.org/2000/svg" xmlns:xlink="http://www.w3.org/1999/xlink" xml:space="preserve" overflow="hidden"><defs><clipPath id="clip0"><rect x="2163" y="417" width="1343" height="371"/></clipPath></defs><g clip-path="url(#clip0)" transform="translate(-2163 -417)"><path d="M2168 688.891 2433.26 424 3498 424 3498 516.109 3232.74 781 2168 781 2168 688.891Z" fill="#4F81BD" fill-rule="evenodd" fill-opacity="1"/><path d="M3233 688.891 3498 424 3498 516.109 3233 781 3233 688.891Z" fill="#000000" fill-rule="evenodd" fill-opacity="0.196078"/><path d="M2168 689 2433.26 424 3498 424 3232.74 689 2168 689Z" fill="#FFFFFF" fill-rule="evenodd" fill-opacity="0.196078"/><path d="M2168.5 689.391 2433.76 424.5 3498.5 424.5 3498.5 516.609 3233.24 781.5 2168.5 781.5 2168.5 689.391ZM2168.5 689.391 3233.24 689.391 3498.5 424.5M3233.24 689.391 3233.24 781.5" stroke="#000000" stroke-width="9.16667" stroke-linecap="butt" stroke-linejoin="round" stroke-miterlimit="10" stroke-opacity="1" fill="none" fill-rule="evenodd"/></g></svg>