<svg width="3438" height="2464" xmlns="http://www.w3.org/2000/svg" xmlns:xlink="http://www.w3.org/1999/xlink" overflow="hidden"><defs><filter id="fx0" x="-10%" y="-10%" width="120%" height="120%" filterUnits="userSpaceOnUse" primitiveUnits="userSpaceOnUse"><feComponentTransfer color-interpolation-filters="sRGB"><feFuncR type="discrete" tableValues="0.752941 0.752941"/><feFuncG type="discrete" tableValues="0.752941 0.752941"/><feFuncB type="discrete" tableValues="0.752941 0.752941"/><feFuncA type="linear" slope="0.8" intercept="0"/></feComponentTransfer><feGaussianBlur stdDeviation="0 0"/></filter><filter id="fx1" x="-10%" y="-10%" width="120%" height="120%" filterUnits="userSpaceOnUse" primitiveUnits="userSpaceOnUse"><feComponentTransfer color-interpolation-filters="sRGB"><feFuncR type="discrete" tableValues="0.752941 0.752941"/><feFuncG type="discrete" tableValues="0.752941 0.752941"/><feFuncB type="discrete" tableValues="0.752941 0.752941"/><feFuncA type="linear" slope="0.8" intercept="0"/></feComponentTransfer><feGaussianBlur stdDeviation="0 0"/></filter><filter id="fx2" x="-10%" y="-10%" width="120%" height="120%" filterUnits="userSpaceOnUse" primitiveUnits="userSpaceOnUse"><feComponentTransfer color-interpolation-filters="sRGB"><feFuncR type="discrete" tableValues="0.752941 0.752941"/><feFuncG type="discrete" tableValues="0.752941 0.752941"/><feFuncB type="discrete" tableValues="0.752941 0.752941"/><feFuncA type="linear" slope="0.8" intercept="0"/></feComponentTransfer><feGaussianBlur stdDeviation="0 0"/></filter><filter id="fx3" x="-10%" y="-10%" width="120%" height="120%" filterUnits="userSpaceOnUse" primitiveUnits="userSpaceOnUse"><feComponentTransfer color-interpolation-filters="sRGB"><feFuncR type="discrete" tableValues="0.752941 0.752941"/><feFuncG type="discrete" tableValues="0.752941 0.752941"/><feFuncB type="discrete" tableValues="0.752941 0.752941"/><feFuncA type="linear" slope="0.8" intercept="0"/></feComponentTransfer><feGaussianBlur stdDeviation="0 0"/></filter><filter id="fx4" x="-10%" y="-10%" width="120%" height="120%" filterUnits="userSpaceOnUse" primitiveUnits="userSpaceOnUse"><feComponentTransfer color-interpolation-filters="sRGB"><feFuncR type="discrete" tableValues="0.752941 0.752941"/><feFuncG type="discrete" tableValues="0.752941 0.752941"/><feFuncB type="discrete" tableValues="0.752941 0.752941"/><feFuncA type="linear" slope="0.8" intercept="0"/></feComponentTransfer><feGaussianBlur stdDeviation="0 0"/></filter><filter id="fx5" x="-10%" y="-10%" width="120%" height="120%" filterUnits="userSpaceOnUse" primitiveUnits="userSpaceOnUse"><feComponentTransfer color-interpolation-filters="sRGB"><feFuncR type="discrete" tableValues="0.752941 0.752941"/><feFuncG type="discrete" tableValues="0.752941 0.752941"/><feFuncB type="discrete" tableValues="0.752941 0.752941"/><feFuncA type="linear" slope="0.8" intercept="0"/></feComponentTransfer><feGaussianBlur stdDeviation="0 0"/></filter><clipPath id="clip6"><rect x="0" y="55" width="3438" height="2464"/></clipPath><clipPath id="clip7"><rect x="0" y="0" width="315" height="105"/></clipPath><clipPath id="clip8"><rect x="0" y="0" width="1081" height="359"/></clipPath><clipPath id="clip9"><rect x="0" y="0" width="52" height="105"/></clipPath><clipPath id="clip10"><rect x="0" y="0" width="179" height="359"/></clipPath><clipPath id="clip11"><rect x="0" y="0" width="120" height="103"/></clipPath><clipPath id="clip12"><rect x="0" y="0" width="412" height="352"/></clipPath><clipPath id="clip13"><rect x="0" y="0" width="122" height="105"/></clipPath><clipPath id="clip14"><rect x="0" y="0" width="420" height="359"/></clipPath><clipPath id="clip15"><rect x="0" y="0" width="50" height="70"/></clipPath><clipPath id="clip16"><rect x="0" y="0" width="170" height="241"/></clipPath><clipPath id="clip17"><rect x="0" y="0" width="168" height="105"/></clipPath><clipPath id="clip18"><rect x="0" y="0" width="577" height="359"/></clipPath></defs><g clip-path="url(#clip6)" transform="matrix(1 0 0 1 0 -55)"><text fill="#FFFF00" font-family="Times New Roman,Times New Roman_MSFontService,sans-serif" font-style="italic" font-weight="400" font-size="183" transform="matrix(1 0 0 1 985.073 606)">(Dos <tspan font-size="183" x="399.438" y="0">Alternativas</tspan><tspan font-size="183" x="1296.05" y="0">)</tspan></text><g clip-path="url(#clip7)" filter="url(#fx0)" transform="translate(91 63)"><g clip-path="url(#clip8)"><path d="M544.07 216.7C534.247 226.542 527.905 233.513 525.043 237.614 519.904 244.831 516.228 252.376 514.017 260.25 511.805 268.123 510.699 276.734 510.699 286.084 510.699 297.894 512.098 307.695 514.895 315.486 517.692 323.277 520.912 327.173 524.555 327.173 529.499 327.173 536.003 318.972 544.07 302.569 544.07 273.946 544.07 245.323 544.07 216.7ZM963.987 136.244C958.588 136.244 953.758 141.534 949.497 152.114 945.237 162.694 942.748 177.415 942.033 196.278 955.823 196.278 969.614 196.278 983.405 196.278 983.079 181.844 982.396 171.674 981.356 165.769 979.729 156.584 977.306 149.366 974.086 144.117 970.866 138.869 967.5 136.244 963.987 136.244ZM767.862 135.014C764.414 135.014 760.95 137.597 757.47 142.764 753.99 147.931 751.176 156.994 749.03 169.952 746.883 182.91 745.81 199.559 745.81 219.899 745.81 252.704 748.395 280.999 753.567 304.783 758.738 328.567 765.552 340.459 774.009 340.459 780.319 340.459 785.523 333.898 789.621 320.776 793.719 307.654 795.768 285.1 795.768 253.114 795.768 213.091 792.353 181.598 785.523 158.634 780.904 142.887 775.017 135.014 767.862 135.014ZM1046.06 119.021C1049.57 119.021 1053.83 120.907 1058.84 124.68 1062.16 127.14 1064.37 128.371 1065.47 128.371 1066.51 128.371 1067.33 127.797 1067.91 126.648 1068.5 125.5 1069.18 122.958 1069.96 119.021 1071.04 119.021 1072.11 119.021 1073.18 119.021 1073.18 144.61 1073.18 170.198 1073.18 195.786 1072.11 195.786 1071.04 195.786 1069.96 195.786 1067.49 171.674 1064.32 155.271 1060.45 146.578 1056.58 137.884 1051.65 133.538 1045.67 133.538 1041.11 133.538 1037.44 136.572 1034.64 142.641 1031.84 148.71 1030.44 155.435 1030.44 162.817 1030.44 172.002 1031.48 179.876 1033.57 186.437 1035.58 193.162 1039.68 200.297 1045.86 207.842 1050.61 213.665 1055.36 219.488 1060.11 225.312 1073.31 241.55 1079.91 262.956 1079.91 289.529 1079.91 310.032 1076.84 326.558 1070.69 339.106 1064.55 351.654 1057.67 357.928 1050.06 357.928 1044.59 357.928 1038.35 355.468 1031.32 350.547 1029.18 348.907 1027.42 348.087 1026.05 348.087 1024.56 348.087 1023.39 350.219 1022.54 354.484 1021.47 354.484 1020.39 354.484 1019.32 354.484 1019.32 327.665 1019.32 300.847 1019.32 274.028 1020.39 274.028 1021.47 274.028 1022.54 274.028 1024.36 296.992 1027.84 314.297 1032.98 325.943 1038.12 337.589 1043.88 343.412 1050.25 343.412 1054.74 343.412 1058.4 340.09 1061.23 333.447 1064.06 326.804 1065.47 318.808 1065.47 309.458 1065.47 298.14 1063.9 288.626 1060.74 280.917 1057.59 273.208 1051.29 263.448 1041.86 251.638 1032.43 239.828 1026.25 229.166 1023.32 219.653 1020.39 210.303 1018.93 198.493 1018.93 184.222 1018.93 165.687 1021.45 150.186 1026.49 137.72 1031.53 125.254 1038.05 119.021 1046.06 119.021ZM848.341 119.021C849.739 119.021 851.138 119.021 852.537 119.021 852.537 134.932 852.537 150.843 852.537 166.753 863.01 134.932 872.995 119.021 882.492 119.021 887.371 119.021 891.566 122.097 895.079 128.248 898.592 134.399 901.389 144.527 903.471 158.634 904.902 168.476 905.617 183.566 905.617 203.906 905.617 235.973 905.617 268.041 905.617 300.108 905.617 314.379 906.073 324.057 906.983 329.142 907.699 333.242 908.854 336.441 910.447 338.737 912.041 341.034 914.985 342.182 919.278 342.182 919.278 345.134 919.278 348.087 919.278 351.039 904.544 351.039 889.81 351.039 875.076 351.039 875.076 348.087 875.076 345.134 875.076 342.182 875.694 342.182 876.312 342.182 876.93 342.182 881.094 342.182 884.005 340.582 885.663 337.384 887.322 334.185 888.477 329.47 889.127 323.236 889.387 320.776 889.517 313.067 889.517 300.108 889.517 269.353 889.517 238.598 889.517 207.842 889.517 187.339 888.46 172.453 886.346 163.186 884.232 153.918 880.671 149.284 875.662 149.284 867.921 149.284 860.213 159.946 852.537 181.27 852.537 220.883 852.537 260.496 852.537 300.108 852.537 315.363 852.894 324.795 853.61 328.403 854.521 333.16 855.773 336.646 857.366 338.86 858.96 341.075 862.196 342.182 867.075 342.182 867.075 345.134 867.075 348.087 867.075 351.039 852.341 351.039 837.608 351.039 822.874 351.039 822.874 348.087 822.874 345.134 822.874 342.182 823.524 342.182 824.175 342.182 824.825 342.182 829.379 342.182 832.452 339.27 834.046 333.447 835.64 327.624 836.437 316.511 836.437 300.108 836.437 272.224 836.437 244.339 836.437 216.454 836.437 189.389 836.193 172.904 835.705 166.999 835.217 161.094 834.469 157.076 833.461 154.943 832.452 152.811 831.103 151.745 829.411 151.745 827.59 151.745 825.411 152.975 822.874 155.435 822.386 152.483 821.898 149.53 821.41 146.578 830.387 137.392 839.364 128.207 848.341 119.021ZM770.886 119.021C784.417 119.021 795.28 131.979 803.476 157.896 810.437 180.04 813.917 205.464 813.917 234.169 813.917 254.345 811.998 274.766 808.16 295.434 804.322 316.101 799.037 331.684 792.304 342.182 785.572 352.68 778.074 357.928 769.813 357.928 756.348 357.928 745.647 344.396 737.711 317.331 731.011 294.531 727.661 268.943 727.661 240.566 727.661 219.899 729.693 199.354 733.759 178.932 737.825 158.511 743.175 143.42 749.81 133.661 756.445 123.901 763.471 119.021 770.886 119.021ZM698.002 119.021C699.433 119.021 700.864 119.021 702.295 119.021 702.295 179.384 702.295 239.746 702.295 300.108 702.295 314.215 702.702 323.606 703.515 328.28 704.328 332.955 705.532 336.441 707.125 338.737 708.719 341.034 711.63 342.182 715.858 342.182 715.858 345.134 715.858 348.087 715.858 351.039 701.385 351.039 686.911 351.039 672.437 351.039 672.437 348.087 672.437 345.134 672.437 342.182 676.796 342.182 679.723 341.116 681.219 338.983 682.715 336.851 683.903 333.324 684.781 328.403 685.659 323.483 686.098 314.051 686.098 300.108 686.098 271.157 686.098 242.206 686.098 213.255 686.098 188.815 685.805 172.986 685.22 165.769 684.765 160.52 684.049 156.871 683.073 154.82 682.097 152.77 680.764 151.745 679.073 151.745 677.251 151.745 675.04 152.975 672.437 155.435 671.982 152.483 671.527 149.53 671.071 146.578 680.048 137.392 689.025 128.207 698.002 119.021ZM626.276 119.021C635.058 119.021 642.279 124.885 647.938 136.613 653.597 148.341 656.427 160.52 656.427 173.15 656.427 179.384 655.63 184.427 654.036 188.282 652.443 192.137 650.215 194.064 647.352 194.064 643.514 194.064 640.62 190.948 638.668 184.714 637.562 181.27 636.831 174.709 636.473 165.031 636.115 155.353 634.798 147.972 632.521 142.887 630.244 137.966 627.089 135.506 623.056 135.506 616.551 135.506 611.315 141.575 607.347 153.713 602.078 169.788 599.443 191.03 599.443 217.438 599.443 244.339 602.061 268.082 607.298 288.667 612.534 309.253 619.609 319.546 628.52 319.546 634.895 319.546 640.62 314.051 645.694 303.061 649.271 295.516 652.752 281.819 656.134 261.972 657.077 263.12 658.021 264.268 658.964 265.416 656.557 295.106 651.841 317.947 644.816 333.939 637.79 349.932 630.017 357.928 621.495 357.928 611.347 357.928 602.5 347.185 594.955 325.697 587.409 304.209 583.636 275.176 583.636 238.598 583.636 203.168 587.815 174.381 596.174 152.237 604.533 130.093 614.567 119.021 626.276 119.021ZM530.409 119.021C538.345 119.021 544.85 122.384 549.924 129.109 553.762 134.194 556.592 142.149 558.413 152.975 559.584 160.028 560.17 174.463 560.17 196.278 560.17 221.785 560.17 247.291 560.17 272.798 560.17 294.285 560.332 307.449 560.657 312.288 560.983 317.126 561.519 320.366 562.267 322.006 563.016 323.647 563.877 324.467 564.853 324.467 565.894 324.467 566.805 323.893 567.585 322.744 568.951 320.612 571.586 314.625 575.489 304.783 575.489 309.376 575.489 313.969 575.489 318.562 568.203 343.166 561.243 355.468 554.608 355.468 551.42 355.468 548.883 352.68 546.997 347.103 545.11 341.526 544.135 332.012 544.07 318.562 534.898 336.441 529.141 346.775 526.799 349.563 523.286 353.664 519.546 355.714 515.578 355.714 509.398 355.714 504.308 350.383 500.307 339.721 496.307 329.059 494.306 315.035 494.306 297.648 494.306 286.658 495.282 277.144 497.234 269.107 499.901 257.953 504.536 247.455 511.138 237.614 517.741 227.772 528.718 215.798 544.07 201.691 544.07 198.739 544.07 195.786 544.07 192.834 544.07 170.362 542.655 154.943 539.825 146.578 536.995 138.212 532.881 134.03 527.482 134.03 523.384 134.03 520.131 136.818 517.724 142.395 515.253 147.972 514.017 154.369 514.017 161.586 514.082 166.343 514.147 171.1 514.212 175.857 514.212 183.402 513.447 189.225 511.919 193.326 510.39 197.427 508.39 199.477 505.918 199.477 503.511 199.477 501.543 197.345 500.015 193.08 498.486 188.815 497.722 182.992 497.722 175.611 497.722 161.504 500.584 148.546 506.308 136.736 512.033 124.926 520.066 119.021 530.409 119.021ZM360.751 119.021C362.149 119.021 363.548 119.021 364.946 119.021 364.946 135.014 364.946 151.007 364.946 166.999 371.451 150.597 375.289 141.165 376.46 138.704 379.387 132.471 382.542 127.633 385.925 124.188 389.308 120.743 392.658 119.021 395.975 119.021 401.57 119.021 406.383 123.122 410.416 131.323 414.449 139.525 417.149 151.417 418.515 166.999 425.215 147.316 430.874 134.399 435.493 128.248 440.112 122.097 444.86 119.021 449.739 119.021 454.488 119.021 458.7 122.097 462.375 128.248 466.05 134.399 468.961 144.445 471.108 158.388 472.539 167.902 473.255 182.828 473.255 203.168 473.255 235.481 473.255 267.795 473.255 300.108 473.255 314.215 473.677 323.893 474.523 329.142 475.174 332.75 476.377 335.826 478.133 338.368 479.89 340.911 482.752 342.182 486.72 342.182 486.72 345.134 486.72 348.087 486.72 351.039 472.019 351.039 457.317 351.039 442.616 351.039 442.616 348.087 442.616 345.134 442.616 342.182 443.234 342.182 443.852 342.182 444.47 342.182 448.308 342.182 451.3 340.295 453.447 336.523 454.943 333.898 456.016 329.716 456.667 323.975 456.927 321.186 457.057 313.231 457.057 300.108 457.057 267.795 457.057 235.481 457.057 203.168 457.057 184.796 456.179 171.838 454.423 164.293 451.886 153.795 447.82 148.546 442.226 148.546 438.778 148.546 435.314 150.72 431.834 155.066 428.354 159.413 424.142 167.492 419.198 179.302 419.133 180.204 419.068 181.106 419.003 182.008 419.068 185.535 419.133 189.061 419.198 192.588 419.198 228.428 419.198 264.268 419.198 300.108 419.198 315.527 419.54 325.123 420.223 328.895 420.906 332.668 422.19 335.826 424.077 338.368 425.963 340.911 429.183 342.182 433.737 342.182 433.737 345.134 433.737 348.087 433.737 351.039 418.678 351.039 403.619 351.039 388.559 351.039 388.559 348.087 388.559 345.134 388.559 342.182 393.503 342.182 396.902 340.706 398.756 337.753 400.61 334.8 401.895 330.372 402.61 324.467 402.936 321.678 403.098 313.559 403.098 300.108 403.098 267.795 403.098 235.481 403.098 203.168 403.098 184.796 402.025 171.592 399.878 163.555 397.016 153.057 393.016 147.808 387.876 147.808 384.364 147.808 380.884 150.186 377.436 154.943 372.037 162.161 367.874 170.28 364.946 179.302 364.946 219.571 364.946 259.839 364.946 300.108 364.946 314.871 365.353 324.467 366.166 328.895 366.979 333.324 368.183 336.646 369.776 338.86 371.37 341.075 374.606 342.182 379.485 342.182 379.485 345.134 379.485 348.087 379.485 351.039 364.751 351.039 350.018 351.039 335.284 351.039 335.284 348.087 335.284 345.134 335.284 342.182 339.382 342.182 342.244 341.075 343.87 338.86 345.497 336.646 346.732 333.119 347.578 328.28 348.424 323.442 348.847 314.051 348.847 300.108 348.847 271.403 348.847 242.699 348.847 213.994 348.847 189.225 348.554 173.232 347.968 166.015 347.513 160.602 346.797 156.871 345.822 154.82 344.846 152.77 343.512 151.745 341.821 151.745 340 151.745 337.821 152.975 335.284 155.435 334.796 152.483 334.308 149.53 333.82 146.578 342.797 137.392 351.774 128.207 360.751 119.021ZM293.847 119.021C295.213 119.021 296.579 119.021 297.945 119.021 297.945 135.916 297.945 152.811 297.945 169.706 305.426 135.916 313.102 119.021 320.973 119.021 324.55 119.021 327.51 121.769 329.852 127.264 332.194 132.758 333.365 139.115 333.365 146.332 333.365 152.729 332.519 158.142 330.828 162.571 329.136 166.999 327.12 169.214 324.778 169.214 322.501 169.214 319.948 166.384 317.118 160.725 314.289 155.066 312.191 152.237 310.825 152.237 309.654 152.237 308.386 153.877 307.02 157.158 304.092 163.883 301.067 174.955 297.945 190.373 297.945 226.378 297.945 262.382 297.945 298.386 297.945 310.852 298.563 320.284 299.799 326.681 300.645 331.11 302.141 334.8 304.287 337.753 306.434 340.706 309.524 342.182 313.557 342.182 313.557 345.134 313.557 348.087 313.557 351.039 298.303 351.039 283.048 351.039 267.794 351.039 267.794 348.087 267.794 345.134 267.794 342.182 272.348 342.182 275.73 340.377 277.942 336.769 279.568 334.144 280.707 329.962 281.357 324.221 281.682 321.432 281.845 313.477 281.845 300.354 281.845 271.239 281.845 242.124 281.845 213.009 281.845 186.765 281.634 171.141 281.211 166.138 280.788 161.135 280.007 157.486 278.869 155.189 277.731 152.893 276.316 151.745 274.625 151.745 272.608 151.745 270.331 152.975 267.794 155.435 267.469 152.483 267.144 149.53 266.819 146.578 275.828 137.392 284.837 128.207 293.847 119.021ZM242.624 119.021C244.055 119.021 245.486 119.021 246.917 119.021 246.917 179.384 246.917 239.746 246.917 300.108 246.917 314.215 247.324 323.606 248.137 328.28 248.95 332.955 250.154 336.441 251.747 338.737 253.341 341.034 256.252 342.182 260.48 342.182 260.48 345.134 260.48 348.087 260.48 351.039 246.007 351.039 231.533 351.039 217.059 351.039 217.059 348.087 217.059 345.134 217.059 342.182 221.418 342.182 224.345 341.116 225.841 338.983 227.337 336.851 228.525 333.324 229.403 328.403 230.281 323.483 230.72 314.051 230.72 300.108 230.72 271.157 230.72 242.206 230.72 213.255 230.72 188.815 230.427 172.986 229.842 165.769 229.386 160.52 228.671 156.871 227.695 154.82 226.719 152.77 225.386 151.745 223.695 151.745 221.873 151.745 219.661 152.975 217.059 155.435 216.604 152.483 216.149 149.53 215.693 146.578 224.67 137.392 233.647 128.207 242.624 119.021ZM969.451 118.775C979.469 118.775 987.698 127.099 994.138 143.748 1000.58 160.397 1003.8 182.664 1003.8 210.549 983.209 210.549 962.621 210.549 942.033 210.549 941.968 244.011 945.188 270.255 951.693 289.283 958.198 308.31 965.841 317.824 974.623 317.824 980.477 317.824 985.568 313.764 989.893 305.644 994.219 297.525 997.846 283.624 1000.77 263.94 1001.78 265.58 1002.79 267.221 1003.8 268.861 1002.43 291.333 998.464 311.795 991.894 330.249 985.324 348.702 977.095 357.928 967.207 357.928 956.474 357.928 947.286 347.39 939.642 326.312 931.999 305.234 928.177 276.898 928.177 241.304 928.177 202.758 932.097 172.699 939.935 151.13 947.774 129.56 957.612 118.775 969.451 118.775ZM65.3589 86.2974C57.683 131.241 50.0071 176.185 42.3312 221.129 57.4878 221.129 72.6444 221.129 87.8011 221.129 80.3203 176.185 72.8396 131.241 65.3589 86.2974ZM68.9691 9.77816C70.1075 9.77816 71.2459 9.77816 72.3843 9.77816 87.736 102.29 103.088 194.802 118.44 287.314 122.147 309.622 125.514 324.098 128.539 330.741 131.563 337.384 135.775 341.116 141.175 341.936 141.175 344.97 141.175 348.005 141.175 351.039 123.774 351.039 106.373 351.039 88.972 351.039 88.972 348.005 88.972 344.97 88.972 341.936 94.241 341.28 97.8025 339.065 99.6564 335.293 101.51 331.52 102.437 326.927 102.437 321.514 102.437 314.297 101.136 302.897 98.5343 287.314 95.8673 271.321 93.2003 255.329 90.5332 239.336 73.4576 239.336 56.382 239.336 39.3064 239.336 36.3141 256.887 33.3218 274.438 30.3295 291.989 28.1178 304.947 27.0119 314.625 27.0119 321.022 27.0119 326.107 27.9714 330.577 29.8904 334.431 31.8093 338.286 35.9563 340.788 42.3312 341.936 42.3312 344.97 42.3312 348.005 42.3312 351.039 28.443 351.039 14.5548 351.039 0.666685 351.039 0.666685 348.005 0.666685 344.97 0.666685 341.936 6.19593 339.475 9.77368 336.277 11.3999 332.34 14.7175 324.467 18.3928 308.474 22.4259 284.362 37.9403 192.834 53.4547 101.306 68.9691 9.77816ZM205.578 1.65875C212.408 1.65875 218.686 7.23571 224.41 18.3896 228.183 25.7709 230.069 34.0543 230.069 43.2399 230.069 48.1608 229.224 52.7946 227.533 57.1413 225.841 61.4881 224.02 63.6615 222.068 63.6615 220.572 63.6615 218.995 62.3082 217.336 59.6018 215.677 56.8953 213.644 51.0723 211.238 42.1328 208.831 33.1932 206.619 27.1652 204.602 24.0486 202.586 20.9321 200.342 19.3738 197.87 19.3738 194.877 19.3738 192.34 21.3832 190.259 25.4018 188.177 29.4205 186.681 35.6536 185.77 44.1011 184.86 52.5486 184.404 74.3233 184.404 109.425 184.404 114.838 184.404 120.251 184.404 125.664 192.08 125.664 199.756 125.664 207.432 125.664 207.432 131.569 207.432 137.474 207.432 143.379 199.756 143.379 192.08 143.379 184.404 143.379 184.404 192.752 184.404 242.124 184.404 291.497 184.404 312.493 185.315 325.779 187.137 331.356 189.543 338.573 192.763 342.182 196.796 342.182 199.496 342.182 202.196 342.182 204.895 342.182 204.895 345.134 204.895 348.087 204.895 351.039 187.104 351.039 169.313 351.039 151.522 351.039 151.522 348.087 151.522 345.134 151.522 342.182 152.855 342.182 154.189 342.182 155.522 342.182 158.124 342.182 160.499 340.541 162.645 337.261 164.792 333.98 166.272 329.552 167.085 323.975 167.898 318.398 168.305 307.572 168.305 291.497 168.305 242.124 168.305 192.752 168.305 143.379 162.515 143.379 156.726 143.379 150.936 143.379 150.936 137.474 150.936 131.569 150.936 125.664 156.726 125.664 162.515 125.664 168.305 125.664 168.305 120.743 168.305 115.823 168.305 110.902 168.305 88.4298 169.736 69.4025 172.598 53.8198 175.46 38.2371 179.835 25.6479 185.722 16.0522 191.609 6.45658 198.228 1.65875 205.578 1.65875ZM694.197 1.16666C696.929 1.16666 699.254 3.58609 701.173 8.42492 703.092 13.2637 704.052 19.1278 704.052 26.017 704.052 32.9062 703.092 38.8112 701.173 43.732 699.254 48.6529 696.929 51.1133 694.197 51.1133 691.465 51.1133 689.123 48.6529 687.171 43.732 685.22 38.8112 684.244 32.9062 684.244 26.017 684.244 19.1278 685.203 13.2637 687.123 8.42492 689.042 3.58609 691.4 1.16666 694.197 1.16666ZM238.819 1.16666C241.551 1.16666 243.876 3.58609 245.795 8.42492 247.714 13.2637 248.674 19.1278 248.674 26.017 248.674 32.9062 247.714 38.8112 245.795 43.732 243.876 48.6529 241.551 51.1133 238.819 51.1133 236.087 51.1133 233.745 48.6529 231.793 43.732 229.842 38.8112 228.866 32.9062 228.866 26.017 228.866 19.1278 229.826 13.2637 231.745 8.42492 233.663 3.58609 236.022 1.16666 238.819 1.16666Z" fill="#FFFF00" fill-rule="evenodd"/></g></g><path d="M625.903 270.533C616.08 280.375 609.738 287.346 606.876 291.447 601.737 298.664 598.062 306.21 595.85 314.083 593.638 321.956 592.532 330.568 592.532 339.917 592.532 351.727 593.931 361.528 596.728 369.319 599.525 377.111 602.745 381.007 606.388 381.007 611.332 381.007 617.837 372.805 625.903 356.402 625.903 327.779 625.903 299.156 625.903 270.533ZM1045.82 190.077C1040.42 190.077 1035.59 195.367 1031.33 205.947 1027.07 216.527 1024.58 231.249 1023.87 250.112 1037.66 250.112 1051.45 250.112 1065.24 250.112 1064.91 235.677 1064.23 225.508 1063.19 219.603 1061.56 210.417 1059.14 203.2 1055.92 197.951 1052.7 192.702 1049.33 190.077 1045.82 190.077ZM849.695 188.847C846.247 188.847 842.783 191.431 839.303 196.598 835.823 201.764 833.01 210.827 830.863 223.785 828.716 236.743 827.643 253.392 827.643 273.732 827.643 306.538 830.229 334.832 835.4 358.617 840.572 382.401 847.386 394.293 855.842 394.293 862.152 394.293 867.356 387.732 871.454 374.609 875.552 361.487 877.601 338.933 877.601 306.948 877.601 266.925 874.186 235.431 867.356 212.467 862.737 196.721 856.85 188.847 849.695 188.847ZM1127.89 172.854C1131.4 172.854 1135.66 174.741 1140.67 178.513 1143.99 180.974 1146.2 182.204 1147.31 182.204 1148.35 182.204 1149.16 181.63 1149.75 180.482 1150.33 179.334 1151.01 176.791 1151.8 172.854 1152.87 172.854 1153.94 172.854 1155.02 172.854 1155.02 198.443 1155.02 224.031 1155.02 249.62 1153.94 249.62 1152.87 249.62 1151.8 249.62 1149.32 225.508 1146.15 209.105 1142.28 200.411 1138.41 191.718 1133.48 187.371 1127.5 187.371 1122.95 187.371 1119.27 190.405 1116.47 196.475 1113.68 202.544 1112.28 209.269 1112.28 216.65 1112.28 225.836 1113.32 233.709 1115.4 240.27 1117.42 246.995 1121.51 254.131 1127.69 261.676 1132.44 267.499 1137.19 273.322 1141.94 279.145 1155.15 295.384 1161.75 316.789 1161.75 343.362 1161.75 363.866 1158.67 380.391 1152.53 392.94 1146.38 405.488 1139.5 411.762 1131.89 411.762 1126.43 411.762 1120.18 409.301 1113.16 404.381 1111.01 402.74 1109.25 401.92 1107.89 401.92 1106.39 401.92 1105.22 404.052 1104.37 408.317 1103.3 408.317 1102.23 408.317 1101.15 408.317 1101.15 381.499 1101.15 354.68 1101.15 327.861 1102.23 327.861 1103.3 327.861 1104.37 327.861 1106.2 350.825 1109.68 368.13 1114.81 379.776 1119.95 391.422 1125.71 397.245 1132.09 397.245 1136.57 397.245 1140.23 393.924 1143.06 387.281 1145.89 380.637 1147.31 372.641 1147.31 363.291 1147.31 351.973 1145.73 342.46 1142.57 334.75 1139.42 327.041 1133.13 317.281 1123.69 305.471 1114.26 293.661 1108.08 283 1105.15 273.486 1102.23 264.136 1100.76 252.326 1100.76 238.056 1100.76 219.521 1103.28 204.02 1108.33 191.554 1113.37 179.087 1119.89 172.854 1127.89 172.854ZM930.174 172.854C931.573 172.854 932.971 172.854 934.37 172.854 934.37 188.765 934.37 204.676 934.37 220.587 944.843 188.765 954.828 172.854 964.325 172.854 969.204 172.854 973.4 175.93 976.912 182.081 980.425 188.232 983.222 198.361 985.304 212.467 986.735 222.309 987.451 237.4 987.451 257.739 987.451 289.807 987.451 321.874 987.451 353.942 987.451 368.212 987.906 377.89 988.817 382.975 989.532 387.076 990.687 390.274 992.281 392.571 993.874 394.867 996.818 396.015 1001.11 396.015 1001.11 398.968 1001.11 401.92 1001.11 404.873 986.377 404.873 971.643 404.873 956.91 404.873 956.91 401.92 956.91 398.968 956.91 396.015 957.528 396.015 958.146 396.015 958.764 396.015 962.927 396.015 965.838 394.416 967.497 391.217 969.155 388.019 970.31 383.303 970.96 377.07 971.221 374.609 971.351 366.9 971.351 353.942 971.351 323.186 971.351 292.431 971.351 261.676 971.351 241.172 970.294 226.287 968.18 217.019 966.066 207.751 962.504 203.118 957.495 203.118 949.754 203.118 942.046 213.78 934.37 235.103 934.37 274.716 934.37 314.329 934.37 353.942 934.37 369.196 934.728 378.628 935.443 382.237 936.354 386.994 937.606 390.479 939.2 392.694 940.794 394.908 944.03 396.015 948.909 396.015 948.909 398.968 948.909 401.92 948.909 404.873 934.175 404.873 919.441 404.873 904.707 404.873 904.707 401.92 904.707 398.968 904.707 396.015 905.358 396.015 906.008 396.015 906.659 396.015 911.212 396.015 914.286 393.104 915.879 387.281 917.473 381.458 918.27 370.345 918.27 353.942 918.27 326.057 918.27 298.172 918.27 270.287 918.27 243.223 918.026 226.738 917.538 220.833 917.05 214.928 916.302 210.909 915.294 208.777 914.286 206.644 912.936 205.578 911.245 205.578 909.423 205.578 907.244 206.808 904.707 209.269 904.219 206.316 903.731 203.364 903.243 200.411 912.22 191.226 921.197 182.04 930.174 172.854ZM852.72 172.854C866.25 172.854 877.113 185.813 885.31 211.729 892.27 233.873 895.75 259.297 895.75 288.002 895.75 308.178 893.831 328.599 889.993 349.267 886.155 369.935 880.87 385.517 874.137 396.015 867.405 406.513 859.908 411.762 851.646 411.762 838.181 411.762 827.48 398.229 819.544 371.165 812.844 348.365 809.494 322.776 809.494 294.4 809.494 273.732 811.527 253.187 815.592 232.766 819.658 212.344 825.008 197.254 831.644 187.494 838.279 177.734 845.304 172.854 852.72 172.854ZM779.835 172.854C781.266 172.854 782.698 172.854 784.129 172.854 784.129 233.217 784.129 293.579 784.129 353.942 784.129 368.048 784.535 377.439 785.348 382.114 786.161 386.788 787.365 390.274 788.959 392.571 790.552 394.867 793.463 396.015 797.692 396.015 797.692 398.968 797.692 401.92 797.692 404.873 783.218 404.873 768.744 404.873 754.271 404.873 754.271 401.92 754.271 398.968 754.271 396.015 758.629 396.015 761.556 394.949 763.052 392.817 764.549 390.684 765.736 387.158 766.614 382.237 767.492 377.316 767.931 367.884 767.931 353.942 767.931 324.991 767.931 296.04 767.931 267.089 767.931 242.649 767.639 226.82 767.053 219.603 766.598 214.354 765.882 210.704 764.906 208.654 763.931 206.603 762.597 205.578 760.906 205.578 759.085 205.578 756.873 206.808 754.271 209.269 753.815 206.316 753.36 203.364 752.905 200.411 761.882 191.226 770.859 182.04 779.835 172.854ZM708.11 172.854C716.891 172.854 724.112 178.718 729.771 190.446 735.431 202.174 738.26 214.354 738.26 226.984 738.26 233.217 737.463 238.261 735.87 242.115 734.276 245.97 732.048 247.897 729.186 247.897 725.348 247.897 722.453 244.781 720.502 238.548 719.396 235.103 718.664 228.542 718.306 218.864 717.948 209.187 716.631 201.805 714.354 196.721 712.078 191.8 708.923 189.339 704.89 189.339 698.385 189.339 693.148 195.408 689.18 207.546 683.911 223.621 681.277 244.863 681.277 271.271 681.277 298.172 683.895 321.915 689.131 342.501 694.368 363.086 701.442 373.379 710.354 373.379 716.729 373.379 722.453 367.884 727.527 356.894 731.105 349.349 734.585 335.653 737.968 315.805 738.911 316.953 739.854 318.102 740.797 319.25 738.39 348.939 733.674 371.78 726.649 387.773 719.623 403.765 711.85 411.762 703.328 411.762 693.181 411.762 684.334 401.018 676.788 379.53 669.242 358.043 665.469 329.009 665.469 292.431 665.469 257.001 669.649 228.214 678.008 206.07 686.367 183.926 696.401 172.854 708.11 172.854ZM612.243 172.854C620.179 172.854 626.684 176.217 631.757 182.942 635.595 188.027 638.425 195.982 640.247 206.808 641.417 213.862 642.003 228.296 642.003 250.112 642.003 275.618 642.003 301.125 642.003 326.631 642.003 348.119 642.165 361.282 642.491 366.121 642.816 370.96 643.353 374.199 644.101 375.84 644.849 377.48 645.711 378.3 646.686 378.3 647.727 378.3 648.638 377.726 649.419 376.578 650.785 374.445 653.419 368.458 657.322 358.617 657.322 363.209 657.322 367.802 657.322 372.395 650.036 396.999 643.076 409.301 636.441 409.301 633.254 409.301 630.717 406.513 628.83 400.936 626.944 395.359 625.968 385.845 625.903 372.395 616.731 390.274 610.974 400.608 608.632 403.396 605.12 407.497 601.379 409.547 597.411 409.547 591.231 409.547 586.141 404.217 582.141 393.555 578.14 382.893 576.14 368.868 576.14 351.481 576.14 340.491 577.116 330.978 579.067 322.94 581.734 311.786 586.369 301.289 592.972 291.447 599.574 281.605 610.551 269.631 625.903 255.525 625.903 252.572 625.903 249.62 625.903 246.667 625.903 224.195 624.488 208.777 621.659 200.411 618.829 192.046 614.714 187.863 609.315 187.863 605.217 187.863 601.965 190.652 599.558 196.228 597.086 201.805 595.85 208.203 595.85 215.42 595.915 220.177 595.98 224.933 596.045 229.69 596.045 237.236 595.281 243.059 593.752 247.159 592.223 251.26 590.223 253.31 587.751 253.31 585.344 253.31 583.377 251.178 581.848 246.913 580.319 242.649 579.555 236.826 579.555 229.444 579.555 215.338 582.417 202.38 588.142 190.569 593.866 178.759 601.9 172.854 612.243 172.854ZM442.584 172.854C443.983 172.854 445.381 172.854 446.78 172.854 446.78 188.847 446.78 204.84 446.78 220.833 453.285 204.43 457.123 194.998 458.294 192.538 461.221 186.305 464.376 181.466 467.758 178.021 471.141 174.577 474.491 172.854 477.809 172.854 483.403 172.854 488.217 176.955 492.25 185.157 496.283 193.358 498.982 205.25 500.348 220.833 507.049 201.149 512.708 188.232 517.326 182.081 521.945 175.93 526.694 172.854 531.572 172.854 536.321 172.854 540.533 175.93 544.208 182.081 547.884 188.232 550.795 198.279 552.941 212.221 554.372 221.735 555.088 236.661 555.088 257.001 555.088 289.315 555.088 321.628 555.088 353.942 555.088 368.048 555.511 377.726 556.356 382.975 557.007 386.583 558.21 389.659 559.967 392.201 561.723 394.744 564.585 396.015 568.553 396.015 568.553 398.968 568.553 401.92 568.553 404.873 553.852 404.873 539.151 404.873 524.449 404.873 524.449 401.92 524.449 398.968 524.449 396.015 525.067 396.015 525.685 396.015 526.303 396.015 530.141 396.015 533.134 394.129 535.28 390.356 536.776 387.732 537.85 383.549 538.5 377.808 538.76 375.019 538.891 367.064 538.891 353.942 538.891 321.628 538.891 289.315 538.891 257.001 538.891 238.63 538.012 225.672 536.256 218.126 533.719 207.628 529.653 202.38 524.059 202.38 520.611 202.38 517.147 204.553 513.667 208.9 510.187 213.246 505.975 221.325 501.031 233.135 500.966 234.037 500.901 234.939 500.836 235.841 500.901 239.368 500.966 242.895 501.031 246.421 501.031 282.261 501.031 318.102 501.031 353.942 501.031 369.36 501.373 378.956 502.056 382.729 502.739 386.501 504.024 389.659 505.91 392.201 507.797 394.744 511.017 396.015 515.57 396.015 515.57 398.968 515.57 401.92 515.57 404.873 500.511 404.873 485.452 404.873 470.393 404.873 470.393 401.92 470.393 398.968 470.393 396.015 475.337 396.015 478.736 394.539 480.589 391.586 482.443 388.634 483.728 384.205 484.444 378.3 484.769 375.512 484.932 367.392 484.932 353.942 484.932 321.628 484.932 289.315 484.932 257.001 484.932 238.63 483.858 225.426 481.712 217.388 478.849 206.89 474.849 201.641 469.71 201.641 466.197 201.641 462.717 204.02 459.269 208.777 453.87 215.994 449.707 224.113 446.78 233.135 446.78 273.404 446.78 313.673 446.78 353.942 446.78 368.704 447.186 378.3 447.999 382.729 448.813 387.158 450.016 390.479 451.61 392.694 453.203 394.908 456.44 396.015 461.318 396.015 461.318 398.968 461.318 401.92 461.318 404.873 446.585 404.873 431.851 404.873 417.117 404.873 417.117 401.92 417.117 398.968 417.117 396.015 421.215 396.015 424.077 394.908 425.704 392.694 427.33 390.479 428.566 386.953 429.411 382.114 430.257 377.275 430.68 367.884 430.68 353.942 430.68 325.237 430.68 296.532 430.68 267.827 430.68 243.059 430.387 227.066 429.802 219.849 429.346 214.436 428.631 210.704 427.655 208.654 426.679 206.603 425.346 205.578 423.654 205.578 421.833 205.578 419.654 206.808 417.117 209.269 416.629 206.316 416.141 203.364 415.653 200.411 424.63 191.226 433.607 182.04 442.584 172.854ZM375.68 172.854C377.046 172.854 378.412 172.854 379.778 172.854 379.778 189.749 379.778 206.644 379.778 223.539 387.259 189.749 394.935 172.854 402.806 172.854 406.384 172.854 409.344 175.602 411.685 181.097 414.027 186.592 415.198 192.948 415.198 200.165 415.198 206.562 414.352 211.975 412.661 216.404 410.97 220.833 408.953 223.047 406.611 223.047 404.335 223.047 401.781 220.218 398.952 214.559 396.122 208.9 394.024 206.07 392.658 206.07 391.487 206.07 390.219 207.71 388.853 210.991 385.926 217.716 382.901 228.788 379.778 244.207 379.778 280.211 379.778 316.215 379.778 352.22 379.778 364.686 380.396 374.117 381.632 380.514 382.478 384.943 383.974 388.634 386.121 391.586 388.267 394.539 391.357 396.015 395.39 396.015 395.39 398.968 395.39 401.92 395.39 404.873 380.136 404.873 364.882 404.873 349.628 404.873 349.628 401.92 349.628 398.968 349.628 396.015 354.181 396.015 357.564 394.211 359.775 390.602 361.402 387.978 362.54 383.795 363.191 378.054 363.516 375.266 363.678 367.31 363.678 354.188 363.678 325.073 363.678 295.958 363.678 266.843 363.678 240.598 363.467 224.974 363.044 219.972 362.621 214.969 361.841 211.319 360.702 209.023 359.564 206.726 358.149 205.578 356.458 205.578 354.441 205.578 352.165 206.808 349.628 209.269 349.302 206.316 348.977 203.364 348.652 200.411 357.661 191.226 366.671 182.04 375.68 172.854ZM324.457 172.854C325.889 172.854 327.32 172.854 328.751 172.854 328.751 233.217 328.751 293.579 328.751 353.942 328.751 368.048 329.157 377.439 329.97 382.114 330.784 386.788 331.987 390.274 333.581 392.571 335.174 394.867 338.085 396.015 342.314 396.015 342.314 398.968 342.314 401.92 342.314 404.873 327.84 404.873 313.366 404.873 298.893 404.873 298.893 401.92 298.893 398.968 298.893 396.015 303.251 396.015 306.178 394.949 307.675 392.817 309.171 390.684 310.358 387.158 311.236 382.237 312.114 377.316 312.553 367.884 312.553 353.942 312.553 324.991 312.553 296.04 312.553 267.089 312.553 242.649 312.261 226.82 311.675 219.603 311.22 214.354 310.504 210.704 309.528 208.654 308.553 206.603 307.219 205.578 305.528 205.578 303.707 205.578 301.495 206.808 298.893 209.269 298.437 206.316 297.982 203.364 297.527 200.411 306.504 191.226 315.481 182.04 324.457 172.854ZM1051.28 172.608C1061.3 172.608 1069.53 180.933 1075.97 197.582 1082.41 214.231 1085.63 236.497 1085.63 264.382 1065.04 264.382 1044.45 264.382 1023.87 264.382 1023.8 297.844 1027.02 324.089 1033.53 343.116 1040.03 362.143 1047.67 371.657 1056.46 371.657 1062.31 371.657 1067.4 367.597 1071.73 359.478 1076.05 351.358 1079.68 337.457 1082.61 317.774 1083.61 319.414 1084.62 321.054 1085.63 322.694 1084.27 345.166 1080.3 365.629 1073.73 384.082 1067.16 402.535 1058.93 411.762 1049.04 411.762 1038.31 411.762 1029.12 401.223 1021.48 380.145 1013.83 359.068 1010.01 330.732 1010.01 295.138 1010.01 256.591 1013.93 226.533 1021.77 204.963 1029.61 183.393 1039.45 172.608 1051.28 172.608ZM147.192 140.131C139.516 185.075 131.84 230.018 124.165 274.962 139.321 274.962 154.478 274.962 169.634 274.962 162.154 230.018 154.673 185.075 147.192 140.131ZM150.802 63.6115C151.941 63.6115 153.079 63.6115 154.218 63.6115 169.569 156.124 184.921 248.636 200.273 341.148 203.981 363.455 207.347 377.931 210.372 384.574 213.397 391.217 217.609 394.949 223.008 395.769 223.008 398.804 223.008 401.838 223.008 404.873 205.607 404.873 188.206 404.873 170.805 404.873 170.805 401.838 170.805 398.804 170.805 395.769 176.074 395.113 179.636 392.899 181.49 389.126 183.344 385.353 184.271 380.76 184.271 375.348 184.271 368.13 182.97 356.73 180.368 341.148 177.701 325.155 175.034 309.162 172.367 293.169 155.291 293.169 138.215 293.169 121.14 293.169 118.147 310.72 115.155 328.271 112.163 345.822 109.951 358.781 108.845 368.458 108.845 374.855 108.845 379.94 109.805 384.41 111.724 388.265 113.643 392.119 117.79 394.621 124.165 395.769 124.165 398.804 124.165 401.838 124.165 404.873 110.276 404.873 96.3882 404.873 82.5 404.873 82.5 401.838 82.5 398.804 82.5 395.769 88.0293 393.309 91.607 390.11 93.2333 386.173 96.5508 378.3 100.226 362.307 104.259 338.195 119.774 246.667 135.288 155.139 150.802 63.6115ZM287.411 55.4921C294.242 55.4921 300.519 61.0691 306.243 72.223 310.016 79.6043 311.903 87.8877 311.903 97.0733 311.903 101.994 311.057 106.628 309.366 110.975 307.675 115.321 305.853 117.495 303.902 117.495 302.406 117.495 300.828 116.142 299.169 113.435 297.51 110.729 295.478 104.906 293.071 95.9661 290.664 87.0265 288.452 80.9985 286.436 77.882 284.419 74.7654 282.175 73.2071 279.703 73.2071 276.711 73.2071 274.174 75.2165 272.092 79.2352 270.011 83.2539 268.515 89.487 267.604 97.9344 266.693 106.382 266.238 128.157 266.238 163.259 266.238 168.672 266.238 174.085 266.238 179.498 273.914 179.498 281.59 179.498 289.265 179.498 289.265 185.403 289.265 191.308 289.265 197.213 281.59 197.213 273.914 197.213 266.238 197.213 266.238 246.585 266.238 295.958 266.238 345.33 266.238 366.326 267.148 379.612 268.97 385.189 271.377 392.406 274.597 396.015 278.63 396.015 281.329 396.015 284.029 396.015 286.728 396.015 286.728 398.968 286.728 401.92 286.728 404.873 268.937 404.873 251.146 404.873 233.355 404.873 233.355 401.92 233.355 398.968 233.355 396.015 234.689 396.015 236.022 396.015 237.356 396.015 239.958 396.015 242.332 394.375 244.479 391.094 246.625 387.814 248.105 383.385 248.918 377.808 249.731 372.231 250.138 361.405 250.138 345.33 250.138 295.958 250.138 246.585 250.138 197.213 244.348 197.213 238.559 197.213 232.77 197.213 232.77 191.308 232.77 185.403 232.77 179.498 238.559 179.498 244.348 179.498 250.138 179.498 250.138 174.577 250.138 169.656 250.138 164.735 250.138 142.263 251.569 123.236 254.431 107.653 257.293 92.0704 261.668 79.4812 267.555 69.8856 273.442 60.2899 280.061 55.4921 287.411 55.4921ZM776.03 55C778.762 55 781.088 57.4194 783.007 62.2583 784.926 67.0971 785.885 72.9611 785.885 79.8503 785.885 86.7395 784.926 92.6445 783.007 97.5654 781.088 102.486 778.762 104.947 776.03 104.947 773.298 104.947 770.956 102.486 769.005 97.5654 767.053 92.6445 766.077 86.7395 766.077 79.8503 766.077 72.9611 767.037 67.0971 768.956 62.2583 770.875 57.4194 773.233 55 776.03 55ZM320.652 55C323.384 55 325.71 57.4194 327.629 62.2583 329.548 67.0971 330.507 72.9611 330.507 79.8503 330.507 86.7395 329.548 92.6445 327.629 97.5654 325.71 102.486 323.384 104.947 320.652 104.947 317.92 104.947 315.578 102.486 313.627 97.5654 311.675 92.6445 310.699 86.7395 310.699 79.8503 310.699 72.9611 311.659 67.0971 313.578 62.2583 315.497 57.4194 317.855 55 320.652 55Z" fill="#FFFF00" fill-rule="evenodd"/><text fill="#000000" fill-opacity="0" font-family="Arial,Arial_MSFontService,sans-serif" font-size="356.762" x="82.5" y="367.167">Afirmaciones</text><g clip-path="url(#clip9)" filter="url(#fx1)" transform="translate(1234 63)"><g clip-path="url(#clip10)"><path d="M137.794 136.244C132.395 136.244 127.565 141.534 123.304 152.114 119.043 162.694 116.555 177.415 115.839 196.278 129.63 196.278 143.421 196.278 157.211 196.278 156.886 181.844 156.203 171.674 155.162 165.769 153.536 156.584 151.113 149.366 147.893 144.117 144.673 138.869 141.307 136.244 137.794 136.244ZM42.7358 134.03C37.0115 134.03 31.905 140.509 27.4165 153.467 21.4969 170.526 18.5372 195.458 18.5372 228.264 18.5372 261.398 21.3994 286.781 27.1238 304.414 32.8481 322.047 39.2231 330.864 46.2485 330.864 52.1681 330.864 57.8925 323.4 63.4216 308.474 63.4216 269.763 63.4216 231.052 63.4216 192.342 63.0314 181.188 61.8605 171.018 59.9089 161.832 57.9575 152.647 55.3718 145.717 52.1519 141.042 48.9319 136.367 45.7931 134.03 42.7358 134.03ZM143.258 118.775C153.276 118.775 161.505 127.099 167.945 143.748 174.385 160.397 177.604 182.664 177.604 210.549 157.016 210.549 136.428 210.549 115.839 210.549 115.774 244.011 118.995 270.255 125.499 289.283 132.004 308.31 139.648 317.824 148.43 317.824 154.284 317.824 159.374 313.764 163.7 305.644 168.026 297.525 171.652 283.624 174.58 263.94 175.588 265.58 176.596 267.221 177.604 268.861 176.238 291.333 172.27 311.795 165.7 330.249 159.13 348.702 150.901 357.928 141.014 357.928 130.281 357.928 121.092 347.39 113.449 326.312 105.806 305.234 101.984 276.898 101.984 241.304 101.984 202.758 105.903 172.699 113.742 151.13 121.58 129.56 131.419 118.775 143.258 118.775ZM75.1307 1.16666C76.5944 1.16666 78.058 1.16666 79.5216 1.16666 79.5216 88.0197 79.5216 174.873 79.5216 261.726 79.5216 288.134 79.7655 304.25 80.2534 310.073 80.7412 315.896 81.5219 319.956 82.5951 322.252 83.6685 324.549 84.9207 325.697 86.3518 325.697 88.1082 325.697 90.45 324.303 93.3772 321.514 93.735 324.385 94.0928 327.255 94.4504 330.126 85.6038 339.393 76.757 348.661 67.9102 357.928 66.4139 357.928 64.9178 357.928 63.4216 357.928 63.4216 347.185 63.4216 336.441 63.4216 325.697 59.0634 337.179 54.8025 345.421 50.6394 350.424 46.4762 355.427 41.9877 357.928 37.174 357.928 27.4165 357.928 18.895 347.636 11.6094 327.05 4.32385 306.465 0.68103 280.015 0.68103 247.701 0.68103 215.388 4.71411 185.822 12.7803 159.003 20.8466 132.184 31.2219 118.775 43.9067 118.775 51.7777 118.775 58.2827 125.09 63.4216 137.72 63.4216 123.86 63.4216 110 63.4216 96.1391 63.4216 70.3866 63.1777 54.5579 62.6899 48.6529 62.202 42.7479 61.4376 38.7292 60.3969 36.5968 59.3561 34.4644 58.0551 33.3982 56.4939 33.3982 54.8025 33.3982 52.5583 34.7105 49.7612 37.3349 49.3384 34.4644 48.9155 31.5939 48.4927 28.7234 57.3721 19.5378 66.2513 10.3522 75.1307 1.16666Z" fill="#FFFF00" fill-rule="evenodd"/></g></g><path d="M1362.63 190.077C1357.23 190.077 1352.4 195.367 1348.14 205.947 1343.88 216.527 1341.39 231.249 1340.67 250.112 1354.46 250.112 1368.25 250.112 1382.04 250.112 1381.72 235.677 1381.04 225.508 1380 219.603 1378.37 210.417 1375.95 203.2 1372.73 197.951 1369.51 192.702 1366.14 190.077 1362.63 190.077ZM1267.57 187.863C1261.84 187.863 1256.74 194.342 1252.25 207.3 1246.33 224.359 1243.37 249.292 1243.37 282.097 1243.37 315.231 1246.23 340.615 1251.96 358.248 1257.68 375.881 1264.06 384.697 1271.08 384.697 1277 384.697 1282.73 377.234 1288.26 362.307 1288.26 323.597 1288.26 284.886 1288.26 246.175 1287.86 235.021 1286.69 224.851 1284.74 215.666 1282.79 206.48 1280.21 199.55 1276.99 194.875 1273.77 190.2 1270.63 187.863 1267.57 187.863ZM1368.09 172.608C1378.11 172.608 1386.34 180.933 1392.78 197.582 1399.22 214.231 1402.44 236.497 1402.44 264.382 1381.85 264.382 1361.26 264.382 1340.67 264.382 1340.61 297.844 1343.83 324.089 1350.33 343.116 1356.84 362.143 1364.48 371.657 1373.26 371.657 1379.12 371.657 1384.21 367.597 1388.53 359.478 1392.86 351.358 1396.49 337.457 1399.41 317.774 1400.42 319.414 1401.43 321.054 1402.44 322.694 1401.07 345.166 1397.1 365.629 1390.53 384.082 1383.96 402.535 1375.73 411.762 1365.85 411.762 1355.11 411.762 1345.93 401.223 1338.28 380.145 1330.64 359.068 1326.82 330.732 1326.82 295.138 1326.82 256.591 1330.74 226.533 1338.58 204.963 1346.41 183.393 1356.25 172.608 1368.09 172.608ZM1299.96 55C1301.43 55 1302.89 55 1304.35 55 1304.35 141.853 1304.35 228.706 1304.35 315.559 1304.35 341.968 1304.6 358.084 1305.09 363.907 1305.57 369.73 1306.36 373.789 1307.43 376.086 1308.5 378.382 1309.75 379.53 1311.19 379.53 1312.94 379.53 1315.28 378.136 1318.21 375.348 1318.57 378.218 1318.93 381.089 1319.28 383.959 1310.44 393.227 1301.59 402.494 1292.74 411.762 1291.25 411.762 1289.75 411.762 1288.26 411.762 1288.26 401.018 1288.26 390.274 1288.26 379.53 1283.9 391.012 1279.64 399.255 1275.47 404.258 1271.31 409.26 1266.82 411.762 1262.01 411.762 1252.25 411.762 1243.73 401.469 1236.44 380.883 1229.16 360.298 1225.51 333.848 1225.51 301.535 1225.51 269.221 1229.55 239.655 1237.61 212.836 1245.68 186.018 1256.06 172.608 1268.74 172.608 1276.61 172.608 1283.12 178.923 1288.26 191.554 1288.26 177.693 1288.26 163.833 1288.26 149.972 1288.26 124.22 1288.01 108.391 1287.52 102.486 1287.04 96.5812 1286.27 92.5625 1285.23 90.4301 1284.19 88.2978 1282.89 87.2316 1281.33 87.2316 1279.64 87.2316 1277.39 88.5438 1274.59 91.1683 1274.17 88.2978 1273.75 85.4273 1273.33 82.5568 1282.21 73.3712 1291.08 64.1856 1299.96 55Z" fill="#FFFF00" fill-rule="evenodd"/><text fill="#000000" fill-opacity="0" font-family="Arial,Arial_MSFontService,sans-serif" font-size="356.762" x="1225.51" y="367.167">de </text><g clip-path="url(#clip11)" filter="url(#fx2)" transform="translate(1470 71)"><g clip-path="url(#clip12)"><path d="M117.473 128.244C112.073 128.244 107.244 133.534 102.983 144.114 98.7219 154.694 96.2339 169.415 95.5183 188.278 109.309 188.278 123.099 188.278 136.89 188.278 136.565 173.844 135.882 163.674 134.841 157.769 133.215 148.584 130.792 141.366 127.572 136.117 124.352 130.869 120.985 128.244 117.473 128.244ZM241.575 117.664C252.016 117.664 262.457 117.664 272.897 117.664 272.897 167.939 272.897 218.214 272.897 268.488 272.897 289.484 274.344 303.262 277.239 309.824 280.134 316.385 283.63 319.665 287.729 319.665 290.526 319.665 293.697 317.451 297.242 313.022 300.787 308.593 304.999 300.146 309.878 287.68 309.878 245.114 309.878 202.549 309.878 159.984 309.878 147.189 308.951 138.537 307.097 134.026 305.243 129.515 301.389 127.096 295.534 126.768 295.534 123.733 295.534 120.699 295.534 117.664 305.682 117.664 315.83 117.664 325.978 117.664 325.978 163.182 325.978 208.7 325.978 254.218 325.978 280.298 326.222 296.25 326.71 302.073 327.198 307.896 327.978 311.956 329.051 314.252 330.125 316.549 331.377 317.697 332.808 317.697 334.825 317.697 337.101 316.303 339.638 313.514 340.094 316.385 340.549 319.255 341.004 322.126 332.093 331.393 323.181 340.661 314.269 349.928 312.805 349.928 311.342 349.928 309.878 349.928 309.878 334.018 309.878 318.107 309.878 302.196 302.202 323.192 296.348 336.396 292.314 341.809 288.281 347.222 284.021 349.928 279.532 349.928 274.523 349.928 270.181 346.279 266.506 338.98 262.831 331.68 260.277 322.29 258.846 310.808 257.415 299.326 256.7 283.087 256.7 262.091 256.7 228.547 256.7 195.004 256.7 161.46 256.7 150.798 256.244 143.417 255.334 139.316 254.423 135.215 253.073 132.058 251.284 129.843 249.495 127.629 246.259 126.604 241.575 126.768 241.575 123.733 241.575 120.699 241.575 117.664ZM377.575 111.021C381.088 111.021 385.348 112.907 390.357 116.68 393.675 119.14 395.886 120.371 396.992 120.371 398.033 120.371 398.846 119.797 399.432 118.648 400.017 117.5 400.7 114.958 401.481 111.021 402.554 111.021 403.627 111.021 404.701 111.021 404.701 136.61 404.701 162.198 404.701 187.786 403.627 187.786 402.554 187.786 401.481 187.786 399.009 163.674 395.838 147.271 391.967 138.578 388.097 129.884 383.169 125.538 377.184 125.538 372.631 125.538 368.956 128.572 366.159 134.641 363.361 140.71 361.963 147.435 361.963 154.817 361.963 164.002 363.004 171.876 365.085 178.437 367.102 185.162 371.2 192.297 377.38 199.842 382.128 205.665 386.877 211.488 391.626 217.312 404.831 233.55 411.433 254.956 411.433 281.529 411.433 302.032 408.36 318.558 402.213 331.106 396.065 343.654 389.186 349.928 381.576 349.928 376.111 349.928 369.866 347.468 362.841 342.547 360.694 340.907 358.938 340.087 357.572 340.087 356.076 340.087 354.905 342.219 354.059 346.484 352.986 346.484 351.913 346.484 350.839 346.484 350.839 319.665 350.839 292.847 350.839 266.028 351.913 266.028 352.986 266.028 354.059 266.028 355.881 288.992 359.361 306.297 364.5 317.943 369.639 329.589 375.396 335.412 381.771 335.412 386.259 335.412 389.918 332.09 392.748 325.447 395.577 318.804 396.992 310.808 396.992 301.458 396.992 290.14 395.415 280.626 392.26 272.917 389.105 265.208 382.811 255.448 373.379 243.638 363.947 231.828 357.767 221.166 354.84 211.653 351.913 202.303 350.449 190.493 350.449 176.222 350.449 157.687 352.97 142.186 358.011 129.72 363.052 117.254 369.574 111.021 377.575 111.021ZM200.753 111.021C204.265 111.021 208.526 112.907 213.535 116.68 216.852 119.14 219.064 120.371 220.17 120.371 221.211 120.371 222.024 119.797 222.609 118.648 223.195 117.5 223.878 114.958 224.658 111.021 225.732 111.021 226.805 111.021 227.878 111.021 227.878 136.61 227.878 162.198 227.878 187.786 226.805 187.786 225.732 187.786 224.658 187.786 222.186 163.674 219.015 147.271 215.145 138.578 211.274 129.884 206.347 125.538 200.362 125.538 195.809 125.538 192.133 128.572 189.336 134.641 186.539 140.71 185.141 147.435 185.141 154.817 185.141 164.002 186.181 171.876 188.263 178.437 190.279 185.162 194.378 192.297 200.557 199.842 205.306 205.665 210.055 211.488 214.803 217.312 228.008 233.55 234.611 254.956 234.611 281.529 234.611 302.032 231.537 318.558 225.39 331.106 219.243 343.654 212.364 349.928 204.753 349.928 199.289 349.928 193.044 347.468 186.019 342.547 183.872 340.907 182.116 340.087 180.75 340.087 179.254 340.087 178.083 342.219 177.237 346.484 176.164 346.484 175.09 346.484 174.017 346.484 174.017 319.665 174.017 292.847 174.017 266.028 175.09 266.028 176.164 266.028 177.237 266.028 179.058 288.992 182.539 306.297 187.677 317.943 192.816 329.589 198.573 335.412 204.948 335.412 209.437 335.412 213.096 332.09 215.926 325.447 218.755 318.804 220.17 310.808 220.17 301.458 220.17 290.14 218.593 280.626 215.438 272.917 212.283 265.208 205.989 255.448 196.557 243.638 187.125 231.828 180.945 221.166 178.018 211.653 175.09 202.303 173.627 190.493 173.627 176.222 173.627 157.687 176.147 142.186 181.189 129.72 186.23 117.254 192.751 111.021 200.753 111.021ZM122.937 110.775C132.955 110.775 141.183 119.099 147.623 135.748 154.063 152.397 157.283 174.664 157.283 202.549 136.695 202.549 116.107 202.549 95.5183 202.549 95.4532 236.011 98.6732 262.255 105.178 281.283 111.683 300.31 119.327 309.824 128.108 309.824 133.963 309.824 139.053 305.764 143.379 297.644 147.705 289.525 151.331 275.624 154.258 255.94 155.267 257.58 156.275 259.221 157.283 260.861 155.917 283.333 151.949 303.795 145.379 322.249 138.809 340.702 130.58 349.928 120.693 349.928 109.959 349.928 100.771 339.39 93.1277 318.312 85.4843 297.234 81.6626 268.898 81.6626 233.304 81.6626 194.758 85.5818 164.699 93.4204 143.13 101.259 121.56 111.098 110.775 122.937 110.775ZM16.641 9.40546C35.5381 9.40546 54.4351 9.40546 73.3322 9.40546 73.3322 12.44 73.3322 15.4745 73.3322 18.509 71.7384 18.509 70.1447 18.509 68.5509 18.509 63.1517 18.509 59.2163 22.5277 56.7443 30.5651 55.1832 35.814 54.4026 48.4442 54.4026 68.4557 54.4026 122.831 54.4026 177.207 54.4026 231.582 54.4026 256.678 53.313 277.018 51.1338 292.601 48.9547 308.183 45.198 321.757 39.8639 333.321 34.5298 344.885 28.0898 350.667 20.5441 350.667 14.4293 350.667 9.6156 346.853 6.10291 339.226 2.59021 331.598 0.833984 322.864 0.833984 313.022 0.833984 304.985 1.64709 298.916 3.27332 294.815 5.41992 289.73 7.92432 287.188 10.7865 287.188 12.8682 287.188 14.7383 288.91 16.3971 292.354 18.0559 295.799 20.1537 304.985 22.6908 319.911 24.1869 328.769 26.1058 333.198 28.4476 333.198 30.204 333.198 31.8464 330.491 33.3751 325.078 34.9038 319.665 35.6681 310.07 35.6681 296.291 35.6681 220.346 35.6681 144.401 35.6681 68.4557 35.6681 51.5608 35.2454 40.4068 34.3997 34.9939 33.7491 30.8932 32.3831 27.3666 30.3016 24.4141 27.5044 20.4774 24.5446 18.509 21.4222 18.509 19.8285 18.509 18.2347 18.509 16.641 18.509 16.641 15.4745 16.641 12.44 16.641 9.40546ZM287.729 1.04003C295.014 1.04003 302.3 1.04003 309.585 1.04003 299.99 29.3349 290.396 57.6298 280.801 85.9247 279.695 85.9247 278.589 85.9247 277.483 85.9247 280.898 57.6298 284.313 29.3349 287.729 1.04003Z" fill="#FFFF00" fill-rule="evenodd"/></g></g><path d="M1578.31 190.077C1572.91 190.077 1568.08 195.367 1563.82 205.947 1559.56 216.527 1557.07 231.249 1556.35 250.112 1570.14 250.112 1583.93 250.112 1597.72 250.112 1597.4 235.677 1596.72 225.508 1595.67 219.603 1594.05 210.417 1591.62 203.2 1588.41 197.951 1585.19 192.702 1581.82 190.077 1578.31 190.077ZM1702.41 179.498C1712.85 179.498 1723.29 179.498 1733.73 179.498 1733.73 229.772 1733.73 280.047 1733.73 330.322 1733.73 351.317 1735.18 365.096 1738.07 371.657 1740.97 378.218 1744.46 381.499 1748.56 381.499 1751.36 381.499 1754.53 379.284 1758.08 374.855 1761.62 370.427 1765.83 361.979 1770.71 349.513 1770.71 306.948 1770.71 264.382 1770.71 221.817 1770.71 209.023 1769.78 200.37 1767.93 195.859 1766.08 191.349 1762.22 188.929 1756.37 188.601 1756.37 185.567 1756.37 182.532 1756.37 179.498 1766.52 179.498 1776.66 179.498 1786.81 179.498 1786.81 225.015 1786.81 270.533 1786.81 316.051 1786.81 342.132 1787.06 358.084 1787.54 363.907 1788.03 369.73 1788.81 373.789 1789.88 376.086 1790.96 378.382 1792.21 379.53 1793.64 379.53 1795.66 379.53 1797.93 378.136 1800.47 375.348 1800.93 378.218 1801.38 381.089 1801.84 383.959 1792.93 393.227 1784.01 402.494 1775.1 411.762 1773.64 411.762 1772.18 411.762 1770.71 411.762 1770.71 395.851 1770.71 379.94 1770.71 364.03 1763.04 385.025 1757.18 398.229 1753.15 403.642 1749.11 409.055 1744.85 411.762 1740.37 411.762 1735.36 411.762 1731.01 408.112 1727.34 400.813 1723.66 393.514 1721.11 384.123 1719.68 372.641 1718.25 361.159 1717.53 344.92 1717.53 323.925 1717.53 290.381 1717.53 256.837 1717.53 223.293 1717.53 212.631 1717.08 205.25 1716.17 201.149 1715.26 197.049 1713.91 193.891 1712.12 191.677 1710.33 189.462 1707.09 188.437 1702.41 188.601 1702.41 185.567 1702.41 182.532 1702.41 179.498ZM1838.41 172.854C1841.92 172.854 1846.18 174.741 1851.19 178.513 1854.51 180.974 1856.72 182.204 1857.83 182.204 1858.87 182.204 1859.68 181.63 1860.27 180.482 1860.85 179.334 1861.53 176.791 1862.31 172.854 1863.39 172.854 1864.46 172.854 1865.53 172.854 1865.53 198.443 1865.53 224.031 1865.53 249.62 1864.46 249.62 1863.39 249.62 1862.31 249.62 1859.84 225.508 1856.67 209.105 1852.8 200.411 1848.93 191.718 1844 187.371 1838.02 187.371 1833.46 187.371 1829.79 190.405 1826.99 196.475 1824.19 202.544 1822.8 209.269 1822.8 216.65 1822.8 225.836 1823.84 233.709 1825.92 240.27 1827.94 246.995 1832.03 254.131 1838.21 261.676 1842.96 267.499 1847.71 273.322 1852.46 279.145 1865.66 295.384 1872.27 316.789 1872.27 343.362 1872.27 363.866 1869.19 380.391 1863.05 392.94 1856.9 405.488 1850.02 411.762 1842.41 411.762 1836.94 411.762 1830.7 409.301 1823.67 404.381 1821.53 402.74 1819.77 401.92 1818.41 401.92 1816.91 401.92 1815.74 404.052 1814.89 408.317 1813.82 408.317 1812.75 408.317 1811.67 408.317 1811.67 381.499 1811.67 354.68 1811.67 327.861 1812.75 327.861 1813.82 327.861 1814.89 327.861 1816.71 350.825 1820.19 368.13 1825.33 379.776 1830.47 391.422 1836.23 397.245 1842.6 397.245 1847.09 397.245 1850.75 393.924 1853.58 387.281 1856.41 380.637 1857.83 372.641 1857.83 363.291 1857.83 351.973 1856.25 342.46 1853.09 334.75 1849.94 327.041 1843.64 317.281 1834.21 305.471 1824.78 293.661 1818.6 283 1815.67 273.486 1812.75 264.136 1811.28 252.326 1811.28 238.056 1811.28 219.521 1813.8 204.02 1818.84 191.554 1823.89 179.087 1830.41 172.854 1838.41 172.854ZM1661.59 172.854C1665.1 172.854 1669.36 174.741 1674.37 178.513 1677.69 180.974 1679.9 182.204 1681 182.204 1682.04 182.204 1682.86 181.63 1683.44 180.482 1684.03 179.334 1684.71 176.791 1685.49 172.854 1686.57 172.854 1687.64 172.854 1688.71 172.854 1688.71 198.443 1688.71 224.031 1688.71 249.62 1687.64 249.62 1686.57 249.62 1685.49 249.62 1683.02 225.508 1679.85 209.105 1675.98 200.411 1672.11 191.718 1667.18 187.371 1661.2 187.371 1656.64 187.371 1652.97 190.405 1650.17 196.475 1647.37 202.544 1645.97 209.269 1645.97 216.65 1645.97 225.836 1647.01 233.709 1649.1 240.27 1651.11 246.995 1655.21 254.131 1661.39 261.676 1666.14 267.499 1670.89 273.322 1675.64 279.145 1688.84 295.384 1695.44 316.789 1695.44 343.362 1695.44 363.866 1692.37 380.391 1686.22 392.94 1680.08 405.488 1673.2 411.762 1665.59 411.762 1660.12 411.762 1653.88 409.301 1646.85 404.381 1644.71 402.74 1642.95 401.92 1641.58 401.92 1640.09 401.92 1638.92 404.052 1638.07 408.317 1637 408.317 1635.92 408.317 1634.85 408.317 1634.85 381.499 1634.85 354.68 1634.85 327.861 1635.92 327.861 1637 327.861 1638.07 327.861 1639.89 350.825 1643.37 368.13 1648.51 379.776 1653.65 391.422 1659.41 397.245 1665.78 397.245 1670.27 397.245 1673.93 393.924 1676.76 387.281 1679.59 380.637 1681 372.641 1681 363.291 1681 351.973 1679.43 342.46 1676.27 334.75 1673.12 327.041 1666.82 317.281 1657.39 305.471 1647.96 293.661 1641.78 283 1638.85 273.486 1635.92 264.136 1634.46 252.326 1634.46 238.056 1634.46 219.521 1636.98 204.02 1642.02 191.554 1647.06 179.087 1653.58 172.854 1661.59 172.854ZM1583.77 172.608C1593.79 172.608 1602.02 180.933 1608.46 197.582 1614.9 214.231 1618.12 236.497 1618.12 264.382 1597.53 264.382 1576.94 264.382 1556.35 264.382 1556.29 297.844 1559.51 324.089 1566.01 343.116 1572.52 362.143 1580.16 371.657 1588.94 371.657 1594.8 371.657 1599.89 367.597 1604.21 359.478 1608.54 351.358 1612.16 337.457 1615.09 317.774 1616.1 319.414 1617.11 321.054 1618.12 322.694 1616.75 345.166 1612.78 365.629 1606.21 384.082 1599.64 402.535 1591.41 411.762 1581.53 411.762 1570.79 411.762 1561.6 401.223 1553.96 380.145 1546.32 359.068 1542.5 330.732 1542.5 295.138 1542.5 256.591 1546.42 226.533 1554.25 204.963 1562.09 183.393 1571.93 172.608 1583.77 172.608ZM1477.47 71.2388C1496.37 71.2388 1515.27 71.2388 1534.17 71.2388 1534.17 74.2733 1534.17 77.3079 1534.17 80.3424 1532.57 80.3424 1530.98 80.3424 1529.38 80.3424 1523.99 80.3424 1520.05 84.3611 1517.58 92.3985 1516.02 97.6474 1515.24 110.278 1515.24 130.289 1515.24 184.664 1515.24 239.04 1515.24 293.415 1515.24 318.512 1514.15 338.851 1511.97 354.434 1509.79 370.017 1506.03 383.59 1500.7 395.154 1495.36 406.718 1488.92 412.5 1481.38 412.5 1475.26 412.5 1470.45 408.686 1466.94 401.059 1463.42 393.432 1461.67 384.697 1461.67 374.855 1461.67 366.818 1462.48 360.749 1464.11 356.648 1466.25 351.563 1468.76 349.021 1471.62 349.021 1473.7 349.021 1475.57 350.743 1477.23 354.188 1478.89 357.632 1480.99 366.818 1483.52 381.745 1485.02 390.602 1486.94 395.031 1489.28 395.031 1491.04 395.031 1492.68 392.324 1494.21 386.912 1495.74 381.499 1496.5 371.903 1496.5 358.125 1496.5 282.179 1496.5 206.234 1496.5 130.289 1496.5 113.394 1496.08 102.24 1495.23 96.8272 1494.58 92.7265 1493.22 89.1999 1491.14 86.2474 1488.34 82.3107 1485.38 80.3424 1482.26 80.3424 1480.66 80.3424 1479.07 80.3424 1477.47 80.3424 1477.47 77.3079 1477.47 74.2733 1477.47 71.2388ZM1748.56 62.8734C1755.85 62.8734 1763.13 62.8734 1770.42 62.8734 1760.82 91.1683 1751.23 119.463 1741.63 147.758 1740.53 147.758 1739.42 147.758 1738.32 147.758 1741.73 119.463 1745.15 91.1683 1748.56 62.8734Z" fill="#FFFF00" fill-rule="evenodd"/><text fill="#000000" fill-opacity="0" font-family="Arial,Arial_MSFontService,sans-serif" font-size="349.627" x="1461.67" y="368.797">Jess</text><g clip-path="url(#clip13)" filter="url(#fx3)" transform="translate(1947 63)"><g clip-path="url(#clip14)"><path d="M220.63 153.959C217.182 153.959 213.734 156.174 210.287 160.602 207.685 163.883 204.367 170.444 200.334 180.286 200.334 225.23 200.334 270.173 200.334 315.117 203.652 323.318 207.083 329.511 210.628 333.693 214.174 337.876 217.8 339.967 221.508 339.967 227.427 339.967 232.941 331.766 238.047 315.363 243.153 298.96 245.706 275.094 245.706 243.765 245.706 214.896 243.153 192.711 238.047 177.21 232.941 161.709 227.135 153.959 220.63 153.959ZM378.746 136.244C373.347 136.244 368.517 141.534 364.256 152.114 359.995 162.694 357.507 177.415 356.792 196.278 370.582 196.278 384.373 196.278 398.163 196.278 397.838 181.844 397.155 171.674 396.114 165.769 394.488 156.584 392.065 149.366 388.845 144.117 385.625 138.869 382.259 136.244 378.746 136.244ZM116.01 135.014C112.562 135.014 109.098 137.597 105.618 142.764 102.138 147.931 99.3242 156.994 97.1776 169.952 95.0309 182.91 93.9575 199.559 93.9575 219.899 93.9575 252.704 96.5433 280.999 101.715 304.783 106.886 328.567 113.7 340.459 122.157 340.459 128.467 340.459 133.671 333.898 137.769 320.776 141.867 307.654 143.916 285.1 143.916 253.114 143.916 213.091 140.501 181.598 133.671 158.634 129.052 142.887 123.165 135.014 116.01 135.014ZM297.206 119.021C298.572 119.021 299.938 119.021 301.304 119.021 301.304 135.916 301.304 152.811 301.304 169.706 308.785 135.916 316.461 119.021 324.332 119.021 327.91 119.021 330.869 121.769 333.211 127.264 335.553 132.758 336.724 139.115 336.724 146.332 336.724 152.729 335.878 158.142 334.187 162.571 332.495 166.999 330.479 169.214 328.137 169.214 325.86 169.214 323.307 166.384 320.477 160.725 317.648 155.066 315.55 152.237 314.184 152.237 313.013 152.237 311.745 153.877 310.379 157.158 307.451 163.883 304.426 174.955 301.304 190.373 301.304 226.378 301.304 262.382 301.304 298.386 301.304 310.852 301.922 320.284 303.158 326.681 304.004 331.11 305.5 334.8 307.646 337.753 309.793 340.706 312.883 342.182 316.916 342.182 316.916 345.134 316.916 348.087 316.916 351.039 301.662 351.039 286.408 351.039 271.154 351.039 271.154 348.087 271.154 345.134 271.154 342.182 275.707 342.182 279.089 340.377 281.301 336.769 282.928 334.144 284.066 329.962 284.716 324.221 285.042 321.432 285.204 313.477 285.204 300.354 285.204 271.239 285.204 242.124 285.204 213.009 285.204 186.765 284.993 171.141 284.57 166.138 284.147 161.135 283.367 157.486 282.228 155.189 281.09 152.893 279.675 151.745 277.984 151.745 275.967 151.745 273.69 152.975 271.154 155.435 270.828 152.483 270.503 149.53 270.178 146.578 279.187 137.392 288.196 128.207 297.206 119.021ZM119.034 119.021C132.565 119.021 143.428 131.979 151.624 157.896 158.585 180.04 162.065 205.464 162.065 234.169 162.065 254.345 160.146 274.766 156.308 295.434 152.47 316.101 147.185 331.684 140.452 342.182 133.719 352.68 126.222 357.928 117.961 357.928 104.496 357.928 93.795 344.396 85.8589 317.331 79.1588 294.531 75.8086 268.943 75.8086 240.566 75.8086 219.899 77.8414 199.354 81.9071 178.932 85.9727 158.511 91.323 143.42 97.9581 133.661 104.593 123.901 111.619 119.021 119.034 119.021ZM28.4482 119.021C31.9608 119.021 36.2216 120.907 41.2303 124.68 44.5481 127.14 46.7598 128.371 47.8656 128.371 48.9064 128.371 49.7195 127.797 50.3049 126.648 50.8904 125.5 51.5735 122.958 52.354 119.021 53.4274 119.021 54.5006 119.021 55.574 119.021 55.574 144.61 55.574 170.198 55.574 195.786 54.5006 195.786 53.4274 195.786 52.354 195.786 49.8821 171.674 46.7111 155.271 42.8403 146.578 38.97 137.884 34.0424 133.538 28.0579 133.538 23.5044 133.538 19.8291 136.572 17.032 142.641 14.2346 148.71 12.8362 155.435 12.8362 162.817 12.8362 172.002 13.877 179.876 15.9586 186.437 17.975 193.162 22.0732 200.297 28.2529 207.842 33.0016 213.665 37.7502 219.488 42.499 225.312 55.704 241.55 62.3065 262.956 62.3065 289.529 62.3065 310.032 59.233 326.558 53.0857 339.106 46.9386 351.654 40.0596 357.928 32.4487 357.928 26.9845 357.928 20.7399 355.468 13.7145 350.547 11.5677 348.907 9.81128 348.087 8.44531 348.087 6.9491 348.087 5.77832 350.219 4.9325 354.484 3.85925 354.484 2.78589 354.484 1.71252 354.484 1.71252 327.665 1.71252 300.847 1.71252 274.028 2.78589 274.028 3.85925 274.028 4.9325 274.028 6.75403 296.992 10.2341 314.297 15.3732 325.943 20.5121 337.589 26.269 343.412 32.6439 343.412 37.1323 343.412 40.7915 340.09 43.6211 333.447 46.4507 326.804 47.8656 318.808 47.8656 309.458 47.8656 298.14 46.2881 288.626 43.1332 280.917 39.9783 273.208 33.6846 263.448 24.2524 251.638 14.8203 239.828 8.64038 229.166 5.71326 219.653 2.78589 210.303 1.32239 198.493 1.32239 184.222 1.32239 165.687 3.8429 150.186 8.8844 137.72 13.9258 125.254 20.447 119.021 28.4482 119.021ZM384.21 118.775C394.228 118.775 402.457 127.099 408.897 143.748 415.337 160.397 418.557 182.664 418.557 210.549 397.968 210.549 377.38 210.549 356.792 210.549 356.727 244.011 359.947 270.255 366.452 289.283 372.956 308.31 380.6 317.824 389.382 317.824 395.236 317.824 400.326 313.764 404.652 305.644 408.978 297.525 412.605 283.624 415.532 263.94 416.54 265.58 417.548 267.221 418.557 268.861 417.191 291.333 413.223 311.795 406.652 330.249 400.082 348.702 391.854 357.928 381.966 357.928 371.233 357.928 362.044 347.39 354.401 326.312 346.758 305.234 342.936 276.898 342.936 241.304 342.936 202.758 346.855 172.699 354.694 151.13 362.532 129.56 372.371 118.775 384.21 118.775ZM195.943 1.16666C197.407 1.16666 198.87 1.16666 200.334 1.16666 200.334 55.6241 200.334 110.082 200.334 164.539 208.986 134.194 218.321 119.021 228.338 119.021 237.51 119.021 245.511 128.904 252.342 148.669 259.172 168.435 262.587 195.458 262.587 229.74 262.587 269.763 257.318 301.995 246.78 326.435 237.738 347.431 227.655 357.928 216.532 357.928 211.328 357.928 206.042 355.55 200.676 350.793 195.309 346.036 189.829 338.901 184.235 329.388 184.235 251.556 184.235 173.725 184.235 95.8931 184.235 70.3046 183.991 54.5579 183.503 48.6529 183.015 42.7479 182.25 38.7292 181.21 36.5968 180.169 34.4644 178.868 33.3982 177.307 33.3982 175.485 33.3982 173.208 34.7105 170.476 37.3349 170.021 34.4644 169.566 31.5939 169.11 28.7234 178.055 19.5378 186.999 10.3522 195.943 1.16666Z" fill="#FFFF00" fill-rule="evenodd"/></g></g><path d="M2158.46 207.792C2155.02 207.792 2151.57 210.007 2148.12 214.436 2145.52 217.716 2142.2 224.277 2138.17 234.119 2138.17 279.063 2138.17 324.007 2138.17 368.95 2141.49 377.152 2144.92 383.344 2148.46 387.527 2152.01 391.709 2155.63 393.801 2159.34 393.801 2165.26 393.801 2170.77 385.599 2175.88 369.196 2180.99 352.794 2183.54 328.927 2183.54 297.598 2183.54 268.729 2180.99 246.544 2175.88 231.044 2170.77 215.543 2164.97 207.792 2158.46 207.792ZM2316.58 190.077C2311.18 190.077 2306.35 195.367 2302.09 205.947 2297.83 216.527 2295.34 231.249 2294.62 250.112 2308.42 250.112 2322.21 250.112 2336 250.112 2335.67 235.677 2334.99 225.508 2333.95 219.603 2332.32 210.417 2329.9 203.2 2326.68 197.951 2323.46 192.702 2320.09 190.077 2316.58 190.077ZM2053.84 188.847C2050.4 188.847 2046.93 191.431 2043.45 196.598 2039.97 201.764 2037.16 210.827 2035.01 223.785 2032.86 236.743 2031.79 253.392 2031.79 273.732 2031.79 306.538 2034.38 334.832 2039.55 358.617 2044.72 382.401 2051.53 394.293 2059.99 394.293 2066.3 394.293 2071.5 387.732 2075.6 374.609 2079.7 361.487 2081.75 338.933 2081.75 306.948 2081.75 266.925 2078.33 235.431 2071.5 212.467 2066.89 196.721 2061 188.847 2053.84 188.847ZM2235.04 172.854C2236.41 172.854 2237.77 172.854 2239.14 172.854 2239.14 189.749 2239.14 206.644 2239.14 223.539 2246.62 189.749 2254.29 172.854 2262.17 172.854 2265.74 172.854 2268.7 175.602 2271.04 181.097 2273.39 186.592 2274.56 192.948 2274.56 200.165 2274.56 206.562 2273.71 211.975 2272.02 216.404 2270.33 220.833 2268.31 223.047 2265.97 223.047 2263.69 223.047 2261.14 220.218 2258.31 214.559 2255.48 208.9 2253.38 206.07 2252.02 206.07 2250.85 206.07 2249.58 207.71 2248.21 210.991 2245.28 217.716 2242.26 228.788 2239.14 244.207 2239.14 280.211 2239.14 316.215 2239.14 352.22 2239.14 364.686 2239.76 374.117 2240.99 380.514 2241.84 384.943 2243.33 388.634 2245.48 391.586 2247.63 394.539 2250.72 396.015 2254.75 396.015 2254.75 398.968 2254.75 401.92 2254.75 404.873 2239.5 404.873 2224.24 404.873 2208.99 404.873 2208.99 401.92 2208.99 398.968 2208.99 396.015 2213.54 396.015 2216.92 394.211 2219.13 390.602 2220.76 387.978 2221.9 383.795 2222.55 378.054 2222.88 375.266 2223.04 367.31 2223.04 354.188 2223.04 325.073 2223.04 295.958 2223.04 266.843 2223.04 240.598 2222.83 224.974 2222.4 219.972 2221.98 214.969 2221.2 211.319 2220.06 209.023 2218.92 206.726 2217.51 205.578 2215.82 205.578 2213.8 205.578 2211.52 206.808 2208.99 209.269 2208.66 206.316 2208.34 203.364 2208.01 200.411 2217.02 191.226 2226.03 182.04 2235.04 172.854ZM2056.87 172.854C2070.4 172.854 2081.26 185.813 2089.46 211.729 2096.42 233.873 2099.9 259.297 2099.9 288.002 2099.9 308.178 2097.98 328.599 2094.14 349.267 2090.3 369.935 2085.02 385.517 2078.29 396.015 2071.55 406.513 2064.06 411.762 2055.79 411.762 2042.33 411.762 2031.63 398.229 2023.69 371.165 2016.99 348.365 2013.64 322.776 2013.64 294.4 2013.64 273.732 2015.67 253.187 2019.74 232.766 2023.81 212.344 2029.16 197.254 2035.79 187.494 2042.43 177.734 2049.45 172.854 2056.87 172.854ZM1966.28 172.854C1969.79 172.854 1974.05 174.741 1979.06 178.513 1982.38 180.974 1984.59 182.204 1985.7 182.204 1986.74 182.204 1987.55 181.63 1988.14 180.482 1988.72 179.334 1989.41 176.791 1990.19 172.854 1991.26 172.854 1992.33 172.854 1993.41 172.854 1993.41 198.443 1993.41 224.031 1993.41 249.62 1992.33 249.62 1991.26 249.62 1990.19 249.62 1987.72 225.508 1984.54 209.105 1980.67 200.411 1976.8 191.718 1971.88 187.371 1965.89 187.371 1961.34 187.371 1957.66 190.405 1954.87 196.475 1952.07 202.544 1950.67 209.269 1950.67 216.65 1950.67 225.836 1951.71 233.709 1953.79 240.27 1955.81 246.995 1959.91 254.131 1966.09 261.676 1970.83 267.499 1975.58 273.322 1980.33 279.145 1993.54 295.384 2000.14 316.789 2000.14 343.362 2000.14 363.866 1997.07 380.391 1990.92 392.94 1984.77 405.488 1977.89 411.762 1970.28 411.762 1964.82 411.762 1958.57 409.301 1951.55 404.381 1949.4 402.74 1947.64 401.92 1946.28 401.92 1944.78 401.92 1943.61 404.052 1942.77 408.317 1941.69 408.317 1940.62 408.317 1939.55 408.317 1939.55 381.499 1939.55 354.68 1939.55 327.861 1940.62 327.861 1941.69 327.861 1942.77 327.861 1944.59 350.825 1948.07 368.13 1953.21 379.776 1958.35 391.422 1964.1 397.245 1970.48 397.245 1974.97 397.245 1978.62 393.924 1981.45 387.281 1984.28 380.637 1985.7 372.641 1985.7 363.291 1985.7 351.973 1984.12 342.46 1980.97 334.75 1977.81 327.041 1971.52 317.281 1962.09 305.471 1952.65 293.661 1946.47 283 1943.55 273.486 1940.62 264.136 1939.16 252.326 1939.16 238.056 1939.16 219.521 1941.68 204.02 1946.72 191.554 1951.76 179.087 1958.28 172.854 1966.28 172.854ZM2322.04 172.608C2332.06 172.608 2340.29 180.933 2346.73 197.582 2353.17 214.231 2356.39 236.497 2356.39 264.382 2335.8 264.382 2315.21 264.382 2294.62 264.382 2294.56 297.844 2297.78 324.089 2304.28 343.116 2310.79 362.143 2318.43 371.657 2327.22 371.657 2333.07 371.657 2338.16 367.597 2342.49 359.478 2346.81 351.358 2350.44 337.457 2353.37 317.774 2354.37 319.414 2355.38 321.054 2356.39 322.694 2355.02 345.166 2351.06 365.629 2344.49 384.082 2337.92 402.535 2329.69 411.762 2319.8 411.762 2309.07 411.762 2299.88 401.223 2292.23 380.145 2284.59 359.068 2280.77 330.732 2280.77 295.138 2280.77 256.591 2284.69 226.533 2292.53 204.963 2300.37 183.393 2310.2 172.608 2322.04 172.608ZM2133.78 55C2135.24 55 2136.7 55 2138.17 55 2138.17 109.457 2138.17 163.915 2138.17 218.372 2146.82 188.027 2156.15 172.854 2166.17 172.854 2175.34 172.854 2183.34 182.737 2190.18 202.503 2197.01 222.268 2200.42 249.292 2200.42 283.574 2200.42 323.597 2195.15 355.828 2184.61 380.268 2175.57 401.264 2165.49 411.762 2154.36 411.762 2149.16 411.762 2143.88 409.383 2138.51 404.627 2133.14 399.87 2127.66 392.735 2122.07 383.221 2122.07 305.389 2122.07 227.558 2122.07 149.726 2122.07 124.138 2121.82 108.391 2121.34 102.486 2120.85 96.5812 2120.08 92.5625 2119.04 90.4301 2118 88.2978 2116.7 87.2316 2115.14 87.2316 2113.32 87.2316 2111.04 88.5438 2108.31 91.1683 2107.85 88.2978 2107.4 85.4273 2106.94 82.5568 2115.89 73.3712 2124.83 64.1856 2133.78 55Z" fill="#FFFF00" fill-rule="evenodd"/><text fill="#000000" fill-opacity="0" font-family="Arial,Arial_MSFontService,sans-serif" font-size="356.762" x="1939.16" y="367.167">sobre</text><g clip-path="url(#clip15)" filter="url(#fx4)" transform="translate(2430 181)"><g clip-path="url(#clip16)"><path d="M69.2021 7.66424C79.6426 7.66424 90.083 7.66424 100.524 7.66424 100.524 57.9389 100.524 108.214 100.524 158.488 100.524 179.484 101.971 193.262 104.866 199.824 107.76 206.385 111.257 209.665 115.355 209.665 118.152 209.665 121.323 207.451 124.869 203.022 128.414 198.593 132.626 190.146 137.505 177.68 137.505 135.114 137.505 92.549 137.505 49.9836 137.505 37.1893 136.578 28.5368 134.724 24.0261 132.87 19.5153 129.016 17.0959 123.161 16.7678 123.161 13.7333 123.161 10.6988 123.161 7.66424 133.309 7.66424 143.457 7.66424 153.604 7.66424 153.604 53.1821 153.604 98.7 153.604 144.218 153.604 170.298 153.848 186.25 154.336 192.073 154.824 197.896 155.605 201.956 156.678 204.252 157.751 206.549 159.003 207.697 160.435 207.697 162.451 207.697 164.728 206.303 167.265 203.514 167.72 206.385 168.176 209.255 168.631 212.126 159.719 221.393 150.807 230.661 141.896 239.928 140.432 239.928 138.968 239.928 137.505 239.928 137.505 224.018 137.505 208.107 137.505 192.196 129.829 213.192 123.974 226.396 119.941 231.809 115.908 237.222 111.647 239.928 107.159 239.928 102.15 239.928 97.8076 236.279 94.1326 228.98 90.4573 221.68 87.9041 212.29 86.4729 200.808 85.042 189.326 84.3262 173.087 84.3262 152.091 84.3262 118.547 84.3262 85.0036 84.3262 51.4598 84.3262 40.798 83.8708 33.4167 82.9602 29.316 82.0496 25.2153 80.6997 22.0577 78.9109 19.8433 77.1221 17.629 73.8857 16.6038 69.2021 16.7678 69.2021 13.7333 69.2021 10.6988 69.2021 7.66424ZM28.3792 1.02108C31.8918 1.02108 36.1526 2.90741 41.1614 6.68006 44.479 9.14049 46.6907 10.3707 47.7966 10.3707 48.8372 10.3707 49.6504 9.7966 50.2358 8.64841 50.8213 7.5002 51.5044 4.95776 52.2852 1.02108 53.3584 1.02108 54.4316 1.02108 55.5051 1.02108 55.5051 26.6095 55.5051 52.198 55.5051 77.7864 54.4316 77.7864 53.3584 77.7864 52.2852 77.7864 49.813 53.6742 46.6418 37.2714 42.7715 28.5779 38.9009 19.8843 33.9734 15.5376 27.9888 15.5376 23.4353 15.5376 19.76 18.5721 16.9629 24.6412 14.1658 30.7102 12.7671 37.4354 12.7671 44.8167 12.7671 54.0023 13.8081 61.8756 15.8896 68.4368 17.906 75.1619 22.0044 82.2972 28.1838 89.8425 32.9326 95.6655 37.6814 101.488 42.4299 107.312 55.635 123.55 62.2375 144.956 62.2375 171.529 62.2375 192.032 59.1641 208.558 53.0168 221.106 46.8696 233.654 39.9905 239.928 32.3796 239.928 26.9155 239.928 20.6707 237.468 13.6453 232.547 11.4985 230.907 9.74219 230.087 8.37646 230.087 6.88013 230.087 5.70923 232.219 4.86353 236.484 3.79028 236.484 2.7168 236.484 1.64355 236.484 1.64355 209.665 1.64355 182.847 1.64355 156.028 2.7168 156.028 3.79028 156.028 4.86353 156.028 6.68481 178.992 10.1653 196.297 15.304 207.943 20.4431 219.589 26.2 225.412 32.5747 225.412 37.0635 225.412 40.7222 222.09 43.552 215.447 46.3818 208.804 47.7966 200.808 47.7966 191.458 47.7966 180.14 46.2192 170.626 43.0642 162.917 39.9092 155.208 33.6157 145.448 24.1833 133.638 14.7512 121.828 8.57153 111.166 5.64429 101.653 2.7168 92.3029 1.25317 80.4928 1.25317 66.2224 1.25317 47.6872 3.77393 32.1865 8.81519 19.7203 13.8567 7.25416 20.3779 1.02108 28.3792 1.02108Z" fill="#FFFF00" fill-rule="evenodd"/></g></g><path d="M2490.04 179.498C2500.48 179.498 2510.92 179.498 2521.36 179.498 2521.36 229.772 2521.36 280.047 2521.36 330.322 2521.36 351.317 2522.8 365.096 2525.7 371.657 2528.59 378.218 2532.09 381.499 2536.19 381.499 2538.99 381.499 2542.16 379.284 2545.7 374.855 2549.25 370.427 2553.46 361.979 2558.34 349.513 2558.34 306.948 2558.34 264.382 2558.34 221.817 2558.34 209.023 2557.41 200.37 2555.56 195.859 2553.7 191.349 2549.85 188.929 2543.99 188.601 2543.99 185.567 2543.99 182.532 2543.99 179.498 2554.14 179.498 2564.29 179.498 2574.44 179.498 2574.44 225.015 2574.44 270.533 2574.44 316.051 2574.44 342.132 2574.68 358.084 2575.17 363.907 2575.66 369.73 2576.44 373.789 2577.51 376.086 2578.58 378.382 2579.84 379.53 2581.27 379.53 2583.28 379.53 2585.56 378.136 2588.1 375.348 2588.55 378.218 2589.01 381.089 2589.46 383.959 2580.55 393.227 2571.64 402.494 2562.73 411.762 2561.27 411.762 2559.8 411.762 2558.34 411.762 2558.34 395.851 2558.34 379.94 2558.34 364.03 2550.66 385.025 2544.81 398.229 2540.77 403.642 2536.74 409.055 2532.48 411.762 2527.99 411.762 2522.98 411.762 2518.64 408.112 2514.97 400.813 2511.29 393.514 2508.74 384.123 2507.31 372.641 2505.88 361.159 2505.16 344.92 2505.16 323.925 2505.16 290.381 2505.16 256.837 2505.16 223.293 2505.16 212.631 2504.7 205.25 2503.79 201.149 2502.88 197.049 2501.53 193.891 2499.74 191.677 2497.96 189.462 2494.72 188.437 2490.04 188.601 2490.04 185.567 2490.04 182.532 2490.04 179.498ZM2449.21 172.854C2452.73 172.854 2456.99 174.741 2461.99 178.513 2465.31 180.974 2467.52 182.204 2468.63 182.204 2469.67 182.204 2470.48 181.63 2471.07 180.482 2471.65 179.334 2472.34 176.791 2473.12 172.854 2474.19 172.854 2475.26 172.854 2476.34 172.854 2476.34 198.443 2476.34 224.031 2476.34 249.62 2475.26 249.62 2474.19 249.62 2473.12 249.62 2470.65 225.508 2467.48 209.105 2463.6 200.411 2459.73 191.718 2454.81 187.371 2448.82 187.371 2444.27 187.371 2440.59 190.405 2437.8 196.475 2435 202.544 2433.6 209.269 2433.6 216.65 2433.6 225.836 2434.64 233.709 2436.72 240.27 2438.74 246.995 2442.84 254.131 2449.02 261.676 2453.77 267.499 2458.51 273.322 2463.26 279.145 2476.47 295.384 2483.07 316.789 2483.07 343.362 2483.07 363.866 2480 380.391 2473.85 392.94 2467.7 405.488 2460.82 411.762 2453.21 411.762 2447.75 411.762 2441.5 409.301 2434.48 404.381 2432.33 402.74 2430.58 401.92 2429.21 401.92 2427.71 401.92 2426.54 404.052 2425.7 408.317 2424.62 408.317 2423.55 408.317 2422.48 408.317 2422.48 381.499 2422.48 354.68 2422.48 327.861 2423.55 327.861 2424.62 327.861 2425.7 327.861 2427.52 350.825 2431 368.13 2436.14 379.776 2441.28 391.422 2447.03 397.245 2453.41 397.245 2457.9 397.245 2461.56 393.924 2464.39 387.281 2467.22 380.637 2468.63 372.641 2468.63 363.291 2468.63 351.973 2467.05 342.46 2463.9 334.75 2460.74 327.041 2454.45 317.281 2445.02 305.471 2435.58 293.661 2429.4 283 2426.48 273.486 2423.55 264.136 2422.09 252.326 2422.09 238.056 2422.09 219.521 2424.61 204.02 2429.65 191.554 2434.69 179.087 2441.21 172.854 2449.21 172.854Z" fill="#FFFF00" fill-rule="evenodd"/><text fill="#000000" fill-opacity="0" font-family="Arial,Arial_MSFontService,sans-serif" font-size="238.907" x="2422.09" y="381.898">su</text><g clip-path="url(#clip17)" filter="url(#fx5)" transform="translate(2651 63)"><g clip-path="url(#clip18)"><path d="M443.737 216.7C433.914 226.542 427.572 233.513 424.71 237.614 419.571 244.831 415.896 252.376 413.684 260.25 411.472 268.123 410.366 276.734 410.366 286.084 410.366 297.894 411.765 307.695 414.562 315.486 417.359 323.277 420.579 327.173 424.222 327.173 429.166 327.173 435.671 318.972 443.737 302.569 443.737 273.946 443.737 245.323 443.737 216.7ZM185.432 136.244C180.033 136.244 175.203 141.534 170.942 152.114 166.681 162.694 164.193 177.415 163.477 196.278 177.268 196.278 191.059 196.278 204.849 196.278 204.524 181.844 203.841 171.674 202.8 165.769 201.174 156.584 198.751 149.366 195.531 144.117 192.311 138.869 188.944 136.244 185.432 136.244ZM523.952 134.03C518.227 134.03 513.121 140.509 508.633 153.467 502.713 170.526 499.753 195.458 499.753 228.264 499.753 261.398 502.615 286.781 508.34 304.414 514.064 322.047 520.439 330.864 527.464 330.864 533.384 330.864 539.108 323.4 544.637 308.474 544.637 269.763 544.637 231.052 544.637 192.342 544.247 181.188 543.076 171.018 541.125 161.832 539.173 152.647 536.588 145.717 533.368 141.042 530.148 136.367 527.009 134.03 523.952 134.03ZM335.018 134.03C329.294 134.03 324.188 140.509 319.699 153.467 313.779 170.526 310.82 195.458 310.82 228.264 310.82 261.398 313.682 286.781 319.406 304.414 325.131 322.047 331.506 330.864 338.531 330.864 344.45 330.864 350.175 323.4 355.704 308.474 355.704 269.763 355.704 231.052 355.704 192.342 355.314 181.188 354.143 171.018 352.191 161.832 350.24 152.647 347.654 145.717 344.434 141.042 341.214 136.367 338.075 134.03 335.018 134.03ZM430.076 119.021C438.012 119.021 444.518 122.384 449.591 129.109 453.429 134.194 456.259 142.149 458.08 152.975 459.251 160.028 459.837 174.463 459.837 196.278 459.837 221.785 459.837 247.291 459.837 272.798 459.837 294.285 459.999 307.449 460.324 312.288 460.65 317.126 461.186 320.366 461.935 322.006 462.683 323.647 463.545 324.467 464.52 324.467 465.561 324.467 466.472 323.893 467.252 322.744 468.618 320.612 471.253 314.625 475.156 304.783 475.156 309.376 475.156 313.969 475.156 318.562 467.87 343.166 460.91 355.468 454.275 355.468 451.087 355.468 448.551 352.68 446.664 347.103 444.778 341.526 443.802 332.012 443.737 318.562 434.565 336.441 428.808 346.775 426.466 349.563 422.953 353.664 419.213 355.714 415.245 355.714 409.065 355.714 403.975 350.383 399.974 339.721 395.974 329.059 393.974 315.035 393.974 297.648 393.974 286.658 394.949 277.144 396.901 269.107 399.568 257.953 404.203 247.455 410.805 237.614 417.408 227.772 428.385 215.798 443.737 201.691 443.737 198.739 443.737 195.786 443.737 192.834 443.737 170.362 442.322 154.943 439.492 146.578 436.663 138.212 432.548 134.03 427.149 134.03 423.051 134.03 419.798 136.818 417.392 142.395 414.92 147.972 413.684 154.369 413.684 161.586 413.749 166.343 413.814 171.1 413.879 175.857 413.879 183.402 413.115 189.225 411.586 193.326 410.057 197.427 408.057 199.477 405.585 199.477 403.178 199.477 401.21 197.345 399.682 193.08 398.153 188.815 397.389 182.992 397.389 175.611 397.389 161.504 400.251 148.546 405.975 136.736 411.7 124.926 419.733 119.021 430.076 119.021ZM264.614 119.021C266.045 119.021 267.476 119.021 268.907 119.021 268.907 179.384 268.907 239.746 268.907 300.108 268.907 314.215 269.313 323.606 270.126 328.28 270.939 332.955 272.143 336.441 273.737 338.737 275.33 341.034 278.241 342.182 282.47 342.182 282.47 345.134 282.47 348.087 282.47 351.039 267.996 351.039 253.522 351.039 239.049 351.039 239.049 348.087 239.049 345.134 239.049 342.182 243.407 342.182 246.334 341.116 247.831 338.983 249.327 336.851 250.514 333.324 251.392 328.403 252.27 323.483 252.709 314.051 252.709 300.108 252.709 271.157 252.709 242.206 252.709 213.255 252.709 188.815 252.417 172.986 251.831 165.769 251.376 160.52 250.66 156.871 249.685 154.82 248.709 152.77 247.375 151.745 245.684 151.745 243.863 151.745 241.651 152.975 239.049 155.435 238.594 152.483 238.138 149.53 237.683 146.578 246.66 137.392 255.637 128.207 264.614 119.021ZM190.896 118.775C200.914 118.775 209.143 127.099 215.583 143.748 222.022 160.397 225.242 182.664 225.242 210.549 204.654 210.549 184.066 210.549 163.477 210.549 163.412 244.011 166.632 270.255 173.137 289.283 179.642 308.31 187.286 317.824 196.067 317.824 201.922 317.824 207.012 313.764 211.338 305.644 215.664 297.525 219.29 283.624 222.218 263.94 223.226 265.58 224.234 267.221 225.242 268.861 223.876 291.333 219.908 311.795 213.338 330.249 206.768 348.702 198.539 357.928 188.652 357.928 177.918 357.928 168.73 347.39 161.087 326.312 153.443 305.234 149.622 276.898 149.622 241.304 149.622 202.758 153.541 172.699 161.379 151.13 169.218 129.56 179.057 118.775 190.896 118.775ZM59.2632 36.1047C53.4087 36.1047 46.741 38.4831 39.2603 43.2399 39.2603 137.802 39.2603 232.365 39.2603 326.927 47.5217 331.52 54.4495 333.816 60.0439 333.816 75.1355 333.816 87.6575 320.448 97.6101 293.711 107.563 266.975 112.539 230.724 112.539 184.961 112.539 138.869 107.563 102.536 97.6101 75.9636 87.6575 49.391 74.8752 36.1047 59.2632 36.1047ZM1.49902 17.4055C19.4526 17.4055 37.4065 17.4055 55.3601 17.4055 75.1355 17.4055 90.1782 23.0644 100.489 34.3824 110.799 45.7004 119.093 64.5636 125.37 90.9722 131.647 117.381 134.786 147.89 134.786 182.5 134.786 228.92 129.192 267.713 118.003 298.878 105.449 333.652 86.324 351.039 60.6294 351.039 40.9192 351.039 21.209 351.039 1.49902 351.039 1.49902 348.005 1.49902 344.97 1.49902 341.936 3.15771 341.936 4.81641 341.936 6.4751 341.936 12.0693 341.936 16.0374 337.425 18.3794 328.403 19.8103 322.99 20.5261 310.852 20.5261 291.989 20.5261 220.145 20.5261 148.3 20.5261 76.4557 20.5261 55.6241 19.6152 42.5838 17.7939 37.3349 15.2568 30.1177 11.4841 26.509 6.4751 26.509 4.81641 26.509 3.15771 26.509 1.49902 26.509 1.49902 23.4745 1.49902 20.44 1.49902 17.4055ZM556.347 1.16666C557.81 1.16666 559.274 1.16666 560.738 1.16666 560.738 88.0197 560.738 174.873 560.738 261.726 560.738 288.134 560.981 304.25 561.469 310.073 561.957 315.896 562.738 319.956 563.811 322.252 564.885 324.549 566.137 325.697 567.568 325.697 569.324 325.697 571.666 324.303 574.593 321.514 574.951 324.385 575.309 327.255 575.666 330.126 566.82 339.393 557.973 348.661 549.126 357.928 547.63 357.928 546.134 357.928 544.637 357.928 544.637 347.185 544.637 336.441 544.637 325.697 540.279 337.179 536.018 345.421 531.855 350.424 527.692 355.427 523.204 357.928 518.39 357.928 508.633 357.928 500.111 347.636 492.825 327.05 485.54 306.465 481.897 280.015 481.897 247.701 481.897 215.388 485.93 185.822 493.996 159.003 502.062 132.184 512.438 118.775 525.123 118.775 532.994 118.775 539.499 125.09 544.637 137.72 544.637 123.86 544.637 110 544.637 96.1391 544.637 70.3866 544.394 54.5579 543.906 48.6529 543.418 42.7479 542.654 38.7292 541.613 36.5968 540.572 34.4644 539.271 33.3982 537.71 33.3982 536.018 33.3982 533.774 34.7105 530.977 37.3349 530.554 34.4644 530.131 31.5939 529.708 28.7234 538.588 19.5378 547.467 10.3522 556.347 1.16666ZM367.413 1.16666C368.877 1.16666 370.34 1.16666 371.804 1.16666 371.804 88.0197 371.804 174.873 371.804 261.726 371.804 288.134 372.048 304.25 372.536 310.073 373.024 315.896 373.804 319.956 374.877 322.252 375.951 324.549 377.203 325.697 378.634 325.697 380.391 325.697 382.732 324.303 385.66 321.514 386.017 324.385 386.375 327.255 386.733 330.126 377.886 339.393 369.039 348.661 360.193 357.928 358.697 357.928 357.2 357.928 355.704 357.928 355.704 347.185 355.704 336.441 355.704 325.697 351.346 337.179 347.085 345.421 342.922 350.424 338.759 355.427 334.27 357.928 329.456 357.928 319.699 357.928 311.177 347.636 303.892 327.05 296.606 306.465 292.963 280.015 292.963 247.701 292.963 215.388 296.997 185.822 305.063 159.003 313.129 132.184 323.504 118.775 336.189 118.775 344.06 118.775 350.565 125.09 355.704 137.72 355.704 123.86 355.704 110 355.704 96.1391 355.704 70.3866 355.46 54.5579 354.972 48.6529 354.485 42.7479 353.72 38.7292 352.679 36.5968 351.638 34.4644 350.337 33.3982 348.776 33.3982 347.085 33.3982 344.841 34.7105 342.044 37.3349 341.621 34.4644 341.198 31.5939 340.775 28.7234 349.655 19.5378 358.534 10.3522 367.413 1.16666ZM260.808 1.16666C263.54 1.16666 265.866 3.58608 267.785 8.42492 269.704 13.2637 270.663 19.1278 270.663 26.017 270.663 32.9062 269.704 38.8112 267.785 43.732 265.866 48.6529 263.54 51.1133 260.808 51.1133 258.076 51.1133 255.734 48.6529 253.783 43.732 251.831 38.8112 250.855 32.9062 250.855 26.017 250.855 19.1278 251.815 13.2637 253.734 8.42492 255.653 3.58608 258.011 1.16666 260.808 1.16666Z" fill="#FFFF00" fill-rule="evenodd"/></g></g><path d="M3085.57 270.533C3075.75 280.375 3069.41 287.346 3066.54 291.447 3061.4 298.664 3057.73 306.21 3055.52 314.083 3053.31 321.956 3052.2 330.568 3052.2 339.917 3052.2 351.727 3053.6 361.528 3056.4 369.319 3059.19 377.111 3062.41 381.007 3066.06 381.007 3071 381.007 3077.5 372.805 3085.57 356.402 3085.57 327.779 3085.57 299.156 3085.57 270.533ZM2827.27 190.077C2821.87 190.077 2817.04 195.367 2812.78 205.947 2808.51 216.527 2806.03 231.249 2805.31 250.112 2819.1 250.112 2832.89 250.112 2846.68 250.112 2846.36 235.677 2845.67 225.508 2844.63 219.603 2843.01 210.417 2840.58 203.2 2837.36 197.951 2834.14 192.702 2830.78 190.077 2827.27 190.077ZM3165.78 187.863C3160.06 187.863 3154.95 194.342 3150.47 207.3 3144.55 224.359 3141.59 249.292 3141.59 282.097 3141.59 315.231 3144.45 340.615 3150.17 358.248 3155.9 375.881 3162.27 384.697 3169.3 384.697 3175.22 384.697 3180.94 377.234 3186.47 362.307 3186.47 323.597 3186.47 284.886 3186.47 246.175 3186.08 235.021 3184.91 224.851 3182.96 215.666 3181.01 206.48 3178.42 199.55 3175.2 194.875 3171.98 190.2 3168.84 187.863 3165.78 187.863ZM2976.85 187.863C2971.13 187.863 2966.02 194.342 2961.53 207.3 2955.61 224.359 2952.65 249.292 2952.65 282.097 2952.65 315.231 2955.52 340.615 2961.24 358.248 2966.96 375.881 2973.34 384.697 2980.36 384.697 2986.28 384.697 2992.01 377.234 2997.54 362.307 2997.54 323.597 2997.54 284.886 2997.54 246.175 2997.15 235.021 2995.98 224.851 2994.02 215.666 2992.07 206.48 2989.49 199.55 2986.27 194.875 2983.05 190.2 2979.91 187.863 2976.85 187.863ZM3071.91 172.854C3079.85 172.854 3086.35 176.217 3091.42 182.942 3095.26 188.027 3098.09 195.982 3099.91 206.808 3101.08 213.862 3101.67 228.296 3101.67 250.112 3101.67 275.618 3101.67 301.125 3101.67 326.631 3101.67 348.119 3101.83 361.282 3102.16 366.121 3102.48 370.96 3103.02 374.199 3103.77 375.84 3104.52 377.48 3105.38 378.3 3106.35 378.3 3107.39 378.3 3108.3 377.726 3109.09 376.578 3110.45 374.445 3113.09 368.458 3116.99 358.617 3116.99 363.209 3116.99 367.802 3116.99 372.395 3109.7 396.999 3102.74 409.301 3096.11 409.301 3092.92 409.301 3090.38 406.513 3088.5 400.936 3086.61 395.359 3085.64 385.845 3085.57 372.395 3076.4 390.274 3070.64 400.608 3068.3 403.396 3064.79 407.497 3061.05 409.547 3057.08 409.547 3050.9 409.547 3045.81 404.217 3041.81 393.555 3037.81 382.893 3035.81 368.868 3035.81 351.481 3035.81 340.491 3036.78 330.978 3038.73 322.94 3041.4 311.786 3046.04 301.289 3052.64 291.447 3059.24 281.605 3070.22 269.631 3085.57 255.525 3085.57 252.572 3085.57 249.62 3085.57 246.667 3085.57 224.195 3084.16 208.777 3081.33 200.411 3078.5 192.046 3074.38 187.863 3068.98 187.863 3064.88 187.863 3061.63 190.652 3059.22 196.228 3056.75 201.805 3055.52 208.203 3055.52 215.42 3055.58 220.177 3055.65 224.933 3055.71 229.69 3055.71 237.236 3054.95 243.059 3053.42 247.159 3051.89 251.26 3049.89 253.31 3047.42 253.31 3045.01 253.31 3043.04 251.178 3041.52 246.913 3039.99 242.649 3039.22 236.826 3039.22 229.444 3039.22 215.338 3042.08 202.38 3047.81 190.569 3053.53 178.759 3061.57 172.854 3071.91 172.854ZM2906.45 172.854C2907.88 172.854 2909.31 172.854 2910.74 172.854 2910.74 233.217 2910.74 293.579 2910.74 353.942 2910.74 368.048 2911.15 377.439 2911.96 382.114 2912.77 386.788 2913.98 390.274 2915.57 392.571 2917.16 394.867 2920.07 396.015 2924.3 396.015 2924.3 398.968 2924.3 401.92 2924.3 404.873 2909.83 404.873 2895.36 404.873 2880.88 404.873 2880.88 401.92 2880.88 398.968 2880.88 396.015 2885.24 396.015 2888.17 394.949 2889.66 392.817 2891.16 390.684 2892.35 387.158 2893.23 382.237 2894.1 377.316 2894.54 367.884 2894.54 353.942 2894.54 324.991 2894.54 296.04 2894.54 267.089 2894.54 242.649 2894.25 226.82 2893.66 219.603 2893.21 214.354 2892.49 210.704 2891.52 208.654 2890.54 206.603 2889.21 205.578 2887.52 205.578 2885.7 205.578 2883.48 206.808 2880.88 209.269 2880.43 206.316 2879.97 203.364 2879.52 200.411 2888.49 191.226 2897.47 182.04 2906.45 172.854ZM2832.73 172.608C2842.75 172.608 2850.98 180.933 2857.42 197.582 2863.86 214.231 2867.08 236.497 2867.08 264.382 2846.49 264.382 2825.9 264.382 2805.31 264.382 2805.25 297.844 2808.47 324.089 2814.97 343.116 2821.48 362.143 2829.12 371.657 2837.9 371.657 2843.76 371.657 2848.85 367.597 2853.17 359.478 2857.5 351.358 2861.12 337.457 2864.05 317.774 2865.06 319.414 2866.07 321.054 2867.08 322.694 2865.71 345.166 2861.74 365.629 2855.17 384.082 2848.6 402.535 2840.37 411.762 2830.49 411.762 2819.75 411.762 2810.56 401.223 2802.92 380.145 2795.28 359.068 2791.46 330.732 2791.46 295.138 2791.46 256.591 2795.37 226.533 2803.21 204.963 2811.05 183.393 2820.89 172.608 2832.73 172.608ZM2701.1 89.938C2695.24 89.938 2688.57 92.3165 2681.09 97.0733 2681.09 191.636 2681.09 286.198 2681.09 380.76 2689.35 385.353 2696.28 387.65 2701.88 387.65 2716.97 387.65 2729.49 374.281 2739.44 347.545 2749.4 320.808 2754.37 284.558 2754.37 238.794 2754.37 192.702 2749.4 156.37 2739.44 129.797 2729.49 103.224 2716.71 89.938 2701.1 89.938ZM2643.33 71.2388C2661.29 71.2388 2679.24 71.2388 2697.19 71.2388 2716.97 71.2388 2732.01 76.8978 2742.32 88.2157 2752.63 99.5337 2760.93 118.397 2767.2 144.806 2773.48 171.214 2776.62 201.723 2776.62 236.333 2776.62 282.753 2771.03 321.546 2759.84 352.712 2747.28 387.486 2728.16 404.873 2702.46 404.873 2682.75 404.873 2663.04 404.873 2643.33 404.873 2643.33 401.838 2643.33 398.804 2643.33 395.769 2644.99 395.769 2646.65 395.769 2648.31 395.769 2653.9 395.769 2657.87 391.258 2660.21 382.237 2661.64 376.824 2662.36 364.686 2662.36 345.822 2662.36 273.978 2662.36 202.133 2662.36 130.289 2662.36 109.457 2661.45 96.4172 2659.63 91.1683 2657.09 83.951 2653.32 80.3424 2648.31 80.3424 2646.65 80.3424 2644.99 80.3424 2643.33 80.3424 2643.33 77.3079 2643.33 74.2733 2643.33 71.2388ZM3198.18 55C3199.64 55 3201.11 55 3202.57 55 3202.57 141.853 3202.57 228.706 3202.57 315.559 3202.57 341.968 3202.81 358.084 3203.3 363.907 3203.79 369.73 3204.57 373.789 3205.64 376.086 3206.72 378.382 3207.97 379.53 3209.4 379.53 3211.16 379.53 3213.5 378.136 3216.43 375.348 3216.78 378.218 3217.14 381.089 3217.5 383.959 3208.65 393.227 3199.81 402.494 3190.96 411.762 3189.46 411.762 3187.97 411.762 3186.47 411.762 3186.47 401.018 3186.47 390.274 3186.47 379.53 3182.11 391.012 3177.85 399.255 3173.69 404.258 3169.53 409.26 3165.04 411.762 3160.22 411.762 3150.47 411.762 3141.94 401.469 3134.66 380.883 3127.37 360.298 3123.73 333.848 3123.73 301.535 3123.73 269.221 3127.76 239.655 3135.83 212.836 3143.9 186.018 3154.27 172.608 3166.96 172.608 3174.83 172.608 3181.33 178.923 3186.47 191.554 3186.47 177.693 3186.47 163.833 3186.47 149.972 3186.47 124.22 3186.23 108.391 3185.74 102.486 3185.25 96.5812 3184.49 92.5625 3183.45 90.4301 3182.41 88.2978 3181.1 87.2316 3179.54 87.2316 3177.85 87.2316 3175.61 88.5438 3172.81 91.1683 3172.39 88.2978 3171.96 85.4273 3171.54 82.5568 3180.42 73.3712 3189.3 64.1856 3198.18 55ZM3009.25 55C3010.71 55 3012.17 55 3013.64 55 3013.64 141.853 3013.64 228.706 3013.64 315.559 3013.64 341.968 3013.88 358.084 3014.37 363.907 3014.86 369.73 3015.64 373.789 3016.71 376.086 3017.78 378.382 3019.04 379.53 3020.47 379.53 3022.22 379.53 3024.57 378.136 3027.49 375.348 3027.85 378.218 3028.21 381.089 3028.57 383.959 3019.72 393.227 3010.87 402.494 3002.03 411.762 3000.53 411.762 2999.03 411.762 2997.54 411.762 2997.54 401.018 2997.54 390.274 2997.54 379.53 2993.18 391.012 2988.92 399.255 2984.76 404.258 2980.59 409.26 2976.1 411.762 2971.29 411.762 2961.53 411.762 2953.01 401.469 2945.73 380.883 2938.44 360.298 2934.8 333.848 2934.8 301.535 2934.8 269.221 2938.83 239.655 2946.9 212.836 2954.96 186.018 2965.34 172.608 2978.02 172.608 2985.89 172.608 2992.4 178.923 2997.54 191.554 2997.54 177.693 2997.54 163.833 2997.54 149.972 2997.54 124.22 2997.29 108.391 2996.81 102.486 2996.32 96.5812 2995.55 92.5625 2994.51 90.4301 2993.47 88.2978 2992.17 87.2316 2990.61 87.2316 2988.92 87.2316 2986.67 88.5438 2983.88 91.1683 2983.45 88.2978 2983.03 85.4273 2982.61 82.5568 2991.49 73.3712 3000.37 64.1856 3009.25 55ZM2902.64 55C2905.37 55 2907.7 57.4194 2909.62 62.2583 2911.54 67.0971 2912.5 72.9611 2912.5 79.8503 2912.5 86.7395 2911.54 92.6445 2909.62 97.5654 2907.7 102.486 2905.37 104.947 2902.64 104.947 2899.91 104.947 2897.57 102.486 2895.62 97.5654 2893.66 92.6445 2892.69 86.7395 2892.69 79.8503 2892.69 72.9611 2893.65 67.0971 2895.57 62.2583 2897.49 57.4194 2899.84 55 2902.64 55Z" fill="#FFFF00" fill-rule="evenodd"/><text fill="#000000" fill-opacity="0" font-family="Arial,Arial_MSFontService,sans-serif" font-size="356.762" x="2643.33" y="367.167">Deidad</text><text fill="#FFFF00" font-family="Times New Roman,Times New Roman_MSFontService,sans-serif" font-weight="400" font-size="147" transform="matrix(1 0 0 1 693 818)">FALSA<tspan font-style="italic" font-size="147" x="-330" y="176">(Dos </tspan><tspan font-style="italic" font-size="147" x="-8.02087" y="176">alternativas</tspan><tspan font-style="italic" font-size="147" x="693.229" y="176">)</tspan><tspan font-size="128" x="-605" y="518">El </tspan><tspan font-size="128" x="-458.906" y="518">sabia</tspan><tspan font-size="128" x="-163.854" y="518">que</tspan><tspan font-size="128" x="53.2813" y="518">sus</tspan><tspan font-size="128" x="-605" y="672">afirmaciones</tspan><tspan font-size="128" x="-605" y="826">eran</tspan><tspan font-size="128" x="-352.344" y="826">falsas</tspan><tspan font-size="147" x="-605" y="1465">MENTIROSO</tspan><tspan font-size="128" x="330" y="505">El no </tspan><tspan font-size="128" x="636.51" y="505">sabia</tspan><tspan font-size="128" x="931.562" y="505">que</tspan><tspan font-size="128" x="1148.7" y="505">sus</tspan><tspan font-size="128" x="330" y="659">afirmaciones</tspan><tspan font-size="128" x="1023.8" y="659">eran</tspan><tspan font-size="128" x="330" y="813">falsas</tspan><tspan font-size="128" x="621.615" y="813">.</tspan><tspan font-size="147" x="330" y="1469">LUNATICO</tspan><tspan font-size="147" x="1500.67" y="0">VERDADERA</tspan><tspan font-size="147" x="1705" y="468">El </tspan>es<tspan font-size="147" x="2030.99" y="468">Dios y </tspan><tspan font-size="147" x="1705" y="644">Salvador</tspan><tspan font-style="italic" font-size="147" x="1430" y="908">(Dos </tspan><tspan font-style="italic" font-size="147" x="1749.32" y="908">Alternativas</tspan><tspan font-style="italic" font-size="147" x="2466.61" y="908">)</tspan><tspan font-size="110" x="1237.5" y="1367">ACEPTAR</tspan><tspan font-size="110" x="1897.5" y="1367">RECHAZAR</tspan><tspan font-size="37" x="-660" y="1631">Modified from Josh McDowells </tspan><tspan font-size="37" x="-167.865" y="1631">Evidence That Demands a Verdict</tspan><tspan font-size="37" x="335.156" y="1631">, 1:104</tspan></text><path d="M525 2452.75 776.5 2452.75 1028 2452.75 1028 2454.75 776.5 2454.75 525 2454.75Z" fill="#FFFF00" fill-rule="evenodd"/><path d="M440.573 1760 440 2062.5" stroke="#FFFF00" stroke-width="13.75" stroke-linejoin="round" stroke-miterlimit="10" fill="none" fill-rule="evenodd"/><path d="M1320.57 1760 1320 2062.5" stroke="#FFFF00" stroke-width="13.75" stroke-linejoin="round" stroke-miterlimit="10" fill="none" fill-rule="evenodd"/><path d="M0 0 192.5 275" stroke="#FFFF00" stroke-width="13.75" stroke-linejoin="round" stroke-miterlimit="10" fill="none" fill-rule="evenodd" transform="matrix(-1 0 0 1 2475.5 1788)"/><path d="M2778 1788 2998 2063" stroke="#FFFF00" stroke-width="13.75" stroke-linejoin="round" stroke-miterlimit="10" fill="none" fill-rule="evenodd"/><path d="M2640.57 853 2640 1155.5" stroke="#FFFF00" stroke-width="13.75" stroke-linejoin="round" stroke-miterlimit="10" fill="none" fill-rule="evenodd"/><path d="M0 0 191.927 178.75" stroke="#FFFF00" stroke-width="13.75" stroke-linejoin="round" stroke-miterlimit="10" fill="none" fill-rule="evenodd" transform="matrix(-1 0 0 1 632.927 1004)"/><path d="M1155 1018 1347.5 1183" stroke="#FFFF00" stroke-width="13.75" stroke-linejoin="round" stroke-miterlimit="10" fill="none" fill-rule="evenodd"/></g></svg>