<svg width="1778" height="385" xmlns="http://www.w3.org/2000/svg" xmlns:xlink="http://www.w3.org/1999/xlink" xml:space="preserve" overflow="hidden"><defs><clipPath id="clip0"><rect x="252" y="45" width="1778" height="385"/></clipPath></defs><g clip-path="url(#clip0)" transform="translate(-252 -45)"><path d="M258 328.278 533.455 52.9999 2023 52.9999 2023 148.721 1747.55 424 258 424 258 328.278Z" fill="#CC6600" fill-rule="evenodd" fill-opacity="1"/><path d="M1747 328.278 2023 52.9999 2023 148.721 1747 424 1747 328.278Z" fill="#000000" fill-rule="evenodd" fill-opacity="0.196078"/><path d="M258 328 533.455 52.9999 2023 52.9999 1747.55 328 258 328Z" fill="#FFFFFF" fill-rule="evenodd" fill-opacity="0.196078"/><path d="M258.5 328.779 533.954 53.5001 2023.5 53.5001 2023.5 149.222 1748.05 424.5 258.5 424.5 258.5 328.779ZM258.5 328.779 1748.05 328.779 2023.5 53.5001M1748.05 328.779 1748.05 424.5" stroke="#000000" stroke-width="9.16667" stroke-linecap="butt" stroke-linejoin="round" stroke-miterlimit="10" stroke-opacity="1" fill="none" fill-rule="evenodd"/></g></svg>