<svg width="3353" height="2513" xmlns="http://www.w3.org/2000/svg" xmlns:xlink="http://www.w3.org/1999/xlink" overflow="hidden"><defs><clipPath id="clip0"><rect x="0" y="-3" width="3353" height="2513"/></clipPath></defs><g clip-path="url(#clip0)" transform="matrix(1 0 0 1 0 3)"><path d="M954.433 1976.06C820.577 1841.43 1010.37 1435.7 1378.34 1069.84 1746.32 703.978 2153.13 516.527 2286.99 651.155 2420.84 785.784 2231.05 1191.51 1863.08 1557.37 1495.1 1923.24 1088.29 2110.69 954.433 1976.06Z" stroke="#FF0000" stroke-width="13.75" stroke-linejoin="round" stroke-miterlimit="10" fill="#FFFF00" fill-rule="evenodd"/><path d="M0 0 1364 1370" stroke="#000000" stroke-width="10.3125" stroke-linejoin="round" stroke-miterlimit="10" fill="none" fill-rule="evenodd" transform="matrix(1 0 0 -1 939 1984)"/><text fill="#FFFF00" font-family="Times New Roman,Times New Roman_MSFontService,sans-serif" font-weight="700" font-size="248" transform="matrix(1 0 0 1 301.362 310)">La Persona <tspan font-size="248" x="1260.53" y="0">Teantrópica</tspan></text><path d="M301.362 337.5 933.862 337.5 1566.36 337.5 2198.86 337.5 2831.36 337.5 2831.36 361.5 2198.86 361.5 1566.36 361.5 933.862 361.5 301.362 361.5Z" fill="#FFFF00" fill-rule="evenodd"/><text font-family="Times New Roman,Times New Roman_MSFontService,sans-serif" font-weight="700" font-size="165" transform="matrix(0.698089 -0.716011 0.716011 0.698089 1123.34 1692)">Naturaleza Divina<tspan font-size="165" x="-115.375" y="256.973">Naturaleza Humana</tspan></text><text fill="#FFFF00" font-family="Times New Roman,Times New Roman_MSFontService,sans-serif" font-weight="700" font-size="110" transform="matrix(1 0 0 1 104.891 525)">Kenosis<tspan font-weight="400" font-size="110" x="394.167" y="0">–</tspan><tspan font-weight="400" font-size="110" x="476.667" y="0">Cuando Cristo </tspan><tspan font-weight="400" font-size="110" x="0" y="132">adquirió </tspan><tspan font-weight="400" font-size="110" x="393.594" y="132">una naturaleza </tspan><tspan font-weight="400" font-size="110" x="0" y="264">humana </tspan><tspan font-weight="400" font-size="110" x="375.26" y="264">en Su encarnación</tspan><tspan font-weight="400" font-size="110" x="1180.78" y="264">, </tspan><tspan font-weight="400" font-size="110" x="0" y="396">El voluntariamente  </tspan><tspan font-weight="400" font-size="110" x="0" y="528">restringió el acceso a Su </tspan><tspan font-weight="400" font-size="110" x="0" y="660">naturaleza  divina para </tspan><tspan font-weight="400" font-size="110" x="0" y="792">afrontar como hombre</tspan><tspan font-weight="400" font-size="110" x="0" y="924">los problemas</tspan><tspan font-weight="400" font-size="110" x="641.094" y="924">de la </tspan><tspan font-weight="400" font-size="110" x="0" y="1056">experiencia </tspan><tspan font-weight="400" font-size="110" x="0" y="1188">humana.</tspan><tspan font-style="italic" font-weight="400" font-size="110" x="0" y="1320">Filipenses 2:5</tspan><tspan font-style="italic" font-weight="400" font-size="110" x="625.625" y="1320">-</tspan><tspan font-style="italic" font-weight="400" font-size="110" x="662.292" y="1320">11</tspan><tspan font-size="110" x="2183.11" y="573">Unión Hipostática </tspan><tspan font-weight="400" font-size="110" x="3063.11" y="573">–</tspan><tspan font-weight="400" font-size="110" x="2183.11" y="705">Unión personal eterna </tspan><tspan font-weight="400" font-size="110" x="2183.11" y="837">de la deidad </tspan><tspan font-weight="400" font-size="110" x="2183.11" y="969">irreducible y la </tspan><tspan font-weight="400" font-size="110" x="2183.11" y="1101">humanidad en UNA </tspan><tspan font-weight="400" font-size="110" x="2183.11" y="1233">sola persona por </tspan><tspan font-weight="400" font-size="110" x="2183.11" y="1365">siempre, sin perdida </tspan><tspan font-weight="400" font-size="110" x="2183.11" y="1497">de la esencia por </tspan><tspan font-weight="400" font-size="110" x="2183.11" y="1629">transferencia.</tspan><tspan font-style="italic" font-weight="400" font-size="110" x="2183.11" y="1761">Colosenses 2:9; </tspan><tspan font-style="italic" font-weight="400" font-size="110" x="2183.11" y="1893">1Timoteo 2:5</tspan><tspan font-weight="400" font-size="28" x="-71.8912" y="1927">R.C. Ward, February 2003</tspan></text></g></svg>