<?xml version="1.0" encoding="UTF-8" standalone="no"?>
<!-- Created with Inkscape (http://www.inkscape.org/) -->

<svg
   width="1343.9664"
   height="1007.9747"
   version="1.1"
   viewBox="0 0 959.97602 719.98191"
   id="svg393"
   sodipodi:docname="naturaleza-pecaminosa.svg"
   inkscape:version="1.2.2 (732a01da63, 2022-12-09)"
   xmlns:inkscape="http://www.inkscape.org/namespaces/inkscape"
   xmlns:sodipodi="http://sodipodi.sourceforge.net/DTD/sodipodi-0.dtd"
   xmlns="http://www.w3.org/2000/svg"
   xmlns:svg="http://www.w3.org/2000/svg">
  <sodipodi:namedview
     id="namedview395"
     pagecolor="#505050"
     bordercolor="#eeeeee"
     borderopacity="1"
     inkscape:showpageshadow="0"
     inkscape:pageopacity="0"
     inkscape:pagecheckerboard="0"
     inkscape:deskcolor="#505050"
     showgrid="false"
     inkscape:zoom="0.56527778"
     inkscape:cx="15.036855"
     inkscape:cy="147.71499"
     inkscape:window-width="1920"
     inkscape:window-height="1001"
     inkscape:window-x="-9"
     inkscape:window-y="-9"
     inkscape:window-maximized="1"
     inkscape:current-layer="g391" />
  <defs
     id="defs83">
    <clipPath
       id="pano-nuevoaa">
      <path
         d="M 0,1.2207e-4 H 720 V 540.00012 H 0 Z"
         clip-rule="evenodd"
         id="path2" />
    </clipPath>
    <clipPath
       id="pano-nuevoz">
      <path
         d="M 84,102 H 216 V 282 H 84 Z"
         clip-rule="evenodd"
         id="path5" />
    </clipPath>
    <clipPath
       id="pano-nuevoy">
      <path
         d="M 0,0 H 216.78 V 233.93 H 0 Z"
         id="path8" />
    </clipPath>
    <clipPath
       id="pano-nuevox">
      <path
         d="M -6.1035e-5,540 H 719.99994 V 0 H -6.1035e-5"
         clip-rule="evenodd"
         id="path11" />
    </clipPath>
    <clipPath
       id="pano-nuevow">
      <path
         d="M -6.1035e-5,540 H 719.99994 V 0 H -6.1035e-5"
         clip-rule="evenodd"
         id="path14" />
    </clipPath>
    <clipPath
       id="pano-nuevov">
      <path
         d="M 1.0729e-5,0 H 720.00001 V 540 H 1.0729e-5 Z"
         clip-rule="evenodd"
         id="path17" />
    </clipPath>
    <clipPath
       id="pano-nuevou">
      <path
         d="M 1.0729e-5,0 H 720.00001 V 540 H 1.0729e-5 Z"
         clip-rule="evenodd"
         id="path20" />
    </clipPath>
    <clipPath
       id="pano-nuevot">
      <path
         d="M 1.0729e-5,0 H 720.00001 V 540 H 1.0729e-5 Z"
         clip-rule="evenodd"
         id="path23" />
    </clipPath>
    <clipPath
       id="pano-nuevos">
      <path
         d="M 0,540 H 720 V 0 H 0"
         clip-rule="evenodd"
         id="path26" />
    </clipPath>
    <clipPath
       id="pano-nuevor">
      <path
         d="M 1.0729e-5,0 H 720.00001 V 540 H 1.0729e-5 Z"
         clip-rule="evenodd"
         id="path29" />
    </clipPath>
    <clipPath
       id="pano-nuevoq">
      <path
         d="M 1.0729e-5,0 H 720.00001 V 540 H 1.0729e-5 Z"
         clip-rule="evenodd"
         id="path32" />
    </clipPath>
    <clipPath
       id="pano-nuevop">
      <path
         d="M 1.0729e-5,0 H 720.00001 V 540 H 1.0729e-5 Z"
         clip-rule="evenodd"
         id="path35" />
    </clipPath>
    <clipPath
       id="pano-nuevoo">
      <path
         d="M 1.0729e-5,0 H 720.00001 V 540 H 1.0729e-5 Z"
         clip-rule="evenodd"
         id="path38" />
    </clipPath>
    <clipPath
       id="pano-nuevon">
      <path
         d="M 1.0729e-5,0 H 720.00001 V 540 H 1.0729e-5 Z"
         clip-rule="evenodd"
         id="path41" />
    </clipPath>
    <clipPath
       id="pano-nuevom">
      <path
         d="M 1.0729e-5,0 H 720.00001 V 540 H 1.0729e-5 Z"
         clip-rule="evenodd"
         id="path44" />
    </clipPath>
    <clipPath
       id="pano-nuevol">
      <path
         d="M 1.0729e-5,0 H 720.00001 V 540 H 1.0729e-5 Z"
         clip-rule="evenodd"
         id="path47" />
    </clipPath>
    <clipPath
       id="pano-nuevok">
      <path
         d="M 1.0729e-5,0 H 720.00001 V 540 H 1.0729e-5 Z"
         clip-rule="evenodd"
         id="path50" />
    </clipPath>
    <clipPath
       id="pano-nuevoj">
      <path
         d="M 1.0729e-5,0 H 720.00001 V 540 H 1.0729e-5 Z"
         clip-rule="evenodd"
         id="path53" />
    </clipPath>
    <clipPath
       id="pano-nuevoi">
      <path
         d="M 1.0729e-5,0 H 720.00001 V 540 H 1.0729e-5 Z"
         clip-rule="evenodd"
         id="path56" />
    </clipPath>
    <clipPath
       id="pano-nuevoh">
      <path
         d="M 1.0729e-5,0 H 720.00001 V 540 H 1.0729e-5 Z"
         clip-rule="evenodd"
         id="path59" />
    </clipPath>
    <clipPath
       id="pano-nuevog">
      <path
         d="M 1.0729e-5,0 H 720.00001 V 540 H 1.0729e-5 Z"
         clip-rule="evenodd"
         id="path62" />
    </clipPath>
    <clipPath
       id="pano-nuevof">
      <path
         d="M 546,108 H 678 V 288 H 546 Z"
         clip-rule="evenodd"
         id="path65" />
    </clipPath>
    <clipPath
       id="pano-nuevoe">
      <path
         d="M 0,0 H 216.78 V 233.93 H 0 Z"
         id="path68" />
    </clipPath>
    <clipPath
       id="pano-nuevod">
      <path
         d="M 1.0729e-5,0 H 720.00001 V 540 H 1.0729e-5 Z"
         clip-rule="evenodd"
         id="path71" />
    </clipPath>
    <clipPath
       id="pano-nuevoc">
      <path
         d="M 1.0729e-5,0 H 720.00001 V 540 H 1.0729e-5 Z"
         clip-rule="evenodd"
         id="path74" />
    </clipPath>
    <clipPath
       id="pano-nuevob">
      <path
         d="M 1.0729e-5,0 H 720.00001 V 540 H 1.0729e-5 Z"
         clip-rule="evenodd"
         id="path77" />
    </clipPath>
    <clipPath
       id="pano-nuevoa">
      <path
         d="M 1.0729e-5,0 H 720.00001 V 540 H 1.0729e-5 Z"
         clip-rule="evenodd"
         id="path80" />
    </clipPath>
  </defs>
  <g
     transform="matrix(1.3333,0,0,-1.3333,0,719.98208)"
     id="g391">
    <g
       id="g89">
      <g
         clip-path="url(#pano-nuevoaa)"
         id="g87">
        <path
           d="M 0,6.1035e-5 H 720 V 540.00006 H 0 Z"
           fill-rule="evenodd"
           id="path85" />
      </g>
    </g>
    <g
       id="g692"
       inkscape:label="ap1"
       style="display:inline"
       class="fragment"
       data-fragment-index="1">
      <g
         id="g159">
        <g
           clip-path="url(#pano-nuevox)"
           id="g157">
          <path
             d="m 380.81,287.87 34.34,57.17 -7.15,-54.37 34.45,6.29 -15.67,-28.27 34.47,-11.14 -29.74,-21.81 29.68,-31.33 -37.79,6.51 6.38,-53.65 -30.09,39.85 -10.35,-53.66 -17.9,50.91 -21.63,-67.07 -1.43,61.72 -25.17,-18.59 10.14,37.18 -44.72,-3.25 30.89,26.61 -27.24,34.7 37.77,7.38 -29.81,57.19 52.29,-45.55 11.5,40.63 z"
             fill-rule="evenodd"
             id="path155" />
        </g>
      </g>
      <g
         id="g165">
        <g
           clip-path="url(#pano-nuevow)"
           id="g163">
          <path
             d="m 380.81,287.87 34.34,57.17 -7.15,-54.37 34.45,6.29 -15.67,-28.27 34.47,-11.14 -29.74,-21.81 29.68,-31.33 -37.79,6.51 6.38,-53.65 -30.09,39.85 -10.35,-53.66 -17.9,50.91 -21.63,-67.07 -1.43,61.72 -25.17,-18.59 10.14,37.18 -44.72,-3.25 30.89,26.61 -27.24,34.7 37.77,7.38 -29.81,57.19 52.29,-45.55 11.5,40.63 z"
             fill="none"
             stroke="#ff0000"
             stroke-miterlimit="10"
             stroke-width="2.25"
             id="path161" />
        </g>
      </g>
      <g
         id="g173">
        <g
           clip-path="url(#pano-nuevov)"
           id="g171">
          <text
             transform="matrix(1,0,0,-1,303.58,255.77)"
             fill="#ffff00"
             font-family="Calibri"
             font-size="36px"
             xml:space="preserve"
             id="text169"><tspan
               x="0 23.256001 40.212002 52.271999 71.171997 83.052002 100.296 108.576 126.144 139.82401"
               y="0"
               id="tspan167">Naturaleza</tspan></text>
        </g>
      </g>
      <g
         id="g181">
        <g
           clip-path="url(#pano-nuevou)"
           id="g179">
          <text
             transform="matrix(1,0,0,-1,294.94,212.57)"
             fill="#ffff00"
             font-family="Calibri"
             font-size="36.024px"
             xml:space="preserve"
             id="text177"><tspan
               x="0 17.867905 35.807858 50.757816 68.013313 96.796486 105.08201 123.99461 142.97926 157.06464"
               y="0"
               id="tspan175">Pecaminosa</tspan></text>
        </g>
      </g>
    </g>
    <g
       id="g189">
      <g
         clip-path="url(#pano-nuevot)"
         id="g187">
        <text
           transform="matrix(1,0,0,-1,11.928,474.58)"
           fill="#ffff00"
           font-family="Calibri"
           font-size="66px"
           xml:space="preserve"
           id="text185"><tspan
             x="0 27.719999 59.334 74.25 116.886 147.84 169.95 204.60001 226.314 257.92801 273.108 305.25 330.198 361.81201 376.728 409.53 442.39801 469.78799 501.40201 554.13599 569.31598 603.966 638.74799 664.55402"
             y="0"
             id="tspan183">La Naturaleza Pecaminosa</tspan></text>
      </g>
    </g>
    <path
       d="m 11.932,467.16 h 696 v -4.32 h -696 z"
       fill="#ffff00"
       fill-rule="evenodd"
       id="path191" />
    <g
       id="g197">
      <g
         clip-path="url(#pano-nuevos)"
         id="g195">
        <path
           d="M 690,450"
           fill="none"
           stroke="#ffffff"
           stroke-linejoin="round"
           stroke-miterlimit="10"
           stroke-width="0.75"
           id="path193" />
      </g>
    </g>
    <g
       id="g710"
       inkscape:label="ap2"
       class="fragment"
       data-fragment-index="2">
      <g
         id="g205">
        <g
           clip-path="url(#pano-nuevor)"
           id="g203">
          <text
             transform="matrix(1,0,0,-1,259.61,405.74)"
             fill="#ffff00"
             font-family="Calibri"
             font-size="36px"
             font-weight="bold"
             xml:space="preserve"
             id="text201"><tspan
               x="0 18.612 36.720001 51.624001 69.407997 88.739998 108.108 116.244 134.784 152.892 165.276 179.64 199.008 218.34 236.12399"
               y="0"
               id="tspan199">Pecado Personal</tspan></text>
        </g>
      </g>
      <g
         id="g213">
        <g
           clip-path="url(#pano-nuevoq)"
           id="g211">
          <text
             transform="matrix(1,0,0,-1,257.69,362.54)"
             fill="#ffff00"
             font-family="Calibri"
             font-size="36.024px"
             font-style="italic"
             xml:space="preserve"
             id="text209"><tspan
               x="0 16.282848 34.799183 52.919254 64.987297 73.27282 91.681084 110.19742 128.67773 136.81915 155.08331 164.73775 182.89384"
               y="0"
               id="tspan207">Santiago 1:14</tspan></text>
        </g>
      </g>
      <g
         id="g221">
        <g
           clip-path="url(#pano-nuevop)"
           id="g219">
          <text
             transform="matrix(1,0,0,-1,458.86,362.54)"
             fill="#ffff00"
             font-family="Calibri"
             font-size="36.024px"
             font-style="italic"
             xml:space="preserve"
             id="text217"><tspan
               x="0"
               y="0"
               id="tspan215">-</tspan></text>
        </g>
      </g>
      <g
         id="g229">
        <g
           clip-path="url(#pano-nuevoo)"
           id="g227">
          <text
             transform="matrix(1,0,0,-1,469.9,362.54)"
             fill="#ffff00"
             font-family="Calibri"
             font-size="36.024px"
             font-style="italic"
             xml:space="preserve"
             id="text225"><tspan
               x="0 18.239967"
               y="0"
               id="tspan223">15</tspan></text>
        </g>
      </g>
    </g>
    <g
       id="g720"
       inkscape:label="ap3"
       class="fragment"
       data-fragment-index="3">
      <g
         id="g237">
        <g
           clip-path="url(#pano-nuevon)"
           id="g235">
          <text
             transform="matrix(1,0,0,-1,305.11,94.56)"
             fill="#ffff00"
             font-family="Calibri"
             font-size="36px"
             font-weight="bold"
             xml:space="preserve"
             id="text233"><tspan
               x="0 19.152 31.572001 50.939999 70.272003 89.603996 104.652 119.7 128.556 147.924"
               y="0"
               id="tspan231">Produccion</tspan></text>
        </g>
      </g>
      <g
         id="g245">
        <g
           clip-path="url(#pano-nuevom)"
           id="g243">
          <text
             transform="matrix(1,0,0,-1,323.23,51.36)"
             fill="#ffff00"
             font-family="Calibri"
             font-size="36px"
             font-style="italic"
             xml:space="preserve"
             id="text241"><tspan
               x="0 22.716 41.220001 49.5 58.571999 66.708 84.959999 94.608002 112.86"
               y="0"
               id="tspan239">Gal. 5:19</tspan></text>
        </g>
      </g>
    </g>
    <g
       id="g762"
       inkscape:label="ap4"
       style="display:inline"
       class="fragment"
       data-fragment-index="4">
      <g
         id="g269">
        <g
           clip-path="url(#pano-nuevoj)"
           id="g267">
          <text
             transform="matrix(1,0,0,-1,678.96,315.43)"
             fill="#ffff00"
             font-family="Calibri"
             font-size="36.024px"
             font-style="italic"
             xml:space="preserve"
             id="text265"><tspan
               x="0"
               y="0"
               id="tspan263">-</tspan></text>
        </g>
      </g>
      <g
         id="g277">
        <g
           clip-path="url(#pano-nuevoi)"
           id="g275">
          <text
             transform="matrix(1,0,0,-1,690,315.43)"
             fill="#ffff00"
             font-family="Calibri"
             font-size="36.024px"
             font-style="italic"
             xml:space="preserve"
             id="text273"><tspan
               x="0"
               y="0"
               id="tspan271">8</tspan></text>
        </g>
      </g>
      <g
         id="g253">
        <g
           clip-path="url(#pano-nuevol)"
           id="g251">
          <text
             transform="matrix(1,0,0,-1,537.82,358.63)"
             fill="#ffff00"
             font-family="Calibri"
             font-size="36px"
             font-weight="bold"
             xml:space="preserve"
             id="text249"><tspan
               x="0 15.228 33.335999 49.860001 67.643997 76.5 85.356003 99.720001 129.06"
               y="0"
               id="tspan247">Legalismo</tspan></text>
        </g>
      </g>
      <g
         id="g261">
        <g
           clip-path="url(#pano-nuevok)"
           id="g259">
          <text
             transform="matrix(1,0,0,-1,515.86,315.43)"
             fill="#ffff00"
             font-family="Calibri"
             font-size="36.024px"
             font-style="italic"
             xml:space="preserve"
             id="text257"><tspan
               x="0 30.80052 49.316856 61.673088 76.442924 94.923241 108.93658 117.078 135.34216 144.85251"
               y="0"
               id="tspan255">Marcos 7:6</tspan></text>
        </g>
      </g>
      <g
         id="g357"
         transform="matrix(0.77825049,0,0,0.77825049,135.75121,-60.906468)">
        <g
           clip-path="url(#pano-nuevof)"
           id="g355">
          <g
             transform="matrix(1.8333,-9.4e-8,-7.54e-7,2.5,546,108)"
             id="g353">
            <g
               transform="scale(0.33214,0.30779)"
               id="g351">
              <g
                 clip-path="url(#pano-nuevoe)"
                 id="g349">
                <g
                   id="g347">
                  <g
                     id="g295" />
                  <path
                     d="m 139.81,233.12 7.7,-0.5 7.5,-0.5 7.5,-0.6 7.5,-0.8 7.3,-1.01 7.3,-1.3 7.1,-1.61 6.9,-2.11 6.7,-2.61 6.4,-3.11 1.4,-1 0.7,-0.6 0.6,-0.61 0.7,-0.6 0.5,-0.6 0.5,-0.7 0.4,-0.71 0.2,-0.7 0.1,-0.8 -2.9,-4.52 -3.4,-3.91 -3.7,-3.42 -4,-3.01 -4.2,-2.71 -4.3,-2.61 -4.4,-2.61 -4.3,-2.71 -4.1,-3.01 -3.9,-3.31 -0.9,-1.11 -0.6,-1.1 -0.5,-1.2 -0.3,-1.31 -0.1,-1.3 -0.1,-1.31 0.1,-1.3 0.2,-1.41 0.2,-1.3 0.2,-1.31 1.8,-5.02 1,-2.41 1,-2.51 1,-2.4 1.1,-2.41 1,-2.51 1.2,-2.31 1.1,-2.41 1.3,-2.41 0.8,-6.93 -0.7,-6.42 -2.1,-6.12 -3.3,-5.62 -4.2,-5.22 -4.8,-4.92 -5.3,-4.52 -5.4,-4.213 -5.5,-3.814 -5.2,-3.614 -2.8,-1.305 -2.8,-1.405 -2.9,-1.405 -2.8,-1.506 -2.8,-1.405 -2.7,-1.506 -2.8,-1.405 -2.9,-1.506 -2.8,-1.304 -2.8,-1.406 -2.1,-1.204 -2,-1.405 -1.7,-1.606 -1.5,-1.807 -1.4,-1.907 -1.1,-2.008 -1,-2.108 -0.9,-2.208 -0.7,-2.108 -0.5,-2.208 -0.3,-0.401 -0.3,-0.402 -0.2,-0.401 -0.2,-0.502 -0.1,-0.502 -0.1,-0.402 v -0.502 l 0.1,-0.501 0.1,-0.502 0.1,-0.402 1.5,-2.007 1.7,-1.606 2,-1.305 2.1,-1.205 2.1,-1.003 2.1,-1.104 2,-1.305 1.9,-1.406 1.6,-1.907 1.2,-2.208 0.1,-1.506 v -1.304 l -0.2,-1.406 -0.4,-1.305 -0.5,-1.204 -0.6,-1.104 -0.8,-1.104 -0.9,-0.904 -1.1,-0.903 -1.2,-0.703 -0.7,-0.401 -0.7,-0.402 -0.7,-0.301 -0.8,-0.301 -0.7,-0.401 -0.7,-0.402 -0.5,-0.502 -0.4,-0.702 -0.3,-0.803 0.1,-0.904 0.6,-0.2 0.7,-0.302 0.6,-0.401 1.4,-0.602 0.6,-0.201 0.7,-0.1 0.7,0.1 0.6,0.301 0.7,0.502 1.8,0.903 1.9,0.904 1.9,0.903 1.9,0.803 2,0.803 1.9,0.803 2,0.703 4,1.204 2,0.502 0.2,-0.1 h 0.2 l 0.2,-0.101 0.1,-0.2 0.1,-0.101 0.2,-0.1 0.1,-0.201 0.2,-0.1 0.1,-0.201 0.1,-0.1 -0.2,-0.502 -0.3,-0.502 -0.2,-0.402 -0.4,-0.502 -0.3,-0.401 -0.4,-0.502 -0.4,-0.401 -0.4,-0.302 -0.5,-0.401 -0.4,-0.301 1.1,0.1 2.4,0.402 1.2,0.301 1.2,0.201 3.6,0.903 1.2,0.201 1.2,0.301 2.6,0.602 7.8,1.506 2.7,0.502 2.6,0.401 2.7,0.402 2.6,0.401 2.7,0.301 2.7,0.402 0.9,-0.904 -1.5,-1.505 -5.8,-1.907 -5.7,-1.908 -5.7,-2.107 -5.7,-2.108 -5.6,-2.309 -5.5,-2.409 -5.5,-2.61 -5.4,-2.71 -5.3,-3.011 -5.2,-3.3123 -0.1,-0.5019 V 3.8689 l -0.2,-0.5018 -0.4,-1.0038 -0.2,-0.4015 -0.3,-0.4015 -0.8,-0.80298 -0.4,-0.4015 h -2.4 l -0.7,0.10037 h -0.8 l -0.7,0.10037 -0.7,0.20076 -0.7,0.30108 -0.6,0.3012 -0.6,0.5018 -0.6,1.5057 -6,3.0112 -3,1.4052 -3.104,1.3049 -3,1.3046 -6.2,2.61 -3.1,1.204 -3.101,1.205 -3.1,1.204 -1.2,0.302 -1.3,0.401 -1.2,0.402 -1.2,0.301 -1.3,0.401 -1.2,0.402 -2.6,0.602 -1.2,0.301 -1.301,0.201 -0.2,0.1 -0.1,0.101 -0.1,0.2 -0.1,0.101 -0.1,0.1 v 0.201 l -0.1,0.201 v 0.301 l 0.1,0.2 0.6,0.603 2.901,0.401 2.8,0.201 h 2.9 l 2.9,-0.1 2.8,-0.302 2.801,-0.401 2.8,-0.402 2.8,-0.501 5.4,-1.004 0.3,0.301 -1.3,1.004 -1.3,1.003 -1.4,0.904 -1.3,0.903 -1.4,1.004 -1.3,1.004 -1.2,1.003 -1.2,1.205 -1,1.305 -0.9,1.505 v 0.502 l 0.1,0.201 v 0.1 l 0.1,0.201 0.1,0.1 0.1,0.201 0.1,0.101 0.1,0.1 2,-0.402 2,-0.602 1.9,-0.702 1.8,-0.803 1.9,-0.904 1.8,-0.803 1.8,-0.903 1.904,-0.803 1.9,-0.703 1.9,-0.602 0.3,0.301 -0.6,0.602 -0.2,0.302 -0.2,0.301 -0.2,0.401 -0.2,0.301 -0.1,0.402 -0.1,0.401 v 0.402 l 0.1,0.502 1.2,0.702 1.2,0.101 1.2,-0.201 1.1,-0.402 1.2,-0.401 1.1,-0.402 h 1.1 l 1,0.302 0.9,1.003 0.8,1.707 0.5,0.2 0.6,0.301 0.7,0.201 0.6,0.201 0.6,0.301 0.5,0.301 0.5,0.402 0.5,0.502 0.3,0.501 0.3,0.703 -0.1,0.602 -0.1,0.703 -0.6,1.204 -0.5,0.502 -0.4,0.502 -0.6,0.502 -0.5,0.402 -0.6,0.401 -0.5,0.301 -4.1,2.409 -4.7,2.108 -5,2.008 -5.004,2.007 -4.9,2.208 -4.3,2.71 -3.501,3.212 -2.5,4.015 -1,5.019 0.5,6.123 1.2,2.71 1.5,2.509 1.801,2.409 1.9,2.409 2.1,2.309 2.1,2.208 2.2,2.309 4.4,4.416 2.004,2.208 -0.104,0.101 -0.1,0.1 -0.1,0.101 v 0.903 l 0.804,0.201 0.6,0.401 0.6,0.502 0.4,0.602 0.4,0.603 0.3,0.805 0.3,0.7 0.2,0.8 0.3,0.71 0.3,0.7 1.1,3.81 0.5,3.92 v 3.71 l -0.4,3.71 -0.9,3.72 -1.1,3.51 -1.3,3.52 -1.4,3.51 -1.604,3.31 -1.5,3.31 -5,8.23 -5.9,6.93 -6.501,5.92 -7.2,5.12 -7.601,4.32 -7.9,3.81 -8.101,3.51 -8.2,3.22 -8.101,3.21 -8,3.21 -3.301,1.71 -3.5,1.9 -3.4,2.31 -3.2,2.41 -3.1005,2.81 -2.6001,3.01 -2.2002,3.32 -1.7001,3.51 -1,3.81 -0.20001,4.12 3.5003,2.21 3.7002,1.8 3.8005,1.61 4,1.4 3.9,1.21 4.101,1.1 4.1,0.91 4.1,0.8 4.2,0.8 4.101,0.8 35.102,3.92 21.801,1.51 42.904,-0.31 z"
                     id="path297" />
                  <path
                     d="m 142.21,230.72 7.6,-0.61 15,-1.2 7.4,-0.91 7.4,-1 7.2,-1.4 7,-1.81 6.8,-2.31 6.6,-2.91 6.3,-3.51 0.1,-0.1 0.1,-0.2 0.1,-0.21 0.1,-0.1 0.2,-0.4 0.1,-0.1 v -0.4 l -0.1,-0.3 -1,-1.2 -0.6,-0.51 -0.7,-0.5 -0.6,-0.4 -0.7,-0.4 -0.7,-0.3 -0.8,-0.4 -0.7,-0.2 -0.8,-0.31 -18.5,-3.01 -44.4,-2.41 -52.104,-1.2 -46.103,1.81 -1.8,0.2 -3.4,0.6 -1.7,0.4 -1.701,0.4 -1.7,0.5 -1.6,0.51 -1.7,0.5 -1.6,0.6 -1.6,0.5 -0.2,0.5 v 0.41 l 0.1,0.4 0.6,0.6 1.2,0.9 0.4,0.2 0.3,0.3 11.901,3.52 12.401,2.91 12.7,2.31 13.001,1.7 13.201,1.01 13.204,0.6 13.4,-0.1 13.2,-0.5 13.2,-1.11 12.9,-1.6 h 0.1 v -0.1 h 0.1 v -0.1 h 0.1 v -0.1 h 0.3 l -0.7,-0.61 -0.9,-0.5 -0.8,-0.3 -1,-0.4 -0.9,-0.2 -1,-0.3 -2,-0.4 -1,-0.31 -1,-0.3 -7.7,-1.2 -7.9,-0.9 -8.1,-0.71 -8.2,-0.4 -8.3,-0.2 h -8.3 l -8.304,0.2 -8.3,0.4 -8.101,0.4 -8,0.61 -0.1,-0.1 -0.1,-0.2 -0.1,-0.1 -0.2,-0.11 -0.4,-0.4 v -0.4 l 0.1,-0.2 0.8,-0.9 20.101,-1.51 h 35.404 l 3.8,0.7 4,0.41 12,0.9 4,0.5 3.8,0.8 3.7,1.11 3.4,1.6 3.3,2.11 v 0.6 l -0.1,0.51 -0.2,0.4 -0.8,0.8 -0.4,0.3 -0.5,0.2 -0.4,0.3 -0.5,0.31 -0.4,0.2 -1.6,0.5 -1.6,0.4 -1.7,0.2 -1.8,0.2 -1.8,0.1 -1.7,0.1 h -1.8 l -1.8,0.1 h -1.8 l -1.8,0.2 -6.9,0.6 -7,0.41 -7.1,0.4 -7.1,0.2 -7.2,0.1 h -7.1 l -7.104,-0.3 -7.1,-0.5 -6.901,-0.61 -6.9,-0.9 -35.303,-7.53 -1.3,-0.6 -1.4,-0.5 -1.5,-0.4 -1.5,-0.51 -1.4,-0.6 -1.3,-0.7 -1.2,-0.8 -1,-1.11 -0.7,-1.3 -0.4,-1.61 1.6,-1.6 0.9,-0.61 1.8,-1.2 1,-0.4 0.9,-0.4 1,-0.3 1.1,-0.31 1,-0.3 21.002,-2.11 40.102,-1.2 31.704,0.3 34.8,1.21 4.7,0.5 4.8,0.3 4.7,0.3 14.1,1.2 4.7,0.61 4.5,0.8 4.5,0.9 4.4,1.11 -1.7,-2.11 -2,-1.91 -2.1,-1.7 -2.1,-1.41 -2.2,-1.4 -2.3,-1.31 -2.2,-1.2 -2.3,-1.31 -2.2,-1.4 -2.1,-1.61 -1.6,-0.6 -1.5,-0.7 -1.6,-0.61 -1.7,-0.5 -1.6,-0.5 -1.6,-0.4 -1.7,-0.4 -1.7,-0.3 -1.8,-0.21 -1.7,-0.2 -38.1,-4.01 -0.2,-0.1 -0.1,-0.1 v -0.1 l -0.1,-0.1 -0.1,-0.2 -0.1,-0.1 v -0.51 l 1,-0.8 4.3,0.1 4.2,0.2 8.4,0.6 4.2,0.41 4.2,0.5 4.1,0.4 4.2,0.5 4.1,0.4 4.2,0.5 4.2,1.21 -1.2,-0.8 -1.2,-0.91 -2.2,-2 -0.9,-1.11 -0.8,-1.2 -0.7,-1.31 -0.6,-1.3 -0.3,-1.41 -0.2,-1.4 0.3,-2.41 0.5,-2.41 0.5,-2.31 0.6,-2.31 1.4,-4.42 0.9,-2.2 0.8,-2.21 0.9,-2.11 1,-2.21 -2.7,-1.3 -2.9,-1.11 -2.9,-0.9 -3,-0.8 -3.1,-0.5 -3.2,-0.51 -6.4,-0.8 -3.2,-0.3 -3.2,-0.4 -0.9,-1.21 1.5,-1.2 2.8,0.3 2.7,0.2 5.4,0.6 2.7,0.4 2.7,0.41 2.7,0.5 2.6,0.5 2.6,0.6 2.5,0.7 4.5,2.41 0.7,-1.6 0.7,-1.71 0.8,-1.61 0.8,-1.7 0.7,-1.61 0.5,-1.7 0.4,-1.81 0.1,-1.81 -0.2,-1.9 -0.6,-2.01 -1.1,-3.31 -1.4,-3.22 -1.7,-3.11 -1.9,-3.01 -2.2,-2.91 -2.4,-2.81 -2.5,-2.61 -2.7,-2.61 -2.8,-2.41 -2.9,-2.21 -2.8,-1.1 -2.9,-0.8 -2.9,-0.61 -3,-0.6 -6,-1 -2.9,-0.605 -3,-0.803 -2.8,-0.903 -2.7,-1.104 -0.1,-0.101 -0.1,-0.1 -0.2,-0.1 -0.1,-0.201 -0.1,-0.1 -0.1,-0.101 -0.1,-0.1 -0.1,-0.101 v -0.2 l -0.1,-0.101 1,-0.903 2.1,0.703 2.3,0.702 2.2,0.502 2.3,0.402 2.3,0.401 2.4,0.301 2.3,0.402 2.3,0.401 2.3,0.402 2.2,0.602 -3.5,-2.409 -7.4,-4.216 -3.8,-1.907 -3.7,-1.807 -3.8,-1.907 -3.8,-1.806 -3.8,-1.908 -3.7,-2.007 -3.6,-2.208 -2,-1.205 -1.7,-1.405 -1.6,-1.606 -1.3,-1.706 -1.2,-1.807 -1,-1.907 -0.9,-2.008 -0.8,-2.007 -0.7,-2.008 -0.5,-2.007 -0.3,-0.703 -0.4,-0.602 -0.3,-0.602 -0.4,-0.603 -0.3,-0.702 -0.3,-0.602 -0.2,-1.406 0.1,-0.702 0.3,-0.703 1.2,-2.308 1.6,-1.807 1.8,-1.506 2.1,-1.204 2.1,-1.104 2.2,-1.105 2.1,-1.204 2.1,-1.305 1.8,-1.606 1.6,-1.907 0.1,-0.803 v -0.803 l -0.1,-0.703 -0.1,-0.702 -0.3,-0.703 -0.3,-0.602 -0.3,-0.703 -0.3,-0.602 -0.3,-0.703 -0.2,-0.602 -0.8,-0.703 -0.9,-0.501 -0.8,-0.502 -0.9,-0.602 -0.9,-0.402 -0.8,-0.602 -0.9,-0.502 -0.8,-0.602 -0.8,-0.603 -0.8,-0.702 -0.1,0.1 -0.1,0.101 -0.2,0.2 -0.1,0.101 -0.1,0.1 v 0.201 l -0.1,0.1 v 0.101 l 0.1,0.2 0.8,0.502 0.9,0.502 0.8,0.402 0.9,0.501 0.8,0.603 0.8,0.502 0.8,0.702 0.7,0.602 0.7,0.803 0.6,0.904 0.1,1.405 -0.3,1.204 -0.5,1.205 -0.7,1.004 -0.9,1.003 -1,0.904 -1,0.803 -1.1,0.702 -1.1,0.703 -1,0.703 -2.9,1.706 -2.9,1.405 -3.1,1.305 -3.1,1.104 -3.104,1.104 -3.1,1.205 -3,1.305 -2.9,1.706 -2.7,2.008 -2.601,2.409 -0.3,1.003 -0.8,2.008 -0.3,1.004 -0.3,1.104 -0.3,1.003 -0.1,1.105 v 1.104 l 0.1,1.104 0.3,1.204 1.2,-1.104 1.401,-0.702 1.5,-0.502 1.7,-0.201 1.7,-0.1 h 1.7 l 1.7,0.2 3.4,0.402 1.5,0.201 0.1,0.1 0.2,0.1 0.1,0.101 0.1,0.1 v 0.201 l 0.1,0.1 v 0.703 l -0.6,0.602 -1.6,0.1 h -1.6 l -1.6,-0.1 h -1.5 l -1.5,-0.1 -3,0.2 -1.4,0.302 -1.4,0.401 -1.401,0.703 v 0.702 l 0.1,0.703 0.1,0.602 0.3,0.602 0.4,0.603 0.401,0.702 0.4,0.602 0.4,0.603 0.6,1.204 15.604,16.261 3,-0.602 2.9,-0.301 h 2.9 l 2.8,0.2 2.9,0.402 2.8,0.502 2.8,0.602 2.8,0.702 2.8,0.603 2.7,0.602 0.2,0.1 0.1,0.101 0.2,0.2 0.1,0.101 v 0.1 l 0.1,0.101 v 0.301 l -0.1,0.2 -0.8,0.904 -2.6,-0.502 -2.6,-0.602 -2.6,-0.502 -2.7,-0.502 -2.7,-0.402 -2.7,-0.401 -2.7,-0.1 h -2.7 l -2.7,0.2 -2.7,0.402 1.4,2.81 1.1,2.915 0.9,3.21 0.6,3.21 0.3,3.31 0.1,3.31 -0.3,3.32 -0.7,3.21 -0.9,3.11 -1.3,2.81 1.4,-1 1.4,-0.81 1.6,-0.7 1.6,-0.5 1.6,-0.4 1.7,-0.3 3.4,-0.4 1.8,-0.2 1.7,-0.11 1.6,-0.1 h 3.3 l 1.5,0.1 1.6,0.21 3,0.4 3,0.6 1.5,0.2 0.7,0.7 0.2,0.1 0.1,0.2 v 0.51 l -1,0.9 -3,-0.5 -3.2,-0.4 -3.1,-0.21 -3.2,-0.1 -3.2,0.1 -3.1,0.31 -3,0.4 -3,0.7 -2.9,1 -2.8,1.11 -0.2,0.2 -0.3,0.2 -0.2,0.3 -0.4,0.4 -0.2,0.3 -0.2,0.1 -0.3,0.1 h -0.3 l -0.3,-0.1 -1.5,3.62 -1.8,3.61 -2.004,3.41 -2.2,3.42 -2.5,3.31 -2.6,3.11 -2.7,3.11 -2.9,3.01 -3.001,2.91 -3,2.71 -9.9,6.33 4.3,-0.6 4.6,-0.51 4.7,-0.3 4.901,-0.2 h 4.9 l 5,0.2 4.904,0.3 4.8,0.51 4.7,0.7 4.5,0.8 0.5,0.5 0.2,0.1 0.1,0.2 v 0.1 l 0.1,0.1 v 0.21 l -0.9,0.9 -7,-0.7 -7.1,-0.61 -7.304,-0.4 -7.3,-0.2 -7.201,0.3 -7.2,0.6 -7.001,1.11 -6.7,1.71 -6.401,2.3 -6,3.12 -4.2,1.7 -4.2,1.61 -4.201,1.7 -4.2,1.71 -4.1,1.81 -4.001,2 -4,2.21 -3.8,2.51 -3.7,2.81 -3.4005,3.21 -0.7,1.31 -0.7001,1.3 -0.6,1.31 -0.6001,1.3 -0.6,1.31 -0.4,1.3 -0.5001,1.41 -0.3,1.4 -0.3,1.41 -0.1,1.51 8.4008,3.41 8.7,2.91 8.801,2.31 9.1,1.9 9.301,1.51 9.301,1.2 9.5,0.91 9.601,0.7 9.601,0.6 9.6,0.51 1.5,0.3 z"
                     fill="#b3a29d"
                     id="path299" />
                  <path
                     d="m 156.91,70.216 -0.4,-1.405 -0.6,-1.204 -0.7,-1.205 -0.8,-1.104 -1,-1.104 -1,-1.004 -1.1,-1.004 -1,-1.104 -1.1,-1.003 -1,-1.004 -1,-0.904 -4,-3.212 -1.1,-0.803 -1,-0.702 -1.1,-0.602 -1.1,-0.603 -1.2,-0.401 v -0.502 l -0.1,-0.201 -0.1,-0.2 -0.3,-0.603 -0.1,-0.2 -0.2,-0.402 -0.5,-0.1 h -0.3 l -0.3,0.2 -0.1,0.201 -0.2,0.602 -0.2,0.302 -0.2,0.301 -0.2,0.2 -0.4,0.101 1.3,1.204 1,1.506 0.9,1.505 0.9,1.606 0.7,1.707 0.8,1.606 1,1.606 1.1,1.606 1.3,1.405 1.7,1.205 0.9,0.501 0.9,0.603 0.9,0.602 0.9,0.502 0.9,0.602 0.9,0.502 1,0.502 0.9,0.401 1,0.402 1,0.201 h 0.3 l 0.2,-0.101 0.3,-0.1 0.2,-0.101 0.3,-0.1 0.2,-0.1 0.3,-0.101 0.2,-0.2 0.2,-0.101 0.2,-0.301 z"
                     id="path301" />
                  <path
                     d="m 181.71,67.807 -0.3,-1.204 -0.6,-1.004 -0.8,-0.903 -0.8,-0.703 -1,-0.702 -1,-0.703 -1,-0.602 -1,-0.703 -0.9,-0.602 -0.9,-0.803 -1.6,-1.004 -1.7,-1.004 -1.6,-1.003 -1.6,-1.004 -1.7,-1.004 -1.6,-1.104 -1.5,-1.104 -1.5,-1.305 -1.4,-1.305 -1.4,-1.505 -0.1,-0.101 h -0.2 l -0.1,0.101 h -0.1 l -0.1,0.1 -0.2,0.1 -0.1,0.101 -0.2,0.2 -0.1,0.101 v 2.71 l 1.9,2.409 2.1,2.308 2.1,2.309 2.3,2.108 2.4,1.907 2.4,1.706 2.6,1.506 2.8,1.104 2.8,0.904 2.9,0.602 0.9,-1.004 z"
                     id="path303" />
                  <path
                     d="m 140.41,56.064 0.4,1.003 0.4,1.004 0.5,1.004 0.7,1.004 0.7,1.003 0.8,1.004 0.8,0.903 0.9,0.904 1,0.702 1,0.703 5.7,3.011 -0.9,-1.305 -1,-1.304 -1.2,-1.305 -1.2,-1.406 -1.4,-1.304 -1.4,-1.205 -1.4,-1.305 -1.5,-1.104 -1.4,-1.104 z"
                     fill="#705f51"
                     id="path305" />
                  <path
                     d="m 164.71,57.569 1.1,0.904 1.1,1.003 1.2,0.904 1.1,0.803 2.4,1.606 1.2,0.702 1.3,0.603 1.3,0.501 1.3,0.502 -12,-7.628 z"
                     fill="#705f51"
                     id="path307" />
                  <path
                     d="m 202.41,56.967 0.1,-0.502 -0.1,-0.502 -0.1,-0.401 -0.3,-0.402 -0.3,-0.301 -1.2,-0.903 -0.4,-0.201 -0.4,-0.1 -2.5,-0.703 -2.5,-0.803 -2.6,-0.803 -5,-1.606 -2.5,-0.703 -2.5,-0.803 -2.6,-0.702 -2.6,-0.602 -2.6,-0.502 h -0.1 l -0.1,0.1 v 0.1 l -0.1,0.101 v 0.602 l 0.8,0.402 0.4,0.1 0.4,0.201 0.5,0.1 0.4,0.1 0.4,0.101 0.5,0.1 0.8,0.402 0.3,0.2 0.5,0.302 0.4,0.1 0.4,0.201 0.5,0.1 0.8,0.402 0.3,0.301 0.2,0.301 0.2,0.502 0.6,0.602 0.3,-0.301 1.5,1.405 1.6,1.204 1.8,1.004 1.8,0.703 1.9,0.602 1.9,0.502 6,0.903 2.1,0.201 1.2,-1.204 z"
                     id="path309" />
                  <path
                     d="m 188.01,52.751 1,0.402 1,0.301 0.9,0.301 1,0.401 1,0.201 1,0.301 3,0.603 1,0.2 -9.8,-2.71 z"
                     fill="#705f51"
                     id="path311" />
                  <path
                     d="m 78.405,46.428 0.1,-0.301 0.1,-0.302 0.1,-0.301 v -0.301 l 0.1,-0.301 -0.1,-0.401 v -0.302 l -0.2,-0.602 -0.1,-0.201 h -0.4 l -0.4,0.201 -0.2,0.201 -0.4,0.602 -0.1,0.402 -0.2,0.301 -0.2,0.401 -0.2,0.301 -0.3,0.302 -2.2,-0.101 -2.3,0.201 -2.201,0.301 -2.1,0.402 -2.2,0.501 -2.1,0.603 -2.1,0.702 -2.1,0.603 -2.1,0.702 -2.1,0.602 -0.2,0.201 -0.2,0.301 -0.201,0.201 -0.3,0.903 v 0.302 l -0.1,0.401 0.1,0.301 v 0.402 l 0.901,0.501 0.9,0.402 1,0.201 2.2,0.2 1.1,-0.1 1.2,-0.1 1.1,-0.101 1,-0.1 h 1.1 l 1.6,-0.402 1.6,-0.401 1.6,-0.502 1.501,-0.702 1.5,-0.703 1.4,-0.903 1.4,-1.004 2.6,-2.208 z"
                     id="path313" />
                  <path
                     d="m 73.605,48.234 -1.8,0.201 -1.8,0.402 -1.701,0.401 -1.8,0.502 -1.7,0.402 -1.8,0.501 -1.7,0.502 -1.8,0.502 -1.7,0.402 -1.8,0.401 1.9,-0.1 1.9,-0.101 1.9,-0.1 1.9,-0.201 1.8,-0.301 1.7,-0.401 1.8,-0.502 1.601,-0.703 1.6,-0.803 z"
                     fill="#705f51"
                     id="path315" />
                  <path
                     d="m 72.705,34.383 0.3,-0.101 0.6,-0.2 0.3,-0.201 0.3,-0.101 0.2,-0.2 0.2,-0.201 0.3,-0.201 0.1,-0.301 0.2,-0.301 v -0.602 l -4.2,0.2 -2.101,0.101 h -2.2 l -2.1,0.1 -2.2,0.101 -2.1,0.2 -2.1,0.201 -2,0.402 -2,0.501 -0.501,0.302 -0.5,0.401 -0.4,0.301 -0.4,0.502 -0.3,0.402 -0.2,0.501 -0.2,0.603 v 1.204 l 0.1,0.602 0.7,0.803 0.9,0.603 1.001,0.301 1,0.201 h 1.1 l 1.1,-0.101 1.2,-0.1 1.1,-0.101 1.1,-0.1 h 1 l 1.2,-0.201 1.3,-0.301 1.2,-0.301 1.2,-0.401 1.1,-0.502 1.1,-0.603 1.101,-0.702 0.9,-0.803 0.9,-0.904 0.8,-1.003 z"
                     id="path317" />
                  <path
                     d="m 69.104,34.985 h -7.7 l -1.6,0.1 -1.6,0.301 -1.6,0.302 -1.4,0.602 -1.301,0.803 v 0.401 l 0.1,0.101 h 0.201 l 0.1,0.1 h 0.4 l 0.1,0.1 h 0.2 l 0.1,0.201 1.6,0.101 h 1.5 l 1.5,-0.101 1.4,-0.201 1.5,-0.2 1.3,-0.402 1.4,-0.502 1.3,-0.502 2.6,-1.204 z"
                     fill="#705f51"
                     id="path319" />
                  <path
                     d="m 107.71,22.137 0.3,0.1 0.4,0.402 0.1,0.201 0.1,0.2 0.1,0.302 v 1.104 l -2.4,3.011 0.7,-0.201 0.6,-0.1 0.6,-0.301 0.6,-0.201 0.6,-0.402 0.5,-0.401 0.4,-0.402 0.4,-0.602 0.2,-0.602 0.2,-0.703 0.4,-0.602 0.5,-0.401 0.5,-0.402 1,-0.602 0.5,-0.201 0.6,-0.301 0.5,-0.201 0.6,-0.301 0.5,-0.301 -0.1,-0.1 -0.2,-0.201 -0.1,-0.101 -0.2,-0.1 -0.1,-0.201 -0.2,-0.2 -0.1,-0.201 v -0.201 l 0.1,-0.201 0.9,-0.903 1.1,0.401 1.1,0.302 1.1,0.2 1,0.201 1.1,0.1 1,0.302 1,0.301 1,0.502 0.9,0.702 0.8,0.904 h 0.4 l 0.3,0.1 0.4,0.1 0.9,0.603 0.3,0.2 0.2,0.201 0.3,0.301 0.2,0.301 8.8,3.012 -8.2,-5.12 v -0.602 l 0.1,-0.201 0.1,-0.2 0.2,-0.201 0.1,-0.1 0.2,-0.201 0.1,-0.101 0.2,-0.2 3,0.702 3,0.703 3,0.803 3,0.703 3,0.702 3,0.703 3.1,0.702 3,0.703 3,0.602 3.1,0.603 1.8,0.301 -4.7,-1.606 -4.6,-1.807 -9.2,-3.814 -4.5,-2.209 -4.5,-2.208 -4.4,-2.409 -4.3,-2.609 -4.2,-2.7106 -4.2,-2.9109 -0.1,-0.1003 V 4.2704 L 118.31,4.17 V 4.0697 l 0.1,-0.2008 0.1,-0.1003 0.3,-0.3012 0.1,-0.1003 h 0.6 l -0.2,-0.4015 -0.2,-0.3012 -0.3,-0.2007 -0.3,-0.3011 -0.3,-0.1004 -0.4,-0.1004 h -0.3 l -0.4,0.1004 -0.3,0.2007 -0.3,0.2008 -1,1.0037 -1.1,0.9034 -1.2,0.9034 -1.1,0.803 -1.3,0.7026 -1.2,0.6022 -1.3,0.7026 -1.2,0.5019 -1.3,0.6023 -1.3,0.5018 -2.6,1.1044 -2.504,1.104 -2.6,1.104 -5,2.208 -5.2,2.008 -2.601,1.003 -2.6,0.904 -2.6,0.803 h 2.2 l 2.2,-0.201 2.201,-0.301 2.3,-0.402 2.3,-0.401 2.4,-0.402 2.3,-0.401 2.4,-0.402 2.3,-0.301 2.404,-0.2 0.1,0.1 0.1,0.201 0.2,0.1 0.1,0.1 0.2,0.201 0.1,0.101 0.1,0.1 0.1,0.201 v 0.2 l -0.1,0.201 -1.2,1.305 -1.3,1.205 -1.304,1.104 -1.3,1.003 -1.3,1.004 -1.4,1.004 -1.4,0.903 -1.3,1.004 -1.4,1.004 -1.3,1.004 7.2,-3.212 1.8,-0.703 1.804,-0.703 1.8,-0.702 1.9,-0.603 1.9,-0.501 1.9,-0.502 z"
                     fill="#705f51"
                     id="path321" />
                  <path
                     d="m 68.604,227 -5.1,0.1 -5.2,-0.1 -5.101,-0.3 -5.1,-0.6 -5.1,-0.81 -5.101,-0.9 -5.1,-1.1 -5.1,-1.21 -5.101,-1.1 -5.2,-1.31 -1.2,-0.2 -1.1,-0.4 -1.1,-0.5 -1,-0.5 -0.9,-0.7 -0.9,-0.61 -0.9,-0.8 -0.7004,-0.8 -0.8,-0.91 -0.6001,-1 -0.2,-0.3 -0.2,-0.5 -0.1,-0.5 -0.1,-0.51 v -1 l 0.1,-0.5 0.1,-0.4 0.2,-0.41 0.2,-0.3 4.0005,-4.21 4.4,-3.52 4.6,-3.11 4.801,-2.51 5.1,-2.2 5.2,-1.81 5.401,-1.61 5.5,-1.5 5.5,-1.31 5.501,-1.5 5.7,-1.31 5.601,-1 5.6,-0.7 5.7,-0.51 5.601,-0.2 5.7,-0.1 h 5.6 l 5.604,0.1 5.7,0.1 h 5.6 l -0.8,0.61 -0.8,0.5 -0.9,0.5 -1,0.5 -1.8,1 -0.9,0.61 -0.7,0.7 -0.6,0.8 -0.5,0.81 0.9,0.6 0.8,0.3 0.9,0.3 1.8,0.2 h 1.8 l 0.9,-0.1 h 0.9 l 0.8,-0.1 5.4,0.4 5.5,0.2 5.4,0.1 5.5,0.1 h 10.9 l 5.4,0.1 h 5.5 l 5.4,0.2 5.4,0.1 1.4,0.21 1.4,0.1 1.4,0.2 1.4,0.3 1.4,0.2 2.6,0.8 1.4,0.4 1.3,0.5 1.3,0.51 v 1.2 l -8.3,0.3 -8.2,0.2 -8.2,0.1 -8.3,0.1 -8.2,0.1 h -8.2 l -8.2,-0.1 -8.3,-0.1 -8.2,-0.2 -8.3,-0.4 -3.404,-0.2 -3.4,-0.1 -3.4,-0.2 -6.801,-0.2 h -10.2 l -3.4,-0.1 h -3.401 l 0.5,0.5 0.6,0.4 0.3,0.1 0.9,0.6 0.301,0.2 0.2,0.21 h -3.301 l -3.3,0.1 -3.3,0.3 -3.2,0.3 -3.301,0.5 -3.2,0.5 -3.3,0.7 -3.3,0.61 -3.3,0.7 -3.301,0.7 -0.8,0.3 -0.9,0.3 -0.8,0.31 -0.8,0.3 -0.9,0.3 -0.8,0.3 -0.9,0.4 -0.8,0.3 -0.8,0.4 -0.9,0.3 -1.1,0.71 -0.9,0.8 -0.7,0.9 -0.5,1.01 -0.3,1 -0.2,1.1 -0.1,1.21 0.1,1.1 0.2,1.11 0.3,1.1 0.5,1.01 0.6,0.9 0.7,0.8 0.9,0.6 1,0.61 2,1.2 1.1,0.7 1,0.71 1,0.7 0.9,0.5 0.8,0.3 0.9,0.3 0.9,0.2 1.001,0.2 1.8,0.2 1,0.11 1,0.1 0.9,0.1 2.2,0.4 8.4,1.2 2.101,0.3 2.1,0.4 2.1,0.31 2.2,0.3 2.1,0.3 z"
                     fill="#c3b5b0"
                     id="path323" />
                  <path
                     d="m 54.204,214.55 4.1,1.11 4.1,0.9 4.1,0.81 4.201,0.7 4.2,0.6 4.1,0.5 8.401,0.6 4.2,0.2 4.2,0.11 4.704,0.2 14.1,0.6 4.7,0.1 h 4.7 l 4.7,-0.3 4.8,-0.4 4.7,-0.71 4.8,-1.1 h 0.2 l 0.1,-0.1 v -0.2 l 0.1,-0.1 v -0.81 l -7.7,-0.3 -7.6,-0.1 h -7.7 l -15.2,0.2 -7.704,0.1 h -7.7 l -7.701,-0.2 -7.7,-0.5 -7.801,-0.8 h -0.6 l -1.4,-0.4 -0.7,-0.4 -0.6,-0.41 -0.5,-0.4 -0.3,-0.5 -0.1,-0.5 0.2,-0.5 0.4,-0.5 1.6,-0.91 1.7,-0.8 1.8,-0.6 1.901,-0.51 1.9,-0.4 1.9,-0.2 2,-0.2 3.8,-0.2 1.8,-0.2 7.001,-0.3 6.9,-0.2 6.904,-0.2 13.8,-0.2 13.8,0.2 6.9,0.2 7,0.2 6.9,0.3 3.3,0.3 3.2,0.2 9.9,0.6 3.3,0.21 3.3,0.3 3.3,0.2 3.3,0.3 3.2,0.3 1.3,0.1 1.4,0.1 h 5.5 l 1.4,-0.1 h 2.7 l 1.3,-0.1 0.2,1.51 -0.1,1.4 -0.4,1.2 -0.7,1.21 -0.8,1 -1,0.91 -1,0.9 -1.1,0.8 -1.2,0.81 -1.1,0.7 -2.4,1.3 -2.5,1.01 -2.5,0.8 -2.5,0.5 -2.6,0.4 -2.6,0.2 -2.6,0.1 -2.6,-0.1 h -2.7 l -2.6,-0.2 h 6.6 l 3.4,-0.2 3.3,-0.3 3.4,-0.4 3.3,-0.6 3.2,-0.81 3.2,-1.1 3.1,-1.3 2.9,-1.71 h -24.7 l -0.4,-0.1 -0.3,-0.1 -0.3,-0.2 -0.4,-0.4 -0.1,-0.2 v -0.41 l 0.2,-0.2 1,-0.6 1.1,-0.5 1.1,-0.4 1.1,-0.3 1.2,-0.2 1.1,-0.2 1.2,-0.21 1.2,-0.2 1.1,-0.2 1.1,-0.4 -5,-0.5 -5.1,-0.4 -5,-0.4 -5.1,-0.3 -5,-0.41 -10.2,-0.6 -10.2,-0.8 -5.2,-0.6 -1.1,-0.2 -1.1,-0.21 -1.1,-0.2 -1.2,-0.3 -1.1,-0.2 -1.1,-0.1 -1.2,-0.2 -1.1,-0.1 h -1.1 l -1.1,-0.1 -6.3,-0.2 -6.4,-0.2 -6.3,-0.2 h -6.304 l -6.3,-0.2 -6.401,-0.1 -6.3,-0.2 -6.401,-0.41 -6.4,-0.5 -6.5,-0.8 -1.1,-0.1 h -1.101 l -1.1,-0.1 h -1.1 l -1.2,-0.1 -1.1,0.1 h -1.2 l -1.1,0.1 h -1.1 l -1.1,0.1 -0.8,0.3 -0.8,0.4 -0.8,0.5 -0.6,0.71 -0.5,0.7 -0.4,0.8 -0.2,0.71 0.1,0.7 0.2,0.7 0.6,0.5 1.5,0.91 1.5,0.7 1.6,0.6 1.6,0.4 1.7,0.3 3.4,0.4 1.701,0.11 3.4,0.2 z"
                     fill="#c3b5b0"
                     id="path325" />
                  <path
                     d="m 91.006,164.77 2.4,-0.1 2.4,0.1 h 9.604 l 4.8,0.2 h 2.4 l 2.4,0.1 -0.9,0.1 h -2 l -0.9,-0.1 -0.9,-0.2 -1,-0.2 -0.9,-0.3 -0.9,-0.4 -0.8,-0.41 -0.9,-0.5 v -1.2 l 1.7,-0.2 1.7,-0.1 1.6,-0.1 1.7,-0.1 h 1.7 l 3.4,0.2 1.6,0.2 1.7,0.2 1.7,0.3 1.9,0.4 1.9,0.5 1.8,0.5 1.8,0.51 1.9,0.6 1.8,0.6 1.9,0.5 1.9,0.61 1.9,0.5 2,0.5 2.5,0.5 5,0.6 2.4,0.2 5,0.2 2.4,0.11 h 7.5 l -1.2,-0.21 -1.2,-0.4 -1.1,-0.5 -1.2,-0.5 -1.1,-0.5 -1.2,-0.4 -1.2,-0.41 -1.2,-0.4 -1.3,-0.2 -1.3,-0.1 v -0.8 h 1.2 l 1.2,-0.1 h 3.4 l 2.2,-0.2 1,-0.1 1.1,-0.3 1.1,-0.51 v -1.2 l -0.7,-0.4 -0.8,-0.4 -1,-0.3 -0.9,-0.31 -0.9,-0.3 -0.8,-0.3 -0.7,-0.3 -0.4,-0.5 -0.1,-0.5 0.3,-0.71 0.8,-0.7 0.9,-0.4 1,-0.3 1.1,-0.1 1.2,-0.1 1.1,0.1 h 1.2 l 2.4,-0.2 1.1,-0.3 v -0.81 l -2,-0.5 -4,-0.6 -2,-0.1 -6,-0.6 -2,-0.3 -2,-0.41 -2,-0.7 -0.5,-0.1 h -0.5 l -0.5,-0.1 -0.6,-0.1 h -2.1 l -0.5,-0.1 h -0.5 l -1.2,-0.2 -0.7,-0.1 -1.2,-0.4 -0.7,-0.1 -0.6,-0.3 -0.5,-0.2 -0.6,-0.31 -0.5,-0.4 -0.4,-0.2 -1,-0.2 -0.6,-0.1 -0.5,-0.2 -0.4,-0.1 -0.4,-0.2 -0.1,-0.2 v -0.3 l 0.2,-0.5 0.8,-1.01 1,-0.7 1.1,-0.4 1.2,-0.3 1.3,-0.2 1.3,-0.1 1.3,-0.21 1.3,-0.3 1.2,-0.5 1.1,-0.7 v -1.61 l -0.7,-0.3 -4.8,-1.8 -0.8,-0.41 -0.7,-0.5 -0.6,-0.6 v -1.2 l 2.3,-0.31 2.2,-0.2 2.3,-0.1 h 6.6 l 2.3,0.1 2.2,0.1 h 4.5 l 2.3,0.2 2.3,0.31 4.6,0.6 4.6,0.4 2.3,0.1 h 2.4 l 2.3,-0.3 2.4,-0.5 h 0.1 v -0.2 l -0.1,-0.2 v -0.21 l -0.4,-0.8 v -0.2 l -1.7,-0.8 -1.8,-0.7 -1.9,-0.51 -3.8,-1 -3.6,-1.2 -1.6,-0.91 -1.5,-1.1 -1.3,-1.41 -0.3,-0.5 v -0.5 l 0.2,-0.4 0.5,-0.4 0.5,-0.41 0.6,-0.3 0.7,-0.4 0.6,-0.4 0.5,-0.5 0.3,-0.6 v -1.61 l -1.3,-0.6 -1.4,-0.5 -1.5,-0.41 -1.4,-0.4 -1.4,-0.5 -1.3,-0.4 -1.3,-0.5 -1.2,-0.71 -1.1,-0.9 -0.9,-1 -0.3,-0.5 -0.2,-0.51 -0.1,-0.4 0.1,-0.4 0.1,-0.3 0.2,-0.4 0.2,-0.3 0.8,-0.6 0.4,-0.21 0.3,-0.3 0.1,-0.2 v -0.3 l -0.1,-0.2 v -0.5 l 0.1,-0.1 -2.6,-0.8 -1.4,-0.31 -1.3,-0.4 -1.3,-0.3 -2.6,-0.8 -1.4,-0.3 -1.3,-0.4 -1.3,-0.31 0.8,-0.4 h 1.2 l 0.4,-0.1 h 0.8 l 0.4,-0.2 0.4,-0.1 -4.4,-0.4 -4.5,-0.2 -4.4,-0.2 -4.5,-0.1 -4.4,-0.1 -4.4,-0.2 -4.5,-0.1 -4.4,-0.2 -4.5,-0.2 -4.4,-0.31 1.2,0.61 1.4,0.6 1.5,0.5 1.5,0.4 1.5,0.6 1.3,0.51 1.1,0.7 0.8,0.9 0.5,1.01 v 1.4 l -0.2,0.5 -0.4,0.4 -0.6,0.41 -0.6,0.3 -0.6,0.4 -1.2,0.6 -0.3,0.4 -0.2,0.4 0.1,0.51 0.4,0.7 0.6,0.5 0.7,0.3 0.8,0.3 0.9,0.1 0.8,0.2 0.9,0.2 0.9,0.21 0.8,0.3 0.8,0.4 -0.6,0.5 -0.6,0.3 -0.7,0.1 -0.6,0.1 -0.7,0.1 h -1.9 l -0.7,0.1 -0.6,0.1 2.4,-0.1 h 7.2 l 2.4,-0.1 2.4,0.1 h 2.4 l 4.8,0.2 2.4,0.2 0.6,0.2 0.7,0.11 0.6,0.1 0.7,0.2 0.6,0.1 0.7,0.2 0.6,0.1 0.7,0.2 1.2,0.4 0.4,0.2 0.4,0.1 0.5,0.1 0.4,0.2 1,0.4 0.5,0.3 0.4,0.31 0.8,0.8 v 1.6 l -1.9,1.01 -2,0.7 -2,0.5 -2.1,0.4 -2,0.21 -2.1,0.3 -2.1,0.2 -2.1,0.3 -2,0.3 -2.1,0.5 -0.4,0.2 -0.4,0.3 -0.2,0.3 -0.2,0.31 -0.1,0.4 v 0.9 l 0.1,0.5 0.2,0.4 0.2,0.3 0.6,0.51 0.7,0.3 1.4,0.4 0.8,0.2 0.7,0.1 0.8,0.2 0.7,0.2 0.8,0.2 0.7,0.3 v 1.21 l -2.4,1 -2.5,0.6 -2.5,0.51 -5,0.4 -5.2,0.4 -2.5,0.4 -2.6,0.4 -2.5,0.7 v 1.21 l 0.7,0.9 0.9,0.5 1,0.41 1,0.3 2.2,0.4 1,0.3 0.8,0.5 0.7,0.6 0.5,0.91 -0.8,0.5 -2.7,0.9 -2.7,0.6 -0.9,0.31 -0.8,0.2 -0.9,0.3 -0.8,0.2 -1.8,0.2 h -1.6 l -0.8,0.1 -0.8,0.2 -0.7,0.3 -0.6,0.4 -0.5,0.61 -0.1,0.4 v 0.2 l 0.2,0.3 0.3,0.2 0.4,0.1 0.4,0.2 0.5,0.2 0.4,0.3 0.4,0.2 0.3,0.3 v 1.21 l -0.5,0.5 -0.6,0.3 -0.7,0.3 -0.6,0.2 -0.7,0.2 -0.6,0.31 -0.6,0.3 -0.6,0.4 -0.4,0.5 -0.304,0.6 0.204,0.1 h 0.2 l 0.2,0.1 0.2,0.2 0.1,0.2 0.2,0.1 0.1,0.11 h 0.4 z"
                     fill="#c3b5b0"
                     id="path327" />
                  <path
                     d="m 111.01,88.485 -0.1,0.1 -0.2,0.1 h -0.4 l -0.4,-0.2 -0.1,-0.101 h -0.1 l 0.1,0.101 1.7,0.903 1.7,0.602 1.7,0.301 1.8,0.201 h 1.7 l 1.7,-0.1 1.8,-0.201 1.7,-0.1 1.7,-0.101 1.7,0.101 -1.1,-0.101 -1,-0.1 -1.1,-0.101 -1.1,-0.1 -1,-0.1 -1.1,-0.201 -1,-0.201 -1,-0.401 -1,-0.502 -1,-0.602 0.8,-0.101 h 0.8 l 0.8,-0.1 h 0.8 l 0.8,-0.101 0.8,-0.2 0.8,-0.101 0.8,-0.2 1.6,-0.402 -0.6,-0.502 -2.1,-0.903 -0.7,-0.101 -0.7,-0.2 -0.7,-0.201 -0.7,-0.1 -0.7,-0.201 -0.6,-0.201 -0.5,-0.301 -0.5,-0.1 -0.4,-0.201 -0.5,-0.101 -0.5,-0.1 -0.5,-0.201 -0.5,-0.1 -0.4,-0.201 -0.5,-0.1 -1,-0.402 -0.5,-0.1 -0.6,-0.201 -1,-0.602 -0.5,-0.402 -0.5,-0.401 -0.3,-0.502 -0.3,-0.602 -0.2,-0.602 h 0.2 l 0.2,0.1 0.2,-0.1 h 0.2 l 0.2,-0.101 0.2,-0.1 0.2,-0.101 0.2,-0.1 h 0.4 l -0.5,-0.602 -1.2,-1.004 -0.7,-0.401 -0.7,-0.302 -0.7,-0.301 -0.8,-0.301 -0.7,-0.301 -0.8,-0.201 -0.7,-0.2 -0.2,-0.201 -0.3,-0.1 -0.2,-0.101 -0.2,-0.201 -0.1,-0.1 -0.2,-0.201 -0.1,-0.1 v -0.402 l 0.1,-0.2 0.6,-0.502 0.7,-0.301 0.7,-0.201 1.6,-0.402 0.6,-0.301 0.4,-0.401 0.3,-0.502 -0.1,-0.602 -0.4,-0.803 -0.5,-0.502 -0.6,-0.502 -0.6,-0.402 -0.6,-0.501 -0.5,-0.402 -0.4,-0.502 -0.3,-0.602 -0.1,-0.502 0.1,-0.703 0.3,-0.602 0.1,-0.301 0.2,-0.201 0.1,-0.2 0.2,-0.201 0.2,-0.402 0.1,-0.301 v -0.502 l -0.1,-0.301 -0.3,-0.401 -0.3,-0.201 -0.3,-0.301 -0.3,-0.201 -0.4,-0.1 -0.3,-0.201 -0.4,-0.201 -0.3,-0.301 -0.3,-0.201 -0.3,-0.301 h 4.4 -1 l -1.1,0.201 -1.1,0.301 -1,0.402 -0.9,0.501 -0.804,0.502 -0.6,0.703 -0.3,0.803 v 0.803 l 0.4,1.004 0.604,0.803 0.7,0.803 0.8,0.702 1.6,1.606 0.7,0.803 0.7,0.904 0.4,1.003 0.2,1.004 -0.1,1.205 -0.3,0.401 -0.3,0.402 -0.8,0.602 -0.5,0.301 -0.5,0.201 -0.5,0.2 -1,0.402 -0.5,0.301 -0.2,0.1 -0.1,0.101 -0.1,0.201 -0.1,0.2 v 0.502 l 0.1,0.201 v 0.401 h 0.1 v 0.101 l 0.1,0.1 h 0.4 l 0.1,0.101 h 0.1 v 0.803 l -0.8,0.1 h -0.804 l -0.8,0.1 -0.8,0.101 h -3.2 l -0.8,0.1 h -0.8 l 0.5,0.602 0.6,0.603 0.6,0.602 1.2,1.004 0.6,0.401 0.5,0.502 0.5,0.602 0.4,0.602 0.3,0.703 0.1,0.402 0.2,0.501 0.1,0.502 0.2,0.402 0.2,0.401 0.3,0.402 0.3,0.301 0.404,0.301 1,0.402 h 4.8 z"
                     fill="#c3b5b0"
                     id="path329" />
                  <path
                     d="m 95.006,58.372 0.5,0.101 1,0.2 0.5,0.101 h 1.5 l 0.5,-0.101 0.4,-0.1 0.4,-0.201 0.1,-0.1 -0.1,-0.101 -0.1,-0.2 -0.1,-0.301 -0.2,-0.201 -0.2,-0.402 -0.3,-0.903 0.1,-0.201 0.6,-0.502 0.704,-0.401 0.7,-0.301 0.8,-0.301 0.7,-0.302 1.2,-0.802 0.6,-0.502 0.4,-0.603 0.3,-0.702 h -0.8 l -0.3,0.1 -0.3,0.101 -0.6,0.2 -0.3,0.101 -0.2,0.1 -0.3,0.201 -0.6,0.201 -0.6,0.301 -0.5,0.401 -0.604,0.301 -0.5,0.402 -0.6,0.401 -0.6,0.402 -0.6,0.401 -0.7,0.402 -0.7,0.401 z"
                     fill="#c3b5b0"
                     id="path331" />
                  <path
                     d="m 53.403,194.48 2.801,-0.1 h 8.3 l 2.7,-0.1 2.801,-0.1 2.7,-0.2 5.6,-0.4 2.7,-0.4 -0.7,-0.21 -2.8,-0.4 h -0.7 l -0.7,-0.1 -0.6,-0.1 -0.7,-0.1 -0.6,-0.3 v -0.8 l 1,-0.4 1,-0.31 1.1,-0.1 h 2.1 l 1.1,0.1 h 1.1 l 1,-0.1 1,-0.3 1,-0.5 v -1.2 l 1.701,-0.5 1.8,-0.41 1.7,-0.4 1.8,-0.2 1.9,-0.2 3.6,-0.2 h 3.704 l 1.8,-0.1 h -5.504 l -2.8,-0.1 -2.7,-0.1 h -8.301 l -2.8,0.1 -2.7,0.2 -2.8,0.3 -2.1,0.6 -0.8,0.2 -0.7,0.2 -0.7,0.31 -0.7,0.2 -0.701,0.2 -0.8,0.2 -0.7,0.1 -3.1,0.6 -3.2,0.4 -3.2,0.5 -3.1,0.41 -3.101,0.5 -3,0.7 -2.9,0.9 -2.8,1.21 -2.7,1.4 -2.501,1.81 h 8.001 l -1.3,-0.1 h -1.3 l -1.3,0.1 -1.4,0.2 -1.3,0.2 -1.301,0.3 -2.6,0.6 -1.4,0.21 -1.3,0.1 1.5,0.1 1.4,0.1 1.4,-0.1 1.501,-0.1 1.4,-0.2 1.5,-0.21 1.4,-0.2 1.4,-0.3 1.5,-0.3 1.4,-0.4 z"
                     fill="#d1c6c2"
                     id="path333" />
                  <path
                     d="m 122.61,194.08 3,-0.1 h 3 l 3,0.1 h 9 l 3,-0.1 3,-0.3 3,-0.5 3,-0.81 h -19.6 z"
                     fill="#d1c6c2"
                     id="path335" />
                  <path
                     d="m 177.81,216.56 1.6,0.2 3.2,0.2 h 9.6 l 1.6,-0.1 0.4,-0.1 0.4,-0.2 0.3,-0.2 0.4,-0.2 0.7,-0.7 v -0.4 l -0.2,-0.2 -2.1,-0.81 -2.1,-0.6 -2.2,-0.5 -2.2,-0.3 -2.2,-0.2 h -11.2 z"
                     fill="#d1c6c2"
                     id="path337" />
                  <path
                     d="m 26.602,219.37 h -3.701 l -1,-0.2 -0.5,-0.3 -1,-0.4 -0.9,-0.4 -1,-0.5 -1,-0.41 -1,-0.5 -1.8,-1 -0.9,-0.7 -0.8,-0.81 -0.8,-0.9 -0.3,-0.7 -0.2,-0.71 -0.2,-0.7 v -2.21 l 0.1,-0.7 0.4,-1.4 0.2,-0.81 0.2,-0.7 0.4,-0.6 0.6,-0.5 0.7,-0.3 0.8,-0.31 0.8,-0.2 0.9,-0.1 h 1.6 l 0.8,-0.1 h -0.9 l -0.3,0.1 -0.4,0.1 -0.2,0.2 -0.3,0.31 -0.4,0.6 -0.2,0.4 -0.1,0.3 -0.2,1 -0.2,1.01 -0.2,1.1 -0.1,1.01 -0.1,1 0.1,1.1 0.1,0.91 0.3,0.9 0.5,0.9 0.6,0.71 z"
                     fill="#d1c6c2"
                     id="path339" />
                  <path
                     d="m 116.61,160.75 3.2,0.2 3.2,0.31 3.2,0.2 9.6,0.9 9.6,0.6 3.2,0.1 h -1.9 l -1.8,-0.2 -1.9,-0.4 -1.8,-0.4 -1.8,-0.5 -1.8,-0.4 -1.8,-0.51 -1.8,-0.5 -1.9,-0.4 -1.9,-0.3 h 14.4 l -0.9,-0.9 -0.4,-0.31 -0.3,-0.3 -1.2,-0.6 -0.4,-0.1 -0.4,-0.2 -1.5,-0.4 -1.5,-0.3 -1.5,-0.2 -1.5,-0.3 -1.5,-0.2 -1.6,-0.31 -1.5,-0.4 -1.4,-0.6 -1.4,-0.7 -1.4,-1.01 h 1.9 l 1,-0.1 1,-0.2 1,-0.1 1,-0.2 1,-0.1 1,-0.2 1,-0.1 1.1,-0.2 h 0.3 l 0.4,-0.4 0.1,-0.2 0.1,-0.1 v -0.3 l -0.1,-0.21 -1,-0.4 -1,-0.3 -1,-0.4 -1.1,-0.2 -2.2,-0.6 -1,-0.3 -1.1,-0.4 -1,-0.41 -1,-0.6 1,-0.2 3,-0.3 h 2 l 1,-0.1 h 1 l 2,-0.2 0.2,-0.1 0.2,-0.2 v -0.2 l 0.1,-0.2 v -0.61 l -0.1,-0.1 v -0.2 l -1.9,-0.3 -2,-0.2 -1.9,-0.1 -4,0.2 -2,0.2 -1.9,0.1 -4,0.2 -1.9,-0.1 0.8,0.81 0.8,0.6 0.9,0.6 1.8,0.8 0.9,0.5 0.8,0.41 0.8,0.6 0.7,0.6 0.5,0.7 0.4,0.91 v 0.8 l -0.3,0.6 -0.5,0.5 -0.8,0.41 -0.9,0.4 -1,0.2 -2,0.2 h -0.9 v 1.2 l 0.5,0.4 0.5,0.21 0.4,0.2 0.5,0.2 0.5,0.1 0.5,0.2 0.5,0.1 h 0.4 l 1,0.2 -1.3,0.1 h -1.3 l -1.4,0.1 -3.9,0.3 h -1.3 l -1.4,0.1 -2.6,-0.2 1.5,0.8 1.5,0.61 1.5,0.5 1.6,0.4 3.2,0.6 1.7,0.3 1.7,0.2 1.6,0.3 1.7,0.31 z"
                     fill="#d1c6c2"
                     id="path341" />
                  <path
                     d="m 151.41,131.04 -0.2,0.1 -0.3,0.2 -0.3,0.31 -0.2,0.2 -0.4,0.6 -0.2,0.2 -0.1,0.2 v 0.1 h 0.1 l 2.2,0.4 2.1,0.2 2.2,0.1 h 6.5 l 2.1,-0.1 2.2,-0.1 h 2.1 l 2.2,-0.1 -1.5,-0.3 -1.6,-0.3 -1.5,-0.4 -1.5,-0.3 -1.4,-0.4 -1.5,-0.41 -1.5,-0.5 -1.4,-0.5 -1.5,-0.6 -1.4,-0.7 -0.1,-0.1 -0.1,-0.11 -0.1,-0.2 v -0.4 l -0.1,-0.1 v -0.7 l 0.6,-0.2 0.7,-0.1 0.6,-0.1 1.4,-0.2 h 0.7 l 2.1,-0.3 0.7,-0.31 v -1.2 l -0.9,-0.3 -1,-0.3 -1.8,-0.6 -0.9,-0.31 -1,-0.3 -0.9,-0.2 -1,-0.3 -1,-0.2 -1.1,-0.3 h -0.4 l -0.3,-0.1 -0.3,-0.2 -0.2,-0.2 -0.3,-0.1 -0.2,-0.3 -0.1,-0.2 v -0.2 l 0.2,-0.31 0.6,-0.3 0.7,-0.3 0.8,-0.1 0.7,-0.1 h 1.5 l 0.7,-0.1 0.7,-0.2 0.6,-0.4 0.5,-0.4 -0.7,-0.3 -0.8,-0.21 -0.7,-0.2 -1.6,-0.4 -0.8,-0.1 -0.7,-0.2 -1.6,-0.4 -0.7,-0.2 0.5,-0.1 h 1.3 l 0.4,-0.1 0.3,-0.1 0.8,-0.4 0.3,-0.2 0.4,-0.41 v -1.1 l -1.8,-0.9 -1.9,-0.61 -2,-0.4 -1.9,-0.3 -2,-0.1 -2.1,-0.1 h -7.9 l -0.1,-0.1 -0.2,-0.1 h -0.1 l -0.2,-0.1 h -0.4 l -0.1,-0.1 -0.4,-0.2 -0.1,-0.2 h 5.6 l -1.1,-0.1 h -6.5 l -1,0.1 -1.1,0.1 -1.1,0.3 -0.5,0.1 -0.4,0.2 -0.5,0.3 -0.6,0.6 -0.3,0.31 -0.1,0.4 v 0.3 l 0.1,0.3 0.3,0.3 1.2,0.7 1.3,0.61 1.4,0.5 2.8,0.8 1.5,0.3 1.4,0.3 1.5,0.3 1.5,0.4 1.4,0.51 h 0.6 l 0.7,0.1 h 0.6 l 0.7,0.1 h 0.7 l 0.6,0.2 0.5,0.3 0.5,0.4 0.4,0.5 0.3,0.71 h -4.8 l 4.2,0.3 1.4,0.2 1.4,0.3 2.6,0.8 1.4,0.6 1.3,0.71 1.3,0.7 v 0.3 l 0.1,0.2 v 0.5 l -0.1,0.2 v 0.2 l -0.4,0.2 z"
                     fill="#d1c6c2"
                     id="path343" />
                  <path
                     d="m 105.01,84.871 1,0.402 1,0.401 1,0.301 1,0.201 1.1,0.301 1,0.1 1.1,0.101 1.1,0.1 h 1 l 1.1,0.101 -0.9,-0.402 -0.9,-0.201 -1,-0.2 -2,-0.402 -1,-0.301 -0.9,-0.402 -0.8,-0.401 -0.7,-0.602 -0.6,-0.703 0.5,-0.1 0.5,-0.101 h 0.5 l 0.4,-0.1 h 1 l 0.5,-0.1 0.4,-0.101 0.5,-0.1 0.5,-0.201 -0.9,-0.201 -1,-0.2 h -3.6 l -0.9,0.1 h -0.9 l -0.9,-0.1 h -1 z"
                     fill="#d1c6c2"
                     id="path345" />
                </g>
              </g>
            </g>
          </g>
        </g>
      </g>
      <g
         id="g365">
        <g
           clip-path="url(#pano-nuevod)"
           id="g363">
          <text
             transform="matrix(1,0,0,-1,518.76,218.33)"
             fill="#ffff00"
             font-family="Calibri"
             font-size="32.064px"
             font-weight="bold"
             xml:space="preserve"
             id="text361"><tspan
               x="0 20.200319 36.32851 51.110016 67.238205 84.360382 100.48858 111.13383 126.97344 140.37619 148.26393 165.57849"
               y="0"
               id="tspan359">Degeneracion</tspan></text>
        </g>
      </g>
      <g
         id="g373">
        <g
           clip-path="url(#pano-nuevoc)"
           id="g371">
          <text
             transform="matrix(1,0,0,-1,570.38,179.9)"
             fill="#ffff00"
             font-family="Calibri"
             font-size="32.04px"
             font-weight="bold"
             xml:space="preserve"
             id="text369"><tspan
               x="0 28.00296 45.240479 55.909801 71.737556"
               y="0"
               id="tspan367">Moral</tspan></text>
        </g>
      </g>
    </g>
    <g
       id="g812"
       style="display:inline"
       inkscape:label="ap5"
       class="fragment"
       data-fragment-index="5">
      <g
         id="g153"
         transform="matrix(0.7706582,0,0,0.7706582,15.368069,-58.806843)">
        <g
           clip-path="url(#pano-nuevoz)"
           id="g151">
          <g
             transform="matrix(1.8333,0,-9.4e-8,2.5,84,102)"
             id="g149">
            <g
               transform="scale(0.33214,0.30779)"
               id="g147">
              <g
                 clip-path="url(#pano-nuevoy)"
                 id="g145">
                <g
                   id="g143">
                  <g
                     id="g91" />
                  <path
                     d="m 139.81,233.12 7.7,-0.5 7.5,-0.5 7.5,-0.6 7.5,-0.8 7.3,-1.01 7.3,-1.3 7.1,-1.61 6.9,-2.11 6.7,-2.61 6.4,-3.11 1.4,-1 0.7,-0.6 0.6,-0.61 0.7,-0.6 0.5,-0.6 0.5,-0.7 0.4,-0.71 0.2,-0.7 0.1,-0.8 -2.9,-4.52 -3.4,-3.91 -3.7,-3.42 -4,-3.01 -4.2,-2.71 -4.3,-2.61 -4.4,-2.61 -4.3,-2.71 -4.1,-3.01 -3.9,-3.31 -0.9,-1.11 -0.6,-1.1 -0.5,-1.2 -0.3,-1.31 -0.1,-1.3 -0.1,-1.31 0.1,-1.3 0.2,-1.41 0.2,-1.3 0.2,-1.31 1.8,-5.02 1,-2.41 1,-2.51 1,-2.4 1.1,-2.41 1,-2.51 1.2,-2.31 1.1,-2.41 1.3,-2.41 0.8,-6.93 -0.7,-6.42 -2.1,-6.12 -3.3,-5.62 -4.2,-5.22 -4.8,-4.92 -5.3,-4.52 -5.4,-4.213 -5.5,-3.814 -5.2,-3.614 -2.8,-1.305 -2.8,-1.405 -2.9,-1.405 -2.8,-1.506 -2.8,-1.405 -2.7,-1.506 -2.8,-1.405 -2.9,-1.506 -2.8,-1.304 -2.8,-1.406 -2.1,-1.204 -2,-1.405 -1.7,-1.606 -1.5,-1.807 -1.4,-1.907 -1.1,-2.008 -1,-2.108 -0.9,-2.208 -0.7,-2.108 -0.5,-2.208 -0.3,-0.401 -0.3,-0.402 -0.2,-0.401 -0.2,-0.502 -0.1,-0.502 -0.1,-0.402 v -0.502 l 0.1,-0.501 0.1,-0.502 0.1,-0.402 1.5,-2.007 1.7,-1.606 2,-1.305 2.1,-1.205 2.1,-1.003 2.1,-1.104 2,-1.305 1.9,-1.406 1.6,-1.907 1.2,-2.208 0.1,-1.506 v -1.304 l -0.2,-1.406 -0.4,-1.305 -0.5,-1.204 -0.6,-1.104 -0.8,-1.104 -0.9,-0.904 -1.1,-0.903 -1.2,-0.703 -0.7,-0.401 -0.7,-0.402 -0.7,-0.301 -0.8,-0.301 -0.7,-0.401 -0.7,-0.402 -0.5,-0.502 -0.4,-0.702 -0.3,-0.803 0.1,-0.904 0.6,-0.2 0.7,-0.302 0.6,-0.401 1.4,-0.602 0.6,-0.201 0.7,-0.1 0.7,0.1 0.6,0.301 0.7,0.502 1.8,0.903 1.9,0.904 1.9,0.903 1.9,0.803 2,0.803 1.9,0.803 2,0.703 4,1.204 2,0.502 0.2,-0.1 h 0.2 l 0.2,-0.101 0.1,-0.2 0.1,-0.101 0.2,-0.1 0.1,-0.201 0.2,-0.1 0.1,-0.201 0.1,-0.1 -0.2,-0.502 -0.3,-0.502 -0.2,-0.402 -0.4,-0.502 -0.3,-0.401 -0.4,-0.502 -0.4,-0.401 -0.4,-0.302 -0.5,-0.401 -0.4,-0.301 1.1,0.1 2.4,0.402 1.2,0.301 1.2,0.201 3.6,0.903 1.2,0.201 1.2,0.301 2.6,0.602 7.8,1.506 2.7,0.502 2.6,0.401 2.7,0.402 2.6,0.401 2.7,0.301 2.7,0.402 0.9,-0.904 -1.5,-1.505 -5.8,-1.907 -5.7,-1.908 -5.7,-2.107 -5.7,-2.108 -5.6,-2.309 -5.5,-2.409 -5.5,-2.61 -5.4,-2.71 -5.3,-3.011 -5.2,-3.3123 -0.1,-0.5019 V 3.8689 l -0.2,-0.5018 -0.4,-1.0038 -0.2,-0.4015 -0.3,-0.4015 -0.8,-0.80298 -0.4,-0.4015 h -2.4 l -0.7,0.10037 h -0.8 l -0.7,0.10037 -0.7,0.20076 -0.7,0.30108 -0.6,0.3012 -0.6,0.5018 -0.6,1.5057 -6,3.0112 -3,1.4052 -3.104,1.3049 -3,1.3046 -6.2,2.61 -3.1,1.204 -3.101,1.205 -3.1,1.204 -1.2,0.302 -1.3,0.401 -1.2,0.402 -1.2,0.301 -1.3,0.401 -1.2,0.402 -2.6,0.602 -1.2,0.301 -1.301,0.201 -0.2,0.1 -0.1,0.101 -0.1,0.2 -0.1,0.101 -0.1,0.1 v 0.201 l -0.1,0.201 v 0.301 l 0.1,0.2 0.6,0.603 2.901,0.401 2.8,0.201 h 2.9 l 2.9,-0.1 2.8,-0.302 2.801,-0.401 2.8,-0.402 2.8,-0.501 5.4,-1.004 0.3,0.301 -1.3,1.004 -1.3,1.003 -1.4,0.904 -1.3,0.903 -1.4,1.004 -1.3,1.004 -1.2,1.003 -1.2,1.205 -1,1.305 -0.9,1.505 v 0.502 l 0.1,0.201 v 0.1 l 0.1,0.201 0.1,0.1 0.1,0.201 0.1,0.101 0.1,0.1 2,-0.402 2,-0.602 1.9,-0.702 1.8,-0.803 1.9,-0.904 1.8,-0.803 1.8,-0.903 1.904,-0.803 1.9,-0.703 1.9,-0.602 0.3,0.301 -0.6,0.602 -0.2,0.302 -0.2,0.301 -0.2,0.401 -0.2,0.301 -0.1,0.402 -0.1,0.401 v 0.402 l 0.1,0.502 1.2,0.702 1.2,0.101 1.2,-0.201 1.1,-0.402 1.2,-0.401 1.1,-0.402 h 1.1 l 1,0.302 0.9,1.003 0.8,1.707 0.5,0.2 0.6,0.301 0.7,0.201 0.6,0.201 0.6,0.301 0.5,0.301 0.5,0.402 0.5,0.502 0.3,0.501 0.3,0.703 -0.1,0.602 -0.1,0.703 -0.6,1.204 -0.5,0.502 -0.4,0.502 -0.6,0.502 -0.5,0.402 -0.6,0.401 -0.5,0.301 -4.1,2.409 -4.7,2.108 -5,2.008 -5.004,2.007 -4.9,2.208 -4.3,2.71 -3.501,3.212 -2.5,4.015 -1,5.019 0.5,6.123 1.2,2.71 1.5,2.509 1.801,2.409 1.9,2.409 2.1,2.309 2.1,2.208 2.2,2.309 4.4,4.416 2.004,2.208 -0.104,0.101 -0.1,0.1 -0.1,0.101 v 0.903 l 0.804,0.201 0.6,0.401 0.6,0.502 0.4,0.602 0.4,0.603 0.3,0.805 0.3,0.7 0.2,0.8 0.3,0.71 0.3,0.7 1.1,3.81 0.5,3.92 v 3.71 l -0.4,3.71 -0.9,3.72 -1.1,3.51 -1.3,3.52 -1.4,3.51 -1.604,3.31 -1.5,3.31 -5,8.23 -5.9,6.93 -6.501,5.92 -7.2,5.12 -7.601,4.32 -7.9,3.81 -8.101,3.51 -8.2,3.22 -8.101,3.21 -8,3.21 -3.301,1.71 -3.5,1.9 -3.4,2.31 -3.2,2.41 -3.1005,2.81 -2.6001,3.01 -2.2002,3.32 -1.7001,3.51 -1,3.81 -0.20001,4.12 3.5003,2.21 3.7002,1.8 3.8005,1.61 4,1.4 3.9,1.21 4.101,1.1 4.1,0.91 4.1,0.8 4.2,0.8 4.101,0.8 35.102,3.92 21.801,1.51 42.904,-0.31 z"
                     id="path93" />
                  <path
                     d="m 142.21,230.72 7.6,-0.61 15,-1.2 7.4,-0.91 7.4,-1 7.2,-1.4 7,-1.81 6.8,-2.31 6.6,-2.91 6.3,-3.51 0.1,-0.1 0.1,-0.2 0.1,-0.21 0.1,-0.1 0.2,-0.4 0.1,-0.1 v -0.4 l -0.1,-0.3 -1,-1.2 -0.6,-0.51 -0.7,-0.5 -0.6,-0.4 -0.7,-0.4 -0.7,-0.3 -0.8,-0.4 -0.7,-0.2 -0.8,-0.31 -18.5,-3.01 -44.4,-2.41 -52.104,-1.2 -46.103,1.81 -1.8,0.2 -3.4,0.6 -1.7,0.4 -1.701,0.4 -1.7,0.5 -1.6,0.51 -1.7,0.5 -1.6,0.6 -1.6,0.5 -0.2,0.5 v 0.41 l 0.1,0.4 0.6,0.6 1.2,0.9 0.4,0.2 0.3,0.3 11.901,3.52 12.401,2.91 12.7,2.31 13.001,1.7 13.201,1.01 13.204,0.6 13.4,-0.1 13.2,-0.5 13.2,-1.11 12.9,-1.6 h 0.1 v -0.1 h 0.1 v -0.1 h 0.1 v -0.1 h 0.3 l -0.7,-0.61 -0.9,-0.5 -0.8,-0.3 -1,-0.4 -0.9,-0.2 -1,-0.3 -2,-0.4 -1,-0.31 -1,-0.3 -7.7,-1.2 -7.9,-0.9 -8.1,-0.71 -8.2,-0.4 -8.3,-0.2 h -8.3 l -8.304,0.2 -8.3,0.4 -8.101,0.4 -8,0.61 -0.1,-0.1 -0.1,-0.2 -0.1,-0.1 -0.2,-0.11 -0.4,-0.4 v -0.4 l 0.1,-0.2 0.8,-0.9 20.101,-1.51 h 35.404 l 3.8,0.7 4,0.41 12,0.9 4,0.5 3.8,0.8 3.7,1.11 3.4,1.6 3.3,2.11 v 0.6 l -0.1,0.51 -0.2,0.4 -0.8,0.8 -0.4,0.3 -0.5,0.2 -0.4,0.3 -0.5,0.31 -0.4,0.2 -1.6,0.5 -1.6,0.4 -1.7,0.2 -1.8,0.2 -1.8,0.1 -1.7,0.1 h -1.8 l -1.8,0.1 h -1.8 l -1.8,0.2 -6.9,0.6 -7,0.41 -7.1,0.4 -7.1,0.2 -7.2,0.1 h -7.1 l -7.104,-0.3 -7.1,-0.5 -6.901,-0.61 -6.9,-0.9 -35.303,-7.53 -1.3,-0.6 -1.4,-0.5 -1.5,-0.4 -1.5,-0.51 -1.4,-0.6 -1.3,-0.7 -1.2,-0.8 -1,-1.11 -0.7,-1.3 -0.4,-1.61 1.6,-1.6 0.9,-0.61 1.8,-1.2 1,-0.4 0.9,-0.4 1,-0.3 1.1,-0.31 1,-0.3 21.002,-2.11 40.102,-1.2 31.704,0.3 34.8,1.21 4.7,0.5 4.8,0.3 4.7,0.3 14.1,1.2 4.7,0.61 4.5,0.8 4.5,0.9 4.4,1.11 -1.7,-2.11 -2,-1.91 -2.1,-1.7 -2.1,-1.41 -2.2,-1.4 -2.3,-1.31 -2.2,-1.2 -2.3,-1.31 -2.2,-1.4 -2.1,-1.61 -1.6,-0.6 -1.5,-0.7 -1.6,-0.61 -1.7,-0.5 -1.6,-0.5 -1.6,-0.4 -1.7,-0.4 -1.7,-0.3 -1.8,-0.21 -1.7,-0.2 -38.1,-4.01 -0.2,-0.1 -0.1,-0.1 v -0.1 l -0.1,-0.1 -0.1,-0.2 -0.1,-0.1 v -0.51 l 1,-0.8 4.3,0.1 4.2,0.2 8.4,0.6 4.2,0.41 4.2,0.5 4.1,0.4 4.2,0.5 4.1,0.4 4.2,0.5 4.2,1.21 -1.2,-0.8 -1.2,-0.91 -2.2,-2 -0.9,-1.11 -0.8,-1.2 -0.7,-1.31 -0.6,-1.3 -0.3,-1.41 -0.2,-1.4 0.3,-2.41 0.5,-2.41 0.5,-2.31 0.6,-2.31 1.4,-4.42 0.9,-2.2 0.8,-2.21 0.9,-2.11 1,-2.21 -2.7,-1.3 -2.9,-1.11 -2.9,-0.9 -3,-0.8 -3.1,-0.5 -3.2,-0.51 -6.4,-0.8 -3.2,-0.3 -3.2,-0.4 -0.9,-1.21 1.5,-1.2 2.8,0.3 2.7,0.2 5.4,0.6 2.7,0.4 2.7,0.41 2.7,0.5 2.6,0.5 2.6,0.6 2.5,0.7 4.5,2.41 0.7,-1.6 0.7,-1.71 0.8,-1.61 0.8,-1.7 0.7,-1.61 0.5,-1.7 0.4,-1.81 0.1,-1.81 -0.2,-1.9 -0.6,-2.01 -1.1,-3.31 -1.4,-3.22 -1.7,-3.11 -1.9,-3.01 -2.2,-2.91 -2.4,-2.81 -2.5,-2.61 -2.7,-2.61 -2.8,-2.41 -2.9,-2.21 -2.8,-1.1 -2.9,-0.8 -2.9,-0.61 -3,-0.6 -6,-1 -2.9,-0.605 -3,-0.803 -2.8,-0.903 -2.7,-1.104 -0.1,-0.101 -0.1,-0.1 -0.2,-0.1 -0.1,-0.201 -0.1,-0.1 -0.1,-0.101 -0.1,-0.1 -0.1,-0.101 v -0.2 l -0.1,-0.101 1,-0.903 2.1,0.703 2.3,0.702 2.2,0.502 2.3,0.402 2.3,0.401 2.4,0.301 2.3,0.402 2.3,0.401 2.3,0.402 2.2,0.602 -3.5,-2.409 -7.4,-4.216 -3.8,-1.907 -3.7,-1.807 -3.8,-1.907 -3.8,-1.806 -3.8,-1.908 -3.7,-2.007 -3.6,-2.208 -2,-1.205 -1.7,-1.405 -1.6,-1.606 -1.3,-1.706 -1.2,-1.807 -1,-1.907 -0.9,-2.008 -0.8,-2.007 -0.7,-2.008 -0.5,-2.007 -0.3,-0.703 -0.4,-0.602 -0.3,-0.602 -0.4,-0.603 -0.3,-0.702 -0.3,-0.602 -0.2,-1.406 0.1,-0.702 0.3,-0.703 1.2,-2.308 1.6,-1.807 1.8,-1.506 2.1,-1.204 2.1,-1.104 2.2,-1.105 2.1,-1.204 2.1,-1.305 1.8,-1.606 1.6,-1.907 0.1,-0.803 v -0.803 l -0.1,-0.703 -0.1,-0.702 -0.3,-0.703 -0.3,-0.602 -0.3,-0.703 -0.3,-0.602 -0.3,-0.703 -0.2,-0.602 -0.8,-0.703 -0.9,-0.501 -0.8,-0.502 -0.9,-0.602 -0.9,-0.402 -0.8,-0.602 -0.9,-0.502 -0.8,-0.602 -0.8,-0.603 -0.8,-0.702 -0.1,0.1 -0.1,0.101 -0.2,0.2 -0.1,0.101 -0.1,0.1 v 0.201 l -0.1,0.1 v 0.101 l 0.1,0.2 0.8,0.502 0.9,0.502 0.8,0.402 0.9,0.501 0.8,0.603 0.8,0.502 0.8,0.702 0.7,0.602 0.7,0.803 0.6,0.904 0.1,1.405 -0.3,1.204 -0.5,1.205 -0.7,1.004 -0.9,1.003 -1,0.904 -1,0.803 -1.1,0.702 -1.1,0.703 -1,0.703 -2.9,1.706 -2.9,1.405 -3.1,1.305 -3.1,1.104 -3.104,1.104 -3.1,1.205 -3,1.305 -2.9,1.706 -2.7,2.008 -2.601,2.409 -0.3,1.003 -0.8,2.008 -0.3,1.004 -0.3,1.104 -0.3,1.003 -0.1,1.105 v 1.104 l 0.1,1.104 0.3,1.204 1.2,-1.104 1.401,-0.702 1.5,-0.502 1.7,-0.201 1.7,-0.1 h 1.7 l 1.7,0.2 3.4,0.402 1.5,0.201 0.1,0.1 0.2,0.1 0.1,0.101 0.1,0.1 v 0.201 l 0.1,0.1 v 0.703 l -0.6,0.602 -1.6,0.1 h -1.6 l -1.6,-0.1 h -1.5 l -1.5,-0.1 -3,0.2 -1.4,0.302 -1.4,0.401 -1.401,0.703 v 0.702 l 0.1,0.703 0.1,0.602 0.3,0.602 0.4,0.603 0.401,0.702 0.4,0.602 0.4,0.603 0.6,1.204 15.604,16.261 3,-0.602 2.9,-0.301 h 2.9 l 2.8,0.2 2.9,0.402 2.8,0.502 2.8,0.602 2.8,0.702 2.8,0.603 2.7,0.602 0.2,0.1 0.1,0.101 0.2,0.2 0.1,0.101 v 0.1 l 0.1,0.101 v 0.301 l -0.1,0.2 -0.8,0.904 -2.6,-0.502 -2.6,-0.602 -2.6,-0.502 -2.7,-0.502 -2.7,-0.402 -2.7,-0.401 -2.7,-0.1 h -2.7 l -2.7,0.2 -2.7,0.402 1.4,2.81 1.1,2.915 0.9,3.21 0.6,3.21 0.3,3.31 0.1,3.31 -0.3,3.32 -0.7,3.21 -0.9,3.11 -1.3,2.81 1.4,-1 1.4,-0.81 1.6,-0.7 1.6,-0.5 1.6,-0.4 1.7,-0.3 3.4,-0.4 1.8,-0.2 1.7,-0.11 1.6,-0.1 h 3.3 l 1.5,0.1 1.6,0.21 3,0.4 3,0.6 1.5,0.2 0.7,0.7 0.2,0.1 0.1,0.2 v 0.51 l -1,0.9 -3,-0.5 -3.2,-0.4 -3.1,-0.21 -3.2,-0.1 -3.2,0.1 -3.1,0.31 -3,0.4 -3,0.7 -2.9,1 -2.8,1.11 -0.2,0.2 -0.3,0.2 -0.2,0.3 -0.4,0.4 -0.2,0.3 -0.2,0.1 -0.3,0.1 h -0.3 l -0.3,-0.1 -1.5,3.62 -1.8,3.61 -2.004,3.41 -2.2,3.42 -2.5,3.31 -2.6,3.11 -2.7,3.11 -2.9,3.01 -3.001,2.91 -3,2.71 -9.9,6.33 4.3,-0.6 4.6,-0.51 4.7,-0.3 4.901,-0.2 h 4.9 l 5,0.2 4.904,0.3 4.8,0.51 4.7,0.7 4.5,0.8 0.5,0.5 0.2,0.1 0.1,0.2 v 0.1 l 0.1,0.1 v 0.21 l -0.9,0.9 -7,-0.7 -7.1,-0.61 -7.304,-0.4 -7.3,-0.2 -7.201,0.3 -7.2,0.6 -7.001,1.11 -6.7,1.71 -6.401,2.3 -6,3.12 -4.2,1.7 -4.2,1.61 -4.201,1.7 -4.2,1.71 -4.1,1.81 -4.001,2 -4,2.21 -3.8,2.51 -3.7,2.81 -3.4005,3.21 -0.7,1.31 -0.7001,1.3 -0.6,1.31 -0.6001,1.3 -0.6,1.31 -0.4,1.3 -0.5001,1.41 -0.3,1.4 -0.3,1.41 -0.1,1.51 8.4008,3.41 8.7,2.91 8.801,2.31 9.1,1.9 9.301,1.51 9.301,1.2 9.5,0.91 9.601,0.7 9.601,0.6 9.6,0.51 1.5,0.3 z"
                     fill="#b3a29d"
                     id="path95" />
                  <path
                     d="m 156.91,70.216 -0.4,-1.405 -0.6,-1.204 -0.7,-1.205 -0.8,-1.104 -1,-1.104 -1,-1.004 -1.1,-1.004 -1,-1.104 -1.1,-1.003 -1,-1.004 -1,-0.904 -4,-3.212 -1.1,-0.803 -1,-0.702 -1.1,-0.602 -1.1,-0.603 -1.2,-0.401 v -0.502 l -0.1,-0.201 -0.1,-0.2 -0.3,-0.603 -0.1,-0.2 -0.2,-0.402 -0.5,-0.1 h -0.3 l -0.3,0.2 -0.1,0.201 -0.2,0.602 -0.2,0.302 -0.2,0.301 -0.2,0.2 -0.4,0.101 1.3,1.204 1,1.506 0.9,1.505 0.9,1.606 0.7,1.707 0.8,1.606 1,1.606 1.1,1.606 1.3,1.405 1.7,1.205 0.9,0.501 0.9,0.603 0.9,0.602 0.9,0.502 0.9,0.602 0.9,0.502 1,0.502 0.9,0.401 1,0.402 1,0.201 h 0.3 l 0.2,-0.101 0.3,-0.1 0.2,-0.101 0.3,-0.1 0.2,-0.1 0.3,-0.101 0.2,-0.2 0.2,-0.101 0.2,-0.301 z"
                     id="path97" />
                  <path
                     d="m 181.71,67.807 -0.3,-1.204 -0.6,-1.004 -0.8,-0.903 -0.8,-0.703 -1,-0.702 -1,-0.703 -1,-0.602 -1,-0.703 -0.9,-0.602 -0.9,-0.803 -1.6,-1.004 -1.7,-1.004 -1.6,-1.003 -1.6,-1.004 -1.7,-1.004 -1.6,-1.104 -1.5,-1.104 -1.5,-1.305 -1.4,-1.305 -1.4,-1.505 -0.1,-0.101 h -0.2 l -0.1,0.101 h -0.1 l -0.1,0.1 -0.2,0.1 -0.1,0.101 -0.2,0.2 -0.1,0.101 v 2.71 l 1.9,2.409 2.1,2.308 2.1,2.309 2.3,2.108 2.4,1.907 2.4,1.706 2.6,1.506 2.8,1.104 2.8,0.904 2.9,0.602 0.9,-1.004 z"
                     id="path99" />
                  <path
                     d="m 140.41,56.064 0.4,1.003 0.4,1.004 0.5,1.004 0.7,1.004 0.7,1.003 0.8,1.004 0.8,0.903 0.9,0.904 1,0.702 1,0.703 5.7,3.011 -0.9,-1.305 -1,-1.304 -1.2,-1.305 -1.2,-1.406 -1.4,-1.304 -1.4,-1.205 -1.4,-1.305 -1.5,-1.104 -1.4,-1.104 z"
                     fill="#705f51"
                     id="path101" />
                  <path
                     d="m 164.71,57.569 1.1,0.904 1.1,1.003 1.2,0.904 1.1,0.803 2.4,1.606 1.2,0.702 1.3,0.603 1.3,0.501 1.3,0.502 -12,-7.628 z"
                     fill="#705f51"
                     id="path103" />
                  <path
                     d="m 202.41,56.967 0.1,-0.502 -0.1,-0.502 -0.1,-0.401 -0.3,-0.402 -0.3,-0.301 -1.2,-0.903 -0.4,-0.201 -0.4,-0.1 -2.5,-0.703 -2.5,-0.803 -2.6,-0.803 -5,-1.606 -2.5,-0.703 -2.5,-0.803 -2.6,-0.702 -2.6,-0.602 -2.6,-0.502 h -0.1 l -0.1,0.1 v 0.1 l -0.1,0.101 v 0.602 l 0.8,0.402 0.4,0.1 0.4,0.201 0.5,0.1 0.4,0.1 0.4,0.101 0.5,0.1 0.8,0.402 0.3,0.2 0.5,0.302 0.4,0.1 0.4,0.201 0.5,0.1 0.8,0.402 0.3,0.301 0.2,0.301 0.2,0.502 0.6,0.602 0.3,-0.301 1.5,1.405 1.6,1.204 1.8,1.004 1.8,0.703 1.9,0.602 1.9,0.502 6,0.903 2.1,0.201 1.2,-1.204 z"
                     id="path105" />
                  <path
                     d="m 188.01,52.751 1,0.402 1,0.301 0.9,0.301 1,0.401 1,0.201 1,0.301 3,0.603 1,0.2 -9.8,-2.71 z"
                     fill="#705f51"
                     id="path107" />
                  <path
                     d="m 78.405,46.428 0.1,-0.301 0.1,-0.302 0.1,-0.301 v -0.301 l 0.1,-0.301 -0.1,-0.401 v -0.302 l -0.2,-0.602 -0.1,-0.201 h -0.4 l -0.4,0.201 -0.2,0.201 -0.4,0.602 -0.1,0.402 -0.2,0.301 -0.2,0.401 -0.2,0.301 -0.3,0.302 -2.2,-0.101 -2.3,0.201 -2.201,0.301 -2.1,0.402 -2.2,0.501 -2.1,0.603 -2.1,0.702 -2.1,0.603 -2.1,0.702 -2.1,0.602 -0.2,0.201 -0.2,0.301 -0.201,0.201 -0.3,0.903 v 0.302 l -0.1,0.401 0.1,0.301 v 0.402 l 0.901,0.501 0.9,0.402 1,0.201 2.2,0.2 1.1,-0.1 1.2,-0.1 1.1,-0.101 1,-0.1 h 1.1 l 1.6,-0.402 1.6,-0.401 1.6,-0.502 1.501,-0.702 1.5,-0.703 1.4,-0.903 1.4,-1.004 2.6,-2.208 z"
                     id="path109" />
                  <path
                     d="m 73.605,48.234 -1.8,0.201 -1.8,0.402 -1.701,0.401 -1.8,0.502 -1.7,0.402 -1.8,0.501 -1.7,0.502 -1.8,0.502 -1.7,0.402 -1.8,0.401 1.9,-0.1 1.9,-0.101 1.9,-0.1 1.9,-0.201 1.8,-0.301 1.7,-0.401 1.8,-0.502 1.601,-0.703 1.6,-0.803 z"
                     fill="#705f51"
                     id="path111" />
                  <path
                     d="m 72.705,34.383 0.3,-0.101 0.6,-0.2 0.3,-0.201 0.3,-0.101 0.2,-0.2 0.2,-0.201 0.3,-0.201 0.1,-0.301 0.2,-0.301 v -0.602 l -4.2,0.2 -2.101,0.101 h -2.2 l -2.1,0.1 -2.2,0.101 -2.1,0.2 -2.1,0.201 -2,0.402 -2,0.501 -0.501,0.302 -0.5,0.401 -0.4,0.301 -0.4,0.502 -0.3,0.402 -0.2,0.501 -0.2,0.603 v 1.204 l 0.1,0.602 0.7,0.803 0.9,0.603 1.001,0.301 1,0.201 h 1.1 l 1.1,-0.101 1.2,-0.1 1.1,-0.101 1.1,-0.1 h 1 l 1.2,-0.201 1.3,-0.301 1.2,-0.301 1.2,-0.401 1.1,-0.502 1.1,-0.603 1.101,-0.702 0.9,-0.803 0.9,-0.904 0.8,-1.003 z"
                     id="path113" />
                  <path
                     d="m 69.104,34.985 h -7.7 l -1.6,0.1 -1.6,0.301 -1.6,0.302 -1.4,0.602 -1.301,0.803 v 0.401 l 0.1,0.101 h 0.201 l 0.1,0.1 h 0.4 l 0.1,0.1 h 0.2 l 0.1,0.201 1.6,0.101 h 1.5 l 1.5,-0.101 1.4,-0.201 1.5,-0.2 1.3,-0.402 1.4,-0.502 1.3,-0.502 2.6,-1.204 z"
                     fill="#705f51"
                     id="path115" />
                  <path
                     d="m 107.71,22.137 0.3,0.1 0.4,0.402 0.1,0.201 0.1,0.2 0.1,0.302 v 1.104 l -2.4,3.011 0.7,-0.201 0.6,-0.1 0.6,-0.301 0.6,-0.201 0.6,-0.402 0.5,-0.401 0.4,-0.402 0.4,-0.602 0.2,-0.602 0.2,-0.703 0.4,-0.602 0.5,-0.401 0.5,-0.402 1,-0.602 0.5,-0.201 0.6,-0.301 0.5,-0.201 0.6,-0.301 0.5,-0.301 -0.1,-0.1 -0.2,-0.201 -0.1,-0.101 -0.2,-0.1 -0.1,-0.201 -0.2,-0.2 -0.1,-0.201 v -0.201 l 0.1,-0.201 0.9,-0.903 1.1,0.401 1.1,0.302 1.1,0.2 1,0.201 1.1,0.1 1,0.302 1,0.301 1,0.502 0.9,0.702 0.8,0.904 h 0.4 l 0.3,0.1 0.4,0.1 0.9,0.603 0.3,0.2 0.2,0.201 0.3,0.301 0.2,0.301 8.8,3.012 -8.2,-5.12 v -0.602 l 0.1,-0.201 0.1,-0.2 0.2,-0.201 0.1,-0.1 0.2,-0.201 0.1,-0.101 0.2,-0.2 3,0.702 3,0.703 3,0.803 3,0.703 3,0.702 3,0.703 3.1,0.702 3,0.703 3,0.602 3.1,0.603 1.8,0.301 -4.7,-1.606 -4.6,-1.807 -9.2,-3.814 -4.5,-2.209 -4.5,-2.208 -4.4,-2.409 -4.3,-2.609 -4.2,-2.7106 -4.2,-2.9109 -0.1,-0.1003 V 4.2704 L 118.31,4.17 V 4.0697 l 0.1,-0.2008 0.1,-0.1003 0.3,-0.3012 0.1,-0.1003 h 0.6 l -0.2,-0.4015 -0.2,-0.3012 -0.3,-0.2007 -0.3,-0.3011 -0.3,-0.1004 -0.4,-0.1004 h -0.3 l -0.4,0.1004 -0.3,0.2007 -0.3,0.2008 -1,1.0037 -1.1,0.9034 -1.2,0.9034 -1.1,0.803 -1.3,0.7026 -1.2,0.6022 -1.3,0.7026 -1.2,0.5019 -1.3,0.6023 -1.3,0.5018 -2.6,1.1044 -2.504,1.104 -2.6,1.104 -5,2.208 -5.2,2.008 -2.601,1.003 -2.6,0.904 -2.6,0.803 h 2.2 l 2.2,-0.201 2.201,-0.301 2.3,-0.402 2.3,-0.401 2.4,-0.402 2.3,-0.401 2.4,-0.402 2.3,-0.301 2.404,-0.2 0.1,0.1 0.1,0.201 0.2,0.1 0.1,0.1 0.2,0.201 0.1,0.101 0.1,0.1 0.1,0.201 v 0.2 l -0.1,0.201 -1.2,1.305 -1.3,1.205 -1.304,1.104 -1.3,1.003 -1.3,1.004 -1.4,1.004 -1.4,0.903 -1.3,1.004 -1.4,1.004 -1.3,1.004 7.2,-3.212 1.8,-0.703 1.804,-0.703 1.8,-0.702 1.9,-0.603 1.9,-0.501 1.9,-0.502 z"
                     fill="#705f51"
                     id="path117" />
                  <path
                     d="m 68.604,227 -5.1,0.1 -5.2,-0.1 -5.101,-0.3 -5.1,-0.6 -5.1,-0.81 -5.101,-0.9 -5.1,-1.1 -5.1,-1.21 -5.101,-1.1 -5.2,-1.31 -1.2,-0.2 -1.1,-0.4 -1.1,-0.5 -1,-0.5 -0.9,-0.7 -0.9,-0.61 -0.9,-0.8 -0.7004,-0.8 -0.8,-0.91 -0.6001,-1 -0.2,-0.3 -0.2,-0.5 -0.1,-0.5 -0.1,-0.51 v -1 l 0.1,-0.5 0.1,-0.4 0.2,-0.41 0.2,-0.3 4.0005,-4.21 4.4,-3.52 4.6,-3.11 4.801,-2.51 5.1,-2.2 5.2,-1.81 5.401,-1.61 5.5,-1.5 5.5,-1.31 5.501,-1.5 5.7,-1.31 5.601,-1 5.6,-0.7 5.7,-0.51 5.601,-0.2 5.7,-0.1 h 5.6 l 5.604,0.1 5.7,0.1 h 5.6 l -0.8,0.61 -0.8,0.5 -0.9,0.5 -1,0.5 -1.8,1 -0.9,0.61 -0.7,0.7 -0.6,0.8 -0.5,0.81 0.9,0.6 0.8,0.3 0.9,0.3 1.8,0.2 h 1.8 l 0.9,-0.1 h 0.9 l 0.8,-0.1 5.4,0.4 5.5,0.2 5.4,0.1 5.5,0.1 h 10.9 l 5.4,0.1 h 5.5 l 5.4,0.2 5.4,0.1 1.4,0.21 1.4,0.1 1.4,0.2 1.4,0.3 1.4,0.2 2.6,0.8 1.4,0.4 1.3,0.5 1.3,0.51 v 1.2 l -8.3,0.3 -8.2,0.2 -8.2,0.1 -8.3,0.1 -8.2,0.1 h -8.2 l -8.2,-0.1 -8.3,-0.1 -8.2,-0.2 -8.3,-0.4 -3.404,-0.2 -3.4,-0.1 -3.4,-0.2 -6.801,-0.2 h -10.2 l -3.4,-0.1 h -3.401 l 0.5,0.5 0.6,0.4 0.3,0.1 0.9,0.6 0.301,0.2 0.2,0.21 h -3.301 l -3.3,0.1 -3.3,0.3 -3.2,0.3 -3.301,0.5 -3.2,0.5 -3.3,0.7 -3.3,0.61 -3.3,0.7 -3.301,0.7 -0.8,0.3 -0.9,0.3 -0.8,0.31 -0.8,0.3 -0.9,0.3 -0.8,0.3 -0.9,0.4 -0.8,0.3 -0.8,0.4 -0.9,0.3 -1.1,0.71 -0.9,0.8 -0.7,0.9 -0.5,1.01 -0.3,1 -0.2,1.1 -0.1,1.21 0.1,1.1 0.2,1.11 0.3,1.1 0.5,1.01 0.6,0.9 0.7,0.8 0.9,0.6 1,0.61 2,1.2 1.1,0.7 1,0.71 1,0.7 0.9,0.5 0.8,0.3 0.9,0.3 0.9,0.2 1.001,0.2 1.8,0.2 1,0.11 1,0.1 0.9,0.1 2.2,0.4 8.4,1.2 2.101,0.3 2.1,0.4 2.1,0.31 2.2,0.3 2.1,0.3 z"
                     fill="#c3b5b0"
                     id="path119" />
                  <path
                     d="m 54.204,214.55 4.1,1.11 4.1,0.9 4.1,0.81 4.201,0.7 4.2,0.6 4.1,0.5 8.401,0.6 4.2,0.2 4.2,0.11 4.704,0.2 14.1,0.6 4.7,0.1 h 4.7 l 4.7,-0.3 4.8,-0.4 4.7,-0.71 4.8,-1.1 h 0.2 l 0.1,-0.1 v -0.2 l 0.1,-0.1 v -0.81 l -7.7,-0.3 -7.6,-0.1 h -7.7 l -15.2,0.2 -7.704,0.1 h -7.7 l -7.701,-0.2 -7.7,-0.5 -7.801,-0.8 h -0.6 l -1.4,-0.4 -0.7,-0.4 -0.6,-0.41 -0.5,-0.4 -0.3,-0.5 -0.1,-0.5 0.2,-0.5 0.4,-0.5 1.6,-0.91 1.7,-0.8 1.8,-0.6 1.901,-0.51 1.9,-0.4 1.9,-0.2 2,-0.2 3.8,-0.2 1.8,-0.2 7.001,-0.3 6.9,-0.2 6.904,-0.2 13.8,-0.2 13.8,0.2 6.9,0.2 7,0.2 6.9,0.3 3.3,0.3 3.2,0.2 9.9,0.6 3.3,0.21 3.3,0.3 3.3,0.2 3.3,0.3 3.2,0.3 1.3,0.1 1.4,0.1 h 5.5 l 1.4,-0.1 h 2.7 l 1.3,-0.1 0.2,1.51 -0.1,1.4 -0.4,1.2 -0.7,1.21 -0.8,1 -1,0.91 -1,0.9 -1.1,0.8 -1.2,0.81 -1.1,0.7 -2.4,1.3 -2.5,1.01 -2.5,0.8 -2.5,0.5 -2.6,0.4 -2.6,0.2 -2.6,0.1 -2.6,-0.1 h -2.7 l -2.6,-0.2 h 6.6 l 3.4,-0.2 3.3,-0.3 3.4,-0.4 3.3,-0.6 3.2,-0.81 3.2,-1.1 3.1,-1.3 2.9,-1.71 h -24.7 l -0.4,-0.1 -0.3,-0.1 -0.3,-0.2 -0.4,-0.4 -0.1,-0.2 v -0.41 l 0.2,-0.2 1,-0.6 1.1,-0.5 1.1,-0.4 1.1,-0.3 1.2,-0.2 1.1,-0.2 1.2,-0.21 1.2,-0.2 1.1,-0.2 1.1,-0.4 -5,-0.5 -5.1,-0.4 -5,-0.4 -5.1,-0.3 -5,-0.41 -10.2,-0.6 -10.2,-0.8 -5.2,-0.6 -1.1,-0.2 -1.1,-0.21 -1.1,-0.2 -1.2,-0.3 -1.1,-0.2 -1.1,-0.1 -1.2,-0.2 -1.1,-0.1 h -1.1 l -1.1,-0.1 -6.3,-0.2 -6.4,-0.2 -6.3,-0.2 h -6.304 l -6.3,-0.2 -6.401,-0.1 -6.3,-0.2 -6.401,-0.41 -6.4,-0.5 -6.5,-0.8 -1.1,-0.1 h -1.101 l -1.1,-0.1 h -1.1 l -1.2,-0.1 -1.1,0.1 h -1.2 l -1.1,0.1 h -1.1 l -1.1,0.1 -0.8,0.3 -0.8,0.4 -0.8,0.5 -0.6,0.71 -0.5,0.7 -0.4,0.8 -0.2,0.71 0.1,0.7 0.2,0.7 0.6,0.5 1.5,0.91 1.5,0.7 1.6,0.6 1.6,0.4 1.7,0.3 3.4,0.4 1.701,0.11 3.4,0.2 z"
                     fill="#c3b5b0"
                     id="path121" />
                  <path
                     d="m 91.006,164.77 2.4,-0.1 2.4,0.1 h 9.604 l 4.8,0.2 h 2.4 l 2.4,0.1 -0.9,0.1 h -2 l -0.9,-0.1 -0.9,-0.2 -1,-0.2 -0.9,-0.3 -0.9,-0.4 -0.8,-0.41 -0.9,-0.5 v -1.2 l 1.7,-0.2 1.7,-0.1 1.6,-0.1 1.7,-0.1 h 1.7 l 3.4,0.2 1.6,0.2 1.7,0.2 1.7,0.3 1.9,0.4 1.9,0.5 1.8,0.5 1.8,0.51 1.9,0.6 1.8,0.6 1.9,0.5 1.9,0.61 1.9,0.5 2,0.5 2.5,0.5 5,0.6 2.4,0.2 5,0.2 2.4,0.11 h 7.5 l -1.2,-0.21 -1.2,-0.4 -1.1,-0.5 -1.2,-0.5 -1.1,-0.5 -1.2,-0.4 -1.2,-0.41 -1.2,-0.4 -1.3,-0.2 -1.3,-0.1 v -0.8 h 1.2 l 1.2,-0.1 h 3.4 l 2.2,-0.2 1,-0.1 1.1,-0.3 1.1,-0.51 v -1.2 l -0.7,-0.4 -0.8,-0.4 -1,-0.3 -0.9,-0.31 -0.9,-0.3 -0.8,-0.3 -0.7,-0.3 -0.4,-0.5 -0.1,-0.5 0.3,-0.71 0.8,-0.7 0.9,-0.4 1,-0.3 1.1,-0.1 1.2,-0.1 1.1,0.1 h 1.2 l 2.4,-0.2 1.1,-0.3 v -0.81 l -2,-0.5 -4,-0.6 -2,-0.1 -6,-0.6 -2,-0.3 -2,-0.41 -2,-0.7 -0.5,-0.1 h -0.5 l -0.5,-0.1 -0.6,-0.1 h -2.1 l -0.5,-0.1 h -0.5 l -1.2,-0.2 -0.7,-0.1 -1.2,-0.4 -0.7,-0.1 -0.6,-0.3 -0.5,-0.2 -0.6,-0.31 -0.5,-0.4 -0.4,-0.2 -1,-0.2 -0.6,-0.1 -0.5,-0.2 -0.4,-0.1 -0.4,-0.2 -0.1,-0.2 v -0.3 l 0.2,-0.5 0.8,-1.01 1,-0.7 1.1,-0.4 1.2,-0.3 1.3,-0.2 1.3,-0.1 1.3,-0.21 1.3,-0.3 1.2,-0.5 1.1,-0.7 v -1.61 l -0.7,-0.3 -4.8,-1.8 -0.8,-0.41 -0.7,-0.5 -0.6,-0.6 v -1.2 l 2.3,-0.31 2.2,-0.2 2.3,-0.1 h 6.6 l 2.3,0.1 2.2,0.1 h 4.5 l 2.3,0.2 2.3,0.31 4.6,0.6 4.6,0.4 2.3,0.1 h 2.4 l 2.3,-0.3 2.4,-0.5 h 0.1 v -0.2 l -0.1,-0.2 v -0.21 l -0.4,-0.8 v -0.2 l -1.7,-0.8 -1.8,-0.7 -1.9,-0.51 -3.8,-1 -3.6,-1.2 -1.6,-0.91 -1.5,-1.1 -1.3,-1.41 -0.3,-0.5 v -0.5 l 0.2,-0.4 0.5,-0.4 0.5,-0.41 0.6,-0.3 0.7,-0.4 0.6,-0.4 0.5,-0.5 0.3,-0.6 v -1.61 l -1.3,-0.6 -1.4,-0.5 -1.5,-0.41 -1.4,-0.4 -1.4,-0.5 -1.3,-0.4 -1.3,-0.5 -1.2,-0.71 -1.1,-0.9 -0.9,-1 -0.3,-0.5 -0.2,-0.51 -0.1,-0.4 0.1,-0.4 0.1,-0.3 0.2,-0.4 0.2,-0.3 0.8,-0.6 0.4,-0.21 0.3,-0.3 0.1,-0.2 v -0.3 l -0.1,-0.2 v -0.5 l 0.1,-0.1 -2.6,-0.8 -1.4,-0.31 -1.3,-0.4 -1.3,-0.3 -2.6,-0.8 -1.4,-0.3 -1.3,-0.4 -1.3,-0.31 0.8,-0.4 h 1.2 l 0.4,-0.1 h 0.8 l 0.4,-0.2 0.4,-0.1 -4.4,-0.4 -4.5,-0.2 -4.4,-0.2 -4.5,-0.1 -4.4,-0.1 -4.4,-0.2 -4.5,-0.1 -4.4,-0.2 -4.5,-0.2 -4.4,-0.31 1.2,0.61 1.4,0.6 1.5,0.5 1.5,0.4 1.5,0.6 1.3,0.51 1.1,0.7 0.8,0.9 0.5,1.01 v 1.4 l -0.2,0.5 -0.4,0.4 -0.6,0.41 -0.6,0.3 -0.6,0.4 -1.2,0.6 -0.3,0.4 -0.2,0.4 0.1,0.51 0.4,0.7 0.6,0.5 0.7,0.3 0.8,0.3 0.9,0.1 0.8,0.2 0.9,0.2 0.9,0.21 0.8,0.3 0.8,0.4 -0.6,0.5 -0.6,0.3 -0.7,0.1 -0.6,0.1 -0.7,0.1 h -1.9 l -0.7,0.1 -0.6,0.1 2.4,-0.1 h 7.2 l 2.4,-0.1 2.4,0.1 h 2.4 l 4.8,0.2 2.4,0.2 0.6,0.2 0.7,0.11 0.6,0.1 0.7,0.2 0.6,0.1 0.7,0.2 0.6,0.1 0.7,0.2 1.2,0.4 0.4,0.2 0.4,0.1 0.5,0.1 0.4,0.2 1,0.4 0.5,0.3 0.4,0.31 0.8,0.8 v 1.6 l -1.9,1.01 -2,0.7 -2,0.5 -2.1,0.4 -2,0.21 -2.1,0.3 -2.1,0.2 -2.1,0.3 -2,0.3 -2.1,0.5 -0.4,0.2 -0.4,0.3 -0.2,0.3 -0.2,0.31 -0.1,0.4 v 0.9 l 0.1,0.5 0.2,0.4 0.2,0.3 0.6,0.51 0.7,0.3 1.4,0.4 0.8,0.2 0.7,0.1 0.8,0.2 0.7,0.2 0.8,0.2 0.7,0.3 v 1.21 l -2.4,1 -2.5,0.6 -2.5,0.51 -5,0.4 -5.2,0.4 -2.5,0.4 -2.6,0.4 -2.5,0.7 v 1.21 l 0.7,0.9 0.9,0.5 1,0.41 1,0.3 2.2,0.4 1,0.3 0.8,0.5 0.7,0.6 0.5,0.91 -0.8,0.5 -2.7,0.9 -2.7,0.6 -0.9,0.31 -0.8,0.2 -0.9,0.3 -0.8,0.2 -1.8,0.2 h -1.6 l -0.8,0.1 -0.8,0.2 -0.7,0.3 -0.6,0.4 -0.5,0.61 -0.1,0.4 v 0.2 l 0.2,0.3 0.3,0.2 0.4,0.1 0.4,0.2 0.5,0.2 0.4,0.3 0.4,0.2 0.3,0.3 v 1.21 l -0.5,0.5 -0.6,0.3 -0.7,0.3 -0.6,0.2 -0.7,0.2 -0.6,0.31 -0.6,0.3 -0.6,0.4 -0.4,0.5 -0.304,0.6 0.204,0.1 h 0.2 l 0.2,0.1 0.2,0.2 0.1,0.2 0.2,0.1 0.1,0.11 h 0.4 z"
                     fill="#c3b5b0"
                     id="path123" />
                  <path
                     d="m 111.01,88.485 -0.1,0.1 -0.2,0.1 h -0.4 l -0.4,-0.2 -0.1,-0.101 h -0.1 l 0.1,0.101 1.7,0.903 1.7,0.602 1.7,0.301 1.8,0.201 h 1.7 l 1.7,-0.1 1.8,-0.201 1.7,-0.1 1.7,-0.101 1.7,0.101 -1.1,-0.101 -1,-0.1 -1.1,-0.101 -1.1,-0.1 -1,-0.1 -1.1,-0.201 -1,-0.201 -1,-0.401 -1,-0.502 -1,-0.602 0.8,-0.101 h 0.8 l 0.8,-0.1 h 0.8 l 0.8,-0.101 0.8,-0.2 0.8,-0.101 0.8,-0.2 1.6,-0.402 -0.6,-0.502 -2.1,-0.903 -0.7,-0.101 -0.7,-0.2 -0.7,-0.201 -0.7,-0.1 -0.7,-0.201 -0.6,-0.201 -0.5,-0.301 -0.5,-0.1 -0.4,-0.201 -0.5,-0.101 -0.5,-0.1 -0.5,-0.201 -0.5,-0.1 -0.4,-0.201 -0.5,-0.1 -1,-0.402 -0.5,-0.1 -0.6,-0.201 -1,-0.602 -0.5,-0.402 -0.5,-0.401 -0.3,-0.502 -0.3,-0.602 -0.2,-0.602 h 0.2 l 0.2,0.1 0.2,-0.1 h 0.2 l 0.2,-0.101 0.2,-0.1 0.2,-0.101 0.2,-0.1 h 0.4 l -0.5,-0.602 -1.2,-1.004 -0.7,-0.401 -0.7,-0.302 -0.7,-0.301 -0.8,-0.301 -0.7,-0.301 -0.8,-0.201 -0.7,-0.2 -0.2,-0.201 -0.3,-0.1 -0.2,-0.101 -0.2,-0.201 -0.1,-0.1 -0.2,-0.201 -0.1,-0.1 v -0.402 l 0.1,-0.2 0.6,-0.502 0.7,-0.301 0.7,-0.201 1.6,-0.402 0.6,-0.301 0.4,-0.401 0.3,-0.502 -0.1,-0.602 -0.4,-0.803 -0.5,-0.502 -0.6,-0.502 -0.6,-0.402 -0.6,-0.501 -0.5,-0.402 -0.4,-0.502 -0.3,-0.602 -0.1,-0.502 0.1,-0.703 0.3,-0.602 0.1,-0.301 0.2,-0.201 0.1,-0.2 0.2,-0.201 0.2,-0.402 0.1,-0.301 v -0.502 l -0.1,-0.301 -0.3,-0.401 -0.3,-0.201 -0.3,-0.301 -0.3,-0.201 -0.4,-0.1 -0.3,-0.201 -0.4,-0.201 -0.3,-0.301 -0.3,-0.201 -0.3,-0.301 h 4.4 -1 l -1.1,0.201 -1.1,0.301 -1,0.402 -0.9,0.501 -0.804,0.502 -0.6,0.703 -0.3,0.803 v 0.803 l 0.4,1.004 0.604,0.803 0.7,0.803 0.8,0.702 1.6,1.606 0.7,0.803 0.7,0.904 0.4,1.003 0.2,1.004 -0.1,1.205 -0.3,0.401 -0.3,0.402 -0.8,0.602 -0.5,0.301 -0.5,0.201 -0.5,0.2 -1,0.402 -0.5,0.301 -0.2,0.1 -0.1,0.101 -0.1,0.201 -0.1,0.2 v 0.502 l 0.1,0.201 v 0.401 h 0.1 v 0.101 l 0.1,0.1 h 0.4 l 0.1,0.101 h 0.1 v 0.803 l -0.8,0.1 h -0.804 l -0.8,0.1 -0.8,0.101 h -3.2 l -0.8,0.1 h -0.8 l 0.5,0.602 0.6,0.603 0.6,0.602 1.2,1.004 0.6,0.401 0.5,0.502 0.5,0.602 0.4,0.602 0.3,0.703 0.1,0.402 0.2,0.501 0.1,0.502 0.2,0.402 0.2,0.401 0.3,0.402 0.3,0.301 0.404,0.301 1,0.402 h 4.8 z"
                     fill="#c3b5b0"
                     id="path125" />
                  <path
                     d="m 95.006,58.372 0.5,0.101 1,0.2 0.5,0.101 h 1.5 l 0.5,-0.101 0.4,-0.1 0.4,-0.201 0.1,-0.1 -0.1,-0.101 -0.1,-0.2 -0.1,-0.301 -0.2,-0.201 -0.2,-0.402 -0.3,-0.903 0.1,-0.201 0.6,-0.502 0.704,-0.401 0.7,-0.301 0.8,-0.301 0.7,-0.302 1.2,-0.802 0.6,-0.502 0.4,-0.603 0.3,-0.702 h -0.8 l -0.3,0.1 -0.3,0.101 -0.6,0.2 -0.3,0.101 -0.2,0.1 -0.3,0.201 -0.6,0.201 -0.6,0.301 -0.5,0.401 -0.604,0.301 -0.5,0.402 -0.6,0.401 -0.6,0.402 -0.6,0.401 -0.7,0.402 -0.7,0.401 z"
                     fill="#c3b5b0"
                     id="path127" />
                  <path
                     d="m 53.403,194.48 2.801,-0.1 h 8.3 l 2.7,-0.1 2.801,-0.1 2.7,-0.2 5.6,-0.4 2.7,-0.4 -0.7,-0.21 -2.8,-0.4 h -0.7 l -0.7,-0.1 -0.6,-0.1 -0.7,-0.1 -0.6,-0.3 v -0.8 l 1,-0.4 1,-0.31 1.1,-0.1 h 2.1 l 1.1,0.1 h 1.1 l 1,-0.1 1,-0.3 1,-0.5 v -1.2 l 1.701,-0.5 1.8,-0.41 1.7,-0.4 1.8,-0.2 1.9,-0.2 3.6,-0.2 h 3.704 l 1.8,-0.1 h -5.504 l -2.8,-0.1 -2.7,-0.1 h -8.301 l -2.8,0.1 -2.7,0.2 -2.8,0.3 -2.1,0.6 -0.8,0.2 -0.7,0.2 -0.7,0.31 -0.7,0.2 -0.701,0.2 -0.8,0.2 -0.7,0.1 -3.1,0.6 -3.2,0.4 -3.2,0.5 -3.1,0.41 -3.101,0.5 -3,0.7 -2.9,0.9 -2.8,1.21 -2.7,1.4 -2.501,1.81 h 8.001 l -1.3,-0.1 h -1.3 l -1.3,0.1 -1.4,0.2 -1.3,0.2 -1.301,0.3 -2.6,0.6 -1.4,0.21 -1.3,0.1 1.5,0.1 1.4,0.1 1.4,-0.1 1.501,-0.1 1.4,-0.2 1.5,-0.21 1.4,-0.2 1.4,-0.3 1.5,-0.3 1.4,-0.4 z"
                     fill="#d1c6c2"
                     id="path129" />
                  <path
                     d="m 122.61,194.08 3,-0.1 h 3 l 3,0.1 h 9 l 3,-0.1 3,-0.3 3,-0.5 3,-0.81 h -19.6 z"
                     fill="#d1c6c2"
                     id="path131" />
                  <path
                     d="m 177.81,216.56 1.6,0.2 3.2,0.2 h 9.6 l 1.6,-0.1 0.4,-0.1 0.4,-0.2 0.3,-0.2 0.4,-0.2 0.7,-0.7 v -0.4 l -0.2,-0.2 -2.1,-0.81 -2.1,-0.6 -2.2,-0.5 -2.2,-0.3 -2.2,-0.2 h -11.2 z"
                     fill="#d1c6c2"
                     id="path133" />
                  <path
                     d="m 26.602,219.37 h -3.701 l -1,-0.2 -0.5,-0.3 -1,-0.4 -0.9,-0.4 -1,-0.5 -1,-0.41 -1,-0.5 -1.8,-1 -0.9,-0.7 -0.8,-0.81 -0.8,-0.9 -0.3,-0.7 -0.2,-0.71 -0.2,-0.7 v -2.21 l 0.1,-0.7 0.4,-1.4 0.2,-0.81 0.2,-0.7 0.4,-0.6 0.6,-0.5 0.7,-0.3 0.8,-0.31 0.8,-0.2 0.9,-0.1 h 1.6 l 0.8,-0.1 h -0.9 l -0.3,0.1 -0.4,0.1 -0.2,0.2 -0.3,0.31 -0.4,0.6 -0.2,0.4 -0.1,0.3 -0.2,1 -0.2,1.01 -0.2,1.1 -0.1,1.01 -0.1,1 0.1,1.1 0.1,0.91 0.3,0.9 0.5,0.9 0.6,0.71 z"
                     fill="#d1c6c2"
                     id="path135" />
                  <path
                     d="m 116.61,160.75 3.2,0.2 3.2,0.31 3.2,0.2 9.6,0.9 9.6,0.6 3.2,0.1 h -1.9 l -1.8,-0.2 -1.9,-0.4 -1.8,-0.4 -1.8,-0.5 -1.8,-0.4 -1.8,-0.51 -1.8,-0.5 -1.9,-0.4 -1.9,-0.3 h 14.4 l -0.9,-0.9 -0.4,-0.31 -0.3,-0.3 -1.2,-0.6 -0.4,-0.1 -0.4,-0.2 -1.5,-0.4 -1.5,-0.3 -1.5,-0.2 -1.5,-0.3 -1.5,-0.2 -1.6,-0.31 -1.5,-0.4 -1.4,-0.6 -1.4,-0.7 -1.4,-1.01 h 1.9 l 1,-0.1 1,-0.2 1,-0.1 1,-0.2 1,-0.1 1,-0.2 1,-0.1 1.1,-0.2 h 0.3 l 0.4,-0.4 0.1,-0.2 0.1,-0.1 v -0.3 l -0.1,-0.21 -1,-0.4 -1,-0.3 -1,-0.4 -1.1,-0.2 -2.2,-0.6 -1,-0.3 -1.1,-0.4 -1,-0.41 -1,-0.6 1,-0.2 3,-0.3 h 2 l 1,-0.1 h 1 l 2,-0.2 0.2,-0.1 0.2,-0.2 v -0.2 l 0.1,-0.2 v -0.61 l -0.1,-0.1 v -0.2 l -1.9,-0.3 -2,-0.2 -1.9,-0.1 -4,0.2 -2,0.2 -1.9,0.1 -4,0.2 -1.9,-0.1 0.8,0.81 0.8,0.6 0.9,0.6 1.8,0.8 0.9,0.5 0.8,0.41 0.8,0.6 0.7,0.6 0.5,0.7 0.4,0.91 v 0.8 l -0.3,0.6 -0.5,0.5 -0.8,0.41 -0.9,0.4 -1,0.2 -2,0.2 h -0.9 v 1.2 l 0.5,0.4 0.5,0.21 0.4,0.2 0.5,0.2 0.5,0.1 0.5,0.2 0.5,0.1 h 0.4 l 1,0.2 -1.3,0.1 h -1.3 l -1.4,0.1 -3.9,0.3 h -1.3 l -1.4,0.1 -2.6,-0.2 1.5,0.8 1.5,0.61 1.5,0.5 1.6,0.4 3.2,0.6 1.7,0.3 1.7,0.2 1.6,0.3 1.7,0.31 z"
                     fill="#d1c6c2"
                     id="path137" />
                  <path
                     d="m 151.41,131.04 -0.2,0.1 -0.3,0.2 -0.3,0.31 -0.2,0.2 -0.4,0.6 -0.2,0.2 -0.1,0.2 v 0.1 h 0.1 l 2.2,0.4 2.1,0.2 2.2,0.1 h 6.5 l 2.1,-0.1 2.2,-0.1 h 2.1 l 2.2,-0.1 -1.5,-0.3 -1.6,-0.3 -1.5,-0.4 -1.5,-0.3 -1.4,-0.4 -1.5,-0.41 -1.5,-0.5 -1.4,-0.5 -1.5,-0.6 -1.4,-0.7 -0.1,-0.1 -0.1,-0.11 -0.1,-0.2 v -0.4 l -0.1,-0.1 v -0.7 l 0.6,-0.2 0.7,-0.1 0.6,-0.1 1.4,-0.2 h 0.7 l 2.1,-0.3 0.7,-0.31 v -1.2 l -0.9,-0.3 -1,-0.3 -1.8,-0.6 -0.9,-0.31 -1,-0.3 -0.9,-0.2 -1,-0.3 -1,-0.2 -1.1,-0.3 h -0.4 l -0.3,-0.1 -0.3,-0.2 -0.2,-0.2 -0.3,-0.1 -0.2,-0.3 -0.1,-0.2 v -0.2 l 0.2,-0.31 0.6,-0.3 0.7,-0.3 0.8,-0.1 0.7,-0.1 h 1.5 l 0.7,-0.1 0.7,-0.2 0.6,-0.4 0.5,-0.4 -0.7,-0.3 -0.8,-0.21 -0.7,-0.2 -1.6,-0.4 -0.8,-0.1 -0.7,-0.2 -1.6,-0.4 -0.7,-0.2 0.5,-0.1 h 1.3 l 0.4,-0.1 0.3,-0.1 0.8,-0.4 0.3,-0.2 0.4,-0.41 v -1.1 l -1.8,-0.9 -1.9,-0.61 -2,-0.4 -1.9,-0.3 -2,-0.1 -2.1,-0.1 h -7.9 l -0.1,-0.1 -0.2,-0.1 h -0.1 l -0.2,-0.1 h -0.4 l -0.1,-0.1 -0.4,-0.2 -0.1,-0.2 h 5.6 l -1.1,-0.1 h -6.5 l -1,0.1 -1.1,0.1 -1.1,0.3 -0.5,0.1 -0.4,0.2 -0.5,0.3 -0.6,0.6 -0.3,0.31 -0.1,0.4 v 0.3 l 0.1,0.3 0.3,0.3 1.2,0.7 1.3,0.61 1.4,0.5 2.8,0.8 1.5,0.3 1.4,0.3 1.5,0.3 1.5,0.4 1.4,0.51 h 0.6 l 0.7,0.1 h 0.6 l 0.7,0.1 h 0.7 l 0.6,0.2 0.5,0.3 0.5,0.4 0.4,0.5 0.3,0.71 h -4.8 l 4.2,0.3 1.4,0.2 1.4,0.3 2.6,0.8 1.4,0.6 1.3,0.71 1.3,0.7 v 0.3 l 0.1,0.2 v 0.5 l -0.1,0.2 v 0.2 l -0.4,0.2 z"
                     fill="#d1c6c2"
                     id="path139" />
                  <path
                     d="m 105.01,84.871 1,0.402 1,0.401 1,0.301 1,0.201 1.1,0.301 1,0.1 1.1,0.101 1.1,0.1 h 1 l 1.1,0.101 -0.9,-0.402 -0.9,-0.201 -1,-0.2 -2,-0.402 -1,-0.301 -0.9,-0.402 -0.8,-0.401 -0.7,-0.602 -0.6,-0.703 0.5,-0.1 0.5,-0.101 h 0.5 l 0.4,-0.1 h 1 l 0.5,-0.1 0.4,-0.101 0.5,-0.1 0.5,-0.201 -0.9,-0.201 -1,-0.2 h -3.6 l -0.9,0.1 h -0.9 l -0.9,-0.1 h -1 z"
                     fill="#d1c6c2"
                     id="path141" />
                </g>
              </g>
            </g>
          </g>
        </g>
      </g>
      <g
         id="g285">
        <g
           clip-path="url(#pano-nuevoh)"
           id="g283">
          <text
             transform="matrix(1,0,0,-1,75.048,346.63)"
             fill="#ffff00"
             font-family="Calibri"
             font-size="36px"
             font-weight="bold"
             xml:space="preserve"
             id="text281"><tspan
               x="0 15.228 24.084 43.416 61.523998 74.304001 86.795998 95.652 114.984 132.76801 142.056"
               y="0"
               id="tspan279">Libertinaje</tspan></text>
        </g>
      </g>
      <g
         id="g293">
        <g
           clip-path="url(#pano-nuevog)"
           id="g291">
          <text
             transform="matrix(1,0,0,-1,64.488,303.43)"
             fill="#ffff00"
             font-family="Calibri"
             font-size="36.024px"
             font-style="italic"
             xml:space="preserve"
             id="text289"><tspan
               x="0 30.80052 49.316856 61.673088 76.442924 94.923241 108.93658 117.078 135.34216 144.85251 163.11667"
               y="0"
               id="tspan287">Marcos 7:21</tspan></text>
        </g>
      </g>
      <g
         id="g381">
        <g
           clip-path="url(#pano-nuevob)"
           id="g379">
          <text
             transform="matrix(1,0,0,-1,50.688,206.33)"
             fill="#ffff00"
             font-family="Calibri"
             font-size="32.064px"
             font-weight="bold"
             xml:space="preserve"
             id="text377"><tspan
               x="0 20.200319 36.32851 51.110016 67.238205 84.360382 100.48858 111.13383 126.97344 140.37619 148.26393 165.57849"
               y="0"
               id="tspan375">Degeneracion</tspan></text>
        </g>
      </g>
      <g
         id="g389">
        <g
           clip-path="url(#pano-nuevoa)"
           id="g387">
          <text
             transform="matrix(1,0,0,-1,90.408,167.9)"
             fill="#ffff00"
             font-family="Calibri"
             font-size="32.04px"
             font-weight="bold"
             xml:space="preserve"
             id="text385"><tspan
               x="0 8.5546799 25.76016 51.808681 69.046204 79.811638 95.639397"
               y="0"
               id="tspan383">Inmoral</tspan></text>
        </g>
      </g>
    </g>
  </g>
</svg>
