<svg width="988.04" height="792.03" overflow="hidden" inkscape:version="1.2.2 (b0a84865, 2022-12-01)" sodipodi:docname="pacto-davidico4-opt.svg" version="1.1" viewBox="0 0 3293.5 2640.1" xmlns="http://www.w3.org/2000/svg" xmlns:inkscape="http://www.inkscape.org/namespaces/inkscape" xmlns:sodipodi="http://sodipodi.sourceforge.net/DTD/sodipodi-0.dtd" xmlns:xlink="http://www.w3.org/1999/xlink">
    <sodipodi:namedview bordercolor="#000000" borderopacity="0.25" inkscape:current-layer="svg38270" inkscape:cx="-721.2839" inkscape:cy="156.80085" inkscape:deskcolor="#d1d1d1" inkscape:pagecheckerboard="0" inkscape:pageopacity="0.0" inkscape:showpageshadow="2" inkscape:window-height="430" inkscape:window-maximized="0" inkscape:window-width="1309" inkscape:window-x="0" inkscape:window-y="38" inkscape:zoom="0.095662748" pagecolor="#ffffff" showgrid="false"/>
    <defs>
        <filter id="fx0" x="-343.4" y="-246.7" width="4120.8" height="2960.4" filterUnits="userSpaceOnUse">
            <feComponentTransfer color-interpolation-filters="sRGB">
                <feFuncR tableValues="0.752941 0.752941" type="discrete"/>
                <feFuncG tableValues="0.752941 0.752941" type="discrete"/>
                <feFuncB tableValues="0.752941 0.752941" type="discrete"/>
                <feFuncA slope="0.8" type="linear"/>
            </feComponentTransfer>
            <feGaussianBlur stdDeviation="0 0"/>
        </filter>
        <clipPath id="clip6">
            <rect width="2615" height="195"/>
        </clipPath>
        <clipPath id="clipPath38411">
            <rect width="3434" height="2467"/>
        </clipPath>
        <clipPath id="clipPath38417">
            <g transform="translate(-408,-55)">
                <rect width="3434" height="2467"/>
            </g>
        </clipPath>
    </defs>
    <g transform="matrix(1 0 0 1 158.45 100.09)">
        <g transform="translate(4991.5 1864.6)">
            <path d="m-5149.9-1964.6h3293.3v2640h-3293.3z" style="stroke-width:5.8797"/>
            <path d="m-3663.9-1385.7c-28.993 0-52.549 23.555-52.549 52.549 0 28.993 23.556 52.368 52.549 52.368 28.993 0 52.554-23.375 52.554-52.368 0-28.993-23.56-52.549-52.554-52.549zm432.71 0c-28.993 0-52.549 23.555-52.549 52.549 0 28.993 23.556 52.368 52.549 52.368 28.993 0 52.549-23.375 52.549-52.368 0-28.993-23.556-52.549-52.549-52.549zm-571.25 35.649c-26.674 0-48.325 21.646-48.325 48.32 0 26.674 21.651 48.325 48.325 48.325 26.674 0 48.325-21.651 48.325-48.325 0-26.674-21.651-48.32-48.325-48.32zm709.79 0c-26.674 0-48.325 21.646-48.325 48.32 0 26.674 21.651 48.325 48.325 48.325 26.674 0 48.325-21.651 48.325-48.325 0-26.674-21.651-48.32-48.325-48.32zm-835.85 59.902c-23.774 0-42.998 19.218-42.998 42.993 0 23.774 19.224 43.179 42.998 43.179 23.775 0 42.993-19.404 42.993-43.179 0-23.775-19.219-42.993-42.993-42.993zm961.86 0c-23.775 0-42.993 19.218-42.993 42.993 0 23.774 19.219 43.179 42.993 43.179 23.774 0 42.998-19.404 42.998-43.179 0-23.775-19.224-42.993-42.998-42.993zm-629.13 16.904-19.478 2.9394c-164.85 24.82-319.51 89.679-442.45 158.01-122.93 68.334-213.1 138.9-252.82 181.72l37.48 34.726c31.97-34.465 121.34-105.66 240.33-171.8 113.98-63.354 256.19-122.81 405.52-148.46 6.9661 15.604 13.797 31.607 20.596 48.687 14.538 36.521 28.855 80.753 43.525 156.18h50.161c-17.234-88.6-35.058-144.25-52.412-188.91-7.7001-19.817-15.327-38.204-22.734-55.093zm296.37 0-7.7148 18.003c-24.103 54.95-50.272 116.1-75.151 244.01h50.161c21.533-110.7 42.265-155.9 64.126-204.87 149.32 25.644 291.54 85.108 405.51 148.46 118.99 66.14 208.36 137.33 240.33 171.8l37.485-34.726c-39.722-42.822-129.89-113.38-252.83-181.71-122.93-68.334-277.59-133.2-442.45-158.02zm-148.28 3.4912c-24.354 0-44.097 19.743-44.097 44.097 0 24.354 19.742 44.097 44.097 44.097 24.354 0 44.102-19.743 44.102-44.097 0-24.354-19.748-44.097-44.102-44.097zm-592.2 35.273c-22.035 0-39.868 17.838-39.868 39.873 0 22.035 17.834 39.873 39.868 39.873s40.059-17.838 40.059-39.873c0-22.035-18.023-39.873-40.059-39.873zm1184.6 0c-22.035 0-40.054 17.838-40.054 39.873 0 22.035 18.018 39.873 40.054 39.873 22.035 0 39.873-17.838 39.873-39.873 0-22.035-17.838-39.873-39.873-39.873zm-1297.9 71.294c-20.875 0-37.666 16.976-37.666 37.852s16.791 37.847 37.666 37.847 37.852-16.972 37.852-37.847-16.976-37.852-37.852-37.852zm1411.3 0c-20.875 0-37.847 16.976-37.847 37.852s16.972 37.847 37.847 37.847c20.875 0 37.671-16.972 37.671-37.847s-16.796-37.852-37.671-37.852zm-705.74 5.8789c-20.875 0-37.666 16.976-37.666 37.852 0 20.875 16.791 37.666 37.666 37.666 20.875 0 37.852-16.791 37.852-37.666 0-20.875-16.976-37.852-37.852-37.852zm-806.22 69.819c-18.556 0-33.623 15.072-33.623 33.628 0 18.556 15.067 33.623 33.623 33.623 18.556 0 33.623-15.067 33.623-33.623 0-18.556-15.067-33.628-33.623-33.628zm1612.7 0c-18.556 0-33.628 15.072-33.628 33.628 0 18.556 15.072 33.623 33.628 33.623 18.556 0 33.623-15.067 33.623-33.623 0-18.556-15.067-33.628-33.623-33.628zm-1352.3 8.4521h0.02zm0.01 0c-42.082 65.308-44.764 147.48-25.82 238.93 2.9207 14.101 4.9588 27.825 8.9209 42.373-15.591-6.6353-30.299-11.056-44.443-14.204-114.07-25.39-180.15 55.943-180.57 143.18-0.2834 58.49 28.84 119.47 92.725 152.33-13.066-70.227-0.551-145.16 75.698-153.24 40.78-4.3224 88.682 7.2148 94.438 81.953 4.0523 52.574-40.503 178.1-180.62 176.39-82.608-1.0256-169.93-31.469-214.43-152.62-2.6642-7.2536-5.7384-13.641-8.081-21.567-15.458-52.301-15.193-49.746 36.196-28.477 5.7316 2.3723 13.425 7.6007 20.288 11.66 17.22 10.186 37.289 24.289 67.354 50.259-1.1001-21.72-6.4419-56.606-13.262-93.149-11.627-62.304-29.01-130.99-47.559-158.76-39.294 27.78-43.488 60.519-117.59 81.763 26.331-50.963 50.755-102.97 88.193-159.49-78 5.8192-124.92 24.52-176.39 35.644 12.07 50.056 24.327 99.471 41.89 138.54-38.618 74.866-6.2986 108.52 33.628 144.97 4.0001 3.6518 11.49 19.668 19.912 42.554 25.81 70.136 60.625 206.39 32.637 261.9-19.57 38.821-8.1278 80.334 18.926 98.667 30.265 20.513 57.455 46.868 82.134 74.048 31.602 34.803 24.249 38.396 63.022 17.085 136.49-75.019 434.09-126.59 778.88-126.59s642.36 51.574 778.88 126.59c38.772 21.31 31.42 17.718 63.022-17.085 24.678-27.178 51.868-53.534 82.134-74.048 27.053-18.336 38.496-59.849 18.926-98.667-37.121-73.631 36.29-289.62 52.549-304.46 39.926-36.45 72.242-70.105 33.623-144.97 17.562-39.07 29.825-88.482 41.895-138.54-51.468-11.125-98.392-29.825-176.39-35.644 37.438 56.517 61.869 108.52 88.198 159.49-74.108-21.246-78.304-53.985-117.6-81.763-29.427 44.062-57.838 193.15-60.816 251.91 42.049-36.322 67.533-53.596 87.642-61.919 51.39-21.27 51.654-23.825 36.196 28.477-41.467 140.31-134.96 173.1-222.51 174.18-140.11 1.7135-184.67-123.81-180.62-176.39 5.7604-74.737 53.662-86.275 94.438-81.953 76.248 8.0822 88.768 83.01 75.703 153.24 170.99-87.96 93.32-377.33-132.29-281.31 29.661-108.91 31.67-205.93-16.904-281.31-58.726 59.02-127.55 109.01-104.92 268.63-42.482-30.47-79.457-61.14-117.59-52.363-51.415 11.836-98.2 32.712-107.12 113.36-6.2256 56.318 26.162 110.02 69.268 144.79 5.7465-55.264 15.968-103.44 77.725-104.92 70.909-1.6949 84.077 56.871 81.948 102.9-2.9503 63.73-89.167 138.51-199.55 130.27-110.63-8.2597-206.51-102.56-204.87-216.81 35.023 8.4027 79.085 44.81 99.399 62.29 3.9119 3.3662 17.578 3.1127 21.499 3.3056v-238.86c-5.1376 0.1141-15.68-1.3503-21.865 2.3926-31.734 19.204-69.444 80.166-91.499 74.78 17.134-70.027 63.934-154.24 65.039-182.82h-227.1c1.1068 28.585 47.907 112.8 65.039 182.82-22.055 5.3896-59.766-55.574-91.499-74.78-6.1849-3.7429-16.728-2.2784-21.865-2.3926v238.86c3.9205-0.1929 17.582 0.061 21.494-3.3056 20.313-17.478 64.385-53.886 99.404-62.29 1.6501 114.25-94.235 208.55-204.87 216.81-110.37 8.2404-196.59-66.539-199.54-130.27-2.1308-46.024 11.034-104.59 81.948-102.9 61.754 1.4761 71.974 49.652 77.725 104.92 43.107-34.764 75.494-88.47 69.268-144.79-8.916-80.651-55.703-101.53-107.12-113.36-38.136-8.7795-75.117 21.894-117.6 52.363 7.7238-54.472 4.2539-95.517-5.2881-129.17-18.418-64.959-60.94-100.58-99.624-139.46zm545.9 21.494c-15.076 0-27.192 12.116-27.192 27.192 0 15.077 12.116 27.378 27.192 27.378 15.077 0 27.378-12.302 27.378-27.378s-12.302-27.192-27.378-27.192zm-888.18 49.795c-15.077 0-27.378 12.302-27.378 27.378s12.302 27.192 27.378 27.192c15.076 0 27.378-12.116 27.378-27.192s-12.302-27.378-27.378-27.378zm1776.6 0c-15.077 0-27.373 12.302-27.373 27.378s12.297 27.192 27.373 27.192c15.076 0 27.378-12.116 27.378-27.192s-12.302-27.378-27.378-27.378zm-888.12 844.84c-425.62 0-770.59 87.076-770.59 136.52 0 45.246 344.98 122.74 770.59 122.74 425.61 0 770.59-77.495 770.59-122.74 0-49.442-344.98-136.52-770.59-136.52z" style="fill:#cccccc;stroke-width:5.8797"/>
        </g>
        <path d="m138.8 54.546h2737.9v2354.1h-2737.9z" style="fill:#1a1a1a;opacity:.43533;stroke-miterlimit:4.7;stroke-width:24.95"/>
    </g>
    <text x="813.82343" y="542.54559" fill="#ffff00" font-family="'Times New Roman', 'Times New Roman_MSFontService', sans-serif" font-weight="400">¿Porque importa esto?<tspan x="-37.530548" y="824.54559" font-family="Arial, Arial_MSFontService, sans-serif" font-size="183px">•</tspan><tspan x="168.71945" y="824.54559" font-size="183px">Al comprender</tspan><tspan x="1319.7085" y="824.54559" font-size="183px">el</tspan><tspan x="1497.8865" y="824.54559" font-size="183px">Pacto Davídico</tspan><tspan x="168.71945" y="1044.5455" font-size="183px">sabemos que la paz mundial no llegará a</tspan><tspan x="168.71945" y="1264.5455" font-size="183px">través de la actividad social y política</tspan><tspan x="168.71945" y="1484.5455" font-size="183px">de la iglesia.</tspan></text>
    <g transform="translate(267.47 141.55)" clip-path="url(#clipPath38417)" filter="url(#fx0)">
        <g clip-path="url(#clip6)">
            <path d="m1625.1 91.828c-18.49 4.1398-30.42 7.0722-35.81 8.7971-9.67 3.036-16.58 6.21-20.74 9.521-4.16 3.312-6.25 6.935-6.25 10.867 0 4.968 2.64 9.091 7.9 12.368s11.32 4.916 18.18 4.916c9.3 0 21.54-3.45 36.72-10.349v-36.12zm-909.28 0c-18.483 4.1398-30.417 7.0722-35.803 8.7971-9.669 3.036-16.585 6.21-20.747 9.521-4.161 3.312-6.242 6.935-6.242 10.867 0 4.968 2.632 9.091 7.895 12.368s11.322 4.916 18.176 4.916c9.303 0 21.543-3.45 36.721-10.349v-36.12zm-196.23-26.081c-5.876 0-11.69 0.828-17.442 2.4839-4.407 1.2419-11.69 4.9677-21.849 11.177v35.395c0 7.658 0.551 12.695 1.652 15.11 1.714 4.002 5.906 7.521 12.577 10.556 6.671 3.036 15.086 4.554 25.245 4.554 12.24 0 22.155-2.691 29.744-8.072 9.914-7.038 14.871-16.939 14.871-29.703 0-14.49-5.63-25.632-16.891-33.429-7.834-5.3817-17.136-8.0726-27.907-8.0726zm2007.4-8.2796c-6.49 0-13.01 1.0867-19.56 3.2601s-11.84 5.9854-15.88 11.436c-4.04 5.4507-6.06 12.454-6.06 21.009 0 13.8 4.87 25.702 14.6 35.706s22.55 15.007 38.46 15.007c11.88 0 21.67-2.76 29.38-8.28s11.57-15.007 11.57-28.461c0-16.835-6.43-30.082-19.28-39.742-8.69-6.6236-19.77-9.9355-33.23-9.9355zm-1390.1 0c-6.49 0-13.01 1.0867-19.55 3.2601-6.55 2.1734-11.85 5.9854-15.89 11.436-4.04 5.4507-6.05 12.454-6.05 21.009 0 13.8 4.86 25.702 14.59 35.706s22.55 15.007 38.47 15.007c11.87 0 21.66-2.76 29.37-8.28s11.57-15.007 11.57-28.461c0-16.835-6.43-30.082-19.28-39.742-8.69-6.6236-19.77-9.9355-33.23-9.9355zm933.09-0.414c-10.77 0-20.38 2.7254-28.83 8.1761-11.14 7.1756-16.71 17.663-16.71 31.462 0 13.937 5.39 24.615 16.16 32.032s22.77 11.125 35.99 11.125c11.14 0 21.91-3.139 32.31-9.418v-48.849c-0.73-4.6918-2.94-8.9696-6.61-12.833s-8.54-6.7789-14.59-8.7453c-6.06-1.9664-11.97-2.9496-17.72-2.9496zm-647.2 0c-10.78 0-20.38 2.7254-28.83 8.1761-11.14 7.1756-16.71 17.663-16.71 31.462 0 13.937 5.39 24.615 16.16 32.032s22.77 11.125 35.98 11.125c11.14 0 21.91-3.139 32.32-9.418v-48.849c-0.74-4.6918-2.94-8.9696-6.61-12.833s-8.54-6.7789-14.6-8.7453-11.96-2.9496-17.71-2.9496zm267-3.5188h79.14v3.8293h-5.14c-4.78 0-8.42 0.6555-10.93 1.9664-2.51 1.311-3.76 3.0704-3.76 5.2783 0 2.4148 1.28 5.2782 3.85 8.59 13.04 17.456 26.08 34.912 39.11 52.368 13.1-18.111 26.19-36.223 39.29-54.334 2.82-3.8638 4.22-6.7961 4.22-8.797 0-0.966-0.49-1.7594-1.46-2.3804-1.35-1.035-3.06-1.7422-5.15-2.1216-2.08-0.3795-6.3-0.5693-12.66-0.5693v-3.8293h54.89v3.8293c-6.36 0.276-10.77 1.0005-13.22 2.1734-4.28 2.0699-8.14 5.5197-11.56 10.35-19.89 27.116-39.78 54.231-59.67 81.347h-7.53c-20.01-26.667-40.03-53.334-60.04-80.002-2.69-3.7258-5.26-6.3994-7.71-8.0208s-5.57-2.9841-9.36-4.0881c-2.08-0.6209-6.18-1.2074-12.31-1.7594v-3.8293zm842.92-2.7943c25.46 0 45.9 5.4507 61.32 16.352 13.1 9.3145 19.65 20.009 19.65 32.083 0 8.4869-3.61 17.077-10.84 25.77-7.22 8.694-17.16 15.248-29.83 19.664s-26.78 6.624-42.32 6.624c-25.34 0-45.47-5.692-60.41-17.077-12.6-9.59-18.91-20.354-18.91-32.29 0-8.6936 3.83-17.335 11.48-25.926 7.65-8.59 17.72-14.938 30.2-19.043 12.49-4.1053 25.7-6.1579 39.66-6.1579zm-169.56 0c16.53 0 30.11 2.4666 40.76 7.3998 10.65 4.9333 15.98 10.056 15.98 15.369 0 2.6219-1.5 4.7435-4.5 6.3649s-7.19 2.4321-12.58 2.4321c-7.22 0-12.67-1.3109-16.34-3.9328-2.08-1.4489-3.46-4.2087-4.13-8.2795s-3.15-7.1757-7.44-9.3145c-4.28-2.0699-10.22-3.1049-17.81-3.1049-12.24 0-22.09 2.5529-29.56 7.6586-9.91 6.7617-14.87 15.697-14.87 26.805 0 11.316 4.93 21.303 14.78 29.962 9.86 8.659 23.17 12.989 39.94 12.989 11.99 0 22.76-2.312 32.31-6.934 6.73-3.174 13.28-8.935 19.65-17.284 1.77 0.483 3.54 0.966 5.32 1.449-4.53 12.488-13.4 22.096-26.62 28.823s-27.85 10.091-43.88 10.091c-19.1 0-35.74-4.519-49.94-13.558-14.2-9.038-21.3-21.251-21.3-36.637 0-14.903 7.86-27.012 23.59-36.327 15.73-9.3145 34.61-13.972 56.64-13.972zm-136.22 0h8.08v76.172c0 5.933 0.76 9.883 2.29 11.85 1.53 1.966 3.8 3.432 6.8 4.398 2.99 0.966 8.47 1.449 16.43 1.449v3.726h-81.7v-3.726c8.2 0 13.7-0.448 16.52-1.345 2.81-0.897 5.05-2.381 6.7-4.451 1.65-2.069 2.48-6.037 2.48-11.901v-36.534c0-10.28-0.55-16.939-1.65-19.974-0.86-2.2079-2.21-3.7431-4.04-4.6056-1.84-0.8624-4.35-1.2936-7.53-1.2936-3.43 0-7.59 0.5174-12.48 1.5524-0.86-1.242-1.72-2.4839-2.57-3.7258 16.89-3.8638 33.78-7.7276 50.67-11.591zm-291.7 0h7.9v76.172c0 5.933 0.79 9.883 2.38 11.85 1.59 1.966 3.89 3.432 6.89 4.398s8.47 1.449 16.43 1.449v3.726h-81.7v-3.726c8.2 0 13.71-0.448 16.52-1.345 2.82-0.897 5.05-2.381 6.7-4.451 1.66-2.069 2.48-6.037 2.48-11.901v-36.534c0-10.28-0.55-16.939-1.65-19.974-0.86-2.2079-2.2-3.7431-4.04-4.6056-1.84-0.8624-4.34-1.2936-7.53-1.2936-3.42 0-7.59 0.5174-12.48 1.5524-0.86-1.242-1.72-2.4839-2.57-3.7258 16.89-3.8638 33.78-7.7276 50.67-11.591zm-335.86 0c14.93 0 27.17 1.4144 36.72 4.2433 7.22 2.1388 12.55 5.4852 15.98 10.039 2.2 2.9669 3.3 9.0386 3.3 18.215v32.187c0 9.038 0.31 14.575 0.92 16.611 0.61 2.035 1.62 3.398 3.03 4.088s3.03 1.035 4.86 1.035c1.96 0 3.68-0.242 5.14-0.725 2.57-0.897 7.53-3.415 14.88-7.555v5.796c-13.71 10.349-26.81 15.524-39.29 15.524-6 0-10.78-1.173-14.33-3.519s-5.38-6.348-5.5-12.005c-17.26 7.52-28.09 11.867-32.5 13.04-6.61 1.725-13.65 2.587-21.12 2.587-11.62 0-21.2-2.242-28.73-6.727s-11.29-10.384-11.29-17.697c0-4.623 1.84-8.625 5.51-12.006 5.02-4.691 13.74-9.107 26.16-13.247 12.42-4.1398 33.08-9.1765 61.97-15.11v-3.7258c0-9.4525-2.67-15.938-7.99-19.457s-13.07-5.2783-23.23-5.2783c-7.71 0-13.83 1.173-18.36 3.5189-4.65 2.3458-6.97 5.0367-6.97 8.0725 0.12 2.0009 0.24 4.0018 0.36 6.0027 0 3.1739-1.43 5.6232-4.31 7.3482-2.88 1.7249-6.64 2.5873-11.29 2.5873-4.53 0-8.23-0.8969-11.11-2.6908s-4.31-4.2433-4.31-7.3482c0-5.9337 5.38-11.384 16.15-16.352 10.77-4.9678 25.89-7.4516 45.35-7.4516zm-456.78 0c25.46 0 45.9 5.4507 61.32 16.352 13.1 9.3145 19.65 20.009 19.65 32.083 0 8.4869-3.61 17.077-10.83 25.77-7.23 8.694-17.17 15.248-29.84 19.664s-26.77 6.624-42.32 6.624c-25.34 0-45.47-5.692-60.4-17.077-12.61-9.59-18.91-20.354-18.91-32.29 0-8.6936 3.82-17.335 11.47-25.926 7.65-8.59 17.72-14.938 30.2-19.043 12.49-4.1053 25.71-6.1579 39.66-6.1579zm-272.1 0c16.524 0 30.111 2.4666 40.76 7.3998 10.648 4.9333 15.973 10.056 15.973 15.369 0 2.6219-1.5 4.7435-4.498 6.3649-2.999 1.6214-7.191 2.4321-12.577 2.4321-7.222 0-12.668-1.3109-16.341-3.9328-2.08-1.4489-3.457-4.2087-4.131-8.2795-0.673-4.0708-3.151-7.1757-7.435-9.3145-4.284-2.0699-10.221-3.1049-17.81-3.1049-12.24 0-22.093 2.5529-29.56 7.6586-9.914 6.7617-14.871 15.697-14.871 26.805 0 11.316 4.926 21.303 14.78 29.962 9.853 8.659 23.164 12.989 39.933 12.989 11.995 0 22.767-2.312 32.314-6.934 6.732-3.174 13.28-8.935 19.645-17.284l5.325 1.449c-4.529 12.488-13.403 22.096-26.623 28.823-13.219 6.727-27.846 10.091-43.88 10.091-19.095 0-35.741-4.519-49.94-13.558-14.198-9.038-21.298-21.251-21.298-36.637 0-14.903 7.865-27.012 23.593-36.327 15.729-9.3145 34.609-13.972 56.641-13.972zm-180.39 0c14.933 0 27.173 1.4144 36.721 4.2433 7.221 2.1388 12.546 5.4852 15.973 10.039 2.203 2.9669 3.305 9.0386 3.305 18.215v32.187c0 9.038 0.306 14.575 0.918 16.611 0.612 2.035 1.622 3.398 3.03 4.088 1.407 0.69 3.029 1.035 4.865 1.035 1.958 0 3.672-0.242 5.141-0.725 2.57-0.897 7.527-3.415 14.871-7.555v5.796c-13.709 10.349-26.805 15.524-39.29 15.524-5.998 0-10.772-1.173-14.321-3.519-3.55-2.346-5.386-6.348-5.508-12.005-17.259 7.52-28.091 11.867-32.498 13.04-6.609 1.725-13.647 2.587-21.114 2.587-11.628 0-21.206-2.242-28.734-6.727-7.527-4.485-11.291-10.384-11.291-17.697 0-4.623 1.836-8.625 5.508-12.006 5.018-4.691 13.74-9.107 26.163-13.247 12.424-4.1398 33.079-9.1765 61.966-15.11v-3.7258c0-9.4525-2.663-15.938-7.987-19.457s-13.066-5.2783-23.226-5.2783c-7.711 0-13.831 1.173-18.36 3.5189-4.651 2.3458-6.977 5.0367-6.977 8.0725 0.123 2.0009 0.245 4.0018 0.368 6.0027 0 3.1739-1.438 5.6232-4.315 7.3482-2.876 1.7249-6.64 2.5873-11.291 2.5873-4.529 0-8.232-0.8969-11.108-2.6908-2.877-1.7939-4.315-4.2433-4.315-7.3482 0-5.9337 5.386-11.384 16.157-16.352 10.771-4.9678 25.888-7.4516 45.349-7.4516zm-156.02 0c16.892 0 30.968 3.7258 42.229 11.177 13.831 9.1075 20.747 20.975 20.747 35.602 0 16.352-8.324 29.876-24.97 40.57-13.709 8.763-30.968 13.144-51.776 13.144-9.057 0-16.891-0.725-23.501-2.174-4.896-1.034-10.404-3.104-16.524-6.209v28.875c0 6.485 0.704 10.608 2.111 12.367 1.408 1.76 3.856 3.157 7.345 4.192 3.488 1.035 9.822 1.552 19.002 1.552v3.83h-88.128v-3.83h4.59c6.732 0.069 12.485-0.655 17.258-2.173 2.326-0.759 4.131-1.984 5.416-3.674 1.286-1.691 1.928-5.986 1.928-12.885v-89.626c0-6.1407-0.489-10.039-1.469-11.695-0.979-1.6559-2.539-2.8979-4.681-3.7258-2.142-0.828-5.049-1.242-8.721-1.242-2.938 0-6.671 0.483-11.2 1.449-0.734-1.104-1.469-2.2079-2.203-3.3119 17.258-3.9328 34.517-7.8656 51.775-11.798h6.977v22.148c8.691-8.3486 17.412-14.196 26.163-17.542 8.752-3.3464 17.963-5.0195 27.632-5.0195zm464.58-28.358h5.695v31.152h39.29v7.2447h-39.29v61.475c0 6.141 1.56 10.281 4.68 12.42s7.13 3.208 12.02 3.208c4.04 0 7.96-0.707 11.76-2.122 3.79-1.414 6.73-3.501 8.81-6.261h7.16c-4.29 6.762-10.34 11.85-18.18 15.265-7.83 3.416-15.91 5.123-24.23 5.123-5.63 0-11.142-0.879-16.528-2.639-5.385-1.759-9.363-4.277-11.934-7.555-2.57-3.277-3.855-8.331-3.855-15.162v-63.752h-26.622v-3.4154c6.732-1.5179 13.617-4.088 20.655-7.7103s13.311-7.9174 18.819-12.885c2.815-2.6219 6.732-7.4171 11.75-14.386zm-997.48-14.386h191.86c0.918 10.246 1.836 20.492 2.754 30.738h-7.161c-2.57-7.3826-5.416-12.454-8.537-15.214-3.121-2.7599-7.742-4.8643-13.862-6.3132-4.896-1.0349-13.525-1.5524-25.888-1.5524h-68.299v55.473h54.713c14.198 0 23.684-1.2074 28.458-3.6223 6.365-3.1738 9.914-8.7625 10.649-16.766h6.793v48.849h-6.793c-1.714-6.8306-3.427-11.212-5.141-13.144-2.203-2.4148-5.814-4.3123-10.832-5.6922-5.019-1.3799-12.73-2.0699-23.134-2.0699h-54.713v46.262c0 6.21 0.4898 9.987 1.4688 11.333 0.9794 1.345 2.6928 2.415 5.1409 3.208 2.4481 0.794 7.0993 1.19 13.954 1.19h42.228c14.076 0 24.297-0.552 30.662-1.656 6.364-1.103 12.485-3.277 18.36-6.52 7.589-4.277 15.361-10.729 23.317-19.353h7.344c-7.16 11.729-14.321 23.459-21.481 35.188h-191.86v-3.829h8.8129c5.8753 0 11.444-0.794 16.708-2.381 3.9169-1.104 6.5791-2.76 7.9867-4.967 1.4075-2.208 2.1113-6.728 2.1113-13.558v-91.179c0-8.9005-1.5911-14.386-4.7735-16.456-4.4066-2.7599-11.751-4.1398-22.032-4.1398h-8.8129v-3.8293zm1922.7-3.5188h41.13c-18.06 11.902-36.11 23.804-54.17 35.706h-6.24c6.43-11.902 12.85-23.804 19.28-35.706zm295.92-3.3118c5.14 0 9.51 1.0177 13.13 3.0531 3.61 2.0354 5.41 4.502 5.41 7.3998 0 2.8979-1.8 5.3817-5.41 7.4516-3.62 2.0699-7.99 3.1049-13.13 3.1049s-9.55-1.035-13.22-3.1049-5.51-4.5537-5.51-7.4516c0-2.8978 1.81-5.3645 5.42-7.3998s8.05-3.0531 13.31-3.0531zm-88.83 0h8.27v109.6c0 11.109 0.45 17.888 1.37 20.337 0.92 2.45 2.39 4.157 4.41 5.123s4.37 1.449 7.07 1.449c3.3 0 7.71-0.586 13.22-1.759 0.67 1.207 1.34 2.415 2.02 3.622-16.65 3.898-33.3 7.797-49.94 11.695h-8.45v-13.558c-8.2 4.83-16.22 8.297-24.05 10.401-7.83 2.105-16.28 3.157-25.34 3.157-18.36 0-34.39-4.33-48.1-12.989s-20.56-19.784-20.56-33.377c0-13.592 7.58-26.029 22.76-37.31 15.18-11.281 34.7-16.921 58.57-16.921 14.81 0 27.05 2.6563 36.72 7.9691v-17.491c0-10.832-0.46-17.491-1.38-19.974-0.91-2.4839-2.35-4.1743-4.31-5.0712-1.96-0.897-4.41-1.3455-7.34-1.3455-3.19 0-7.41 0.552-12.67 1.656-0.8-1.2075-1.59-2.4149-2.39-3.6224 16.71-3.8638 33.42-7.7275 50.12-11.591zm-647.2 0h8.26v109.6c0 11.109 0.46 17.888 1.38 20.337 0.92 2.45 2.39 4.157 4.41 5.123s4.37 1.449 7.07 1.449c3.3 0 7.71-0.586 13.21-1.759 0.68 1.207 1.35 2.415 2.02 3.622-16.64 3.898-33.29 7.797-49.94 11.695h-8.44v-13.558c-8.2 4.83-16.22 8.297-24.05 10.401-7.84 2.105-16.28 3.157-25.34 3.157-18.36 0-34.39-4.33-48.1-12.989s-20.57-19.784-20.57-33.377c0-13.592 7.59-26.029 22.77-37.31 15.18-11.281 34.7-16.921 58.57-16.921 14.81 0 27.05 2.6563 36.72 7.9691v-17.491c0-10.832-0.46-17.491-1.38-19.974s-2.35-4.1743-4.31-5.0712c-1.96-0.897-4.41-1.3455-7.35-1.3455-3.18 0-7.4 0.552-12.67 1.656-0.79-1.2075-1.59-2.4149-2.38-3.6224 16.71-3.8638 33.41-7.7275 50.12-11.591zm-1198.8 0h8.262v125.75c0 5.933 0.765 9.866 2.295 11.798s3.886 3.398 7.069 4.399c3.182 1 9.119 1.5 17.809 1.5v3.726h-82.437v-3.726c7.711 0 12.975-0.448 15.79-1.345s5.018-2.381 6.609-4.451c1.592-2.069 2.387-6.037 2.387-11.901v-86.108c0-10.694-0.428-17.266-1.285-19.716-0.857-2.4494-2.234-4.1226-4.131-5.0195-1.897-0.897-4.315-1.3455-7.252-1.3455-3.183 0-7.222 0.552-12.118 1.656-1.04-1.2075-2.081-2.4149-3.121-3.6224 16.708-3.8638 33.415-7.7275 50.123-11.591z" fill="#ffff00" fill-rule="evenodd"/>
        </g>
    </g>
    <path transform="translate(-140.53 86.546)" d="m2023.9 137.66c-18.48 4.14-30.42 7.072-35.8 8.797-9.67 3.036-16.59 6.21-20.75 9.522s-6.24 6.934-6.24 10.867c0 4.967 2.63 9.09 7.89 12.367 5.27 3.278 11.32 4.916 18.18 4.916 9.3 0 21.54-3.449 36.72-10.349v-36.12zm-909.27 0c-18.49 4.14-30.42 7.072-35.81 8.797-9.67 3.036-16.58 6.21-20.74 9.522s-6.25 6.934-6.25 10.867c0 4.967 2.64 9.09 7.9 12.367 5.26 3.278 11.32 4.916 18.18 4.916 9.3 0 21.54-3.449 36.72-10.349v-36.12zm-196.24-26.08c-5.875 0-11.689 0.828-17.442 2.483-4.406 1.242-11.689 4.968-21.849 11.178v35.395c0 7.659 0.551 12.695 1.653 15.11 1.713 4.002 5.906 7.521 12.577 10.557 6.67 3.036 15.085 4.554 25.245 4.554 12.24 0 22.154-2.691 29.743-8.073 9.914-7.038 14.872-16.939 14.872-29.703 0-14.489-5.631-25.632-16.892-33.429-7.833-5.382-17.136-8.072-27.907-8.072zm2007.4-8.28c-6.49 0-13.01 1.087-19.55 3.26-6.55 2.174-11.85 5.986-15.88 11.436-4.04 5.451-6.06 12.454-6.06 21.01 0 13.799 4.86 25.701 14.59 35.705 9.73 10.005 22.55 15.007 38.47 15.007 11.87 0 21.66-2.76 29.37-8.28 7.71-5.519 11.57-15.006 11.57-28.461 0-16.835-6.43-30.082-19.28-39.741-8.69-6.624-19.77-9.936-33.23-9.936zm-1390.1 0c-6.48 0-13 1.087-19.55 3.26-6.55 2.174-11.84 5.986-15.88 11.436-4.04 5.451-6.06 12.454-6.06 21.01 0 13.799 4.86 25.701 14.6 35.705 9.73 10.005 22.55 15.007 38.46 15.007 11.87 0 21.66-2.76 29.38-8.28 7.71-5.519 11.56-15.006 11.56-28.461 0-16.835-6.42-30.082-19.28-39.741-8.69-6.624-19.76-9.936-33.23-9.936zm933.09-0.414c-10.77 0-20.38 2.725-28.82 8.176-11.14 7.176-16.71 17.663-16.71 31.463 0 13.937 5.38 24.614 16.15 32.031 10.78 7.417 22.77 11.126 35.99 11.126 11.14 0 21.91-3.14 32.31-9.418v-48.85c-0.73-4.691-2.93-8.969-6.61-12.833-3.67-3.864-8.53-6.779-14.59-8.745-6.06-1.967-11.97-2.95-17.72-2.95zm-647.2 0c-10.77 0-20.38 2.725-28.83 8.176-11.14 7.176-16.7 17.663-16.7 31.463 0 13.937 5.38 24.614 16.15 32.031s22.77 11.126 35.99 11.126c11.14 0 21.91-3.14 32.31-9.418v-48.85c-0.73-4.691-2.94-8.969-6.61-12.833s-8.53-6.779-14.59-8.745c-6.06-1.967-11.97-2.95-17.72-2.95zm267.01-3.519h79.13v3.83h-5.14c-4.77 0-8.42 0.655-10.92 1.966-2.51 1.311-3.77 3.07-3.77 5.278 0 2.415 1.29 5.278 3.86 8.59 13.03 17.456 26.07 34.912 39.1 52.369 13.1-18.112 26.2-36.224 39.29-54.335 2.82-3.864 4.23-6.796 4.23-8.797 0-0.966-0.49-1.76-1.47-2.381-1.35-1.035-3.06-1.742-5.14-2.121-2.08-0.38-6.31-0.569-12.67-0.569v-3.83h54.9v3.83c-6.37 0.276-10.77 1-13.22 2.173-4.29 2.07-8.14 5.52-11.57 10.349-19.89 27.116-39.78 54.232-59.67 81.347h-7.53c-20.01-26.667-40.02-53.334-60.04-80.001-2.69-3.726-5.26-6.4-7.71-8.021-2.44-1.621-5.57-2.984-9.36-4.088-2.08-0.621-6.18-1.207-12.3-1.759v-3.83zm842.91-2.794c25.46 0 45.9 5.451 61.32 16.352 13.1 9.315 19.65 20.009 19.65 32.083 0 8.487-3.61 17.077-10.83 25.771-7.22 8.693-17.17 15.248-29.84 19.664-12.67 4.415-26.77 6.623-42.32 6.623-25.33 0-45.47-5.692-60.4-17.076-12.61-9.591-18.91-20.354-18.91-32.291 0-8.693 3.82-17.335 11.47-25.925s17.72-14.938 30.2-19.043c12.49-4.105 25.71-6.158 39.66-6.158zm-169.55 0c16.52 0 30.11 2.467 40.76 7.4 10.64 4.933 15.97 10.056 15.97 15.369 0 2.622-1.5 4.743-4.5 6.365-3 1.621-7.19 2.432-12.58 2.432-7.22 0-12.66-1.311-16.34-3.933-2.08-1.449-3.45-4.209-4.13-8.28-0.67-4.07-3.15-7.175-7.43-9.314-4.29-2.07-10.22-3.105-17.81-3.105-12.24 0-22.1 2.553-29.56 7.659-9.92 6.761-14.87 15.696-14.87 26.805 0 11.315 4.92 21.302 14.78 29.961 9.85 8.659 23.16 12.989 39.93 12.989 11.99 0 22.77-2.311 32.31-6.934 6.74-3.174 13.28-8.935 19.65-17.284 1.77 0.483 3.55 0.966 5.32 1.449-4.53 12.489-13.4 22.096-26.62 28.823-13.22 6.728-27.85 10.091-43.88 10.091-19.09 0-35.74-4.519-49.94-13.558-14.2-9.038-21.3-21.251-21.3-36.637 0-14.903 7.87-27.012 23.6-36.326 15.72-9.315 34.6-13.972 56.64-13.972zm-136.23 0h8.08v76.172c0 5.934 0.77 9.884 2.3 11.85s3.79 3.433 6.79 4.399 8.48 1.449 16.43 1.449v3.725h-81.7v-3.725c8.2 0 13.71-0.449 16.52-1.346 2.82-0.897 5.05-2.38 6.7-4.45 1.66-2.07 2.48-6.037 2.48-11.902v-36.534c0-10.28-0.55-16.938-1.65-19.974-0.86-2.208-2.2-3.743-4.04-4.606-1.83-0.862-4.34-1.293-7.53-1.293-3.42 0-7.59 0.517-12.48 1.552-0.86-1.242-1.71-2.484-2.57-3.726 16.89-3.863 33.78-7.727 50.67-11.591zm-291.69 0h7.89v76.172c0 5.934 0.8 9.884 2.39 11.85s3.88 3.433 6.88 4.399 8.48 1.449 16.43 1.449v3.725h-81.7v-3.725c8.2 0 13.71-0.449 16.53-1.346 2.81-0.897 5.04-2.38 6.7-4.45 1.65-2.07 2.48-6.037 2.48-11.902v-36.534c0-10.28-0.55-16.938-1.66-19.974-0.85-2.208-2.2-3.743-4.04-4.606-1.83-0.862-4.34-1.293-7.52-1.293-3.43 0-7.59 0.517-12.49 1.552-0.86-1.242-1.71-2.484-2.57-3.726 16.89-3.863 33.78-7.727 50.68-11.591zm-335.86 0c14.93 0 27.17 1.414 36.72 4.243 7.22 2.139 12.54 5.485 15.97 10.039 2.2 2.967 3.3 9.039 3.3 18.215v32.187c0 9.039 0.31 14.576 0.92 16.611s1.62 3.398 3.03 4.088 3.03 1.035 4.87 1.035c1.95 0 3.67-0.242 5.14-0.725 2.57-0.896 7.53-3.415 14.87-7.555v5.796c-13.71 10.35-26.81 15.524-39.29 15.524-6 0-10.77-1.173-14.32-3.519-3.55-2.345-5.39-6.347-5.51-12.005-17.26 7.521-28.09 11.867-32.5 13.04-6.61 1.725-13.65 2.588-21.11 2.588-11.63 0-21.21-2.243-28.74-6.727-7.52-4.485-11.29-10.384-11.29-17.698 0-4.623 1.84-8.625 5.51-12.005 5.02-4.692 13.74-9.108 26.16-13.248 12.43-4.139 33.08-9.176 61.97-15.11v-3.726c0-9.452-2.66-15.938-7.99-19.457-5.32-3.519-13.06-5.278-23.22-5.278-7.71 0-13.83 1.173-18.36 3.519-4.65 2.346-6.98 5.037-6.98 8.072 0.12 2.001 0.25 4.002 0.37 6.003 0 3.174-1.44 5.623-4.32 7.348-2.87 1.725-6.64 2.588-11.29 2.588-4.53 0-8.23-0.897-11.11-2.691-2.87-1.794-4.31-4.243-4.31-7.348 0-5.934 5.38-11.385 16.16-16.352 10.77-4.968 25.88-7.452 45.35-7.452zm-456.79 0c25.46 0 45.9 5.451 61.33 16.352 13.09 9.315 19.64 20.009 19.64 32.083 0 8.487-3.61 17.077-10.83 25.771-7.22 8.693-17.17 15.248-29.84 19.664-12.66 4.415-26.77 6.623-42.32 6.623-25.33 0-45.47-5.692-60.4-17.076-12.61-9.591-18.91-20.354-18.91-32.291 0-8.693 3.82-17.335 11.47-25.925s17.72-14.938 30.21-19.043c12.48-4.105 25.7-6.158 39.65-6.158zm-272.1 0c16.52 0 30.11 2.467 40.76 7.4s15.97 10.056 15.97 15.369c0 2.622-1.5 4.743-4.5 6.365-2.99 1.621-7.19 2.432-12.57 2.432-7.22 0-12.67-1.311-16.34-3.933-2.08-1.449-3.46-4.209-4.13-8.28-0.68-4.07-3.16-7.175-7.44-9.314-4.28-2.07-10.22-3.105-17.81-3.105-12.24 0-22.09 2.553-29.56 7.659-9.91 6.761-14.87 15.696-14.87 26.805 0 11.315 4.93 21.302 14.78 29.961s23.16 12.989 39.93 12.989c12 0 22.77-2.311 32.32-6.934 6.73-3.174 13.28-8.935 19.64-17.284 1.78 0.483 3.55 0.966 5.33 1.449-4.53 12.489-13.41 22.096-26.63 28.823-13.22 6.728-27.84 10.091-43.88 10.091-19.09 0-35.74-4.519-49.94-13.558-14.19-9.038-21.29-21.251-21.29-36.637 0-14.903 7.86-27.012 23.59-36.326 15.73-9.315 34.61-13.972 56.64-13.972zm-180.39 0c14.93 0 27.17 1.414 36.72 4.243 7.22 2.139 12.55 5.485 15.98 10.039 2.2 2.967 3.3 9.039 3.3 18.215v32.187c0 9.039 0.31 14.576 0.92 16.611s1.62 3.398 3.03 4.088 3.03 1.035 4.86 1.035c1.96 0 3.68-0.242 5.14-0.725 2.57-0.896 7.53-3.415 14.88-7.555v5.796c-13.71 10.35-26.81 15.524-39.3 15.524-5.99 0-10.77-1.173-14.32-3.519-3.55-2.345-5.38-6.347-5.5-12.005-17.26 7.521-28.1 11.867-32.5 13.04-6.61 1.725-13.65 2.588-21.12 2.588-11.62 0-21.2-2.243-28.73-6.727-7.53-4.485-11.29-10.384-11.29-17.698 0-4.623 1.84-8.625 5.51-12.005 5.02-4.692 13.74-9.108 26.16-13.248 12.42-4.139 33.08-9.176 61.97-15.11v-3.726c0-9.452-2.67-15.938-7.99-19.457-5.33-3.519-13.07-5.278-23.23-5.278-7.71 0-13.83 1.173-18.36 3.519-4.65 2.346-6.97 5.037-6.97 8.072l0.36 6.003c0 3.174-1.43 5.623-4.31 7.348s-6.64 2.588-11.29 2.588c-4.53 0-8.23-0.897-11.11-2.691s-4.31-4.243-4.31-7.348c0-5.934 5.38-11.385 16.15-16.352 10.77-4.968 25.89-7.452 45.35-7.452zm-156.02 0c16.891 0 30.967 3.726 42.228 11.177 13.831 9.108 20.747 20.975 20.747 35.602 0 16.353-8.323 29.876-24.97 40.57-13.709 8.763-30.967 13.144-51.775 13.144-9.058 0-16.892-0.724-23.501-2.173-4.896-1.035-10.404-3.105-16.525-6.21v28.875c0 6.486 0.704 10.608 2.112 12.368 1.407 1.759 3.855 3.156 7.344 4.191 3.488 1.035 9.823 1.553 19.003 1.553v3.829h-88.129v-3.829h4.59c6.732 0.069 12.485-0.656 17.259-2.174 2.325-0.759 4.131-1.983 5.416-3.674 1.285-1.69 1.928-5.985 1.928-12.885v-89.626c0-6.141-0.49-10.039-1.469-11.695s-2.54-2.898-4.682-3.726-5.049-1.242-8.721-1.242c-2.938 0-6.671 0.483-11.2 1.449-0.734-1.104-1.468-2.208-2.203-3.312 17.259-3.933 34.517-7.865 51.776-11.798h6.976v22.148c8.691-8.349 17.412-14.196 26.164-17.543 8.751-3.346 17.962-5.019 27.632-5.019zm464.58-28.358h5.69v31.152h39.29v7.245h-39.29v61.476c0 6.14 1.56 10.28 4.68 12.419s7.13 3.208 12.03 3.208c4.04 0 7.95-0.707 11.75-2.121 3.79-1.415 6.73-3.502 8.81-6.262h7.16c-4.28 6.762-10.34 11.85-18.17 15.266-7.84 3.415-15.92 5.123-24.24 5.123-5.63 0-11.14-0.88-16.52-2.639-5.39-1.76-9.37-4.278-11.94-7.555-2.57-3.278-3.85-8.332-3.85-15.162v-63.753h-26.63v-3.415c6.74-1.518 13.62-4.088 20.66-7.711 7.04-3.6221 13.31-7.9171 18.82-12.885 2.81-2.6218 6.73-7.4171 11.75-14.386zm-997.48-14.386h191.86c0.918 10.246 1.836 20.492 2.754 30.738h-7.16c-2.571-7.3826-5.416-12.454-8.538-15.214-3.121-2.7598-7.742-4.8642-13.862-6.3131-4.896-1.035-13.525-1.5525-25.887-1.5525h-68.3v55.473h54.713c14.199 0 23.685-1.207 28.458-3.622 6.365-3.174 9.915-8.763 10.649-16.766h6.793v48.849h-6.793c-1.713-6.83-3.427-11.212-5.141-13.143-2.203-2.415-5.814-4.313-10.832-5.693s-12.73-2.07-23.134-2.07h-54.713v46.263c0 6.209 0.49 9.987 1.469 11.332 0.979 1.346 2.693 2.415 5.141 3.209 2.448 0.793 7.099 1.19 13.953 1.19h42.229c14.076 0 24.296-0.552 30.661-1.656s12.485-3.278 18.36-6.52c7.589-4.278 15.361-10.729 23.317-19.354h7.344c-7.16 11.73-14.32 23.459-21.481 35.188h-191.86v-3.829h8.813c5.875 0 11.444-0.793 16.708-2.38 3.916-1.104 6.579-2.76 7.986-4.968 1.408-2.208 2.112-6.727 2.112-13.558v-91.179c0-8.9006-1.592-14.386-4.774-16.456-4.407-2.7598-11.751-4.1398-22.032-4.1398h-8.813v-3.8293zm1922.7-3.5188h41.13c-18.06 11.902-36.11 23.804-54.16 35.706h-6.25c6.43-11.902 12.86-23.804 19.28-35.706zm295.92-3.3118c5.14 0 9.52 1.0177 13.13 3.0531s5.42 4.502 5.42 7.3998c0 2.8979-1.81 5.3818-5.42 7.4517s-7.99 3.1048-13.13 3.1048-9.55-1.0349-13.22-3.1048-5.51-4.5538-5.51-7.4517c0-2.8978 1.81-5.3644 5.42-7.3998s8.05-3.0531 13.31-3.0531zm-88.82 0h8.26v109.6c0 11.108 0.46 17.887 1.38 20.336 0.91 2.45 2.38 4.158 4.4 5.123 2.02 0.966 4.38 1.449 7.07 1.449 3.31 0 7.71-0.586 13.22-1.759 0.67 1.207 1.35 2.415 2.02 3.622-16.65 3.899-33.29 7.797-49.94 11.695h-8.45v-13.558c-8.2 4.83-16.21 8.297-24.05 10.402-7.83 2.104-16.28 3.156-25.33 3.156-18.36 0-34.4-4.329-48.11-12.988s-20.56-19.785-20.56-33.377c0-13.593 7.59-26.029 22.77-37.31 15.17-11.281 34.7-16.922 58.56-16.922 14.81 0 27.05 2.657 36.72 7.97v-17.491c0-10.832-0.45-17.491-1.37-19.974-0.92-2.4839-2.36-4.1743-4.32-5.0713-1.96-0.8969-4.4-1.3454-7.34-1.3454-3.18 0-7.41 0.552-12.67 1.6559-0.8-1.2074-1.59-2.4149-2.39-3.6223 16.71-3.8638 33.42-7.7276 50.13-11.591zm-647.21 0h8.27v109.6c0 11.108 0.46 17.887 1.37 20.336 0.92 2.45 2.39 4.158 4.41 5.123 2.02 0.966 4.38 1.449 7.07 1.449 3.3 0 7.71-0.586 13.22-1.759 0.67 1.207 1.34 2.415 2.02 3.622-16.65 3.899-33.3 7.797-49.94 11.695h-8.45v-13.558c-8.2 4.83-16.22 8.297-24.05 10.402-7.83 2.104-16.28 3.156-25.34 3.156-18.36 0-34.39-4.329-48.1-12.988s-20.56-19.785-20.56-33.377c0-13.593 7.59-26.029 22.76-37.31 15.18-11.281 34.7-16.922 58.57-16.922 14.81 0 27.05 2.657 36.72 7.97v-17.491c0-10.832-0.46-17.491-1.37-19.974-0.92-2.4839-2.36-4.1743-4.32-5.0713-1.96-0.8969-4.41-1.3454-7.34-1.3454-3.19 0-7.41 0.552-12.67 1.6559-0.8-1.2074-1.59-2.4149-2.39-3.6223 16.71-3.8638 33.42-7.7276 50.12-11.591zm-1198.8 0h8.263v125.75c0 5.934 0.764 9.866 2.294 11.798s3.887 3.398 7.069 4.399c3.183 1 9.119 1.501 17.809 1.501v3.725h-82.436v-3.725c7.711 0 12.974-0.449 15.789-1.346s5.019-2.38 6.61-4.45 2.387-6.037 2.387-11.902v-86.108c0-10.694-0.429-17.266-1.285-19.716-0.857-2.4494-2.234-4.1225-4.131-5.0195-1.898-0.8969-4.315-1.3454-7.253-1.3454-3.182 0-7.222 0.552-12.117 1.6559-1.041-1.2074-2.081-2.4149-3.122-3.6223 16.708-3.8638 33.416-7.7276 50.123-11.591z" clip-path="url(#clipPath38411)" fill="#ffff00" fill-rule="evenodd"/>
    <text x="259.46945" y="301.98257" fill="#000000" fill-opacity="0" font-family="Arial, Arial_MSFontService, sans-serif" font-size="192.5px">El pacto davídico</text>
</svg>
