<svg width="3355" height="2396" xmlns="http://www.w3.org/2000/svg" xmlns:xlink="http://www.w3.org/1999/xlink" overflow="hidden"><defs><clipPath id="clip0"><rect x="0" y="79" width="3355" height="2396"/></clipPath></defs><g clip-path="url(#clip0)" transform="matrix(1 0 0 1 0 -79)"><path d="M1060.89 1973.07C927.038 1838.44 1102.29 1447.17 1452.32 1099.15 1802.36 751.125 2194.63 578.134 2328.48 712.763 2462.34 847.392 2287.09 1238.66 1937.05 1586.68 1587.02 1934.71 1194.75 2107.7 1060.89 1973.07Z" stroke="#FF0000" stroke-width="13.75" stroke-linejoin="round" stroke-miterlimit="10" fill="#FFFF00" fill-rule="evenodd"/><path d="M0 0 1265 1265" stroke="#000000" stroke-width="10.3125" stroke-linejoin="round" stroke-miterlimit="10" fill="none" fill-rule="evenodd" transform="matrix(1 0 0 -1 1073 1980)"/><text fill="#FFFF00" font-family="Times New Roman,Times New Roman_MSFontService,sans-serif" font-weight="700" font-size="248" transform="matrix(1 0 0 1 308 393)">The Theanthropic Person</text><path d="M308 420 983 420 1658 420 2333 420 3008 420 3008 444 2333 444 1658 444 983 444 308 444Z" fill="#FFFF00" fill-rule="evenodd"/><text font-family="Times New Roman,Times New Roman_MSFontService,sans-serif" font-weight="700" font-size="165" transform="matrix(0.698089 -0.716011 0.716011 0.698089 1296.21 1616)">Divine Nature<tspan font-size="165" x="-22.2952" y="290.846">Human Nature</tspan></text><text fill="#FFFF00" font-family="Times New Roman,Times New Roman_MSFontService,sans-serif" font-weight="700" font-size="110" transform="matrix(1 0 0 1 115.5 865)">Kenosis<tspan font-weight="400" font-size="110" x="394.167" y="0">–</tspan><tspan font-weight="400" font-size="110" x="476.667" y="0">Christ’s adding of a </tspan><tspan font-weight="400" font-size="110" x="0" y="132">human nature to His Person at</tspan><tspan font-weight="400" font-size="110" x="0" y="264">the incarnation when He </tspan><tspan font-weight="400" font-size="110" x="0" y="396">voluntarily restricted </tspan><tspan font-weight="400" font-size="110" x="0" y="528">access to His divine </tspan><tspan font-weight="400" font-size="110" x="0" y="660">nature to handle </tspan><tspan font-weight="400" font-size="110" x="0" y="792">the problems of the </tspan><tspan font-weight="400" font-size="110" x="0" y="924">human experience.</tspan><tspan font-style="italic" font-weight="400" font-size="110" x="0" y="1056">Philippians 2:5</tspan><tspan font-style="italic" font-weight="400" font-size="110" x="680.625" y="1056">-</tspan><tspan font-style="italic" font-weight="400" font-size="110" x="717.292" y="1056">11</tspan><tspan font-size="110" x="2200" y="440">Hypostatic Union</tspan><tspan font-weight="400" font-size="110" x="3049.64" y="440">–</tspan><tspan font-weight="400" font-size="110" x="2090" y="572">Personal eternal union</tspan><tspan font-weight="400" font-size="110" x="1925" y="704">of Undiminished Deity and </tspan><tspan font-weight="400" font-size="110" x="1925" y="836">true humanity in </tspan><tspan font-weight="400" font-size="110" x="2678.39" y="836">ONE</tspan></text><path d="M2793.5 1713 3020.5 1713 3020.5 1718 2793.5 1718Z" fill="#FFFF00" fill-rule="evenodd"/><text fill="#FFFF00" font-family="Times New Roman,Times New Roman_MSFontService,sans-serif" font-weight="400" font-size="110" transform="matrix(1 0 0 1 2040.5 1833)">person forever without <tspan font-size="110" x="0" y="132">transfer or loss of essence.</tspan><tspan font-style="italic" font-size="110" x="0" y="264">Colossians 2:9; 1Timothy </tspan><tspan font-style="italic" font-size="110" x="0" y="396">2:5</tspan><tspan font-size="28" x="-2007.5" y="619">R.C. Ward, February 2003</tspan></text></g></svg>