<?xml version="1.0" encoding="UTF-8" standalone="no"?>
<svg
   id="svg6548"
   width="864.98438"
   height="580.86786"
   inkscape:version="1.2.2 (b0a84865, 2022-12-01)"
   sodipodi:docname="3-tiempos.svg"
   version="1.1"
   viewBox="0 0 228.74031 153.92998"
   inkscape:dataloss="true"
   inkscape:export-filename="3-tiempos.svg"
   inkscape:export-xdpi="96"
   inkscape:export-ydpi="96"
   xmlns:inkscape="http://www.inkscape.org/namespaces/inkscape"
   xmlns:sodipodi="http://sodipodi.sourceforge.net/DTD/sodipodi-0.dtd"
   xmlns="http://www.w3.org/2000/svg"
   xmlns:svg="http://www.w3.org/2000/svg">
  <defs
     id="defs115">
    <rect
       x="89.823097"
       y="0"
       width="758.50476"
       height="48.584908"
       id="rect5018" />
    <rect
       x="32.246616"
       y="205.31921"
       width="163.47717"
       height="38.526772"
       id="rect4515" />
    <rect
       x="11.248494"
       y="166.79247"
       width="184.4753"
       height="38.526764"
       id="rect4464" />
    <rect
       x="680.53387"
       y="211.72083"
       width="194.59895"
       height="54.701946"
       id="rect4458" />
    <rect
       x="694.8808"
       y="172.70731"
       width="161.72296"
       height="23.009256"
       id="rect4452" />
    <rect
       x="344.20392"
       y="208.97031"
       width="206.1091"
       height="42.727833"
       id="rect4097" />
    <rect
       x="344.20392"
       y="166.24246"
       width="206.1091"
       height="42.727833"
       id="rect4091" />
  </defs>
  <sodipodi:namedview
     id="base"
     width="900mm"
     bordercolor="#666666"
     borderopacity="1.0"
     inkscape:current-layer="layer1"
     inkscape:cx="419.0064"
     inkscape:cy="309.33358"
     inkscape:document-rotation="0"
     inkscape:document-units="mm"
     inkscape:pageopacity="0.0"
     inkscape:pageshadow="2"
     inkscape:window-height="842"
     inkscape:window-maximized="0"
     inkscape:window-width="1512"
     inkscape:window-x="0"
     inkscape:window-y="38"
     inkscape:zoom="0.8890079"
     pagecolor="#ffffff"
     showgrid="false"
     showguides="true"
     units="px"
     inkscape:showpageshadow="2"
     inkscape:pagecheckerboard="0"
     inkscape:deskcolor="#d1d1d1" />
  <g
     id="layer1"
     inkscape:groupmode="layer"
     inkscape:label="animation"
     transform="translate(-2.835101,-2.1199999)">
    <g
       id="cross-group"
       transform="matrix(0.35,0,0,0.35,13.92812,-45.125)"
       fill="#01000a"
       stroke="#000000"
       stroke-opacity="null"
       stroke-width="null"
       data-fragment-index="1"
       class="fragment">
      <rect
         id="svg_6"
         x="28"
         y="320"
         width="18"
         height="100"
         opacity="undefined" />
      <rect
         id="svg_7"
         x="9"
         y="338"
         width="55"
         height="15"
         opacity="undefined" />
    </g>
    <path
       id="path7163"
       d="M 15,102 H 220 Z"
       fill="none"
       stroke="#000000"
       stroke-width="0.27px" />
    <g
       id="glorification-cloud"
       class="fragment fade-up"
       data-fragment-index="12"
       transform="translate(0,-2.65)">
      <path
         id="path7169"
         d="m 216,31 c 0.19,-0.54 0.29,-1.1 0.29,-1.8 0,-2.7 -2,-4.9 -4.4,-4.9 -0.9,0 -1.7,0.31 -2.4,0.82 -1.3,-2.4 -3.6,-4.1 -6.4,-4.1 -4.1,0 -7.3,3.6 -7.3,8.1 0,0.14 0.005,0.27 0.01,0.41 -2.6,1 -4.4,3.7 -4.4,6.9 0,4 3,7.3 6.6,7.3 h 17 c 3.2,0 5.9,-2.9 5.9,-6.5 0,-3.2 -2,-5.8 -4.7,-6.4 z m -6.6,3.1 h -3 v 5.7 c 0,0.45 -0.33,0.81 -0.73,0.81 h -2.2 c -0.4,0 -0.73,-0.37 -0.73,-0.81 v -5.7 h -3 c -0.66,0 -0.98,-0.88 -0.52,-1.4 l 4.8,-5.4 c 0.28,-0.32 0.75,-0.32 1,0 l 4.8,5.4 c 0.46,0.51 0.13,1.4 -0.52,1.4 z"
         fill="#ab37c8"
         stroke-width="0.048" />
    </g>
    <path
       id="path7163-5"
       d="M 31,13 H 207 Z"
       fill="none"
       stroke="#000000"
       stroke-width="0.25px" />
    <g
       id="plus-icon"
       data-fragment-index="2"
       class="fragment"
       transform="translate(0,-4.24)">
      <path
         id="path7226"
         d="m 40,32 h -2.6 v -2.6 c 0,-0.35 -0.29,-0.64 -0.64,-0.64 h -1.3 c -0.35,0 -0.64,0.29 -0.64,0.64 V 32 h -2.6 c -0.35,0 -0.64,0.29 -0.64,0.64 v 1.3 c 0,0.35 0.29,0.64 0.64,0.64 h 2.6 v 2.6 c 0,0.35 0.29,0.64 0.64,0.64 h 1.3 c 0.35,0 0.64,-0.29 0.64,-0.64 v -2.6 H 40 c 0.35,0 0.64,-0.29 0.64,-0.64 v -1.3 C 40.64,32.29 40.35,32 40,32 Z m -16,1.9 c 2.8,0 5.1,-2.3 5.1,-5.1 0,-2.8 -2.3,-5.1 -5.1,-5.1 -2.8,0 -5.1,2.3 -5.1,5.1 0,2.8 2.3,5.1 5.1,5.1 z m 3.6,1.3 h -0.67 c -0.89,0.41 -1.9,0.64 -2.9,0.64 -1,0 -2,-0.23 -2.9,-0.64 h -0.67 c -3,0 -5.4,2.4 -5.4,5.4 v 1.7 c 0,1.1 0.86,1.9 1.9,1.9 h 14 c 1.1,0 1.9,-0.86 1.9,-1.9 v -1.7 c 0,-3 -2.4,-5.4 -5.4,-5.4 z"
         fill="#008000"
         stroke-width="0.04" />
    </g>
    <rect
       id="rect7311"
       x="30.400095"
       y="96.000092"
       width="177.59981"
       height="5.4998255"
       fill="#00d455"
       fill-rule="evenodd"
       stroke="#000000"
       stroke-linejoin="round"
       stroke-width="0.0970835"
       class="fragment fade-up"
       data-fragment-index="6" />
    <g
       id="g2632"
       class="fragment fade-up"
       data-fragment-index="7"
       transform="translate(2.4007404)">
      <g
         id="man">
        <path
           id="path7237"
           d="m 122,74 c 1.4,0 2.6,-1.2 2.6,-2.6 0,-1.4 -1.2,-2.6 -2.6,-2.6 -1.4,0 -2.6,1.2 -2.6,2.6 0,1.4 1.2,2.6 2.6,2.6 z m 5.1,8 -1.2,-0.63 -0.52,-1.6 c -0.79,-2.4 -3,-4.1 -5.5,-4.1 -1.9,-0.0056 -3,0.54 -5,1.4 -1.2,0.47 -2.1,1.4 -2.7,2.5 l -0.36,0.73 c -0.42,0.85 -0.08,1.9 0.76,2.3 0.84,0.42 1.9,0.08 2.3,-0.77 l 0.36,-0.73 c 0.19,-0.38 0.5,-0.67 0.88,-0.83 l 1.4,-0.58 -0.81,3.3 c -0.28,1.1 0.022,2.3 0.8,3.2 l 3.2,3.5 c 0.39,0.42 0.66,0.93 0.8,1.5 l 0.98,3.9 c 0.23,0.92 1.2,1.5 2.1,1.2 0.92,-0.23 1.5,-1.2 1.2,-2.1 l -1.2,-4.8 c -0.14,-0.55 -0.41,-1.1 -0.8,-1.5 l -2.4,-2.7 0.92,-3.7 0.29,0.88 c 0.28,0.86 0.9,1.6 1.7,2 l 1.2,0.63 c 0.84,0.42 1.9,0.08 2.3,-0.77 0.41,-0.84 0.075,-1.9 -0.77,-2.3 z m -12,7.5 c -0.17,0.43 -0.43,0.83 -0.76,1.2 l -2.7,2.7 c -0.67,0.67 -0.67,1.8 0,2.4 0.67,0.67 1.8,0.67 2.4,0 l 3.2,-3.2 c 0.33,-0.33 0.58,-0.72 0.76,-1.2 l 0.72,-1.8 c -3,-3.2 -2.1,-2.2 -2.5,-2.9 z"
           fill="#00d455"
           stroke="#000000"
           stroke-width="0.054" />
      </g>
      <text
         id="text7315"
         transform="translate(116.49467,100.09508)"
         x="30.84033"
         fill="#ffffff"
         font-family="sans-serif"
         font-size="4.2px"
         text-align="center"
         style="line-height:1.25;white-space:pre;shape-inside:url(#rect7317);display:inline"
         xml:space="preserve"><tspan
           x="-29.268749"
           y="0"
           id="tspan5480"><tspan
             style="font-weight:bold;text-anchor:middle"
             id="tspan5478">El Creyente en el Tiempo</tspan></tspan></text>
    </g>
    <path
       id="path7438"
       d="m 219.92686,79.19234 -8.6,-6.7 c -0.78,-0.61 -2.1,-0.61 -2.9,0 l -8.6,6.7 c -1.2,0.91 -0.28,2.4 1.5,2.4 h 5.3 v 16 h -6.9 a 0.99,0.72 0 0 0 -0.7,0.21 l -4.6,3.3 c -0.63,0.45 -0.18,1.2 0.7,1.2 h 16 c 1.1,0 2,-0.64 2,-1.4 v -20 h 5.3 c 1.7,0 2.6,-1.5 1.5,-2.4 z"
       fill="#00d455"
       stroke-width="0.07"
       class="fragment fade-up"
       data-fragment-index="11" />
    <text
       id="text7457"
       x="204.22458"
       y="79.384445"
       fill="#ffffff"
       font-family="sans-serif"
       font-size="3.5px"
       stroke-width="0.26"
       style="line-height:1.25"
       xml:space="preserve"><tspan
         id="tspan7455"
         x="204.22458"
         y="79.384445"
         fill="#ffffff"
         font-size="3.5px"
         stroke-width="0.26"
         sodipodi:role="line">Rapto</tspan></text>
    <g
       id="tit3.5"
       transform="translate(2.6)"
       data-fragment-index="5"
       class="fragment fade-up">
      <rect
         id="rect7487"
         x="9.1000004"
         y="102"
         width="215"
         height="18"
         fill="#008000"
         fill-rule="evenodd"
         stroke="#000000"
         stroke-linejoin="round"
         stroke-width="0.1" />
      <text
         id="text7461"
         x="13.63754"
         y="109.55846"
         fill="#ffffff"
         font-family="sans-serif"
         font-size="6.4px"
         font-weight="bold"
         stroke-width="0.26"
         style="line-height:1.05"
         xml:space="preserve"><tspan
           id="tspan7459"
           x="13.63754"
           y="109.55846"
           sodipodi:role="line">Tito 3:5 nos salvó...no por obras de justicia que nosotros </tspan><tspan
           id="tspan7477"
           x="13.63754"
           y="116.27846"
           sodipodi:role="line">hubiéramos hecho sino por su misericordia...</tspan></text>
    </g>
    <g
       id="1co1.18"
       transform="translate(2.6)"
       class="fragment fade-up"
       data-fragment-index="10">
      <rect
         id="rect7487-2"
         x="9.1000004"
         y="120"
         width="215"
         height="18"
         fill="#00d455"
         fill-rule="evenodd"
         stroke="#000000"
         stroke-linejoin="round"
         stroke-width="0.1" />
      <text
         id="text7465"
         x="12.54438"
         y="126.74744"
         fill="#ffffff"
         font-family="sans-serif"
         font-size="6.4px"
         font-weight="bold"
         stroke-width="0.26"
         style="line-height:1.25"
         xml:space="preserve"><tspan
           id="tspan7475"
           x="12.54438"
           y="126.74744"
           sodipodi:role="line">1Corintios 1:18  Porque la palabra de la cruz es...a los que</tspan><tspan
           id="tspan7485"
           x="12.54438"
           y="134.74744"
           sodipodi:role="line"> se salvan...es poder de Dios.</tspan></text>
    </g>
    <g
       id="rom5.9"
       transform="translate(2.6)"
       class="fragment fade-up"
       data-fragment-index="15">
      <rect
         id="rect7487-5"
         x="9.1000004"
         y="138"
         width="215"
         height="18"
         fill="#ab37c8"
         fill-rule="evenodd"
         stroke="#000000"
         stroke-linejoin="round"
         stroke-width="0.1" />
      <text
         id="text7469"
         transform="scale(1,0.98)"
         x="12.578422"
         y="147.80064"
         fill="#ffffff"
         font-family="sans-serif"
         font-size="6.5px"
         font-weight="bold"
         stroke-width="0.27"
         style="line-height:1.25"
         xml:space="preserve"><tspan
           id="tspan7471"
           x="12.578422"
           y="147.80064"
           sodipodi:role="line">Romanos 5:9 ...estando ya justificados...por él seremos </tspan><tspan
           id="tspan7481"
           x="12.578422"
           y="155.92564"
           sodipodi:role="line">salvos de la ira.</tspan></text>
    </g>
    <g
       id="g4540"
       class="fragment"
       data-fragment-index="8">
      <rect
         style="fill:#ffffff;fill-opacity:1;stroke:#000000;stroke-width:0.277215"
         id="rect2852"
         width="54.633198"
         height="20.475254"
         x="91.683403"
         y="44.047112" />
      <text
         xml:space="preserve"
         transform="matrix(0.265,0,0,0.265,0.56846261,2.12)"
         id="text4089"
         style="font-size:18.6667px;line-height:0.8;font-family:Arial;-inkscape-font-specification:'Arial, Normal';text-align:center;white-space:pre;shape-inside:url(#rect4091);fill:#ffffff;fill-opacity:1;stroke:#000000;stroke-width:1.1"><tspan
           x="375.17956"
           y="178.85629"
           id="tspan5484"><tspan
             style="fill:#000000"
             id="tspan5482">SANTIFICACION</tspan></tspan></text>
      <text
         xml:space="preserve"
         transform="matrix(0.265,0,0,0.31160087,0.37765156,-12.946514)"
         id="text4095"
         style="font-size:18.6667px;line-height:0.8;font-family:Arial;-inkscape-font-specification:'Arial, Normal';text-align:center;white-space:pre;shape-inside:url(#rect4097);fill:#000000;fill-opacity:1;stroke:none;stroke-width:1.1"><tspan
           x="374.09948"
           y="221.58481"
           id="tspan5486">Siendo salvos del </tspan><tspan
           x="365.80519"
           y="236.51817"
           id="tspan5488">PODER del pecado</tspan></text>
    </g>
    <g
       id="g4533"
       class="fragment"
       data-fragment-index="12"
       transform="translate(0,2.65)">
      <rect
         style="fill:#ffffff;fill-opacity:1;stroke:#000000;stroke-width:0.259362"
         id="rect2854"
         width="51.600861"
         height="22.937357"
         x="180.07541"
         y="41.593937" />
      <text
         xml:space="preserve"
         transform="matrix(0.265,0,0,0.265,0.38386496,-1.8337861)"
         id="text4450"
         style="font-size:18.6667px;line-height:0.8;font-family:Arial;-inkscape-font-specification:'Arial, Normal';text-align:center;white-space:pre;shape-inside:url(#rect4452);fill:#000000;fill-opacity:1;stroke:none;stroke-width:1.1"><tspan
           x="701.07994"
           y="185.32114"
           id="tspan5492"><tspan
             style="font-weight:bold"
             id="tspan5490">GLORIFICACION</tspan></tspan></text>
      <text
         xml:space="preserve"
         transform="matrix(0.265,0,0,0.265,-0.25836309,-5.83)"
         id="text4456"
         style="font-size:18.6667px;line-height:0.8;font-family:Arial;-inkscape-font-specification:'Arial, Normal';text-align:center;white-space:pre;shape-inside:url(#rect4458);fill:#000000;fill-opacity:1;stroke:none;stroke-width:1.1"><tspan
           x="698.46307"
           y="224.33481"
           id="tspan5494">Seremos salvos de
</tspan><tspan
           x="699.50214"
           y="239.26817"
           id="tspan5496">la PRESENCIA del
</tspan><tspan
           x="747.21251"
           y="254.20154"
           id="tspan5498">pecado</tspan></text>
    </g>
    <g
       id="g4526"
       data-fragment-index="3"
       class="fragment">
      <rect
         style="fill:#ffffff;fill-opacity:1;stroke:#000000;stroke-width:0.27582"
         id="rect1932"
         width="48.901634"
         height="18.275679"
         x="2.723011"
         y="44.192162" />
      <text
         xml:space="preserve"
         transform="matrix(0.265,0,0,0.265,-0.25,1.59)"
         id="text4462"
         style="font-size:18.6667px;line-height:0.8;font-family:Arial;-inkscape-font-specification:'Arial, Normal';text-align:center;white-space:pre;shape-inside:url(#rect4464);fill:#000000;fill-opacity:1;stroke:none;stroke-width:1.1"><tspan
           x="31.927605"
           y="179.40707"
           id="tspan5502"><tspan
             style="font-weight:bold"
             id="tspan5500">JUSTIFICACION</tspan></tspan></text>
      <text
         xml:space="preserve"
         transform="matrix(0.265,0,0,0.265,-3.6020288,-2.6046155)"
         id="text4513"
         style="font-size:18.6667px;line-height:0.8;font-family:Arial;-inkscape-font-specification:'Arial, Normal';text-align:center;white-space:pre;shape-inside:url(#rect4515);fill:#000000;fill-opacity:1;stroke:none;stroke-width:1.1"><tspan
           x="47.580935"
           y="217.93246"
           id="tspan5504">Nos salvó de la 
</tspan><tspan
           x="40.822459"
           y="232.86583"
           id="tspan5506">PENA del pecado</tspan></text>
    </g>
    <text
       xml:space="preserve"
       transform="matrix(0.265,0,0,0.265,-5.3297692,2.7110329)"
       id="text5016"
       style="font-size:18.6667px;line-height:0.8;font-family:Arial;-inkscape-font-specification:'Arial, Normal';text-align:center;white-space:pre;shape-inside:url(#rect5018);fill:#000000;fill-opacity:1;stroke:none;stroke-width:1.1"><tspan
         x="150.09579"
         y="28.83221"
         id="tspan5510"><tspan
           style="font-size:42.6667px"
           id="tspan5508">Los Tres Tiempos de la Salvacion</tspan></tspan></text>
  </g>
</svg>
