<?xml version="1.0" encoding="UTF-8"?>
<svg id="animation" width="900" height="600.01" version="1.1" viewBox="0 0 238 159" xmlns="http://www.w3.org/2000/svg">
 <g transform="translate(.027997 .0013314)">
  <g stroke="#000">
   <g id="cross-group" class="fragment" transform="matrix(.35 0 0 .35 13.928 -45.238)" fill="#01000a" stroke-opacity="null" stroke-width="null" data-fragment-index="1">
    <rect x="28" y="320" width="18" height="100" opacity="undefined"/>
    <rect x="9" y="338" width="55" height="15" opacity="undefined"/>
   </g>
   <path d="m15 102h205z" fill="none" stroke-width=".27px"/>
   <path d="m31 13h176z" fill="none" stroke-width=".25px"/>
  </g>
  <g id="plus-icon" class="fragment" transform="translate(2.3531 -.92144)" data-fragment-index="2">
   <path d="m40 32h-2.6v-2.6c0-0.35-0.29-0.64-0.64-0.64h-1.3c-0.35 0-0.64 0.29-0.64 0.64v2.6h-2.6c-0.35 0-0.64 0.29-0.64 0.64v1.3c0 0.35 0.29 0.64 0.64 0.64h2.6v2.6c0 0.35 0.29 0.64 0.64 0.64h1.3c0.35 0 0.64-0.29 0.64-0.64v-2.6h2.6c0.35 0 0.64-0.29 0.64-0.64v-1.3c0-0.35-0.29-0.64-0.64-0.64zm-16 1.9c2.8 0 5.1-2.3 5.1-5.1s-2.3-5.1-5.1-5.1-5.1 2.3-5.1 5.1 2.3 5.1 5.1 5.1zm3.6 1.3h-0.67c-0.89 0.41-1.9 0.64-2.9 0.64s-2-0.23-2.9-0.64h-0.67c-3 0-5.4 2.4-5.4 5.4v1.7c0 1.1 0.86 1.9 1.9 1.9h14c1.1 0 1.9-0.86 1.9-1.9v-1.7c0-3-2.4-5.4-5.4-5.4z" fill="#008000" stroke-width=".04"/>
  </g>
  <text class="fragment" transform="translate(4.9091 49.837)" fill="#000000" font-family="sans-serif" font-size="4.9px" style="line-height:1.25;shape-inside:url(#rect7250);white-space:pre" data-fragment-index="3" xml:space="preserve"/>
  <rect class="fragment" x="30.2" y="96" width="177.6" height="5.4998" fill="#00d455" fill-rule="evenodd" stroke="#000" stroke-linejoin="round" stroke-width=".097084" data-fragment-index="6"/>
  <g class="fragment" transform="translate(2.4006)" data-fragment-index="7">
   <g id="man">
    <path d="m122 74c1.4 0 2.6-1.2 2.6-2.6s-1.2-2.6-2.6-2.6-2.6 1.2-2.6 2.6 1.2 2.6 2.6 2.6zm5.1 8-1.2-0.63-0.52-1.6c-0.79-2.4-3-4.1-5.5-4.1-1.9-0.0056-3 0.54-5 1.4-1.2 0.47-2.1 1.4-2.7 2.5l-0.36 0.73c-0.42 0.85-0.08 1.9 0.76 2.3 0.84 0.42 1.9 0.08 2.3-0.77l0.36-0.73c0.19-0.38 0.5-0.67 0.88-0.83l1.4-0.58-0.81 3.3c-0.28 1.1 0.022 2.3 0.8 3.2l3.2 3.5c0.39 0.42 0.66 0.93 0.8 1.5l0.98 3.9c0.23 0.92 1.2 1.5 2.1 1.2 0.92-0.23 1.5-1.2 1.2-2.1l-1.2-4.8c-0.14-0.55-0.41-1.1-0.8-1.5l-2.4-2.7 0.92-3.7 0.29 0.88c0.28 0.86 0.9 1.6 1.7 2l1.2 0.63c0.84 0.42 1.9 0.08 2.3-0.77 0.41-0.84 0.075-1.9-0.77-2.3zm-12 7.5c-0.17 0.43-0.43 0.83-0.76 1.2l-2.7 2.7c-0.67 0.67-0.67 1.8 0 2.4 0.67 0.67 1.8 0.67 2.4 0l3.2-3.2c0.33-0.33 0.58-0.72 0.76-1.2l0.72-1.8c-3-3.2-2.1-2.2-2.5-2.9z" fill="#00d455" stroke="#000" stroke-width=".054"/>
   </g>
   <text transform="translate(116.49 100.1)" x="30.84033" fill="#ffffff" font-family="sans-serif" font-size="4.2px" text-align="center" style="line-height:1.25;shape-inside:url(#rect7317);white-space:pre" xml:space="preserve"/>
  </g>
  <g class="fragment" fill="#000000" font-family="sans-serif" font-size="4.9px" data-fragment-index="8">
   <text class="fragment" transform="translate(122.05 50.297)" x="19.825495" text-align="center" style="line-height:1.25;shape-inside:url(#rect7250-8);white-space:pre" data-fragment-index="8" xml:space="preserve"/>
   <text class="fragment" transform="translate(122 56.194)" x="21.052982" text-align="center" style="line-height:1.25;shape-inside:url(#rect7323);white-space:pre" data-fragment-index="9" xml:space="preserve"/>
  </g>
  <text class="fragment" transform="translate(42.881 56.555)" x="40.676907" fill="#000000" font-family="sans-serif" font-size="4.9px" text-align="center" style="line-height:1.25;shape-inside:url(#rect7323-5);white-space:pre" data-fragment-index="4" xml:space="preserve"/>
  <g class="fragment" data-fragment-index="12">
   <g id="glorification-cloud" class="fragment  fade-up" transform="translate(1.1209)" data-fragment-index="12">
    <path d="m216 31c0.19-0.54 0.29-1.1 0.29-1.8 0-2.7-2-4.9-4.4-4.9-0.9 0-1.7 0.31-2.4 0.82-1.3-2.4-3.6-4.1-6.4-4.1-4.1 0-7.3 3.6-7.3 8.1 0 0.14 5e-3 0.27 0.01 0.41-2.6 1-4.4 3.7-4.4 6.9 0 4 3 7.3 6.6 7.3h17c3.2 0 5.9-2.9 5.9-6.5 0-3.2-2-5.8-4.7-6.4zm-6.6 3.1h-3v5.7c0 0.45-0.33 0.81-0.73 0.81h-2.2c-0.4 0-0.73-0.37-0.73-0.81v-5.7h-3c-0.66 0-0.98-0.88-0.52-1.4l4.8-5.4c0.28-0.32 0.75-0.32 1 0l4.8 5.4c0.46 0.51 0.13 1.4-0.52 1.4z" fill="#ab37c8" stroke-width=".048"/>
   </g>
   <text class="fragment" transform="translate(184.62 50.68)" fill="#000000" font-family="sans-serif" font-size="4.9px" style="line-height:1.25;shape-inside:url(#rect7250-6);white-space:pre" data-fragment-index="13" xml:space="preserve"/>
   <text class="fragment" transform="translate(207.23 57.789)" x="43.879375" fill="#000000" font-family="sans-serif" font-size="4.9px" text-align="center" style="line-height:1.25;shape-inside:url(#rect7323-8);white-space:pre" data-fragment-index="14" xml:space="preserve"/>
  </g>
  <path class="fragment fade-up" d="m219.93 79.192-8.6-6.7c-0.78-0.61-2.1-0.61-2.9 0l-8.6 6.7c-1.2 0.91-0.28 2.4 1.5 2.4h5.3v16h-6.9a0.99 0.72 0 0 0-0.7 0.21l-4.6 3.3c-0.63 0.45-0.18 1.2 0.7 1.2h16c1.1 0 2-0.64 2-1.4v-20h5.3c1.7 0 2.6-1.5 1.5-2.4z" fill="#00d455" stroke-width=".07" data-fragment-index="11"/>
  <text x="204.22458" y="79.384445" fill="#ffffff" font-family="sans-serif" font-size="3.5px" stroke-width=".26" style="line-height:1.25" xml:space="preserve"><tspan x="204.22458" y="79.384445" fill="#ffffff" font-size="3.5px" stroke-width=".26">Rapto</tspan></text>
  <g class="fragment fade-up" transform="translate(2.4)" data-fragment-index="5">
   <rect x="9.1" y="102" width="215" height="18" fill="#008000" fill-rule="evenodd" stroke="#000" stroke-linejoin="round" stroke-width=".1"/>
   <text x="13.63754" y="109.55846" fill="#ffffff" font-family="sans-serif" font-size="6.4px" stroke-width=".26" style="line-height:1.05" xml:space="preserve"><tspan x="13.63754" y="109.55846">Tito 3:5 <tspan font-weight="bold">nos salvó</tspan>...no por obras de justicia que nosotros </tspan><tspan x="13.63754" y="116.27846">hubiéramos hecho sino por su misericordia...</tspan></text>
  </g>
  <g class="fragment fade-up" transform="translate(2.4)" data-fragment-index="10">
   <rect x="9.1" y="120" width="215" height="18" fill="#00d455" fill-rule="evenodd" stroke="#000" stroke-linejoin="round" stroke-width=".1"/>
   <text x="12.54438" y="126.74744" fill="#ffffff" font-family="sans-serif" font-size="6.4px" stroke-width=".26" style="line-height:1.25" xml:space="preserve"><tspan x="12.54438" y="126.74744">1Corintios 1:18  Porque la palabra de la cruz es...a los que</tspan><tspan x="12.54438" y="134.74744"> <tspan font-weight="bold">se salvan</tspan>...es poder de Dios.</tspan></text>
  </g>
  <g class="fragment fade-up" transform="translate(2.4)" data-fragment-index="15">
   <rect x="9.1" y="138" width="215" height="18" fill="#ab37c8" fill-rule="evenodd" stroke="#000" stroke-linejoin="round" stroke-width=".1"/>
   <text transform="scale(1 .98)" x="12.578422" y="147.80064" fill="#ffffff" font-family="sans-serif" font-size="6.5px" stroke-width=".27" style="line-height:1.25" xml:space="preserve"><tspan x="12.578422" y="147.80064">Romanos 5:9 ...estando ya justificados...por él <tspan font-weight="bold">seremos </tspan></tspan><tspan x="12.578422" y="155.92564"><tspan font-weight="bold">salvos</tspan> de la ira.</tspan></text>
  </g>
  <rect x="-.25011" y="-.0013314" width="238.5" height="159" fill="none"/>
  <text transform="matrix(.265 0 0 .265 22.447 0)" fill="#999999" font-family="sans-serif" font-size="29.333px" font-weight="bold" stroke="#000000" stroke-width=".2" style="font-variant-caps:normal;font-variant-east-asian:normal;font-variant-ligatures:normal;font-variant-numeric:normal;shape-inside:url(#rect2678);white-space:pre" xml:space="preserve"/>
 </g>
</svg>
