<?xml version="1.0" encoding="UTF-8"?>
<svg viewBox="0 0 640 480" xmlns="http://www.w3.org/2000/svg">
 <g fill-rule="evenodd" stroke="#000">
  <path d="m138.4 364.92v-144.16l3.895-14.396c14.204-52.496 52.147-86.079 104.92-92.859 32.286-4.1482 71.058 9.9178 96.974 35.18 12.676 12.357 20.817 25.015 26.63 41.405l4.1996 11.842 0.4267 153.57 0.4267 153.57h-237.46v-144.16zm129.48 101.99c4.5119-10.982 9.4807-21.076 11.042-22.433 4.5442-3.9492 3.3874-4.9683-5.6397-4.9683-8.0649 0-11.264 2.0266-6.1658 3.9055 1.2717 0.46863 2.3122 2.4079 2.3122 4.3096 0 3.9671-7.5697 24.351-9.042 24.348-1.7264-0.00296-10.979-27.927-10.035-30.287 0.74528-1.865-0.51247-2.2763-6.9626-2.2763-7.679 0-10.006 1.6124-5.7689 3.9971 3.0841 1.7357 6.0343 8.0633 12.457 26.718 3.2494 9.4378 6.571 16.653 7.6666 16.653 1.0633 0 5.6248-8.9849 10.137-19.966zm18.498-65.13c4.5119-10.982 9.4807-21.076 11.042-22.433 4.5442-3.9491 3.3874-4.9682-5.6398-4.9682-8.0649 0-11.264 2.0266-6.1658 3.9054 1.2717 0.46863 2.3122 2.4079 2.3122 4.3096 0 3.9671-7.5697 24.351-9.042 24.348-1.7264-0.00293-10.978-27.927-10.035-30.287 0.74527-1.8651-0.51248-2.2763-6.9626-2.2763-7.679 0-10.006 1.6124-5.7689 3.9971 3.0841 1.7357 6.0343 8.0632 12.457 26.718 3.2494 9.4378 6.571 16.653 7.6666 16.653 1.0633 0 5.6248-8.9849 10.137-19.966zm-40.071 15.882c0-0.61829-1.3873-1.9562-3.0829-2.973-2.7922-1.6745-3.0829-3.452-3.0829-18.846s0.29076-17.172 3.0829-18.846c5.1867-3.1105 3.5162-4.0972-6.9366-4.0972s-12.123 0.98666-6.9366 4.0972c2.8066 1.6831 3.0829 3.4519 3.0829 19.738 0 16.644-0.21454 17.943-3.0829 18.663-6.3799 1.6021-2.7222 3.3893 6.9366 3.3893 5.5107 0 10.02-0.50586 10.02-1.1242zm40.078-62.17c0-0.61832-1.3873-1.9562-3.0829-2.973-2.7922-1.6745-3.0829-3.4519-3.0829-18.846 0-15.395 0.29077-17.172 3.0829-18.846 1.6956-1.0169 3.0829-2.3547 3.0829-2.973 0-0.61829-12.139-1.1242-26.976-1.1242-14.836 0-26.976 0.50586-26.976 1.1242 0 0.61832 1.3873 1.9562 3.0829 2.973 2.8066 1.6831 3.0829 3.4519 3.0829 19.738 0 16.644-0.21452 17.943-3.0829 18.663-8.7438 2.1958-0.3297 3.3894 23.892 3.3894 14.836 0 26.976-0.50586 26.976-1.1242zm-33.912-65.13c0-0.61832-1.3873-1.9562-3.0829-2.973-2.7922-1.6745-3.0829-3.4519-3.0829-18.846s0.29077-17.172 3.0829-18.846c5.1867-3.1105 3.5162-4.0972-6.9366-4.0972s-12.123 0.98668-6.9365 4.0972c2.8066 1.6832 3.0829 3.452 3.0829 19.738 0 16.644-0.21452 17.943-3.0829 18.663-6.3799 1.6021-2.7222 3.3894 6.9365 3.3894 5.5107 0 10.02-0.50589 10.02-1.1242zm33.912 0c0-0.61832-1.3873-1.9562-3.0829-2.973-2.7922-1.6745-3.0829-3.4519-3.0829-18.846s0.29077-17.172 3.0829-18.846c5.1867-3.1105 3.5162-4.0972-6.9366-4.0972s-12.123 0.98668-6.9365 4.0972c2.8066 1.6832 3.0829 3.452 3.0829 19.738 0 16.644-0.21451 17.943-3.0829 18.663-6.3799 1.6021-2.7222 3.3894 6.9365 3.3894 5.5107 0 10.02-0.50589 10.02-1.1242zm-18.498-65.13c0-0.6183-1.3873-1.9562-3.0829-2.973-2.7922-1.6745-3.0829-3.452-3.0829-18.846s0.29074-17.172 3.0829-18.846c5.1867-3.1105 3.5162-4.0972-6.9365-4.0972s-12.123 0.98666-6.9366 4.0972c2.8066 1.6832 3.0829 3.452 3.0829 19.738 0 16.644-0.21452 17.943-3.0829 18.663-6.3799 1.6021-2.7222 3.3894 6.9366 3.3894 5.5107 0 10.019-0.50588 10.019-1.1242z"/>
  <path d="m248.17 351.9c-2.775-2.6648-2.5684-34.328 0.23865-36.565 4.3539-3.4699 5.7199 1.6956 5.2646 19.909-0.42911 17.168-1.5229 20.478-5.5033 16.656z"/>
  <path d="m263.63 351.94c-1.2898-1.2386-1.9088-7.199-1.9088-18.378 0-13.29 0.48029-16.928 2.4414-18.491 1.7717-1.412 3.1459-1.519 5.0097-0.38998 2.1715 1.3153 2.5683 4.39 2.5683 19.897 0 17.249-0.18475 18.367-3.1009 18.768-1.7055 0.23474-3.9599-0.39807-5.0097-1.4062z"/>
  <path d="m372.7 364.92v-144.16l3.895-14.396c14.204-52.496 52.147-86.079 104.92-92.859 32.286-4.1482 71.058 9.9178 96.974 35.18 12.676 12.357 20.817 25.015 26.63 41.405l4.1996 11.842 0.4267 153.57 0.4266 153.57h-237.46v-144.16zm123.32 116.04c0-0.81412-1.0405-1.4802-2.3122-1.4802-3.2943 0-2.8584-4.8626 0.9986-11.14l3.3108-5.3885 4.7603 7.8943c2.6181 4.3418 4.5661 8.7269 4.3289 9.7446-0.30081 1.2905 1.9213 1.8503 7.3436 1.8503 8.2742 0 9.6246-1.139 4.789-4.0389-1.6422-0.9848-5.8851-6.477-9.4286-12.205l-6.4428-10.414 5.6796-6.6559c3.1238-3.6608 7.0199-7.3448 8.6579-8.1866 5.4076-2.7791 3.1095-4.387-6.2704-4.387-9.2302 0-11.62 1.5389-6.5892 4.2426 2.51 1.3489 2.5021 1.7462-0.13886 7.0646l-2.7985 5.6353-3.7068-5.8809c-2.0388-3.2344-3.7104-7.0465-3.7148-8.4713-0.006104-2.1207-1.4055-2.5904-7.7152-2.5904-7.9879 0-9.874 1.7428-4.7408 4.3808 1.6315 0.8385 5.5008 5.531 8.5985 10.428l5.6321 8.9034-5.6319 7.3675c-3.0976 4.0521-7.3137 8.6379-9.3693 10.191-2.0555 1.5527-3.7373 3.2268-3.7373 3.7202 0 0.49341 4.162 0.89712 9.2487 0.89712 5.1382 0 9.2488-0.65784 9.2488-1.4802zm-10.79-63.492c0-0.72702-1.0405-1.7052-2.3122-2.1739-1.8836-0.69412-2.3122-4.261-2.3122-19.243s0.42853-18.549 2.3122-19.243c5.2888-1.9489 1.8138-3.9054-6.9365-3.9054s-12.225 1.9565-6.9366 3.9054c1.8836 0.69412 2.3122 4.261 2.3122 19.243s-0.42853 18.549-2.3122 19.243c-5.0628 1.8656-1.828 3.4957 6.9366 3.4957 5.0868 0 9.2487-0.59485 9.2487-1.3219zm16.956-0.8381c0-2.6082 7.9881-15.603 9.5916-15.603 0.62482 0 2.53 2.624 4.2337 5.831 2.7438 5.1646 2.8354 6.083 0.80206 8.0356-3.624 3.4801-2.8812 3.8962 6.953 3.8962 9.0167 0 12.217-1.8563 6.3063-3.6578-3.1269-0.95297-15.555-15.805-15.555-18.589 0-2.8714 7.856-14.657 11.711-17.569 5.7284-4.327 4.5779-6.072-4.0037-6.072-6.8387 0-7.7073 0.35565-7.7073 3.1558 0 1.7357-1.4978 5.483-3.3285 8.3274l-3.3284 5.1717-2.7728-4.9969c-3.5398-6.3792-3.5296-6.8265 0.18091-7.9574 6.0383-1.8404 2.939-3.7006-6.1658-3.7006-7.0002 0-9.2488 0.51556-9.2488 2.1206 0 1.1664 1.2785 2.5103 2.8411 2.9865 1.5625 0.47626 5.1397 3.9396 7.9492 7.6964l5.1082 6.8305-3.7103 6.7042c-2.0406 3.6873-6.3115 9.3697-9.4907 12.627-3.1792 3.2578-5.7805 6.1479-5.7805 6.4225 0 0.27454 3.4683 0.49915 7.7073 0.49915 5.7276 0 7.7073-0.55481 7.7073-2.16zm-43.584-72.592c3.805-10.584 8.2315-20.618 9.8366-22.299 4.2288-4.4277 3.7091-5.0854-4.018-5.0854-6.1501 0-6.9426 0.37759-6.9896 3.3305-0.029083 1.8318-2.3558 9.6183-5.1703 17.303l-5.1173 13.973-4.8491-12.075c-5.6927-14.175-5.8691-15.983-1.7662-18.091 5.5096-2.8315 3.2753-4.4407-6.1658-4.4407-9.0344 0-11.627 1.5352-6.8912 4.0803 2.3203 1.247 11.463 20.259 17.098 35.555 1.8014 4.8897 3.6695 7.6573 4.996 7.4012 1.1993-0.23151 5.1212-8.7603 9.037-19.652zm40.501 15.542c0-0.81415-1.0405-1.4802-2.3122-1.4802-1.9358 0-2.3122-3.1074-2.3122-19.085 0-15.599 0.42236-19.24 2.3122-19.937 5.2888-1.9489 1.8137-3.9054-6.9366-3.9054s-12.225 1.9565-6.9366 3.9054c1.8836 0.69409 2.3122 4.261 2.3122 19.243s-0.42856 18.549-2.3122 19.243c-5.0628 1.8656-1.828 3.4958 6.9366 3.4958 5.1382 0 9.2488-0.65787 9.2488-1.4802zm27.746 0.3561c0-0.61832-1.3873-1.9562-3.083-2.973-2.7922-1.6745-3.0829-3.4519-3.0829-18.846 0-15.395 0.29071-17.172 3.0829-18.846 5.1867-3.1105 3.5163-4.0972-6.9365-4.0972s-12.123 0.98669-6.9366 4.0972c2.8066 1.6832 3.0829 3.4519 3.0829 19.738 0 16.644-0.21448 17.943-3.0829 18.663-6.3799 1.6021-2.7222 3.3894 6.9366 3.3894 5.5107 0 10.02-0.50586 10.02-1.1242zm26.205 0c0-0.61832-1.3873-1.9562-3.0829-2.973-2.7922-1.6745-3.083-3.4519-3.083-18.846 0-15.395 0.29077-17.172 3.083-18.846 5.1867-3.1105 3.5162-4.0972-6.9366-4.0972s-12.123 0.98669-6.9365 4.0972c2.8066 1.6832 3.0829 3.4519 3.0829 19.738 0 16.644-0.21448 17.943-3.0829 18.663-6.3799 1.6021-2.7222 3.3894 6.9365 3.3894 5.5107 0 10.02-0.50586 10.02-1.1242zm-79.038-81.029c3.805-10.584 8.2315-20.618 9.8366-22.299 4.2288-4.4277 3.7091-5.0854-4.018-5.0854-6.1501 0-6.9426 0.37761-6.9896 3.3305-0.029083 1.8318-2.3558 9.6184-5.1703 17.303l-5.1173 13.973-4.8491-12.075c-5.6927-14.175-5.8691-15.983-1.7662-18.091 5.5096-2.8316 3.2753-4.4407-6.1658-4.4407-9.0344 0-11.627 1.5352-6.8912 4.0803 2.3203 1.247 11.463 20.259 17.098 35.555 1.8014 4.8898 3.6695 7.6573 4.996 7.4012 1.1993-0.23151 5.1212-8.7602 9.037-19.652zm40.501 15.542c0-0.81412-1.0405-1.4802-2.3122-1.4802-1.9357 0-2.3122-3.1074-2.3122-19.085 0-15.599 0.42236-19.24 2.3122-19.937 5.2888-1.9489 1.8138-3.9054-6.9365-3.9054s-12.225 1.9565-6.9366 3.9054c1.8836 0.69409 2.3122 4.261 2.3122 19.243s-0.42856 18.549-2.3122 19.243c-5.0628 1.8656-1.828 3.4958 6.9366 3.4958 5.1382 0 9.2487-0.6579 9.2487-1.4802zm27.746 0.3561c0-0.61829-1.3873-1.9562-3.083-2.973-2.7922-1.6745-3.0829-3.4519-3.0829-18.846s0.29071-17.172 3.0829-18.846c5.1867-3.1105 3.5163-4.0972-6.9365-4.0972s-12.123 0.98668-6.9365 4.0972c2.8066 1.6832 3.0829 3.452 3.0829 19.738 0 16.644-0.21448 17.943-3.0829 18.663-6.3799 1.6021-2.7222 3.3894 6.9365 3.3894 5.5107 0 10.02-0.50589 10.02-1.1242zm-49.75-83.99c3.805-10.584 8.2315-20.618 9.8366-22.299 4.2288-4.4278 3.7091-5.0854-4.018-5.0854-6.1501 0-6.9426 0.37761-6.9896 3.3305-0.029083 1.8318-2.3558 9.6183-5.1704 17.303l-5.1172 13.973-4.8491-12.075c-5.6927-14.175-5.8691-15.983-1.7662-18.091 5.5096-2.8316 3.2753-4.4407-6.1658-4.4407-9.0344 0-11.627 1.5352-6.8912 4.0803 2.3202 1.247 11.463 20.259 17.098 35.555 1.8014 4.8898 3.6695 7.6573 4.996 7.4012 1.1993-0.23152 5.1212-8.7603 9.037-19.652zm40.501 15.542c0-0.81413-1.0405-1.4802-2.3122-1.4802-1.9358 0-2.3122-3.1074-2.3122-19.085 0-15.599 0.42236-19.24 2.3122-19.937 5.2888-1.9489 1.8137-3.9054-6.9366-3.9054-8.7502 0-12.225 1.9565-6.9365 3.9054 1.8837 0.69409 2.3122 4.261 2.3122 19.243s-0.42853 18.549-2.3122 19.243c-5.0628 1.8656-1.828 3.4958 6.9365 3.4958 5.1382 0 9.2488-0.65788 9.2488-1.4802z"/>
 </g>
</svg>
