<?xml version="1.0" encoding="UTF-8"?>
<svg viewBox="0 0 640 480" xmlns="http://www.w3.org/2000/svg">
 <path d="m0 0v480h640v-480h-640z" fill="#fff"/>
 <path d="m100 0 1 1-1-1z" fill="#cdcdcd"/>
 <path d="m101 0 1 1-1-1z" fill="#333"/>
 <path d="m102,0c1.248.68481 1.548.74878 3,1-1.248-.68484-1.548-.74878-3-1z" fill="#cd9974"/>
 <path d="m105.667.33334c-.445.4444.611.38892.666.33331 .445-.44443-.611-.38889-.666-.33331z" fill="#010101"/>
 <path d="m330 144 1 1-1-1z" fill="#7a9998"/>
 <path d="m331 144 1 1-1-1z" fill="#333"/>
 <path d="m319 145 1 1-1-1z" fill="#336767"/>
 <path d="m341 181c-7.147 0.904-20.375 7.26-26.999 4.647-5.042-1.988-8.107-7.955-12.016-11.462-6.633-5.95-15.171-8.521-23.985-8.146-23.623 1.006-21.07 20.342-5 30.961-11.574 10.014-39.792 18.961-37.748 38 0.659 6.13 5.563 11.907 8.687 17 6.628 10.808 11.699 23.607 20.726 32.725 4.998 5.049 13.628 6.985 18.763 1.05 12.7-14.674-15.97-31.026-16.597-44.76-0.375-8.208 11.655-12.68 16.169-16.015 12.591 2.994 27.728 18.885 39.155 27.756 12.588 9.7725 24.237 19.488 35.845 30.298 13.531 12.602 23.382 28.419 38 39.731 9.876 7.643 23.092 11.185 35 14.331 5.747 1.518 14.225 2.495 18.892 6.317 8.44 6.912 1.41 22.409 12.152 27.084 14.896 6.482 14.956-9.461 14.956-19.517 0-15.665 1.525-24.944-16-29 5.403-1.582 10.483 0.274 16-0.045 8.165-0.472 10.17-8.784 5.486-14.896-5.638-7.359-20.278-5.384-24.833-14.192-6.29-12.161-3.563-30.057-15.696-39.229-12.658-9.568-34.122-8.292-48.957-12.812-5.658-1.723-10.118-6.281-15-9.482-11.774-7.72-27.109-16.352-36-27.344 5.907-0.872 11.435-3.325 17-5.424 6.006-2.265 16.995-3.671 19.381-10.581 1.839-5.326-2.74-10.374-6.396-13.556-10.42-9.065-24.915-23.849-37.985-28.331-5.824-1.997-17.667-2.697-17.897 5.907-0.345 12.868 18.367 19.721 24.897 28.985z" fill="#010101"/>
 <path d="m332 145 1 1-1-1z" fill="#99cdcd"/>
 <path d="m333 145 1 1-1-1z" fill="#7a9998"/>
 <path d="m334 145 1 1-1-1z" fill="#333"/>
 <path d="m318 146 1 1-1-1z" fill="#7a9998"/>
 <path d="m335 146 1 1-1-1z" fill="#99cdcd"/>
 <path d="m336 146 1 1-1-1m-20 1 1 1-1-1z" fill="#336767"/>
 <path d="m340 149 1 1-1-1z" fill="#99cdcd"/>
 <path d="m341 149 1 1-1-1z" fill="#336767"/>
 <path d="m321,150c1.097,9.849 12.256,15.669 18.999,21.914 4.227,3.915 8.991,7.727 2.942,12.656-5.649,4.603-26.512,9.454-32.926,5.571-11.803-7.145-23.301-27.924-40.906-16.862-13.849,8.701 11.973,18.242 8.674,26.628-4.503,11.448-26.013,14.094-33.08,24.136-9.062,12.877 9.499,37.542 16.451,48.918 2.851,4.664 8.573,11.345 14.802,10.281 4.933-.842 6.058-6.275 4.296-10.242-4.308-9.692-18.796-21.702-19.39-32-.517-8.966 22.161-25.002 30.134-20.853 8.4,4.372 15.599,12.944 23.004,18.849 16.703,13.319 34.938,26.839 49.996,42.005 12.169,12.256 22.387,27.503 36.004,38.18 14.502,11.37 34.433,9.413 50,17.958 12.972,7.12 5.899,28.683 21,28.861 0-7.782 3.659-28.049-1.028-34.298-3.465-4.621-15.656-6.589-20.972-8.702-15.308-6.085-26.07-11.071-38-23-7.556-7.556-15.226-14.977-22.285-23-1.799-2.044-7.558-6.369-6.369-9.592 1.002-2.719 5.792-.976 7.654-.537l22,4.919c7.096,1.532 14.02,2.461 18.146,9.211 4.948,8.094 3.503,26.128 11.506,31.972 3.662,2.674 11.037,1.814 15.348,2.117 4.027.282 20.583,4.451 22.288-.403 1.073-3.056-1.912-5.255-4.332-6.208-7.744-3.047-17.289-4.701-21.87-12.483-6.621-11.245-3.186-29.824-14.191-38.347-10.398-8.053-30.395-7.235-42.895-10.573-15.886-4.242-29.088-16.859-42-26.446-5.221-3.877-12.556-7.182-16.303-12.631-6.24-9.072 21.388-15.745 27.303-17.655 2.936-.948 9.15-1.898 7.593-6.373-1.698-4.879-8.741-8.689-12.593-11.771-11.837-9.47-23.089-22.19-39-22.2z" fill="#fff"/>
 <path d="m330 150 1 1-1-1z" fill="#336767"/>
 <path d="m331 150 1 1-1-1z" fill="#7a9998"/>
 <path d="m342 150 1 1-1-1z" fill="#676768"/>
 <path d="m333 151 1 1-1-1m10 0 1 1-1-1z" fill="#7a9998"/>
 <path d="m334 152 1 1-1-1z" fill="#336767"/>
 <path d="m335 152 1 1-1-1m9 0 1 1-1-1z" fill="#99cdcd"/>
 <path d="m336 153 1 1-1-1z" fill="#7a9998"/>
 <path d="m345 153 1 1-1-1z" fill="#99cdcd"/>
 <path d="m321 154 1 1-1-1z" fill="#7a9998"/>
 <path d="m337 154 1 1-1-1z" fill="#676768"/>
 <path d="m346 154 1 1-1-1z" fill="#99cdcd"/>
 <path d="m347 154 1 1-1-1z" fill="#336767"/>
 <path d="m338 155 1 1-1-1z" fill="#333"/>
 <path d="m339 155 1 1-1-1z" fill="#99cdcd"/>
 <path d="m348 155 1 1-1-1z" fill="#676768"/>
 <path d="m316 156 1 1-1-1z" fill="#99cdcd"/>
 <path d="m322 156 1 1-1-1m18 0 1 1-1-1m9 0 1 1-1-1z" fill="#7a9998"/>
 <path d="m316 157 1 1-1-1z" fill="#333"/>
 <path d="m323 157 1 1-1-1z" fill="#336767"/>
 <path d="m341 157 1 1-1-1z" fill="#676768"/>
 <path d="m350 157 1 1-1-1z" fill="#99cdcd"/>
 <path d="m317 158 1 1-1-1z" fill="#7a9998"/>
 <path d="m323 158 1 1-1-1z" fill="#99cdcd"/>
 <path d="m324 158 1 1-1-1z" fill="#333"/>
 <path d="m342 158 1 1-1-1z" fill="#676768"/>
 <path d="m351 158 1 1-1-1m-33 1 1 1-1-1z" fill="#99cdcd"/>
 <path d="m325 159 1 1-1-1m18 0 1 1-1-1z" fill="#336767"/>
 <path d="m344 159 1 1-1-1m8 0 1 1-1-1z" fill="#99cdcd"/>
 <path d="m318 160 1 1-1-1z" fill="#333"/>
 <path d="m326 160 1 1-1-1m19 0 1 1-1-1z" fill="#7a9998"/>
 <path d="m353 160 1 1-1-1z" fill="#99cdcd"/>
 <path d="m319 161 1 1-1-1z" fill="#676768"/>
 <path d="m327 161 1 1-1-1m19 0 1 1-1-1z" fill="#7a9998"/>
 <path d="m354 161 1 1-1-1z" fill="#99cdcd"/>
 <path d="m355 161 1 1-1-1z" fill="#336767"/>
 <path d="m320 162 1 1-1-1z" fill="#676768"/>
 <path d="m328 162 1 1-1-1z" fill="#99cdcd"/>
 <path d="m329 162 1 1-1-1z" fill="#333"/>
 <path d="m347 162 1 1-1-1z" fill="#336767"/>
 <path d="m356 162 1 1-1-1z" fill="#7a9998"/>
 <path d="m321 163 1 1-1-1z" fill="#676768"/>
 <path d="m330 163 1 1-1-1z" fill="#336767"/>
 <path d="m349 163 1 1-1-1m8 0 1 1-1-1z" fill="#99cdcd"/>
 <path d="m358 163 1 1-1-1z" fill="#336767"/>
 <path d="m322 164 1 1-1-1z" fill="#676768"/>
 <path d="m331 164 1 1-1-1m19 0 1 1-1-1m9 0 1 1-1-1z" fill="#7a9998"/>
 <path d="m323 165 1 1-1-1z" fill="#676768"/>
 <path d="m332 165 1 1-1-1z" fill="#7a9998"/>
 <path d="m351 165 1 1-1-1z" fill="#676768"/>
 <path d="m360 165 1 1-1-1z" fill="#99cdcd"/>
 <path d="m361 165 1 1-1-1z" fill="#333"/>
 <path d="m272 166 1 1-1-1z" fill="#7a9998"/>
 <path d="m273 166 1 1-1-1m13 0 1 1-1-1z" fill="#99cdcd"/>
 <path d="m287 166 1 1-1-1z" fill="#7a9998"/>
 <path d="m288 166 1 1-1-1z" fill="#336767"/>
 <path d="m324 166 1 1-1-1z" fill="#676768"/>
 <path d="m333 166 1 1-1-1z" fill="#99cdcd"/>
 <path d="m334 166 1 1-1-1z" fill="#333"/>
 <path d="m352 166 1 1-1-1m10 0 1 1-1-1z" fill="#336767"/>
 <path d="m267 167 1 1-1-1z" fill="#333"/>
 <path d="m268 167 1 1-1-1m22 0 1 1-1-1z" fill="#7a9998"/>
 <path d="m291 167 1 1-1-1z" fill="#676768"/>
 <path d="m325 167 1 1-1-1z" fill="#333"/>
 <path d="m326 167 1 1-1-1z" fill="#99cdcd"/>
 <path d="m335 167 1 1-1-1z" fill="#336767"/>
 <path d="m354 167 1 1-1-1z" fill="#99cdcd"/>
 <path d="m363 167 1 1-1-1m-97 1 1 1-1-1z" fill="#7a9998"/>
 <path d="m293 168 1 1-1-1z" fill="#99cdcd"/>
 <path d="m294 168 1 1-1-1z" fill="#336767"/>
 <path d="m327 168 1 1-1-1z" fill="#7a9998"/>
 <path d="m336 168 1 1-1-1z" fill="#676768"/>
 <path d="m355 168 1 1-1-1m9 0 1 1-1-1z" fill="#7a9998"/>
 <path d="m264 169 1 1-1-1z" fill="#676768"/>
 <path d="m295 169 1 1-1-1z" fill="#7a9998"/>
 <path d="m328 169 1 1-1-1z" fill="#333"/>
 <path d="m329 169 1 1-1-1z" fill="#99cdcd"/>
 <path d="m337 169 1 1-1-1z" fill="#7a9998"/>
 <path d="m356 169 1 1-1-1z" fill="#676768"/>
 <path d="m365 169 1 1-1-1z" fill="#99cdcd"/>
 <path d="m366 169 1 1-1-1z" fill="#333"/>
 <path d="m262 170 1 1-1-1z" fill="#336767"/>
 <path d="m263 170 1 1-1-1z" fill="#99cdcd"/>
 <path d="m357 170 1 1-1-1m10 0 1 1-1-1z" fill="#336767"/>
 <path d="m261 171 1 1-1-1m9 0 1 1-1-1z" fill="#7a9998"/>
 <path d="m285 171 1 1-1-1z" fill="#7a9998"/>
 <path d="m298 171 1 1-1-1z" fill="#99cdcd"/>
 <path d="m299 171 1 1-1-1z" fill="#333"/>
 <path d="m331 171 1 1-1-1z" fill="#336767"/>
 <path d="m339 171 1 1-1-1m20 0 1 1-1-1z" fill="#99cdcd"/>
 <path d="m368 171 1 1-1-1z" fill="#7a9998"/>
 <path d="m269 172 1 1-1-1z" fill="#676768"/>
 <path d="m287 172 1 1-1-1z" fill="#336767"/>
 <path d="m288 172 1 1-1-1z" fill="#7a9998"/>
 <path d="m300 172 1 1-1-1z" fill="#336767"/>
 <path d="m333 172 1 1-1-1m7 0 1 1-1-1z" fill="#99cdcd"/>
 <path d="m360 172 1 1-1-1m9 0 1 1-1-1z" fill="#7a9998"/>
 <path d="m260 173 1 1-1-1z" fill="#676768"/>
 <path d="m268 173 1 1-1-1z" fill="#336767"/>
 <path d="m290 173 1 1-1-1m11 0 1 1-1-1m33 0 1 1-1-1z" fill="#7a9998"/>
 <path d="m341 173 1 1-1-1z" fill="#99cdcd"/>
 <path d="m361 173 1 1-1-1z" fill="#676768"/>
 <path d="m370 173 1 1-1-1z" fill="#99cdcd"/>
 <path d="m371 173 1 1-1-1z" fill="#336767"/>
 <path d="m266 174 1 1-1-1z" fill="#99cdcd"/>
 <path d="m292 174 1 1-1-1z" fill="#336767"/>
 <path d="m293 174 1 1-1-1m9 0 1 1-1-1z" fill="#7a9998"/>
 <path d="m335 174 1 1-1-1z" fill="#676768"/>
 <path d="m342 174 1 1-1-1z" fill="#99cdcd"/>
 <path d="m362 174 1 1-1-1z" fill="#336767"/>
 <path d="m372 174 1 1-1-1z" fill="#676768"/>
 <path d="m259 175 1 1-1-1z" fill="#336767"/>
 <path d="m265 175 1 1-1-1z" fill="#99cdcd"/>
 <path d="m295 175 1 1-1-1z" fill="#7a9998"/>
 <path d="m303 175 1 1-1-1z" fill="#99cdcd"/>
 <path d="m336 175 1 1-1-1z" fill="#7a9998"/>
 <path d="m343 175 1 1-1-1z" fill="#99cdcd"/>
 <path d="m344 175 1 1-1-1z" fill="#336767"/>
 <path d="m364 175 1 1-1-1z" fill="#99cdcd"/>
 <path d="m373 175 1 1-1-1m-114 1 1 1-1-1z" fill="#7a9998"/>
 <path d="m265 176 1 1-1-1z" fill="#676768"/>
 <path d="m296 176 1 1-1-1z" fill="#336767"/>
 <path d="m297 176 1 1-1-1z" fill="#99cdcd"/>
 <path d="m304 176 1 1-1-1z" fill="#7a9998"/>
 <path d="m337 176 1 1-1-1z" fill="#676768"/>
 <path d="m345 176 1 1-1-1m20 0 1 1-1-1z" fill="#7a9998"/>
 <path d="m374 176 1 1-1-1z" fill="#99cdcd"/>
 <path d="m258 177 1 1-1-1z" fill="#333"/>
 <path d="m298 177 1 1-1-1m7 0 1 1-1-1z" fill="#7a9998"/>
 <path d="m338 177 1 1-1-1z" fill="#676768"/>
 <path d="m366 177 1 1-1-1z" fill="#7a9998"/>
 <path d="m375 177 1 1-1-1z" fill="#99cdcd"/>
 <path d="m258 178 1 1-1-1z" fill="#7a9998"/>
 <path d="m264 178 1 1-1-1z" fill="#99cdcd"/>
 <path d="m299 178 1 1-1-1z" fill="#676768"/>
 <path d="m306 178 1 1-1-1z" fill="#336767"/>
 <path d="m339 178 1 1-1-1z" fill="#676768"/>
 <path d="m367 178 1 1-1-1z" fill="#336767"/>
 <path d="m368 178 1 1-1-1z" fill="#99cdcd"/>
 <path d="m376 178 1 1-1-1z" fill="#7a9998"/>
 <path d="m300 179 1 1-1-1z" fill="#7a9998"/>
 <path d="m307 179 1 1-1-1z" fill="#333"/>
 <path d="m340 179 1 1-1-1m29 0 1 1-1-1z" fill="#7a9998"/>
 <path d="m377 179 1 1-1-1m-112 1 1 1-1-1z" fill="#336767"/>
 <path d="m301 180 1 1-1-1m6 0 1 1-1-1z" fill="#99cdcd"/>
 <path d="m339 180 1 1-1-1z" fill="#676768"/>
 <path d="m340 180 1 1-1-1z" fill="#99cdcd"/>
 <path d="m370 180 1 1-1-1z" fill="#676768"/>
 <path d="m377 180 1 1-1-1z" fill="#99cdcd"/>
 <path d="m265 181 1 1-1-1m43 0 1 1-1-1z" fill="#7a9998"/>
 <path d="m332 181 1 1-1-1z" fill="#336767"/>
 <path d="m346 181 1 1-1-1m25 0 1 1-1-1z" fill="#7a9998"/>
 <path d="m378 181 1 1-1-1z" fill="#336767"/>
 <path d="m265 182 1 1-1-1z" fill="#99cdcd"/>
 <path d="m302 182 1 1-1-1m7 0 1 1-1-1z" fill="#336767"/>
 <path d="m329 182 1 1-1-1z" fill="#333"/>
 <path d="m330 182 1 1-1-1m15 0 1 1-1-1m27 0 1 1-1-1z" fill="#7a9998"/>
 <path d="m378 182 1 1-1-1z" fill="#99cdcd"/>
 <path d="m266 183 1 1-1-1z" fill="#333"/>
 <path d="m303 183 1 1-1-1z" fill="#7a9998"/>
 <path d="m310 183 1 1-1-1z" fill="#333"/>
 <path d="m328 183 1 1-1-1z" fill="#99cdcd"/>
 <path d="m344 183 1 1-1-1z" fill="#7a9998"/>
 <path d="m373 183 1 1-1-1z" fill="#99cdcd"/>
 <path d="m379 183 1 1-1-1z" fill="#336767"/>
 <path d="m259 184 1 1-1-1z" fill="#676768"/>
 <path d="m266 184 1 1-1-1m38 0 1 1-1-1z" fill="#7a9998"/>
 <path d="m311 184 1 1-1-1m11 0 1 1-1-1z" fill="#676768"/>
 <path d="m323 184 1 1-1-1m20 0 1 1-1-1z" fill="#7a9998"/>
 <path d="m373 184 1 1-1-1z" fill="#333"/>
 <path d="m260 185 1 1-1-1m6 0 1 1-1-1m46 0 1 1-1-1z" fill="#99cdcd"/>
 <path d="m318 185 1 1-1-1z" fill="#676768"/>
 <path d="m342 185 1 1-1-1z" fill="#7a9998"/>
 <path d="m374 185 1 1-1-1z" fill="#99cdcd"/>
 <path d="m260 186 1 1-1-1z" fill="#336767"/>
 <path d="m267 186 1 1-1-1z" fill="#99cdcd"/>
 <path d="m305 186 1 1-1-1z" fill="#336767"/>
 <path d="m339 186 1 1-1-1z" fill="#7a9998"/>
 <path d="m340 186 1 1-1-1z" fill="#336767"/>
 <path d="m373 186 1 1-1-1z" fill="#7a9998"/>
 <path d="m261 187 1 1-1-1z" fill="#7a9998"/>
 <path d="m268 187 1 1-1-1z" fill="#99cdcd"/>
 <path d="m306 187 1 1-1-1z" fill="#676768"/>
 <path d="m336 187 1 1-1-1z" fill="#336767"/>
 <path d="m269 188 1 1-1-1z" fill="#99cdcd"/>
 <path d="m270 188 1 1-1-1z" fill="#336767"/>
 <path d="m307 188 1 1-1-1z" fill="#676768"/>
 <path d="m328 188 1 1-1-1z" fill="#99cdcd"/>
 <path d="m329 188 1 1-1-1z" fill="#7a9998"/>
 <path d="m372 188 1 1-1-1z" fill="#99cdcd"/>
 <path d="m262 189 1 1-1-1z" fill="#676768"/>
 <path d="m271 189 1 1-1-1z" fill="#7a9998"/>
 <path d="m308 189 1 1-1-1z" fill="#676768"/>
 <path d="m326,189 1,1-1-1m41.667.333c-.445.445.611.389.666.334 .445-.445-.611-.389-.666-.334z" fill="#336767"/>
 <path d="m369 189 1 1-1-1z" fill="#7a9998"/>
 <path d="m370 189 1 1-1-1z" fill="#99cdcd"/>
 <path d="m378 189 1 1-1-1z" fill="#7a9998"/>
 <path d="m263 190 1 1-1-1z" fill="#336767"/>
 <path d="m264 190 1 1-1-1z" fill="#99cdcd"/>
 <path d="m273 190 1 1-1-1z" fill="#7a9998"/>
 <path d="m309 190 1 1-1-1z" fill="#676768"/>
 <path d="m310 190 1 1-1-1z" fill="#7a9998"/>
 <path d="m319 190 1 1-1-1z" fill="#99cdcd"/>
 <path d="m320 190 1 1-1-1z" fill="#7a9998"/>
 <path d="m321 190 1 1-1-1z" fill="#336767"/>
 <path d="m364 190 1 1-1-1z" fill="#676768"/>
 <path d="m365 190 1 1-1-1m12 0 1 1-1-1m-112 1 1 1-1-1z" fill="#7a9998"/>
 <path d="m274 191 1 1-1-1z" fill="#99cdcd"/>
 <path d="m312 191 1 1-1-1z" fill="#336767"/>
 <path d="m317 191 1 1-1-1m44 0 1 1-1-1z" fill="#336767"/>
 <path d="m362 191 1 1-1-1m14 0 1 1-1-1z" fill="#7a9998"/>
 <path d="m266 192 1 1-1-1z" fill="#676768"/>
 <path d="m275 192 1 1-1-1z" fill="#99cdcd"/>
 <path d="m358 192 1 1-1-1z" fill="#333"/>
 <path d="m359 192 1 1-1-1m16 0 1 1-1-1z" fill="#7a9998"/>
 <path d="m267 193 1 1-1-1z" fill="#336767"/>
 <path d="m268 193 1 1-1-1m8 0 1 1-1-1z" fill="#99cdcd"/>
 <path d="m356 193 1 1-1-1z" fill="#676768"/>
 <path d="m357 193 1 1-1-1z" fill="#7a9998"/>
 <path d="m374 193 1 1-1-1z" fill="#336767"/>
 <path d="m269 194 1 1-1-1m8 0 1 1-1-1z" fill="#7a9998"/>
 <path d="m353 194 1 1-1-1z" fill="#336767"/>
 <path d="m354 194 1 1-1-1z" fill="#7a9998"/>
 <path d="m370 194 1 1-1-1z" fill="#99cdcd"/>
 <path d="m270 195 1 1-1-1z" fill="#676768"/>
 <path d="m350 195 1 1-1-1z" fill="#333"/>
 <path d="m351 195 1 1-1-1m16 0 1 1-1-1z" fill="#7a9998"/>
 <path d="m368 195 1 1-1-1z" fill="#336767"/>
 <path d="m271 196 1 1-1-1m77 0 1 1-1-1z" fill="#676768"/>
 <path d="m349 196 1 1-1-1m15 0 1 1-1-1z" fill="#7a9998"/>
 <path d="m365 196 1 1-1-1z" fill="#336767"/>
 <path d="m272 197 1 1-1-1z" fill="#7a9998"/>
 <path d="m278 197 1 1-1-1z" fill="#336767"/>
 <path d="m345 197 1 1-1-1z" fill="#676768"/>
 <path d="m346 197 1 1-1-1z" fill="#7a9998"/>
 <path d="m361 197 1 1-1-1z" fill="#99cdcd"/>
 <path d="m362 197 1 1-1-1z" fill="#676768"/>
 <path d="m271,198 1,1-1-1m7,0v3c.696-1.554.696-1.446 0-3z" fill="#7a9998"/>
 <path d="m342 198 1 1-1-1z" fill="#676768"/>
 <path d="m343 198 1 1-1-1m16 0 1 1-1-1z" fill="#7a9998"/>
 <path d="m360 198 1 1-1-1z" fill="#333"/>
 <path d="m270 199 1 1-1-1m70 0 1 1-1-1m16 0 1 1-1-1z" fill="#7a9998"/>
 <path d="m357 199 1 1-1-1m-89 1 1 1-1-1m70 0 1 1-1-1z" fill="#336767"/>
 <path d="m353 200 1 1-1-1z" fill="#99cdcd"/>
 <path d="m354 200 1 1-1-1z" fill="#676768"/>
 <path d="m267 201 1 1-1-1z" fill="#7a9998"/>
 <path d="m277 201 1 1-1-1z" fill="#336767"/>
 <path d="m337 201 1 1-1-1m14 0 1 1-1-1z" fill="#7a9998"/>
 <path d="m352 201 1 1-1-1m-87 1 1 1-1-1z" fill="#333"/>
 <path d="m266 202 1 1-1-1m9 0 1 1-1-1z" fill="#99cdcd"/>
 <path d="m276 202 1 1-1-1z" fill="#333"/>
 <path d="m336 202 1 1-1-1z" fill="#336767"/>
 <path d="m348 202 1 1-1-1z" fill="#7a9998"/>
 <path d="m349 202 1 1-1-1z" fill="#336767"/>
 <path d="m264 203 1 1-1-1z" fill="#676768"/>
 <path d="m274 203 1 1-1-1m71 0 1 1-1-1z" fill="#7a9998"/>
 <path d="m346 203 1 1-1-1z" fill="#336767"/>
 <path d="m263 204 1 1-1-1z" fill="#7a9998"/>
 <path d="m272 204 1 1-1-1z" fill="#99cdcd"/>
 <path d="m273 204 1 1-1-1z" fill="#336767"/>
 <path d="m335 204 1 1-1-1z" fill="#676768"/>
 <path d="m271 205 1 1-1-1m-11 1 1 1-1-1m9 0 1 1-1-1z" fill="#7a9998"/>
 <path d="m270 206 1 1-1-1z" fill="#333"/>
 <path d="m336 206 1 1-1-1z" fill="#7a9998"/>
 <path d="m344 206 1 1-1-1z" fill="#333"/>
 <path d="m258 207 1 1-1-1m10 0 1 1-1-1m77 0 1 1-1-1z" fill="#336767"/>
 <path d="m257 208 1 1-1-1m9 0 1 1-1-1z" fill="#7a9998"/>
 <path d="m337 208 1 1-1-1z" fill="#676768"/>
 <path d="m346 208 1 1-1-1z" fill="#7a9998"/>
 <path d="m255 209 1 1-1-1m10 0 1 1-1-1z" fill="#336767"/>
 <path d="m338 209 1 1-1-1z" fill="#676768"/>
 <path d="m347 209 1 1-1-1z" fill="#7a9998"/>
 <path d="m253 210 1 1-1-1z" fill="#336767"/>
 <path d="m254 210 1 1-1-1z" fill="#99cdcd"/>
 <path d="m263 210 1 1-1-1z" fill="#7a9998"/>
 <path d="m339 210 1 1-1-1z" fill="#676768"/>
 <path d="m348 210 1 1-1-1z" fill="#99cdcd"/>
 <path d="m349 210 1 1-1-1m-98 1 1 1-1-1z" fill="#336767"/>
 <path d="m252 211 1 1-1-1z" fill="#99cdcd"/>
 <path d="m262 211 1 1-1-1z" fill="#336767"/>
 <path d="m340 211 1 1-1-1z" fill="#333"/>
 <path d="m341 211 1 1-1-1z" fill="#99cdcd"/>
 <path d="m350 211 1 1-1-1z" fill="#7a9998"/>
 <path d="m249 212 1 1-1-1z" fill="#336767"/>
 <path d="m250 212 1 1-1-1z" fill="#99cdcd"/>
 <path d="m260 212 1 1-1-1m82 0 1 1-1-1m9 0 1 1-1-1z" fill="#7a9998"/>
 <path d="m247 213 1 1-1-1z" fill="#333"/>
 <path d="m248 213 1 1-1-1z" fill="#7a9998"/>
 <path d="m259 213 1 1-1-1z" fill="#336767"/>
 <path d="m343 213 1 1-1-1z" fill="#333"/>
 <path d="m344 213 1 1-1-1z" fill="#99cdcd"/>
 <path d="m353 213 1 1-1-1z" fill="#336767"/>
 <path d="m246 214 1 1-1-1m11 0 1 1-1-1m88 0 1 1-1-1m9 0 1 1-1-1z" fill="#7a9998"/>
 <path d="m244 215 1 1-1-1m12 0 1 1-1-1m90 0 1 1-1-1z" fill="#336767"/>
 <path d="m347 215 1 1-1-1m8 0 1 1-1-1z" fill="#99cdcd"/>
 <path d="m356 215 1 1-1-1z" fill="#336767"/>
 <path d="m243 216 1 1-1-1m11 0 1 1-1-1m94 0 1 1-1-1z" fill="#7a9998"/>
 <path d="m357 216 1 1-1-1m-115 1 1 1-1-1z" fill="#676768"/>
 <path d="m253 217 1 1-1-1m96 0 1 1-1-1z" fill="#336767"/>
 <path d="m358 217 1 1-1-1z" fill="#7a9998"/>
 <path d="m241 218 1 1-1-1z" fill="#336767"/>
 <path d="m251 218 1 1-1-1z" fill="#7a9998"/>
 <path d="m351 218 1 1-1-1z" fill="#7a9998"/>
 <path d="m359 218 1 1-1-1z" fill="#99cdcd"/>
 <path d="m360 218 1 1-1-1z" fill="#336767"/>
 <path d="m249 219 1 1-1-1z" fill="#7a9998"/>
 <path d="m283 219 1 1-1-1z" fill="#99cdcd"/>
 <path d="m352 219 1 1-1-1z" fill="#7a9998"/>
 <path d="m361 219 1 1-1-1z" fill="#676768"/>
 <path d="m240 220 1 1-1-1z" fill="#99cdcd"/>
 <path d="m247 220 1 1-1-1z" fill="#7a9998"/>
 <path d="m353 220 1 1-1-1z" fill="#336767"/>
 <path d="m354 220 1 1-1-1z" fill="#99cdcd"/>
 <path d="m362 220 1 1-1-1m-123 1 1 1-1-1m7 0 1 1-1-1m34 0 1 1-1-1z" fill="#7a9998"/>
 <path d="m293 221 1 1-1-1z" fill="#336767"/>
 <path d="m355 221 1 1-1-1z" fill="#7a9998"/>
 <path d="m363 221 1 1-1-1z" fill="#99cdcd"/>
 <path d="m364 221 1 1-1-1z" fill="#336767"/>
 <path d="m238 222 1 1-1-1z" fill="#333"/>
 <path d="m245 222 1 1-1-1z" fill="#7a9998"/>
 <path d="m278 222 1 1-1-1z" fill="#333"/>
 <path d="m279 222 1 1-1-1z" fill="#99cdcd"/>
 <path d="m294 222 1 1-1-1m62 0 1 1-1-1m9 0 1 1-1-1z" fill="#676768"/>
 <path d="m238 223 1 1-1-1z" fill="#99cdcd"/>
 <path d="m244 223 1 1-1-1z" fill="#7a9998"/>
 <path d="m277 223 1 1-1-1z" fill="#336767"/>
 <path d="m357 223 1 1-1-1z" fill="#336767"/>
 <path d="m358 223 1 1-1-1z" fill="#99cdcd"/>
 <path d="m366 223 1 1-1-1z" fill="#7a9998"/>
 <path d="m237 224 1 1-1-1z" fill="#336767"/>
 <path d="m243 224 1 1-1-1z" fill="#99cdcd"/>
 <path d="m276 224 1 1-1-1m83 0 1 1-1-1z" fill="#7a9998"/>
 <path d="m367 224 1 1-1-1z" fill="#99cdcd"/>
 <path d="m368 224 1 1-1-1m-125 1 1 1-1-1z" fill="#336767"/>
 <path d="m275 225 1 1-1-1m8 0 1 1-1-1z" fill="#7a9998"/>
 <path d="m284 225 1 1-1-1z" fill="#333"/>
 <path d="m298 225 1 1-1-1z" fill="#671a27"/>
 <path d="m360 225 1 1-1-1m9 0 1 1-1-1z" fill="#676768"/>
 <path d="m236 226 1 1-1-1z" fill="#7a9998"/>
 <path d="m273 226 1 1-1-1z" fill="#333"/>
 <path d="m274 226 1 1-1-1z" fill="#99cdcd"/>
 <path d="m282 226 1 1-1-1z" fill="#676768"/>
 <path d="m287 226 1 1-1-1z" fill="#673367"/>
 <path d="m295 226 1 1-1-1z" fill="#cdcdcd"/>
 <path d="m298 226 1 1-1-1z" fill="#cd99cd"/>
 <path d="m361 226 1 1-1-1z" fill="#336767"/>
 <path d="m362 226 1 1-1-1z" fill="#99cdcd"/>
 <path d="m370 226 1 1-1-1m-128 1 1 1-1-1z" fill="#7a9998"/>
 <path d="m272 227 1 1-1-1z" fill="#336767"/>
 <path d="m288 227 1 1-1-1z" fill="#673367"/>
 <path d="m289 227 1 1-1-1m5 0 1 1-1-1m5 0 1 1-1-1z" fill="#cd99cd"/>
 <path d="m363 227 1 1-1-1z" fill="#7a9998"/>
 <path d="m371 227 1 1-1-1z" fill="#99cdcd"/>
 <path d="m372 227 1 1-1-1z" fill="#336767"/>
 <path d="m242 228 1 1-1-1z" fill="#333"/>
 <path d="m271 228 1 1-1-1z" fill="#7a9998"/>
 <path d="m279 228 1 1-1-1z" fill="#99cdcd"/>
 <path d="m290 228 1 1-1-1z" fill="#99677b"/>
 <path d="m292 228 1 1-1-1z" fill="#cdcdcd"/>
 <path d="m300 228 1 1-1-1z" fill="#cd99cd"/>
 <path d="m364 228 1 1-1-1z" fill="#676768"/>
 <path d="m373 228 1 1-1-1z" fill="#7a9998"/>
 <path d="m241 229 1 1-1-1z" fill="#99cdcd"/>
 <path d="m269 229 1 1-1-1z" fill="#336767"/>
 <path d="m270 229 1 1-1-1z" fill="#99cdcd"/>
 <path d="m278 229 1 1-1-1z" fill="#7a9998"/>
 <path d="m291 229 1 1-1-1z" fill="#99677b"/>
 <path d="m301 229 1 1-1-1z" fill="#cd99cd"/>
 <path d="m302 229 1 1-1-1z" fill="#933"/>
 <path d="m365 229 1 1-1-1z" fill="#336767"/>
 <path d="m366 229 1 1-1-1z" fill="#99cdcd"/>
 <path d="m375 229 1 1-1-1z" fill="#336767"/>
 <path d="m241 230 1 1-1-1z" fill="#7a9998"/>
 <path d="m267 230 1 1-1-1z" fill="#336767"/>
 <path d="m268 230 1 1-1-1z" fill="#99cdcd"/>
 <path d="m277 230 1 1-1-1z" fill="#676768"/>
 <path d="m292 230 1 1-1-1z" fill="#993367"/>
 <path d="m303 230 1 1-1-1z" fill="#cd6799"/>
 <path d="m367 230 1 1-1-1z" fill="#7a9998"/>
 <path d="m376 230 1 1-1-1z" fill="#99cdcd"/>
 <path d="m377,230 1,1-1-1m-135.667,1.667c-.055.055-.111,1.111.334.666 .055-.055.111-1.111-.334-.666z" fill="#333"/>
 <path d="m266 231 1 1-1-1z" fill="#7a9998"/>
 <path d="m276 231 1 1-1-1z" fill="#336767"/>
 <path d="m293 231 1 1-1-1z" fill="#993367"/>
 <path d="m305 231 1 1-1-1z" fill="#99677b"/>
 <path d="m368 231 1 1-1-1z" fill="#676768"/>
 <path d="m378 231 1 1-1-1z" fill="#7a9998"/>
 <path d="m264 232 1 1-1-1z" fill="#336767"/>
 <path d="m274 232 1 1-1-1z" fill="#99cdcd"/>
 <path d="m294 232 1 1-1-1z" fill="#993367"/>
 <path d="m306 232 1 1-1-1z" fill="#cd99cd"/>
 <path d="m369 232 1 1-1-1z" fill="#336767"/>
 <path d="m370 232 1 1-1-1m9 0 1 1-1-1z" fill="#99cdcd"/>
 <path d="m380 232 1 1-1-1z" fill="#336767"/>
 <path d="m263 233 1 1-1-1m10 0 1 1-1-1z" fill="#7a9998"/>
 <path d="m295 233 1 1-1-1z" fill="#993367"/>
 <path d="m307 233 1 1-1-1z" fill="#cd99cd"/>
 <path d="m371 233 1 1-1-1m10 0 1 1-1-1z" fill="#7a9998"/>
 <path d="m240 234 1 1-1-1z" fill="#99cdcd"/>
 <path d="m262 234 1 1-1-1m10 0 1 1-1-1z" fill="#336767"/>
 <path d="m296 234 1 1-1-1z" fill="#993367"/>
 <path d="m308 234 1 1-1-1z" fill="#cd99cd"/>
 <path d="m372 234 1 1-1-1z" fill="#336767"/>
 <path d="m382 234 1 1-1-1z" fill="#99cdcd"/>
 <path d="m383 234 1 1-1-1z" fill="#336767"/>
 <path d="m241 235 1 1-1-1z" fill="#333"/>
 <path d="m270 235 1 1-1-1z" fill="#99cdcd"/>
 <path d="m271 235 1 1-1-1z" fill="#333"/>
 <path d="m297 235 1 1-1-1z" fill="#673367"/>
 <path d="m309 235 1 1-1-1z" fill="#cd99cd"/>
 <path d="m374,235 1,1-1-1m10,0 1,1-1-1m-143,1 1,1-1-1m20,0 1,1-1-1m7.667.333c-.445.445.611.389.666.334 .445-.445-.611-.389-.666-.334z" fill="#7a9998"/>
 <path d="m299 236 1 1-1-1m11 0 1 1-1-1z" fill="#cd99cd"/>
 <path d="m375 236 1 1-1-1z" fill="#7a9998"/>
 <path d="m385 236 1 1-1-1z" fill="#99cdcd"/>
 <path d="m235 237 1 1-1-1z" fill="#7a9998"/>
 <path d="m241 237 1 1-1-1m20 0 1 1-1-1z" fill="#99cdcd"/>
 <path d="m267 237 1 1-1-1z" fill="#7a9998"/>
 <path d="m300 237 1 1-1-1z" fill="#cd6799"/>
 <path d="m311 237 1 1-1-1z" fill="#cd99cd"/>
 <path d="m312 237 1 1-1-1z" fill="#671a27"/>
 <path d="m376 237 1 1-1-1z" fill="#336767"/>
 <path d="m377 237 1 1-1-1m9 0 1 1-1-1z" fill="#99cdcd"/>
 <path d="m242 238 1 1-1-1z" fill="#336767"/>
 <path d="m301 238 1 1-1-1z" fill="#993367"/>
 <path d="m313 238 1 1-1-1z" fill="#933"/>
 <path d="m378 238 1 1-1-1z" fill="#7a9998"/>
 <path d="m387 238 1 1-1-1z" fill="#99cdcd"/>
 <path d="m236 239 1 1-1-1z" fill="#7a9998"/>
 <path d="m242 239 1 1-1-1z" fill="#99cdcd"/>
 <path d="m260 239 1 1-1-1z" fill="#336767"/>
 <path d="m302 239 1 1-1-1z" fill="#673367"/>
 <path d="m314 239 1 1-1-1z" fill="#99677b"/>
 <path d="m379 239 1 1-1-1z" fill="#336767"/>
 <path d="m388 239 1 1-1-1z" fill="#99cdcd"/>
 <path d="m389 239 1 1-1-1z" fill="#7a9998"/>
 <path d="m390 239 1 1-1-1z" fill="#333"/>
 <path d="m243 240 1 1-1-1z" fill="#336767"/>
 <path d="m260 240 1 1-1-1z" fill="#7a9998"/>
 <path d="m304 240 1 1-1-1z" fill="#cd99cd"/>
 <path d="m315 240 1 1-1-1z" fill="#cd6799"/>
 <path d="m381 240 1 1-1-1z" fill="#7a9998"/>
 <path d="m391 240 1 1-1-1z" fill="#99cdcd"/>
 <path d="m392 240 1 1-1-1z" fill="#7a9998"/>
 <path d="m393 240 1 1-1-1z" fill="#336767"/>
 <path d="m237 241 1 1-1-1z" fill="#7a9998"/>
 <path d="m243 241 1 1-1-1z" fill="#99cdcd"/>
 <path d="m260 241 1 1-1-1z" fill="#336767"/>
 <path d="m305 241 1 1-1-1z" fill="#cd6799"/>
 <path d="m316 241 1 1-1-1z" fill="#cd99cd"/>
 <path d="m317 241 1 1-1-1z" fill="#671a27"/>
 <path d="m382 241 1 1-1-1z" fill="#676768"/>
 <path d="m395 241 1 1-1-1z" fill="#99cdcd"/>
 <path d="m244 242 1 1-1-1z" fill="#7a9998"/>
 <path d="m306 242 1 1-1-1z" fill="#993367"/>
 <path d="m318 242 1 1-1-1z" fill="#933"/>
 <path d="m384 242 1 1-1-1z" fill="#676768"/>
 <path d="m400 242 1 1-1-1z" fill="#99cdcd"/>
 <path d="m238 243 1 1-1-1z" fill="#7a9998"/>
 <path d="m245 243 1 1-1-1z" fill="#336767"/>
 <path d="m261 243 1 1-1-1z" fill="#99cdcd"/>
 <path d="m267 243 1 1-1-1z" fill="#7a9998"/>
 <path d="m307 243 1 1-1-1z" fill="#673367"/>
 <path d="m319 243 1 1-1-1z" fill="#99677b"/>
 <path d="m386 243 1 1-1-1z" fill="#7a9998"/>
 <path d="m387 243 1 1-1-1z" fill="#99cdcd"/>
 <path d="m239 244 1 1-1-1z" fill="#99cdcd"/>
 <path d="m246 244 1 1-1-1z" fill="#333"/>
 <path d="m261 244 1 1-1-1z" fill="#676768"/>
 <path d="m309 244 1 1-1-1z" fill="#cd99cd"/>
 <path d="m320 244 1 1-1-1z" fill="#cd6799"/>
 <path d="m321 244 1 1-1-1z" fill="#671a27"/>
 <path d="m388 244 1 1-1-1z" fill="#333"/>
 <path d="m389 244 1 1-1-1z" fill="#7a9998"/>
 <path d="m411 244 1 1-1-1z" fill="#99cdcd"/>
 <path d="m412 244 1 1-1-1z" fill="#7a9998"/>
 <path d="m413 244 1 1-1-1z" fill="#333"/>
 <path d="m239 245 1 1-1-1z" fill="#336767"/>
 <path d="m246 245 1 1-1-1m16 0 1 1-1-1z" fill="#99cdcd"/>
 <path d="m268 245 1 1-1-1z" fill="#7a9998"/>
 <path d="m310 245 1 1-1-1z" fill="#cd6799"/>
 <path d="m321 245 1 1-1-1z" fill="#cd99cd"/>
 <path d="m322 245 1 1-1-1z" fill="#333"/>
 <path d="m391 245 1 1-1-1z" fill="#7a9998"/>
 <path d="m414 245 1 1-1-1z" fill="#99cdcd"/>
 <path d="m415 245 1 1-1-1z" fill="#7a9998"/>
 <path d="m416 245 1 1-1-1z" fill="#333"/>
 <path d="m240 246 1 1-1-1m7 0 1 1-1-1z" fill="#7a9998"/>
 <path d="m262 246 1 1-1-1z" fill="#333"/>
 <path d="m269 246 1 1-1-1z" fill="#336767"/>
 <path d="m322 246 1 1-1-1z" fill="#cdcdcd"/>
 <path d="m323 246 1 1-1-1z" fill="#673367"/>
 <path d="m393 246 1 1-1-1z" fill="#676768"/>
 <path d="m420.667,246.333c-.445.445.611.389.666.334 .445-.445-.611-.389-.666-.334z" fill="#333"/>
 <path d="m263 247 1 1-1-1z" fill="#7a9998"/>
 <path d="m324 247 1 1-1-1z" fill="#99677b"/>
 <path d="m423 247 1 1-1-1z" fill="#99cdcd"/>
 <path d="m241 248 1 1-1-1m7 0 1 1-1-1z" fill="#7a9998"/>
 <path d="m264 248 1 1-1-1z" fill="#99cdcd"/>
 <path d="m314 248 1 1-1-1m11 0 1 1-1-1z" fill="#cd99cd"/>
 <path d="m403 248 1 1-1-1z" fill="#336767"/>
 <path d="m404 248 1 1-1-1z" fill="#7a9998"/>
 <path d="m405 248 1 1-1-1m23 0 1 1-1-1z" fill="#99cdcd"/>
 <path d="m429 248 1 1-1-1z" fill="#7a9998"/>
 <path d="m430 248 1 1-1-1z" fill="#336767"/>
 <path d="m242 249 1 1-1-1z" fill="#99cdcd"/>
 <path d="m249 249 1 1-1-1z" fill="#336767"/>
 <path d="m264 249 1 1-1-1z" fill="#333"/>
 <path d="m271 249 1 1-1-1z" fill="#336767"/>
 <path d="m315 249 1 1-1-1z" fill="#99677b"/>
 <path d="m326 249 1 1-1-1z" fill="#cd99cd"/>
 <path d="m406 249 1 1-1-1z" fill="#333"/>
 <path d="m407 249 1 1-1-1z" fill="#7a9998"/>
 <path d="m408 249 1 1-1-1z" fill="#99cdcd"/>
 <path d="m433 249 1 1-1-1z" fill="#7a9998"/>
 <path d="m434 249 1 1-1-1m-192 1 1 1-1-1z" fill="#336767"/>
 <path d="m249 250 1 1-1-1z" fill="#99cdcd"/>
 <path d="m265 250 1 1-1-1z" fill="#7a9998"/>
 <path d="m272 250 1 1-1-1z" fill="#333"/>
 <path d="m316 250 1 1-1-1z" fill="#673367"/>
 <path d="m266 251 1 1-1-1m6 0 1 1-1-1z" fill="#99cdcd"/>
 <path d="m317 251 1 1-1-1z" fill="#673367"/>
 <path d="m318 252 1 1-1-1z" fill="#333"/>
 <path d="m390 272c9.338 13.256 27.638 32.091 43 38-2.525-7.76-3.883-22.695-9.649-28.486-6.224-6.251-24.812-7.923-33.351-9.514z" fill="#fff"/>
 <path d="m453 275 1 1-1-1m-46 1 1 1-1-1z" fill="#336767"/>
 <path d="m411 277 1 1-1-1z" fill="#336767"/>
 <path d="m427 277 1 1-1-1z" fill="#99cdcd"/>
 <path d="m447 277 1 1-1-1z" fill="#336767"/>
 <path d="m265 278 1 1-1-1m16 0 1 1-1-1z" fill="#99cdcd"/>
 <path d="m415 278 1 1-1-1z" fill="#336767"/>
 <path d="m428 278 1 1-1-1m25 0 1 1-1-1z" fill="#99cdcd"/>
 <path d="m260 279 1 1-1-1z" fill="#7a9998"/>
 <path d="m266 279 1 1-1-1z" fill="#99cdcd"/>
 <path d="m354 279 1 1-1-1m8 0 1 1-1-1z" fill="#676768"/>
 <path d="m420 279 1 1-1-1z" fill="#336767"/>
 <path d="m421 279 1 1-1-1z" fill="#7a9998"/>
 <path d="m429 279 1 1-1-1z" fill="#99cdcd"/>
 <path d="m448 279 1 1-1-1z" fill="#7a9998"/>
 <path d="m454 279 1 1-1-1z" fill="#333"/>
 <path d="m261 280 1 1-1-1z" fill="#7a9998"/>
 <path d="m267 280 1 1-1-1z" fill="#99cdcd"/>
 <path d="m280 280 1 1-1-1m6 0 1 1-1-1z" fill="#336767"/>
 <path d="m355 280 1 1-1-1z" fill="#676768"/>
 <path d="m363 280 1 1-1-1m60 0 1 1-1-1z" fill="#7a9998"/>
 <path d="m430 280 1 1-1-1z" fill="#333"/>
 <path d="m454 280 1 1-1-1z" fill="#7a9998"/>
 <path d="m268 281 1 1-1-1z" fill="#99cdcd"/>
 <path d="m280 281 1 1-1-1z" fill="#7a9998"/>
 <path d="m356 281 1 1-1-1z" fill="#676768"/>
 <path d="m364 281 1 1-1-1z" fill="#99cdcd"/>
 <path d="m392 281 1 1-1-1z" fill="#676768"/>
 <path d="m430 281 1 1-1-1z" fill="#7a9998"/>
 <path d="m454 281 1 1-1-1z" fill="#99cdcd"/>
 <path d="m262 282 1 1-1-1z" fill="#336767"/>
 <path d="m270 282 1 1-1-1z" fill="#676768"/>
 <path d="m279 282 1 1-1-1z" fill="#7a9998"/>
 <path d="m357 282 1 1-1-1z" fill="#676768"/>
 <path d="m365 282 1 1-1-1m28 0 1 1-1-1z" fill="#7a9998"/>
 <path d="m424 282 1 1-1-1z" fill="#676768"/>
 <path d="m430 282 1 1-1-1z" fill="#99cdcd"/>
 <path d="m455 282 1 1-1-1z" fill="#333"/>
 <path d="m263 283 1 1-1-1m9 0 1 1-1-1z" fill="#7a9998"/>
 <path d="m273 283 1 1-1-1m3 0 1 1-1-1z" fill="#336767"/>
 <path d="m277 283 1 1-1-1z" fill="#7a9998"/>
 <path d="m278 283 1 1-1-1z" fill="#99cdcd"/>
 <path d="m285 283 1 1-1-1m73 0 1 1-1-1m8 0 1 1-1-1m28 0 1 1-1-1m31 0 1 1-1-1z" fill="#7a9998"/>
 <path d="m431 283 1 1-1-1z" fill="#333"/>
 <path d="m264 284 1 1-1-1m10 0 1 1-1-1m10 0 1 1-1-1z" fill="#99cdcd"/>
 <path d="m359 284 1 1-1-1m8 0 1 1-1-1z" fill="#676768"/>
 <path d="m395 284 1 1-1-1z" fill="#99cdcd"/>
 <path d="m425 284 1 1-1-1z" fill="#333"/>
 <path d="m431 284 1 1-1-1z" fill="#7a9998"/>
 <path d="m455 284 1 1-1-1z" fill="#99cdcd"/>
 <path d="m215 285 1 1-1-1z" fill="#336767"/>
 <path d="m220 285 1 1-1-1z" fill="#7a9998"/>
 <path d="m221 285 1 1-1-1m43 0 1 1-1-1z" fill="#336767"/>
 <path d="m284 285 1 1-1-1z" fill="#333"/>
 <path d="m360 285 1 1-1-1z" fill="#99677b"/>
 <path d="m368 285 1 1-1-1z" fill="#336767"/>
 <path d="m396 285 1 1-1-1m30 0 1 1-1-1m5 0 1 1-1-1z" fill="#99cdcd"/>
 <path d="m223 286 1 1-1-1z" fill="#99cdcd"/>
 <path d="m265 286 1 1-1-1m18 0 1 1-1-1z" fill="#336767"/>
 <path d="m361 286 1 1-1-1z" fill="#676768"/>
 <path d="m369 286 1 1-1-1z" fill="#336767"/>
 <path d="m426 286 1 1-1-1z" fill="#7a9998"/>
 <path d="m449 286 1 1-1-1z" fill="#333"/>
 <path d="m224 287 1 1-1-1z" fill="#99cdcd"/>
 <path d="m267 287 1 1-1-1z" fill="#7a9998"/>
 <path d="m268 287 1 1-1-1z" fill="#99cdcd"/>
 <path d="m282 287 1 1-1-1z" fill="#7a9998"/>
 <path d="m362 287 1 1-1-1z" fill="#676768"/>
 <path d="m426 287 1 1-1-1z" fill="#336767"/>
 <path d="m450 287 1 1-1-1m-225 1 1 1-1-1z" fill="#99cdcd"/>
 <path d="m269 288 1 1-1-1z" fill="#336767"/>
 <path d="m270 288 1 1-1-1z" fill="#7a9998"/>
 <path d="m280 288 1 1-1-1z" fill="#99cdcd"/>
 <path d="m281 288 1 1-1-1z" fill="#7a9998"/>
 <path d="m363 288 1 1-1-1z" fill="#676768"/>
 <path d="m370 288 1 1-1-1z" fill="#99cdcd"/>
 <path d="m450 288 1 1-1-1z" fill="#7a9998"/>
 <path d="m211 289 1 1-1-1z" fill="#336767"/>
 <path d="m226 289 1 1-1-1z" fill="#7a9998"/>
 <path d="m271 289 1 1-1-1z" fill="#333"/>
 <path d="m272 289 1 1-1-1m5 0 1 1-1-1z" fill="#7a9998"/>
 <path d="m278 289 1 1-1-1z" fill="#676768"/>
 <path d="m279 289 1 1-1-1z" fill="#333"/>
 <path d="m364 289 1 1-1-1z" fill="#676768"/>
 <path d="m371 289 1 1-1-1z" fill="#99cdcd"/>
 <path d="m450 289 1 1-1-1z" fill="#333"/>
 <path d="m456 289 1 1-1-1z" fill="#99cdcd"/>
 <path d="m210,290 1,1-1-1m6,3c2.287-.745 2.919-1.014 5,0 .663-3.995-3.47-1.712-5,0z" fill="#7a9998"/>
 <path d="m227 290 1 1-1-1z" fill="#336767"/>
 <path d="m274 290 1 1-1-1z" fill="#7a9998"/>
 <path d="m275 290 1 1-1-1z" fill="#336767"/>
 <path d="m365 290 1 1-1-1z" fill="#676768"/>
 <path d="m372 290 1 1-1-1z" fill="#99cdcd"/>
 <path d="m432 290 1 1-1-1m19 0 1 1-1-1z" fill="#99cdcd"/>
 <path d="m209 291 1 1-1-1z" fill="#7a9998"/>
 <path d="m366 291 1 1-1-1z" fill="#676768"/>
 <path d="m373 291 1 1-1-1z" fill="#99cdcd"/>
 <path d="m451 291 1 1-1-1z" fill="#7a9998"/>
 <path d="m457 291 1 1-1-1m-249 1 1 1-1-1z" fill="#336767"/>
 <path d="m215 292 1 1-1-1z" fill="#99cdcd"/>
 <path d="m367 292 1 1-1-1z" fill="#7a9998"/>
 <path d="m374 292 1 1-1-1z" fill="#99cdcd"/>
 <path d="m427 292 1 1-1-1z" fill="#336767"/>
 <path d="m433 292 1 1-1-1z" fill="#676768"/>
 <path d="m451 292 1 1-1-1z" fill="#336767"/>
 <path d="m457 292 1 1-1-1z" fill="#7a9998"/>
 <path d="m215 293 1 1-1-1m12 0 1 1-1-1z" fill="#336767"/>
 <path d="m368 293 1 1-1-1z" fill="#7a9998"/>
 <path d="m375 293 1 1-1-1m36 0 1 1-1-1z" fill="#99cdcd"/>
 <path d="m433 293 1 1-1-1z" fill="#7a9998"/>
 <path d="m457 293 1 1-1-1z" fill="#99cdcd"/>
 <path d="m207 294 1 1-1-1m7 0 1 1-1-1m6 0 1 1-1-1z" fill="#7a9998"/>
 <path d="m369 294 1 1-1-1z" fill="#99cdcd"/>
 <path d="m376 294 1 1-1-1m36 0 1 1-1-1m16 0 1 1-1-1z" fill="#7a9998"/>
 <path d="m452 294 1 1-1-1z" fill="#99cdcd"/>
 <path d="m458 294 1 1-1-1m-252 1 1 1-1-1z" fill="#336767"/>
 <path d="m213 295 1 1-1-1z" fill="#7a9998"/>
 <path d="m219 295 1 1-1-1m7 0 1 1-1-1z" fill="#336767"/>
 <path d="m377 295 1 1-1-1m36 0 1 1-1-1z" fill="#7a9998"/>
 <path d="m428 295 1 1-1-1m6 0 1 1-1-1z" fill="#336767"/>
 <path d="m452 295 1 1-1-1z" fill="#7a9998"/>
 <path d="m458 295 1 1-1-1z" fill="#99cdcd"/>
 <path d="m459 295 1 1-1-1z" fill="#676768"/>
 <path d="m212 296 1 1-1-1z" fill="#7a9998"/>
 <path d="m218 296 1 1-1-1z" fill="#333"/>
 <path d="m225 296 1 1-1-1m145 0 1 1-1-1z" fill="#336767"/>
 <path d="m378 296 1 1-1-1z" fill="#7a9998"/>
 <path d="m414 296 1 1-1-1z" fill="#336767"/>
 <path d="m434 296 1 1-1-1z" fill="#7a9998"/>
 <path d="m461 296 1 1-1-1z" fill="#676768"/>
 <path d="m205 297 1 1-1-1m6 0 1 1-1-1z" fill="#7a9998"/>
 <path d="m218 297 1 1-1-1z" fill="#99cdcd"/>
 <path d="m224 297 1 1-1-1z" fill="#7a9998"/>
 <path d="m371 297 1 1-1-1z" fill="#336767"/>
 <path d="m379 297 1 1-1-1z" fill="#676768"/>
 <path d="m415 297 1 1-1-1z" fill="#333"/>
 <path d="m429 297 1 1-1-1m5 0 1 1-1-1z" fill="#99cdcd"/>
 <path d="m453 297 1 1-1-1z" fill="#7a9998"/>
 <path d="m463 297 1 1-1-1z" fill="#676768"/>
 <path d="m204 298 1 1-1-1m13 0 1 1-1-1z" fill="#7a9998"/>
 <path d="m372 298 1 1-1-1z" fill="#676768"/>
 <path d="m380 298 1 1-1-1z" fill="#336767"/>
 <path d="m409 298 1 1-1-1m6 0 1 1-1-1z" fill="#99cdcd"/>
 <path d="m416 298 1 1-1-1z" fill="#336767"/>
 <path d="m429 298 1 1-1-1z" fill="#7a9998"/>
 <path d="m435 298 1 1-1-1z" fill="#336767"/>
 <path d="m454 298 1 1-1-1m11 0 1 1-1-1z" fill="#676768"/>
 <path d="m203 299 1 1-1-1z" fill="#7a9998"/>
 <path d="m210 299 1 1-1-1m6 0 1 1-1-1m7 0 1 1-1-1z" fill="#336767"/>
 <path d="m373 299 1 1-1-1z" fill="#676768"/>
 <path d="m410 299 1 1-1-1z" fill="#7a9998"/>
 <path d="m417 299 1 1-1-1z" fill="#676768"/>
 <path d="m429 299 1 1-1-1z" fill="#336767"/>
 <path d="m435 299 1 1-1-1z" fill="#7a9998"/>
 <path d="m455 299 1 1-1-1m12 0 1 1-1-1z" fill="#676768"/>
 <path d="m222 300 1 1-1-1z" fill="#99cdcd"/>
 <path d="m374 300 1 1-1-1z" fill="#676768"/>
 <path d="m381 300 1 1-1-1z" fill="#99cdcd"/>
 <path d="m411 300 1 1-1-1m7 0 1 1-1-1z" fill="#7a9998"/>
 <path d="m436 300 1 1-1-1z" fill="#333"/>
 <path d="m456 300 1 1-1-1z" fill="#676768"/>
 <path d="m469 300 1 1-1-1z" fill="#7a9998"/>
 <path d="m470 300 1 1-1-1z" fill="#333"/>
 <path d="m196 301 1 1-1-1z" fill="#336767"/>
 <path d="m215 301 1 1-1-1z" fill="#7a9998"/>
 <path d="m222 301 1 1-1-1z" fill="#336767"/>
 <path d="m375 301 1 1-1-1z" fill="#676768"/>
 <path d="m382 301 1 1-1-1z" fill="#99cdcd"/>
 <path d="m412 301 1 1-1-1z" fill="#676768"/>
 <path d="m419 301 1 1-1-1z" fill="#99cdcd"/>
 <path d="m430 301 1 1-1-1m6 0 1 1-1-1z" fill="#7a9998"/>
 <path d="m457 301 1 1-1-1z" fill="#336767"/>
 <path d="m471 301 1 1-1-1z" fill="#7a9998"/>
 <path d="m472 301 1 1-1-1z" fill="#336767"/>
 <path d="m192 302 1 1-1-1z" fill="#676768"/>
 <path d="m208 302 1 1-1-1z" fill="#336767"/>
 <path d="m221 302 1 1-1-1z" fill="#99cdcd"/>
 <path d="m376 302 1 1-1-1z" fill="#676768"/>
 <path d="m383 302 1 1-1-1z" fill="#99cdcd"/>
 <path d="m413 302 1 1-1-1z" fill="#676768"/>
 <path d="m430 302 1 1-1-1m29 0 1 1-1-1z" fill="#336767"/>
 <path d="m460 302 1 1-1-1z" fill="#99cdcd"/>
 <path d="m190,303 1,1-1-1m17,0 1,1-1-1m7,0v3c.696-1.554.696-1.446 0-3m7,0 1,1-1-1z" fill="#7a9998"/>
 <path d="m222 303 1 1-1-1z" fill="#333"/>
 <path d="m377 303 1 1-1-1z" fill="#7a9998"/>
 <path d="m384 303 1 1-1-1z" fill="#99cdcd"/>
 <path d="m414 303 1 1-1-1m8 0 1 1-1-1z" fill="#7a9998"/>
 <path d="m437 303 1 1-1-1z" fill="#676768"/>
 <path d="m461 303 1 1-1-1z" fill="#333"/>
 <path d="m462 303 1 1-1-1m17 0 1 1-1-1m-290 1 1 1-1-1z" fill="#7a9998"/>
 <path d="m206 304 1 1-1-1z" fill="#336767"/>
 <path d="m223 304 1 1-1-1z" fill="#99cdcd"/>
 <path d="m224 304 1 1-1-1z" fill="#676768"/>
 <path d="m378 304 1 1-1-1m7 0 1 1-1-1z" fill="#99cdcd"/>
 <path d="m415 304 1 1-1-1z" fill="#676768"/>
 <path d="m423 304 1 1-1-1z" fill="#7a9998"/>
 <path d="m431 304 1 1-1-1m6 0 1 1-1-1z" fill="#99cdcd"/>
 <path d="m464 304 1 1-1-1z" fill="#7a9998"/>
 <path d="m480 304 1 1-1-1z" fill="#99cdcd"/>
 <path d="m188 305 1 1-1-1m16 0 1 1-1-1z" fill="#7a9998"/>
 <path d="m225 305 1 1-1-1z" fill="#99cdcd"/>
 <path d="m378 305 1 1-1-1z" fill="#333"/>
 <path d="m386 305 1 1-1-1z" fill="#99cdcd"/>
 <path d="m416 305 1 1-1-1z" fill="#676768"/>
 <path d="m424 305 1 1-1-1z" fill="#99cdcd"/>
 <path d="m425 305 1 1-1-1z" fill="#336767"/>
 <path d="m431 305 1 1-1-1z" fill="#7a9998"/>
 <path d="m466 305 1 1-1-1z" fill="#336767"/>
 <path d="m467 305 1 1-1-1m14 0 1 1-1-1z" fill="#99cdcd"/>
 <path d="m226 306 1 1-1-1m153 0 1 1-1-1m8 0 1 1-1-1z" fill="#7a9998"/>
 <path d="m417,306 1,1-1-1m9,0 1,1-1-1m12,0v3c.696-1.554.696-1.446 0-3z" fill="#676768"/>
 <path d="m468 306 1 1-1-1z" fill="#333"/>
 <path d="m469 306 1 1-1-1z" fill="#7a9998"/>
 <path d="m482 306 1 1-1-1z" fill="#99cdcd"/>
 <path d="m187,307 1,1-1-1m8,0c1.248.685 1.548.749 3,1-1.248-.685-1.548-.749-3-1z" fill="#7a9998"/>
 <path d="m216 307 1 1-1-1z" fill="#676768"/>
 <path d="m227 307 1 1-1-1z" fill="#336767"/>
 <path d="m380 307 1 1-1-1z" fill="#99cdcd"/>
 <path d="m388 307 1 1-1-1z" fill="#7a9998"/>
 <path d="m418 307 1 1-1-1z" fill="#676768"/>
 <path d="m427,307 1,1-1-1m5,0 1,1-1-1m39,0c1.248.685 1.548.749 3,1-1.248-.685-1.549-.749-3-1z" fill="#7a9998"/>
 <path d="m483 307 1 1-1-1z" fill="#99cdcd"/>
 <path d="m193 308 1 1-1-1z" fill="#7a9998"/>
 <path d="m218 308 1 1-1-1z" fill="#676768"/>
 <path d="m380 308 1 1-1-1z" fill="#333"/>
 <path d="m389 308 1 1-1-1z" fill="#336767"/>
 <path d="m419 308 1 1-1-1z" fill="#676768"/>
 <path d="m428 308 1 1-1-1z" fill="#99cdcd"/>
 <path d="m429,308 1,1-1-1m3,0 1,1-1-1m43.667.333c-.445.445.611.389.666.334 .445-.445-.611-.389-.666-.334z" fill="#336767"/>
 <path d="m477 308 1 1-1-1z" fill="#7a9998"/>
 <path d="m484 308 1 1-1-1z" fill="#333"/>
 <path d="m186 309 1 1-1-1z" fill="#336767"/>
 <path d="m193 309 1 1-1-1z" fill="#676768"/>
 <path d="m222 309 1 1-1-1z" fill="#99cdcd"/>
 <path d="m381 309 1 1-1-1z" fill="#676768"/>
 <path d="m390 309 1 1-1-1z" fill="#333"/>
 <path d="m420 309 1 1-1-1z" fill="#676768"/>
 <path d="m430 309 1 1-1-1z" fill="#7a9998"/>
 <path d="m438 309 1 1-1-1z" fill="#99cdcd"/>
 <path d="m478 309 1 1-1-1z" fill="#676768"/>
 <path d="m484 309 1 1-1-1z" fill="#7a9998"/>
 <path d="m187 310 1 1-1-1z" fill="#99cdcd"/>
 <path d="m195 310 1 1-1-1m187 0 1 1-1-1z" fill="#7a9998"/>
 <path d="m390 310 1 1-1-1z" fill="#99cdcd"/>
 <path d="m422 310 1 1-1-1z" fill="#7a9998"/>
 <path d="m431 310 1 1-1-1z" fill="#99cdcd"/>
 <path d="m439 310 1 1-1-1z" fill="#336767"/>
 <path d="m479 310 1 1-1-1z" fill="#7a9998"/>
 <path d="m484 310 1 1-1-1z" fill="#99cdcd"/>
 <path d="m187 311 1 1-1-1z" fill="#333"/>
 <path d="m196 311 1 1-1-1m24 0 1 1-1-1z" fill="#7a9998"/>
 <path d="m383 311 1 1-1-1m8 0 1 1-1-1z" fill="#99cdcd"/>
 <path d="m423 311 1 1-1-1z" fill="#336767"/>
 <path d="m424 311 1 1-1-1m15 0 1 1-1-1z" fill="#99cdcd"/>
 <path d="m479 311 1 1-1-1m6 0 1 1-1-1z" fill="#333"/>
 <path d="m188 312 1 1-1-1z" fill="#676768"/>
 <path d="m197 312 1 1-1-1z" fill="#336767"/>
 <path d="m227 312 1 1-1-1z" fill="#336767"/>
 <path d="m392 312 1 1-1-1z" fill="#99cdcd"/>
 <path d="m425 312 1 1-1-1z" fill="#7a9998"/>
 <path d="m440 312 1 1-1-1z" fill="#336767"/>
 <path d="m480 312 1 1-1-1z" fill="#99cdcd"/>
 <path d="m485 312 1 1-1-1z" fill="#7a9998"/>
 <path d="m189 313 1 1-1-1z" fill="#333"/>
 <path d="m190 313 1 1-1-1z" fill="#99cdcd"/>
 <path d="m198 313 1 1-1-1z" fill="#333"/>
 <path d="m210 313 1 1-1-1z" fill="#336767"/>
 <path d="m226 313 1 1-1-1z" fill="#7a9998"/>
 <path d="m384 313 1 1-1-1z" fill="#336767"/>
 <path d="m393 313 1 1-1-1z" fill="#99cdcd"/>
 <path d="m426 313 1 1-1-1z" fill="#7a9998"/>
 <path d="m440 313 1 1-1-1z" fill="#99cdcd"/>
 <path d="m480 313 1 1-1-1z" fill="#7a9998"/>
 <path d="m191 314 1 1-1-1z" fill="#676768"/>
 <path d="m198 314 1 1-1-1m11 0 1 1-1-1z" fill="#7a9998"/>
 <path d="m225 314 1 1-1-1z" fill="#336767"/>
 <path d="m385 314 1 1-1-1z" fill="#676768"/>
 <path d="m394 314 1 1-1-1z" fill="#99cdcd"/>
 <path d="m427 314 1 1-1-1z" fill="#676768"/>
 <path d="m447 314 1 1-1-1z" fill="#7a9998"/>
 <path d="m448 314 1 1-1-1z" fill="#336767"/>
 <path d="m480 314 1 1-1-1z" fill="#99cdcd"/>
 <path d="m191 315 1 1-1-1z" fill="#7a9998"/>
 <path d="m198 315 1 1-1-1z" fill="#676768"/>
 <path d="m207 315 1 1-1-1z" fill="#336767"/>
 <path d="m223 315 1 1-1-1z" fill="#7a9998"/>
 <path d="m386 315 1 1-1-1z" fill="#336767"/>
 <path d="m395 315 1 1-1-1z" fill="#99cdcd"/>
 <path d="m428 315 1 1-1-1z" fill="#676768"/>
 <path d="m429,315 1,1-1-1m21,0c2.332.985 4.457.981 7,1-2.332-.985-4.457-.981-7-1z" fill="#99cdcd"/>
 <path d="m190 316 1 1-1-1m16 0 1 1-1-1m16 0 1 1-1-1z" fill="#7a9998"/>
 <path d="m388 316 1 1-1-1m8 0 1 1-1-1z" fill="#99cdcd"/>
 <path d="m430 316 1 1-1-1z" fill="#333"/>
 <path d="m431 316 1 1-1-1z" fill="#7a9998"/>
 <path d="m479 316 1 1-1-1z" fill="#336767"/>
 <path d="m197,317 1,1-1-1m8,0 1,1-1-1m9,0c2.613,1.098 5.164.993 8,1-2.613-1.098-5.165-.993-8-1m175,0 1,1-1-1z" fill="#7a9998"/>
 <path d="m397 317 1 1-1-1z" fill="#99cdcd"/>
 <path d="m433 317 1 1-1-1z" fill="#336767"/>
 <path d="m434 317 1 1-1-1z" fill="#7a9998"/>
 <path d="m189 318 1 1-1-1m7 0 1 1-1-1z" fill="#7a9998"/>
 <path d="m204 318 1 1-1-1z" fill="#336767"/>
 <path d="m212 318 1 1-1-1z" fill="#7a9998"/>
 <path d="m390 318 1 1-1-1z" fill="#676768"/>
 <path d="m398 318 1 1-1-1z" fill="#99cdcd"/>
 <path d="m399 318 1 1-1-1z" fill="#333"/>
 <path d="m436 318 1 1-1-1z" fill="#7a9998"/>
 <path d="m437 318 1 1-1-1z" fill="#99cdcd"/>
 <path d="m485 318 1 1-1-1m-290 1 1 1-1-1z" fill="#7a9998"/>
 <path d="m204 319 1 1-1-1z" fill="#99cdcd"/>
 <path d="m211 319 1 1-1-1z" fill="#7a9998"/>
 <path d="m391 319 1 1-1-1m9 0 1 1-1-1m39 0 1 1-1-1z" fill="#336767"/>
 <path d="m440 319 1 1-1-1z" fill="#7a9998"/>
 <path d="m484 319 1 1-1-1z" fill="#676768"/>
 <path d="m188 320 1 1-1-1z" fill="#7a9998"/>
 <path d="m203 320 1 1-1-1z" fill="#676768"/>
 <path d="m210 320 1 1-1-1z" fill="#7a9998"/>
 <path d="m393 320 1 1-1-1z" fill="#99cdcd"/>
 <path d="m401 320 1 1-1-1z" fill="#7a9998"/>
 <path d="m442 320 1 1-1-1z" fill="#336767"/>
 <path d="m443 320 1 1-1-1z" fill="#7a9998"/>
 <path d="m483 320 1 1-1-1m-289 1 1 1-1-1z" fill="#336767"/>
 <path d="m210 321 1 1-1-1z" fill="#333"/>
 <path d="m394 321 1 1-1-1m8 0 1 1-1-1z" fill="#7a9998"/>
 <path d="m445 321 1 1-1-1z" fill="#336767"/>
 <path d="m446 321 1 1-1-1z" fill="#99cdcd"/>
 <path d="m481 321 1 1-1-1z" fill="#99cdcd"/>
 <path d="m187 322 1 1-1-1z" fill="#676768"/>
 <path d="m193 322 1 1-1-1z" fill="#99cdcd"/>
 <path d="m202 322 1 1-1-1m7 0 1 1-1-1z" fill="#7a9998"/>
 <path d="m395 322 1 1-1-1m9 0 1 1-1-1z" fill="#676768"/>
 <path d="m447 322 1 1-1-1z" fill="#333"/>
 <path d="m448 322 1 1-1-1z" fill="#7a9998"/>
 <path d="m463 322 1 1-1-1z" fill="#99cdcd"/>
 <path d="m465 322 1 1-1-1z" fill="#333"/>
 <path d="m472 322 1 1-1-1z" fill="#336767"/>
 <path d="m187 323 1 1-1-1z" fill="#99cdcd"/>
 <path d="m193 323 1 1-1-1z" fill="#7a9998"/>
 <path d="m201 323 1 1-1-1m195 0 1 1-1-1z" fill="#336767"/>
 <path d="m406 323 1 1-1-1z" fill="#676768"/>
 <path d="m450 323 1 1-1-1z" fill="#7a9998"/>
 <path d="m451 323 1 1-1-1m15 0 1 1-1-1z" fill="#99cdcd"/>
 <path d="m467 323 1 1-1-1z" fill="#676768"/>
 <path d="m186 324 1 1-1-1z" fill="#333"/>
 <path d="m193 324 1 1-1-1z" fill="#336767"/>
 <path d="m201 324 1 1-1-1z" fill="#99cdcd"/>
 <path d="m208 324 1 1-1-1z" fill="#336767"/>
 <path d="m398 324 1 1-1-1z" fill="#99cdcd"/>
 <path d="m408 324 1 1-1-1z" fill="#676768"/>
 <path d="m452 324 1 1-1-1z" fill="#336767"/>
 <path d="m453 324 1 1-1-1m16 0 1 1-1-1z" fill="#7a9998"/>
 <path d="m470 324 1 1-1-1z" fill="#336767"/>
 <path d="m186 325 1 1-1-1z" fill="#7a9998"/>
 <path d="m200 325 1 1-1-1z" fill="#676768"/>
 <path d="m207 325 1 1-1-1m192 0 1 1-1-1m11 0 1 1-1-1z" fill="#7a9998"/>
 <path d="m411 325 1 1-1-1m44 0 1 1-1-1z" fill="#336767"/>
 <path d="m456 325 1 1-1-1z" fill="#7a9998"/>
 <path d="m471 325 1 1-1-1z" fill="#99cdcd"/>
 <path d="m472 325 1 1-1-1z" fill="#7a9998"/>
 <path d="m473 325 1 1-1-1z" fill="#333"/>
 <path d="m186 326 1 1-1-1m6 0 1 1-1-1z" fill="#99cdcd"/>
 <path d="m400 326 1 1-1-1z" fill="#336767"/>
 <path d="m413 326 1 1-1-1z" fill="#99cdcd"/>
 <path d="m414 326 1 1-1-1z" fill="#7a9998"/>
 <path d="m415 326 1 1-1-1z" fill="#336767"/>
 <path d="m458 326 1 1-1-1z" fill="#7a9998"/>
 <path d="m459 326 1 1-1-1m15 0 1 1-1-1z" fill="#99cdcd"/>
 <path d="m192 327 1 1-1-1m7 0 1 1-1-1z" fill="#7a9998"/>
 <path d="m206 327 1 1-1-1m196 0 1 1-1-1z" fill="#336767"/>
 <path d="m403 327 1 1-1-1z" fill="#99cdcd"/>
 <path d="m417 327 1 1-1-1z" fill="#7a9998"/>
 <path d="m460 327 1 1-1-1z" fill="#333"/>
 <path d="m461 327 1 1-1-1z" fill="#7a9998"/>
 <path d="m462 327 1 1-1-1z" fill="#99cdcd"/>
 <path d="m475 327 1 1-1-1z" fill="#7a9998"/>
 <path d="m198 328 1 1-1-1z" fill="#336767"/>
 <path d="m205 328 1 1-1-1z" fill="#7a9998"/>
 <path d="m404 328 1 1-1-1z" fill="#333"/>
 <path d="m405 328 1 1-1-1m14 0 1 1-1-1z" fill="#7a9998"/>
 <path d="m420 328 1 1-1-1m43 0 1 1-1-1z" fill="#333"/>
 <path d="m464 328 1 1-1-1z" fill="#7a9998"/>
 <path d="m476 328 1 1-1-1z" fill="#336767"/>
 <path d="m197 329 1 1-1-1z" fill="#333"/>
 <path d="m204 329 1 1-1-1m203 0 1 1-1-1z" fill="#7a9998"/>
 <path d="m408 329 1 1-1-1m13 0 1 1-1-1z" fill="#99cdcd"/>
 <path d="m466 329 1 1-1-1z" fill="#336767"/>
 <path d="m197 330 1 1-1-1z" fill="#99cdcd"/>
 <path d="m204 330 1 1-1-1z" fill="#333"/>
 <path d="m409 330 1 1-1-1z" fill="#336767"/>
 <path d="m410 330 1 1-1-1z" fill="#7a9998"/>
 <path d="m426 330 1 1-1-1z" fill="#99cdcd"/>
 <path d="m427 330 1 1-1-1z" fill="#676768"/>
 <path d="m196 331 1 1-1-1m7 0 1 1-1-1z" fill="#7a9998"/>
 <path d="m412 331 1 1-1-1z" fill="#336767"/>
 <path d="m413 331 1 1-1-1m16 0 1 1-1-1z" fill="#7a9998"/>
 <path d="m430 331 1 1-1-1m47 0 1 1-1-1z" fill="#336767"/>
 <path d="m415,332 1,1-1-1m16,0c1.248.685 1.549.749 3,1-1.248-.685-1.548-.749-3-1z" fill="#7a9998"/>
 <path d="m477 332 1 1-1-1m-282 1 1 1-1-1z" fill="#7a9998"/>
 <path d="m202 333 1 1-1-1m214 0 1 1-1-1z" fill="#336767"/>
 <path d="m417 333 1 1-1-1z" fill="#7a9998"/>
 <path d="m437 333 1 1-1-1z" fill="#99cdcd"/>
 <path d="m438 333 1 1-1-1z" fill="#7a9998"/>
 <path d="m439 333 1 1-1-1z" fill="#333"/>
 <path d="m419 334 1 1-1-1z" fill="#336767"/>
 <path d="m440 334 1 1-1-1z" fill="#99cdcd"/>
 <path d="m441 334 1 1-1-1z" fill="#7a9998"/>
 <path d="m442 334 1 1-1-1z" fill="#333"/>
 <path d="m194 335 1 1-1-1z" fill="#7a9998"/>
 <path d="m201 335 1 1-1-1z" fill="#676768"/>
 <path d="m423 335 1 1-1-1z" fill="#336767"/>
 <path d="m424 335 1 1-1-1z" fill="#7a9998"/>
 <path d="m425 335 1 1-1-1m18 0 1 1-1-1z" fill="#99cdcd"/>
 <path d="m444 335 1 1-1-1z" fill="#7a9998"/>
 <path d="m445 335 1 1-1-1z" fill="#336767"/>
 <path d="m192 336 1 1-1-1m234 0 1 1-1-1z" fill="#333"/>
 <path d="m427 336 1 1-1-1z" fill="#7a9998"/>
 <path d="m428 336 1 1-1-1m19 0 1 1-1-1z" fill="#99cdcd"/>
 <path d="m448 336 1 1-1-1z" fill="#7a9998"/>
 <path d="m449 336 1 1-1-1z" fill="#333"/>
 <path d="m193 337 1 1-1-1z" fill="#336767"/>
 <path d="m200 337 1 1-1-1z" fill="#7a9998"/>
 <path d="m429 337 1 1-1-1z" fill="#333"/>
 <path d="m450 337 1 1-1-1z" fill="#99cdcd"/>
 <path d="m451 337 1 1-1-1z" fill="#333"/>
 <path d="m186 338 1 1-1-1z" fill="#7a9998"/>
 <path d="m436 338 1 1-1-1z" fill="#7a9998"/>
 <path d="m452 338 1 1-1-1m-266 1 1 1-1-1m13 0 1 1-1-1m239 0 1 1-1-1z" fill="#336767"/>
 <path d="m439,339 1,1-1-1m14,0 1,1-1-1m-255,1 1,1-1-1m243.667.333c-.445.445.611.389.666.334 .445-.445-.611-.389-.666-.334m12.333-.333 1,1-1-1z" fill="#7a9998"/>
 <path d="m187 341 1 1-1-1z" fill="#676768"/>
 <path d="m445 341 1 1-1-1z" fill="#336767"/>
 <path d="m446 341 1 1-1-1z" fill="#7a9998"/>
 <path d="m447 341 1 1-1-1m8 0 1 1-1-1z" fill="#99cdcd"/>
 <path d="m188 342 1 1-1-1z" fill="#336767"/>
 <path d="m189 342 1 1-1-1z" fill="#99cdcd"/>
 <path d="m197 342 1 1-1-1z" fill="#336767"/>
 <path d="m448 342 1 1-1-1z" fill="#333"/>
 <path d="m449 342 1 1-1-1m7 0 1 1-1-1m-266 1 1 1-1-1z" fill="#7a9998"/>
 <path d="m195 343 1 1-1-1z" fill="#99cdcd"/>
 <path d="m196 343 1 1-1-1z" fill="#7a9998"/>
 <path d="m450 343 1 1-1-1z" fill="#676768"/>
 <path d="m451 344 1 1-1-1z" fill="#7a9998"/>
 <path d="m458 344 1 1-1-1z" fill="#333"/>
 <path d="m452 345 1 1-1-1z" fill="#99cdcd"/>
 <path d="m458 345 1 1-1-1z" fill="#7a9998"/>
 <path d="m452 346 1 1-1-1z" fill="#333"/>
 <path d="m453 347 1 1-1-1z" fill="#7a9998"/>
 <path d="m453 348 1 1-1-1z" fill="#336767"/>
 <path d="m454,350 1,1-1-1m5,0v4c.71-1.76.71-2.24 0-4z" fill="#99cdcd"/>
 <path d="m460 354 1 1-1-1z" fill="#333"/>
 <path d="m460 355 1 1-1-1z" fill="#7a9998"/>
 <path d="m461 362 1 1-1-1m16 0 1 1-1-1z" fill="#336767"/>
 <path d="m455 363 1 1-1-1z" fill="#333"/>
 <path d="m461 363 1 1-1-1m-5 1 1 1-1-1z" fill="#99cdcd"/>
 <path d="m462 364 1 1-1-1z" fill="#336767"/>
 <path d="m476 364 1 1-1-1z" fill="#99cdcd"/>
 <path d="m456 365 1 1-1-1z" fill="#7a9998"/>
 <path d="m463 365 1 1-1-1z" fill="#676768"/>
 <path d="m476 365 1 1-1-1z" fill="#7a9998"/>
 <path d="m456 366 1 1-1-1z" fill="#333"/>
 <path d="m457 367 1 1-1-1z" fill="#99cdcd"/>
 <path d="m457 368 1 1-1-1z" fill="#336767"/>
 <path d="m459 369 1 1-1-1z" fill="#676768"/>
 <path d="m475 369 1 1-1-1z" fill="#7a9998"/>
 <path d="m461 370 1 1-1-1z" fill="#676768"/>
 <path d="m474 370 1 1-1-1z" fill="#336767"/>
 <path d="m463 371 1 1-1-1z" fill="#676768"/>
 <path d="m464 371 1 1-1-1z" fill="#7a9998"/>
 <path d="m472 371 1 1-1-1z" fill="#99cdcd"/>
 <path d="m473 371 1 1-1-1z" fill="#333"/>
 <path d="m466 372 1 1-1-1z" fill="#336767"/>
</svg>
