<?xml version="1.0" encoding="UTF-8"?>
<svg enable-background="new -0.461 -0.206 54 54" viewBox="-0.461 -0.206 54 54" xmlns="http://www.w3.org/2000/svg">
 <path d="m0 26.7c0-14.747 11.955-26.7 26.703-26.7s26.707 11.953 26.707 26.7-11.955 26.715-26.707 26.715-26.703-11.961-26.703-26.715" fill="#c5a3cc"/>
 <path d="m36.811,32.845c0-3.719-2.283-5.973-4.891-7.203 2.646-1.613 4.016-3.656 4.016-6.297 0-4.86-4.133-7.31-9.104-7.31-4.854,0-9.102,3.255-9.102,7.942 0,2.926 1.525,4.648 3.965,6.172-2.725,1.402-4.848,3.617-4.848,7.379 0,4.293 3.562,8.059 9.859,8.059 5.814,0 10.105-3.363 10.105-8.742m-6.291-13.145c0,1.77-1.604,3.402-3.088,4.09-1.801-.762-4.129-2.008-4.129-4.328 0-1.961 1.4-3.328 3.607-3.328 2.324,0 3.61,1.597 3.61,3.566zm.439,13.59c0,2.246-1.484,4.133-4.172,4.133-2.729,0-4.248-2.215-4.248-4.535 0-2.199 1.844-4.043 3.688-4.77 2.404,1.203 4.732,2.606 4.732,5.172z" fill="#231f20"/>
</svg>
