<?xml version="1.0" encoding="UTF-8"?>
<svg enable-background="new -0.966 -0.692 55 55" viewBox="-0.966 -0.692 55 55" xmlns="http://www.w3.org/2000/svg">
 <path d="m0 26.715c0-14.754 11.965-26.715 26.703-26.715 14.758 0 26.715 11.961 26.715 26.715 0 14.742-11.957 26.703-26.715 26.703-14.738 0-26.703-11.961-26.703-26.703" fill="#f68f4d"/>
 <path d="m36.309,31.664c0-4.246-3.121-8.531-10.859-8.934l-.809-.039 .398-5.414h10.191v-4.695h-14.878l-1.125,14.715 4.41.039c5.215.051 6.57,2.848 6.57,4.895 0,3.32-2.758,4.574-4.961,4.574-2.414,0-4.008-.887-5.375-1.812l-2.078,4.418c2.195,1.238 4.77,2.047 7.773,2.047 6.45-.001 10.743-4.384 10.743-9.794" fill="#231f20"/>
</svg>
