<?xml version="1.0" encoding="UTF-8"?>
<svg version="1.1" viewBox="0 0 2000 1350" xmlns="http://www.w3.org/2000/svg">
 <defs>
  <filter id="d" x="-.35336" y="-.35971" width="1.7067" height="1.7194" color-interpolation-filters="sRGB">
   <feGaussianBlur stdDeviation="88.384989"/>
  </filter>
  <filter id="f" x="-.35336" y="-.35971" width="1.7067" height="1.7194" color-interpolation-filters="sRGB">
   <feGaussianBlur stdDeviation="88.384989"/>
  </filter>
  <filter id="e" x="-.35336" y="-.35971" width="1.7067" height="1.7194" color-interpolation-filters="sRGB">
   <feGaussianBlur stdDeviation="88.384989"/>
  </filter>
  <filter id="x" x="-.25017" y="-.25466" width="1.5003" height="1.5093" color-interpolation-filters="sRGB">
   <feGaussianBlur stdDeviation="62.574466"/>
  </filter>
  <filter id="y" x="-.25017" y="-.25466" width="1.5003" height="1.5093" color-interpolation-filters="sRGB">
   <feGaussianBlur stdDeviation="62.574466"/>
  </filter>
  <filter id="al" x="-.11892" y="-.12106" width="1.2378" height="1.2421" color-interpolation-filters="sRGB">
   <feGaussianBlur stdDeviation="29.745199"/>
  </filter>
  <filter id="i" x="-.23788" y="-.24215" width="1.4758" height="1.4843" color-interpolation-filters="sRGB">
   <feGaussianBlur stdDeviation="59.500918"/>
  </filter>
  <filter id="c" x="-.35336" y="-.35971" width="1.7067" height="1.7194" color-interpolation-filters="sRGB">
   <feGaussianBlur stdDeviation="88.384989"/>
  </filter>
  <filter id="z" x="-.25017" y="-.25466" width="1.5003" height="1.5093" color-interpolation-filters="sRGB">
   <feGaussianBlur stdDeviation="62.574466"/>
  </filter>
  <filter id="an" x="-.11892" y="-.12106" width="1.2378" height="1.2421" color-interpolation-filters="sRGB">
   <feGaussianBlur stdDeviation="29.745199"/>
  </filter>
  <filter id="l" x="-.23788" y="-.24215" width="1.4758" height="1.4843" color-interpolation-filters="sRGB">
   <feGaussianBlur stdDeviation="59.500918"/>
  </filter>
  <filter id="g" x="-.35336" y="-.35971" width="1.7067" height="1.7194" color-interpolation-filters="sRGB">
   <feGaussianBlur stdDeviation="88.384989"/>
  </filter>
  <filter id="p" x="-.23788" y="-.24215" width="1.4758" height="1.4843" color-interpolation-filters="sRGB">
   <feGaussianBlur stdDeviation="59.500918"/>
  </filter>
  <filter id="r" x="-.23788" y="-.24215" width="1.4758" height="1.4843" color-interpolation-filters="sRGB">
   <feGaussianBlur stdDeviation="59.500918"/>
  </filter>
  <filter id="ab" x="-.25017" y="-.25466" width="1.5003" height="1.5093" color-interpolation-filters="sRGB">
   <feGaussianBlur stdDeviation="62.574466"/>
  </filter>
  <filter id="ak" x="-.11892" y="-.12106" width="1.2378" height="1.2421" color-interpolation-filters="sRGB">
   <feGaussianBlur stdDeviation="29.745199"/>
  </filter>
  <filter id="j" x="-.23788" y="-.24215" width="1.4758" height="1.4843" color-interpolation-filters="sRGB">
   <feGaussianBlur stdDeviation="59.500918"/>
  </filter>
  <filter id="b" x="-.35336" y="-.35971" width="1.7067" height="1.7194" color-interpolation-filters="sRGB">
   <feGaussianBlur stdDeviation="88.384989"/>
  </filter>
  <filter id="q" x="-.23788" y="-.24215" width="1.4758" height="1.4843" color-interpolation-filters="sRGB">
   <feGaussianBlur stdDeviation="59.500918"/>
  </filter>
  <filter id="t" x="-.23788" y="-.24215" width="1.4758" height="1.4843" color-interpolation-filters="sRGB">
   <feGaussianBlur stdDeviation="59.500918"/>
  </filter>
  <filter id="aa" x="-.25017" y="-.25466" width="1.5003" height="1.5093" color-interpolation-filters="sRGB">
   <feGaussianBlur stdDeviation="62.574466"/>
  </filter>
  <filter id="am" x="-.11892" y="-.12106" width="1.2378" height="1.2421" color-interpolation-filters="sRGB">
   <feGaussianBlur stdDeviation="29.745199"/>
  </filter>
  <filter id="m" x="-.23788" y="-.24215" width="1.4758" height="1.4843" color-interpolation-filters="sRGB">
   <feGaussianBlur stdDeviation="59.500918"/>
  </filter>
  <filter id="h" x="-.35336" y="-.35971" width="1.7067" height="1.7194" color-interpolation-filters="sRGB">
   <feGaussianBlur stdDeviation="88.384989"/>
  </filter>
  <filter id="n" x="-.23788" y="-.24215" width="1.4758" height="1.4843" color-interpolation-filters="sRGB">
   <feGaussianBlur stdDeviation="59.500918"/>
  </filter>
  <filter id="u" x="-.23788" y="-.24215" width="1.4758" height="1.4843" color-interpolation-filters="sRGB">
   <feGaussianBlur stdDeviation="59.500918"/>
  </filter>
  <filter id="w" x="-.25017" y="-.25466" width="1.5003" height="1.5093" color-interpolation-filters="sRGB">
   <feGaussianBlur stdDeviation="62.574466"/>
  </filter>
  <filter id="aj" x="-.11892" y="-.12106" width="1.2378" height="1.2421" color-interpolation-filters="sRGB">
   <feGaussianBlur stdDeviation="29.745199"/>
  </filter>
  <filter id="k" x="-.23788" y="-.24215" width="1.4758" height="1.4843" color-interpolation-filters="sRGB">
   <feGaussianBlur stdDeviation="59.500918"/>
  </filter>
  <filter id="ao" x="-.35336" y="-.35971" width="1.7067" height="1.7194" color-interpolation-filters="sRGB">
   <feGaussianBlur stdDeviation="88.384989"/>
  </filter>
  <filter id="o" x="-.23788" y="-.24215" width="1.4758" height="1.4843" color-interpolation-filters="sRGB">
   <feGaussianBlur stdDeviation="59.500918"/>
  </filter>
  <filter id="s" x="-.23788" y="-.24215" width="1.4758" height="1.4843" color-interpolation-filters="sRGB">
   <feGaussianBlur stdDeviation="59.500918"/>
  </filter>
  <filter id="v" x="-.25017" y="-.25466" width="1.5003" height="1.5093" color-interpolation-filters="sRGB">
   <feGaussianBlur stdDeviation="62.574466"/>
  </filter>
  <filter id="ac" x="-.41778" y="-.73692" width="1.8356" height="2.4738" color-interpolation-filters="sRGB">
   <feGaussianBlur stdDeviation="252.65967"/>
  </filter>
  <filter id="ai" x="-.69424" y="-.62999" width="2.3885" height="2.26" color-interpolation-filters="sRGB">
   <feGaussianBlur stdDeviation="36.753304"/>
  </filter>
  <filter id="ad" x="-.45565" y="-.80372" width="1.9113" height="2.6074" color-interpolation-filters="sRGB">
   <feGaussianBlur stdDeviation="275.56206"/>
  </filter>
  <linearGradient id="af" x1="5054.1" x2="-2021.9" y1="375.54" y2="-2524.4" gradientUnits="userSpaceOnUse">
   <stop stop-color="#060200" offset="0"/>
   <stop stop-color="#dd6734" offset="1"/>
  </linearGradient>
  <linearGradient id="a" x1="1710" x2="920.38" y1="138.21" y2="30.116" gradientUnits="userSpaceOnUse">
   <stop stop-color="#a40" offset="0"/>
   <stop stop-color="#a40" stop-opacity="0" offset="1"/>
  </linearGradient>
  <linearGradient id="ah" x1="56.569" x2="525.28" y1="-386.1" y2="2430.2" gradientTransform="matrix(.97741 0 0 1.0605 846.91 -79.383)" gradientUnits="userSpaceOnUse">
   <stop stop-color="#16093f" offset="0"/>
   <stop stop-color="#dd6734" offset="1"/>
  </linearGradient>
  <filter id="ae" x="-.44684" y="-.96333" width="1.8937" height="2.9267">
   <feGaussianBlur stdDeviation="124.88222"/>
  </filter>
  <linearGradient id="ag" x1="-120.29" x2="1758.1" y1="-2927.5" y2="-589.09" gradientUnits="userSpaceOnUse">
   <stop stop-color="#181a27" offset="0"/>
   <stop stop-color="#ff932b" offset="1"/>
  </linearGradient>
 </defs>
 <g transform="translate(-173.7 204.17)">
  <g transform="translate(169.71 88.893)">
   <path d="m3.9915-293.06h1999l0.4426 1341.9-1999.3-0.6855z" fill="url(#ah)"/>
   <path transform="matrix(.71333 0 0 .34031 886.84 1111.4)" d="m868.57-1307.6a725.71 411.43 0 1 1 -1451.4 0 725.71 411.43 0 1 1 1451.4 0z" fill="url(#ag)" fill-rule="evenodd" filter="url(#ac)"/>
   <path transform="matrix(.75463 0 0 .85893 1631.2 -89.772)" d="m177.79 852.35a335.37 155.56 0 1 1 -670.74 0 335.37 155.56 0 1 1 670.74 0z" fill="#ffa400" filter="url(#ae)"/>
   <path transform="matrix(.10416 0 0 .2267 1827.5 1063.9)" d="m868.57-1307.6a725.71 411.43 0 1 1 -1451.4 0 725.71 411.43 0 1 1 1451.4 0z" fill="url(#af)" fill-rule="evenodd" filter="url(#ad)"/>
   <path transform="matrix(.76851 0 0 .9957 893.46 676.34)" d="m1355.8 63.795-126.29 40.362 16.868 32.337 43.709 31.587 66.479 35.729z" fill="url(#a)" filter="url(#ai)"/>
   <path d="m4.5212 761.7c45.401-8.82 137.93 25.45 215.87-66.39 9.4991 16.546 30.428-12.532 32.037-2.0275 0.96496 6.3016 5.9119 10.2 23.643-6.635 8.4966 0.37055 28.816-8.6716 56.408-15.07 20.602-10.783 42.215-23.292 70.646-32.686 10.931-10.001 31.199-20.657 59.046-28.091 8.2707-7.1861 19.235-13.504 30.267-15.302 8.4114-12.207 21.919-17.771 31.296-17.527 51.136 7.7244 28.861-19.453 81.509 18.225-2.3527 16.178 17.071 37.574 26.504 55.951 13.785 10.417 36.779 42.78 40.656 40.268 8.3365 18.576 8.0127-4.7253 34.397 32.042 13.095 1.9386 40.527-5.284 48.491 4.7519 17.948-0.2084 34.843 3.3255 54.251 5.8216 1.7868-5.4758 29.188-16.314 88.652-48.824 2.4603 1.0865 59.307 3.7209 62.355 19.234 16.209-5.3235 39.754 6.5249 49.863 15.295 14.538-0.96857 23.954-3.1754 49.637 9.7379 51.986-13.305 37.238-1.6008 50.513 1.5629 37.345 58.335 47.7 48.6 52.285 41.983 30.24 18.447 48.766 20.915 48.936 25.957 37.022-13.584 52.601-5.2515 58.316-1.3945 28.226 4.0955 35.978-31.288 67.659-30.292 19.51-2.4182 25.146 17.641 44.676 32.104 8.0945-4.5282 28.662-17.38 47.827-41.936 21.919-10.401 24.182-31.538 33.279-34.024 8.525-1.8965 2.6765 9.4734 10.414 7.0237 4.2669-29.701 7.5271-26.476 16.205-17.727 10.184-14.976 26.358-21.148 51.396-53.946 33.687-6.9636 54.939-15.134 57.402-24.602 32.642 6.7948 47.333-5.1177 58.896-3.7929 16.684 1.9116 37.138 17.937 40.552 18.313 17.622 1.9406 10.87 7.6144 12.534 8.1607 12.014 3.9439 11.618 12.316 21.844 13.576 5.5451 13.64 15.177 17.187 24.508 14.392 5.3068 13.752 18.696 19.533 23.204 22.849 11.914 8.7663 14.083 26.688 41.284 25.466 28.306 28.205 32.782 15.831 94.876 63.197 2.5634-1.5826 8.0779 16.464 42.344 20.445 14.664 17.246 33.894 16.784 44.918 22.548 0 163.16 0.074 53.447 0.074 216.61-666.8 0-1333.2-0.107-2e3 -0.107 0-163.16 0.52936-131.97 0.52936-295.13z"/>
   <path transform="matrix(.025585 0 0 .024439 72.56 -166.64)" d="m-880.71-796.21-27.002-24.727-26.777 24.972 2.4971-36.528-36.218-5.3652 30.116-20.823-18.387-31.662 35.057 10.563 13.29-34.117 13.599 33.994 34.96-10.881-18.099 31.828 30.304 20.549-36.168 5.6938z" fill="#f2f2f2" fill-rule="evenodd"/>
   <path transform="matrix(.025585 0 0 .024439 81.323 -147.85)" d="m-880.71-796.21-27.002-24.727-26.777 24.972 2.4971-36.528-36.218-5.3652 30.116-20.823-18.387-31.662 35.057 10.563 13.29-34.117 13.599 33.994 34.96-10.881-18.099 31.828 30.304 20.549-36.168 5.6938z" fill="#f2f2f2" fill-rule="evenodd"/>
   <path transform="matrix(.025585 0 0 .024439 146.13 266.65)" d="m-880.71-796.21-27.002-24.727-26.777 24.972 2.4971-36.528-36.218-5.3652 30.116-20.823-18.387-31.662 35.057 10.563 13.29-34.117 13.599 33.994 34.96-10.881-18.099 31.828 30.304 20.549-36.168 5.6938z" fill="#f2f2f2" fill-rule="evenodd"/>
   <path transform="matrix(.027353 0 0 .027214 179.62 -107.34)" d="m-1691.4-1564.8-172.13-59.077-72.445 166.95-61.134-171.41-175.69 47.45 95.898-154.67-146.64-107.78 180.72-21.459-7.1645-181.85 129.45 127.91 137.71-118.98-19.292 180.96 178.88 33.48-153.51 97.744z" fill="#ececec" fill-rule="evenodd" filter="url(#v)"/>
   <path transform="matrix(.025119 0 0 .024888 763.04 -162.33)" d="m-1691.4-1564.8-172.13-59.077-72.445 166.95-61.134-171.41-175.69 47.45 95.898-154.67-146.64-107.78 180.72-21.459-7.1645-181.85 129.45 127.91 137.71-118.98-19.292 180.96 178.88 33.48-153.51 97.744z" fill="#ececec" fill-rule="evenodd" filter="url(#s)"/>
   <path transform="matrix(.025119 0 0 .024888 1998.6 209.42)" d="m-1691.4-1564.8-172.13-59.077-72.445 166.95-61.134-171.41-175.69 47.45 95.898-154.67-146.64-107.78 180.72-21.459-7.1645-181.85 129.45 127.91 137.71-118.98-19.292 180.96 178.88 33.48-153.51 97.744z" fill="#ececec" fill-rule="evenodd" filter="url(#o)"/>
   <path transform="matrix(.015082 0 0 .015153 735.71 134.6)" d="m-1691.4-1564.8-172.13-59.077-72.445 166.95-61.134-171.41-175.69 47.45 95.898-154.67-146.64-107.78 180.72-21.459-7.1645-181.85 129.45 127.91 137.71-118.98-19.292 180.96 178.88 33.48-153.51 97.744z" fill="#ececec" fill-rule="evenodd" filter="url(#ao)"/>
   <path transform="matrix(.018428 0 0 .016298 843.91 399.75)" d="m-1691.4-1564.8-172.13-59.077-72.445 166.95-61.134-171.41-175.69 47.45 95.898-154.67-146.64-107.78 180.72-21.459-7.1645-181.85 129.45 127.91 137.71-118.98-19.292 180.96 178.88 33.48-153.51 97.744z" fill="#ececec" fill-rule="evenodd" filter="url(#k)"/>
   <path transform="matrix(.025119 0 0 .024888 565.82 103.28)" d="m-1691.4-1564.8-172.13-59.077-72.445 166.95-61.134-171.41-175.69 47.45 95.898-154.67-146.64-107.78 180.72-21.459-7.1645-181.85 129.45 127.91 137.71-118.98-19.292 180.96 178.88 33.48-153.51 97.744z" fill="#ececec" fill-rule="evenodd" filter="url(#aj)"/>
   <path transform="matrix(.027353 0 0 .027214 558.33 -189.05)" d="m-1691.4-1564.8-172.13-59.077-72.445 166.95-61.134-171.41-175.69 47.45 95.898-154.67-146.64-107.78 180.72-21.459-7.1645-181.85 129.45 127.91 137.71-118.98-19.292 180.96 178.88 33.48-153.51 97.744z" fill="#ececec" fill-rule="evenodd" filter="url(#w)"/>
   <path transform="matrix(.025119 0 0 .024888 230.55 291.82)" d="m-1691.4-1564.8-172.13-59.077-72.445 166.95-61.134-171.41-175.69 47.45 95.898-154.67-146.64-107.78 180.72-21.459-7.1645-181.85 129.45 127.91 137.71-118.98-19.292 180.96 178.88 33.48-153.51 97.744z" fill="#ececec" fill-rule="evenodd" filter="url(#u)"/>
   <path transform="matrix(.025119 0 0 .024888 770.7 10.84)" d="m-1691.4-1564.8-172.13-59.077-72.445 166.95-61.134-171.41-175.69 47.45 95.898-154.67-146.64-107.78 180.72-21.459-7.1645-181.85 129.45 127.91 137.71-118.98-19.292 180.96 178.88 33.48-153.51 97.744z" fill="#ececec" fill-rule="evenodd" filter="url(#n)"/>
   <path transform="matrix(.015082 0 0 .015153 888.85 99.377)" d="m-1691.4-1564.8-172.13-59.077-72.445 166.95-61.134-171.41-175.69 47.45 95.898-154.67-146.64-107.78 180.72-21.459-7.1645-181.85 129.45 127.91 137.71-118.98-19.292 180.96 178.88 33.48-153.51 97.744z" fill="#ececec" fill-rule="evenodd" filter="url(#h)"/>
   <path transform="matrix(.018428 0 0 .016298 1046.1 -104.18)" d="m-1691.4-1564.8-172.13-59.077-72.445 166.95-61.134-171.41-175.69 47.45 95.898-154.67-146.64-107.78 180.72-21.459-7.1645-181.85 129.45 127.91 137.71-118.98-19.292 180.96 178.88 33.48-153.51 97.744z" fill="#ececec" fill-rule="evenodd" filter="url(#m)"/>
   <path transform="matrix(.025119 0 0 .024888 118.28 460.02)" d="m-1691.4-1564.8-172.13-59.077-72.445 166.95-61.134-171.41-175.69 47.45 95.898-154.67-146.64-107.78 180.72-21.459-7.1645-181.85 129.45 127.91 137.71-118.98-19.292 180.96 178.88 33.48-153.51 97.744z" fill="#ececec" fill-rule="evenodd" filter="url(#am)"/>
   <path transform="matrix(.027353 0 0 .027214 1731.2 79.815)" d="m-1691.4-1564.8-172.13-59.077-72.445 166.95-61.134-171.41-175.69 47.45 95.898-154.67-146.64-107.78 180.72-21.459-7.1645-181.85 129.45 127.91 137.71-118.98-19.292 180.96 178.88 33.48-153.51 97.744z" fill="#ececec" fill-rule="evenodd" filter="url(#aa)"/>
   <path transform="matrix(.025119 0 0 .024888 1531.8 -41.791)" d="m-1691.4-1564.8-172.13-59.077-72.445 166.95-61.134-171.41-175.69 47.45 95.898-154.67-146.64-107.78 180.72-21.459-7.1645-181.85 129.45 127.91 137.71-118.98-19.292 180.96 178.88 33.48-153.51 97.744z" fill="#ececec" fill-rule="evenodd" filter="url(#t)"/>
   <path transform="matrix(.025119 0 0 .024888 658.69 294.54)" d="m-1691.4-1564.8-172.13-59.077-72.445 166.95-61.134-171.41-175.69 47.45 95.898-154.67-146.64-107.78 180.72-21.459-7.1645-181.85 129.45 127.91 137.71-118.98-19.292 180.96 178.88 33.48-153.51 97.744z" fill="#ececec" fill-rule="evenodd" filter="url(#q)"/>
   <path transform="matrix(.015082 0 0 .0032894 1164 101.46)" d="m-1691.4-1564.8-172.13-59.077-72.445 166.95-61.134-171.41-175.69 47.45 95.898-154.67-146.64-107.78 180.72-21.459-7.1645-181.85 129.45 127.91 137.71-118.98-19.292 180.96 178.88 33.48-153.51 97.744z" fill="#ececec" fill-rule="evenodd" filter="url(#b)"/>
   <path transform="matrix(.018428 0 0 .016298 151.38 58.415)" d="m-1691.4-1564.8-172.13-59.077-72.445 166.95-61.134-171.41-175.69 47.45 95.898-154.67-146.64-107.78 180.72-21.459-7.1645-181.85 129.45 127.91 137.71-118.98-19.292 180.96 178.88 33.48-153.51 97.744z" fill="#ececec" fill-rule="evenodd" filter="url(#j)"/>
   <path transform="matrix(.025119 0 0 .024888 1415.6 -169.31)" d="m-1691.4-1564.8-172.13-59.077-72.445 166.95-61.134-171.41-175.69 47.45 95.898-154.67-146.64-107.78 180.72-21.459-7.1645-181.85 129.45 127.91 137.71-118.98-19.292 180.96 178.88 33.48-153.51 97.744z" fill="#ececec" fill-rule="evenodd" filter="url(#ak)"/>
   <path transform="matrix(.027353 0 0 .027214 455.19 269.84)" d="m-1691.4-1564.8-172.13-59.077-72.445 166.95-61.134-171.41-175.69 47.45 95.898-154.67-146.64-107.78 180.72-21.459-7.1645-181.85 129.45 127.91 137.71-118.98-19.292 180.96 178.88 33.48-153.51 97.744z" fill="#ececec" fill-rule="evenodd" filter="url(#ab)"/>
   <path transform="matrix(.025119 0 0 .024888 1210.8 -69.86)" d="m-1691.4-1564.8-172.13-59.077-72.445 166.95-61.134-171.41-175.69 47.45 95.898-154.67-146.64-107.78 180.72-21.459-7.1645-181.85 129.45 127.91 137.71-118.98-19.292 180.96 178.88 33.48-153.51 97.744z" fill="#ececec" fill-rule="evenodd" filter="url(#r)"/>
   <path transform="matrix(.025119 0 0 .024888 334.9 -39.165)" d="m-1691.4-1564.8-172.13-59.077-72.445 166.95-61.134-171.41-175.69 47.45 95.898-154.67-146.64-107.78 180.72-21.459-7.1645-181.85 129.45 127.91 137.71-118.98-19.292 180.96 178.88 33.48-153.51 97.744z" fill="#ececec" fill-rule="evenodd" filter="url(#p)"/>
   <path transform="matrix(.015082 0 0 .015153 1060.1 211.14)" d="m-1691.4-1564.8-172.13-59.077-72.445 166.95-61.134-171.41-175.69 47.45 95.898-154.67-146.64-107.78 180.72-21.459-7.1645-181.85 129.45 127.91 137.71-118.98-19.292 180.96 178.88 33.48-153.51 97.744z" fill="#ececec" fill-rule="evenodd" filter="url(#g)"/>
   <path transform="matrix(.018428 0 0 .016298 1334.6 33.585)" d="m-1691.4-1564.8-172.13-59.077-72.445 166.95-61.134-171.41-175.69 47.45 95.898-154.67-146.64-107.78 180.72-21.459-7.1645-181.85 129.45 127.91 137.71-118.98-19.292 180.96 178.88 33.48-153.51 97.744z" fill="#ececec" fill-rule="evenodd" filter="url(#l)"/>
   <path transform="matrix(.025119 0 0 .024888 1890.8 -115.18)" d="m-1691.4-1564.8-172.13-59.077-72.445 166.95-61.134-171.41-175.69 47.45 95.898-154.67-146.64-107.78 180.72-21.459-7.1645-181.85 129.45 127.91 137.71-118.98-19.292 180.96 178.88 33.48-153.51 97.744z" fill="#ececec" fill-rule="evenodd" filter="url(#an)"/>
   <path transform="matrix(.027353 0 0 .027214 332.87 554.01)" d="m-1691.4-1564.8-172.13-59.077-72.445 166.95-61.134-171.41-175.69 47.45 95.898-154.67-146.64-107.78 180.72-21.459-7.1645-181.85 129.45 127.91 137.71-118.98-19.292 180.96 178.88 33.48-153.51 97.744z" fill="#ececec" fill-rule="evenodd" filter="url(#z)"/>
   <path transform="matrix(.015082 0 0 .015153 667.65 482.07)" d="m-1691.4-1564.8-172.13-59.077-72.445 166.95-61.134-171.41-175.69 47.45 95.898-154.67-146.64-107.78 180.72-21.459-7.1645-181.85 129.45 127.91 137.71-118.98-19.292 180.96 178.88 33.48-153.51 97.744z" fill="#ececec" fill-rule="evenodd" filter="url(#c)"/>
   <path transform="matrix(.018428 0 0 .016298 296.73 150.21)" d="m-1691.4-1564.8-172.13-59.077-72.445 166.95-61.134-171.41-175.69 47.45 95.898-154.67-146.64-107.78 180.72-21.459-7.1645-181.85 129.45 127.91 137.71-118.98-19.292 180.96 178.88 33.48-153.51 97.744z" fill="#ececec" fill-rule="evenodd" filter="url(#i)"/>
   <path transform="matrix(.025119 0 0 .024888 326.89 -163.29)" d="m-1691.4-1564.8-172.13-59.077-72.445 166.95-61.134-171.41-175.69 47.45 95.898-154.67-146.64-107.78 180.72-21.459-7.1645-181.85 129.45 127.91 137.71-118.98-19.292 180.96 178.88 33.48-153.51 97.744z" fill="#ececec" fill-rule="evenodd" filter="url(#al)"/>
   <path transform="matrix(.027353 0 0 .027214 504.93 371.89)" d="m-1691.4-1564.8-172.13-59.077-72.445 166.95-61.134-171.41-175.69 47.45 95.898-154.67-146.64-107.78 180.72-21.459-7.1645-181.85 129.45 127.91 137.71-118.98-19.292 180.96 178.88 33.48-153.51 97.744z" fill="#ececec" fill-rule="evenodd" filter="url(#y)"/>
   <path transform="matrix(.027353 0 0 .027214 1208.4 -161.42)" d="m-1691.4-1564.8-172.13-59.077-72.445 166.95-61.134-171.41-175.69 47.45 95.898-154.67-146.64-107.78 180.72-21.459-7.1645-181.85 129.45 127.91 137.71-118.98-19.292 180.96 178.88 33.48-153.51 97.744z" fill="#ececec" fill-rule="evenodd" filter="url(#x)"/>
   <path transform="matrix(.015082 0 0 .015153 1018.8 527.19)" d="m-1691.4-1564.8-172.13-59.077-72.445 166.95-61.134-171.41-175.69 47.45 95.898-154.67-146.64-107.78 180.72-21.459-7.1645-181.85 129.45 127.91 137.71-118.98-19.292 180.96 178.88 33.48-153.51 97.744z" fill="#ececec" fill-rule="evenodd" filter="url(#e)"/>
   <path transform="matrix(.015082 0 0 .015153 1437.7 378.83)" d="m-1691.4-1564.8-172.13-59.077-72.445 166.95-61.134-171.41-175.69 47.45 95.898-154.67-146.64-107.78 180.72-21.459-7.1645-181.85 129.45 127.91 137.71-118.98-19.292 180.96 178.88 33.48-153.51 97.744z" fill="#ececec" fill-rule="evenodd" filter="url(#f)"/>
   <path transform="matrix(.015082 0 0 .015153 1730.1 290.61)" d="m-1691.4-1564.8-172.13-59.077-72.445 166.95-61.134-171.41-175.69 47.45 95.898-154.67-146.64-107.78 180.72-21.459-7.1645-181.85 129.45 127.91 137.71-118.98-19.292 180.96 178.88 33.48-153.51 97.744z" fill="#ececec" fill-rule="evenodd" filter="url(#d)"/>
  </g>
 </g>
</svg>
