<?xml version="1.0" encoding="UTF-8"?>
<svg enable-background="new -0.973 -0.694 55 55" viewBox="-0.973 -0.694 55 55" xmlns="http://www.w3.org/2000/svg">
 <path d="m7.827 45.59c-10.438-10.426-10.434-27.336 0-37.764 10.426-10.439 27.348-10.432 37.746 0 10.441 10.428 10.441 27.338 0 37.764-10.398 10.43-27.32 10.438-37.746 0" fill="#cec82b"/>
 <path d="m16.769,21.739c0,5.297 3.766,8.383 8.379,8.383 2.984,0 4.828-1.086 5.785-1.914-.359,5.68-3.32,8.531-7.195,8.531-1.59,0-3.039-.359-3.812-.68l-.883,4.812c1.172.273 2.613.484 4.219.484 8.914,0 13.434-6.742 13.434-16.57 0-7.492-2.719-12.826-10.359-12.826-5.803,0-9.568,4.131-9.568,9.78m5.648-.594c0-2.453 1.41-4.734 4.117-4.734 2.801,0 4.359,2.609 4.359,5.289 0,.852 0,1.93-.32,2.406-.558.887-2.32,1.894-4.039,1.894-2.715,0-4.117-2.207-4.117-4.855z" fill="#231f20"/>
</svg>
