<?xml version="1.0" encoding="UTF-8"?>
<svg enable-background="new -0.968 -0.694 55 55" viewBox="-0.968 -0.694 55 55" xmlns="http://www.w3.org/2000/svg">
 <path d="m0 26.703c0-14.754 11.961-26.703 26.707-26.703s26.707 11.949 26.707 26.703-11.953 26.711-26.707 26.711-26.707-11.965-26.707-26.711" fill="#78c696"/>
 <path d="m35.902,30.477c0-5.305-3.766-8.387-8.391-8.387-2.988,0-4.801,1.082-5.758,1.926 .359-5.688 3.281-8.539 7.18-8.539 1.59,0 3.043.359 3.793.688l.891-4.812c-1.16-.289-2.613-.477-4.211-.477-8.898,0-13.426,6.723-13.426,16.551 0,7.496 2.719,12.836 10.34,12.836 5.817-.001 9.582-4.142 9.582-9.786m-5.652.601c0,2.438-1.402,4.723-4.133,4.723-2.809,0-4.324-2.605-4.324-5.293 0-.836 0-1.922.32-2.402 .559-.887 1.965-1.559 3.688-1.559 2.722,0 4.449,1.879 4.449,4.531z" fill="#231f20"/>
</svg>
