<?xml version="1.0" encoding="UTF-8"?>
<svg enable-background="new -0.653 -0.146 55 55" viewBox="-0.653 -0.146 55 55" xmlns="http://www.w3.org/2000/svg">
 <path d="m.635,26.699c0-14.758 11.955-26.699 26.707-26.699s26.701,11.941 26.701,26.699-11.949,26.723-26.701,26.723-26.707-11.961-26.707-26.723" fill="#89d3de"/>
 <path d="m21.33,40.82v-28.32h-4.932c-1.287,1-4.336,2.879-7.623,4.441l-1.725.801 1.928,4.359 1.484-.762c1.039-.52 3.889-2 4.848-2.758v22.239h6.02m23.164-8.398c0-3.961-2.367-6.281-5.492-6.883v-.078c3.004-1.121 4.561-3.359 4.561-6.281 0-3.801-3.283-7.16-9.053-7.16-3.336,0-6.055.922-8.5,2.52l1.961,4.16c.92-.758 2.641-2.039 5.252-2.039 2.969,0 4.328,1.602 4.328,3.402 0,2.156-1.721,3.52-4.492,3.52h-2.965v4.68h2.926c2.895,0 5.375,1.039 5.375,4.277 0,2.402-2.039,4.203-5.336,4.203-2.393,0-4.359-.922-5.564-1.84l-2.168,4.359c2.285,1.277 4.488,2.117 8.137,2.117 6.579,0 11.03-4 11.03-8.957z" fill="#231f20"/>
 <path d="m0,27.809c0-14.743 11.949-26.704 26.707-26.704 14.746,0 26.703,11.961 26.703,26.703 0,14.746-11.957,26.703-26.703,26.703-14.758.001-26.707-11.956-26.707-26.702" fill="#8d663a"/>
 <path d="m22.957,41.918v-28.305h-4.926c-1.293,1.008-4.328,2.883-7.621,4.453l-1.723.793 1.91,4.336 1.496-.762c1.039-.516 3.891-2.008 4.852-2.766v22.25h6.012m17.633.001v-28.305h-4.934c-1.277,1.008-4.336,2.883-7.617,4.453l-1.719.793 1.922,4.336 1.477-.762c1.043-.516 3.895-2.008 4.855-2.766v22.25h6.016z" fill="#fff"/>
 <path d="m.07,27.363c0-14.746 11.961-26.707 26.703-26.707 14.758,0 26.715,11.961 26.715,26.707s-11.957,26.707-26.715,26.707c-14.742,0-26.703-11.961-26.703-26.707" fill="#e0b03a"/>
 <path d="m20.355,41.52v-28.305h-4.934c-1.285,1-4.332,2.887-7.613,4.457l-1.73.797 1.926,4.336 1.488-.77c1.035-.523 3.883-2.008 4.848-2.762v22.247h6.015m24.641-14.067c0-6.539-1.68-14.797-10.223-14.797s-10.391,8.258-10.391,14.797 1.688,14.797 10.227,14.797c8.551,0 10.387-8.258 10.387-14.797zm-6.129,0c0,2.812-.156,10.059-4.176,10.059-4,0-4.211-7.207-4.211-10.059 0-2.895.121-10.023 4.211-10.023 4.051,0 4.176,7.054 4.176,10.023z" fill="#231f20"/>
</svg>
