<?xml version="1.0" encoding="UTF-8"?>
<svg enable-background="new -0.966 -0.696 55 55" viewBox="-0.966 -0.696 55 55" xmlns="http://www.w3.org/2000/svg">
 <path d="m0 26.711c0-14.758 11.953-26.711 26.707-26.711s26.711 11.953 26.711 26.711c0 14.742-11.957 26.699-26.711 26.699s-26.707-11.957-26.707-26.699" fill="#0c6eb7"/>
 <path d="m36.133,39.574v-4.738h-11.68c.367-1.641 3.211-4.008 4.652-5.328 3.41-3.098 6.496-5.297 6.496-10.148 0-5.77-4.684-8.578-9.656-8.578-3.812,0-6.336,1.121-9.066,3.492l2.977,3.93c.676-.766 2.402-2.57 4.883-2.57 3.086,0 4.688,1.965 4.688,4.406 0,2.734-2.031,4.691-3.918,6.336-3.777,3.289-7.023,6.172-7.742,9.469v3.73h18.366" fill="#fff"/>
</svg>
