<?xml version="1.0" encoding="UTF-8"?>
<svg width="2400px" height="3600px" clip-rule="evenodd" fill-rule="evenodd" image-rendering="optimizeQuality" shape-rendering="geometricPrecision" text-rendering="geometricPrecision" viewBox="0 0 2400 3394.29" xmlns="http://www.w3.org/2000/svg">
 <defs>
  <style type="text/css">.fil0 {fill:#1F1A17}</style>
 </defs>
 <path class="fil0" d="m227.38 2301.4l34.803 94.71-73.947 181.85c6.7954 13.454 5.9943 83.401 5.2777 152.7 16.819 7.4823 27.199 30.991 40.797 46.486 25.339-50.758 55.577-94.859 83.547-141.44 24.678-41.097 46.728-85.254 74.408-121.57 41.73-54.752 87.389-103.26 138.51-143.08l50.769 29.431-45.55 23.362 23.08 13.894 37.715 81.68c4.9577 53.52-4.8457 110.28-14.514 166.76-5.7691 11.512-10.157 5.656-16.789 13.584l-13.338 42.658c21.459-18.874 37.917-28.158 42.971-17.089-65.347 36.127-69.999 88.239-52.526 146.45l23.465-15.631c0.099429-55.755 11.723-95.947 48.698-101.89l6.4217-28.294c9.5223 4.2709 13.87 0.16114 14.675-9.6834-10.365 2.0846-18.437 0.75886-18.323-12.752 0.13486-61.704 4.136-114.86 9.9669-167.32 1.6263-14.632-2.3074-28.776-5.4869-42.534-2.9874-12.923-5.056-25.526-8.9509-37.463l21.638 8.8114 9.2834-6.008 15.056 6.4423c4.2503 16.682 11.541 24.731 12.047 43.931 0.78857 29.953-8.5177 73.017-9.1703 104.85-0.62171 30.31-1.5817 61.067-2.2857 91.486l-12.523 8.5189c-7.5143-8.6343-9.1189 6.1783-10.398 11.365-1.9943 8.0949-1.3074 28.137 4.6789 31.103 3.3691-3.2389 3.2457-11.362 5.5897-16.586 1.6034-3.576 4.3657-5.7943 10.194-4.1657l6.0023 128.43c10.857 4.48 21.33 2.8457 31.117-9.6789l-1.1257-93.382c4.7874-5.2389 7.1371 8.3646 9.984 4.472 5.4343-7.4309 8.9326-30.669 8.3074-33.888-0.65371-3.3737-3.272-34.624-9.0057-35.633-2.0743-0.36571-4.696 3.1966-5.912 8.296-2.2411 9.4057-2.1497 23.583-4.4069 24.019 0.528-10.419-0.72114-21.171-0.44686-31.646 0.52-19.998 2.3074-39.778 2.5657-59.832 0.63314-49.27 1.7783-98.43 9.8949-146.06l1.2994 48.811c2.3931 5.3211 8.7486-2.176 18.87-6.616 3.2091-1.4069 7.16-0.23086 11.917-0.084571 9.4217 0.29143 20.093-2.7989 36.339-0.63314 5.0903 26.566 2.8994 54.823-6.5737 84.777 27.077 2.0446 68.678-2.9954 99.375 9.5177 27.085 11.041 52.874 28.377 75.373 56.061l26.487-115.66 6.712 2.5966-26.559 128.81 5.5931 3.44-26.427 33.658 6.872 9.1074 16.928-8.1531-7.0674 20.323c51.91 6.6629 100.76 32.337 151.01 43.186l-0.034286-38.037c64.966-41.471 134.32-74.701 204.59-106.22-21.325-9.3394-45.885-17.504-72.745-21.746-39.487-6.2377-77.712-20.496-84.741-47.225 11.013-5.9029 22.247-7.1771 33.953 1.7303 10.984 2.392 33.48-2.2663 32.951 7.1783 19.382-8.9017 38.594-12.969 57.426-6.3931 7.1143 2.4834 14.981-1.6674 22.47-2.5006-3.8971 25.178 13.211 27.429 31.013 22.585 10.673-2.9051 23.193 6.1257 30.937 10.226l71.378-34.558c89.734-61.168 174.96-125.96 252.15-197.2l-3.9097-81.277c-26.009 11.739-46.802 30.278-62.381 55.623l10.648 6.3143c-1.6171 15.146 3.056 31.425-4.8503 45.44l3.7131 2.968c-1.576 4.4137-3.6697 7.1051-6.2766 8.08-2.056-19.234-1.176-39.137-6.168-57.703l-11.158-4.896-2.5223 0.73029c-2.3943 3.5029-3.376 7.5406-4.84 9.3863-1.7657 2.2286-3.8103 1.8846-4.2183 1.7051-0.42057-0.18514-1.2709-1.4149-0.25829-4.1554 0.78629-2.1326 3.1577-5.2743 4.8126-8.9486l-1.64-3.056c-23.881 22.095-48.4 43.637-75.991 62.512-43.298 22.983-87.014 39.317-130.84 53.79-2.4731 1.3131-3.4583 5.8994-3.7291 9.2217-0.27086 3.32 3.28 6.7177 1.968 9.8754-2.176 5.2377-6.5691 9.2937-6.7246 14.167-0.152 4.7794 5.2091 5.4651 8.3509 9.4949 2.2183 2.848 2.3554 9.0274 3.0777 12.215 1.6811 7.4251 1.2046 30.553 5.4389 37.381 3.0891 4.9817 11.118-6.3783 12.347-0.95771-1.4229 4.2663-3.6343 6.856-6.6377 7.7749l-75.231 13.066c7.928-27.981 8.1394-61.174 4.84-96.737l47.133-21.551-11.306-6.1269 21.283-5.0274-25.667-7.2309 25.675-5.8823 0.40343-5.4606-11.339 1.5063-0.69714-5.3771c-6.8366-0.098286-16.707 6.0274-22.337 6.8491-4.3806 0.64-4.7429-4.1829-8.5154-3.0846-6.4217 1.8709-11.171 6.6411-16.597 8.5223-3.7131 1.2869-8.4263-0.64686-11.525 1.6206-5.8926 4.3097-6.1269 13.233-11.299 18.582-4.5394 4.696-10.648 8.304-17.057 11.526-2.4914 1.2549-4.4103-0.87771-6.92 0.30171-2.5097 1.1806-5.6149 5.6743-7.9931 6.8651l2.2034 31.275-16.794-36.331c-16.144-2.4594-33.634-3.0046-52.054-2.2331-10.36 0.43429-17.669 3.088-28.545 4.2503-13.99 1.4937-31.697 1.704-46.263 4.0011 45.853-39.439 111.2-55.743 166.79-83.614-19.648-4.2731-34.451-11.562-40.619-24.235 8.4011 0.53371 18.335-4.7154 26.352-4.7589 5.6103-0.029714 4.3417 5.3554 9.3771 6.0389 7.3554 1 20.808-2.744 27.987-4.3211 13.504-2.968 25.715-7.8937 36.111-15.536-2.824 29.79 5.7794 43.574 31.077 33.967 3.2377-5.9074 12.106-11.081 19.07-14.487 7.8903-3.8583 17.608-3.4537 25.497-7.3097 9.2811-4.5394 18.272-6.8251 27.555-11.365 5.5714-2.7234 11.44-7.7051 17.01-10.429l-7.1086 14.226c-10.094 4.2549-24.433 6.4377-30.279 12.769l8.5349 6.6229c10.32-8.1737 29.471-8.1851 36.734-20.415l5.92 3.6469 18.522-43.987c15.831 1.6469 25.802-2.824 31.766-11.474 32.983-27.824 64.854-40.817 95.963-43.661 22.721-34.737 32.12-64.437 11.018-93.734-16.64-0.37943-33.247 0.62514-49.816 3.016-18.781 2.7086-37.514 7.1989-56.201 13.469l0.56457 5.1006-13.602 7.8446c1.9063 7.7589 1.432 14.795-4.28 20.24l-10.879-15.945-4.328 22.075c-0.936 5.936-4.1554 10.336-10.702 12.488-1.0891-6.0286-2.9657-10.097-5.0983-12.67-0.98171-1.184-3.7794 4.1783-5.0343 3.8149-1.256-0.36457-0.97829-6.4503-2.5029-5.9909-2.4114 0.72457-3.3406 3.7257-6.456 6.1349-1.416 1.096-4.7691 0.84457-6.3109 2.3577-18.621 45.339-31.378 84.938-3.1143 84.371-2.8891 4.296-4.448 9.6046-7.3349 13.145-4.1291 5.0606-10.153 7.4091-14.571 10.585-5.6789 4.0857-9.7783 8.4537-15.085 10.192-9.0469 2.9646-26.314 1.9326-35.371-3.4709-2.536-1.512-2.5177-2.7829 0.59886-5.6057 9.2354-7.3897 31.209-8.5577 27.705-22.171l3.9451-6.1657c0.65257-31.05 14.074-64.467 21.085-98.584 12.746 0.94743 40.799-13.775 38.238 2.8434 6.4091 1.0937 10.047-1.5234 10.912-7.848-8.3703-6.3371-13.11-12.695-18.77-15.898-4.4034-2.4926-9.4914-2.4206-16.48-3.1943-9.5863-1.0594-20.691-0.53257-33.296 1.4434l2.6491-11.535c-3.7257-13.811-5.48-28.981-9.2057-42.793-3.5017-12.974-8.9794-24.599-12.479-37.571-3.1669-11.736-2.5531-25.649-9.5029-35.215-1.3109-12.6-9.6331-19.254-24.973-19.96-3.4811-0.77829-5.2926-3.8457-3.2434-6.7794 15.929-13.624 31.686-23.91 47.19-29.318 6.9931-10.101 6.8926-29.592 20.975-30.301 7.7829 24.885 2.7417 42.322-17.779 50.773 1.4926 18.73 5.888 38.064 11.995 57.753 7.9577 25.647 17.711 40.81 29.971 78.211l10.323 5.4891 21.458-5.4103 5.5051 2.6914c27.234-15.895 54.018-29.818 79.695-38.883l1.8869-6.0274 8.5886-8.272c-21.734-39.768-35.522-85.541-46.433-133.49-17.151 14.065-30.587 30.889-35.862 53.785-8.8994-31.05-16.581-61.939-22.482-92.593 42.479-20.777 45.931-27.44 71.829-31.567 28.447-4.5337 62.761 10.117 91.208 5.5829-12.33 39.29-17.053 75.849-0.94514 105.54 4.144-11.537 9.6503-20.757 17.457-26.045 5.6971-3.8594 12.539-11.127 21.248-5.0343 20.959 9.5257 37.506 20.811 49.873 38.558 7.9246 11.374 9.2949 30.786 14.61 45.162 4.6937 12.694 8.2137 27.439 16.873 34.379 9.7726 1.9726 15.623-0.84229 15.153-11.366 9.984 0.70629 21.195-1.3429 31.794-2.0149-15.285 21.603-24.314 45.125-37.19 67.414-13.707 23.73-28.335 47.109-45.08 69.686 13.405 0.92571 30.003-2.5314 47.586-4.6377 30.304-3.6274 63.202-7.1977 85.307-5.904 24.226 1.4194 21.805 15.44 45.495 21.192 17.719-15.881 27.514-18.643 40.624-25.969 21.853-12.211 42.507-20.386 62.451-33.741 29.053-19.456 56.12-40.109 81.278-61.904l1.9303-115.18c-15.913 38.079-36.635 68.481-61.599 92.111-27.417 25.951-60.714 46.238-96.855 54.537l-3.1326-11.477c55.65-37.082 96.313-96.613 120.52-180.8-23.641 16.155-37.926 19.894-41.889 10.779-6.1931-14.241 7.3966-29.37 16.177-64.599-1.9771-43.576 1.0297-84.819 5.4366-125.41-11.733 2.6354-21.477 23.338-41.671 40.496-14.456 12.28-38.173 21.179-53.845 27.553-43.112 17.531-93.271 25.963-148.73 27.536 41.577-30.737 122.93-83.183 124.73-92.211 4.2423-27.401 20.354-42.776 26.061-67.682-5.304 0.83086-10.213-0.33486-14.538-4.4229-60.952 57.482-125.71 111.29-204.78 151.25 41.003-53.154 87.735-101.78 138.38-147.3-26.549-14.339-73.535-17.307-107.69-29.078-3.7497 16.354 10.829 21.866 5.8903 33.166-25.801-13.89-19.929-24.785-36.057-34.558-5.3211 7.752-8.7646 16.287-9.4617 25.962-21.958 4.6811-39.089 19.046-55.216 35.421 18.562-31.12 43.671-58.097 63.981-87.904-36.063-22.119-75.318-39.627-119.73-49.699-23.107 13.065-45.08 28.27-64.553 48.169-69.947 24.942-132.24 52.783-188.2 83.025-16.637 28.579-24.751 44.531-32.077 58.961-4.1074 8.0926-6.984 16.413-13.381 24.501-17.803 22.506-38.641 38.942-63.645 47.029 27.503-15.417 49.787-36.128 67.75-61.227 6.3246-28.784 13.887-57.298 26.557-84.68 34.405-9.8674 67.151-25.249 98.967-43.726 13.145-5.808 26.078-11.152 37.323-15.061 6.3063-2.1909 10.426-2.4297 17.792-5.6971 4.0937-1.8183 9.9097-3.1737 14.603-6.0731 3.6503-2.2571 6.1006-5.9966 9.9337-8.0891 8.4937-4.6366 17.28-7.9223 24.033-10.893 8.8891-11.584 16.141-23.667 22.646-35.981-8.4503 2.8709-16.363 6.752-23.491 12.109-13.089-6.5966-21.801 7.688-44.209-5.4617-14.599-9.8331 7.5029-26.774 13.505-36.982-2.9783-5.896-5.44-6.4389-7.6697-4.5497 0.056-2.4549 0.58057-4.8469 2.1349-7.1086 2.0811 0.50171 4.8514 2.9074 8.6286 8.0914 1.28-7.1783-1.6926-14.106-7.5737-20.862l-0.77714 4.1406-11.2-14.301 44.295-58.472c-51.231 1.6594-102.42 3.6571-138.94-13.494-29.496-13.854-37.51-43.818-60.753-63.426-16.217-13.68-45.275-23.069-68.723-26.283-16.761-2.2971-24.139-11.134-39.919-12.043-36.299-2.0891-71.087 11.285-108.52 18.298-46.8 8.7657-89.603 24.231-145.42 38.816-6.0663 15.238-14.167 29.469-21.25 44.2-0.31657-14.338 3.5909-26.952 7.8331-38.541 15.744-17.69 65.635-30.889 130.02-48.118-7.1417-3.8629-16.866-2.7771-27.765 0.55429l7.4023-6.2663c-15.078 1.5143-32.683 4.1714-52.592 7.8651-3.4766-6.2914-16.064-5.5463-18.761-11.527-2.6971-5.9817 4.4914-18.695 2.5337-24.379-10.739-31.193-10.658-58.081-3.0469-81.969 7.3783-23.154 24.347-37.646 41.577-59.103l-3.8674-14.827c-83.626 60.463-125.19 148.1-111.57 278.82l-15.056 96.183c17.73 10.266 30.165 21.264 45.247 31.896 1.072 15.33 8.0457 29.613 16.984 44.725 7.7394 6.3143 17.505 12.27 29.448 16.735l4.088 9.4583-28.347-10.287c-4.6434 14.077-2.8526 32.655-7.04 48.434-13.419 18.137-26.255 28.374-38.507 30.705l-0.21371 46.851c-9.5326-7.1371-20.871-10.914-31.307-16.371-9.28 18.321-17.406 36.046-30.957 47.85 1.1829 4.5646 1.4137 8.5154-0.45029 11.115 12.105 3.3874 23.707 14.832 36.123 16.555-2.1806-5.2251-5.2389-10.131-6.5451-15.675 7.3211 6.5029 13.702 7.1257 19.008-0.27429 16.73 4.4411 33.131 9.9554 50.186 13.323-22.687 26.455-37.543 22.063-56.315 33.095-11.134 19.414-20.384 39.399-26.282 60.409 4.1063 17.445 27.768-22.295 40.666-23.479 0.084571 28.349 21.142 48.221 58.002 61.705 22.793-15.499 34.498-34.755 42.189-55.371 30.581-1.5554 63.931-1.5657 90.511-5.3771 4.6434 3.9463 12.519 4.9657 15.326 11.091-30.814 6.0983-62.727 10.128-95.198 13.115-2.9989 18.199-11.865 31.744-26.601 40.638 10.209 7.4503 13.666 16.562 24.984 23.571-9.4149 3.152-17.755-2.3611-26.631-3.5406-13.85-1.8411-27.699-3.68-41.549-5.5211-18.373 20.617-17.669 68.936-30.395 102.42-1.5589 4.2823-6.976 2.4377-9.5006-4.6457l-16.992-108.07-28.507 19.384c-51.278-16.249-83.957-58.346-109.07-110.96 5.8549 83.392 23.239 169.01 47.771 256l-12.562-2.2651c-15.273-45.23-31.207-90.466-35.877-135.66l-13.696 12.987c0.94057 67.327-1.272 136.04 2.8217 201.98-11.671 12.943-20.466 29.891-31.177 43.518l-9.7189-10.952-7.1977 8.9177-10.886-1.3806c-1.8663-8.7714-22.787-7.5097-35.047-11.625 14.779-11.439 33.362-5.8857 50.909-8.4674l22.336-38.808c-7.2057 4.0423-13.599 9.8971-21.621 12.127 5.9394-11.995 12.354-36.703 19.979-44.371 2.1337-2.1463 3.872 3.792 7.632-0.23086-13.693-27.825-10.993-42.841-16.491-64.263 6.4583-21.698 5.6171-42.49 8.4251-63.734 3.312-22.662 5.1097-52.456 7.608-81.504 3.6491-42.453 6.9211-82.993 3.1589-94.706l2.9634-37.064c-5.0446-0.288-6.9314-3.2651-5.6617-8.9257 18.91 0.62286 29.989-7.0011 54.704-1.0903l7.0434-46.187-37.875 21.991-10.049-5.3989 11.298-126.74-44.369-5.3257-31.515 205.95c-1.5063 4.952-5.1737 1.6217-4.4846-4.4857l36.971-278.92c-3.0469-7.4994-8.056-4.0629-7.6411-10.119l24.347-160 14.557 2.5737 3.7531-34.999c-1.9543-1.392-4.7109 0.48914-6.5463 3.8263 0.61829-7.7371 1.1257-10.419-1.064-10.977-2.792-0.712-3.1314 3.5989-5.4091 9.5429l-6.5509 12.893c-0.11543-8.4949 1.8971-16.929 4.4754-24.018 6.112-0.85371 8.0777-6.6811 12.838-9.5097l0.66971-25.658-12.753-6.8137 4.3257-15.495 30.787-398.5c2.8286-2.0377-0.45714 26.902 7.3257 24.614 2.8229 0.33943 3.9931-13.119 5.9909-19.679 6.7657 4.2743 11.032-2.8971 12.794-21.519l3.6011 2.2697-3.384 36.112c12.765 8.2217 8.5394-2.1337 11.867-8.4149 1.1086-2.0937 4.5737 0.432 4.4971-1.1257-0.57143-11.454-0.90514-18.134 3.6526-20.597 1.4869-30.64-3.0457-33.822-14.91-30.864l-25.405-4.9954-0.32914-21.994 20.661-208.78c-0.608-14.249-13.079 8.5497-14.659-4.432-0.016-37.264 4.4343-73.169 10.136-108.7 5.7726 8.1143-1.0446 29.126-0.33257 46.254 0.64914 15.623 9.2629 22.342 11.595-1.2251l14.449-146.03c3.1394-37.901-48.833-62.662-60.226-15.646l-25.659 428.38c-2.944 0.93029-7.3806-0.94057-7.4126-3.816 2.776-23.922 7.552-52.576 0.50286-53.203l0.12114-12.866-6.9989-0.87314c-0.89143-9.1417-9.9086-12.771-14.717-13.598-5.4537-0.93943-13.703 1.9326-16.032 9.8l-6.7234 0.8-9.6914 61.439 13.473 1.2274-0.36 4.5531c-8.0263 2.0171-10.389 6.1131-9.4423 7.9806 1.1417 2.2526 7.1749 7.9314 19.374 3.7234 5.2229 0.064 6.9337 1.5051 0.92457 5.9669-14.263-1.1509-19.789 2.4091-20.04 5.1314-0.43657 4.7223 8.264 6.0903 18.04 2.4469 4.4926 0.536 4.52 4.5531 2.5211 10.153-14.431-4.632-25.027 1.5063-25.218 3.2149-0.14743 1.3257 6.144 4.4057 21.066 5.5966 7.5829 1.8869 7.384 3.9131-0.30057 6.3566-6.4709-4.2594-11.72-5.3657-13.389-4.3371-1.8891 1.1657-3.8766 7.4983 3.8354 11.919l-4.0446 25.914c8.0457 5.8834 8.4857 17.234 7.84 29.363l14.813 6.4629c-0.24343-6.4571 3.4537-9.6309 11.094-9.5246 0.84229 3.6446 0.27886 7.6251 2.4023 10.701 0.80571 1.1669 3.6903-0.13486 3.976-1.5257l6.8206-33.305 7.6914-4.1097c-2.8126-16.819 0.011429-34.854 5.1794-37.521l2.5486 37.846-39.014 409.46c-10.328-2.7074-21.167 28.833-10.822 35.541l12.725 3.1474c-8.7463 0.28229-19.592 3.2446-22.858 10.55-3.9783 8.8949-6.3383 17.881-8.9863 31.179l1.7874 2.6309-9.4343 6.312 0.15886-6.1406c-14.261-16.446-18.23-22.425-22.611-21.298-7.4274 1.9097-13.154 14.927-17.352 37.533-2.16-21.48-9.0126-33.799-22.719-32.731 4.5463 17.656 6.4286 35.269 7.3474 52.863-3.104-7.4811-6.4331-13.789-11.35-11.887-5.0217-13.605-13.311-20.855-23.437-24.545-5.2526 59.131-2.784 110.84-15.759 177.39l-50.965 94.346c7.8846 1.5017 8.1017 5.4149 3.528 10.832-2.08 2.464-7.1406 1.5086-8.8366 7.8823 2.7166 2.4469 6.1303 0.026286 8.5406 2.1851l-19.233 13.717-152.94-9.9566c-5.0537 2.3291-1.48 7.9394 12.099 8.448 2.576 6.5463 12.469 8.2834 18.702 12.424-8.2457 3.0503-22.267-2.4971-30.944 4.528 20.131 7.4491 53.529 5.8514 75.773 9.5177 5.6686 0.93486 1.432 3.8229 7.2994 4.528 7.3623 0.88457 18.046-1.5303 25.335-0.67657 26.529 3.104 52.421 5.3577 76.445 10.392l-148.1-7.1931c1.5314 10.175 18.133 9.3006 27.197 13.951-5.1703 0.40686-10.705-0.76914-15.695-0.648-1.8583 0.045714-1.4571 2.6983-3.1166 3.2526-1.6606 0.55314-5.3909-0.98629-6.76 0.37143-6.2651 6.2206-29.653 1.3691-43.73 2.4766-3.5691 10.4 24.816 4.9189 33.913 9.5977 4.1886 7.9943 47.579 10.915 69.605 9.6811 7.9154-0.44343 18.466 1.2617 28.277 2.08 20.089 1.6743 39.474 4.0789 43.535 7.9097-32.519-0.31429-64.971-1.3474-97.229-4.3086-27.585-2.5326-60.997-4.184-82.263-12.582-3.4434-12.634-1.4983-26.725 4.1303-41.809-10.041-3.6594-4.2514-8.6846-10.544-11.837-7.9634-3.9886-19.558-8.0743-35.506-10.898 15.033-0.712 24.925-0.39314 26.277-7.112 0.61486-3.0526-4.8697-5.464-2.7509-11.855l-56.272-2.0731c-11.063 41.805-15.694 84.15-12.56 127.15 6.6583-3.7246 16.607-8.0103 21.642-1.2823l197.17 13.158-123.41 92.623 3.3817 3.3051 39.677-29.185c-11.181 12.918-41.397 33.238-33.545 38.755-11.752 5.0229-17.893 10.35-14.035 16.216 6.6457 0.20686 12.827-2.3303 18.448-8.1714l6.6629 1.8149 19.249-9.968-4.7749 14.25-11.601-1.832-55.023 33.624c18.954 38.723 4.5337 100.51-7.4697 153.91-10.591 47.117-29.109 95.981-56.928 146.89l-20.682 19.248zm1018.4-963.29c-7.0297 3.4789-21.079 5.016-21.089 10.434-4.0903 4.7726-13.102 6.4823-19.651 9.7234 20.869-0.85943 40.65 1.0263 59.035 5.3726 13.607 3.216 35.587 4.696 47.546 10.487 26.307 12.741 35.881 38.991 55.594 57.921 13.264 12.737 14.88 22.642 33.689 30.77 33.53 14.49 82.904 13.729 131.81 12.349-19.999-25.485-43.369-47.777-55.197-74.775-14.277-32.583-18.638-69.951-34.545-101.86-24.048-48.23-67.306-90.966-148.96-127.56 1.4994 2.0754 0.65943 6.3474 2.2994 8.4194 13.363 16.875 32.927 31.456 38.829 48.534 1.6891 10.859-6.9109 10.51-6.5371 16.626 0.62171 10.193 10.935 8.776 15.406 33.625-13.883-5.88-6.536 14.641-9.8034 21.961-4.3749-2.9074-15.835 3.3657-24.661 4.1851-3.64-6.824-8.7474-13.312-10.917-20.473-4.1486 2.8971-7.0457 6.1737-12.442 8.6891l-11.138 3.256-5.1737 5.4629-15.768 6.928-4.7291-13.95c-6.3154 10.915-2.3977 29.243-3.5966 43.865zm-499.59 83.67c-5.144 40.397-16.049 81.777-16.418 121.87l2.9131 0.69029-1.592 11.637 2.8583 0.86971-0.29943 6.7497 10.371 3.7429-5.9177 36.123c4.6389 0.152 8.2651-2.3874 11.027-7.2149 3.1291-5.4709 3.5451-14.373 6.2834-24.657 4.9143-2.3086 5.6949-12.022 6.4926-18.814 0.70286-5.9897 0.26514-12.416-1.5086-19.351 2.6777-14.677 5.752-28.623 8.6766-42.847 0.61029-2.9634 1.9554-6.4834 0.032-8.848-3.848-3.2857-4.6469-0.66286-6.3406 6.0869-0.79543-3.3703-0.059429-9.2057-2.3851-10.11-3.3429-0.56114-2.2994 17.806-6.4983 25.193-2.4914-26.93-0.752-53.541 1.3657-80.122-3.0571-3.7326-2.3554-6.352-3.8583-6.5486-1.5017-0.19657-2.2103 2.4549-5.2023 5.5509zm-23.187 320.37l-0.79657-5.7166-5.5177 5.9451-7.5383 65.145 2.9154 7.7291-0.97029 12.802 6.5486 6.6857 8.168-10.806 5.1211 6.2503 3.2526-11.326-5.2411 0.55543-4.5943-4.1371 4.4274-2.3646-5.9531-4.1589-5.0286-7.1989 2.2857-30.582 2.9211-28.824zm-68.486 246.77l0.74629 12.934 11.606-35.563 5.792 0.2 4.1394-2.0629 23.367 12.977 5.2331 1.3977-3.0011-8.7337-17.683-7.9246-9.1897-8.2697-9.5874-3.1143-0.872 2.8629-3.5863-1.6789-6.9634 36.976zm43.578-0.22286l3.1406-6.472 2.7943 3.0023 1.0537 4.2297-1.1143 4.9383-4.8206-1.4674-1.0537-4.2309zm-55.923-586.07l1.9314-7.624 14.213 19.966-6.7303 25.319 2.0754 7.2777-12.175-0.38286-3.9794-5.512 8.1406-32.513-3.4754-6.5303zm82.951-19.32l5.352-16.941 5.8926 1.7943-4.5063 19.935-8.3177 11.934 1.5794-16.722zm23.781-329.38c6.4-57.349 5.768-117.23 19.203-172.04 0.32914 55.746-6.0731 113.09-19.203 172.04zm-39.213-273.69l3.4754-9.4971-18.861-0.85486-0.57714 5.1029 4.0137 2.1989-0.051429 7.2171 4.6571 2.0046 4.4457-6.2709 2.8971 0.099429zm10.902-14.665c-7.0034 0.99543-11.697-0.88914-15.342-4.0834 4.4823-1.6983 9.5943-0.336 15.342 4.0834zm-21.986 72.869c-3.7257 1.928-7.3703 2.2526-10.832-0.952 3.7691-1.5703 7.36-1.0309 10.832 0.952zm-0.4 32.719c-3.0331 0.77029-5.8194 0.312-8.3623-1.3737 1.8663-1.6469 4.6537-1.1874 8.3623 1.3737zm-1.8834-18.167c-1.2434 1.5131-2.7886 1.8891-4.6354 1.1291 0.51429-2.1234 2.0571-2.4994 4.6354-1.1291zm-2.776 32.191c-3.104-0.488-4.6069-1.5337-4.5097-3.1314 2.7714-0.13486 4.2754 0.90971 4.5097 3.1314zm-50.824 679.08l14.614-106.98-14.879 0.16343-11.864-2.0491c-0.31657 15.151-5.4766 25.698-15.486 31.646l-19.442 75.401-6.632 3.8457-22.067 23.776c-1.1429 38.161-6.0651 74.845-19.305 108.28l-16.547 13.337 69.869 2.504c12.161-13.893 19.678-12.517 22.549 4.1269-0.67657 22.73-4.6446 46.022-2.0286 68.192l19.208-181.03c4.0377-2.1589 5.9303 1.0229 5.6777 9.5474l6.4697-14.842 32.626 5.632 5.5314-5.3531-45.216-12.983-3.0766-23.221zm14.271 504.97l17.894-6.8686 17.45 8.0491 0.13486 9.8149 8.3611 5.8686 1.5554 7.7063 3.8583 0.784 5.3131 11.391 5.3029 1.8103 2.4937 9.7509c-14.602 3.912-21.147 24.144-25.435 48.947l-9.1246-37.966-2.1257-4.5554c-20.791 1.5051-39.399 6.296-54.133 16.947l3.7634 6.2286 3.1897 2.3394-10.451 13.825-3.4091-1.624-12.61 12.582-1.576 12.227-10.127-10.317 2.6526-9.3566 1.4023-5.2423 13.614-5.6297c8.4731 4.8594 12.899-5.1977 1.8069-7.8571l3.5314-9.6766c5.8811-3.2937 4.2046-6.5406-5.0343-9.7417l4.856-17.874 7.1097 5.488 25.882-1.7006 1.6594 4.8057c6.9154-9.3177 16.858-15.382 31.225-16.689 7.456 9.0457 10.952 4.1794 7.2629-4.632 0.23429-5.4674-2.3006-8.2571-4.8011-9.8663l-2.0743-11.774-29.417-7.1954zm368.85-731.61l1.1109-0.44457 22.337-8.6423c-0.98857-12.618 2.7874-22.869 7.248-32.784l18.449 28.487 19.704-7.6857c-1.2823 2.504-1.6697 5.7131-2.1714 8.8366-0.14629 0.90857 3.7314 0.10743-0.49143 2.6891-1.2731 0.77943-0.73029 2.8446-1.3509 4.0594-0.58171 1.1406 5.6914 13.366 1.4663 9.0571-1.5371-1.5669-8.0069-4.056-8.9817-2.1531 5.3783 8.6091 16.202 15.36 16.138 25.829-9.6114 0.592-20.816-10.247-31.224-15.369l-18.456 24.095c-12.015 3.5737-14.674-5.6411-7.9737-27.645-2.1394-1.128-7.9063 2.6011-10.046 1.4743-1.3691-0.72-0.78857-2.968-1.3783-4.7371-0.75429-2.2709-2.6217-4.1406-4.3806-5.0663zm-534.76 494.03c32.952 3.0583 76.277 14.357 98.861 9.1771-3.5371 9.4811 4.536 14.155 24.219 14.019l-3.4663 19.08-7.6743 4.7017 3.5989 6.7634c-0.24114 13.61-7.6686 34.807-0.84571 40.599l-2.2229 16.915 9.2857 2.8274c2.8206 2.1611 1.1189 16.63 3.9383 18.791 2.8206 2.1611 10.167-7.9817 12.989-5.8183l-3.5771 35.466c-0.36343-9.4949-6.2457-16.24-17.646-20.23l-25.059 24.627-11.315 42.298-13.594 8.7634-8.6446 45.065 48.203-22.469 2.4994 0.76114-2.5051 8.2309-24.392 16.032-6.4034 8.216-9.5817-0.57143c-10.349 23.305-29.822 40.704-44.733 61.057l-0.74857 7.5909 24.295 44.537-16.376 38.411 40.519 23.282c-26.735-2.3371-46.753-7.5189-51.984-18.952-6.52-13.193-1.6377-33.079-2.456-49.618l-7.5829-46.879c-6.5817 18.039-16.661 30.528-30.957 36.319l-19.778 39.331-0.021714 12.896c18.729 25.64 33.643 56.115 42.886 92.422-13.897 17.082-24.915 36.31-38.347 53.654-12.822 16.557-28.176 30.905-41.641 46.97-13.464 16.066-25.049 33.851-38.312 50.157-21.475 26.399-33.873 64-56.051 90.006-25.136 29.473-53.613 50.487-84.414 77.269l-9.1509-71.206 14.814-48.661 55.323-62.525c7.4263-8.3611 11.071-18.2 6.4023-31.283-3.9669-10.911-1.9749-21.834-5.0583-32.198-3.9669-13.325-12.704-25.905-15.002-38.191-6.3783-34.078-5.8983-63.89 3.9486-87.871 13.304-50.696 42.464-92.527 58.437-140.02 15.005-44.61 16.638-95.113 35.049-135.62 9.2263-20.298 16.627-44.234 28.821-63.475 12.191-19.238 29.182-33.786 40.635-51.41 16.187-24.906 25.966-47.533 44.818-69.24zm667.72 479.28l-5.9246 13.053 18.375-6.5257 4.6949-33.366-11.174-67.129-13.735-93.321-5.4069 1.0903 8.1269 100.22 8.4377 70.986-6.6514 7.7497 3.2571 7.2469zm-56.883-7.3463l-0.40343 25.68 16.632-12.335-13.361-69.553-3.3017 2.5131 4.8857 22.405-6.3669 0.40686 1.9154 30.883zm121.83-232.29l-3.6937-5.816c11.151 1.6674 21.771 0.21143 31.624-5.816l2.0389 3.5531 4.744 3.008 0.65486 9.3863 8.5463 3.9691 5.8263-3.112 0.018286 7.6297 11.205 40.746c-4.3326 1.4171-5.7497 6.0663-4.248 13.954l-2.7931 8.5337c7.8423 12.543 13.518 29.831 14.407 52.128 0.52 13.049 8.5223 23.598 11.795 36.777l-6.88 26.446-24.91 11.966-10.149-1.9166-2.0526-8.64 5.3269 0.45029c4.784-11.909 7.1223-24.104 16.449-30.961l-17.157-111.57-0.010286-9.5817c-2.864-9.392-6.656-18.725-13.768-27.845-0.25029-13.502-2.3794-19.755-8.6434-10.058l-18.331-3.2354zm13.28-241.68l-40.103 34.318-43.058-39.303-13.707-37.014 4.4914-4.496 15.465 4.3166 58.535-29.487 5.1874-0.37486 29.005-15.802-1.9303 7.6229-84.003 54.184 8.9897 5.0811 7.4811 6.1874 0.67886 8.0263 68.327-43.709-0.17486 6.984-61.977 47.206-1.1383 6.2994-1.4457 3.4697 5.8229 1.3817 8.3714-0.57943 35.184-14.312zm57.691-126.7l-5.9966 28.671 29.65-32.025 60.902-38.542 32.514-17.078 66.565-57.146-107.82 60.618c-8.696 1.5417-21.381 10.523-34.894 21.046l-30.733 26.613-10.193 7.8434zm-39.027-13.445l-2.096 12.655 31-30.05 11.071-19.697 6.952-18.994c8.9829-7.2994 9.776-11.618 2.3829-12.959 3.5634-15.335-7.32 0.11771-10.979 0.176l-3.9109-5.1006c1.2937-8.3063 1.6434-16.733-0.062857-25.431-5.0137 4.0777-8.5909 11.982-10.729 23.709l2.0606 34.251c-4.9406 2.8629-5.1657 7.8777-3.2469 13.869-9.5577 6.1886-15.586 15.089-18.394 26.459l-4.0469 1.1131zm-46.839-264.67c11.53-2.2754 21.32 0.54171 28.017 12.439l14.282 8.8446 13.141 24.135-13.705 25.15-16.741 24.226-12.519 16.128c-13.051-2.2137-24.736-0.36343-35.055 5.5543l1.3326 5.8777c9.4514-7.5497 16.921-9.448 22.413-5.6869 6.1531-2.688 8.8-0.70971 7.9474 5.9383 4.7109-5.8663 11.792-13.744 16.905-13.231l6.7989-8.8754c19.254-5.3474 40.12-7.6629 57.76-16.041l-13.841 31.365-33.443 13.081 1.8766 4.0903 19.021-6.72-18.621 13.097-24.293 6.0937-33.879-1.5177-9.4034-0.51543-1.128 4.3474 4.56 23.478-7.4263-22.394-31.338-29.088-1.0103 2.0377c19.378 21.798 31.32 43.027 32.397 63.424l-3.8034-0.96343-1.4766 2.288 6.5863 10.41 0.93257 27.065-16.506-31.024-2.3851 1.424 5.2149 16.837 5.1554 14.471-7.5349 5.5246-1.2709-3.5143-6.3371 1.5897-2.6149 8.5863-6.528-3.5497-7.5783-0.744-3.5086-14.752-4.7074 0.71771 1.6766 16.931-1.6251 3.4149 4.576 8.04-0.98857 5.1714-7.5943-1.3337-4.5886-13.127 1.6971-7.4971-7.176 1.1383-4.5589-11.944-4.2857-1.304 4.848 23.174c-0.47429 0.069714-0.93486 0.144-1.4137 0.15543l-6.4743-15.261 0.84686 18.047-2.9177 4.7806-4.2297-19.76 5.6469-22.715-5.6194-2.688-23.077-35.077-2.7577 0.72 4.6891 14.72-1.4617 2.8789-4.4857-4.4937-2.6023-9.3931-2.5554-0.58171-5.9863-12.378-2.8126 0.90286 0.61143 3.1189-10.24 22.099c-1.296-0.23657-1.3554-0.048-2.1417-0.65257l-21.095-5.0537-1.2526 4.1154 6.2789 3.0846-14.069-0.568c-4.9817-3.928-7.608-8.1189-5.0549-12.878 0.94857-2.9051 3.1783-4.2457 6.5246-3.4869l2.6731-17.758-14.434-14.753 4.112-7.7417c45.12 9.1714 80.328-48.427 48.527-77.944-8.1063-7.5223-26.165-8.1074-43.103-9.7383l-3.1417-5.0617c19.386-13.256 42.575-13.365 69.56-0.32914 4.5943-5.8994 9.5337-9.7383 14.797-5.6606l3.2034 7.4263c4.3794-27.439 16.181-43.984 44.297-36.558-34.126 7.2526-40.49 39.677-40.433 53.198 0.11886 27.686 44.534 40.752 75.761 38.093 23.998-2.0434 67.89-28.957 62.44-53.469-3.2754-14.733-5.8891-23.12-38.277-41.607zm-20.64 196.63l4.0709-14.01 11.857 27.067-6.392 1.7691-9.536-14.826zm-81.848-57.368l0.704-9.3634 11.6 28.553-3.6 20.798-8.704-39.987zm-19.769-29.279c-0.78971-3.6229 4.7131-6.0286 8.0114-7.7257 15.914-8.1886 37.08 20.61 52.353 38.76 2.6617 3.1623 6.3989 5.28 7.4411 8.3726 1.1417 3.3874-0.808 7.3029-1.6331 11.137-2.28 10.608-6.9051 21.975-15.553 32.502-20.475 1.4549-33.555-3.4389-39.237-14.681 1.888-13.893-7.7806-26.999-8.1291-40.594l-8.1406 4.9509c0.36343-11.879 7.3349-21.491 4.8869-32.721zm-112.7 65.779l7.496-20.785-0.8 42.371 13.199 30.993c-9.5246-2.9006-17.086-7.5474-22.682-13.942l0.368-17.872 2.4697-0.42171-0.050286-20.344zm79.965 55.229l0.95543-13.393 27.911 47.398 2.8731 12.994-29.182-39.379-2.5577-7.6194zm-47.078 22.615l-2.3931 3.376c9.28 13.575 25.559 24.72 47.642 33.855l2.3291-1.2457-1.8663-6.0411-45.712-29.944zm377.33-160.18l-5.1691-3.528c8.4823 28.43-4.6697 70.985-29.951 121.46l50.535-78.838 9.2971 7.912 11.385-2.7897 2.7131 9.0366 3.1234-2.568 10.737-9.6331 2.6811 7.8526 17.257-4.1291 4.0194 4.7417 6.9291-6.0994-10.665-5.984-16.283-13.167-12.735 0.81486-5.4126-12.986-13.619-1.4091-11.785-3.5874-13.057-7.1029zm-63.698-26.624l9.6503-10.55 22.507 20.926 7.9543-3.0514c8.2434 5.1794 13.739 10.825 13.205 17.509l-3.8606 3.7109c-0.74171-6.5463-5.6126-11.485-14.614-14.809l-12.55 3.4126-22.293-17.147zm154.11 65.485l8.2434-7.8514 4.2891 8.344 6.368-0.40914-0.136 6.216-7.6789-2.3383-11.086-3.9611z"/>
</svg>
