<?xml version="1.0" encoding="UTF-8"?>
<!-- Created with Inkscape (http://www.inkscape.org/) -->
<svg width="1122.5" height="793.7" version="1.1" viewBox="0 0 297 210" xml:space="preserve" xmlns="http://www.w3.org/2000/svg"><defs><style type="text/css">.str0 {stroke:#2B2A29;stroke-width:16.7454} .str1 {stroke:black;stroke-width:16.7454} .fil3 {fill:none} .fil2 {fill:black} .fil9 {fill:#191919} .fil4 {fill:#6699FF} .fil8 {fill:#990000} .fil1 {fill:#FFCC99} .fil0 {fill:white} .fil7 {fill:#990000;fill-rule:nonzero} .fil10 {fill:white;fill-rule:nonzero} .fil6 {fill:#CC6633;fill-rule:nonzero;fill-opacity:0.490196} .fil5 {fill:#CC6633;fill-opacity:0.721569}</style><style type="text/css">.str0 {stroke:#2B2A29;stroke-width:16.7454} .str1 {stroke:black;stroke-width:16.7454} .fil3 {fill:none} .fil2 {fill:black} .fil9 {fill:#191919} .fil4 {fill:#6699FF} .fil8 {fill:#990000} .fil1 {fill:#FFCC99} .fil0 {fill:white} .fil7 {fill:#990000;fill-rule:nonzero} .fil10 {fill:white;fill-rule:nonzero} .fil6 {fill:#CC6633;fill-rule:nonzero;fill-opacity:0.490196} .fil5 {fill:#CC6633;fill-opacity:0.721569}</style><style type="text/css">.str0 {stroke:#2B2A29;stroke-width:16.7454} .str1 {stroke:black;stroke-width:16.7454} .fil3 {fill:none} .fil2 {fill:black} .fil9 {fill:#191919} .fil4 {fill:#6699FF} .fil8 {fill:#990000} .fil1 {fill:#FFCC99} .fil0 {fill:white} .fil7 {fill:#990000;fill-rule:nonzero} .fil10 {fill:white;fill-rule:nonzero} .fil6 {fill:#CC6633;fill-rule:nonzero;fill-opacity:0.490196} .fil5 {fill:#CC6633;fill-opacity:0.721569}</style></defs><g><ellipse class="fragment fade-out" cx="88.813" cy="123.64" rx="87.556" ry="86.069" style="fill:#666666;stroke-miterlimit:4.7;stroke-width:.59108;stroke:#000000" data-fragment-index="2"/><ellipse class="fragment" cx="224.99" cy="123.88" rx="87.556" ry="86.069" style="fill:#666666;stroke-miterlimit:4.7;stroke-width:.59108;stroke:#000000" data-fragment-index="4"/><g class="fragment fade-out" transform="translate(-14.963 -63.074)" data-fragment-index="1"><path class="fil9 str0" d="m68.072 183.63h11.163c6.6385 0 12.072 3.5761 12.072 7.9622v20.172c0 4.3861-5.4333 7.9622-12.072 7.9622h-11.163c-6.6385 0-12.052-3.5761-12.052-7.9622v-20.172c0-4.3861 5.4135-7.9622 12.052-7.9622z" fill="#191919" style="clip-rule:evenodd;fill-rule:evenodd;fill:#191919;image-rendering:optimizeQuality;shape-rendering:geometricPrecision;stroke-width:.33084;stroke:#2b2a29"/><ellipse class="fil1 str0" cx="73.249" cy="165.79" rx="17.782" ry="15.095" fill="#fc9" style="clip-rule:evenodd;fill-rule:evenodd;fill:#ffcc99;image-rendering:optimizeQuality;shape-rendering:geometricPrecision;stroke-width:.33084;stroke:#2b2a29"/><ellipse class="fil2 str0" cx="78.366" cy="161.74" rx="1.8769" ry="2.9636" style="clip-rule:evenodd;fill-rule:evenodd;fill:#000000;image-rendering:optimizeQuality;shape-rendering:geometricPrecision;stroke-width:.33084;stroke:#2b2a29"/><ellipse class="fil2 str0" cx="68.31" cy="162.09" rx="1.8769" ry="2.9636" style="clip-rule:evenodd;fill-rule:evenodd;fill:#000000;image-rendering:optimizeQuality;shape-rendering:geometricPrecision;stroke-width:.33084;stroke:#2b2a29"/><rect class="fil2 str0" x="51.14" y="152.41" width="44.217" height="3.2402" style="clip-rule:evenodd;fill-rule:evenodd;fill:#000000;image-rendering:optimizeQuality;shape-rendering:geometricPrecision;stroke-width:.33084;stroke:#2b2a29"/><polygon class="fil2 str0" transform="matrix(.019757 0 0 .019757 50.982 130.48)" points="1673 8 1673 1100 602 1114 602 22" style="clip-rule:evenodd;fill-rule:evenodd;fill:#000000;image-rendering:optimizeQuality;shape-rendering:geometricPrecision;stroke-width:16.745;stroke:#2b2a29"/><path class="fil10 str0" d="m74.098 209.24-6.026-21.891 10.807-0.73102z" fill="#fff" style="clip-rule:evenodd;fill:#ffffff;image-rendering:optimizeQuality;shape-rendering:geometricPrecision;stroke-width:.33084;stroke:#2b2a29"/><path class="fil7 str0" d="m72.221 185.57-11.696 7.2707v-14.541z" fill="#900" style="clip-rule:evenodd;fill:#990000;image-rendering:optimizeQuality;shape-rendering:geometricPrecision;stroke-width:.33084;stroke:#2b2a29"/><path class="fil7 str0" d="m74.256 185.82 11.677 7.2707v-14.561z" fill="#900" style="clip-rule:evenodd;fill:#990000;image-rendering:optimizeQuality;shape-rendering:geometricPrecision;stroke-width:.33084;stroke:#2b2a29"/><rect class="fil3 str0" x="67.361" y="188.37" width="1.3474" height=".53894" fill="none" style="clip-rule:evenodd;fill:none;image-rendering:optimizeQuality;shape-rendering:geometricPrecision;stroke-width:.33084;stroke:#2b2a29"/><ellipse class="fil8 str0" cx="73.19" cy="185.63" rx="4.2676" ry="2.687" fill="#900" style="clip-rule:evenodd;fill-rule:evenodd;fill:#990000;image-rendering:optimizeQuality;shape-rendering:geometricPrecision;stroke-width:.33084;stroke:#2b2a29"/><path class="fil9 str0" d="m73.802 216.76c-1.9955-0.15806-4.07-0.33588-6.184-0.51369-2.1931-0.17782-4.4256-0.35563-6.757-0.55321 0.51369 7.8437 0.90884 14.028 1.225 18.987 0.25684 4.07 0.47418 7.488 0.67175 10.373 1.2645-0.1383 2.4894-0.2766 3.7144-0.4149 1.2052-0.11855 2.3906-0.25685 3.5563-0.37539 0.37539-2.8253 0.82981-6.105 1.3633-9.9775 0.65199-4.6627 1.4225-10.373 2.4104-17.525z" fill="#191919" style="clip-rule:evenodd;fill-rule:evenodd;fill:#191919;image-rendering:optimizeQuality;shape-rendering:geometricPrecision;stroke-width:.33084;stroke:#2b2a29"/><path class="fil9 str0" d="m74.75 216.74c1.9955-0.15806 4.07-0.33587 6.184-0.51369 2.1931-0.17781 4.4256-0.37539 6.757-0.5532-0.51369 7.8437-0.90884 14.008-1.225 18.987-0.25685 4.07-0.47418 7.488-0.67175 10.373-1.2645-0.1383-2.4894-0.2766-3.7144-0.4149-1.2052-0.11854-2.3906-0.25685-3.5563-0.39515-0.37539-2.8055-0.82981-6.0853-1.3633-9.9577-0.65199-4.6627-1.4225-10.373-2.4104-17.525z" fill="#191919" style="clip-rule:evenodd;fill-rule:evenodd;fill:#191919;image-rendering:optimizeQuality;shape-rendering:geometricPrecision;stroke-width:.33084;stroke:#2b2a29"/><ellipse class="fil2 str0" cx="85.637" cy="243.91" rx="5.8087" ry="2.2919" style="clip-rule:evenodd;fill-rule:evenodd;fill:#000000;image-rendering:optimizeQuality;shape-rendering:geometricPrecision;stroke-width:.33084;stroke:#2b2a29"/><ellipse class="fil2 str0" cx="63.153" cy="243.91" rx="5.8087" ry="2.2919" style="clip-rule:evenodd;fill-rule:evenodd;fill:#000000;image-rendering:optimizeQuality;shape-rendering:geometricPrecision;stroke-width:.33084;stroke:#2b2a29"/><path d="m68.31 174.05 10.056-0.35564" style="fill:none;stroke-miterlimit:4.7;stroke-width:.478;stroke:#000000"/></g><g class="fragment" transform="rotate(-84.884 71.267 190.7)" data-fragment-index="1"><path class="fil9 str0" d="m68.072 183.63h11.163c6.6385 0 12.072 3.5761 12.072 7.9622v20.172c0 4.3861-5.4333 7.9622-12.072 7.9622h-11.163c-6.6385 0-12.052-3.5761-12.052-7.9622v-20.172c0-4.3861 5.4135-7.9622 12.052-7.9622z" fill="#191919" style="clip-rule:evenodd;fill-rule:evenodd;fill:#191919;image-rendering:optimizeQuality;shape-rendering:geometricPrecision;stroke-width:.33084;stroke:#2b2a29"/><ellipse class="fil1 str0" cx="73.249" cy="165.79" rx="17.782" ry="15.095" fill="#fc9" style="clip-rule:evenodd;fill-rule:evenodd;fill:#ffcc99;image-rendering:optimizeQuality;shape-rendering:geometricPrecision;stroke-width:.33084;stroke:#2b2a29"/><ellipse class="fil2 str0" cx="78.366" cy="161.74" rx="1.8769" ry="2.9636" style="clip-rule:evenodd;fill-rule:evenodd;fill:#000000;image-rendering:optimizeQuality;shape-rendering:geometricPrecision;stroke-width:.33084;stroke:#2b2a29"/><ellipse class="fil2 str0" cx="68.31" cy="162.09" rx="1.8769" ry="2.9636" style="clip-rule:evenodd;fill-rule:evenodd;fill:#000000;image-rendering:optimizeQuality;shape-rendering:geometricPrecision;stroke-width:.33084;stroke:#2b2a29"/><rect class="fil2 str0" x="51.14" y="152.41" width="44.217" height="3.2402" style="clip-rule:evenodd;fill-rule:evenodd;fill:#000000;image-rendering:optimizeQuality;shape-rendering:geometricPrecision;stroke-width:.33084;stroke:#2b2a29"/><polygon class="fil2 str0" transform="matrix(.019757 0 0 .019757 50.982 130.48)" points="1673 1100 602 1114 602 22 1673 8" style="clip-rule:evenodd;fill-rule:evenodd;fill:#000000;image-rendering:optimizeQuality;shape-rendering:geometricPrecision;stroke-width:16.745;stroke:#2b2a29"/><path class="fil10 str0" d="m74.098 209.24-6.026-21.891 10.807-0.73102z" fill="#fff" style="clip-rule:evenodd;fill:#ffffff;image-rendering:optimizeQuality;shape-rendering:geometricPrecision;stroke-width:.33084;stroke:#2b2a29"/><path class="fil7 str0" d="m72.221 185.57-11.696 7.2707v-14.541z" fill="#900" style="clip-rule:evenodd;fill:#990000;image-rendering:optimizeQuality;shape-rendering:geometricPrecision;stroke-width:.33084;stroke:#2b2a29"/><path class="fil7 str0" d="m74.256 185.82 11.677 7.2707v-14.561z" fill="#900" style="clip-rule:evenodd;fill:#990000;image-rendering:optimizeQuality;shape-rendering:geometricPrecision;stroke-width:.33084;stroke:#2b2a29"/><rect class="fil3 str0" x="67.361" y="188.37" width="1.3474" height=".53894" fill="none" style="clip-rule:evenodd;fill:none;image-rendering:optimizeQuality;shape-rendering:geometricPrecision;stroke-width:.33084;stroke:#2b2a29"/><ellipse class="fil8 str0" cx="73.19" cy="185.63" rx="4.2676" ry="2.687" fill="#900" style="clip-rule:evenodd;fill-rule:evenodd;fill:#990000;image-rendering:optimizeQuality;shape-rendering:geometricPrecision;stroke-width:.33084;stroke:#2b2a29"/><path class="fil9 str0" d="m73.802 216.76c-1.9955-0.15806-4.07-0.33588-6.184-0.51369-2.1931-0.17782-4.4256-0.35563-6.757-0.55321 0.51369 7.8437 0.90884 14.028 1.225 18.987 0.25684 4.07 0.47418 7.488 0.67175 10.373 1.2645-0.1383 2.4894-0.2766 3.7144-0.4149 1.2052-0.11855 2.3906-0.25685 3.5563-0.37539 0.37539-2.8253 0.82981-6.105 1.3633-9.9775 0.65199-4.6627 1.4225-10.373 2.4104-17.525z" fill="#191919" style="clip-rule:evenodd;fill-rule:evenodd;fill:#191919;image-rendering:optimizeQuality;shape-rendering:geometricPrecision;stroke-width:.33084;stroke:#2b2a29"/><path class="fil9 str0" d="m74.75 216.74c1.9955-0.15806 4.07-0.33587 6.184-0.51369 2.1931-0.17781 4.4256-0.37539 6.757-0.5532-0.51369 7.8437-0.90884 14.008-1.225 18.987-0.25685 4.07-0.47418 7.488-0.67175 10.373-1.2645-0.1383-2.4894-0.2766-3.7144-0.4149-1.2052-0.11854-2.3906-0.25685-3.5563-0.39515-0.37539-2.8055-0.82981-6.0853-1.3633-9.9577-0.65199-4.6627-1.4225-10.373-2.4104-17.525z" fill="#191919" style="clip-rule:evenodd;fill-rule:evenodd;fill:#191919;image-rendering:optimizeQuality;shape-rendering:geometricPrecision;stroke-width:.33084;stroke:#2b2a29"/><ellipse class="fil2 str0" cx="85.637" cy="243.91" rx="5.8087" ry="2.2919" style="clip-rule:evenodd;fill-rule:evenodd;fill:#000000;image-rendering:optimizeQuality;shape-rendering:geometricPrecision;stroke-width:.33084;stroke:#2b2a29"/><ellipse class="fil2 str0" cx="63.153" cy="243.91" rx="5.8087" ry="2.2919" style="clip-rule:evenodd;fill-rule:evenodd;fill:#000000;image-rendering:optimizeQuality;shape-rendering:geometricPrecision;stroke-width:.33084;stroke:#2b2a29"/><path d="m68.31 174.05 10.056-0.35564" style="fill:none;stroke-miterlimit:4.7;stroke-width:.478;stroke:#000000"/></g><g class="fragment fade-out" transform="translate(.3001 5.6819)" data-fragment-index="3"><path class="fil0 str0" d="m106.58 79.881c9.863 0 14.845 12.507 17.916 26.173l7.9514 35.202-53.891 1.0981 10.107-36.3c3.7012-13.34 8.0734-26.173 17.916-26.173z" fill="#fff" stroke="#2b2a29" stroke-width="16.745" style="clip-rule:evenodd;fill-rule:evenodd;fill:#ffffff;image-rendering:optimizeQuality;shape-rendering:geometricPrecision;stroke-width:.34054;stroke:#2b2a29"/><ellipse class="fil1 str0" cx="106.05" cy="102.95" rx="16.127" ry="13.686" fill="#fc9" stroke="#2b2a29" stroke-width="16.745" style="clip-rule:evenodd;fill-rule:evenodd;fill:#ffcc99;image-rendering:optimizeQuality;shape-rendering:geometricPrecision;stroke-width:.34054;stroke:#2b2a29"/><ellipse class="fil2 str0" cx="110.69" cy="99.294" rx="1.7082" ry="2.6844" stroke="#2b2a29" stroke-width="16.745" style="clip-rule:evenodd;fill-rule:evenodd;fill:#000000;image-rendering:optimizeQuality;shape-rendering:geometricPrecision;stroke-width:.34054;stroke:#2b2a29"/><ellipse class="fil2 str0" cx="101.58" cy="99.619" rx="1.7082" ry="2.6844" stroke="#2b2a29" stroke-width="16.745" style="clip-rule:evenodd;fill-rule:evenodd;fill:#000000;image-rendering:optimizeQuality;shape-rendering:geometricPrecision;stroke-width:.34054;stroke:#2b2a29"/><ellipse class="fil2 str0" cx="100.87" cy="174.58" rx="5.9788" ry="2.359" stroke="#2b2a29" stroke-width="16.745" style="clip-rule:evenodd;fill-rule:evenodd;fill:#000000;image-rendering:optimizeQuality;shape-rendering:geometricPrecision;stroke-width:.34054;stroke:#2b2a29"/><ellipse class="fil2 str0" cx="113.94" cy="174.96" rx="5.9788" ry="2.359" stroke="#2b2a29" stroke-width="16.745" style="clip-rule:evenodd;fill-rule:evenodd;fill:#000000;image-rendering:optimizeQuality;shape-rendering:geometricPrecision;stroke-width:.34054;stroke:#2b2a29"/><path class="fil0 str1" d="m101.68 118.61h9.3343c5.5314 0 8.1344 6.1822 10.046 11.998l14.174 42.868-55.538-0.42705 11.917-42.441c1.6879-5.9991 4.5349-11.998 10.066-11.998z" fill="#fff" stroke="#000" stroke-width="16.745" style="clip-rule:evenodd;fill-rule:evenodd;fill:#ffffff;image-rendering:optimizeQuality;shape-rendering:geometricPrecision;stroke-width:.34054;stroke:#000000"/><path class="fil1" d="m101.72 118.96h9.3343c6.4262 0 9.0496 8.2564 10.961 14.52-0.12201 0-0.24402 0-0.36605-0.0203-0.0407-1.3218-2.0133-2.786-2.786-3.5385-2.3387-2.8674-6.5889 0.0813-6.6499 3.4571-1.0575 0-2.7047-0.30504-3.6198 0.5084-1.0168 0-1.6472 0.10168-2.5217-0.34571-0.9558-0.9558-2.9691-0.30504-4.1689-0.54908-0.26437-0.14235-0.52874-0.18302-0.83378-0.18302l0.061 0.0407c-0.42706-0.2237-1.0982-0.4474-1.5659-0.4474l0.04066 0.0203c-0.52874-0.26437-1.2202-0.16269-1.7896-0.20336-1.1592-0.7321-4.901 0.0813-5.4907 1.4439-0.83377 0.0813-0.89479 0.79311-1.7286 0.79311 1.7692-6.8533 4.3519-15.496 11.124-15.496zm14.418 13.32c0.0204-0.0203 0.061-0.0407 0.10169-0.061 0.16269 0.0813 0.2847 0.22369 0.44739 0.32537-0.2237 0-0.44739-0.0203-0.67109 0 0.0407-0.0813 0.0813-0.16269 0.12201-0.26437z" fill="#fc9" style="clip-rule:evenodd;fill-rule:evenodd;fill:#ffcc99;image-rendering:optimizeQuality;shape-rendering:geometricPrecision;stroke-width:.020336"/><path class="fil0 str0" d="m106.28 134.11c5.5924-12.641 10.839-12.731 15.74-0.31603" fill="#fff" stroke="#2b2a29" stroke-width="17.642" style="clip-rule:evenodd;fill-rule:evenodd;fill:#ffffff;image-rendering:optimizeQuality;shape-rendering:geometricPrecision;stroke-width:.34054;stroke:#2b2a29"/><path class="fil0 str0" d="m90.694 134.01c5.5924-12.641 10.839-12.731 15.74-0.31603" fill="#fff" stroke="#2b2a29" stroke-width="17.642" style="clip-rule:evenodd;fill-rule:evenodd;fill:#ffffff;image-rendering:optimizeQuality;shape-rendering:geometricPrecision;stroke-width:.34054;stroke:#2b2a29"/><circle class="fil4 str0" cx="106.62" cy="119.3" r="2.1353" style="clip-rule:evenodd;fill-rule:evenodd;fill:#6699ff;image-rendering:optimizeQuality;shape-rendering:geometricPrecision;stroke-width:.34054;stroke:#2b2a29"/><circle class="fil4 str0" cx="111.34" cy="119.53" r="2.1353" style="clip-rule:evenodd;fill-rule:evenodd;fill:#6699ff;image-rendering:optimizeQuality;shape-rendering:geometricPrecision;stroke-width:.34054;stroke:#2b2a29"/><circle class="fil4 str0" cx="101.72" cy="119.08" r="2.1353" style="clip-rule:evenodd;fill-rule:evenodd;fill:#6699ff;image-rendering:optimizeQuality;shape-rendering:geometricPrecision;stroke-width:.34054;stroke:#2b2a29"/><circle class="fil4 str0" cx="97.389" cy="117.98" r="2.1353" style="clip-rule:evenodd;fill-rule:evenodd;fill:#6699ff;image-rendering:optimizeQuality;shape-rendering:geometricPrecision;stroke-width:.34054;stroke:#2b2a29"/><circle class="fil4 str0" cx="115.3" cy="118.21" r="2.1353" style="clip-rule:evenodd;fill-rule:evenodd;fill:#6699ff;image-rendering:optimizeQuality;shape-rendering:geometricPrecision;stroke-width:.34054;stroke:#2b2a29"/><path class="fil5" d="m102.45 92.949c-0.61009 0.18302-1.2202 0.40672-1.8099 0.65076-1.2608 0.54907-2.481 1.2405-3.5792 2.0539-0.87445 0.65076-1.6879 1.4032-2.3386 2.2776-2.0133 2.5827-1.7082 6.2635-3.5792 8.9072-0.14235 0.20336-0.40672 0.54907-0.71176 0.5084-0.2847-0.0407-0.32538-0.42706-0.34572-0.65076-0.12201-2.9691 1.0371-7.1786 2.8674-9.4969 0.81344-1.0981 1.8506-1.9929 2.9691-2.786 1.2812-0.85412 2.6437-1.5659 4.0265-2.2573 0.08132-0.04067 0.18302-0.08134 0.26437-0.12202 1.3218-0.67109 2.6234-1.3829 3.8232-2.237 0.65076-0.42706 3.1521-2.7454 3.1928-0.83378 0.0204 2.4607-0.52873 3.0707-2.9284 3.5385-0.63042 0.12202-1.2405 0.26437-1.8506 0.44739z" fill-opacity=".72157" style="clip-rule:evenodd;fill-opacity:.72157;fill-rule:evenodd;fill:#cc6633;image-rendering:optimizeQuality;shape-rendering:geometricPrecision;stroke-width:.020336"/><path class="fil5" d="m101.58 93.905c-0.2237 0.08134-0.42707 0.18302-0.65076 0.2847-1.1998 0.54907-2.3183 1.2202-3.3555 2.0133-0.75244 0.61008-1.4642 1.3015-2.0336 2.0946-1.7692 2.3793-1.7896 5.9991-2.542 8.7852-0.5084 1.8912-1.2202 3.7622-2.5217 5.2874-0.65075 0.75243-1.4439 1.4032-2.3386 1.8302-0.61008 0.26437-2.8877 1.0168-3.2538-0.0407-0.2237-0.69143 0.97612-1.8099 1.2608-2.3793 0.2847-0.48807 0.48806-1.0168 0.63041-1.5862 0.30504-1.2608 0.32538-2.603 0.32538-3.9045-0.04066-3.8435-0.42706-7.8294 1.1592-11.449 0.7321-1.8913 2.0336-3.5792 3.4775-4.9823 1.5659-1.5252 3.3758-2.786 5.3281-3.7418 0.36606-0.18302 0.73211-0.34571 1.1185-0.5084 1.6879-0.69143 3.4978-1.1592 5.3484-1.2405 4.3519-0.14235 6.7922 1.0371 5.023 4.7383-1.0982 2.3793-1.5049 3.2538-4.2096 3.9045-0.93546 0.24403-1.8506 0.52874-2.7657 0.89479z" fill-opacity=".72157" style="clip-rule:evenodd;fill-opacity:.72157;fill-rule:evenodd;fill:#cc6633;image-rendering:optimizeQuality;shape-rendering:geometricPrecision;stroke-width:.020336"/><path class="fil6" d="m99.361 92.461c-1.1592 0.61008-2.298 1.2812-3.3758 2.0336-1.0575 0.77277-2.0946 1.6472-2.8674 2.7047-1.8709 2.3793-2.3387 5.6738-2.9487 8.5412-0.06103 0.30504-0.10168 0.63042-0.14235 0.93546-0.06103 0.36605-0.24403 4.6773-0.93546 4.3519-0.85412-0.46773-0.18303-3.7622-0.16269-4.4943 0.08132-3.5792-0.24404-7.382 1.1592-10.778 0.63042-1.6879 1.7286-3.1724 2.9487-4.4943 1.3625-1.4845 2.9487-2.786 4.6163-3.9249 0.65075-0.44739 1.3422-0.85412 2.0336-1.2608 1.1795-0.67109 2.5013-1.1592 3.8842-1.2812 2.5623-0.20336 6.3855 1.4032 4.5553 4.4739-0.14235 0.26437-0.97613 1.6879-0.97613 1.6472-0.16269-1.6676 0.54907-3.5181-1.8709-1.9929-0.44739 0.2847-0.79311 0.71176-1.2202 1.0371-1.1998 0.97613-2.7454 1.5049-4.1079 2.1963-0.20337 0.10168-0.40672 0.20336-0.58974 0.30504z" fill-opacity=".4902" style="clip-rule:evenodd;fill-opacity:.4902;fill:#cc6633;image-rendering:optimizeQuality;shape-rendering:geometricPrecision;stroke-width:.020336"/><path class="fil3" d="m108.57 89.451c-5.5517-2.7657-14.439 2.2166-16.655 7.2193-2.786 5.5517 0.54908 15.272-6.9549 17.774" fill="none" style="clip-rule:evenodd;fill:none;image-rendering:optimizeQuality;shape-rendering:geometricPrecision;stroke-width:.020336"/><path class="fil5" d="m114.67 86.136c0.69143 0.32538 1.3625 0.7321 1.9929 1.1795 2.5827 1.8913 4.535 4.6976 5.1654 7.8701 0.58975 2.4403 0.36605 5.5517-0.0407 8.0327-0.061 0.36605-0.14235 0.9558-0.5084 1.1185-0.40671 0.18302-0.67109-0.36605-0.7931-0.67109-0.9558-2.5013-0.14235-5.3891-0.48807-7.9921-0.30504-2.786-1.8709-5.4907-4.2502-7.0159-0.0407-0.04067-0.0813-0.06101-0.12202-0.08134-1.2405-0.75244-2.7454-1.1185-4.1689-0.75244-0.97612 0.26437-2.5623 2.237-2.8674 0.7321-0.63042-2.9284 0.0204-4.0265 3.5792-3.2944 0.85411 0.18302 1.7082 0.48806 2.5013 0.87445z" fill-opacity=".72157" style="clip-rule:evenodd;fill-opacity:.72157;fill-rule:evenodd;fill:#cc6633;image-rendering:optimizeQuality;shape-rendering:geometricPrecision;stroke-width:.020336"/><path class="fil5" d="m116.32 86.34c0.24404 0.14235 0.46774 0.30504 0.69143 0.44739 2.786 1.9319 4.8807 4.8197 5.6738 8.1344 0.69143 2.481 0.42706 5.206 0.69143 7.7277 0.10169 0.87445 0.2237 1.7896 0.56941 2.603 0.18303 0.40672 0.42706 0.77277 0.75244 1.0575 0.48807 0.5084 1.8506 1.0168 1.9523 1.7692 0.12202 1.1185-2.0946 1.4439-2.786 1.4439-0.97614-0.0203-1.9116-0.30504-2.7454-0.79311-1.5862-0.91512-2.7047-2.4403-3.4978-4.0469-1.0168-2.0743-1.1795-5.2874-2.6234-7.077-0.71177-1.4235-1.6676-2.5217-3.0098-3.3961-0.10167-0.08134-0.20335-0.14235-0.30504-0.20336-0.54907-0.32538-1.1185-0.61008-1.6879-0.85412-2.2573-1.0168-2.176-1.9929-2.3793-4.2502-0.34571-3.4368 0.48807-4.901 4.6976-4.1486 1.4235 0.28471 2.7657 0.83378 4.0062 1.5862z" fill-opacity=".72157" style="clip-rule:evenodd;fill-opacity:.72157;fill-rule:evenodd;fill:#cc6633;image-rendering:optimizeQuality;shape-rendering:geometricPrecision;stroke-width:.020336"/><path class="fil6" d="m116.44 89.146c2.054 1.5862 3.4165 3.9859 3.7215 6.5686 0.36605 2.542-0.2237 5.1247 0.26437 7.6667 0.0203 0.10168 0.0407 0.20336 0.061 0.28471 0.14235 0.56941 2.298 2.9894 2.2166 3.0911-1.0575 1.2405-3.0504-2.115-3.3148-2.6844-1.0778-2.2776-1.1592-5.084-2.481-7.2193-0.81344-1.7489-2.2776-3.1928-4.1689-3.7622-0.32538-0.08134-0.67109-0.16269-1.0168-0.18302-0.52873-0.02034-1.0981-0.06101-1.6269-0.18302-1.6676-0.44739-2.3183-2.603-2.2573-4.1486 0-0.26437 0.12202-2.0539 0.2237-1.9116 0.95579 1.4845-0.061 3.1114 2.054 1.7692 0.46772-0.2847 0.85411-0.63042 1.3828-0.79311 1.4439-0.40672 3.0504 0.26437 4.2502 1.0168 0.24403 0.16269 0.46773 0.32538 0.69142 0.48807z" fill-opacity=".4902" style="clip-rule:evenodd;fill-opacity:.4902;fill:#cc6633;image-rendering:optimizeQuality;shape-rendering:geometricPrecision;stroke-width:.020336"/><path class="fil3" d="m107.46 88.617c5.0027-0.54907 10.005 3.0504 11.388 7.504 1.4032 3.5995 0.83378 12.486 7.7887 11.653" fill="none" style="clip-rule:evenodd;fill:none;image-rendering:optimizeQuality;shape-rendering:geometricPrecision;stroke-width:.020336"/><path class="fil7 str0" d="m106.28 83.696-7.7074 4.8197v-9.619z" fill="#900" style="clip-rule:evenodd;fill:#990000;image-rendering:optimizeQuality;shape-rendering:geometricPrecision;stroke-width:.34054;stroke:#2b2a29"/><path class="fil7 str0" d="m107.62 83.879 7.7074 4.7993v-9.619z" fill="#900" style="clip-rule:evenodd;fill:#990000;image-rendering:optimizeQuality;shape-rendering:geometricPrecision;stroke-width:.34054;stroke:#2b2a29"/><rect class="fil3 str0" x="103.06" y="85.567" width=".8893" height=".35568" fill="none" style="clip-rule:evenodd;fill:none;image-rendering:optimizeQuality;shape-rendering:geometricPrecision;stroke-width:.34054;stroke:#2b2a29"/><ellipse class="fil8 str0" cx="106.91" cy="83.736" rx="2.8267" ry="1.7692" fill="#900" style="clip-rule:evenodd;fill-rule:evenodd;fill:#990000;image-rendering:optimizeQuality;shape-rendering:geometricPrecision;stroke-width:.34054;stroke:#2b2a29"/><path d="m102.43 108 10.056-0.35564" style="fill:none;stroke-miterlimit:4.7;stroke-width:.478;stroke:#000000"/></g><g class="fragment" transform="translate(110.7 7.9839)" data-fragment-index="3"><path class="fil0 str0" d="m106.58 79.881c9.863 0 14.845 12.507 17.916 26.173l7.9514 35.202-53.891 1.0981 10.107-36.3c3.7012-13.34 8.0734-26.173 17.916-26.173z" fill="#fff" stroke="#2b2a29" stroke-width="16.745" style="clip-rule:evenodd;fill-rule:evenodd;fill:#ffffff;image-rendering:optimizeQuality;shape-rendering:geometricPrecision;stroke-width:.34054;stroke:#2b2a29"/><ellipse class="fil1 str0" cx="106.05" cy="102.95" rx="16.127" ry="13.686" fill="#fc9" stroke="#2b2a29" stroke-width="16.745" style="clip-rule:evenodd;fill-rule:evenodd;fill:#ffcc99;image-rendering:optimizeQuality;shape-rendering:geometricPrecision;stroke-width:.34054;stroke:#2b2a29"/><ellipse class="fil2 str0" cx="110.69" cy="99.294" rx="1.7082" ry="2.6844" stroke="#2b2a29" stroke-width="16.745" style="clip-rule:evenodd;fill-rule:evenodd;fill:#000000;image-rendering:optimizeQuality;shape-rendering:geometricPrecision;stroke-width:.34054;stroke:#2b2a29"/><ellipse class="fil2 str0" cx="101.58" cy="99.619" rx="1.7082" ry="2.6844" stroke="#2b2a29" stroke-width="16.745" style="clip-rule:evenodd;fill-rule:evenodd;fill:#000000;image-rendering:optimizeQuality;shape-rendering:geometricPrecision;stroke-width:.34054;stroke:#2b2a29"/><ellipse class="fil2 str0" cx="100.87" cy="174.58" rx="5.9788" ry="2.359" stroke="#2b2a29" stroke-width="16.745" style="clip-rule:evenodd;fill-rule:evenodd;fill:#000000;image-rendering:optimizeQuality;shape-rendering:geometricPrecision;stroke-width:.34054;stroke:#2b2a29"/><ellipse class="fil2 str0" cx="113.94" cy="174.96" rx="5.9788" ry="2.359" stroke="#2b2a29" stroke-width="16.745" style="clip-rule:evenodd;fill-rule:evenodd;fill:#000000;image-rendering:optimizeQuality;shape-rendering:geometricPrecision;stroke-width:.34054;stroke:#2b2a29"/><path class="fil0 str1" d="m101.68 118.61h9.3343c5.5314 0 8.1344 6.1822 10.046 11.998l14.174 42.868-55.538-0.42705 11.917-42.441c1.6879-5.9991 4.5349-11.998 10.066-11.998z" fill="#fff" stroke="#000" stroke-width="16.745" style="clip-rule:evenodd;fill-rule:evenodd;fill:#ffffff;image-rendering:optimizeQuality;shape-rendering:geometricPrecision;stroke-width:.34054;stroke:#000000"/><path class="fil1" d="m101.72 118.96h9.3343c6.4262 0 9.0496 8.2564 10.961 14.52-0.12201 0-0.24402 0-0.36605-0.0203-0.0407-1.3218-2.0133-2.786-2.786-3.5385-2.3387-2.8674-6.5889 0.0813-6.6499 3.4571-1.0575 0-2.7047-0.30504-3.6198 0.5084-1.0168 0-1.6472 0.10168-2.5217-0.34571-0.9558-0.9558-2.9691-0.30504-4.1689-0.54908-0.26437-0.14235-0.52874-0.18302-0.83378-0.18302l0.061 0.0407c-0.42706-0.2237-1.0982-0.4474-1.5659-0.4474l0.04066 0.0203c-0.52874-0.26437-1.2202-0.16269-1.7896-0.20336-1.1592-0.7321-4.901 0.0813-5.4907 1.4439-0.83377 0.0813-0.89479 0.79311-1.7286 0.79311 1.7692-6.8533 4.3519-15.496 11.124-15.496zm14.418 13.32c0.0204-0.0203 0.061-0.0407 0.10169-0.061 0.16269 0.0813 0.2847 0.22369 0.44739 0.32537-0.2237 0-0.44739-0.0203-0.67109 0 0.0407-0.0813 0.0813-0.16269 0.12201-0.26437z" fill="#fc9" style="clip-rule:evenodd;fill-rule:evenodd;fill:#ffcc99;image-rendering:optimizeQuality;shape-rendering:geometricPrecision;stroke-width:.020336"/><path class="fil0 str0" d="m106.28 134.11c5.5924-12.641 10.839-12.731 15.74-0.31603" fill="#fff" stroke="#2b2a29" stroke-width="17.642" style="clip-rule:evenodd;fill-rule:evenodd;fill:#ffffff;image-rendering:optimizeQuality;shape-rendering:geometricPrecision;stroke-width:.34054;stroke:#2b2a29"/><path class="fil0 str0" d="m90.694 134.01c5.5924-12.641 10.839-12.731 15.74-0.31603" fill="#fff" stroke="#2b2a29" stroke-width="17.642" style="clip-rule:evenodd;fill-rule:evenodd;fill:#ffffff;image-rendering:optimizeQuality;shape-rendering:geometricPrecision;stroke-width:.34054;stroke:#2b2a29"/><circle class="fil4 str0" cx="106.62" cy="119.3" r="2.1353" style="clip-rule:evenodd;fill-rule:evenodd;fill:#6699ff;image-rendering:optimizeQuality;shape-rendering:geometricPrecision;stroke-width:.34054;stroke:#2b2a29"/><circle class="fil4 str0" cx="111.34" cy="119.53" r="2.1353" style="clip-rule:evenodd;fill-rule:evenodd;fill:#6699ff;image-rendering:optimizeQuality;shape-rendering:geometricPrecision;stroke-width:.34054;stroke:#2b2a29"/><circle class="fil4 str0" cx="101.72" cy="119.08" r="2.1353" style="clip-rule:evenodd;fill-rule:evenodd;fill:#6699ff;image-rendering:optimizeQuality;shape-rendering:geometricPrecision;stroke-width:.34054;stroke:#2b2a29"/><circle class="fil4 str0" cx="97.389" cy="117.98" r="2.1353" style="clip-rule:evenodd;fill-rule:evenodd;fill:#6699ff;image-rendering:optimizeQuality;shape-rendering:geometricPrecision;stroke-width:.34054;stroke:#2b2a29"/><circle class="fil4 str0" cx="115.3" cy="118.21" r="2.1353" style="clip-rule:evenodd;fill-rule:evenodd;fill:#6699ff;image-rendering:optimizeQuality;shape-rendering:geometricPrecision;stroke-width:.34054;stroke:#2b2a29"/><path class="fil5" d="m102.45 92.949c-0.61009 0.18302-1.2202 0.40672-1.8099 0.65076-1.2608 0.54907-2.481 1.2405-3.5792 2.0539-0.87445 0.65076-1.6879 1.4032-2.3386 2.2776-2.0133 2.5827-1.7082 6.2635-3.5792 8.9072-0.14235 0.20336-0.40672 0.54907-0.71176 0.5084-0.2847-0.0407-0.32538-0.42706-0.34572-0.65076-0.12201-2.9691 1.0371-7.1786 2.8674-9.4969 0.81344-1.0981 1.8506-1.9929 2.9691-2.786 1.2812-0.85412 2.6437-1.5659 4.0265-2.2573 0.08132-0.04067 0.18302-0.08134 0.26437-0.12202 1.3218-0.67109 2.6234-1.3829 3.8232-2.237 0.65076-0.42706 3.1521-2.7454 3.1928-0.83378 0.0204 2.4607-0.52873 3.0707-2.9284 3.5385-0.63042 0.12202-1.2405 0.26437-1.8506 0.44739z" fill-opacity=".72157" style="clip-rule:evenodd;fill-opacity:.72157;fill-rule:evenodd;fill:#cc6633;image-rendering:optimizeQuality;shape-rendering:geometricPrecision;stroke-width:.020336"/><path class="fil5" d="m101.58 93.905c-0.2237 0.08134-0.42707 0.18302-0.65076 0.2847-1.1998 0.54907-2.3183 1.2202-3.3555 2.0133-0.75244 0.61008-1.4642 1.3015-2.0336 2.0946-1.7692 2.3793-1.7896 5.9991-2.542 8.7852-0.5084 1.8912-1.2202 3.7622-2.5217 5.2874-0.65075 0.75243-1.4439 1.4032-2.3386 1.8302-0.61008 0.26437-2.8877 1.0168-3.2538-0.0407-0.2237-0.69143 0.97612-1.8099 1.2608-2.3793 0.2847-0.48807 0.48806-1.0168 0.63041-1.5862 0.30504-1.2608 0.32538-2.603 0.32538-3.9045-0.04066-3.8435-0.42706-7.8294 1.1592-11.449 0.7321-1.8913 2.0336-3.5792 3.4775-4.9823 1.5659-1.5252 3.3758-2.786 5.3281-3.7418 0.36606-0.18302 0.73211-0.34571 1.1185-0.5084 1.6879-0.69143 3.4978-1.1592 5.3484-1.2405 4.3519-0.14235 6.7922 1.0371 5.023 4.7383-1.0982 2.3793-1.5049 3.2538-4.2096 3.9045-0.93546 0.24403-1.8506 0.52874-2.7657 0.89479z" fill-opacity=".72157" style="clip-rule:evenodd;fill-opacity:.72157;fill-rule:evenodd;fill:#cc6633;image-rendering:optimizeQuality;shape-rendering:geometricPrecision;stroke-width:.020336"/><path class="fil6" d="m99.361 92.461c-1.1592 0.61008-2.298 1.2812-3.3758 2.0336-1.0575 0.77277-2.0946 1.6472-2.8674 2.7047-1.8709 2.3793-2.3387 5.6738-2.9487 8.5412-0.06103 0.30504-0.10168 0.63042-0.14235 0.93546-0.06103 0.36605-0.24403 4.6773-0.93546 4.3519-0.85412-0.46773-0.18303-3.7622-0.16269-4.4943 0.08132-3.5792-0.24404-7.382 1.1592-10.778 0.63042-1.6879 1.7286-3.1724 2.9487-4.4943 1.3625-1.4845 2.9487-2.786 4.6163-3.9249 0.65075-0.44739 1.3422-0.85412 2.0336-1.2608 1.1795-0.67109 2.5013-1.1592 3.8842-1.2812 2.5623-0.20336 6.3855 1.4032 4.5553 4.4739-0.14235 0.26437-0.97613 1.6879-0.97613 1.6472-0.16269-1.6676 0.54907-3.5181-1.8709-1.9929-0.44739 0.2847-0.79311 0.71176-1.2202 1.0371-1.1998 0.97613-2.7454 1.5049-4.1079 2.1963-0.20337 0.10168-0.40672 0.20336-0.58974 0.30504z" fill-opacity=".4902" style="clip-rule:evenodd;fill-opacity:.4902;fill:#cc6633;image-rendering:optimizeQuality;shape-rendering:geometricPrecision;stroke-width:.020336"/><path class="fil3" d="m108.57 89.451c-5.5517-2.7657-14.439 2.2166-16.655 7.2193-2.786 5.5517 0.54908 15.272-6.9549 17.774" fill="none" style="clip-rule:evenodd;fill:none;image-rendering:optimizeQuality;shape-rendering:geometricPrecision;stroke-width:.020336"/><path class="fil5" d="m114.67 86.136c0.69143 0.32538 1.3625 0.7321 1.9929 1.1795 2.5827 1.8913 4.535 4.6976 5.1654 7.8701 0.58975 2.4403 0.36605 5.5517-0.0407 8.0327-0.061 0.36605-0.14235 0.9558-0.5084 1.1185-0.40671 0.18302-0.67109-0.36605-0.7931-0.67109-0.9558-2.5013-0.14235-5.3891-0.48807-7.9921-0.30504-2.786-1.8709-5.4907-4.2502-7.0159-0.0407-0.04067-0.0813-0.06101-0.12202-0.08134-1.2405-0.75244-2.7454-1.1185-4.1689-0.75244-0.97612 0.26437-2.5623 2.237-2.8674 0.7321-0.63042-2.9284 0.0204-4.0265 3.5792-3.2944 0.85411 0.18302 1.7082 0.48806 2.5013 0.87445z" fill-opacity=".72157" style="clip-rule:evenodd;fill-opacity:.72157;fill-rule:evenodd;fill:#cc6633;image-rendering:optimizeQuality;shape-rendering:geometricPrecision;stroke-width:.020336"/><path class="fil5" d="m116.32 86.34c0.24404 0.14235 0.46774 0.30504 0.69143 0.44739 2.786 1.9319 4.8807 4.8197 5.6738 8.1344 0.69143 2.481 0.42706 5.206 0.69143 7.7277 0.10169 0.87445 0.2237 1.7896 0.56941 2.603 0.18303 0.40672 0.42706 0.77277 0.75244 1.0575 0.48807 0.5084 1.8506 1.0168 1.9523 1.7692 0.12202 1.1185-2.0946 1.4439-2.786 1.4439-0.97614-0.0203-1.9116-0.30504-2.7454-0.79311-1.5862-0.91512-2.7047-2.4403-3.4978-4.0469-1.0168-2.0743-1.1795-5.2874-2.6234-7.077-0.71177-1.4235-1.6676-2.5217-3.0098-3.3961-0.10167-0.08134-0.20335-0.14235-0.30504-0.20336-0.54907-0.32538-1.1185-0.61008-1.6879-0.85412-2.2573-1.0168-2.176-1.9929-2.3793-4.2502-0.34571-3.4368 0.48807-4.901 4.6976-4.1486 1.4235 0.28471 2.7657 0.83378 4.0062 1.5862z" fill-opacity=".72157" style="clip-rule:evenodd;fill-opacity:.72157;fill-rule:evenodd;fill:#cc6633;image-rendering:optimizeQuality;shape-rendering:geometricPrecision;stroke-width:.020336"/><path class="fil6" d="m116.44 89.146c2.054 1.5862 3.4165 3.9859 3.7215 6.5686 0.36605 2.542-0.2237 5.1247 0.26437 7.6667 0.0203 0.10168 0.0407 0.20336 0.061 0.28471 0.14235 0.56941 2.298 2.9894 2.2166 3.0911-1.0575 1.2405-3.0504-2.115-3.3148-2.6844-1.0778-2.2776-1.1592-5.084-2.481-7.2193-0.81344-1.7489-2.2776-3.1928-4.1689-3.7622-0.32538-0.08134-0.67109-0.16269-1.0168-0.18302-0.52873-0.02034-1.0981-0.06101-1.6269-0.18302-1.6676-0.44739-2.3183-2.603-2.2573-4.1486 0-0.26437 0.12202-2.0539 0.2237-1.9116 0.95579 1.4845-0.061 3.1114 2.054 1.7692 0.46772-0.2847 0.85411-0.63042 1.3828-0.79311 1.4439-0.40672 3.0504 0.26437 4.2502 1.0168 0.24403 0.16269 0.46773 0.32538 0.69142 0.48807z" fill-opacity=".4902" style="clip-rule:evenodd;fill-opacity:.4902;fill:#cc6633;image-rendering:optimizeQuality;shape-rendering:geometricPrecision;stroke-width:.020336"/><path class="fil3" d="m107.46 88.617c5.0027-0.54907 10.005 3.0504 11.388 7.504 1.4032 3.5995 0.83378 12.486 7.7887 11.653" fill="none" style="clip-rule:evenodd;fill:none;image-rendering:optimizeQuality;shape-rendering:geometricPrecision;stroke-width:.020336"/><path class="fil7 str0" d="m106.28 83.696-7.7074 4.8197v-9.619z" fill="#900" style="clip-rule:evenodd;fill:#990000;image-rendering:optimizeQuality;shape-rendering:geometricPrecision;stroke-width:.34054;stroke:#2b2a29"/><path class="fil7 str0" d="m107.62 83.879 7.7074 4.7993v-9.619z" fill="#900" style="clip-rule:evenodd;fill:#990000;image-rendering:optimizeQuality;shape-rendering:geometricPrecision;stroke-width:.34054;stroke:#2b2a29"/><rect class="fil3 str0" x="103.06" y="85.567" width=".8893" height=".35568" fill="none" style="clip-rule:evenodd;fill:none;image-rendering:optimizeQuality;shape-rendering:geometricPrecision;stroke-width:.34054;stroke:#2b2a29"/><ellipse class="fil8 str0" cx="106.91" cy="83.736" rx="2.8267" ry="1.7692" fill="#900" style="clip-rule:evenodd;fill-rule:evenodd;fill:#990000;image-rendering:optimizeQuality;shape-rendering:geometricPrecision;stroke-width:.34054;stroke:#2b2a29"/><path d="m102.43 108 10.056-0.35564" style="fill:none;stroke-miterlimit:4.7;stroke-width:.478;stroke:#000000"/></g></g><g><text transform="scale(.26458)" style="fill:#666666;font-family:Cochin;font-size:36.379px;line-height:0.8;shape-inside:url(#rect1274);stroke-miterlimit:4.7;stroke-width:1.8066;stroke:#000000;text-align:center;white-space:pre" xml:space="preserve"/><g transform="matrix(1.1827 0 0 1.1827 -36.251 -.39411)"><path class="fil9 str0" d="m245.58 102.91h9.753c5.8 0 10.547 3.1244 10.547 6.9566v17.625c0 3.8322-4.7471 6.9566-10.547 6.9566h-9.753c-5.8 0-10.53-3.1244-10.53-6.9566v-17.625c0-3.8322 4.7298-6.9566 10.53-6.9566z" fill="#191919" style="clip-rule:evenodd;fill-rule:evenodd;fill:#ff7f2a;image-rendering:optimizeQuality;shape-rendering:geometricPrecision;stroke-width:.28906;stroke:#2b2a29"/><g transform="translate(0 2.1167)"><ellipse class="fil1 str0" cx="250.1" cy="87.325" rx="15.536" ry="13.188" fill="#fc9" style="clip-rule:evenodd;fill-rule:evenodd;fill:#ffcc99;image-rendering:optimizeQuality;shape-rendering:geometricPrecision;stroke-width:.28906;stroke:#2b2a29"/><ellipse class="fil2 str0" cx="254.58" cy="83.786" rx="1.6399" ry="2.5893" style="clip-rule:evenodd;fill-rule:evenodd;fill:#000000;image-rendering:optimizeQuality;shape-rendering:geometricPrecision;stroke-width:.28906;stroke:#2b2a29"/><ellipse class="fil2 str0" cx="245.79" cy="84.097" rx="1.6399" ry="2.5893" style="clip-rule:evenodd;fill-rule:evenodd;fill:#000000;image-rendering:optimizeQuality;shape-rendering:geometricPrecision;stroke-width:.28906;stroke:#2b2a29"/><path class="fil3 str0" d="m239.75 86.842c7.8542 11.79 15.07 11.945 21.664 0.48333" fill="none" style="clip-rule:evenodd;fill:none;image-rendering:optimizeQuality;shape-rendering:geometricPrecision;stroke-width:.28906;stroke:#2b2a29"/></g><path class="fil10 str0" d="m250.85 125.28-5.2649-19.126 9.4423-0.6387z" fill="#fff" style="clip-rule:evenodd;fill:#ffffff;image-rendering:optimizeQuality;shape-rendering:geometricPrecision;stroke-width:.28906;stroke:#2b2a29"/><path class="fil9 str0" d="m250.59 131.86c-1.7435-0.13809-3.556-0.29345-5.403-0.44881-1.9161-0.15536-3.8667-0.31072-5.9036-0.48334 0.44883 6.853 0.79405 12.256 1.0702 16.589 0.22441 3.556 0.4143 6.5423 0.58692 9.0626 1.1048-0.12084 2.175-0.24167 3.2452-0.36251 1.053-0.10357 2.0887-0.22441 3.1072-0.32798 0.32799-2.4685 0.72502-5.334 1.1911-8.7173 0.56965-4.0738 1.2429-9.0626 2.106-15.311z" fill="#191919" style="clip-rule:evenodd;fill-rule:evenodd;fill:#d45500;image-rendering:optimizeQuality;shape-rendering:geometricPrecision;stroke-width:.28906;stroke:#2b2a29"/><path class="fil9 str0" d="m251.42 131.84c1.7435-0.13809 3.556-0.29345 5.403-0.44881 1.9161-0.15536 3.8667-0.32798 5.9036-0.48334-0.44882 6.853-0.79404 12.239-1.0702 16.589-0.2244 3.556-0.41428 6.5423-0.58691 9.0626-1.1048-0.12084-2.175-0.24168-3.2452-0.36251-1.053-0.10357-2.0887-0.22441-3.1072-0.34524-0.32798-2.4512-0.72501-5.3167-1.1911-8.7001-0.56965-4.0738-1.2429-9.0626-2.106-15.311z" fill="#191919" style="clip-rule:evenodd;fill-rule:evenodd;fill:#d45500;image-rendering:optimizeQuality;shape-rendering:geometricPrecision;stroke-width:.28906;stroke:#2b2a29"/><ellipse class="fil2 str0" cx="260.93" cy="155.58" rx="5.075" ry="2.0024" style="clip-rule:evenodd;fill-rule:evenodd;fill:#000000;image-rendering:optimizeQuality;shape-rendering:geometricPrecision;stroke-width:.28906;stroke:#2b2a29"/><ellipse class="fil2 str0" cx="241.28" cy="155.58" rx="5.075" ry="2.0024" style="clip-rule:evenodd;fill-rule:evenodd;fill:#000000;image-rendering:optimizeQuality;shape-rendering:geometricPrecision;stroke-width:.28906;stroke:#2b2a29"/><path d="m261.95 69.44c0.38504-0.12453 0.76865-0.30489 1.0414-0.61284 0.0286 0.24191 0.0164 0.49219-0.0685 0.72224-0.12719 0.3515-0.35273 0.65598-0.58196 0.94696 0.16441-0.0364 0.3327-0.0579 0.49383-0.10879 0.5476-0.16113 1.0944-0.32451 1.642-0.48524 0.21961 0.38832 0.26869 0.84329 0.29793 1.2807 0.0217 0.48299 3e-3 0.9672-0.0423 1.4484-0.0487 0.50405-0.11206 1.0091-0.24804 1.4978-0.18608 0.70301-0.52204 1.3567-0.68665 2.0661 0.51938 0.41613 0.93039 0.95351 1.2588 1.5291 0.41919 0.73757 0.70997 1.542 0.92222 2.3616 0.23741 0.92651 0.37298 1.8776 0.43105 2.8317 0.0603 0.99542 0.0335 1.9962-0.0804 2.9869-0.0924 0.79258-0.24109 1.5798-0.46765 2.3452-0.0436 0.13271-0.0738 0.27094-0.13414 0.39751-0.12208-0.43309-0.25397-0.86353-0.39915-1.2895-7e-3 -0.0204-0.0139-0.0405-0.02-0.0601-0.02-0.0614-0.0409-0.12208-0.0626-0.1824-0.0403-0.11594-0.0757-0.23393-0.1235-0.34681-0.0436-0.13127-0.0896-0.26132-0.14437-0.3881-0.0174-0.0554-0.0372-0.10981-0.0617-0.16195-0.018-0.0556-0.0376-0.11042-0.0607-0.16359-0.0135-0.0344-0.027-0.0683-0.0409-0.10183-0.12883-0.32329-0.26153-0.64535-0.40938-0.96025-0.0325-0.0922-0.081-0.17729-0.1233-0.2646-0.0139-0.028-0.0272-0.0558-0.0403-0.0834-0.0716-0.16726-0.15234-0.33208-0.24477-0.48871-0.0143-0.0276-0.0282-0.055-0.0419-0.0822-0.0464-0.089-0.0851-0.1824-0.14211-0.26522-0.0313-0.063-0.0626-0.12596-0.10102-0.18444-0.0192-0.035-0.0397-0.0689-0.0622-0.10122-0.0243-0.0495-0.0497-0.0983-0.0808-0.14355-0.0239-0.0423-0.0487-0.0838-0.0742-0.12473-0.0223-0.0368-0.0436-0.0736-0.0646-0.11042-6e-3 -6e-3 -0.0192-0.019-0.0256-0.0256-0.0301-0.071-0.0779-0.13148-0.11901-0.19569-0.0681-0.10286-0.13926-0.20387-0.20326-0.30918-6e-3 -7e-3 -0.0184-0.0204-0.0247-0.0274-0.0348-0.0613-0.0785-0.11656-0.11901-0.17381-0.0771-0.11226-0.16195-0.21859-0.24559-0.32574-0.0454-0.0636-0.0992-0.12044-0.1419-0.18567-0.037-0.0388-0.0765-0.0761-0.10286-0.1231-0.0675-0.0646-0.11512-0.14662-0.18485-0.20898-0.0614-0.0562-0.10122-0.13128-0.1642-0.18588-0.21614-0.20571-0.41367-0.43227-0.64371-0.62244-0.20919-0.18526-0.42778-0.36132-0.65926-0.51837-7e-3 -6e-3 -0.0206-0.0176-0.0274-0.0235-0.0851-0.0511-0.16645-0.10777-0.24804-0.16359-0.0763-0.0479-0.15274-0.0953-0.23127-0.13925-0.0329-0.0217-0.0667-0.0417-0.1006-0.0607-0.029-0.0131-0.0581-0.026-0.0867-0.0386-7e-3 -7e-3 -0.0211-0.0209-0.028-0.028-0.14048-0.0626-0.27217-0.14456-0.41654-0.19793-0.0603-0.0297-0.12044-0.0593-0.18321-0.0828-0.034-0.0139-0.0679-0.0276-0.10184-0.0405-0.8713-0.34803-1.816-0.50119-2.7523-0.48196-1.3185 0.0294-2.6151 0.36541-3.8367 0.84921-0.21164 0.0802-0.41899 0.17054-0.62735 0.25806l-2e-3 8e-3c-0.0624 0.0194-0.12085 0.0485-0.18056 0.074l-4e-3 8e-3c-0.11021 0.0376-0.21245 0.0949-0.31551 0.14825l-0.0311-2e-3 -6.2e-4 0.0294c-0.01-3e-3 -0.0303-0.01-0.0405-0.0127l1e-3 0.0209c-0.15787 0.0554-0.30039 0.1462-0.4513 0.21736v0.0196c-0.0102-3e-3 -0.0305-9e-3 -0.0405-0.0123l-2e-4 0.0317c-0.01-2e-3 -0.0298-8e-3 -0.0399-0.0102l-1e-3 0.0299c-0.01-2e-3 -0.0288-6e-3 -0.0384-8e-3l-3e-3 0.0192c-0.10388 0.0456-0.20203 0.10306-0.30264 0.15541l-4e-3 0.0102c-0.0376 0.0133-0.0748 0.027-0.11247 0.0393 0.0434-0.17994 0.10878-0.35416 0.14948-0.53493 0.0652-0.26807 0.13455-0.54106 0.12146-0.81916-6e-3 -0.15827-0.0783-0.32349-0.22064-0.40344-0.11042-0.0448-0.2329-0.0648-0.35069-0.0417-0.28688 0.0303-0.56253 0.12003-0.83653 0.20509-0.88562 0.28117-1.7764 0.58625-2.7088 0.6613-0.1096 2e-3 -0.21737 0.0249-0.32697 0.0206-0.13639-5e-3 -0.27114 0.0215-0.40733 0.0196-0.1505 4e-3 -0.30181-1e-3 -0.4515 0.0176-0.23822 8e-3 -0.47726-3e-3 -0.71466 0.0196-0.44353 0.0123-0.88807-4e-3 -1.3308 0.0237-0.429-1e-3 -0.85801 3e-3 -1.287 8e-3 -0.26563 0.0245-0.53289 6e-3 -0.79871 0.0203-0.18159 0.0243-0.36582 3e-3 -0.54741 0.0262-0.84349 0.0442-1.6972 0.12576-2.5035 0.39445-0.25049 0.0926-0.49832 0.19528-0.72796 0.3329-0.0767 0.0454-0.14927 0.0973-0.22452 0.14477-0.0812 0.056-0.15909 0.11676-0.23516 0.17954-0.44066 0.35948-0.76762 0.83981-1.0128 1.349-0.29221 0.61324-0.47829 1.2711-0.62204 1.9332-0.28443 1.3484-0.40365 2.7252-0.49178 4.0982-0.0155-0.016-0.0276-0.034-0.036-0.0536-0.21634-0.60649-0.43227-1.213-0.65434-1.8172-8e-3 -0.0204-0.0149-0.0405-0.0225-0.0603-0.0249-0.0759-0.0501-0.15172-0.0822-0.22473-0.0849-0.2511-0.18178-0.49771-0.27196-0.74656-0.34823-1.0332-0.55865-2.1152-0.60609-3.2044-0.0207-0.31307-9e-3 -0.62777-7e-3 -0.94144 0.0184-0.13496 0.0121-0.27176 0.0282-0.40672 0.0638-0.85208 0.24068-1.6964 0.52961-2.501 0.0227-0.0534 0.0427-0.10756 0.0614-0.16236 0.0143-0.0339 0.0282-0.0681 0.0421-0.10204 0.0135-0.0342 0.027-0.0681 0.0403-0.10203 0.0215-0.0472 0.0423-0.0947 0.0613-0.14273 0.0372-0.0808 0.0757-0.16073 0.11165-0.2417 0.35355-0.72898 0.81343-1.4085 1.3756-1.9929 0.50794-0.53309 1.0966-0.98765 1.7346-1.3547 0.18935-0.11104 0.38709-0.20673 0.58871-0.29302 0.27789-0.12024 0.57664-0.22719 0.78889-0.45334 0.1276-0.12474 0.21553-0.28096 0.30243-0.43453 0.42819-0.59995 0.96966-1.1146 1.5729-1.5361 0.65782-0.46008 1.3868-0.81138 2.1405-1.0838 0.84043-0.30264 1.713-0.50978 2.5926-0.65987 1.6686-0.28076 3.3633-0.3605 5.0528-0.37359 2.3524-0.0133 4.7015 0.12821 7.0526 0.1779 0.99624 0.0133 1.9949 0.0178 2.9877-0.0781 0.50794-0.0526 1.0169-0.12923 1.5048-0.28403z" style="stroke-width:.020448"/><path d="m240.66 82.764c0.88053-0.0405 1.762-0.0626 2.6435-0.0672 0.44614-8e-3 0.89227 2e-3 1.3382 7e-3 0.78865 0.0145 1.5781 0.0411 2.3627 0.12483 0.35165 0.037 0.70086 0.10493 1.0352 0.22078 0.35345 0.11831 0.68715 0.2872 1.0372 0.41448 0.62319 0.23335 1.3213 0.26224 1.9604 0.0754 0.34839-0.10003 0.67427-0.26142 1.0104-0.39441 0.30661-0.12222 0.62498-0.21654 0.95118-0.26957 0.3616-0.0573 0.72713-0.0857 1.0922-0.11064 0.85784-0.0548 1.7176-0.0662 2.5771-0.0712 1.7044 7e-3 3.4103 0.0565 5.1082 0.21164 0.53197 0.054 1.0648 0.11423 1.5872 0.23106-0.0217 0.71376-0.0395 1.4288-0.11569 2.1393-0.0232 0.17901-0.0459 0.35982-0.10297 0.5318-0.03 0.0858-0.0737 0.17689-0.15861 0.21997-0.085 0.039-0.18178 0.0334-0.26941 0.0635-0.14001 0.0434-0.24607 0.15372-0.32962 0.26957-0.13757 0.19304-0.23482 0.41105-0.32359 0.62987-0.10232 0.25261-0.17722 0.515-0.25587 0.7756-0.0757 0.24934-0.16563 0.49934-0.3182 0.7131-0.11096 0.15225-0.23906 0.29944-0.40566 0.39212-0.0709 0.0411-0.14556 0.0746-0.21965 0.10901-0.48921 0.1937-1.0112 0.28295-1.5295 0.35851-0.73203 0.10085-1.4704 0.15029-2.2091 0.16041-0.21213 9e-3 -0.42492 9e-3 -0.63706 8e-4 -0.79207-0.0117-1.586-0.0651-2.3658-0.20904-0.35068-0.0672-0.70022-0.15257-1.0302-0.29111-0.21736-0.094-0.43602-0.21181-0.58338-0.40273-0.20005-0.27562-0.35084-0.58468-0.46555-0.90452-0.11014-0.30319-0.19043-0.61649-0.30776-0.91707-0.0912-0.23383-0.21246-0.45902-0.37956-0.64766-0.10003-0.0973-0.19271-0.20398-0.3084-0.2836-0.0223-0.0158-0.0437-0.0322-0.0651-0.0488-0.0467-0.0365-0.0976-0.0667-0.14736-0.0984-0.037-0.0254-0.0761-0.0475-0.11585-0.0674-0.11407-0.0723-0.23906-0.12499-0.36145-0.18112-0.10492-2e-3 -0.21001-6.6e-4 -0.31493-2e-3 -0.0584-5e-3 -0.10901 0.0286-0.16107 0.0492-0.0858 0.0423-0.17395 0.0813-0.25472 0.13315-0.0392 0.0197-0.0772 0.0413-0.11439 0.0643-0.11292 0.0681-0.21898 0.14736-0.31934 0.23286-0.10656 0.10624-0.22128 0.20643-0.30597 0.33207-0.15796 0.21606-0.26418 0.46459-0.34969 0.71702-0.10803 0.3169-0.19484 0.64163-0.32637 0.9502-0.10231 0.2402-0.22682 0.47225-0.382 0.68275-0.16889 0.21001-0.41856 0.3324-0.66349 0.43113-0.35786 0.13984-0.73578 0.21996-1.1137 0.28344-0.81068 0.13495-1.6336 0.17379-2.4542 0.18227-0.83336-4e-3 -1.6679-0.0445-2.4944-0.15584-0.39799-0.0539-0.79468-0.12336-1.1826-0.22796-0.26566-0.0762-0.53654-0.15992-0.76532-0.32-0.24575-0.19696-0.42084-0.47126-0.52805-0.76531-0.11716-0.32081-0.1932-0.65533-0.31706-0.97386-0.10346-0.26387-0.21524-0.53051-0.39425-0.75308-0.0674-0.0934-0.16448-0.16155-0.26908-0.20708-0.10133-0.0306-0.20772-0.0369-0.30858-0.069-0.0431-0.0389-0.0811-0.0829-0.11178-0.13201-0.0243-0.0653-0.0503-0.13006-0.0656-0.1981-0.0601-0.28116-0.0901-0.5677-0.1077-0.85409-0.0166-0.0953-6e-3 -0.19272-0.0222-0.28785-0.01-0.0976-1.6e-4 -0.1963-0.0158-0.2934-9e-3 -0.12157-3e-3 -0.24362-9e-3 -0.36519-0.0125-0.14637-8e-3 -0.2934-0.0145-0.43994-3e-3 -0.10884-9e-3 -0.21768-8e-3 -0.32668 0.39865-0.0884 0.80333-0.14475 1.2088-0.19027 0.81998-0.0909 1.6436-0.14263 2.4673-0.18178m0.52218 0.51842c-0.39604 0.0259-0.79436 0.0737-1.1731 0.19744-0.19565 0.0628-0.38216 0.15356-0.55057 0.27121l2e-3 7e-3c-0.0442 0.0248-0.0852 0.0553-0.1206 0.0916-0.0563 0.0571-0.11912 0.10917-0.16383 0.17656-0.0348 0.0392-0.0676 0.0803-0.0961 0.12451-0.19467 0.28752-0.28082 0.63396-0.31526 0.97565-0.0409 0.42166-0.01 0.84707 0.0484 1.2656 0.0778 0.54796 0.23384 1.1011 0.56249 1.5545 0.18211 0.25195 0.41872 0.46343 0.6878 0.6191 0.50831 0.29324 1.0974 0.40371 1.675 0.45903 0.43324 0.0414 0.86894 0.0504 1.304 0.0512 0.46475-2e-3 0.92949-8e-4 1.3941-0.0168 0.39082-8e-3 0.78196-0.0281 1.1705-0.0721 0.33273-0.0406 0.66627-0.0994 0.9799-0.2211 0.23318-0.0902 0.45495-0.21655 0.63755-0.38887 0.25521-0.23122 0.43194-0.53556 0.56036-0.85196 0.11374-0.28606 0.19989-0.58305 0.26321-0.88411 0.0128-0.0488 0.0242-0.0976 0.0323-0.14703 0.0698-0.34366 0.13594-0.68927 0.15274-1.0401-2e-3 -0.34122-0.0589-0.69107-0.22959-0.99149-0.0101-0.0155-0.0201-0.0306-0.0295-0.0457-0.0495-0.0888-0.1121-0.16971-0.18456-0.24069-0.0306-0.0496-0.0703-0.0956-0.12238-0.1232l5e-3 -5e-3c-0.0342-0.0264-0.0656-0.0571-0.10362-0.0776l8e-3 -7e-3c-0.0237-0.0137-0.047-0.0272-0.0706-0.0401l2e-3 -8e-3c-0.10395-0.0687-0.20986-0.13511-0.32278-0.18847-0.0483-0.0231-0.0968-0.0457-0.14604-0.0662-0.0275-0.0109-0.0547-0.0217-0.0817-0.0323-0.45821-0.17509-0.9471-0.25211-1.4332-0.30057-0.40191-0.0358-0.80513-0.055-1.2087-0.0551-0.17363-0.0106-0.34758-6e-3 -0.52137-8e-3 -0.48953-6.6e-4 -0.97925-4e-3 -1.4688-6e-3 -0.38102-4.9e-4 -0.76221-2e-3 -1.1423 0.0251m13.218 0.0953c-0.34251 0.0537-0.68486 0.12418-1.0088 0.25032-0.0274 0.0105-0.0547 0.0214-0.0817 0.0325-0.061 0.0247-0.12011 0.0534-0.17885 0.0829-0.13527 0.0634-0.25684 0.15029-0.37613 0.23889-0.0184 0.0165-0.0361 0.0334-0.0537 0.0506-0.0481 0.0358-0.093 0.0757-0.13446 0.11896-2e-3 7e-3 -6e-3 0.0208-8e-3 0.0276-0.0431 0.0245-0.0715 0.0656-0.0982 0.10606l-6e-3 8e-4c-0.10656 0.14572-0.19304 0.30661-0.24706 0.4791-0.11521 0.35476-0.11292 0.73643-0.0607 1.1024 0.049 0.31134 0.10672 0.62155 0.18195 0.92767 0.0781 0.31592 0.17477 0.62906 0.31641 0.92279 0.12744 0.26256 0.29552 0.50994 0.51891 0.70037 0.17558 0.15241 0.38168 0.2673 0.59855 0.34954 0.31918 0.12157 0.65795 0.18097 0.99589 0.22078 0.37956 0.0419 0.7614 0.0617 1.1431 0.0693 0.47322 0.0163 0.94694 0.0158 1.4203 0.0173 0.40714-6.5e-4 0.8146-0.01 1.2204-0.0448 0.53588-0.0483 1.0793-0.13854 1.5674-0.37515 0.43585-0.20805 0.80464-0.55661 1.0297-0.98463 0.031-0.0548 0.0623-0.11014 0.0806-0.17069l7e-3 -4.9e-4c0.21181-0.47959 0.30286-1.0018 0.34725-1.5212 0.0195-0.11928 6e-3 -0.24069 0.0217-0.3603 6e-3 -0.0857 6e-3 -0.17199-5e-3 -0.25717-0.0109-0.32718-0.0597-0.66056-0.19484-0.96114-0.0212-0.0642-0.0553-0.12238-0.0902-0.17949-0.0829-0.14523-0.19255-0.27366-0.31673-0.38478-0.0162-0.01-0.0312-0.0206-0.044-0.0334-0.0662-0.0581-0.1405-0.10606-0.21475-0.15306-4e-3 -1.7e-4 -0.0111-6.5e-4 -0.0148-8e-4 -0.0543-0.0398-0.11651-0.0667-0.17754-0.0935-0.29095-0.12532-0.60393-0.18978-0.91675-0.23057-0.42721-0.0528-0.85833-0.0667-1.2886-0.0672-0.47828-2e-3 -0.95672 4e-3 -1.4352 6e-3 -0.8332 4e-3 -1.67-2e-3 -2.4968 0.11488z" style="stroke-width:.016318"/></g></g></svg>
