<?xml version="1.0" encoding="UTF-8"?>
<!-- Created with Inkscape (http://www.inkscape.org/) -->
<svg width="297mm" height="210mm" version="1.1" viewBox="0 0 297 210" xml:space="preserve" xmlns="http://www.w3.org/2000/svg" xmlns:xlink="http://www.w3.org/1999/xlink"><defs><style>.cls-1{fill:#404040;}.cls-2{fill:#f3c6a4;}.cls-3{fill:#161616;}.cls-4{fill:#f2f2f2;}.cls-5{fill:#605250;}.cls-6{fill:#c7a388;}.cls-7{fill:#939d9d;}.cls-8{fill:#a0bed9;}.cls-9{fill:#2e2e2e;}.cls-10{fill:#2f2f2f;}.cls-11{fill:#fefefe;}.cls-12{fill:#302e2e;}.cls-13{fill:#f7f6f5;}.cls-14{fill:#303030;}.cls-15{fill:#313030;}.cls-16{fill:#333;}.cls-17{fill:#323232;}.cls-18{fill:#6c635e;}.cls-19{fill:#828e9e;}.cls-20{fill:#818989;}.cls-21{fill:#c8c8c8;}.cls-22{fill:#c7c8c8;}.cls-23{fill:#d1d0d0;}</style><style type="text/css">  .str0 {stroke:black;stroke-width:20} .fil3 {fill:#0A0A0A} .fil6 {fill:#141414} .fil2 {fill:#E88888} .fil0 {fill:#E88888} .fil7 {fill:#F7F7F7} .fil1 {fill:#FF9999} .fil4 {fill:white} .fil5 {fill:#141414;fill-rule:nonzero}  </style></defs><g><ellipse cx="230.09" cy="130.22" rx="66.248" ry="73.057" style="fill:#666666;stroke-miterlimit:4.7;stroke-width:.47369;stroke:#000000"/><g><text transform="matrix(.26458 0 0 .26458 -1.8119 11.74)" style="fill:#ff0000;font-family:Cochin;font-size:36.379px;line-height:0.8;shape-inside:url(#rect5382);stroke-miterlimit:4.7;stroke-width:1.8066;stroke:#000000;text-align:center;white-space:pre" xml:space="preserve"/></g><g><text transform="matrix(.26458 0 0 .26458 -1.3342 15.524)" style="fill:#ff0000;font-family:Cochin;font-size:36.379px;line-height:0.8;shape-inside:url(#rect5388);stroke-miterlimit:4.7;stroke-width:1.8066;stroke:#000000;text-align:center;white-space:pre" xml:space="preserve"/></g></g><g><g class="fragment fade-out" transform="matrix(.78365 0 0 .78365 119.75 29.876)" data-fragment-index="1"><path class="fil0 str0" d="m106.58 79.881c9.863 0 14.845 12.507 17.916 26.173l7.9514 35.202-53.891 1.0981 10.107-36.3c3.7012-13.34 8.0734-26.173 17.916-26.173z" fill="#fff" stroke="#2b2a29" stroke-width="16.745" style="clip-rule:evenodd;fill-rule:evenodd;fill:#ffffff;image-rendering:optimizeQuality;shape-rendering:geometricPrecision;stroke-width:.34054;stroke:#2b2a29"/><ellipse class="fil1 str0" cx="106.05" cy="102.95" rx="16.127" ry="13.686" fill="#fc9" stroke="#2b2a29" stroke-width="16.745" style="clip-rule:evenodd;fill-rule:evenodd;fill:#ffcc99;image-rendering:optimizeQuality;shape-rendering:geometricPrecision;stroke-width:.34054;stroke:#2b2a29"/><ellipse class="fil2 str0" cx="110.69" cy="99.294" rx="1.7082" ry="2.6844" stroke="#2b2a29" stroke-width="16.745" style="clip-rule:evenodd;fill-rule:evenodd;fill:#000000;image-rendering:optimizeQuality;shape-rendering:geometricPrecision;stroke-width:.34054;stroke:#2b2a29"/><ellipse class="fil2 str0" cx="101.58" cy="99.619" rx="1.7082" ry="2.6844" stroke="#2b2a29" stroke-width="16.745" style="clip-rule:evenodd;fill-rule:evenodd;fill:#000000;image-rendering:optimizeQuality;shape-rendering:geometricPrecision;stroke-width:.34054;stroke:#2b2a29"/><ellipse class="fil2 str0" cx="100.87" cy="174.58" rx="5.9788" ry="2.359" stroke="#2b2a29" stroke-width="16.745" style="clip-rule:evenodd;fill-rule:evenodd;fill:#000000;image-rendering:optimizeQuality;shape-rendering:geometricPrecision;stroke-width:.34054;stroke:#2b2a29"/><ellipse class="fil2 str0" cx="113.94" cy="174.96" rx="5.9788" ry="2.359" stroke="#2b2a29" stroke-width="16.745" style="clip-rule:evenodd;fill-rule:evenodd;fill:#000000;image-rendering:optimizeQuality;shape-rendering:geometricPrecision;stroke-width:.34054;stroke:#2b2a29"/><path class="fil0 str1" d="m101.68 118.61h9.3343c5.5314 0 8.1344 6.1822 10.046 11.998l14.174 42.868-55.538-0.42705 11.917-42.441c1.6879-5.9991 4.5349-11.998 10.066-11.998z" fill="#fff" stroke="#000" stroke-width="16.745" style="clip-rule:evenodd;fill-rule:evenodd;fill:#ffffff;image-rendering:optimizeQuality;shape-rendering:geometricPrecision;stroke-width:.34054;stroke:#000000"/><path class="fil1" d="m101.72 118.96h9.3343c6.4262 0 9.0496 8.2564 10.961 14.52-0.12201 0-0.24402 0-0.36605-0.0203-0.0407-1.3218-2.0133-2.786-2.786-3.5385-2.3387-2.8674-6.5889 0.0813-6.6499 3.4571-1.0575 0-2.7047-0.30504-3.6198 0.5084-1.0168 0-1.6472 0.10168-2.5217-0.34571-0.9558-0.9558-2.9691-0.30504-4.1689-0.54908-0.26437-0.14235-0.52874-0.18302-0.83378-0.18302l0.061 0.0407c-0.42706-0.2237-1.0982-0.4474-1.5659-0.4474l0.04066 0.0203c-0.52874-0.26437-1.2202-0.16269-1.7896-0.20336-1.1592-0.7321-4.901 0.0813-5.4907 1.4439-0.83377 0.0813-0.89479 0.79311-1.7286 0.79311 1.7692-6.8533 4.3519-15.496 11.124-15.496zm14.418 13.32c0.0204-0.0203 0.061-0.0407 0.10169-0.061 0.16269 0.0813 0.2847 0.22369 0.44739 0.32537-0.2237 0-0.44739-0.0203-0.67109 0 0.0407-0.0813 0.0813-0.16269 0.12201-0.26437z" fill="#fc9" style="clip-rule:evenodd;fill-rule:evenodd;fill:#ffcc99;image-rendering:optimizeQuality;shape-rendering:geometricPrecision;stroke-width:.020336"/><path class="fil0 str0" d="m106.28 134.11c5.5924-12.641 10.839-12.731 15.74-0.31603" fill="#fff" stroke="#2b2a29" stroke-width="17.642" style="clip-rule:evenodd;fill-rule:evenodd;fill:#ffffff;image-rendering:optimizeQuality;shape-rendering:geometricPrecision;stroke-width:.34054;stroke:#2b2a29"/><path class="fil0 str0" d="m90.694 134.01c5.5924-12.641 10.839-12.731 15.74-0.31603" fill="#fff" stroke="#2b2a29" stroke-width="17.642" style="clip-rule:evenodd;fill-rule:evenodd;fill:#ffffff;image-rendering:optimizeQuality;shape-rendering:geometricPrecision;stroke-width:.34054;stroke:#2b2a29"/><circle class="fil4 str0" cx="106.62" cy="119.3" r="2.1353" style="clip-rule:evenodd;fill-rule:evenodd;fill:#6699ff;image-rendering:optimizeQuality;shape-rendering:geometricPrecision;stroke-width:.34054;stroke:#2b2a29"/><circle class="fil4 str0" cx="111.34" cy="119.53" r="2.1353" style="clip-rule:evenodd;fill-rule:evenodd;fill:#6699ff;image-rendering:optimizeQuality;shape-rendering:geometricPrecision;stroke-width:.34054;stroke:#2b2a29"/><circle class="fil4 str0" cx="101.72" cy="119.08" r="2.1353" style="clip-rule:evenodd;fill-rule:evenodd;fill:#6699ff;image-rendering:optimizeQuality;shape-rendering:geometricPrecision;stroke-width:.34054;stroke:#2b2a29"/><circle class="fil4 str0" cx="97.389" cy="117.98" r="2.1353" style="clip-rule:evenodd;fill-rule:evenodd;fill:#6699ff;image-rendering:optimizeQuality;shape-rendering:geometricPrecision;stroke-width:.34054;stroke:#2b2a29"/><circle class="fil4 str0" cx="115.3" cy="118.21" r="2.1353" style="clip-rule:evenodd;fill-rule:evenodd;fill:#6699ff;image-rendering:optimizeQuality;shape-rendering:geometricPrecision;stroke-width:.34054;stroke:#2b2a29"/><path class="fil5" d="m102.45 92.949c-0.61009 0.18302-1.2202 0.40672-1.8099 0.65076-1.2608 0.54907-2.481 1.2405-3.5792 2.0539-0.87445 0.65076-1.6879 1.4032-2.3386 2.2776-2.0133 2.5827-1.7082 6.2635-3.5792 8.9072-0.14235 0.20336-0.40672 0.54907-0.71176 0.5084-0.2847-0.0407-0.32538-0.42706-0.34572-0.65076-0.12201-2.9691 1.0371-7.1786 2.8674-9.4969 0.81344-1.0981 1.8506-1.9929 2.9691-2.786 1.2812-0.85412 2.6437-1.5659 4.0265-2.2573 0.08132-0.04067 0.18302-0.08134 0.26437-0.12202 1.3218-0.67109 2.6234-1.3829 3.8232-2.237 0.65076-0.42706 3.1521-2.7454 3.1928-0.83378 0.0204 2.4607-0.52873 3.0707-2.9284 3.5385-0.63042 0.12202-1.2405 0.26437-1.8506 0.44739z" fill-opacity=".72157" style="clip-rule:evenodd;fill-opacity:.72157;fill-rule:evenodd;fill:#cc6633;image-rendering:optimizeQuality;shape-rendering:geometricPrecision;stroke-width:.020336"/><path class="fil5" d="m101.58 93.905c-0.2237 0.08134-0.42707 0.18302-0.65076 0.2847-1.1998 0.54907-2.3183 1.2202-3.3555 2.0133-0.75244 0.61008-1.4642 1.3015-2.0336 2.0946-1.7692 2.3793-1.7896 5.9991-2.542 8.7852-0.5084 1.8912-1.2202 3.7622-2.5217 5.2874-0.65075 0.75243-1.4439 1.4032-2.3386 1.8302-0.61008 0.26437-2.8877 1.0168-3.2538-0.0407-0.2237-0.69143 0.97612-1.8099 1.2608-2.3793 0.2847-0.48807 0.48806-1.0168 0.63041-1.5862 0.30504-1.2608 0.32538-2.603 0.32538-3.9045-0.04066-3.8435-0.42706-7.8294 1.1592-11.449 0.7321-1.8913 2.0336-3.5792 3.4775-4.9823 1.5659-1.5252 3.3758-2.786 5.3281-3.7418 0.36606-0.18302 0.73211-0.34571 1.1185-0.5084 1.6879-0.69143 3.4978-1.1592 5.3484-1.2405 4.3519-0.14235 6.7922 1.0371 5.023 4.7383-1.0982 2.3793-1.5049 3.2538-4.2096 3.9045-0.93546 0.24403-1.8506 0.52874-2.7657 0.89479z" fill-opacity=".72157" style="clip-rule:evenodd;fill-opacity:.72157;fill-rule:evenodd;fill:#cc6633;image-rendering:optimizeQuality;shape-rendering:geometricPrecision;stroke-width:.020336"/><path class="fil6" d="m99.361 92.461c-1.1592 0.61008-2.298 1.2812-3.3758 2.0336-1.0575 0.77277-2.0946 1.6472-2.8674 2.7047-1.8709 2.3793-2.3387 5.6738-2.9487 8.5412-0.06103 0.30504-0.10168 0.63042-0.14235 0.93546-0.06103 0.36605-0.24403 4.6773-0.93546 4.3519-0.85412-0.46773-0.18303-3.7622-0.16269-4.4943 0.08132-3.5792-0.24404-7.382 1.1592-10.778 0.63042-1.6879 1.7286-3.1724 2.9487-4.4943 1.3625-1.4845 2.9487-2.786 4.6163-3.9249 0.65075-0.44739 1.3422-0.85412 2.0336-1.2608 1.1795-0.67109 2.5013-1.1592 3.8842-1.2812 2.5623-0.20336 6.3855 1.4032 4.5553 4.4739-0.14235 0.26437-0.97613 1.6879-0.97613 1.6472-0.16269-1.6676 0.54907-3.5181-1.8709-1.9929-0.44739 0.2847-0.79311 0.71176-1.2202 1.0371-1.1998 0.97613-2.7454 1.5049-4.1079 2.1963-0.20337 0.10168-0.40672 0.20336-0.58974 0.30504z" fill-opacity=".4902" style="clip-rule:evenodd;fill-opacity:.4902;fill:#cc6633;image-rendering:optimizeQuality;shape-rendering:geometricPrecision;stroke-width:.020336"/><path class="fil3" d="m108.57 89.451c-5.5517-2.7657-14.439 2.2166-16.655 7.2193-2.786 5.5517 0.54908 15.272-6.9549 17.774" fill="none" style="clip-rule:evenodd;fill:none;image-rendering:optimizeQuality;shape-rendering:geometricPrecision;stroke-width:.020336"/><path class="fil5" d="m114.67 86.136c0.69143 0.32538 1.3625 0.7321 1.9929 1.1795 2.5827 1.8913 4.535 4.6976 5.1654 7.8701 0.58975 2.4403 0.36605 5.5517-0.0407 8.0327-0.061 0.36605-0.14235 0.9558-0.5084 1.1185-0.40671 0.18302-0.67109-0.36605-0.7931-0.67109-0.9558-2.5013-0.14235-5.3891-0.48807-7.9921-0.30504-2.786-1.8709-5.4907-4.2502-7.0159-0.0407-0.04067-0.0813-0.06101-0.12202-0.08134-1.2405-0.75244-2.7454-1.1185-4.1689-0.75244-0.97612 0.26437-2.5623 2.237-2.8674 0.7321-0.63042-2.9284 0.0204-4.0265 3.5792-3.2944 0.85411 0.18302 1.7082 0.48806 2.5013 0.87445z" fill-opacity=".72157" style="clip-rule:evenodd;fill-opacity:.72157;fill-rule:evenodd;fill:#cc6633;image-rendering:optimizeQuality;shape-rendering:geometricPrecision;stroke-width:.020336"/><path class="fil5" d="m116.32 86.34c0.24404 0.14235 0.46774 0.30504 0.69143 0.44739 2.786 1.9319 4.8807 4.8197 5.6738 8.1344 0.69143 2.481 0.42706 5.206 0.69143 7.7277 0.10169 0.87445 0.2237 1.7896 0.56941 2.603 0.18303 0.40672 0.42706 0.77277 0.75244 1.0575 0.48807 0.5084 1.8506 1.0168 1.9523 1.7692 0.12202 1.1185-2.0946 1.4439-2.786 1.4439-0.97614-0.0203-1.9116-0.30504-2.7454-0.79311-1.5862-0.91512-2.7047-2.4403-3.4978-4.0469-1.0168-2.0743-1.1795-5.2874-2.6234-7.077-0.71177-1.4235-1.6676-2.5217-3.0098-3.3961-0.10167-0.08134-0.20335-0.14235-0.30504-0.20336-0.54907-0.32538-1.1185-0.61008-1.6879-0.85412-2.2573-1.0168-2.176-1.9929-2.3793-4.2502-0.34571-3.4368 0.48807-4.901 4.6976-4.1486 1.4235 0.28471 2.7657 0.83378 4.0062 1.5862z" fill-opacity=".72157" style="clip-rule:evenodd;fill-opacity:.72157;fill-rule:evenodd;fill:#cc6633;image-rendering:optimizeQuality;shape-rendering:geometricPrecision;stroke-width:.020336"/><path class="fil6" d="m116.44 89.146c2.054 1.5862 3.4165 3.9859 3.7215 6.5686 0.36605 2.542-0.2237 5.1247 0.26437 7.6667 0.0203 0.10168 0.0407 0.20336 0.061 0.28471 0.14235 0.56941 2.298 2.9894 2.2166 3.0911-1.0575 1.2405-3.0504-2.115-3.3148-2.6844-1.0778-2.2776-1.1592-5.084-2.481-7.2193-0.81344-1.7489-2.2776-3.1928-4.1689-3.7622-0.32538-0.08134-0.67109-0.16269-1.0168-0.18302-0.52873-0.02034-1.0981-0.06101-1.6269-0.18302-1.6676-0.44739-2.3183-2.603-2.2573-4.1486 0-0.26437 0.12202-2.0539 0.2237-1.9116 0.95579 1.4845-0.061 3.1114 2.054 1.7692 0.46772-0.2847 0.85411-0.63042 1.3828-0.79311 1.4439-0.40672 3.0504 0.26437 4.2502 1.0168 0.24403 0.16269 0.46773 0.32538 0.69142 0.48807z" fill-opacity=".4902" style="clip-rule:evenodd;fill-opacity:.4902;fill:#cc6633;image-rendering:optimizeQuality;shape-rendering:geometricPrecision;stroke-width:.020336"/><path class="fil3" d="m107.46 88.617c5.0027-0.54907 10.005 3.0504 11.388 7.504 1.4032 3.5995 0.83378 12.486 7.7887 11.653" fill="none" style="clip-rule:evenodd;fill:none;image-rendering:optimizeQuality;shape-rendering:geometricPrecision;stroke-width:.020336"/><path class="fil7 str0" d="m106.28 83.696-7.7074 4.8197v-9.619z" fill="#900" style="clip-rule:evenodd;fill:#990000;image-rendering:optimizeQuality;shape-rendering:geometricPrecision;stroke-width:.34054;stroke:#2b2a29"/><path class="fil7 str0" d="m107.62 83.879 7.7074 4.7993v-9.619z" fill="#900" style="clip-rule:evenodd;fill:#990000;image-rendering:optimizeQuality;shape-rendering:geometricPrecision;stroke-width:.34054;stroke:#2b2a29"/><rect class="fil3 str0" x="103.06" y="85.567" width=".8893" height=".35568" fill="none" style="clip-rule:evenodd;fill:none;image-rendering:optimizeQuality;shape-rendering:geometricPrecision;stroke-width:.34054;stroke:#2b2a29"/><ellipse class="fil8 str0" cx="106.91" cy="83.736" rx="2.8267" ry="1.7692" fill="#900" style="clip-rule:evenodd;fill-rule:evenodd;fill:#990000;image-rendering:optimizeQuality;shape-rendering:geometricPrecision;stroke-width:.34054;stroke:#2b2a29"/><path d="m102.43 108 10.056-0.35564" style="fill:none;stroke-miterlimit:4.7;stroke-width:.478;stroke:#000000"/></g><g class="fragment" transform="matrix(.78365 0 0 .78365 4.544 43.046)" data-fragment-index="1"><path class="fil0 str0" d="m106.58 79.881c9.863 0 14.845 12.507 17.916 26.173l7.9514 35.202-53.891 1.0981 10.107-36.3c3.7012-13.34 8.0734-26.173 17.916-26.173z" fill="#fff" stroke="#2b2a29" stroke-width="16.745" style="clip-rule:evenodd;fill-rule:evenodd;fill:#ffffff;image-rendering:optimizeQuality;shape-rendering:geometricPrecision;stroke-width:.34054;stroke:#2b2a29"/><ellipse class="fil1 str0" cx="106.05" cy="102.95" rx="16.127" ry="13.686" fill="#fc9" stroke="#2b2a29" stroke-width="16.745" style="clip-rule:evenodd;fill-rule:evenodd;fill:#ffcc99;image-rendering:optimizeQuality;shape-rendering:geometricPrecision;stroke-width:.34054;stroke:#2b2a29"/><ellipse class="fil2 str0" cx="110.69" cy="99.294" rx="1.7082" ry="2.6844" stroke="#2b2a29" stroke-width="16.745" style="clip-rule:evenodd;fill-rule:evenodd;fill:#000000;image-rendering:optimizeQuality;shape-rendering:geometricPrecision;stroke-width:.34054;stroke:#2b2a29"/><ellipse class="fil2 str0" cx="101.58" cy="99.619" rx="1.7082" ry="2.6844" stroke="#2b2a29" stroke-width="16.745" style="clip-rule:evenodd;fill-rule:evenodd;fill:#000000;image-rendering:optimizeQuality;shape-rendering:geometricPrecision;stroke-width:.34054;stroke:#2b2a29"/><ellipse class="fil2 str0" cx="100.87" cy="174.58" rx="5.9788" ry="2.359" stroke="#2b2a29" stroke-width="16.745" style="clip-rule:evenodd;fill-rule:evenodd;fill:#000000;image-rendering:optimizeQuality;shape-rendering:geometricPrecision;stroke-width:.34054;stroke:#2b2a29"/><ellipse class="fil2 str0" cx="113.94" cy="174.96" rx="5.9788" ry="2.359" stroke="#2b2a29" stroke-width="16.745" style="clip-rule:evenodd;fill-rule:evenodd;fill:#000000;image-rendering:optimizeQuality;shape-rendering:geometricPrecision;stroke-width:.34054;stroke:#2b2a29"/><path class="fil0 str1" d="m101.68 118.61h9.3343c5.5314 0 8.1344 6.1822 10.046 11.998l14.174 42.868-55.538-0.42705 11.917-42.441c1.6879-5.9991 4.5349-11.998 10.066-11.998z" fill="#fff" stroke="#000" stroke-width="16.745" style="clip-rule:evenodd;fill-rule:evenodd;fill:#ffffff;image-rendering:optimizeQuality;shape-rendering:geometricPrecision;stroke-width:.34054;stroke:#000000"/><path class="fil1" d="m101.72 118.96h9.3343c6.4262 0 9.0496 8.2564 10.961 14.52-0.12201 0-0.24402 0-0.36605-0.0203-0.0407-1.3218-2.0133-2.786-2.786-3.5385-2.3387-2.8674-6.5889 0.0813-6.6499 3.4571-1.0575 0-2.7047-0.30504-3.6198 0.5084-1.0168 0-1.6472 0.10168-2.5217-0.34571-0.9558-0.9558-2.9691-0.30504-4.1689-0.54908-0.26437-0.14235-0.52874-0.18302-0.83378-0.18302l0.061 0.0407c-0.42706-0.2237-1.0982-0.4474-1.5659-0.4474l0.04066 0.0203c-0.52874-0.26437-1.2202-0.16269-1.7896-0.20336-1.1592-0.7321-4.901 0.0813-5.4907 1.4439-0.83377 0.0813-0.89479 0.79311-1.7286 0.79311 1.7692-6.8533 4.3519-15.496 11.124-15.496zm14.418 13.32c0.0204-0.0203 0.061-0.0407 0.10169-0.061 0.16269 0.0813 0.2847 0.22369 0.44739 0.32537-0.2237 0-0.44739-0.0203-0.67109 0 0.0407-0.0813 0.0813-0.16269 0.12201-0.26437z" fill="#fc9" style="clip-rule:evenodd;fill-rule:evenodd;fill:#ffcc99;image-rendering:optimizeQuality;shape-rendering:geometricPrecision;stroke-width:.020336"/><path class="fil0 str0" d="m106.28 134.11c5.5924-12.641 10.839-12.731 15.74-0.31603" fill="#fff" stroke="#2b2a29" stroke-width="17.642" style="clip-rule:evenodd;fill-rule:evenodd;fill:#ffffff;image-rendering:optimizeQuality;shape-rendering:geometricPrecision;stroke-width:.34054;stroke:#2b2a29"/><path class="fil0 str0" d="m90.694 134.01c5.5924-12.641 10.839-12.731 15.74-0.31603" fill="#fff" stroke="#2b2a29" stroke-width="17.642" style="clip-rule:evenodd;fill-rule:evenodd;fill:#ffffff;image-rendering:optimizeQuality;shape-rendering:geometricPrecision;stroke-width:.34054;stroke:#2b2a29"/><circle class="fil4 str0" cx="106.62" cy="119.3" r="2.1353" style="clip-rule:evenodd;fill-rule:evenodd;fill:#6699ff;image-rendering:optimizeQuality;shape-rendering:geometricPrecision;stroke-width:.34054;stroke:#2b2a29"/><circle class="fil4 str0" cx="111.34" cy="119.53" r="2.1353" style="clip-rule:evenodd;fill-rule:evenodd;fill:#6699ff;image-rendering:optimizeQuality;shape-rendering:geometricPrecision;stroke-width:.34054;stroke:#2b2a29"/><circle class="fil4 str0" cx="101.72" cy="119.08" r="2.1353" style="clip-rule:evenodd;fill-rule:evenodd;fill:#6699ff;image-rendering:optimizeQuality;shape-rendering:geometricPrecision;stroke-width:.34054;stroke:#2b2a29"/><circle class="fil4 str0" cx="97.389" cy="117.98" r="2.1353" style="clip-rule:evenodd;fill-rule:evenodd;fill:#6699ff;image-rendering:optimizeQuality;shape-rendering:geometricPrecision;stroke-width:.34054;stroke:#2b2a29"/><circle class="fil4 str0" cx="115.3" cy="118.21" r="2.1353" style="clip-rule:evenodd;fill-rule:evenodd;fill:#6699ff;image-rendering:optimizeQuality;shape-rendering:geometricPrecision;stroke-width:.34054;stroke:#2b2a29"/><path class="fil5" d="m102.45 92.949c-0.61009 0.18302-1.2202 0.40672-1.8099 0.65076-1.2608 0.54907-2.481 1.2405-3.5792 2.0539-0.87445 0.65076-1.6879 1.4032-2.3386 2.2776-2.0133 2.5827-1.7082 6.2635-3.5792 8.9072-0.14235 0.20336-0.40672 0.54907-0.71176 0.5084-0.2847-0.0407-0.32538-0.42706-0.34572-0.65076-0.12201-2.9691 1.0371-7.1786 2.8674-9.4969 0.81344-1.0981 1.8506-1.9929 2.9691-2.786 1.2812-0.85412 2.6437-1.5659 4.0265-2.2573 0.08132-0.04067 0.18302-0.08134 0.26437-0.12202 1.3218-0.67109 2.6234-1.3829 3.8232-2.237 0.65076-0.42706 3.1521-2.7454 3.1928-0.83378 0.0204 2.4607-0.52873 3.0707-2.9284 3.5385-0.63042 0.12202-1.2405 0.26437-1.8506 0.44739z" fill-opacity=".72157" style="clip-rule:evenodd;fill-opacity:.72157;fill-rule:evenodd;fill:#cc6633;image-rendering:optimizeQuality;shape-rendering:geometricPrecision;stroke-width:.020336"/><path class="fil5" d="m101.58 93.905c-0.2237 0.08134-0.42707 0.18302-0.65076 0.2847-1.1998 0.54907-2.3183 1.2202-3.3555 2.0133-0.75244 0.61008-1.4642 1.3015-2.0336 2.0946-1.7692 2.3793-1.7896 5.9991-2.542 8.7852-0.5084 1.8912-1.2202 3.7622-2.5217 5.2874-0.65075 0.75243-1.4439 1.4032-2.3386 1.8302-0.61008 0.26437-2.8877 1.0168-3.2538-0.0407-0.2237-0.69143 0.97612-1.8099 1.2608-2.3793 0.2847-0.48807 0.48806-1.0168 0.63041-1.5862 0.30504-1.2608 0.32538-2.603 0.32538-3.9045-0.04066-3.8435-0.42706-7.8294 1.1592-11.449 0.7321-1.8913 2.0336-3.5792 3.4775-4.9823 1.5659-1.5252 3.3758-2.786 5.3281-3.7418 0.36606-0.18302 0.73211-0.34571 1.1185-0.5084 1.6879-0.69143 3.4978-1.1592 5.3484-1.2405 4.3519-0.14235 6.7922 1.0371 5.023 4.7383-1.0982 2.3793-1.5049 3.2538-4.2096 3.9045-0.93546 0.24403-1.8506 0.52874-2.7657 0.89479z" fill-opacity=".72157" style="clip-rule:evenodd;fill-opacity:.72157;fill-rule:evenodd;fill:#cc6633;image-rendering:optimizeQuality;shape-rendering:geometricPrecision;stroke-width:.020336"/><path class="fil6" d="m99.361 92.461c-1.1592 0.61008-2.298 1.2812-3.3758 2.0336-1.0575 0.77277-2.0946 1.6472-2.8674 2.7047-1.8709 2.3793-2.3387 5.6738-2.9487 8.5412-0.06103 0.30504-0.10168 0.63042-0.14235 0.93546-0.06103 0.36605-0.24403 4.6773-0.93546 4.3519-0.85412-0.46773-0.18303-3.7622-0.16269-4.4943 0.08132-3.5792-0.24404-7.382 1.1592-10.778 0.63042-1.6879 1.7286-3.1724 2.9487-4.4943 1.3625-1.4845 2.9487-2.786 4.6163-3.9249 0.65075-0.44739 1.3422-0.85412 2.0336-1.2608 1.1795-0.67109 2.5013-1.1592 3.8842-1.2812 2.5623-0.20336 6.3855 1.4032 4.5553 4.4739-0.14235 0.26437-0.97613 1.6879-0.97613 1.6472-0.16269-1.6676 0.54907-3.5181-1.8709-1.9929-0.44739 0.2847-0.79311 0.71176-1.2202 1.0371-1.1998 0.97613-2.7454 1.5049-4.1079 2.1963-0.20337 0.10168-0.40672 0.20336-0.58974 0.30504z" fill-opacity=".4902" style="clip-rule:evenodd;fill-opacity:.4902;fill:#cc6633;image-rendering:optimizeQuality;shape-rendering:geometricPrecision;stroke-width:.020336"/><path class="fil3" d="m108.57 89.451c-5.5517-2.7657-14.439 2.2166-16.655 7.2193-2.786 5.5517 0.54908 15.272-6.9549 17.774" fill="none" style="clip-rule:evenodd;fill:none;image-rendering:optimizeQuality;shape-rendering:geometricPrecision;stroke-width:.020336"/><path class="fil5" d="m114.67 86.136c0.69143 0.32538 1.3625 0.7321 1.9929 1.1795 2.5827 1.8913 4.535 4.6976 5.1654 7.8701 0.58975 2.4403 0.36605 5.5517-0.0407 8.0327-0.061 0.36605-0.14235 0.9558-0.5084 1.1185-0.40671 0.18302-0.67109-0.36605-0.7931-0.67109-0.9558-2.5013-0.14235-5.3891-0.48807-7.9921-0.30504-2.786-1.8709-5.4907-4.2502-7.0159-0.0407-0.04067-0.0813-0.06101-0.12202-0.08134-1.2405-0.75244-2.7454-1.1185-4.1689-0.75244-0.97612 0.26437-2.5623 2.237-2.8674 0.7321-0.63042-2.9284 0.0204-4.0265 3.5792-3.2944 0.85411 0.18302 1.7082 0.48806 2.5013 0.87445z" fill-opacity=".72157" style="clip-rule:evenodd;fill-opacity:.72157;fill-rule:evenodd;fill:#cc6633;image-rendering:optimizeQuality;shape-rendering:geometricPrecision;stroke-width:.020336"/><path class="fil5" d="m116.32 86.34c0.24404 0.14235 0.46774 0.30504 0.69143 0.44739 2.786 1.9319 4.8807 4.8197 5.6738 8.1344 0.69143 2.481 0.42706 5.206 0.69143 7.7277 0.10169 0.87445 0.2237 1.7896 0.56941 2.603 0.18303 0.40672 0.42706 0.77277 0.75244 1.0575 0.48807 0.5084 1.8506 1.0168 1.9523 1.7692 0.12202 1.1185-2.0946 1.4439-2.786 1.4439-0.97614-0.0203-1.9116-0.30504-2.7454-0.79311-1.5862-0.91512-2.7047-2.4403-3.4978-4.0469-1.0168-2.0743-1.1795-5.2874-2.6234-7.077-0.71177-1.4235-1.6676-2.5217-3.0098-3.3961-0.10167-0.08134-0.20335-0.14235-0.30504-0.20336-0.54907-0.32538-1.1185-0.61008-1.6879-0.85412-2.2573-1.0168-2.176-1.9929-2.3793-4.2502-0.34571-3.4368 0.48807-4.901 4.6976-4.1486 1.4235 0.28471 2.7657 0.83378 4.0062 1.5862z" fill-opacity=".72157" style="clip-rule:evenodd;fill-opacity:.72157;fill-rule:evenodd;fill:#cc6633;image-rendering:optimizeQuality;shape-rendering:geometricPrecision;stroke-width:.020336"/><path class="fil6" d="m116.44 89.146c2.054 1.5862 3.4165 3.9859 3.7215 6.5686 0.36605 2.542-0.2237 5.1247 0.26437 7.6667 0.0203 0.10168 0.0407 0.20336 0.061 0.28471 0.14235 0.56941 2.298 2.9894 2.2166 3.0911-1.0575 1.2405-3.0504-2.115-3.3148-2.6844-1.0778-2.2776-1.1592-5.084-2.481-7.2193-0.81344-1.7489-2.2776-3.1928-4.1689-3.7622-0.32538-0.08134-0.67109-0.16269-1.0168-0.18302-0.52873-0.02034-1.0981-0.06101-1.6269-0.18302-1.6676-0.44739-2.3183-2.603-2.2573-4.1486 0-0.26437 0.12202-2.0539 0.2237-1.9116 0.95579 1.4845-0.061 3.1114 2.054 1.7692 0.46772-0.2847 0.85411-0.63042 1.3828-0.79311 1.4439-0.40672 3.0504 0.26437 4.2502 1.0168 0.24403 0.16269 0.46773 0.32538 0.69142 0.48807z" fill-opacity=".4902" style="clip-rule:evenodd;fill-opacity:.4902;fill:#cc6633;image-rendering:optimizeQuality;shape-rendering:geometricPrecision;stroke-width:.020336"/><path class="fil3" d="m107.46 88.617c5.0027-0.54907 10.005 3.0504 11.388 7.504 1.4032 3.5995 0.83378 12.486 7.7887 11.653" fill="none" style="clip-rule:evenodd;fill:none;image-rendering:optimizeQuality;shape-rendering:geometricPrecision;stroke-width:.020336"/><path class="fil7 str0" d="m106.28 83.696-7.7074 4.8197v-9.619z" fill="#900" style="clip-rule:evenodd;fill:#990000;image-rendering:optimizeQuality;shape-rendering:geometricPrecision;stroke-width:.34054;stroke:#2b2a29"/><path class="fil7 str0" d="m107.62 83.879 7.7074 4.7993v-9.619z" fill="#900" style="clip-rule:evenodd;fill:#990000;image-rendering:optimizeQuality;shape-rendering:geometricPrecision;stroke-width:.34054;stroke:#2b2a29"/><rect class="fil3 str0" x="103.06" y="85.567" width=".8893" height=".35568" fill="none" style="clip-rule:evenodd;fill:none;image-rendering:optimizeQuality;shape-rendering:geometricPrecision;stroke-width:.34054;stroke:#2b2a29"/><ellipse class="fil8 str0" cx="106.91" cy="83.736" rx="2.8267" ry="1.7692" fill="#900" style="clip-rule:evenodd;fill-rule:evenodd;fill:#990000;image-rendering:optimizeQuality;shape-rendering:geometricPrecision;stroke-width:.34054;stroke:#2b2a29"/><path d="m102.43 108 10.056-0.35564" style="fill:none;stroke-miterlimit:4.7;stroke-width:.478;stroke:#000000"/></g><g transform="matrix(.0041025 0 0 .0041025 19.776 71.654)" style="fill-rule:evenodd;image-rendering:optimizeQuality;shape-rendering:geometricPrecision"><path d="m11183 29784-234-68-226-136-226-187-209-221-187-247-158-247-123-234-77-204-4-68v-252l4-60 9-60 17-55-141 4-141 17-149 26-145 38-153 34-141 38-141 34-128 34-260 9-400 13h-498l-532-13-524-43-456-72-336-119-158-162 13-43 13-30 13-26 42-34 30-13 34-17 43-13 166-192 196-158 204-141 226-115 226-111 238-94 238-98 243-94v-43l-30-17-21-9-21-4-17-4-30-4h-30l-26 21-17 21-9 9-9 17-13 21-9 30h-64l-17-98v-68l21-51 38-26 47-13h64l77 4 89 13 9-175 26-81 38-17 55 34 60 60 72 77 77 64 77 38v-13l13-13-38-106-17-98v-85l30-68 43-47 72-9 89 34 115 85 60 89 51 77 38 51 43 34h38l55-26 60-60 85-89 30-128 13-115-4-115-17-111-34-111-38-102-43-102-43-98-396-669-396-652-413-635-413-622-430-617-430-605-886-1210-149-170-141-183-136-196-128-196-132-200-132-183-132-166-132-136-72-123-51-111-38-106-21-106-17-111v-111l4-119 21-132-204-209-234-247-251-285-247-294-230-307-187-290-132-268-51-226-400-30-370-43-345-72-311-111-277-166-234-226-187-298-132-375-17-341 26-324 55-311 85-298 102-298 123-294 132-290 149-290 158-285 226-349 268-388 307-375 328-341 341-251 345-136 336 26 38 30 43 34 43 26 43 21 38 9h47l51-21 60-30v-55l-183-153-132-153-89-166-47-175-30-187-4-196v-213l4-226 13-175 30-238 34-285 51-294 55-290 68-251 68-187 81-94 120 60 64 26 72 26 64 21 77 21 72 21 81 26 21-64 21-43 4-30v-21l-13-17-26-4-38-9h-51l-162-94-136-81-111-85-85-85-68-102-47-111-30-136-4-162 38-43 55-51 60-60 64-55 55-64 55-60 34-51 26-43-311-43-221-81-145-119-64-145v-179l68-192 128-213 187-217 60-43 77-51 77-55 85-55 81-60 81-51 72-51 68-34-17-60-34-68-51-77-60-77-68-77-60-68-98-98-290-464-264-524-209-549-102-524 34-460 221-353 443-200 715-9 818 247 813 324 796 388 779 447 749 490 728 528 686 558 652 583 166 175 166 162 136 141 98 136 30 123-47 128-141 123-247 136-98 13-81 26-68 30-60 38-55 30-51 34-51 26-43 17 13 47 17 47 21 51 26 51 17 51 21 60 13 64 17 68-43 332-85 332-128 315-175 290-221 238-264 192-307 123-341 47-85 119-77 136-72 145-60 153-51 153-26 166-4 158 30 162 30 13 21 26v13l4 26v21l9 34-21 4-4 9v43l34 38 38 51 34 60 38 72 26 72 21 77 4 72-9 77 51 26 55 30 55 26 60 30 51 30 120 76 64 51 396 51 362 158 315 234 273 307 209 353 153 392 81 409 13 417-55 260-81 256-106 247-123 243-145 234-149 234-316 452-268 277-162 332-77 375-9 405 38 409 77 409 94 388 94 358 17 9 30 9 26-4h34l34-13 34-9 30-9 34-9-4-400 115-409 213-392 290-332 341-247 370-115 379 38 370 238 64 123 77 166 72 183 68 200 47 196 21 192-17 170-55 149-132 21-145 34-153 38-136 60-123 72-94 98-55 128v162l89 43 77 47 55 51 43 55 26 60 26 81 21 89 21 119-106 290-77 324-60 341-38 362-26 358-9 358-4 341 13 328 55 260 34 209 9 158-30 119-81 81-128 60-196 30-264 21 38 204 43 221 34 221 34 230 26 230 30 230 26 230 26 234 77 362 81 366 81 362 98 362 102 358 123 358 149 353 183 349 68 85 98 123 102 141 94 158 64 158 26 158-38 141-106 123 153 192 132 200 115 200 94 217 68 221 51 238 30 247 13 273-68 247-81 221-106 192-132 162-162 123-187 98-221 60-260 30zm-3526-3471 21-4h17l4-4 13-4-26-30-17-26-13-17-13-13-34-17-34-4 9 21 13 21 4 9 13 17 17 21zm324-38 55-4h107l52-26-26-51-26-47-26-43-21-38-30-43-26-34-26-38-21-26h-56l-4 34v43l-4 43 4 47v47l9 47 13 43 26 47z"/><path d="m11213 29571-52-13-38-13-42-13-35-12-38-13-25-9-26-8h-13v-51l-42-22-43-21-21-13-21-8-26-9-21-8 21-26h34l43 9 51 25 47 22 51 29 51 22 51 25 106-8h94l85-9 85-8 77-26 81-30 85-55 94-64 25 4 26 9-85 81-68 68-73 47-68 38-81 26-81 17-98 8z"/><path d="m11196 29239-290-86-264-144-230-200-187-239-145-272-85-286-30-294 42-285 22-47 25-47 26-46 25-47 26-51 25-43 26-47 26-42 72-22 72-13 73-17 76-12 73-13 76-9h77l85 5 9 4 4 8-102 13-77 17-59 9-43 8-34 5-26 8-25 9-22 12v81l69 22 110 8 137-4 157-9 162-17 158-8 140-5 119 13 9 73-85 59-158 51-192 51-204 47-179 56-132 68-47 89 51 4 94-8 119-21 145-22 145-25 149-21 132-13h115v76l13 9 21 4 26-4 25-4 26-17 25-13 26-13 25-13-8-42-9-30-21-30-38-38-22-13-21-13-13-8 13-56 34-42 43-43 42-38 17-43-8-42-60-56-110-55-5-26v-21l-4-25-4-22h119l106 149 132 222 133 268 123 294 85 289 34 264-30 213-115 145-93 102-90 90-102 76-98 64-111 51-115 39-123 30z" fill="#363636"/><path d="m6575 27727-200-34-145-26-115-17-81-13-72-12-60-13-59-17-69-13-12-21v-17l93-17 107 4 111 13 119 30 115 29 115 34 115 30 119 34-17 5-13 8h-21z"/><path d="m7576 27714-149-55-217-43-264-34-277-34-269-43-225-46-158-64-55-81 85-107 179-132 230-144 268-145 264-132 251-94 201-55 136 8 13 26 4 30 34 12 30 26 25 30 30 38 26 38 29 39 35 34 42 34 60-26 21-38-9-51-25-47-43-60-38-59-34-51-13-43 60 17 81 51 81 60 76 55 51 26 30-13-13-68-59-141 21-8 26-4h140l17 25 17 30 17 25 22 30 12 26 17 30 17 29 17 30h60l38-13 17-25 9-30-9-38-4-39-4-38 13-30 166 13 196 43 213 59 217 90 204 98 196 115 162 115 128 123-17 30-17 34-26 68-17 30-17 34-13 34-13 38-51 9-38 13-34 12-30 17-30 18-30 21-34 17-34 25-255 34-256 39-255 30-256 34-255 25-247 26-251 17z" fill="#363636"/><path d="m10088 26862-25-46-22-35-25-29-21-26-26-25-25-22-26-25-17-22-115-195-153-260-183-311-196-328-201-336-183-311-161-273-115-200-60-187-85-226-119-260-128-268-141-264-132-239-127-195-103-128-89-141-166-277-226-370-251-405-264-404-234-354-188-251-106-106-34 12-34 26v68l447 601 417 630 392 643 379 664 358 669 357 681 350 681 361 682 26 51 60 102 76 128 90 153 81 141 68 132 38 93v52l-119-56-115-47-124-51-123-38-128-43-119-34-115-38-107-26v-55l137-251 30-273-56-285-111-285-153-286-166-268-162-251-119-209-141-217-106-166-85-136-73-111-72-111-68-115-85-136-102-170-371-511-362-507-362-511-358-503-362-507-362-494-361-494-362-481 25-25 222 157 200 90 174 30 175-9 170-47 188-55 204-64 247-51 226-77 153-68 89-68 47-81 9-106-17-128-26-171-17-208 26-22 25-12 30-13 34-4 34-5h107v56l8 81v89l9 102 4 98 8 98 9 81 13 64h115l183-26 217-51 239-68 225-85 200-81 141-85 72-72-21-90-21-81-22-85-21-81-25-81-13-76-13-77v-68l17-13h17l4-4 13-4 17-5h26l4 64 13 85 13 94 25 102 26 94 29 98 34 85 43 72h38l43 13 4-21 9-17v-17l8-21 5-26 12-34h47l21 4 26 13 141 511 153 511 162 515 166 524 157 520 158 532 140 536 128 546 81 523 85 499 90 472 106 464 119 456 149 460 184 473 225 498 13 51 30 72 34 81 38 90 30 81 26 85 12 68 5 60-115 4-115 17-115 25-111 26-115 26-111 25-110 17z" fill="#6666cc"/><path d="m11196 26688-56-81-38-81-34-81-26-81-34-81-30-81-38-76-51-68-34-81-30-68-60-120-38-68-43-81-51-106-63-128-213-652-179-651-154-656-136-656-136-664-132-656-149-656-171-647-17-72-12-73-22-76-21-68-21-73-13-64-13-59v-47l9 8 30 47 42 73 56 97 59 111 73 124 76 127 81 132 9 252 34 272 47 277 68 290 68 285 76 281 77 273 77 259 81 469 81 481 85 481 106 486 128 472 166 460 213 443 273 422 8 42 26 56 25 51 34 59 21 56 26 55 13 55 8 56h-123z" fill="#ff0000"/><path d="m11570 26658-230-370-200-358-174-358-149-358-133-370-110-379-90-396-76-413-56-239-47-234-42-230-43-226-51-230-51-217-60-221-63-209-30-157-30-149-30-154-25-140-30-149-26-141-25-140-17-132 106 38 90 119 59 162 51 200 30 205 17 195 13 167 8 119 69 404 76 405 77 409 94 409 89 408 106 413 120 409 132 413 42 90 43 89 42 90 43 89 38 85 43 90 38 85 43 89 98 98 85 90 72 80 60 81 43 81 29 98 13 115v145h-42z" fill="#6666cc"/><path d="m10408 20918-286-124-259-255-239-354-213-409-196-434-170-413-145-362-119-268-26-86-25-76-26-77-17-68-17-72-4-69-4-72 12-68 115 217 132 268 145 273 162 251 179 179 204 77 222-64 255-239 85-183 86-191 81-209 80-204 69-213 63-209 60-200 51-183h68l43 59 43 34 38 22 38 25 21 30 22 60 13 93 8 145-72 307-60 306-60 307-42 315-39 315-21 320-13 323 13 332 13 81 21 90 22 89 25 102 26 196-5 94-8 98-47 21-43 26-42 13-43 17-47 4-42 8h-47z" fill="#cc9933"/><path d="m9168 19593-21-30-8-38h29l5 34 8 34z" fill="#ff0000"/><path d="m5012 18954-55-21-47-17-43-21-34-17-38-22-34-17-38-21-30-13v-21l13-30 132 17 123 13h102l94-17 64-51 55-81 30-123 13-162-94-111-94-60-93-21-90 21-89 47-81 77-72 98-56 111-21-22-17-17 17-68 21-51 22-51 25-38 26-47 34-39 38-42 43-39h549v39l13 42 115 154 64 144 12 128-34 119-81 94-119 73-157 42z" fill="#cccccc"/><path d="m9556 18848-145-158-162-213-170-251-162-268-149-273-119-251-81-217-30-162 188-115 191-89 183-73 192-55 192-47 204-34 213-30 230-25h42l81 4 94 13 94 30 76 34 39 51-13 68-81 94-17 136-51 247-85 315-107 353-140 337-154 294-174 204z" fill="#cc9933"/><path d="m4612 18618v-106l4 17 4 38-4 34z" fill="#cccccc"/><path d="m4131 18580-64-56-43-68-30-81-17-81-12-89-5-77-4-72v-51h43l17 68 21 72 17 68 21 73 17 68 22 72 21 69 21 72-25 8z" fill="#0000ff"/><path d="m9513 18299-106-73-47-85-8-94 34-93 51-90 72-64 77-38h76l-4 21-4 26-4 21v26l102 25 59 51 22 60-9 77-47 72-68 68-89 51z"/><path d="m9501 18167-13-30-4-26v-38l4-30 13-25 46-13 39-4 25-5h22l25-4 30 13-4 25v26l-5 25-4 30-21 9-17 8-26 9-21 13-25 4-22 8h-25z" fill="#cccccc"/><path d="m5174 17898-136-12-145-5-153-8-154-9-153-17-145-21-136-34-115-43-204-187-243-243-273-289-264-311-247-324-191-307-128-285-26-230 103-21 110-26 107-34 110-34 107-38 106-34 98-26 103-12-5 93v226l-8 77-4 102-9 132-4 170 4 141 55 183 94 213 119 230 132 217 137 208 132 175 115 128 51-17 29-30 18-43 12-46v-56l9-55 13-51 29-47 9 38 8 39 13 38 13 42 34 5 68 4h183l94-9 94-8 72-17 55-13v-102l-8-107-17-119-17-115-21-123-22-115-17-107-4-93 51-111 26-153v-192l-17-200-30-209-30-196-30-166-13-123 115 8 128 26 136 34 149 42 145 39 149 42 145 34 145 30 387-38 388-55 379-90 370-119 350-162 336-200 315-251 290-303 21-12 26-9 21-9 25-8-76 255-85 256-103 247-98 247-110 243-107 251-102 251-94 264h43l85-140 90-154 89-166 94-166 81-174 72-162 55-162 47-145 30-13h25l-12 132-22 158-38 166-42 179-52 175-46 170-47 157-34 145h38l26-76 34-73 25-72 34-64 26-73 25-72 22-72 21-68h42l9 51 30 115 34 149 42 174 35 175 34 162 21 123 8 77-76 25-68 34-69 39-63 42-69 39-68 38-76 30-73 34-4 55 9 56 8 42 9 43v30l-13 25-34 13-56 4-383 149-370 141-379 119-375 102-383 77-384 59-396 35z" fill="#6666cc"/><path d="m4680 17311-72-9-56-4-42-4h-26l-25-9-17-4-17-9-13-4v-106l4-81 4-68 17-56 17-55 30-56 43-63 59-73h39v64l8 68 13 73 13 76 8 77 13 81 9 76 4 86h-9z" fill="#ff0000"/><path d="m3986 17298-102-141-85-123-81-124-64-115-68-123-56-119-55-132-51-141-21-4-5-9v-76l9-115 4-149 13-162 13-166 17-145 21-119 30-68 132-69 93-51 60-51 43-51 17-64 12-64 5-81 12-89 81 43 81 46 81 43 85 47 81 43 81 46 81 43 81 47 4 140 9 149 4 149 4 158v153l9 158 8 166 17 170-29 51-69 120-93 149-107 178-110 167-94 144-68 103z" fill="#ff0000"/><path d="m10731 16680-8-42-13-30-17-34-17-26-21-29-17-26-13-26v-25l238-183 183-102 120-60 72-47 13-76-21-124-69-217-98-341-119-132-136-51-153 13-154 64-157 89-145 115-123 115-94 107-30 51-47 110-72 145-73 166-81 158-68 136-64 94-34 38 39-409 149-400 225-362 286-285 315-175 328-21 311 170 272 400 34 43 30 85 21 102 17 124 9 123 13 124 4 106 4 94-149 26-123 25-107 30-93 43-90 46-81 68-81 86-76 115-22 4z" fill="#996633"/><path d="m9726 16493 34-200 73-213 106-213 141-200 157-175 188-136 200-81 213-8 30 51 34 76 38 90 43 102 29 98 30 102 21 94 13 81-89 55-85 55-85 47-86 51-89 52-81 55-81 64-72 76h-98l-85 5-90 4-81 13-89 12-162 26z" fill="#b3b3b3"/><path d="m1618 15373-191-38-179-43-171-55-153-64-149-90-132-97-128-120-110-136-175-545-4-575 127-600 235-592 302-579 349-537 354-490 336-409 85-72 111-94 123-102 141-94 141-80 140-47 128-5 119 56-21 30v42l13 22 12 21 22 30 55-13 85-13 90-21 98-26 85-38 76-43 51-51 22-64 17-12 21 4h13l13 4 17 4 25 13-4 98-4 115-9 111-8 119-13 111v217l13 98 68-17 59-39 51-55 56-60 51-68 60-55 72-47 89-17-4 234-38 252-73 264-89 276-111 269-110 264-107 251-85 234-47 9-94 17-136 12-149 22-158 13-136 17-106 8-56 9 47-124 60-115 59-115 69-106 59-111 60-102 51-107 51-102-25 4-26 13-21 13-13 17-34 26-26 21 9-102 34-98 42-98 56-94 47-89 46-77 22-64 8-47-85 94-72 94-60 81-47 89-42 85-26 102-21 111-4 132-34 34-30 38-30 35-30 38-30-90 5-115 25-140 43-141 38-140 38-115 17-90v-38l-72 81-55 111-39 132-21 149-17 149-9 149v260l-38 42-34 51-34 47-26 51-25 47-17 55-13 64v69l-68 25-64 34-68 26-64 34-68 21-64 26-128 34-25 29-13 26-9 21-4 34-85 17-98 22-111 25-106 30-102 34-81 47-56 51-17 68 30 4h51l68-12 77-9 77-21 81-13 68-13 55-4-59 51-60 60-68 59-60 69-64 63-47 77-38 72-17 81h55l81-42 94-73 106-93 107-107 111-102 110-85 111-55v-35l13-21 55 26 77 72 89 102 103 128 93 128 90 119 72 102 51 73 119 119 128 119 124 111 132 115 127 106 145 111 145 106 162 107-22 30-29 30-34 17-22 17-4 25-4 34-9 26v34l-42 13-43 17-47 17-42 21-51 21-39 26-34 25-21 34-222 86-208 72-213 51-205 43-212 25-213 17-222 9z" fill="#6666cc"/><path d="m5736 15211-481-93-451-137-426-187-401-222-374-268-350-289-319-328-285-345 34-115 85-115 111-107 132-93 132-73 132-47 115-12 85 29 72-8 120-4 140-5h153l141-8 128-4 89-9 38-4-21-13-4-13 68-8 162 30 221 51 264 72 264 77 256 89 208 81 145 77 107 13 89 21 73 25 59 39 51 42 56 60 59 72 81 90 43-56-5-64-46-72-68-68-86-72-81-60-63-47-26-17 4-8 9-5 110-8 107 4 106 13 107 25 102 26 111 30 115 25 123 30v-25l13-26-85-51-77-38-85-35-77-25-81-26-76-17-77-21-68-17v-38l145-56 187 13 200 43 205 55 183 21 162-25 115-107 59-213-17-63-8-43-13-30v-21l-4-34v-22l21-17 34-12 38-22 43-17 38-21 43-13 38-12 39-5 4 90 25 93 34 90 47 93 56 81 68 86 72 80 81 81 213-55 273-140 289-205 277-238 213-252 128-230-5-191-170-119-123-98-77-81-43-77-17-72-13-81-12-77-22-89-42-94-94-4-77 8-68 17-59 26-64 25-64 26-68 21-81 17-51-55-39-43-38-38-25-21-34-22-30-4-43 4-47 17-102 222-60 106-51 111-55 107-47 119-38 123-21 136-22 13-17 13-21-21-21-34 21-192-26-157-68-133-102-102-136-89-149-64-158-51-153-38 25-90 60-98 77-111 89-102 81-102 68-85 43-73 8-46-102 25-102 56-94 76-85 98-81 102-64 111-51 111-34 102-307 64-238 94-200 119-162 153-145 179-136 213-145 243-162 281-162 140-123 98-106 60-94 34h-98l-111-17-140-34-171-39 17-225 56-252 72-272 81-273 72-268 56-243 17-208-21-158 17-42 21-39 17-38 25-38h39l25 51 39 85 51 98 68 115 64 106 76 94 81 68 90 34 123-115 128-115 128-123 132-120 128-127 132-128 132-119 140-111 153-115 175-115 179-119 187-115 179-124 179-119 162-123 149-120 51 5 55 21 51 25 56 39 102 68 55 21 56 21-13 22-26 25-42 34-47 39-55 38-47 38-47 43-30 43 17 4 9 21 161-30 145-34 128-38 128-30 123-17 136 13 154 42 187 94 532 566 316 563 110 549-55 549-213 533-336 528-435 523-507 516-349 281-319 247-315 200-311 162-328 119-349 85-388 51z" fill="#6666cc"/><path d="m1499 15041-77-17-76-13-73-17-72-13-73-17-68-17-64-21-59-21-26-60-25-60-17-59-5-56v-51l17-42 30-34 56-13 17 34 8 43 4 25 13 26 13 25 26 34 42 5 47 21 47 25 102 60 60 30 64 21 76 26 56-5h540l137 9 98 4 51 17-51 26-90 30-128 17-140 17-149 8-132 9h-111z"/><path d="m6349 14960-12-21v-30l12-17 26-13 34-21 34-26 34-30 60-76 25-39 26-34v-17l-64 17-64 34-60 43-59 47-60 38-59 39-60 21-55 4v-94l29-29 30-26 34-26 43-25h-64l-55 13-60 8-55 13-56 4-51 9-51 4h-51v-38l13-39 59-25 73-30 81-34 89-30 85-25 90-9 76 9 77 34 26-22 25-17 21-12 22-9 21-13 26-8 29-9h43l17 39 21 38 30-43 30-25 21-30 26-13 25-17 30-13 34-8 47-9-26 77-46 89-73 90-81 89-98 81-93 73-94 51z"/><path d="m792 14892-25-26-18-12-12-13-5-9-12-25-9-22h-30l-21 5-17-5h-51l-34-63-34-81-26-98-13-98-4-98 17-73 39-46 68-5-5 13v166l9 47 4 38 17 30 30-30 9-21 8-26 13-38 21-42h56l12 46 17 60 13 64 21 77 9 72 8 77v136h-29z"/><path d="m2500 13142-39-60-29-43-30-38-22-25-25-30-9-30-8-38 4-43 85-34 115-34 120-43 264-68 132-17h123l111 21-107 52-102 55-102 51-196 102-85 64-85 72-73 86h-21z" fill="#ffcc99"/><path d="m5749 12980-72-43-69-38-76-34-73-26-76-25-68-26-69-25-59-22v-38l285-311 256-332 234-328 243-277 264-208 310-98 375 38 464 217 13 26 21 25 22 30 21 38 13 34 13 39 4 42v47l-136-89-192-73-234-51-243-21h-243l-204 43-145 76-60 128 124 21 209-8 251-17 277-9 259 13 226 68 158 128 59 221-81 90-76 51-77 13-77-9-80-34-77-43-81-51-77-46-196-60-161-47-145-30-119-8-120 8-110 39-120 68-127 110v52l4 25 4 26v25l4 26v30l5 29h25l17-17 22-21 17-26 17-25 8-34 13-30 13-25 12-22 145-17h183l196 17 205 47 183 68 157 107 103 140 42 188-102 68-115 17-132-22-141-42-149-56-149-38-144-13-132 30-86 64-76 60-77 42-72 43-81 25-85 30-90 22z" fill="#ffcc99"/><path d="m8406 12809-157-72-98-145-56-204-17-230 13-243 38-221 56-188 72-115 17-59 17-43 17-38 17-26 13-29 13-26 17-30 25-30h64l68 22 73 25 81 30 76 9 94-5 90-42 106-77h21l22 13-13 102 17 106 34 98 55 103 68 89 86 77 98 64 110 55-13 123-97 158-162 170-192 171-213 153-196 132-166 89z" fill="#ffb00f"/><path d="m4105 12473-59-13-60-8-64-9-55-8-64-13-51-13-90-30 17-178 51-201 73-217 93-221 98-226 103-209 89-191 81-158 68-8 60-5h145l38 5 47 8-39 162-38 209-47 242-47 260-59 247-60 234-68 196-68 145h-73z" fill="#ff0000"/><path d="m5319 10885-90-141-85-140-89-141-77-140-77-141-63-141-56-140-38-136 732-264 724-264 358-141 362-140 366-149 371-154h42l30 81 26 64 17 47 17 34 8 21 5 17v13l4 17-260 187-256 192-255 183-256 183-255 183-256 192-251 196-243 209-42 38-51 60-60 59-59 73-69 59-59 60-64 38z" fill="#6666cc"/><path d="m6856 10829-42-34-39-17 4-115 30-106 39-102 59-86 68-85 86-64 89-59 106-39 5 22 8 21-89 81-73 72-64 64-51 64-46 68-30 81-17 89-5 120-25 21z"/><path d="m4425 10616-26-4h-26l-21-4h-21l-26-4h-68v-413l21-22 39-34 47-47 59-47 60-51 59-38 52-26 51-4 51 102 55 115 38 115 22 115-22 94-55 81-115 51z" fill="#ff0000"/><path d="m5255 10472-43-52-17-38-8-30 13-17 17-17 34-8 42-9 56-4 4 4 8 22v34l5 29 8 43-42 17-26 13-26 8z"/><path d="m3769 10429v-290l-5-76-4-73-8-68-9-51 77-4 85-4 81-5 89-4 86-8 89-5h187l-72 73-77 85-85 81-85 85-94 72-89 77-85 60z" fill="#6666cc"/><path d="m3892 10135-55-55v-9l-4-25 4-30 30-21 34-9 13-4h21l25-4h26l8 17 5 29-5 13-4 22-4 25v26l-34 12-21 9h-22z"/><path d="m3850 9684-86-22-76-21-68-25-64-22-64-29-55-26-56-30-51-25-179-264-89-328-26-379 26-401 51-408 81-388 81-349 68-290 64 5 68 17 68 21 68 30 64 21 68 26 73 17 76 8 13-25 17-35 13-38 21-42 13-52 17-42 13-38 12-22 73-25 72-13 68-13h209l77 4 89 9-25 47-26 51-26 42-34 86-8 51-4 55 4 68 128-76 119-141 94-192 63-217 13-221-42-196-111-162-183-89h-145l-34 8-34 4-26 22-21 25-8 47 89 17 77 21 63 22 56 34 38 38 26 64 17 81 8 111-72 132-85 51-102-9-107-47-115-64-115-51-115-17-106 43-9 25-4 26-4 17v17l-9 17-13 21-34-21-34-17-38-17-26-13-8-21-9-21-98-30-76-38-64-47-43-56-42-68-26-68-21-72-17-73 13-76 34-68 42-69 60-63 59-64 60-56 60-59 59-51 90-26 119-30 140-34 154-30 145-34 140-21 119-9 98 9 166 332 201 222 221 110 238 13 235-81 238-157 213-226 196-281 140 4 141 17 141 26 140 38 141 38 149 43 144 42 154 47-17 64-26 56-30 51-29 55-35 51-21 55-17 64v73l38 21 77 34 98 34 119 34 120 22 110 12 90-4 68-21 55-166 81-149 89-141 115-123 124-115 140-98 154-85 166-60 349 106 153 281-12 388-141 434-251 405-311 328-354 174-357-42-47-60-38-59-34-64-35-51-38-52-34-34-42-25-39-4-13 17-12 21-17 170-34 188-52 191-63 192-86 183-98 175-110 161-115 145 106-34 111-89 106-128 103-149 89-170 77-162 55-145 47-111h68l13 13 8 17v9l5 17 4 21 8 30-98 149-76 153-68 153-52 162-42 162-21 170-13 179 13 192-39 21-25 21-17 9-17 8-26 13-25 22-252 93-251 107-251 115-247 119-251 111-247 98-243 85-234 59 46-81 107-102 145-123 166-132 153-132 132-120 85-97 22-64-166 136-154 128-149 115-140 115-149 98-149 102-162 93-175 94-21 26-4 25 4 13 21 30-77 38-140 43-187 34-205 34-217 21-187 21-149 13z" fill="#ffcc99"/><path d="m8606 6571-29-13-22-8-17-9-8-4-17-17-13-17 4-22 9-17 183-93 140-111 103-132 72-145 38-162 17-166 5-183-9-183-141 30-97 30-73 29-38 43-21 55v81l17 107 29 145-25 115-43 102-68 89-77 81-98 60-102 51-106 38-107 26-17-26-8-17-4-17v-38l4-22 221-42 149-64 85-94 39-110 8-132-4-145-4-154 13-157 51-43 68-42 72-43 162-68 85-13h81l81 26 72 191 30 218-13 225-46 222-98 196-137 170-178 119z"/><path d="m4186 6358-64-21-47-13-38-13-26-4-25-4h-55v-52l42-12 51 4 56 8 51 26 38 17 30 26 4 17z" fill="#ffcc99"/><path d="m7857 5728-51-26-51-25-47-26-47-21-51-26-43-17-47-13-38-4 60-132 51-94 38-63 47-30 51-9 81 13 106 34 154 51-17 43-13 47-13 46-13 51-12 47-39 141h-81z" fill="#ff9933"/><path d="m5319 5489 38-85 102-119 132-145 162-153 158-149 149-124 119-81 77-25-22 123-42 132-77 124-85 123-111 107-110 98-120 72-115 60-38 4-68 8-30 9-34 4-26 4-34 5z" fill="#474747"/><path d="m5119 5421-34-94 29-106 81-119 124-120 136-115 145-89 132-68 111-21 8 4 4 8-59 73-81 98-98 115-107 123-115 111-106 98-98 68z" fill="#474747"/><path d="m4961 5183-25-39-22-30-21-34-13-25-13-34-4-30v-34l4-30 43-17 55-17 64-26 73-21 64-25 68-13 59-9 56 9-34 34-43 55-55 60-51 68-60 55-51 51-56 35z" fill="#474747"/><path d="m8181 5153-64-17-60-13-60-9-59-4-60-8-55-5-51-8h-47v-68l8-64 13-60 26-55 17-60 25-55 22-55 21-52 85 26 77 30 64 34 63 42 56 47 68 60 149 149-38 26-26 29-25 22-26 25-30 13-25 17-34 8z" fill="#ff9933"/><path d="m7499 5046-132-47-128-42-127-47-128-38-128-39-123-34-124-34-115-25-8-43-5-30v-25l5-13v-17l12-17 9-21 17-22 111-34 136-21 149-17h166l158 4 161 17 145 26 137 38v102l-13 60-13 64-21 59-17 64-17 60-13 60h-77z" fill="#ffcc99"/><path d="m9420 4795-115-55-98-30-85-17-77-13-81-21-77-26-85-42-89-64-337-188-319-161-319-145-315-119-324-107-337-81-349-68-357-38-235-47-230-38-230-35-230-25-230-26-229-12-230-13-230-4-77 29-72 17-73-4-68-13-64-38-51-47-43-59-21-73 699-81 736 17 754 98 758 175 745 230 720 289 677 324 618 362-5 21v56l-4 21-8 38h-13z" fill="#cccccc"/><path d="m9688 4552-55-25-56-30-59-38-51-34-56-43-47-38-46-34-30-26-256-136-268-137-281-136-285-123-294-115-290-98-281-81-264-55-341-111-345-85-357-73-354-51-362-38-353-21-354-5-336 13-192-4-140 17-107 21-76 17-73-4-72-34-85-77-111-123-204-379-218-430-187-452-115-438-13-397 141-310 323-196 554-43 771 209 766 281 746 341 732 400 707 434 686 477 655 498 626 524 73 64 115 102 132 128 149 145 136 140 119 145 90 128 42 111-64 42-63 43-73 38-68 38-72 22-73 21-72 13z" fill="#6666cc"/><path d="m3637 2376-22-8-17-5-4-34-8-21-379-204-154-252 17-264 149-230 222-153 264-30 251 132 187 350-17 89-29 111-47 119-60 119-76 107-81 89-98 60z"/><path d="m3705 2121-192-85-136-107-81-123-21-128 30-124 93-93 154-64 217-9 102 68 68 98 34 107 9 123-30 111-56 102-85 77z" fill="#ffb00f"/></g><g transform="matrix(.01 0 0 .01 56.484 -55.027)" style="clip-rule:evenodd;fill-rule:evenodd;image-rendering:optimizeQuality;shape-rendering:geometricPrecision;text-rendering:geometricPrecision"><g transform="matrix(.9387 0 0 .5993 14741 12019)"><ellipse class="fil2" cx="4405" cy="18497" rx="2452" ry="369"/><path class="fil3" d="m2716 7745c-108 865-107 1806-162 2718 102-856 257-1676 162-2718zm1550 3932-401 5976h-107c4 49 11 108 20 159 13 73 32 131 26 193s-36 128-26 208 60 173 35 242-125 115-278 135c-153 19-358 12-500 0-143-11-222-27-257-57-36-29-28-73-24-122 4-48 3-101 31-165s85-138 123-212 57-148 73-224c11-53 20-108 25-157h-219l-63-6233c-94-42-176-89-241-141 2-37 3-74 6-111-183 25-369 27-559 1-33-4-26-8-27-36l-1-86h1v5-4c-43-2236 1-3757 220-5568-2-61 26-110 75-150 446-151 880-330 1300-540 34-101 77-198 136-287 29-44 20-40 62-9l3 3c1-4 1-7 2-11v-179c0-23-4-23 22-20 19 2 38 9 54 27l7 146c97 176 310 350 511 440 202-90 415-264 512-440l7-146c16-18 35-25 54-27 26-3 22-3 22 20v179c0 4 1 7 1 11l4-3c42-31 32-35 62 9 58 89 102 186 135 287 421 210 854 389 1300 540 49 40 77 89 76 150 219 1811 263 3332 219 5568v4-5h2l-2 86c0 28 7 32-26 36-190 26-376 24-559-1l6 111c-63 51-141 96-231 137l-63 6237h-220c6 49 15 104 26 157 16 76 35 150 73 224s95 148 123 212 27 117 31 165c4 49 12 93-24 122-35 30-114 46-257 57-142 12-347 19-500 0-153-20-253-66-278-135s25-162 35-242-20-146-26-208 13-120 26-193c9-51 16-110 20-159h-108l-400-5976h-69zm1608-3932c109 865 108 1806 163 2718-103-856-258-1676-163-2718z"/><path class="fil4" d="m2494 11079c-194 27-390 20-592-2l1 56c1 28-6 32 27 36 190 26 376 24 559-1 1-30 3-59 5-89z"/><path class="fil4" d="m6096 11079c194 27 390 20 592-2l-1 56c0 28 7 32-26 36-190 26-376 24-559-1-2-30-4-59-6-89z"/><path class="fil4" d="m3723 4287c19 2 38 9 54 27l7 146c97 176 310 350 511 440 202-90 415-264 512-440l7-146c16-18 35-25 54-27 26-3 22-3 22 20v179c125 952-226 2769-595 3859-368-1090-719-2907-594-3859v-179c0-23-4-23 22-20z"/><path class="fil5" d="m5191 6766c110-2 218-10 326-22 108-13 214-30 319-52v44c-104 21-208 38-314 50-108 13-219 21-331 23v-14z"/><path class="fil4" d="m5234 6751c-10-27-17-79-3-128 14-50 50-97 90-113 39-17 82-4 133 21 51 24 109 60 154 67 44 7 74-16 108-37s71-41 97-37c26 5 41 34 40 70-1 35-17 78-67 108-88 17-178 31-269 42-91 10-183 17-276 21-2-4-5-8-7-14z"/><circle class="fil6" cx="4313" cy="5747" r="69"/><circle class="fil6" cx="4313" cy="6507" r="69"/><circle class="fil6" cx="4313" cy="7345" r="69"/><path class="fil3 str0" d="m3793 4800c137 18 272 67 404 143 45 19 161 18 197 0 132-76 267-125 405-143 74-9 64-15 51 43-33 154-8 286-5 445 1 70 18 87-46 72-175-40-296-93-420-181-33-18-122-21-166 0-124 88-245 141-420 181-65 15-47-2-46-72 2-159 28-291-6-445-12-58-23-52 52-43z"/><path class="fil3" d="m3405 2856c-9-232 408-598 709-839l51 45c11-56 14-114 10-175 87 37 155 86 201 149 14-27 18-62 13-106 126 62 242 119 326 214 169 190 300 368 388 555 43 91 49 106 47 205-2 202-36 457-79 626h-60c18-215 18-431-6-649-163-86-454 94-742 81-238-11-468-175-716-33-9 199 9 399 53 601h-60c-70-210-140-464-135-674z"/><path class="fil6" d="m3498 4790c-84 246-203 467-347 673 105 36 200 80 279 137l-363 350c381 813 797 1608 1228 2395-367-1086-717-2892-596-3848l-3-3c-42-31-33-35-62 9-59 89-102 186-136 287z"/><path class="fil6" d="m5092 4790c85 246 203 467 347 673-105 36-199 80-279 137l363 350c-381 813-797 1608-1228 2395 367-1086 717-2892 596-3848l4-3c42-31 32-35 62 9 58 89 102 186 135 287z"/></g></g><g class="fragment" data-fragment-index="2"><rect transform="rotate(49.469)" x="90.453" y="29.912" width="102.3" height="11.568" style="fill:#ff0000;stroke-miterlimit:4.7;stroke-width:.478;stroke:#000000"/><rect transform="rotate(-43.325)" x="-91.809" y="130.54" width="102.3" height="11.568" style="fill:#ff0000;stroke-miterlimit:4.7;stroke-width:.478;stroke:#000000"/></g></g></svg>
