<?xml version="1.0" encoding="UTF-8"?>
<!-- Created with Inkscape (http://www.inkscape.org/) -->
<svg width="1346.7" height="1008.7" version="1.1" viewBox="0 0 961.94 720.52" xmlns="http://www.w3.org/2000/svg" xmlns:xlink="http://www.w3.org/1999/xlink"><defs><clipPath id="pano-nuevor"><path d="m1.0729e-5 0h720v540h-720z" clip-rule="evenodd"/></clipPath><clipPath id="pano-nuevoq"><path d="m1.0729e-5 0h720v540h-720z" clip-rule="evenodd"/></clipPath><clipPath id="pano-nuevop"><path d="m1.0729e-5 0h720v540h-720z" clip-rule="evenodd"/></clipPath><clipPath id="pano-nuevoo"><path d="m1.0729e-5 0h720v540h-720z" clip-rule="evenodd"/></clipPath><clipPath id="pano-nuevon"><path d="m1.0729e-5 0h720v540h-720z" clip-rule="evenodd"/></clipPath><clipPath id="pano-nuevom"><path d="m1.0729e-5 0h720v540h-720z" clip-rule="evenodd"/></clipPath><clipPath id="pano-nuevol"><path d="m1.0729e-5 0h720v540h-720z" clip-rule="evenodd"/></clipPath><clipPath id="pano-nuevok"><path d="m1.0729e-5 0h720v540h-720z" clip-rule="evenodd"/></clipPath><clipPath id="pano-nuevoj"><path d="m1.0729e-5 0h720v540h-720z" clip-rule="evenodd"/></clipPath><clipPath id="pano-nuevoi"><path d="m1.0729e-5 0h720v540h-720z" clip-rule="evenodd"/></clipPath><clipPath id="pano-nuevoh"><path d="m1.0729e-5 0h720v540h-720z" clip-rule="evenodd"/></clipPath><clipPath id="pano-nuevog"><path d="m1.0729e-5 0h720v540h-720z" clip-rule="evenodd"/></clipPath><clipPath id="pano-nuevof"><path d="m1.0729e-5 0h720v540h-720z" clip-rule="evenodd"/></clipPath><clipPath id="pano-nuevoe"><path d="m1.0729e-5 0h720v540h-720z" clip-rule="evenodd"/></clipPath><clipPath id="pano-nuevod"><path d="m1.0729e-5 0h720v540h-720z" clip-rule="evenodd"/></clipPath><clipPath id="pano-nuevoc"><path d="m1.0729e-5 0h720v540h-720z" clip-rule="evenodd"/></clipPath><clipPath id="pano-nuevob"><path d="m1.0729e-5 0h720v540h-720z" clip-rule="evenodd"/></clipPath><clipPath id="pano-nuevoa"><path d="m1.0729e-5 0h720v540h-720z" clip-rule="evenodd"/></clipPath></defs><g transform="matrix(1.3333 0 0 -1.3333 5.4039e-7 720)"><rect transform="scale(1,-1)" x="-4.053e-7" y="-540.01" width="721.48" height="540.4" fill="#0d0d2f" fill-opacity=".95444" stroke-width="2.0052"/><path d="m72.394 503.9h25.188c0.218 0 0.417-0.07 0.594-0.22 0.178-0.15 0.322-0.39 0.431-0.72 0.11-0.33 0.198-0.74 0.267-1.24 0.068-0.5 0.102-1.11 0.102-1.85 0-0.66-0.034-1.24-0.102-1.74-0.069-0.5-0.157-0.9-0.267-1.22-0.109-0.31-0.253-0.54-0.431-0.69-0.177-0.14-0.376-0.22-0.594-0.22h-20.757v-22.43h17.803c0.219 0 0.417-0.08 0.595-0.24 0.178-0.17 0.328-0.4 0.451-0.7 0.123-0.29 0.212-0.69 0.267-1.21 0.054-0.52 0.082-1.12 0.082-1.82 0-0.67-0.028-1.24-0.082-1.72-0.055-0.47-0.144-0.86-0.267-1.16-0.123-0.29-0.273-0.5-0.451-0.63s-0.376-0.19-0.595-0.19h-17.803v-25.58h21.044c0.219 0 0.417-0.07 0.595-0.22 0.177-0.15 0.335-0.38 0.471-0.69 0.137-0.32 0.233-0.72 0.288-1.22 0.054-0.49 0.082-1.11 0.082-1.85 0-0.66-0.028-1.24-0.082-1.74-0.055-0.5-0.151-0.91-0.288-1.24-0.136-0.33-0.294-0.57-0.471-0.72-0.178-0.15-0.376-0.22-0.595-0.22h-25.475c-0.629 0-1.223 0.28-1.784 0.86-0.561 0.57-0.841 1.57-0.841 3.01v63.74c0 1.44 0.28 2.44 0.841 3.01 0.561 0.58 1.155 0.86 1.784 0.86zm40.845 5.47c0.68 0 1.24-0.04 1.68-0.11s0.78-0.18 1.03-0.33c0.24-0.15 0.42-0.33 0.53-0.55 0.11-0.23 0.17-0.48 0.17-0.78v-73.8c0-0.29-0.06-0.54-0.17-0.75-0.11-0.2-0.29-0.37-0.53-0.52-0.25-0.15-0.59-0.26-1.03-0.33-0.44-0.08-1-0.11-1.68-0.11-0.66 0-1.2 0.03-1.64 0.11-0.44 0.07-0.79 0.18-1.05 0.33s-0.43 0.32-0.53 0.52c-0.1 0.21-0.14 0.46-0.14 0.75v73.8c0 0.3 0.04 0.55 0.14 0.78 0.1 0.22 0.27 0.4 0.53 0.55s0.61 0.26 1.05 0.33 0.98 0.11 1.64 0.11z" fill="#808080" fill-rule="evenodd"/><path d="m143.98 503.9h36.92c0.21 0 0.41-0.07 0.59-0.22s0.33-0.39 0.45-0.72 0.21-0.76 0.27-1.3c0.05-0.53 0.08-1.15 0.08-1.85s-0.03-1.3-0.08-1.82c-0.06-0.52-0.15-0.93-0.27-1.24-0.12-0.32-0.27-0.55-0.45-0.69-0.18-0.15-0.38-0.22-0.59-0.22h-14.94v-61.98c0-0.3-0.05-0.56-0.16-0.78s-0.3-0.39-0.57-0.52c-0.28-0.13-0.64-0.24-1.09-0.33-0.45-0.1-1.02-0.14-1.7-0.14-0.66 0-1.22 0.04-1.69 0.14-0.46 0.09-0.83 0.2-1.1 0.33-0.28 0.13-0.47 0.3-0.58 0.52s-0.16 0.48-0.16 0.78v61.98h-14.93c-0.22 0-0.42 0.07-0.6 0.22-0.18 0.14-0.32 0.37-0.43 0.69-0.11 0.31-0.2 0.72-0.27 1.24-0.06 0.52-0.1 1.12-0.1 1.82s0.04 1.32 0.1 1.85c0.07 0.54 0.16 0.97 0.27 1.3s0.25 0.57 0.43 0.72 0.38 0.22 0.6 0.22z" fill="#808080" fill-rule="evenodd"/><path d="m306.48 478.38c-2.01 0-3.74-0.48-5.19-1.44-1.45-0.95-2.65-2.31-3.58-4.06-0.94-1.75-1.64-3.82-2.09-6.21-0.46-2.39-0.69-5.01-0.69-7.85 0-2.72 0.19-5.28 0.56-7.67 0.37-2.4 1-4.49 1.86-6.27 0.87-1.79 2.04-3.21 3.5-4.26s3.29-1.57 5.47-1.57c1.98 0 3.71 0.48 5.17 1.43 1.46 0.96 2.66 2.31 3.6 4.04s1.63 3.79 2.07 6.18c0.44 2.4 0.66 5.03 0.66 7.9 0 2.69-0.18 5.23-0.56 7.63-0.37 2.39-0.98 4.49-1.84 6.29-0.85 1.81-2.01 3.24-3.47 4.29-1.47 1.05-3.29 1.57-5.47 1.57zm-110 0.5c-1.68 0-3.15-0.43-4.42-1.27-1.26-0.85-2.32-1.97-3.17-3.37-0.86-1.4-1.52-3.03-1.99-4.89-0.46-1.86-0.72-3.8-0.78-5.83h20.14c0.08 4.79-0.71 8.54-2.37 11.27-1.67 2.72-4.14 4.09-7.41 4.09zm154.47 7.12c0.36 0 0.76-0.02 1.21-0.08 0.45-0.05 0.93-0.16 1.42-0.3 0.49-0.15 0.94-0.32 1.33-0.5 0.4-0.18 0.68-0.37 0.84-0.55 0.17-0.19 0.28-0.36 0.33-0.53 0.06-0.16 0.1-0.38 0.14-0.63 0.05-0.26 0.07-0.64 0.09-1.14 0.01-0.49 0.02-1.16 0.02-2.01 0-0.81-0.02-1.49-0.04-2.05-0.03-0.55-0.09-0.98-0.17-1.29-0.08-0.32-0.18-0.56-0.31-0.72-0.12-0.17-0.29-0.25-0.51-0.25s-0.48 0.08-0.8 0.25c-0.31 0.16-0.67 0.33-1.07 0.5-0.39 0.16-0.84 0.32-1.33 0.46-0.49 0.15-1.02 0.23-1.6 0.23-0.68 0-1.35-0.19-2.01-0.56-0.65-0.37-1.35-0.97-2.07-1.82s-1.48-1.97-2.28-3.37c-0.79-1.4-1.66-3.11-2.62-5.14v-32.7c0-0.29-0.06-0.54-0.17-0.75-0.11-0.2-0.28-0.37-0.53-0.52s-0.59-0.26-1.02-0.33c-0.44-0.08-1-0.11-1.69-0.11-0.65 0-1.2 0.03-1.64 0.11-0.44 0.07-0.78 0.18-1.04 0.33s-0.44 0.32-0.54 0.52c-0.09 0.21-0.14 0.46-0.14 0.75v49.72c0 0.29 0.04 0.54 0.12 0.74 0.08 0.21 0.25 0.39 0.49 0.56 0.25 0.16 0.57 0.27 0.95 0.33 0.38 0.05 0.89 0.08 1.52 0.08 0.6 0 1.1-0.03 1.49-0.08 0.4-0.06 0.71-0.17 0.93-0.33 0.22-0.17 0.37-0.35 0.47-0.56 0.09-0.2 0.14-0.45 0.14-0.74v-7.24c1.01 1.99 1.96 3.61 2.85 4.86s1.73 2.24 2.53 2.96c0.79 0.72 1.57 1.21 2.35 1.49s1.57 0.41 2.36 0.41zm-44.2 0c3.03 0 5.68-0.6 7.94-1.82 2.25-1.22 4.13-2.98 5.64-5.3 1.5-2.32 2.63-5.14 3.38-8.45 0.75-3.32 1.13-7.06 1.13-11.22 0-4.05-0.4-7.78-1.19-11.18-0.79-3.41-1.98-6.35-3.55-8.82-1.57-2.46-3.54-4.39-5.91-5.77-2.36-1.38-5.1-2.07-8.22-2.07-3.04 0-5.68 0.61-7.94 1.82-2.26 1.22-4.14 2.99-5.64 5.31s-2.63 5.13-3.36 8.45c-0.74 3.31-1.11 7.07-1.11 11.27 0 4.05 0.39 7.78 1.17 11.18 0.78 3.41 1.95 6.35 3.53 8.81 1.57 2.47 3.53 4.39 5.88 5.75s5.1 2.04 8.25 2.04zm-65.37 0c1.54 0 2.91-0.24 4.13-0.71 1.21-0.48 2.29-1.16 3.22-2.02 0.93-0.87 1.72-1.9 2.38-3.09 0.65-1.2 1.2-2.54 1.64-4.01 1.23 1.8 2.4 3.33 3.5 4.59 1.11 1.25 2.18 2.26 3.2 3.03 1.03 0.78 2.03 1.34 3 1.69s1.95 0.52 2.93 0.52c2.38 0 4.38-0.56 5.99-1.68s2.92-2.63 3.92-4.5c1-1.88 1.71-4.08 2.13-6.61 0.43-2.52 0.64-5.18 0.64-7.98v-31.43c0-0.29-0.06-0.54-0.17-0.75-0.11-0.2-0.28-0.37-0.53-0.52s-0.59-0.26-1.03-0.33c-0.43-0.08-0.98-0.11-1.64-0.11-0.68 0-1.24 0.03-1.68 0.11-0.44 0.07-0.78 0.18-1.04 0.33s-0.45 0.32-0.56 0.52c-0.11 0.21-0.16 0.46-0.16 0.75v30.22c0 2.1-0.14 4.01-0.41 5.74-0.28 1.73-0.71 3.22-1.32 4.48-0.6 1.25-1.36 2.21-2.29 2.87s-2.03 0.99-3.28 0.99c-1.56 0-3.13-0.81-4.7-2.43s-3.3-3.99-5.19-7.12v-34.75c0-0.29-0.06-0.54-0.16-0.75-0.11-0.2-0.3-0.37-0.56-0.52s-0.61-0.26-1.04-0.33c-0.44-0.08-0.99-0.11-1.65-0.11-0.62 0-1.16 0.03-1.62 0.11-0.45 0.07-0.8 0.18-1.06 0.33s-0.44 0.32-0.54 0.52c-0.09 0.21-0.14 0.46-0.14 0.75v30.22c0 2.1-0.15 4.01-0.45 5.74s-0.75 3.22-1.35 4.48c-0.61 1.25-1.36 2.21-2.28 2.87s-2 0.99-3.26 0.99c-1.56 0-3.13-0.81-4.72-2.43s-3.31-3.99-5.17-7.12v-34.75c0-0.29-0.05-0.54-0.16-0.75-0.11-0.2-0.29-0.37-0.54-0.52-0.24-0.15-0.58-0.26-1.02-0.33-0.44-0.08-1-0.11-1.68-0.11-0.66 0-1.21 0.03-1.64 0.11-0.44 0.07-0.79 0.18-1.05 0.33s-0.44 0.32-0.53 0.52c-0.1 0.21-0.15 0.46-0.15 0.75v49.72c0 0.29 0.04 0.54 0.13 0.74 0.08 0.21 0.24 0.39 0.49 0.56 0.24 0.16 0.56 0.27 0.94 0.33 0.38 0.05 0.89 0.08 1.52 0.08 0.6 0 1.1-0.03 1.5-0.08 0.39-0.06 0.7-0.17 0.92-0.33 0.22-0.17 0.38-0.35 0.47-0.56 0.1-0.2 0.15-0.45 0.15-0.74v-6.58c2.07 3.13 4.09 5.43 6.05 6.88 1.95 1.46 3.93 2.18 5.92 2.18zm-44.55 0c2.9 0 5.36-0.62 7.4-1.88 2.04-1.25 3.71-2.93 5.03-5.05 1.31-2.12 2.27-4.6 2.89-7.46 0.61-2.85 0.92-5.9 0.92-9.14v-1.66c0-1.43-0.27-2.45-0.8-3.06-0.54-0.61-1.15-0.91-1.84-0.91h-24.31c0-2.77 0.21-5.25 0.62-7.46s1.1-4.11 2.06-5.69 2.21-2.8 3.75-3.65c1.54-0.84 3.42-1.27 5.65-1.27 1.76 0 3.32 0.2 4.7 0.58 1.37 0.39 2.56 0.82 3.56 1.3 1.01 0.48 1.83 0.91 2.48 1.3 0.64 0.39 1.13 0.58 1.46 0.58 0.19 0 0.36-0.07 0.52-0.19 0.15-0.13 0.26-0.33 0.35-0.58 0.08-0.26 0.14-0.62 0.18-1.08s0.06-1.02 0.06-1.69c0-0.48-0.01-0.89-0.04-1.24s-0.06-0.66-0.1-0.94c-0.04-0.27-0.11-0.52-0.21-0.74-0.09-0.23-0.21-0.44-0.37-0.64-0.15-0.2-0.59-0.53-1.33-0.99s-1.69-0.92-2.87-1.36-2.54-0.84-4.08-1.19c-1.55-0.35-3.19-0.52-4.94-0.52-3.04 0-5.7 0.57-7.98 1.71-2.29 1.14-4.21 2.84-5.77 5.08-1.56 2.25-2.73 5.07-3.52 8.46-0.8 3.38-1.19 7.33-1.19 11.82 0 4.27 0.41 8.11 1.23 11.52 0.82 3.4 2 6.29 3.54 8.67 1.55 2.37 3.42 4.2 5.6 5.47 2.19 1.27 4.64 1.9 7.35 1.9z" fill="#808080" fill-rule="evenodd"/><path d="m398.22 456.45c-1.86 0-3.48-0.21-4.84-0.64-1.37-0.42-2.51-1.05-3.41-1.87-0.9-0.83-1.56-1.83-1.99-2.99-0.42-1.16-0.63-2.49-0.63-4 0-2.58 0.61-4.63 1.82-6.16 1.22-1.53 2.92-2.29 5.11-2.29 1.78 0 3.42 0.6 4.94 1.82 1.52 1.21 3.11 3.07 4.78 5.58v10.55zm-2.05 29.55c2.65 0 4.91-0.4 6.77-1.21 1.85-0.81 3.36-2 4.51-3.57 1.15-1.56 1.98-3.5 2.5-5.82s0.78-5.03 0.78-8.12v-33.53c0-0.45-0.11-0.78-0.33-1s-0.52-0.39-0.9-0.5-0.95-0.16-1.68-0.16c-0.71 0-1.28 0.05-1.71 0.16-0.42 0.11-0.73 0.28-0.92 0.5s-0.29 0.55-0.29 1v4.97c-1.61-2.32-3.41-4.13-5.39-5.42s-4.08-1.93-6.3-1.93c-1.94 0-3.7 0.34-5.27 1.02s-2.91 1.67-4.02 2.96-1.97 2.87-2.58 4.75c-0.62 1.88-0.93 4.01-0.93 6.41 0 2.79 0.43 5.23 1.28 7.29 0.84 2.06 2.06 3.77 3.65 5.14 1.58 1.36 3.52 2.38 5.82 3.06s4.88 1.02 7.75 1.02h5.09v3.87c0 1.91-0.15 3.61-0.45 5.08-0.3 1.48-0.79 2.7-1.46 3.68-0.67 0.97-1.53 1.71-2.6 2.21-1.07 0.49-2.38 0.74-3.94 0.74-1.67 0-3.16-0.27-4.49-0.8s-2.49-1.12-3.49-1.77c-1-0.64-1.83-1.23-2.5-1.77-0.67-0.53-1.17-0.8-1.5-0.8-0.22 0-0.41 0.08-0.57 0.22-0.17 0.15-0.31 0.37-0.43 0.67-0.13 0.29-0.21 0.67-0.27 1.13-0.05 0.46-0.08 0.97-0.08 1.52 0 0.92 0.05 1.65 0.14 2.18 0.1 0.53 0.33 1.04 0.7 1.52s1.01 1.04 1.91 1.68c0.9 0.65 1.94 1.24 3.12 1.77 1.17 0.54 2.46 0.98 3.85 1.33 1.4 0.35 2.8 0.52 4.23 0.52zm30.44 23.37c0.68 0 1.24-0.04 1.68-0.11s0.78-0.18 1.02-0.33c0.25-0.15 0.43-0.33 0.54-0.55 0.11-0.23 0.16-0.48 0.16-0.78v-73.8c0-0.29-0.05-0.54-0.16-0.75-0.11-0.2-0.29-0.37-0.54-0.52-0.24-0.15-0.58-0.26-1.02-0.33-0.44-0.08-1-0.11-1.68-0.11-0.66 0-1.21 0.03-1.64 0.11-0.44 0.07-0.79 0.18-1.05 0.33s-0.44 0.32-0.53 0.52c-0.1 0.21-0.15 0.46-0.15 0.75v73.8c0 0.3 0.05 0.55 0.15 0.78 0.09 0.22 0.27 0.4 0.53 0.55s0.61 0.26 1.05 0.33c0.43 0.07 0.98 0.11 1.64 0.11z" fill="#808080" fill-rule="evenodd"/><path d="m601.92 478.38c-2.01 0-3.74-0.48-5.19-1.44-1.45-0.95-2.64-2.31-3.58-4.06s-1.64-3.82-2.09-6.21c-0.46-2.39-0.68-5.01-0.68-7.85 0-2.72 0.18-5.28 0.56-7.67 0.37-2.4 0.99-4.49 1.86-6.27 0.87-1.79 2.03-3.21 3.5-4.26 1.46-1.05 3.28-1.57 5.46-1.57 1.99 0 3.71 0.48 5.17 1.43 1.47 0.96 2.67 2.31 3.6 4.04 0.94 1.73 1.63 3.79 2.07 6.18 0.45 2.4 0.67 5.03 0.67 7.9 0 2.69-0.19 5.23-0.56 7.63-0.37 2.39-0.99 4.49-1.84 6.29-0.86 1.81-2.02 3.24-3.48 4.29s-3.29 1.57-5.47 1.57zm-87.03 0.5c-1.68 0-3.15-0.43-4.42-1.27-1.27-0.85-2.32-1.97-3.18-3.37-0.85-1.4-1.51-3.03-1.98-4.89s-0.73-3.8-0.78-5.83h20.14c0.08 4.79-0.71 8.54-2.37 11.27-1.67 2.72-4.14 4.09-7.41 4.09zm131.51 7.12c0.35 0 0.76-0.02 1.21-0.08 0.45-0.05 0.92-0.16 1.41-0.3 0.49-0.15 0.94-0.32 1.33-0.5 0.4-0.18 0.68-0.37 0.85-0.55 0.16-0.19 0.27-0.36 0.32-0.53 0.06-0.16 0.11-0.38 0.15-0.63 0.04-0.26 0.07-0.64 0.08-1.14 0.01-0.49 0.02-1.16 0.02-2.01 0-0.81-0.01-1.49-0.04-2.05-0.03-0.55-0.08-0.98-0.17-1.29-0.08-0.32-0.18-0.56-0.3-0.72-0.13-0.17-0.3-0.25-0.52-0.25-0.21 0-0.48 0.08-0.8 0.25-0.31 0.16-0.67 0.33-1.06 0.5-0.4 0.16-0.84 0.32-1.34 0.46-0.49 0.15-1.02 0.23-1.6 0.23-0.68 0-1.35-0.19-2.01-0.56-0.65-0.37-1.34-0.97-2.07-1.82-0.72-0.85-1.48-1.97-2.27-3.37-0.8-1.4-1.67-3.11-2.63-5.14v-32.7c0-0.29-0.05-0.54-0.16-0.75-0.11-0.2-0.29-0.37-0.54-0.52-0.24-0.15-0.58-0.26-1.02-0.33-0.44-0.08-1-0.11-1.68-0.11-0.66 0-1.21 0.03-1.64 0.11-0.44 0.07-0.79 0.18-1.05 0.33s-0.44 0.32-0.53 0.52c-0.1 0.21-0.15 0.46-0.15 0.75v49.72c0 0.29 0.04 0.54 0.13 0.74 0.08 0.21 0.24 0.39 0.49 0.56 0.24 0.16 0.56 0.27 0.94 0.33 0.38 0.05 0.89 0.08 1.52 0.08 0.6 0 1.1-0.03 1.5-0.08 0.39-0.06 0.7-0.17 0.92-0.33 0.22-0.17 0.38-0.35 0.47-0.56 0.1-0.2 0.14-0.45 0.14-0.74v-7.24c1.02 1.99 1.97 3.61 2.86 4.86 0.88 1.25 1.73 2.24 2.52 2.96s1.58 1.21 2.36 1.49 1.56 0.41 2.36 0.41zm-44.21 0c3.04 0 5.68-0.6 7.94-1.82 2.25-1.22 4.13-2.98 5.64-5.3 1.5-2.32 2.63-5.14 3.38-8.45 0.76-3.32 1.13-7.06 1.13-11.22 0-4.05-0.4-7.78-1.19-11.18-0.79-3.41-1.97-6.35-3.55-8.82-1.57-2.46-3.54-4.39-5.9-5.77-2.37-1.38-5.11-2.07-8.23-2.07-3.03 0-5.68 0.61-7.94 1.82-2.25 1.22-4.13 2.99-5.64 5.31-1.5 2.32-2.62 5.13-3.36 8.45-0.74 3.31-1.11 7.07-1.11 11.27 0 4.05 0.39 7.78 1.17 11.18 0.78 3.41 1.96 6.35 3.53 8.81 1.57 2.47 3.53 4.39 5.89 5.75 2.35 1.36 5.1 2.04 8.24 2.04zm-41.91 0c2.46 0 4.54-0.56 6.22-1.68s3.04-2.63 4.08-4.5c1.04-1.88 1.78-4.08 2.23-6.61 0.46-2.52 0.68-5.55 0.68-9.08v-30.33c0-0.29-0.05-0.54-0.16-0.75-0.11-0.2-0.29-0.37-0.54-0.52-0.24-0.15-0.58-0.26-1.02-0.33-0.44-0.08-0.99-0.11-1.64-0.11-0.69 0-1.25 0.03-1.68 0.11-0.44 0.07-0.78 0.18-1.03 0.33s-0.42 0.32-0.53 0.52c-0.11 0.21-0.17 0.46-0.17 0.75v29.11c0 2.84-0.16 5.12-0.49 6.85s-0.81 3.22-1.44 4.48c-0.62 1.25-1.44 2.21-2.44 2.87-0.99 0.66-2.15 0.99-3.46 0.99-1.7 0-3.39-0.81-5.09-2.43-1.69-1.62-3.47-3.99-5.33-7.12v-34.75c0-0.29-0.06-0.54-0.17-0.75-0.11-0.2-0.28-0.37-0.53-0.52s-0.59-0.26-1.02-0.33c-0.44-0.08-1-0.11-1.69-0.11-0.65 0-1.2 0.03-1.64 0.11-0.44 0.07-0.78 0.18-1.04 0.33s-0.44 0.32-0.54 0.52c-0.09 0.21-0.14 0.46-0.14 0.75v49.72c0 0.29 0.04 0.54 0.12 0.74 0.08 0.21 0.25 0.39 0.49 0.56 0.25 0.16 0.57 0.27 0.95 0.33 0.38 0.05 0.89 0.08 1.52 0.08 0.6 0 1.1-0.03 1.49-0.08 0.4-0.06 0.71-0.17 0.93-0.33 0.22-0.17 0.37-0.35 0.47-0.56 0.09-0.2 0.14-0.45 0.14-0.74v-6.58c2.08 3.13 4.15 5.43 6.22 6.88 2.06 1.46 4.15 2.18 6.25 2.18zm-45.05 0c2.9 0 5.37-0.62 7.41-1.88 2.04-1.25 3.71-2.93 5.02-5.05 1.32-2.12 2.28-4.6 2.9-7.46 0.61-2.85 0.92-5.9 0.92-9.14v-1.66c0-1.43-0.27-2.45-0.81-3.06-0.53-0.61-1.14-0.91-1.83-0.91h-24.31c0-2.77 0.2-5.25 0.62-7.46 0.41-2.21 1.09-4.11 2.06-5.69 0.96-1.58 2.21-2.8 3.75-3.65 1.54-0.84 3.42-1.27 5.64-1.27 1.76 0 3.33 0.2 4.7 0.58 1.38 0.39 2.57 0.82 3.57 1.3s1.83 0.91 2.47 1.3c0.65 0.39 1.14 0.58 1.47 0.58 0.19 0 0.36-0.07 0.51-0.19 0.15-0.13 0.27-0.33 0.35-0.58 0.08-0.26 0.15-0.62 0.19-1.08s0.06-1.02 0.06-1.69c0-0.48-0.01-0.89-0.04-1.24s-0.06-0.66-0.1-0.94c-0.05-0.27-0.11-0.52-0.21-0.74-0.1-0.23-0.22-0.44-0.37-0.64s-0.59-0.53-1.33-0.99-1.7-0.92-2.87-1.36c-1.18-0.44-2.54-0.84-4.08-1.19-1.55-0.35-3.2-0.52-4.95-0.52-3.03 0-5.69 0.57-7.98 1.71-2.28 1.14-4.2 2.84-5.76 5.08-1.56 2.25-2.74 5.07-3.53 8.46-0.79 3.38-1.19 7.33-1.19 11.82 0 4.27 0.41 8.11 1.23 11.52 0.82 3.4 2.01 6.29 3.55 8.67 1.55 2.37 3.41 4.2 5.6 5.47s4.64 1.9 7.34 1.9zm-39.83 18.95c1.17 0 2.36-0.14 3.55-0.41 1.19-0.28 2.31-0.65 3.36-1.11s1.99-0.97 2.81-1.55c0.82-0.57 1.36-1.03 1.62-1.38s0.43-0.62 0.51-0.82c0.09-0.21 0.15-0.47 0.21-0.78 0.05-0.31 0.09-0.69 0.12-1.13s0.04-1.01 0.04-1.71c0-0.67-0.02-1.26-0.06-1.77-0.04-0.52-0.1-0.95-0.18-1.3-0.09-0.35-0.2-0.61-0.35-0.77-0.15-0.17-0.32-0.25-0.51-0.25-0.31 0-0.78 0.26-1.42 0.77-0.64 0.52-1.43 1.1-2.36 1.74-0.93 0.65-2.03 1.24-3.3 1.77s-2.7 0.8-4.29 0.8c-1.47 0-2.76-0.27-3.85-0.8-1.1-0.53-2-1.24-2.71-2.13-0.71-0.88-1.25-1.93-1.6-3.15-0.36-1.21-0.53-2.5-0.53-3.86 0-1.99 0.34-3.7 1.02-5.14s1.59-2.71 2.73-3.81c1.13-1.11 2.43-2.12 3.88-3.04s2.92-1.85 4.43-2.79c1.5-0.94 2.98-1.97 4.43-3.09 1.45-1.13 2.74-2.45 3.87-3.98 1.14-1.53 2.05-3.33 2.75-5.41s1.05-4.54 1.05-7.38c0-3.35-0.46-6.33-1.38-8.95-0.91-2.61-2.18-4.83-3.81-6.65-1.63-1.83-3.54-3.2-5.74-4.12-2.21-0.92-4.58-1.38-7.12-1.38-1.78 0-3.43 0.2-4.95 0.61-1.51 0.4-2.87 0.9-4.06 1.49s-2.18 1.2-2.99 1.82c-0.81 0.63-1.37 1.16-1.68 1.6-0.32 0.45-0.55 1.01-0.7 1.69s-0.23 1.59-0.23 2.73c0 0.81 0.03 1.49 0.09 2.02 0.05 0.53 0.13 0.97 0.24 1.3s0.25 0.56 0.41 0.69c0.17 0.13 0.36 0.19 0.58 0.19 0.38 0 0.92-0.31 1.62-0.94 0.69-0.62 1.59-1.3 2.68-2.04 1.1-0.74 2.42-1.43 3.96-2.07 1.55-0.65 3.33-0.97 5.36-0.97 1.53 0 2.93 0.28 4.2 0.83s2.37 1.33 3.28 2.35c0.92 1.01 1.62 2.25 2.12 3.73 0.49 1.47 0.73 3.14 0.73 5.02 0 2.03-0.34 3.76-1.02 5.2-0.69 1.43-1.59 2.69-2.71 3.78s-2.4 2.08-3.84 2.98c-1.43 0.9-2.9 1.82-4.4 2.76-1.51 0.94-2.97 1.98-4.39 3.13-1.43 1.14-2.7 2.48-3.82 4.03-1.12 1.54-2.03 3.36-2.73 5.44-0.69 2.08-1.04 4.57-1.04 7.48 0 2.99 0.4 5.65 1.21 7.99 0.8 2.33 1.92 4.3 3.36 5.88s3.15 2.79 5.13 3.62 4.12 1.24 6.42 1.24zm76.43 2.32c1.48 0 2.75-0.38 3.82-1.13 1.06-0.76 2.03-1.59 2.89-2.49s1.67-1.74 2.42-2.51 1.56-1.16 2.44-1.16c0.98 0 1.73 0.49 2.24 1.46 0.5 0.98 0.75 2.42 0.75 4.34 0 0.59 0.15 0.98 0.44 1.19 0.28 0.2 0.9 0.3 1.86 0.3 1.01 0 1.68-0.14 2.01-0.41 0.33-0.28 0.49-0.9 0.49-1.85 0-3.91-0.71-6.89-2.13-8.95-1.42-2.07-3.35-3.1-5.78-3.1-1.01 0-1.92 0.18-2.71 0.53s-1.52 0.8-2.17 1.35c-0.66 0.55-1.26 1.14-1.81 1.77s-1.09 1.21-1.62 1.77c-0.53 0.55-1.06 1-1.58 1.35s-1.08 0.53-1.68 0.53c-1.09 0-1.86-0.54-2.3-1.61-0.44-1.06-0.65-2.48-0.65-4.25 0-0.26-0.03-0.49-0.09-0.69-0.05-0.2-0.17-0.36-0.35-0.47-0.17-0.11-0.43-0.18-0.77-0.22-0.35-0.04-0.78-0.06-1.3-0.06-0.43 0-0.8 0.03-1.1 0.09-0.31 0.05-0.54 0.16-0.72 0.33-0.18 0.16-0.31 0.4-0.39 0.72-0.08 0.31-0.13 0.7-0.13 1.18 0 3.65 0.69 6.56 2.06 8.73 1.36 2.17 3.32 3.26 5.86 3.26z" fill="#808080" fill-rule="evenodd"/><path d="m68.625 504.53h25.188c0.218 0 0.417-0.07 0.594-0.22 0.178-0.15 0.322-0.39 0.431-0.72 0.11-0.33 0.198-0.74 0.267-1.24 0.068-0.5 0.102-1.11 0.102-1.85 0-0.66-0.034-1.24-0.102-1.74-0.069-0.5-0.157-0.9-0.267-1.22-0.109-0.31-0.253-0.54-0.431-0.69-0.177-0.14-0.376-0.22-0.594-0.22h-20.757v-22.43h17.803c0.219 0 0.417-0.08 0.595-0.24 0.178-0.17 0.328-0.4 0.451-0.7 0.123-0.29 0.212-0.69 0.267-1.21 0.054-0.52 0.082-1.12 0.082-1.82 0-0.67-0.028-1.24-0.082-1.72-0.055-0.47-0.144-0.86-0.267-1.16-0.123-0.29-0.273-0.5-0.451-0.63s-0.376-0.19-0.595-0.19h-17.803v-25.58h21.044c0.219 0 0.417-0.07 0.595-0.22 0.177-0.15 0.335-0.38 0.471-0.69 0.137-0.32 0.233-0.72 0.288-1.22 0.054-0.49 0.082-1.11 0.082-1.85 0-0.66-0.028-1.24-0.082-1.74-0.055-0.5-0.151-0.91-0.288-1.24-0.136-0.33-0.294-0.57-0.471-0.72-0.178-0.15-0.376-0.22-0.595-0.22h-25.475c-0.629 0-1.223 0.28-1.784 0.86-0.561 0.57-0.841 1.57-0.841 3.01v63.74c0 1.44 0.28 2.44 0.841 3.01 0.561 0.58 1.155 0.86 1.784 0.86zm40.845 5.47c0.68 0 1.24-0.04 1.68-0.11s0.78-0.18 1.03-0.33c0.24-0.15 0.42-0.33 0.53-0.55 0.11-0.23 0.17-0.48 0.17-0.78v-73.8c0-0.29-0.06-0.54-0.17-0.75-0.11-0.2-0.29-0.37-0.53-0.52-0.25-0.15-0.59-0.26-1.03-0.33-0.44-0.08-1-0.11-1.68-0.11-0.66 0-1.2 0.03-1.64 0.11-0.44 0.07-0.79 0.18-1.05 0.33s-0.43 0.32-0.53 0.52c-0.1 0.21-0.14 0.46-0.14 0.75v73.8c0 0.3 0.04 0.55 0.14 0.78 0.1 0.22 0.27 0.4 0.53 0.55s0.61 0.26 1.05 0.33 0.98 0.11 1.64 0.11z" fill="#ff0" fill-rule="evenodd"/><path d="m140.21 504.53h36.92c0.21 0 0.41-0.07 0.59-0.22s0.33-0.39 0.45-0.72 0.21-0.76 0.27-1.3c0.05-0.53 0.08-1.15 0.08-1.85s-0.03-1.3-0.08-1.82c-0.06-0.52-0.15-0.93-0.27-1.24-0.12-0.32-0.27-0.55-0.45-0.69-0.18-0.15-0.38-0.22-0.59-0.22h-14.94v-61.98c0-0.3-0.05-0.56-0.16-0.78s-0.3-0.39-0.57-0.52c-0.28-0.13-0.64-0.24-1.09-0.33-0.45-0.1-1.02-0.14-1.7-0.14-0.66 0-1.22 0.04-1.69 0.14-0.46 0.09-0.83 0.2-1.1 0.33-0.28 0.13-0.47 0.3-0.58 0.52s-0.16 0.48-0.16 0.78v61.98h-14.93c-0.22 0-0.42 0.07-0.6 0.22-0.18 0.14-0.32 0.37-0.43 0.69-0.11 0.31-0.2 0.72-0.27 1.24-0.06 0.52-0.1 1.12-0.1 1.82s0.04 1.32 0.1 1.85c0.07 0.54 0.16 0.97 0.27 1.3s0.25 0.57 0.43 0.72 0.38 0.22 0.6 0.22z" fill="#ff0" fill-rule="evenodd"/><path d="m302.71 479.01c-2.01 0-3.74-0.48-5.19-1.44-1.45-0.95-2.65-2.31-3.58-4.06-0.94-1.75-1.64-3.82-2.09-6.21-0.46-2.39-0.69-5.01-0.69-7.85 0-2.72 0.19-5.28 0.56-7.67 0.37-2.4 1-4.49 1.86-6.27 0.87-1.79 2.04-3.21 3.5-4.26s3.29-1.57 5.47-1.57c1.98 0 3.71 0.48 5.17 1.43 1.46 0.96 2.66 2.31 3.6 4.04s1.63 3.79 2.07 6.18c0.44 2.4 0.66 5.03 0.66 7.9 0 2.69-0.18 5.23-0.56 7.63-0.37 2.39-0.98 4.49-1.84 6.29-0.85 1.81-2.01 3.24-3.47 4.29-1.47 1.05-3.29 1.57-5.47 1.57zm-110 0.5c-1.68 0-3.15-0.43-4.42-1.27-1.26-0.85-2.32-1.97-3.17-3.37-0.86-1.4-1.52-3.03-1.99-4.89-0.46-1.86-0.72-3.8-0.78-5.83h20.14c0.08 4.79-0.71 8.54-2.37 11.27-1.67 2.72-4.14 4.09-7.41 4.09zm154.47 7.12c0.36 0 0.76-0.02 1.21-0.08 0.45-0.05 0.93-0.16 1.42-0.3 0.49-0.15 0.94-0.32 1.33-0.5 0.4-0.18 0.68-0.37 0.84-0.55 0.17-0.19 0.28-0.36 0.33-0.53 0.06-0.16 0.1-0.38 0.14-0.63 0.05-0.26 0.07-0.64 0.09-1.14 0.01-0.49 0.02-1.16 0.02-2.01 0-0.81-0.02-1.49-0.04-2.05-0.03-0.55-0.09-0.98-0.17-1.29-0.08-0.32-0.18-0.56-0.31-0.72-0.12-0.17-0.29-0.25-0.51-0.25s-0.48 0.08-0.8 0.25c-0.31 0.16-0.67 0.33-1.07 0.5-0.39 0.16-0.84 0.32-1.33 0.46-0.49 0.15-1.02 0.23-1.6 0.23-0.68 0-1.35-0.19-2.01-0.56-0.65-0.37-1.35-0.97-2.07-1.82s-1.48-1.97-2.28-3.37c-0.79-1.4-1.66-3.11-2.62-5.14v-32.7c0-0.29-0.06-0.54-0.17-0.75-0.11-0.2-0.28-0.37-0.53-0.52s-0.59-0.26-1.02-0.33c-0.44-0.08-1-0.11-1.69-0.11-0.65 0-1.2 0.03-1.64 0.11-0.44 0.07-0.78 0.18-1.04 0.33s-0.44 0.32-0.54 0.52c-0.09 0.21-0.14 0.46-0.14 0.75v49.72c0 0.29 0.04 0.54 0.12 0.74 0.08 0.21 0.25 0.39 0.49 0.56 0.25 0.16 0.57 0.27 0.95 0.33 0.38 0.05 0.89 0.08 1.52 0.08 0.6 0 1.1-0.03 1.49-0.08 0.4-0.06 0.71-0.17 0.93-0.33 0.22-0.17 0.37-0.35 0.47-0.56 0.09-0.2 0.14-0.45 0.14-0.74v-7.24c1.01 1.99 1.96 3.61 2.85 4.86s1.73 2.24 2.53 2.96c0.79 0.72 1.57 1.21 2.35 1.49s1.57 0.41 2.36 0.41zm-44.2 0c3.03 0 5.68-0.6 7.94-1.82 2.25-1.22 4.13-2.98 5.64-5.3 1.5-2.32 2.63-5.14 3.38-8.45 0.75-3.32 1.13-7.06 1.13-11.22 0-4.05-0.4-7.78-1.19-11.18-0.79-3.41-1.98-6.35-3.55-8.82-1.57-2.46-3.54-4.39-5.91-5.77-2.36-1.38-5.1-2.07-8.22-2.07-3.04 0-5.68 0.61-7.94 1.82-2.26 1.22-4.14 2.99-5.64 5.31s-2.63 5.13-3.36 8.45c-0.74 3.31-1.11 7.07-1.11 11.27 0 4.05 0.39 7.78 1.17 11.18 0.78 3.41 1.95 6.35 3.53 8.81 1.57 2.47 3.53 4.39 5.88 5.75s5.1 2.04 8.25 2.04zm-65.37 0c1.54 0 2.91-0.24 4.13-0.71 1.21-0.48 2.29-1.16 3.22-2.02 0.93-0.87 1.72-1.9 2.38-3.09 0.65-1.2 1.2-2.54 1.64-4.01 1.23 1.8 2.4 3.33 3.5 4.59 1.11 1.25 2.18 2.26 3.2 3.03 1.03 0.78 2.03 1.34 3 1.69s1.95 0.52 2.93 0.52c2.38 0 4.38-0.56 5.99-1.68s2.92-2.63 3.92-4.5c1-1.88 1.71-4.08 2.13-6.61 0.43-2.52 0.64-5.18 0.64-7.98v-31.43c0-0.29-0.06-0.54-0.17-0.75-0.11-0.2-0.28-0.37-0.53-0.52s-0.59-0.26-1.03-0.33c-0.43-0.08-0.98-0.11-1.64-0.11-0.68 0-1.24 0.03-1.68 0.11-0.44 0.07-0.78 0.18-1.04 0.33s-0.45 0.32-0.56 0.52c-0.11 0.21-0.16 0.46-0.16 0.75v30.22c0 2.1-0.14 4.01-0.41 5.74-0.28 1.73-0.71 3.22-1.32 4.48-0.6 1.25-1.36 2.21-2.29 2.87s-2.03 0.99-3.28 0.99c-1.56 0-3.13-0.81-4.7-2.43s-3.3-3.99-5.19-7.12v-34.75c0-0.29-0.06-0.54-0.16-0.75-0.11-0.2-0.3-0.37-0.56-0.52s-0.61-0.26-1.04-0.33c-0.44-0.08-0.99-0.11-1.65-0.11-0.62 0-1.16 0.03-1.62 0.11-0.45 0.07-0.8 0.18-1.06 0.33s-0.44 0.32-0.54 0.52c-0.09 0.21-0.14 0.46-0.14 0.75v30.22c0 2.1-0.15 4.01-0.45 5.74s-0.75 3.22-1.35 4.48c-0.61 1.25-1.36 2.21-2.28 2.87s-2 0.99-3.26 0.99c-1.56 0-3.13-0.81-4.72-2.43s-3.31-3.99-5.17-7.12v-34.75c0-0.29-0.05-0.54-0.16-0.75-0.11-0.2-0.29-0.37-0.54-0.52-0.24-0.15-0.58-0.26-1.02-0.33-0.44-0.08-1-0.11-1.68-0.11-0.66 0-1.21 0.03-1.64 0.11-0.44 0.07-0.79 0.18-1.05 0.33s-0.44 0.32-0.53 0.52c-0.1 0.21-0.15 0.46-0.15 0.75v49.72c0 0.29 0.04 0.54 0.13 0.74 0.08 0.21 0.24 0.39 0.49 0.56 0.24 0.16 0.56 0.27 0.94 0.33 0.38 0.05 0.89 0.08 1.52 0.08 0.6 0 1.1-0.03 1.5-0.08 0.39-0.06 0.7-0.17 0.92-0.33 0.22-0.17 0.38-0.35 0.47-0.56 0.1-0.2 0.15-0.45 0.15-0.74v-6.58c2.07 3.13 4.09 5.43 6.05 6.88 1.95 1.46 3.93 2.18 5.92 2.18zm-44.55 0c2.9 0 5.36-0.62 7.4-1.88 2.04-1.25 3.71-2.93 5.03-5.05 1.31-2.12 2.27-4.6 2.89-7.46 0.61-2.85 0.92-5.9 0.92-9.14v-1.66c0-1.43-0.27-2.45-0.8-3.06-0.54-0.61-1.15-0.91-1.84-0.91h-24.31c0-2.77 0.21-5.25 0.62-7.46s1.1-4.11 2.06-5.69 2.21-2.8 3.75-3.65c1.54-0.84 3.42-1.27 5.65-1.27 1.76 0 3.32 0.2 4.7 0.58 1.37 0.39 2.56 0.82 3.56 1.3 1.01 0.48 1.83 0.91 2.48 1.3 0.64 0.39 1.13 0.58 1.46 0.58 0.19 0 0.36-0.07 0.52-0.19 0.15-0.13 0.26-0.33 0.35-0.58 0.08-0.26 0.14-0.62 0.18-1.08s0.06-1.02 0.06-1.69c0-0.48-0.01-0.89-0.04-1.24s-0.06-0.66-0.1-0.94c-0.04-0.27-0.11-0.52-0.21-0.74-0.09-0.23-0.21-0.44-0.37-0.64-0.15-0.2-0.59-0.53-1.33-0.99s-1.69-0.92-2.87-1.36-2.54-0.84-4.08-1.19c-1.55-0.35-3.19-0.52-4.94-0.52-3.04 0-5.7 0.57-7.98 1.71-2.29 1.14-4.21 2.84-5.77 5.08-1.56 2.25-2.73 5.07-3.52 8.46-0.8 3.38-1.19 7.33-1.19 11.82 0 4.27 0.41 8.11 1.23 11.52 0.82 3.4 2 6.29 3.54 8.67 1.55 2.37 3.42 4.2 5.6 5.47 2.19 1.27 4.64 1.9 7.35 1.9z" fill="#ff0" fill-rule="evenodd"/><path d="m394.45 457.08c-1.86 0-3.48-0.21-4.84-0.64-1.37-0.42-2.51-1.05-3.41-1.87-0.9-0.83-1.56-1.83-1.99-2.99-0.42-1.16-0.63-2.49-0.63-4 0-2.58 0.61-4.63 1.82-6.16 1.22-1.53 2.92-2.29 5.11-2.29 1.78 0 3.42 0.6 4.94 1.82 1.52 1.21 3.11 3.07 4.78 5.58v10.55zm-2.05 29.55c2.65 0 4.91-0.4 6.77-1.21 1.85-0.81 3.36-2 4.51-3.57 1.15-1.56 1.98-3.5 2.5-5.82s0.78-5.03 0.78-8.12v-33.53c0-0.45-0.11-0.78-0.33-1s-0.52-0.39-0.9-0.5-0.95-0.16-1.68-0.16c-0.71 0-1.28 0.05-1.71 0.16-0.42 0.11-0.73 0.28-0.92 0.5s-0.29 0.55-0.29 1v4.97c-1.61-2.32-3.41-4.13-5.39-5.42s-4.08-1.93-6.3-1.93c-1.94 0-3.7 0.34-5.27 1.02s-2.91 1.67-4.02 2.96-1.97 2.87-2.58 4.75c-0.62 1.88-0.93 4.01-0.93 6.41 0 2.79 0.43 5.23 1.28 7.29 0.84 2.06 2.06 3.77 3.65 5.14 1.58 1.36 3.52 2.38 5.82 3.06s4.88 1.02 7.75 1.02h5.09v3.87c0 1.91-0.15 3.61-0.45 5.08-0.3 1.48-0.79 2.7-1.46 3.68-0.67 0.97-1.53 1.71-2.6 2.21-1.07 0.49-2.38 0.74-3.94 0.74-1.67 0-3.16-0.27-4.49-0.8s-2.49-1.12-3.49-1.77c-1-0.64-1.83-1.23-2.5-1.77-0.67-0.53-1.17-0.8-1.5-0.8-0.22 0-0.41 0.08-0.57 0.22-0.17 0.15-0.31 0.37-0.43 0.67-0.13 0.29-0.21 0.67-0.27 1.13-0.05 0.46-0.08 0.97-0.08 1.52 0 0.92 0.05 1.65 0.14 2.18 0.1 0.53 0.33 1.04 0.7 1.52s1.01 1.04 1.91 1.68c0.9 0.65 1.94 1.24 3.12 1.77 1.17 0.54 2.46 0.98 3.85 1.33 1.4 0.35 2.8 0.52 4.23 0.52zm30.44 23.37c0.68 0 1.24-0.04 1.68-0.11s0.78-0.18 1.02-0.33c0.25-0.15 0.43-0.33 0.54-0.55 0.11-0.23 0.16-0.48 0.16-0.78v-73.8c0-0.29-0.05-0.54-0.16-0.75-0.11-0.2-0.29-0.37-0.54-0.52-0.24-0.15-0.58-0.26-1.02-0.33-0.44-0.08-1-0.11-1.68-0.11-0.66 0-1.21 0.03-1.64 0.11-0.44 0.07-0.79 0.18-1.05 0.33s-0.44 0.32-0.53 0.52c-0.1 0.21-0.15 0.46-0.15 0.75v73.8c0 0.3 0.05 0.55 0.15 0.78 0.09 0.22 0.27 0.4 0.53 0.55s0.61 0.26 1.05 0.33c0.43 0.07 0.98 0.11 1.64 0.11z" fill="#ff0" fill-rule="evenodd"/><path d="m598.15 479.01c-2.01 0-3.74-0.48-5.19-1.44-1.45-0.95-2.64-2.31-3.58-4.06s-1.64-3.82-2.09-6.21c-0.46-2.39-0.68-5.01-0.68-7.85 0-2.72 0.18-5.28 0.56-7.67 0.37-2.4 0.99-4.49 1.86-6.27 0.87-1.79 2.03-3.21 3.5-4.26 1.46-1.05 3.28-1.57 5.46-1.57 1.99 0 3.71 0.48 5.17 1.43 1.47 0.96 2.67 2.31 3.6 4.04 0.94 1.73 1.63 3.79 2.07 6.18 0.45 2.4 0.67 5.03 0.67 7.9 0 2.69-0.19 5.23-0.56 7.63-0.37 2.39-0.99 4.49-1.84 6.29-0.86 1.81-2.02 3.24-3.48 4.29s-3.29 1.57-5.47 1.57zm-87.03 0.5c-1.68 0-3.15-0.43-4.42-1.27-1.27-0.85-2.32-1.97-3.18-3.37-0.85-1.4-1.51-3.03-1.98-4.89s-0.73-3.8-0.78-5.83h20.14c0.08 4.79-0.71 8.54-2.37 11.27-1.67 2.72-4.14 4.09-7.41 4.09zm131.51 7.12c0.35 0 0.76-0.02 1.21-0.08 0.45-0.05 0.92-0.16 1.41-0.3 0.49-0.15 0.94-0.32 1.33-0.5 0.4-0.18 0.68-0.37 0.85-0.55 0.16-0.19 0.27-0.36 0.32-0.53 0.06-0.16 0.11-0.38 0.15-0.63 0.04-0.26 0.07-0.64 0.08-1.14 0.01-0.49 0.02-1.16 0.02-2.01 0-0.81-0.01-1.49-0.04-2.05-0.03-0.55-0.08-0.98-0.17-1.29-0.08-0.32-0.18-0.56-0.3-0.72-0.13-0.17-0.3-0.25-0.52-0.25-0.21 0-0.48 0.08-0.8 0.25-0.31 0.16-0.67 0.33-1.06 0.5-0.4 0.16-0.84 0.32-1.34 0.46-0.49 0.15-1.02 0.23-1.6 0.23-0.68 0-1.35-0.19-2.01-0.56-0.65-0.37-1.34-0.97-2.07-1.82-0.72-0.85-1.48-1.97-2.27-3.37-0.8-1.4-1.67-3.11-2.63-5.14v-32.7c0-0.29-0.05-0.54-0.16-0.75-0.11-0.2-0.29-0.37-0.54-0.52-0.24-0.15-0.58-0.26-1.02-0.33-0.44-0.08-1-0.11-1.68-0.11-0.66 0-1.21 0.03-1.64 0.11-0.44 0.07-0.79 0.18-1.05 0.33s-0.44 0.32-0.53 0.52c-0.1 0.21-0.15 0.46-0.15 0.75v49.72c0 0.29 0.04 0.54 0.13 0.74 0.08 0.21 0.24 0.39 0.49 0.56 0.24 0.16 0.56 0.27 0.94 0.33 0.38 0.05 0.89 0.08 1.52 0.08 0.6 0 1.1-0.03 1.5-0.08 0.39-0.06 0.7-0.17 0.92-0.33 0.22-0.17 0.38-0.35 0.47-0.56 0.1-0.2 0.14-0.45 0.14-0.74v-7.24c1.02 1.99 1.97 3.61 2.86 4.86 0.88 1.25 1.73 2.24 2.52 2.96s1.58 1.21 2.36 1.49 1.56 0.41 2.36 0.41zm-44.21 0c3.04 0 5.68-0.6 7.94-1.82 2.25-1.22 4.13-2.98 5.64-5.3 1.5-2.32 2.63-5.14 3.38-8.45 0.76-3.32 1.13-7.06 1.13-11.22 0-4.05-0.4-7.78-1.19-11.18-0.79-3.41-1.97-6.35-3.55-8.82-1.57-2.46-3.54-4.39-5.9-5.77-2.37-1.38-5.11-2.07-8.23-2.07-3.03 0-5.68 0.61-7.94 1.82-2.25 1.22-4.13 2.99-5.64 5.31-1.5 2.32-2.62 5.13-3.36 8.45-0.74 3.31-1.11 7.07-1.11 11.27 0 4.05 0.39 7.78 1.17 11.18 0.78 3.41 1.96 6.35 3.53 8.81 1.57 2.47 3.53 4.39 5.89 5.75 2.35 1.36 5.1 2.04 8.24 2.04zm-41.91 0c2.46 0 4.54-0.56 6.22-1.68s3.04-2.63 4.08-4.5c1.04-1.88 1.78-4.08 2.23-6.61 0.46-2.52 0.68-5.55 0.68-9.08v-30.33c0-0.29-0.05-0.54-0.16-0.75-0.11-0.2-0.29-0.37-0.54-0.52-0.24-0.15-0.58-0.26-1.02-0.33-0.44-0.08-0.99-0.11-1.64-0.11-0.69 0-1.25 0.03-1.68 0.11-0.44 0.07-0.78 0.18-1.03 0.33s-0.42 0.32-0.53 0.52c-0.11 0.21-0.17 0.46-0.17 0.75v29.11c0 2.84-0.16 5.12-0.49 6.85s-0.81 3.22-1.44 4.48c-0.62 1.25-1.44 2.21-2.44 2.87-0.99 0.66-2.15 0.99-3.46 0.99-1.7 0-3.39-0.81-5.09-2.43-1.69-1.62-3.47-3.99-5.33-7.12v-34.75c0-0.29-0.06-0.54-0.17-0.75-0.11-0.2-0.28-0.37-0.53-0.52s-0.59-0.26-1.02-0.33c-0.44-0.08-1-0.11-1.69-0.11-0.65 0-1.2 0.03-1.64 0.11-0.44 0.07-0.78 0.18-1.04 0.33s-0.44 0.32-0.54 0.52c-0.09 0.21-0.14 0.46-0.14 0.75v49.72c0 0.29 0.04 0.54 0.12 0.74 0.08 0.21 0.25 0.39 0.49 0.56 0.25 0.16 0.57 0.27 0.95 0.33 0.38 0.05 0.89 0.08 1.52 0.08 0.6 0 1.1-0.03 1.49-0.08 0.4-0.06 0.71-0.17 0.93-0.33 0.22-0.17 0.37-0.35 0.47-0.56 0.09-0.2 0.14-0.45 0.14-0.74v-6.58c2.08 3.13 4.15 5.43 6.22 6.88 2.06 1.46 4.15 2.18 6.25 2.18zm-45.05 0c2.9 0 5.37-0.62 7.41-1.88 2.04-1.25 3.71-2.93 5.02-5.05 1.32-2.12 2.28-4.6 2.9-7.46 0.61-2.85 0.92-5.9 0.92-9.14v-1.66c0-1.43-0.27-2.45-0.81-3.06-0.53-0.61-1.14-0.91-1.83-0.91h-24.31c0-2.77 0.2-5.25 0.62-7.46 0.41-2.21 1.09-4.11 2.06-5.69 0.96-1.58 2.21-2.8 3.75-3.65 1.54-0.84 3.42-1.27 5.64-1.27 1.76 0 3.33 0.2 4.7 0.58 1.38 0.39 2.57 0.82 3.57 1.3s1.83 0.91 2.47 1.3c0.65 0.39 1.14 0.58 1.47 0.58 0.19 0 0.36-0.07 0.51-0.19 0.15-0.13 0.27-0.33 0.35-0.58 0.08-0.26 0.15-0.62 0.19-1.08s0.06-1.02 0.06-1.69c0-0.48-0.01-0.89-0.04-1.24s-0.06-0.66-0.1-0.94c-0.05-0.27-0.11-0.52-0.21-0.74-0.1-0.23-0.22-0.44-0.37-0.64s-0.59-0.53-1.33-0.99-1.7-0.92-2.87-1.36c-1.18-0.44-2.54-0.84-4.08-1.19-1.55-0.35-3.2-0.52-4.95-0.52-3.03 0-5.69 0.57-7.98 1.71-2.28 1.14-4.2 2.84-5.76 5.08-1.56 2.25-2.74 5.07-3.53 8.46-0.79 3.38-1.19 7.33-1.19 11.82 0 4.27 0.41 8.11 1.23 11.52 0.82 3.4 2.01 6.29 3.55 8.67 1.55 2.37 3.41 4.2 5.6 5.47s4.64 1.9 7.34 1.9zm-39.83 18.95c1.17 0 2.36-0.14 3.55-0.41 1.19-0.28 2.31-0.65 3.36-1.11s1.99-0.97 2.81-1.55c0.82-0.57 1.36-1.03 1.62-1.38s0.43-0.62 0.51-0.82c0.09-0.21 0.15-0.47 0.21-0.78 0.05-0.31 0.09-0.69 0.12-1.13s0.04-1.01 0.04-1.71c0-0.67-0.02-1.26-0.06-1.77-0.04-0.52-0.1-0.95-0.18-1.3-0.09-0.35-0.2-0.61-0.35-0.77-0.15-0.17-0.32-0.25-0.51-0.25-0.31 0-0.78 0.26-1.42 0.77-0.64 0.52-1.43 1.1-2.36 1.74-0.93 0.65-2.03 1.24-3.3 1.77s-2.7 0.8-4.29 0.8c-1.47 0-2.76-0.27-3.85-0.8-1.1-0.53-2-1.24-2.71-2.13-0.71-0.88-1.25-1.93-1.6-3.15-0.36-1.21-0.53-2.5-0.53-3.86 0-1.99 0.34-3.7 1.02-5.14s1.59-2.71 2.73-3.81c1.13-1.11 2.43-2.12 3.88-3.04s2.92-1.85 4.43-2.79c1.5-0.94 2.98-1.97 4.43-3.09 1.45-1.13 2.74-2.45 3.87-3.98 1.14-1.53 2.05-3.33 2.75-5.41s1.05-4.54 1.05-7.38c0-3.35-0.46-6.33-1.38-8.95-0.91-2.61-2.18-4.83-3.81-6.65-1.63-1.83-3.54-3.2-5.74-4.12-2.21-0.92-4.58-1.38-7.12-1.38-1.78 0-3.43 0.2-4.95 0.61-1.51 0.4-2.87 0.9-4.06 1.49s-2.18 1.2-2.99 1.82c-0.81 0.63-1.37 1.16-1.68 1.6-0.32 0.45-0.55 1.01-0.7 1.69s-0.23 1.59-0.23 2.73c0 0.81 0.03 1.49 0.09 2.02 0.05 0.53 0.13 0.97 0.24 1.3s0.25 0.56 0.41 0.69c0.17 0.13 0.36 0.19 0.58 0.19 0.38 0 0.92-0.31 1.62-0.94 0.69-0.62 1.59-1.3 2.68-2.04 1.1-0.74 2.42-1.43 3.96-2.07 1.55-0.65 3.33-0.97 5.36-0.97 1.53 0 2.93 0.28 4.2 0.83s2.37 1.33 3.28 2.35c0.92 1.01 1.62 2.25 2.12 3.73 0.49 1.47 0.73 3.14 0.73 5.02 0 2.03-0.34 3.76-1.02 5.2-0.69 1.43-1.59 2.69-2.71 3.78s-2.4 2.08-3.84 2.98c-1.43 0.9-2.9 1.82-4.4 2.76-1.51 0.94-2.97 1.98-4.39 3.13-1.43 1.14-2.7 2.48-3.82 4.03-1.12 1.54-2.03 3.36-2.73 5.44-0.69 2.08-1.04 4.57-1.04 7.48 0 2.99 0.4 5.65 1.21 7.99 0.8 2.33 1.92 4.3 3.36 5.88s3.15 2.79 5.13 3.62 4.12 1.24 6.42 1.24zm76.43 2.32c1.48 0 2.75-0.38 3.82-1.13 1.06-0.76 2.03-1.59 2.89-2.49s1.67-1.74 2.42-2.51 1.56-1.16 2.44-1.16c0.98 0 1.73 0.49 2.24 1.46 0.5 0.98 0.75 2.42 0.75 4.34 0 0.59 0.15 0.98 0.44 1.19 0.28 0.2 0.9 0.3 1.86 0.3 1.01 0 1.68-0.14 2.01-0.41 0.33-0.28 0.49-0.9 0.49-1.85 0-3.91-0.71-6.89-2.13-8.95-1.42-2.07-3.35-3.1-5.78-3.1-1.01 0-1.92 0.18-2.71 0.53s-1.52 0.8-2.17 1.35c-0.66 0.55-1.26 1.14-1.81 1.77s-1.09 1.21-1.62 1.77c-0.53 0.55-1.06 1-1.58 1.35s-1.08 0.53-1.68 0.53c-1.09 0-1.86-0.54-2.3-1.61-0.44-1.06-0.65-2.48-0.65-4.25 0-0.26-0.03-0.49-0.09-0.69-0.05-0.2-0.17-0.36-0.35-0.47-0.17-0.11-0.43-0.18-0.77-0.22-0.35-0.04-0.78-0.06-1.3-0.06-0.43 0-0.8 0.03-1.1 0.09-0.31 0.05-0.54 0.16-0.72 0.33-0.18 0.16-0.31 0.4-0.39 0.72-0.08 0.31-0.13 0.7-0.13 1.18 0 3.65 0.69 6.56 2.06 8.73 1.36 2.17 3.32 3.26 5.86 3.26z" fill="#ff0" fill-rule="evenodd"/><g class="fragment" data-fragment-index="1"><g><g clip-path="url(#pano-nuevor)"><text transform="matrix(1,0,0,-1,20.784,350.83)" fill="#ffff00" font-family="Wingdings" font-size="38.04px" xml:space="preserve"><tspan x="0" y="0">✓</tspan></text></g></g><g><g clip-path="url(#pano-nuevoq)"><text transform="matrix(1,0,0,-1,65.784,350.83)" fill="#ffff00" font-family="Calibri" font-size="38.04px" xml:space="preserve"><tspan x="0 18.56352 38.382359 49.185719 69.232803 89.203796 109.25088 128.19479 136.48752 155.43144 175.40244 183.99948 204.2748 217.55077 226.29996 240.75516 253.11816 273.16525" y="0">Enfoque en Cristo </tspan></text></g></g><g><g clip-path="url(#pano-nuevop)"><text transform="matrix(1,0,0,-1,347.59,350.83)" fill="#ffff00" font-family="Calibri" font-size="38.04px" xml:space="preserve"><tspan x="0" y="0">–</tspan></text></g></g><g><g clip-path="url(#pano-nuevoo)"><text transform="matrix(1,0,0,-1,375.19,350.83)" fill="#ffff00" font-family="Calibri" font-size="38.04px" font-style="italic" xml:space="preserve"><tspan x="0 23.698919 41.882038 61.434601 74.482323 92.665443 112.17996 126.97752 135.23219 154.51848 173.80476 183.99948" y="0">Hebreos 12:1</tspan></text></g></g><g><g clip-path="url(#pano-nuevon)"><text transform="matrix(1,0,0,-1,578.64,350.83)" fill="#ffff00" font-family="Calibri" font-size="38.04px" font-style="italic" xml:space="preserve"><tspan x="0" y="0">-</tspan></text></g></g><g><g clip-path="url(#pano-nuevom)"><text transform="matrix(1,0,0,-1,590.28,350.83)" fill="#ffff00" font-family="Calibri" font-size="38.04px" font-style="italic" xml:space="preserve"><tspan x="0" y="0">3</tspan></text></g></g></g><g class="fragment" data-fragment-index="2"><g><g clip-path="url(#pano-nuevol)"><text transform="matrix(1,0,0,-1,20.784,259.61)" fill="#ffff00" font-family="Wingdings" font-size="38.04px" xml:space="preserve"><tspan x="0" y="0">✓</tspan></text></g></g><g><g clip-path="url(#pano-nuevok)"><text transform="matrix(1,0,0,-1,65.784,259.61)" fill="#ffff00" font-family="Calibri" font-size="38.04px" xml:space="preserve"><tspan x="0 18.56352 33.018719 45.267601 63.488762 83.459763 92.208961 100.95816 109.78344 129.75444 147.9756 168.06071 176.65776 195.22128 225.61523 245.66232 261.75323 270.50244 290.54953 310.52051 328.74167 337.49088" y="0">Estabilidad Emocional </tspan></text></g></g><g><g clip-path="url(#pano-nuevoj)"><text transform="matrix(1,0,0,-1,411.79,259.61)" fill="#ffff00" font-family="Calibri" font-size="38.04px" xml:space="preserve"><tspan x="0" y="0">–</tspan></text></g></g><g><g clip-path="url(#pano-nuevoi)"><text transform="matrix(1,0,0,-1,439.3,259.61)" fill="#ffff00" font-family="Calibri" font-size="38.04px" font-style="italic" xml:space="preserve"><tspan x="0 17.19408 36.746639 55.9188 68.662201 77.4114 96.963959 116.51652 136.03104 144.47592 163.76221 173.95692 193.24319" y="0">Santiago 1:12</tspan></text></g></g></g><g class="fragment" data-fragment-index="3"><g><g clip-path="url(#pano-nuevoh)"><text transform="matrix(1,0,0,-1,20.784,168.38)" fill="#ffff00" font-family="Wingdings" font-size="38.04px" xml:space="preserve"><tspan x="0" y="0">✓</tspan></text></g></g><g><g clip-path="url(#pano-nuevog)"><text transform="matrix(1,0,0,-1,65.784,168.38)" fill="#ffff00" font-family="Calibri" font-size="38.04px" xml:space="preserve"><tspan x="0 25.18248 38.458439 47.207642 66.151558 85.932358 98.181236 116.4024 132.49332 141.24252 161.2896 181.2606 189.74352 211.76868 231.73969 244.10268 264.14975 277.42572 286.17493 298.46185 316.68301 329.95895 338.70816 356.92932" y="0">Orientación Autoritaria </tspan></text></g></g><g><g clip-path="url(#pano-nuevof)"><text transform="matrix(1,0,0,-1,431.38,168.38)" fill="#ffff00" font-family="Calibri" font-size="38.04px" xml:space="preserve"><tspan x="0" y="0">–</tspan></text></g></g><g><g clip-path="url(#pano-nuevoe)"><text transform="matrix(1,0,0,-1,458.86,168.38)" fill="#ffff00" font-family="Calibri" font-size="38.04px" font-style="italic" xml:space="preserve"><tspan x="0 17.19408 36.746639 55.9188 68.662201 77.4114 96.963959 116.51652 136.03104 144.3618 163.64809 173.8428 193.12907" y="0">Santiago 4:10</tspan></text></g></g></g><g class="fragment" data-fragment-index="4"><g><g clip-path="url(#pano-nuevod)"><text transform="matrix(1,0,0,-1,20.784,77.16)" fill="#ffff00" font-family="Wingdings" font-size="38.04px" xml:space="preserve"><tspan x="0" y="0">✓</tspan></text></g></g><g><g clip-path="url(#pano-nuevoc)"><text transform="matrix(1,0,0,-1,65.784,77.16)" fill="#ffff00" font-family="Calibri" font-size="38.04px" xml:space="preserve"><tspan x="0 15.9768 24.726 39.105122 51.468121 71.515198 80.112244 100.08324 118.38048 130.97173 149.19289 157.78992 175.25027 194.1942 207.85056 225.04465 233.79384 247.06979" y="0">Listo para Servir </tspan></text></g></g><g><g clip-path="url(#pano-nuevob)"><text transform="matrix(1,0,0,-1,321.31,77.16)" fill="#ffff00" font-family="Calibri" font-size="38.04px" xml:space="preserve"><tspan x="0" y="0">–</tspan></text></g></g><g><g clip-path="url(#pano-nuevoa)"><text transform="matrix(1,0,0,-1,348.91,77.16)" fill="#ffff00" font-family="Calibri" font-size="38.04px" font-style="italic" xml:space="preserve"><tspan x="0 19.932961 39.447479 69.537117 89.089684 108.64224 128.15675 142.95432 151.209 170.49529 189.78156 199.97627" y="0">Romanos 12:1</tspan></text></g></g></g></g></svg>
