<?xml version="1.0" encoding="UTF-8" standalone="no"?>
<!-- Created with Inkscape (http://www.inkscape.org/) -->

<svg
   width="1343.9664"
   height="1007.9747"
   version="1.1"
   viewBox="0 0 959.97602 719.98191"
   id="svg339"
   sodipodi:docname="union-hipostatica.svg"
   inkscape:version="1.2.2 (732a01da63, 2022-12-09)"
   xmlns:inkscape="http://www.inkscape.org/namespaces/inkscape"
   xmlns:sodipodi="http://sodipodi.sourceforge.net/DTD/sodipodi-0.dtd"
   xmlns="http://www.w3.org/2000/svg"
   xmlns:svg="http://www.w3.org/2000/svg">
  <sodipodi:namedview
     id="namedview341"
     pagecolor="#505050"
     bordercolor="#eeeeee"
     borderopacity="1"
     inkscape:showpageshadow="0"
     inkscape:pageopacity="0"
     inkscape:pagecheckerboard="0"
     inkscape:deskcolor="#505050"
     showgrid="false"
     inkscape:zoom="1.1305556"
     inkscape:cx="303.83292"
     inkscape:cy="195.03686"
     inkscape:window-width="1920"
     inkscape:window-height="1001"
     inkscape:window-x="-9"
     inkscape:window-y="-9"
     inkscape:window-maximized="1"
     inkscape:current-layer="svg339" />
  <defs
     id="defs95">
    <clipPath
       id="clipPath4814">
      <path
         d="M 0,1.2207e-4 H 720 V 540.00012 H 0 Z"
         clip-rule="evenodd"
         id="path2" />
    </clipPath>
    <clipPath
       id="clipPath4824">
      <path
         d="M -7.6294e-5,540 H 719.99992 V 0 H -7.6294e-5"
         clip-rule="evenodd"
         id="path5" />
    </clipPath>
    <clipPath
       id="clipPath4834">
      <path
         d="M -7.6294e-5,540 H 719.99992 V 0 H -7.6294e-5"
         clip-rule="evenodd"
         id="path8" />
    </clipPath>
    <clipPath
       id="clipPath4846">
      <path
         d="M 1.0729e-5,0 H 720.00001 V 540 H 1.0729e-5 Z"
         clip-rule="evenodd"
         id="path11" />
    </clipPath>
    <clipPath
       id="clipPath4858">
      <path
         d="M -3.0518e-5,540 H 719.99997 V 0 L -3.0518e-5,-6.1035e-5"
         clip-rule="evenodd"
         id="path14" />
    </clipPath>
    <clipPath
       id="clipPath4868">
      <path
         d="M -6.1035e-5,540 H 719.99994 V 0 L -6.1035e-5,-6.1035e-5"
         clip-rule="evenodd"
         id="path17" />
    </clipPath>
    <clipPath
       id="clipPath4878">
      <path
         d="M 1.0729e-5,0 H 720.00001 V 540 H 1.0729e-5 Z"
         clip-rule="evenodd"
         id="path20" />
    </clipPath>
    <clipPath
       id="clipPath4890">
      <path
         d="M 1.0729e-5,0 H 720.00001 V 540 H 1.0729e-5 Z"
         clip-rule="evenodd"
         id="path23" />
    </clipPath>
    <clipPath
       id="clipPath4902">
      <path
         d="M 1.0729e-5,0 H 720.00001 V 540 H 1.0729e-5 Z"
         clip-rule="evenodd"
         id="path26" />
    </clipPath>
    <clipPath
       id="clipPath4914">
      <path
         d="M 1.0729e-5,0 H 720.00001 V 540 H 1.0729e-5 Z"
         clip-rule="evenodd"
         id="path29" />
    </clipPath>
    <clipPath
       id="clipPath4926">
      <path
         d="M 1.0729e-5,0 H 720.00001 V 540 H 1.0729e-5 Z"
         clip-rule="evenodd"
         id="path32" />
    </clipPath>
    <clipPath
       id="clipPath4938">
      <path
         d="M 1.0729e-5,0 H 720.00001 V 540 H 1.0729e-5 Z"
         clip-rule="evenodd"
         id="path35" />
    </clipPath>
    <clipPath
       id="clipPath4950">
      <path
         d="M 1.0729e-5,0 H 720.00001 V 540 H 1.0729e-5 Z"
         clip-rule="evenodd"
         id="path38" />
    </clipPath>
    <clipPath
       id="clipPath4962">
      <path
         d="M 1.0729e-5,0 H 720.00001 V 540 H 1.0729e-5 Z"
         clip-rule="evenodd"
         id="path41" />
    </clipPath>
    <clipPath
       id="clipPath4974">
      <path
         d="M 1.0729e-5,0 H 720.00001 V 540 H 1.0729e-5 Z"
         clip-rule="evenodd"
         id="path44" />
    </clipPath>
    <clipPath
       id="clipPath4986">
      <path
         d="M 1.0729e-5,0 H 720.00001 V 540 H 1.0729e-5 Z"
         clip-rule="evenodd"
         id="path47" />
    </clipPath>
    <clipPath
       id="clipPath4998">
      <path
         d="M 1.0729e-5,0 H 720.00001 V 540 H 1.0729e-5 Z"
         clip-rule="evenodd"
         id="path50" />
    </clipPath>
    <clipPath
       id="clipPath5010">
      <path
         d="M 1.0729e-5,0 H 720.00001 V 540 H 1.0729e-5 Z"
         clip-rule="evenodd"
         id="path53" />
    </clipPath>
    <clipPath
       id="clipPath5022">
      <path
         d="M 1.0729e-5,0 H 720.00001 V 540 H 1.0729e-5 Z"
         clip-rule="evenodd"
         id="path56" />
    </clipPath>
    <clipPath
       id="clipPath5034">
      <path
         d="M 1.0729e-5,0 H 720.00001 V 540 H 1.0729e-5 Z"
         clip-rule="evenodd"
         id="path59" />
    </clipPath>
    <clipPath
       id="clipPath5046">
      <path
         d="M 1.0729e-5,0 H 720.00001 V 540 H 1.0729e-5 Z"
         clip-rule="evenodd"
         id="path62" />
    </clipPath>
    <clipPath
       id="clipPath5058">
      <path
         d="M 1.0729e-5,0 H 720.00001 V 540 H 1.0729e-5 Z"
         clip-rule="evenodd"
         id="path65" />
    </clipPath>
    <clipPath
       id="clipPath5070">
      <path
         d="M 1.0729e-5,0 H 720.00001 V 540 H 1.0729e-5 Z"
         clip-rule="evenodd"
         id="path68" />
    </clipPath>
    <clipPath
       id="clipPath5082">
      <path
         d="M 1.0729e-5,0 H 720.00001 V 540 H 1.0729e-5 Z"
         clip-rule="evenodd"
         id="path71" />
    </clipPath>
    <clipPath
       id="clipPath5094">
      <path
         d="M 1.0729e-5,0 H 720.00001 V 540 H 1.0729e-5 Z"
         clip-rule="evenodd"
         id="path74" />
    </clipPath>
    <clipPath
       id="clipPath5106">
      <path
         d="M 1.0729e-5,0 H 720.00001 V 540 H 1.0729e-5 Z"
         clip-rule="evenodd"
         id="path77" />
    </clipPath>
    <clipPath
       id="clipPath5118">
      <path
         d="M 1.0729e-5,0 H 720.00001 V 540 H 1.0729e-5 Z"
         clip-rule="evenodd"
         id="path80" />
    </clipPath>
    <clipPath
       id="clipPath5130">
      <path
         d="M 1.0729e-5,0 H 720.00001 V 540 H 1.0729e-5 Z"
         clip-rule="evenodd"
         id="path83" />
    </clipPath>
    <clipPath
       id="clipPath5142">
      <path
         d="M 1.0729e-5,0 H 720.00001 V 540 H 1.0729e-5 Z"
         clip-rule="evenodd"
         id="path86" />
    </clipPath>
    <clipPath
       id="clipPath5154">
      <path
         d="M 1.0729e-5,0 H 720.00001 V 540 H 1.0729e-5 Z"
         clip-rule="evenodd"
         id="path89" />
    </clipPath>
    <clipPath
       id="clipPath5166">
      <path
         d="M 1.0729e-5,0 H 720.00001 V 540 H 1.0729e-5 Z"
         clip-rule="evenodd"
         id="path92" />
    </clipPath>
  </defs>
  <g
     transform="matrix(1.3333,0,0,-1.3333,0,719.98208)"
     id="g337">
    <g
       id="g101">
      <g
         clip-path="url(#clipPath4814)"
         id="g99">
        <path
           d="M 0,6.1035e-5 H 720 V 540.00006 H 0 Z"
           fill="#254061"
           fill-rule="evenodd"
           id="path97" />
      </g>
    </g>
    <g
       id="g107">
      <g
         clip-path="url(#clipPath4824)"
         id="g105">
        <path
           d="m 234.03,108.51 c -29.21,29.38 9.03,114.74 85.4,190.68 76.37,75.93 161.96,113.67 191.16,84.3 C 539.8,354.11 501.56,268.75 425.19,192.81 348.82,116.88 263.23,79.14 234.03,108.51 Z"
           fill="#ffff00"
           fill-rule="evenodd"
           id="path103" />
      </g>
    </g>
    <g
       id="g113">
      <g
         clip-path="url(#clipPath4834)"
         id="g111">
        <path
           d="m 234.03,108.51 c -29.21,29.38 9.03,114.74 85.4,190.68 76.37,75.93 161.96,113.67 191.16,84.3 C 539.8,354.11 501.56,268.75 425.19,192.81 348.82,116.88 263.23,79.14 234.03,108.51 Z"
           fill="none"
           stroke="#ff0000"
           stroke-linejoin="round"
           stroke-miterlimit="10"
           stroke-width="3"
           id="path109" />
      </g>
    </g>
    <path
       d="m 234.06,107.94 276,276"
       fill="none"
       stroke="#000000"
       stroke-linejoin="round"
       stroke-miterlimit="10"
       stroke-width="2.25"
       id="path115" />
    <g
       id="g123">
      <g
         clip-path="url(#clipPath4846)"
         id="g121">
        <text
           transform="matrix(1,0,0,-1,119.74,466.37)"
           fill="#ffff00"
           font-family="Calibri"
           font-size="54px"
           font-weight="bold"
           xml:space="preserve"
           id="text119"><tspan
             x="0 22.841999 49.518002 61.722 97.146004 126.144 139.42799 168.48 197.478 209.68201 243.756 257.04001 286.03799 315.09 336.20401 354.45599 380.646 399.384 412.668 434.97"
             y="0"
             id="tspan117">La Unión Hipostática</tspan></text>
      </g>
    </g>
    <g
       id="g129">
      <g
         clip-path="url(#clipPath4858)"
         id="g127">
        <path
           d="m 286.41,196.7 c 0.17,-0.16 0.29,-0.34 0.37,-0.53 0.08,-0.19 0.11,-0.38 0.1,-0.57 -0.01,-0.19 -0.06,-0.37 -0.15,-0.55 -0.1,-0.18 -0.21,-0.34 -0.35,-0.48 l -1.22,-1.26 c -0.26,-0.26 -0.5,-0.46 -0.74,-0.6 -0.24,-0.14 -0.51,-0.22 -0.8,-0.24 -0.3,-0.03 -0.63,0 -1.01,0.08 -0.39,0.08 -0.85,0.21 -1.41,0.38 l -10.29,3 c -0.61,0.19 -1.25,0.4 -1.93,0.64 -0.68,0.24 -1.32,0.48 -1.93,0.74 l -0.02,-0.02 c 0.57,-0.5 1.12,-1 1.67,-1.5 0.55,-0.51 1.11,-1.04 1.68,-1.59 l 7.58,-7.39 c 0.07,-0.08 0.12,-0.16 0.14,-0.26 0.02,-0.1 0,-0.22 -0.05,-0.36 -0.06,-0.14 -0.16,-0.31 -0.31,-0.5 -0.14,-0.2 -0.35,-0.43 -0.61,-0.7 -0.25,-0.26 -0.48,-0.46 -0.67,-0.61 -0.19,-0.15 -0.35,-0.26 -0.48,-0.31 -0.14,-0.06 -0.26,-0.08 -0.35,-0.06 -0.1,0.02 -0.18,0.07 -0.26,0.14 l -13.03,12.7 c -0.35,0.35 -0.51,0.7 -0.49,1.08 0.03,0.38 0.19,0.72 0.48,1.01 l 1.54,1.58 c 0.28,0.29 0.53,0.5 0.77,0.65 0.24,0.15 0.49,0.24 0.75,0.29 0.26,0.04 0.56,0.03 0.88,-0.03 0.33,-0.05 0.71,-0.16 1.14,-0.3 l 8.05,-2.34 c 0.48,-0.15 0.96,-0.29 1.42,-0.44 0.47,-0.14 0.93,-0.28 1.39,-0.44 0.45,-0.15 0.9,-0.3 1.34,-0.45 0.43,-0.15 0.87,-0.3 1.3,-0.46 l 0.01,0.01 c -0.55,0.49 -1.11,1 -1.69,1.55 -0.58,0.54 -1.12,1.06 -1.64,1.56 l -6.8,6.63 c -0.07,0.07 -0.12,0.16 -0.13,0.27 -0.02,0.1 0,0.22 0.06,0.37 0.06,0.15 0.16,0.32 0.31,0.51 0.15,0.19 0.35,0.42 0.61,0.69 0.25,0.25 0.47,0.46 0.65,0.61 0.19,0.15 0.35,0.25 0.49,0.3 0.13,0.05 0.25,0.07 0.34,0.05 0.1,-0.02 0.19,-0.07 0.26,-0.14 z m 11.91,10.85 c 0.1,-0.1 0.15,-0.22 0.14,-0.35 -0.02,-0.13 -0.09,-0.29 -0.22,-0.48 -0.13,-0.18 -0.35,-0.43 -0.65,-0.75 -0.33,-0.33 -0.58,-0.56 -0.76,-0.69 -0.17,-0.13 -0.32,-0.2 -0.44,-0.2 -0.13,-0.01 -0.24,0.04 -0.34,0.14 l -0.8,0.78 c 0.04,-0.84 -0.07,-1.64 -0.34,-2.41 -0.26,-0.77 -0.71,-1.47 -1.34,-2.11 -0.51,-0.54 -1.06,-0.95 -1.63,-1.26 -0.57,-0.31 -1.15,-0.5 -1.74,-0.56 -0.59,-0.06 -1.17,0.02 -1.75,0.23 -0.58,0.22 -1.14,0.59 -1.68,1.11 -0.58,0.57 -0.97,1.18 -1.18,1.82 -0.21,0.65 -0.23,1.34 -0.07,2.06 0.16,0.72 0.5,1.49 1.02,2.29 0.52,0.81 1.22,1.65 2.08,2.54 l 0.95,0.97 -0.6,0.59 c -0.32,0.31 -0.62,0.55 -0.92,0.71 -0.3,0.17 -0.59,0.25 -0.89,0.26 -0.3,0.01 -0.61,-0.07 -0.92,-0.24 -0.31,-0.17 -0.64,-0.44 -0.99,-0.8 -0.46,-0.47 -0.81,-0.94 -1.07,-1.41 -0.26,-0.47 -0.46,-0.91 -0.61,-1.32 -0.15,-0.4 -0.26,-0.75 -0.35,-1.05 -0.08,-0.29 -0.18,-0.5 -0.29,-0.61 -0.08,-0.09 -0.18,-0.13 -0.29,-0.15 -0.12,-0.01 -0.24,0.01 -0.38,0.07 -0.14,0.05 -0.29,0.13 -0.45,0.25 -0.16,0.12 -0.33,0.26 -0.5,0.42 -0.24,0.23 -0.4,0.43 -0.5,0.6 -0.1,0.16 -0.15,0.35 -0.16,0.56 0,0.21 0.06,0.51 0.18,0.9 0.13,0.39 0.3,0.82 0.53,1.28 0.23,0.46 0.51,0.93 0.85,1.41 0.33,0.48 0.71,0.95 1.14,1.39 0.77,0.78 1.5,1.38 2.19,1.78 0.7,0.41 1.38,0.64 2.05,0.69 0.66,0.05 1.33,-0.09 1.99,-0.41 0.66,-0.33 1.33,-0.82 2.02,-1.49 z m -6.98,1.41 -1.05,-1.08 c -0.44,-0.45 -0.79,-0.87 -1.03,-1.26 -0.25,-0.39 -0.4,-0.75 -0.46,-1.08 -0.07,-0.33 -0.05,-0.64 0.05,-0.92 0.1,-0.28 0.28,-0.53 0.52,-0.78 0.42,-0.4 0.88,-0.59 1.37,-0.56 0.5,0.03 0.98,0.28 1.44,0.76 0.39,0.39 0.64,0.85 0.76,1.38 0.12,0.53 0.16,1.16 0.1,1.88 z m 14.32,8.16 c 0.32,-0.32 0.56,-0.59 0.69,-0.8 0.14,-0.21 0.21,-0.39 0.21,-0.52 0.01,-0.14 -0.02,-0.3 -0.1,-0.49 -0.07,-0.18 -0.17,-0.38 -0.3,-0.6 -0.13,-0.21 -0.28,-0.43 -0.46,-0.66 -0.18,-0.23 -0.37,-0.45 -0.57,-0.66 -0.55,-0.56 -1.09,-0.97 -1.63,-1.24 -0.55,-0.28 -1.1,-0.4 -1.65,-0.38 -0.56,0.01 -1.13,0.18 -1.7,0.49 -0.57,0.31 -1.16,0.76 -1.77,1.36 l -5.12,4.99 -1.17,-1.2 c -0.14,-0.14 -0.33,-0.16 -0.58,-0.07 -0.25,0.1 -0.58,0.35 -0.99,0.75 -0.22,0.21 -0.39,0.4 -0.52,0.56 -0.13,0.17 -0.22,0.31 -0.27,0.43 -0.05,0.12 -0.07,0.23 -0.05,0.32 0.02,0.09 0.06,0.18 0.13,0.25 l 1.16,1.19 -2.23,2.17 c -0.07,0.07 -0.12,0.16 -0.14,0.26 -0.02,0.1 0,0.22 0.07,0.37 0.06,0.15 0.18,0.32 0.34,0.52 0.15,0.21 0.37,0.44 0.63,0.71 0.27,0.28 0.5,0.5 0.7,0.66 0.19,0.17 0.36,0.28 0.51,0.35 0.14,0.06 0.26,0.09 0.37,0.07 0.1,-0.01 0.19,-0.05 0.26,-0.13 l 2.23,-2.17 2.12,2.17 c 0.07,0.08 0.16,0.12 0.25,0.14 0.09,0.02 0.2,0.01 0.32,-0.04 0.12,-0.04 0.27,-0.13 0.44,-0.26 0.16,-0.12 0.36,-0.29 0.57,-0.5 0.41,-0.4 0.67,-0.73 0.77,-0.97 0.1,-0.25 0.09,-0.44 -0.05,-0.58 l -2.13,-2.19 4.69,-4.57 c 0.55,-0.54 1.04,-0.85 1.48,-0.94 0.44,-0.1 0.87,0.08 1.3,0.52 0.15,0.15 0.27,0.29 0.36,0.44 0.09,0.14 0.16,0.28 0.22,0.41 0.06,0.12 0.1,0.23 0.14,0.32 0.04,0.09 0.08,0.16 0.13,0.21 0.04,0.04 0.1,0.07 0.16,0.09 0.07,0.02 0.15,0 0.25,-0.06 0.1,-0.05 0.23,-0.13 0.38,-0.25 0.16,-0.11 0.34,-0.27 0.55,-0.47 z m 12.25,10.59 c 0.07,-0.07 0.12,-0.15 0.14,-0.25 0.02,-0.09 0,-0.2 -0.05,-0.33 -0.06,-0.13 -0.15,-0.28 -0.28,-0.45 -0.13,-0.17 -0.31,-0.37 -0.54,-0.61 -0.24,-0.24 -0.44,-0.43 -0.61,-0.57 -0.17,-0.13 -0.31,-0.23 -0.44,-0.28 -0.12,-0.05 -0.23,-0.07 -0.32,-0.05 -0.09,0.01 -0.18,0.06 -0.25,0.13 l -1.16,1.13 c 0.06,-1.14 -0.04,-2.14 -0.3,-3 -0.25,-0.86 -0.68,-1.6 -1.28,-2.21 -0.67,-0.69 -1.34,-1.16 -2.02,-1.4 -0.68,-0.25 -1.36,-0.33 -2.02,-0.24 -0.67,0.09 -1.32,0.32 -1.95,0.7 -0.64,0.37 -1.33,0.93 -2.09,1.68 l -6.12,5.96 c -0.08,0.07 -0.12,0.16 -0.14,0.25 -0.01,0.1 0.01,0.22 0.08,0.36 0.07,0.15 0.18,0.32 0.34,0.52 0.16,0.2 0.37,0.44 0.64,0.71 0.27,0.27 0.5,0.49 0.69,0.65 0.19,0.16 0.36,0.28 0.51,0.35 0.14,0.07 0.26,0.1 0.36,0.09 0.1,0 0.19,-0.05 0.26,-0.12 l 5.65,-5.5 c 0.52,-0.51 0.95,-0.87 1.29,-1.07 0.35,-0.2 0.68,-0.33 1.01,-0.39 0.34,-0.05 0.66,-0.03 0.98,0.08 0.31,0.11 0.61,0.31 0.89,0.59 0.35,0.36 0.57,0.84 0.66,1.46 0.09,0.62 0.09,1.38 -0.01,2.28 l -6.65,6.47 c -0.07,0.07 -0.12,0.16 -0.13,0.25 -0.02,0.1 0.01,0.22 0.08,0.36 0.06,0.15 0.18,0.32 0.33,0.52 0.16,0.2 0.37,0.43 0.64,0.71 0.27,0.27 0.5,0.49 0.69,0.65 0.2,0.17 0.36,0.28 0.5,0.35 0.14,0.07 0.26,0.1 0.36,0.09 0.1,-0.01 0.19,-0.06 0.26,-0.13 z m -0.07,18.06 c 0.27,-0.26 0.48,-0.48 0.64,-0.66 0.16,-0.18 0.27,-0.34 0.34,-0.46 0.07,-0.13 0.09,-0.23 0.08,-0.32 -0.01,-0.08 -0.05,-0.16 -0.12,-0.24 -0.06,-0.06 -0.14,-0.11 -0.24,-0.16 -0.09,-0.05 -0.2,-0.11 -0.33,-0.17 -0.12,-0.06 -0.24,-0.14 -0.38,-0.23 -0.13,-0.08 -0.27,-0.19 -0.4,-0.33 -0.15,-0.15 -0.27,-0.34 -0.36,-0.56 -0.09,-0.22 -0.15,-0.48 -0.18,-0.78 -0.03,-0.3 -0.02,-0.65 0.02,-1.05 0.05,-0.4 0.13,-0.87 0.26,-1.39 l 6.23,-6.08 c 0.07,-0.07 0.12,-0.16 0.13,-0.26 0.01,-0.09 -0.02,-0.22 -0.09,-0.36 -0.06,-0.15 -0.18,-0.32 -0.33,-0.51 -0.16,-0.2 -0.37,-0.44 -0.64,-0.72 -0.27,-0.27 -0.5,-0.49 -0.69,-0.65 -0.2,-0.16 -0.37,-0.28 -0.51,-0.35 -0.14,-0.07 -0.26,-0.1 -0.36,-0.09 -0.1,0.01 -0.19,0.05 -0.26,0.12 l -10,9.74 c -0.07,0.07 -0.12,0.16 -0.14,0.25 -0.02,0.09 0,0.2 0.06,0.34 0.06,0.13 0.15,0.28 0.28,0.45 0.13,0.18 0.31,0.38 0.53,0.61 0.24,0.24 0.44,0.43 0.61,0.57 0.17,0.13 0.32,0.23 0.44,0.28 0.12,0.05 0.23,0.06 0.32,0.05 0.09,-0.02 0.18,-0.07 0.25,-0.14 l 1.24,-1.21 c -0.11,0.62 -0.18,1.17 -0.2,1.64 -0.02,0.47 0.01,0.87 0.07,1.22 0.06,0.35 0.17,0.65 0.31,0.92 0.15,0.26 0.33,0.5 0.53,0.71 0.1,0.09 0.2,0.19 0.32,0.3 0.12,0.1 0.26,0.19 0.4,0.29 0.14,0.09 0.27,0.17 0.39,0.22 0.12,0.06 0.22,0.09 0.3,0.1 0.08,0 0.15,-0.01 0.21,-0.03 0.06,-0.03 0.14,-0.07 0.24,-0.13 0.09,-0.07 0.22,-0.17 0.38,-0.31 0.17,-0.15 0.38,-0.35 0.65,-0.62 z m 18.59,0.88 c 0.11,-0.1 0.15,-0.22 0.14,-0.35 -0.01,-0.14 -0.08,-0.3 -0.21,-0.48 -0.13,-0.19 -0.35,-0.44 -0.66,-0.75 -0.33,-0.34 -0.58,-0.57 -0.75,-0.7 -0.18,-0.13 -0.33,-0.19 -0.45,-0.2 -0.12,0 -0.23,0.05 -0.34,0.15 l -0.79,0.77 c 0.04,-0.84 -0.08,-1.64 -0.34,-2.41 -0.27,-0.76 -0.72,-1.47 -1.34,-2.11 -0.52,-0.53 -1.06,-0.95 -1.63,-1.26 -0.58,-0.31 -1.16,-0.49 -1.75,-0.55 -0.58,-0.06 -1.17,0.01 -1.75,0.23 -0.57,0.21 -1.13,0.58 -1.67,1.11 -0.58,0.56 -0.98,1.17 -1.18,1.82 -0.21,0.64 -0.24,1.33 -0.07,2.05 0.16,0.73 0.5,1.49 1.02,2.3 0.52,0.8 1.21,1.65 2.08,2.53 l 0.95,0.98 -0.61,0.59 c -0.31,0.3 -0.62,0.54 -0.91,0.71 -0.3,0.16 -0.6,0.25 -0.9,0.26 -0.3,0 -0.6,-0.08 -0.91,-0.25 -0.31,-0.17 -0.64,-0.43 -0.99,-0.79 -0.46,-0.47 -0.82,-0.94 -1.07,-1.41 -0.26,-0.48 -0.46,-0.92 -0.61,-1.32 -0.15,-0.41 -0.27,-0.76 -0.35,-1.05 -0.08,-0.29 -0.18,-0.5 -0.3,-0.62 -0.08,-0.08 -0.17,-0.13 -0.29,-0.14 -0.11,-0.01 -0.24,0.01 -0.37,0.06 -0.14,0.05 -0.29,0.14 -0.46,0.25 -0.16,0.12 -0.33,0.26 -0.5,0.43 -0.23,0.22 -0.4,0.42 -0.49,0.59 -0.1,0.17 -0.15,0.36 -0.16,0.57 -0.01,0.21 0.05,0.51 0.18,0.9 0.12,0.38 0.3,0.81 0.53,1.27 0.23,0.46 0.51,0.93 0.84,1.42 0.34,0.48 0.72,0.94 1.15,1.38 0.76,0.79 1.49,1.38 2.19,1.79 0.69,0.41 1.37,0.63 2.04,0.68 0.67,0.05 1.33,-0.09 1.99,-0.41 0.66,-0.32 1.34,-0.82 2.02,-1.49 z m -6.97,1.4 -1.05,-1.07 c -0.44,-0.46 -0.79,-0.88 -1.04,-1.27 -0.24,-0.38 -0.4,-0.74 -0.46,-1.07 -0.06,-0.34 -0.04,-0.64 0.06,-0.92 0.1,-0.28 0.27,-0.54 0.52,-0.78 0.42,-0.41 0.87,-0.6 1.37,-0.56 0.5,0.03 0.98,0.28 1.43,0.75 0.39,0.4 0.64,0.86 0.77,1.39 0.12,0.53 0.15,1.15 0.1,1.87 z m 12.45,4.28 c 0.08,-0.07 0.12,-0.16 0.13,-0.26 0.01,-0.1 -0.01,-0.22 -0.08,-0.36 -0.07,-0.15 -0.18,-0.32 -0.34,-0.52 -0.16,-0.19 -0.37,-0.43 -0.64,-0.71 -0.27,-0.27 -0.5,-0.49 -0.69,-0.65 -0.19,-0.16 -0.36,-0.28 -0.51,-0.35 -0.14,-0.07 -0.26,-0.1 -0.36,-0.09 -0.1,0 -0.19,0.05 -0.26,0.12 l -14.73,14.36 c -0.08,0.07 -0.12,0.16 -0.14,0.26 -0.01,0.11 0.01,0.23 0.07,0.38 0.07,0.15 0.18,0.32 0.33,0.53 0.15,0.2 0.36,0.44 0.63,0.71 0.27,0.28 0.51,0.49 0.7,0.65 0.2,0.16 0.37,0.27 0.52,0.34 0.14,0.07 0.27,0.1 0.37,0.08 0.11,-0.01 0.2,-0.05 0.27,-0.13 z m 6.49,17.23 c 0.34,-0.33 0.52,-0.65 0.54,-0.97 0.01,-0.31 -0.11,-0.6 -0.37,-0.87 l -5.93,-6.08 c 0.42,-0.42 0.86,-0.74 1.3,-0.98 0.45,-0.24 0.9,-0.37 1.36,-0.38 0.46,-0.02 0.92,0.08 1.38,0.31 0.47,0.22 0.94,0.58 1.41,1.06 0.48,0.49 0.87,0.96 1.16,1.4 0.29,0.45 0.53,0.85 0.71,1.2 0.18,0.36 0.32,0.66 0.43,0.91 0.1,0.25 0.21,0.43 0.32,0.54 0.06,0.07 0.13,0.11 0.2,0.13 0.07,0.02 0.15,0.01 0.25,-0.02 0.09,-0.04 0.21,-0.11 0.34,-0.22 0.14,-0.11 0.3,-0.26 0.48,-0.44 0.17,-0.16 0.31,-0.3 0.41,-0.42 0.11,-0.12 0.2,-0.23 0.27,-0.32 0.07,-0.1 0.11,-0.19 0.14,-0.27 0.03,-0.09 0.04,-0.18 0.05,-0.28 0,-0.1 -0.06,-0.3 -0.18,-0.6 -0.12,-0.31 -0.3,-0.67 -0.54,-1.09 -0.24,-0.42 -0.54,-0.88 -0.9,-1.37 -0.36,-0.5 -0.78,-0.99 -1.26,-1.48 -0.87,-0.89 -1.74,-1.56 -2.62,-2.01 -0.87,-0.45 -1.76,-0.68 -2.65,-0.68 -0.89,0 -1.79,0.22 -2.7,0.68 -0.91,0.46 -1.83,1.14 -2.76,2.05 -0.89,0.87 -1.58,1.76 -2.07,2.69 -0.49,0.93 -0.76,1.85 -0.83,2.78 -0.07,0.92 0.08,1.83 0.43,2.71 0.35,0.89 0.92,1.73 1.69,2.52 0.81,0.83 1.63,1.43 2.46,1.78 0.82,0.36 1.64,0.51 2.45,0.47 0.81,-0.05 1.6,-0.27 2.37,-0.68 0.77,-0.4 1.51,-0.94 2.21,-1.63 z m -3.47,-1.94 c -0.77,0.79 -1.55,1.24 -2.33,1.34 -0.78,0.1 -1.52,-0.2 -2.21,-0.91 -0.35,-0.36 -0.59,-0.74 -0.71,-1.13 -0.13,-0.4 -0.16,-0.8 -0.1,-1.2 0.05,-0.39 0.19,-0.79 0.41,-1.18 0.22,-0.4 0.5,-0.78 0.83,-1.13 z m 16.77,6.56 c 0.22,-0.21 0.39,-0.4 0.53,-0.58 0.13,-0.17 0.22,-0.32 0.27,-0.44 0.05,-0.12 0.07,-0.23 0.04,-0.33 -0.02,-0.09 -0.07,-0.17 -0.14,-0.25 l -6.37,-6.53 c -0.2,-0.2 -0.41,-0.29 -0.65,-0.27 -0.24,0.03 -0.52,0.19 -0.82,0.49 l -0.52,0.5 c -0.13,0.13 -0.25,0.25 -0.35,0.37 -0.09,0.12 -0.18,0.24 -0.24,0.37 -0.07,0.14 -0.13,0.28 -0.18,0.44 -0.05,0.16 -0.1,0.34 -0.14,0.56 l -2.13,9.37 -3.45,-3.54 c -0.14,-0.14 -0.34,-0.17 -0.6,-0.08 -0.26,0.09 -0.59,0.33 -0.99,0.72 -0.22,0.21 -0.39,0.39 -0.51,0.55 -0.13,0.16 -0.22,0.3 -0.27,0.43 -0.05,0.12 -0.06,0.23 -0.04,0.32 0.02,0.1 0.07,0.19 0.15,0.27 l 5.95,6.1 c 0.1,0.11 0.2,0.19 0.3,0.24 0.09,0.05 0.19,0.07 0.3,0.06 0.11,-0.01 0.23,-0.05 0.36,-0.12 0.13,-0.08 0.27,-0.19 0.43,-0.35 l 0.54,-0.53 c 0.15,-0.15 0.28,-0.28 0.38,-0.41 0.1,-0.13 0.19,-0.26 0.27,-0.39 0.07,-0.13 0.13,-0.28 0.18,-0.44 0.05,-0.15 0.1,-0.33 0.15,-0.52 l 2.14,-9.34 3.85,3.94 c 0.06,0.07 0.14,0.12 0.23,0.15 0.08,0.03 0.19,0.02 0.31,-0.02 0.12,-0.04 0.27,-0.11 0.44,-0.23 0.16,-0.12 0.36,-0.29 0.58,-0.51 z m 10.92,9.59 c 0.11,-0.11 0.15,-0.22 0.14,-0.36 -0.01,-0.13 -0.08,-0.29 -0.21,-0.47 -0.13,-0.19 -0.35,-0.44 -0.66,-0.75 -0.33,-0.34 -0.58,-0.57 -0.75,-0.7 -0.18,-0.13 -0.33,-0.19 -0.45,-0.2 -0.12,0 -0.23,0.04 -0.34,0.15 l -0.79,0.77 c 0.04,-0.84 -0.08,-1.64 -0.34,-2.41 -0.27,-0.77 -0.72,-1.47 -1.34,-2.11 -0.52,-0.53 -1.06,-0.95 -1.64,-1.26 -0.57,-0.31 -1.15,-0.5 -1.74,-0.56 -0.59,-0.05 -1.17,0.02 -1.75,0.24 -0.58,0.21 -1.13,0.58 -1.67,1.1 -0.58,0.57 -0.98,1.18 -1.19,1.83 -0.2,0.64 -0.23,1.33 -0.07,2.05 0.16,0.73 0.51,1.49 1.03,2.29 0.52,0.81 1.21,1.65 2.08,2.54 l 0.95,0.98 -0.61,0.59 c -0.31,0.3 -0.62,0.54 -0.91,0.7 -0.3,0.17 -0.6,0.26 -0.9,0.26 -0.3,0.01 -0.6,-0.07 -0.91,-0.24 -0.31,-0.17 -0.64,-0.43 -0.99,-0.79 -0.46,-0.47 -0.82,-0.94 -1.08,-1.42 -0.25,-0.47 -0.45,-0.91 -0.6,-1.31 -0.15,-0.41 -0.27,-0.76 -0.35,-1.05 -0.08,-0.3 -0.18,-0.5 -0.3,-0.62 -0.08,-0.08 -0.17,-0.13 -0.29,-0.14 -0.11,-0.02 -0.24,0 -0.38,0.06 -0.13,0.05 -0.28,0.14 -0.45,0.25 -0.16,0.12 -0.33,0.26 -0.5,0.43 -0.23,0.22 -0.4,0.42 -0.49,0.59 -0.1,0.17 -0.15,0.36 -0.16,0.57 -0.01,0.21 0.05,0.51 0.18,0.89 0.12,0.39 0.3,0.82 0.53,1.28 0.23,0.46 0.51,0.93 0.84,1.41 0.34,0.49 0.72,0.95 1.15,1.39 0.76,0.78 1.49,1.38 2.19,1.79 0.69,0.4 1.37,0.63 2.04,0.68 0.67,0.05 1.33,-0.09 1.99,-0.41 0.66,-0.32 1.34,-0.82 2.02,-1.49 z m -6.97,1.4 -1.05,-1.07 c -0.45,-0.46 -0.79,-0.88 -1.04,-1.27 -0.24,-0.38 -0.4,-0.74 -0.46,-1.08 -0.06,-0.33 -0.04,-0.64 0.06,-0.91 0.1,-0.28 0.27,-0.54 0.52,-0.78 0.41,-0.41 0.87,-0.6 1.37,-0.57 0.5,0.04 0.98,0.29 1.43,0.76 0.39,0.39 0.64,0.86 0.77,1.38 0.12,0.53 0.15,1.16 0.1,1.88 z m 19.3,25.47 c 1.33,-1.3 2.29,-2.58 2.9,-3.85 0.61,-1.27 0.89,-2.52 0.86,-3.75 -0.04,-1.23 -0.37,-2.45 -1,-3.65 -0.62,-1.21 -1.56,-2.45 -2.82,-3.73 l -3.37,-3.47 c -0.24,-0.24 -0.52,-0.38 -0.83,-0.4 -0.31,-0.03 -0.62,0.12 -0.95,0.44 l -12.64,12.32 c -0.33,0.32 -0.48,0.63 -0.46,0.94 0.01,0.31 0.14,0.59 0.38,0.84 l 3.63,3.72 c 1.26,1.29 2.48,2.24 3.66,2.84 1.18,0.61 2.37,0.93 3.56,0.96 1.19,0.04 2.39,-0.2 3.57,-0.74 1.19,-0.53 2.36,-1.35 3.51,-2.47 z m -2.87,-3.15 c -0.69,0.67 -1.41,1.21 -2.15,1.63 -0.75,0.41 -1.51,0.65 -2.29,0.72 -0.78,0.07 -1.56,-0.06 -2.35,-0.38 -0.78,-0.32 -1.62,-0.93 -2.5,-1.83 l -1.45,-1.49 9.86,-9.61 1.49,1.53 c 0.79,0.81 1.35,1.59 1.68,2.35 0.33,0.75 0.46,1.52 0.4,2.3 -0.06,0.78 -0.32,1.57 -0.76,2.37 -0.45,0.79 -1.1,1.6 -1.93,2.41 z m 14.87,1.29 c 0.07,-0.07 0.12,-0.16 0.13,-0.26 0.01,-0.1 -0.02,-0.22 -0.09,-0.36 -0.06,-0.15 -0.18,-0.32 -0.33,-0.52 -0.16,-0.19 -0.37,-0.43 -0.64,-0.71 -0.27,-0.27 -0.5,-0.49 -0.69,-0.65 -0.2,-0.16 -0.37,-0.28 -0.51,-0.35 -0.14,-0.07 -0.26,-0.1 -0.36,-0.09 -0.1,0.01 -0.19,0.05 -0.26,0.12 l -9.97,9.72 c -0.08,0.07 -0.12,0.16 -0.13,0.26 -0.02,0.1 0.01,0.22 0.07,0.37 0.07,0.15 0.18,0.32 0.33,0.52 0.15,0.2 0.36,0.44 0.63,0.72 0.27,0.28 0.5,0.49 0.7,0.65 0.2,0.16 0.37,0.27 0.52,0.34 0.14,0.07 0.27,0.1 0.37,0.09 0.1,-0.01 0.18,-0.06 0.26,-0.13 z m -13.17,13.25 c 0.57,-0.55 0.85,-1.05 0.84,-1.49 -0.01,-0.44 -0.32,-0.98 -0.93,-1.6 -0.62,-0.64 -1.14,-0.96 -1.57,-0.98 -0.42,-0.02 -0.91,0.24 -1.45,0.77 -0.57,0.56 -0.85,1.05 -0.85,1.5 0,0.44 0.31,0.98 0.93,1.61 0.61,0.63 1.13,0.95 1.57,0.97 0.43,0.01 0.92,-0.24 1.46,-0.78 z m 14.91,8.55 c 0.04,-0.04 0.08,-0.08 0.13,-0.14 0.05,-0.05 0.1,-0.12 0.15,-0.19 0.05,-0.07 0.11,-0.16 0.17,-0.26 0.07,-0.1 0.14,-0.21 0.21,-0.34 l 6.12,-11.82 c 0.09,-0.16 0.14,-0.31 0.16,-0.45 0.01,-0.14 -0.03,-0.3 -0.12,-0.49 -0.1,-0.19 -0.27,-0.42 -0.49,-0.68 -0.23,-0.27 -0.54,-0.6 -0.94,-1.01 -0.38,-0.39 -0.71,-0.71 -0.97,-0.94 -0.26,-0.23 -0.49,-0.4 -0.67,-0.49 -0.18,-0.1 -0.34,-0.14 -0.48,-0.13 -0.14,0.01 -0.29,0.06 -0.45,0.14 l -11.96,5.81 c -0.2,0.1 -0.37,0.19 -0.51,0.29 -0.15,0.09 -0.25,0.15 -0.3,0.2 -0.06,0.05 -0.11,0.09 -0.15,0.14 -0.08,0.07 -0.12,0.15 -0.14,0.25 -0.02,0.1 0.01,0.21 0.07,0.36 0.07,0.14 0.18,0.31 0.34,0.5 0.17,0.2 0.38,0.44 0.65,0.71 0.3,0.31 0.55,0.55 0.75,0.72 0.2,0.16 0.37,0.29 0.51,0.36 0.14,0.08 0.27,0.11 0.37,0.09 0.11,-0.02 0.22,-0.05 0.34,-0.11 l 9.56,-4.88 0.34,-0.21 -0.21,0.34 -5.16,9.4 c -0.06,0.11 -0.11,0.22 -0.12,0.33 -0.02,0.11 0.01,0.23 0.08,0.37 0.06,0.14 0.17,0.3 0.33,0.49 0.15,0.2 0.36,0.44 0.64,0.72 0.27,0.28 0.5,0.5 0.68,0.66 0.19,0.16 0.35,0.27 0.48,0.33 0.13,0.06 0.24,0.08 0.34,0.06 0.09,-0.01 0.17,-0.06 0.25,-0.13 z m 14.34,-5.3 c 0.08,-0.07 0.12,-0.16 0.13,-0.26 0.01,-0.1 -0.01,-0.22 -0.08,-0.37 -0.07,-0.14 -0.18,-0.31 -0.34,-0.51 -0.15,-0.2 -0.37,-0.43 -0.64,-0.71 -0.27,-0.28 -0.5,-0.49 -0.69,-0.66 -0.19,-0.16 -0.36,-0.27 -0.5,-0.34 -0.15,-0.08 -0.27,-0.11 -0.37,-0.1 -0.1,0.01 -0.19,0.05 -0.26,0.13 l -9.97,9.72 c -0.07,0.07 -0.12,0.16 -0.13,0.25 -0.01,0.1 0.01,0.23 0.08,0.38 0.06,0.14 0.17,0.32 0.32,0.52 0.16,0.2 0.37,0.44 0.64,0.72 0.27,0.27 0.5,0.49 0.7,0.65 0.19,0.15 0.36,0.27 0.51,0.34 0.15,0.06 0.27,0.09 0.37,0.08 0.1,-0.01 0.19,-0.05 0.26,-0.12 z m -13.17,13.25 c 0.57,-0.55 0.85,-1.05 0.84,-1.49 -0.01,-0.44 -0.32,-0.98 -0.93,-1.61 -0.62,-0.63 -1.14,-0.96 -1.56,-0.97 -0.43,-0.02 -0.91,0.24 -1.46,0.77 -0.56,0.55 -0.85,1.05 -0.85,1.49 0.01,0.45 0.32,0.98 0.94,1.62 0.61,0.63 1.13,0.95 1.56,0.96 0.43,0.02 0.92,-0.24 1.46,-0.77 z m 25.25,-0.86 c 0.08,-0.07 0.12,-0.16 0.13,-0.26 0.02,-0.1 -0.01,-0.22 -0.07,-0.36 -0.07,-0.14 -0.18,-0.31 -0.34,-0.51 -0.16,-0.2 -0.37,-0.44 -0.63,-0.71 -0.27,-0.27 -0.51,-0.49 -0.7,-0.66 -0.2,-0.16 -0.37,-0.28 -0.51,-0.35 -0.14,-0.07 -0.26,-0.09 -0.36,-0.08 -0.1,0.01 -0.18,0.05 -0.26,0.12 l -5.7,5.56 c -0.48,0.47 -0.9,0.81 -1.25,1.01 -0.34,0.19 -0.68,0.32 -1.01,0.38 -0.33,0.06 -0.65,0.04 -0.96,-0.07 -0.32,-0.11 -0.62,-0.3 -0.89,-0.59 -0.35,-0.36 -0.57,-0.85 -0.67,-1.47 -0.1,-0.62 -0.09,-1.37 0.03,-2.25 l 6.64,-6.48 c 0.08,-0.07 0.12,-0.16 0.13,-0.26 0.01,-0.1 -0.01,-0.22 -0.08,-0.36 -0.07,-0.15 -0.18,-0.32 -0.34,-0.52 -0.16,-0.2 -0.37,-0.43 -0.64,-0.71 -0.27,-0.27 -0.5,-0.49 -0.69,-0.65 -0.19,-0.17 -0.36,-0.28 -0.51,-0.35 -0.14,-0.08 -0.26,-0.11 -0.36,-0.1 -0.1,0.01 -0.19,0.05 -0.26,0.13 l -9.99,9.74 c -0.08,0.07 -0.12,0.15 -0.14,0.25 -0.02,0.09 -0.01,0.2 0.05,0.33 0.06,0.14 0.15,0.29 0.28,0.46 0.13,0.17 0.31,0.37 0.54,0.61 0.23,0.23 0.43,0.42 0.61,0.56 0.17,0.14 0.31,0.23 0.43,0.28 0.13,0.05 0.23,0.07 0.32,0.05 0.1,-0.02 0.18,-0.06 0.25,-0.13 l 1.16,-1.13 c -0.06,1.14 0.04,2.14 0.3,3 0.26,0.86 0.69,1.6 1.29,2.22 0.66,0.68 1.34,1.15 2.01,1.39 0.68,0.25 1.36,0.33 2.02,0.25 0.67,-0.09 1.32,-0.32 1.96,-0.7 0.64,-0.37 1.32,-0.92 2.04,-1.62 z m 11.01,11.22 c 0.11,-0.1 0.15,-0.22 0.14,-0.35 -0.01,-0.13 -0.09,-0.29 -0.22,-0.48 -0.13,-0.18 -0.34,-0.43 -0.65,-0.75 -0.33,-0.33 -0.58,-0.56 -0.76,-0.69 -0.17,-0.13 -0.32,-0.2 -0.44,-0.2 -0.12,-0.01 -0.24,0.04 -0.34,0.14 l -0.8,0.78 c 0.04,-0.84 -0.07,-1.64 -0.34,-2.41 -0.26,-0.77 -0.71,-1.47 -1.33,-2.11 -0.52,-0.53 -1.07,-0.95 -1.64,-1.26 -0.57,-0.31 -1.15,-0.5 -1.74,-0.56 -0.59,-0.06 -1.17,0.02 -1.75,0.24 -0.58,0.21 -1.14,0.58 -1.67,1.1 -0.59,0.57 -0.98,1.18 -1.19,1.82 -0.2,0.65 -0.23,1.34 -0.07,2.06 0.16,0.73 0.5,1.49 1.02,2.29 0.53,0.81 1.22,1.65 2.09,2.54 l 0.95,0.97 -0.61,0.59 c -0.31,0.31 -0.62,0.55 -0.92,0.71 -0.29,0.17 -0.59,0.25 -0.89,0.26 -0.3,0.01 -0.6,-0.07 -0.91,-0.24 -0.32,-0.17 -0.65,-0.44 -1,-0.79 -0.45,-0.47 -0.81,-0.95 -1.07,-1.42 -0.25,-0.47 -0.46,-0.91 -0.61,-1.32 -0.15,-0.4 -0.26,-0.75 -0.34,-1.05 -0.08,-0.29 -0.18,-0.49 -0.3,-0.61 -0.08,-0.09 -0.18,-0.13 -0.29,-0.15 -0.11,-0.01 -0.24,0.01 -0.38,0.07 -0.13,0.05 -0.28,0.13 -0.45,0.25 -0.16,0.12 -0.33,0.26 -0.5,0.43 -0.23,0.22 -0.4,0.42 -0.5,0.59 -0.09,0.16 -0.15,0.35 -0.15,0.56 -0.01,0.21 0.05,0.51 0.17,0.9 0.13,0.39 0.31,0.82 0.54,1.28 0.23,0.46 0.51,0.93 0.84,1.41 0.33,0.49 0.72,0.95 1.14,1.39 0.77,0.78 1.5,1.38 2.19,1.78 0.7,0.41 1.38,0.64 2.05,0.69 0.67,0.05 1.33,-0.09 1.99,-0.41 0.66,-0.33 1.33,-0.82 2.02,-1.49 z m -6.97,1.41 -1.05,-1.08 c -0.45,-0.45 -0.79,-0.87 -1.04,-1.26 -0.24,-0.39 -0.4,-0.75 -0.46,-1.08 -0.06,-0.33 -0.04,-0.64 0.06,-0.92 0.09,-0.27 0.27,-0.53 0.51,-0.77 0.42,-0.41 0.88,-0.6 1.38,-0.57 0.5,0.03 0.97,0.29 1.43,0.76 0.39,0.39 0.64,0.85 0.76,1.38 0.13,0.53 0.16,1.16 0.11,1.88 z"
           id="path125" />
      </g>
    </g>
    <g
       id="g135">
      <g
         clip-path="url(#clipPath4868)"
         id="g133">
        <path
           d="m 324.12,144.41 c 0.17,-0.16 0.3,-0.34 0.37,-0.53 0.08,-0.2 0.11,-0.39 0.1,-0.57 0,-0.19 -0.06,-0.37 -0.15,-0.55 -0.09,-0.18 -0.21,-0.34 -0.35,-0.48 l -1.22,-1.26 c -0.26,-0.26 -0.5,-0.46 -0.74,-0.6 -0.24,-0.14 -0.5,-0.22 -0.8,-0.25 -0.29,-0.02 -0.63,0 -1.01,0.08 -0.38,0.08 -0.85,0.21 -1.41,0.39 l -10.29,3 c -0.61,0.18 -1.25,0.4 -1.93,0.63 -0.68,0.24 -1.32,0.49 -1.93,0.75 L 304.74,145 c 0.57,-0.5 1.13,-1 1.67,-1.5 0.55,-0.51 1.11,-1.04 1.68,-1.59 l 7.58,-7.4 c 0.08,-0.07 0.12,-0.15 0.14,-0.25 0.02,-0.1 0,-0.22 -0.05,-0.36 -0.06,-0.14 -0.16,-0.31 -0.31,-0.51 -0.14,-0.19 -0.34,-0.42 -0.61,-0.69 -0.25,-0.26 -0.47,-0.47 -0.66,-0.62 -0.19,-0.15 -0.36,-0.25 -0.49,-0.31 -0.14,-0.05 -0.25,-0.07 -0.35,-0.05 -0.1,0.02 -0.18,0.07 -0.26,0.14 l -13.02,12.7 c -0.35,0.34 -0.52,0.7 -0.49,1.08 0.02,0.38 0.18,0.71 0.47,1.01 l 1.54,1.58 c 0.28,0.29 0.53,0.5 0.77,0.65 0.24,0.14 0.49,0.24 0.75,0.28 0.26,0.05 0.56,0.04 0.89,-0.02 0.33,-0.06 0.7,-0.16 1.13,-0.3 l 8.06,-2.34 c 0.48,-0.15 0.95,-0.3 1.42,-0.44 0.46,-0.14 0.92,-0.29 1.38,-0.44 0.46,-0.15 0.9,-0.3 1.34,-0.45 0.44,-0.15 0.87,-0.31 1.3,-0.46 l 0.01,0.01 c -0.54,0.49 -1.11,1 -1.68,1.54 -0.58,0.55 -1.13,1.07 -1.65,1.57 l -6.79,6.63 c -0.08,0.07 -0.13,0.16 -0.14,0.26 -0.02,0.11 0,0.23 0.06,0.38 0.06,0.15 0.16,0.32 0.31,0.51 0.15,0.19 0.35,0.42 0.62,0.69 0.24,0.25 0.46,0.45 0.65,0.61 0.18,0.15 0.34,0.25 0.48,0.3 0.14,0.05 0.25,0.07 0.35,0.04 0.09,-0.02 0.18,-0.06 0.25,-0.14 z m 11.91,10.85 c 0.11,-0.1 0.15,-0.22 0.14,-0.35 -0.01,-0.13 -0.09,-0.29 -0.22,-0.48 -0.13,-0.19 -0.35,-0.44 -0.65,-0.75 -0.33,-0.33 -0.58,-0.57 -0.76,-0.69 -0.17,-0.13 -0.32,-0.2 -0.44,-0.2 -0.12,-0.01 -0.24,0.04 -0.34,0.14 l -0.8,0.78 c 0.04,-0.84 -0.07,-1.65 -0.34,-2.41 -0.26,-0.77 -0.71,-1.47 -1.34,-2.12 -0.51,-0.53 -1.06,-0.95 -1.63,-1.26 -0.57,-0.31 -1.15,-0.49 -1.74,-0.55 -0.59,-0.06 -1.17,0.02 -1.75,0.23 -0.58,0.22 -1.14,0.59 -1.67,1.11 -0.59,0.57 -0.98,1.17 -1.19,1.82 -0.21,0.65 -0.23,1.33 -0.07,2.06 0.16,0.72 0.5,1.49 1.02,2.29 0.52,0.8 1.22,1.65 2.08,2.54 l 0.95,0.97 -0.6,0.59 c -0.31,0.31 -0.62,0.54 -0.92,0.71 -0.29,0.17 -0.59,0.25 -0.89,0.26 -0.3,0.01 -0.6,-0.07 -0.92,-0.24 -0.31,-0.17 -0.64,-0.44 -0.99,-0.8 -0.46,-0.47 -0.81,-0.94 -1.07,-1.41 -0.25,-0.47 -0.46,-0.91 -0.61,-1.32 -0.15,-0.41 -0.26,-0.76 -0.34,-1.05 -0.08,-0.29 -0.18,-0.5 -0.3,-0.62 -0.08,-0.08 -0.18,-0.13 -0.29,-0.14 -0.11,-0.01 -0.24,0.01 -0.38,0.06 -0.13,0.06 -0.29,0.14 -0.45,0.26 -0.16,0.11 -0.33,0.25 -0.5,0.42 -0.23,0.23 -0.4,0.43 -0.5,0.59 -0.09,0.17 -0.15,0.36 -0.15,0.57 -0.01,0.21 0.05,0.51 0.17,0.9 0.13,0.39 0.3,0.81 0.54,1.27 0.23,0.46 0.51,0.94 0.84,1.42 0.33,0.48 0.71,0.94 1.14,1.39 0.77,0.78 1.5,1.37 2.19,1.78 0.7,0.41 1.38,0.64 2.05,0.69 0.66,0.05 1.33,-0.09 1.99,-0.42 0.66,-0.32 1.33,-0.82 2.02,-1.49 z m -6.98,1.41 -1.04,-1.08 c -0.45,-0.45 -0.79,-0.88 -1.04,-1.26 -0.24,-0.39 -0.4,-0.75 -0.46,-1.08 -0.06,-0.33 -0.04,-0.64 0.05,-0.92 0.1,-0.28 0.28,-0.54 0.52,-0.78 0.42,-0.41 0.88,-0.59 1.38,-0.56 0.49,0.03 0.97,0.28 1.43,0.75 0.39,0.4 0.64,0.86 0.76,1.39 0.13,0.53 0.16,1.15 0.11,1.88 z m 14.32,8.16 c 0.33,-0.32 0.56,-0.59 0.69,-0.8 0.14,-0.21 0.21,-0.39 0.22,-0.53 0,-0.13 -0.03,-0.29 -0.1,-0.48 -0.07,-0.18 -0.18,-0.38 -0.31,-0.6 -0.13,-0.21 -0.28,-0.44 -0.46,-0.66 -0.18,-0.23 -0.37,-0.45 -0.57,-0.66 -0.55,-0.56 -1.09,-0.97 -1.63,-1.25 -0.54,-0.27 -1.09,-0.4 -1.65,-0.38 -0.56,0.02 -1.12,0.19 -1.69,0.5 -0.58,0.31 -1.17,0.76 -1.78,1.36 l -5.12,4.99 -1.17,-1.2 c -0.14,-0.14 -0.33,-0.17 -0.58,-0.07 -0.25,0.1 -0.58,0.35 -0.99,0.75 -0.21,0.21 -0.39,0.4 -0.52,0.56 -0.13,0.16 -0.22,0.31 -0.27,0.43 -0.05,0.12 -0.07,0.23 -0.05,0.32 0.02,0.09 0.06,0.17 0.14,0.25 l 1.15,1.19 -2.22,2.17 c -0.08,0.07 -0.13,0.16 -0.15,0.26 -0.02,0.1 0.01,0.22 0.07,0.37 0.07,0.15 0.18,0.32 0.34,0.52 0.16,0.2 0.37,0.44 0.63,0.71 0.27,0.27 0.5,0.49 0.7,0.66 0.2,0.16 0.37,0.28 0.51,0.34 0.14,0.07 0.27,0.09 0.37,0.08 0.1,-0.01 0.19,-0.06 0.27,-0.13 l 2.23,-2.17 2.11,2.17 c 0.08,0.07 0.16,0.12 0.25,0.14 0.09,0.02 0.2,0.01 0.32,-0.04 0.13,-0.04 0.27,-0.13 0.44,-0.26 0.17,-0.13 0.36,-0.29 0.57,-0.51 0.41,-0.4 0.67,-0.72 0.77,-0.96 0.11,-0.25 0.09,-0.44 -0.05,-0.59 l -2.13,-2.18 4.69,-4.58 c 0.55,-0.53 1.04,-0.84 1.48,-0.94 0.44,-0.09 0.88,0.08 1.31,0.52 0.14,0.15 0.26,0.3 0.35,0.45 0.09,0.14 0.16,0.28 0.22,0.4 0.06,0.13 0.11,0.24 0.14,0.33 0.04,0.08 0.08,0.16 0.13,0.21 0.05,0.04 0.1,0.07 0.17,0.09 0.06,0.01 0.15,-0.01 0.25,-0.06 0.1,-0.05 0.22,-0.14 0.38,-0.25 0.15,-0.11 0.33,-0.27 0.54,-0.47 z m 12.25,10.59 c 0.07,-0.07 0.12,-0.16 0.14,-0.25 0.02,-0.09 0,-0.2 -0.05,-0.33 -0.06,-0.13 -0.15,-0.28 -0.28,-0.45 -0.13,-0.17 -0.31,-0.38 -0.53,-0.61 -0.24,-0.24 -0.45,-0.43 -0.62,-0.57 -0.16,-0.13 -0.31,-0.23 -0.43,-0.28 -0.13,-0.05 -0.24,-0.07 -0.33,-0.06 -0.09,0.02 -0.18,0.07 -0.25,0.14 l -1.15,1.12 c 0.05,-1.13 -0.05,-2.13 -0.3,-2.99 -0.26,-0.86 -0.69,-1.6 -1.29,-2.21 -0.67,-0.69 -1.34,-1.16 -2.02,-1.41 -0.68,-0.25 -1.35,-0.32 -2.02,-0.23 -0.67,0.09 -1.32,0.32 -1.95,0.7 -0.63,0.37 -1.33,0.93 -2.09,1.67 l -6.12,5.97 c -0.07,0.07 -0.12,0.15 -0.13,0.25 -0.02,0.1 0.01,0.22 0.07,0.36 0.07,0.15 0.19,0.32 0.35,0.52 0.16,0.2 0.37,0.44 0.63,0.7 0.27,0.28 0.5,0.5 0.69,0.66 0.2,0.16 0.36,0.28 0.51,0.35 0.14,0.07 0.26,0.1 0.36,0.09 0.1,-0.01 0.19,-0.05 0.26,-0.12 l 5.65,-5.51 c 0.52,-0.51 0.95,-0.86 1.3,-1.06 0.34,-0.21 0.67,-0.33 1.01,-0.39 0.33,-0.05 0.65,-0.03 0.97,0.08 0.32,0.11 0.61,0.3 0.89,0.59 0.35,0.36 0.57,0.84 0.66,1.46 0.09,0.62 0.09,1.37 -0.01,2.27 l -6.64,6.48 c -0.08,0.07 -0.12,0.16 -0.14,0.25 -0.02,0.1 0.01,0.22 0.08,0.36 0.07,0.15 0.18,0.32 0.33,0.52 0.16,0.19 0.37,0.43 0.64,0.71 0.27,0.27 0.5,0.49 0.7,0.65 0.19,0.16 0.36,0.28 0.5,0.35 0.14,0.06 0.25,0.09 0.35,0.08 0.1,-0.01 0.19,-0.05 0.27,-0.12 z m -0.07,18.06 c 0.27,-0.26 0.49,-0.48 0.64,-0.66 0.16,-0.19 0.27,-0.34 0.34,-0.47 0.07,-0.12 0.1,-0.22 0.09,-0.31 -0.01,-0.08 -0.05,-0.16 -0.13,-0.24 -0.06,-0.06 -0.13,-0.11 -0.23,-0.16 -0.1,-0.05 -0.21,-0.11 -0.33,-0.17 -0.12,-0.07 -0.25,-0.14 -0.39,-0.23 -0.13,-0.08 -0.27,-0.2 -0.4,-0.33 -0.15,-0.16 -0.27,-0.34 -0.36,-0.56 -0.09,-0.22 -0.15,-0.48 -0.18,-0.78 -0.03,-0.3 -0.02,-0.65 0.03,-1.05 0.04,-0.4 0.13,-0.87 0.25,-1.4 l 6.23,-6.07 c 0.07,-0.07 0.12,-0.16 0.13,-0.26 0.01,-0.1 -0.02,-0.22 -0.08,-0.36 -0.07,-0.15 -0.18,-0.32 -0.34,-0.52 -0.16,-0.19 -0.37,-0.43 -0.64,-0.71 -0.27,-0.27 -0.5,-0.49 -0.69,-0.65 -0.2,-0.16 -0.36,-0.28 -0.51,-0.35 -0.14,-0.07 -0.26,-0.11 -0.36,-0.1 -0.1,0.01 -0.19,0.06 -0.26,0.13 l -9.99,9.74 c -0.08,0.07 -0.13,0.16 -0.15,0.25 -0.02,0.09 0,0.2 0.06,0.34 0.06,0.13 0.15,0.28 0.28,0.45 0.13,0.17 0.31,0.38 0.54,0.61 0.23,0.24 0.43,0.42 0.6,0.56 0.18,0.14 0.32,0.24 0.44,0.29 0.12,0.04 0.23,0.06 0.32,0.04 0.1,-0.01 0.18,-0.06 0.25,-0.13 l 1.25,-1.21 c -0.12,0.62 -0.19,1.17 -0.21,1.64 -0.01,0.46 0.01,0.87 0.07,1.22 0.06,0.35 0.17,0.65 0.32,0.92 0.14,0.26 0.32,0.5 0.52,0.71 0.1,0.09 0.21,0.19 0.33,0.29 0.12,0.1 0.25,0.2 0.39,0.3 0.14,0.09 0.28,0.16 0.4,0.22 0.12,0.06 0.22,0.09 0.29,0.09 0.08,0.01 0.15,0 0.21,-0.03 0.07,-0.02 0.15,-0.06 0.24,-0.13 0.09,-0.06 0.22,-0.16 0.38,-0.31 0.17,-0.14 0.38,-0.35 0.65,-0.61 z m 18.6,0.88 c 0.1,-0.11 0.15,-0.22 0.13,-0.36 -0.01,-0.13 -0.08,-0.29 -0.21,-0.48 -0.13,-0.18 -0.35,-0.43 -0.66,-0.74 -0.32,-0.34 -0.57,-0.57 -0.75,-0.7 -0.18,-0.13 -0.32,-0.19 -0.45,-0.2 -0.12,0 -0.23,0.04 -0.33,0.15 l -0.8,0.77 c 0.04,-0.84 -0.07,-1.64 -0.34,-2.41 -0.27,-0.77 -0.71,-1.47 -1.34,-2.11 -0.52,-0.53 -1.06,-0.95 -1.63,-1.26 -0.57,-0.31 -1.15,-0.5 -1.74,-0.56 -0.59,-0.05 -1.18,0.02 -1.75,0.24 -0.58,0.21 -1.14,0.58 -1.68,1.1 -0.58,0.57 -0.97,1.18 -1.18,1.83 -0.21,0.64 -0.23,1.33 -0.07,2.05 0.16,0.73 0.5,1.49 1.02,2.29 0.52,0.81 1.21,1.65 2.08,2.54 l 0.95,0.98 -0.6,0.59 c -0.32,0.3 -0.62,0.54 -0.92,0.7 -0.3,0.17 -0.6,0.26 -0.89,0.26 -0.3,0.01 -0.61,-0.07 -0.92,-0.24 -0.31,-0.17 -0.64,-0.43 -0.99,-0.79 -0.46,-0.47 -0.82,-0.94 -1.07,-1.42 -0.26,-0.47 -0.46,-0.91 -0.61,-1.31 -0.15,-0.41 -0.27,-0.76 -0.35,-1.05 -0.08,-0.3 -0.18,-0.5 -0.29,-0.62 -0.08,-0.08 -0.18,-0.13 -0.3,-0.14 -0.11,-0.02 -0.23,0 -0.37,0.06 -0.14,0.05 -0.29,0.14 -0.45,0.25 -0.17,0.12 -0.33,0.26 -0.51,0.43 -0.23,0.22 -0.39,0.42 -0.49,0.59 -0.1,0.17 -0.15,0.36 -0.16,0.57 0,0.21 0.06,0.5 0.18,0.89 0.12,0.39 0.3,0.82 0.53,1.28 0.23,0.46 0.51,0.93 0.85,1.41 0.33,0.49 0.71,0.95 1.14,1.39 0.76,0.78 1.49,1.38 2.19,1.79 0.7,0.4 1.38,0.63 2.04,0.68 0.67,0.05 1.33,-0.09 1.99,-0.41 0.67,-0.33 1.34,-0.82 2.03,-1.49 z m -6.98,1.4 -1.05,-1.07 c -0.44,-0.46 -0.79,-0.88 -1.03,-1.27 -0.25,-0.38 -0.4,-0.74 -0.47,-1.08 -0.06,-0.33 -0.04,-0.64 0.06,-0.91 0.1,-0.28 0.27,-0.54 0.52,-0.78 0.42,-0.41 0.88,-0.6 1.37,-0.57 0.5,0.04 0.98,0.29 1.44,0.76 0.38,0.39 0.64,0.86 0.76,1.38 0.12,0.53 0.16,1.16 0.1,1.88 z m 12.45,4.28 c 0.08,-0.07 0.12,-0.16 0.13,-0.26 0.02,-0.1 -0.01,-0.22 -0.08,-0.36 -0.07,-0.15 -0.18,-0.32 -0.34,-0.52 -0.15,-0.2 -0.37,-0.43 -0.64,-0.71 -0.26,-0.27 -0.5,-0.49 -0.69,-0.65 -0.19,-0.17 -0.36,-0.28 -0.5,-0.35 -0.15,-0.08 -0.27,-0.11 -0.37,-0.1 -0.1,0.01 -0.18,0.05 -0.26,0.13 l -14.73,14.36 c -0.07,0.07 -0.12,0.16 -0.14,0.26 -0.01,0.11 0.01,0.23 0.08,0.38 0.06,0.15 0.17,0.32 0.32,0.52 0.15,0.2 0.37,0.44 0.64,0.72 0.26,0.28 0.5,0.49 0.69,0.65 0.2,0.16 0.37,0.27 0.52,0.34 0.15,0.07 0.27,0.09 0.38,0.08 0.1,-0.01 0.19,-0.06 0.26,-0.13 z m 6.49,17.23 c 0.35,-0.33 0.52,-0.66 0.54,-0.97 0.01,-0.31 -0.11,-0.6 -0.37,-0.87 l -5.93,-6.09 c 0.42,-0.41 0.86,-0.74 1.31,-0.97 0.44,-0.24 0.89,-0.37 1.35,-0.39 0.46,-0.01 0.92,0.09 1.38,0.32 0.47,0.22 0.94,0.57 1.41,1.06 0.48,0.49 0.87,0.96 1.16,1.4 0.3,0.44 0.53,0.84 0.71,1.2 0.18,0.36 0.32,0.66 0.43,0.91 0.1,0.25 0.21,0.43 0.32,0.54 0.06,0.06 0.13,0.11 0.2,0.13 0.07,0.02 0.15,0.01 0.25,-0.03 0.1,-0.03 0.21,-0.11 0.35,-0.21 0.13,-0.11 0.29,-0.26 0.48,-0.44 0.16,-0.16 0.3,-0.3 0.41,-0.42 0.1,-0.12 0.19,-0.23 0.26,-0.32 0.07,-0.1 0.11,-0.19 0.14,-0.27 0.03,-0.09 0.04,-0.18 0.05,-0.28 0,-0.1 -0.05,-0.3 -0.18,-0.6 -0.12,-0.31 -0.3,-0.67 -0.54,-1.09 -0.24,-0.42 -0.54,-0.88 -0.9,-1.37 -0.36,-0.5 -0.78,-0.99 -1.26,-1.48 -0.87,-0.89 -1.74,-1.56 -2.61,-2.01 -0.88,-0.45 -1.76,-0.68 -2.66,-0.68 -0.89,-0.01 -1.79,0.22 -2.7,0.68 -0.91,0.45 -1.83,1.14 -2.76,2.05 -0.89,0.86 -1.58,1.76 -2.07,2.69 -0.48,0.92 -0.76,1.85 -0.83,2.77 -0.07,0.93 0.08,1.83 0.43,2.72 0.36,0.89 0.92,1.72 1.69,2.52 0.82,0.83 1.64,1.43 2.46,1.78 0.83,0.35 1.64,0.51 2.45,0.46 0.81,-0.04 1.6,-0.27 2.37,-0.67 0.77,-0.4 1.51,-0.95 2.21,-1.63 z m -3.47,-1.94 c -0.77,0.79 -1.55,1.24 -2.33,1.34 -0.78,0.1 -1.52,-0.21 -2.21,-0.92 -0.35,-0.35 -0.59,-0.73 -0.71,-1.13 -0.13,-0.39 -0.16,-0.79 -0.1,-1.19 0.05,-0.4 0.19,-0.79 0.41,-1.19 0.22,-0.39 0.5,-0.77 0.83,-1.13 z m 16.78,6.56 c 0.21,-0.21 0.39,-0.41 0.52,-0.58 0.13,-0.17 0.22,-0.32 0.27,-0.44 0.06,-0.13 0.07,-0.24 0.05,-0.33 -0.03,-0.09 -0.08,-0.17 -0.15,-0.25 l -6.37,-6.53 c -0.19,-0.2 -0.41,-0.29 -0.65,-0.27 -0.24,0.03 -0.51,0.19 -0.82,0.48 l -0.52,0.51 c -0.13,0.13 -0.25,0.25 -0.34,0.37 -0.1,0.12 -0.18,0.24 -0.25,0.37 -0.07,0.13 -0.13,0.28 -0.18,0.44 -0.05,0.15 -0.09,0.34 -0.13,0.55 l -2.14,9.38 -3.45,-3.54 c -0.13,-0.14 -0.34,-0.17 -0.6,-0.08 -0.26,0.09 -0.59,0.33 -0.99,0.71 -0.21,0.21 -0.38,0.4 -0.51,0.56 -0.13,0.16 -0.22,0.3 -0.27,0.42 -0.05,0.12 -0.06,0.23 -0.04,0.33 0.02,0.1 0.07,0.18 0.15,0.27 l 5.95,6.1 c 0.1,0.11 0.2,0.18 0.3,0.24 0.09,0.05 0.2,0.07 0.3,0.06 0.11,-0.01 0.23,-0.05 0.36,-0.13 0.13,-0.07 0.27,-0.19 0.43,-0.34 l 0.55,-0.53 c 0.15,-0.15 0.27,-0.29 0.37,-0.41 0.1,-0.13 0.19,-0.26 0.27,-0.39 0.07,-0.14 0.14,-0.28 0.19,-0.44 0.05,-0.16 0.09,-0.33 0.14,-0.52 l 2.14,-9.35 3.85,3.95 c 0.06,0.06 0.14,0.11 0.23,0.14 0.09,0.03 0.19,0.03 0.31,-0.01 0.13,-0.04 0.27,-0.12 0.44,-0.24 0.17,-0.12 0.36,-0.28 0.59,-0.5 z m 10.92,9.58 c 0.1,-0.1 0.15,-0.22 0.13,-0.35 -0.01,-0.13 -0.08,-0.29 -0.21,-0.48 -0.13,-0.18 -0.35,-0.43 -0.66,-0.75 -0.32,-0.33 -0.58,-0.56 -0.75,-0.69 -0.18,-0.13 -0.32,-0.2 -0.45,-0.2 -0.12,-0.01 -0.23,0.04 -0.34,0.14 l -0.79,0.78 c 0.04,-0.84 -0.07,-1.64 -0.34,-2.41 -0.27,-0.77 -0.71,-1.47 -1.34,-2.11 -0.52,-0.54 -1.06,-0.95 -1.63,-1.26 -0.57,-0.31 -1.15,-0.5 -1.74,-0.56 -0.59,-0.06 -1.18,0.02 -1.76,0.23 -0.57,0.22 -1.13,0.59 -1.67,1.11 -0.58,0.57 -0.98,1.18 -1.18,1.82 -0.21,0.65 -0.23,1.34 -0.07,2.06 0.16,0.72 0.5,1.49 1.02,2.29 0.52,0.81 1.21,1.65 2.08,2.54 l 0.95,0.97 -0.61,0.59 c -0.31,0.31 -0.61,0.55 -0.91,0.71 -0.3,0.17 -0.6,0.25 -0.9,0.26 -0.29,0.01 -0.6,-0.07 -0.91,-0.24 -0.31,-0.17 -0.64,-0.44 -0.99,-0.8 -0.46,-0.47 -0.82,-0.94 -1.07,-1.41 -0.26,-0.47 -0.46,-0.91 -0.61,-1.32 -0.15,-0.4 -0.27,-0.75 -0.35,-1.05 -0.08,-0.29 -0.18,-0.5 -0.29,-0.61 -0.08,-0.09 -0.18,-0.13 -0.3,-0.15 -0.11,-0.01 -0.24,0.01 -0.37,0.07 -0.14,0.05 -0.29,0.13 -0.45,0.25 -0.17,0.12 -0.34,0.26 -0.51,0.42 -0.23,0.23 -0.39,0.43 -0.49,0.6 -0.1,0.16 -0.15,0.35 -0.16,0.56 0,0.21 0.05,0.51 0.18,0.9 0.12,0.39 0.3,0.82 0.53,1.28 0.23,0.46 0.51,0.93 0.84,1.41 0.34,0.48 0.72,0.95 1.15,1.39 0.76,0.78 1.49,1.38 2.19,1.78 0.69,0.41 1.38,0.64 2.04,0.69 0.67,0.05 1.33,-0.09 1.99,-0.41 0.66,-0.33 1.34,-0.82 2.02,-1.49 z m -6.98,1.41 -1.05,-1.08 c -0.44,-0.45 -0.79,-0.87 -1.03,-1.26 -0.25,-0.39 -0.4,-0.75 -0.47,-1.08 -0.06,-0.33 -0.04,-0.64 0.06,-0.92 0.1,-0.28 0.27,-0.53 0.52,-0.78 0.42,-0.4 0.87,-0.59 1.37,-0.56 0.5,0.03 0.98,0.28 1.44,0.76 0.38,0.39 0.64,0.85 0.76,1.38 0.12,0.53 0.16,1.16 0.1,1.88 z m 25.65,17.86 c 0.07,-0.08 0.11,-0.17 0.13,-0.27 0.01,-0.11 -0.02,-0.24 -0.09,-0.39 -0.07,-0.14 -0.19,-0.32 -0.35,-0.53 -0.16,-0.21 -0.38,-0.46 -0.65,-0.74 -0.29,-0.29 -0.53,-0.52 -0.74,-0.69 -0.21,-0.17 -0.39,-0.29 -0.53,-0.36 -0.14,-0.07 -0.27,-0.1 -0.37,-0.09 -0.11,0.01 -0.2,0.05 -0.28,0.12 l -5.85,5.71 -5.29,-5.42 5.86,-5.71 c 0.07,-0.07 0.12,-0.16 0.13,-0.27 0.02,-0.1 -0.01,-0.22 -0.08,-0.37 -0.07,-0.15 -0.19,-0.33 -0.35,-0.54 -0.16,-0.21 -0.38,-0.46 -0.66,-0.75 -0.28,-0.28 -0.52,-0.51 -0.73,-0.68 -0.21,-0.16 -0.38,-0.29 -0.53,-0.36 -0.15,-0.08 -0.27,-0.11 -0.38,-0.1 -0.11,0.01 -0.2,0.05 -0.27,0.12 l -13.69,13.35 c -0.08,0.07 -0.12,0.16 -0.13,0.27 -0.02,0.1 0.01,0.23 0.09,0.38 0.07,0.15 0.19,0.33 0.35,0.54 0.16,0.21 0.38,0.46 0.66,0.75 0.28,0.29 0.53,0.51 0.73,0.68 0.21,0.16 0.38,0.28 0.53,0.36 0.14,0.08 0.27,0.11 0.37,0.09 0.11,-0.01 0.2,-0.05 0.27,-0.13 l 5.32,-5.18 5.29,5.42 -5.32,5.19 c -0.08,0.07 -0.12,0.16 -0.13,0.27 -0.02,0.1 0.01,0.23 0.08,0.37 0.07,0.15 0.18,0.33 0.35,0.54 0.16,0.21 0.38,0.46 0.67,0.75 0.27,0.29 0.51,0.51 0.72,0.68 0.2,0.16 0.38,0.28 0.53,0.36 0.14,0.07 0.27,0.11 0.38,0.1 0.1,-0.01 0.19,-0.06 0.27,-0.13 z m 12.14,12.4 c 0.07,-0.07 0.12,-0.15 0.14,-0.24 0.02,-0.1 0,-0.21 -0.05,-0.34 -0.06,-0.13 -0.15,-0.28 -0.28,-0.45 -0.13,-0.17 -0.31,-0.37 -0.53,-0.6 -0.24,-0.25 -0.45,-0.44 -0.62,-0.57 -0.16,-0.14 -0.31,-0.23 -0.43,-0.29 -0.13,-0.05 -0.24,-0.07 -0.33,-0.05 -0.09,0.02 -0.18,0.06 -0.25,0.14 l -1.15,1.12 c 0.05,-1.13 -0.05,-2.13 -0.3,-3 -0.26,-0.86 -0.69,-1.6 -1.29,-2.21 -0.67,-0.69 -1.34,-1.15 -2.02,-1.4 -0.68,-0.25 -1.35,-0.33 -2.02,-0.24 -0.67,0.09 -1.32,0.33 -1.95,0.7 -0.63,0.38 -1.33,0.94 -2.09,1.68 l -6.12,5.96 c -0.07,0.08 -0.12,0.16 -0.13,0.26 -0.02,0.09 0.01,0.21 0.07,0.36 0.07,0.14 0.19,0.31 0.35,0.51 0.16,0.21 0.37,0.44 0.63,0.71 0.27,0.28 0.5,0.49 0.69,0.66 0.2,0.16 0.36,0.27 0.51,0.35 0.14,0.07 0.26,0.1 0.36,0.09 0.1,-0.01 0.19,-0.05 0.26,-0.13 l 5.65,-5.5 c 0.52,-0.51 0.95,-0.87 1.3,-1.07 0.34,-0.2 0.67,-0.33 1.01,-0.38 0.33,-0.06 0.65,-0.03 0.97,0.08 0.32,0.1 0.61,0.3 0.89,0.58 0.35,0.36 0.57,0.85 0.66,1.47 0.09,0.61 0.09,1.37 -0.01,2.27 l -6.64,6.48 c -0.08,0.07 -0.12,0.15 -0.14,0.25 -0.02,0.09 0.01,0.21 0.08,0.36 0.07,0.14 0.18,0.31 0.33,0.51 0.16,0.2 0.37,0.44 0.64,0.71 0.27,0.28 0.5,0.5 0.7,0.66 0.19,0.16 0.36,0.27 0.5,0.34 0.13,0.07 0.25,0.1 0.35,0.09 0.1,-0.01 0.19,-0.05 0.27,-0.12 z m 18.23,18.71 c 0.08,-0.07 0.12,-0.16 0.14,-0.26 0.01,-0.1 -0.02,-0.22 -0.08,-0.36 -0.07,-0.14 -0.18,-0.31 -0.33,-0.51 -0.16,-0.19 -0.37,-0.43 -0.64,-0.71 -0.28,-0.28 -0.51,-0.5 -0.71,-0.67 -0.19,-0.16 -0.36,-0.27 -0.5,-0.34 -0.14,-0.08 -0.26,-0.11 -0.36,-0.09 -0.1,0.01 -0.18,0.05 -0.26,0.13 l -5.92,5.77 c -0.34,0.33 -0.68,0.6 -1.01,0.81 -0.34,0.2 -0.67,0.34 -1,0.4 -0.32,0.06 -0.64,0.04 -0.94,-0.05 -0.3,-0.09 -0.59,-0.27 -0.85,-0.55 -0.33,-0.34 -0.53,-0.8 -0.61,-1.4 -0.07,-0.6 -0.05,-1.35 0.05,-2.24 l 6.65,-6.47 c 0.07,-0.08 0.11,-0.16 0.13,-0.26 0.01,-0.1 -0.02,-0.22 -0.09,-0.37 -0.06,-0.14 -0.18,-0.31 -0.33,-0.51 -0.16,-0.2 -0.37,-0.43 -0.63,-0.7 -0.27,-0.28 -0.5,-0.49 -0.69,-0.66 -0.2,-0.16 -0.37,-0.27 -0.51,-0.35 -0.14,-0.07 -0.26,-0.1 -0.36,-0.09 -0.1,0.01 -0.19,0.05 -0.26,0.13 l -5.93,5.77 c -0.34,0.33 -0.67,0.6 -1.01,0.8 -0.34,0.21 -0.67,0.35 -0.99,0.41 -0.32,0.07 -0.64,0.05 -0.94,-0.04 -0.31,-0.1 -0.59,-0.28 -0.85,-0.55 -0.34,-0.34 -0.54,-0.82 -0.61,-1.41 -0.08,-0.6 -0.06,-1.34 0.06,-2.23 l 6.64,-6.47 c 0.07,-0.08 0.12,-0.16 0.13,-0.26 0.01,-0.1 -0.02,-0.22 -0.08,-0.37 -0.07,-0.14 -0.18,-0.31 -0.34,-0.51 -0.16,-0.2 -0.37,-0.44 -0.64,-0.71 -0.27,-0.28 -0.5,-0.5 -0.69,-0.66 -0.2,-0.16 -0.36,-0.28 -0.51,-0.35 -0.14,-0.07 -0.26,-0.1 -0.36,-0.09 -0.1,0.01 -0.19,0.05 -0.26,0.12 l -9.99,9.75 c -0.08,0.07 -0.13,0.15 -0.15,0.24 -0.02,0.09 0,0.21 0.06,0.34 0.06,0.13 0.15,0.29 0.28,0.46 0.13,0.17 0.31,0.37 0.54,0.6 0.23,0.24 0.43,0.43 0.6,0.57 0.18,0.14 0.32,0.23 0.44,0.28 0.12,0.05 0.23,0.07 0.32,0.05 0.1,-0.02 0.18,-0.06 0.25,-0.14 l 1.16,-1.12 c -0.06,1.13 0.03,2.12 0.26,2.96 0.24,0.84 0.65,1.56 1.23,2.16 0.4,0.41 0.81,0.74 1.21,0.98 0.41,0.25 0.82,0.42 1.23,0.52 0.41,0.1 0.82,0.14 1.23,0.1 0.4,-0.03 0.81,-0.11 1.21,-0.26 -0.03,0.62 -0.03,1.18 0.02,1.69 0.05,0.51 0.14,0.98 0.27,1.4 0.13,0.43 0.29,0.81 0.49,1.16 0.2,0.35 0.45,0.67 0.73,0.96 0.65,0.67 1.31,1.12 1.98,1.35 0.66,0.24 1.33,0.31 1.98,0.22 0.66,-0.1 1.31,-0.34 1.94,-0.72 0.63,-0.38 1.23,-0.85 1.81,-1.41 z m 11.02,11.23 c 0.1,-0.1 0.15,-0.22 0.14,-0.35 -0.02,-0.14 -0.09,-0.3 -0.22,-0.48 -0.13,-0.19 -0.35,-0.44 -0.65,-0.75 -0.33,-0.34 -0.58,-0.57 -0.76,-0.7 -0.17,-0.12 -0.32,-0.19 -0.44,-0.2 -0.12,0 -0.24,0.05 -0.34,0.15 l -0.8,0.77 c 0.04,-0.84 -0.07,-1.64 -0.34,-2.41 -0.26,-0.76 -0.71,-1.47 -1.34,-2.11 -0.51,-0.53 -1.06,-0.95 -1.63,-1.26 -0.57,-0.31 -1.15,-0.49 -1.74,-0.55 -0.59,-0.06 -1.17,0.02 -1.75,0.23 -0.58,0.21 -1.14,0.58 -1.68,1.11 -0.58,0.57 -0.97,1.17 -1.18,1.82 -0.21,0.65 -0.23,1.33 -0.07,2.06 0.16,0.72 0.5,1.48 1.02,2.29 0.52,0.8 1.22,1.65 2.08,2.54 l 0.95,0.97 -0.6,0.59 c -0.32,0.31 -0.62,0.54 -0.92,0.71 -0.3,0.16 -0.59,0.25 -0.89,0.26 -0.3,0 -0.61,-0.08 -0.92,-0.25 -0.31,-0.17 -0.64,-0.43 -0.99,-0.79 -0.46,-0.47 -0.81,-0.94 -1.07,-1.41 -0.26,-0.47 -0.46,-0.91 -0.61,-1.32 -0.15,-0.41 -0.26,-0.76 -0.34,-1.05 -0.09,-0.29 -0.18,-0.5 -0.3,-0.62 -0.08,-0.08 -0.18,-0.13 -0.29,-0.14 -0.12,-0.01 -0.24,0.01 -0.38,0.06 -0.14,0.05 -0.29,0.14 -0.45,0.25 -0.16,0.12 -0.33,0.26 -0.5,0.43 -0.24,0.23 -0.4,0.42 -0.5,0.59 -0.1,0.17 -0.15,0.36 -0.15,0.57 -0.01,0.21 0.05,0.51 0.17,0.9 0.13,0.39 0.3,0.81 0.53,1.27 0.23,0.46 0.52,0.93 0.85,1.42 0.33,0.48 0.71,0.94 1.14,1.38 0.77,0.79 1.5,1.38 2.19,1.79 0.7,0.41 1.38,0.63 2.05,0.68 0.66,0.05 1.33,-0.08 1.99,-0.41 0.66,-0.32 1.33,-0.82 2.02,-1.49 z m -6.98,1.4 -1.05,-1.07 c -0.44,-0.46 -0.78,-0.88 -1.03,-1.26 -0.25,-0.39 -0.4,-0.75 -0.46,-1.08 -0.06,-0.34 -0.05,-0.64 0.05,-0.92 0.1,-0.28 0.28,-0.54 0.52,-0.78 0.42,-0.41 0.88,-0.6 1.38,-0.56 0.49,0.03 0.97,0.28 1.43,0.75 0.39,0.4 0.64,0.86 0.76,1.39 0.12,0.53 0.16,1.15 0.11,1.87 z m 19.01,11 c 0.07,-0.07 0.12,-0.15 0.13,-0.25 0.01,-0.1 -0.02,-0.22 -0.08,-0.36 -0.06,-0.15 -0.18,-0.32 -0.34,-0.52 -0.16,-0.2 -0.37,-0.43 -0.63,-0.7 -0.27,-0.28 -0.5,-0.5 -0.7,-0.66 -0.2,-0.17 -0.36,-0.29 -0.5,-0.35 -0.14,-0.07 -0.26,-0.1 -0.36,-0.09 -0.1,0.01 -0.19,0.05 -0.26,0.12 l -5.7,5.56 c -0.49,0.47 -0.91,0.81 -1.25,1.01 -0.35,0.2 -0.68,0.33 -1.01,0.38 -0.33,0.06 -0.65,0.04 -0.97,-0.07 -0.32,-0.11 -0.61,-0.3 -0.89,-0.59 -0.35,-0.35 -0.57,-0.84 -0.67,-1.46 -0.09,-0.62 -0.08,-1.38 0.03,-2.26 l 6.65,-6.48 c 0.07,-0.07 0.11,-0.16 0.13,-0.26 0.01,-0.09 -0.02,-0.22 -0.09,-0.36 -0.07,-0.15 -0.18,-0.32 -0.33,-0.51 -0.16,-0.2 -0.37,-0.44 -0.64,-0.72 -0.27,-0.27 -0.5,-0.49 -0.7,-0.65 -0.19,-0.16 -0.36,-0.28 -0.5,-0.35 -0.14,-0.07 -0.27,-0.1 -0.37,-0.09 -0.09,0.01 -0.18,0.05 -0.26,0.12 l -9.99,9.74 c -0.07,0.07 -0.12,0.16 -0.14,0.25 -0.02,0.09 0,0.2 0.06,0.34 0.05,0.13 0.15,0.28 0.28,0.45 0.13,0.18 0.31,0.38 0.53,0.61 0.24,0.24 0.44,0.43 0.61,0.57 0.17,0.13 0.32,0.23 0.44,0.28 0.12,0.05 0.23,0.06 0.32,0.05 0.09,-0.02 0.17,-0.07 0.25,-0.14 l 1.15,-1.12 c -0.06,1.13 0.04,2.13 0.3,2.99 0.26,0.86 0.69,1.61 1.3,2.23 0.66,0.68 1.33,1.14 2.01,1.39 0.68,0.25 1.35,0.33 2.02,0.24 0.66,-0.09 1.31,-0.32 1.95,-0.7 0.64,-0.37 1.32,-0.91 2.05,-1.62 z m 11.01,11.23 c 0.1,-0.1 0.15,-0.22 0.13,-0.35 -0.01,-0.14 -0.08,-0.3 -0.21,-0.48 -0.13,-0.19 -0.35,-0.44 -0.66,-0.75 -0.32,-0.34 -0.58,-0.57 -0.75,-0.7 -0.18,-0.13 -0.32,-0.19 -0.45,-0.2 -0.12,0 -0.23,0.05 -0.34,0.15 l -0.79,0.77 c 0.04,-0.84 -0.07,-1.64 -0.34,-2.41 -0.27,-0.76 -0.71,-1.47 -1.34,-2.11 -0.52,-0.53 -1.06,-0.95 -1.63,-1.26 -0.57,-0.31 -1.15,-0.49 -1.74,-0.55 -0.59,-0.06 -1.18,0.01 -1.75,0.23 -0.58,0.21 -1.14,0.58 -1.68,1.11 -0.58,0.56 -0.98,1.17 -1.18,1.82 -0.21,0.64 -0.23,1.33 -0.07,2.05 0.16,0.73 0.5,1.49 1.02,2.3 0.52,0.8 1.21,1.65 2.08,2.53 l 0.95,0.98 -0.61,0.59 c -0.31,0.3 -0.61,0.54 -0.91,0.71 -0.3,0.16 -0.6,0.25 -0.9,0.26 -0.29,0 -0.6,-0.08 -0.91,-0.25 -0.31,-0.17 -0.64,-0.43 -0.99,-0.79 -0.46,-0.47 -0.82,-0.94 -1.07,-1.41 -0.26,-0.48 -0.46,-0.92 -0.61,-1.32 -0.15,-0.41 -0.27,-0.76 -0.35,-1.05 -0.08,-0.3 -0.18,-0.5 -0.29,-0.62 -0.08,-0.08 -0.18,-0.13 -0.3,-0.14 -0.11,-0.02 -0.24,0.01 -0.37,0.06 -0.14,0.05 -0.29,0.14 -0.45,0.25 -0.17,0.12 -0.34,0.26 -0.51,0.43 -0.23,0.22 -0.39,0.42 -0.49,0.59 -0.1,0.17 -0.15,0.36 -0.16,0.57 0,0.21 0.05,0.51 0.18,0.9 0.12,0.38 0.3,0.81 0.53,1.27 0.23,0.46 0.51,0.93 0.85,1.41 0.33,0.49 0.71,0.95 1.14,1.39 0.76,0.79 1.49,1.38 2.19,1.79 0.69,0.41 1.38,0.63 2.04,0.68 0.67,0.05 1.33,-0.09 1.99,-0.41 0.66,-0.32 1.34,-0.82 2.03,-1.49 z m -6.98,1.4 -1.05,-1.07 c -0.44,-0.46 -0.79,-0.88 -1.03,-1.27 -0.25,-0.38 -0.4,-0.74 -0.47,-1.07 -0.06,-0.34 -0.04,-0.64 0.06,-0.92 0.1,-0.28 0.27,-0.54 0.52,-0.78 0.42,-0.41 0.87,-0.6 1.37,-0.56 0.5,0.03 0.98,0.28 1.44,0.75 0.38,0.39 0.64,0.86 0.76,1.39 0.12,0.53 0.16,1.15 0.1,1.87 z"
           id="path131" />
      </g>
    </g>
    <g
       id="g143">
      <g
         clip-path="url(#clipPath4878)"
         id="g141">
        <text
           transform="matrix(1,0,0,-1,11.88,426.89)"
           fill="#ffff00"
           font-family="Calibri"
           font-size="24.024px"
           font-weight="bold"
           xml:space="preserve"
           id="text139"><tspan
             x="0 12.588576 24.672647 37.573536 50.498447 60.084023 65.993927"
             y="0"
             id="tspan137">Kenosis</tspan></text>
      </g>
    </g>
    <g
       id="g151">
      <g
         clip-path="url(#clipPath4890)"
         id="g149">
        <text
           transform="matrix(1,0,0,-1,93,426.89)"
           fill="#ffff00"
           font-family="Calibri"
           font-size="24.024px"
           xml:space="preserve"
           id="text147"><tspan
             x="0"
             y="0"
             id="tspan145">–</tspan></text>
      </g>
    </g>
    <g
       id="g159">
      <g
         clip-path="url(#clipPath4902)"
         id="g157">
        <text
           transform="matrix(1,0,0,-1,110.28,426.89)"
           fill="#ffff00"
           font-family="Calibri"
           font-size="24.024px"
           xml:space="preserve"
           id="text155"><tspan
             x="0 10.09008 21.597576 27.027 38.534496 51.147095 56.672615 66.83477 72.360291 85.020935 97.561462 102.99089 115.60349 127.56744 132.99686 145.80165 154.18604 159.71155 168.84067 176.64847 189.30911"
             y="0"
             id="tspan153">La adición de Cristo </tspan></text>
      </g>
    </g>
    <g
       id="g167">
      <g
         clip-path="url(#clipPath4914)"
         id="g165">
        <text
           transform="matrix(1,0,0,-1,11.88,398.06)"
           fill="#ffff00"
           font-family="Calibri"
           font-size="24px"
           xml:space="preserve"
           id="text163"><tspan
             x="0 12.6 24.552 29.976 42.576 55.175999 66.671997 72.096001 84.695999 96 104.04 116.64 124.56 136.056 141.576 153.36 162.48 173.976 179.28 191.88 204.48 223.65601 235.15199 247.752 259.24799 264.60001 276.09601"
             y="0"
             id="tspan161">de una naturaleza humana a </tspan></text>
      </g>
    </g>
    <g
       id="g175">
      <g
         clip-path="url(#clipPath4926)"
         id="g173">
        <text
           transform="matrix(1,0,0,-1,11.88,369.26)"
           fill="#ffff00"
           font-family="Calibri"
           font-size="24px"
           xml:space="preserve"
           id="text171"><tspan
             x="0 9.3839998 21.983999 27.408001 39.240002 51.192001 59.279999 68.664001 81.239998 93.839996 105.336 110.76 122.712 135.312 140.73599 146.256 157.752 163.08 175.032 187.632 197.64 209.136 217.51199 230.112 241.65601 251.808 257.328 269.97601 282.57599 288.57599"
             y="0"
             id="tspan169">su Persona en la encarnación, </tspan></text>
      </g>
    </g>
    <g
       id="g183">
      <g
         clip-path="url(#clipPath4938)"
         id="g181">
        <text
           transform="matrix(1,0,0,-1,11.88,340.46)"
           fill="#ffff00"
           font-family="Calibri"
           font-size="24px"
           xml:space="preserve"
           id="text179"><tspan
             x="0 12.6 25.200001 37.152 42.576 53.16 65.807999 71.328003 83.928001 96.239998 104.04 115.536 123.912 129.43201 140.976 160.15199 172.104 184.536 192.336 204.28799 209.616 217.65601 229.608 238.776 246.81599 255.192 260.71201 273.31201 284.616 290.13599 302.784"
             y="0"
             id="tspan177">que voluntariamente restringió </tspan></text>
      </g>
    </g>
    <g
       id="g191">
      <g
         clip-path="url(#clipPath4950)"
         id="g189">
        <text
           transform="matrix(1,0,0,-1,11.88,311.66)"
           fill="#ffff00"
           font-family="Calibri"
           font-size="24.024px"
           xml:space="preserve"
           id="text187"><tspan
             x="0 11.507496 21.669647 31.903872 43.867825 53.261208 65.92186 71.135063 82.642563 87.927841 98.954857 111.56746 116.99688 129.60948 140.85271 148.90076 161.51335 169.41725 180.92474 186.45027 198.22203 207.35115 218.85864 224.14392 236.75652 242.28204 253.06882 258.59433 271.20694 282.71445"
             y="0"
             id="tspan185">acceso a Su naturaleza divina </tspan></text>
      </g>
    </g>
    <g
       id="g199">
      <g
         clip-path="url(#clipPath4962)"
         id="g197">
        <text
           transform="matrix(1,0,0,-1,11.88,282.84)"
           fill="#ffff00"
           font-family="Calibri"
           font-size="24px"
           xml:space="preserve"
           id="text195"><tspan
             x="0 12.6 24.096001 32.040001 43.535999 48.84 56.880001 64.800003 76.080002 83.879997 95.375999 103.752 108.96 118.92 131.56799 144.168 149.52 155.03999 167.688 177 182.424 195.024 203.03999 215.688 228.28799 233.808 245.75999 264.936 276.43201 285.81601"
             y="0"
             id="tspan193">para tratar con los problemas </tspan></text>
      </g>
    </g>
    <g
       id="g207">
      <g
         clip-path="url(#clipPath4974)"
         id="g205">
        <text
           transform="matrix(1,0,0,-1,11.88,254.04)"
           fill="#ffff00"
           font-family="Calibri"
           font-size="24px"
           xml:space="preserve"
           id="text203"><tspan
             x="0 12.6 24.552 29.976 35.495998 46.992001 52.32 63.959999 74.351997 86.952003 98.975998 107.352 112.872 124.824 137.424 147.672 153.192 164.688 169.992 182.592 195.192 214.368 225.864 238.464 249.96001"
             y="0"
             id="tspan201">de la experiencia humana.</tspan></text>
      </g>
    </g>
    <g
       id="g215">
      <g
         clip-path="url(#clipPath4986)"
         id="g213">
        <text
           transform="matrix(1,0,0,-1,11.88,225.24)"
           fill="#ffff00"
           font-family="Calibri"
           font-size="24.024px"
           font-style="italic"
           xml:space="preserve"
           id="text211"><tspan
             x="0 11.027016 16.552536 22.078056 27.603577 39.951912 51.435383 63.783718 73.129059 84.684601 94.029938 99.315216 111.49538 117.93382"
             y="0"
             id="tspan209">Filipenses 2:5</tspan></text>
      </g>
    </g>
    <g
       id="g223">
      <g
         clip-path="url(#clipPath4998)"
         id="g221">
        <text
           transform="matrix(1,0,0,-1,141.98,225.24)"
           fill="#ffff00"
           font-family="Calibri"
           font-size="24.024px"
           font-style="italic"
           xml:space="preserve"
           id="text219"><tspan
             x="0"
             y="0"
             id="tspan217">-</tspan></text>
      </g>
    </g>
    <g
       id="g231">
      <g
         clip-path="url(#clipPath5010)"
         id="g229">
        <text
           transform="matrix(1,0,0,-1,149.3,225.24)"
           fill="#ffff00"
           font-family="Calibri"
           font-size="24.024px"
           font-style="italic"
           xml:space="preserve"
           id="text227"><tspan
             x="0 12.119968"
             y="0"
             id="tspan225">11</tspan></text>
      </g>
    </g>
    <g
       id="g239">
      <g
         clip-path="url(#clipPath5022)"
         id="g237">
        <text
           transform="matrix(1,0,0,-1,491.28,226.39)"
           fill="#ffff00"
           font-family="Calibri"
           font-size="24.024px"
           font-weight="bold"
           xml:space="preserve"
           id="text235"><tspan
             x="0 15.687672 28.58856 34.498463 47.471424 60.372311 65.633568 80.792709 86.702614 99.6035 112.52842 121.9218 129.99387 141.66953 150.00586 155.91576 165.86169 177.72955"
             y="0"
             id="tspan233">Unión Hipostática </tspan></text>
      </g>
    </g>
    <g
       id="g247">
      <g
         clip-path="url(#clipPath5034)"
         id="g245">
        <text
           transform="matrix(1,0,0,-1,674.09,226.39)"
           fill="#ffff00"
           font-family="Calibri"
           font-size="24.024px"
           xml:space="preserve"
           id="text243"><tspan
             x="0"
             y="0"
             id="tspan241">–</tspan></text>
      </g>
    </g>
    <g
       id="g255">
      <g
         clip-path="url(#clipPath5046)"
         id="g253">
        <text
           transform="matrix(1,0,0,-1,459,197.57)"
           fill="#ffff00"
           font-family="Calibri"
           font-size="24px"
           xml:space="preserve"
           id="text251"><tspan
             x="0 15.408 28.007999 33.528 46.080002 58.68 64.103996 76.704002 88.655998 96.720001 106.104 118.68 131.28 142.776 148.29601 153.72 165.672 173.39999 185.35201 193.776 206.37601 217.87199 223.17599 235.776 247.728"
             y="0"
             id="tspan249">Unión personal eterna de </tspan></text>
      </g>
    </g>
    <g
       id="g263">
      <g
         clip-path="url(#clipPath5058)"
         id="g261">
        <text
           transform="matrix(1,0,0,-1,459,168.77)"
           fill="#ffff00"
           font-family="Calibri"
           font-size="24px"
           xml:space="preserve"
           id="text259"><tspan
             x="0 7.8000002 20.448 28.200001 39.695999 45.216 50.52 63.119999 75.071999 80.592003 93.192001 104.736 117.336 122.76 133.632 138.936 149.496 161.448 169.536 182.136 193.632 206.23199 218.23199 226.15199 237.64799"
             y="0"
             id="tspan257">total deidad y verdadera </tspan></text>
      </g>
    </g>
    <g
       id="g271">
      <g
         clip-path="url(#clipPath5070)"
         id="g269">
        <text
           transform="matrix(1,0,0,-1,459,139.97)"
           fill="#ffff00"
           font-family="Calibri"
           font-size="24px"
           xml:space="preserve"
           id="text267"><tspan
             x="0 12.6 25.200001 44.375999 55.872002 68.472 73.991997 86.592003 98.087997 110.688 116.112 128.136 140.73599 146.16 161.56799 176.976 190.87199"
             y="0"
             id="tspan265">humanidad en UNA </tspan></text>
      </g>
    </g>
    <g
       id="g279">
      <g
         clip-path="url(#clipPath5082)"
         id="g277">
        <text
           transform="matrix(1,0,0,-1,459,111.17)"
           fill="#ffff00"
           font-family="Calibri"
           font-size="24.024px"
           xml:space="preserve"
           id="text275"><tspan
             x="0 12.6126 24.576551 32.648617 42.042 54.606552 67.219154 78.726646 84.156075 96.768669 109.33322 117.7176 123.14703 132.54041 138.06593 150.02988 169.22505 181.83766 189.86168 201.82562 207.13493 216.52831 222.05383 234.66643"
             y="0"
             id="tspan273">persona por siempre sin </tspan></text>
      </g>
    </g>
    <g
       id="g287">
      <g
         clip-path="url(#clipPath5094)"
         id="g285">
        <text
           transform="matrix(1,0,0,-1,459,82.344)"
           fill="#ffff00"
           font-family="Calibri"
           font-size="24px"
           xml:space="preserve"
           id="text283"><tspan
             x="0 8.04 15.96 27.455999 40.056 49.200001 55.919998 67.872002 76.295998 81.816002 90.192001 95.496002 108.144 113.496 126.096 138.048 146.136 158.73599 170.688 179.112 184.536 195.552 208.15199"
             y="0"
             id="tspan281">transferir o perder Su </tspan></text>
      </g>
    </g>
    <g
       id="g295">
      <g
         clip-path="url(#clipPath5106)"
         id="g293">
        <text
           transform="matrix(1,0,0,-1,459,53.544)"
           fill="#ffff00"
           font-family="Calibri"
           font-size="24px"
           xml:space="preserve"
           id="text291"><tspan
             x="0 11.952 21.336 33.335999 45.936001 56.088001 61.608002 73.152 79.199997"
             y="0"
             id="tspan289">esencia. </tspan></text>
      </g>
    </g>
    <g
       id="g303">
      <g
         clip-path="url(#clipPath5118)"
         id="g301">
        <text
           transform="matrix(1,0,0,-1,543.5,53.544)"
           fill="#ffff00"
           font-family="Calibri"
           font-size="24px"
           font-style="italic"
           xml:space="preserve"
           id="text299"><tspan
             x="0 12.528 24.936001 30.455999 42.768002 52.152 63.624001 76.008003 85.344002 96.863998 106.2 111.504 123.672 130.104 142.272 148.70399"
             y="0"
             id="tspan297">Colosenses 2:9; </tspan></text>
      </g>
    </g>
    <g
       id="g311">
      <g
         clip-path="url(#clipPath5130)"
         id="g309">
        <text
           transform="matrix(1,0,0,-1,459,24.744)"
           fill="#ffff00"
           font-family="Calibri"
           font-size="24.024px"
           font-style="italic"
           xml:space="preserve"
           id="text307"><tspan
             x="0 12.180168 23.759735 29.285255 48.288239 60.612553 68.396332 79.879799 92.252159 97.681587 109.76566 116.20409"
             y="0"
             id="tspan305">1Timoteo 2:5</tspan></text>
      </g>
    </g>
    <g
       id="g319">
      <g
         clip-path="url(#clipPath5142)"
         id="g317">
        <text
           transform="matrix(1,0,0,-1,7.2,5.016)"
           fill="#ffff00"
           font-family="'Times New Roman'"
           font-size="6px"
           xml:space="preserve"
           id="text315"><tspan
             x="0 3.96 5.5139999 9.474 11.028 12.468 17.988001 20.628 22.662001 25.662001 27.216"
             y="0"
             id="tspan313">R.C. Ward, </tspan></text>
      </g>
    </g>
    <g
       id="g327">
      <g
         clip-path="url(#clipPath5154)"
         id="g325">
        <text
           transform="matrix(1,0,0,-1,36,5.016)"
           fill="#ffff00"
           font-family="'Times New Roman'"
           font-size="6px"
           xml:space="preserve"
           id="text323"><tspan
             x="0 3.24 5.8800001 8.7600002 10.794 13.794 16.434 18.468"
             y="0"
             id="tspan321">February</tspan></text>
      </g>
    </g>
    <g
       id="g335">
      <g
         clip-path="url(#clipPath5166)"
         id="g333">
        <text
           transform="matrix(1,0,0,-1,59.04,5.016)"
           fill="#ffff00"
           font-family="'Times New Roman'"
           font-size="6px"
           xml:space="preserve"
           id="text331"><tspan
             x="0 3 6 9"
             y="0"
             id="tspan329">2003</tspan></text>
      </g>
    </g>
  </g>
</svg>
