<?xml version="1.0" encoding="UTF-8"?>
<svg viewBox="0 0 90.236 78.542" xmlns="http://www.w3.org/2000/svg">
 <polygon points="28.875 52.893 21.317 52.882 12.987 68.352 21.641 68.352"/>
 <path d="m31.729 52.776l-5.761 15.468 9.045-0.024 1.449-5.06s3.108-7.944 2.359-9.027c-1.236-1.786-5.335-1.209-4.903-1.317s-2.189-0.040001-2.189-0.040001z"/>
 <polygon points="40.693 53.64 40.175 57.311 39.167 68.352 48.268 68.375 47.956 59.11 47.293 53.64"/>
 <path d="m51.932 62.078l0.974 6.383 8.891 0.032-4.671-15.395-1.623-0.01s-4.412-0.464-4.268 0.552c0.164 1.153 1.8 0.759 0.394 1.084s0.303 7.354 0.303 7.354z"/>
 <polygon points="59.919 53.167 66.567 68.376 75.089 68.259 66.814 53.195"/>
 <path d="m44.684 27.892s-2.565 0.082001-5.625 4.977c-0.925 1.479-1.622 4.219-3.029 4.977s-3.458 0.664-3.895 1.19c-1.061 1.275 0.133 2.345 0.133 2.345s0.684 0.311 1.551 0.409c2.158 0.245 3.454-0.506 3.454-0.506s3.3-1.454 4.383-3.546c0.58-1.121 1.298 0.108 1.19 1.082s0.409 3.651-0.216 4.219c-2.38 2.163-7.356 7.356-7.356 7.356l-2.605 9.341 0.469 1.056 1.251 0.821 1.929 0.011 1.365-0.614 2.457-8.941 4.642-4.3 0.751-0.341 2.614 6.537 5.626 6.708s0.647 0.217 1.514-0.541 1.73-1.081 1.082-2.271-4.869-7.467-4.869-7.467l-0.648-15.687 1.298 1.73v5.301s-0.065002 1.659 1.73 1.623c1.549-0.030998 1.958-0.714 1.958-0.714v-7.371s-3.754-7.576-6.826-7.709c-1.733-0.074999-4.328 0.325-4.328 0.325z" stroke="#fff"/>
 <ellipse cx="44.306" cy="23.889" rx="4.057" ry="3.786"/>
</svg>
