<?xml version="1.0" encoding="UTF-8"?>
<svg viewBox="0 0 533.33 500" xmlns="http://www.w3.org/2000/svg" xmlns:xlink="http://www.w3.org/1999/xlink">
 <defs>
  <linearGradient id="m" x1="104.29" x2="138.49" y1="154.81" y2="154.81" gradientTransform="matrix(.96132 0 0 1.0402 -103.65 -150.87)" gradientUnits="userSpaceOnUse">
   <stop stop-color="#00b207" offset="0"/>
   <stop stop-color="#83d400" offset=".5"/>
   <stop stop-color="#00b207" offset="1"/>
  </linearGradient>
  <pattern id="o" patternTransform="translate(237.51 272.06)" xlink:href="#a"/>
  <pattern id="b" patternTransform="translate(-227.69 272.06)" xlink:href="#a"/>
  <pattern id="a" xlink:href="#n" patternTransform="translate(147.8 271.55)"/>
  <pattern id="n" width="35.989169" height="35.26939" patternTransform="translate(93.85 187.06)" patternUnits="userSpaceOnUse">
   <path d="m32.21 35l3.7789 0.135-34.55-0.045c-0.92973-11.786-1.2296-18.444-1.4396-35.089 1.7095 17.155 1.6195 21.444 2.1594 32.57 0.089966-6.568 0.53984-12.506 1.6195-18.894 0.059982 7.1978-0.23993 13.766-0.89973 20.514 0.35989 0.23993 0.71979 0.47986 1.0797 0.71979h3.0591c-1.1397-2.2793-1.6495-4.6486-1.7995-6.2981 0.89973 1.4995 1.6195 3.179 2.1594 5.5783-0.77976-4.7686-1.2896-9.2672-1.2596-14.036 0.95971 5.5783 1.5595 8.6374 1.7995 12.956 0.17995-2.9391 0.089966-5.6983 0.53984-8.8173 0.38988 3.7189 0.41988 7.2578 0 10.527l5.5783 0.09c-0.77976-5.0985-1.2896-9.2072-1.2596-15.295 1.1996 5.8182 1.3196 9.4771 1.9794 14.216-0.23993-5.8182-0.74977-7.9476 0.9897-16.825-0.56983 9.3572-0.86974 11.247 0.62981 18.264h5.9382c0.20993-9.3572 0.14995-13.586-0.71979-25.372 2.3093 10.317 1.8294 14.066 1.3496 23.213 0.53984-7.6777 0.35989-24.443 3.329-30.501-1.8294 9.7471-2.1294 21.114-2.6992 32.3h6.2981c-0.83974-4.1388-1.5895-8.2775-1.4396-12.416 0.92973 6.1482 1.3196 8.6074 2.6092 11.067-0.44988-5.3684 0.17995-10.827 1.5295-15.745-0.59982 6.688-1.2457 14.735-0.35989 17.185z" fill="url(#m)" fill-rule="evenodd" stroke-width=".312"/>
  </pattern>
  <pattern id="p" patternTransform="translate(282.29 272.06)" xlink:href="#a"/>
  <pattern id="u" patternTransform="translate(481.81 272.06)" xlink:href="#c"/>
  <pattern id="c" patternTransform="translate(393.25 273.08)" xlink:href="#a"/>
  <pattern id="t" patternTransform="translate(522.52 272.06)" xlink:href="#c"/>
  <pattern id="r" patternTransform="translate(-471.99 274.1)" xlink:href="#b"/>
  <pattern id="q" patternTransform="translate(-364.09 272.06)" xlink:href="#b"/>
  <pattern id="s" patternTransform="translate(-598.21 273.08)" xlink:href="#b"/>
 </defs>
 <path d="m176.26 246.22c-0.93851 4.6567-8.1339 8.89-13.139 7.62-3.1285 5.7856-11.262 8.6078-13.14-2.9633-21.586 16.228-33.162-6.9145-15.955-27.517-14.286 6.4911-10.428-32.738 6.2568-35.137-2.7113-13.406 12.097-22.154 20.961-12.277-1.0428-7.62 12.305-18.203 17.832-4.2334 5.4226-11.853 17.728-1.27 22.212 6.7734 8.5511 0.56445 17.415 8.3256 16.268 18.203 9.281 3.3867 16.372 13.97 10.95 30.48 3.9627 11.148-8.6553 23.142-22.838 15.663-8.1339 4.7978-18.771 10.442-25.34 3.81" fill="#028700" fill-rule="evenodd" stroke-width=".312"/>
 <path d="m4.7585 303.39h505.72" fill="none" stroke="#33b73e" stroke-width="2.5"/>
 <rect x="3.838" y="280.84" width="40.544" height="21.81" fill="url(#a)"/>
 <rect transform="translate(-132.44 -17.275) scale(-1 1)" x="-243.04" y="291.84" width="40.544" height="21.81" fill="url(#b)"/>
 <rect x="104.9" y="281.15" width="40.544" height="21.81" fill="url(#o)"/>
 <rect x="155.35" y="281.15" width="40.544" height="21.81" fill="url(#p)"/>
 <rect x="280.35" y="281.78" width="40.544" height="21.81" fill="url(#c)"/>
 <rect transform="translate(-132.44 -17.275) scale(-1 1)" x="-396.7" y="291.84" width="40.544" height="21.81" fill="url(#q)"/>
 <rect transform="translate(-132.44 -17.275) scale(-1 1)" x="-518.26" y="293.1" width="40.544" height="21.81" fill="url(#r)"/>
 <rect transform="translate(-132.44 -17.275) scale(-1 1)" x="-660.46" y="292.47" width="40.544" height="21.81" fill="url(#s)"/>
 <rect x="425.99" y="281.15" width="40.544" height="21.81" fill="url(#t)"/>
 <rect x="380.12" y="281.15" width="40.544" height="21.81" fill="url(#u)"/>
 <g fill-rule="evenodd" stroke-width=".312">
  <g fill="#028700">
   <path d="m123.69 107.23c-1.1974 5.2513-10.377 10.025-16.763 8.593-3.9913 6.5243-14.368 9.7069-16.763-3.3417-27.539 18.3-42.307-7.7974-20.355-31.03-18.227 7.32-13.304-36.918 7.9824-39.623-3.459-15.117 15.433-24.983 26.741-13.844-1.3304-8.593 15.699-20.528 22.75-4.7739 6.9181-13.367 22.617-1.4322 28.338 7.6382 10.909 0.63653 22.218 9.3886 20.754 20.528 11.841 3.8191 20.887 15.754 13.969 34.372 5.0556 12.571-11.042 26.097-29.136 17.663-10.377 5.4104-23.947 11.776-32.329 4.2966"/>
   <path d="m56.497 212.56c-1.0099 5.4991-8.7527 10.498-14.139 8.9984-3.3665 6.8321-12.119 10.165-14.139-3.4993-23.228 19.163-35.684-8.1653-17.169-32.494-15.374 7.6653-11.222-38.66 6.7329-41.493-2.9176-15.831 13.017-26.162 22.555-14.497-1.1222-8.9984 13.241-21.496 19.189-4.9992 5.8352-13.998 19.076-1.4997 23.902 7.9986 9.2016 0.66655 18.74 9.8316 17.506 21.496 9.9871 3.9993 17.618 16.497 11.783 35.994 4.2642 13.164-9.3138 27.328-24.575 18.497-8.7528 5.6657-20.199 12.331-27.268 4.4993"/>
   <path d="m256.41 91.362c-1.0635 5.2018-9.2169 9.9306-14.889 8.5119-3.545 6.4627-12.762 9.6153-14.889-3.3102-24.46 18.127-37.576-7.7238-18.079-30.738-16.189 7.2509-11.816-36.57 7.0898-39.249-3.0722-14.975 13.707-24.748 23.751-13.714-1.1817-8.5119 13.944-20.334 20.206-4.7289 6.1446-13.241 20.088-1.4186 25.169 7.5661 9.6895 0.63052 19.734 9.3 18.434 20.334 10.517 3.783 18.552 15.605 12.407 34.048 4.4903 12.453-9.8077 25.851-25.878 17.497-9.2169 5.3594-21.27 11.664-28.714 4.256"/>
   <path d="m381.56 103.82c-0.97427 5.3999-8.4433 10.309-13.639 8.8362-3.2475 6.709-11.691 9.9816-13.639-3.4363-22.407 18.818-34.423-8.0181-16.562-31.909-14.83 7.5272-10.825-37.963 6.4948-40.745-2.8144-15.545 12.557-25.69 21.758-14.236-1.0825-8.8362 12.773-21.109 18.51-4.909 5.6289-13.745 18.402-1.4727 23.057 7.8544 8.8762 0.65454 18.077 9.6544 16.887 21.109 9.634 3.9272 16.995 16.2 11.366 35.345 4.1135 12.927-8.9845 26.836-23.706 18.163-8.4434 5.5635-19.485 12.109-26.304 4.4182"/>
   <path d="m473.47 187.96c-1.0278 5.3504-8.9075 10.214-14.389 8.7552-3.426 6.6474-12.333 9.8901-14.389-3.4048-23.639 18.645-36.315-7.9445-17.472-31.616-15.645 7.4582-11.42-37.615 6.8518-40.371-2.9691-15.403 13.247-25.455 22.954-14.106-1.142-8.7552 13.475-20.915 19.528-4.864 5.9383-13.619 19.414-1.4592 24.324 7.7824 9.3642 0.64855 19.071 9.5658 17.815 20.915 10.164 3.8912 17.929 16.051 11.991 35.021 4.3395 12.808-9.4785 26.59-25.01 17.997-8.9075 5.5125-20.556 11.998-27.75 4.3777"/>
  </g>
  <path transform="rotate(-.17492 284.42 276.62)" d="m244.65 205.73c13.55 14.531 15.882 36.975 14.696 55.146-0.91351 13.997-6.8189 29.729-20.995 41.36l-11.202 9.1911-89.884 9.1911 88.263-3.8071-12.079 5.7504-52.061 10.593-81.752-4.8424 33.946 6.0461-46.12 26.582 56.314-24.598 39.686 1.5312-30.484 22.56 44.486-24.965 44.486-5.4677-3.0704 16.686 14.744-14.997 21.522-14.714c6.1085-4.1763 7.5141 19.546 0 27.77-7.1821 7.8605-45.166 19.865-44.089 21.829 1.0228 1.8656 43.674-14.538 50.387-10.34 7.9834 4.9928 8.2164 27.102-6.2983 33.318l-12.072 5.17-85.816-3.7339-59.368-16.596 49.805 17.296c-21.189 1.5528-43.382 0.16513-67.765 6.3817-18.276 4.6596-32.386 8.2546-50.678 13.244 17.398-2.0958 49.82-10.377 70.041-13.181 19.145-2.6547 39.737-2.1302 59.605-3.1953l64.444 2.7107-66.773 14.774-39.422-8.123 30.91 9.6847-79.312 22.322 35.808-5.7646-13.588 31.872 23.153-34.189 29.51-8.6368 22.161 15.49-10.366-16.802 79.124-17.377-51.043 29.727 63.772-29.009 20.47-6.3189c10.322-3.1862 8.0523-0.020966 9.4036 15.893l0.9706 11.432-26.979 12.215 29.562-7.703-3.0975 16.668-49.019 9.9263-44.534-4.4117 41.544 7.6515-8.8431 16.843 18.259-17.187 42.403-8.5707 0.4135 4.6416 0.3827 29.424 5.7828-25.388 63.351 18.294-61.804-23.09 0.6833-19.8 30.026 10.988-29.175-17.085 3.7634-33.039c0.19925-1.7494 3.518 2.4811 9.3446 7.6495l13.173 11.685 16.415 22.452-3.8645-14.049 60.169 31.906-55.564-35.016 54.658 13.237-65.989-20.631c-40.914-30.1-0.10324-11.784 64.034 3.4466l17.891 4.2486 78.812 36.442-57.799-31.306 80.766 14.65-151.23-37.05 49.274-3.7323 63.971 12.639-55.668-14.935 92.345-5.1692-86.142 1.1504-61.998 6.3204-16.416-1.6408c-14.732-1.4725-30.32-8.1924-35.691-14.936-6.5256-8.1923-8.8905-27.786 0-29.871 10.705-2.5105 58.142 18.198 58.785 16.084 0.75613-2.4822-42.144-18.61-54.586-29.871-5.7527-5.2064-5.654-21.286 0-19.531l14.805 4.5956 20.743 22.468-7.4632-20.588 50.465 15.569 36.742 21.029-15.032-18.732 62.165 8.8896 71.629 10.062-57.527-13.498 41.566-13.185-51.961 11.999-77.199-11.746 28.204-9.3091-40.093 7.4449-16.34-4.7409c-7.3298-2.1266-31.386-11.366-50.207-33.236-9.2874-10.792-13.176-23.729-12.597-35.616 0.8204-16.836-0.80814-37.45 16.796-50.551 34.883-25.961 85.266-46.704 132.27-68.933 15.856-7.4995 33.64-4.0364 61.957-16.89-69.186 11.577-71.355 10.25-63.937-14.618-13.366 7.6267-9.7223 25.831-25.717 35.036-35.898 20.66-76.903 38.057-102.47 40.129-12.223 0.99089-0.74158-27.392 8.3978-39.062 11.855-15.138 68.728-43.422 54.586-41.36-8.1608 1.1899-55.885 32.514-67.183 34.467-9.9177 1.714-6.0943-40.199-10.497-33.318-3.6267 5.668-1.0837 27.371 2.0996 40.786 2.7948 11.777-17.668 37.805-24.728 35.459-12.535-4.1648-42.468-22.086-34.672-56.812 2.3305-10.381-4.33-65.823-7.7829-48.376-4.3662 22.061 0.94876 33.838-8.3979 38.134-8.1489 3.7458-26.786-3.9461-44.089-3.4467-15.599 0.45024 34.032 5.56 41.989 12.638 9.9123 8.8168-1.7517 23.958-7.6157 35.313-25.628-1.259-52.672-6.7129-80.922-14.772-14.611-4.1683-11.633-39.32-18.535-36.625-7.6864 3.0018 3.88 35.097-3.1492 37.913-7.428 2.9756-64.459 23.676-61.934 24.127 10.991 1.9598 56.458-19.532 74.531-16.659 12.977 2.0629 109.03 30.226 120.72 40.785 6.8776 6.2118-63.515-3.0836-68.233 1.7234-4.2528 4.3334 46.593 0.11374 57.735 12.063z" fill="#7b5517"/>
 </g>
</svg>
