<svg width="697" height="92" xmlns="http://www.w3.org/2000/svg" xmlns:xlink="http://www.w3.org/1999/xlink" xml:space="preserve" overflow="hidden"><defs><clipPath id="clip0"><rect x="1443" y="2016" width="697" height="92"/></clipPath></defs><g clip-path="url(#clip0)" transform="translate(-1443 -2016)"><path d="M10.2064-5.15624 589.456-5.1559 589.456 5.1566 10.2064 5.15626ZM38.5488 22.5008-0.0238978-2.11038e-07 38.5488-22.5007C41.0086-23.9356 44.1659-23.1047 45.6007-20.6449 47.0356-18.1851 46.2048-15.0279 43.745-13.593L12.8075 4.45387 12.8075-4.45385 43.7449 13.593C46.2047 15.0279 47.0356 18.1852 45.6007 20.645 44.1658 23.1048 41.0086 23.9356 38.5488 22.5008ZM561.115-22.5004 599.688 0.000359691 561.115 22.5011C558.655 23.936 555.498 23.1051 554.063 20.6453 552.628 18.1855 553.459 15.0282 555.919 13.5933L586.856-4.45351 586.856 4.45421 555.919-13.5927C553.459-15.0276 552.628-18.1848 554.063-20.6446 555.498-23.1044 558.655-23.9353 561.115-22.5004Z" fill="#FF0000" fill-rule="nonzero" fill-opacity="1" transform="matrix(1 0 0 -1 1492 2062)"/></g></svg>