<svg width="958" height="92" xmlns="http://www.w3.org/2000/svg" xmlns:xlink="http://www.w3.org/1999/xlink" xml:space="preserve" overflow="hidden"><defs><clipPath id="clip0"><rect x="2039" y="2016" width="958" height="92"/></clipPath></defs><g clip-path="url(#clip0)" transform="translate(-2039 -2016)"><path d="M2098.21 2057.84 2939.97 2057.84 2939.97 2068.16 2098.21 2068.16ZM2126.55 2085.5 2087.98 2063 2126.55 2040.5C2129.01 2039.06 2132.17 2039.9 2133.6 2042.35 2135.04 2044.81 2134.2 2047.97 2131.74 2049.41L2100.81 2067.45 2100.81 2058.55 2131.74 2076.59C2134.2 2078.03 2135.04 2081.18 2133.6 2083.64 2132.17 2086.1 2129.01 2086.94 2126.55 2085.5ZM2911.63 2040.5 2950.2 2063 2911.63 2085.5C2909.17 2086.94 2906.01 2086.1 2904.58 2083.65 2903.14 2081.19 2903.97 2078.03 2906.43 2076.59L2937.37 2058.55 2937.37 2067.45 2906.43 2049.41C2903.97 2047.97 2903.14 2044.81 2904.58 2042.36 2906.01 2039.9 2909.17 2039.06 2911.63 2040.5Z" fill="#558ED5" fill-rule="nonzero" fill-opacity="1"/></g></svg>