<svg width="724" height="133" xmlns="http://www.w3.org/2000/svg" xmlns:xlink="http://www.w3.org/1999/xlink" xml:space="preserve" overflow="hidden"><defs><clipPath id="clip0"><rect x="1760" y="627" width="724" height="133"/></clipPath></defs><g clip-path="url(#clip0)" transform="translate(-1760 -627)"><path d="M1831.42 673.082C1823.18 658.879 1865.6 645.799 1926.16 643.867 1950.71 643.085 1975.66 644.255 1997.03 647.191 2019.67 637.181 2072.59 633.377 2115.22 638.694 2122.67 639.624 2129.51 640.802 2135.53 642.192 2153.17 633.895 2196.12 630.524 2231.48 634.663 2241.26 635.809 2249.8 637.465 2256.43 639.506 2284.85 631.66 2335.08 630.69 2368.62 637.341 2382.72 640.137 2392.22 643.992 2395.49 648.247 2442.07 651.227 2469.54 662.516 2456.86 673.461 2455.79 674.381 2454.46 675.283 2452.86 676.159 2490.21 687.564 2481.07 703.91 2432.43 712.67 2417.29 715.397 2399.41 717.162 2380.52 717.796 2380.1 730.065 2337.31 739.932 2284.95 739.834 2267.45 739.801 2250.34 738.634 2235.5 736.463 2217.79 750.219 2156.02 757.994 2097.52 753.829 2073.01 752.084 2051.83 748.393 2037.6 743.385 1977.71 751.857 1899.97 747.3 1863.97 733.206 1863.52 733.029 1863.07 732.85 1862.64 732.67 1823.44 733.746 1787.94 727.187 1783.34 718.019 1780.89 713.133 1787.76 708.242 1802.14 704.65 1768.2 699.964 1756.8 689.68 1776.68 681.678 1788.14 677.062 1808.25 674.011 1830.82 673.462Z" stroke="#BFBFBF" stroke-width="9.16667" stroke-linecap="butt" stroke-linejoin="round" stroke-miterlimit="10" stroke-opacity="1" fill="#F2F2F2" fill-rule="evenodd" fill-opacity="1"/><path d="M1844.41 706.426C1829.92 706.692 1815.44 705.906 1802.9 704.175M1881.04 731.057C1875.22 731.601 1869.11 731.964 1862.88 732.135M2037.56 742.893C2033.17 741.352 2029.51 739.704 2026.61 737.979M2239.94 730.639C2239.3 732.468 2237.83 734.275 2235.57 736.031M2326.84 697.324C2359.69 701.074 2380.42 708.913 2380.12 717.475M2452.52 675.861C2447.2 678.776 2439.08 681.363 2428.8 683.417M2395.59 647.823C2396.49 649.001 2396.91 650.196 2396.84 651.392M2244.06 643.661C2247.15 642.014 2251.24 640.481 2256.21 639.11M2130.37 645.83C2131.63 644.469 2133.61 643.151 2136.25 641.905M1996.94 647.163C2004.68 648.225 2011.83 649.504 2018.25 650.971M1835.14 677.089C1833.45 675.779 1832.21 674.439 1831.42 673.083" stroke="#BFBFBF" stroke-width="9.16667" stroke-linecap="butt" stroke-linejoin="round" stroke-miterlimit="10" stroke-opacity="1" fill="none" fill-rule="evenodd"/></g></svg>