<svg width="1013" height="92" xmlns="http://www.w3.org/2000/svg" xmlns:xlink="http://www.w3.org/1999/xlink" xml:space="preserve" overflow="hidden"><defs><clipPath id="clip0"><rect x="472" y="2016" width="1013" height="92"/></clipPath></defs><g clip-path="url(#clip0)" transform="translate(-472 -2016)"><path d="M528.208 2057.84 1426.68 2057.84 1426.68 2068.16 528.208 2068.16ZM556.549 2085.5 517.976 2063 556.549 2040.5C559.009 2039.06 562.166 2039.9 563.601 2042.35 565.036 2044.81 564.205 2047.97 561.745 2049.41L530.807 2067.45 530.807 2058.55 561.745 2076.59C564.205 2078.03 565.036 2081.18 563.601 2083.64 562.166 2086.1 559.009 2086.94 556.549 2085.5ZM1398.34 2040.5 1436.91 2063 1398.34 2085.5C1395.88 2086.94 1392.72 2086.1 1391.29 2083.65 1389.85 2081.19 1390.69 2078.03 1393.14 2076.59L1424.08 2058.55 1424.08 2067.45 1393.14 2049.41C1390.69 2047.97 1389.85 2044.81 1391.29 2042.36 1392.72 2039.9 1395.88 2039.06 1398.34 2040.5Z" fill="#FFFF00" fill-rule="nonzero" fill-opacity="1"/></g></svg>