<svg width="248" height="100" xmlns="http://www.w3.org/2000/svg" xmlns:xlink="http://www.w3.org/1999/xlink" xml:space="preserve" overflow="hidden"><defs><clipPath id="clip0"><rect x="297" y="637" width="248" height="100"/></clipPath></defs><g clip-path="url(#clip0)" transform="translate(-297 -637)"><path d="M324.625 672.105C321.902 661.744 335.922 652.202 355.94 650.793 364.051 650.221 372.298 651.075 379.361 653.217 386.845 645.915 404.334 643.14 418.424 647.018 420.887 647.697 423.149 648.556 425.137 649.571 430.966 643.518 445.163 641.059 456.848 644.078 460.082 644.914 462.904 646.122 465.095 647.611 474.49 641.887 491.092 641.18 502.175 646.032 506.834 648.071 509.974 650.884 511.056 653.988 526.45 656.162 535.531 664.397 531.339 672.381 530.987 673.053 530.545 673.71 530.016 674.35 542.362 682.67 539.34 694.594 523.266 700.984 518.262 702.974 512.353 704.262 506.107 704.724 505.968 713.675 491.827 720.873 474.521 720.801 468.739 720.777 463.083 719.926 458.178 718.342 452.325 728.377 431.908 734.049 412.576 731.011 404.474 729.737 397.474 727.044 392.769 723.391 372.976 729.572 347.284 726.247 335.385 715.966 335.236 715.836 335.088 715.706 334.943 715.575 321.989 716.36 310.255 711.575 308.735 704.887 307.924 701.322 310.198 697.754 314.948 695.134 303.732 691.716 299.964 684.213 306.533 678.376 310.322 675.008 316.969 672.782 324.428 672.382Z" stroke="#BFBFBF" stroke-width="9.16667" stroke-linecap="butt" stroke-linejoin="round" stroke-miterlimit="10" stroke-opacity="1" fill="#F2F2F2" fill-rule="evenodd" fill-opacity="1"/><path d="M328.92 696.429C324.132 696.624 319.344 696.051 315.199 694.787M341.027 714.398C339.101 714.795 337.083 715.059 335.023 715.184M392.756 723.033C391.308 721.908 390.095 720.706 389.139 719.448M459.646 714.093C459.433 715.427 458.949 716.746 458.202 718.027M488.366 689.789C499.223 692.525 506.074 698.244 505.977 704.49M529.906 674.132C528.148 676.259 525.464 678.146 522.064 679.644M511.088 653.679C511.388 654.537 511.527 655.409 511.502 656.282M461.006 650.642C462.028 649.441 463.381 648.322 465.023 647.322M423.43 652.224C423.847 651.231 424.501 650.27 425.376 649.361M379.333 653.196C381.889 653.971 384.253 654.904 386.374 655.974M325.855 675.028C325.297 674.072 324.886 673.095 324.626 672.106" stroke="#BFBFBF" stroke-width="9.16667" stroke-linecap="butt" stroke-linejoin="round" stroke-miterlimit="10" stroke-opacity="1" fill="none" fill-rule="evenodd"/></g></svg>