<svg width="1553" height="96" xmlns="http://www.w3.org/2000/svg" xmlns:xlink="http://www.w3.org/1999/xlink" xml:space="preserve" overflow="hidden"><defs><clipPath id="clip0"><rect x="1439" y="2232" width="1553" height="96"/></clipPath></defs><g clip-path="url(#clip0)" transform="translate(-1439 -2232)"><path d="M10.1962-5.14018 1449.14-2.87129 1449.12 7.4412 10.18 5.17231ZM38.5133 22.5615-0.0238985-3.7676e-05 38.5842-22.4399C41.0463-23.8709 44.2022-23.0351 45.6332-20.573 47.0642-18.111 46.2284-14.955 43.7663-13.524L12.8004 4.47405 12.8145-4.43366 43.7235 13.662C46.181 15.1007 47.0069 18.2593 45.5681 20.7168 44.1294 23.1744 40.9708 24.0003 38.5133 22.5615ZM1420.82-20.2604 1459.36 2.30109 1420.75 24.741C1418.29 26.172 1415.13 25.3361 1413.7 22.8741 1412.27 20.412 1413.11 17.2561 1415.57 15.8251L1446.54-2.173 1446.52 6.73471 1415.61-11.3609C1413.15-12.7997 1412.33-15.9583 1413.77-18.4158 1415.21-20.8733 1418.37-21.6992 1420.82-20.2604Z" fill="#953735" fill-rule="nonzero" fill-opacity="1" transform="matrix(1 0 0 -1 1488 2283.3)"/></g></svg>