<svg width="591" height="115" xmlns="http://www.w3.org/2000/svg" xmlns:xlink="http://www.w3.org/1999/xlink" xml:space="preserve" overflow="hidden"><defs><clipPath id="clip0"><rect x="1127" y="632" width="591" height="115"/></clipPath></defs><g clip-path="url(#clip0)" transform="translate(-1127 -632)"><path d="M1187.32 674.096C1180.64 662.338 1215.03 651.51 1264.13 649.911 1284.03 649.263 1304.26 650.231 1321.59 652.662 1339.95 644.375 1382.85 641.226 1417.41 645.628 1423.45 646.397 1429 647.373 1433.87 648.524 1448.17 641.655 1483 638.864 1511.66 642.291 1519.6 643.239 1526.52 644.611 1531.89 646.3 1554.94 639.804 1595.66 639.002 1622.85 644.508 1634.28 646.822 1641.98 650.014 1644.63 653.536 1682.39 656.004 1704.67 665.349 1694.39 674.41 1693.52 675.172 1692.44 675.919 1691.14 676.644 1721.43 686.086 1714.01 699.618 1674.58 706.87 1662.31 709.127 1647.81 710.589 1632.49 711.114 1632.15 721.271 1597.46 729.44 1555.01 729.358 1540.83 729.331 1526.96 728.365 1514.92 726.568 1500.57 737.956 1450.48 744.393 1403.06 740.945 1383.19 739.5 1366.02 736.444 1354.48 732.298 1305.92 739.312 1242.9 735.539 1213.71 723.871 1213.35 723.724 1212.99 723.576 1212.63 723.427 1180.85 724.318 1152.07 718.888 1148.34 711.299 1146.35 707.253 1151.93 703.204 1163.58 700.231 1136.07 696.352 1126.83 687.837 1142.94 681.213 1152.23 677.391 1168.54 674.865 1186.84 674.411Z" stroke="#BFBFBF" stroke-width="9.16667" stroke-linecap="butt" stroke-linejoin="round" stroke-miterlimit="10" stroke-opacity="1" fill="#F2F2F2" fill-rule="evenodd" fill-opacity="1"/><path d="M1197.86 701.701C1186.11 701.921 1174.36 701.271 1164.2 699.837M1227.55 722.092C1222.83 722.543 1217.88 722.843 1212.83 722.984M1354.44 731.891C1350.89 730.615 1347.92 729.251 1345.57 727.823M1518.53 721.746C1518 723.26 1516.82 724.756 1514.98 726.21M1588.97 694.166C1615.61 697.27 1632.41 703.76 1632.17 710.848M1690.87 676.397C1686.56 678.811 1679.97 680.952 1671.63 682.653M1644.71 653.186C1645.45 654.16 1645.79 655.15 1645.73 656.14M1521.86 649.74C1524.37 648.377 1527.69 647.107 1531.72 645.972M1429.69 651.535C1430.71 650.409 1432.31 649.317 1434.46 648.286M1321.52 652.639C1327.79 653.518 1333.59 654.577 1338.79 655.791M1190.34 677.414C1188.97 676.329 1187.96 675.22 1187.32 674.097" stroke="#BFBFBF" stroke-width="9.16667" stroke-linecap="butt" stroke-linejoin="round" stroke-miterlimit="10" stroke-opacity="1" fill="none" fill-rule="evenodd"/></g></svg>