<svg width="138" height="115" xmlns="http://www.w3.org/2000/svg" xmlns:xlink="http://www.w3.org/1999/xlink" xml:space="preserve" overflow="hidden"><defs><clipPath id="clip0"><rect x="1356" y="939" width="138" height="115"/></clipPath></defs><g clip-path="url(#clip0)" transform="translate(-1356 -939)"><path d="M1465 940.5 1491.08 968 1477.33 968C1471.13 1026.82 1446.65 1062.19 1422.66 1047.01 1421.81 1046.47 1420.96 1045.87 1420.13 1045.21 1434.77 1033.65 1445.98 1004.51 1449.83 968L1436.08 968Z" fill="#FFFF00" fill-rule="evenodd" fill-opacity="1"/><path d="M1406.38 1050.5C1381.59 1050.5 1361.5 1001.25 1361.5 940.5L1389 940.5C1389 1001.25 1409.09 1050.5 1433.88 1050.5Z" fill="#CDCD00" fill-rule="evenodd" fill-opacity="1"/><path d="M1420.12 1045.21C1434.77 1033.65 1445.98 1004.51 1449.82 968L1436.08 968 1465 940.5 1491.08 968 1477.33 968C1472.21 1016.57 1454.34 1050.5 1433.88 1050.5L1406.38 1050.5C1381.59 1050.5 1361.5 1001.25 1361.5 940.5L1389 940.5C1389 1001.25 1409.09 1050.5 1433.88 1050.5" stroke="#000000" stroke-width="1.14583" stroke-linecap="butt" stroke-linejoin="round" stroke-miterlimit="10" stroke-opacity="1" fill="none" fill-rule="evenodd"/></g></svg>