<svg width="3304" height="531" xmlns="http://www.w3.org/2000/svg" xmlns:xlink="http://www.w3.org/1999/xlink" xml:space="preserve" overflow="hidden"><defs><filter id="fx0" x="-10%" y="-10%" width="120%" height="120%" filterUnits="userSpaceOnUse" primitiveUnits="userSpaceOnUse"><feComponentTransfer color-interpolation-filters="sRGB"><feFuncR type="discrete" tableValues="0.000000 0.000000"/><feFuncG type="discrete" tableValues="0.000000 0.000000"/><feFuncB type="discrete" tableValues="0.000000 0.000000"/><feFuncA type="linear" slope="0.431373" intercept="0.000000"/></feComponentTransfer><feGaussianBlur stdDeviation="2.953470 2.953470"/></filter><clipPath id="clip1"><rect x="-9" y="-50" width="3304" height="531"/></clipPath><clipPath id="clip2"><rect x="1.19537" y="1.05128" width="1821.63" height="144.457"/></clipPath><clipPath id="clip3"><rect x="0" y="0" width="1824" height="147"/></clipPath></defs><g clip-path="url(#clip1)" transform="translate(9 50)"><g clip-path="url(#clip2)" filter="url(#fx0)" transform="translate(741 153)"><g clip-path="url(#clip3)"><path d="M1521.13 37.5377 1504.78 86.6832 1537.57 86.6832 1521.22 37.5377ZM1614.14 33.8741 1614.14 112.507 1626.38 112.507C1632.81 112.507 1638.23 111.673 1642.64 110.005 1647.05 108.337 1650.73 105.82 1653.68 102.454 1656.63 99.0887 1658.83 94.9039 1660.29 89.9 1661.75 84.8961 1662.48 79.0582 1662.48 72.3863 1662.48 66.9058 1661.84 61.8126 1660.56 57.1065 1659.28 52.4005 1657.22 48.3199 1654.39 44.8648 1651.56 41.4097 1647.93 38.7142 1643.49 36.7781 1639.05 34.8421 1633.23 33.8741 1626.02 33.8741ZM1035.58 33.4273 1035.58 66.2208 1047.55 66.2208C1050.89 66.2208 1053.81 65.8187 1056.31 65.0145 1058.81 64.2103 1060.9 63.0784 1062.57 61.619 1064.23 60.1595 1065.49 58.4171 1066.32 56.3917 1067.15 54.3663 1067.57 52.1026 1067.57 49.6007 1067.57 45.7882 1066.71 42.5714 1064.98 39.9503 1063.25 37.3292 1060.42 35.4825 1056.49 34.4102 1055.3 34.1124 1053.94 33.8741 1052.42 33.6954 1050.91 33.5167 1048.81 33.4273 1046.13 33.4273ZM718.758 33.4273 718.758 66.2208 730.732 66.2208C734.068 66.2208 736.987 65.8187 739.489 65.0145 741.991 64.2103 744.076 63.0784 745.744 61.619 747.412 60.1595 748.663 58.4171 749.497 56.3917 750.331 54.3663 750.748 52.1026 750.748 49.6007 750.748 45.7882 749.884 42.5714 748.156 39.9503 746.429 37.3292 743.599 35.4825 739.668 34.4102 738.476 34.1124 737.121 33.8741 735.602 33.6954 734.083 33.5167 731.983 33.4273 729.302 33.4273ZM1756.05 32.7125C1750.27 32.7125 1745.44 33.7996 1741.57 35.9739 1737.7 38.1483 1734.57 41.0523 1732.19 44.6861 1729.81 48.3199 1728.12 52.5643 1727.14 57.4193 1726.16 62.2742 1725.67 67.4122 1725.67 72.8331 1725.67 79.1475 1726.14 84.8216 1727.1 89.8553 1728.05 94.889 1729.66 99.1929 1731.92 102.767 1734.19 106.341 1737.22 109.067 1741.04 110.943 1744.85 112.82 1749.64 113.758 1755.42 113.758 1761.2 113.758 1766.03 112.686 1769.9 110.541 1773.77 108.397 1776.9 105.478 1779.28 101.784 1781.66 98.0909 1783.35 93.7869 1784.33 88.8724 1785.31 83.9578 1785.8 78.7305 1785.8 73.1905 1785.8 67.1143 1785.33 61.5892 1784.37 56.6151 1783.42 51.6409 1781.8 47.3817 1779.5 43.8372 1777.21 40.2928 1774.16 37.5526 1770.34 35.6165 1766.53 33.6805 1761.77 32.7125 1756.05 32.7125ZM896.673 32.7125C890.895 32.7125 886.069 33.7996 882.197 35.9739 878.325 38.1483 875.198 41.0523 872.815 44.6861 870.432 48.3199 868.749 52.5643 867.766 57.4193 866.784 62.2742 866.292 67.4122 866.292 72.8331 866.292 79.1475 866.769 84.8216 867.722 89.8553 868.675 94.889 870.283 99.1929 872.547 102.767 874.811 106.341 877.849 109.067 881.661 110.943 885.474 112.82 890.269 113.758 896.048 113.758 901.826 113.758 906.651 112.686 910.523 110.541 914.395 108.397 917.523 105.478 919.905 101.784 922.288 98.0909 923.971 93.7869 924.954 88.8724 925.937 83.9578 926.428 78.7305 926.428 73.1905 926.428 67.1143 925.952 61.5892 924.999 56.6151 924.045 51.6409 922.422 47.3817 920.129 43.8372 917.835 40.2928 914.782 37.5526 910.97 35.6165 907.157 33.6805 902.392 32.7125 896.673 32.7125ZM1597.7 15.4669 1627.36 15.4669C1637.67 15.4669 1646.41 16.6732 1653.59 19.0858 1660.77 21.4984 1666.81 25.0726 1671.73 29.8084 1676.64 34.5443 1680.38 40.397 1682.94 47.3668 1685.5 54.3365 1686.78 62.4083 1686.78 71.5821 1686.78 82.1856 1685.4 91.2552 1682.63 98.7908 1679.86 106.326 1675.88 112.477 1670.7 117.243 1665.52 122.008 1659.22 125.508 1651.8 127.742 1644.38 129.976 1635.55 131.093 1625.31 131.093L1597.7 131.093C1595.73 131.093 1594.08 130.512 1592.74 129.35 1591.4 128.189 1590.73 126.297 1590.73 123.676L1590.73 22.8834C1590.73 20.2623 1591.4 18.3709 1592.74 17.2093 1594.08 16.0477 1595.73 15.4669 1597.7 15.4669ZM1319.83 15.4669 1377.56 15.4669C1378.09 15.4669 1378.57 15.6158 1378.99 15.9136 1379.4 16.2115 1379.76 16.7327 1380.06 17.4774 1380.36 18.222 1380.58 19.1751 1380.73 20.3367 1380.88 21.4984 1380.95 22.9727 1380.95 24.7598 1380.95 26.4278 1380.88 27.8426 1380.73 29.0042 1380.58 30.1658 1380.36 31.1041 1380.06 31.8189 1379.76 32.5338 1379.4 33.055 1378.99 33.3826 1378.57 33.7103 1378.09 33.8741 1377.56 33.8741L1336.27 33.8741 1336.27 62.1104 1371.21 62.1104C1371.75 62.1104 1372.24 62.2742 1372.69 62.6019 1373.13 62.9295 1373.5 63.4359 1373.8 64.1209 1374.1 64.806 1374.32 65.7293 1374.47 66.8909 1374.62 68.0526 1374.7 69.4674 1374.7 71.1353 1374.7 72.8629 1374.62 74.2925 1374.47 75.4244 1374.32 76.5562 1374.1 77.4647 1373.8 78.1497 1373.5 78.8348 1373.13 79.3262 1372.69 79.6241 1372.24 79.9219 1371.75 80.0709 1371.21 80.0709L1336.27 80.0709 1336.27 112.686 1377.91 112.686C1378.45 112.686 1378.94 112.849 1379.39 113.177 1379.83 113.505 1380.21 114.026 1380.5 114.741 1380.8 115.456 1381.03 116.394 1381.17 117.555 1381.32 118.717 1381.4 120.162 1381.4 121.889 1381.4 123.617 1381.32 125.061 1381.17 126.223 1381.03 127.385 1380.8 128.323 1380.5 129.038 1380.21 129.753 1379.83 130.274 1379.39 130.601 1378.94 130.929 1378.45 131.093 1377.91 131.093L1319.83 131.093C1317.87 131.093 1316.21 130.512 1314.87 129.35 1313.53 128.189 1312.86 126.297 1312.86 123.676L1312.86 22.8834C1312.86 20.2623 1313.53 18.3709 1314.87 17.2093 1316.21 16.0477 1317.87 15.4669 1319.83 15.4669ZM1122.18 15.4669 1179.9 15.4669C1180.44 15.4669 1180.91 15.6158 1181.33 15.9136 1181.75 16.2115 1182.1 16.7327 1182.4 17.4774 1182.7 18.222 1182.92 19.1751 1183.07 20.3367 1183.22 21.4984 1183.29 22.9727 1183.29 24.7598 1183.29 26.4278 1183.22 27.8426 1183.07 29.0042 1182.92 30.1658 1182.7 31.1041 1182.4 31.8189 1182.1 32.5338 1181.75 33.055 1181.33 33.3826 1180.91 33.7103 1180.44 33.8741 1179.9 33.8741L1138.62 33.8741 1138.62 62.1104 1173.55 62.1104C1174.09 62.1104 1174.58 62.2742 1175.03 62.6019 1175.48 62.9295 1175.85 63.4359 1176.15 64.1209 1176.44 64.806 1176.67 65.7293 1176.82 66.8909 1176.97 68.0526 1177.04 69.4674 1177.04 71.1353 1177.04 72.8629 1176.97 74.2925 1176.82 75.4244 1176.67 76.5562 1176.44 77.4647 1176.15 78.1497 1175.85 78.8348 1175.48 79.3262 1175.03 79.6241 1174.58 79.9219 1174.09 80.0709 1173.55 80.0709L1138.62 80.0709 1138.62 112.686 1180.26 112.686C1180.79 112.686 1181.28 112.849 1181.73 113.177 1182.18 113.505 1182.55 114.026 1182.85 114.741 1183.15 115.456 1183.37 116.394 1183.52 117.555 1183.67 118.717 1183.74 120.162 1183.74 121.889 1183.74 123.617 1183.67 125.061 1183.52 126.223 1183.37 127.385 1183.15 128.323 1182.85 129.038 1182.55 129.753 1182.18 130.274 1181.73 130.601 1181.28 130.929 1180.79 131.093 1180.26 131.093L1122.18 131.093C1120.21 131.093 1118.56 130.512 1117.22 129.35 1115.88 128.189 1115.21 126.297 1115.21 123.676L1115.21 22.8834C1115.21 20.2623 1115.88 18.3709 1117.22 17.2093 1118.56 16.0477 1120.21 15.4669 1122.18 15.4669ZM1019.05 15.4669 1048.98 15.4669C1052.02 15.4669 1054.52 15.5264 1056.49 15.6456 1058.46 15.7647 1060.24 15.9136 1061.85 16.0924 1066.5 16.7476 1070.68 17.8795 1074.41 19.4879 1078.13 21.0963 1081.29 23.1961 1083.88 25.7874 1086.47 28.3787 1088.45 31.4466 1089.82 34.991 1091.19 38.5355 1091.88 42.6011 1091.88 47.1881 1091.88 51.0601 1091.38 54.5897 1090.4 57.7767 1089.42 60.9637 1087.97 63.8082 1086.07 66.3101 1084.16 68.8121 1081.81 70.9864 1079.01 72.8331 1076.21 74.6797 1073.02 76.169 1069.45 77.3008 1071.17 78.1348 1072.8 79.1475 1074.32 80.3389 1075.84 81.5303 1077.27 82.9749 1078.61 84.6727 1079.95 86.3704 1081.21 88.3065 1082.4 90.4808 1083.59 92.6551 1084.76 95.1124 1085.89 97.8526L1095.63 120.638C1096.52 122.902 1097.12 124.555 1097.42 125.597 1097.71 126.64 1097.86 127.459 1097.86 128.055 1097.86 128.71 1097.74 129.261 1097.5 129.708 1097.27 130.155 1096.7 130.527 1095.81 130.825 1094.91 131.123 1093.6 131.331 1091.88 131.45 1090.15 131.569 1087.79 131.629 1084.82 131.629 1082.31 131.629 1080.32 131.569 1078.83 131.45 1077.34 131.331 1076.16 131.108 1075.3 130.78 1074.44 130.452 1073.83 130.035 1073.47 129.529 1073.11 129.023 1072.81 128.412 1072.57 127.697L1062.21 101.874C1060.96 98.9547 1059.74 96.3633 1058.55 94.0997 1057.35 91.836 1056.03 89.9446 1054.57 88.4256 1053.11 86.9066 1051.43 85.7598 1049.52 84.9854 1047.61 84.211 1045.41 83.8238 1042.91 83.8238L1035.58 83.8238 1035.58 127.876C1035.58 128.472 1035.39 129.008 1035 129.484 1034.61 129.961 1033.97 130.348 1033.08 130.646 1032.19 130.944 1030.99 131.182 1029.51 131.361 1028.02 131.54 1026.11 131.629 1023.79 131.629 1021.52 131.629 1019.63 131.54 1018.11 131.361 1016.59 131.182 1015.39 130.944 1014.49 130.646 1013.6 130.348 1012.97 129.961 1012.62 129.484 1012.26 129.008 1012.08 128.472 1012.08 127.876L1012.08 22.8834C1012.08 20.2623 1012.75 18.3709 1014.09 17.2093 1015.43 16.0477 1017.08 15.4669 1019.05 15.4669ZM702.228 15.4669 732.162 15.4669C735.2 15.4669 737.702 15.5264 739.668 15.6456 741.633 15.7647 743.42 15.9136 745.029 16.0924 749.675 16.7476 753.86 17.8795 757.583 19.4879 761.306 21.0963 764.464 23.1961 767.055 25.7874 769.646 28.3787 771.627 31.4466 772.997 34.991 774.367 38.5355 775.052 42.6011 775.052 47.1881 775.052 51.0601 774.561 54.5897 773.578 57.7767 772.595 60.9637 771.15 63.8082 769.244 66.3101 767.338 68.8121 764.985 70.9864 762.185 72.8331 759.385 74.6797 756.198 76.169 752.624 77.3008 754.352 78.1348 755.975 79.1475 757.494 80.3389 759.013 81.5303 760.443 82.9749 761.783 84.6727 763.123 86.3704 764.389 88.3065 765.581 90.4808 766.772 92.6551 767.934 95.1124 769.065 97.8526L778.805 120.638C779.699 122.902 780.294 124.555 780.592 125.597 780.89 126.64 781.039 127.459 781.039 128.055 781.039 128.71 780.92 129.261 780.682 129.708 780.443 130.155 779.878 130.527 778.984 130.825 778.09 131.123 776.78 131.331 775.052 131.45 773.325 131.569 770.972 131.629 767.993 131.629 765.491 131.629 763.496 131.569 762.006 131.45 760.517 131.331 759.341 131.108 758.477 130.78 757.613 130.452 757.002 130.035 756.645 129.529 756.288 129.023 755.99 128.412 755.751 127.697L745.386 101.874C744.135 98.9547 742.914 96.3633 741.723 94.0997 740.531 91.836 739.206 89.9446 737.746 88.4256 736.287 86.9066 734.604 85.7598 732.698 84.9854 730.792 84.211 728.587 83.8238 726.085 83.8238L718.758 83.8238 718.758 127.876C718.758 128.472 718.565 129.008 718.177 129.484 717.79 129.961 717.15 130.348 716.256 130.646 715.363 130.944 714.171 131.182 712.682 131.361 711.193 131.54 709.287 131.629 706.963 131.629 704.7 131.629 702.808 131.54 701.289 131.361 699.77 131.182 698.564 130.944 697.67 130.646 696.777 130.348 696.151 129.961 695.794 129.484 695.436 129.008 695.258 128.472 695.258 127.876L695.258 22.8834C695.258 20.2623 695.928 18.3709 697.268 17.2093 698.609 16.0477 700.262 15.4669 702.228 15.4669ZM612.852 15.4669 670.576 15.4669C671.112 15.4669 671.589 15.6158 672.006 15.9136 672.423 16.2115 672.78 16.7327 673.078 17.4774 673.376 18.222 673.599 19.1751 673.748 20.3367 673.897 21.4984 673.972 22.9727 673.972 24.7598 673.972 26.4278 673.897 27.8426 673.748 29.0042 673.599 30.1658 673.376 31.1041 673.078 31.8189 672.78 32.5338 672.423 33.055 672.006 33.3826 671.589 33.7103 671.112 33.8741 670.576 33.8741L629.294 33.8741 629.294 62.1104 664.232 62.1104C664.768 62.1104 665.259 62.2742 665.706 62.6019 666.153 62.9295 666.525 63.4359 666.823 64.1209 667.121 64.806 667.344 65.7293 667.493 66.8909 667.642 68.0526 667.717 69.4674 667.717 71.1353 667.717 72.8629 667.642 74.2925 667.493 75.4244 667.344 76.5562 667.121 77.4647 666.823 78.1497 666.525 78.8348 666.153 79.3262 665.706 79.6241 665.259 79.9219 664.768 80.0709 664.232 80.0709L629.294 80.0709 629.294 112.686 670.934 112.686C671.47 112.686 671.961 112.849 672.408 113.177 672.855 113.505 673.227 114.026 673.525 114.741 673.823 115.456 674.046 116.394 674.195 117.555 674.344 118.717 674.418 120.162 674.418 121.889 674.418 123.617 674.344 125.061 674.195 126.223 674.046 127.385 673.823 128.323 673.525 129.038 673.227 129.753 672.855 130.274 672.408 130.601 671.961 130.929 671.47 131.093 670.934 131.093L612.852 131.093C610.887 131.093 609.234 130.512 607.893 129.35 606.553 128.189 605.883 126.297 605.883 123.676L605.883 22.8834C605.883 20.2623 606.553 18.3709 607.893 17.2093 609.234 16.0477 610.887 15.4669 612.852 15.4669ZM507.32 15.4669 588.812 15.4669C589.348 15.4669 589.84 15.6307 590.286 15.9583 590.733 16.286 591.106 16.8221 591.403 17.5667 591.701 18.3113 591.925 19.3091 592.074 20.5601 592.222 21.8111 592.297 23.3301 592.297 25.1173 592.297 26.8448 592.222 28.3192 592.074 29.5403 591.925 30.7615 591.701 31.7445 591.403 32.4891 591.106 33.2337 590.733 33.7847 590.286 34.1422 589.84 34.4996 589.348 34.6783 588.812 34.6783L559.861 34.6783 559.861 127.876C559.861 128.472 559.667 129.008 559.28 129.484 558.893 129.961 558.253 130.348 557.359 130.646 556.465 130.944 555.259 131.182 553.74 131.361 552.221 131.54 550.33 131.629 548.066 131.629 545.802 131.629 543.911 131.54 542.392 131.361 540.873 131.182 539.667 130.944 538.773 130.646 537.879 130.348 537.239 129.961 536.852 129.484 536.465 129.008 536.271 128.472 536.271 127.876L536.271 34.6783 507.32 34.6783C506.724 34.6783 506.218 34.4996 505.801 34.1422 505.384 33.7847 505.026 33.2337 504.729 32.4891 504.431 31.7445 504.207 30.7615 504.058 29.5403 503.91 28.3192 503.835 26.8448 503.835 25.1173 503.835 23.3301 503.91 21.8111 504.058 20.5601 504.207 19.3091 504.431 18.3113 504.729 17.5667 505.026 16.8221 505.384 16.286 505.801 15.9583 506.218 15.6307 506.724 15.4669 507.32 15.4669ZM230.371 15.4669 245.74 15.4669C248.48 15.4669 250.833 15.6903 252.799 16.137 254.765 16.5838 256.462 17.3284 257.892 18.3709 259.322 19.4134 260.513 20.7835 261.466 22.4813 262.419 24.179 263.253 26.2789 263.968 28.7808L288.988 97.6739 289.345 97.6739 315.258 28.9595C316.033 26.4576 316.882 24.3428 317.805 22.6153 318.728 20.8878 319.801 19.4879 321.022 18.4156 322.243 17.3433 323.688 16.5838 325.356 16.137 327.023 15.6903 328.96 15.4669 331.164 15.4669L346.98 15.4669C348.588 15.4669 349.973 15.6754 351.135 16.0924 352.296 16.5094 353.249 17.1199 353.994 17.9241 354.739 18.7283 355.304 19.7112 355.692 20.8729 356.079 22.0345 356.273 23.3599 356.273 24.8492L356.273 127.876C356.273 128.472 356.109 129.008 355.781 129.484 355.453 129.961 354.858 130.348 353.994 130.646 353.13 130.944 351.983 131.182 350.554 131.361 349.124 131.54 347.307 131.629 345.103 131.629 342.959 131.629 341.171 131.54 339.742 131.361 338.312 131.182 337.18 130.944 336.346 130.646 335.512 130.348 334.917 129.961 334.559 129.484 334.202 129.008 334.023 128.472 334.023 127.876L334.023 33.7847 333.844 33.7847 300.336 127.787C300.098 128.561 299.711 129.201 299.174 129.708 298.638 130.214 297.909 130.616 296.985 130.914 296.062 131.212 294.885 131.406 293.456 131.495 292.026 131.584 290.298 131.629 288.273 131.629 286.248 131.629 284.52 131.555 283.09 131.406 281.661 131.257 280.484 131.018 279.561 130.691 278.637 130.363 277.908 129.961 277.372 129.484 276.836 129.008 276.478 128.442 276.299 127.787L243.953 33.7847 243.774 33.7847 243.774 127.876C243.774 128.472 243.61 129.008 243.283 129.484 242.955 129.961 242.344 130.348 241.451 130.646 240.557 130.944 239.41 131.182 238.011 131.361 236.611 131.54 234.809 131.629 232.605 131.629 230.46 131.629 228.673 131.54 227.243 131.361 225.814 131.182 224.667 130.944 223.803 130.646 222.939 130.348 222.344 129.961 222.016 129.484 221.688 129.008 221.524 128.472 221.524 127.876L221.524 24.8492C221.524 21.8111 222.329 19.4879 223.937 17.8795 225.545 16.2711 227.69 15.4669 230.371 15.4669ZM20.5255 15.4669 78.2491 15.4669C78.7852 15.4669 79.2618 15.6158 79.6788 15.9136 80.0958 16.2115 80.4532 16.7327 80.7511 17.4774 81.0489 18.222 81.2723 19.1751 81.4212 20.3367 81.5702 21.4984 81.6446 22.9727 81.6446 24.7598 81.6446 26.4278 81.5702 27.8426 81.4212 29.0042 81.2723 30.1658 81.0489 31.1041 80.7511 31.8189 80.4532 32.5338 80.0958 33.055 79.6788 33.3826 79.2618 33.7103 78.7852 33.8741 78.2491 33.8741L36.9669 33.8741 36.9669 62.1104 71.9049 62.1104C72.441 62.1104 72.9324 62.2742 73.3792 62.6019 73.826 62.9295 74.1983 63.4359 74.4962 64.1209 74.794 64.806 75.0174 65.7293 75.1664 66.8909 75.3153 68.0526 75.3897 69.4674 75.3897 71.1353 75.3897 72.8629 75.3153 74.2925 75.1664 75.4244 75.0174 76.5562 74.794 77.4647 74.4962 78.1497 74.1983 78.8348 73.826 79.3262 73.3792 79.6241 72.9324 79.9219 72.441 80.0709 71.9049 80.0709L36.9669 80.0709 36.9669 112.686 78.6065 112.686C79.1426 112.686 79.6341 112.849 80.0809 113.177 80.5277 113.505 80.9 114.026 81.1978 114.741 81.4957 115.456 81.7191 116.394 81.868 117.555 82.0169 118.717 82.0914 120.162 82.0914 121.889 82.0914 123.617 82.0169 125.061 81.868 126.223 81.7191 127.385 81.4957 128.323 81.1978 129.038 80.9 129.753 80.5277 130.274 80.0809 130.601 79.6341 130.929 79.1426 131.093 78.6065 131.093L20.5255 131.093C18.5597 131.093 16.9066 130.512 15.5663 129.35 14.2259 128.189 13.5557 126.297 13.5557 123.676L13.5557 22.8834C13.5557 20.2623 14.2259 18.3709 15.5663 17.2093 16.9066 16.0477 18.5597 15.4669 20.5255 15.4669ZM1521.49 14.9307C1525 14.9307 1527.8 14.9754 1529.89 15.0648 1531.97 15.1541 1533.6 15.3626 1534.76 15.6903 1535.92 16.0179 1536.75 16.5094 1537.26 17.1646 1537.77 17.8199 1538.2 18.7134 1538.56 19.8453L1574.3 122.336C1575.01 124.481 1575.46 126.178 1575.64 127.429 1575.82 128.68 1575.58 129.618 1574.92 130.244 1574.27 130.869 1573.11 131.257 1571.44 131.406 1569.77 131.555 1567.48 131.629 1564.56 131.629 1561.52 131.629 1559.15 131.584 1557.45 131.495 1555.76 131.406 1554.46 131.227 1553.57 130.959 1552.67 130.691 1552.05 130.318 1551.69 129.842 1551.33 129.365 1551.04 128.74 1550.8 127.965L1543.02 104.733 1499.6 104.733 1492.27 127.34C1492.03 128.174 1491.72 128.874 1491.33 129.44 1490.94 130.006 1490.32 130.452 1489.45 130.78 1488.59 131.108 1487.37 131.331 1485.79 131.45 1484.21 131.569 1482.14 131.629 1479.58 131.629 1476.84 131.629 1474.7 131.54 1473.15 131.361 1471.6 131.182 1470.53 130.75 1469.93 130.065 1469.33 129.38 1469.13 128.412 1469.3 127.161 1469.48 125.91 1469.93 124.242 1470.65 122.157L1506.3 19.5772C1506.66 18.5645 1507.07 17.7454 1507.55 17.1199 1508.03 16.4945 1508.79 16.0179 1509.83 15.6903 1510.87 15.3626 1512.31 15.1541 1514.16 15.0648 1516.01 14.9754 1518.45 14.9307 1521.49 14.9307ZM1414.03 14.9307C1416.36 14.9307 1418.26 15.0201 1419.75 15.1988 1421.24 15.3775 1422.43 15.6158 1423.32 15.9136 1424.22 16.2115 1424.86 16.5987 1425.25 17.0753 1425.63 17.5518 1425.83 18.088 1425.83 18.6837L1425.83 111.703 1462.19 111.703C1462.79 111.703 1463.31 111.867 1463.76 112.194 1464.2 112.522 1464.58 113.058 1464.88 113.803 1465.17 114.547 1465.4 115.53 1465.55 116.751 1465.69 117.972 1465.77 119.477 1465.77 121.264 1465.77 123.051 1465.69 124.555 1465.55 125.776 1465.4 126.997 1465.17 128.01 1464.88 128.814 1464.58 129.618 1464.2 130.199 1463.76 130.557 1463.31 130.914 1462.79 131.093 1462.19 131.093L1409.21 131.093C1407.24 131.093 1405.59 130.512 1404.25 129.35 1402.91 128.189 1402.24 126.297 1402.24 123.676L1402.24 18.6837C1402.24 18.088 1402.43 17.5518 1402.82 17.0753 1403.21 16.5987 1403.85 16.2115 1404.74 15.9136 1405.63 15.6158 1406.84 15.3775 1408.36 15.1988 1409.88 15.0201 1411.77 14.9307 1414.03 14.9307ZM1206.37 14.9307C1209.11 14.9307 1211.25 14.9903 1212.8 15.1094 1214.35 15.2286 1215.54 15.4371 1216.38 15.7349 1217.21 16.0328 1217.79 16.4796 1218.12 17.0753 1218.45 17.671 1218.76 18.4156 1219.06 19.3091L1247.2 108.486 1247.29 108.486 1274.9 19.7559C1275.14 18.7432 1275.44 17.9241 1275.8 17.2987 1276.15 16.6732 1276.77 16.1817 1277.63 15.8243 1278.49 15.4669 1279.73 15.2286 1281.34 15.1094 1282.95 14.9903 1285.15 14.9307 1287.95 14.9307 1290.69 14.9307 1292.82 15.0201 1294.34 15.1988 1295.86 15.3775 1296.9 15.8094 1297.47 16.4945 1298.03 17.1795 1298.21 18.1475 1298 19.3985 1297.79 20.6495 1297.33 22.3175 1296.62 24.4024L1262.13 126.982C1261.83 127.995 1261.44 128.814 1260.96 129.44 1260.49 130.065 1259.71 130.542 1258.64 130.869 1257.57 131.197 1256.11 131.406 1254.26 131.495 1252.42 131.584 1250 131.629 1247.02 131.629 1244.64 131.629 1242.6 131.614 1240.9 131.584 1239.21 131.555 1237.76 131.48 1236.57 131.361 1235.38 131.242 1234.41 131.063 1233.67 130.825 1232.92 130.586 1232.3 130.289 1231.79 129.931 1231.28 129.574 1230.9 129.142 1230.63 128.636 1230.36 128.129 1230.11 127.489 1229.87 126.714L1195.47 24.2237C1194.75 22.0792 1194.32 20.3814 1194.17 19.1304 1194.02 17.8795 1194.32 16.9412 1195.06 16.3157 1195.81 15.6903 1197.07 15.3031 1198.86 15.1541 1200.65 15.0052 1203.15 14.9307 1206.37 14.9307ZM810.178 14.9307C812.501 14.9307 814.407 15.0201 815.896 15.1988 817.386 15.3775 818.577 15.6158 819.471 15.9136 820.364 16.2115 821.005 16.5987 821.392 17.0753 821.779 17.5518 821.973 18.088 821.973 18.6837L821.973 127.876C821.973 128.472 821.779 129.008 821.392 129.484 821.005 129.961 820.364 130.348 819.471 130.646 818.577 130.944 817.386 131.182 815.896 131.361 814.407 131.54 812.501 131.629 810.178 131.629 807.914 131.629 806.023 131.54 804.504 131.361 802.985 131.182 801.778 130.944 800.885 130.646 799.991 130.348 799.351 129.961 798.964 129.484 798.576 129.008 798.383 128.472 798.383 127.876L798.383 18.6837C798.383 18.088 798.576 17.5518 798.964 17.0753 799.351 16.5987 800.006 16.2115 800.929 15.9136 801.853 15.6158 803.059 15.3775 804.548 15.1988 806.038 15.0201 807.914 14.9307 810.178 14.9307ZM393.736 14.9307C396.059 14.9307 397.966 15.0201 399.455 15.1988 400.944 15.3775 402.135 15.6158 403.029 15.9136 403.923 16.2115 404.563 16.5987 404.95 17.0753 405.337 17.5518 405.531 18.088 405.531 18.6837L405.531 127.876C405.531 128.472 405.337 129.008 404.95 129.484 404.563 129.961 403.923 130.348 403.029 130.646 402.135 130.944 400.944 131.182 399.455 131.361 397.966 131.54 396.059 131.629 393.736 131.629 391.472 131.629 389.581 131.54 388.062 131.361 386.543 131.182 385.337 130.944 384.443 130.646 383.55 130.348 382.909 129.961 382.522 129.484 382.135 129.008 381.941 128.472 381.941 127.876L381.941 18.6837C381.941 18.088 382.135 17.5518 382.522 17.0753 382.909 16.5987 383.564 16.2115 384.488 15.9136 385.411 15.6158 386.617 15.3775 388.107 15.1988 389.596 15.0201 391.472 14.9307 393.736 14.9307ZM114.726 14.9307C117.049 14.9307 118.955 15.0201 120.444 15.1988 121.934 15.3775 123.125 15.6158 124.019 15.9136 124.912 16.2115 125.553 16.5987 125.94 17.0753 126.327 17.5518 126.521 18.088 126.521 18.6837L126.521 111.703 162.888 111.703C163.484 111.703 164.005 111.867 164.452 112.194 164.899 112.522 165.271 113.058 165.569 113.803 165.867 114.547 166.09 115.53 166.239 116.751 166.388 117.972 166.462 119.477 166.462 121.264 166.462 123.051 166.388 124.555 166.239 125.776 166.09 126.997 165.867 128.01 165.569 128.814 165.271 129.618 164.899 130.199 164.452 130.557 164.005 130.914 163.484 131.093 162.888 131.093L109.9 131.093C107.935 131.093 106.282 130.512 104.941 129.35 103.601 128.189 102.931 126.297 102.931 123.676L102.931 18.6837C102.931 18.088 103.124 17.5518 103.512 17.0753 103.899 16.5987 104.539 16.2115 105.433 15.9136 106.326 15.6158 107.533 15.3775 109.052 15.1988 110.571 15.0201 112.462 14.9307 114.726 14.9307ZM1756.85 13.4117C1765.61 13.4117 1773.34 14.5733 1780.04 16.8966 1786.74 19.2198 1792.34 22.794 1796.84 27.6192 1801.34 32.4444 1804.73 38.5355 1807.03 45.8924 1809.32 53.2493 1810.47 61.9317 1810.47 71.9395 1810.47 81.5303 1809.27 90.1085 1806.89 97.6739 1804.51 105.239 1800.96 111.658 1796.26 116.93 1791.55 122.202 1785.73 126.223 1778.79 128.993 1771.85 131.763 1763.82 133.148 1754.71 133.148 1745.71 133.148 1737.86 131.971 1731.16 129.618 1724.46 127.265 1718.88 123.676 1714.41 118.851 1709.94 114.026 1706.59 107.89 1704.36 100.444 1702.12 92.9976 1701.01 84.1812 1701.01 73.9947 1701.01 64.6422 1702.2 56.2278 1704.58 48.7518 1706.96 41.2757 1710.51 34.9166 1715.21 29.6744 1719.92 24.4322 1725.74 20.4112 1732.68 17.6114 1739.62 14.8116 1747.68 13.4117 1756.85 13.4117ZM897.477 13.4117C906.234 13.4117 913.963 14.5733 920.665 16.8966 927.366 19.2198 932.966 22.794 937.464 27.6192 941.961 32.4444 945.357 38.5355 947.65 45.8924 949.944 53.2493 951.09 61.9317 951.09 71.9395 951.09 81.5303 949.899 90.1085 947.516 97.6739 945.133 105.239 941.589 111.658 936.883 116.93 932.177 122.202 926.354 126.223 919.414 128.993 912.474 131.763 904.447 133.148 895.333 133.148 886.337 133.148 878.489 131.971 871.788 129.618 865.086 127.265 859.501 123.676 855.033 118.851 850.566 114.026 847.215 107.89 844.981 100.444 842.747 92.9976 841.63 84.1812 841.63 73.9947 841.63 64.6422 842.821 56.2278 845.204 48.7518 847.587 41.2757 851.131 34.9166 855.838 29.6744 860.544 24.4322 866.367 20.4112 873.307 17.6114 880.247 14.8116 888.303 13.4117 897.477 13.4117ZM464.415 13.4117C467.156 13.4117 469.896 13.6202 472.636 14.0372 475.376 14.4542 477.938 15.0201 480.321 15.7349 482.703 16.4498 484.818 17.254 486.665 18.1475 488.512 19.0411 489.733 19.7857 490.328 20.3814 490.924 20.9771 491.326 21.4835 491.535 21.9005 491.743 22.3175 491.922 22.8685 492.071 23.5535 492.22 24.2386 492.324 25.1024 492.384 26.1448 492.443 27.1873 492.473 28.483 492.473 30.0318 492.473 31.7593 492.428 33.2188 492.339 34.4102 492.25 35.6016 492.101 36.5845 491.892 37.359 491.684 38.1334 491.386 38.6993 490.999 39.0567 490.611 39.4141 490.09 39.5928 489.435 39.5928 488.78 39.5928 487.737 39.1758 486.307 38.3419 484.878 37.5079 483.12 36.5994 481.036 35.6165 478.951 34.6336 476.538 33.7401 473.798 32.9359 471.057 32.1317 468.049 31.7296 464.773 31.7296 462.211 31.7296 459.977 32.0423 458.071 32.6678 456.165 33.2933 454.571 34.1571 453.291 35.2591 452.01 36.3611 451.057 37.6866 450.431 39.2354 449.806 40.7842 449.493 42.4224 449.493 44.15 449.493 46.7115 450.193 48.9305 451.593 50.8069 452.993 52.6834 454.869 54.3514 457.222 55.8109 459.575 57.2703 462.241 58.6404 465.22 59.9212 468.198 61.202 471.236 62.5572 474.334 63.9869 477.432 65.4166 480.47 67.0399 483.448 68.8568 486.427 70.6737 489.078 72.848 491.401 75.3797 493.724 77.9114 495.6 80.89 497.03 84.3152 498.46 87.7405 499.175 91.7764 499.175 96.4229 499.175 102.499 498.043 107.831 495.779 112.418 493.516 117.004 490.448 120.832 486.576 123.9 482.703 126.968 478.176 129.276 472.994 130.825 467.811 132.374 462.271 133.148 456.373 133.148 452.382 133.148 448.674 132.82 445.249 132.165 441.823 131.51 438.8 130.721 436.179 129.797 433.558 128.874 431.369 127.906 429.611 126.893 427.854 125.88 426.588 124.987 425.814 124.212 425.039 123.438 424.488 122.321 424.161 120.862 423.833 119.402 423.669 117.302 423.669 114.562 423.669 112.715 423.729 111.167 423.848 109.916 423.967 108.665 424.161 107.652 424.429 106.878 424.697 106.103 425.054 105.552 425.501 105.224 425.948 104.897 426.469 104.733 427.065 104.733 427.899 104.733 429.075 105.224 430.594 106.207 432.113 107.19 434.064 108.277 436.447 109.469 438.83 110.66 441.674 111.747 444.981 112.73 448.287 113.713 452.114 114.205 456.463 114.205 459.322 114.205 461.884 113.862 464.147 113.177 466.411 112.492 468.332 111.524 469.911 110.273 471.489 109.022 472.696 107.473 473.53 105.627 474.364 103.78 474.781 101.725 474.781 99.461 474.781 96.8399 474.066 94.5911 472.636 92.7147 471.206 90.8382 469.345 89.1702 467.051 87.7108 464.758 86.2513 462.152 84.8812 459.233 83.6004 456.314 82.3196 453.306 80.9644 450.208 79.5347 447.11 78.105 444.102 76.4818 441.183 74.6649 438.264 72.848 435.658 70.6737 433.364 68.1419 431.071 65.6102 429.209 62.6168 427.78 59.1617 426.35 55.7066 425.635 51.5665 425.635 46.7413 425.635 41.2012 426.663 36.3314 428.718 32.1317 430.773 27.932 433.543 24.4471 437.028 21.6771 440.513 18.9071 444.623 16.837 449.359 15.4669 454.095 14.0968 459.114 13.4117 464.415 13.4117Z" stroke="#FFFF00" stroke-width="7" stroke-linecap="butt" stroke-linejoin="round" stroke-miterlimit="10" stroke-opacity="1" fill="#FFFF00" fill-rule="evenodd" fill-opacity="1"/></g></g><path d="M2255.87 184.272 2239.51 233.418 2272.31 233.418 2255.96 184.272ZM2348.87 180.609 2348.87 259.242 2361.11 259.242C2367.55 259.242 2372.97 258.408 2377.38 256.74 2381.79 255.072 2385.46 252.555 2388.41 249.189 2391.36 245.823 2393.57 241.639 2395.02 236.635 2396.48 231.631 2397.21 225.793 2397.21 219.121 2397.21 213.641 2396.57 208.547 2395.29 203.841 2394.01 199.135 2391.96 195.055 2389.13 191.6 2386.3 188.144 2382.66 185.449 2378.23 183.513 2373.79 181.577 2367.96 180.609 2360.76 180.609ZM1770.32 180.162 1770.32 212.956 1782.29 212.956C1785.63 212.956 1788.54 212.553 1791.05 211.749 1793.55 210.945 1795.63 209.813 1797.3 208.354 1798.97 206.894 1800.22 205.152 1801.05 203.126 1801.89 201.101 1802.31 198.837 1802.31 196.335 1802.31 192.523 1801.44 189.306 1799.71 186.685 1797.99 184.064 1795.16 182.217 1791.23 181.145 1790.03 180.847 1788.68 180.609 1787.16 180.43 1785.64 180.251 1783.54 180.162 1780.86 180.162ZM1453.49 180.162 1453.49 212.956 1465.47 212.956C1468.8 212.956 1471.72 212.553 1474.22 211.749 1476.73 210.945 1478.81 209.813 1480.48 208.354 1482.15 206.894 1483.4 205.152 1484.23 203.126 1485.07 201.101 1485.48 198.837 1485.48 196.335 1485.48 192.523 1484.62 189.306 1482.89 186.685 1481.16 184.064 1478.33 182.217 1474.4 181.145 1473.21 180.847 1471.86 180.609 1470.34 180.43 1468.82 180.251 1466.72 180.162 1464.04 180.162ZM2490.78 179.447C2485 179.447 2480.18 180.534 2476.31 182.709 2472.44 184.883 2469.31 187.787 2466.93 191.421 2464.54 195.055 2462.86 199.299 2461.88 204.154 2460.89 209.009 2460.4 214.147 2460.4 219.568 2460.4 225.882 2460.88 231.556 2461.83 236.59 2462.78 241.624 2464.39 245.928 2466.66 249.502 2468.92 253.076 2471.96 255.801 2475.77 257.678 2479.58 259.554 2484.38 260.493 2490.16 260.493 2495.94 260.493 2500.76 259.42 2504.63 257.276 2508.5 255.131 2511.63 252.212 2514.02 248.519 2516.4 244.826 2518.08 240.522 2519.06 235.607 2520.05 230.693 2520.54 225.465 2520.54 219.925 2520.54 213.849 2520.06 208.324 2519.11 203.35 2518.16 198.376 2516.53 194.116 2514.24 190.572 2511.95 187.028 2508.89 184.287 2505.08 182.351 2501.27 180.415 2496.5 179.447 2490.78 179.447ZM1631.41 179.447C1625.63 179.447 1620.8 180.534 1616.93 182.709 1613.06 184.883 1609.93 187.787 1607.55 191.421 1605.17 195.055 1603.48 199.299 1602.5 204.154 1601.52 209.009 1601.03 214.147 1601.03 219.568 1601.03 225.882 1601.5 231.556 1602.46 236.59 1603.41 241.624 1605.02 245.928 1607.28 249.502 1609.55 253.076 1612.58 255.801 1616.4 257.678 1620.21 259.554 1625 260.493 1630.78 260.493 1636.56 260.493 1641.39 259.42 1645.26 257.276 1649.13 255.131 1652.26 252.212 1654.64 248.519 1657.02 244.826 1658.71 240.522 1659.69 235.607 1660.67 230.693 1661.16 225.465 1661.16 219.925 1661.16 213.849 1660.69 208.324 1659.73 203.35 1658.78 198.376 1657.16 194.116 1654.86 190.572 1652.57 187.028 1649.52 184.287 1645.7 182.351 1641.89 180.415 1637.13 179.447 1631.41 179.447ZM2332.43 162.202 2362.1 162.202C2372.4 162.202 2381.14 163.408 2388.32 165.82 2395.5 168.233 2401.55 171.807 2406.46 176.543 2411.38 181.279 2415.11 187.132 2417.68 194.102 2420.24 201.071 2421.52 209.143 2421.52 218.317 2421.52 228.92 2420.13 237.99 2417.36 245.526 2414.59 253.061 2410.62 259.212 2405.43 263.977 2400.25 268.743 2393.95 272.243 2386.54 274.477 2379.12 276.711 2370.29 277.828 2360.04 277.828L2332.43 277.828C2330.47 277.828 2328.81 277.247 2327.47 276.085 2326.13 274.924 2325.46 273.032 2325.46 270.411L2325.46 169.618C2325.46 166.997 2326.13 165.106 2327.47 163.944 2328.81 162.782 2330.47 162.202 2332.43 162.202ZM2054.57 162.202 2112.29 162.202C2112.83 162.202 2113.3 162.351 2113.72 162.648 2114.14 162.946 2114.49 163.467 2114.79 164.212 2115.09 164.957 2115.31 165.91 2115.46 167.071 2115.61 168.233 2115.69 169.707 2115.69 171.495 2115.69 173.163 2115.61 174.577 2115.46 175.739 2115.31 176.901 2115.09 177.839 2114.79 178.554 2114.49 179.268 2114.14 179.79 2113.72 180.117 2113.3 180.445 2112.83 180.609 2112.29 180.609L2071.01 180.609 2071.01 208.845 2105.95 208.845C2106.48 208.845 2106.97 209.009 2107.42 209.337 2107.87 209.664 2108.24 210.171 2108.54 210.856 2108.83 211.541 2109.06 212.464 2109.21 213.626 2109.36 214.787 2109.43 216.202 2109.43 217.87 2109.43 219.598 2109.36 221.027 2109.21 222.159 2109.06 223.291 2108.83 224.199 2108.54 224.884 2108.24 225.57 2107.87 226.061 2107.42 226.359 2106.97 226.657 2106.48 226.806 2105.95 226.806L2071.01 226.806 2071.01 259.42 2112.65 259.42C2113.18 259.42 2113.68 259.584 2114.12 259.912 2114.57 260.239 2114.94 260.761 2115.24 261.476 2115.54 262.19 2115.76 263.129 2115.91 264.29 2116.06 265.452 2116.13 266.896 2116.13 268.624 2116.13 270.352 2116.06 271.796 2115.91 272.958 2115.76 274.119 2115.54 275.058 2115.24 275.772 2114.94 276.487 2114.57 277.008 2114.12 277.336 2113.68 277.664 2113.18 277.828 2112.65 277.828L2054.57 277.828C2052.6 277.828 2050.95 277.247 2049.61 276.085 2048.27 274.924 2047.6 273.032 2047.6 270.411L2047.6 169.618C2047.6 166.997 2048.27 165.106 2049.61 163.944 2050.95 162.782 2052.6 162.202 2054.57 162.202ZM1856.91 162.202 1914.63 162.202C1915.17 162.202 1915.65 162.351 1916.06 162.648 1916.48 162.946 1916.84 163.467 1917.14 164.212 1917.43 164.957 1917.66 165.91 1917.81 167.071 1917.95 168.233 1918.03 169.707 1918.03 171.495 1918.03 173.163 1917.95 174.577 1917.81 175.739 1917.66 176.901 1917.43 177.839 1917.14 178.554 1916.84 179.268 1916.48 179.79 1916.06 180.117 1915.65 180.445 1915.17 180.609 1914.63 180.609L1873.35 180.609 1873.35 208.845 1908.29 208.845C1908.83 208.845 1909.32 209.009 1909.76 209.337 1910.21 209.664 1910.58 210.171 1910.88 210.856 1911.18 211.541 1911.4 212.464 1911.55 213.626 1911.7 214.787 1911.77 216.202 1911.77 217.87 1911.77 219.598 1911.7 221.027 1911.55 222.159 1911.4 223.291 1911.18 224.199 1910.88 224.884 1910.58 225.57 1910.21 226.061 1909.76 226.359 1909.32 226.657 1908.83 226.806 1908.29 226.806L1873.35 226.806 1873.35 259.42 1914.99 259.42C1915.53 259.42 1916.02 259.584 1916.47 259.912 1916.91 260.239 1917.28 260.761 1917.58 261.476 1917.88 262.19 1918.1 263.129 1918.25 264.29 1918.4 265.452 1918.48 266.896 1918.48 268.624 1918.48 270.352 1918.4 271.796 1918.25 272.958 1918.1 274.119 1917.88 275.058 1917.58 275.772 1917.28 276.487 1916.91 277.008 1916.47 277.336 1916.02 277.664 1915.53 277.828 1914.99 277.828L1856.91 277.828C1854.94 277.828 1853.29 277.247 1851.95 276.085 1850.61 274.924 1849.94 273.032 1849.94 270.411L1849.94 169.618C1849.94 166.997 1850.61 165.106 1851.95 163.944 1853.29 162.782 1854.94 162.202 1856.91 162.202ZM1753.79 162.202 1783.72 162.202C1786.76 162.202 1789.26 162.261 1791.23 162.38 1793.19 162.499 1794.98 162.648 1796.59 162.827 1801.23 163.482 1805.42 164.614 1809.14 166.223 1812.86 167.831 1816.02 169.931 1818.61 172.522 1821.2 175.113 1823.18 178.181 1824.55 181.726 1825.92 185.27 1826.61 189.336 1826.61 193.923 1826.61 197.795 1826.12 201.324 1825.14 204.511 1824.15 207.698 1822.71 210.543 1820.8 213.045 1818.9 215.547 1816.54 217.721 1813.74 219.568 1810.94 221.414 1807.76 222.904 1804.18 224.036 1805.91 224.87 1807.53 225.882 1809.05 227.074 1810.57 228.265 1812 229.71 1813.34 231.407 1814.68 233.105 1815.95 235.041 1817.14 237.216 1818.33 239.39 1819.49 241.847 1820.62 244.587L1830.36 267.373C1831.26 269.637 1831.85 271.29 1832.15 272.332 1832.45 273.375 1832.6 274.194 1832.6 274.789 1832.6 275.445 1832.48 275.996 1832.24 276.443 1832 276.889 1831.44 277.262 1830.54 277.56 1829.65 277.857 1828.34 278.066 1826.61 278.185 1824.88 278.304 1822.53 278.364 1819.55 278.364 1817.05 278.364 1815.05 278.304 1813.56 278.185 1812.07 278.066 1810.9 277.842 1810.03 277.515 1809.17 277.187 1808.56 276.77 1808.2 276.264 1807.85 275.758 1807.55 275.147 1807.31 274.432L1796.94 248.608C1795.69 245.689 1794.47 243.098 1793.28 240.834 1792.09 238.571 1790.76 236.679 1789.3 235.16 1787.84 233.641 1786.16 232.495 1784.26 231.72 1782.35 230.946 1780.15 230.559 1777.64 230.559L1770.32 230.559 1770.32 274.611C1770.32 275.206 1770.12 275.743 1769.74 276.219 1769.35 276.696 1768.71 277.083 1767.81 277.381 1766.92 277.679 1765.73 277.917 1764.24 278.096 1762.75 278.274 1760.84 278.364 1758.52 278.364 1756.26 278.364 1754.37 278.274 1752.85 278.096 1751.33 277.917 1750.12 277.679 1749.23 277.381 1748.33 277.083 1747.71 276.696 1747.35 276.219 1746.99 275.743 1746.82 275.206 1746.82 274.611L1746.82 169.618C1746.82 166.997 1747.49 165.106 1748.83 163.944 1750.17 162.782 1751.82 162.202 1753.79 162.202ZM1436.96 162.202 1466.9 162.202C1469.93 162.202 1472.44 162.261 1474.4 162.38 1476.37 162.499 1478.16 162.648 1479.76 162.827 1484.41 163.482 1488.59 164.614 1492.32 166.223 1496.04 167.831 1499.2 169.931 1501.79 172.522 1504.38 175.113 1506.36 178.181 1507.73 181.726 1509.1 185.27 1509.79 189.336 1509.79 193.923 1509.79 197.795 1509.3 201.324 1508.31 204.511 1507.33 207.698 1505.89 210.543 1503.98 213.045 1502.07 215.547 1499.72 217.721 1496.92 219.568 1494.12 221.414 1490.93 222.904 1487.36 224.036 1489.09 224.87 1490.71 225.882 1492.23 227.074 1493.75 228.265 1495.18 229.71 1496.52 231.407 1497.86 233.105 1499.12 235.041 1500.32 237.216 1501.51 239.39 1502.67 241.847 1503.8 244.587L1513.54 267.373C1514.43 269.637 1515.03 271.29 1515.33 272.332 1515.62 273.375 1515.77 274.194 1515.77 274.789 1515.77 275.445 1515.65 275.996 1515.42 276.443 1515.18 276.889 1514.61 277.262 1513.72 277.56 1512.83 277.857 1511.51 278.066 1509.79 278.185 1508.06 278.304 1505.71 278.364 1502.73 278.364 1500.23 278.364 1498.23 278.304 1496.74 278.185 1495.25 278.066 1494.08 277.842 1493.21 277.515 1492.35 277.187 1491.74 276.77 1491.38 276.264 1491.02 275.758 1490.72 275.147 1490.49 274.432L1480.12 248.608C1478.87 245.689 1477.65 243.098 1476.46 240.834 1475.27 238.571 1473.94 236.679 1472.48 235.16 1471.02 233.641 1469.34 232.495 1467.43 231.72 1465.53 230.946 1463.32 230.559 1460.82 230.559L1453.49 230.559 1453.49 274.611C1453.49 275.206 1453.3 275.743 1452.91 276.219 1452.53 276.696 1451.88 277.083 1450.99 277.381 1450.1 277.679 1448.91 277.917 1447.42 278.096 1445.93 278.274 1444.02 278.364 1441.7 278.364 1439.43 278.364 1437.54 278.274 1436.02 278.096 1434.51 277.917 1433.3 277.679 1432.41 277.381 1431.51 277.083 1430.89 276.696 1430.53 276.219 1430.17 275.743 1429.99 275.206 1429.99 274.611L1429.99 169.618C1429.99 166.997 1430.66 165.106 1432 163.944 1433.34 162.782 1435 162.202 1436.96 162.202ZM1347.59 162.202 1405.31 162.202C1405.85 162.202 1406.32 162.351 1406.74 162.648 1407.16 162.946 1407.52 163.467 1407.81 164.212 1408.11 164.957 1408.33 165.91 1408.48 167.071 1408.63 168.233 1408.71 169.707 1408.71 171.495 1408.71 173.163 1408.63 174.577 1408.48 175.739 1408.33 176.901 1408.11 177.839 1407.81 178.554 1407.52 179.268 1407.16 179.79 1406.74 180.117 1406.32 180.445 1405.85 180.609 1405.31 180.609L1364.03 180.609 1364.03 208.845 1398.97 208.845C1399.5 208.845 1399.99 209.009 1400.44 209.337 1400.89 209.664 1401.26 210.171 1401.56 210.856 1401.86 211.541 1402.08 212.464 1402.23 213.626 1402.38 214.787 1402.45 216.202 1402.45 217.87 1402.45 219.598 1402.38 221.027 1402.23 222.159 1402.08 223.291 1401.86 224.199 1401.56 224.884 1401.26 225.57 1400.89 226.061 1400.44 226.359 1399.99 226.657 1399.5 226.806 1398.97 226.806L1364.03 226.806 1364.03 259.42 1405.67 259.42C1406.2 259.42 1406.7 259.584 1407.14 259.912 1407.59 260.239 1407.96 260.761 1408.26 261.476 1408.56 262.19 1408.78 263.129 1408.93 264.29 1409.08 265.452 1409.15 266.896 1409.15 268.624 1409.15 270.352 1409.08 271.796 1408.93 272.958 1408.78 274.119 1408.56 275.058 1408.26 275.772 1407.96 276.487 1407.59 277.008 1407.14 277.336 1406.7 277.664 1406.2 277.828 1405.67 277.828L1347.59 277.828C1345.62 277.828 1343.97 277.247 1342.63 276.085 1341.29 274.924 1340.62 273.032 1340.62 270.411L1340.62 169.618C1340.62 166.997 1341.29 165.106 1342.63 163.944 1343.97 162.782 1345.62 162.202 1347.59 162.202ZM1242.05 162.202 1323.55 162.202C1324.08 162.202 1324.57 162.365 1325.02 162.693 1325.47 163.021 1325.84 163.557 1326.14 164.301 1326.44 165.046 1326.66 166.044 1326.81 167.295 1326.96 168.546 1327.03 170.065 1327.03 171.852 1327.03 173.58 1326.96 175.054 1326.81 176.275 1326.66 177.496 1326.44 178.479 1326.14 179.224 1325.84 179.968 1325.47 180.519 1325.02 180.877 1324.57 181.234 1324.08 181.413 1323.55 181.413L1294.6 181.413 1294.6 274.611C1294.6 275.206 1294.4 275.743 1294.02 276.219 1293.63 276.696 1292.99 277.083 1292.09 277.381 1291.2 277.679 1289.99 277.917 1288.47 278.096 1286.96 278.274 1285.06 278.364 1282.8 278.364 1280.54 278.364 1278.65 278.274 1277.13 278.096 1275.61 277.917 1274.4 277.679 1273.51 277.381 1272.61 277.083 1271.97 276.696 1271.59 276.219 1271.2 275.743 1271.01 275.206 1271.01 274.611L1271.01 181.413 1242.05 181.413C1241.46 181.413 1240.95 181.234 1240.54 180.877 1240.12 180.519 1239.76 179.968 1239.46 179.224 1239.17 178.479 1238.94 177.496 1238.79 176.275 1238.64 175.054 1238.57 173.58 1238.57 171.852 1238.57 170.065 1238.64 168.546 1238.79 167.295 1238.94 166.044 1239.17 165.046 1239.46 164.301 1239.76 163.557 1240.12 163.021 1240.54 162.693 1240.95 162.365 1241.46 162.202 1242.05 162.202ZM965.105 162.202 980.475 162.202C983.215 162.202 985.568 162.425 987.534 162.872 989.5 163.319 991.197 164.063 992.627 165.106 994.057 166.148 995.248 167.518 996.201 169.216 997.154 170.914 997.988 173.014 998.703 175.516L1023.72 244.409 1024.08 244.409 1049.99 175.694C1050.77 173.192 1051.62 171.078 1052.54 169.35 1053.46 167.623 1054.54 166.223 1055.76 165.15 1056.98 164.078 1058.42 163.319 1060.09 162.872 1061.76 162.425 1063.69 162.202 1065.9 162.202L1081.71 162.202C1083.32 162.202 1084.71 162.41 1085.87 162.827 1087.03 163.244 1087.98 163.855 1088.73 164.659 1089.47 165.463 1090.04 166.446 1090.43 167.608 1090.81 168.769 1091.01 170.095 1091.01 171.584L1091.01 274.611C1091.01 275.206 1090.84 275.743 1090.52 276.219 1090.19 276.696 1089.59 277.083 1088.73 277.381 1087.86 277.679 1086.72 277.917 1085.29 278.096 1083.86 278.274 1082.04 278.364 1079.84 278.364 1077.69 278.364 1075.91 278.274 1074.48 278.096 1073.05 277.917 1071.92 277.679 1071.08 277.381 1070.25 277.083 1069.65 276.696 1069.29 276.219 1068.94 275.743 1068.76 275.206 1068.76 274.611L1068.76 180.519 1068.58 180.519 1035.07 274.521C1034.83 275.296 1034.45 275.936 1033.91 276.443 1033.37 276.949 1032.64 277.351 1031.72 277.649 1030.8 277.947 1029.62 278.14 1028.19 278.23 1026.76 278.319 1025.03 278.364 1023.01 278.364 1020.98 278.364 1019.25 278.289 1017.83 278.14 1016.4 277.991 1015.22 277.753 1014.3 277.425 1013.37 277.098 1012.64 276.696 1012.11 276.219 1011.57 275.743 1011.21 275.177 1011.03 274.521L978.688 180.519 978.509 180.519 978.509 274.611C978.509 275.206 978.345 275.743 978.017 276.219 977.69 276.696 977.079 277.083 976.186 277.381 975.292 277.679 974.145 277.917 972.745 278.096 971.345 278.274 969.543 278.364 967.339 278.364 965.195 278.364 963.408 278.274 961.978 278.096 960.548 277.917 959.402 277.679 958.538 277.381 957.674 277.083 957.078 276.696 956.751 276.219 956.423 275.743 956.259 275.206 956.259 274.611L956.259 171.584C956.259 168.546 957.063 166.223 958.672 164.614 960.28 163.006 962.425 162.202 965.105 162.202ZM755.26 162.202 812.984 162.202C813.52 162.202 813.997 162.351 814.414 162.648 814.831 162.946 815.188 163.467 815.486 164.212 815.784 164.957 816.007 165.91 816.156 167.071 816.305 168.233 816.379 169.707 816.379 171.495 816.379 173.163 816.305 174.577 816.156 175.739 816.007 176.901 815.784 177.839 815.486 178.554 815.188 179.268 814.831 179.79 814.414 180.117 813.997 180.445 813.52 180.609 812.984 180.609L771.702 180.609 771.702 208.845 806.64 208.845C807.176 208.845 807.667 209.009 808.114 209.337 808.561 209.664 808.933 210.171 809.231 210.856 809.529 211.541 809.752 212.464 809.901 213.626 810.05 214.787 810.125 216.202 810.125 217.87 810.125 219.598 810.05 221.027 809.901 222.159 809.752 223.291 809.529 224.199 809.231 224.884 808.933 225.57 808.561 226.061 808.114 226.359 807.667 226.657 807.176 226.806 806.64 226.806L771.702 226.806 771.702 259.42 813.341 259.42C813.877 259.42 814.369 259.584 814.816 259.912 815.262 260.239 815.635 260.761 815.933 261.476 816.23 262.19 816.454 263.129 816.603 264.29 816.752 265.452 816.826 266.896 816.826 268.624 816.826 270.352 816.752 271.796 816.603 272.958 816.454 274.119 816.23 275.058 815.933 275.772 815.635 276.487 815.262 277.008 814.816 277.336 814.369 277.664 813.877 277.828 813.341 277.828L755.26 277.828C753.294 277.828 751.641 277.247 750.301 276.085 748.961 274.924 748.291 273.032 748.291 270.411L748.291 169.618C748.291 166.997 748.961 165.106 750.301 163.944 751.641 162.782 753.294 162.202 755.26 162.202ZM2256.22 161.665C2259.74 161.665 2262.54 161.71 2264.62 161.799 2266.71 161.889 2268.33 162.097 2269.49 162.425 2270.65 162.753 2271.49 163.244 2271.99 163.899 2272.5 164.555 2272.93 165.448 2273.29 166.58L2309.03 269.071C2309.75 271.215 2310.19 272.913 2310.37 274.164 2310.55 275.415 2310.31 276.353 2309.66 276.979 2309 277.604 2307.84 277.991 2306.17 278.14 2304.5 278.289 2302.21 278.364 2299.29 278.364 2296.25 278.364 2293.89 278.319 2292.19 278.23 2290.49 278.14 2289.2 277.962 2288.3 277.694 2287.41 277.425 2286.78 277.053 2286.43 276.577 2286.07 276.1 2285.77 275.475 2285.53 274.7L2277.76 251.468 2234.33 251.468 2227 274.075C2226.77 274.909 2226.45 275.609 2226.07 276.174 2225.68 276.74 2225.05 277.187 2224.19 277.515 2223.33 277.842 2222.1 278.066 2220.53 278.185 2218.95 278.304 2216.88 278.364 2214.32 278.364 2211.58 278.364 2209.43 278.274 2207.88 278.096 2206.33 277.917 2205.26 277.485 2204.67 276.8 2204.07 276.115 2203.86 275.147 2204.04 273.896 2204.22 272.645 2204.67 270.977 2205.38 268.892L2241.03 166.312C2241.39 165.299 2241.81 164.48 2242.28 163.855 2242.76 163.229 2243.52 162.753 2244.56 162.425 2245.6 162.097 2247.05 161.889 2248.9 161.799 2250.74 161.71 2253.19 161.665 2256.22 161.665ZM2148.77 161.665C2151.09 161.665 2153 161.755 2154.49 161.934 2155.97 162.112 2157.17 162.351 2158.06 162.648 2158.95 162.946 2159.59 163.333 2159.98 163.81 2160.37 164.287 2160.56 164.823 2160.56 165.418L2160.56 258.437 2196.93 258.437C2197.52 258.437 2198.05 258.601 2198.49 258.929 2198.94 259.257 2199.31 259.793 2199.61 260.537 2199.91 261.282 2200.13 262.265 2200.28 263.486 2200.43 264.707 2200.5 266.211 2200.5 267.998 2200.5 269.786 2200.43 271.29 2200.28 272.511 2200.13 273.732 2199.91 274.745 2199.61 275.549 2199.31 276.353 2198.94 276.934 2198.49 277.291 2198.05 277.649 2197.52 277.828 2196.93 277.828L2143.94 277.828C2141.98 277.828 2140.32 277.247 2138.98 276.085 2137.64 274.924 2136.97 273.032 2136.97 270.411L2136.97 165.418C2136.97 164.823 2137.17 164.287 2137.55 163.81 2137.94 163.333 2138.58 162.946 2139.47 162.648 2140.37 162.351 2141.57 162.112 2143.09 161.934 2144.61 161.755 2146.5 161.665 2148.77 161.665ZM1941.1 161.665C1943.84 161.665 1945.99 161.725 1947.54 161.844 1949.08 161.963 1950.28 162.172 1951.11 162.47 1951.94 162.768 1952.53 163.214 1952.85 163.81 1953.18 164.406 1953.49 165.15 1953.79 166.044L1981.94 255.221 1982.03 255.221 2009.64 166.491C2009.88 165.478 2010.17 164.659 2010.53 164.033 2010.89 163.408 2011.5 162.916 2012.36 162.559 2013.23 162.202 2014.46 161.963 2016.07 161.844 2017.68 161.725 2019.88 161.665 2022.68 161.665 2025.42 161.665 2027.55 161.755 2029.07 161.934 2030.59 162.112 2031.63 162.544 2032.2 163.229 2032.77 163.914 2032.95 164.882 2032.74 166.133 2032.53 167.384 2032.07 169.052 2031.35 171.137L1996.86 273.717C1996.56 274.73 1996.18 275.549 1995.7 276.174 1995.22 276.8 1994.45 277.277 1993.38 277.604 1992.3 277.932 1990.84 278.14 1989 278.23 1987.15 278.319 1984.74 278.364 1981.76 278.364 1979.38 278.364 1977.34 278.349 1975.64 278.319 1973.94 278.289 1972.5 278.215 1971.3 278.096 1970.11 277.977 1969.15 277.798 1968.4 277.56 1967.66 277.321 1967.03 277.023 1966.52 276.666 1966.02 276.309 1965.63 275.877 1965.36 275.37 1965.09 274.864 1964.84 274.224 1964.6 273.449L1930.2 170.958C1929.49 168.814 1929.05 167.116 1928.91 165.865 1928.76 164.614 1929.05 163.676 1929.8 163.05 1930.54 162.425 1931.81 162.038 1933.6 161.889 1935.38 161.74 1937.89 161.665 1941.1 161.665ZM1544.91 161.665C1547.24 161.665 1549.14 161.755 1550.63 161.934 1552.12 162.112 1553.31 162.351 1554.21 162.648 1555.1 162.946 1555.74 163.333 1556.13 163.81 1556.51 164.287 1556.71 164.823 1556.71 165.418L1556.71 274.611C1556.71 275.206 1556.51 275.743 1556.13 276.219 1555.74 276.696 1555.1 277.083 1554.21 277.381 1553.31 277.679 1552.12 277.917 1550.63 278.096 1549.14 278.274 1547.24 278.364 1544.91 278.364 1542.65 278.364 1540.76 278.274 1539.24 278.096 1537.72 277.917 1536.51 277.679 1535.62 277.381 1534.73 277.083 1534.09 276.696 1533.7 276.219 1533.31 275.743 1533.12 275.206 1533.12 274.611L1533.12 165.418C1533.12 164.823 1533.31 164.287 1533.7 163.81 1534.09 163.333 1534.74 162.946 1535.66 162.648 1536.59 162.351 1537.79 162.112 1539.28 161.934 1540.77 161.755 1542.65 161.665 1544.91 161.665ZM1128.47 161.665C1130.79 161.665 1132.7 161.755 1134.19 161.934 1135.68 162.112 1136.87 162.351 1137.76 162.648 1138.66 162.946 1139.3 163.333 1139.68 163.81 1140.07 164.287 1140.27 164.823 1140.27 165.418L1140.27 274.611C1140.27 275.206 1140.07 275.743 1139.68 276.219 1139.3 276.696 1138.66 277.083 1137.76 277.381 1136.87 277.679 1135.68 277.917 1134.19 278.096 1132.7 278.274 1130.79 278.364 1128.47 278.364 1126.21 278.364 1124.32 278.274 1122.8 278.096 1121.28 277.917 1120.07 277.679 1119.18 277.381 1118.28 277.083 1117.64 276.696 1117.26 276.219 1116.87 275.743 1116.68 275.206 1116.68 274.611L1116.68 165.418C1116.68 164.823 1116.87 164.287 1117.26 163.81 1117.64 163.333 1118.3 162.946 1119.22 162.648 1120.15 162.351 1121.35 162.112 1122.84 161.934 1124.33 161.755 1126.21 161.665 1128.47 161.665ZM849.46 161.665C851.784 161.665 853.69 161.755 855.179 161.934 856.668 162.112 857.86 162.351 858.753 162.648 859.647 162.946 860.287 163.333 860.675 163.81 861.062 164.287 861.255 164.823 861.255 165.418L861.255 258.437 897.623 258.437C898.219 258.437 898.74 258.601 899.187 258.929 899.634 259.257 900.006 259.793 900.304 260.537 900.602 261.282 900.825 262.265 900.974 263.486 901.123 264.707 901.197 266.211 901.197 267.998 901.197 269.786 901.123 271.29 900.974 272.511 900.825 273.732 900.602 274.745 900.304 275.549 900.006 276.353 899.634 276.934 899.187 277.291 898.74 277.649 898.219 277.828 897.623 277.828L844.635 277.828C842.669 277.828 841.016 277.247 839.676 276.085 838.336 274.924 837.666 273.032 837.666 270.411L837.666 165.418C837.666 164.823 837.859 164.287 838.246 163.81 838.634 163.333 839.274 162.946 840.167 162.648 841.061 162.351 842.267 162.112 843.786 161.934 845.305 161.755 847.197 161.665 849.46 161.665ZM2491.59 160.146C2500.34 160.146 2508.07 161.308 2514.77 163.631 2521.48 165.955 2527.08 169.529 2531.57 174.354 2536.07 179.179 2539.47 185.27 2541.76 192.627 2544.05 199.984 2545.2 208.666 2545.2 218.674 2545.2 228.265 2544.01 236.843 2541.63 244.409 2539.24 251.974 2535.7 258.393 2530.99 263.665 2526.29 268.937 2520.46 272.958 2513.52 275.728 2506.58 278.498 2498.56 279.883 2489.44 279.883 2480.45 279.883 2472.6 278.706 2465.9 276.353 2459.2 274 2453.61 270.411 2449.14 265.586 2444.68 260.761 2441.32 254.625 2439.09 247.179 2436.86 239.732 2435.74 230.916 2435.74 220.729 2435.74 211.377 2436.93 202.963 2439.31 195.487 2441.7 188.01 2445.24 181.651 2449.95 176.409 2454.65 171.167 2460.48 167.146 2467.42 164.346 2474.36 161.546 2482.41 160.146 2491.59 160.146ZM1632.21 160.146C1640.97 160.146 1648.7 161.308 1655.4 163.631 1662.1 165.955 1667.7 169.529 1672.2 174.354 1676.7 179.179 1680.09 185.27 1682.39 192.627 1684.68 199.984 1685.83 208.666 1685.83 218.674 1685.83 228.265 1684.63 236.843 1682.25 244.409 1679.87 251.974 1676.32 258.393 1671.62 263.665 1666.91 268.937 1661.09 272.958 1654.15 275.728 1647.21 278.498 1639.18 279.883 1630.07 279.883 1621.07 279.883 1613.22 278.706 1606.52 276.353 1599.82 274 1594.24 270.411 1589.77 265.586 1585.3 260.761 1581.95 254.625 1579.72 247.179 1577.48 239.732 1576.36 230.916 1576.36 220.729 1576.36 211.377 1577.56 202.963 1579.94 195.487 1582.32 188.01 1585.87 181.651 1590.57 176.409 1595.28 171.167 1601.1 167.146 1608.04 164.346 1614.98 161.546 1623.04 160.146 1632.21 160.146ZM1199.15 160.146C1201.89 160.146 1204.63 160.355 1207.37 160.772 1210.11 161.189 1212.67 161.755 1215.06 162.47 1217.44 163.185 1219.55 163.989 1221.4 164.882 1223.25 165.776 1224.47 166.52 1225.06 167.116 1225.66 167.712 1226.06 168.218 1226.27 168.635 1226.48 169.052 1226.66 169.603 1226.81 170.288 1226.95 170.973 1227.06 171.837 1227.12 172.88 1227.18 173.922 1227.21 175.218 1227.21 176.767 1227.21 178.494 1227.16 179.954 1227.07 181.145 1226.98 182.336 1226.84 183.319 1226.63 184.094 1226.42 184.868 1226.12 185.434 1225.73 185.791 1225.35 186.149 1224.82 186.328 1224.17 186.328 1223.51 186.328 1222.47 185.911 1221.04 185.077 1219.61 184.243 1217.86 183.334 1215.77 182.351 1213.69 181.368 1211.27 180.475 1208.53 179.671 1205.79 178.866 1202.78 178.464 1199.51 178.464 1196.95 178.464 1194.71 178.777 1192.81 179.403 1190.9 180.028 1189.31 180.892 1188.03 181.994 1186.74 183.096 1185.79 184.421 1185.17 185.97 1184.54 187.519 1184.23 189.157 1184.23 190.885 1184.23 193.446 1184.93 195.665 1186.33 197.542 1187.73 199.418 1189.6 201.086 1191.96 202.546 1194.31 204.005 1196.98 205.375 1199.95 206.656 1202.93 207.937 1205.97 209.292 1209.07 210.722 1212.17 212.151 1215.2 213.775 1218.18 215.591 1221.16 217.408 1223.81 219.583 1226.14 222.114 1228.46 224.646 1230.34 227.625 1231.77 231.05 1233.19 234.475 1233.91 238.511 1233.91 243.158 1233.91 249.234 1232.78 254.565 1230.51 259.152 1228.25 263.739 1225.18 267.567 1221.31 270.634 1217.44 273.702 1212.91 276.011 1207.73 277.56 1202.55 279.108 1197.01 279.883 1191.11 279.883 1187.12 279.883 1183.41 279.555 1179.98 278.9 1176.56 278.245 1173.53 277.455 1170.91 276.532 1168.29 275.609 1166.1 274.641 1164.35 273.628 1162.59 272.615 1161.32 271.722 1160.55 270.947 1159.77 270.173 1159.22 269.056 1158.9 267.596 1158.57 266.137 1158.4 264.037 1158.4 261.297 1158.4 259.45 1158.46 257.901 1158.58 256.65 1158.7 255.399 1158.9 254.387 1159.16 253.612 1159.43 252.838 1159.79 252.287 1160.24 251.959 1160.68 251.632 1161.2 251.468 1161.8 251.468 1162.63 251.468 1163.81 251.959 1165.33 252.942 1166.85 253.925 1168.8 255.012 1171.18 256.204 1173.56 257.395 1176.41 258.482 1179.72 259.465 1183.02 260.448 1186.85 260.939 1191.2 260.939 1194.06 260.939 1196.62 260.597 1198.88 259.912 1201.15 259.227 1203.07 258.259 1204.65 257.008 1206.22 255.757 1207.43 254.208 1208.26 252.361 1209.1 250.515 1209.52 248.459 1209.52 246.196 1209.52 243.575 1208.8 241.326 1207.37 239.449 1205.94 237.573 1204.08 235.905 1201.79 234.445 1199.49 232.986 1196.89 231.616 1193.97 230.335 1191.05 229.054 1188.04 227.699 1184.94 226.269 1181.84 224.84 1178.84 223.216 1175.92 221.4 1173 219.583 1170.39 217.408 1168.1 214.877 1165.81 212.345 1163.94 209.352 1162.51 205.896 1161.08 202.441 1160.37 198.301 1160.37 193.476 1160.37 187.936 1161.4 183.066 1163.45 178.866 1165.51 174.667 1168.28 171.182 1171.76 168.412 1175.25 165.642 1179.36 163.572 1184.09 162.202 1188.83 160.831 1193.85 160.146 1199.15 160.146Z" stroke="#FFFF00" stroke-width="7" stroke-linecap="butt" stroke-linejoin="round" stroke-miterlimit="10" stroke-opacity="1" fill="#FFFF00" fill-rule="evenodd" fill-opacity="1"/><text fill="#000000" fill-opacity="0" font-family="Arial,Arial_MSFontService,sans-serif" font-size="119.736" direction="ltr" writing-mode="lr-tb" x="748.291" y="264.916">EL MISTERIO REVELADO</text></g></svg>