<svg width="65" height="637" xmlns="http://www.w3.org/2000/svg" xmlns:xlink="http://www.w3.org/1999/xlink" xml:space="preserve" overflow="hidden"><defs><clipPath id="clip0"><rect x="132" y="770" width="65" height="637"/></clipPath></defs><g clip-path="url(#clip0)" transform="translate(-132 -770)"><path d="M167.219 770.5 167.219 780.812 163.781 780.812 163.781 770.5ZM167.219 784.25 167.219 794.562 163.781 794.562 163.781 784.25ZM167.219 798 167.219 808.312 163.781 808.312 163.781 798ZM167.219 811.75 167.219 822.062 163.781 822.062 163.781 811.75ZM167.219 825.5 167.219 835.812 163.781 835.812 163.781 825.5ZM167.219 839.25 167.219 849.562 163.781 849.562 163.781 839.25ZM167.219 853 167.219 863.312 163.781 863.312 163.781 853ZM167.219 866.75 167.219 877.062 163.781 877.062 163.781 866.75ZM167.219 880.5 167.219 890.812 163.781 890.812 163.781 880.5ZM167.219 894.25 167.219 904.562 163.781 904.562 163.781 894.25ZM167.219 908 167.219 918.312 163.781 918.312 163.781 908ZM167.219 921.75 167.219 932.062 163.781 932.062 163.781 921.75ZM167.219 935.5 167.219 945.812 163.781 945.812 163.781 935.5ZM167.219 949.25 167.219 959.562 163.781 959.562 163.781 949.25ZM167.219 963 167.219 973.312 163.781 973.312 163.781 963ZM167.219 976.75 167.219 987.062 163.781 987.062 163.781 976.75ZM167.219 990.5 167.219 1000.81 163.781 1000.81 163.781 990.5ZM167.219 1004.25 167.219 1014.56 163.781 1014.56 163.781 1004.25ZM167.219 1018 167.219 1028.31 163.781 1028.31 163.781 1018ZM167.219 1031.75 167.219 1042.06 163.781 1042.06 163.781 1031.75ZM167.219 1045.5 167.219 1055.81 163.781 1055.81 163.781 1045.5ZM167.219 1059.25 167.219 1069.56 163.781 1069.56 163.781 1059.25ZM167.219 1073 167.219 1083.31 163.781 1083.31 163.781 1073ZM167.219 1086.75 167.219 1097.06 163.781 1097.06 163.781 1086.75ZM167.219 1100.5 167.219 1110.81 163.781 1110.81 163.781 1100.5ZM167.219 1114.25 167.219 1124.56 163.781 1124.56 163.781 1114.25ZM167.219 1128 167.219 1138.31 163.781 1138.31 163.781 1128ZM167.219 1141.75 167.219 1152.06 163.781 1152.06 163.781 1141.75ZM167.219 1155.5 167.219 1165.81 163.781 1165.81 163.781 1155.5ZM167.219 1169.25 167.219 1179.56 163.781 1179.56 163.781 1169.25ZM167.219 1183 167.219 1193.31 163.781 1193.31 163.781 1183ZM167.219 1196.75 167.219 1207.06 163.781 1207.06 163.781 1196.75ZM167.219 1210.5 167.219 1220.81 163.781 1220.81 163.781 1210.5ZM167.219 1224.25 167.219 1234.56 163.781 1234.56 163.781 1224.25ZM167.219 1238 167.219 1248.31 163.781 1248.31 163.781 1238ZM167.219 1251.75 167.219 1262.06 163.781 1262.06 163.781 1251.75ZM167.219 1265.5 167.219 1275.81 163.781 1275.81 163.781 1265.5ZM167.219 1279.25 167.219 1289.56 163.781 1289.56 163.781 1279.25ZM167.219 1293 167.219 1303.31 163.781 1303.31 163.781 1293ZM167.219 1306.75 167.219 1317.06 163.781 1317.06 163.781 1306.75ZM167.219 1320.5 167.219 1330.81 163.781 1330.81 163.781 1320.5ZM167.219 1334.25 167.219 1344.56 163.781 1344.56 163.781 1334.25ZM167.219 1348 167.219 1352.58 163.781 1352.58 163.781 1348ZM179.25 1348 165.5 1375.5 151.75 1348Z" fill="#4A7EBB" fill-rule="nonzero" fill-opacity="1"/></g></svg>