<svg width="55" height="632" xmlns="http://www.w3.org/2000/svg" xmlns:xlink="http://www.w3.org/1999/xlink" xml:space="preserve" overflow="hidden"><defs><clipPath id="clip0"><rect x="394" y="733" width="55" height="632"/></clipPath></defs><g clip-path="url(#clip0)" transform="translate(-394 -733)"><path d="M1.71875-1.02526e-06 1.71911 601.598-1.71839 601.598-1.71875 1.02526e-06ZM17.5266 574.963 0.000360392 605.008-17.5259 574.963C-18.0042 574.143-17.7273 573.091-16.9074 572.612-16.0874 572.134-15.035 572.411-14.5567 573.231L1.48498 600.731-1.48426 600.731 14.5574 573.231C15.0357 572.411 16.0881 572.134 16.908 572.612 17.728 573.091 18.0049 574.143 17.5266 574.963Z" fill="#4A7EBB" fill-rule="nonzero" fill-opacity="1" transform="matrix(1 0 0 -1 420.5 1364.5)"/></g></svg>