<svg width="59" height="637" xmlns="http://www.w3.org/2000/svg" xmlns:xlink="http://www.w3.org/1999/xlink" xml:space="preserve" overflow="hidden"><defs><clipPath id="clip0"><rect x="527" y="770" width="59" height="637"/></clipPath></defs><g clip-path="url(#clip0)" transform="translate(-527 -770)"><path d="M559.219 770.5 559.219 780.812 555.781 780.812 555.781 770.5ZM559.219 784.25 559.219 794.562 555.781 794.562 555.781 784.25ZM559.219 798 559.219 808.312 555.781 808.312 555.781 798ZM559.219 811.75 559.219 822.062 555.781 822.062 555.781 811.75ZM559.219 825.5 559.219 835.812 555.781 835.812 555.781 825.5ZM559.219 839.25 559.219 849.562 555.781 849.562 555.781 839.25ZM559.219 853 559.219 863.312 555.781 863.312 555.781 853ZM559.219 866.75 559.219 877.062 555.781 877.062 555.781 866.75ZM559.219 880.5 559.219 890.812 555.781 890.812 555.781 880.5ZM559.219 894.25 559.219 904.562 555.781 904.562 555.781 894.25ZM559.219 908 559.219 918.312 555.781 918.312 555.781 908ZM559.219 921.75 559.219 932.062 555.781 932.062 555.781 921.75ZM559.219 935.5 559.219 945.812 555.781 945.812 555.781 935.5ZM559.219 949.25 559.219 959.562 555.781 959.562 555.781 949.25ZM559.219 963 559.219 973.312 555.781 973.312 555.781 963ZM559.219 976.75 559.219 987.062 555.781 987.062 555.781 976.75ZM559.219 990.5 559.219 1000.81 555.781 1000.81 555.781 990.5ZM559.219 1004.25 559.219 1014.56 555.781 1014.56 555.781 1004.25ZM559.219 1018 559.219 1028.31 555.781 1028.31 555.781 1018ZM559.219 1031.75 559.219 1042.06 555.781 1042.06 555.781 1031.75ZM559.219 1045.5 559.219 1055.81 555.781 1055.81 555.781 1045.5ZM559.219 1059.25 559.219 1069.56 555.781 1069.56 555.781 1059.25ZM559.219 1073 559.219 1083.31 555.781 1083.31 555.781 1073ZM559.219 1086.75 559.219 1097.06 555.781 1097.06 555.781 1086.75ZM559.219 1100.5 559.219 1110.81 555.781 1110.81 555.781 1100.5ZM559.219 1114.25 559.219 1124.56 555.781 1124.56 555.781 1114.25ZM559.219 1128 559.219 1138.31 555.782 1138.31 555.781 1128ZM559.219 1141.75 559.219 1152.06 555.782 1152.06 555.782 1141.75ZM559.219 1155.5 559.219 1165.81 555.782 1165.81 555.782 1155.5ZM559.219 1169.25 559.219 1179.56 555.782 1179.56 555.782 1169.25ZM559.219 1183 559.219 1193.31 555.782 1193.31 555.782 1183ZM559.219 1196.75 559.219 1207.06 555.782 1207.06 555.782 1196.75ZM559.219 1210.5 559.219 1220.81 555.782 1220.81 555.782 1210.5ZM559.219 1224.25 559.219 1234.56 555.782 1234.56 555.782 1224.25ZM559.219 1238 559.219 1248.31 555.782 1248.31 555.782 1238ZM559.219 1251.75 559.219 1262.06 555.782 1262.06 555.782 1251.75ZM559.219 1265.5 559.219 1275.81 555.782 1275.81 555.782 1265.5ZM559.219 1279.25 559.219 1289.56 555.782 1289.56 555.782 1279.25ZM559.219 1293 559.219 1303.31 555.782 1303.31 555.782 1293ZM559.219 1306.75 559.219 1317.06 555.782 1317.06 555.782 1306.75ZM559.219 1320.5 559.219 1330.81 555.782 1330.81 555.782 1320.5ZM559.219 1334.25 559.219 1344.56 555.782 1344.56 555.782 1334.25ZM559.219 1348 559.219 1354.23 555.782 1354.23 555.782 1348ZM571.25 1349.64 557.5 1377.14 543.75 1349.64Z" fill="#4A7EBB" fill-rule="nonzero" fill-opacity="1"/></g></svg>