<?xml version="1.0" encoding="UTF-8" standalone="no"?>
<!-- Created with Inkscape (http://www.inkscape.org/) -->

<svg
   width="312mm"
   height="210mm"
   viewBox="0 0 312 210"
   version="1.1"
   id="svg7317"
   xml:space="preserve"
   inkscape:version="1.2.2 (b0a84865, 2022-12-01)"
   sodipodi:docname="timeline.svg"
   xmlns:inkscape="http://www.inkscape.org/namespaces/inkscape"
   xmlns:sodipodi="http://sodipodi.sourceforge.net/DTD/sodipodi-0.dtd"
   xmlns="http://www.w3.org/2000/svg"
   xmlns:svg="http://www.w3.org/2000/svg"><sodipodi:namedview
     id="namedview7319"
     pagecolor="#ffffff"
     bordercolor="#000000"
     borderopacity="0.25"
     inkscape:showpageshadow="2"
     inkscape:pageopacity="0.0"
     inkscape:pagecheckerboard="0"
     inkscape:deskcolor="#d1d1d1"
     inkscape:document-units="mm"
     showgrid="false"
     inkscape:zoom="1.1009198"
     inkscape:cx="394.21583"
     inkscape:cy="403.75331"
     inkscape:window-width="1488"
     inkscape:window-height="841"
     inkscape:window-x="0"
     inkscape:window-y="38"
     inkscape:window-maximized="0"
     inkscape:current-layer="layer1" /><defs
     id="defs7314"><rect
       x="29.88058"
       y="246.35935"
       width="176.85454"
       height="60.297744"
       id="rect7921" /><rect
       x="29.880581"
       y="246.35934"
       width="176.85454"
       height="60.297745"
       id="rect7921-8" /><rect
       x="29.880581"
       y="246.35934"
       width="176.85454"
       height="60.297745"
       id="rect7921-0" /><rect
       x="29.880581"
       y="246.35934"
       width="299.10765"
       height="53.667662"
       id="rect7921-0-4" /><rect
       x="29.880581"
       y="246.35934"
       width="299.10764"
       height="53.667664"
       id="rect7921-0-4-9" /><rect
       x="29.880581"
       y="246.35934"
       width="299.10764"
       height="53.667664"
       id="rect7921-0-4-4" /><rect
       x="29.880581"
       y="246.35934"
       width="299.10764"
       height="53.667664"
       id="rect7921-0-4-9-5" /><rect
       x="29.880581"
       y="246.35934"
       width="299.10764"
       height="53.667664"
       id="rect7921-0-4-4-1" /></defs><g
     inkscape:label="Layer 1"
     inkscape:groupmode="layer"
     id="layer1"><path
       d="m 0.47081786,101.65373 c -0.06106,-2.611941 2.78926504,-4.446472 5.29104104,-3.012877 0.82417,0.472294 1.52384,1.171804 2.27609,1.935777 0.0342,0.0348 0.05,0.0312 0.082,-10e-4 1.176681,-1.186138 2.8804011,-2.994792 5.2668371,-2.291137 1.00429,0.29614 1.70217,0.947719 2.05974,1.929587 1.196605,3.28603 -2.235875,6.00683 -5.179331,4.20317 -0.7423801,-0.45486 -1.3835101,-1.08251 -2.1413561,-1.85433 -0.04045,-0.0412 -0.0587,-0.0354 -0.09569,0.002 -0.86099,0.86825 -1.78777,1.81198 -2.93251,2.20702 -2.329446,0.80395 -4.56258604,-0.58415 -4.62677104,-3.11804 z m 1.45762504,-0.0506 c 0.07427,1.50879 1.23486,2.21215 2.471441,1.9447 1.068655,-0.23114 1.96516,-1.17103 2.72871,-1.95594 0.02575,-0.0264 0.0113,-0.0372 -0.0064,-0.0537 -0.6632,-0.61907 -1.31082,-1.37519 -2.127075,-1.764343 -1.581956,-0.754153 -3.072006,0.351853 -3.066711,1.829293 z m 12.3003881,-0.0638 c -0.047,-1.45811 -1.19738,-2.252713 -2.522956,-1.941783 -1.042955,0.244635 -1.9342251,1.180073 -2.6747001,1.940883 -0.0257,0.0264 -0.0158,0.0387 0.0053,0.0584 0.92583,0.86397 2.0183401,2.22815 3.4944101,1.9795 0.983231,-0.16561 1.700211,-1.02202 1.698011,-2.03696 z"
       id="path7438"
       style="stroke-width:0.00594855" /><path
       d="m 296.62295,101.65373 c -0.0611,-2.611939 2.78927,-4.446469 5.29104,-3.012879 0.82417,0.4723 1.52384,1.17181 2.27609,1.935779 0.0342,0.0348 0.05,0.0312 0.082,-10e-4 1.17668,-1.186139 2.8804,-2.994789 5.26684,-2.291139 1.00429,0.29614 1.70217,0.94772 2.05974,1.929589 1.1966,3.28603 -2.23588,6.00683 -5.17933,4.20317 -0.74238,-0.45486 -1.38351,-1.08251 -2.14136,-1.85433 -0.0404,-0.0412 -0.0587,-0.0354 -0.0957,0.002 -0.86099,0.86825 -1.78777,1.81198 -2.93251,2.20702 -2.32944,0.80395 -4.56258,-0.58415 -4.62677,-3.11804 z m 1.45763,-0.0506 c 0.0743,1.50879 1.23486,2.21215 2.47144,1.9447 1.06865,-0.23114 1.96516,-1.17103 2.72871,-1.95594 0.0258,-0.0264 0.0113,-0.0372 -0.006,-0.0537 -0.6632,-0.61907 -1.31082,-1.37519 -2.12708,-1.764339 -1.58195,-0.75416 -3.072,0.351849 -3.06671,1.829289 z m 12.30038,-0.0638 c -0.047,-1.45811 -1.19738,-2.252709 -2.52295,-1.941779 -1.04296,0.24463 -1.93423,1.180069 -2.6747,1.940879 -0.0257,0.0264 -0.0158,0.0387 0.005,0.0584 0.92583,0.86397 2.01834,2.22815 3.49441,1.9795 0.98323,-0.16561 1.70021,-1.02202 1.69801,-2.03696 z"
       id="path7438-8"
       style="stroke-width:0.00594855" /><path
       style="fill:#2b0000;stroke:#000000;stroke-width:0.349001"
       d="m 14.228896,101.53937 282.394044,0.11436"
       id="path7642" /><path
       style="fill:#2b0000;stroke:#000000;stroke-width:0.349001"
       d="M 8.0804039,85.421042 V 101.83059"
       id="path7644" /><path
       style="fill:#2b0000;stroke:#000000;stroke-width:0.349001"
       d="m 16.310172,92.9405 v 16.4096"
       id="path7644-8" /><path
       style="fill:#2b0000;stroke:#000000;stroke-width:0.349001"
       d="m 101.30696,93.39175 v 16.4096"
       id="path7644-8-97" /><path
       style="fill:#2b0000;stroke:#000000;stroke-width:0.349001"
       d="M 58.923096,92.940501 V 109.3501"
       id="path7644-8-97-2-1" /><path
       style="fill:#2b0000;stroke:#000000;stroke-width:0.349001"
       d="M 245.69188,93.448925 V 109.85853"
       id="path7644-8-97-2-1-8-7" /><path
       style="fill:#2b0000;stroke:#000000;stroke-width:0.349001"
       d="M 250.41924,93.475062 V 109.88463"
       id="path7644-8-97-2-1-8-7-4" /><path
       style="fill:#2b0000;stroke:#000000;stroke-width:0.349001"
       d="M 189.67965,93.391748 V 109.80135"
       id="path7644-8-97-2-1-8-1" /><path
       style="fill:#2b0000;stroke:#000000;stroke-width:0.349001"
       d="M 296.62294,93.448928 V 109.85853"
       id="path7644-8-9" /><path
       style="fill:#2b0000;stroke:#000000;stroke-width:0.349001"
       d="M 304.3566,82.858526 V 99.268074"
       id="path7644-1" /><text
       xml:space="preserve"
       transform="matrix(0.00289227,-0.26456752,0.26456752,0.00289227,-60.130808,91.249998)"
       id="text7919"
       style="font-style:normal;font-variant:normal;font-weight:normal;font-stretch:normal;font-size:30.4001px;line-height:0.8;font-family:'Arial Narrow';-inkscape-font-specification:'Arial Narrow, Normal';font-variant-ligatures:normal;font-variant-caps:normal;font-variant-numeric:normal;font-variant-east-asian:normal;text-align:center;white-space:pre;shape-inside:url(#rect7921);display:inline;fill:#2b0000;stroke:#000000;stroke-width:1.31906"><tspan
         x="70.480896"
         y="266.90238"
         id="tspan8698">Juan 1:1</tspan></text><text
       xml:space="preserve"
       transform="matrix(0.00289227,-0.26456752,0.26456752,0.00289227,-51.90104,102.39975)"
       id="text7919-5"
       style="font-size:30.4001px;line-height:0.8;font-family:'Arial Black';-inkscape-font-specification:'Arial Black, Normal';text-align:center;white-space:pre;shape-inside:url(#rect7921-0);display:inline;fill:#2b0000;stroke:#000000;stroke-width:1.31906"><tspan
         x="43.739792"
         y="266.77544"
         id="tspan8700">Creación</tspan></text><text
       xml:space="preserve"
       transform="matrix(0.00289227,-0.26456752,0.26456752,0.00289227,228.43554,102.39975)"
       id="text7919-5-6"
       style="font-style:normal;font-variant:normal;font-weight:normal;font-stretch:normal;font-size:30.4001px;line-height:0.8;font-family:Arial;-inkscape-font-specification:'Arial, Normal';font-variant-ligatures:normal;font-variant-caps:normal;font-variant-numeric:normal;font-variant-east-asian:normal;text-align:center;white-space:pre;shape-inside:url(#rect7921-0-4);display:inline;fill:#2b0000;stroke:#000000;stroke-width:1.31906"><tspan
         x="70.443975"
         y="266.90238"
         id="tspan8702">Nueva Creación</tspan></text><text
       xml:space="preserve"
       transform="matrix(0.26456752,0.00289227,-0.00289227,0.26456752,226.64794,28.38093)"
       id="text7919-5-6-3"
       style="font-style:normal;font-variant:normal;font-weight:normal;font-stretch:normal;font-size:30.4001px;line-height:0.8;font-family:Arial;-inkscape-font-specification:'Arial, Normal';font-variant-ligatures:normal;font-variant-caps:normal;font-variant-numeric:normal;font-variant-east-asian:normal;text-align:center;white-space:pre;shape-inside:url(#rect7921-0-4-9);display:inline;fill:#2b0000;stroke:#000000;stroke-width:1.31906"><tspan
         x="131.28129"
         y="266.90238"
         id="tspan8704">Milenio</tspan></text><text
       xml:space="preserve"
       transform="matrix(0.00289227,-0.26456752,0.26456752,0.00289227,181.28368,137.32497)"
       id="text7919-5-6-3-7"
       style="font-style:normal;font-variant:normal;font-weight:normal;font-stretch:normal;font-size:13.3333px;line-height:0.8;font-family:Avenir;-inkscape-font-specification:'Avenir, Normal';font-variant-ligatures:normal;font-variant-caps:normal;font-variant-numeric:normal;font-variant-east-asian:normal;text-align:center;white-space:pre;shape-inside:url(#rect7921-0-4-9-5);display:inline;fill:#2b0000;stroke:#000000;stroke-width:1.31906"><tspan
         x="147.09472"
         y="255.08891"
         id="tspan8706">Tribulación</tspan></text><text
       xml:space="preserve"
       transform="matrix(0.26454935,0.00423989,-0.00423989,0.26454935,171.10973,27.477123)"
       id="text7919-5-6-0"
       style="font-style:normal;font-variant:normal;font-weight:normal;font-stretch:normal;font-size:30.4001px;line-height:0.8;font-family:Arial;-inkscape-font-specification:'Arial, Normal';font-variant-ligatures:normal;font-variant-caps:normal;font-variant-numeric:normal;font-variant-east-asian:normal;text-align:center;white-space:pre;shape-inside:url(#rect7921-0-4-4);display:inline;fill:#2b0000;stroke:#000000;stroke-width:1.31906"><tspan
         x="135.49692"
         y="266.90238"
         id="tspan8708">Iglesia</tspan></text><text
       xml:space="preserve"
       transform="matrix(0.26454935,0.00423989,-0.00423989,0.26454935,95.56976,28.611194)"
       id="text7919-5-6-0-9"
       style="font-style:normal;font-variant:normal;font-weight:normal;font-stretch:normal;font-size:30.4001px;line-height:0.8;font-family:Arial;-inkscape-font-specification:'Arial, Normal';font-variant-ligatures:normal;font-variant-caps:normal;font-variant-numeric:normal;font-variant-east-asian:normal;text-align:center;white-space:pre;shape-inside:url(#rect7921-0-4-4-1);display:inline;fill:#2b0000;stroke:#000000;stroke-width:1.31906"><tspan
         x="142.2657"
         y="266.90238"
         id="tspan8710">Israel</tspan></text><text
       xml:space="preserve"
       transform="matrix(0.00289227,-0.26456752,0.26456752,0.00289227,236.19582,91.249998)"
       id="text7919-3"
       style="font-style:normal;font-variant:normal;font-weight:normal;font-stretch:normal;font-size:30.4001px;line-height:0.8;font-family:Arial;-inkscape-font-specification:'Arial, Normal';font-variant-ligatures:normal;font-variant-caps:normal;font-variant-numeric:normal;font-variant-east-asian:normal;text-align:center;white-space:pre;shape-inside:url(#rect7921-8);display:inline;fill:#2b0000;stroke:#000000;stroke-width:1.31906"><tspan
         x="48.163244"
         y="266.90238"
         id="tspan8712">Apo 21-22</tspan></text><text
       xml:space="preserve"
       style="font-style:normal;font-variant:normal;font-weight:normal;font-stretch:normal;font-size:8.04336px;line-height:0.8;font-family:'Al Bayan';-inkscape-font-specification:'Al Bayan, Normal';font-variant-ligatures:normal;font-variant-caps:normal;font-variant-numeric:normal;font-variant-east-asian:normal;text-align:center;text-anchor:middle;fill:#2b0000;stroke:#000000;stroke-width:0.349001"
       x="-126.40354"
       y="16.63286"
       id="text8189"
       transform="rotate(-91.26884)"><tspan
         sodipodi:role="line"
         id="tspan8187"
         style="font-style:normal;font-variant:normal;font-weight:normal;font-stretch:normal;font-size:8.04336px;font-family:'Al Bayan';-inkscape-font-specification:'Al Bayan, Normal';font-variant-ligatures:normal;font-variant-caps:normal;font-variant-numeric:normal;font-variant-east-asian:normal;stroke-width:0.349"
         x="-126.40354"
         y="16.63286">4000a.C.</tspan></text><text
       xml:space="preserve"
       style="font-style:normal;font-variant:normal;font-weight:normal;font-stretch:normal;font-size:8.04336px;line-height:0.8;font-family:'Al Bayan';-inkscape-font-specification:'Al Bayan, Normal';font-variant-ligatures:normal;font-variant-caps:normal;font-variant-numeric:normal;font-variant-east-asian:normal;text-align:center;text-anchor:middle;fill:#2b0000;stroke:#000000;stroke-width:0.349001"
       x="-128.28568"
       y="101.60881"
       id="text8189-3"
       transform="rotate(-91.26884)"><tspan
         sodipodi:role="line"
         id="tspan8187-7"
         style="font-style:normal;font-variant:normal;font-weight:normal;font-stretch:normal;font-size:8.04336px;font-family:'Al Bayan';-inkscape-font-specification:'Al Bayan, Normal';font-variant-ligatures:normal;font-variant-caps:normal;font-variant-numeric:normal;font-variant-east-asian:normal;stroke-width:0.349"
         x="-128.28568"
         y="101.60881">2000a.C.</tspan></text><g
       id="g8252"><rect
         style="fill:#2b0000;stroke:#000000;stroke-width:0.349001"
         id="rect8246"
         width="3.1907554"
         height="32.767395"
         x="182.78471"
         y="68.829155" /><rect
         style="fill:#2b0000;stroke:#000000;stroke-width:0.349001"
         id="rect8248"
         width="24.158579"
         height="3.4292815"
         x="172.3008"
         y="75.326843" /></g></g></svg>
