<?xml version="1.0" encoding="UTF-8" standalone="no"?>
<svg
   width="1296.283"
   height="934.98877"
   overflow="hidden"
   version="1.1"
   id="svg87"
   sodipodi:docname="trinidad.svg"
   viewBox="0 0 3240.7074 2337.4719"
   inkscape:version="1.2.2 (732a01da63, 2022-12-09)"
   xmlns:inkscape="http://www.inkscape.org/namespaces/inkscape"
   xmlns:sodipodi="http://sodipodi.sourceforge.net/DTD/sodipodi-0.dtd"
   xmlns="http://www.w3.org/2000/svg"
   xmlns:svg="http://www.w3.org/2000/svg">
  <sodipodi:namedview
     id="namedview89"
     pagecolor="#505050"
     bordercolor="#eeeeee"
     borderopacity="1"
     inkscape:showpageshadow="0"
     inkscape:pageopacity="0"
     inkscape:pagecheckerboard="0"
     inkscape:deskcolor="#505050"
     showgrid="false"
     inkscape:zoom="0.64577549"
     inkscape:cx="407.26228"
     inkscape:cy="452.94379"
     inkscape:window-width="1920"
     inkscape:window-height="1001"
     inkscape:window-x="-9"
     inkscape:window-y="-9"
     inkscape:window-maximized="1"
     inkscape:current-layer="svg87" />
  <defs
     id="defs5">
    <clipPath
       clipPathUnits="userSpaceOnUse"
       id="clipPath969">
      <g
         id="g973">
        <rect
           x="0"
           y="0"
           width="3393"
           height="2521"
           id="rect971" />
      </g>
    </clipPath>
    <clipPath
       clipPathUnits="userSpaceOnUse"
       id="clipPath975">
      <g
         id="g979">
        <rect
           x="0"
           y="0"
           width="3393"
           height="2521"
           id="rect977" />
      </g>
    </clipPath>
    <clipPath
       clipPathUnits="userSpaceOnUse"
       id="clipPath981">
      <g
         id="g985">
        <rect
           x="0"
           y="0"
           width="3393"
           height="2521"
           id="rect983" />
      </g>
    </clipPath>
    <clipPath
       clipPathUnits="userSpaceOnUse"
       id="clipPath987">
      <g
         id="g991">
        <rect
           x="0"
           y="0"
           width="3393"
           height="2521"
           id="rect989" />
      </g>
    </clipPath>
    <clipPath
       clipPathUnits="userSpaceOnUse"
       id="clipPath993">
      <g
         id="g997">
        <rect
           x="0"
           y="0"
           width="3393"
           height="2521"
           id="rect995" />
      </g>
    </clipPath>
  </defs>
  <path
     d="m 531.5,2163.5 1165,-1622 1145,1622 z"
     stroke="#ffff00"
     stroke-width="20.625"
     stroke-linejoin="round"
     stroke-miterlimit="10"
     fill="none"
     fill-rule="evenodd"
     id="path7"
     clip-path="url(#clipPath993)"
     transform="translate(-73.105019,-77.028)"
     style="display:inline"
     class="fragment"
     data-fragment-index="3" />
  <text
     fill="#ffff00"
     font-family="'Times New Roman', 'Times New Roman_MSFontService', sans-serif"
     font-weight="700"
     font-size="165px"
     id="text29"
     x="1394.355"
     y="260.97198"
     style="display:inline"
     class="fragment"
     data-fragment-index="4">Padre<tspan
   font-style="italic"
   font-weight="400"
   font-size="128px"
   x="1400.6112"
   y="423.97198"
   id="tspan13">Efe. 1:3</tspan><tspan
   font-size="165px"
   x="171.08496"
   y="2048.9719"
   id="tspan15">Hijo</tspan><tspan
   font-style="italic"
   font-weight="400"
   font-size="128px"
   x="4.375"
   y="2211.9719"
   id="tspan17">Juan 1:1, 14</tspan><tspan
   font-size="165px"
   x="2606.345"
   y="1974.972"
   id="tspan19">Espíritu</tspan><tspan
   font-size="165px"
   x="2693.4351"
   y="2172.9719"
   id="tspan21">Santo</tspan><tspan
   font-style="italic"
   font-weight="400"
   font-size="128px"
   x="2547.615"
   y="2335.9719"
   id="tspan23">Hechos 5:3</tspan><tspan
   font-style="italic"
   font-weight="400"
   font-size="128px"
   x="3135.425"
   y="2335.9719"
   id="tspan25">-</tspan><tspan
   font-style="italic"
   font-weight="400"
   font-size="128px"
   x="3178.395"
   y="2335.9719"
   id="tspan27">4</tspan></text>
  <g
     id="g1017"
     style="display:inline"
     class="fragment"
     data-fragment-index="5">
    <text
       fill="#ffff00"
       font-family="'Times New Roman', 'Times New Roman_MSFontService', sans-serif"
       font-style="italic"
       font-weight="400"
       font-size="165px"
       transform="rotate(54.322445)"
       id="text35"
       x="1986.2163"
       y="-1142.7112"
       style="display:inline">Co<tspan
   font-size="165px"
   x="2179.2283"
   y="-1142.3438"
   id="tspan31">-</tspan><tspan
   font-size="165px"
   x="2233.6782"
   y="-1142.7388"
   id="tspan33">igual</tspan></text>
    <text
       fill="#ffff00"
       font-family="'Times New Roman', 'Times New Roman_MSFontService', sans-serif"
       font-style="italic"
       font-weight="400"
       font-size="165px"
       id="text41"
       x="1260.895"
       y="2233.9719"
       style="display:inline">co<tspan
   font-size="165px"
   x="1416.728"
   y="2233.9719"
   id="tspan37">-</tspan><tspan
   font-size="165px"
   x="1471.728"
   y="2233.9719"
   id="tspan39">eterno</tspan></text>
    <text
       fill="#ffff00"
       font-family="'Times New Roman', 'Times New Roman_MSFontService', sans-serif"
       font-style="italic"
       font-weight="400"
       font-size="165px"
       transform="rotate(-52.656376)"
       id="text47"
       x="-699.70288"
       y="1514.5216"
       style="display:inline">co<tspan
   font-size="165px"
   x="-543.78186"
   y="1514.4545"
   id="tspan43">-</tspan><tspan
   font-size="165px"
   x="-488.56387"
   y="1514.2881"
   id="tspan45">infinito</tspan></text>
  </g>
  <text
     fill="#ffff00"
     font-family="'Times New Roman', 'Times New Roman_MSFontService', sans-serif"
     font-weight="400"
     font-size="165px"
     id="text61"
     x="1430.1951"
     y="855.97198"
     style="display:inline"
     class="fragment"
     data-fragment-index="6">Amor<tspan
   font-size="165px"
   x="1255.455"
   y="1053.972"
   id="tspan49">+J Justicia</tspan><tspan
   font-size="165px"
   x="1311.0281"
   y="1251.972"
   id="tspan51">Soberano</tspan><tspan
   font-size="165px"
   x="1402.6951"
   y="1449.972"
   id="tspan53">Eterno</tspan><tspan
   font-size="165px"
   x="916.83893"
   y="1647.972"
   id="tspan55">Veracidad Inmutable</tspan><tspan
   font-size="165px"
   x="733.52795"
   y="1845.972"
   id="tspan57">Omnisciente Omnipotente</tspan><tspan
   font-size="165px"
   x="1159.7781"
   y="2043.972"
   id="tspan59">Omnipresente</tspan></text>
  <g
     id="g1006"
     style="display:inline"
     transform="translate(-73.105019,-42.028)"
     class="fragment"
     data-fragment-index="1">
    <path
       d="m 775.808,179.341 c -8.666,5.084 -15.111,10.527 -19.336,16.328 -2.793,3.867 -4.19,7.77 -4.19,11.709 0,3.294 1.182,6.195 3.545,8.701 1.79,1.934 4.297,2.9 7.52,2.9 3.58,0 7.734,-2.005 12.461,-6.015 z m 102.695,-36.524 c -2.65,0 -4.834,0.716 -6.553,2.149 -2.65,2.22 -4.816,6.123 -6.499,11.709 -1.683,5.586 -2.524,14.144 -2.524,25.674 0,12.675 0.931,22.057 2.793,28.144 1.862,6.087 4.404,10.492 7.627,13.213 1.647,1.361 3.903,2.041 6.767,2.041 6.302,0 12.246,-4.941 17.832,-14.824 v -52.852 c -5.299,-10.169 -11.78,-15.254 -19.443,-15.254 z m -233,0 c -2.65,0 -4.834,0.716 -6.553,2.149 -2.65,2.22 -4.816,6.123 -6.499,11.709 -1.683,5.586 -2.524,14.144 -2.524,25.674 0,12.675 0.931,22.057 2.793,28.144 1.862,6.087 4.404,10.492 7.627,13.213 1.647,1.361 3.903,2.041 6.767,2.041 6.302,0 12.246,-4.941 17.832,-14.824 v -52.852 c -5.299,-10.169 -11.78,-15.254 -19.443,-15.254 z M 533.478,135.19 h 42.109 v 79.6 c 0,7.09 0.823,11.619 2.471,13.589 1.647,1.969 4.869,3.097 9.668,3.384 v 3.867 h -54.248 v -3.867 c 4.44,-0.144 7.734,-1.433 9.882,-3.868 1.433,-1.647 2.149,-6.015 2.149,-13.105 v -58.652 c 0,-7.09 -0.824,-11.62 -2.471,-13.589 -1.647,-1.97 -4.834,-3.098 -9.56,-3.384 z m -184,0 h 42.109 v 79.6 c 0,7.09 0.823,11.619 2.471,13.589 1.647,1.969 4.869,3.097 9.668,3.384 v 3.867 h -54.248 v -3.867 c 4.44,-0.144 7.734,-1.433 9.882,-3.868 1.433,-1.647 2.149,-6.015 2.149,-13.105 v -58.652 c 0,-7.09 -0.824,-11.62 -2.471,-13.589 -1.647,-1.97 -4.834,-3.098 -9.56,-3.384 z m 421.388,-3.007 c 9.525,0 17.062,2.023 22.612,6.069 5.551,4.046 9.149,8.433 10.796,13.159 1.003,3.008 1.504,9.919 1.504,20.732 v 38.995 c 0,4.583 0.179,7.465 0.537,8.647 0.358,1.182 0.896,2.059 1.612,2.632 0.716,0.573 1.539,0.859 2.47,0.859 1.862,0 3.76,-1.325 5.694,-3.974 l 3.222,2.578 c -3.58,5.299 -7.286,9.149 -11.118,11.548 -3.831,2.399 -8.182,3.598 -13.052,3.598 -5.729,0 -10.205,-1.342 -13.427,-4.028 -3.223,-2.686 -5.192,-6.75 -5.908,-12.192 -12.247,10.813 -23.239,16.22 -32.979,16.22 -5.729,0 -10.492,-1.88 -14.287,-5.639 -3.796,-3.76 -5.693,-8.469 -5.693,-14.126 0,-7.663 3.294,-14.556 9.882,-20.679 6.589,-6.123 20.948,-14.269 43.077,-24.439 v -10.097 c 0,-7.591 -0.412,-12.372 -1.236,-14.341 -0.823,-1.969 -2.381,-3.688 -4.673,-5.156 -2.291,-1.468 -4.869,-2.202 -7.734,-2.202 -4.655,0 -8.486,1.038 -11.494,3.115 -1.862,1.289 -2.793,2.793 -2.793,4.512 0,1.503 1.002,3.365 3.008,5.586 2.721,3.079 4.082,6.051 4.082,8.916 0,3.509 -1.307,6.499 -3.921,8.969 -2.614,2.471 -6.034,3.706 -10.259,3.706 -4.512,0 -8.289,-1.36 -11.333,-4.082 -3.044,-2.721 -4.565,-5.908 -4.565,-9.56 0,-5.157 2.041,-10.08 6.123,-14.771 4.082,-4.691 9.775,-8.289 17.08,-10.796 7.304,-2.506 14.896,-3.759 22.773,-3.759 z m -286.375,0 c 6.517,0 11.924,1.808 16.221,5.424 4.297,3.617 7.161,8.111 8.594,13.482 1.146,4.082 1.718,11.924 1.718,23.525 v 39.102 c 0,7.734 0.699,12.55 2.095,14.448 1.397,1.898 4.315,3.097 8.755,3.599 v 3.867 h -50.81 v -3.867 c 3.795,-0.502 6.516,-2.077 8.164,-4.727 1.145,-1.79 1.718,-6.23 1.718,-13.32 v -44.688 c 0,-8.235 -0.322,-13.427 -0.967,-15.576 -0.644,-2.148 -1.736,-3.813 -3.276,-4.995 -1.54,-1.182 -3.24,-1.772 -5.102,-1.772 -6.159,0 -11.888,4.404 -17.188,13.212 v 53.819 c 0,7.519 0.698,12.282 2.095,14.287 1.396,2.005 3.992,3.258 7.788,3.76 v 3.867 h -50.811 v -3.867 c 4.226,-0.43 7.233,-1.791 9.024,-4.082 1.217,-1.576 1.826,-6.231 1.826,-13.965 v -56.719 c 0,-7.591 -0.698,-12.318 -2.095,-14.18 -1.396,-1.862 -4.315,-3.079 -8.755,-3.652 v -3.975 h 40.928 v 12.998 c 5.156,-5.586 10.098,-9.65 14.824,-12.192 4.727,-2.542 9.811,-3.813 15.254,-3.813 z m -156.422,0 c 4.011,0 7.216,1.235 9.615,3.706 2.399,2.47 3.598,5.962 3.598,10.473 0,4.798 -1.164,8.522 -3.491,11.172 -2.327,2.65 -5.138,3.975 -8.433,3.975 -3.795,0 -7.089,-1.218 -9.882,-3.653 -2.793,-2.435 -4.44,-3.795 -4.942,-4.082 -0.716,-0.429 -1.539,-0.644 -2.47,-0.644 -2.077,0 -4.047,0.788 -5.909,2.363 -2.936,2.435 -5.156,5.908 -6.66,10.42 -2.292,6.947 -3.437,14.609 -3.437,22.988 v 23.096 l 0.107,6.016 c 0,4.082 0.251,6.696 0.752,7.841 0.859,1.934 2.131,3.348 3.813,4.244 1.683,0.895 4.53,1.45 8.541,1.665 v 3.867 h -54.249 v -3.867 c 4.369,-0.358 7.323,-1.558 8.863,-3.599 1.539,-2.041 2.309,-7.43 2.309,-16.167 V 156.46 c 0,-5.729 -0.286,-9.382 -0.859,-10.957 -0.716,-2.005 -1.755,-3.473 -3.115,-4.404 -1.361,-0.931 -3.76,-1.576 -7.198,-1.934 v -3.975 h 41.036 v 22.774 c 6.66,-10.384 12.496,-17.277 17.509,-20.679 5.013,-3.402 9.847,-5.102 14.502,-5.102 z M 883.444,89.966 h 44.58 v 115.586 c 0,7.806 0.215,12.425 0.645,13.857 0.573,2.363 1.665,4.118 3.276,5.264 1.612,1.146 4.422,1.862 8.433,2.148 v 3.545 l -42.432,8.272 v -15.899 c -5.084,6.159 -9.614,10.348 -13.589,12.569 -3.974,2.22 -8.468,3.33 -13.481,3.33 -12.819,0 -22.953,-5.73 -30.4,-17.188 -6.016,-9.31 -9.024,-20.732 -9.024,-34.267 0,-10.814 1.862,-20.5 5.586,-29.058 3.724,-8.558 8.827,-15.021 15.308,-19.39 6.481,-4.368 13.445,-6.552 20.893,-6.552 4.798,0 9.059,0.931 12.783,2.793 3.724,1.862 7.699,5.12 11.924,9.775 v -30.293 c 0,-7.663 -0.322,-12.282 -0.967,-13.857 -0.859,-2.077 -2.148,-3.617 -3.867,-4.62 -1.719,-1.002 -4.941,-1.504 -9.668,-1.504 z m -233,0 h 44.58 v 115.586 c 0,7.806 0.215,12.425 0.645,13.857 0.573,2.363 1.665,4.118 3.276,5.264 1.612,1.146 4.422,1.862 8.433,2.148 v 3.545 l -42.432,8.272 v -15.899 c -5.084,6.159 -9.614,10.348 -13.589,12.569 -3.974,2.22 -8.468,3.33 -13.481,3.33 -12.819,0 -22.953,-5.73 -30.4,-17.188 -6.016,-9.31 -9.024,-20.732 -9.024,-34.267 0,-10.814 1.862,-20.5 5.586,-29.058 3.724,-8.558 8.827,-15.021 15.308,-19.39 6.481,-4.368 13.445,-6.552 20.893,-6.552 4.798,0 9.059,0.931 12.783,2.793 3.724,1.862 7.699,5.12 11.924,9.775 v -30.293 c 0,-7.663 -0.322,-12.282 -0.967,-13.857 -0.859,-2.077 -2.148,-3.617 -3.867,-4.62 -1.719,-1.002 -4.941,-1.504 -9.668,-1.504 z m -525.5289,0 H 255.755 v 39.424 h -3.867 c -2.292,-9.095 -4.834,-15.63 -7.627,-19.605 -2.793,-3.974 -6.625,-7.143 -11.494,-9.507 -2.722,-1.289 -7.484,-1.933 -14.287,-1.933 h -10.85 v 112.363 c 0,7.448 0.412,12.103 1.235,13.965 0.824,1.862 2.435,3.491 4.834,4.887 2.399,1.397 5.676,2.095 9.829,2.095 h 4.834 v 3.975 h -76.269 v -3.975 h 4.834 c 4.225,0 7.627,-0.752 10.205,-2.256 1.862,-1.002 3.33,-2.721 4.404,-5.156 0.788,-1.719 1.182,-6.23 1.182,-13.535 V 98.345 H 162.19 c -9.811,0 -16.936,2.077 -21.376,6.23 -6.231,5.801 -10.1698,14.072 -11.8169,24.815 h -4.082 z M 560.548,86.528 c 4.655,0 8.594,1.63 11.816,4.888 3.223,3.258 4.834,7.179 4.834,11.763 0,4.583 -1.629,8.486 -4.888,11.709 -3.258,3.222 -7.179,4.834 -11.762,4.834 -4.584,0 -8.486,-1.612 -11.709,-4.834 -3.223,-3.223 -4.834,-7.126 -4.834,-11.709 0,-4.584 1.611,-8.505 4.834,-11.763 3.223,-3.258 7.125,-4.888 11.709,-4.888 z m -184,0 c 4.655,0 8.594,1.63 11.816,4.888 3.223,3.258 4.834,7.179 4.834,11.763 0,4.583 -1.629,8.486 -4.887,11.709 -3.259,3.222 -7.18,4.834 -11.763,4.834 -4.583,0 -8.486,-1.612 -11.709,-4.834 -3.223,-3.223 -4.834,-7.126 -4.834,-11.709 0,-4.584 1.611,-8.505 4.834,-11.763 3.223,-3.258 7.126,-4.888 11.709,-4.888 z"
       stroke="#4579b8"
       stroke-width="4"
       stroke-linejoin="round"
       stroke-miterlimit="10"
       fill="#ffff00"
       fill-rule="evenodd"
       id="path9"
       clip-path="url(#clipPath987)" />
    <path
       d="m 2446.51,127.69 h 42.11 v 79.6 c 0,7.09 0.82,11.619 2.47,13.589 1.65,1.969 4.87,3.097 9.67,3.384 v 3.867 h -54.25 v -3.867 c 4.44,-0.144 7.74,-1.433 9.88,-3.868 1.44,-1.647 2.15,-6.015 2.15,-13.105 v -58.652 c 0,-7.09 -0.82,-11.62 -2.47,-13.589 -1.65,-1.97 -4.83,-3.098 -9.56,-3.384 z m -21.41,-3.008 c 4.01,0 7.22,1.236 9.62,3.707 2.4,2.47 3.6,5.961 3.6,10.473 0,4.798 -1.17,8.522 -3.5,11.172 -2.32,2.65 -5.13,3.975 -8.43,3.975 -3.79,0 -7.09,-1.218 -9.88,-3.653 -2.79,-2.435 -4.44,-3.795 -4.94,-4.082 -0.72,-0.429 -1.54,-0.644 -2.47,-0.644 -2.08,0 -4.05,0.788 -5.91,2.363 -2.94,2.435 -5.16,5.908 -6.66,10.42 -2.29,6.947 -3.44,14.609 -3.44,22.988 v 23.096 l 0.11,6.016 c 0,4.082 0.25,6.696 0.75,7.841 0.86,1.934 2.13,3.348 3.81,4.244 1.69,0.895 4.53,1.45 8.54,1.665 v 3.867 h -54.24 v -3.867 c 4.36,-0.358 7.32,-1.558 8.86,-3.599 1.54,-2.041 2.31,-7.43 2.31,-16.167 V 148.96 c 0,-5.729 -0.29,-9.382 -0.86,-10.957 -0.72,-2.005 -1.76,-3.473 -3.12,-4.404 -1.36,-0.931 -3.76,-1.576 -7.19,-1.934 v -3.975 h 41.03 v 22.774 c 6.66,-10.384 12.5,-17.277 17.51,-20.679 5.01,-3.402 9.85,-5.103 14.5,-5.103 z M 2221.95,82.466 h 130.84 v 39.424 h -3.87 c -2.29,-9.096 -4.83,-15.63 -7.63,-19.605 -2.79,-3.975 -6.62,-7.144 -11.49,-9.507 -2.72,-1.289 -7.48,-1.933 -14.29,-1.933 h -10.85 v 112.363 c 0,7.448 0.42,12.103 1.24,13.965 0.82,1.862 2.43,3.491 4.83,4.887 2.4,1.397 5.68,2.095 9.83,2.095 h 4.84 v 3.975 h -76.27 v -3.975 h 4.83 c 4.23,0 7.63,-0.752 10.21,-2.256 1.86,-1.002 3.33,-2.721 4.4,-5.156 0.79,-1.719 1.18,-6.23 1.18,-13.535 V 90.845 h -10.53 c -9.81,0 -16.93,2.076 -21.37,6.23 -6.23,5.801 -10.17,14.072 -11.82,24.815 h -4.08 z m 251.63,-3.438 c 4.66,0 8.6,1.629 11.82,4.888 3.22,3.258 4.83,7.179 4.83,11.763 0,4.583 -1.63,8.486 -4.89,11.709 -3.25,3.222 -7.17,4.834 -11.76,4.834 -4.58,0 -8.48,-1.612 -11.71,-4.834 -3.22,-3.223 -4.83,-7.126 -4.83,-11.709 0,-4.584 1.61,-8.505 4.83,-11.763 3.23,-3.259 7.13,-4.888 11.71,-4.888 z"
       stroke="#4579b8"
       stroke-width="4"
       stroke-linejoin="round"
       stroke-miterlimit="10"
       fill="#ffff00"
       fill-rule="evenodd"
       id="path63"
       clip-path="url(#clipPath981)" />
    <text
       fill="#000000"
       fill-opacity="0"
       font-family="Arial, Arial_MSFontService, sans-serif"
       font-size="149.102px"
       x="2221.95"
       y="209.492"
       id="text65">Tri</text>
    <path
       d="m 2508.4,166.47 h 62.62 v 22.236 h -62.62 z"
       stroke="#4579b8"
       stroke-width="4"
       stroke-linejoin="round"
       stroke-miterlimit="10"
       fill="#ffff00"
       fill-rule="evenodd"
       id="path67"
       clip-path="url(#clipPath975)" />
    <text
       fill="#000000"
       fill-opacity="0"
       font-family="Arial, Arial_MSFontService, sans-serif"
       font-size="22.2363px"
       x="2508.3999"
       y="185.92599"
       id="text69">-</text>
    <path
       d="m 3068.2,171.841 c -8.67,5.084 -15.11,10.527 -19.34,16.328 -2.79,3.867 -4.19,7.77 -4.19,11.709 0,3.294 1.19,6.194 3.55,8.701 1.79,1.934 4.3,2.9 7.52,2.9 3.58,0 7.73,-2.005 12.46,-6.015 z m 102.7,-36.524 c -2.65,0 -4.84,0.716 -6.56,2.149 -2.65,2.22 -4.81,6.123 -6.5,11.709 -1.68,5.586 -2.52,14.144 -2.52,25.674 0,12.675 0.93,22.057 2.79,28.144 1.86,6.087 4.41,10.492 7.63,13.213 1.65,1.361 3.9,2.041 6.77,2.041 6.3,0 12.24,-4.941 17.83,-14.824 v -52.852 c -5.3,-10.169 -11.78,-15.254 -19.44,-15.254 z m -232,0 c -2.65,0 -4.84,0.716 -6.56,2.149 -2.65,2.22 -4.81,6.123 -6.5,11.709 -1.68,5.586 -2.52,14.144 -2.52,25.674 0,12.675 0.93,22.057 2.79,28.144 1.86,6.087 4.41,10.492 7.63,13.213 1.65,1.361 3.9,2.041 6.77,2.041 6.3,0 12.24,-4.941 17.83,-14.824 v -52.852 c -5.3,-10.169 -11.78,-15.254 -19.44,-15.254 z m -113.03,-7.627 h 42.11 v 79.6 c 0,7.09 0.82,11.619 2.47,13.589 1.65,1.969 4.87,3.097 9.67,3.384 v 3.867 h -54.25 v -3.867 c 4.44,-0.144 7.73,-1.433 9.88,-3.868 1.44,-1.647 2.15,-6.015 2.15,-13.105 v -58.652 c 0,-7.09 -0.82,-11.62 -2.47,-13.589 -1.65,-1.97 -4.83,-3.098 -9.56,-3.384 z m -242.74,0 h 40.92 v 68.643 c 0,7.161 0.34,11.78 1.02,13.857 0.68,2.077 1.76,3.653 3.23,4.727 1.46,1.074 3.17,1.611 5.1,1.611 2.58,0 4.9,-0.68 6.98,-2.041 2.87,-1.862 6.3,-5.622 10.31,-11.279 v -53.711 c 0,-7.591 -0.69,-12.318 -2.09,-14.18 -1.4,-1.862 -4.32,-3.079 -8.76,-3.652 v -3.975 h 40.93 v 78.633 c 0,7.663 0.72,12.443 2.15,14.341 1.43,1.898 4.33,3.097 8.7,3.599 v 3.867 h -40.93 v -13.428 c -4.79,5.729 -9.59,9.901 -14.39,12.515 -4.8,2.614 -10.17,3.921 -16.11,3.921 -5.66,0 -10.69,-1.737 -15.1,-5.21 -4.4,-3.474 -7.35,-7.538 -8.86,-12.193 -1.5,-4.655 -2.25,-12.783 -2.25,-24.385 v -39.853 c 0,-7.591 -0.7,-12.318 -2.1,-14.18 -1.4,-1.862 -4.31,-3.079 -8.75,-3.652 z m 480.13,-3.008 c 9.52,0 17.06,2.024 22.61,6.07 5.55,4.046 9.15,8.432 10.8,13.159 1,3.008 1.5,9.919 1.5,20.732 v 38.995 c 0,4.583 0.18,7.465 0.54,8.647 0.36,1.182 0.89,2.059 1.61,2.632 0.72,0.573 1.54,0.859 2.47,0.859 1.86,0 3.76,-1.325 5.69,-3.974 l 3.23,2.578 c -3.59,5.299 -7.29,9.149 -11.12,11.548 -3.83,2.399 -8.18,3.598 -13.05,3.598 -5.73,0 -10.21,-1.343 -13.43,-4.028 -3.22,-2.686 -5.19,-6.75 -5.91,-12.192 -12.25,10.813 -23.24,16.22 -32.98,16.22 -5.73,0 -10.49,-1.88 -14.29,-5.639 -3.79,-3.76 -5.69,-8.469 -5.69,-14.126 0,-7.663 3.3,-14.556 9.88,-20.679 6.59,-6.123 20.95,-14.269 43.08,-24.439 v -10.097 c 0,-7.591 -0.41,-12.372 -1.24,-14.341 -0.82,-1.969 -2.38,-3.688 -4.67,-5.156 -2.29,-1.468 -4.87,-2.202 -7.73,-2.202 -4.66,0 -8.49,1.038 -11.5,3.115 -1.86,1.289 -2.79,2.793 -2.79,4.512 0,1.503 1,3.365 3.01,5.585 2.72,3.08 4.08,6.052 4.08,8.916 0,3.51 -1.31,6.499 -3.92,8.97 -2.61,2.471 -6.03,3.706 -10.26,3.706 -4.51,0 -8.29,-1.36 -11.33,-4.082 -3.05,-2.721 -4.57,-5.908 -4.57,-9.56 0,-5.157 2.04,-10.08 6.13,-14.771 4.08,-4.691 9.77,-8.289 17.08,-10.796 7.3,-2.506 14.89,-3.76 22.77,-3.76 z m -285.38,0 c 6.52,0 11.93,1.809 16.22,5.425 4.3,3.617 7.17,8.111 8.6,13.482 1.14,4.082 1.72,11.924 1.72,23.525 v 39.102 c 0,7.734 0.69,12.55 2.09,14.448 1.4,1.898 4.32,3.097 8.76,3.599 v 3.867 h -50.81 v -3.867 c 3.79,-0.502 6.51,-2.077 8.16,-4.727 1.15,-1.79 1.72,-6.23 1.72,-13.32 v -44.688 c 0,-8.235 -0.32,-13.428 -0.97,-15.576 -0.64,-2.148 -1.73,-3.813 -3.27,-4.995 -1.54,-1.182 -3.25,-1.773 -5.11,-1.773 -6.16,0 -11.89,4.405 -17.18,13.213 v 53.819 c 0,7.519 0.69,12.282 2.09,14.287 1.4,2.005 3.99,3.258 7.79,3.76 v 3.867 h -50.81 v -3.867 c 4.22,-0.43 7.23,-1.791 9.02,-4.082 1.22,-1.576 1.83,-6.231 1.83,-13.965 v -56.719 c 0,-7.591 -0.7,-12.318 -2.1,-14.18 -1.39,-1.862 -4.31,-3.079 -8.75,-3.652 v -3.975 h 40.93 v 12.998 c 5.15,-5.586 10.09,-9.65 14.82,-12.192 4.73,-2.542 9.81,-3.814 15.25,-3.814 z m 397.96,-42.216 h 44.58 v 115.586 c 0,7.806 0.21,12.425 0.64,13.857 0.57,2.363 1.67,4.118 3.28,5.264 1.61,1.146 4.42,1.862 8.43,2.148 v 3.545 l -42.43,8.272 v -15.899 c -5.09,6.159 -9.62,10.348 -13.59,12.568 -3.97,2.221 -8.47,3.331 -13.48,3.331 -12.82,0 -22.95,-5.73 -30.4,-17.188 -6.02,-9.31 -9.03,-20.732 -9.03,-34.268 0,-10.813 1.87,-20.499 5.59,-29.057 3.72,-8.558 8.83,-15.021 15.31,-19.39 6.48,-4.368 13.44,-6.553 20.89,-6.553 4.8,0 9.06,0.931 12.78,2.793 3.73,1.862 7.7,5.121 11.93,9.776 v -30.293 c 0,-7.663 -0.32,-12.282 -0.97,-13.858 -0.86,-2.076 -2.15,-3.616 -3.87,-4.619 -1.71,-1.002 -4.94,-1.504 -9.66,-1.504 z m -232,0 h 44.58 v 115.586 c 0,7.806 0.21,12.425 0.64,13.857 0.57,2.363 1.67,4.118 3.28,5.264 1.61,1.146 4.42,1.862 8.43,2.148 v 3.545 l -42.43,8.272 v -15.899 c -5.09,6.159 -9.62,10.348 -13.59,12.568 -3.97,2.221 -8.47,3.331 -13.48,3.331 -12.82,0 -22.95,-5.73 -30.4,-17.188 -6.02,-9.31 -9.03,-20.732 -9.03,-34.268 0,-10.813 1.87,-20.499 5.59,-29.057 3.72,-8.558 8.83,-15.021 15.31,-19.39 6.48,-4.368 13.44,-6.553 20.89,-6.553 4.8,0 9.06,0.931 12.78,2.793 3.73,1.862 7.7,5.121 11.93,9.776 v -30.293 c 0,-7.663 -0.32,-12.282 -0.97,-13.858 -0.86,-2.076 -2.15,-3.616 -3.87,-4.619 -1.71,-1.002 -4.94,-1.504 -9.66,-1.504 z m -90.9,-3.438 c 4.66,0 8.59,1.629 11.82,4.888 3.22,3.258 4.83,7.179 4.83,11.763 0,4.583 -1.63,8.486 -4.89,11.709 -3.26,3.222 -7.18,4.834 -11.76,4.834 -4.58,0 -8.49,-1.612 -11.71,-4.834 -3.22,-3.223 -4.83,-7.126 -4.83,-11.709 0,-4.584 1.61,-8.505 4.83,-11.763 3.22,-3.259 7.13,-4.888 11.71,-4.888 z"
       stroke="#4579b8"
       stroke-width="4"
       stroke-linejoin="round"
       stroke-miterlimit="10"
       fill="#ffff00"
       fill-rule="evenodd"
       id="path71"
       clip-path="url(#clipPath969)" />
    <text
       fill="#000000"
       fill-opacity="0"
       font-family="Arial, Arial_MSFontService, sans-serif"
       font-size="152.109px"
       x="2583.1299"
       y="212.12399"
       id="text73">unidad</text>
  </g>
  <text
     fill="#ffff00"
     font-family="'Times New Roman', 'Times New Roman_MSFontService', sans-serif"
     font-weight="400"
     font-size="165px"
     id="text83"
     x="154.43198"
     y="490.97198"
     style="display:inline"
     class="fragment"
     data-fragment-index="2"
     sodipodi:insensitive="true">Un Dios<tspan
   font-style="italic"
   font-size="128px"
   x="178.58618"
   y="653.97198"
   id="tspan75">1 Tim. 2:5</tspan><tspan
   font-size="165px"
   x="2289.092"
   y="490.97198"
   id="tspan77">Tres personas</tspan><tspan
   font-size="165px"
   x="2467.2222"
   y="688.97198"
   id="tspan79">distintas</tspan><tspan
   font-style="italic"
   font-size="128px"
   x="2456.9121"
   y="851.97198"
   id="tspan81">Mat. 28:19</tspan></text>
</svg>
