<svg width="3393" height="2521" xmlns="http://www.w3.org/2000/svg" xmlns:xlink="http://www.w3.org/1999/xlink" overflow="hidden"><defs><clipPath id="clip0"><rect x="-36" y="37" width="3393" height="2521"/></clipPath></defs><g clip-path="url(#clip0)" transform="translate(36 -37)"><path d="M495.5 2200.5 1660.5 578.5 2805.5 2200.5Z" stroke="#FFFF00" stroke-width="20.625" stroke-linejoin="round" stroke-miterlimit="10" fill="none" fill-rule="evenodd"/><path d="M739.808 216.341C731.142 221.425 724.697 226.868 720.472 232.669 717.679 236.536 716.282 240.439 716.282 244.378 716.282 247.672 717.464 250.573 719.827 253.079 721.617 255.013 724.124 255.979 727.347 255.979 730.927 255.979 735.081 253.974 739.808 249.964ZM842.503 179.817C839.853 179.817 837.669 180.533 835.95 181.966 833.3 184.186 831.134 188.089 829.451 193.675 827.768 199.261 826.927 207.819 826.927 219.349 826.927 232.024 827.858 241.406 829.72 247.493 831.582 253.58 834.124 257.985 837.347 260.706 838.994 262.067 841.25 262.747 844.114 262.747 850.416 262.747 856.36 257.806 861.946 247.923L861.946 195.071C856.647 184.902 850.166 179.817 842.503 179.817ZM609.503 179.817C606.853 179.817 604.669 180.533 602.95 181.966 600.3 184.186 598.134 188.089 596.451 193.675 594.768 199.261 593.927 207.819 593.927 219.349 593.927 232.024 594.858 241.406 596.72 247.493 598.582 253.58 601.124 257.985 604.347 260.706 605.994 262.067 608.25 262.747 611.114 262.747 617.416 262.747 623.36 257.806 628.946 247.923L628.946 195.071C623.647 184.902 617.166 179.817 609.503 179.817ZM497.478 172.19 539.587 172.19 539.587 251.79C539.587 258.88 540.41 263.409 542.058 265.379 543.705 267.348 546.927 268.476 551.726 268.763L551.726 272.63 497.478 272.63 497.478 268.763C501.918 268.619 505.212 267.33 507.36 264.895 508.793 263.248 509.509 258.88 509.509 251.79L509.509 193.138C509.509 186.048 508.685 181.518 507.038 179.549 505.391 177.579 502.204 176.451 497.478 176.165ZM313.478 172.19 355.587 172.19 355.587 251.79C355.587 258.88 356.41 263.409 358.058 265.379 359.705 267.348 362.927 268.476 367.726 268.763L367.726 272.63 313.478 272.63 313.478 268.763C317.918 268.619 321.212 267.33 323.36 264.895 324.793 263.248 325.509 258.88 325.509 251.79L325.509 193.138C325.509 186.048 324.685 181.518 323.038 179.549 321.391 177.579 318.204 176.451 313.478 176.165ZM734.866 169.183C744.391 169.183 751.928 171.206 757.478 175.252 763.029 179.298 766.627 183.685 768.274 188.411 769.277 191.419 769.778 198.33 769.778 209.143L769.778 248.138C769.778 252.721 769.957 255.603 770.315 256.785 770.673 257.967 771.211 258.844 771.927 259.417 772.643 259.99 773.466 260.276 774.397 260.276 776.259 260.276 778.157 258.951 780.091 256.302L783.313 258.88C779.733 264.179 776.027 268.029 772.195 270.428 768.364 272.827 764.013 274.026 759.143 274.026 753.414 274.026 748.938 272.684 745.716 269.998 742.493 267.312 740.524 263.248 739.808 257.806 727.561 268.619 716.569 274.026 706.829 274.026 701.1 274.026 696.337 272.146 692.542 268.387 688.746 264.627 686.849 259.918 686.849 254.261 686.849 246.598 690.143 239.705 696.731 233.582 703.32 227.459 717.679 219.313 739.808 209.143L739.808 199.046C739.808 191.455 739.396 186.674 738.572 184.705 737.749 182.736 736.191 181.017 733.899 179.549 731.608 178.081 729.03 177.347 726.165 177.347 721.51 177.347 717.679 178.385 714.671 180.462 712.809 181.751 711.878 183.255 711.878 184.974 711.878 186.477 712.88 188.339 714.886 190.56 717.607 193.639 718.968 196.611 718.968 199.476 718.968 202.985 717.661 205.975 715.047 208.445 712.433 210.916 709.013 212.151 704.788 212.151 700.276 212.151 696.499 210.791 693.455 208.069 690.411 205.348 688.89 202.161 688.89 198.509 688.89 193.352 690.931 188.429 695.013 183.738 699.095 179.047 704.788 175.449 712.093 172.942 719.397 170.436 726.989 169.183 734.866 169.183ZM448.491 169.183C455.008 169.183 460.415 170.991 464.712 174.607 469.009 178.224 471.873 182.718 473.306 188.089 474.452 192.171 475.024 200.013 475.024 211.614L475.024 250.716C475.024 258.45 475.723 263.266 477.119 265.164 478.516 267.062 481.434 268.261 485.874 268.763L485.874 272.63 435.064 272.63 435.064 268.763C438.859 268.261 441.58 266.686 443.228 264.036 444.373 262.246 444.946 257.806 444.946 250.716L444.946 206.028C444.946 197.793 444.624 192.601 443.979 190.452 443.335 188.304 442.243 186.639 440.703 185.457 439.163 184.275 437.463 183.685 435.601 183.685 429.442 183.685 423.713 188.089 418.413 196.897L418.413 250.716C418.413 258.235 419.111 262.998 420.508 265.003 421.904 267.008 424.5 268.261 428.296 268.763L428.296 272.63 377.485 272.63 377.485 268.763C381.711 268.333 384.718 266.972 386.509 264.681 387.726 263.105 388.335 258.45 388.335 250.716L388.335 193.997C388.335 186.406 387.637 181.679 386.24 179.817 384.844 177.955 381.925 176.738 377.485 176.165L377.485 172.19 418.413 172.19 418.413 185.188C423.569 179.602 428.511 175.538 433.237 172.996 437.964 170.454 443.048 169.183 448.491 169.183ZM292.069 169.183C296.08 169.183 299.285 170.418 301.684 172.889 304.083 175.359 305.282 178.851 305.282 183.362 305.282 188.16 304.118 191.884 301.791 194.534 299.464 197.184 296.653 198.509 293.358 198.509 289.563 198.509 286.269 197.291 283.476 194.856 280.683 192.421 279.036 191.061 278.534 190.774 277.818 190.345 276.995 190.13 276.064 190.13 273.987 190.13 272.017 190.918 270.155 192.493 267.219 194.928 264.999 198.401 263.495 202.913 261.203 209.86 260.058 217.522 260.058 225.901L260.058 248.997 260.165 255.013C260.165 259.095 260.416 261.709 260.917 262.854 261.776 264.788 263.048 266.202 264.73 267.098 266.413 267.993 269.26 268.548 273.271 268.763L273.271 272.63 219.022 272.63 219.022 268.763C223.391 268.405 226.345 267.205 227.885 265.164 229.424 263.123 230.194 257.734 230.194 248.997L230.194 193.46C230.194 187.731 229.908 184.078 229.335 182.503 228.619 180.498 227.58 179.03 226.22 178.099 224.859 177.168 222.46 176.523 219.022 176.165L219.022 172.19 260.058 172.19 260.058 194.964C266.718 184.58 272.554 177.687 277.567 174.285 282.58 170.883 287.414 169.183 292.069 169.183ZM847.444 126.966 892.024 126.966 892.024 242.552C892.024 250.358 892.239 254.977 892.669 256.409 893.242 258.772 894.334 260.527 895.945 261.673 897.557 262.819 900.367 263.535 904.378 263.821L904.378 267.366 861.946 275.638 861.946 259.739C856.862 265.898 852.332 270.087 848.357 272.308 844.383 274.528 839.889 275.638 834.876 275.638 822.057 275.638 811.923 269.908 804.476 258.45 798.46 249.14 795.452 237.718 795.452 224.183 795.452 213.369 797.314 203.683 801.038 195.125 804.762 186.567 809.865 180.104 816.346 175.735 822.827 171.367 829.791 169.183 837.239 169.183 842.037 169.183 846.298 170.114 850.022 171.976 853.746 173.838 857.721 177.096 861.946 181.751L861.946 151.458C861.946 143.795 861.624 139.176 860.979 137.601 860.12 135.524 858.831 133.984 857.112 132.981 855.393 131.979 852.171 131.477 847.444 131.477ZM614.444 126.966 659.024 126.966 659.024 242.552C659.024 250.358 659.239 254.977 659.669 256.409 660.242 258.772 661.334 260.527 662.945 261.673 664.557 262.819 667.367 263.535 671.378 263.821L671.378 267.366 628.946 275.638 628.946 259.739C623.862 265.898 619.332 270.087 615.357 272.308 611.383 274.528 606.889 275.638 601.876 275.638 589.057 275.638 578.923 269.908 571.476 258.45 565.46 249.14 562.452 237.718 562.452 224.183 562.452 213.369 564.314 203.683 568.038 195.125 571.762 186.567 576.865 180.104 583.346 175.735 589.827 171.367 596.791 169.183 604.239 169.183 609.037 169.183 613.298 170.114 617.022 171.976 620.746 173.838 624.721 177.096 628.946 181.751L628.946 151.458C628.946 143.795 628.624 139.176 627.979 137.601 627.12 135.524 625.831 133.984 624.112 132.981 622.393 131.979 619.171 131.477 614.444 131.477ZM88.9151 126.966 219.755 126.966 219.755 166.39 215.888 166.39C213.596 157.295 211.054 150.76 208.261 146.785 205.468 142.811 201.636 139.642 196.767 137.278 194.045 135.989 189.283 135.345 182.48 135.345L171.63 135.345 171.63 247.708C171.63 255.156 172.042 259.811 172.865 261.673 173.689 263.535 175.3 265.164 177.699 266.56 180.098 267.957 183.375 268.655 187.528 268.655L192.362 268.655 192.362 272.63 116.093 272.63 116.093 268.655 120.927 268.655C125.152 268.655 128.554 267.903 131.132 266.399 132.994 265.397 134.462 263.678 135.536 261.243 136.324 259.524 136.718 255.013 136.718 247.708L136.718 135.345 126.19 135.345C116.379 135.345 109.254 137.422 104.814 141.575 98.583 147.376 94.6442 155.647 92.9971 166.39L88.9151 166.39ZM524.548 123.528C529.203 123.528 533.142 125.158 536.364 128.416 539.587 131.674 541.198 135.595 541.198 140.179 541.198 144.762 539.569 148.665 536.31 151.888 533.052 155.11 529.131 156.722 524.548 156.722 519.964 156.722 516.062 155.11 512.839 151.888 509.616 148.665 508.005 144.762 508.005 140.179 508.005 135.595 509.616 131.674 512.839 128.416 516.062 125.158 519.964 123.528 524.548 123.528ZM340.548 123.528C345.203 123.528 349.142 125.158 352.364 128.416 355.587 131.674 357.198 135.595 357.198 140.179 357.198 144.762 355.569 148.665 352.311 151.888 349.052 155.11 345.131 156.722 340.548 156.722 335.965 156.722 332.062 155.11 328.839 151.888 325.616 148.665 324.005 144.762 324.005 140.179 324.005 135.595 325.616 131.674 328.839 128.416 332.062 125.158 335.965 123.528 340.548 123.528Z" stroke="#4579B8" stroke-width="4" stroke-linejoin="round" stroke-miterlimit="10" fill="#FFFF00" fill-rule="evenodd"/><text fill="#000000" fill-opacity="0" font-family="Arial,Arial_MSFontService,sans-serif" font-size="152.109" x="88.9151" y="256.624">Trinidad</text><text fill="#FFFF00" font-family="Times New Roman,Times New Roman_MSFontService,sans-serif" font-weight="700" font-size="165" transform="matrix(1 0 0 1 1431.46 375)">Padre<tspan font-style="italic" font-weight="400" font-size="128" x="6.25623" y="163">Efe. 1:3</tspan><tspan font-size="165" x="-1223.27" y="1788">Hijo</tspan><tspan font-style="italic" font-weight="400" font-size="128" x="-1389.98" y="1951">Juan 1:1, 14</tspan><tspan font-size="165" x="1211.99" y="1714">Espíritu</tspan><tspan font-size="165" x="1299.08" y="1912">Santo</tspan><tspan font-style="italic" font-weight="400" font-size="128" x="1153.26" y="2075">Hechos 5:3</tspan><tspan font-style="italic" font-weight="400" font-size="128" x="1741.07" y="2075">-</tspan><tspan font-style="italic" font-weight="400" font-size="128" x="1784.04" y="2075">4</tspan></text><text fill="#FFFF00" font-family="Times New Roman,Times New Roman_MSFontService,sans-serif" font-style="italic" font-weight="400" font-size="165" transform="matrix(0.583223 0.812312 -0.812312 0.583223 2123.75 1061)">Co<tspan font-size="165" x="193.012" y="0.367447">-</tspan><tspan font-size="165" x="247.462" y="-0.0276108">igual</tspan></text><text fill="#FFFF00" font-family="Times New Roman,Times New Roman_MSFontService,sans-serif" font-style="italic" font-weight="400" font-size="165" transform="matrix(1 0 0 1 1298 2348)">co<tspan font-size="165" x="155.833" y="0">-</tspan><tspan font-size="165" x="210.833" y="0">eterno</tspan></text><text fill="#FFFF00" font-family="Times New Roman,Times New Roman_MSFontService,sans-serif" font-style="italic" font-weight="400" font-size="165" transform="matrix(0.606594 -0.795012 0.795012 0.606594 816.732 1589)">co<tspan font-size="165" x="155.921" y="-0.0671158">-</tspan><tspan font-size="165" x="211.139" y="-0.233536">infinito</tspan></text><text fill="#FFFF00" font-family="Times New Roman,Times New Roman_MSFontService,sans-serif" font-weight="400" font-size="165" transform="matrix(1 0 0 1 1467.3 970)">Amor<tspan font-size="165" x="-174.74" y="198">+J  Justicia</tspan><tspan font-size="165" x="-119.167" y="396">Soberano</tspan><tspan font-size="165" x="-27.5" y="594">Eterno</tspan><tspan font-size="165" x="-513.356" y="792">Veracidad  Inmutable</tspan><tspan font-size="165" x="-696.667" y="990">Omnisciente  Omnipotente</tspan><tspan font-size="165" x="-270.417" y="1188">Omnipresente</tspan></text><path d="M2410.51 164.69 2452.62 164.69 2452.62 244.29C2452.62 251.38 2453.44 255.909 2455.09 257.879 2456.74 259.848 2459.96 260.976 2464.76 261.263L2464.76 265.13 2410.51 265.13 2410.51 261.263C2414.95 261.119 2418.25 259.83 2420.39 257.395 2421.83 255.748 2422.54 251.38 2422.54 244.29L2422.54 185.638C2422.54 178.548 2421.72 174.018 2420.07 172.049 2418.42 170.079 2415.24 168.951 2410.51 168.665ZM2389.1 161.682C2393.11 161.682 2396.32 162.918 2398.72 165.389 2401.12 167.859 2402.32 171.35 2402.32 175.862 2402.32 180.66 2401.15 184.384 2398.82 187.034 2396.5 189.684 2393.69 191.009 2390.39 191.009 2386.6 191.009 2383.3 189.791 2380.51 187.356 2377.72 184.921 2376.07 183.561 2375.57 183.274 2374.85 182.845 2374.03 182.63 2373.1 182.63 2371.02 182.63 2369.05 183.418 2367.19 184.993 2364.25 187.428 2362.03 190.901 2360.53 195.413 2358.24 202.36 2357.09 210.022 2357.09 218.401L2357.09 241.497 2357.2 247.513C2357.2 251.595 2357.45 254.209 2357.95 255.354 2358.81 257.288 2360.08 258.702 2361.76 259.598 2363.45 260.493 2366.29 261.048 2370.3 261.263L2370.3 265.13 2316.06 265.13 2316.06 261.263C2320.42 260.905 2323.38 259.705 2324.92 257.664 2326.46 255.623 2327.23 250.234 2327.23 241.497L2327.23 185.96C2327.23 180.231 2326.94 176.578 2326.37 175.003 2325.65 172.998 2324.61 171.53 2323.25 170.599 2321.89 169.668 2319.49 169.023 2316.06 168.665L2316.06 164.69 2357.09 164.69 2357.09 187.464C2363.75 177.08 2369.59 170.187 2374.6 166.785 2379.61 163.383 2384.45 161.682 2389.1 161.682ZM2185.95 119.466 2316.79 119.466 2316.79 158.89 2312.92 158.89C2310.63 149.794 2308.09 143.26 2305.29 139.285 2302.5 135.31 2298.67 132.141 2293.8 129.778 2291.08 128.489 2286.32 127.845 2279.51 127.845L2268.66 127.845 2268.66 240.208C2268.66 247.656 2269.08 252.311 2269.9 254.173 2270.72 256.035 2272.33 257.664 2274.73 259.06 2277.13 260.457 2280.41 261.155 2284.56 261.155L2289.4 261.155 2289.4 265.13 2213.13 265.13 2213.13 261.155 2217.96 261.155C2222.19 261.155 2225.59 260.403 2228.17 258.899 2230.03 257.897 2231.5 256.178 2232.57 253.743 2233.36 252.024 2233.75 247.513 2233.75 240.208L2233.75 127.845 2223.22 127.845C2213.41 127.845 2206.29 129.921 2201.85 134.075 2195.62 139.876 2191.68 148.147 2190.03 158.89L2185.95 158.89ZM2437.58 116.028C2442.24 116.028 2446.18 117.657 2449.4 120.916 2452.62 124.174 2454.23 128.095 2454.23 132.679 2454.23 137.262 2452.6 141.165 2449.34 144.388 2446.09 147.61 2442.17 149.222 2437.58 149.222 2433 149.222 2429.1 147.61 2425.87 144.388 2422.65 141.165 2421.04 137.262 2421.04 132.679 2421.04 128.095 2422.65 124.174 2425.87 120.916 2429.1 117.657 2433 116.028 2437.58 116.028Z" stroke="#4579B8" stroke-width="4" stroke-linejoin="round" stroke-miterlimit="10" fill="#FFFF00" fill-rule="evenodd"/><text fill="#000000" fill-opacity="0" font-family="Arial,Arial_MSFontService,sans-serif" font-size="149.102" x="2185.95" y="246.492">Tri</text><path d="M2472.4 203.47 2535.02 203.47 2535.02 225.706 2472.4 225.706Z" stroke="#4579B8" stroke-width="4" stroke-linejoin="round" stroke-miterlimit="10" fill="#FFFF00" fill-rule="evenodd"/><text fill="#000000" fill-opacity="0" font-family="Arial,Arial_MSFontService,sans-serif" font-size="22.2363" x="2472.4" y="222.926">-</text><path d="M3032.2 208.841C3023.53 213.925 3017.09 219.368 3012.86 225.169 3010.07 229.036 3008.67 232.939 3008.67 236.878 3008.67 240.172 3009.86 243.072 3012.22 245.579 3014.01 247.513 3016.52 248.479 3019.74 248.479 3023.32 248.479 3027.47 246.474 3032.2 242.464ZM3134.9 172.317C3132.25 172.317 3130.06 173.033 3128.34 174.466 3125.69 176.686 3123.53 180.589 3121.84 186.175 3120.16 191.761 3119.32 200.319 3119.32 211.849 3119.32 224.524 3120.25 233.906 3122.11 239.993 3123.97 246.08 3126.52 250.485 3129.74 253.206 3131.39 254.567 3133.64 255.247 3136.51 255.247 3142.81 255.247 3148.75 250.306 3154.34 240.423L3154.34 187.571C3149.04 177.402 3142.56 172.317 3134.9 172.317ZM2902.9 172.317C2900.25 172.317 2898.06 173.033 2896.34 174.466 2893.69 176.686 2891.53 180.589 2889.84 186.175 2888.16 191.761 2887.32 200.319 2887.32 211.849 2887.32 224.524 2888.25 233.906 2890.11 239.993 2891.97 246.08 2894.52 250.485 2897.74 253.206 2899.39 254.567 2901.64 255.247 2904.51 255.247 2910.81 255.247 2916.75 250.306 2922.34 240.423L2922.34 187.571C2917.04 177.402 2910.56 172.317 2902.9 172.317ZM2789.87 164.69 2831.98 164.69 2831.98 244.29C2831.98 251.38 2832.8 255.909 2834.45 257.879 2836.1 259.848 2839.32 260.976 2844.12 261.263L2844.12 265.13 2789.87 265.13 2789.87 261.263C2794.31 261.119 2797.6 259.83 2799.75 257.395 2801.19 255.748 2801.9 251.38 2801.9 244.29L2801.9 185.638C2801.9 178.548 2801.08 174.018 2799.43 172.049 2797.78 170.079 2794.6 168.951 2789.87 168.665ZM2547.13 164.69 2588.05 164.69 2588.05 233.333C2588.05 240.494 2588.39 245.113 2589.07 247.19 2589.75 249.267 2590.83 250.843 2592.3 251.917 2593.76 252.991 2595.47 253.528 2597.4 253.528 2599.98 253.528 2602.3 252.848 2604.38 251.487 2607.25 249.625 2610.68 245.865 2614.69 240.208L2614.69 186.497C2614.69 178.906 2614 174.179 2612.6 172.317 2611.2 170.455 2608.28 169.238 2603.84 168.665L2603.84 164.69 2644.77 164.69 2644.77 243.323C2644.77 250.986 2645.49 255.766 2646.92 257.664 2648.35 259.562 2651.25 260.761 2655.62 261.263L2655.62 265.13 2614.69 265.13 2614.69 251.702C2609.9 257.431 2605.1 261.603 2600.3 264.217 2595.5 266.831 2590.13 268.138 2584.19 268.138 2578.53 268.138 2573.5 266.401 2569.09 262.928 2564.69 259.454 2561.74 255.39 2560.23 250.735 2558.73 246.08 2557.98 237.952 2557.98 226.35L2557.98 186.497C2557.98 178.906 2557.28 174.179 2555.88 172.317 2554.48 170.455 2551.57 169.238 2547.13 168.665ZM3027.26 161.682C3036.78 161.682 3044.32 163.706 3049.87 167.752 3055.42 171.798 3059.02 176.184 3060.67 180.911 3061.67 183.919 3062.17 190.83 3062.17 201.643L3062.17 240.638C3062.17 245.221 3062.35 248.103 3062.71 249.285 3063.07 250.467 3063.6 251.344 3064.32 251.917 3065.04 252.49 3065.86 252.776 3066.79 252.776 3068.65 252.776 3070.55 251.451 3072.48 248.802L3075.71 251.38C3072.12 256.679 3068.42 260.529 3064.59 262.928 3060.76 265.327 3056.41 266.526 3051.54 266.526 3045.81 266.526 3041.33 265.183 3038.11 262.498 3034.89 259.812 3032.92 255.748 3032.2 250.306 3019.95 261.119 3008.96 266.526 2999.22 266.526 2993.49 266.526 2988.73 264.646 2984.93 260.887 2981.14 257.127 2979.24 252.418 2979.24 246.761 2979.24 239.098 2982.54 232.205 2989.12 226.082 2995.71 219.959 3010.07 211.813 3032.2 201.643L3032.2 191.546C3032.2 183.955 3031.79 179.174 3030.96 177.205 3030.14 175.236 3028.58 173.517 3026.29 172.049 3024 170.581 3021.42 169.847 3018.56 169.847 3013.9 169.847 3010.07 170.885 3007.06 172.962 3005.2 174.251 3004.27 175.755 3004.27 177.474 3004.27 178.977 3005.27 180.839 3007.28 183.059 3010 186.139 3011.36 189.111 3011.36 191.975 3011.36 195.485 3010.05 198.474 3007.44 200.945 3004.83 203.416 3001.41 204.651 2997.18 204.651 2992.67 204.651 2988.89 203.291 2985.85 200.569 2982.8 197.848 2981.28 194.661 2981.28 191.009 2981.28 185.852 2983.32 180.929 2987.41 176.238 2991.49 171.547 2997.18 167.949 3004.49 165.442 3011.79 162.936 3019.38 161.682 3027.26 161.682ZM2741.88 161.682C2748.4 161.682 2753.81 163.491 2758.1 167.107 2762.4 170.724 2765.27 175.218 2766.7 180.589 2767.84 184.671 2768.42 192.513 2768.42 204.114L2768.42 243.216C2768.42 250.95 2769.11 255.766 2770.51 257.664 2771.91 259.562 2774.83 260.761 2779.27 261.263L2779.27 265.13 2728.46 265.13 2728.46 261.263C2732.25 260.761 2734.97 259.186 2736.62 256.536 2737.77 254.746 2738.34 250.306 2738.34 243.216L2738.34 198.528C2738.34 190.293 2738.02 185.1 2737.37 182.952 2736.73 180.804 2735.64 179.139 2734.1 177.957 2732.56 176.775 2730.85 176.184 2728.99 176.184 2722.83 176.184 2717.1 180.589 2711.81 189.397L2711.81 243.216C2711.81 250.735 2712.5 255.498 2713.9 257.503 2715.3 259.508 2717.89 260.761 2721.69 261.263L2721.69 265.13 2670.88 265.13 2670.88 261.263C2675.1 260.833 2678.11 259.472 2679.9 257.181 2681.12 255.605 2681.73 250.95 2681.73 243.216L2681.73 186.497C2681.73 178.906 2681.03 174.179 2679.63 172.317 2678.24 170.455 2675.32 169.238 2670.88 168.665L2670.88 164.69 2711.81 164.69 2711.81 177.688C2716.96 172.102 2721.9 168.038 2726.63 165.496 2731.36 162.954 2736.44 161.682 2741.88 161.682ZM3139.84 119.466 3184.42 119.466 3184.42 235.052C3184.42 242.858 3184.63 247.477 3185.06 248.909 3185.63 251.272 3186.73 253.027 3188.34 254.173 3189.95 255.319 3192.76 256.035 3196.77 256.321L3196.77 259.866 3154.34 268.138 3154.34 252.239C3149.25 258.398 3144.72 262.587 3140.75 264.807 3136.78 267.028 3132.28 268.138 3127.27 268.138 3114.45 268.138 3104.32 262.408 3096.87 250.95 3090.85 241.64 3087.84 230.218 3087.84 216.682 3087.84 205.869 3089.71 196.183 3093.43 187.625 3097.15 179.067 3102.26 172.604 3108.74 168.235 3115.22 163.867 3122.18 161.682 3129.63 161.682 3134.43 161.682 3138.69 162.613 3142.41 164.475 3146.14 166.337 3150.11 169.596 3154.34 174.251L3154.34 143.958C3154.34 136.295 3154.02 131.676 3153.37 130.1 3152.51 128.024 3151.22 126.484 3149.5 125.481 3147.79 124.479 3144.56 123.977 3139.84 123.977ZM2907.84 119.466 2952.42 119.466 2952.42 235.052C2952.42 242.858 2952.63 247.477 2953.06 248.909 2953.63 251.272 2954.73 253.027 2956.34 254.173 2957.95 255.319 2960.76 256.035 2964.77 256.321L2964.77 259.866 2922.34 268.138 2922.34 252.239C2917.25 258.398 2912.72 262.587 2908.75 264.807 2904.78 267.028 2900.28 268.138 2895.27 268.138 2882.45 268.138 2872.32 262.408 2864.87 250.95 2858.85 241.64 2855.84 230.218 2855.84 216.682 2855.84 205.869 2857.71 196.183 2861.43 187.625 2865.15 179.067 2870.26 172.604 2876.74 168.235 2883.22 163.867 2890.18 161.682 2897.63 161.682 2902.43 161.682 2906.69 162.613 2910.41 164.475 2914.14 166.337 2918.11 169.596 2922.34 174.251L2922.34 143.958C2922.34 136.295 2922.02 131.676 2921.37 130.1 2920.51 128.024 2919.22 126.484 2917.5 125.481 2915.79 124.479 2912.56 123.977 2907.84 123.977ZM2816.94 116.028C2821.6 116.028 2825.53 117.657 2828.76 120.916 2831.98 124.174 2833.59 128.095 2833.59 132.679 2833.59 137.262 2831.96 141.165 2828.7 144.388 2825.44 147.61 2821.52 149.222 2816.94 149.222 2812.36 149.222 2808.45 147.61 2805.23 144.388 2802.01 141.165 2800.4 137.262 2800.4 132.679 2800.4 128.095 2802.01 124.174 2805.23 120.916 2808.45 117.657 2812.36 116.028 2816.94 116.028Z" stroke="#4579B8" stroke-width="4" stroke-linejoin="round" stroke-miterlimit="10" fill="#FFFF00" fill-rule="evenodd"/><text fill="#000000" fill-opacity="0" font-family="Arial,Arial_MSFontService,sans-serif" font-size="152.109" x="2547.13" y="249.124">unidad</text><text fill="#FFFF00" font-family="Times New Roman,Times New Roman_MSFontService,sans-serif" font-weight="400" font-size="165" transform="matrix(1 0 0 1 191.537 605)">Un Dios<tspan font-style="italic" font-size="128" x="24.1542" y="163">1 Tim. 2:5</tspan><tspan font-size="165" x="2134.66" y="0">Tres personas</tspan><tspan font-size="165" x="2312.79" y="198">distintas</tspan><tspan font-style="italic" font-size="128" x="2302.48" y="361">Mat. 28:19</tspan></text></g></svg>