<?xml version="1.0" encoding="UTF-8" standalone="no"?>
<!-- Created with Inkscape (http://www.inkscape.org/) -->

<svg
   version="1.1"
   id="svg2"
   width="960"
   height="720"
   viewBox="0 0 960 720"
   sodipodi:docname="trinidad.svg"
   inkscape:version="1.2.2 (732a01da63, 2022-12-09)"
   xmlns:inkscape="http://www.inkscape.org/namespaces/inkscape"
   xmlns:sodipodi="http://sodipodi.sourceforge.net/DTD/sodipodi-0.dtd"
   xmlns="http://www.w3.org/2000/svg"
   xmlns:svg="http://www.w3.org/2000/svg">
  <defs
     id="defs6">
    <clipPath
       clipPathUnits="userSpaceOnUse"
       id="clipPath18">
      <path
         d="M 0,1.2207e-4 H 720 V 540.00012 H 0 Z"
         clip-rule="evenodd"
         id="path16" />
    </clipPath>
    <clipPath
       clipPathUnits="userSpaceOnUse"
       id="clipPath34">
      <path
         d="M 1.0729e-5,0 H 720.00001 V 540 H 1.0729e-5 Z"
         clip-rule="evenodd"
         id="path32" />
    </clipPath>
    <clipPath
       clipPathUnits="userSpaceOnUse"
       id="clipPath46">
      <path
         d="M 1.0729e-5,0 H 720.00001 V 540 H 1.0729e-5 Z"
         clip-rule="evenodd"
         id="path44" />
    </clipPath>
    <clipPath
       clipPathUnits="userSpaceOnUse"
       id="clipPath58">
      <path
         d="M 1.0729e-5,0 H 720.00001 V 540 H 1.0729e-5 Z"
         clip-rule="evenodd"
         id="path56" />
    </clipPath>
    <clipPath
       clipPathUnits="userSpaceOnUse"
       id="clipPath70">
      <path
         d="M 1.0729e-5,0 H 720.00001 V 540 H 1.0729e-5 Z"
         clip-rule="evenodd"
         id="path68" />
    </clipPath>
    <clipPath
       clipPathUnits="userSpaceOnUse"
       id="clipPath82">
      <path
         d="M 1.0729e-5,0 H 720.00001 V 540 H 1.0729e-5 Z"
         clip-rule="evenodd"
         id="path80" />
    </clipPath>
    <clipPath
       clipPathUnits="userSpaceOnUse"
       id="clipPath94">
      <path
         d="M 1.0729e-5,0 H 720.00001 V 540 H 1.0729e-5 Z"
         clip-rule="evenodd"
         id="path92" />
    </clipPath>
    <clipPath
       clipPathUnits="userSpaceOnUse"
       id="clipPath106">
      <path
         d="M 1.0729e-5,0 H 720.00001 V 540 H 1.0729e-5 Z"
         clip-rule="evenodd"
         id="path104" />
    </clipPath>
    <clipPath
       clipPathUnits="userSpaceOnUse"
       id="clipPath118">
      <path
         d="M 1.0729e-5,0 H 720.00001 V 540 H 1.0729e-5 Z"
         clip-rule="evenodd"
         id="path116" />
    </clipPath>
    <clipPath
       clipPathUnits="userSpaceOnUse"
       id="clipPath130">
      <path
         d="M 1.0729e-5,0 H 720.00001 V 540 H 1.0729e-5 Z"
         clip-rule="evenodd"
         id="path128" />
    </clipPath>
    <clipPath
       clipPathUnits="userSpaceOnUse"
       id="clipPath142">
      <path
         d="M -6.1035e-5,540 H 720 V 1.2207e-4 H -6.1035e-5"
         clip-rule="evenodd"
         id="path140" />
    </clipPath>
    <clipPath
       clipPathUnits="userSpaceOnUse"
       id="clipPath152">
      <path
         d="M -3.0518e-5,540 H 720 V 6.1035e-5 L -3.0518e-5,1.2207e-4"
         clip-rule="evenodd"
         id="path150" />
    </clipPath>
    <clipPath
       clipPathUnits="userSpaceOnUse"
       id="clipPath162">
      <path
         d="M -3.0518e-5,540 H 720 V 6.1035e-5 L -3.0518e-5,1.2207e-4"
         clip-rule="evenodd"
         id="path160" />
    </clipPath>
    <clipPath
       clipPathUnits="userSpaceOnUse"
       id="clipPath172">
      <path
         d="M 1.0729e-5,0 H 720.00001 V 540 H 1.0729e-5 Z"
         clip-rule="evenodd"
         id="path170" />
    </clipPath>
    <clipPath
       clipPathUnits="userSpaceOnUse"
       id="clipPath184">
      <path
         d="M 1.0729e-5,0 H 720.00001 V 540 H 1.0729e-5 Z"
         clip-rule="evenodd"
         id="path182" />
    </clipPath>
    <clipPath
       clipPathUnits="userSpaceOnUse"
       id="clipPath196">
      <path
         d="M 1.0729e-5,0 H 720.00001 V 540 H 1.0729e-5 Z"
         clip-rule="evenodd"
         id="path194" />
    </clipPath>
    <clipPath
       clipPathUnits="userSpaceOnUse"
       id="clipPath208">
      <path
         d="M -3.0518e-5,540 H 720 V 1.2207e-4 L -3.0518e-5,6.1035e-5"
         clip-rule="evenodd"
         id="path206" />
    </clipPath>
    <clipPath
       clipPathUnits="userSpaceOnUse"
       id="clipPath218">
      <path
         d="M -4.5776e-5,540 H 720 V 1.2207e-4 L -4.5776e-5,0"
         clip-rule="evenodd"
         id="path216" />
    </clipPath>
    <clipPath
       clipPathUnits="userSpaceOnUse"
       id="clipPath228">
      <path
         d="M -3.0518e-5,540 H 720 V 1.2207e-4 L -3.0518e-5,0"
         clip-rule="evenodd"
         id="path226" />
    </clipPath>
    <clipPath
       clipPathUnits="userSpaceOnUse"
       id="clipPath238">
      <path
         d="M 1.0729e-5,0 H 720.00001 V 540 H 1.0729e-5 Z"
         clip-rule="evenodd"
         id="path236" />
    </clipPath>
    <clipPath
       clipPathUnits="userSpaceOnUse"
       id="clipPath250">
      <path
         d="M 1.0729e-5,0 H 720.00001 V 540 H 1.0729e-5 Z"
         clip-rule="evenodd"
         id="path248" />
    </clipPath>
    <clipPath
       clipPathUnits="userSpaceOnUse"
       id="clipPath262">
      <path
         d="M 1.0729e-5,0 H 720.00001 V 540 H 1.0729e-5 Z"
         clip-rule="evenodd"
         id="path260" />
    </clipPath>
    <clipPath
       clipPathUnits="userSpaceOnUse"
       id="clipPath274">
      <path
         d="M 1.0729e-5,0 H 720.00001 V 540 H 1.0729e-5 Z"
         clip-rule="evenodd"
         id="path272" />
    </clipPath>
    <clipPath
       clipPathUnits="userSpaceOnUse"
       id="clipPath286">
      <path
         d="M 1.0729e-5,0 H 720.00001 V 540 H 1.0729e-5 Z"
         clip-rule="evenodd"
         id="path284" />
    </clipPath>
    <clipPath
       clipPathUnits="userSpaceOnUse"
       id="clipPath298">
      <path
         d="M 1.0729e-5,0 H 720.00001 V 540 H 1.0729e-5 Z"
         clip-rule="evenodd"
         id="path296" />
    </clipPath>
    <clipPath
       clipPathUnits="userSpaceOnUse"
       id="clipPath310">
      <path
         d="M 1.0729e-5,0 H 720.00001 V 540 H 1.0729e-5 Z"
         clip-rule="evenodd"
         id="path308" />
    </clipPath>
    <clipPath
       clipPathUnits="userSpaceOnUse"
       id="clipPath334">
      <path
         d="M 1.0729e-5,0 H 720.00001 V 540 H 1.0729e-5 Z"
         clip-rule="evenodd"
         id="path332" />
    </clipPath>
    <clipPath
       clipPathUnits="userSpaceOnUse"
       id="clipPath346">
      <path
         d="M 1.0729e-5,0 H 720.00001 V 540 H 1.0729e-5 Z"
         clip-rule="evenodd"
         id="path344" />
    </clipPath>
    <clipPath
       clipPathUnits="userSpaceOnUse"
       id="clipPath358">
      <path
         d="M 1.0729e-5,0 H 720.00001 V 540 H 1.0729e-5 Z"
         clip-rule="evenodd"
         id="path356" />
    </clipPath>
    <clipPath
       clipPathUnits="userSpaceOnUse"
       id="clipPath370">
      <path
         d="M 1.0729e-5,0 H 720.00001 V 540 H 1.0729e-5 Z"
         clip-rule="evenodd"
         id="path368" />
    </clipPath>
    <clipPath
       clipPathUnits="userSpaceOnUse"
       id="clipPath382">
      <path
         d="M 1.0729e-5,0 H 720.00001 V 540 H 1.0729e-5 Z"
         clip-rule="evenodd"
         id="path380" />
    </clipPath>
    <clipPath
       id="clip0">
      <rect
         x="911"
         y="683"
         width="310"
         height="247"
         id="rect919" />
    </clipPath>
  </defs>
  <sodipodi:namedview
     id="namedview4"
     pagecolor="#505050"
     bordercolor="#eeeeee"
     borderopacity="1"
     inkscape:showpageshadow="0"
     inkscape:pageopacity="0"
     inkscape:pagecheckerboard="0"
     inkscape:deskcolor="#505050"
     showgrid="false"
     showguides="true"
     inkscape:zoom="2.2611111"
     inkscape:cx="615.18428"
     inkscape:cy="510.14742"
     inkscape:window-width="1920"
     inkscape:window-height="1001"
     inkscape:window-x="-9"
     inkscape:window-y="-9"
     inkscape:window-maximized="1"
     inkscape:current-layer="g10">
    <inkscape:page
       x="0"
       y="0"
       id="page8"
       width="960"
       height="720" />
    <sodipodi:guide
       position="217.59214,32.285012"
       orientation="0,-1"
       id="guide948"
       inkscape:locked="false" />
  </sodipodi:namedview>
  <g
     id="g10"
     inkscape:groupmode="layer"
     inkscape:label="Page 1"
     transform="matrix(1.3333333,0,0,-1.3333333,0,720)">
    <g
       id="g12">
      <g
         id="g14"
         clip-path="url(#clipPath18)">
        <path
           d="M 0,6.1035e-5 H 720 V 540.00006 H 0 Z"
           style="fill:#190a09;fill-opacity:1;fill-rule:evenodd;stroke:none"
           id="path20" />
      </g>
    </g>
    <path
       d="M 108,60 362.18,414 612,60 Z"
       style="fill:none;stroke:#ffff00;stroke-width:4.5;stroke-linecap:butt;stroke-linejoin:round;stroke-miterlimit:10;stroke-dasharray:none;stroke-opacity:1"
       id="path22" />
    <path
       d="m 161.1,492.73 c -1.89,-1.11 -3.3,-2.29 -4.22,-3.56 -0.61,-0.84 -0.92,-1.69 -0.92,-2.55 0,-0.72 0.26,-1.36 0.78,-1.9 0.39,-0.42 0.93,-0.64 1.64,-0.64 0.78,0 1.68,0.44 2.72,1.32 z m 22.4,7.97 c -0.58,0 -1.05,-0.15 -1.43,-0.47 -0.58,-0.48 -1.05,-1.33 -1.42,-2.55 -0.36,-1.22 -0.55,-3.09 -0.55,-5.6 0,-2.77 0.21,-4.82 0.61,-6.14 0.41,-1.33 0.96,-2.29 1.67,-2.89 0.36,-0.29 0.85,-0.44 1.47,-0.44 1.38,0 2.68,1.08 3.89,3.23 v 11.53 c -1.15,2.22 -2.57,3.33 -4.24,3.33 z m -50.64,0 c -0.58,0 -1.05,-0.15 -1.43,-0.47 -0.58,-0.48 -1.05,-1.33 -1.42,-2.55 -0.36,-1.22 -0.55,-3.09 -0.55,-5.6 0,-2.77 0.21,-4.82 0.61,-6.14 0.41,-1.33 0.96,-2.29 1.67,-2.89 0.36,-0.29 0.85,-0.44 1.47,-0.44 1.38,0 2.68,1.08 3.89,3.23 v 11.53 c -1.15,2.22 -2.57,3.33 -4.24,3.33 z m -24.45,1.67 h 9.19 V 485 c 0,-1.55 0.18,-2.54 0.54,-2.97 0.36,-0.43 1.06,-0.67 2.11,-0.73 v -0.85 h -11.84 v 0.85 c 0.97,0.03 1.69,0.31 2.16,0.84 0.31,0.36 0.46,1.31 0.46,2.86 v 12.8 c 0,1.54 -0.18,2.53 -0.53,2.96 -0.36,0.43 -1.06,0.68 -2.09,0.74 z m -39.96,0 h 9.187 V 485 c 0,-1.55 0.18,-2.54 0.539,-2.97 0.36,-0.43 1.063,-0.67 2.11,-0.73 v -0.85 H 68.45 v 0.85 c 0.968,0.03 1.687,0.31 2.156,0.84 0.312,0.36 0.469,1.31 0.469,2.86 v 12.8 c 0,1.54 -0.18,2.53 -0.539,2.96 -0.36,0.43 -1.055,0.68 -2.086,0.74 z m 91.57,0.65 c 2.08,0 3.72,-0.44 4.93,-1.32 1.21,-0.88 2,-1.84 2.36,-2.87 0.22,-0.66 0.33,-2.17 0.33,-4.53 v -8.5 c 0,-1 0.03,-1.63 0.11,-1.89 0.08,-0.26 0.2,-0.45 0.35,-0.58 0.16,-0.12 0.34,-0.18 0.54,-0.18 0.41,0 0.82,0.29 1.25,0.86 l 0.7,-0.56 c -0.78,-1.15 -1.59,-1.99 -2.43,-2.52 -0.83,-0.52 -1.78,-0.78 -2.85,-0.78 -1.25,0 -2.22,0.29 -2.92,0.88 -0.71,0.58 -1.14,1.47 -1.29,2.66 -2.68,-2.36 -5.07,-3.54 -7.2,-3.54 -1.25,0 -2.29,0.41 -3.12,1.23 -0.82,0.82 -1.24,1.85 -1.24,3.08 0,1.67 0.72,3.18 2.16,4.51 1.44,1.34 4.57,3.11 9.4,5.33 v 2.21 c 0,1.65 -0.09,2.7 -0.27,3.13 -0.18,0.43 -0.52,0.8 -1.02,1.12 -0.5,0.32 -1.07,0.48 -1.69,0.48 -1.02,0 -1.85,-0.23 -2.51,-0.68 -0.4,-0.28 -0.61,-0.61 -0.61,-0.98 0,-0.33 0.22,-0.74 0.66,-1.22 0.59,-0.67 0.89,-1.32 0.89,-1.95 0,-0.76 -0.29,-1.41 -0.86,-1.95 -0.57,-0.54 -1.31,-0.81 -2.23,-0.81 -0.99,0 -1.81,0.29 -2.48,0.89 -0.66,0.59 -0.99,1.29 -0.99,2.08 0,1.13 0.44,2.2 1.33,3.23 0.89,1.02 2.14,1.81 3.73,2.35 1.59,0.55 3.25,0.82 4.97,0.82 z m -62.102,0 c 1.422,0 2.602,-0.39 3.542,-1.18 0.93,-0.79 1.56,-1.77 1.87,-2.94 0.25,-0.89 0.38,-2.6 0.38,-5.14 v -8.53 c 0,-1.68 0.15,-2.73 0.45,-3.15 0.31,-0.41 0.95,-0.67 1.91,-0.78 v -0.85 H 94.988 v 0.85 c 0.829,0.11 1.422,0.45 1.782,1.03 0.25,0.39 0.375,1.36 0.375,2.9 v 9.75 c 0,1.8 -0.071,2.93 -0.211,3.4 -0.141,0.47 -0.379,0.83 -0.715,1.09 -0.336,0.26 -0.707,0.39 -1.113,0.39 -1.344,0 -2.594,-0.96 -3.75,-2.88 v -11.75 c 0,-1.64 0.152,-2.68 0.457,-3.11 0.304,-0.44 0.871,-0.71 1.699,-0.82 v -0.85 H 82.426 v 0.85 c 0.922,0.09 1.578,0.39 1.969,0.89 0.265,0.34 0.398,1.36 0.398,3.04 v 12.38 c 0,1.65 -0.152,2.69 -0.457,3.09 -0.305,0.41 -0.941,0.67 -1.91,0.8 v 0.87 h 8.93 v -2.84 c 1.125,1.22 2.203,2.11 3.234,2.66 1.031,0.56 2.141,0.83 3.328,0.83 z m -34.117,0 c 0.875,0 1.574,-0.27 2.097,-0.81 0.524,-0.54 0.785,-1.3 0.785,-2.28 0,-1.05 -0.253,-1.86 -0.761,-2.44 -0.508,-0.58 -1.121,-0.87 -1.84,-0.87 -0.828,0 -1.547,0.27 -2.156,0.8 -0.61,0.53 -0.969,0.83 -1.079,0.89 -0.156,0.1 -0.335,0.14 -0.539,0.14 -0.453,0 -0.882,-0.17 -1.289,-0.51 -0.64,-0.53 -1.125,-1.29 -1.453,-2.28 -0.5,-1.51 -0.75,-3.18 -0.75,-5.01 v -5.04 l 0.024,-1.31 c 0,-0.89 0.054,-1.47 0.164,-1.72 0.187,-0.42 0.465,-0.73 0.832,-0.92 0.367,-0.2 0.988,-0.32 1.863,-0.36 v -0.85 H 47.863 v 0.85 c 0.953,0.07 1.598,0.34 1.934,0.78 0.336,0.45 0.504,1.62 0.504,3.53 v 12.12 c 0,1.25 -0.063,2.04 -0.188,2.39 -0.156,0.43 -0.383,0.75 -0.68,0.96 -0.296,0.2 -0.82,0.34 -1.57,0.42 v 0.87 h 8.953 v -4.97 c 1.453,2.26 2.727,3.77 3.821,4.51 1.093,0.74 2.148,1.11 3.164,1.11 z m 120.779,9.21 h 9.73 v -25.22 c 0,-1.7 0.04,-2.71 0.14,-3.02 0.12,-0.51 0.36,-0.9 0.71,-1.15 0.35,-0.25 0.97,-0.4 1.84,-0.47 v -0.77 l -9.26,-1.8 v 3.46 c -1.1,-1.34 -2.09,-2.25 -2.96,-2.74 -0.87,-0.48 -1.85,-0.72 -2.94,-0.72 -2.8,0 -5.01,1.25 -6.63,3.75 -1.32,2.03 -1.97,4.52 -1.97,7.47 0,2.36 0.4,4.48 1.22,6.34 0.81,1.87 1.92,3.28 3.34,4.23 1.41,0.96 2.93,1.43 4.55,1.43 1.05,0 1.98,-0.2 2.79,-0.61 0.82,-0.4 1.68,-1.11 2.6,-2.13 v 6.61 c 0,1.67 -0.07,2.68 -0.21,3.02 -0.18,0.46 -0.47,0.79 -0.84,1.01 -0.38,0.22 -1.08,0.33 -2.11,0.33 z m -50.64,0 h 9.73 v -25.22 c 0,-1.7 0.04,-2.71 0.14,-3.02 0.12,-0.51 0.36,-0.9 0.71,-1.15 0.35,-0.25 0.97,-0.4 1.84,-0.47 v -0.77 l -9.26,-1.8 v 3.46 c -1.1,-1.34 -2.09,-2.25 -2.96,-2.74 -0.87,-0.48 -1.85,-0.72 -2.94,-0.72 -2.8,0 -5.01,1.25 -6.63,3.75 -1.32,2.03 -1.97,4.52 -1.97,7.47 0,2.36 0.4,4.48 1.22,6.34 0.81,1.87 1.92,3.28 3.34,4.23 1.41,0.96 2.93,1.43 4.55,1.43 1.05,0 1.98,-0.2 2.79,-0.61 0.82,-0.4 1.68,-1.11 2.6,-2.13 v 6.61 c 0,1.67 -0.07,2.68 -0.21,3.02 -0.18,0.46 -0.47,0.79 -0.84,1.01 -0.38,0.22 -1.08,0.33 -2.11,0.33 z m -114.54,0 h 28.547 v -8.6 h -0.844 c -0.5,1.99 -1.055,3.41 -1.664,4.28 -0.61,0.87 -1.446,1.56 -2.508,2.07 -0.594,0.28 -1.633,0.43 -3.117,0.43 h -2.367 v -24.52 c 0,-1.63 0.089,-2.64 0.269,-3.05 0.18,-0.4 0.531,-0.76 1.055,-1.06 0.523,-0.31 1.238,-0.46 2.144,-0.46 h 1.055 v -0.87 H 25.329 v 0.87 h 1.055 c 0.922,0 1.664,0.16 2.227,0.49 0.406,0.22 0.726,0.6 0.961,1.13 0.171,0.37 0.257,1.36 0.257,2.95 v 24.52 h -2.297 c -2.14,0 -3.695,-0.46 -4.664,-1.36 -1.359,-1.27 -2.218,-3.07 -2.578,-5.42 H 19.4 Z m 94.92,0.75 c 1.01,0 1.87,-0.35 2.57,-1.06 0.71,-0.71 1.06,-1.57 1.06,-2.57 0,-1 -0.36,-1.85 -1.07,-2.55 -0.71,-0.71 -1.56,-1.06 -2.56,-1.06 -1,0 -1.86,0.35 -2.56,1.06 -0.7,0.7 -1.05,1.55 -1.05,2.55 0,1 0.35,1.86 1.05,2.57 0.7,0.71 1.56,1.06 2.56,1.06 z m -39.964,0 c 1.016,0 1.875,-0.35 2.578,-1.06 0.703,-0.71 1.055,-1.57 1.055,-2.57 0,-1 -0.356,-1.85 -1.067,-2.55 -0.711,-0.71 -1.566,-1.06 -2.566,-1.06 -1,0 -1.852,0.35 -2.555,1.06 -0.703,0.7 -1.054,1.55 -1.054,2.55 0,1 0.351,1.86 1.054,2.57 0.703,0.71 1.555,1.06 2.555,1.06 z"
       style="fill:#ffff00;fill-opacity:1;fill-rule:evenodd;stroke:none"
       id="path24" />
    <g
       id="g725"
       style="display:inline"
       inkscape:label="padre"
       class="fragment"
       data-fragment-index="1">
      <g
         id="g28">
        <g
           id="g30"
           clip-path="url(#clipPath34)">
          <text
             xml:space="preserve"
             transform="matrix(1,0,0,-1,312.34,457.97)"
             style="font-variant:normal;font-weight:bold;font-size:36px;font-family:'Times New Roman';-inkscape-font-specification:TimesNewRomanPS-BoldMT;writing-mode:lr-tb;fill:#ffff00;fill-opacity:1;fill-rule:nonzero;stroke:none"
             id="text38"><tspan
               x="0 21.996 39.995998 60.012001 75.348"
               y="0"
               sodipodi:role="line"
               id="tspan36">Padre</tspan></text>
        </g>
      </g>
      <g
         id="g40">
        <g
           id="g42"
           clip-path="url(#clipPath46)">
          <text
             xml:space="preserve"
             transform="matrix(1,0,0,-1,313.66,422.57)"
             style="font-style:italic;font-variant:normal;font-weight:normal;font-size:27.96px;font-family:'Times New Roman';-inkscape-font-specification:TimesNewRomanPS-ItalicMT;writing-mode:lr-tb;fill:#ffff00;fill-opacity:1;fill-rule:nonzero;stroke:none"
             id="text50"><tspan
               x="0 17.083561 24.85644 37.270679 44.148842 51.194759 65.174759 74.569321"
               y="0"
               sodipodi:role="line"
               id="tspan48">Efe. 1:3</tspan></text>
        </g>
      </g>
    </g>
    <g
       id="g124"
       style="display:inline">
      <g
         id="g126"
         clip-path="url(#clipPath130)"
         style="display:none">
        <text
           xml:space="preserve"
           transform="matrix(1,0,0,-1,701.62,5.304)"
           style="font-style:italic;font-variant:normal;font-weight:normal;font-size:27.96px;font-family:'Times New Roman';-inkscape-font-specification:TimesNewRomanPS-ItalicMT;writing-mode:lr-tb;fill:#ffff00;fill-opacity:1;fill-rule:nonzero;stroke:none"
           id="text134"><tspan
             x="0"
             y="0"
             id="tspan132">4</tspan></text>
      </g>
    </g>
    <g
       id="g965"
       class="fragment"
       data-fragment-index="2"
       style="display:inline">
      <g
         id="g785"
         style="display:inline"
         transform="translate(6,-7.5)">
        <g
           id="g52">
          <g
             id="g54"
             clip-path="url(#clipPath58)">
            <text
               xml:space="preserve"
               transform="matrix(1,0,0,-1,45.384,67.8)"
               style="font-variant:normal;font-weight:bold;font-size:36px;font-family:'Times New Roman';-inkscape-font-specification:TimesNewRomanPS-BoldMT;writing-mode:lr-tb;fill:#ffff00;fill-opacity:1;fill-rule:nonzero;stroke:none"
               id="text62"><tspan
                 x="0 28.007999 38.015999 50.004002"
                 y="0"
                 sodipodi:role="line"
                 id="tspan60">Hijo</tspan></text>
          </g>
        </g>
        <g
           id="g64">
          <g
             id="g66"
             clip-path="url(#clipPath70)">
            <text
               xml:space="preserve"
               transform="matrix(1,0,0,-1,8.904,32.4)"
               style="font-style:italic;font-variant:normal;font-weight:normal;font-size:27.96px;font-family:'Times New Roman';-inkscape-font-specification:TimesNewRomanPS-ItalicMT;writing-mode:lr-tb;fill:#ffff00;fill-opacity:1;fill-rule:nonzero;stroke:none"
               id="text74"><tspan
                 x="0 12.41424 26.394239 40.374241 54.438122 61.288319 75.268318 84.66288 98.642883 105.63288 112.70676 126.68676"
                 y="0"
                 sodipodi:role="line"
                 id="tspan72">Juan 1:1, 14</tspan></text>
          </g>
        </g>
      </g>
      <g
         clip-path="url(#clip0)"
         transform="matrix(0.65377403,0,0,-0.57065281,-83.904521,534.45436)"
         id="g934"
         style="display:inline;stroke:#000000;stroke-opacity:1;opacity:1"
         inkscape:label="e.santo">
        <text
           fill="#ffff00"
           font-family="'Times New Roman', 'Times New Roman_MSFontService', sans-serif"
           font-weight="700"
           font-size="60px"
           transform="translate(961.255,760)"
           id="text924"
           style="stroke:#000000;stroke-opacity:1">Espíritu</text>
        <text
           fill="#ffff00"
           font-family="'Times New Roman', 'Times New Roman_MSFontService', sans-serif"
           font-weight="700"
           font-size="60px"
           transform="translate(992.922,832)"
           id="text926"
           style="stroke:#000000;stroke-opacity:1">Santo</text>
        <text
           fill="#ffff00"
           font-family="'Times New Roman', 'Times New Roman_MSFontService', sans-serif"
           font-style="italic"
           font-weight="400"
           font-size="47px"
           transform="translate(939.897,891)"
           id="text928"
           style="stroke:#000000;stroke-opacity:1">Hechos 5:3</text>
        <text
           fill="#ffff00"
           font-family="'Times New Roman', 'Times New Roman_MSFontService', sans-serif"
           font-style="italic"
           font-weight="400"
           font-size="47px"
           transform="translate(1153.65,891)"
           id="text930"
           style="stroke:#000000;stroke-opacity:1">-</text>
        <text
           fill="#ffff00"
           font-family="'Times New Roman', 'Times New Roman_MSFontService', sans-serif"
           font-style="italic"
           font-weight="400"
           font-size="47px"
           transform="translate(1169.27,891)"
           id="text932"
           style="stroke:#000000;stroke-opacity:1">4</text>
      </g>
    </g>
    <g
       id="g1000"
       class="fragment"
       data-fragment-index="3">
      <g
         id="g747"
         style="display:inline">
        <g
           id="g136">
          <g
             id="g138"
             clip-path="url(#clipPath142)">
            <path
               d="m 497.85,301.99 -7.3,-3.06 -0.37,0.52 1.53,1.18 c 0.54,0.46 0.97,0.93 1.29,1.43 0.32,0.49 0.53,1.03 0.61,1.6 0.08,0.58 0.03,1.2 -0.16,1.86 -0.19,0.65 -0.52,1.3 -0.97,1.94 -1.23,1.7 -2.76,2.86 -4.61,3.46 -2.36,0.78 -4.96,0.85 -7.79,0.21 -2.34,-0.52 -4.42,-1.44 -6.26,-2.76 -1.88,-1.35 -2.98,-2.97 -3.31,-4.87 -0.33,-1.9 0.13,-3.72 1.39,-5.47 0.95,-1.33 2.09,-2.29 3.42,-2.9 1.33,-0.61 2.93,-0.92 4.79,-0.92 l 0.48,-0.67 c -2.41,-0.15 -4.47,0.13 -6.18,0.84 -1.7,0.71 -3.19,1.96 -4.46,3.74 -1.14,1.58 -1.81,3.22 -2.03,4.91 -0.21,1.69 0.06,3.29 0.8,4.79 0.74,1.5 1.8,2.74 3.18,3.73 2.11,1.52 4.58,2.43 7.39,2.73 2.81,0.31 5.5,-0.12 8.06,-1.27 2.56,-1.16 4.56,-2.74 6,-4.75 0.68,-0.94 1.21,-2.16 1.61,-3.65 0.17,-0.65 0.35,-1.09 0.51,-1.32 0.16,-0.23 0.36,-0.39 0.57,-0.5 0.22,-0.1 0.7,-0.19 1.43,-0.27 z m -2.42,-20.59 c -1.43,-1.03 -3.11,-1.66 -5.05,-1.91 -1.95,-0.25 -3.81,0.01 -5.6,0.77 -1.79,0.77 -3.14,1.79 -4.06,3.06 -0.93,1.31 -1.28,2.67 -1.04,4.09 0.24,1.42 1.02,2.61 2.35,3.56 1.4,1 3.09,1.61 5.08,1.82 1.98,0.2 3.87,-0.07 5.65,-0.83 1.79,-0.76 3.13,-1.77 4.04,-3.02 0.9,-1.26 1.23,-2.59 0.98,-4 -0.24,-1.41 -1.02,-2.59 -2.35,-3.54 z m -0.71,3.08 c 0.88,0.63 1.4,1.34 1.56,2.11 0.16,0.77 0,1.5 -0.49,2.18 -1.01,1.4 -2.93,1.97 -5.78,1.71 -2.85,-0.27 -5.26,-1.11 -7.24,-2.53 -0.91,-0.65 -1.44,-1.38 -1.6,-2.19 -0.17,-0.81 0,-1.56 0.5,-2.25 0.97,-1.34 2.87,-1.89 5.7,-1.63 2.84,0.25 5.29,1.12 7.35,2.6 z"
               style="fill:#ffff00;fill-opacity:1;fill-rule:nonzero;stroke:none"
               id="path144" />
          </g>
        </g>
        <g
           id="g146">
          <g
             id="g148"
             clip-path="url(#clipPath152)">
            <path
               d="m 501.35,270.72 -2.32,-0.78 -5.31,7.4 2.32,0.77 z"
               style="fill:#ffff00;fill-opacity:1;fill-rule:nonzero;stroke:none"
               id="path154" />
          </g>
        </g>
        <g
           id="g156">
          <g
             id="g158"
             clip-path="url(#clipPath162)">
            <path
               d="m 518.05,271.29 c 0.29,-0.4 0.4,-0.84 0.32,-1.31 -0.08,-0.47 -0.32,-0.85 -0.72,-1.14 -0.39,-0.28 -0.83,-0.38 -1.31,-0.3 -0.48,0.08 -0.86,0.31 -1.14,0.7 -0.28,0.39 -0.38,0.83 -0.3,1.31 0.08,0.48 0.31,0.86 0.7,1.14 0.4,0.29 0.84,0.4 1.31,0.32 0.48,-0.08 0.86,-0.32 1.14,-0.72 z m -5.53,-4.25 -12.04,-4.36 c -0.81,-0.3 -1.29,-0.49 -1.42,-0.59 -0.15,-0.11 -0.24,-0.24 -0.27,-0.4 -0.03,-0.16 0,-0.3 0.08,-0.43 0.11,-0.14 0.31,-0.25 0.6,-0.35 0.82,-0.23 1.82,-0.34 3.01,-0.33 l 0.03,-0.73 c -1.46,-0.06 -2.84,0.1 -4.14,0.49 -0.97,0.28 -1.67,0.72 -2.09,1.31 -0.28,0.39 -0.39,0.8 -0.34,1.21 0.06,0.42 0.26,0.75 0.62,1 0.35,0.26 1.02,0.56 2.01,0.91 l 7.73,2.73 c 1.26,0.45 2.03,0.77 2.3,0.96 0.21,0.15 0.32,0.35 0.35,0.59 0.03,0.24 -0.05,0.49 -0.23,0.75 -0.15,0.21 -0.52,0.61 -1.09,1.19 l 0.55,0.4 z m 11.03,-17.24 -1.78,-0.65 -1.71,2.38 c -0.39,-0.55 -0.8,-0.98 -1.25,-1.3 -1.26,-0.91 -2.76,-1.18 -4.5,-0.81 -1.76,0.37 -3.36,1.45 -4.81,3.25 -1.03,0.79 -1.93,1.29 -2.71,1.49 -0.29,0.09 -0.52,0.07 -0.68,-0.05 -0.19,-0.14 -0.3,-0.35 -0.34,-0.63 -0.03,-0.28 0.12,-0.83 0.46,-1.64 l 1.34,-3.23 c 0.74,-1.8 1.04,-3.12 0.9,-3.97 -0.15,-0.85 -0.56,-1.51 -1.22,-1.98 -0.78,-0.56 -1.7,-0.78 -2.76,-0.67 -1.06,0.11 -2.17,0.59 -3.33,1.43 -1.17,0.85 -2.23,1.94 -3.19,3.29 -0.85,1.18 -1.48,2.35 -1.9,3.53 -0.42,1.17 -0.54,2.14 -0.36,2.9 0.17,0.76 0.51,1.32 1.02,1.68 0.41,0.29 0.93,0.46 1.57,0.51 0.64,0.05 1.24,-0.03 1.82,-0.24 0.37,-0.12 1.32,-0.54 2.86,-1.26 0.03,0.69 0.24,1.17 0.65,1.47 0.39,0.27 0.93,0.37 1.63,0.29 0.71,-0.08 1.77,-0.55 3.18,-1.43 -0.56,1.19 -0.72,2.33 -0.48,3.43 0.23,1.1 0.77,1.95 1.59,2.54 1.36,0.97 2.99,1.25 4.91,0.83 1.91,-0.42 3.58,-1.61 5,-3.59 0.51,-0.71 0.86,-1.35 1.04,-1.91 0.19,-0.55 0.28,-1.16 0.28,-1.81 z m -5.8,3.34 c 0.76,0.55 1.21,1.19 1.35,1.93 0.13,0.74 -0.05,1.45 -0.54,2.14 -0.77,1.07 -1.95,1.57 -3.53,1.5 -1.59,-0.08 -2.96,-0.54 -4.13,-1.38 -0.74,-0.53 -1.18,-1.18 -1.32,-1.96 -0.15,-0.78 0.01,-1.49 0.47,-2.13 0.36,-0.51 0.85,-0.89 1.46,-1.17 0.62,-0.27 1.28,-0.4 2,-0.37 0.72,0.02 1.52,0.21 2.41,0.56 0.89,0.35 1.5,0.65 1.83,0.88 z m -14.7,-0.19 c -0.91,0.52 -1.78,0.78 -2.61,0.78 -0.84,0 -1.53,-0.2 -2.06,-0.58 -0.63,-0.45 -0.94,-1.11 -0.94,-1.97 0,-1.25 0.56,-2.66 1.7,-4.24 0.98,-1.36 2.04,-2.36 3.2,-2.99 1.15,-0.64 2.1,-0.69 2.83,-0.16 0.37,0.26 0.6,0.69 0.67,1.29 0.08,0.6 -0.15,1.48 -0.68,2.66 -0.28,0.65 -0.99,2.38 -2.11,5.21 z m 30.49,-15.91 -10.3,-3.63 c -1.53,-0.54 -2.46,-0.92 -2.8,-1.16 -0.17,-0.13 -0.27,-0.25 -0.31,-0.37 -0.03,-0.12 -0.01,-0.23 0.06,-0.33 0.12,-0.17 0.32,-0.29 0.61,-0.38 0.28,-0.09 1.23,-0.16 2.82,-0.21 l -0.02,-0.67 c -1.73,-0.1 -3.16,0.04 -4.29,0.43 -0.74,0.26 -1.28,0.64 -1.63,1.12 -0.26,0.38 -0.37,0.74 -0.31,1.1 0.06,0.36 0.26,0.66 0.59,0.9 0.32,0.23 0.8,0.48 1.42,0.74 0.81,0.35 2.66,1.02 5.53,2 -3.82,-0.29 -6.62,-0.25 -8.41,0.11 -1.8,0.37 -3.03,1.02 -3.7,1.95 -0.31,0.44 -0.43,0.92 -0.34,1.44 0.09,0.53 0.36,0.95 0.83,1.29 0.71,0.51 1.96,1.09 3.73,1.73 l 5.31,1.93 c 1.27,0.45 2.04,0.77 2.3,0.95 0.11,0.08 0.18,0.2 0.2,0.33 0.02,0.14 0,0.26 -0.07,0.36 -0.14,0.2 -0.35,0.34 -0.64,0.44 -0.29,0.1 -1.14,0.17 -2.56,0.22 V 248 c 1.61,0.08 2.97,-0.1 4.07,-0.52 0.85,-0.31 1.45,-0.73 1.82,-1.24 0.25,-0.36 0.35,-0.72 0.29,-1.11 -0.07,-0.38 -0.27,-0.7 -0.63,-0.95 -0.51,-0.37 -1.57,-0.84 -3.16,-1.41 l -5.58,-1.97 c -1.52,-0.53 -2.45,-0.92 -2.78,-1.16 -0.18,-0.13 -0.29,-0.29 -0.31,-0.49 -0.02,-0.19 0.04,-0.39 0.18,-0.59 0.23,-0.32 0.68,-0.61 1.35,-0.89 0.68,-0.28 1.86,-0.45 3.54,-0.52 1.69,-0.07 3.2,-0.03 4.54,0.1 1.34,0.13 3.27,0.63 5.78,1.49 l 1.31,0.47 z m 10.81,-14.33 -11.68,-4.17 -1.53,-0.62 c -0.14,-0.06 -0.26,-0.12 -0.34,-0.18 -0.16,-0.11 -0.25,-0.26 -0.3,-0.43 -0.03,-0.14 -0.01,-0.27 0.08,-0.38 0.09,-0.12 0.28,-0.23 0.57,-0.32 0.55,-0.17 1.47,-0.26 2.78,-0.26 l 0.01,-0.73 c -1.46,-0.05 -2.7,0.08 -3.72,0.4 -1.02,0.33 -1.74,0.78 -2.16,1.37 -0.3,0.41 -0.41,0.79 -0.36,1.15 0.06,0.35 0.29,0.66 0.68,0.94 0.46,0.34 1.15,0.67 2.06,1.01 l 1.29,0.47 c -2.52,0.08 -4.48,0.41 -5.88,0.99 -1.01,0.42 -1.77,0.99 -2.29,1.71 -0.5,0.7 -0.64,1.5 -0.43,2.42 0.21,0.92 0.82,1.74 1.83,2.47 1.52,1.08 3.44,1.77 5.77,2.07 2.34,0.3 4.51,0.11 6.52,-0.57 1.59,-0.52 2.73,-1.26 3.43,-2.23 0.41,-0.58 0.61,-1.18 0.58,-1.78 -0.03,-0.6 -0.32,-1.26 -0.88,-1.96 l 1.99,0.65 z m -4.39,4.55 c -0.44,0.6 -1.19,1.05 -2.26,1.32 -1.5,0.39 -3.32,0.4 -5.45,0.01 -2.14,-0.38 -3.85,-1.04 -5.13,-1.96 -0.65,-0.47 -1.05,-0.99 -1.19,-1.59 -0.14,-0.59 -0.06,-1.1 0.24,-1.52 0.74,-1.03 2.32,-1.61 4.73,-1.73 3.2,-0.17 5.88,0.52 8.02,2.06 0.81,0.58 1.28,1.16 1.42,1.73 0.13,0.57 0,1.13 -0.38,1.68 z m 18.66,-8.85 -20.5,-7.32 c -1.02,-0.37 -1.62,-0.62 -1.81,-0.76 -0.14,-0.1 -0.23,-0.23 -0.26,-0.39 -0.03,-0.16 0,-0.3 0.1,-0.44 0.13,-0.18 0.35,-0.31 0.66,-0.41 0.75,-0.21 1.72,-0.3 2.93,-0.25 l -0.13,-0.75 c -1.93,-0.01 -3.42,0.18 -4.47,0.58 -0.76,0.31 -1.33,0.71 -1.69,1.21 -0.26,0.36 -0.35,0.76 -0.28,1.18 0.07,0.42 0.27,0.74 0.6,0.98 0.34,0.24 1.15,0.59 2.44,1.06 l 16.17,5.74 c 1.32,0.47 2.06,0.77 2.22,0.88 0.23,0.17 0.35,0.39 0.37,0.68 0.02,0.29 -0.11,0.62 -0.38,1 -0.16,0.22 -0.43,0.53 -0.82,0.93 l 0.53,0.38 z"
               style="fill:#ffff00;fill-opacity:1;fill-rule:nonzero;stroke:none"
               id="path164" />
          </g>
        </g>
      </g>
      <g
         id="g761"
         style="display:inline">
        <g
           id="g166">
          <g
             id="g168"
             clip-path="url(#clipPath172)">
            <text
               xml:space="preserve"
               transform="matrix(1,0,0,-1,283.25,27.48)"
               style="font-style:italic;font-variant:normal;font-weight:normal;font-size:36.024px;font-family:'Times New Roman';-inkscape-font-specification:TimesNewRomanPS-ItalicMT;writing-mode:lr-tb;fill:#ffff00;fill-opacity:1;fill-rule:nonzero;stroke:none"
               id="text176"><tspan
                 x="0 15.959956"
                 y="0"
                 sodipodi:role="line"
                 id="tspan174">co</tspan></text>
          </g>
        </g>
        <g
           id="g178">
          <g
             id="g180"
             clip-path="url(#clipPath184)">
            <text
               xml:space="preserve"
               transform="matrix(1,0,0,-1,317.21,27.48)"
               style="font-style:italic;font-variant:normal;font-weight:normal;font-size:36.024px;font-family:'Times New Roman';-inkscape-font-specification:TimesNewRomanPS-ItalicMT;writing-mode:lr-tb;fill:#ffff00;fill-opacity:1;fill-rule:nonzero;stroke:none"
               id="text188"><tspan
                 x="0"
                 y="0"
                 id="tspan186">-</tspan></text>
          </g>
        </g>
        <g
           id="g190">
          <g
             id="g192"
             clip-path="url(#clipPath196)">
            <text
               xml:space="preserve"
               transform="matrix(1,0,0,-1,329.21,27.48)"
               style="font-style:italic;font-variant:normal;font-weight:normal;font-size:36.024px;font-family:'Times New Roman';-inkscape-font-specification:TimesNewRomanPS-ItalicMT;writing-mode:lr-tb;fill:#ffff00;fill-opacity:1;fill-rule:nonzero;stroke:none"
               id="text200"><tspan
                 x="0 15.994656 26.009329 41.895912 55.909248 73.921249"
                 y="0"
                 sodipodi:role="line"
                 id="tspan198">eterno</tspan></text>
          </g>
        </g>
      </g>
      <g
         id="g736"
         style="display:inline">
        <g
           id="g202">
          <g
             id="g204"
             clip-path="url(#clipPath208)">
            <path
               d="m 183.67,206.64 c 0.43,-1.86 0.53,-3.49 0.33,-4.9 -0.21,-1.4 -0.74,-2.65 -1.57,-3.75 -1.01,-1.32 -2.17,-2.07 -3.48,-2.24 -1.31,-0.17 -2.6,0.22 -3.86,1.18 -1.42,1.09 -2.52,2.56 -3.29,4.4 -0.77,1.85 -1.08,3.78 -0.91,5.78 0.17,2.01 0.74,3.66 1.73,4.95 0.78,1.02 1.57,1.61 2.37,1.79 0.81,0.18 1.52,0.04 2.14,-0.43 0.58,-0.44 0.93,-1 1.07,-1.66 0.12,-0.5 0.04,-0.95 -0.26,-1.33 -0.22,-0.29 -0.49,-0.46 -0.82,-0.51 -0.34,-0.04 -0.64,0.04 -0.92,0.25 -0.18,0.14 -0.32,0.3 -0.41,0.48 -0.1,0.18 -0.17,0.46 -0.21,0.84 -0.04,0.38 -0.09,0.63 -0.15,0.75 -0.06,0.12 -0.14,0.21 -0.24,0.29 -0.19,0.15 -0.43,0.19 -0.69,0.11 -0.39,-0.13 -0.78,-0.44 -1.15,-0.93 -0.7,-0.92 -1.07,-2.07 -1.11,-3.45 -0.04,-1.39 0.29,-2.85 0.99,-4.38 0.85,-1.86 2,-3.34 3.43,-4.43 0.95,-0.73 1.91,-1.03 2.88,-0.91 0.96,0.11 1.8,0.64 2.51,1.57 0.55,0.72 0.91,1.56 1.09,2.54 0.18,0.98 0.13,2.26 -0.14,3.86 z m 6.12,18.85 c 1.4,-1.06 2.5,-2.49 3.3,-4.28 0.81,-1.78 1.1,-3.64 0.9,-5.58 -0.21,-1.93 -0.79,-3.52 -1.74,-4.77 -0.98,-1.28 -2.18,-2.01 -3.61,-2.19 -1.43,-0.18 -2.79,0.22 -4.09,1.21 -1.37,1.04 -2.44,2.48 -3.22,4.32 -0.78,1.84 -1.06,3.73 -0.86,5.66 0.2,1.93 0.78,3.51 1.71,4.74 0.94,1.23 2.12,1.93 3.54,2.11 1.42,0.18 2.77,-0.23 4.07,-1.22 z m -2.74,-1.58 c -0.86,0.66 -1.69,0.95 -2.47,0.88 -0.79,-0.07 -1.43,-0.44 -1.95,-1.11 -1.04,-1.37 -1.02,-3.38 0.06,-6.03 1.08,-2.64 2.59,-4.71 4.53,-6.19 0.89,-0.67 1.74,-0.97 2.56,-0.89 0.82,0.08 1.49,0.47 2.01,1.15 1,1.31 0.97,3.29 -0.11,5.93 -1.07,2.64 -2.61,4.72 -4.63,6.26 z"
               style="fill:#ffff00;fill-opacity:1;fill-rule:nonzero;stroke:none"
               id="path210" />
          </g>
        </g>
        <g
           id="g212">
          <g
             id="g214"
             clip-path="url(#clipPath218)">
            <path
               d="m 198.28,234.27 1.42,-1.99 -5.52,-7.24 -1.42,1.99 z"
               style="fill:#ffff00;fill-opacity:1;fill-rule:nonzero;stroke:none"
               id="path220" />
          </g>
        </g>
        <g
           id="g222">
          <g
             id="g224"
             clip-path="url(#clipPath228)">
            <path
               d="m 192.85,250.08 c 0.3,0.39 0.69,0.62 1.16,0.68 0.48,0.07 0.91,-0.05 1.3,-0.35 0.39,-0.29 0.61,-0.68 0.68,-1.16 0.06,-0.49 -0.05,-0.92 -0.34,-1.3 -0.3,-0.38 -0.68,-0.61 -1.17,-0.67 -0.48,-0.07 -0.92,0.04 -1.3,0.34 -0.39,0.29 -0.62,0.68 -0.68,1.16 -0.06,0.47 0.05,0.91 0.35,1.3 z m 5.69,-4.05 7.68,-10.24 c 0.52,-0.69 0.85,-1.09 0.98,-1.19 0.15,-0.11 0.3,-0.16 0.46,-0.14 0.16,0.01 0.29,0.08 0.38,0.2 0.11,0.14 0.16,0.37 0.16,0.68 -0.01,0.85 -0.2,1.84 -0.56,2.97 l 0.69,0.24 c 0.49,-1.37 0.74,-2.74 0.74,-4.1 0.01,-1.01 -0.2,-1.8 -0.64,-2.38 -0.29,-0.38 -0.65,-0.61 -1.06,-0.68 -0.41,-0.06 -0.79,0.03 -1.14,0.3 -0.34,0.26 -0.82,0.81 -1.45,1.66 l -4.87,6.59 c -0.8,1.08 -1.33,1.72 -1.59,1.92 -0.2,0.16 -0.43,0.21 -0.67,0.17 -0.24,-0.05 -0.46,-0.2 -0.65,-0.45 -0.15,-0.2 -0.43,-0.67 -0.81,-1.39 l -0.55,0.42 z m 5.84,7.65 4.94,-6.71 c -1.27,3.73 -1.96,6.37 -2.08,7.92 -0.11,1.55 0.16,2.76 0.82,3.61 0.35,0.47 0.8,0.74 1.34,0.8 0.53,0.07 1.05,-0.08 1.54,-0.46 0.56,-0.43 1.21,-1.13 1.93,-2.11 l 4.58,-6.19 c 0.53,-0.72 0.87,-1.13 1.02,-1.25 0.13,-0.1 0.27,-0.14 0.42,-0.14 0.14,0.01 0.25,0.06 0.31,0.14 0.09,0.11 0.13,0.29 0.13,0.54 -0.02,0.8 -0.2,1.79 -0.55,2.99 l 0.59,0.23 c 0.58,-1.81 0.84,-3.31 0.78,-4.48 -0.05,-0.82 -0.24,-1.45 -0.56,-1.87 -0.27,-0.35 -0.58,-0.54 -0.95,-0.59 -0.36,-0.04 -0.72,0.07 -1.08,0.34 -0.44,0.34 -1.09,1.08 -1.94,2.23 l -4.38,5.91 c -0.54,0.74 -1.01,1.26 -1.4,1.56 -0.19,0.14 -0.38,0.19 -0.59,0.16 -0.21,-0.03 -0.38,-0.14 -0.52,-0.31 -0.2,-0.26 -0.32,-0.66 -0.38,-1.2 -0.11,-1 0.04,-2.25 0.43,-3.73 0.4,-1.48 1.03,-3.21 1.9,-5.18 0.46,-1.05 1.05,-2.07 1.77,-3.08 l 1.77,-2.45 -1.6,-2.1 -6.81,9.22 c -0.82,1.1 -1.34,1.73 -1.56,1.9 -0.2,0.15 -0.44,0.21 -0.72,0.16 -0.28,-0.04 -0.51,-0.19 -0.7,-0.43 -0.08,-0.11 -0.21,-0.32 -0.39,-0.63 l -0.32,-0.6 -0.57,0.3 z m 12.9,16.22 0.73,-0.95 -1.55,-2.04 4.93,-6.2 c 2.17,-2.74 3.73,-5.01 4.68,-6.82 1.33,-2.57 1.96,-4.71 1.89,-6.44 -0.04,-1.32 -0.39,-2.41 -1.05,-3.27 -0.43,-0.56 -0.96,-0.9 -1.59,-1.04 -0.45,-0.11 -0.87,-0.02 -1.24,0.26 -0.3,0.23 -0.46,0.54 -0.5,0.95 -0.04,0.4 0.07,0.78 0.34,1.12 0.19,0.25 0.43,0.4 0.72,0.46 0.29,0.05 0.54,0 0.74,-0.16 0.21,-0.16 0.32,-0.4 0.35,-0.73 0.02,-0.25 0.06,-0.4 0.12,-0.45 0.09,-0.06 0.18,-0.08 0.27,-0.05 0.13,0.03 0.26,0.14 0.4,0.32 0.31,0.4 0.5,0.91 0.59,1.55 0.08,0.63 0.01,1.31 -0.23,2.04 -0.23,0.72 -0.7,1.6 -1.41,2.62 -0.29,0.43 -1.31,1.77 -3.07,4.01 l -7.61,9.65 -1.85,-2.44 -0.77,0.9 c 0.59,0.78 0.94,1.36 1.07,1.75 0.13,0.39 0.14,0.82 0.03,1.31 -0.11,0.49 -0.42,1.25 -0.93,2.3 -0.7,1.4 -1.17,2.59 -1.4,3.56 -0.3,1.32 -0.37,2.52 -0.21,3.6 0.17,1.07 0.51,1.94 1.02,2.62 0.54,0.7 1.15,1.13 1.84,1.29 0.68,0.15 1.24,0.07 1.66,-0.25 0.32,-0.25 0.51,-0.56 0.57,-0.95 0.06,-0.38 -0.03,-0.74 -0.29,-1.08 -0.22,-0.29 -0.48,-0.46 -0.79,-0.51 -0.31,-0.06 -0.58,0.01 -0.81,0.18 -0.15,0.12 -0.28,0.32 -0.41,0.61 -0.13,0.28 -0.23,0.46 -0.3,0.51 -0.13,0.1 -0.26,0.14 -0.39,0.1 -0.19,-0.05 -0.37,-0.19 -0.55,-0.42 -0.45,-0.59 -0.66,-1.26 -0.64,-2.01 0.01,-1 0.36,-2.15 1.04,-3.45 0.35,-0.67 1.37,-2.17 3.04,-4.5 z m -1.43,10.33 c 0.3,0.39 0.69,0.62 1.17,0.68 0.47,0.06 0.91,-0.05 1.3,-0.35 0.38,-0.29 0.6,-0.68 0.67,-1.17 0.06,-0.48 -0.05,-0.91 -0.34,-1.3 -0.29,-0.38 -0.68,-0.6 -1.17,-0.67 -0.48,-0.06 -0.91,0.05 -1.3,0.34 -0.39,0.3 -0.61,0.69 -0.68,1.16 -0.06,0.48 0.05,0.92 0.35,1.31 z m 5.69,-4.06 7.68,-10.24 c 0.52,-0.69 0.85,-1.08 0.98,-1.18 0.15,-0.12 0.3,-0.16 0.46,-0.15 0.16,0.02 0.29,0.09 0.38,0.21 0.11,0.14 0.16,0.37 0.16,0.67 -0.01,0.86 -0.2,1.85 -0.56,2.98 l 0.7,0.24 c 0.48,-1.37 0.73,-2.74 0.74,-4.1 0.01,-1.01 -0.21,-1.81 -0.65,-2.38 -0.29,-0.39 -0.64,-0.61 -1.06,-0.68 -0.41,-0.07 -0.79,0.03 -1.13,0.29 -0.35,0.27 -0.83,0.82 -1.46,1.66 l -4.87,6.6 c -0.8,1.08 -1.33,1.72 -1.59,1.92 -0.2,0.15 -0.43,0.21 -0.67,0.16 -0.24,-0.04 -0.45,-0.19 -0.64,-0.44 -0.16,-0.21 -0.43,-0.67 -0.82,-1.39 l -0.55,0.42 z m 5.84,7.66 4.94,-6.71 c -1.27,3.72 -1.96,6.36 -2.07,7.91 -0.12,1.56 0.15,2.76 0.81,3.62 0.35,0.46 0.8,0.73 1.34,0.8 0.54,0.07 1.05,-0.09 1.55,-0.46 0.56,-0.43 1.2,-1.13 1.92,-2.11 l 4.59,-6.2 c 0.53,-0.71 0.87,-1.13 1.02,-1.24 0.13,-0.1 0.26,-0.15 0.41,-0.14 0.14,0.01 0.25,0.05 0.31,0.14 0.09,0.11 0.13,0.29 0.13,0.54 -0.01,0.79 -0.2,1.79 -0.55,2.99 l 0.6,0.23 c 0.57,-1.81 0.83,-3.31 0.77,-4.49 -0.05,-0.82 -0.23,-1.44 -0.56,-1.87 -0.26,-0.34 -0.58,-0.54 -0.94,-0.58 -0.37,-0.05 -0.73,0.07 -1.08,0.34 -0.45,0.34 -1.1,1.08 -1.95,2.23 l -4.38,5.91 c -0.54,0.74 -1.01,1.25 -1.4,1.55 -0.18,0.14 -0.38,0.2 -0.59,0.17 -0.21,-0.03 -0.38,-0.14 -0.52,-0.32 -0.2,-0.26 -0.32,-0.65 -0.38,-1.19 -0.1,-1.01 0.04,-2.25 0.44,-3.73 0.39,-1.49 1.02,-3.21 1.89,-5.19 0.46,-1.04 1.05,-2.06 1.77,-3.07 l 1.77,-2.46 -1.6,-2.09 -6.81,9.21 c -0.82,1.11 -1.34,1.74 -1.55,1.9 -0.21,0.16 -0.45,0.21 -0.73,0.17 -0.28,-0.05 -0.51,-0.19 -0.69,-0.43 -0.09,-0.12 -0.22,-0.33 -0.4,-0.63 l -0.32,-0.6 -0.56,0.3 z m 5.43,18.62 c 0.3,0.4 0.69,0.62 1.17,0.69 0.47,0.06 0.91,-0.06 1.3,-0.35 0.38,-0.3 0.6,-0.68 0.67,-1.17 0.06,-0.48 -0.05,-0.92 -0.34,-1.3 -0.29,-0.38 -0.68,-0.6 -1.17,-0.67 -0.48,-0.06 -0.91,0.05 -1.3,0.34 -0.39,0.3 -0.61,0.69 -0.68,1.16 -0.06,0.48 0.05,0.91 0.35,1.3 z m 5.69,-4.05 7.68,-10.24 c 0.52,-0.69 0.85,-1.08 0.98,-1.18 0.15,-0.12 0.3,-0.17 0.46,-0.15 0.16,0.02 0.29,0.09 0.38,0.21 0.11,0.14 0.16,0.36 0.16,0.67 -0.01,0.85 -0.2,1.84 -0.56,2.97 l 0.7,0.25 c 0.48,-1.37 0.73,-2.74 0.74,-4.1 0.01,-1.01 -0.21,-1.81 -0.65,-2.38 -0.29,-0.39 -0.64,-0.61 -1.06,-0.68 -0.41,-0.07 -0.79,0.03 -1.13,0.29 -0.35,0.27 -0.83,0.82 -1.46,1.66 l -4.87,6.6 c -0.8,1.08 -1.33,1.72 -1.59,1.92 -0.2,0.15 -0.43,0.21 -0.67,0.16 -0.24,-0.04 -0.45,-0.19 -0.64,-0.44 -0.16,-0.21 -0.43,-0.67 -0.82,-1.39 l -0.55,0.42 z m 3.23,11.42 2.97,-3.99 1.67,2.19 0.7,-0.91 -1.66,-2.18 6.41,-8.69 c 0.68,-0.94 1.16,-1.51 1.42,-1.7 0.16,-0.13 0.3,-0.18 0.45,-0.17 0.14,0.01 0.25,0.07 0.32,0.17 0.18,0.23 0.25,0.66 0.22,1.3 -0.02,0.36 -0.21,1.3 -0.58,2.8 l 0.7,0.2 c 0.6,-1.81 0.86,-3.3 0.79,-4.45 -0.05,-0.79 -0.27,-1.45 -0.68,-1.98 -0.31,-0.41 -0.69,-0.65 -1.15,-0.72 -0.45,-0.06 -0.88,0.06 -1.28,0.36 -0.5,0.39 -1.16,1.12 -1.97,2.21 l -6.31,8.51 -1.61,-2.11 -0.44,0.55 c 0.51,1.24 0.74,2.41 0.7,3.51 -0.03,1.11 -0.41,2.6 -1.14,4.48 z m 18.3,7.73 c 1.4,-1.06 2.5,-2.49 3.31,-4.27 0.8,-1.79 1.1,-3.65 0.89,-5.58 -0.21,-1.94 -0.79,-3.53 -1.74,-4.78 -0.97,-1.27 -2.18,-2 -3.61,-2.19 -1.43,-0.18 -2.79,0.22 -4.08,1.21 -1.37,1.04 -2.45,2.49 -3.23,4.33 -0.77,1.83 -1.06,3.72 -0.86,5.65 0.21,1.93 0.78,3.51 1.72,4.74 0.94,1.23 2.11,1.93 3.53,2.11 1.42,0.18 2.78,-0.23 4.07,-1.22 z m -2.73,-1.58 c -0.87,0.66 -1.69,0.96 -2.48,0.88 -0.78,-0.07 -1.43,-0.44 -1.94,-1.11 -1.05,-1.37 -1.03,-3.38 0.05,-6.02 1.09,-2.65 2.6,-4.71 4.54,-6.19 0.88,-0.68 1.73,-0.98 2.56,-0.89 0.82,0.08 1.49,0.46 2.01,1.14 1,1.31 0.96,3.29 -0.11,5.93 -1.08,2.64 -2.62,4.73 -4.63,6.26 z"
               style="fill:#ffff00;fill-opacity:1;fill-rule:nonzero;stroke:none"
               id="path230" />
          </g>
        </g>
      </g>
    </g>
    <g
       id="g917"
       style="display:inline"
       class="fragment"
       data-fragment-index="4">
      <g
         id="g232">
        <g
           id="g234"
           clip-path="url(#clipPath238)">
          <text
             xml:space="preserve"
             transform="matrix(1,0,0,-1,317.3,329.4)"
             style="font-variant:normal;font-weight:normal;font-size:36.024px;font-family:'Times New Roman';-inkscape-font-specification:TimesNewRomanPSMT;writing-mode:lr-tb;fill:#ffff00;fill-opacity:1;fill-rule:nonzero;stroke:none"
             id="text242"><tspan
               x="0 26.009329 54.035999 72.047997"
               y="0"
               sodipodi:role="line"
               id="tspan240">Amor</tspan></text>
        </g>
      </g>
      <g
         id="g244"
         transform="translate(-21)">
        <g
           id="g246"
           clip-path="url(#clipPath250)">
          <text
             xml:space="preserve"
             transform="matrix(1,0,0,-1,279.24,286.18)"
             style="font-variant:normal;font-weight:normal;font-size:36px;font-family:'Times New Roman';-inkscape-font-specification:TimesNewRomanPSMT;writing-mode:lr-tb;fill:#ffff00;fill-opacity:1;fill-rule:nonzero;stroke:none"
             id="text254"><tspan
               x="52.200001 66.204002 84.204002 98.208 108.216 118.224 134.20799 144.216"
               sodipodi:role="line"
               id="tspan252">Justicia</tspan></text>
        </g>
      </g>
      <g
         id="g256">
        <g
           id="g258"
           clip-path="url(#clipPath262)">
          <text
             xml:space="preserve"
             transform="matrix(1,0,0,-1,291.24,242.98)"
             style="font-variant:normal;font-weight:normal;font-size:36.024px;font-family:'Times New Roman';-inkscape-font-specification:TimesNewRomanPSMT;writing-mode:lr-tb;fill:#ffff00;fill-opacity:1;fill-rule:nonzero;stroke:none"
             id="text266"><tspan
               x="0 20.029345 38.041344 56.053345 72.047997 84.043991 100.03865 118.05065"
               y="0"
               sodipodi:role="line"
               id="tspan264">Soberano</tspan></text>
        </g>
      </g>
      <g
         id="g268">
        <g
           id="g270"
           clip-path="url(#clipPath274)">
          <text
             xml:space="preserve"
             transform="matrix(1,0,0,-1,311.3,199.75)"
             style="font-variant:normal;font-weight:normal;font-size:36px;font-family:'Times New Roman';-inkscape-font-specification:TimesNewRomanPSMT;writing-mode:lr-tb;fill:#ffff00;fill-opacity:1;fill-rule:nonzero;stroke:none"
             id="text278"><tspan
               x="0 21.996 32.004002 47.880001 59.868 77.867996"
               y="0"
               sodipodi:role="line"
               id="tspan276">Eterno</tspan></text>
        </g>
      </g>
      <g
         id="g280">
        <g
           id="g282"
           clip-path="url(#clipPath286)">
          <text
             xml:space="preserve"
             transform="matrix(1,0,0,-1,205.32,156.55)"
             style="font-variant:normal;font-weight:normal;font-size:36px;font-family:'Times New Roman';-inkscape-font-specification:TimesNewRomanPSMT;writing-mode:lr-tb;fill:#ffff00;fill-opacity:1;fill-rule:nonzero;stroke:none"
             id="text290"><tspan
               x="0 22.068001 38.051998 50.040001 66.024002 82.008003 92.015999 110.016 125.856 143.856 161.92799 173.916 191.916 219.924 237.924 247.93201 263.91599 281.91599 291.78"
               y="0"
               sodipodi:role="line"
               id="tspan288">Veracidad Inmutable</tspan></text>
        </g>
      </g>
      <g
         id="g292">
        <g
           id="g294"
           clip-path="url(#clipPath298)">
          <text
             xml:space="preserve"
             transform="matrix(1,0,0,-1,165.36,113.33)"
             style="font-variant:normal;font-weight:normal;font-size:36px;font-family:'Times New Roman';-inkscape-font-specification:TimesNewRomanPSMT;writing-mode:lr-tb;fill:#ffff00;fill-opacity:1;fill-rule:nonzero;stroke:none"
             id="text302"><tspan
               x="0 25.992001 54 72 82.008003 96.012001 111.996 122.004 137.88 155.88 165.888 181.87199 200.01601 226.008 254.01601 272.01599 282.02399 300.02399 318.02399 328.03201 343.90799 361.90799 371.91599"
               y="0"
               sodipodi:role="line"
               id="tspan300">Omnisciente Omnipotente</tspan></text>
        </g>
      </g>
      <g
         id="g304">
        <g
           id="g306"
           clip-path="url(#clipPath310)">
          <text
             xml:space="preserve"
             transform="matrix(1,0,0,-1,258.36,70.128)"
             style="font-variant:normal;font-weight:normal;font-size:36px;font-family:'Times New Roman';-inkscape-font-specification:TimesNewRomanPSMT;writing-mode:lr-tb;fill:#ffff00;fill-opacity:1;fill-rule:nonzero;stroke:none"
             id="text314"><tspan
               x="0 25.992001 54 72 82.008003 100.008 111.996 127.98 141.98399 157.968 175.968 185.976"
               y="0"
               sodipodi:role="line"
               id="tspan312">Omnipresente</tspan></text>
        </g>
      </g>
    </g>
    <path
       d="m 525.98,504 h 9.19 v -17.36 c 0,-1.55 0.18,-2.54 0.54,-2.97 0.36,-0.43 1.06,-0.68 2.11,-0.74 v -0.84 h -11.84 v 0.84 c 0.97,0.03 1.69,0.31 2.16,0.85 0.31,0.36 0.47,1.31 0.47,2.86 v 12.79 c 0,1.55 -0.18,2.54 -0.54,2.97 -0.36,0.43 -1.05,0.67 -2.09,0.74 z m -4.64,0.66 c 0.87,0 1.57,-0.27 2.09,-0.81 0.53,-0.54 0.79,-1.3 0.79,-2.28 0,-1.05 -0.26,-1.86 -0.76,-2.44 -0.51,-0.58 -1.12,-0.87 -1.84,-0.87 -0.83,0 -1.55,0.27 -2.16,0.8 -0.61,0.53 -0.97,0.83 -1.08,0.89 -0.15,0.09 -0.33,0.14 -0.54,0.14 -0.45,0 -0.88,-0.17 -1.29,-0.52 -0.64,-0.53 -1.12,-1.29 -1.45,-2.27 -0.5,-1.52 -0.75,-3.19 -0.75,-5.02 v -5.04 l 0.02,-1.31 c 0,-0.89 0.06,-1.46 0.17,-1.71 0.19,-0.42 0.46,-0.73 0.83,-0.92 0.37,-0.2 0.99,-0.32 1.86,-0.37 v -0.84 H 505.4 v 0.84 c 0.95,0.08 1.6,0.34 1.93,0.79 0.34,0.44 0.51,1.62 0.51,3.52 v 12.12 c 0,1.25 -0.07,2.05 -0.19,2.39 -0.16,0.44 -0.39,0.76 -0.68,0.96 -0.3,0.21 -0.82,0.35 -1.57,0.43 V 504 h 8.95 v -4.97 c 1.45,2.27 2.73,3.77 3.82,4.52 1.09,0.74 2.15,1.11 3.17,1.11 z m -44.41,9.21 h 28.55 v -8.6 h -0.84 c -0.5,1.98 -1.06,3.41 -1.67,4.28 -0.61,0.86 -1.44,1.55 -2.5,2.07 -0.6,0.28 -1.64,0.42 -3.12,0.42 h -2.37 v -24.51 c 0,-1.63 0.09,-2.64 0.27,-3.05 0.18,-0.41 0.53,-0.76 1.06,-1.07 0.52,-0.3 1.23,-0.45 2.14,-0.45 h 1.05 v -0.87 h -16.64 v 0.87 h 1.06 c 0.92,0 1.66,0.16 2.23,0.49 0.4,0.22 0.72,0.59 0.96,1.12 0.17,0.38 0.25,1.36 0.25,2.96 v 24.51 h -2.29 c -2.14,0 -3.7,-0.45 -4.67,-1.36 -1.36,-1.26 -2.22,-3.07 -2.58,-5.41 h -0.89 z m 54.96,0.75 c 1.02,0 1.88,-0.36 2.58,-1.07 0.7,-0.71 1.05,-1.56 1.05,-2.56 0,-1 -0.35,-1.85 -1.06,-2.56 -0.71,-0.7 -1.57,-1.05 -2.57,-1.05 -1,0 -1.85,0.35 -2.55,1.05 -0.71,0.71 -1.06,1.56 -1.06,2.56 0,1 0.35,1.85 1.06,2.56 0.7,0.71 1.55,1.07 2.55,1.07 z"
       style="fill:#ffff00;fill-opacity:1;fill-rule:evenodd;stroke:none"
       id="path316" />
    <path
       d="m 539.49,490.69 h 13.664 v 4.8516 H 539.49 Z"
       style="fill:#ffff00;fill-opacity:1;fill-rule:evenodd;stroke:none"
       id="path320" />
    <path
       d="m 661.23,494.37 c -1.89,-1.11 -3.3,-2.3 -4.22,-3.56 -0.61,-0.85 -0.91,-1.7 -0.91,-2.56 0,-0.72 0.26,-1.35 0.77,-1.9 0.39,-0.42 0.94,-0.63 1.64,-0.63 0.78,0 1.69,0.44 2.72,1.31 z m 22.41,7.97 c -0.58,0 -1.06,-0.16 -1.43,-0.47 -0.58,-0.48 -1.05,-1.34 -1.42,-2.55 -0.37,-1.22 -0.55,-3.09 -0.55,-5.61 0,-2.76 0.2,-4.81 0.61,-6.14 0.4,-1.33 0.96,-2.29 1.66,-2.88 0.36,-0.3 0.85,-0.45 1.48,-0.45 1.37,0 2.67,1.08 3.89,3.24 v 11.53 c -1.16,2.22 -2.57,3.33 -4.24,3.33 z m -50.64,0 c -0.58,0 -1.06,-0.16 -1.43,-0.47 -0.58,-0.48 -1.05,-1.34 -1.42,-2.55 -0.37,-1.22 -0.55,-3.09 -0.55,-5.61 0,-2.76 0.2,-4.81 0.61,-6.14 0.4,-1.33 0.96,-2.29 1.66,-2.88 0.36,-0.3 0.85,-0.45 1.48,-0.45 1.37,0 2.67,1.08 3.89,3.24 v 11.53 c -1.16,2.22 -2.57,3.33 -4.24,3.33 z M 608.54,504 h 9.19 v -17.36 c 0,-1.55 0.18,-2.54 0.54,-2.97 0.36,-0.43 1.06,-0.68 2.11,-0.74 v -0.84 h -11.84 v 0.84 c 0.97,0.03 1.69,0.31 2.16,0.85 0.31,0.36 0.47,1.31 0.47,2.86 v 12.79 c 0,1.55 -0.18,2.54 -0.54,2.97 -0.36,0.43 -1.05,0.67 -2.09,0.74 z m -52.78,0 h 8.93 v -14.97 c 0,-1.57 0.07,-2.57 0.22,-3.03 0.15,-0.45 0.38,-0.79 0.7,-1.03 0.32,-0.23 0.69,-0.35 1.12,-0.35 0.56,0 1.07,0.15 1.52,0.45 0.62,0.4 1.37,1.22 2.25,2.46 v 11.71 c 0,1.66 -0.15,2.69 -0.46,3.1 -0.3,0.4 -0.94,0.67 -1.91,0.8 V 504 h 8.93 v -17.15 c 0,-1.68 0.16,-2.72 0.47,-3.13 0.31,-0.42 0.95,-0.68 1.9,-0.79 v -0.84 h -8.93 v 2.93 c -1.05,-1.25 -2.1,-2.16 -3.14,-2.73 -1.05,-0.57 -2.22,-0.86 -3.52,-0.86 -1.23,0 -2.33,0.38 -3.29,1.14 -0.96,0.76 -1.61,1.64 -1.93,2.66 -0.33,1.01 -0.5,2.79 -0.5,5.32 v 8.69 c 0,1.66 -0.15,2.69 -0.45,3.1 -0.31,0.4 -0.94,0.67 -1.91,0.8 z m 104.39,0.66 c 2.08,0 3.73,-0.44 4.94,-1.33 1.21,-0.88 1.99,-1.84 2.35,-2.87 0.22,-0.65 0.33,-2.16 0.33,-4.52 v -8.51 c 0,-1 0.04,-1.63 0.12,-1.88 0.08,-0.26 0.19,-0.45 0.35,-0.58 0.15,-0.12 0.33,-0.19 0.54,-0.19 0.4,0 0.82,0.29 1.24,0.87 l 0.7,-0.56 c -0.78,-1.16 -1.59,-2 -2.42,-2.52 -0.84,-0.52 -1.79,-0.79 -2.85,-0.79 -1.25,0 -2.23,0.3 -2.93,0.88 -0.7,0.59 -1.13,1.48 -1.29,2.66 -2.67,-2.36 -5.07,-3.54 -7.19,-3.54 -1.25,0 -2.29,0.41 -3.12,1.23 -0.83,0.82 -1.24,1.85 -1.24,3.09 0,1.67 0.71,3.17 2.15,4.51 1.44,1.33 4.57,3.11 9.4,5.33 v 2.2 c 0,1.66 -0.09,2.7 -0.27,3.13 -0.18,0.43 -0.52,0.81 -1.02,1.13 -0.5,0.32 -1.06,0.48 -1.69,0.48 -1.01,0 -1.85,-0.23 -2.5,-0.68 -0.41,-0.28 -0.61,-0.61 -0.61,-0.99 0,-0.32 0.22,-0.73 0.65,-1.22 0.6,-0.67 0.89,-1.32 0.89,-1.94 0,-0.77 -0.28,-1.42 -0.85,-1.96 -0.57,-0.54 -1.32,-0.81 -2.24,-0.81 -0.98,0 -1.81,0.3 -2.47,0.89 -0.67,0.6 -1,1.29 -1,2.09 0,1.13 0.45,2.2 1.34,3.22 0.89,1.03 2.13,1.81 3.72,2.36 1.6,0.55 3.25,0.82 4.97,0.82 z m -62.1,0 c 1.42,0 2.6,-0.4 3.54,-1.18 0.94,-0.79 1.56,-1.77 1.88,-2.95 0.25,-0.89 0.37,-2.6 0.37,-5.13 v -8.53 c 0,-1.69 0.15,-2.74 0.46,-3.15 0.3,-0.42 0.94,-0.68 1.91,-0.79 v -0.84 h -11.09 v 0.84 c 0.83,0.11 1.42,0.46 1.78,1.03 0.25,0.39 0.38,1.36 0.38,2.91 v 9.75 c 0,1.8 -0.07,2.93 -0.21,3.4 -0.14,0.47 -0.38,0.83 -0.72,1.09 -0.33,0.26 -0.7,0.38 -1.11,0.38 -1.34,0 -2.59,-0.96 -3.75,-2.88 v -11.74 c 0,-1.64 0.15,-2.68 0.46,-3.12 0.3,-0.43 0.87,-0.71 1.7,-0.82 v -0.84 h -11.09 v 0.84 c 0.92,0.1 1.58,0.39 1.97,0.89 0.26,0.35 0.4,1.36 0.4,3.05 v 12.37 c 0,1.66 -0.15,2.69 -0.46,3.1 -0.3,0.4 -0.94,0.67 -1.91,0.8 V 504 h 8.93 v -2.83 c 1.13,1.22 2.2,2.1 3.23,2.66 1.04,0.55 2.15,0.83 3.33,0.83 z m 86.67,9.21 h 9.72 v -25.22 c 0,-1.7 0.05,-2.71 0.14,-3.02 0.13,-0.52 0.37,-0.9 0.72,-1.15 0.35,-0.25 0.96,-0.41 1.84,-0.47 v -0.77 l -9.26,-1.81 v 3.47 c -1.11,-1.34 -2.1,-2.26 -2.97,-2.74 -0.86,-0.49 -1.84,-0.73 -2.94,-0.73 -2.79,0 -5,1.25 -6.63,3.75 -1.31,2.03 -1.97,4.53 -1.97,7.48 0,2.36 0.41,4.47 1.22,6.34 0.81,1.87 1.93,3.28 3.34,4.23 1.41,0.95 2.93,1.43 4.56,1.43 1.05,0 1.98,-0.2 2.79,-0.61 0.81,-0.41 1.68,-1.12 2.6,-2.13 v 6.61 c 0,1.67 -0.07,2.68 -0.21,3.02 -0.19,0.45 -0.47,0.79 -0.85,1.01 -0.37,0.22 -1.07,0.33 -2.1,0.33 z m -50.64,0 h 9.72 v -25.22 c 0,-1.7 0.05,-2.71 0.14,-3.02 0.13,-0.52 0.37,-0.9 0.72,-1.15 0.35,-0.25 0.96,-0.41 1.84,-0.47 v -0.77 l -9.26,-1.81 v 3.47 c -1.11,-1.34 -2.1,-2.26 -2.97,-2.74 -0.86,-0.49 -1.84,-0.73 -2.94,-0.73 -2.79,0 -5,1.25 -6.63,3.75 -1.31,2.03 -1.97,4.53 -1.97,7.48 0,2.36 0.41,4.47 1.22,6.34 0.81,1.87 1.93,3.28 3.34,4.23 1.41,0.95 2.93,1.43 4.56,1.43 1.05,0 1.98,-0.2 2.79,-0.61 0.81,-0.41 1.68,-1.12 2.6,-2.13 v 6.61 c 0,1.67 -0.07,2.68 -0.21,3.02 -0.19,0.45 -0.47,0.79 -0.85,1.01 -0.37,0.22 -1.07,0.33 -2.1,0.33 z m -19.63,0.75 c 1.02,0 1.88,-0.36 2.58,-1.07 0.7,-0.71 1.05,-1.56 1.05,-2.56 0,-1 -0.35,-1.85 -1.06,-2.56 -0.71,-0.7 -1.57,-1.05 -2.57,-1.05 -1,0 -1.85,0.35 -2.55,1.05 -0.71,0.71 -1.06,1.56 -1.06,2.56 0,1 0.35,1.85 1.06,2.56 0.7,0.71 1.55,1.07 2.55,1.07 z"
       style="display:inline;fill:#ffff00;fill-opacity:1;fill-rule:evenodd;stroke:none"
       id="path324" />
    <g
       id="g705"
       style="display:inline"
       class="fragment"
       data-fragment-index="5">
      <g
         id="g328">
        <g
           id="g330"
           clip-path="url(#clipPath334)">
          <text
             xml:space="preserve"
             transform="matrix(1,0,0,-1,41.808,407.76)"
             style="font-variant:normal;font-weight:normal;font-size:36.024px;font-family:'Times New Roman';-inkscape-font-specification:TimesNewRomanPSMT;writing-mode:lr-tb;fill:#ffff00;fill-opacity:1;fill-rule:nonzero;stroke:none"
             id="text338"><tspan
               x="0 26.009329 44.021328 53.027328 79.036659 89.051331 107.06333"
               y="0"
               sodipodi:role="line"
               id="tspan336">Un Dios</tspan></text>
        </g>
      </g>
      <g
         id="g340">
        <g
           id="g342"
           clip-path="url(#clipPath346)">
          <text
             xml:space="preserve"
             transform="matrix(1,0,0,-1,47.088,372.34)"
             style="font-style:italic;font-variant:normal;font-weight:normal;font-size:27.96px;font-family:'Times New Roman';-inkscape-font-specification:TimesNewRomanPS-ItalicMT;writing-mode:lr-tb;fill:#ffff00;fill-opacity:1;fill-rule:nonzero;stroke:none"
             id="text350"><tspan
               x="0 13.98 20.969999 35.033878 42.806759 62.993881 69.983879 76.973877 91.037758 100.34844"
               y="0"
               sodipodi:role="line"
               id="tspan348">1 Tim. 2:5</tspan></text>
        </g>
      </g>
    </g>
    <g
       id="g376"
       style="display:inline"
       class="fragment"
       data-fragment-index="6">
      <g
         id="g378"
         clip-path="url(#clipPath382)">
        <g
           id="g687">
          <g
             id="g352">
            <g
               id="g354"
               clip-path="url(#clipPath358)">
              <text
                 xml:space="preserve"
                 transform="matrix(1,0,0,-1,507.62,407.76)"
                 style="font-variant:normal;font-weight:normal;font-size:36.024px;font-family:'Times New Roman';-inkscape-font-specification:TimesNewRomanPSMT;writing-mode:lr-tb;fill:#ffff00;fill-opacity:1;fill-rule:nonzero;stroke:none"
                 id="text362"><tspan
                   x="0 20.641752 32.637745 48.632401 62.645737 71.723785 89.735786 105.73044 117.72643 131.73976 149.75177 167.76376 183.75842"
                   y="0"
                   sodipodi:role="line"
                   id="tspan360">Tres personas</tspan></text>
            </g>
          </g>
          <g
             id="g364">
            <g
               id="g366"
               clip-path="url(#clipPath370)">
              <text
                 xml:space="preserve"
                 transform="matrix(1,0,0,-1,546.5,364.54)"
                 style="font-variant:normal;font-weight:normal;font-size:36px;font-family:'Times New Roman';-inkscape-font-specification:TimesNewRomanPSMT;writing-mode:lr-tb;fill:#ffff00;fill-opacity:1;fill-rule:nonzero;stroke:none"
                 id="text374"><tspan
                   x="0 18 28.007999 42.012001 52.02 62.028 80.028 90.036003 106.02"
                   y="0"
                   sodipodi:role="line"
                   id="tspan372">distintas</tspan></text>
            </g>
          </g>
          <text
             xml:space="preserve"
             transform="matrix(1,0,0,-1,544.1,329.14)"
             style="font-style:italic;font-variant:normal;font-weight:normal;font-size:27.96px;font-family:'Times New Roman';-inkscape-font-specification:TimesNewRomanPS-ItalicMT;writing-mode:lr-tb;fill:#ffff00;fill-opacity:1;fill-rule:nonzero;stroke:none"
             id="text386"><tspan
               x="0 23.29068 37.326599 45.09948 52.089481 59.21928 73.255203 87.291122 96.601799 110.7216"
               y="0"
               sodipodi:role="line"
               id="tspan384">Mat. 28:19</tspan></text>
        </g>
      </g>
    </g>
  </g>
</svg>
