<?xml version="1.0" encoding="UTF-8" standalone="no"?>
<!-- Created with Inkscape (http://www.inkscape.org/) -->

<svg
   version="1.1"
   id="svg2"
   width="960"
   height="720"
   viewBox="0 0 960 720"
   sodipodi:docname="naturaleza-pecaminosa.svg"
   inkscape:version="1.2.2 (732a01da63, 2022-12-09)"
   xmlns:inkscape="http://www.inkscape.org/namespaces/inkscape"
   xmlns:sodipodi="http://sodipodi.sourceforge.net/DTD/sodipodi-0.dtd"
   xmlns="http://www.w3.org/2000/svg"
   xmlns:svg="http://www.w3.org/2000/svg">
  <defs
     id="defs6">
    <clipPath
       clipPathUnits="userSpaceOnUse"
       id="clipPath18">
      <path
         d="M 0,1.2207e-4 H 720 V 540.00012 H 0 Z"
         clip-rule="evenodd"
         id="path16" />
    </clipPath>
    <clipPath
       clipPathUnits="userSpaceOnUse"
       id="clipPath28">
      <path
         d="M 84,102 H 216 V 282 H 84 Z"
         clip-rule="evenodd"
         id="path26" />
    </clipPath>
    <clipPath
       clipPathUnits="userSpaceOnUse"
       id="clipPath38">
      <path
         d="M 0,0 H 216.78 V 233.93 H 0 Z"
         id="path36" />
    </clipPath>
    <clipPath
       clipPathUnits="userSpaceOnUse"
       id="clipPath102">
      <path
         d="M -6.1035e-5,540 H 720 V 1.8311e-4 H -6.1035e-5"
         clip-rule="evenodd"
         id="path100" />
    </clipPath>
    <clipPath
       clipPathUnits="userSpaceOnUse"
       id="clipPath112">
      <path
         d="M -6.1035e-5,540 H 720 V 1.8311e-4 H -6.1035e-5"
         clip-rule="evenodd"
         id="path110" />
    </clipPath>
    <clipPath
       clipPathUnits="userSpaceOnUse"
       id="clipPath122">
      <path
         d="M 1.0729e-5,0 H 720.00001 V 540 H 1.0729e-5 Z"
         clip-rule="evenodd"
         id="path120" />
    </clipPath>
    <clipPath
       clipPathUnits="userSpaceOnUse"
       id="clipPath134">
      <path
         d="M 1.0729e-5,0 H 720.00001 V 540 H 1.0729e-5 Z"
         clip-rule="evenodd"
         id="path132" />
    </clipPath>
    <clipPath
       clipPathUnits="userSpaceOnUse"
       id="clipPath146">
      <path
         d="M 1.0729e-5,0 H 720.00001 V 540 H 1.0729e-5 Z"
         clip-rule="evenodd"
         id="path144" />
    </clipPath>
    <clipPath
       clipPathUnits="userSpaceOnUse"
       id="clipPath160">
      <path
         d="M 1.0729e-5,0 H 720.00001 V 540 H 1.0729e-5 Z"
         clip-rule="evenodd"
         id="path158" />
    </clipPath>
    <clipPath
       clipPathUnits="userSpaceOnUse"
       id="clipPath172">
      <path
         d="M 0,540 H 720 V 1.8311e-4 H 6.1035e-5"
         clip-rule="evenodd"
         id="path170" />
    </clipPath>
    <clipPath
       clipPathUnits="userSpaceOnUse"
       id="clipPath182">
      <path
         d="M 1.0729e-5,0 H 720.00001 V 540 H 1.0729e-5 Z"
         clip-rule="evenodd"
         id="path180" />
    </clipPath>
    <clipPath
       clipPathUnits="userSpaceOnUse"
       id="clipPath194">
      <path
         d="M 1.0729e-5,0 H 720.00001 V 540 H 1.0729e-5 Z"
         clip-rule="evenodd"
         id="path192" />
    </clipPath>
    <clipPath
       clipPathUnits="userSpaceOnUse"
       id="clipPath206">
      <path
         d="M 1.0729e-5,0 H 720.00001 V 540 H 1.0729e-5 Z"
         clip-rule="evenodd"
         id="path204" />
    </clipPath>
    <clipPath
       clipPathUnits="userSpaceOnUse"
       id="clipPath218">
      <path
         d="M 1.0729e-5,0 H 720.00001 V 540 H 1.0729e-5 Z"
         clip-rule="evenodd"
         id="path216" />
    </clipPath>
    <clipPath
       clipPathUnits="userSpaceOnUse"
       id="clipPath230">
      <path
         d="M 1.0729e-5,0 H 720.00001 V 540 H 1.0729e-5 Z"
         clip-rule="evenodd"
         id="path228" />
    </clipPath>
    <clipPath
       clipPathUnits="userSpaceOnUse"
       id="clipPath242">
      <path
         d="M 1.0729e-5,0 H 720.00001 V 540 H 1.0729e-5 Z"
         clip-rule="evenodd"
         id="path240" />
    </clipPath>
    <clipPath
       clipPathUnits="userSpaceOnUse"
       id="clipPath254">
      <path
         d="M 1.0729e-5,0 H 720.00001 V 540 H 1.0729e-5 Z"
         clip-rule="evenodd"
         id="path252" />
    </clipPath>
    <clipPath
       clipPathUnits="userSpaceOnUse"
       id="clipPath266">
      <path
         d="M 1.0729e-5,0 H 720.00001 V 540 H 1.0729e-5 Z"
         clip-rule="evenodd"
         id="path264" />
    </clipPath>
    <clipPath
       clipPathUnits="userSpaceOnUse"
       id="clipPath278">
      <path
         d="M 1.0729e-5,0 H 720.00001 V 540 H 1.0729e-5 Z"
         clip-rule="evenodd"
         id="path276" />
    </clipPath>
    <clipPath
       clipPathUnits="userSpaceOnUse"
       id="clipPath290">
      <path
         d="M 546,108 H 678 V 288 H 546 Z"
         clip-rule="evenodd"
         id="path288" />
    </clipPath>
    <clipPath
       clipPathUnits="userSpaceOnUse"
       id="clipPath300">
      <path
         d="M 0,0 H 216.78 V 233.93 H 0 Z"
         id="path298" />
    </clipPath>
    <clipPath
       clipPathUnits="userSpaceOnUse"
       id="clipPath364">
      <path
         d="M 1.0729e-5,0 H 720.00001 V 540 H 1.0729e-5 Z"
         clip-rule="evenodd"
         id="path362" />
    </clipPath>
    <clipPath
       clipPathUnits="userSpaceOnUse"
       id="clipPath376">
      <path
         d="M 1.0729e-5,0 H 720.00001 V 540 H 1.0729e-5 Z"
         clip-rule="evenodd"
         id="path374" />
    </clipPath>
    <clipPath
       clipPathUnits="userSpaceOnUse"
       id="clipPath388">
      <path
         d="M 1.0729e-5,0 H 720.00001 V 540 H 1.0729e-5 Z"
         clip-rule="evenodd"
         id="path386" />
    </clipPath>
    <clipPath
       clipPathUnits="userSpaceOnUse"
       id="clipPath400">
      <path
         d="M 1.0729e-5,0 H 720.00001 V 540 H 1.0729e-5 Z"
         clip-rule="evenodd"
         id="path398" />
    </clipPath>
  </defs>
  <sodipodi:namedview
     id="namedview4"
     pagecolor="#505050"
     bordercolor="#eeeeee"
     borderopacity="1"
     inkscape:showpageshadow="0"
     inkscape:pageopacity="0"
     inkscape:pagecheckerboard="0"
     inkscape:deskcolor="#505050"
     showgrid="false"
     inkscape:zoom="1.1305556"
     inkscape:cx="405.99509"
     inkscape:cy="360.44226"
     inkscape:window-width="1920"
     inkscape:window-height="1001"
     inkscape:window-x="-9"
     inkscape:window-y="-9"
     inkscape:window-maximized="1"
     inkscape:current-layer="g10">
    <inkscape:page
       x="0"
       y="0"
       id="page8"
       width="960"
       height="720" />
  </sodipodi:namedview>
  <g
     id="g10"
     inkscape:groupmode="layer"
     inkscape:label="Page 1"
     transform="matrix(1.3333333,0,0,-1.3333333,0,720)">
    <g
       id="g12">
      <g
         id="g14"
         clip-path="url(#clipPath18)">
        <path
           d="M 0,6.1035e-5 H 720 V 540.00006 H 0 Z"
           style="fill:#190a09;fill-opacity:1;fill-rule:evenodd;stroke:none"
           id="path20" />
      </g>
    </g>
    <g
       id="g1255"
       style="display:inline"
       inkscape:label="1"
       class="fragment"
       data-fragment-index="1">
      <g
         id="g96">
        <g
           id="g98"
           clip-path="url(#clipPath102)">
          <path
             d="m 380.81,287.87 34.34,57.17 -7.15,-54.37 34.45,6.29 -15.67,-28.27 34.47,-11.14 -29.74,-21.81 29.68,-31.33 -37.79,6.51 6.38,-53.65 -30.09,39.85 -10.35,-53.66 -17.9,50.91 -21.63,-67.07 -1.43,61.72 -25.17,-18.59 10.14,37.18 -44.72,-3.25 30.89,26.61 -27.24,34.7 37.77,7.38 -29.81,57.19 52.29,-45.55 11.5,40.63 z"
             style="fill:#000000;fill-opacity:1;fill-rule:evenodd;stroke:none"
             id="path104" />
        </g>
      </g>
      <g
         id="g106">
        <g
           id="g108"
           clip-path="url(#clipPath112)">
          <path
             d="m 380.81,287.87 34.34,57.17 -7.15,-54.37 34.45,6.29 -15.67,-28.27 34.47,-11.14 -29.74,-21.81 29.68,-31.33 -37.79,6.51 6.38,-53.65 -30.09,39.85 -10.35,-53.66 -17.9,50.91 -21.63,-67.07 -1.43,61.72 -25.17,-18.59 10.14,37.18 -44.72,-3.25 30.89,26.61 -27.24,34.7 37.77,7.38 -29.81,57.19 52.29,-45.55 11.5,40.63 z"
             style="fill:none;stroke:#ff0000;stroke-width:2.25;stroke-linecap:butt;stroke-linejoin:miter;stroke-miterlimit:10;stroke-dasharray:none;stroke-opacity:1"
             id="path114" />
        </g>
      </g>
      <g
         id="g116">
        <g
           id="g118"
           clip-path="url(#clipPath122)">
          <text
             xml:space="preserve"
             transform="matrix(1,0,0,-1,304.22,254.69)"
             style="font-variant:normal;font-weight:normal;font-size:36px;font-family:'Times New Roman';-inkscape-font-specification:TimesNewRomanPSMT;writing-mode:lr-tb;fill:#ffff00;fill-opacity:1;fill-rule:nonzero;stroke:none"
             id="text126"><tspan
               x="0 25.992001 41.976002 51.984001 69.984001 81.972 97.956001 107.964 123.84 139.82401"
               y="0"
               sodipodi:role="line"
               id="tspan124">Naturaleza</tspan></text>
        </g>
      </g>
      <g
         id="g128">
        <g
           id="g130"
           clip-path="url(#clipPath134)">
          <text
             xml:space="preserve"
             transform="matrix(1,0,0,-1,296.18,211.49)"
             style="font-variant:normal;font-weight:normal;font-size:36.024px;font-family:'Times New Roman';-inkscape-font-specification:TimesNewRomanPSMT;writing-mode:lr-tb;fill:#ffff00;fill-opacity:1;fill-rule:nonzero;stroke:none"
             id="text138"><tspan
               x="0 20.029345 36.023998 52.018658 68.013313 95.895889 105.91056 123.92256 141.93456 155.94789"
               y="0"
               sodipodi:role="line"
               id="tspan136">Pecaminosa</tspan></text>
        </g>
      </g>
    </g>
    <g
       id="g140">
      <g
         id="g142"
         clip-path="url(#clipPath146)">
        <text
           xml:space="preserve"
           transform="matrix(1,0,0,-1,19.2,463.99)"
           style="font-variant:normal;font-weight:normal;font-size:72.024px;font-family:'Times New Roman';-inkscape-font-specification:TimesNewRomanPSMT;writing-mode:lr-tb;fill:#ffff00;fill-opacity:1;fill-rule:nonzero;stroke:none"
           id="text150"><tspan
             x="0 52.001328 83.97998 104.00266 140.01465 163.99864 195.97731 215.99997 247.97864 279.74121"
             y="0"
             sodipodi:role="line"
             id="tspan148">Naturaleza</tspan></text>
      </g>
    </g>
    <path
       d="M 19.2,456.21 H 187.65 356.1 524.55 693 v -3.48 H 524.55 356.1 187.65 19.2 Z"
       style="fill:#ffff00;fill-opacity:1;fill-rule:evenodd;stroke:none"
       id="path152" />
    <g
       id="g154">
      <g
         id="g156"
         clip-path="url(#clipPath160)">
        <text
           xml:space="preserve"
           transform="matrix(1,0,0,-1,349.25,463.99)"
           style="font-variant:normal;font-weight:normal;font-size:72.024px;font-family:'Times New Roman';-inkscape-font-specification:TimesNewRomanPSMT;writing-mode:lr-tb;fill:#ffff00;fill-opacity:1;fill-rule:nonzero;stroke:none"
           id="text164"><tspan
             x="0 40.045345 72.024002 104.00266 135.98131 192.01599 212.03865 248.05066 284.06265 312.07999"
             y="0"
             sodipodi:role="line"
             id="tspan162">Pecaminosa</tspan></text>
      </g>
    </g>
    <g
       id="g166">
      <g
         id="g168"
         clip-path="url(#clipPath172)">
        <path
           d="m 690,450 v 0"
           style="fill:none;stroke:#000000;stroke-width:0.75;stroke-linecap:butt;stroke-linejoin:round;stroke-miterlimit:10;stroke-dasharray:none;stroke-opacity:1"
           id="path174" />
      </g>
    </g>
    <g
       id="g1269"
       inkscape:label="2"
       class="fragment"
       data-fragment-index="2">
      <g
         id="g176">
        <g
           id="g178"
           clip-path="url(#clipPath182)">
          <text
             xml:space="preserve"
             transform="matrix(1,0,0,-1,260.21,393.55)"
             style="font-variant:normal;font-weight:bold;font-size:36px;font-family:'Times New Roman';-inkscape-font-specification:TimesNewRomanPS-BoldMT;writing-mode:lr-tb;fill:#ffff00;fill-opacity:1;fill-rule:nonzero;stroke:none"
             id="text186"><tspan
               x="0 21.996 37.98 53.964001 71.963997 91.980003"
               y="0"
               sodipodi:role="line"
               id="tspan184">Pecado</tspan></text>
        </g>
      </g>
      <g
         id="g188">
        <g
           id="g190"
           clip-path="url(#clipPath194)">
          <text
             xml:space="preserve"
             transform="matrix(1,0,0,-1,379.27,393.55)"
             style="font-variant:normal;font-weight:bold;font-size:36px;font-family:'Times New Roman';-inkscape-font-specification:TimesNewRomanPS-BoldMT;writing-mode:lr-tb;fill:#ffff00;fill-opacity:1;fill-rule:nonzero;stroke:none"
             id="text198"><tspan
               x="0 21.996 37.98 53.964001 67.968002 85.968002 105.984 123.984"
               y="0"
               sodipodi:role="line"
               id="tspan196">Personal</tspan></text>
        </g>
      </g>
      <g
         id="g200">
        <g
           id="g202"
           clip-path="url(#clipPath206)">
          <text
             xml:space="preserve"
             transform="matrix(1,0,0,-1,314.69,350.35)"
             style="font-style:italic;font-variant:normal;font-weight:normal;font-size:36px;font-family:'Times New Roman';-inkscape-font-specification:TimesNewRomanPS-ItalicMT;writing-mode:lr-tb;fill:#ffff00;fill-opacity:1;fill-rule:nonzero;stroke:none"
             id="text210"><tspan
               x="0 25.992001 41.976002 59.976002 68.975998 77.975998 95.975998 113.976 125.964"
               y="0"
               sodipodi:role="line"
               id="tspan208">Heb. 12:1</tspan></text>
        </g>
      </g>
    </g>
    <g
       id="g1279"
       inkscape:label="3"
       class="fragment"
       data-fragment-index="3">
      <g
         id="g212">
        <g
           id="g214"
           clip-path="url(#clipPath218)">
          <text
             xml:space="preserve"
             transform="matrix(1,0,0,-1,301.13,93.48)"
             style="font-variant:normal;font-weight:bold;font-size:36px;font-family:'Times New Roman';-inkscape-font-specification:TimesNewRomanPS-BoldMT;writing-mode:lr-tb;fill:#ffff00;fill-opacity:1;fill-rule:nonzero;stroke:none"
             id="text222"><tspan
               x="0 21.996 37.332001 55.332001 75.348 95.363998 111.348 127.332 137.34 155.34"
               y="0"
               sodipodi:role="line"
               id="tspan220">Producción</tspan></text>
        </g>
      </g>
      <g
         id="g224">
        <g
           id="g226"
           clip-path="url(#clipPath230)">
          <text
             xml:space="preserve"
             transform="matrix(1,0,0,-1,322.85,50.28)"
             style="font-style:italic;font-variant:normal;font-weight:normal;font-size:36px;font-family:'Times New Roman';-inkscape-font-specification:TimesNewRomanPS-ItalicMT;writing-mode:lr-tb;fill:#ffff00;fill-opacity:1;fill-rule:nonzero;stroke:none"
             id="text234"><tspan
               x="0 21.996 39.995998 65.987999 74.987999 83.987999 101.988 113.976"
               y="0"
               sodipodi:role="line"
               id="tspan232">Rom. 8:8</tspan></text>
        </g>
      </g>
    </g>
    <g
       id="g1330"
       inkscape:label="4"
       class="fragment"
       data-fragment-index="4">
      <g
         id="g236">
        <g
           id="g238"
           clip-path="url(#clipPath242)">
          <text
             xml:space="preserve"
             transform="matrix(1,0,0,-1,533.06,357.55)"
             style="font-variant:normal;font-weight:bold;font-size:36px;font-family:'Times New Roman';-inkscape-font-specification:TimesNewRomanPS-BoldMT;writing-mode:lr-tb;fill:#ffff00;fill-opacity:1;fill-rule:nonzero;stroke:none"
             id="text246"><tspan
               x="0 24.011999 39.995998 57.995998 75.996002 86.003998 95.867996 109.872 139.86"
               y="0"
               sodipodi:role="line"
               id="tspan244">Legalismo</tspan></text>
        </g>
      </g>
      <g
         id="g248">
        <g
           id="g250"
           clip-path="url(#clipPath254)">
          <text
             xml:space="preserve"
             transform="matrix(1,0,0,-1,543.98,314.35)"
             style="font-style:italic;font-variant:normal;font-weight:normal;font-size:36.024px;font-family:'Times New Roman';-inkscape-font-specification:TimesNewRomanPS-ItalicMT;writing-mode:lr-tb;fill:#ffff00;fill-opacity:1;fill-rule:nonzero;stroke:none"
             id="text258"><tspan
               x="0 24.028008 42.040009 52.05468 61.06068 70.066681 87.970612 99.966599 117.9786"
               y="0"
               sodipodi:role="line"
               id="tspan256">Col. 2:16</tspan></text>
        </g>
      </g>
      <g
         id="g284">
        <g
           id="g286"
           clip-path="url(#clipPath290)">
          <g
             id="g292"
             transform="matrix(1.8333,-9.4e-8,-7.54e-7,2.5,546,108)">
            <g
               id="g294"
               transform="scale(0.33214,0.30779)">
              <g
                 id="g296"
                 clip-path="url(#clipPath300)">
                <g
                   id="g302">
                  <g
                     id="g304">
                    <g
                       id="g306" />
                  </g>
                  <path
                     d="m 139.81,233.12 7.7,-0.5 7.5,-0.5 7.5,-0.6 7.5,-0.8 7.3,-1.01 7.3,-1.3 7.1,-1.61 6.9,-2.11 6.7,-2.61 6.4,-3.11 0.7,-0.5 0.7,-0.5 0.7,-0.6 0.6,-0.61 0.7,-0.6 0.5,-0.6 0.5,-0.7 0.4,-0.71 0.2,-0.7 0.1,-0.8 -2.9,-4.52 -3.4,-3.91 -3.7,-3.42 -4,-3.01 -4.2,-2.71 -4.3,-2.61 -4.4,-2.61 -4.3,-2.71 -4.1,-3.01 -3.9,-3.31 -0.9,-1.11 -0.6,-1.1 -0.5,-1.2 -0.3,-1.31 -0.1,-1.3 -0.1,-1.31 0.1,-1.3 0.2,-1.41 0.2,-1.3 0.2,-1.31 0.9,-2.51 0.9,-2.51 1,-2.41 1,-2.51 1,-2.4 1.1,-2.41 1,-2.51 1.2,-2.31 1.1,-2.41 1.3,-2.41 0.8,-6.93 -0.7,-6.42 -2.1,-6.12 -3.3,-5.62 -4.2,-5.22 -4.8,-4.92 -5.3,-4.52 -5.4,-4.213 -5.5,-3.814 -5.2,-3.614 -2.8,-1.305 -2.8,-1.405 -2.9,-1.405 -2.8,-1.506 -2.8,-1.405 -2.7,-1.506 -2.8,-1.405 -2.9,-1.506 -2.8,-1.304 -2.8,-1.406 -2.1,-1.204 -2,-1.405 -1.7,-1.606 -1.5,-1.807 -1.4,-1.907 -1.1,-2.008 -1,-2.108 -0.9,-2.208 -0.7,-2.108 -0.5,-2.208 -0.3,-0.401 -0.3,-0.402 -0.2,-0.401 -0.2,-0.502 -0.1,-0.502 -0.1,-0.402 v -0.502 l 0.1,-0.501 0.1,-0.502 0.1,-0.402 1.5,-2.007 1.7,-1.606 2,-1.305 2.1,-1.205 2.1,-1.003 2.1,-1.104 2,-1.305 1.9,-1.406 1.6,-1.907 1.2,-2.208 0.1,-1.506 v -1.304 l -0.2,-1.406 -0.4,-1.305 -0.5,-1.204 -0.6,-1.104 -0.8,-1.104 -0.9,-0.904 -1.1,-0.903 -1.2,-0.703 -0.7,-0.401 -0.7,-0.402 -0.7,-0.301 -0.8,-0.301 -0.7,-0.401 -0.7,-0.402 -0.5,-0.502 -0.4,-0.702 -0.3,-0.803 0.1,-0.904 0.6,-0.2 0.7,-0.302 0.6,-0.401 0.7,-0.301 0.7,-0.301 0.6,-0.201 0.7,-0.1 0.7,0.1 0.6,0.301 0.7,0.502 1.8,0.903 1.9,0.904 1.9,0.903 1.9,0.803 2,0.803 1.9,0.803 2,0.703 2,0.602 2,0.602 2,0.502 0.2,-0.1 h 0.2 l 0.2,-0.101 0.1,-0.2 0.1,-0.101 0.2,-0.1 0.1,-0.201 0.2,-0.1 0.1,-0.201 0.1,-0.1 -0.2,-0.502 -0.3,-0.502 -0.2,-0.402 -0.4,-0.502 -0.3,-0.401 -0.4,-0.502 -0.4,-0.401 -0.4,-0.302 -0.5,-0.401 -0.4,-0.301 1.1,0.1 1.2,0.201 1.2,0.201 1.2,0.301 1.2,0.201 1.2,0.301 1.2,0.301 1.2,0.301 1.2,0.201 1.2,0.301 2.6,0.602 2.6,0.502 2.6,0.502 2.6,0.502 2.7,0.502 2.6,0.401 2.7,0.402 2.6,0.401 2.7,0.301 2.7,0.402 0.9,-0.904 -1.5,-1.505 -5.8,-1.907 -5.7,-1.908 -5.7,-2.107 -5.7,-2.108 -5.6,-2.309 -5.5,-2.409 -5.5,-2.61 -5.4,-2.71 -5.3,-3.011 -5.2,-3.3123 -0.1,-0.5019 V 3.8689 l -0.2,-0.5018 -0.2,-0.5019 -0.2,-0.5019 -0.2,-0.4015 -0.3,-0.4015 -0.4,-0.4015 -0.4,-0.40148 -0.4,-0.4015 h -0.8 -0.8 -0.8 l -0.7,0.10037 h -0.8 l -0.7,0.10037 -0.7,0.20076 -0.7,0.30108 -0.6,0.3012 -0.6,0.5018 -0.6,1.5057 -3,1.5056 -3,1.5056 -3,1.4052 -3.104,1.3049 -3,1.3046 -3.1,1.305 -3.1,1.305 -3.1,1.204 -3.101,1.205 -3.1,1.204 -1.2,0.302 -1.3,0.401 -1.2,0.402 -1.2,0.301 -1.3,0.401 -1.2,0.402 -1.3,0.301 -1.3,0.301 -1.2,0.301 -1.301,0.201 -0.2,0.1 -0.1,0.101 -0.1,0.2 -0.1,0.101 -0.1,0.1 v 0.201 l -0.1,0.201 v 0.1 0.201 l 0.1,0.2 0.6,0.603 2.901,0.401 2.8,0.201 h 2.9 l 2.9,-0.1 2.8,-0.302 2.801,-0.401 2.8,-0.402 2.8,-0.501 2.7,-0.502 2.7,-0.502 0.3,0.301 -1.3,1.004 -1.3,1.003 -1.4,0.904 -1.3,0.903 -1.4,1.004 -1.3,1.004 -1.2,1.003 -1.2,1.205 -1,1.305 -0.9,1.505 v 0.201 0.101 0.2 l 0.1,0.201 v 0.1 l 0.1,0.201 0.1,0.1 0.1,0.201 0.1,0.101 0.1,0.1 2,-0.402 2,-0.602 1.9,-0.702 1.8,-0.803 1.9,-0.904 1.8,-0.803 1.8,-0.903 1.904,-0.803 1.9,-0.703 1.9,-0.602 0.3,0.301 -0.3,0.301 -0.3,0.301 -0.2,0.302 -0.2,0.301 -0.2,0.401 -0.2,0.301 -0.1,0.402 -0.1,0.401 v 0.402 l 0.1,0.502 1.2,0.702 1.2,0.101 1.2,-0.201 1.1,-0.402 1.2,-0.401 1.1,-0.402 h 1.1 l 1,0.302 0.9,1.003 0.8,1.707 0.5,0.2 0.6,0.301 0.7,0.201 0.6,0.201 0.6,0.301 0.5,0.301 0.5,0.402 0.5,0.502 0.3,0.501 0.3,0.703 -0.1,0.602 -0.1,0.703 -0.3,0.602 -0.3,0.602 -0.5,0.502 -0.4,0.502 -0.6,0.502 -0.5,0.402 -0.6,0.401 -0.5,0.301 -4.1,2.409 -4.7,2.108 -5,2.008 -5.004,2.007 -4.9,2.208 -4.3,2.71 -3.501,3.212 -2.5,4.015 -1,5.019 0.5,6.123 1.2,2.71 1.5,2.509 1.801,2.409 1.9,2.409 2.1,2.309 2.1,2.208 2.2,2.309 2.2,2.208 2.2,2.208 2.004,2.208 -0.104,0.101 -0.1,0.1 -0.1,0.101 v 0.1 0.1 0.201 0.1 0.101 0.201 0.1 l 0.804,0.201 0.6,0.401 0.6,0.502 0.4,0.602 0.4,0.603 0.3,0.805 0.3,0.7 0.2,0.8 0.3,0.71 0.3,0.7 1.1,3.81 0.5,3.92 v 3.71 l -0.4,3.71 -0.9,3.72 -1.1,3.51 -1.3,3.52 -1.4,3.51 -1.604,3.31 -1.5,3.31 -5,8.23 -5.9,6.93 -6.501,5.92 -7.2,5.12 -7.601,4.32 -7.9,3.81 -8.101,3.51 -8.2,3.22 -8.101,3.21 -8,3.21 -3.301,1.71 -3.5,1.9 -3.4,2.31 -3.2,2.41 -3.1005,2.81 -2.6001,3.01 -2.2002,3.32 -1.7001,3.51 -1.00005,3.81 -0.20001,4.12 3.50026,2.21 3.7002,1.8 3.8005,1.61 4,1.4 3.9,1.21 4.101,1.1 4.1,0.91 4.1,0.8 4.2,0.8 4.101,0.8 35.102,3.92 21.801,1.51 42.904,-0.31 v 0 z"
                     style="fill:#000000;fill-opacity:1;fill-rule:nonzero;stroke:none"
                     id="path308" />
                  <path
                     d="m 142.21,230.72 7.6,-0.61 7.5,-0.6 7.5,-0.6 7.4,-0.91 7.4,-1 7.2,-1.4 7,-1.81 6.8,-2.31 6.6,-2.91 6.3,-3.51 0.1,-0.1 0.1,-0.2 0.1,-0.21 0.1,-0.1 0.1,-0.2 0.1,-0.2 0.1,-0.1 v -0.2 -0.2 l -0.1,-0.3 -0.5,-0.6 -0.5,-0.6 -0.6,-0.51 -0.7,-0.5 -0.6,-0.4 -0.7,-0.4 -0.7,-0.3 -0.8,-0.4 -0.7,-0.2 -0.8,-0.31 -18.5,-3.01 -44.4,-2.41 -52.104,-1.2 -46.103,1.81 -1.8,0.2 -1.7,0.3 -1.7,0.3 -1.7,0.4 -1.701,0.4 -1.7,0.5 -1.6,0.51 -1.7,0.5 -1.6,0.6 -1.6,0.5 -0.2,0.5 v 0.41 l 0.1,0.4 0.3,0.3 0.3,0.3 0.4,0.3 0.4,0.3 0.4,0.3 0.4,0.2 0.3,0.3 11.901,3.52 12.401,2.91 12.7,2.31 13.001,1.7 13.201,1.01 13.204,0.6 13.4,-0.1 13.2,-0.5 13.2,-1.11 12.9,-1.6 h 0.1 v -0.1 h 0.1 v -0.1 h 0.1 v -0.1 h 0.1 0.1 v 0 h 0.1 l -0.7,-0.61 -0.9,-0.5 -0.8,-0.3 -1,-0.4 -0.9,-0.2 -1,-0.3 -1,-0.2 -1,-0.2 -1,-0.31 -1,-0.3 -7.7,-1.2 -7.9,-0.9 -8.1,-0.71 -8.2,-0.4 -8.3,-0.2 h -8.3 l -8.304,0.2 -8.3,0.4 -8.101,0.4 -8,0.61 -0.1,-0.1 -0.1,-0.2 -0.1,-0.1 -0.2,-0.11 -0.1,-0.1 -0.2,-0.2 -0.1,-0.1 v -0.2 -0.2 l 0.1,-0.2 0.8,-0.9 20.101,-1.51 h 35.404 l 3.8,0.7 4,0.41 4,0.3 4,0.3 4,0.3 4,0.5 3.8,0.8 3.7,1.11 3.4,1.6 3.3,2.11 v 0.6 l -0.1,0.51 -0.2,0.4 -0.4,0.4 -0.4,0.4 -0.4,0.3 -0.5,0.2 -0.4,0.3 -0.5,0.31 -0.4,0.2 -1.6,0.5 -1.6,0.4 -1.7,0.2 -1.8,0.2 -1.8,0.1 -1.7,0.1 h -1.8 l -1.8,0.1 h -1.8 l -1.8,0.2 -6.9,0.6 -7,0.41 -7.1,0.4 -7.1,0.2 -7.2,0.1 h -7.1 l -7.104,-0.3 -7.1,-0.5 -6.901,-0.61 -6.9,-0.9 -35.303,-7.53 -1.3,-0.6 -1.4,-0.5 -1.5,-0.4 -1.5,-0.51 -1.4,-0.6 -1.3,-0.7 -1.2,-0.8 -1,-1.11 -0.7,-1.3 -0.4,-1.61 0.8,-0.8 0.8,-0.8 0.9,-0.61 0.9,-0.6 0.9,-0.6 1,-0.4 0.9,-0.4 1,-0.3 1.1,-0.31 1,-0.3 21.002,-2.11 40.102,-1.2 31.704,0.3 34.8,1.21 4.7,0.5 4.8,0.3 4.7,0.3 4.7,0.4 4.7,0.4 4.7,0.4 4.7,0.61 4.5,0.8 4.5,0.9 4.4,1.11 -1.7,-2.11 -2,-1.91 -2.1,-1.7 -2.1,-1.41 -2.2,-1.4 -2.3,-1.31 -2.2,-1.2 -2.3,-1.31 -2.2,-1.4 -2.1,-1.61 -1.6,-0.6 -1.5,-0.7 -1.6,-0.61 -1.7,-0.5 -1.6,-0.5 -1.6,-0.4 -1.7,-0.4 -1.7,-0.3 -1.8,-0.21 -1.7,-0.2 -38.1,-4.01 v 0 l -0.2,-0.1 -0.1,-0.1 v -0.1 l -0.1,-0.1 -0.1,-0.2 -0.1,-0.1 v -0.1 -0.21 -0.2 l 1,-0.8 4.3,0.1 4.2,0.2 4.2,0.3 4.2,0.3 4.2,0.41 4.2,0.5 4.1,0.4 4.2,0.5 4.1,0.4 4.2,0.5 4.2,1.21 -1.2,-0.8 -1.2,-0.91 -1.1,-1 -1.1,-1 -0.9,-1.11 -0.8,-1.2 -0.7,-1.31 -0.6,-1.3 -0.3,-1.41 -0.2,-1.4 0.3,-2.41 0.5,-2.41 0.5,-2.31 0.6,-2.31 0.7,-2.21 0.7,-2.21 0.9,-2.2 0.8,-2.21 0.9,-2.11 1,-2.21 -2.7,-1.3 -2.9,-1.11 -2.9,-0.9 -3,-0.8 -3.1,-0.5 -3.2,-0.51 -3.2,-0.4 -3.2,-0.4 -3.2,-0.3 -3.2,-0.4 -0.9,-1.21 1.5,-1.2 2.8,0.3 2.7,0.2 2.7,0.3 2.7,0.3 2.7,0.4 2.7,0.41 2.7,0.5 2.6,0.5 2.6,0.6 2.5,0.7 4.5,2.41 0.7,-1.6 0.7,-1.71 0.8,-1.61 0.8,-1.7 0.7,-1.61 0.5,-1.7 0.4,-1.81 0.1,-1.81 -0.2,-1.9 -0.6,-2.01 -1.1,-3.31 -1.4,-3.22 -1.7,-3.11 -1.9,-3.01 -2.2,-2.91 -2.4,-2.81 -2.5,-2.61 -2.7,-2.61 -2.8,-2.41 -2.9,-2.21 -2.8,-1.1 -2.9,-0.8 -2.9,-0.61 -3,-0.6 -3,-0.5 -3,-0.5 -2.9,-0.605 -3,-0.803 -2.8,-0.903 -2.7,-1.104 -0.1,-0.101 -0.1,-0.1 -0.2,-0.1 -0.1,-0.201 -0.1,-0.1 -0.1,-0.101 -0.1,-0.1 -0.1,-0.101 v -0.2 l -0.1,-0.101 1,-0.903 2.1,0.703 2.3,0.702 2.2,0.502 2.3,0.402 2.3,0.401 2.4,0.301 2.3,0.402 2.3,0.401 2.3,0.402 2.2,0.602 -3.5,-2.409 -3.7,-2.108 -3.7,-2.108 -3.8,-1.907 -3.7,-1.807 -3.8,-1.907 -3.8,-1.806 -3.8,-1.908 -3.7,-2.007 -3.6,-2.208 -2,-1.205 -1.7,-1.405 -1.6,-1.606 -1.3,-1.706 -1.2,-1.807 -1,-1.907 -0.9,-2.008 -0.8,-2.007 -0.7,-2.008 -0.5,-2.007 -0.3,-0.703 -0.4,-0.602 -0.3,-0.602 -0.4,-0.603 -0.3,-0.702 -0.3,-0.602 -0.1,-0.703 -0.1,-0.703 0.1,-0.702 0.3,-0.703 1.2,-2.308 1.6,-1.807 1.8,-1.506 2.1,-1.204 2.1,-1.104 2.2,-1.105 2.1,-1.204 2.1,-1.305 1.8,-1.606 1.6,-1.907 0.1,-0.803 v -0.803 l -0.1,-0.703 -0.1,-0.702 -0.3,-0.703 -0.3,-0.602 -0.3,-0.703 -0.3,-0.602 -0.3,-0.703 -0.2,-0.602 -0.8,-0.703 -0.9,-0.501 -0.8,-0.502 -0.9,-0.602 -0.9,-0.402 -0.8,-0.602 -0.9,-0.502 -0.8,-0.602 -0.8,-0.603 -0.8,-0.702 -0.1,0.1 -0.1,0.101 -0.1,0.1 -0.1,0.1 -0.1,0.101 -0.1,0.1 v 0.201 l -0.1,0.1 v 0.101 l 0.1,0.2 0.8,0.502 0.9,0.502 0.8,0.402 0.9,0.501 0.8,0.603 0.8,0.502 0.8,0.702 0.7,0.602 0.7,0.803 0.6,0.904 0.1,1.405 -0.3,1.204 -0.5,1.205 -0.7,1.004 -0.9,1.003 -1,0.904 -1,0.803 -1.1,0.702 -1.1,0.703 -1,0.703 -2.9,1.706 -2.9,1.405 -3.1,1.305 -3.1,1.104 -3.104,1.104 -3.1,1.205 -3,1.305 -2.9,1.706 -2.7,2.008 -2.601,2.409 -0.3,1.003 -0.4,1.004 -0.4,1.004 -0.3,1.004 -0.3,1.104 -0.3,1.003 -0.1,1.105 v 1.104 l 0.1,1.104 0.3,1.204 1.2,-1.104 1.401,-0.702 1.5,-0.502 1.7,-0.201 1.7,-0.1 h 1.7 l 1.7,0.2 1.7,0.201 1.7,0.201 1.5,0.201 0.1,0.1 0.2,0.1 0.1,0.101 0.1,0.1 v 0.201 l 0.1,0.1 v 0.201 0.201 0.2 0.101 l -0.6,0.602 -1.6,0.1 h -1.6 l -1.6,-0.1 h -1.5 l -1.5,-0.1 -1.5,0.1 -1.5,0.1 -1.4,0.302 -1.4,0.401 -1.401,0.703 v 0.702 l 0.1,0.703 0.1,0.602 0.3,0.602 0.4,0.603 0.401,0.702 0.4,0.602 0.4,0.603 0.3,0.602 0.3,0.602 15.604,16.261 3,-0.602 2.9,-0.301 h 2.9 l 2.8,0.2 2.9,0.402 2.8,0.502 2.8,0.602 2.8,0.702 2.8,0.603 2.7,0.602 0.2,0.1 0.1,0.101 0.1,0.1 0.1,0.1 0.1,0.101 v 0.1 l 0.1,0.101 v 0.2 0.101 l -0.1,0.2 -0.8,0.904 -2.6,-0.502 -2.6,-0.602 -2.6,-0.502 -2.7,-0.502 -2.7,-0.402 -2.7,-0.401 -2.7,-0.1 h -2.7 l -2.7,0.2 -2.7,0.402 1.4,2.81 1.1,2.915 0.9,3.21 0.6,3.21 0.3,3.31 0.1,3.31 -0.3,3.32 -0.7,3.21 -0.9,3.11 -1.3,2.81 1.4,-1 1.4,-0.81 1.6,-0.7 1.6,-0.5 1.6,-0.4 1.7,-0.3 1.7,-0.2 1.7,-0.2 1.8,-0.2 1.7,-0.11 1.6,-0.1 h 1.7 1.6 l 1.5,0.1 1.6,0.21 1.5,0.2 1.5,0.2 1.5,0.3 1.5,0.3 1.5,0.2 0.2,0.2 0.1,0.1 0.1,0.1 0.2,0.2 0.1,0.1 0.2,0.1 0.1,0.2 v 0.1 0.2 0.21 l -1,0.9 -3,-0.5 -3.2,-0.4 -3.1,-0.21 -3.2,-0.1 -3.2,0.1 -3.1,0.31 -3,0.4 -3,0.7 -2.9,1 -2.8,1.11 -0.2,0.2 -0.3,0.2 -0.2,0.3 -0.2,0.2 -0.2,0.2 -0.2,0.3 -0.2,0.1 -0.3,0.1 h -0.3 l -0.3,-0.1 -1.5,3.62 -1.8,3.61 -2.004,3.41 -2.2,3.42 -2.5,3.31 -2.6,3.11 -2.7,3.11 -2.9,3.01 -3.001,2.91 -3,2.71 -9.9,6.33 4.3,-0.6 4.6,-0.51 4.7,-0.3 4.901,-0.2 h 4.9 l 5,0.2 4.904,0.3 4.8,0.51 4.7,0.7 4.5,0.8 0.1,0.1 0.1,0.1 0.1,0.1 0.1,0.1 0.1,0.1 0.2,0.1 0.1,0.2 v 0.1 l 0.1,0.1 v 0.21 l -0.9,0.9 -7,-0.7 -7.1,-0.61 -7.304,-0.4 -7.3,-0.2 -7.201,0.3 -7.2,0.6 -7.001,1.11 -6.7,1.71 -6.401,2.3 -6,3.12 -4.2,1.7 -4.2,1.61 -4.201,1.7 -4.2,1.71 -4.1,1.81 -4.001,2 -4,2.21 -3.8,2.51 -3.7,2.81 -3.4005,3.21 -0.7,1.31 -0.7001,1.3 -0.6,1.31 -0.6001,1.3 -0.6,1.31 -0.4,1.3 -0.5001,1.41 -0.3,1.4 -0.3,1.41 -0.1,1.51 8.4008,3.41 8.7,2.91 8.801,2.31 9.1,1.9 9.301,1.51 9.301,1.2 9.5,0.91 9.601,0.7 9.601,0.6 9.6,0.51 1.5,0.3 z"
                     style="fill:#b3a29d;fill-opacity:1;fill-rule:nonzero;stroke:none"
                     id="path310" />
                  <path
                     d="m 156.91,70.216 -0.4,-1.405 -0.6,-1.204 -0.7,-1.205 -0.8,-1.104 -1,-1.104 -1,-1.004 -1.1,-1.004 -1,-1.104 -1.1,-1.003 -1,-1.004 -1,-0.904 -1,-0.803 -1,-0.803 -1,-0.803 -1,-0.803 -1.1,-0.803 -1,-0.702 -1.1,-0.602 -1.1,-0.603 -1.2,-0.401 v -0.301 -0.201 l -0.1,-0.201 -0.1,-0.2 -0.1,-0.201 -0.1,-0.201 -0.1,-0.201 -0.1,-0.2 -0.1,-0.201 -0.1,-0.201 -0.5,-0.1 h -0.3 l -0.3,0.2 -0.1,0.201 -0.1,0.301 -0.1,0.301 -0.2,0.302 -0.2,0.301 -0.2,0.2 -0.4,0.101 1.3,1.204 1,1.506 0.9,1.505 0.9,1.606 0.7,1.707 0.8,1.606 1,1.606 1.1,1.606 1.3,1.405 1.7,1.205 0.9,0.501 0.9,0.603 0.9,0.602 0.9,0.502 0.9,0.602 0.9,0.502 1,0.502 0.9,0.401 1,0.402 1,0.201 h 0.3 l 0.2,-0.101 0.3,-0.1 0.2,-0.101 0.3,-0.1 0.2,-0.1 0.3,-0.101 0.2,-0.2 0.2,-0.101 0.2,-0.301 v 0 z"
                     style="fill:#000000;fill-opacity:1;fill-rule:nonzero;stroke:none"
                     id="path312" />
                  <path
                     d="m 181.71,67.807 -0.3,-1.204 -0.6,-1.004 -0.8,-0.903 -0.8,-0.703 -1,-0.702 -1,-0.703 -1,-0.602 -1,-0.703 -0.9,-0.602 -0.9,-0.803 -1.6,-1.004 -1.7,-1.004 -1.6,-1.003 -1.6,-1.004 -1.7,-1.004 -1.6,-1.104 -1.5,-1.104 -1.5,-1.305 -1.4,-1.305 -1.4,-1.505 -0.1,-0.101 h -0.2 l -0.1,0.101 h -0.1 l -0.1,0.1 -0.2,0.1 -0.1,0.101 -0.1,0.1 -0.1,0.1 -0.1,0.101 v 2.71 l 1.9,2.409 2.1,2.308 2.1,2.309 2.3,2.108 2.4,1.907 2.4,1.706 2.6,1.506 2.8,1.104 2.8,0.904 2.9,0.602 0.9,-1.004 v 0 z"
                     style="fill:#000000;fill-opacity:1;fill-rule:nonzero;stroke:none"
                     id="path314" />
                  <path
                     d="m 140.41,56.064 0.4,1.003 0.4,1.004 0.5,1.004 0.7,1.004 0.7,1.003 0.8,1.004 0.8,0.903 0.9,0.904 1,0.702 1,0.703 5.7,3.011 -0.9,-1.305 -1,-1.304 -1.2,-1.305 -1.2,-1.406 -1.4,-1.304 -1.4,-1.205 -1.4,-1.305 -1.5,-1.104 -1.4,-1.104 z"
                     style="fill:#705f51;fill-opacity:1;fill-rule:nonzero;stroke:none"
                     id="path316" />
                  <path
                     d="m 164.71,57.569 1.1,0.904 1.1,1.003 1.2,0.904 1.1,0.803 1.2,0.803 1.2,0.803 1.2,0.702 1.3,0.603 1.3,0.501 1.3,0.502 -12,-7.628 v 0 z"
                     style="fill:#705f51;fill-opacity:1;fill-rule:nonzero;stroke:none"
                     id="path318" />
                  <path
                     d="m 202.41,56.967 0.1,-0.502 -0.1,-0.502 -0.1,-0.401 -0.3,-0.402 -0.3,-0.301 -0.4,-0.301 -0.4,-0.301 -0.4,-0.301 -0.4,-0.201 -0.4,-0.1 -2.5,-0.703 -2.5,-0.803 -2.6,-0.803 -2.5,-0.803 -2.5,-0.803 -2.5,-0.703 -2.5,-0.803 -2.6,-0.702 -2.6,-0.602 -2.6,-0.502 h -0.1 l -0.1,0.1 v 0.1 l -0.1,0.101 v 0.1 0 0.201 0.1 0.101 0.1 l 0.4,0.201 0.4,0.201 0.4,0.1 0.4,0.201 0.5,0.1 0.4,0.1 0.4,0.101 0.5,0.1 0.4,0.201 0.4,0.201 0.3,0.2 0.5,0.302 0.4,0.1 0.4,0.201 0.5,0.1 0.4,0.201 0.4,0.201 0.3,0.301 0.2,0.301 0.2,0.502 0.6,0.602 0.3,-0.301 1.5,1.405 1.6,1.204 1.8,1.004 1.8,0.703 1.9,0.602 1.9,0.502 2,0.301 2,0.301 2,0.301 2.1,0.201 1.2,-1.204 v 0 z"
                     style="fill:#000000;fill-opacity:1;fill-rule:nonzero;stroke:none"
                     id="path320" />
                  <path
                     d="m 188.01,52.751 1,0.402 1,0.301 0.9,0.301 1,0.401 1,0.201 1,0.301 1,0.201 1,0.201 1,0.201 1,0.2 -9.8,-2.71 v 0 z"
                     style="fill:#705f51;fill-opacity:1;fill-rule:nonzero;stroke:none"
                     id="path322" />
                  <path
                     d="m 78.405,46.428 0.1,-0.301 0.1,-0.302 0.1,-0.301 v -0.301 l 0.1,-0.301 -0.1,-0.401 v -0.302 l -0.1,-0.301 -0.1,-0.301 -0.1,-0.201 h -0.4 l -0.4,0.201 -0.2,0.201 -0.2,0.301 -0.2,0.301 -0.1,0.402 -0.2,0.301 -0.2,0.401 -0.2,0.301 -0.3,0.302 -2.2,-0.101 -2.3,0.201 -2.201,0.301 -2.1,0.402 -2.2,0.501 -2.1,0.603 -2.1,0.702 -2.1,0.603 -2.1,0.702 -2.1,0.602 -0.2,0.201 -0.2,0.301 -0.201,0.201 -0.1,0.301 -0.1,0.301 -0.1,0.301 v 0.302 l -0.1,0.401 0.1,0.301 v 0.402 l 0.901,0.501 0.9,0.402 1,0.201 1.1,0.1 1.1,0.1 1.1,-0.1 1.2,-0.1 1.1,-0.101 1,-0.1 h 1.1 l 1.6,-0.402 1.6,-0.401 1.6,-0.502 1.501,-0.702 1.5,-0.703 1.4,-0.903 1.4,-1.004 1.3,-1.104 1.3,-1.104 z"
                     style="fill:#000000;fill-opacity:1;fill-rule:nonzero;stroke:none"
                     id="path324" />
                  <path
                     d="m 73.605,48.234 -1.8,0.201 -1.8,0.402 -1.701,0.401 -1.8,0.502 -1.7,0.402 -1.8,0.501 -1.7,0.502 -1.8,0.502 -1.7,0.402 -1.8,0.401 1.9,-0.1 1.9,-0.101 1.9,-0.1 1.9,-0.201 1.8,-0.301 1.7,-0.401 1.8,-0.502 1.601,-0.703 1.6,-0.803 z"
                     style="fill:#705f51;fill-opacity:1;fill-rule:nonzero;stroke:none"
                     id="path326" />
                  <path
                     d="m 72.705,34.383 0.3,-0.101 0.3,-0.1 0.3,-0.1 0.3,-0.201 0.3,-0.101 0.2,-0.2 0.2,-0.201 0.3,-0.201 0.1,-0.301 0.2,-0.301 v -0.602 l -2.1,0.1 -2.1,0.1 -2.101,0.101 h -2.2 l -2.1,0.1 -2.2,0.101 -2.1,0.2 -2.1,0.201 -2,0.402 -2,0.501 -0.501,0.302 -0.5,0.401 -0.4,0.301 -0.4,0.502 -0.3,0.402 -0.2,0.501 -0.2,0.603 v 0.602 0.602 l 0.1,0.602 0.7,0.803 0.9,0.603 1.001,0.301 1,0.201 h 1.1 l 1.1,-0.101 1.2,-0.1 1.1,-0.101 1.1,-0.1 h 1 l 1.2,-0.201 1.3,-0.301 1.2,-0.301 1.2,-0.401 1.1,-0.502 1.1,-0.603 1.101,-0.702 0.9,-0.803 0.9,-0.904 0.8,-1.003 v 0 z"
                     style="fill:#000000;fill-opacity:1;fill-rule:nonzero;stroke:none"
                     id="path328" />
                  <path
                     d="m 69.104,34.985 h -1.3 -1.5 -1.6 -1.6 -1.7 l -1.6,0.1 -1.6,0.301 -1.6,0.302 -1.4,0.602 -1.301,0.803 v 0.201 0.2 l 0.1,0.101 h 0.201 l 0.1,0.1 h 0.2 0.2 l 0.1,0.1 h 0.2 l 0.1,0.201 1.6,0.101 h 1.5 l 1.5,-0.101 1.4,-0.201 1.5,-0.2 1.3,-0.402 1.4,-0.502 1.3,-0.502 1.3,-0.602 1.3,-0.602 v 0 z"
                     style="fill:#705f51;fill-opacity:1;fill-rule:nonzero;stroke:none"
                     id="path330" />
                  <path
                     d="m 107.71,22.137 0.3,0.1 0.2,0.201 0.2,0.201 0.1,0.201 0.1,0.2 0.1,0.302 v 0.301 0.2 0.302 0.301 l -2.4,3.011 0.7,-0.201 0.6,-0.1 0.6,-0.301 0.6,-0.201 0.6,-0.402 0.5,-0.401 0.4,-0.402 0.4,-0.602 0.2,-0.602 0.2,-0.703 0.4,-0.602 0.5,-0.401 0.5,-0.402 0.5,-0.301 0.5,-0.301 0.5,-0.201 0.6,-0.301 0.5,-0.201 0.6,-0.301 0.5,-0.301 -0.1,-0.1 -0.2,-0.201 -0.1,-0.101 -0.2,-0.1 -0.1,-0.201 -0.1,-0.1 -0.1,-0.1 -0.1,-0.201 v -0.201 l 0.1,-0.201 0.9,-0.903 1.1,0.401 1.1,0.302 1.1,0.2 1,0.201 1.1,0.1 1,0.302 1,0.301 1,0.502 0.9,0.702 0.8,0.904 h 0.4 l 0.3,0.1 0.4,0.1 0.3,0.201 0.3,0.201 0.3,0.201 0.3,0.2 0.2,0.201 0.3,0.301 0.2,0.301 8.8,3.012 -8.2,-5.12 v -0.2 -0.201 -0.201 l 0.1,-0.201 0.1,-0.2 0.2,-0.201 0.1,-0.1 0.2,-0.201 0.1,-0.101 0.2,-0.2 3,0.702 3,0.703 3,0.803 3,0.703 3,0.702 3,0.703 3.1,0.702 3,0.703 3,0.602 3.1,0.603 1.8,0.301 -4.7,-1.606 -4.6,-1.807 -4.6,-1.907 -4.6,-1.907 -4.5,-2.209 -4.5,-2.208 -4.4,-2.409 -4.3,-2.609 -4.2,-2.7106 -4.2,-2.9109 -0.1,-0.1003 V 4.2704 L 118.31,4.17 V 4.0697 l 0.1,-0.2008 0.1,-0.1003 0.1,-0.1004 0.1,-0.1004 0.1,-0.1004 0.1,-0.1003 h 0.6 l -0.2,-0.4015 -0.2,-0.3012 -0.3,-0.2007 -0.3,-0.3011 -0.3,-0.1004 -0.4,-0.1004 h -0.3 l -0.4,0.1004 -0.3,0.2007 -0.3,0.2008 -1,1.0037 -1.1,0.9034 -1.2,0.9034 -1.1,0.803 -1.3,0.7026 -1.2,0.6022 -1.3,0.7026 -1.2,0.5019 -1.3,0.6023 -1.3,0.5018 -2.6,1.1044 -2.504,1.104 -2.6,1.104 -2.5,1.104 -2.5,1.104 -2.6,1.004 -2.6,1.004 -2.601,1.003 -2.6,0.904 -2.6,0.803 h 2.2 l 2.2,-0.201 2.201,-0.301 2.3,-0.402 2.3,-0.401 2.4,-0.402 2.3,-0.401 2.4,-0.402 2.3,-0.301 2.404,-0.2 0.1,0.1 0.1,0.201 0.2,0.1 0.1,0.1 0.2,0.201 0.1,0.101 0.1,0.1 0.1,0.201 v 0.2 l -0.1,0.201 -1.2,1.305 -1.3,1.205 -1.304,1.104 -1.3,1.003 -1.3,1.004 -1.4,1.004 -1.4,0.903 -1.3,1.004 -1.4,1.004 -1.3,1.004 1.8,-0.803 1.8,-0.803 1.8,-0.803 1.8,-0.803 1.8,-0.703 1.804,-0.703 1.8,-0.702 1.9,-0.603 1.9,-0.501 1.9,-0.502 v 0 z"
                     style="fill:#705f51;fill-opacity:1;fill-rule:nonzero;stroke:none"
                     id="path332" />
                  <path
                     d="m 68.604,227 -5.1,0.1 -5.2,-0.1 -5.101,-0.3 -5.1,-0.6 -5.1,-0.81 -5.101,-0.9 -5.1,-1.1 -5.1,-1.21 -5.101,-1.1 -5.2,-1.31 -1.2,-0.2 -1.1,-0.4 -1.1,-0.5 -1,-0.5 -0.9,-0.7 -0.9,-0.61 -0.9,-0.8 -0.7004,-0.8 -0.8,-0.91 -0.6001,-1 -0.2,-0.3 -0.2,-0.5 -0.1,-0.5 -0.1,-0.51 v -0.5 -0.5 l 0.1,-0.5 0.1,-0.4 0.2,-0.41 0.2,-0.3 4.0005,-4.21 4.4,-3.52 4.6,-3.11 4.801,-2.51 5.1,-2.2 5.2,-1.81 5.401,-1.61 5.5,-1.5 5.5,-1.31 5.501,-1.5 5.7,-1.31 5.601,-1 5.6,-0.7 5.7,-0.51 5.601,-0.2 5.7,-0.1 h 5.6 l 5.604,0.1 5.7,0.1 h 5.6 l -0.8,0.61 -0.8,0.5 -0.9,0.5 -1,0.5 -0.9,0.5 -0.9,0.5 -0.9,0.61 -0.7,0.7 -0.6,0.8 -0.5,0.81 0.9,0.6 0.8,0.3 0.9,0.3 0.9,0.1 0.9,0.1 h 0.9 0.9 l 0.9,-0.1 h 0.9 l 0.8,-0.1 5.4,0.4 5.5,0.2 5.4,0.1 5.5,0.1 h 5.4 5.5 l 5.4,0.1 h 5.5 l 5.4,0.2 5.4,0.1 1.4,0.21 1.4,0.1 1.4,0.2 1.4,0.3 1.4,0.2 1.3,0.4 1.3,0.4 1.4,0.4 1.3,0.5 1.3,0.51 v 1.2 l -8.3,0.3 -8.2,0.2 -8.2,0.1 -8.3,0.1 -8.2,0.1 h -8.2 l -8.2,-0.1 -8.3,-0.1 -8.2,-0.2 -8.3,-0.4 -3.404,-0.2 -3.4,-0.1 -3.4,-0.2 -3.4,-0.1 -3.401,-0.1 h -3.4 -3.4 -3.4 l -3.4,-0.1 h -3.401 l 0.3,0.3 0.2,0.2 0.3,0.2 0.3,0.2 0.3,0.1 0.3,0.2 0.3,0.2 0.3,0.2 0.301,0.2 0.2,0.21 h -3.301 l -3.3,0.1 -3.3,0.3 -3.2,0.3 -3.301,0.5 -3.2,0.5 -3.3,0.7 -3.3,0.61 -3.3,0.7 -3.301,0.7 -0.8,0.3 -0.9,0.3 -0.8,0.31 -0.8,0.3 -0.9,0.3 -0.8,0.3 -0.9,0.4 -0.8,0.3 -0.8,0.4 -0.9,0.3 -1.1,0.71 -0.9,0.8 -0.7,0.9 -0.5,1.01 -0.3,1 -0.2,1.1 -0.1,1.21 0.1,1.1 0.2,1.11 0.3,1.1 0.5,1.01 0.6,0.9 0.7,0.8 0.9,0.6 1,0.61 1,0.6 1,0.6 1.1,0.7 1,0.71 1,0.7 0.9,0.5 0.8,0.3 0.9,0.3 0.9,0.2 1.001,0.2 0.9,0.1 0.9,0.1 1,0.11 1,0.1 0.9,0.1 2.2,0.4 2.1,0.3 2.1,0.3 2.1,0.3 2.1,0.3 2.101,0.3 2.1,0.4 2.1,0.31 2.2,0.3 2.1,0.3 z"
                     style="fill:#c3b5b0;fill-opacity:1;fill-rule:nonzero;stroke:none"
                     id="path334" />
                  <path
                     d="m 54.204,214.55 4.1,1.11 4.1,0.9 4.1,0.81 4.201,0.7 4.2,0.6 4.1,0.5 4.2,0.3 4.201,0.3 4.2,0.2 4.2,0.11 4.704,0.2 4.7,0.2 4.7,0.2 4.7,0.2 4.7,0.1 h 4.7 l 4.7,-0.3 4.8,-0.4 4.7,-0.71 4.8,-1.1 h 0.1 0.1 l 0.1,-0.1 v -0.2 l 0.1,-0.1 v -0.2 -0.1 -0.2 -0.1 -0.21 l -7.7,-0.3 -7.6,-0.1 h -7.7 l -7.6,0.1 -7.6,0.1 -7.704,0.1 h -7.7 l -7.701,-0.2 -7.7,-0.5 -7.801,-0.8 h -0.6 l -0.7,-0.2 -0.7,-0.2 -0.7,-0.4 -0.6,-0.41 -0.5,-0.4 -0.3,-0.5 -0.1,-0.5 0.2,-0.5 0.4,-0.5 1.6,-0.91 1.7,-0.8 1.8,-0.6 1.901,-0.51 1.9,-0.4 1.9,-0.2 2,-0.2 1.9,-0.1 1.9,-0.1 1.8,-0.2 7.001,-0.3 6.9,-0.2 6.904,-0.2 6.9,-0.1 6.9,-0.1 6.9,0.1 6.9,0.1 6.9,0.2 7,0.2 6.9,0.3 3.3,0.3 3.2,0.2 3.3,0.2 3.3,0.2 3.3,0.2 3.3,0.21 3.3,0.3 3.3,0.2 3.3,0.3 3.2,0.3 1.3,0.1 1.4,0.1 h 1.4 1.3 1.4 1.4 l 1.4,-0.1 h 1.3 1.4 l 1.3,-0.1 0.2,1.51 -0.1,1.4 -0.4,1.2 -0.7,1.21 -0.8,1 -1,0.91 -1,0.9 -1.1,0.8 -1.2,0.81 -1.1,0.7 -2.4,1.3 -2.5,1.01 -2.5,0.8 -2.5,0.5 -2.6,0.4 -2.6,0.2 -2.6,0.1 -2.6,-0.1 h -2.7 l -2.6,-0.2 h 3.3 3.3 l 3.4,-0.2 3.3,-0.3 3.4,-0.4 3.3,-0.6 3.2,-0.81 3.2,-1.1 3.1,-1.3 2.9,-1.71 h -2.4 -2.4 -2.5 -2.4 -2.5 -2.5 -2.4 -2.4 -2.5 -2.4 -0.3 l -0.4,-0.1 -0.3,-0.1 -0.3,-0.2 -0.2,-0.2 -0.2,-0.2 -0.1,-0.2 v -0.21 -0.2 l 0.2,-0.2 1,-0.6 1.1,-0.5 1.1,-0.4 1.1,-0.3 1.2,-0.2 1.1,-0.2 1.2,-0.21 1.2,-0.2 1.1,-0.2 1.1,-0.4 -5,-0.5 -5.1,-0.4 -5,-0.4 -5.1,-0.3 -5,-0.41 -5.1,-0.3 -5.1,-0.3 -5.1,-0.4 -5.1,-0.4 -5.2,-0.6 -1.1,-0.2 -1.1,-0.21 -1.1,-0.2 -1.2,-0.3 -1.1,-0.2 -1.1,-0.1 -1.2,-0.2 -1.1,-0.1 h -1.1 l -1.1,-0.1 -6.3,-0.2 -6.4,-0.2 -6.3,-0.2 h -6.304 l -6.3,-0.2 -6.401,-0.1 -6.3,-0.2 -6.401,-0.41 -6.4,-0.5 -6.5,-0.8 -1.1,-0.1 h -1.101 l -1.1,-0.1 h -1.1 l -1.2,-0.1 -1.1,0.1 h -1.2 l -1.1,0.1 h -1.1 l -1.1,0.1 -0.8,0.3 -0.8,0.4 -0.8,0.5 -0.6,0.71 -0.5,0.7 -0.4,0.8 -0.2,0.71 0.1,0.7 0.2,0.7 0.6,0.5 1.5,0.91 1.5,0.7 1.6,0.6 1.6,0.4 1.7,0.3 1.7,0.2 1.7,0.2 1.701,0.11 1.7,0.1 1.7,0.1 z"
                     style="fill:#c3b5b0;fill-opacity:1;fill-rule:nonzero;stroke:none"
                     id="path336" />
                  <path
                     d="m 91.006,164.77 2.4,-0.1 2.4,0.1 h 2.4 2.404 2.4 2.4 l 2.4,0.1 2.4,0.1 h 2.4 l 2.4,0.1 -0.9,0.1 h -1 -1 l -0.9,-0.1 -0.9,-0.2 -1,-0.2 -0.9,-0.3 -0.9,-0.4 -0.8,-0.41 -0.9,-0.5 v -1.2 l 1.7,-0.2 1.7,-0.1 1.6,-0.1 1.7,-0.1 h 1.7 l 1.7,0.1 1.7,0.1 1.6,0.2 1.7,0.2 1.7,0.3 1.9,0.4 1.9,0.5 1.8,0.5 1.8,0.51 1.9,0.6 1.8,0.6 1.9,0.5 1.9,0.61 1.9,0.5 2,0.5 2.5,0.5 2.5,0.3 2.5,0.3 2.4,0.2 2.5,0.1 2.5,0.1 2.4,0.11 h 2.5 2.5 2.5 l -1.2,-0.21 -1.2,-0.4 -1.1,-0.5 -1.2,-0.5 -1.1,-0.5 -1.2,-0.4 -1.2,-0.41 -1.2,-0.4 -1.3,-0.2 -1.3,-0.1 v -0.1 -0.1 -0.1 -0.1 -0.1 -0.1 -0.1 0 0 -0.1 h 1.2 l 1.2,-0.1 h 1.1 1.1 1.2 l 1.1,-0.1 1.1,-0.1 1,-0.1 1.1,-0.3 1.1,-0.51 v 0 0 -0.1 -0.2 -0.1 -0.2 -0.1 -0.2 -0.1 -0.2 l -0.7,-0.4 -0.8,-0.4 -1,-0.3 -0.9,-0.31 -0.9,-0.3 -0.8,-0.3 -0.7,-0.3 -0.4,-0.5 -0.1,-0.5 0.3,-0.71 0.8,-0.7 0.9,-0.4 1,-0.3 1.1,-0.1 1.2,-0.1 1.1,0.1 h 1.2 l 1.2,-0.1 1.2,-0.1 1.1,-0.3 v -0.81 l -2,-0.5 -2,-0.3 -2,-0.3 -2,-0.1 -2,-0.2 -2,-0.2 -2,-0.2 -2,-0.3 -2,-0.41 -2,-0.7 -0.5,-0.1 h -0.5 l -0.5,-0.1 -0.6,-0.1 h -0.5 -0.5 -0.6 -0.5 l -0.5,-0.1 h -0.5 l -0.6,-0.1 -0.6,-0.1 -0.7,-0.1 -0.6,-0.2 -0.6,-0.2 -0.7,-0.1 -0.6,-0.3 -0.5,-0.2 -0.6,-0.31 -0.5,-0.4 -0.4,-0.2 -0.5,-0.1 -0.5,-0.1 -0.6,-0.1 -0.5,-0.2 -0.4,-0.1 -0.4,-0.2 -0.1,-0.2 v -0.3 l 0.2,-0.5 0.8,-1.01 1,-0.7 1.1,-0.4 1.2,-0.3 1.3,-0.2 1.3,-0.1 1.3,-0.21 1.3,-0.3 1.2,-0.5 1.1,-0.7 v -0.1 -0.1 -0.2 -0.2 -0.2 -0.1 -0.2 -0.21 -0.1 -0.2 l -0.7,-0.3 -0.8,-0.3 -0.8,-0.3 -0.8,-0.3 -0.8,-0.3 -0.8,-0.3 -0.8,-0.3 -0.8,-0.41 -0.7,-0.5 -0.6,-0.6 v -0.1 -0.1 -0.2 -0.1 -0.2 -0.1 -0.2 -0.1 0 -0.1 l 2.3,-0.31 2.2,-0.2 2.3,-0.1 h 2.2 2.2 2.2 l 2.3,0.1 2.2,0.1 h 2.2 2.3 l 2.3,0.2 2.3,0.31 2.3,0.3 2.3,0.3 2.3,0.2 2.3,0.2 2.3,0.1 h 2.4 l 2.3,-0.3 2.4,-0.5 h 0.1 v -0.1 -0.1 l -0.1,-0.2 v -0.21 l -0.1,-0.2 -0.1,-0.2 -0.1,-0.2 -0.1,-0.2 v -0.2 l -1.7,-0.8 -1.8,-0.7 -1.9,-0.51 -1.9,-0.5 -1.9,-0.5 -1.8,-0.6 -1.8,-0.6 -1.6,-0.91 -1.5,-1.1 -1.3,-1.41 -0.3,-0.5 v -0.5 l 0.2,-0.4 0.5,-0.4 0.5,-0.41 0.6,-0.3 0.7,-0.4 0.6,-0.4 0.5,-0.5 0.3,-0.6 v -0.1 -0.1 -0.21 -0.2 -0.2 -0.1 -0.2 -0.2 -0.1 -0.2 l -1.3,-0.6 -1.4,-0.5 -1.5,-0.41 -1.4,-0.4 -1.4,-0.5 -1.3,-0.4 -1.3,-0.5 -1.2,-0.71 -1.1,-0.9 -0.9,-1 -0.3,-0.5 -0.2,-0.51 -0.1,-0.4 0.1,-0.4 0.1,-0.3 0.2,-0.4 0.2,-0.3 0.4,-0.3 0.4,-0.3 0.4,-0.21 0.2,-0.2 0.1,-0.1 0.1,-0.2 v -0.2 -0.1 l -0.1,-0.2 v -0.2 -0.2 -0.1 l 0.1,-0.1 -1.3,-0.4 -1.3,-0.4 -1.4,-0.31 -1.3,-0.4 -1.3,-0.3 -1.3,-0.4 -1.3,-0.4 -1.4,-0.3 -1.3,-0.4 -1.3,-0.31 0.4,-0.2 0.4,-0.2 h 0.4 0.4 0.4 l 0.4,-0.1 h 0.4 0.4 l 0.4,-0.2 0.4,-0.1 -4.4,-0.4 -4.5,-0.2 -4.4,-0.2 -4.5,-0.1 -4.4,-0.1 -4.4,-0.2 -4.5,-0.1 -4.4,-0.2 -4.5,-0.2 -4.4,-0.31 1.2,0.61 1.4,0.6 1.5,0.5 1.5,0.4 1.5,0.6 1.3,0.51 1.1,0.7 0.8,0.9 0.5,1.01 v 1.4 l -0.2,0.5 -0.4,0.4 -0.6,0.41 -0.6,0.3 -0.6,0.4 -0.6,0.3 -0.6,0.3 -0.3,0.4 -0.2,0.4 0.1,0.51 0.4,0.7 0.6,0.5 0.7,0.3 0.8,0.3 0.9,0.1 0.8,0.2 0.9,0.2 0.9,0.21 0.8,0.3 0.8,0.4 -0.6,0.5 -0.6,0.3 -0.7,0.1 -0.6,0.1 -0.7,0.1 h -0.6 -0.7 -0.6 l -0.7,0.1 -0.6,0.1 2.4,-0.1 h 2.4 2.4 2.4 l 2.4,-0.1 2.4,0.1 h 2.4 l 2.4,0.1 2.4,0.1 2.4,0.2 0.6,0.2 0.7,0.11 0.6,0.1 0.7,0.2 0.6,0.1 0.7,0.2 0.6,0.1 0.7,0.2 0.6,0.2 0.6,0.2 0.4,0.2 0.4,0.1 0.5,0.1 0.4,0.2 0.5,0.2 0.5,0.2 0.5,0.3 0.4,0.31 0.4,0.4 0.4,0.4 v 0.2 0.1 0.2 0.2 0.1 0.2 0.2 0.2 0.1 0.1 l -1.9,1.01 -2,0.7 -2,0.5 -2.1,0.4 -2,0.21 -2.1,0.3 -2.1,0.2 -2.1,0.3 -2,0.3 -2.1,0.5 -0.4,0.2 -0.4,0.3 -0.2,0.3 -0.2,0.31 -0.1,0.4 v 0.5 0.4 l 0.1,0.5 0.2,0.4 0.2,0.3 0.6,0.51 0.7,0.3 0.7,0.2 0.7,0.2 0.8,0.2 0.7,0.1 0.8,0.2 0.7,0.2 0.8,0.2 0.7,0.3 v 0.2 0.1 0.21 0.1 0.2 0.1 0.2 0.1 0 0 l -2.4,1 -2.5,0.6 -2.5,0.51 -2.5,0.2 -2.5,0.2 -2.6,0.2 -2.6,0.2 -2.5,0.4 -2.6,0.4 -2.5,0.7 v 0.11 0 0.1 0.2 0.1 0.2 0.1 0.2 0.1 0.1 l 0.7,0.9 0.9,0.5 1,0.41 1,0.3 1.1,0.2 1.1,0.2 1,0.3 0.8,0.5 0.7,0.6 0.5,0.91 -0.8,0.5 -0.9,0.3 -0.9,0.3 -0.9,0.3 -0.9,0.2 -0.9,0.2 -0.9,0.2 -0.9,0.31 -0.8,0.2 -0.9,0.3 -0.8,0.2 -0.9,0.1 -0.9,0.1 h -0.8 -0.8 l -0.8,0.1 -0.8,0.2 -0.7,0.3 -0.6,0.4 -0.5,0.61 -0.1,0.4 v 0.2 l 0.2,0.3 0.3,0.2 0.4,0.1 0.4,0.2 0.5,0.2 0.4,0.3 0.4,0.2 0.3,0.3 v 0.21 0.1 0.1 0.1 0.1 0.2 0.1 0.1 0.1 0.1 l -0.5,0.5 -0.6,0.3 -0.7,0.3 -0.6,0.2 -0.7,0.2 -0.6,0.31 -0.6,0.3 -0.6,0.4 -0.4,0.5 -0.304,0.6 0.204,0.1 h 0.2 l 0.2,0.1 0.1,0.1 0.1,0.1 0.1,0.2 0.2,0.1 0.1,0.11 h 0.2 0.2 z"
                     style="fill:#c3b5b0;fill-opacity:1;fill-rule:nonzero;stroke:none"
                     id="path338" />
                  <path
                     d="m 111.01,88.485 -0.1,0.1 -0.2,0.1 h -0.2 -0.2 l -0.2,-0.1 -0.2,-0.1 -0.1,-0.101 h -0.1 v 0 l 0.1,0.101 1.7,0.903 1.7,0.602 1.7,0.301 1.8,0.201 h 1.7 l 1.7,-0.1 1.8,-0.201 1.7,-0.1 1.7,-0.101 1.7,0.101 -1.1,-0.101 -1,-0.1 -1.1,-0.101 -1.1,-0.1 -1,-0.1 -1.1,-0.201 -1,-0.201 -1,-0.401 -1,-0.502 -1,-0.602 0.8,-0.101 h 0.8 l 0.8,-0.1 h 0.8 l 0.8,-0.101 0.8,-0.2 0.8,-0.101 0.8,-0.2 0.8,-0.201 0.8,-0.201 -0.6,-0.502 -0.7,-0.301 -0.7,-0.301 -0.7,-0.301 -0.7,-0.101 -0.7,-0.2 -0.7,-0.201 -0.7,-0.1 -0.7,-0.201 -0.6,-0.201 -0.5,-0.301 -0.5,-0.1 -0.4,-0.201 -0.5,-0.101 -0.5,-0.1 -0.5,-0.201 -0.5,-0.1 -0.4,-0.201 -0.5,-0.1 -0.5,-0.201 -0.5,-0.201 -0.5,-0.1 -0.6,-0.201 -0.5,-0.301 -0.5,-0.301 -0.5,-0.402 -0.5,-0.401 -0.3,-0.502 -0.3,-0.602 -0.2,-0.602 h 0.2 l 0.2,0.1 0.2,-0.1 h 0.2 l 0.2,-0.101 0.2,-0.1 0.2,-0.101 0.2,-0.1 h 0.2 0.2 l -0.5,-0.602 -0.6,-0.502 -0.6,-0.502 -0.7,-0.401 -0.7,-0.302 -0.7,-0.301 -0.8,-0.301 -0.7,-0.301 -0.8,-0.201 -0.7,-0.2 -0.2,-0.201 -0.3,-0.1 -0.2,-0.101 -0.2,-0.201 -0.1,-0.1 -0.2,-0.201 -0.1,-0.1 v -0.201 -0.201 l 0.1,-0.2 0.6,-0.502 0.7,-0.301 0.7,-0.201 0.8,-0.201 0.8,-0.201 0.6,-0.301 0.4,-0.401 0.3,-0.502 -0.1,-0.602 -0.4,-0.803 -0.5,-0.502 -0.6,-0.502 -0.6,-0.402 -0.6,-0.501 -0.5,-0.402 -0.4,-0.502 -0.3,-0.602 -0.1,-0.502 0.1,-0.703 0.3,-0.602 0.1,-0.301 0.2,-0.201 0.1,-0.2 0.2,-0.201 0.1,-0.201 0.1,-0.201 0.1,-0.301 v -0.201 -0.301 l -0.1,-0.301 -0.3,-0.401 -0.3,-0.201 -0.3,-0.301 -0.3,-0.201 -0.4,-0.1 -0.3,-0.201 -0.4,-0.201 -0.3,-0.301 -0.3,-0.201 -0.3,-0.301 h 0.5 0.4 0.5 0.4 0.4 0.4 0.5 0.4 0.4 0.5 -1 l -1.1,0.201 -1.1,0.301 -1,0.402 -0.9,0.501 -0.804,0.502 -0.6,0.703 -0.3,0.803 v 0.803 l 0.4,1.004 0.604,0.803 0.7,0.803 0.8,0.702 0.8,0.803 0.8,0.803 0.7,0.803 0.7,0.904 0.4,1.003 0.2,1.004 -0.1,1.205 -0.3,0.401 -0.3,0.402 -0.4,0.301 -0.4,0.301 -0.5,0.301 -0.5,0.201 -0.5,0.2 -0.5,0.201 -0.5,0.201 -0.5,0.301 -0.2,0.1 -0.1,0.101 -0.1,0.201 -0.1,0.2 v 0.201 0.1 0.201 l 0.1,0.201 v 0.1 0.201 0.1 h 0.1 v 0.101 l 0.1,0.1 h 0.1 0.1 0.1 0.1 l 0.1,0.101 h 0.1 v 0.1 0.1 0.101 0.1 0.1 0.101 0.1 0 0 0.101 l -0.8,0.1 h -0.804 l -0.8,0.1 -0.8,0.101 h -0.8 -0.8 -0.8 -0.8 l -0.8,0.1 h -0.8 l 0.5,0.602 0.6,0.603 0.6,0.602 0.6,0.502 0.6,0.502 0.6,0.401 0.5,0.502 0.5,0.602 0.4,0.602 0.3,0.703 0.1,0.402 0.2,0.501 0.1,0.502 0.2,0.402 0.2,0.401 0.3,0.402 0.3,0.301 0.404,0.301 0.5,0.201 0.5,0.201 h 0.5 0.5 0.5 0.4 0.5 0.5 0.5 0.5 0.4 0.5 z"
                     style="fill:#c3b5b0;fill-opacity:1;fill-rule:nonzero;stroke:none"
                     id="path340" />
                  <path
                     d="m 95.006,58.372 0.5,0.101 0.5,0.1 0.5,0.1 0.5,0.101 h 0.6 0.5 0.4 l 0.5,-0.101 0.4,-0.1 0.4,-0.201 0.1,-0.1 -0.1,-0.101 -0.1,-0.2 -0.1,-0.301 -0.2,-0.201 -0.2,-0.402 -0.1,-0.301 -0.1,-0.301 -0.1,-0.301 0.1,-0.201 0.6,-0.502 0.704,-0.401 0.7,-0.301 0.8,-0.301 0.7,-0.302 0.6,-0.401 0.6,-0.401 0.6,-0.502 0.4,-0.603 0.3,-0.702 h -0.2 -0.3 -0.3 l -0.3,0.1 -0.3,0.101 -0.3,0.1 -0.3,0.1 -0.3,0.101 -0.2,0.1 -0.3,0.201 -0.6,0.201 -0.6,0.301 -0.5,0.401 -0.604,0.301 -0.5,0.402 -0.6,0.401 -0.6,0.402 -0.6,0.401 -0.7,0.402 -0.7,0.401 z"
                     style="fill:#c3b5b0;fill-opacity:1;fill-rule:nonzero;stroke:none"
                     id="path342" />
                  <path
                     d="m 53.403,194.48 2.801,-0.1 h 2.7 2.8 2.8 l 2.7,-0.1 2.801,-0.1 2.7,-0.2 2.8,-0.2 2.8,-0.2 2.7,-0.4 -0.7,-0.21 -0.7,-0.1 -0.7,-0.1 -0.7,-0.1 -0.7,-0.1 h -0.7 l -0.7,-0.1 -0.6,-0.1 -0.7,-0.1 -0.6,-0.3 v -0.8 l 1,-0.4 1,-0.31 1.1,-0.1 h 1 1.1 l 1.1,0.1 h 1.1 l 1,-0.1 1,-0.3 1,-0.5 v -0.1 -0.1 -0.2 -0.1 -0.2 -0.1 -0.2 -0.1 0 -0.1 l 1.701,-0.5 1.8,-0.41 1.7,-0.4 1.8,-0.2 1.9,-0.2 1.8,-0.1 1.8,-0.1 h 1.9 1.804 l 1.8,-0.1 h -2.704 -2.8 l -2.8,-0.1 -2.7,-0.1 h -2.8 -2.7 -2.801 l -2.8,0.1 -2.7,0.2 -2.8,0.3 -0.7,0.2 -0.7,0.2 -0.7,0.2 -0.8,0.2 -0.7,0.2 -0.7,0.31 -0.7,0.2 -0.701,0.2 -0.8,0.2 -0.7,0.1 -3.1,0.6 -3.2,0.4 -3.2,0.5 -3.1,0.41 -3.101,0.5 -3,0.7 -2.9,0.9 -2.8,1.21 -2.7,1.4 -2.501,1.81 h 0.801 0.8 0.8 0.8 0.8 0.8 0.8 0.8 0.8 0.8 l -1.3,-0.1 h -1.3 l -1.3,0.1 -1.4,0.2 -1.3,0.2 -1.301,0.3 -1.3,0.3 -1.3,0.3 -1.4,0.21 -1.3,0.1 1.5,0.1 1.4,0.1 1.4,-0.1 1.501,-0.1 1.4,-0.2 1.5,-0.21 1.4,-0.2 1.4,-0.3 1.5,-0.3 1.4,-0.4 z"
                     style="fill:#d1c6c2;fill-opacity:1;fill-rule:nonzero;stroke:none"
                     id="path344" />
                  <path
                     d="m 122.61,194.08 3,-0.1 h 3 l 3,0.1 h 3 3 3 l 3,-0.1 3,-0.3 3,-0.5 3,-0.81 h -1.9 -2 -1.9 -2 -2 -2 -1.9 -2 -2 -1.9 z"
                     style="fill:#d1c6c2;fill-opacity:1;fill-rule:nonzero;stroke:none"
                     id="path346" />
                  <path
                     d="m 177.81,216.56 1.6,0.2 1.6,0.1 1.6,0.1 h 1.6 1.6 1.6 1.6 1.6 1.6 l 1.6,-0.1 0.4,-0.1 0.4,-0.2 0.3,-0.2 0.4,-0.2 0.3,-0.3 0.2,-0.2 0.2,-0.2 v -0.2 -0.2 l -0.2,-0.2 -2.1,-0.81 -2.1,-0.6 -2.2,-0.5 -2.2,-0.3 -2.2,-0.2 h -2.3 -2.2 -2.3 -2.2 -2.2 z"
                     style="fill:#d1c6c2;fill-opacity:1;fill-rule:nonzero;stroke:none"
                     id="path348" />
                  <path
                     d="m 26.602,219.37 h -0.5 -0.5 -0.5 -0.5 -0.6 -0.5 -0.601 l -0.5,-0.1 -0.5,-0.1 -0.5,-0.3 -1,-0.4 -0.9,-0.4 -1,-0.5 -1,-0.41 -1,-0.5 -0.9,-0.5 -0.9,-0.5 -0.9,-0.7 -0.8,-0.81 -0.8,-0.9 -0.3,-0.7 -0.2,-0.71 -0.2,-0.7 v -0.7 -0.8 -0.71 l 0.1,-0.7 0.2,-0.7 0.2,-0.7 0.2,-0.81 0.2,-0.7 0.4,-0.6 0.6,-0.5 0.7,-0.3 0.8,-0.31 0.8,-0.2 0.9,-0.1 h 0.8 0.8 l 0.8,-0.1 h -0.4 -0.5 l -0.3,0.1 -0.4,0.1 -0.2,0.2 -0.3,0.31 -0.2,0.3 -0.2,0.3 -0.2,0.4 -0.1,0.3 -0.2,1 -0.2,1.01 -0.2,1.1 -0.1,1.01 -0.1,1 0.1,1.1 0.1,0.91 0.3,0.9 0.5,0.9 0.6,0.71 z"
                     style="fill:#d1c6c2;fill-opacity:1;fill-rule:nonzero;stroke:none"
                     id="path350" />
                  <path
                     d="m 116.61,160.75 3.2,0.2 3.2,0.31 3.2,0.2 3.2,0.3 3.2,0.3 3.2,0.3 3.2,0.2 3.2,0.2 3.2,0.2 3.2,0.1 h -1.9 l -1.8,-0.2 -1.9,-0.4 -1.8,-0.4 -1.8,-0.5 -1.8,-0.4 -1.8,-0.51 -1.8,-0.5 -1.9,-0.4 -1.9,-0.3 h 1.4 1.5 1.4 1.5 1.4 1.4 1.5 1.4 1.5 1.4 l -0.3,-0.3 -0.3,-0.3 -0.3,-0.3 -0.4,-0.31 -0.3,-0.3 -0.4,-0.2 -0.4,-0.2 -0.4,-0.2 -0.4,-0.1 -0.4,-0.2 -1.5,-0.4 -1.5,-0.3 -1.5,-0.2 -1.5,-0.3 -1.5,-0.2 -1.6,-0.31 -1.5,-0.4 -1.4,-0.6 -1.4,-0.7 -1.4,-1.01 h 1 0.9 l 1,-0.1 1,-0.2 1,-0.1 1,-0.2 1,-0.1 1,-0.2 1,-0.1 1.1,-0.2 h 0.1 0.2 l 0.1,-0.1 0.2,-0.2 0.1,-0.1 0.1,-0.2 0.1,-0.1 v -0.2 -0.1 l -0.1,-0.21 -1,-0.4 -1,-0.3 -1,-0.4 -1.1,-0.2 -1.1,-0.3 -1.1,-0.3 -1,-0.3 -1.1,-0.4 -1,-0.41 -1,-0.6 1,-0.2 1,-0.1 1,-0.1 1,-0.1 h 1 1 l 1,-0.1 h 1 l 1,-0.1 1,-0.1 0.2,-0.1 0.2,-0.2 v -0.2 l 0.1,-0.2 v -0.21 -0.2 -0.2 l -0.1,-0.1 v -0.1 -0.1 l -1.9,-0.3 -2,-0.2 -1.9,-0.1 -2,0.1 -2,0.1 -2,0.2 -1.9,0.1 -2,0.1 -2,0.1 -1.9,-0.1 0.8,0.81 0.8,0.6 0.9,0.6 0.9,0.4 0.9,0.4 0.9,0.5 0.8,0.41 0.8,0.6 0.7,0.6 0.5,0.7 0.4,0.91 v 0.8 l -0.3,0.6 -0.5,0.5 -0.8,0.41 -0.9,0.4 -1,0.2 -1,0.1 -1,0.1 h -0.9 v 0.2 0.1 0.1 0.1 0.1 0.2 0.1 0.1 0.1 0.1 l 0.5,0.4 0.5,0.21 0.4,0.2 0.5,0.2 0.5,0.1 0.5,0.2 0.5,0.1 h 0.4 l 0.5,0.1 0.5,0.1 -1.3,0.1 h -1.3 l -1.4,0.1 -1.3,0.1 -1.3,0.1 -1.3,0.1 h -1.3 l -1.4,0.1 -1.3,-0.1 -1.3,-0.1 1.5,0.8 1.5,0.61 1.5,0.5 1.6,0.4 1.6,0.3 1.6,0.3 1.7,0.3 1.7,0.2 1.6,0.3 1.7,0.31 z"
                     style="fill:#d1c6c2;fill-opacity:1;fill-rule:nonzero;stroke:none"
                     id="path352" />
                  <path
                     d="m 151.41,131.04 -0.2,0.1 -0.3,0.2 -0.3,0.31 -0.2,0.2 -0.2,0.3 -0.2,0.3 -0.2,0.2 -0.1,0.2 v 0.1 h 0.1 l 2.2,0.4 2.1,0.2 2.2,0.1 h 2.1 2.2 2.2 l 2.1,-0.1 2.2,-0.1 h 2.1 l 2.2,-0.1 -1.5,-0.3 -1.6,-0.3 -1.5,-0.4 -1.5,-0.3 -1.4,-0.4 -1.5,-0.41 -1.5,-0.5 -1.4,-0.5 -1.5,-0.6 -1.4,-0.7 -0.1,-0.1 -0.1,-0.11 -0.1,-0.2 v -0.2 -0.2 l -0.1,-0.1 v -0.2 -0.2 -0.1 -0.2 l 0.6,-0.2 0.7,-0.1 0.6,-0.1 0.7,-0.1 0.7,-0.1 h 0.7 l 0.7,-0.1 0.7,-0.1 0.7,-0.1 0.7,-0.31 v -1.2 l -0.9,-0.3 -1,-0.3 -0.9,-0.3 -0.9,-0.3 -0.9,-0.31 -1,-0.3 -0.9,-0.2 -1,-0.3 -1,-0.2 -1.1,-0.3 h -0.2 -0.2 l -0.3,-0.1 -0.3,-0.2 -0.2,-0.2 -0.3,-0.1 -0.2,-0.3 -0.1,-0.2 v -0.2 l 0.2,-0.31 0.6,-0.3 0.7,-0.3 0.8,-0.1 0.7,-0.1 h 0.8 0.7 l 0.7,-0.1 0.7,-0.2 0.6,-0.4 0.5,-0.4 -0.7,-0.3 -0.8,-0.21 -0.7,-0.2 -0.8,-0.2 -0.8,-0.2 -0.8,-0.1 -0.7,-0.2 -0.8,-0.2 -0.8,-0.2 -0.7,-0.2 0.5,-0.1 h 0.4 0.5 0.4 l 0.4,-0.1 0.3,-0.1 0.4,-0.2 0.4,-0.2 0.3,-0.2 0.4,-0.41 v -0.1 -0.1 -0.1 -0.1 -0.2 -0.1 -0.1 -0.1 -0.1 -0.1 l -1.8,-0.9 -1.9,-0.61 -2,-0.4 -1.9,-0.3 -2,-0.1 -2.1,-0.1 h -2 -2 -1.9 -2 l -0.1,-0.1 -0.2,-0.1 h -0.1 l -0.2,-0.1 h -0.2 -0.2 l -0.1,-0.1 -0.2,-0.1 -0.2,-0.1 -0.1,-0.2 h 0.6 0.6 0.5 0.6 0.5 0.6 0.5 0.6 0.5 0.6 l -1.1,-0.1 h -1.1 -1 -1.1 -1.1 -1.1 -1.1 l -1,0.1 -1.1,0.1 -1.1,0.3 -0.5,0.1 -0.4,0.2 -0.5,0.3 -0.3,0.3 -0.3,0.3 -0.3,0.31 -0.1,0.4 v 0.3 l 0.1,0.3 0.3,0.3 1.2,0.7 1.3,0.61 1.4,0.5 1.4,0.4 1.4,0.4 1.5,0.3 1.4,0.3 1.5,0.3 1.5,0.4 1.4,0.51 h 0.6 l 0.7,0.1 h 0.6 l 0.7,0.1 h 0.7 l 0.6,0.2 0.5,0.3 0.5,0.4 0.4,0.5 0.3,0.71 h -0.5 -0.5 -0.4 -0.5 -0.5 -0.5 -0.5 -0.4 -0.5 -0.5 l 1.4,0.1 1.4,0.1 1.4,0.1 1.4,0.2 1.4,0.3 1.3,0.4 1.3,0.4 1.4,0.6 1.3,0.71 1.3,0.7 v 0.2 0.1 l 0.1,0.2 v 0.2 0.1 0.2 l -0.1,0.2 v 0.2 l -0.2,0.1 -0.2,0.1 z"
                     style="fill:#d1c6c2;fill-opacity:1;fill-rule:nonzero;stroke:none"
                     id="path354" />
                  <path
                     d="m 105.01,84.871 1,0.402 1,0.401 1,0.301 1,0.201 1.1,0.301 1,0.1 1.1,0.101 1.1,0.1 h 1 l 1.1,0.101 -0.9,-0.402 -0.9,-0.201 -1,-0.2 -1,-0.201 -1,-0.201 -1,-0.301 -0.9,-0.402 -0.8,-0.401 -0.7,-0.602 -0.6,-0.703 0.5,-0.1 0.5,-0.101 h 0.5 l 0.4,-0.1 h 0.5 0.5 l 0.5,-0.1 0.4,-0.101 0.5,-0.1 0.5,-0.201 -0.9,-0.201 -1,-0.2 h -0.9 -0.9 -0.9 -0.9 l -0.9,0.1 h -0.9 l -0.9,-0.1 h -1 z"
                     style="fill:#d1c6c2;fill-opacity:1;fill-rule:nonzero;stroke:none"
                     id="path356" />
                </g>
              </g>
            </g>
          </g>
        </g>
      </g>
      <g
         id="g358">
        <g
           id="g360"
           clip-path="url(#clipPath364)">
          <text
             xml:space="preserve"
             transform="matrix(1,0,0,-1,521.04,217.37)"
             style="font-variant:normal;font-weight:bold;font-size:32.064px;font-family:'Times New Roman';-inkscape-font-specification:TimesNewRomanPS-BoldMT;writing-mode:lr-tb;fill:#ffff00;fill-opacity:1;fill-rule:nonzero;stroke:none"
             id="text368"><tspan
               x="0 23.150208 37.386623 53.546879 67.783295 85.610878 99.847298 114.08371 130.24397 144.48038 160.51239"
               y="0"
               sodipodi:role="line"
               id="tspan366">Degeneracón</tspan></text>
        </g>
      </g>
      <g
         id="g370">
        <g
           id="g372"
           clip-path="url(#clipPath376)">
          <text
             xml:space="preserve"
             transform="matrix(1,0,0,-1,567.38,178.94)"
             style="font-variant:normal;font-weight:bold;font-size:32.04px;font-family:'Times New Roman';-inkscape-font-specification:TimesNewRomanPS-BoldMT;writing-mode:lr-tb;fill:#ffff00;fill-opacity:1;fill-rule:nonzero;stroke:none"
             id="text380"><tspan
               x="0 30.24576 46.265759 60.555599 76.5756"
               y="0"
               sodipodi:role="line"
               id="tspan378">Morál</tspan></text>
        </g>
      </g>
    </g>
    <g
       id="g1381"
       style="display:inline"
       inkscape:label="5"
       class="fragment"
       data-fragment-index="5">
      <g
         id="g22">
        <g
           id="g24"
           clip-path="url(#clipPath28)">
          <g
             id="g30"
             transform="matrix(1.8333,0,-9.4e-8,2.5,84,102)">
            <g
               id="g32"
               transform="scale(0.33214,0.30779)">
              <g
                 id="g34"
                 clip-path="url(#clipPath38)">
                <g
                   id="g40">
                  <g
                     id="g42">
                    <g
                       id="g44" />
                  </g>
                  <path
                     d="m 139.81,233.12 7.7,-0.5 7.5,-0.5 7.5,-0.6 7.5,-0.8 7.3,-1.01 7.3,-1.3 7.1,-1.61 6.9,-2.11 6.7,-2.61 6.4,-3.11 0.7,-0.5 0.7,-0.5 0.7,-0.6 0.6,-0.61 0.7,-0.6 0.5,-0.6 0.5,-0.7 0.4,-0.71 0.2,-0.7 0.1,-0.8 -2.9,-4.52 -3.4,-3.91 -3.7,-3.42 -4,-3.01 -4.2,-2.71 -4.3,-2.61 -4.4,-2.61 -4.3,-2.71 -4.1,-3.01 -3.9,-3.31 -0.9,-1.11 -0.6,-1.1 -0.5,-1.2 -0.3,-1.31 -0.1,-1.3 -0.1,-1.31 0.1,-1.3 0.2,-1.41 0.2,-1.3 0.2,-1.31 0.9,-2.51 0.9,-2.51 1,-2.41 1,-2.51 1,-2.4 1.1,-2.41 1,-2.51 1.2,-2.31 1.1,-2.41 1.3,-2.41 0.8,-6.93 -0.7,-6.42 -2.1,-6.12 -3.3,-5.62 -4.2,-5.22 -4.8,-4.92 -5.3,-4.52 -5.4,-4.213 -5.5,-3.814 -5.2,-3.614 -2.8,-1.305 -2.8,-1.405 -2.9,-1.405 -2.8,-1.506 -2.8,-1.405 -2.7,-1.506 -2.8,-1.405 -2.9,-1.506 -2.8,-1.304 -2.8,-1.406 -2.1,-1.204 -2,-1.405 -1.7,-1.606 -1.5,-1.807 -1.4,-1.907 -1.1,-2.008 -1,-2.108 -0.9,-2.208 -0.7,-2.108 -0.5,-2.208 -0.3,-0.401 -0.3,-0.402 -0.2,-0.401 -0.2,-0.502 -0.1,-0.502 -0.1,-0.402 v -0.502 l 0.1,-0.501 0.1,-0.502 0.1,-0.402 1.5,-2.007 1.7,-1.606 2,-1.305 2.1,-1.205 2.1,-1.003 2.1,-1.104 2,-1.305 1.9,-1.406 1.6,-1.907 1.2,-2.208 0.1,-1.506 v -1.304 l -0.2,-1.406 -0.4,-1.305 -0.5,-1.204 -0.6,-1.104 -0.8,-1.104 -0.9,-0.904 -1.1,-0.903 -1.2,-0.703 -0.7,-0.401 -0.7,-0.402 -0.7,-0.301 -0.8,-0.301 -0.7,-0.401 -0.7,-0.402 -0.5,-0.502 -0.4,-0.702 -0.3,-0.803 0.1,-0.904 0.6,-0.2 0.7,-0.302 0.6,-0.401 0.7,-0.301 0.7,-0.301 0.6,-0.201 0.7,-0.1 0.7,0.1 0.6,0.301 0.7,0.502 1.8,0.903 1.9,0.904 1.9,0.903 1.9,0.803 2,0.803 1.9,0.803 2,0.703 2,0.602 2,0.602 2,0.502 0.2,-0.1 h 0.2 l 0.2,-0.101 0.1,-0.2 0.1,-0.101 0.2,-0.1 0.1,-0.201 0.2,-0.1 0.1,-0.201 0.1,-0.1 -0.2,-0.502 -0.3,-0.502 -0.2,-0.402 -0.4,-0.502 -0.3,-0.401 -0.4,-0.502 -0.4,-0.401 -0.4,-0.302 -0.5,-0.401 -0.4,-0.301 1.1,0.1 1.2,0.201 1.2,0.201 1.2,0.301 1.2,0.201 1.2,0.301 1.2,0.301 1.2,0.301 1.2,0.201 1.2,0.301 2.6,0.602 2.6,0.502 2.6,0.502 2.6,0.502 2.7,0.502 2.6,0.401 2.7,0.402 2.6,0.401 2.7,0.301 2.7,0.402 0.9,-0.904 -1.5,-1.505 -5.8,-1.907 -5.7,-1.908 -5.7,-2.107 -5.7,-2.108 -5.6,-2.309 -5.5,-2.409 -5.5,-2.61 -5.4,-2.71 -5.3,-3.011 -5.2,-3.3123 -0.1,-0.5019 V 3.8689 l -0.2,-0.5018 -0.2,-0.5019 -0.2,-0.5019 -0.2,-0.4015 -0.3,-0.4015 -0.4,-0.4015 -0.4,-0.40148 -0.4,-0.4015 h -0.8 -0.8 -0.8 l -0.7,0.10037 h -0.8 l -0.7,0.10037 -0.7,0.20076 -0.7,0.30108 -0.6,0.3012 -0.6,0.5018 -0.6,1.5057 -3,1.5056 -3,1.5056 -3,1.4052 -3.104,1.3049 -3,1.3046 -3.1,1.305 -3.1,1.305 -3.1,1.204 -3.101,1.205 -3.1,1.204 -1.2,0.302 -1.3,0.401 -1.2,0.402 -1.2,0.301 -1.3,0.401 -1.2,0.402 -1.3,0.301 -1.3,0.301 -1.2,0.301 -1.301,0.201 -0.2,0.1 -0.1,0.101 -0.1,0.2 -0.1,0.101 -0.1,0.1 v 0.201 l -0.1,0.201 v 0.1 0.201 l 0.1,0.2 0.6,0.603 2.901,0.401 2.8,0.201 h 2.9 l 2.9,-0.1 2.8,-0.302 2.801,-0.401 2.8,-0.402 2.8,-0.501 2.7,-0.502 2.7,-0.502 0.3,0.301 -1.3,1.004 -1.3,1.003 -1.4,0.904 -1.3,0.903 -1.4,1.004 -1.3,1.004 -1.2,1.003 -1.2,1.205 -1,1.305 -0.9,1.505 v 0.201 0.101 0.2 l 0.1,0.201 v 0.1 l 0.1,0.201 0.1,0.1 0.1,0.201 0.1,0.101 0.1,0.1 2,-0.402 2,-0.602 1.9,-0.702 1.8,-0.803 1.9,-0.904 1.8,-0.803 1.8,-0.903 1.904,-0.803 1.9,-0.703 1.9,-0.602 0.3,0.301 -0.3,0.301 -0.3,0.301 -0.2,0.302 -0.2,0.301 -0.2,0.401 -0.2,0.301 -0.1,0.402 -0.1,0.401 v 0.402 l 0.1,0.502 1.2,0.702 1.2,0.101 1.2,-0.201 1.1,-0.402 1.2,-0.401 1.1,-0.402 h 1.1 l 1,0.302 0.9,1.003 0.8,1.707 0.5,0.2 0.6,0.301 0.7,0.201 0.6,0.201 0.6,0.301 0.5,0.301 0.5,0.402 0.5,0.502 0.3,0.501 0.3,0.703 -0.1,0.602 -0.1,0.703 -0.3,0.602 -0.3,0.602 -0.5,0.502 -0.4,0.502 -0.6,0.502 -0.5,0.402 -0.6,0.401 -0.5,0.301 -4.1,2.409 -4.7,2.108 -5,2.008 -5.004,2.007 -4.9,2.208 -4.3,2.71 -3.501,3.212 -2.5,4.015 -1,5.019 0.5,6.123 1.2,2.71 1.5,2.509 1.801,2.409 1.9,2.409 2.1,2.309 2.1,2.208 2.2,2.309 2.2,2.208 2.2,2.208 2.004,2.208 -0.104,0.101 -0.1,0.1 -0.1,0.101 v 0.1 0.1 0.201 0.1 0.101 0.201 0.1 l 0.804,0.201 0.6,0.401 0.6,0.502 0.4,0.602 0.4,0.603 0.3,0.805 0.3,0.7 0.2,0.8 0.3,0.71 0.3,0.7 1.1,3.81 0.5,3.92 v 3.71 l -0.4,3.71 -0.9,3.72 -1.1,3.51 -1.3,3.52 -1.4,3.51 -1.604,3.31 -1.5,3.31 -5,8.23 -5.9,6.93 -6.501,5.92 -7.2,5.12 -7.601,4.32 -7.9,3.81 -8.101,3.51 -8.2,3.22 -8.101,3.21 -8,3.21 -3.301,1.71 -3.5,1.9 -3.4,2.31 -3.2,2.41 -3.1005,2.81 -2.6001,3.01 -2.2002,3.32 -1.7001,3.51 -1.00005,3.81 -0.20001,4.12 3.50026,2.21 3.7002,1.8 3.8005,1.61 4,1.4 3.9,1.21 4.101,1.1 4.1,0.91 4.1,0.8 4.2,0.8 4.101,0.8 35.102,3.92 21.801,1.51 42.904,-0.31 v 0 z"
                     style="fill:#000000;fill-opacity:1;fill-rule:nonzero;stroke:none"
                     id="path46" />
                  <path
                     d="m 142.21,230.72 7.6,-0.61 7.5,-0.6 7.5,-0.6 7.4,-0.91 7.4,-1 7.2,-1.4 7,-1.81 6.8,-2.31 6.6,-2.91 6.3,-3.51 0.1,-0.1 0.1,-0.2 0.1,-0.21 0.1,-0.1 0.1,-0.2 0.1,-0.2 0.1,-0.1 v -0.2 -0.2 l -0.1,-0.3 -0.5,-0.6 -0.5,-0.6 -0.6,-0.51 -0.7,-0.5 -0.6,-0.4 -0.7,-0.4 -0.7,-0.3 -0.8,-0.4 -0.7,-0.2 -0.8,-0.31 -18.5,-3.01 -44.4,-2.41 -52.104,-1.2 -46.103,1.81 -1.8,0.2 -1.7,0.3 -1.7,0.3 -1.7,0.4 -1.701,0.4 -1.7,0.5 -1.6,0.51 -1.7,0.5 -1.6,0.6 -1.6,0.5 -0.2,0.5 v 0.41 l 0.1,0.4 0.3,0.3 0.3,0.3 0.4,0.3 0.4,0.3 0.4,0.3 0.4,0.2 0.3,0.3 11.901,3.52 12.401,2.91 12.7,2.31 13.001,1.7 13.201,1.01 13.204,0.6 13.4,-0.1 13.2,-0.5 13.2,-1.11 12.9,-1.6 h 0.1 v -0.1 h 0.1 v -0.1 h 0.1 v -0.1 h 0.1 0.1 v 0 h 0.1 l -0.7,-0.61 -0.9,-0.5 -0.8,-0.3 -1,-0.4 -0.9,-0.2 -1,-0.3 -1,-0.2 -1,-0.2 -1,-0.31 -1,-0.3 -7.7,-1.2 -7.9,-0.9 -8.1,-0.71 -8.2,-0.4 -8.3,-0.2 h -8.3 l -8.304,0.2 -8.3,0.4 -8.101,0.4 -8,0.61 -0.1,-0.1 -0.1,-0.2 -0.1,-0.1 -0.2,-0.11 -0.1,-0.1 -0.2,-0.2 -0.1,-0.1 v -0.2 -0.2 l 0.1,-0.2 0.8,-0.9 20.101,-1.51 h 35.404 l 3.8,0.7 4,0.41 4,0.3 4,0.3 4,0.3 4,0.5 3.8,0.8 3.7,1.11 3.4,1.6 3.3,2.11 v 0.6 l -0.1,0.51 -0.2,0.4 -0.4,0.4 -0.4,0.4 -0.4,0.3 -0.5,0.2 -0.4,0.3 -0.5,0.31 -0.4,0.2 -1.6,0.5 -1.6,0.4 -1.7,0.2 -1.8,0.2 -1.8,0.1 -1.7,0.1 h -1.8 l -1.8,0.1 h -1.8 l -1.8,0.2 -6.9,0.6 -7,0.41 -7.1,0.4 -7.1,0.2 -7.2,0.1 h -7.1 l -7.104,-0.3 -7.1,-0.5 -6.901,-0.61 -6.9,-0.9 -35.303,-7.53 -1.3,-0.6 -1.4,-0.5 -1.5,-0.4 -1.5,-0.51 -1.4,-0.6 -1.3,-0.7 -1.2,-0.8 -1,-1.11 -0.7,-1.3 -0.4,-1.61 0.8,-0.8 0.8,-0.8 0.9,-0.61 0.9,-0.6 0.9,-0.6 1,-0.4 0.9,-0.4 1,-0.3 1.1,-0.31 1,-0.3 21.002,-2.11 40.102,-1.2 31.704,0.3 34.8,1.21 4.7,0.5 4.8,0.3 4.7,0.3 4.7,0.4 4.7,0.4 4.7,0.4 4.7,0.61 4.5,0.8 4.5,0.9 4.4,1.11 -1.7,-2.11 -2,-1.91 -2.1,-1.7 -2.1,-1.41 -2.2,-1.4 -2.3,-1.31 -2.2,-1.2 -2.3,-1.31 -2.2,-1.4 -2.1,-1.61 -1.6,-0.6 -1.5,-0.7 -1.6,-0.61 -1.7,-0.5 -1.6,-0.5 -1.6,-0.4 -1.7,-0.4 -1.7,-0.3 -1.8,-0.21 -1.7,-0.2 -38.1,-4.01 v 0 l -0.2,-0.1 -0.1,-0.1 v -0.1 l -0.1,-0.1 -0.1,-0.2 -0.1,-0.1 v -0.1 -0.21 -0.2 l 1,-0.8 4.3,0.1 4.2,0.2 4.2,0.3 4.2,0.3 4.2,0.41 4.2,0.5 4.1,0.4 4.2,0.5 4.1,0.4 4.2,0.5 4.2,1.21 -1.2,-0.8 -1.2,-0.91 -1.1,-1 -1.1,-1 -0.9,-1.11 -0.8,-1.2 -0.7,-1.31 -0.6,-1.3 -0.3,-1.41 -0.2,-1.4 0.3,-2.41 0.5,-2.41 0.5,-2.31 0.6,-2.31 0.7,-2.21 0.7,-2.21 0.9,-2.2 0.8,-2.21 0.9,-2.11 1,-2.21 -2.7,-1.3 -2.9,-1.11 -2.9,-0.9 -3,-0.8 -3.1,-0.5 -3.2,-0.51 -3.2,-0.4 -3.2,-0.4 -3.2,-0.3 -3.2,-0.4 -0.9,-1.21 1.5,-1.2 2.8,0.3 2.7,0.2 2.7,0.3 2.7,0.3 2.7,0.4 2.7,0.41 2.7,0.5 2.6,0.5 2.6,0.6 2.5,0.7 4.5,2.41 0.7,-1.6 0.7,-1.71 0.8,-1.61 0.8,-1.7 0.7,-1.61 0.5,-1.7 0.4,-1.81 0.1,-1.81 -0.2,-1.9 -0.6,-2.01 -1.1,-3.31 -1.4,-3.22 -1.7,-3.11 -1.9,-3.01 -2.2,-2.91 -2.4,-2.81 -2.5,-2.61 -2.7,-2.61 -2.8,-2.41 -2.9,-2.21 -2.8,-1.1 -2.9,-0.8 -2.9,-0.61 -3,-0.6 -3,-0.5 -3,-0.5 -2.9,-0.605 -3,-0.803 -2.8,-0.903 -2.7,-1.104 -0.1,-0.101 -0.1,-0.1 -0.2,-0.1 -0.1,-0.201 -0.1,-0.1 -0.1,-0.101 -0.1,-0.1 -0.1,-0.101 v -0.2 l -0.1,-0.101 1,-0.903 2.1,0.703 2.3,0.702 2.2,0.502 2.3,0.402 2.3,0.401 2.4,0.301 2.3,0.402 2.3,0.401 2.3,0.402 2.2,0.602 -3.5,-2.409 -3.7,-2.108 -3.7,-2.108 -3.8,-1.907 -3.7,-1.807 -3.8,-1.907 -3.8,-1.806 -3.8,-1.908 -3.7,-2.007 -3.6,-2.208 -2,-1.205 -1.7,-1.405 -1.6,-1.606 -1.3,-1.706 -1.2,-1.807 -1,-1.907 -0.9,-2.008 -0.8,-2.007 -0.7,-2.008 -0.5,-2.007 -0.3,-0.703 -0.4,-0.602 -0.3,-0.602 -0.4,-0.603 -0.3,-0.702 -0.3,-0.602 -0.1,-0.703 -0.1,-0.703 0.1,-0.702 0.3,-0.703 1.2,-2.308 1.6,-1.807 1.8,-1.506 2.1,-1.204 2.1,-1.104 2.2,-1.105 2.1,-1.204 2.1,-1.305 1.8,-1.606 1.6,-1.907 0.1,-0.803 v -0.803 l -0.1,-0.703 -0.1,-0.702 -0.3,-0.703 -0.3,-0.602 -0.3,-0.703 -0.3,-0.602 -0.3,-0.703 -0.2,-0.602 -0.8,-0.703 -0.9,-0.501 -0.8,-0.502 -0.9,-0.602 -0.9,-0.402 -0.8,-0.602 -0.9,-0.502 -0.8,-0.602 -0.8,-0.603 -0.8,-0.702 -0.1,0.1 -0.1,0.101 -0.1,0.1 -0.1,0.1 -0.1,0.101 -0.1,0.1 v 0.201 l -0.1,0.1 v 0.101 l 0.1,0.2 0.8,0.502 0.9,0.502 0.8,0.402 0.9,0.501 0.8,0.603 0.8,0.502 0.8,0.702 0.7,0.602 0.7,0.803 0.6,0.904 0.1,1.405 -0.3,1.204 -0.5,1.205 -0.7,1.004 -0.9,1.003 -1,0.904 -1,0.803 -1.1,0.702 -1.1,0.703 -1,0.703 -2.9,1.706 -2.9,1.405 -3.1,1.305 -3.1,1.104 -3.104,1.104 -3.1,1.205 -3,1.305 -2.9,1.706 -2.7,2.008 -2.601,2.409 -0.3,1.003 -0.4,1.004 -0.4,1.004 -0.3,1.004 -0.3,1.104 -0.3,1.003 -0.1,1.105 v 1.104 l 0.1,1.104 0.3,1.204 1.2,-1.104 1.401,-0.702 1.5,-0.502 1.7,-0.201 1.7,-0.1 h 1.7 l 1.7,0.2 1.7,0.201 1.7,0.201 1.5,0.201 0.1,0.1 0.2,0.1 0.1,0.101 0.1,0.1 v 0.201 l 0.1,0.1 v 0.201 0.201 0.2 0.101 l -0.6,0.602 -1.6,0.1 h -1.6 l -1.6,-0.1 h -1.5 l -1.5,-0.1 -1.5,0.1 -1.5,0.1 -1.4,0.302 -1.4,0.401 -1.401,0.703 v 0.702 l 0.1,0.703 0.1,0.602 0.3,0.602 0.4,0.603 0.401,0.702 0.4,0.602 0.4,0.603 0.3,0.602 0.3,0.602 15.604,16.261 3,-0.602 2.9,-0.301 h 2.9 l 2.8,0.2 2.9,0.402 2.8,0.502 2.8,0.602 2.8,0.702 2.8,0.603 2.7,0.602 0.2,0.1 0.1,0.101 0.1,0.1 0.1,0.1 0.1,0.101 v 0.1 l 0.1,0.101 v 0.2 0.101 l -0.1,0.2 -0.8,0.904 -2.6,-0.502 -2.6,-0.602 -2.6,-0.502 -2.7,-0.502 -2.7,-0.402 -2.7,-0.401 -2.7,-0.1 h -2.7 l -2.7,0.2 -2.7,0.402 1.4,2.81 1.1,2.915 0.9,3.21 0.6,3.21 0.3,3.31 0.1,3.31 -0.3,3.32 -0.7,3.21 -0.9,3.11 -1.3,2.81 1.4,-1 1.4,-0.81 1.6,-0.7 1.6,-0.5 1.6,-0.4 1.7,-0.3 1.7,-0.2 1.7,-0.2 1.8,-0.2 1.7,-0.11 1.6,-0.1 h 1.7 1.6 l 1.5,0.1 1.6,0.21 1.5,0.2 1.5,0.2 1.5,0.3 1.5,0.3 1.5,0.2 0.2,0.2 0.1,0.1 0.1,0.1 0.2,0.2 0.1,0.1 0.2,0.1 0.1,0.2 v 0.1 0.2 0.21 l -1,0.9 -3,-0.5 -3.2,-0.4 -3.1,-0.21 -3.2,-0.1 -3.2,0.1 -3.1,0.31 -3,0.4 -3,0.7 -2.9,1 -2.8,1.11 -0.2,0.2 -0.3,0.2 -0.2,0.3 -0.2,0.2 -0.2,0.2 -0.2,0.3 -0.2,0.1 -0.3,0.1 h -0.3 l -0.3,-0.1 -1.5,3.62 -1.8,3.61 -2.004,3.41 -2.2,3.42 -2.5,3.31 -2.6,3.11 -2.7,3.11 -2.9,3.01 -3.001,2.91 -3,2.71 -9.9,6.33 4.3,-0.6 4.6,-0.51 4.7,-0.3 4.901,-0.2 h 4.9 l 5,0.2 4.904,0.3 4.8,0.51 4.7,0.7 4.5,0.8 0.1,0.1 0.1,0.1 0.1,0.1 0.1,0.1 0.1,0.1 0.2,0.1 0.1,0.2 v 0.1 l 0.1,0.1 v 0.21 l -0.9,0.9 -7,-0.7 -7.1,-0.61 -7.304,-0.4 -7.3,-0.2 -7.201,0.3 -7.2,0.6 -7.001,1.11 -6.7,1.71 -6.401,2.3 -6,3.12 -4.2,1.7 -4.2,1.61 -4.201,1.7 -4.2,1.71 -4.1,1.81 -4.001,2 -4,2.21 -3.8,2.51 -3.7,2.81 -3.4005,3.21 -0.7,1.31 -0.7001,1.3 -0.6,1.31 -0.6001,1.3 -0.6,1.31 -0.4,1.3 -0.5001,1.41 -0.3,1.4 -0.3,1.41 -0.1,1.51 8.4008,3.41 8.7,2.91 8.801,2.31 9.1,1.9 9.301,1.51 9.301,1.2 9.5,0.91 9.601,0.7 9.601,0.6 9.6,0.51 1.5,0.3 z"
                     style="fill:#b3a29d;fill-opacity:1;fill-rule:nonzero;stroke:none"
                     id="path48" />
                  <path
                     d="m 156.91,70.216 -0.4,-1.405 -0.6,-1.204 -0.7,-1.205 -0.8,-1.104 -1,-1.104 -1,-1.004 -1.1,-1.004 -1,-1.104 -1.1,-1.003 -1,-1.004 -1,-0.904 -1,-0.803 -1,-0.803 -1,-0.803 -1,-0.803 -1.1,-0.803 -1,-0.702 -1.1,-0.602 -1.1,-0.603 -1.2,-0.401 v -0.301 -0.201 l -0.1,-0.201 -0.1,-0.2 -0.1,-0.201 -0.1,-0.201 -0.1,-0.201 -0.1,-0.2 -0.1,-0.201 -0.1,-0.201 -0.5,-0.1 h -0.3 l -0.3,0.2 -0.1,0.201 -0.1,0.301 -0.1,0.301 -0.2,0.302 -0.2,0.301 -0.2,0.2 -0.4,0.101 1.3,1.204 1,1.506 0.9,1.505 0.9,1.606 0.7,1.707 0.8,1.606 1,1.606 1.1,1.606 1.3,1.405 1.7,1.205 0.9,0.501 0.9,0.603 0.9,0.602 0.9,0.502 0.9,0.602 0.9,0.502 1,0.502 0.9,0.401 1,0.402 1,0.201 h 0.3 l 0.2,-0.101 0.3,-0.1 0.2,-0.101 0.3,-0.1 0.2,-0.1 0.3,-0.101 0.2,-0.2 0.2,-0.101 0.2,-0.301 v 0 z"
                     style="fill:#000000;fill-opacity:1;fill-rule:nonzero;stroke:none"
                     id="path50" />
                  <path
                     d="m 181.71,67.807 -0.3,-1.204 -0.6,-1.004 -0.8,-0.903 -0.8,-0.703 -1,-0.702 -1,-0.703 -1,-0.602 -1,-0.703 -0.9,-0.602 -0.9,-0.803 -1.6,-1.004 -1.7,-1.004 -1.6,-1.003 -1.6,-1.004 -1.7,-1.004 -1.6,-1.104 -1.5,-1.104 -1.5,-1.305 -1.4,-1.305 -1.4,-1.505 -0.1,-0.101 h -0.2 l -0.1,0.101 h -0.1 l -0.1,0.1 -0.2,0.1 -0.1,0.101 -0.1,0.1 -0.1,0.1 -0.1,0.101 v 2.71 l 1.9,2.409 2.1,2.308 2.1,2.309 2.3,2.108 2.4,1.907 2.4,1.706 2.6,1.506 2.8,1.104 2.8,0.904 2.9,0.602 0.9,-1.004 v 0 z"
                     style="fill:#000000;fill-opacity:1;fill-rule:nonzero;stroke:none"
                     id="path52" />
                  <path
                     d="m 140.41,56.064 0.4,1.003 0.4,1.004 0.5,1.004 0.7,1.004 0.7,1.003 0.8,1.004 0.8,0.903 0.9,0.904 1,0.702 1,0.703 5.7,3.011 -0.9,-1.305 -1,-1.304 -1.2,-1.305 -1.2,-1.406 -1.4,-1.304 -1.4,-1.205 -1.4,-1.305 -1.5,-1.104 -1.4,-1.104 z"
                     style="fill:#705f51;fill-opacity:1;fill-rule:nonzero;stroke:none"
                     id="path54" />
                  <path
                     d="m 164.71,57.569 1.1,0.904 1.1,1.003 1.2,0.904 1.1,0.803 1.2,0.803 1.2,0.803 1.2,0.702 1.3,0.603 1.3,0.501 1.3,0.502 -12,-7.628 v 0 z"
                     style="fill:#705f51;fill-opacity:1;fill-rule:nonzero;stroke:none"
                     id="path56" />
                  <path
                     d="m 202.41,56.967 0.1,-0.502 -0.1,-0.502 -0.1,-0.401 -0.3,-0.402 -0.3,-0.301 -0.4,-0.301 -0.4,-0.301 -0.4,-0.301 -0.4,-0.201 -0.4,-0.1 -2.5,-0.703 -2.5,-0.803 -2.6,-0.803 -2.5,-0.803 -2.5,-0.803 -2.5,-0.703 -2.5,-0.803 -2.6,-0.702 -2.6,-0.602 -2.6,-0.502 h -0.1 l -0.1,0.1 v 0.1 l -0.1,0.101 v 0.1 0 0.201 0.1 0.101 0.1 l 0.4,0.201 0.4,0.201 0.4,0.1 0.4,0.201 0.5,0.1 0.4,0.1 0.4,0.101 0.5,0.1 0.4,0.201 0.4,0.201 0.3,0.2 0.5,0.302 0.4,0.1 0.4,0.201 0.5,0.1 0.4,0.201 0.4,0.201 0.3,0.301 0.2,0.301 0.2,0.502 0.6,0.602 0.3,-0.301 1.5,1.405 1.6,1.204 1.8,1.004 1.8,0.703 1.9,0.602 1.9,0.502 2,0.301 2,0.301 2,0.301 2.1,0.201 1.2,-1.204 v 0 z"
                     style="fill:#000000;fill-opacity:1;fill-rule:nonzero;stroke:none"
                     id="path58" />
                  <path
                     d="m 188.01,52.751 1,0.402 1,0.301 0.9,0.301 1,0.401 1,0.201 1,0.301 1,0.201 1,0.201 1,0.201 1,0.2 -9.8,-2.71 v 0 z"
                     style="fill:#705f51;fill-opacity:1;fill-rule:nonzero;stroke:none"
                     id="path60" />
                  <path
                     d="m 78.405,46.428 0.1,-0.301 0.1,-0.302 0.1,-0.301 v -0.301 l 0.1,-0.301 -0.1,-0.401 v -0.302 l -0.1,-0.301 -0.1,-0.301 -0.1,-0.201 h -0.4 l -0.4,0.201 -0.2,0.201 -0.2,0.301 -0.2,0.301 -0.1,0.402 -0.2,0.301 -0.2,0.401 -0.2,0.301 -0.3,0.302 -2.2,-0.101 -2.3,0.201 -2.201,0.301 -2.1,0.402 -2.2,0.501 -2.1,0.603 -2.1,0.702 -2.1,0.603 -2.1,0.702 -2.1,0.602 -0.2,0.201 -0.2,0.301 -0.201,0.201 -0.1,0.301 -0.1,0.301 -0.1,0.301 v 0.302 l -0.1,0.401 0.1,0.301 v 0.402 l 0.901,0.501 0.9,0.402 1,0.201 1.1,0.1 1.1,0.1 1.1,-0.1 1.2,-0.1 1.1,-0.101 1,-0.1 h 1.1 l 1.6,-0.402 1.6,-0.401 1.6,-0.502 1.501,-0.702 1.5,-0.703 1.4,-0.903 1.4,-1.004 1.3,-1.104 1.3,-1.104 z"
                     style="fill:#000000;fill-opacity:1;fill-rule:nonzero;stroke:none"
                     id="path62" />
                  <path
                     d="m 73.605,48.234 -1.8,0.201 -1.8,0.402 -1.701,0.401 -1.8,0.502 -1.7,0.402 -1.8,0.501 -1.7,0.502 -1.8,0.502 -1.7,0.402 -1.8,0.401 1.9,-0.1 1.9,-0.101 1.9,-0.1 1.9,-0.201 1.8,-0.301 1.7,-0.401 1.8,-0.502 1.601,-0.703 1.6,-0.803 z"
                     style="fill:#705f51;fill-opacity:1;fill-rule:nonzero;stroke:none"
                     id="path64" />
                  <path
                     d="m 72.705,34.383 0.3,-0.101 0.3,-0.1 0.3,-0.1 0.3,-0.201 0.3,-0.101 0.2,-0.2 0.2,-0.201 0.3,-0.201 0.1,-0.301 0.2,-0.301 v -0.602 l -2.1,0.1 -2.1,0.1 -2.101,0.101 h -2.2 l -2.1,0.1 -2.2,0.101 -2.1,0.2 -2.1,0.201 -2,0.402 -2,0.501 -0.501,0.302 -0.5,0.401 -0.4,0.301 -0.4,0.502 -0.3,0.402 -0.2,0.501 -0.2,0.603 v 0.602 0.602 l 0.1,0.602 0.7,0.803 0.9,0.603 1.001,0.301 1,0.201 h 1.1 l 1.1,-0.101 1.2,-0.1 1.1,-0.101 1.1,-0.1 h 1 l 1.2,-0.201 1.3,-0.301 1.2,-0.301 1.2,-0.401 1.1,-0.502 1.1,-0.603 1.101,-0.702 0.9,-0.803 0.9,-0.904 0.8,-1.003 v 0 z"
                     style="fill:#000000;fill-opacity:1;fill-rule:nonzero;stroke:none"
                     id="path66" />
                  <path
                     d="m 69.104,34.985 h -1.3 -1.5 -1.6 -1.6 -1.7 l -1.6,0.1 -1.6,0.301 -1.6,0.302 -1.4,0.602 -1.301,0.803 v 0.201 0.2 l 0.1,0.101 h 0.201 l 0.1,0.1 h 0.2 0.2 l 0.1,0.1 h 0.2 l 0.1,0.201 1.6,0.101 h 1.5 l 1.5,-0.101 1.4,-0.201 1.5,-0.2 1.3,-0.402 1.4,-0.502 1.3,-0.502 1.3,-0.602 1.3,-0.602 v 0 z"
                     style="fill:#705f51;fill-opacity:1;fill-rule:nonzero;stroke:none"
                     id="path68" />
                  <path
                     d="m 107.71,22.137 0.3,0.1 0.2,0.201 0.2,0.201 0.1,0.201 0.1,0.2 0.1,0.302 v 0.301 0.2 0.302 0.301 l -2.4,3.011 0.7,-0.201 0.6,-0.1 0.6,-0.301 0.6,-0.201 0.6,-0.402 0.5,-0.401 0.4,-0.402 0.4,-0.602 0.2,-0.602 0.2,-0.703 0.4,-0.602 0.5,-0.401 0.5,-0.402 0.5,-0.301 0.5,-0.301 0.5,-0.201 0.6,-0.301 0.5,-0.201 0.6,-0.301 0.5,-0.301 -0.1,-0.1 -0.2,-0.201 -0.1,-0.101 -0.2,-0.1 -0.1,-0.201 -0.1,-0.1 -0.1,-0.1 -0.1,-0.201 v -0.201 l 0.1,-0.201 0.9,-0.903 1.1,0.401 1.1,0.302 1.1,0.2 1,0.201 1.1,0.1 1,0.302 1,0.301 1,0.502 0.9,0.702 0.8,0.904 h 0.4 l 0.3,0.1 0.4,0.1 0.3,0.201 0.3,0.201 0.3,0.201 0.3,0.2 0.2,0.201 0.3,0.301 0.2,0.301 8.8,3.012 -8.2,-5.12 v -0.2 -0.201 -0.201 l 0.1,-0.201 0.1,-0.2 0.2,-0.201 0.1,-0.1 0.2,-0.201 0.1,-0.101 0.2,-0.2 3,0.702 3,0.703 3,0.803 3,0.703 3,0.702 3,0.703 3.1,0.702 3,0.703 3,0.602 3.1,0.603 1.8,0.301 -4.7,-1.606 -4.6,-1.807 -4.6,-1.907 -4.6,-1.907 -4.5,-2.209 -4.5,-2.208 -4.4,-2.409 -4.3,-2.609 -4.2,-2.7106 -4.2,-2.9109 -0.1,-0.1003 V 4.2704 L 118.31,4.17 V 4.0697 l 0.1,-0.2008 0.1,-0.1003 0.1,-0.1004 0.1,-0.1004 0.1,-0.1004 0.1,-0.1003 h 0.6 l -0.2,-0.4015 -0.2,-0.3012 -0.3,-0.2007 -0.3,-0.3011 -0.3,-0.1004 -0.4,-0.1004 h -0.3 l -0.4,0.1004 -0.3,0.2007 -0.3,0.2008 -1,1.0037 -1.1,0.9034 -1.2,0.9034 -1.1,0.803 -1.3,0.7026 -1.2,0.6022 -1.3,0.7026 -1.2,0.5019 -1.3,0.6023 -1.3,0.5018 -2.6,1.1044 -2.504,1.104 -2.6,1.104 -2.5,1.104 -2.5,1.104 -2.6,1.004 -2.6,1.004 -2.601,1.003 -2.6,0.904 -2.6,0.803 h 2.2 l 2.2,-0.201 2.201,-0.301 2.3,-0.402 2.3,-0.401 2.4,-0.402 2.3,-0.401 2.4,-0.402 2.3,-0.301 2.404,-0.2 0.1,0.1 0.1,0.201 0.2,0.1 0.1,0.1 0.2,0.201 0.1,0.101 0.1,0.1 0.1,0.201 v 0.2 l -0.1,0.201 -1.2,1.305 -1.3,1.205 -1.304,1.104 -1.3,1.003 -1.3,1.004 -1.4,1.004 -1.4,0.903 -1.3,1.004 -1.4,1.004 -1.3,1.004 1.8,-0.803 1.8,-0.803 1.8,-0.803 1.8,-0.803 1.8,-0.703 1.804,-0.703 1.8,-0.702 1.9,-0.603 1.9,-0.501 1.9,-0.502 v 0 z"
                     style="fill:#705f51;fill-opacity:1;fill-rule:nonzero;stroke:none"
                     id="path70" />
                  <path
                     d="m 68.604,227 -5.1,0.1 -5.2,-0.1 -5.101,-0.3 -5.1,-0.6 -5.1,-0.81 -5.101,-0.9 -5.1,-1.1 -5.1,-1.21 -5.101,-1.1 -5.2,-1.31 -1.2,-0.2 -1.1,-0.4 -1.1,-0.5 -1,-0.5 -0.9,-0.7 -0.9,-0.61 -0.9,-0.8 -0.7004,-0.8 -0.8,-0.91 -0.6001,-1 -0.2,-0.3 -0.2,-0.5 -0.1,-0.5 -0.1,-0.51 v -0.5 -0.5 l 0.1,-0.5 0.1,-0.4 0.2,-0.41 0.2,-0.3 4.0005,-4.21 4.4,-3.52 4.6,-3.11 4.801,-2.51 5.1,-2.2 5.2,-1.81 5.401,-1.61 5.5,-1.5 5.5,-1.31 5.501,-1.5 5.7,-1.31 5.601,-1 5.6,-0.7 5.7,-0.51 5.601,-0.2 5.7,-0.1 h 5.6 l 5.604,0.1 5.7,0.1 h 5.6 l -0.8,0.61 -0.8,0.5 -0.9,0.5 -1,0.5 -0.9,0.5 -0.9,0.5 -0.9,0.61 -0.7,0.7 -0.6,0.8 -0.5,0.81 0.9,0.6 0.8,0.3 0.9,0.3 0.9,0.1 0.9,0.1 h 0.9 0.9 l 0.9,-0.1 h 0.9 l 0.8,-0.1 5.4,0.4 5.5,0.2 5.4,0.1 5.5,0.1 h 5.4 5.5 l 5.4,0.1 h 5.5 l 5.4,0.2 5.4,0.1 1.4,0.21 1.4,0.1 1.4,0.2 1.4,0.3 1.4,0.2 1.3,0.4 1.3,0.4 1.4,0.4 1.3,0.5 1.3,0.51 v 1.2 l -8.3,0.3 -8.2,0.2 -8.2,0.1 -8.3,0.1 -8.2,0.1 h -8.2 l -8.2,-0.1 -8.3,-0.1 -8.2,-0.2 -8.3,-0.4 -3.404,-0.2 -3.4,-0.1 -3.4,-0.2 -3.4,-0.1 -3.401,-0.1 h -3.4 -3.4 -3.4 l -3.4,-0.1 h -3.401 l 0.3,0.3 0.2,0.2 0.3,0.2 0.3,0.2 0.3,0.1 0.3,0.2 0.3,0.2 0.3,0.2 0.301,0.2 0.2,0.21 h -3.301 l -3.3,0.1 -3.3,0.3 -3.2,0.3 -3.301,0.5 -3.2,0.5 -3.3,0.7 -3.3,0.61 -3.3,0.7 -3.301,0.7 -0.8,0.3 -0.9,0.3 -0.8,0.31 -0.8,0.3 -0.9,0.3 -0.8,0.3 -0.9,0.4 -0.8,0.3 -0.8,0.4 -0.9,0.3 -1.1,0.71 -0.9,0.8 -0.7,0.9 -0.5,1.01 -0.3,1 -0.2,1.1 -0.1,1.21 0.1,1.1 0.2,1.11 0.3,1.1 0.5,1.01 0.6,0.9 0.7,0.8 0.9,0.6 1,0.61 1,0.6 1,0.6 1.1,0.7 1,0.71 1,0.7 0.9,0.5 0.8,0.3 0.9,0.3 0.9,0.2 1.001,0.2 0.9,0.1 0.9,0.1 1,0.11 1,0.1 0.9,0.1 2.2,0.4 2.1,0.3 2.1,0.3 2.1,0.3 2.1,0.3 2.101,0.3 2.1,0.4 2.1,0.31 2.2,0.3 2.1,0.3 z"
                     style="fill:#c3b5b0;fill-opacity:1;fill-rule:nonzero;stroke:none"
                     id="path72" />
                  <path
                     d="m 54.204,214.55 4.1,1.11 4.1,0.9 4.1,0.81 4.201,0.7 4.2,0.6 4.1,0.5 4.2,0.3 4.201,0.3 4.2,0.2 4.2,0.11 4.704,0.2 4.7,0.2 4.7,0.2 4.7,0.2 4.7,0.1 h 4.7 l 4.7,-0.3 4.8,-0.4 4.7,-0.71 4.8,-1.1 h 0.1 0.1 l 0.1,-0.1 v -0.2 l 0.1,-0.1 v -0.2 -0.1 -0.2 -0.1 -0.21 l -7.7,-0.3 -7.6,-0.1 h -7.7 l -7.6,0.1 -7.6,0.1 -7.704,0.1 h -7.7 l -7.701,-0.2 -7.7,-0.5 -7.801,-0.8 h -0.6 l -0.7,-0.2 -0.7,-0.2 -0.7,-0.4 -0.6,-0.41 -0.5,-0.4 -0.3,-0.5 -0.1,-0.5 0.2,-0.5 0.4,-0.5 1.6,-0.91 1.7,-0.8 1.8,-0.6 1.901,-0.51 1.9,-0.4 1.9,-0.2 2,-0.2 1.9,-0.1 1.9,-0.1 1.8,-0.2 7.001,-0.3 6.9,-0.2 6.904,-0.2 6.9,-0.1 6.9,-0.1 6.9,0.1 6.9,0.1 6.9,0.2 7,0.2 6.9,0.3 3.3,0.3 3.2,0.2 3.3,0.2 3.3,0.2 3.3,0.2 3.3,0.21 3.3,0.3 3.3,0.2 3.3,0.3 3.2,0.3 1.3,0.1 1.4,0.1 h 1.4 1.3 1.4 1.4 l 1.4,-0.1 h 1.3 1.4 l 1.3,-0.1 0.2,1.51 -0.1,1.4 -0.4,1.2 -0.7,1.21 -0.8,1 -1,0.91 -1,0.9 -1.1,0.8 -1.2,0.81 -1.1,0.7 -2.4,1.3 -2.5,1.01 -2.5,0.8 -2.5,0.5 -2.6,0.4 -2.6,0.2 -2.6,0.1 -2.6,-0.1 h -2.7 l -2.6,-0.2 h 3.3 3.3 l 3.4,-0.2 3.3,-0.3 3.4,-0.4 3.3,-0.6 3.2,-0.81 3.2,-1.1 3.1,-1.3 2.9,-1.71 h -2.4 -2.4 -2.5 -2.4 -2.5 -2.5 -2.4 -2.4 -2.5 -2.4 -0.3 l -0.4,-0.1 -0.3,-0.1 -0.3,-0.2 -0.2,-0.2 -0.2,-0.2 -0.1,-0.2 v -0.21 -0.2 l 0.2,-0.2 1,-0.6 1.1,-0.5 1.1,-0.4 1.1,-0.3 1.2,-0.2 1.1,-0.2 1.2,-0.21 1.2,-0.2 1.1,-0.2 1.1,-0.4 -5,-0.5 -5.1,-0.4 -5,-0.4 -5.1,-0.3 -5,-0.41 -5.1,-0.3 -5.1,-0.3 -5.1,-0.4 -5.1,-0.4 -5.2,-0.6 -1.1,-0.2 -1.1,-0.21 -1.1,-0.2 -1.2,-0.3 -1.1,-0.2 -1.1,-0.1 -1.2,-0.2 -1.1,-0.1 h -1.1 l -1.1,-0.1 -6.3,-0.2 -6.4,-0.2 -6.3,-0.2 h -6.304 l -6.3,-0.2 -6.401,-0.1 -6.3,-0.2 -6.401,-0.41 -6.4,-0.5 -6.5,-0.8 -1.1,-0.1 h -1.101 l -1.1,-0.1 h -1.1 l -1.2,-0.1 -1.1,0.1 h -1.2 l -1.1,0.1 h -1.1 l -1.1,0.1 -0.8,0.3 -0.8,0.4 -0.8,0.5 -0.6,0.71 -0.5,0.7 -0.4,0.8 -0.2,0.71 0.1,0.7 0.2,0.7 0.6,0.5 1.5,0.91 1.5,0.7 1.6,0.6 1.6,0.4 1.7,0.3 1.7,0.2 1.7,0.2 1.701,0.11 1.7,0.1 1.7,0.1 z"
                     style="fill:#c3b5b0;fill-opacity:1;fill-rule:nonzero;stroke:none"
                     id="path74" />
                  <path
                     d="m 91.006,164.77 2.4,-0.1 2.4,0.1 h 2.4 2.404 2.4 2.4 l 2.4,0.1 2.4,0.1 h 2.4 l 2.4,0.1 -0.9,0.1 h -1 -1 l -0.9,-0.1 -0.9,-0.2 -1,-0.2 -0.9,-0.3 -0.9,-0.4 -0.8,-0.41 -0.9,-0.5 v -1.2 l 1.7,-0.2 1.7,-0.1 1.6,-0.1 1.7,-0.1 h 1.7 l 1.7,0.1 1.7,0.1 1.6,0.2 1.7,0.2 1.7,0.3 1.9,0.4 1.9,0.5 1.8,0.5 1.8,0.51 1.9,0.6 1.8,0.6 1.9,0.5 1.9,0.61 1.9,0.5 2,0.5 2.5,0.5 2.5,0.3 2.5,0.3 2.4,0.2 2.5,0.1 2.5,0.1 2.4,0.11 h 2.5 2.5 2.5 l -1.2,-0.21 -1.2,-0.4 -1.1,-0.5 -1.2,-0.5 -1.1,-0.5 -1.2,-0.4 -1.2,-0.41 -1.2,-0.4 -1.3,-0.2 -1.3,-0.1 v -0.1 -0.1 -0.1 -0.1 -0.1 -0.1 -0.1 0 0 -0.1 h 1.2 l 1.2,-0.1 h 1.1 1.1 1.2 l 1.1,-0.1 1.1,-0.1 1,-0.1 1.1,-0.3 1.1,-0.51 v 0 0 -0.1 -0.2 -0.1 -0.2 -0.1 -0.2 -0.1 -0.2 l -0.7,-0.4 -0.8,-0.4 -1,-0.3 -0.9,-0.31 -0.9,-0.3 -0.8,-0.3 -0.7,-0.3 -0.4,-0.5 -0.1,-0.5 0.3,-0.71 0.8,-0.7 0.9,-0.4 1,-0.3 1.1,-0.1 1.2,-0.1 1.1,0.1 h 1.2 l 1.2,-0.1 1.2,-0.1 1.1,-0.3 v -0.81 l -2,-0.5 -2,-0.3 -2,-0.3 -2,-0.1 -2,-0.2 -2,-0.2 -2,-0.2 -2,-0.3 -2,-0.41 -2,-0.7 -0.5,-0.1 h -0.5 l -0.5,-0.1 -0.6,-0.1 h -0.5 -0.5 -0.6 -0.5 l -0.5,-0.1 h -0.5 l -0.6,-0.1 -0.6,-0.1 -0.7,-0.1 -0.6,-0.2 -0.6,-0.2 -0.7,-0.1 -0.6,-0.3 -0.5,-0.2 -0.6,-0.31 -0.5,-0.4 -0.4,-0.2 -0.5,-0.1 -0.5,-0.1 -0.6,-0.1 -0.5,-0.2 -0.4,-0.1 -0.4,-0.2 -0.1,-0.2 v -0.3 l 0.2,-0.5 0.8,-1.01 1,-0.7 1.1,-0.4 1.2,-0.3 1.3,-0.2 1.3,-0.1 1.3,-0.21 1.3,-0.3 1.2,-0.5 1.1,-0.7 v -0.1 -0.1 -0.2 -0.2 -0.2 -0.1 -0.2 -0.21 -0.1 -0.2 l -0.7,-0.3 -0.8,-0.3 -0.8,-0.3 -0.8,-0.3 -0.8,-0.3 -0.8,-0.3 -0.8,-0.3 -0.8,-0.41 -0.7,-0.5 -0.6,-0.6 v -0.1 -0.1 -0.2 -0.1 -0.2 -0.1 -0.2 -0.1 0 -0.1 l 2.3,-0.31 2.2,-0.2 2.3,-0.1 h 2.2 2.2 2.2 l 2.3,0.1 2.2,0.1 h 2.2 2.3 l 2.3,0.2 2.3,0.31 2.3,0.3 2.3,0.3 2.3,0.2 2.3,0.2 2.3,0.1 h 2.4 l 2.3,-0.3 2.4,-0.5 h 0.1 v -0.1 -0.1 l -0.1,-0.2 v -0.21 l -0.1,-0.2 -0.1,-0.2 -0.1,-0.2 -0.1,-0.2 v -0.2 l -1.7,-0.8 -1.8,-0.7 -1.9,-0.51 -1.9,-0.5 -1.9,-0.5 -1.8,-0.6 -1.8,-0.6 -1.6,-0.91 -1.5,-1.1 -1.3,-1.41 -0.3,-0.5 v -0.5 l 0.2,-0.4 0.5,-0.4 0.5,-0.41 0.6,-0.3 0.7,-0.4 0.6,-0.4 0.5,-0.5 0.3,-0.6 v -0.1 -0.1 -0.21 -0.2 -0.2 -0.1 -0.2 -0.2 -0.1 -0.2 l -1.3,-0.6 -1.4,-0.5 -1.5,-0.41 -1.4,-0.4 -1.4,-0.5 -1.3,-0.4 -1.3,-0.5 -1.2,-0.71 -1.1,-0.9 -0.9,-1 -0.3,-0.5 -0.2,-0.51 -0.1,-0.4 0.1,-0.4 0.1,-0.3 0.2,-0.4 0.2,-0.3 0.4,-0.3 0.4,-0.3 0.4,-0.21 0.2,-0.2 0.1,-0.1 0.1,-0.2 v -0.2 -0.1 l -0.1,-0.2 v -0.2 -0.2 -0.1 l 0.1,-0.1 -1.3,-0.4 -1.3,-0.4 -1.4,-0.31 -1.3,-0.4 -1.3,-0.3 -1.3,-0.4 -1.3,-0.4 -1.4,-0.3 -1.3,-0.4 -1.3,-0.31 0.4,-0.2 0.4,-0.2 h 0.4 0.4 0.4 l 0.4,-0.1 h 0.4 0.4 l 0.4,-0.2 0.4,-0.1 -4.4,-0.4 -4.5,-0.2 -4.4,-0.2 -4.5,-0.1 -4.4,-0.1 -4.4,-0.2 -4.5,-0.1 -4.4,-0.2 -4.5,-0.2 -4.4,-0.31 1.2,0.61 1.4,0.6 1.5,0.5 1.5,0.4 1.5,0.6 1.3,0.51 1.1,0.7 0.8,0.9 0.5,1.01 v 1.4 l -0.2,0.5 -0.4,0.4 -0.6,0.41 -0.6,0.3 -0.6,0.4 -0.6,0.3 -0.6,0.3 -0.3,0.4 -0.2,0.4 0.1,0.51 0.4,0.7 0.6,0.5 0.7,0.3 0.8,0.3 0.9,0.1 0.8,0.2 0.9,0.2 0.9,0.21 0.8,0.3 0.8,0.4 -0.6,0.5 -0.6,0.3 -0.7,0.1 -0.6,0.1 -0.7,0.1 h -0.6 -0.7 -0.6 l -0.7,0.1 -0.6,0.1 2.4,-0.1 h 2.4 2.4 2.4 l 2.4,-0.1 2.4,0.1 h 2.4 l 2.4,0.1 2.4,0.1 2.4,0.2 0.6,0.2 0.7,0.11 0.6,0.1 0.7,0.2 0.6,0.1 0.7,0.2 0.6,0.1 0.7,0.2 0.6,0.2 0.6,0.2 0.4,0.2 0.4,0.1 0.5,0.1 0.4,0.2 0.5,0.2 0.5,0.2 0.5,0.3 0.4,0.31 0.4,0.4 0.4,0.4 v 0.2 0.1 0.2 0.2 0.1 0.2 0.2 0.2 0.1 0.1 l -1.9,1.01 -2,0.7 -2,0.5 -2.1,0.4 -2,0.21 -2.1,0.3 -2.1,0.2 -2.1,0.3 -2,0.3 -2.1,0.5 -0.4,0.2 -0.4,0.3 -0.2,0.3 -0.2,0.31 -0.1,0.4 v 0.5 0.4 l 0.1,0.5 0.2,0.4 0.2,0.3 0.6,0.51 0.7,0.3 0.7,0.2 0.7,0.2 0.8,0.2 0.7,0.1 0.8,0.2 0.7,0.2 0.8,0.2 0.7,0.3 v 0.2 0.1 0.21 0.1 0.2 0.1 0.2 0.1 0 0 l -2.4,1 -2.5,0.6 -2.5,0.51 -2.5,0.2 -2.5,0.2 -2.6,0.2 -2.6,0.2 -2.5,0.4 -2.6,0.4 -2.5,0.7 v 0.11 0 0.1 0.2 0.1 0.2 0.1 0.2 0.1 0.1 l 0.7,0.9 0.9,0.5 1,0.41 1,0.3 1.1,0.2 1.1,0.2 1,0.3 0.8,0.5 0.7,0.6 0.5,0.91 -0.8,0.5 -0.9,0.3 -0.9,0.3 -0.9,0.3 -0.9,0.2 -0.9,0.2 -0.9,0.2 -0.9,0.31 -0.8,0.2 -0.9,0.3 -0.8,0.2 -0.9,0.1 -0.9,0.1 h -0.8 -0.8 l -0.8,0.1 -0.8,0.2 -0.7,0.3 -0.6,0.4 -0.5,0.61 -0.1,0.4 v 0.2 l 0.2,0.3 0.3,0.2 0.4,0.1 0.4,0.2 0.5,0.2 0.4,0.3 0.4,0.2 0.3,0.3 v 0.21 0.1 0.1 0.1 0.1 0.2 0.1 0.1 0.1 0.1 l -0.5,0.5 -0.6,0.3 -0.7,0.3 -0.6,0.2 -0.7,0.2 -0.6,0.31 -0.6,0.3 -0.6,0.4 -0.4,0.5 -0.304,0.6 0.204,0.1 h 0.2 l 0.2,0.1 0.1,0.1 0.1,0.1 0.1,0.2 0.2,0.1 0.1,0.11 h 0.2 0.2 z"
                     style="fill:#c3b5b0;fill-opacity:1;fill-rule:nonzero;stroke:none"
                     id="path76" />
                  <path
                     d="m 111.01,88.485 -0.1,0.1 -0.2,0.1 h -0.2 -0.2 l -0.2,-0.1 -0.2,-0.1 -0.1,-0.101 h -0.1 v 0 l 0.1,0.101 1.7,0.903 1.7,0.602 1.7,0.301 1.8,0.201 h 1.7 l 1.7,-0.1 1.8,-0.201 1.7,-0.1 1.7,-0.101 1.7,0.101 -1.1,-0.101 -1,-0.1 -1.1,-0.101 -1.1,-0.1 -1,-0.1 -1.1,-0.201 -1,-0.201 -1,-0.401 -1,-0.502 -1,-0.602 0.8,-0.101 h 0.8 l 0.8,-0.1 h 0.8 l 0.8,-0.101 0.8,-0.2 0.8,-0.101 0.8,-0.2 0.8,-0.201 0.8,-0.201 -0.6,-0.502 -0.7,-0.301 -0.7,-0.301 -0.7,-0.301 -0.7,-0.101 -0.7,-0.2 -0.7,-0.201 -0.7,-0.1 -0.7,-0.201 -0.6,-0.201 -0.5,-0.301 -0.5,-0.1 -0.4,-0.201 -0.5,-0.101 -0.5,-0.1 -0.5,-0.201 -0.5,-0.1 -0.4,-0.201 -0.5,-0.1 -0.5,-0.201 -0.5,-0.201 -0.5,-0.1 -0.6,-0.201 -0.5,-0.301 -0.5,-0.301 -0.5,-0.402 -0.5,-0.401 -0.3,-0.502 -0.3,-0.602 -0.2,-0.602 h 0.2 l 0.2,0.1 0.2,-0.1 h 0.2 l 0.2,-0.101 0.2,-0.1 0.2,-0.101 0.2,-0.1 h 0.2 0.2 l -0.5,-0.602 -0.6,-0.502 -0.6,-0.502 -0.7,-0.401 -0.7,-0.302 -0.7,-0.301 -0.8,-0.301 -0.7,-0.301 -0.8,-0.201 -0.7,-0.2 -0.2,-0.201 -0.3,-0.1 -0.2,-0.101 -0.2,-0.201 -0.1,-0.1 -0.2,-0.201 -0.1,-0.1 v -0.201 -0.201 l 0.1,-0.2 0.6,-0.502 0.7,-0.301 0.7,-0.201 0.8,-0.201 0.8,-0.201 0.6,-0.301 0.4,-0.401 0.3,-0.502 -0.1,-0.602 -0.4,-0.803 -0.5,-0.502 -0.6,-0.502 -0.6,-0.402 -0.6,-0.501 -0.5,-0.402 -0.4,-0.502 -0.3,-0.602 -0.1,-0.502 0.1,-0.703 0.3,-0.602 0.1,-0.301 0.2,-0.201 0.1,-0.2 0.2,-0.201 0.1,-0.201 0.1,-0.201 0.1,-0.301 v -0.201 -0.301 l -0.1,-0.301 -0.3,-0.401 -0.3,-0.201 -0.3,-0.301 -0.3,-0.201 -0.4,-0.1 -0.3,-0.201 -0.4,-0.201 -0.3,-0.301 -0.3,-0.201 -0.3,-0.301 h 0.5 0.4 0.5 0.4 0.4 0.4 0.5 0.4 0.4 0.5 -1 l -1.1,0.201 -1.1,0.301 -1,0.402 -0.9,0.501 -0.804,0.502 -0.6,0.703 -0.3,0.803 v 0.803 l 0.4,1.004 0.604,0.803 0.7,0.803 0.8,0.702 0.8,0.803 0.8,0.803 0.7,0.803 0.7,0.904 0.4,1.003 0.2,1.004 -0.1,1.205 -0.3,0.401 -0.3,0.402 -0.4,0.301 -0.4,0.301 -0.5,0.301 -0.5,0.201 -0.5,0.2 -0.5,0.201 -0.5,0.201 -0.5,0.301 -0.2,0.1 -0.1,0.101 -0.1,0.201 -0.1,0.2 v 0.201 0.1 0.201 l 0.1,0.201 v 0.1 0.201 0.1 h 0.1 v 0.101 l 0.1,0.1 h 0.1 0.1 0.1 0.1 l 0.1,0.101 h 0.1 v 0.1 0.1 0.101 0.1 0.1 0.101 0.1 0 0 0.101 l -0.8,0.1 h -0.804 l -0.8,0.1 -0.8,0.101 h -0.8 -0.8 -0.8 -0.8 l -0.8,0.1 h -0.8 l 0.5,0.602 0.6,0.603 0.6,0.602 0.6,0.502 0.6,0.502 0.6,0.401 0.5,0.502 0.5,0.602 0.4,0.602 0.3,0.703 0.1,0.402 0.2,0.501 0.1,0.502 0.2,0.402 0.2,0.401 0.3,0.402 0.3,0.301 0.404,0.301 0.5,0.201 0.5,0.201 h 0.5 0.5 0.5 0.4 0.5 0.5 0.5 0.5 0.4 0.5 z"
                     style="fill:#c3b5b0;fill-opacity:1;fill-rule:nonzero;stroke:none"
                     id="path78" />
                  <path
                     d="m 95.006,58.372 0.5,0.101 0.5,0.1 0.5,0.1 0.5,0.101 h 0.6 0.5 0.4 l 0.5,-0.101 0.4,-0.1 0.4,-0.201 0.1,-0.1 -0.1,-0.101 -0.1,-0.2 -0.1,-0.301 -0.2,-0.201 -0.2,-0.402 -0.1,-0.301 -0.1,-0.301 -0.1,-0.301 0.1,-0.201 0.6,-0.502 0.704,-0.401 0.7,-0.301 0.8,-0.301 0.7,-0.302 0.6,-0.401 0.6,-0.401 0.6,-0.502 0.4,-0.603 0.3,-0.702 h -0.2 -0.3 -0.3 l -0.3,0.1 -0.3,0.101 -0.3,0.1 -0.3,0.1 -0.3,0.101 -0.2,0.1 -0.3,0.201 -0.6,0.201 -0.6,0.301 -0.5,0.401 -0.604,0.301 -0.5,0.402 -0.6,0.401 -0.6,0.402 -0.6,0.401 -0.7,0.402 -0.7,0.401 z"
                     style="fill:#c3b5b0;fill-opacity:1;fill-rule:nonzero;stroke:none"
                     id="path80" />
                  <path
                     d="m 53.403,194.48 2.801,-0.1 h 2.7 2.8 2.8 l 2.7,-0.1 2.801,-0.1 2.7,-0.2 2.8,-0.2 2.8,-0.2 2.7,-0.4 -0.7,-0.21 -0.7,-0.1 -0.7,-0.1 -0.7,-0.1 -0.7,-0.1 h -0.7 l -0.7,-0.1 -0.6,-0.1 -0.7,-0.1 -0.6,-0.3 v -0.8 l 1,-0.4 1,-0.31 1.1,-0.1 h 1 1.1 l 1.1,0.1 h 1.1 l 1,-0.1 1,-0.3 1,-0.5 v -0.1 -0.1 -0.2 -0.1 -0.2 -0.1 -0.2 -0.1 0 -0.1 l 1.701,-0.5 1.8,-0.41 1.7,-0.4 1.8,-0.2 1.9,-0.2 1.8,-0.1 1.8,-0.1 h 1.9 1.804 l 1.8,-0.1 h -2.704 -2.8 l -2.8,-0.1 -2.7,-0.1 h -2.8 -2.7 -2.801 l -2.8,0.1 -2.7,0.2 -2.8,0.3 -0.7,0.2 -0.7,0.2 -0.7,0.2 -0.8,0.2 -0.7,0.2 -0.7,0.31 -0.7,0.2 -0.701,0.2 -0.8,0.2 -0.7,0.1 -3.1,0.6 -3.2,0.4 -3.2,0.5 -3.1,0.41 -3.101,0.5 -3,0.7 -2.9,0.9 -2.8,1.21 -2.7,1.4 -2.501,1.81 h 0.801 0.8 0.8 0.8 0.8 0.8 0.8 0.8 0.8 0.8 l -1.3,-0.1 h -1.3 l -1.3,0.1 -1.4,0.2 -1.3,0.2 -1.301,0.3 -1.3,0.3 -1.3,0.3 -1.4,0.21 -1.3,0.1 1.5,0.1 1.4,0.1 1.4,-0.1 1.501,-0.1 1.4,-0.2 1.5,-0.21 1.4,-0.2 1.4,-0.3 1.5,-0.3 1.4,-0.4 z"
                     style="fill:#d1c6c2;fill-opacity:1;fill-rule:nonzero;stroke:none"
                     id="path82" />
                  <path
                     d="m 122.61,194.08 3,-0.1 h 3 l 3,0.1 h 3 3 3 l 3,-0.1 3,-0.3 3,-0.5 3,-0.81 h -1.9 -2 -1.9 -2 -2 -2 -1.9 -2 -2 -1.9 z"
                     style="fill:#d1c6c2;fill-opacity:1;fill-rule:nonzero;stroke:none"
                     id="path84" />
                  <path
                     d="m 177.81,216.56 1.6,0.2 1.6,0.1 1.6,0.1 h 1.6 1.6 1.6 1.6 1.6 1.6 l 1.6,-0.1 0.4,-0.1 0.4,-0.2 0.3,-0.2 0.4,-0.2 0.3,-0.3 0.2,-0.2 0.2,-0.2 v -0.2 -0.2 l -0.2,-0.2 -2.1,-0.81 -2.1,-0.6 -2.2,-0.5 -2.2,-0.3 -2.2,-0.2 h -2.3 -2.2 -2.3 -2.2 -2.2 z"
                     style="fill:#d1c6c2;fill-opacity:1;fill-rule:nonzero;stroke:none"
                     id="path86" />
                  <path
                     d="m 26.602,219.37 h -0.5 -0.5 -0.5 -0.5 -0.6 -0.5 -0.601 l -0.5,-0.1 -0.5,-0.1 -0.5,-0.3 -1,-0.4 -0.9,-0.4 -1,-0.5 -1,-0.41 -1,-0.5 -0.9,-0.5 -0.9,-0.5 -0.9,-0.7 -0.8,-0.81 -0.8,-0.9 -0.3,-0.7 -0.2,-0.71 -0.2,-0.7 v -0.7 -0.8 -0.71 l 0.1,-0.7 0.2,-0.7 0.2,-0.7 0.2,-0.81 0.2,-0.7 0.4,-0.6 0.6,-0.5 0.7,-0.3 0.8,-0.31 0.8,-0.2 0.9,-0.1 h 0.8 0.8 l 0.8,-0.1 h -0.4 -0.5 l -0.3,0.1 -0.4,0.1 -0.2,0.2 -0.3,0.31 -0.2,0.3 -0.2,0.3 -0.2,0.4 -0.1,0.3 -0.2,1 -0.2,1.01 -0.2,1.1 -0.1,1.01 -0.1,1 0.1,1.1 0.1,0.91 0.3,0.9 0.5,0.9 0.6,0.71 z"
                     style="fill:#d1c6c2;fill-opacity:1;fill-rule:nonzero;stroke:none"
                     id="path88" />
                  <path
                     d="m 116.61,160.75 3.2,0.2 3.2,0.31 3.2,0.2 3.2,0.3 3.2,0.3 3.2,0.3 3.2,0.2 3.2,0.2 3.2,0.2 3.2,0.1 h -1.9 l -1.8,-0.2 -1.9,-0.4 -1.8,-0.4 -1.8,-0.5 -1.8,-0.4 -1.8,-0.51 -1.8,-0.5 -1.9,-0.4 -1.9,-0.3 h 1.4 1.5 1.4 1.5 1.4 1.4 1.5 1.4 1.5 1.4 l -0.3,-0.3 -0.3,-0.3 -0.3,-0.3 -0.4,-0.31 -0.3,-0.3 -0.4,-0.2 -0.4,-0.2 -0.4,-0.2 -0.4,-0.1 -0.4,-0.2 -1.5,-0.4 -1.5,-0.3 -1.5,-0.2 -1.5,-0.3 -1.5,-0.2 -1.6,-0.31 -1.5,-0.4 -1.4,-0.6 -1.4,-0.7 -1.4,-1.01 h 1 0.9 l 1,-0.1 1,-0.2 1,-0.1 1,-0.2 1,-0.1 1,-0.2 1,-0.1 1.1,-0.2 h 0.1 0.2 l 0.1,-0.1 0.2,-0.2 0.1,-0.1 0.1,-0.2 0.1,-0.1 v -0.2 -0.1 l -0.1,-0.21 -1,-0.4 -1,-0.3 -1,-0.4 -1.1,-0.2 -1.1,-0.3 -1.1,-0.3 -1,-0.3 -1.1,-0.4 -1,-0.41 -1,-0.6 1,-0.2 1,-0.1 1,-0.1 1,-0.1 h 1 1 l 1,-0.1 h 1 l 1,-0.1 1,-0.1 0.2,-0.1 0.2,-0.2 v -0.2 l 0.1,-0.2 v -0.21 -0.2 -0.2 l -0.1,-0.1 v -0.1 -0.1 l -1.9,-0.3 -2,-0.2 -1.9,-0.1 -2,0.1 -2,0.1 -2,0.2 -1.9,0.1 -2,0.1 -2,0.1 -1.9,-0.1 0.8,0.81 0.8,0.6 0.9,0.6 0.9,0.4 0.9,0.4 0.9,0.5 0.8,0.41 0.8,0.6 0.7,0.6 0.5,0.7 0.4,0.91 v 0.8 l -0.3,0.6 -0.5,0.5 -0.8,0.41 -0.9,0.4 -1,0.2 -1,0.1 -1,0.1 h -0.9 v 0.2 0.1 0.1 0.1 0.1 0.2 0.1 0.1 0.1 0.1 l 0.5,0.4 0.5,0.21 0.4,0.2 0.5,0.2 0.5,0.1 0.5,0.2 0.5,0.1 h 0.4 l 0.5,0.1 0.5,0.1 -1.3,0.1 h -1.3 l -1.4,0.1 -1.3,0.1 -1.3,0.1 -1.3,0.1 h -1.3 l -1.4,0.1 -1.3,-0.1 -1.3,-0.1 1.5,0.8 1.5,0.61 1.5,0.5 1.6,0.4 1.6,0.3 1.6,0.3 1.7,0.3 1.7,0.2 1.6,0.3 1.7,0.31 z"
                     style="fill:#d1c6c2;fill-opacity:1;fill-rule:nonzero;stroke:none"
                     id="path90" />
                  <path
                     d="m 151.41,131.04 -0.2,0.1 -0.3,0.2 -0.3,0.31 -0.2,0.2 -0.2,0.3 -0.2,0.3 -0.2,0.2 -0.1,0.2 v 0.1 h 0.1 l 2.2,0.4 2.1,0.2 2.2,0.1 h 2.1 2.2 2.2 l 2.1,-0.1 2.2,-0.1 h 2.1 l 2.2,-0.1 -1.5,-0.3 -1.6,-0.3 -1.5,-0.4 -1.5,-0.3 -1.4,-0.4 -1.5,-0.41 -1.5,-0.5 -1.4,-0.5 -1.5,-0.6 -1.4,-0.7 -0.1,-0.1 -0.1,-0.11 -0.1,-0.2 v -0.2 -0.2 l -0.1,-0.1 v -0.2 -0.2 -0.1 -0.2 l 0.6,-0.2 0.7,-0.1 0.6,-0.1 0.7,-0.1 0.7,-0.1 h 0.7 l 0.7,-0.1 0.7,-0.1 0.7,-0.1 0.7,-0.31 v -1.2 l -0.9,-0.3 -1,-0.3 -0.9,-0.3 -0.9,-0.3 -0.9,-0.31 -1,-0.3 -0.9,-0.2 -1,-0.3 -1,-0.2 -1.1,-0.3 h -0.2 -0.2 l -0.3,-0.1 -0.3,-0.2 -0.2,-0.2 -0.3,-0.1 -0.2,-0.3 -0.1,-0.2 v -0.2 l 0.2,-0.31 0.6,-0.3 0.7,-0.3 0.8,-0.1 0.7,-0.1 h 0.8 0.7 l 0.7,-0.1 0.7,-0.2 0.6,-0.4 0.5,-0.4 -0.7,-0.3 -0.8,-0.21 -0.7,-0.2 -0.8,-0.2 -0.8,-0.2 -0.8,-0.1 -0.7,-0.2 -0.8,-0.2 -0.8,-0.2 -0.7,-0.2 0.5,-0.1 h 0.4 0.5 0.4 l 0.4,-0.1 0.3,-0.1 0.4,-0.2 0.4,-0.2 0.3,-0.2 0.4,-0.41 v -0.1 -0.1 -0.1 -0.1 -0.2 -0.1 -0.1 -0.1 -0.1 -0.1 l -1.8,-0.9 -1.9,-0.61 -2,-0.4 -1.9,-0.3 -2,-0.1 -2.1,-0.1 h -2 -2 -1.9 -2 l -0.1,-0.1 -0.2,-0.1 h -0.1 l -0.2,-0.1 h -0.2 -0.2 l -0.1,-0.1 -0.2,-0.1 -0.2,-0.1 -0.1,-0.2 h 0.6 0.6 0.5 0.6 0.5 0.6 0.5 0.6 0.5 0.6 l -1.1,-0.1 h -1.1 -1 -1.1 -1.1 -1.1 -1.1 l -1,0.1 -1.1,0.1 -1.1,0.3 -0.5,0.1 -0.4,0.2 -0.5,0.3 -0.3,0.3 -0.3,0.3 -0.3,0.31 -0.1,0.4 v 0.3 l 0.1,0.3 0.3,0.3 1.2,0.7 1.3,0.61 1.4,0.5 1.4,0.4 1.4,0.4 1.5,0.3 1.4,0.3 1.5,0.3 1.5,0.4 1.4,0.51 h 0.6 l 0.7,0.1 h 0.6 l 0.7,0.1 h 0.7 l 0.6,0.2 0.5,0.3 0.5,0.4 0.4,0.5 0.3,0.71 h -0.5 -0.5 -0.4 -0.5 -0.5 -0.5 -0.5 -0.4 -0.5 -0.5 l 1.4,0.1 1.4,0.1 1.4,0.1 1.4,0.2 1.4,0.3 1.3,0.4 1.3,0.4 1.4,0.6 1.3,0.71 1.3,0.7 v 0.2 0.1 l 0.1,0.2 v 0.2 0.1 0.2 l -0.1,0.2 v 0.2 l -0.2,0.1 -0.2,0.1 z"
                     style="fill:#d1c6c2;fill-opacity:1;fill-rule:nonzero;stroke:none"
                     id="path92" />
                  <path
                     d="m 105.01,84.871 1,0.402 1,0.401 1,0.301 1,0.201 1.1,0.301 1,0.1 1.1,0.101 1.1,0.1 h 1 l 1.1,0.101 -0.9,-0.402 -0.9,-0.201 -1,-0.2 -1,-0.201 -1,-0.201 -1,-0.301 -0.9,-0.402 -0.8,-0.401 -0.7,-0.602 -0.6,-0.703 0.5,-0.1 0.5,-0.101 h 0.5 l 0.4,-0.1 h 0.5 0.5 l 0.5,-0.1 0.4,-0.101 0.5,-0.1 0.5,-0.201 -0.9,-0.201 -1,-0.2 h -0.9 -0.9 -0.9 -0.9 l -0.9,0.1 h -0.9 l -0.9,-0.1 h -1 z"
                     style="fill:#d1c6c2;fill-opacity:1;fill-rule:nonzero;stroke:none"
                     id="path94" />
                </g>
              </g>
            </g>
          </g>
        </g>
      </g>
      <g
         id="g260">
        <g
           id="g262"
           clip-path="url(#clipPath266)">
          <text
             xml:space="preserve"
             transform="matrix(1,0,0,-1,96.624,345.55)"
             style="font-variant:normal;font-weight:bold;font-size:36px;font-family:'Times New Roman';-inkscape-font-specification:TimesNewRomanPS-BoldMT;writing-mode:lr-tb;fill:#ffff00;fill-opacity:1;fill-rule:nonzero;stroke:none"
             id="text270"><tspan
               x="0 20.016001 30.024 50.040001 59.040001 83.052002 99.036003"
               y="0"
               sodipodi:role="line"
               id="tspan268">Sin Ley</tspan></text>
        </g>
      </g>
      <g
         id="g272">
        <g
           id="g274"
           clip-path="url(#clipPath278)">
          <text
             xml:space="preserve"
             transform="matrix(1,0,0,-1,63.24,302.35)"
             style="font-style:italic;font-variant:normal;font-weight:normal;font-size:36.024px;font-family:'Times New Roman';-inkscape-font-specification:TimesNewRomanPS-ItalicMT;writing-mode:lr-tb;fill:#ffff00;fill-opacity:1;fill-rule:nonzero;stroke:none"
             id="text282"><tspan
               x="0 30.007992 48.019993 60.808514 76.803169 94.81517 108.82851 117.8345 135.8465 147.91455 165.92654"
               y="0"
               sodipodi:role="line"
               id="tspan280">Marcos 7:21</tspan></text>
        </g>
      </g>
      <g
         id="g382">
        <g
           id="g384"
           clip-path="url(#clipPath388)">
          <text
             xml:space="preserve"
             transform="matrix(1,0,0,-1,48.6,205.37)"
             style="font-variant:normal;font-weight:bold;font-size:32.064px;font-family:'Times New Roman';-inkscape-font-specification:TimesNewRomanPS-BoldMT;writing-mode:lr-tb;fill:#ffff00;fill-opacity:1;fill-rule:nonzero;stroke:none"
             id="text392"><tspan
               x="0 23.150208 37.386623 53.482754 67.71917 85.546753 99.783165 114.01958 130.11571 144.35213 153.26591 169.29791"
               y="0"
               sodipodi:role="line"
               id="tspan390">Degeneración</tspan></text>
        </g>
      </g>
      <g
         id="g394">
        <g
           id="g396"
           clip-path="url(#clipPath400)">
          <text
             xml:space="preserve"
             transform="matrix(1,0,0,-1,86.04,166.94)"
             style="font-variant:normal;font-weight:bold;font-size:32.04px;font-family:'Times New Roman';-inkscape-font-specification:TimesNewRomanPS-BoldMT;writing-mode:lr-tb;fill:#ffff00;fill-opacity:1;fill-rule:nonzero;stroke:none"
             id="text404"><tspan
               x="0 12.46356 30.2778 56.967121 72.987122 87.212883 103.23288"
               y="0"
               sodipodi:role="line"
               id="tspan402">Inmoral</tspan></text>
        </g>
      </g>
    </g>
  </g>
</svg>
