<svg width="3366" height="2052" xmlns="http://www.w3.org/2000/svg" xmlns:xlink="http://www.w3.org/1999/xlink" overflow="hidden"><defs><filter id="fx0" x="-10%" y="-10%" width="120%" height="120%" filterUnits="userSpaceOnUse" primitiveUnits="userSpaceOnUse"><feComponentTransfer color-interpolation-filters="sRGB"><feFuncR type="discrete" tableValues="0.752941 0.752941"/><feFuncG type="discrete" tableValues="0.752941 0.752941"/><feFuncB type="discrete" tableValues="0.752941 0.752941"/><feFuncA type="linear" slope="0.8" intercept="0"/></feComponentTransfer><feGaussianBlur stdDeviation="0 0"/></filter><clipPath id="clip1"><rect x="49" y="137" width="3366" height="2052"/></clipPath><clipPath id="clip2"><rect x="0" y="0" width="593" height="105"/></clipPath><clipPath id="clip3"><rect x="0" y="0" width="2037" height="359"/></clipPath></defs><g clip-path="url(#clip1)" transform="translate(-49 -137)"><g clip-path="url(#clip2)" filter="url(#fx0)" transform="translate(668 146)"><g clip-path="url(#clip3)"><path d="M575.652 125.43C554.256 125.43 535.115 130.984 518.23 142.091 501.345 153.198 491.484 168.654 488.649 188.457 543.3 188.457 597.951 188.457 652.602 188.457 651.313 173.303 648.606 162.627 644.481 156.427 638.037 146.784 628.434 139.206 615.674 133.696 602.913 128.185 589.573 125.43 575.652 125.43ZM1559.85 124.138C1546.19 124.138 1532.46 126.851 1518.67 132.275 1504.88 137.7 1493.73 147.214 1485.22 160.818 1476.72 174.423 1472.46 191.902 1472.46 213.255 1472.46 247.696 1482.71 277.402 1503.2 302.372 1523.7 327.342 1550.7 339.827 1584.21 339.827 1609.22 339.827 1629.84 332.938 1646.08 319.162 1662.32 305.385 1670.44 281.707 1670.44 248.127 1670.44 206.109 1656.91 173.045 1629.84 148.936 1611.54 132.404 1588.21 124.138 1559.85 124.138ZM1879.56 107.348C1884.97 107.348 1890.39 107.348 1895.8 107.348 1895.8 125.086 1895.8 142.823 1895.8 160.56 1925.45 125.086 1955.87 107.348 1987.06 107.348 2001.24 107.348 2012.97 110.233 2022.25 116.002 2031.53 121.771 2036.17 128.444 2036.17 136.021 2036.17 142.737 2032.82 148.42 2026.11 153.069 2019.41 157.719 2011.42 160.043 2002.14 160.043 1993.12 160.043 1983 157.073 1971.78 151.132 1960.57 145.191 1952.26 142.22 1946.84 142.22 1942.2 142.22 1937.18 143.942 1931.76 147.386 1920.16 154.447 1908.17 166.071 1895.8 182.258 1895.8 220.057 1895.8 257.857 1895.8 295.656 1895.8 308.743 1898.25 318.645 1903.15 325.361 1906.5 330.011 1912.43 333.886 1920.94 336.985 1929.44 340.085 1941.69 341.635 1957.67 341.635 1957.67 344.735 1957.67 347.834 1957.67 350.934 1897.22 350.934 1836.77 350.934 1776.32 350.934 1776.32 347.834 1776.32 344.735 1776.32 341.635 1794.36 341.635 1807.77 339.741 1816.53 335.952 1822.98 333.197 1827.49 328.805 1830.06 322.778 1831.35 319.851 1832 311.499 1832 297.722 1832 267.156 1832 236.589 1832 206.022 1832 178.47 1831.16 162.067 1829.48 156.815 1827.81 151.562 1824.72 147.731 1820.2 145.32 1815.69 142.909 1810.09 141.703 1803.38 141.703 1795.39 141.703 1786.37 142.995 1776.32 145.578 1775.03 142.478 1773.74 139.379 1772.45 136.279 1808.15 126.635 1843.86 116.992 1879.56 107.348ZM1571.84 107.348C1625.46 107.348 1668.51 120.953 1700.99 148.161 1728.58 171.409 1742.37 198.101 1742.37 228.237 1742.37 249.418 1734.76 270.858 1719.55 292.556 1704.34 314.254 1683.4 330.614 1656.72 341.635 1630.04 352.656 1600.33 358.167 1567.59 358.167 1514.23 358.167 1471.82 343.96 1440.37 315.546 1413.82 291.609 1400.54 264.745 1400.54 234.953 1400.54 213.255 1408.6 191.686 1424.71 170.247 1440.82 148.807 1462.02 132.964 1488.32 122.718 1514.61 112.471 1542.45 107.348 1571.84 107.348ZM872.816 107.348C878.358 107.348 883.901 107.348 889.443 107.348 889.443 124.138 889.443 140.929 889.443 157.719 915.222 140.498 930.432 130.596 935.072 128.013 946.672 121.469 959.175 116.389 972.58 112.773 985.985 109.157 999.261 107.348 1012.41 107.348 1034.58 107.348 1053.65 111.654 1069.64 120.264 1085.62 128.874 1096.32 141.359 1101.73 157.719 1128.28 137.054 1150.71 123.493 1169.01 117.035 1187.32 110.577 1206.14 107.348 1225.47 107.348 1244.29 107.348 1260.98 110.577 1275.55 117.035 1290.11 123.493 1301.65 134.04 1310.15 148.678 1315.82 158.666 1318.66 174.337 1318.66 195.69 1318.66 229.615 1318.66 263.539 1318.66 297.464 1318.66 312.274 1320.34 322.434 1323.69 327.944 1326.26 331.733 1331.03 334.962 1337.99 337.631 1344.95 340.3 1356.3 341.635 1372.02 341.635 1372.02 344.735 1372.02 347.834 1372.02 350.934 1313.76 350.934 1255.5 350.934 1197.24 350.934 1197.24 347.834 1197.24 344.735 1197.24 341.635 1199.69 341.635 1202.14 341.635 1204.59 341.635 1219.8 341.635 1231.66 339.654 1240.16 335.694 1246.09 332.938 1250.35 328.547 1252.92 322.52 1253.96 319.592 1254.47 311.24 1254.47 297.464 1254.47 263.539 1254.47 229.615 1254.47 195.69 1254.47 176.403 1250.99 162.799 1244.03 154.877 1233.98 143.856 1217.86 138.345 1195.7 138.345 1182.03 138.345 1168.31 140.627 1154.51 145.191 1140.72 149.754 1124.03 158.235 1104.44 170.634 1104.18 171.581 1103.92 172.528 1103.66 173.476 1103.92 177.178 1104.18 180.88 1104.44 184.583 1104.44 222.21 1104.44 259.837 1104.44 297.464 1104.44 313.651 1105.79 323.725 1108.5 327.686 1111.21 331.647 1116.3 334.962 1123.77 337.631 1131.25 340.3 1144.01 341.635 1162.05 341.635 1162.05 344.735 1162.05 347.834 1162.05 350.934 1102.38 350.934 1042.7 350.934 983.02 350.934 983.02 347.834 983.02 344.735 983.02 341.635 1002.61 341.635 1016.08 340.085 1023.43 336.985 1030.78 333.886 1035.87 329.236 1038.7 323.037 1039.99 320.109 1040.64 311.585 1040.64 297.464 1040.64 263.539 1040.64 229.615 1040.64 195.69 1040.64 176.403 1036.38 162.54 1027.88 154.102 1016.53 143.081 1000.68 137.571 980.314 137.571 966.393 137.571 952.601 140.068 938.939 145.061 917.542 152.639 901.044 161.163 889.443 170.634 889.443 212.911 889.443 255.187 889.443 297.464 889.443 312.962 891.055 323.037 894.277 327.686 897.499 332.336 902.268 335.823 908.584 338.148 914.9 340.472 927.725 341.635 947.059 341.635 947.059 344.735 947.059 347.834 947.059 350.934 888.67 350.934 830.281 350.934 771.892 350.934 771.892 347.834 771.892 344.735 771.892 341.635 788.133 341.635 799.475 340.472 805.92 338.148 812.365 335.823 817.263 332.12 820.614 327.04 823.965 321.96 825.641 312.101 825.641 297.464 825.641 267.328 825.641 237.192 825.641 207.056 825.641 181.053 824.481 164.262 822.161 156.685 820.356 151.003 817.521 147.085 813.654 144.932 809.787 142.78 804.502 141.703 797.8 141.703 790.582 141.703 781.946 142.995 771.892 145.578 769.959 142.478 768.025 139.379 766.092 136.279 801.667 126.635 837.241 116.992 872.816 107.348ZM597.306 107.09C637.006 107.09 669.616 115.83 695.137 133.308 720.658 150.787 733.418 174.164 733.418 203.439 651.828 203.439 570.238 203.439 488.649 203.439 488.391 238.569 501.151 266.122 526.93 286.098 552.709 306.074 582.999 316.062 617.8 316.062 641.001 316.062 661.173 311.8 678.316 303.276 695.459 294.752 709.831 280.157 721.431 259.492 725.427 261.215 729.423 262.937 733.418 264.659 728.005 288.251 712.28 309.734 686.243 329.107 660.206 348.48 627.596 358.167 588.412 358.167 545.878 358.167 509.465 347.102 479.175 324.974 448.885 302.845 433.74 273.097 433.74 235.728 433.74 195.26 449.271 163.703 480.335 141.058 511.398 118.413 550.389 107.09 597.306 107.09ZM7.35361 0.666649C150.039 0.666649 292.725 0.666649 435.411 0.666649 437.344 28.0474 439.277 55.4282 441.211 82.809 436.313 82.809 431.415 82.809 426.517 82.809 423.681 68.3437 419.814 58.0113 414.917 51.8119 406.925 41.8239 396.291 34.4621 383.015 29.7264 369.739 24.9908 352.274 22.6229 330.62 22.6229 306.001 22.6229 281.382 22.6229 256.764 22.6229 256.764 111.826 256.764 201.029 256.764 290.231 256.764 311.757 260.244 325.189 267.204 330.528 277 337.76 292.08 341.376 312.446 341.376 318.504 341.376 324.562 341.376 330.62 341.376 330.62 344.562 330.62 347.748 330.62 350.934 256.506 350.934 182.392 350.934 108.278 350.934 108.278 347.748 108.278 344.562 108.278 341.376 114.465 341.376 120.651 341.376 126.838 341.376 149.008 341.376 164.733 336.899 174.014 327.944 179.685 322.434 182.521 309.863 182.521 290.231 182.521 201.029 182.521 111.826 182.521 22.6229 161.511 22.6229 140.501 22.6229 119.491 22.6229 95.0015 22.6229 77.6008 23.8284 67.2893 26.2393 53.8843 29.5112 42.4128 35.7967 32.8746 45.0958 23.3365 54.395 17.6651 66.966 15.8606 82.809 10.9626 82.809 6.06467 82.809 1.1667 82.809 3.229 55.4282 5.2913 28.0474 7.35361 0.666649Z" fill="#FFFF00" fill-rule="evenodd"/></g></g><path d="M1234.49 262.263C1213.09 262.263 1193.95 267.817 1177.06 278.924 1160.18 290.032 1150.32 305.487 1147.48 325.291 1202.13 325.291 1256.78 325.291 1311.44 325.291 1310.15 310.137 1307.44 299.46 1303.31 293.26 1296.87 283.617 1287.27 276.04 1274.51 270.529 1261.75 265.019 1248.41 262.263 1234.49 262.263ZM2218.69 260.972C2205.02 260.972 2191.3 263.684 2177.51 269.109 2163.71 274.533 2152.56 284.047 2144.06 297.652 2135.55 311.256 2131.3 328.735 2131.3 350.088 2131.3 384.53 2141.54 414.235 2162.04 439.205 2182.53 464.175 2209.54 476.66 2243.05 476.66 2268.05 476.66 2288.68 469.772 2304.92 455.995 2321.16 442.219 2329.28 418.54 2329.28 384.96 2329.28 342.942 2315.74 309.878 2288.68 285.769 2270.37 269.238 2247.04 260.972 2218.69 260.972ZM2538.39 244.182C2543.81 244.182 2549.22 244.182 2554.63 244.182 2554.63 261.919 2554.63 279.656 2554.63 297.393 2584.28 261.919 2614.7 244.182 2645.89 244.182 2660.07 244.182 2671.8 247.066 2681.08 252.835 2690.36 258.604 2695 265.277 2695 272.854 2695 279.57 2691.65 285.253 2684.95 289.902 2678.24 294.552 2670.25 296.877 2660.97 296.877 2651.95 296.877 2641.83 293.906 2630.62 287.965 2619.4 282.024 2611.09 279.053 2605.68 279.053 2601.04 279.053 2596.01 280.776 2590.6 284.22 2579 291.28 2567.01 302.904 2554.63 319.091 2554.63 356.891 2554.63 394.69 2554.63 432.489 2554.63 445.577 2557.08 455.479 2561.98 462.195 2565.33 466.844 2571.26 470.719 2579.77 473.819 2588.28 476.918 2600.52 478.468 2616.5 478.468 2616.5 481.568 2616.5 484.668 2616.5 487.767 2556.05 487.767 2495.6 487.767 2435.15 487.767 2435.15 484.668 2435.15 481.568 2435.15 478.468 2453.19 478.468 2466.6 476.574 2475.36 472.785 2481.81 470.03 2486.32 465.639 2488.9 459.612 2490.19 456.684 2490.83 448.332 2490.83 434.556 2490.83 403.989 2490.83 373.422 2490.83 342.856 2490.83 315.303 2489.99 298.9 2488.32 293.648 2486.64 288.396 2483.55 284.564 2479.04 282.153 2474.53 279.742 2468.92 278.537 2462.22 278.537 2454.23 278.537 2445.2 279.828 2435.15 282.411 2433.86 279.312 2432.57 276.212 2431.28 273.112 2466.99 263.469 2502.69 253.825 2538.39 244.182ZM2230.67 244.182C2284.29 244.182 2327.34 257.786 2359.83 284.995 2387.41 308.242 2401.2 334.934 2401.2 365.07 2401.2 386.252 2393.6 407.691 2378.39 429.389 2363.18 451.087 2342.23 467.447 2315.55 478.468 2288.87 489.489 2259.16 495 2226.42 495 2173.06 495 2130.65 480.793 2099.2 452.379 2072.65 428.442 2059.37 401.578 2059.37 371.786 2059.37 350.088 2067.43 328.52 2083.54 307.08 2099.65 285.64 2120.86 269.797 2147.15 259.551 2173.45 249.305 2201.29 244.182 2230.67 244.182ZM1531.65 244.182C1537.19 244.182 1542.73 244.182 1548.28 244.182 1548.28 260.972 1548.28 277.762 1548.28 294.552 1574.06 277.331 1589.26 267.43 1593.91 264.846 1605.51 258.303 1618.01 253.223 1631.41 249.606 1644.82 245.99 1658.09 244.182 1671.24 244.182 1693.41 244.182 1712.49 248.487 1728.47 257.097 1744.45 265.707 1755.15 278.192 1760.56 294.552 1787.12 273.887 1809.54 260.326 1827.85 253.868 1846.15 247.411 1864.97 244.182 1884.3 244.182 1903.12 244.182 1919.81 247.411 1934.38 253.868 1948.94 260.326 1960.48 270.874 1968.99 285.511 1974.66 295.499 1977.49 311.17 1977.49 332.523 1977.49 366.448 1977.49 400.373 1977.49 434.297 1977.49 449.107 1979.17 459.267 1982.52 464.778 1985.1 468.566 1989.87 471.795 1996.83 474.464 2003.79 477.134 2015.13 478.468 2030.86 478.468 2030.86 481.568 2030.86 484.668 2030.86 487.767 1972.6 487.767 1914.34 487.767 1856.08 487.767 1856.08 484.668 1856.08 481.568 1856.08 478.468 1858.52 478.468 1860.97 478.468 1863.42 478.468 1878.63 478.468 1890.49 476.488 1899 472.527 1904.93 469.772 1909.18 465.38 1911.76 459.353 1912.79 456.426 1913.3 448.074 1913.3 434.297 1913.3 400.373 1913.3 366.448 1913.3 332.523 1913.3 313.236 1909.82 299.632 1902.86 291.711 1892.81 280.689 1876.7 275.179 1854.53 275.179 1840.87 275.179 1827.14 277.461 1813.35 282.024 1799.56 286.587 1782.86 295.069 1763.27 307.467 1763.01 308.415 1762.76 309.362 1762.5 310.309 1762.76 314.011 1763.01 317.714 1763.27 321.416 1763.27 359.043 1763.27 396.67 1763.27 434.297 1763.27 450.485 1764.62 460.559 1767.33 464.519 1770.04 468.48 1775.13 471.795 1782.61 474.464 1790.08 477.134 1802.84 478.468 1820.89 478.468 1820.89 481.568 1820.89 484.668 1820.89 487.767 1761.21 487.767 1701.53 487.767 1641.85 487.767 1641.85 484.668 1641.85 481.568 1641.85 478.468 1661.45 478.468 1674.92 476.918 1682.26 473.819 1689.61 470.719 1694.7 466.069 1697.54 459.87 1698.82 456.942 1699.47 448.418 1699.47 434.297 1699.47 400.373 1699.47 366.448 1699.47 332.523 1699.47 313.236 1695.22 299.374 1686.71 290.936 1675.37 279.914 1659.51 274.404 1639.15 274.404 1625.23 274.404 1611.43 276.901 1597.77 281.895 1576.38 289.472 1559.88 297.996 1548.28 307.467 1548.28 349.744 1548.28 392.021 1548.28 434.297 1548.28 449.796 1549.89 459.87 1553.11 464.519 1556.33 469.169 1561.1 472.656 1567.42 474.981 1573.73 477.306 1586.56 478.468 1605.89 478.468 1605.89 481.568 1605.89 484.668 1605.89 487.767 1547.5 487.767 1489.11 487.767 1430.73 487.767 1430.73 484.668 1430.73 481.568 1430.73 478.468 1446.97 478.468 1458.31 477.306 1464.75 474.981 1471.2 472.656 1476.1 468.954 1479.45 463.874 1482.8 458.794 1484.47 448.935 1484.47 434.297 1484.47 404.161 1484.47 374.025 1484.47 343.889 1484.47 317.886 1483.31 301.096 1480.99 293.519 1479.19 287.836 1476.35 283.918 1472.49 281.766 1468.62 279.613 1463.34 278.537 1456.63 278.537 1449.41 278.537 1440.78 279.828 1430.73 282.411 1428.79 279.312 1426.86 276.212 1424.93 273.112 1460.5 263.469 1496.07 253.825 1531.65 244.182ZM1256.14 243.923C1295.84 243.923 1328.45 252.663 1353.97 270.142 1379.49 287.621 1392.25 310.998 1392.25 340.273 1310.66 340.273 1229.07 340.273 1147.48 340.273 1147.22 375.403 1159.98 402.956 1185.76 422.932 1211.54 442.908 1241.83 452.896 1276.63 452.896 1299.83 452.896 1320.01 448.633 1337.15 440.109 1354.29 431.585 1368.66 416.991 1380.26 396.326 1384.26 398.048 1388.26 399.77 1392.25 401.492 1386.84 425.084 1371.11 446.567 1345.08 465.94 1319.04 485.313 1286.43 495 1247.25 495 1204.71 495 1168.3 483.936 1138.01 461.807 1107.72 439.679 1092.57 409.93 1092.57 372.561 1092.57 332.093 1108.1 300.536 1139.17 277.891 1170.23 255.246 1209.22 243.923 1256.14 243.923ZM666.187 137.5C808.873 137.5 951.558 137.5 1094.24 137.5 1096.18 164.881 1098.11 192.262 1100.04 219.642 1095.15 219.642 1090.25 219.642 1085.35 219.642 1082.51 205.177 1078.65 194.845 1073.75 188.645 1065.76 178.657 1055.12 171.295 1041.85 166.56 1028.57 161.824 1011.11 159.456 989.453 159.456 964.834 159.456 940.216 159.456 915.597 159.456 915.597 248.659 915.597 337.862 915.597 427.065 915.597 448.59 919.077 462.022 926.037 467.361 935.833 474.594 950.914 478.21 971.279 478.21 977.337 478.21 983.395 478.21 989.453 478.21 989.453 481.396 989.453 484.581 989.453 487.767 915.339 487.767 841.225 487.767 767.111 487.767 767.111 484.581 767.111 481.396 767.111 478.21 773.298 478.21 779.485 478.21 785.672 478.21 807.841 478.21 823.567 473.732 832.847 464.778 838.518 459.267 841.354 446.696 841.354 427.065 841.354 337.862 841.354 248.659 841.354 159.456 820.344 159.456 799.334 159.456 778.325 159.456 753.835 159.456 736.434 160.662 726.123 163.073 712.718 166.345 701.246 172.63 691.708 181.929 682.17 191.228 676.498 203.799 674.694 219.642 669.796 219.642 664.898 219.642 660 219.642 662.062 192.262 664.125 164.881 666.187 137.5Z" fill="#FFFF00" fill-rule="evenodd"/><text fill="#000000" fill-opacity="0" font-family="Arial,Arial_MSFontService,sans-serif" font-size="357.5" x="660" y="450.312">Temor</text><text fill="#FFFF00" font-family="Times New Roman,Times New Roman_MSFontService,sans-serif" font-weight="400" font-size="202" transform="matrix(1 0 0 1 170.5 899)">Fracaso<tspan font-size="202" x="677.188" y="0">de </tspan><tspan font-size="202" x="917.813" y="0">confiar</tspan><tspan font-size="202" x="1538.85" y="0">en Dios</tspan>–<tspan font-style="italic" font-size="165" x="2311.72" y="0">Sal. </tspan><tspan font-style="italic" font-size="165" x="2605.05" y="0">56:3</tspan><tspan font-style="italic" font-size="165" x="2907.55" y="0">-</tspan><tspan font-style="italic" font-size="165" x="2962.55" y="0">4</tspan><tspan font-size="202" x="0" y="374">Inestabilidad</tspan><tspan font-size="202" x="1091.98" y="374">Emocional</tspan><tspan font-size="202" x="1965.68" y="374">–</tspan><tspan font-style="italic" font-size="202" x="2116.93" y="374">Sant</tspan><tspan font-style="italic" font-size="202" x="2475.57" y="374">. 1:8</tspan><tspan font-size="202" x="0" y="748">Actitúd</tspan><tspan font-size="202" x="644.279" y="748">Arrogante</tspan><tspan font-size="202" x="1461.26" y="748">–</tspan><tspan font-style="italic" font-size="202" x="1612.51" y="748">Sant</tspan><tspan font-style="italic" font-size="202" x="1971.15" y="748">. </tspan><tspan font-style="italic" font-size="202" x="2071.99" y="748">4:6</tspan><tspan font-size="202" x="0" y="1122">Rechazo</tspan><tspan font-size="202" x="744.219" y="1122">de VD</tspan>–<tspan font-style="italic" font-size="202" x="1423.49" y="1122">Romanos</tspan><tspan font-style="italic" font-size="202" x="2224.43" y="1122">12:2</tspan><tspan font-style="italic" font-size="202" x="2593.96" y="1122">-</tspan><tspan font-style="italic" font-size="202" x="2660.99" y="1122">3</tspan></text></g></svg>