<svg width="3075" height="2052" xmlns="http://www.w3.org/2000/svg" xmlns:xlink="http://www.w3.org/1999/xlink" overflow="hidden"><defs><filter id="fx0" x="-10%" y="-10%" width="120%" height="120%" filterUnits="userSpaceOnUse" primitiveUnits="userSpaceOnUse"><feComponentTransfer color-interpolation-filters="sRGB"><feFuncR type="discrete" tableValues="0.752941 0.752941"/><feFuncG type="discrete" tableValues="0.752941 0.752941"/><feFuncB type="discrete" tableValues="0.752941 0.752941"/><feFuncA type="linear" slope="0.8" intercept="0"/></feComponentTransfer><feGaussianBlur stdDeviation="0 0"/></filter><filter id="fx1" x="-10%" y="-10%" width="120%" height="120%" filterUnits="userSpaceOnUse" primitiveUnits="userSpaceOnUse"><feComponentTransfer color-interpolation-filters="sRGB"><feFuncR type="discrete" tableValues="0.752941 0.752941"/><feFuncG type="discrete" tableValues="0.752941 0.752941"/><feFuncB type="discrete" tableValues="0.752941 0.752941"/><feFuncA type="linear" slope="0.8" intercept="0"/></feComponentTransfer><feGaussianBlur stdDeviation="0 0"/></filter><filter id="fx2" x="-10%" y="-10%" width="120%" height="120%" filterUnits="userSpaceOnUse" primitiveUnits="userSpaceOnUse"><feComponentTransfer color-interpolation-filters="sRGB"><feFuncR type="discrete" tableValues="0.752941 0.752941"/><feFuncG type="discrete" tableValues="0.752941 0.752941"/><feFuncB type="discrete" tableValues="0.752941 0.752941"/><feFuncA type="linear" slope="0.8" intercept="0"/></feComponentTransfer><feGaussianBlur stdDeviation="0 0"/></filter><clipPath id="clip3"><rect x="49" y="137" width="3075" height="2052"/></clipPath><clipPath id="clip4"><rect x="0" y="0" width="310" height="100"/></clipPath><clipPath id="clip5"><rect x="0" y="0" width="1064" height="342"/></clipPath><clipPath id="clip6"><rect x="0" y="0" width="107" height="104"/></clipPath><clipPath id="clip7"><rect x="0" y="0" width="368" height="358"/></clipPath><clipPath id="clip8"><rect x="0" y="0" width="332" height="105"/></clipPath><clipPath id="clip9"><rect x="0" y="0" width="1140" height="359"/></clipPath></defs><g clip-path="url(#clip3)" transform="translate(-49 -137)"><g clip-path="url(#clip4)" filter="url(#fx0)" transform="translate(173 162)"><g clip-path="url(#clip5)"><path d="M301.014 119.744C289.847 119.744 279.856 125.034 271.043 135.614 262.23 146.194 257.084 160.915 255.604 179.778 284.128 179.778 312.653 179.778 341.178 179.778 340.505 165.344 339.092 155.174 336.939 149.269 333.576 140.084 328.564 132.866 321.903 127.617 315.243 122.369 308.28 119.744 301.014 119.744ZM814.71 118.514C807.579 118.514 800.415 121.097 793.216 126.264 786.018 131.431 780.198 140.494 775.758 153.452 771.318 166.41 769.098 183.059 769.098 203.399 769.098 236.204 774.446 264.499 785.143 288.283 795.84 312.067 809.934 323.959 827.426 323.959 840.477 323.959 851.241 317.398 859.718 304.276 868.194 291.154 872.433 268.6 872.433 236.614 872.433 196.591 865.369 165.098 851.241 142.134 841.688 126.387 829.511 118.514 814.71 118.514ZM981.578 102.521C984.404 102.521 987.23 102.521 990.055 102.521 990.055 119.416 990.055 136.311 990.055 153.206 1005.53 119.416 1021.41 102.521 1037.69 102.521 1045.09 102.521 1051.21 105.269 1056.05 110.764 1060.9 116.258 1063.32 122.615 1063.32 129.832 1063.32 136.229 1061.57 141.642 1058.07 146.071 1054.57 150.499 1050.4 152.714 1045.56 152.714 1040.85 152.714 1035.57 149.884 1029.71 144.225 1023.86 138.566 1019.52 135.737 1016.7 135.737 1014.27 135.737 1011.65 137.377 1008.82 140.658 1002.77 147.383 996.514 158.455 990.055 173.873 990.055 209.878 990.055 245.882 990.055 281.886 990.055 294.352 991.333 303.784 993.89 310.181 995.639 314.61 998.734 318.3 1003.17 321.253 1007.61 324.206 1014.01 325.682 1022.35 325.682 1022.35 328.634 1022.35 331.587 1022.35 334.539 990.795 334.539 959.243 334.539 927.691 334.539 927.691 331.587 927.691 328.634 927.691 325.682 937.11 325.682 944.106 323.877 948.681 320.269 952.045 317.644 954.399 313.462 955.745 307.721 956.418 304.932 956.754 296.977 956.754 283.854 956.754 254.739 956.754 225.624 956.754 196.509 956.754 170.265 956.317 154.641 955.442 149.638 954.568 144.635 952.953 140.986 950.598 138.689 948.244 136.393 945.317 135.245 941.819 135.245 937.648 135.245 932.939 136.475 927.691 138.935 927.018 135.983 926.346 133.03 925.673 130.078 944.308 120.892 962.943 111.707 981.578 102.521ZM820.967 102.521C848.953 102.521 871.423 115.479 888.377 141.396 902.774 163.54 909.972 188.964 909.972 217.669 909.972 237.845 906.003 258.266 898.064 278.934 890.126 299.601 879.194 315.184 865.268 325.682 851.342 336.18 835.835 341.428 818.747 341.428 790.895 341.428 768.761 327.896 752.346 300.831 738.488 278.031 731.558 252.443 731.558 224.066 731.558 203.399 735.763 182.854 744.172 162.432 752.582 142.011 763.649 126.92 777.373 117.161 791.097 107.401 805.628 102.521 820.967 102.521ZM456.117 102.521C459.01 102.521 461.902 102.521 464.795 102.521 464.795 118.514 464.795 134.507 464.795 150.499 478.25 134.097 486.189 124.665 488.611 122.204 494.665 115.971 501.191 111.133 508.188 107.688 515.184 104.243 522.114 102.521 528.976 102.521 540.547 102.521 550.504 106.622 558.846 114.823 567.188 123.025 572.772 134.917 575.597 150.499 589.456 130.816 601.162 117.899 610.715 111.748 620.268 105.597 630.09 102.521 640.182 102.521 650.004 102.521 658.716 105.597 666.318 111.748 673.92 117.899 679.941 127.945 684.381 141.888 687.341 151.402 688.822 166.328 688.822 186.668 688.822 218.981 688.822 251.295 688.822 283.608 688.822 297.715 689.696 307.393 691.445 312.642 692.791 316.25 695.28 319.326 698.913 321.868 702.546 324.411 708.466 325.682 716.673 325.682 716.673 328.634 716.673 331.587 716.673 334.539 686.265 334.539 655.857 334.539 625.448 334.539 625.448 331.587 625.448 328.634 625.448 325.682 626.727 325.682 628.005 325.682 629.283 325.682 637.222 325.682 643.411 323.795 647.851 320.023 650.946 317.398 653.166 313.216 654.511 307.475 655.049 304.686 655.318 296.731 655.318 283.608 655.318 251.295 655.318 218.981 655.318 186.668 655.318 168.296 653.502 155.338 649.869 147.793 644.622 137.295 636.212 132.046 624.641 132.046 617.51 132.046 610.345 134.22 603.147 138.566 595.948 142.913 587.236 150.992 577.01 162.802 576.876 163.704 576.741 164.606 576.607 165.508 576.741 169.035 576.876 172.561 577.01 176.088 577.01 211.928 577.01 247.768 577.01 283.608 577.01 299.027 577.717 308.623 579.129 312.395 580.542 316.168 583.2 319.326 587.101 321.868 591.003 324.411 597.664 325.682 607.082 325.682 607.082 328.634 607.082 331.587 607.082 334.539 575.934 334.539 544.785 334.539 513.637 334.539 513.637 331.587 513.637 328.634 513.637 325.682 523.863 325.682 530.893 324.206 534.728 321.253 538.562 318.3 541.22 313.872 542.7 307.967 543.373 305.178 543.709 297.059 543.709 283.608 543.709 251.295 543.709 218.981 543.709 186.668 543.709 168.296 541.489 155.092 537.049 147.055 531.129 136.557 522.854 131.308 512.224 131.308 504.959 131.308 497.76 133.686 490.629 138.443 479.461 145.661 470.85 153.78 464.795 162.802 464.795 203.071 464.795 243.339 464.795 283.608 464.795 298.371 465.636 307.967 467.318 312.395 469 316.824 471.489 320.146 474.786 322.36 478.082 324.575 484.776 325.682 494.867 325.682 494.867 328.634 494.867 331.587 494.867 334.539 464.392 334.539 433.916 334.539 403.44 334.539 403.44 331.587 403.44 328.634 403.44 325.682 411.917 325.682 417.837 324.575 421.201 322.36 424.565 320.146 427.121 316.619 428.87 311.78 430.62 306.942 431.494 297.551 431.494 283.608 431.494 254.903 431.494 226.199 431.494 197.494 431.494 172.725 430.888 156.732 429.677 149.515 428.736 144.102 427.256 140.371 425.237 138.32 423.219 136.27 420.461 135.245 416.962 135.245 413.195 135.245 408.688 136.475 403.44 138.935 402.431 135.983 401.422 133.03 400.413 130.078 418.981 120.892 437.549 111.707 456.117 102.521ZM312.317 102.275C333.037 102.275 350.058 110.599 363.378 127.248 376.699 143.897 383.359 166.164 383.359 194.049 340.774 194.049 298.189 194.049 255.604 194.049 255.469 227.511 262.129 253.755 275.584 272.783 289.039 291.81 304.849 301.324 323.014 301.324 335.123 301.324 345.651 297.264 354.599 289.144 363.547 281.025 371.048 267.124 377.103 247.44 379.188 249.08 381.274 250.721 383.359 252.361 380.534 274.833 372.326 295.296 358.736 313.749 345.147 332.202 328.126 341.428 307.675 341.428 285.474 341.428 266.469 330.89 250.659 309.812 234.849 288.734 226.944 260.398 226.944 224.804 226.944 186.258 235.051 156.199 251.264 134.63 267.478 113.06 287.828 102.275 312.317 102.275ZM4.3958 0.905464C78.8694 0.905464 153.343 0.905464 227.817 0.905464 228.826 26.986 229.835 53.0665 230.844 79.147 228.288 79.147 225.731 79.147 223.175 79.147 221.695 65.3686 219.676 55.5269 217.12 49.6219 212.949 40.1083 207.399 33.096 200.469 28.5853 193.54 24.0745 184.424 21.8191 173.122 21.8191 160.272 21.8191 147.423 21.8191 134.573 21.8191 134.573 106.786 134.573 191.753 134.573 276.719 134.573 297.223 136.39 310.017 140.023 315.102 145.135 321.991 153.007 325.436 163.636 325.436 166.798 325.436 169.96 325.436 173.122 325.436 173.122 328.47 173.122 331.505 173.122 334.539 134.439 334.539 95.7554 334.539 57.0722 334.539 57.0722 331.505 57.0722 328.47 57.0722 325.436 60.3014 325.436 63.5307 325.436 66.7599 325.436 78.3312 325.436 86.5388 321.171 91.3826 312.642 94.3427 307.393 95.8227 295.419 95.8227 276.719 95.8227 191.753 95.8227 106.786 95.8227 21.8191 84.8569 21.8191 73.891 21.8191 62.9252 21.8191 50.1429 21.8191 41.0608 22.9673 35.6787 25.2637 28.6821 28.3802 22.6946 34.3673 17.7163 43.2248 12.7379 52.0823 9.77781 64.0564 8.83596 79.147 6.2795 79.147 3.72304 79.147 1.16659 79.147 2.24299 53.0665 3.31939 26.986 4.3958 0.905464Z" fill="#FFFF00" fill-rule="evenodd"/></g></g><path d="M464.848 272.577C453.68 272.577 443.69 277.867 434.877 288.447 426.064 299.027 420.917 313.749 419.437 332.612 447.962 332.612 476.486 332.612 505.011 332.612 504.338 318.177 502.926 308.008 500.773 302.103 497.409 292.917 492.397 285.7 485.737 280.451 479.077 275.202 472.113 272.577 464.848 272.577ZM978.544 271.347C971.413 271.347 964.248 273.931 957.049 279.098 949.851 284.264 944.032 293.327 939.591 306.285 935.151 319.243 932.931 335.892 932.931 356.232 932.931 389.038 938.28 417.332 948.976 441.117 959.673 464.901 973.767 476.793 991.259 476.793 1004.31 476.793 1015.07 470.232 1023.55 457.109 1032.03 443.987 1036.27 421.433 1036.27 389.448 1036.27 349.425 1029.2 317.931 1015.07 294.967 1005.52 279.221 993.344 271.347 978.544 271.347ZM1145.41 255.354C1148.24 255.354 1151.06 255.354 1153.89 255.354 1153.89 272.249 1153.89 289.144 1153.89 306.039 1169.36 272.249 1185.24 255.354 1201.52 255.354 1208.92 255.354 1215.04 258.102 1219.89 263.597 1224.73 269.092 1227.15 275.448 1227.15 282.665 1227.15 289.062 1225.4 294.475 1221.9 298.904 1218.41 303.333 1214.23 305.547 1209.39 305.547 1204.68 305.547 1199.4 302.718 1193.55 297.059 1187.69 291.4 1183.35 288.57 1180.53 288.57 1178.11 288.57 1175.48 290.21 1172.66 293.491 1166.6 300.216 1160.35 311.288 1153.89 326.707 1153.89 362.711 1153.89 398.715 1153.89 434.719 1153.89 447.186 1155.17 456.617 1157.72 463.014 1159.47 467.443 1162.57 471.134 1167.01 474.086 1171.45 477.039 1177.84 478.515 1186.18 478.515 1186.18 481.468 1186.18 484.42 1186.18 487.373 1154.63 487.373 1123.08 487.373 1091.52 487.373 1091.52 484.42 1091.52 481.468 1091.52 478.515 1100.94 478.515 1107.94 476.711 1112.51 473.102 1115.88 470.478 1118.23 466.295 1119.58 460.554 1120.25 457.766 1120.59 449.81 1120.59 436.688 1120.59 407.573 1120.59 378.458 1120.59 349.343 1120.59 323.098 1120.15 307.474 1119.28 302.472 1118.4 297.469 1116.79 293.819 1114.43 291.523 1112.08 289.226 1109.15 288.078 1105.65 288.078 1101.48 288.078 1096.77 289.308 1091.52 291.769 1090.85 288.816 1090.18 285.864 1089.51 282.911 1108.14 273.726 1126.78 264.54 1145.41 255.354ZM984.8 255.354C1012.79 255.354 1035.26 268.313 1052.21 294.229 1066.61 316.373 1073.81 341.797 1073.81 370.502 1073.81 390.678 1069.84 411.099 1061.9 431.767 1053.96 452.435 1043.03 468.017 1029.1 478.515 1015.18 489.013 999.668 494.262 982.58 494.262 954.728 494.262 932.595 480.729 916.18 453.665 902.321 430.865 895.392 405.276 895.392 376.899 895.392 356.232 899.596 335.687 908.006 315.266 916.415 294.844 927.482 279.754 941.206 269.994 954.93 260.234 969.462 255.354 984.8 255.354ZM619.95 255.354C622.843 255.354 625.736 255.354 628.629 255.354 628.629 271.347 628.629 287.34 628.629 303.333 642.084 286.93 650.022 277.498 652.444 275.038 658.499 268.805 665.024 263.966 672.021 260.521 679.018 257.077 685.947 255.354 692.809 255.354 704.38 255.354 714.337 259.455 722.679 267.657 731.021 275.858 736.605 287.75 739.431 303.333 753.289 283.649 764.995 270.732 774.548 264.581 784.102 258.43 793.924 255.354 804.015 255.354 813.837 255.354 822.549 258.43 830.151 264.581 837.753 270.732 843.775 280.779 848.215 294.721 851.175 304.235 852.655 319.161 852.655 339.501 852.655 371.815 852.655 404.128 852.655 436.442 852.655 450.548 853.529 460.226 855.279 465.475 856.624 469.083 859.113 472.159 862.746 474.701 866.379 477.244 872.299 478.515 880.507 478.515 880.507 481.468 880.507 484.42 880.507 487.373 850.098 487.373 819.69 487.373 789.282 487.373 789.282 484.42 789.282 481.468 789.282 478.515 790.56 478.515 791.838 478.515 793.116 478.515 801.055 478.515 807.244 476.629 811.684 472.856 814.779 470.232 816.999 466.049 818.345 460.308 818.883 457.519 819.152 449.564 819.152 436.442 819.152 404.128 819.152 371.815 819.152 339.501 819.152 321.13 817.335 308.172 813.703 300.626 808.455 290.128 800.046 284.88 788.474 284.88 781.343 284.88 774.178 287.053 766.98 291.4 759.781 295.746 751.069 303.825 740.844 315.635 740.709 316.537 740.574 317.439 740.44 318.341 740.574 321.868 740.709 325.395 740.844 328.921 740.844 364.761 740.844 400.602 740.844 436.442 740.844 451.86 741.55 461.456 742.963 465.229 744.375 469.001 747.033 472.159 750.935 474.701 754.837 477.244 761.497 478.515 770.916 478.515 770.916 481.468 770.916 484.42 770.916 487.373 739.767 487.373 708.619 487.373 677.47 487.373 677.47 484.42 677.47 481.468 677.47 478.515 687.696 478.515 694.726 477.039 698.561 474.086 702.396 471.134 705.053 466.705 706.533 460.8 707.206 458.012 707.542 449.892 707.542 436.442 707.542 404.128 707.542 371.815 707.542 339.501 707.542 321.13 705.322 307.926 700.882 299.888 694.962 289.39 686.687 284.141 676.058 284.141 668.792 284.141 661.593 286.52 654.462 291.277 643.295 298.494 634.683 306.613 628.629 315.635 628.629 355.904 628.629 396.173 628.629 436.442 628.629 451.204 629.47 460.8 631.151 465.229 632.833 469.658 635.323 472.979 638.619 475.193 641.915 477.408 648.609 478.515 658.701 478.515 658.701 481.468 658.701 484.42 658.701 487.373 628.225 487.373 597.749 487.373 567.273 487.373 567.273 484.42 567.273 481.468 567.273 478.515 575.75 478.515 581.671 477.408 585.034 475.193 588.398 472.979 590.955 469.453 592.704 464.614 594.453 459.775 595.327 450.384 595.327 436.442 595.327 407.737 595.327 379.032 595.327 350.327 595.327 325.559 594.722 309.566 593.511 302.349 592.569 296.936 591.089 293.204 589.071 291.154 587.052 289.103 584.294 288.078 580.796 288.078 577.029 288.078 572.521 289.308 567.273 291.769 566.264 288.816 565.255 285.864 564.246 282.911 582.814 273.726 601.382 264.54 619.95 255.354ZM476.15 255.108C496.871 255.108 513.891 263.433 527.212 280.082 540.532 296.731 547.193 318.997 547.193 346.882 504.607 346.882 462.022 346.882 419.437 346.882 419.302 380.344 425.963 406.589 439.418 425.616 452.873 444.643 468.682 454.157 486.847 454.157 498.956 454.157 509.485 450.097 518.432 441.978 527.38 433.858 534.881 419.957 540.936 400.273 543.022 401.914 545.107 403.554 547.193 405.194 544.367 427.666 536.159 448.129 522.57 466.582 508.98 485.035 491.96 494.262 471.508 494.262 449.307 494.262 430.302 483.723 414.492 462.645 398.683 441.568 390.778 413.232 390.778 377.638 390.778 339.091 398.884 309.033 415.098 287.463 431.311 265.893 451.662 255.108 476.15 255.108ZM168.229 153.739C242.703 153.739 317.176 153.739 391.65 153.739 392.659 179.819 393.668 205.9 394.677 231.98 392.121 231.98 389.564 231.98 387.008 231.98 385.528 218.202 383.51 208.36 380.953 202.455 376.782 192.942 371.232 185.929 364.303 181.419 357.373 176.908 348.257 174.652 336.955 174.652 324.106 174.652 311.256 174.652 298.407 174.652 298.407 259.619 298.407 344.586 298.407 429.553 298.407 450.056 300.223 462.85 303.856 467.935 308.969 474.824 316.84 478.269 327.469 478.269 330.631 478.269 333.793 478.269 336.955 478.269 336.955 481.304 336.955 484.338 336.955 487.373 298.272 487.373 259.589 487.373 220.906 487.373 220.906 484.338 220.906 481.304 220.906 478.269 224.135 478.269 227.364 478.269 230.593 478.269 242.165 478.269 250.372 474.004 255.216 465.475 258.176 460.226 259.656 448.252 259.656 429.553 259.656 344.586 259.656 259.619 259.656 174.652 248.69 174.652 237.724 174.652 226.759 174.652 213.976 174.652 204.894 175.801 199.512 178.097 192.515 181.214 186.528 187.201 181.55 196.058 176.571 204.916 173.611 216.89 172.669 231.98 170.113 231.98 167.556 231.98 165 231.98 166.076 205.9 167.153 179.819 168.229 153.739Z" fill="#FFFF00" fill-rule="evenodd"/><text fill="#000000" fill-opacity="0" font-family="Arial,Arial_MSFontService,sans-serif" font-size="340.523" x="165" y="451.696">Temor</text><g clip-path="url(#clip6)" filter="url(#fx1)" transform="translate(1351 146)"><g clip-path="url(#clip7)"><path d="M284.678 135.744C273.511 135.744 263.52 141.034 254.707 151.614 245.894 162.194 240.748 176.915 239.268 195.778 267.792 195.778 296.317 195.778 324.842 195.778 324.169 181.344 322.756 171.174 320.603 165.269 317.24 156.084 312.228 148.866 305.567 143.617 298.907 138.369 291.944 135.744 284.678 135.744ZM88.0587 133.53C76.2184 133.53 65.6561 140.009 56.3722 152.967 44.1282 170.026 38.0061 194.958 38.0061 227.764 38.0061 260.898 43.9263 286.281 55.7667 303.914 67.6071 321.547 80.7931 330.364 95.3246 330.364 107.569 330.364 119.409 322.9 130.846 307.974 130.846 269.263 130.846 230.552 130.846 191.842 130.038 180.688 127.617 170.518 123.58 161.332 119.544 152.147 114.195 145.217 107.535 140.542 100.875 135.867 94.3827 133.53 88.0587 133.53ZM295.981 118.275C316.701 118.275 333.722 126.599 347.042 143.248 360.363 159.897 367.023 182.164 367.023 210.049 324.438 210.049 281.853 210.049 239.268 210.049 239.133 243.511 245.793 269.755 259.248 288.783 272.703 307.81 288.513 317.324 306.677 317.324 318.787 317.324 329.315 313.264 338.263 305.144 347.211 297.025 354.712 283.124 360.767 263.44 362.852 265.08 364.938 266.721 367.023 268.361 364.198 290.833 355.99 311.296 342.4 329.749 328.811 348.202 311.79 357.428 291.339 357.428 269.138 357.428 250.133 346.89 234.323 325.812 218.513 304.734 210.608 276.398 210.608 240.804 210.608 202.258 218.715 172.199 234.928 150.63 251.142 129.06 271.492 118.275 295.981 118.275ZM155.065 0.666661C158.092 0.666661 161.12 0.666661 164.147 0.666661 164.147 87.5197 164.147 174.373 164.147 261.226 164.147 287.634 164.652 303.75 165.661 309.573 166.67 315.396 168.284 319.456 170.505 321.752 172.724 324.049 175.315 325.197 178.275 325.197 181.908 325.197 186.751 323.803 192.806 321.014 193.546 323.885 194.286 326.755 195.026 329.626 176.727 338.893 158.429 348.161 140.13 357.428 137.035 357.428 133.94 357.428 130.846 357.428 130.846 346.685 130.846 335.941 130.846 325.197 121.831 336.679 113.018 344.921 104.407 349.924 95.7954 354.927 86.5115 357.428 76.5548 357.428 56.3722 357.428 38.7461 347.136 23.6765 326.55 8.60681 305.965 1.07202 279.515 1.07202 247.201 1.07202 214.888 9.41406 185.322 26.0984 158.503 42.7826 131.684 64.2434 118.275 90.4807 118.275 106.761 118.275 120.216 124.59 130.846 137.22 130.846 123.36 130.846 109.5 130.846 95.6391 130.846 69.8866 130.341 54.0579 129.332 48.1529 128.323 42.2479 126.742 38.2292 124.589 36.0968 122.436 33.9644 119.745 32.8982 116.516 32.8982 113.018 32.8982 108.376 34.2105 102.59 36.8349 101.716 33.9644 100.841 31.0939 99.9666 28.2234 118.333 19.0378 136.699 9.85225 155.065 0.666661Z" fill="#FFFF00" fill-rule="evenodd"/></g></g><path d="M1626.51 272.577C1615.34 272.577 1605.35 277.867 1596.54 288.447 1587.73 299.027 1582.58 313.749 1581.1 332.612 1609.63 332.612 1638.15 332.612 1666.68 332.612 1666 318.177 1664.59 308.008 1662.44 302.103 1659.07 292.917 1654.06 285.7 1647.4 280.451 1640.74 275.202 1633.78 272.577 1626.51 272.577ZM1429.89 270.363C1418.05 270.363 1407.49 276.842 1398.21 289.8 1385.96 306.859 1379.84 331.792 1379.84 364.597 1379.84 397.731 1385.76 423.115 1397.6 440.748 1409.44 458.381 1422.63 467.197 1437.16 467.197 1449.4 467.197 1461.24 459.734 1472.68 444.807 1472.68 406.096 1472.68 367.386 1472.68 328.675 1471.87 317.521 1469.45 307.351 1465.41 298.166 1461.38 288.98 1456.03 282.05 1449.37 277.375 1442.71 272.7 1436.22 270.363 1429.89 270.363ZM1637.81 255.108C1658.53 255.108 1675.56 263.433 1688.88 280.082 1702.2 296.731 1708.86 318.997 1708.86 346.882 1666.27 346.882 1623.69 346.882 1581.1 346.882 1580.97 380.344 1587.63 406.589 1601.08 425.616 1614.54 444.643 1630.35 454.157 1648.51 454.157 1660.62 454.157 1671.15 450.097 1680.1 441.978 1689.04 433.858 1696.55 419.957 1702.6 400.273 1704.69 401.914 1706.77 403.554 1708.86 405.194 1706.03 427.666 1697.82 448.129 1684.23 466.582 1670.64 485.035 1653.62 494.262 1633.17 494.262 1610.97 494.262 1591.97 483.723 1576.16 462.645 1560.35 441.568 1552.44 413.232 1552.44 377.638 1552.44 339.091 1560.55 309.033 1576.76 287.463 1592.98 265.893 1613.33 255.108 1637.81 255.108ZM1496.9 137.5C1499.93 137.5 1502.95 137.5 1505.98 137.5 1505.98 224.353 1505.98 311.206 1505.98 398.059 1505.98 424.468 1506.48 440.583 1507.49 446.406 1508.5 452.23 1510.12 456.289 1512.34 458.586 1514.56 460.882 1517.15 462.03 1520.11 462.03 1523.74 462.03 1528.58 460.636 1534.64 457.847 1535.38 460.718 1536.12 463.589 1536.86 466.459 1518.56 475.727 1500.26 484.994 1481.96 494.262 1478.87 494.262 1475.77 494.262 1472.68 494.262 1472.68 483.518 1472.68 472.774 1472.68 462.03 1463.66 473.512 1454.85 481.755 1446.24 486.758 1437.63 491.76 1428.34 494.262 1418.39 494.262 1398.21 494.262 1380.58 483.969 1365.51 463.383 1350.44 442.798 1342.91 416.348 1342.91 384.035 1342.91 351.721 1351.25 322.155 1367.93 295.336 1384.62 268.518 1406.08 255.108 1432.31 255.108 1448.59 255.108 1462.05 261.423 1472.68 274.054 1472.68 260.193 1472.68 246.333 1472.68 232.472 1472.68 206.72 1472.17 190.891 1471.17 184.986 1470.16 179.081 1468.58 175.062 1466.42 172.93 1464.27 170.798 1461.58 169.732 1458.35 169.732 1454.85 169.732 1450.21 171.044 1444.42 173.668 1443.55 170.798 1442.67 167.927 1441.8 165.057 1460.17 155.871 1478.53 146.686 1496.9 137.5Z" fill="#FFFF00" fill-rule="evenodd"/><text fill="#000000" fill-opacity="0" font-family="Arial,Arial_MSFontService,sans-serif" font-size="356.762" x="1342.91" y="449.667">de </text><g clip-path="url(#clip8)" filter="url(#fx2)" transform="translate(1840 146)"><g clip-path="url(#clip9)"><path d="M1074.18 216.2C1053.86 226.042 1040.74 233.013 1034.82 237.114 1024.19 244.331 1016.59 251.876 1012.02 259.75 1007.44 267.623 1005.15 276.234 1005.15 285.584 1005.15 297.394 1008.05 307.195 1013.83 314.986 1019.62 322.777 1026.28 326.673 1033.81 326.673 1044.04 326.673 1057.49 318.472 1074.18 302.069 1074.18 273.446 1074.18 244.823 1074.18 216.2ZM241.792 135.744C230.624 135.744 220.634 141.034 211.821 151.614 203.008 162.194 197.861 176.915 196.381 195.778 224.906 195.778 253.431 195.778 281.955 195.778 281.282 181.344 279.87 171.174 277.717 165.269 274.353 156.084 269.341 148.866 262.681 143.617 256.021 138.369 249.057 135.744 241.792 135.744ZM640.254 134.514C633.123 134.514 625.958 137.097 618.76 142.264 611.561 147.431 605.742 156.494 601.302 169.452 596.861 182.41 594.641 199.059 594.641 219.399 594.641 252.204 599.99 280.499 610.687 304.283 621.383 328.067 635.477 339.959 652.969 339.959 666.02 339.959 676.784 333.398 685.261 320.276 693.738 307.154 697.976 284.6 697.976 252.614 697.976 212.591 690.912 181.098 676.784 158.134 667.231 142.387 655.055 134.514 640.254 134.514ZM754.529 125.164C783.524 125.164 812.52 125.164 841.516 125.164 841.516 128.199 841.516 131.233 841.516 134.268 839.632 134.268 837.748 134.268 835.864 134.268 830.617 134.268 826.614 135.826 823.856 138.943 821.098 142.059 819.718 146.242 819.718 151.491 819.718 157.232 821.131 164.039 823.957 171.912 838.286 213.412 852.616 254.911 866.946 296.41 881.342 253.352 895.739 210.295 910.136 167.238 913.231 158.052 914.778 151.081 914.778 146.324 914.778 144.027 914.24 142.141 913.163 140.665 911.683 138.204 909.8 136.523 907.513 135.621 905.225 134.719 900.583 134.268 893.587 134.268 893.587 131.233 893.587 128.199 893.587 125.164 913.702 125.164 933.817 125.164 953.932 125.164 953.932 128.199 953.932 131.233 953.932 134.268 946.936 134.924 942.092 136.646 939.401 139.435 934.692 144.356 930.453 152.557 926.686 164.039 904.821 228.502 882.957 292.965 861.093 357.428 858.334 357.428 855.576 357.428 852.818 357.428 830.819 294.031 808.82 230.635 786.821 167.238 783.861 158.38 781.035 152.024 778.344 148.169 775.653 144.315 772.222 141.075 768.051 138.451 765.764 136.974 761.256 135.58 754.529 134.268 754.529 131.233 754.529 128.199 754.529 125.164ZM1045.92 118.521C1062.34 118.521 1075.79 121.884 1086.29 128.609 1094.23 133.694 1100.08 141.649 1103.85 152.475 1106.27 159.528 1107.48 173.963 1107.48 195.778 1107.48 221.285 1107.48 246.791 1107.48 272.298 1107.48 293.785 1107.82 306.949 1108.49 311.788 1109.16 316.626 1110.27 319.866 1111.82 321.506 1113.37 323.147 1115.15 323.967 1117.17 323.967 1119.32 323.967 1121.2 323.393 1122.82 322.244 1124.94 320.645 1128.53 316.878 1133.6 310.942 1135.46 308.722 1137.31 306.503 1139.17 304.284 1139.17 308.876 1139.17 313.469 1139.17 318.062 1137.29 320.945 1135.42 323.828 1133.55 326.712 1120.51 345.549 1107.98 354.968 1095.98 354.968 1089.38 354.968 1084.14 352.18 1080.23 346.603 1076.33 341.026 1074.31 331.512 1074.18 318.062 1055.21 335.941 1043.3 346.275 1038.46 349.063 1031.19 353.164 1023.45 355.214 1015.25 355.214 1002.46 355.214 991.935 349.883 983.66 339.221 975.385 328.559 971.248 314.535 971.248 297.148 971.248 286.158 973.266 276.644 977.303 268.607 982.819 257.453 992.406 246.955 1006.06 237.114 1019.72 227.272 1042.42 215.298 1074.18 201.191 1074.18 198.239 1074.18 195.286 1074.18 192.334 1074.18 169.862 1071.25 154.443 1065.4 146.078 1059.55 137.712 1051.04 133.53 1039.87 133.53 1031.39 133.53 1024.66 136.318 1019.69 141.895 1014.57 147.472 1012.02 153.869 1012.02 161.086 1012.15 165.843 1012.29 170.6 1012.42 175.357 1012.42 182.902 1010.84 188.725 1007.68 192.826 1004.52 196.927 1000.38 198.977 995.265 198.977 990.286 198.977 986.216 196.845 983.054 192.58 979.892 188.315 978.312 182.492 978.312 175.111 978.312 161.004 984.232 148.046 996.072 136.236 1007.91 124.426 1024.53 118.521 1045.92 118.521ZM646.511 118.521C674.497 118.521 696.967 131.479 713.92 157.396 728.317 179.54 735.516 204.964 735.516 233.669 735.516 253.845 731.546 274.266 723.608 294.934 715.669 315.601 704.737 331.184 690.811 341.682 676.885 352.18 661.378 357.428 644.29 357.428 616.439 357.428 594.305 343.896 577.89 316.831 564.031 294.031 557.102 268.443 557.102 240.066 557.102 219.399 561.307 198.854 569.716 178.432 578.125 158.011 589.192 142.92 602.916 133.161 616.641 123.401 631.172 118.521 646.511 118.521ZM253.094 118.275C273.815 118.275 290.836 126.599 304.156 143.248 317.476 159.897 324.137 182.164 324.137 210.049 281.552 210.049 238.966 210.049 196.381 210.049 196.247 243.511 202.907 269.755 216.362 288.783 229.817 307.81 245.627 317.324 263.791 317.324 275.9 317.324 286.429 313.264 295.377 305.144 304.324 297.025 311.825 283.124 317.88 263.44 319.966 265.08 322.051 266.721 324.137 268.361 321.311 290.833 313.104 311.296 299.514 329.749 285.924 348.202 268.904 357.428 248.452 357.428 226.251 357.428 207.246 346.89 191.437 325.812 175.627 304.734 167.722 276.398 167.722 240.804 167.722 202.258 175.828 172.199 192.042 150.63 208.255 129.06 228.606 118.275 253.094 118.275ZM33.2302 16.9055C72.3171 16.9055 111.404 16.9055 150.491 16.9055 150.491 19.94 150.491 22.9745 150.491 26.009 147.194 26.009 143.898 26.009 140.602 26.009 129.434 26.009 121.293 30.0277 116.181 38.0651 112.951 43.314 111.337 55.9442 111.337 75.9557 111.337 130.331 111.337 184.707 111.337 239.082 111.337 264.178 109.083 284.518 104.576 300.101 100.068 315.683 92.2979 329.257 81.2648 340.821 70.2317 352.385 56.9113 358.167 41.3032 358.167 28.6556 358.167 18.6989 354.353 11.4332 346.726 4.16748 339.098 0.534546 330.364 0.534546 320.522 0.534546 312.485 2.21655 306.416 5.5802 302.315 10.0203 297.23 15.2006 294.688 21.1208 294.688 25.4265 294.688 29.2948 296.41 32.7257 299.854 36.1567 303.299 40.4961 312.485 45.7435 327.411 48.8383 336.269 52.8074 340.698 57.6512 340.698 61.2841 340.698 64.6814 337.991 67.8434 332.578 71.0052 327.165 72.5862 317.57 72.5862 303.791 72.5862 227.846 72.5862 151.901 72.5862 75.9557 72.5862 59.0608 71.7117 47.9068 69.9625 42.4939 68.6171 38.3932 65.7916 34.8666 61.486 31.9141 55.7003 27.9774 49.5782 26.009 43.1198 26.009 39.8232 26.009 36.5267 26.009 33.2302 26.009 33.2302 22.9745 33.2302 19.94 33.2302 16.9055ZM1048.95 8.54004C1064.02 8.54004 1079.09 8.54004 1094.16 8.54004 1074.31 36.8349 1054.47 65.1298 1034.62 93.4247 1032.33 93.4247 1030.05 93.4247 1027.76 93.4247 1034.82 65.1298 1041.89 36.8349 1048.95 8.54004ZM395.683 0.666661C398.778 0.666661 401.872 0.666661 404.967 0.666661 404.967 55.6162 404.967 110.566 404.967 165.515 419.902 145.504 431.743 132.669 440.488 127.01 449.234 121.351 457.98 118.521 466.725 118.521 477.221 118.521 486.235 122.048 493.77 129.101 501.305 136.154 506.889 147.226 510.522 162.317 513.078 172.814 514.357 192.006 514.357 219.891 514.357 246.463 514.357 273.036 514.357 299.608 514.357 313.879 515.298 323.639 517.182 328.888 518.527 332.824 520.815 335.941 524.044 338.237 527.273 340.534 533.193 341.682 541.805 341.682 541.805 344.634 541.805 347.587 541.805 350.539 511.531 350.539 481.257 350.539 450.983 350.539 450.983 347.587 450.983 344.634 450.983 341.682 452.396 341.682 453.809 341.682 455.222 341.682 463.833 341.682 469.82 340.082 473.184 336.884 476.548 333.685 478.902 328.97 480.248 322.736 480.651 320.112 480.853 312.403 480.853 299.608 480.853 273.036 480.853 246.463 480.853 219.891 480.853 195.286 479.811 179.13 477.725 171.42 475.64 163.711 472.309 157.929 467.735 154.074 463.16 150.22 457.643 148.292 451.185 148.292 444.592 148.292 437.73 150.425 430.599 154.689 423.468 158.954 414.924 167.566 404.967 180.524 404.967 220.219 404.967 259.914 404.967 299.608 404.967 315.027 405.673 324.623 407.086 328.395 408.499 332.168 411.123 335.326 414.957 337.868 418.792 340.411 425.419 341.682 434.837 341.682 434.837 344.634 434.837 347.587 434.837 350.539 404.294 350.539 373.752 350.539 343.209 350.539 343.209 347.587 343.209 344.634 343.209 341.682 351.416 341.682 357.875 340.124 362.584 337.007 365.275 335.367 367.428 332.25 369.042 327.657 370.657 323.065 371.464 313.715 371.464 299.608 371.464 231.619 371.464 163.629 371.464 95.6391 371.464 69.8866 370.959 54.0579 369.951 48.1529 368.941 42.2479 367.394 38.2292 365.308 36.0968 363.223 33.9644 360.431 32.8982 356.933 32.8982 354.107 32.8982 349.532 34.2105 343.209 36.8349 342.267 33.9644 341.325 31.0939 340.383 28.2234 358.816 19.0378 377.25 9.85225 395.683 0.666661Z" fill="#FFFF00" fill-rule="evenodd"/></g></g><path d="M2905.01 353.033C2884.7 362.875 2871.58 369.846 2865.66 373.947 2855.03 381.164 2847.42 388.71 2842.85 396.583 2838.28 404.456 2835.99 413.068 2835.99 422.417 2835.99 434.227 2838.88 444.028 2844.67 451.819 2850.45 459.611 2857.11 463.506 2864.65 463.506 2874.87 463.506 2888.33 455.305 2905.01 438.902 2905.01 410.279 2905.01 381.656 2905.01 353.033ZM2072.63 272.577C2061.46 272.577 2051.47 277.867 2042.65 288.447 2033.84 299.027 2028.69 313.749 2027.21 332.612 2055.74 332.612 2084.26 332.612 2112.79 332.612 2112.12 318.177 2110.7 308.008 2108.55 302.103 2105.19 292.917 2100.17 285.7 2093.51 280.451 2086.85 275.202 2079.89 272.577 2072.63 272.577ZM2471.09 271.347C2463.96 271.347 2456.79 273.931 2449.59 279.098 2442.39 284.264 2436.58 293.327 2432.14 306.285 2427.69 319.243 2425.47 335.892 2425.47 356.232 2425.47 389.038 2430.82 417.332 2441.52 441.117 2452.22 464.901 2466.31 476.793 2483.8 476.793 2496.85 476.793 2507.62 470.232 2516.09 457.109 2524.57 443.987 2528.81 421.433 2528.81 389.448 2528.81 349.425 2521.75 317.931 2507.62 294.967 2498.06 279.221 2485.89 271.347 2471.09 271.347ZM2585.36 261.998C2614.36 261.998 2643.35 261.998 2672.35 261.998 2672.35 265.032 2672.35 268.067 2672.35 271.101 2670.47 271.101 2668.58 271.101 2666.7 271.101 2661.45 271.101 2657.45 272.659 2654.69 275.776 2651.93 278.892 2650.55 283.075 2650.55 288.324 2650.55 294.065 2651.96 300.872 2654.79 308.746 2669.12 350.245 2683.45 391.744 2697.78 433.243 2712.18 390.186 2726.57 347.128 2740.97 304.071 2744.06 294.885 2745.61 287.914 2745.61 283.157 2745.61 280.861 2745.07 278.974 2744 277.498 2742.52 275.038 2740.63 273.357 2738.35 272.454 2736.06 271.552 2731.42 271.101 2724.42 271.101 2724.42 268.067 2724.42 265.032 2724.42 261.998 2744.54 261.998 2764.65 261.998 2784.77 261.998 2784.77 265.032 2784.77 268.067 2784.77 271.101 2777.77 271.757 2772.93 273.48 2770.23 276.268 2765.52 281.189 2761.29 289.39 2757.52 300.872 2735.65 365.336 2713.79 429.799 2691.93 494.262 2689.17 494.262 2686.41 494.262 2683.65 494.262 2661.65 430.865 2639.65 367.468 2617.65 304.071 2614.69 295.213 2611.87 288.857 2609.18 285.003 2606.49 281.148 2603.06 277.908 2598.88 275.284 2596.6 273.808 2592.09 272.413 2585.36 271.101 2585.36 268.067 2585.36 265.032 2585.36 261.998ZM2876.76 255.354C2893.17 255.354 2906.63 258.717 2917.12 265.442 2925.06 270.527 2930.91 278.482 2934.68 289.308 2937.1 296.362 2938.31 310.796 2938.31 332.612 2938.31 358.118 2938.31 383.625 2938.31 409.131 2938.31 430.619 2938.65 443.782 2939.32 448.621 2940 453.46 2941.11 456.699 2942.65 458.34 2944.2 459.98 2945.98 460.8 2948 460.8 2950.15 460.8 2952.04 460.226 2953.65 459.078 2955.77 457.478 2959.37 453.711 2964.44 447.775 2966.29 445.556 2968.15 443.336 2970 441.117 2970 445.71 2970 450.303 2970 454.895 2968.13 457.779 2966.25 460.662 2964.38 463.545 2951.34 482.383 2938.82 491.801 2926.81 491.801 2920.22 491.801 2914.97 489.013 2911.07 483.436 2907.16 477.859 2905.15 468.345 2905.01 454.895 2886.04 472.774 2874.13 483.108 2869.29 485.896 2862.02 489.997 2854.29 492.047 2846.08 492.047 2833.3 492.047 2822.77 486.716 2814.49 476.055 2806.22 465.393 2802.08 451.368 2802.08 433.981 2802.08 422.991 2804.1 413.478 2808.14 405.44 2813.65 394.286 2823.24 383.789 2836.9 373.947 2850.55 364.105 2873.26 352.131 2905.01 338.025 2905.01 335.072 2905.01 332.12 2905.01 329.167 2905.01 306.695 2902.09 291.277 2896.23 282.911 2890.38 274.546 2881.87 270.363 2870.7 270.363 2862.23 270.363 2855.5 273.151 2850.52 278.728 2845.41 284.305 2842.85 290.703 2842.85 297.92 2842.98 302.677 2843.12 307.433 2843.25 312.19 2843.25 319.736 2841.67 325.559 2838.51 329.659 2835.35 333.76 2831.21 335.81 2826.1 335.81 2821.12 335.81 2817.05 333.678 2813.89 329.413 2810.73 325.148 2809.15 319.326 2809.15 311.944 2809.15 297.838 2815.07 284.88 2826.91 273.069 2838.75 261.259 2855.36 255.354 2876.76 255.354ZM2477.34 255.354C2505.33 255.354 2527.8 268.313 2544.75 294.229 2559.15 316.373 2566.35 341.797 2566.35 370.502 2566.35 390.678 2562.38 411.099 2554.44 431.767 2546.5 452.435 2535.57 468.017 2521.64 478.515 2507.72 489.013 2492.21 494.262 2475.12 494.262 2447.27 494.262 2425.14 480.729 2408.72 453.665 2394.86 430.865 2387.94 405.276 2387.94 376.899 2387.94 356.232 2392.14 335.687 2400.55 315.266 2408.96 294.844 2420.03 279.754 2433.75 269.994 2447.47 260.234 2462.01 255.354 2477.34 255.354ZM2083.93 255.108C2104.65 255.108 2121.67 263.433 2134.99 280.082 2148.31 296.731 2154.97 318.997 2154.97 346.882 2112.38 346.882 2069.8 346.882 2027.21 346.882 2027.08 380.344 2033.74 406.589 2047.2 425.616 2060.65 444.643 2076.46 454.157 2094.62 454.157 2106.73 454.157 2117.26 450.097 2126.21 441.978 2135.16 433.858 2142.66 419.957 2148.71 400.273 2150.8 401.914 2152.88 403.554 2154.97 405.194 2152.14 427.666 2143.94 448.129 2130.35 466.582 2116.76 485.035 2099.74 494.262 2079.29 494.262 2057.08 494.262 2038.08 483.723 2022.27 462.645 2006.46 441.568 1998.56 413.232 1998.56 377.638 1998.56 339.091 2006.66 309.033 2022.88 287.463 2039.09 265.893 2059.44 255.108 2083.93 255.108ZM1864.06 153.739C1903.15 153.739 1942.24 153.739 1981.32 153.739 1981.32 156.773 1981.32 159.808 1981.32 162.842 1978.03 162.842 1974.73 162.842 1971.43 162.842 1960.27 162.842 1952.13 166.861 1947.01 174.898 1943.78 180.147 1942.17 192.778 1942.17 212.789 1942.17 267.164 1942.17 321.54 1942.17 375.915 1942.17 401.012 1939.92 421.351 1935.41 436.934 1930.9 452.517 1923.13 466.09 1912.1 477.654 1901.07 489.218 1887.74 495 1872.14 495 1859.49 495 1849.53 491.186 1842.27 483.559 1835 475.932 1831.37 467.197 1831.37 457.355 1831.37 449.318 1833.05 443.249 1836.41 439.148 1840.85 434.063 1846.03 431.521 1851.95 431.521 1856.26 431.521 1860.13 433.243 1863.56 436.688 1866.99 440.132 1871.33 449.318 1876.58 464.245 1879.67 473.102 1883.64 477.531 1888.48 477.531 1892.12 477.531 1895.51 474.824 1898.68 469.411 1901.84 463.999 1903.42 454.403 1903.42 440.625 1903.42 364.679 1903.42 288.734 1903.42 212.789 1903.42 195.894 1902.55 184.74 1900.8 179.327 1899.45 175.227 1896.62 171.7 1892.32 168.747 1886.53 164.811 1880.41 162.842 1873.95 162.842 1870.66 162.842 1867.36 162.842 1864.06 162.842 1864.06 159.808 1864.06 156.773 1864.06 153.739ZM2879.78 145.373C2894.85 145.373 2909.92 145.373 2924.99 145.373 2905.15 173.668 2885.3 201.963 2865.45 230.258 2863.17 230.258 2860.88 230.258 2858.59 230.258 2865.66 201.963 2872.72 173.668 2879.78 145.373ZM2226.52 137.5C2229.61 137.5 2232.71 137.5 2235.8 137.5 2235.8 192.45 2235.8 247.399 2235.8 302.349 2250.74 282.337 2262.58 269.502 2271.32 263.843 2280.07 258.184 2288.81 255.354 2297.56 255.354 2308.05 255.354 2317.07 258.881 2324.6 265.934 2332.14 272.987 2337.72 284.059 2341.36 299.15 2343.91 309.648 2345.19 328.839 2345.19 356.724 2345.19 383.297 2345.19 409.869 2345.19 436.442 2345.19 450.712 2346.13 460.472 2348.02 465.721 2349.36 469.658 2351.65 472.774 2354.88 475.07 2358.11 477.367 2364.03 478.515 2372.64 478.515 2372.64 481.468 2372.64 484.42 2372.64 487.373 2342.36 487.373 2312.09 487.373 2281.82 487.373 2281.82 484.42 2281.82 481.468 2281.82 478.515 2283.23 478.515 2284.64 478.515 2286.05 478.515 2294.67 478.515 2300.65 476.916 2304.02 473.717 2307.38 470.519 2309.74 465.803 2311.08 459.57 2311.48 456.945 2311.69 449.236 2311.69 436.442 2311.69 409.869 2311.69 383.297 2311.69 356.724 2311.69 332.12 2310.64 315.963 2308.56 308.254 2306.47 300.544 2303.14 294.762 2298.57 290.908 2293.99 287.053 2288.48 285.126 2282.02 285.126 2275.43 285.126 2268.56 287.258 2261.43 291.523 2254.3 295.787 2245.76 304.399 2235.8 317.357 2235.8 357.052 2235.8 396.747 2235.8 436.442 2235.8 451.86 2236.51 461.456 2237.92 465.229 2239.33 469.001 2241.96 472.159 2245.79 474.701 2249.63 477.244 2256.25 478.515 2265.67 478.515 2265.67 481.468 2265.67 484.42 2265.67 487.373 2235.13 487.373 2204.58 487.373 2174.04 487.373 2174.04 484.42 2174.04 481.468 2174.04 478.515 2182.25 478.515 2188.71 476.957 2193.42 473.84 2196.11 472.2 2198.26 469.083 2199.88 464.491 2201.49 459.898 2202.3 450.548 2202.3 436.442 2202.3 368.452 2202.3 300.462 2202.3 232.472 2202.3 206.72 2201.79 190.891 2200.78 184.986 2199.77 179.081 2198.23 175.062 2196.14 172.93 2194.06 170.798 2191.26 169.732 2187.77 169.732 2184.94 169.732 2180.37 171.044 2174.04 173.668 2173.1 170.798 2172.16 167.927 2171.22 165.057 2189.65 155.871 2208.08 146.686 2226.52 137.5Z" fill="#FFFF00" fill-rule="evenodd"/><text fill="#000000" fill-opacity="0" font-family="Arial,Arial_MSFontService,sans-serif" font-size="357.5" x="1831.37" y="450.312">Jehová</text><text fill="#FFFF00" font-family="Times New Roman,Times New Roman_MSFontService,sans-serif" font-weight="400" font-size="202" transform="matrix(1 0 0 1 170.5 899)">Enfocado<tspan font-size="202" x="822.708" y="0">en Cristo</tspan><tspan font-size="202" x="1556.61" y="0">–</tspan><tspan font-style="italic" font-size="202" x="1707.86" y="0">Heb. 12:1</tspan><tspan font-style="italic" font-size="202" x="2513.96" y="0">-</tspan><tspan font-style="italic" font-size="202" x="2580.99" y="0">3</tspan><tspan font-size="202" x="0" y="374">Estabilidad</tspan><tspan font-size="202" x="957.917" y="374">Emocional</tspan><tspan font-size="202" x="1831.61" y="374">–</tspan><tspan font-style="italic" font-size="202" x="1982.86" y="374">Sant</tspan><tspan font-style="italic" font-size="202" x="2341.51" y="374">. 1:12</tspan><tspan font-size="202" x="0" y="748">Orientacion</tspan><tspan font-size="202" x="1002.03" y="748">autoridad</tspan>–<tspan font-style="italic" font-size="202" x="1914.69" y="748">Sant</tspan><tspan font-style="italic" font-size="202" x="2273.33" y="748">. 4:10</tspan><tspan font-size="202" x="0" y="1122">Listo</tspan><tspan font-size="202" x="465.208" y="1122">para</tspan><tspan font-size="202" x="862.24" y="1122">servir</tspan><tspan font-size="202" x="1371.56" y="1122">–</tspan><tspan font-style="italic" font-size="202" x="1522.81" y="1122">Rom</tspan><tspan font-style="italic" font-size="202" x="1892.34" y="1122">.</tspan><tspan font-style="italic" font-size="202" x="1993.18" y="1122">12:1</tspan></text></g></svg>