<?xml version="1.0" encoding="UTF-8" standalone="no"?>
<svg
   width="1124.786"
   height="770.68048"
   overflow="hidden"
   version="1.1"
   id="svg2558"
   sodipodi:docname="temor-de-Jehova.svg"
   viewBox="0 0 2811.965 1926.7012"
   inkscape:version="1.2.2 (b0a84865, 2022-12-01)"
   xmlns:inkscape="http://www.inkscape.org/namespaces/inkscape"
   xmlns:sodipodi="http://sodipodi.sourceforge.net/DTD/sodipodi-0.dtd"
   xmlns="http://www.w3.org/2000/svg"
   xmlns:svg="http://www.w3.org/2000/svg">
  <sodipodi:namedview
     id="namedview2560"
     pagecolor="#ffffff"
     bordercolor="#000000"
     borderopacity="0.25"
     inkscape:showpageshadow="2"
     inkscape:pageopacity="0.0"
     inkscape:pagecheckerboard="0"
     inkscape:deskcolor="#d1d1d1"
     showgrid="false"
     inkscape:zoom="0.11500975"
     inkscape:cx="621.68644"
     inkscape:cy="1026"
     inkscape:window-width="1309"
     inkscape:window-height="430"
     inkscape:window-x="0"
     inkscape:window-y="38"
     inkscape:window-maximized="0"
     inkscape:current-layer="svg2558" />
  <defs
     id="defs2480">
    <filter
       id="fx0"
       x="-307.5"
       y="-205.2"
       width="3690.0002"
       height="2462.4001"
       filterUnits="userSpaceOnUse"
       primitiveUnits="userSpaceOnUse">
      <feComponentTransfer
         color-interpolation-filters="sRGB"
         id="feComponentTransfer2428">
        <feFuncR
           type="discrete"
           tableValues="0.752941 0.752941"
           id="feFuncR2420" />
        <feFuncG
           type="discrete"
           tableValues="0.752941 0.752941"
           id="feFuncG2422" />
        <feFuncB
           type="discrete"
           tableValues="0.752941 0.752941"
           id="feFuncB2424" />
        <feFuncA
           type="linear"
           slope="0.8"
           intercept="0"
           id="feFuncA2426" />
      </feComponentTransfer>
      <feGaussianBlur
         stdDeviation="0 0"
         id="feGaussianBlur2430" />
    </filter>
    <filter
       id="fx1"
       x="-307.5"
       y="-205.2"
       width="3690.0002"
       height="2462.4001"
       filterUnits="userSpaceOnUse"
       primitiveUnits="userSpaceOnUse">
      <feComponentTransfer
         color-interpolation-filters="sRGB"
         id="feComponentTransfer2441">
        <feFuncR
           type="discrete"
           tableValues="0.752941 0.752941"
           id="feFuncR2433" />
        <feFuncG
           type="discrete"
           tableValues="0.752941 0.752941"
           id="feFuncG2435" />
        <feFuncB
           type="discrete"
           tableValues="0.752941 0.752941"
           id="feFuncB2437" />
        <feFuncA
           type="linear"
           slope="0.8"
           intercept="0"
           id="feFuncA2439" />
      </feComponentTransfer>
      <feGaussianBlur
         stdDeviation="0 0"
         id="feGaussianBlur2443" />
    </filter>
    <filter
       id="fx2"
       x="-307.5"
       y="-205.2"
       width="3690.0002"
       height="2462.4001"
       filterUnits="userSpaceOnUse"
       primitiveUnits="userSpaceOnUse">
      <feComponentTransfer
         color-interpolation-filters="sRGB"
         id="feComponentTransfer2454">
        <feFuncR
           type="discrete"
           tableValues="0.752941 0.752941"
           id="feFuncR2446" />
        <feFuncG
           type="discrete"
           tableValues="0.752941 0.752941"
           id="feFuncG2448" />
        <feFuncB
           type="discrete"
           tableValues="0.752941 0.752941"
           id="feFuncB2450" />
        <feFuncA
           type="linear"
           slope="0.8"
           intercept="0"
           id="feFuncA2452" />
      </feComponentTransfer>
      <feGaussianBlur
         stdDeviation="0 0"
         id="feGaussianBlur2456" />
    </filter>
    <clipPath
       id="clip3">
      <rect
         x="49"
         y="137"
         width="3075"
         height="2052"
         id="rect2459" />
    </clipPath>
    <clipPath
       id="clip4">
      <rect
         x="0"
         y="0"
         width="310"
         height="100"
         id="rect2462" />
    </clipPath>
    <clipPath
       id="clip5">
      <rect
         x="0"
         y="0"
         width="1064"
         height="342"
         id="rect2465" />
    </clipPath>
    <clipPath
       id="clip6">
      <rect
         x="0"
         y="0"
         width="107"
         height="104"
         id="rect2468" />
    </clipPath>
    <clipPath
       id="clip7">
      <rect
         x="0"
         y="0"
         width="368"
         height="358"
         id="rect2471" />
    </clipPath>
    <clipPath
       id="clip8">
      <rect
         x="0"
         y="0"
         width="332"
         height="105"
         id="rect2474" />
    </clipPath>
    <clipPath
       id="clip9">
      <rect
         x="0"
         y="0"
         width="1140"
         height="359"
         id="rect2477" />
    </clipPath>
  </defs>
  <g
     clip-path="url(#clip3)"
     transform="translate(-165,-137.5)"
     id="g2556">
    <g
       clip-path="url(#clip4)"
       filter="url(#fx0)"
       transform="translate(173,162)"
       id="g2486">
      <g
         clip-path="url(#clip5)"
         id="g2484">
        <path
           d="m 301.014,119.744 c -11.167,0 -21.158,5.29 -29.971,15.87 -8.813,10.58 -13.959,25.301 -15.439,44.164 28.524,0 57.049,0 85.574,0 -0.673,-14.434 -2.086,-24.604 -4.239,-30.509 -3.363,-9.185 -8.375,-16.403 -15.036,-21.652 -6.66,-5.248 -13.623,-7.873 -20.889,-7.873 z m 513.696,-1.23 c -7.131,0 -14.295,2.583 -21.494,7.75 -7.198,5.167 -13.018,14.23 -17.458,27.188 -4.44,12.958 -6.66,29.607 -6.66,49.947 0,32.805 5.348,61.1 16.045,84.884 10.697,23.784 24.791,35.676 42.283,35.676 13.051,0 23.815,-6.561 32.292,-19.683 8.476,-13.122 12.715,-35.676 12.715,-67.662 0,-40.023 -7.064,-71.516 -21.192,-94.48 -9.553,-15.747 -21.73,-23.62 -36.531,-23.62 z m 166.868,-15.993 c 2.826,0 5.652,0 8.477,0 0,16.895 0,33.79 0,50.685 15.475,-33.79 31.355,-50.685 47.635,-50.685 7.4,0 13.52,2.748 18.36,8.243 4.85,5.494 7.27,11.851 7.27,19.068 0,6.397 -1.75,11.81 -5.25,16.239 -3.5,4.428 -7.67,6.643 -12.51,6.643 -4.71,0 -9.99,-2.83 -15.85,-8.489 -5.85,-5.659 -10.19,-8.488 -13.01,-8.488 -2.43,0 -5.05,1.64 -7.88,4.921 -6.05,6.725 -12.306,17.797 -18.765,33.215 0,36.005 0,72.009 0,108.013 0,12.466 1.278,21.898 3.835,28.295 1.749,4.429 4.844,8.119 9.28,11.072 4.44,2.953 10.84,4.429 19.18,4.429 0,2.952 0,5.905 0,8.857 -31.555,0 -63.107,0 -94.659,0 0,-2.952 0,-5.905 0,-8.857 9.419,0 16.415,-1.805 20.99,-5.413 3.364,-2.625 5.718,-6.807 7.064,-12.548 0.673,-2.789 1.009,-10.744 1.009,-23.867 0,-29.115 0,-58.23 0,-87.345 0,-26.244 -0.437,-41.868 -1.312,-46.871 -0.874,-5.003 -2.489,-8.652 -4.844,-10.949 -2.354,-2.296 -5.281,-3.444 -8.779,-3.444 -4.171,0 -8.88,1.23 -14.128,3.69 -0.673,-2.952 -1.345,-5.905 -2.018,-8.857 18.635,-9.186 37.27,-18.371 55.905,-27.557 z m -160.611,0 c 27.986,0 50.456,12.958 67.41,38.875 14.397,22.144 21.595,47.568 21.595,76.273 0,20.176 -3.969,40.597 -11.908,61.265 -7.938,20.667 -18.87,36.25 -32.796,46.748 -13.926,10.498 -29.433,15.746 -46.521,15.746 -27.852,0 -49.986,-13.532 -66.401,-40.597 -13.858,-22.8 -20.788,-48.388 -20.788,-76.765 0,-20.667 4.205,-41.212 12.614,-61.634 8.41,-20.421 19.477,-35.512 33.201,-45.271 13.724,-9.76 28.255,-14.64 43.594,-14.64 z m -364.85,0 c 2.893,0 5.785,0 8.678,0 0,15.993 0,31.986 0,47.978 13.455,-16.402 21.394,-25.834 23.816,-28.295 6.054,-6.233 12.58,-11.071 19.577,-14.516 6.996,-3.445 13.926,-5.167 20.788,-5.167 11.571,0 21.528,4.101 29.87,12.302 8.342,8.202 13.926,20.094 16.751,35.676 13.859,-19.683 25.565,-32.6 35.118,-38.751 9.553,-6.151 19.375,-9.227 29.467,-9.227 9.822,0 18.534,3.076 26.136,9.227 7.602,6.151 13.623,16.197 18.063,30.14 2.96,9.514 4.441,24.44 4.441,44.78 0,32.313 0,64.627 0,96.94 0,14.107 0.874,23.785 2.623,29.034 1.346,3.608 3.835,6.684 7.468,9.226 3.633,2.543 9.553,3.814 17.76,3.814 0,2.952 0,5.905 0,8.857 -30.408,0 -60.816,0 -91.225,0 0,-2.952 0,-5.905 0,-8.857 1.279,0 2.557,0 3.835,0 7.939,0 14.128,-1.887 18.568,-5.659 3.095,-2.625 5.315,-6.807 6.66,-12.548 0.538,-2.789 0.807,-10.744 0.807,-23.867 0,-32.313 0,-64.627 0,-96.94 0,-18.372 -1.816,-31.33 -5.449,-38.875 -5.247,-10.498 -13.657,-15.747 -25.228,-15.747 -7.131,0 -14.296,2.174 -21.494,6.52 -7.199,4.347 -15.911,12.426 -26.137,24.236 -0.134,0.902 -0.269,1.804 -0.403,2.706 0.134,3.527 0.269,7.053 0.403,10.58 0,35.84 0,71.68 0,107.52 0,15.419 0.707,25.015 2.119,28.787 1.413,3.773 4.071,6.931 7.972,9.473 3.902,2.543 10.563,3.814 19.981,3.814 0,2.952 0,5.905 0,8.857 -31.148,0 -62.297,0 -93.445,0 0,-2.952 0,-5.905 0,-8.857 10.226,0 17.256,-1.476 21.091,-4.429 3.834,-2.953 6.492,-7.381 7.972,-13.286 0.673,-2.789 1.009,-10.908 1.009,-24.359 0,-32.313 0,-64.627 0,-96.94 0,-18.372 -2.22,-31.576 -6.66,-39.613 -5.92,-10.498 -14.195,-15.747 -24.825,-15.747 -7.265,0 -14.464,2.378 -21.595,7.135 -11.168,7.218 -19.779,15.337 -25.834,24.359 0,40.269 0,80.537 0,120.806 0,14.763 0.841,24.359 2.523,28.787 1.682,4.429 4.171,7.751 7.468,9.965 3.296,2.215 9.99,3.322 20.081,3.322 0,2.952 0,5.905 0,8.857 -30.475,0 -60.951,0 -91.427,0 0,-2.952 0,-5.905 0,-8.857 8.477,0 14.397,-1.107 17.761,-3.322 3.364,-2.214 5.92,-5.741 7.669,-10.58 1.75,-4.838 2.624,-14.229 2.624,-28.172 0,-28.705 0,-57.409 0,-86.114 0,-24.769 -0.606,-40.762 -1.817,-47.979 -0.941,-5.413 -2.421,-9.144 -4.44,-11.195 -2.018,-2.05 -4.776,-3.075 -8.275,-3.075 -3.767,0 -8.274,1.23 -13.522,3.69 -1.009,-2.952 -2.018,-5.905 -3.027,-8.857 18.568,-9.186 37.136,-18.371 55.704,-27.557 z m -143.8,-0.246 c 20.72,0 37.741,8.324 51.061,24.973 13.321,16.649 19.981,38.916 19.981,66.801 -42.585,0 -85.17,0 -127.755,0 -0.135,33.462 6.525,59.706 19.98,78.734 13.455,19.027 29.265,28.541 47.43,28.541 12.109,0 22.637,-4.06 31.585,-12.18 8.948,-8.119 16.449,-22.02 22.504,-41.704 2.085,1.64 4.171,3.281 6.256,4.921 -2.825,22.472 -11.033,42.935 -24.623,61.388 -13.589,18.453 -30.61,27.679 -51.061,27.679 -22.201,0 -41.206,-10.538 -57.016,-31.616 -15.81,-21.078 -23.715,-49.414 -23.715,-85.008 0,-38.546 8.107,-68.605 24.32,-90.174 16.214,-21.57 36.564,-32.355 61.053,-32.355 z M 4.3958,0.905464 c 74.4736,0 148.9472,0 223.4212,0 1.009,26.080536 2.018,52.161036 3.027,78.241536 -2.556,0 -5.113,0 -7.669,0 -1.48,-13.7784 -3.499,-23.6201 -6.055,-29.5251 -4.171,-9.5136 -9.721,-16.5259 -16.651,-21.0366 -6.929,-4.5108 -16.045,-6.7662 -27.347,-6.7662 -12.85,0 -25.699,0 -38.549,0 0,84.9669 0,169.9339 0,254.8999 0,20.504 1.817,33.298 5.45,38.383 5.112,6.889 12.984,10.334 23.613,10.334 3.162,0 6.324,0 9.486,0 0,3.034 0,6.069 0,9.103 -38.683,0 -77.3666,0 -116.0498,0 0,-3.034 0,-6.069 0,-9.103 3.2292,0 6.4585,0 9.6877,0 11.5713,0 19.7789,-4.265 24.6227,-12.794 2.9601,-5.249 4.4401,-17.223 4.4401,-35.923 0,-84.966 0,-169.933 0,-254.8999 -10.9658,0 -21.9317,0 -32.8975,0 -12.7823,0 -21.8644,1.1482 -27.2465,3.4446 -6.9966,3.1165 -12.9841,9.1036 -17.9624,17.9611 -4.9784,8.8575 -7.93849,20.8316 -8.88034,35.9222 -2.55646,0 -5.11292,0 -7.66937,0 C 2.24299,53.0665 3.31939,26.986 4.3958,0.905464 Z"
           fill="#ffff00"
           fill-rule="evenodd"
           id="path2482" />
      </g>
    </g>
    <path
       d="m 464.848,272.577 c -11.168,0 -21.158,5.29 -29.971,15.87 -8.813,10.58 -13.96,25.302 -15.44,44.165 28.525,0 57.049,0 85.574,0 -0.673,-14.435 -2.085,-24.604 -4.238,-30.509 -3.364,-9.186 -8.376,-16.403 -15.036,-21.652 -6.66,-5.249 -13.624,-7.874 -20.889,-7.874 z m 513.696,-1.23 c -7.131,0 -14.296,2.584 -21.495,7.751 -7.198,5.166 -13.017,14.229 -17.458,27.187 -4.44,12.958 -6.66,29.607 -6.66,49.947 0,32.806 5.349,61.1 16.045,84.885 10.697,23.784 24.791,35.676 42.283,35.676 13.051,0 23.811,-6.561 32.291,-19.684 8.48,-13.122 12.72,-35.676 12.72,-67.661 0,-40.023 -7.07,-71.517 -21.2,-94.481 -9.55,-15.746 -21.726,-23.62 -36.526,-23.62 z m 166.866,-15.993 c 2.83,0 5.65,0 8.48,0 0,16.895 0,33.79 0,50.685 15.47,-33.79 31.35,-50.685 47.63,-50.685 7.4,0 13.52,2.748 18.37,8.243 4.84,5.495 7.26,11.851 7.26,19.068 0,6.397 -1.75,11.81 -5.25,16.239 -3.49,4.429 -7.67,6.643 -12.51,6.643 -4.71,0 -9.99,-2.829 -15.84,-8.488 -5.86,-5.659 -10.2,-8.489 -13.02,-8.489 -2.42,0 -5.05,1.64 -7.87,4.921 -6.06,6.725 -12.31,17.797 -18.77,33.216 0,36.004 0,72.008 0,108.012 0,12.467 1.28,21.898 3.83,28.295 1.75,4.429 4.85,8.12 9.29,11.072 4.44,2.953 10.83,4.429 19.17,4.429 0,2.953 0,5.905 0,8.858 -31.55,0 -63.1,0 -94.66,0 0,-2.953 0,-5.905 0,-8.858 9.42,0 16.42,-1.804 20.99,-5.413 3.37,-2.624 5.72,-6.807 7.07,-12.548 0.67,-2.788 1.01,-10.744 1.01,-23.866 0,-29.115 0,-58.23 0,-87.345 0,-26.245 -0.44,-41.869 -1.31,-46.871 -0.88,-5.003 -2.49,-8.653 -4.85,-10.949 -2.35,-2.297 -5.28,-3.445 -8.78,-3.445 -4.17,0 -8.88,1.23 -14.13,3.691 -0.67,-2.953 -1.34,-5.905 -2.01,-8.858 18.63,-9.185 37.27,-18.371 55.9,-27.557 z m -160.61,0 c 27.99,0 50.46,12.959 67.41,38.875 14.4,22.144 21.6,47.568 21.6,76.273 0,20.176 -3.97,40.597 -11.91,61.265 -7.94,20.668 -18.87,36.25 -32.8,46.748 -13.92,10.498 -29.432,15.747 -46.52,15.747 -27.852,0 -49.985,-13.533 -66.4,-40.597 -13.859,-22.8 -20.788,-48.389 -20.788,-76.766 0,-20.667 4.204,-41.212 12.614,-61.633 8.409,-20.422 19.476,-35.512 33.2,-45.272 13.724,-9.76 28.256,-14.64 43.594,-14.64 z m -364.85,0 c 2.893,0 5.786,0 8.679,0 0,15.993 0,31.986 0,47.979 13.455,-16.403 21.393,-25.835 23.815,-28.295 6.055,-6.233 12.58,-11.072 19.577,-14.517 6.997,-3.444 13.926,-5.167 20.788,-5.167 11.571,0 21.528,4.101 29.87,12.303 8.342,8.201 13.926,20.093 16.752,35.676 13.858,-19.684 25.564,-32.601 35.117,-38.752 9.554,-6.151 19.376,-9.227 29.467,-9.227 9.822,0 18.534,3.076 26.136,9.227 7.602,6.151 13.624,16.198 18.064,30.14 2.96,9.514 4.44,24.44 4.44,44.78 0,32.314 0,64.627 0,96.941 0,14.106 0.874,23.784 2.624,29.033 1.345,3.608 3.834,6.684 7.467,9.226 3.633,2.543 9.553,3.814 17.761,3.814 0,2.953 0,5.905 0,8.858 -30.409,0 -60.817,0 -91.225,0 0,-2.953 0,-5.905 0,-8.858 1.278,0 2.556,0 3.834,0 7.939,0 14.128,-1.886 18.568,-5.659 3.095,-2.624 5.315,-6.807 6.661,-12.548 0.538,-2.789 0.807,-10.744 0.807,-23.866 0,-32.314 0,-64.627 0,-96.941 0,-18.371 -1.817,-31.329 -5.449,-38.875 -5.248,-10.498 -13.657,-15.746 -25.229,-15.746 -7.131,0 -14.296,2.173 -21.494,6.52 -7.199,4.346 -15.911,12.425 -26.136,24.235 -0.135,0.902 -0.27,1.804 -0.404,2.706 0.134,3.527 0.269,7.054 0.404,10.58 0,35.84 0,71.681 0,107.521 0,15.418 0.706,25.014 2.119,28.787 1.412,3.772 4.07,6.93 7.972,9.472 3.902,2.543 10.562,3.814 19.981,3.814 0,2.953 0,5.905 0,8.858 -31.149,0 -62.297,0 -93.446,0 0,-2.953 0,-5.905 0,-8.858 10.226,0 17.256,-1.476 21.091,-4.429 3.835,-2.952 6.492,-7.381 7.972,-13.286 0.673,-2.788 1.009,-10.908 1.009,-24.358 0,-32.314 0,-64.627 0,-96.941 0,-18.371 -2.22,-31.575 -6.66,-39.613 -5.92,-10.498 -14.195,-15.747 -24.824,-15.747 -7.266,0 -14.465,2.379 -21.596,7.136 -11.167,7.217 -19.779,15.336 -25.833,24.358 0,40.269 0,80.538 0,120.807 0,14.762 0.841,24.358 2.522,28.787 1.682,4.429 4.172,7.75 7.468,9.964 3.296,2.215 9.99,3.322 20.082,3.322 0,2.953 0,5.905 0,8.858 -30.476,0 -60.952,0 -91.428,0 0,-2.953 0,-5.905 0,-8.858 8.477,0 14.398,-1.107 17.761,-3.322 3.364,-2.214 5.921,-5.74 7.67,-10.579 1.749,-4.839 2.623,-14.23 2.623,-28.172 0,-28.705 0,-57.41 0,-86.115 0,-24.768 -0.605,-40.761 -1.816,-47.978 -0.942,-5.413 -2.422,-9.145 -4.44,-11.195 -2.019,-2.051 -4.777,-3.076 -8.275,-3.076 -3.767,0 -8.275,1.23 -13.523,3.691 -1.009,-2.953 -2.018,-5.905 -3.027,-8.858 18.568,-9.185 37.136,-18.371 55.704,-27.557 z m -143.8,-0.246 c 20.721,0 37.741,8.325 51.062,24.974 13.32,16.649 19.981,38.915 19.981,66.8 -42.586,0 -85.171,0 -127.756,0 -0.135,33.462 6.526,59.707 19.981,78.734 13.455,19.027 29.264,28.541 47.429,28.541 12.109,0 22.638,-4.06 31.585,-12.179 8.948,-8.12 16.449,-22.021 22.504,-41.705 2.086,1.641 4.171,3.281 6.257,4.921 -2.826,22.472 -11.034,42.935 -24.623,61.388 -13.59,18.453 -30.61,27.68 -51.062,27.68 -22.201,0 -41.206,-10.539 -57.016,-31.617 -15.809,-21.077 -23.714,-49.413 -23.714,-85.007 0,-38.547 8.106,-68.605 24.32,-90.175 16.213,-21.57 36.564,-32.355 61.052,-32.355 z M 168.229,153.739 c 74.474,0 148.947,0 223.421,0 1.009,26.08 2.018,52.161 3.027,78.241 -2.556,0 -5.113,0 -7.669,0 -1.48,-13.778 -3.498,-23.62 -6.055,-29.525 -4.171,-9.513 -9.721,-16.526 -16.65,-21.036 -6.93,-4.511 -16.046,-6.767 -27.348,-6.767 -12.849,0 -25.699,0 -38.548,0 0,84.967 0,169.934 0,254.901 0,20.503 1.816,33.297 5.449,38.382 5.113,6.889 12.984,10.334 23.613,10.334 3.162,0 6.324,0 9.486,0 0,3.035 0,6.069 0,9.104 -38.683,0 -77.366,0 -116.049,0 0,-3.035 0,-6.069 0,-9.104 3.229,0 6.458,0 9.687,0 11.572,0 19.779,-4.265 24.623,-12.794 2.96,-5.249 4.44,-17.223 4.44,-35.922 0,-84.967 0,-169.934 0,-254.901 -10.966,0 -21.932,0 -32.897,0 -12.783,0 -21.865,1.149 -27.247,3.445 -6.997,3.117 -12.984,9.104 -17.962,17.961 -4.979,8.858 -7.939,20.832 -8.881,35.922 -2.556,0 -5.113,0 -7.669,0 1.076,-26.08 2.153,-52.161 3.229,-78.241 z"
       fill="#ffff00"
       fill-rule="evenodd"
       id="path2488" />
    <text
       fill="#000000"
       fill-opacity="0"
       font-family="Arial, Arial_MSFontService, sans-serif"
       font-size="340.523px"
       x="165"
       y="451.69601"
       id="text2490">Temor</text>
    <g
       clip-path="url(#clip6)"
       filter="url(#fx1)"
       transform="translate(1351,146)"
       id="g2496">
      <g
         clip-path="url(#clip7)"
         id="g2494">
        <path
           d="m 284.678,135.744 c -11.167,0 -21.158,5.29 -29.971,15.87 -8.813,10.58 -13.959,25.301 -15.439,44.164 28.524,0 57.049,0 85.574,0 -0.673,-14.434 -2.086,-24.604 -4.239,-30.509 -3.363,-9.185 -8.375,-16.403 -15.036,-21.652 -6.66,-5.248 -13.623,-7.873 -20.889,-7.873 z M 88.0587,133.53 c -11.8403,0 -22.4026,6.479 -31.6865,19.437 -12.244,17.059 -18.3661,41.991 -18.3661,74.797 0,33.134 5.9202,58.517 17.7606,76.15 11.8404,17.633 25.0264,26.45 39.5579,26.45 12.2444,0 24.0844,-7.464 35.5214,-22.39 0,-38.711 0,-77.422 0,-116.132 -0.808,-11.154 -3.229,-21.324 -7.266,-30.51 -4.036,-9.185 -9.385,-16.115 -16.045,-20.79 -6.66,-4.675 -13.1523,-7.012 -19.4763,-7.012 z M 295.981,118.275 c 20.72,0 37.741,8.324 51.061,24.973 13.321,16.649 19.981,38.916 19.981,66.801 -42.585,0 -85.17,0 -127.755,0 -0.135,33.462 6.525,59.706 19.98,78.734 13.455,19.027 29.265,28.541 47.429,28.541 12.11,0 22.638,-4.06 31.586,-12.18 8.948,-8.119 16.449,-22.02 22.504,-41.704 2.085,1.64 4.171,3.281 6.256,4.921 -2.825,22.472 -11.033,42.935 -24.623,61.388 -13.589,18.453 -30.61,27.679 -51.061,27.679 -22.201,0 -41.206,-10.538 -57.016,-31.616 -15.81,-21.078 -23.715,-49.414 -23.715,-85.008 0,-38.546 8.107,-68.605 24.32,-90.174 16.214,-21.57 36.564,-32.355 61.053,-32.355 z M 155.065,0.666661 c 3.027,0 6.055,0 9.082,0 0,86.853039 0,173.706339 0,260.559339 0,26.408 0.505,42.524 1.514,48.347 1.009,5.823 2.623,9.883 4.844,12.179 2.219,2.297 4.81,3.445 7.77,3.445 3.633,0 8.476,-1.394 14.531,-4.183 0.74,2.871 1.48,5.741 2.22,8.612 -18.299,9.267 -36.597,18.535 -54.896,27.802 -3.095,0 -6.19,0 -9.284,0 0,-10.743 0,-21.487 0,-32.231 -9.015,11.482 -17.828,19.724 -26.439,24.727 -8.6116,5.003 -17.8955,7.504 -27.8522,7.504 -20.1826,0 -37.8087,-10.292 -52.8783,-30.878 C 8.60681,305.965 1.07202,279.515 1.07202,247.201 c 0,-32.313 8.34204,-61.879 25.02638,-88.698 16.6842,-26.819 38.145,-40.228 64.3823,-40.228 16.2803,0 29.7353,6.315 40.3653,18.945 0,-13.86 0,-27.72 0,-41.5809 0,-25.7525 -0.505,-41.5812 -1.514,-47.4862 -1.009,-5.905 -2.59,-9.9237 -4.743,-12.0561 -2.153,-2.1324 -4.844,-3.1986 -8.073,-3.1986 -3.498,0 -8.14,1.3123 -13.926,3.9367 -0.874,-2.8705 -1.749,-5.741 -2.6234,-8.6115 C 118.333,19.0378 136.699,9.85225 155.065,0.666661 Z"
           fill="#ffff00"
           fill-rule="evenodd"
           id="path2492" />
      </g>
    </g>
    <path
       d="m 1626.51,272.577 c -11.17,0 -21.16,5.29 -29.97,15.87 -8.81,10.58 -13.96,25.302 -15.44,44.165 28.53,0 57.05,0 85.58,0 -0.68,-14.435 -2.09,-24.604 -4.24,-30.509 -3.37,-9.186 -8.38,-16.403 -15.04,-21.652 -6.66,-5.249 -13.62,-7.874 -20.89,-7.874 z m -196.62,-2.214 c -11.84,0 -22.4,6.479 -31.68,19.437 -12.25,17.059 -18.37,41.992 -18.37,74.797 0,33.134 5.92,58.518 17.76,76.151 11.84,17.633 25.03,26.449 39.56,26.449 12.24,0 24.08,-7.463 35.52,-22.39 0,-38.711 0,-77.421 0,-116.132 -0.81,-11.154 -3.23,-21.324 -7.27,-30.509 -4.03,-9.186 -9.38,-16.116 -16.04,-20.791 -6.66,-4.675 -13.15,-7.012 -19.48,-7.012 z m 207.92,-15.255 c 20.72,0 37.75,8.325 51.07,24.974 13.32,16.649 19.98,38.915 19.98,66.8 -42.59,0 -85.17,0 -127.76,0 -0.13,33.462 6.53,59.707 19.98,78.734 13.46,19.027 29.27,28.541 47.43,28.541 12.11,0 22.64,-4.06 31.59,-12.179 8.94,-8.12 16.45,-22.021 22.5,-41.705 2.09,1.641 4.17,3.281 6.26,4.921 -2.83,22.472 -11.04,42.935 -24.63,61.388 -13.59,18.453 -30.61,27.68 -51.06,27.68 -22.2,0 -41.2,-10.539 -57.01,-31.617 -15.81,-21.077 -23.72,-49.413 -23.72,-85.007 0,-38.547 8.11,-68.605 24.32,-90.175 16.22,-21.57 36.57,-32.355 61.05,-32.355 z M 1496.9,137.5 c 3.03,0 6.05,0 9.08,0 0,86.853 0,173.706 0,260.559 0,26.409 0.5,42.524 1.51,48.347 1.01,5.824 2.63,9.883 4.85,12.18 2.22,2.296 4.81,3.444 7.77,3.444 3.63,0 8.47,-1.394 14.53,-4.183 0.74,2.871 1.48,5.742 2.22,8.612 -18.3,9.268 -36.6,18.535 -54.9,27.803 -3.09,0 -6.19,0 -9.28,0 0,-10.744 0,-21.488 0,-32.232 -9.02,11.482 -17.83,19.725 -26.44,24.728 -8.61,5.002 -17.9,7.504 -27.85,7.504 -20.18,0 -37.81,-10.293 -52.88,-30.879 -15.07,-20.585 -22.6,-47.035 -22.6,-79.348 0,-32.314 8.34,-61.88 25.02,-88.699 16.69,-26.818 38.15,-40.228 64.38,-40.228 16.28,0 29.74,6.315 40.37,18.946 0,-13.861 0,-27.721 0,-41.582 0,-25.752 -0.51,-41.581 -1.51,-47.486 -1.01,-5.905 -2.59,-9.924 -4.75,-12.056 -2.15,-2.132 -4.84,-3.198 -8.07,-3.198 -3.5,0 -8.14,1.312 -13.93,3.936 -0.87,-2.87 -1.75,-5.741 -2.62,-8.611 18.37,-9.186 36.73,-18.371 55.1,-27.557 z"
       fill="#ffff00"
       fill-rule="evenodd"
       id="path2498" />
    <text
       fill="#000000"
       fill-opacity="0"
       font-family="Arial, Arial_MSFontService, sans-serif"
       font-size="356.762px"
       x="1342.91"
       y="449.66699"
       id="text2500">de</text>
    <g
       clip-path="url(#clip8)"
       filter="url(#fx2)"
       transform="translate(1840,146)"
       id="g2506">
      <g
         clip-path="url(#clip9)"
         id="g2504">
        <path
           d="m 1074.18,216.2 c -20.32,9.842 -33.44,16.813 -39.36,20.914 -10.63,7.217 -18.23,14.762 -22.8,22.636 -4.58,7.873 -6.87,16.484 -6.87,25.834 0,11.81 2.9,21.611 8.68,29.402 5.79,7.791 12.45,11.687 19.98,11.687 10.23,0 23.68,-8.201 40.37,-24.604 0,-28.623 0,-57.246 0,-85.869 z M 241.792,135.744 c -11.168,0 -21.158,5.29 -29.971,15.87 -8.813,10.58 -13.96,25.301 -15.44,44.164 28.525,0 57.05,0 85.574,0 -0.673,-14.434 -2.085,-24.604 -4.238,-30.509 -3.364,-9.185 -8.376,-16.403 -15.036,-21.652 -6.66,-5.248 -13.624,-7.873 -20.889,-7.873 z m 398.462,-1.23 c -7.131,0 -14.296,2.583 -21.494,7.75 -7.199,5.167 -13.018,14.23 -17.458,27.188 -4.441,12.958 -6.661,29.607 -6.661,49.947 0,32.805 5.349,61.1 16.046,84.884 10.696,23.784 24.79,35.676 42.282,35.676 13.051,0 23.815,-6.561 32.292,-19.683 8.477,-13.122 12.715,-35.676 12.715,-67.662 0,-40.023 -7.064,-71.516 -21.192,-94.48 -9.553,-15.747 -21.729,-23.62 -36.53,-23.62 z m 114.275,-9.35 c 28.995,0 57.991,0 86.987,0 0,3.035 0,6.069 0,9.104 -1.884,0 -3.768,0 -5.652,0 -5.247,0 -9.25,1.558 -12.008,4.675 -2.758,3.116 -4.138,7.299 -4.138,12.548 0,5.741 1.413,12.548 4.239,20.421 14.329,41.5 28.659,82.999 42.989,124.498 14.396,-43.058 28.793,-86.115 43.19,-129.172 3.095,-9.186 4.642,-16.157 4.642,-20.914 0,-2.297 -0.538,-4.183 -1.615,-5.659 -1.48,-2.461 -3.363,-4.142 -5.65,-5.044 -2.288,-0.902 -6.93,-1.353 -13.926,-1.353 0,-3.035 0,-6.069 0,-9.104 20.115,0 40.23,0 60.345,0 0,3.035 0,6.069 0,9.104 -6.996,0.656 -11.84,2.378 -14.531,5.167 -4.709,4.921 -8.948,13.122 -12.715,24.604 -21.865,64.463 -43.729,128.926 -65.593,193.389 -2.759,0 -5.517,0 -8.275,0 -21.999,-63.397 -43.998,-126.793 -65.997,-190.19 -2.96,-8.858 -5.786,-15.214 -8.477,-19.069 -2.691,-3.854 -6.122,-7.094 -10.293,-9.718 -2.287,-1.477 -6.795,-2.871 -13.522,-4.183 0,-3.035 0,-6.069 0,-9.104 z m 291.391,-6.643 c 16.42,0 29.87,3.363 40.37,10.088 7.94,5.085 13.79,13.04 17.56,23.866 2.42,7.053 3.63,21.488 3.63,43.303 0,25.507 0,51.013 0,76.52 0,21.487 0.34,34.651 1.01,39.49 0.67,4.838 1.78,8.078 3.33,9.718 1.55,1.641 3.33,2.461 5.35,2.461 2.15,0 4.03,-0.574 5.65,-1.723 2.12,-1.599 5.71,-5.366 10.78,-11.302 1.86,-2.22 3.71,-4.439 5.57,-6.658 0,4.592 0,9.185 0,13.778 -1.88,2.883 -3.75,5.766 -5.62,8.65 -13.04,18.837 -25.57,28.256 -37.57,28.256 -6.6,0 -11.84,-2.788 -15.75,-8.365 -3.9,-5.577 -5.92,-15.091 -6.05,-28.541 -18.97,17.879 -30.88,28.213 -35.72,31.001 -7.27,4.101 -15.01,6.151 -23.21,6.151 -12.79,0 -23.315,-5.331 -31.59,-15.993 -8.275,-10.662 -12.412,-24.686 -12.412,-42.073 0,-10.99 2.018,-20.504 6.055,-28.541 5.516,-11.154 15.103,-21.652 28.757,-31.493 13.66,-9.842 36.36,-21.816 68.12,-35.923 0,-2.952 0,-5.905 0,-8.857 0,-22.472 -2.93,-37.891 -8.78,-46.256 -5.85,-8.366 -14.36,-12.548 -25.53,-12.548 -8.48,0 -15.21,2.788 -20.18,8.365 -5.12,5.577 -7.67,11.974 -7.67,19.191 0.13,4.757 0.27,9.514 0.4,14.271 0,7.545 -1.58,13.368 -4.74,17.469 -3.16,4.101 -7.3,6.151 -12.415,6.151 -4.979,0 -9.049,-2.132 -12.211,-6.397 -3.162,-4.265 -4.742,-10.088 -4.742,-17.469 0,-14.107 5.92,-27.065 17.76,-38.875 11.838,-11.81 28.458,-17.715 49.848,-17.715 z m -399.409,0 c 27.986,0 50.456,12.958 67.409,38.875 14.397,22.144 21.596,47.568 21.596,76.273 0,20.176 -3.97,40.597 -11.908,61.265 -7.939,20.667 -18.871,36.25 -32.797,46.748 -13.926,10.498 -29.433,15.746 -46.521,15.746 -27.851,0 -49.985,-13.532 -66.4,-40.597 -13.859,-22.8 -20.788,-48.388 -20.788,-76.765 0,-20.667 4.205,-41.212 12.614,-61.634 8.409,-20.421 19.476,-35.512 33.2,-45.271 13.725,-9.76 28.256,-14.64 43.595,-14.64 z m -393.417,-0.246 c 20.721,0 37.742,8.324 51.062,24.973 13.32,16.649 19.981,38.916 19.981,66.801 -42.585,0 -85.171,0 -127.756,0 -0.134,33.462 6.526,59.706 19.981,78.734 13.455,19.027 29.265,28.541 47.429,28.541 12.109,0 22.638,-4.06 31.586,-12.18 8.947,-8.119 16.448,-22.02 22.503,-41.704 2.086,1.64 4.171,3.281 6.257,4.921 -2.826,22.472 -11.033,42.935 -24.623,61.388 -13.59,18.453 -30.61,27.679 -51.062,27.679 -22.201,0 -41.206,-10.538 -57.015,-31.616 -15.81,-21.078 -23.715,-49.414 -23.715,-85.008 0,-38.546 8.106,-68.605 24.32,-90.174 16.213,-21.57 36.564,-32.355 61.052,-32.355 z M 33.2302,16.9055 c 39.0869,0 78.1738,0 117.2608,0 0,3.0345 0,6.069 0,9.1035 -3.297,0 -6.593,0 -9.889,0 -11.168,0 -19.309,4.0187 -24.421,12.0561 -3.23,5.2489 -4.844,17.8791 -4.844,37.8906 0,54.3753 0,108.7513 0,163.1263 0,25.096 -2.254,45.436 -6.761,61.019 -4.508,15.582 -12.2781,29.156 -23.3112,40.72 -11.0331,11.564 -24.3535,17.346 -39.9616,17.346 -12.6476,0 -22.6043,-3.814 -29.87,-11.441 -7.26572,-7.628 -10.898654,-16.362 -10.898654,-26.204 0,-8.037 1.682004,-14.106 5.045654,-18.207 4.4401,-5.085 9.6204,-7.627 15.5406,-7.627 4.3057,0 8.174,1.722 11.6049,5.166 3.431,3.445 7.7704,12.631 13.0178,27.557 3.0948,8.858 7.0639,13.287 11.9077,13.287 3.6329,0 7.0302,-2.707 10.1922,-8.12 3.1618,-5.413 4.7428,-15.008 4.7428,-28.787 0,-75.945 0,-151.89 0,-227.8353 0,-16.8949 -0.8745,-28.0489 -2.6237,-33.4618 C 68.6171,38.3932 65.7916,34.8666 61.486,31.9141 55.7003,27.9774 49.5782,26.009 43.1198,26.009 c -3.2966,0 -6.5931,0 -9.8896,0 0,-3.0345 0,-6.069 0,-9.1035 z M 1048.95,8.54004 c 15.07,0 30.14,0 45.21,0 -19.85,28.29486 -39.69,56.58976 -59.54,84.88466 -2.29,0 -4.57,0 -6.86,0 7.06,-28.2949 14.13,-56.5898 21.19,-84.88466 z M 395.683,0.666661 c 3.095,0 6.189,0 9.284,0 0,54.949539 0,109.899339 0,164.848339 14.935,-20.011 26.776,-32.846 35.521,-38.505 8.746,-5.659 17.492,-8.489 26.237,-8.489 10.496,0 19.51,3.527 27.045,10.58 7.535,7.053 13.119,18.125 16.752,33.216 2.556,10.497 3.835,29.689 3.835,57.574 0,26.572 0,53.145 0,79.717 0,14.271 0.941,24.031 2.825,29.28 1.345,3.936 3.633,7.053 6.862,9.349 3.229,2.297 9.149,3.445 17.761,3.445 0,2.952 0,5.905 0,8.857 -30.274,0 -60.548,0 -90.822,0 0,-2.952 0,-5.905 0,-8.857 1.413,0 2.826,0 4.239,0 8.611,0 14.598,-1.6 17.962,-4.798 3.364,-3.199 5.718,-7.914 7.064,-14.148 0.403,-2.624 0.605,-10.333 0.605,-23.128 0,-26.572 0,-53.145 0,-79.717 0,-24.605 -1.042,-40.761 -3.128,-48.471 -2.085,-7.709 -5.416,-13.491 -9.99,-17.346 -4.575,-3.854 -10.092,-5.782 -16.55,-5.782 -6.593,0 -13.455,2.133 -20.586,6.397 -7.131,4.265 -15.675,12.877 -25.632,25.835 0,39.695 0,79.39 0,119.084 0,15.419 0.706,25.015 2.119,28.787 1.413,3.773 4.037,6.931 7.871,9.473 3.835,2.543 10.462,3.814 19.88,3.814 0,2.952 0,5.905 0,8.857 -30.543,0 -61.085,0 -91.628,0 0,-2.952 0,-5.905 0,-8.857 8.207,0 14.666,-1.558 19.375,-4.675 2.691,-1.64 4.844,-4.757 6.458,-9.35 1.615,-4.592 2.422,-13.942 2.422,-28.049 0,-67.989 0,-135.979 0,-203.9689 0,-25.7525 -0.505,-41.5812 -1.513,-47.4862 -1.01,-5.905 -2.557,-9.9237 -4.643,-12.0561 -2.085,-2.1324 -4.877,-3.1986 -8.375,-3.1986 -2.826,0 -7.401,1.3123 -13.724,3.9367 -0.942,-2.8705 -1.884,-5.741 -2.826,-8.6115 18.433,-9.1856 36.867,-18.37115 55.3,-27.556739 z"
           fill="#ffff00"
           fill-rule="evenodd"
           id="path2502" />
      </g>
    </g>
    <path
       d="m 2905.01,353.033 c -20.31,9.842 -33.43,16.813 -39.35,20.914 -10.63,7.217 -18.24,14.763 -22.81,22.636 -4.57,7.873 -6.86,16.485 -6.86,25.834 0,11.81 2.89,21.611 8.68,29.402 5.78,7.792 12.44,11.687 19.98,11.687 10.22,0 23.68,-8.201 40.36,-24.604 0,-28.623 0,-57.246 0,-85.869 z m -832.38,-80.456 c -11.17,0 -21.16,5.29 -29.98,15.87 -8.81,10.58 -13.96,25.302 -15.44,44.165 28.53,0 57.05,0 85.58,0 -0.67,-14.435 -2.09,-24.604 -4.24,-30.509 -3.36,-9.186 -8.38,-16.403 -15.04,-21.652 -6.66,-5.249 -13.62,-7.874 -20.88,-7.874 z m 398.46,-1.23 c -7.13,0 -14.3,2.584 -21.5,7.751 -7.2,5.166 -13.01,14.229 -17.45,27.187 -4.45,12.958 -6.67,29.607 -6.67,49.947 0,32.806 5.35,61.1 16.05,84.885 10.7,23.784 24.79,35.676 42.28,35.676 13.05,0 23.82,-6.561 32.29,-19.684 8.48,-13.122 12.72,-35.676 12.72,-67.661 0,-40.023 -7.06,-71.517 -21.19,-94.481 -9.56,-15.746 -21.73,-23.62 -36.53,-23.62 z m 114.27,-9.349 c 29,0 57.99,0 86.99,0 0,3.034 0,6.069 0,9.103 -1.88,0 -3.77,0 -5.65,0 -5.25,0 -9.25,1.558 -12.01,4.675 -2.76,3.116 -4.14,7.299 -4.14,12.548 0,5.741 1.41,12.548 4.24,20.422 14.33,41.499 28.66,82.998 42.99,124.497 14.4,-43.057 28.79,-86.115 43.19,-129.172 3.09,-9.186 4.64,-16.157 4.64,-20.914 0,-2.296 -0.54,-4.183 -1.61,-5.659 -1.48,-2.46 -3.37,-4.141 -5.65,-5.044 -2.29,-0.902 -6.93,-1.353 -13.93,-1.353 0,-3.034 0,-6.069 0,-9.103 20.12,0 40.23,0 60.35,0 0,3.034 0,6.069 0,9.103 -7,0.656 -11.84,2.379 -14.54,5.167 -4.71,4.921 -8.94,13.122 -12.71,24.604 -21.87,64.464 -43.73,128.927 -65.59,193.39 -2.76,0 -5.52,0 -8.28,0 -22,-63.397 -44,-126.794 -66,-190.191 -2.96,-8.858 -5.78,-15.214 -8.47,-19.068 -2.69,-3.855 -6.12,-7.095 -10.3,-9.719 -2.28,-1.476 -6.79,-2.871 -13.52,-4.183 0,-3.034 0,-6.069 0,-9.103 z m 291.4,-6.644 c 16.41,0 29.87,3.363 40.36,10.088 7.94,5.085 13.79,13.04 17.56,23.866 2.42,7.054 3.63,21.488 3.63,43.304 0,25.506 0,51.013 0,76.519 0,21.488 0.34,34.651 1.01,39.49 0.68,4.839 1.79,8.078 3.33,9.719 1.55,1.64 3.33,2.46 5.35,2.46 2.15,0 4.04,-0.574 5.65,-1.722 2.12,-1.6 5.72,-5.367 10.79,-11.303 1.85,-2.219 3.71,-4.439 5.56,-6.658 0,4.593 0,9.186 0,13.778 -1.87,2.884 -3.75,5.767 -5.62,8.65 -13.04,18.838 -25.56,28.256 -37.57,28.256 -6.59,0 -11.84,-2.788 -15.74,-8.365 -3.91,-5.577 -5.92,-15.091 -6.06,-28.541 -18.97,17.879 -30.88,28.213 -35.72,31.001 -7.27,4.101 -15,6.151 -23.21,6.151 -12.78,0 -23.31,-5.331 -31.59,-15.992 -8.27,-10.662 -12.41,-24.687 -12.41,-42.074 0,-10.99 2.02,-20.503 6.06,-28.541 5.51,-11.154 15.1,-21.651 28.76,-31.493 13.65,-9.842 36.36,-21.816 68.11,-35.922 0,-2.953 0,-5.905 0,-8.858 0,-22.472 -2.92,-37.89 -8.78,-46.256 -5.85,-8.365 -14.36,-12.548 -25.53,-12.548 -8.47,0 -15.2,2.788 -20.18,8.365 -5.11,5.577 -7.67,11.975 -7.67,19.192 0.13,4.757 0.27,9.513 0.4,14.27 0,7.546 -1.58,13.369 -4.74,17.469 -3.16,4.101 -7.3,6.151 -12.41,6.151 -4.98,0 -9.05,-2.132 -12.21,-6.397 -3.16,-4.265 -4.74,-10.087 -4.74,-17.469 0,-14.106 5.92,-27.064 17.76,-38.875 11.84,-11.81 28.45,-17.715 49.85,-17.715 z m -399.42,0 c 27.99,0 50.46,12.959 67.41,38.875 14.4,22.144 21.6,47.568 21.6,76.273 0,20.176 -3.97,40.597 -11.91,61.265 -7.94,20.668 -18.87,36.25 -32.8,46.748 -13.92,10.498 -29.43,15.747 -46.52,15.747 -27.85,0 -49.98,-13.533 -66.4,-40.597 -13.86,-22.8 -20.78,-48.389 -20.78,-76.766 0,-20.667 4.2,-41.212 12.61,-61.633 8.41,-20.422 19.48,-35.512 33.2,-45.272 13.72,-9.76 28.26,-14.64 43.59,-14.64 z m -393.41,-0.246 c 20.72,0 37.74,8.325 51.06,24.974 13.32,16.649 19.98,38.915 19.98,66.8 -42.59,0 -85.17,0 -127.76,0 -0.13,33.462 6.53,59.707 19.99,78.734 13.45,19.027 29.26,28.541 47.42,28.541 12.11,0 22.64,-4.06 31.59,-12.179 8.95,-8.12 16.45,-22.021 22.5,-41.705 2.09,1.641 4.17,3.281 6.26,4.921 -2.83,22.472 -11.03,42.935 -24.62,61.388 -13.59,18.453 -30.61,27.68 -51.06,27.68 -22.21,0 -41.21,-10.539 -57.02,-31.617 -15.81,-21.077 -23.71,-49.413 -23.71,-85.007 0,-38.547 8.1,-68.605 24.32,-90.175 16.21,-21.57 36.56,-32.355 61.05,-32.355 z M 1864.06,153.739 c 39.09,0 78.18,0 117.26,0 0,3.034 0,6.069 0,9.103 -3.29,0 -6.59,0 -9.89,0 -11.16,0 -19.3,4.019 -24.42,12.056 -3.23,5.249 -4.84,17.88 -4.84,37.891 0,54.375 0,108.751 0,163.126 0,25.097 -2.25,45.436 -6.76,61.019 -4.51,15.583 -12.28,29.156 -23.31,40.72 -11.03,11.564 -24.36,17.346 -39.96,17.346 -12.65,0 -22.61,-3.814 -29.87,-11.441 -7.27,-7.627 -10.9,-16.362 -10.9,-26.204 0,-8.037 1.68,-14.106 5.04,-18.207 4.44,-5.085 9.62,-7.627 15.54,-7.627 4.31,0 8.18,1.722 11.61,5.167 3.43,3.444 7.77,12.63 13.02,27.557 3.09,8.857 7.06,13.286 11.9,13.286 3.64,0 7.03,-2.707 10.2,-8.12 3.16,-5.412 4.74,-15.008 4.74,-28.786 0,-75.946 0,-151.891 0,-227.836 0,-16.895 -0.87,-28.049 -2.62,-33.462 -1.35,-4.1 -4.18,-7.627 -8.48,-10.58 -5.79,-3.936 -11.91,-5.905 -18.37,-5.905 -3.29,0 -6.59,0 -9.89,0 0,-3.034 0,-6.069 0,-9.103 z m 1015.72,-8.366 c 15.07,0 30.14,0 45.21,0 -19.84,28.295 -39.69,56.59 -59.54,84.885 -2.28,0 -4.57,0 -6.86,0 7.07,-28.295 14.13,-56.59 21.19,-84.885 z M 2226.52,137.5 c 3.09,0 6.19,0 9.28,0 0,54.95 0,109.899 0,164.849 14.94,-20.012 26.78,-32.847 35.52,-38.506 8.75,-5.659 17.49,-8.489 26.24,-8.489 10.49,0 19.51,3.527 27.04,10.58 7.54,7.053 13.12,18.125 16.76,33.216 2.55,10.498 3.83,29.689 3.83,57.574 0,26.573 0,53.145 0,79.718 0,14.27 0.94,24.03 2.83,29.279 1.34,3.937 3.63,7.053 6.86,9.349 3.23,2.297 9.15,3.445 17.76,3.445 0,2.953 0,5.905 0,8.858 -30.28,0 -60.55,0 -90.82,0 0,-2.953 0,-5.905 0,-8.858 1.41,0 2.82,0 4.23,0 8.62,0 14.6,-1.599 17.97,-4.798 3.36,-3.198 5.72,-7.914 7.06,-14.147 0.4,-2.625 0.61,-10.334 0.61,-23.128 0,-26.573 0,-53.145 0,-79.718 0,-24.604 -1.05,-40.761 -3.13,-48.47 -2.09,-7.71 -5.42,-13.492 -9.99,-17.346 -4.58,-3.855 -10.09,-5.782 -16.55,-5.782 -6.59,0 -13.46,2.132 -20.59,6.397 -7.13,4.264 -15.67,12.876 -25.63,25.834 0,39.695 0,79.39 0,119.085 0,15.418 0.71,25.014 2.12,28.787 1.41,3.772 4.04,6.93 7.87,9.472 3.84,2.543 10.46,3.814 19.88,3.814 0,2.953 0,5.905 0,8.858 -30.54,0 -61.09,0 -91.63,0 0,-2.953 0,-5.905 0,-8.858 8.21,0 14.67,-1.558 19.38,-4.675 2.69,-1.64 4.84,-4.757 6.46,-9.349 1.61,-4.593 2.42,-13.943 2.42,-28.049 0,-67.99 0,-135.98 0,-203.97 0,-25.752 -0.51,-41.581 -1.52,-47.486 -1.01,-5.905 -2.55,-9.924 -4.64,-12.056 -2.08,-2.132 -4.88,-3.198 -8.37,-3.198 -2.83,0 -7.4,1.312 -13.73,3.936 -0.94,-2.87 -1.88,-5.741 -2.82,-8.611 18.43,-9.186 36.86,-18.371 55.3,-27.557 z"
       fill="#ffff00"
       fill-rule="evenodd"
       id="path2508" />
    <text
       fill="#000000"
       fill-opacity="0"
       font-family="Arial, Arial_MSFontService, sans-serif"
       font-size="357.5px"
       x="1831.37"
       y="450.31201"
       id="text2510">Jehová</text>
    <text
       fill="#ffff00"
       font-family="'Times New Roman', 'Times New Roman_MSFontService', sans-serif"
       font-weight="400"
       font-size="202px"
       transform="translate(170.5,899)"
       id="text2554">Enfocado<tspan
   font-size="202px"
   x="822.70801"
   y="0"
   id="tspan2512">en Cristo</tspan><tspan
   font-size="202px"
   x="1556.61"
   y="0"
   id="tspan2514">–</tspan><tspan
   font-style="italic"
   font-size="202px"
   x="1707.86"
   y="0"
   id="tspan2516">Heb. 12:1</tspan><tspan
   font-style="italic"
   font-size="202px"
   x="2513.96"
   y="0"
   id="tspan2518">-</tspan><tspan
   font-style="italic"
   font-size="202px"
   x="2580.99"
   y="0"
   id="tspan2520">3</tspan><tspan
   font-size="202px"
   x="0"
   y="374"
   id="tspan2522">Estabilidad</tspan><tspan
   font-size="202px"
   x="957.91699"
   y="374"
   id="tspan2524">Emocional</tspan><tspan
   font-size="202px"
   x="1831.61"
   y="374"
   id="tspan2526">–</tspan><tspan
   font-style="italic"
   font-size="202px"
   x="1982.86"
   y="374"
   id="tspan2528">Sant</tspan><tspan
   font-style="italic"
   font-size="202px"
   x="2341.51"
   y="374"
   id="tspan2530">. 1:12</tspan><tspan
   font-size="202px"
   x="0"
   y="748"
   id="tspan2532">Orientacion</tspan><tspan
   font-size="202px"
   x="1002.03"
   y="748"
   id="tspan2534">autoridad</tspan>–<tspan
   font-style="italic"
   font-size="202px"
   x="1914.6899"
   y="748"
   id="tspan2536">Sant</tspan><tspan
   font-style="italic"
   font-size="202px"
   x="2273.3301"
   y="748"
   id="tspan2538">. 4:10</tspan><tspan
   font-size="202px"
   x="0"
   y="1122"
   id="tspan2540">Listo</tspan><tspan
   font-size="202px"
   x="465.20801"
   y="1122"
   id="tspan2542">para</tspan><tspan
   font-size="202px"
   x="862.23999"
   y="1122"
   id="tspan2544">servir</tspan><tspan
   font-size="202px"
   x="1371.5601"
   y="1122"
   id="tspan2546">–</tspan><tspan
   font-style="italic"
   font-size="202px"
   x="1522.8101"
   y="1122"
   id="tspan2548">Rom</tspan><tspan
   font-style="italic"
   font-size="202px"
   x="1892.34"
   y="1122"
   id="tspan2550">.</tspan><tspan
   font-style="italic"
   font-size="202px"
   x="1993.1801"
   y="1122"
   id="tspan2552">12:1</tspan></text>
  </g>
</svg>
