<?xml version="1.0" encoding="UTF-8" standalone="no"?>
<svg
   width="1216.5187"
   height="754.62305"
   overflow="hidden"
   version="1.1"
   id="svg2765"
   sodipodi:docname="temor.svg"
   viewBox="0 0 3041.2967 1886.5576"
   inkscape:version="1.2.2 (b0a84865, 2022-12-01)"
   xmlns:inkscape="http://www.inkscape.org/namespaces/inkscape"
   xmlns:sodipodi="http://sodipodi.sourceforge.net/DTD/sodipodi-0.dtd"
   xmlns="http://www.w3.org/2000/svg"
   xmlns:svg="http://www.w3.org/2000/svg">
  <sodipodi:namedview
     id="namedview2767"
     pagecolor="#ffffff"
     bordercolor="#000000"
     borderopacity="0.25"
     inkscape:showpageshadow="2"
     inkscape:pageopacity="0.0"
     inkscape:pagecheckerboard="0"
     inkscape:deskcolor="#d1d1d1"
     showgrid="false"
     inkscape:zoom="0.11500975"
     inkscape:cx="1717.2458"
     inkscape:cy="1130.339"
     inkscape:window-width="1463"
     inkscape:window-height="830"
     inkscape:window-x="0"
     inkscape:window-y="38"
     inkscape:window-maximized="0"
     inkscape:current-layer="svg2765" />
  <defs
     id="defs2701">
    <filter
       id="fx0"
       x="-336.60001"
       y="-205.2"
       width="4039.2002"
       height="2462.4001"
       filterUnits="userSpaceOnUse"
       primitiveUnits="userSpaceOnUse">
      <feComponentTransfer
         color-interpolation-filters="sRGB"
         id="feComponentTransfer2687">
        <feFuncR
           type="discrete"
           tableValues="0.752941 0.752941"
           id="feFuncR2679" />
        <feFuncG
           type="discrete"
           tableValues="0.752941 0.752941"
           id="feFuncG2681" />
        <feFuncB
           type="discrete"
           tableValues="0.752941 0.752941"
           id="feFuncB2683" />
        <feFuncA
           type="linear"
           slope="0.8"
           intercept="0"
           id="feFuncA2685" />
      </feComponentTransfer>
      <feGaussianBlur
         stdDeviation="0 0"
         id="feGaussianBlur2689" />
    </filter>
    <clipPath
       id="clip1">
      <rect
         x="49"
         y="137"
         width="3366"
         height="2052"
         id="rect2692" />
    </clipPath>
    <clipPath
       id="clip2">
      <rect
         x="0"
         y="0"
         width="593"
         height="105"
         id="rect2695" />
    </clipPath>
    <clipPath
       id="clip3">
      <rect
         x="0"
         y="0"
         width="2037"
         height="359"
         id="rect2698" />
    </clipPath>
  </defs>
  <g
     clip-path="url(#clip1)"
     transform="translate(-172.07812,-137.5)"
     id="g2763">
    <g
       clip-path="url(#clip2)"
       filter="url(#fx0)"
       transform="translate(668,146)"
       id="g2707">
      <g
         clip-path="url(#clip3)"
         id="g2705">
        <path
           d="m 575.652,125.43 c -21.396,0 -40.537,5.554 -57.422,16.661 -16.885,11.107 -26.746,26.563 -29.581,46.366 54.651,0 109.302,0 163.953,0 -1.289,-15.154 -3.996,-25.83 -8.121,-32.03 -6.444,-9.643 -16.047,-17.221 -28.807,-22.731 -12.761,-5.511 -26.101,-8.266 -40.022,-8.266 z m 984.198,-1.292 c -13.66,0 -27.39,2.713 -41.18,8.137 -13.79,5.425 -24.94,14.939 -33.45,28.543 -8.5,13.605 -12.76,31.084 -12.76,52.437 0,34.441 10.25,64.147 30.74,89.117 20.5,24.97 47.5,37.455 81.01,37.455 25.01,0 45.63,-6.889 61.87,-20.665 16.24,-13.777 24.36,-37.455 24.36,-71.035 0,-42.018 -13.53,-75.082 -40.6,-99.191 -18.3,-16.532 -41.63,-24.798 -69.99,-24.798 z m 319.71,-16.79 c 5.41,0 10.83,0 16.24,0 0,17.738 0,35.475 0,53.212 29.65,-35.474 60.07,-53.212 91.26,-53.212 14.18,0 25.91,2.885 35.19,8.654 9.28,5.769 13.92,12.442 13.92,20.019 0,6.716 -3.35,12.399 -10.06,17.048 -6.7,4.65 -14.69,6.974 -23.97,6.974 -9.02,0 -19.14,-2.97 -30.36,-8.911 -11.21,-5.941 -19.52,-8.912 -24.94,-8.912 -4.64,0 -9.66,1.722 -15.08,5.166 -11.6,7.061 -23.59,18.685 -35.96,34.872 0,37.799 0,75.599 0,113.398 0,13.087 2.45,22.989 7.35,29.705 3.35,4.65 9.28,8.525 17.79,11.624 8.5,3.1 20.75,4.65 36.73,4.65 0,3.1 0,6.199 0,9.299 -60.45,0 -120.9,0 -181.35,0 0,-3.1 0,-6.199 0,-9.299 18.04,0 31.45,-1.894 40.21,-5.683 6.45,-2.755 10.96,-7.147 13.53,-13.174 1.29,-2.927 1.94,-11.279 1.94,-25.056 0,-30.566 0,-61.133 0,-91.7 0,-27.552 -0.84,-43.955 -2.52,-49.207 -1.67,-5.253 -4.76,-9.084 -9.28,-11.495 -4.51,-2.411 -10.11,-3.617 -16.82,-3.617 -7.99,0 -17.01,1.292 -27.06,3.875 -1.29,-3.1 -2.58,-6.199 -3.87,-9.299 35.7,-9.644 71.41,-19.287 107.11,-28.931 z m -307.72,0 c 53.62,0 96.67,13.605 129.15,40.813 27.59,23.248 41.38,49.94 41.38,80.076 0,21.181 -7.61,42.621 -22.82,64.319 -15.21,21.698 -36.15,38.058 -62.83,49.079 -26.68,11.021 -56.39,16.532 -89.13,16.532 -53.36,0 -95.77,-14.207 -127.22,-42.621 -26.55,-23.937 -39.83,-50.801 -39.83,-80.593 0,-21.698 8.06,-43.267 24.17,-64.706 16.11,-21.44 37.31,-37.283 63.61,-47.529 26.29,-10.247 54.13,-15.37 83.52,-15.37 z m -699.024,0 c 5.542,0 11.085,0 16.627,0 0,16.79 0,33.581 0,50.371 25.779,-17.221 40.989,-27.123 45.629,-29.706 11.6,-6.544 24.103,-11.624 37.508,-15.24 13.405,-3.616 26.681,-5.425 39.83,-5.425 22.17,0 41.24,4.306 57.23,12.916 15.98,8.61 26.68,21.095 32.09,37.455 26.55,-20.665 48.98,-34.226 67.28,-40.684 18.31,-6.458 37.13,-9.687 56.46,-9.687 18.82,0 35.51,3.229 50.08,9.687 14.56,6.458 26.1,17.005 34.6,31.643 5.67,9.988 8.51,25.659 8.51,47.012 0,33.925 0,67.849 0,101.774 0,14.81 1.68,24.97 5.03,30.48 2.57,3.789 7.34,7.018 14.3,9.687 6.96,2.669 18.31,4.004 34.03,4.004 0,3.1 0,6.199 0,9.299 -58.26,0 -116.52,0 -174.78,0 0,-3.1 0,-6.199 0,-9.299 2.45,0 4.9,0 7.35,0 15.21,0 27.07,-1.981 35.57,-5.941 5.93,-2.756 10.19,-7.147 12.76,-13.174 1.04,-2.928 1.55,-11.28 1.55,-25.056 0,-33.925 0,-67.849 0,-101.774 0,-19.287 -3.48,-32.891 -10.44,-40.813 -10.05,-11.021 -26.17,-16.532 -48.33,-16.532 -13.67,0 -27.39,2.282 -41.19,6.846 -13.79,4.563 -30.48,13.044 -50.07,25.443 -0.26,0.947 -0.52,1.894 -0.78,2.842 0.26,3.702 0.52,7.404 0.78,11.107 0,37.627 0,75.254 0,112.881 0,16.187 1.35,26.261 4.06,30.222 2.71,3.961 7.8,7.276 15.27,9.945 7.48,2.669 20.24,4.004 38.28,4.004 0,3.1 0,6.199 0,9.299 -59.67,0 -119.35,0 -179.03,0 0,-3.1 0,-6.199 0,-9.299 19.59,0 33.06,-1.55 40.41,-4.65 7.35,-3.099 12.44,-7.749 15.27,-13.948 1.29,-2.928 1.94,-11.452 1.94,-25.573 0,-33.925 0,-67.849 0,-101.774 0,-19.287 -4.26,-33.15 -12.76,-41.588 -11.35,-11.021 -27.2,-16.531 -47.566,-16.531 -13.921,0 -27.713,2.497 -41.375,7.49 -21.397,7.578 -37.895,16.102 -49.496,25.573 0,42.277 0,84.553 0,126.83 0,15.498 1.612,25.573 4.834,30.222 3.222,4.65 7.991,8.137 14.307,10.462 6.316,2.324 19.141,3.487 38.475,3.487 0,3.1 0,6.199 0,9.299 -58.389,0 -116.778,0 -175.167,0 0,-3.1 0,-6.199 0,-9.299 16.241,0 27.583,-1.163 34.028,-3.487 6.445,-2.325 11.343,-6.028 14.694,-11.108 3.351,-5.08 5.027,-14.939 5.027,-29.576 0,-30.136 0,-60.272 0,-90.408 0,-26.003 -1.16,-42.794 -3.48,-50.371 -1.805,-5.682 -4.64,-9.6 -8.507,-11.753 -3.867,-2.152 -9.152,-3.229 -15.854,-3.229 -7.218,0 -15.854,1.292 -25.908,3.875 -1.933,-3.1 -3.867,-6.199 -5.8,-9.299 35.575,-9.644 71.149,-19.287 106.724,-28.931 z m -275.51,-0.258 c 39.7,0 72.31,8.74 97.831,26.218 25.521,17.479 38.281,40.856 38.281,70.131 -81.59,0 -163.18,0 -244.769,0 -0.258,35.13 12.502,62.683 38.281,82.659 25.779,19.976 56.069,29.964 90.87,29.964 23.201,0 43.373,-4.262 60.516,-12.786 17.143,-8.524 31.515,-23.119 43.115,-43.784 3.996,1.723 7.992,3.445 11.987,5.167 -5.413,23.592 -21.138,45.075 -47.175,64.448 -26.037,19.373 -58.647,29.06 -97.831,29.06 -42.534,0 -78.947,-11.065 -109.237,-33.193 -30.29,-22.129 -45.435,-51.877 -45.435,-89.246 0,-40.468 15.531,-72.025 46.595,-94.67 31.063,-22.645 70.054,-33.968 116.971,-33.968 z M 7.35361,0.666649 c 142.68539,0 285.37139,0 428.05739,0 1.933,27.380751 3.866,54.761551 5.8,82.142351 -4.898,0 -9.796,0 -14.694,0 -2.836,-14.4653 -6.703,-24.7977 -11.6,-30.9971 -7.992,-9.988 -18.626,-17.3498 -31.902,-22.0855 -13.276,-4.7356 -30.741,-7.1035 -52.395,-7.1035 -24.619,0 -49.238,0 -73.856,0 0,89.2031 0,178.4061 0,267.6081 0,21.526 3.48,34.958 10.44,40.297 9.796,7.232 24.876,10.848 45.242,10.848 6.058,0 12.116,0 18.174,0 0,3.186 0,6.372 0,9.558 -74.114,0 -148.228,0 -222.342,0 0,-3.186 0,-6.372 0,-9.558 6.187,0 12.373,0 18.56,0 22.17,0 37.895,-4.477 47.176,-13.432 5.671,-5.51 8.507,-18.081 8.507,-37.713 0,-89.202 0,-178.405 0,-267.6081 -21.01,0 -42.02,0 -63.03,0 -24.4895,0 -41.8902,1.2055 -52.2017,3.6164 -13.405,3.2719 -24.8765,9.5574 -34.4147,18.8565 -9.5381,9.2992 -15.2095,21.8702 -17.014,37.7132 -4.898,0 -9.79593,0 -14.6939,0 C 3.229,55.4282 5.2913,28.0474 7.35361,0.666649 Z"
           fill="#ffff00"
           fill-rule="evenodd"
           id="path2703" />
      </g>
    </g>
    <path
       d="m 1234.49,262.263 c -21.4,0 -40.54,5.554 -57.43,16.661 -16.88,11.108 -26.74,26.563 -29.58,46.367 54.65,0 109.3,0 163.96,0 -1.29,-15.154 -4,-25.831 -8.13,-32.031 -6.44,-9.643 -16.04,-17.22 -28.8,-22.731 -12.76,-5.51 -26.1,-8.266 -40.02,-8.266 z m 984.2,-1.291 c -13.67,0 -27.39,2.712 -41.18,8.137 -13.8,5.424 -24.95,14.938 -33.45,28.543 -8.51,13.604 -12.76,31.083 -12.76,52.436 0,34.442 10.24,64.147 30.74,89.117 20.49,24.97 47.5,37.455 81.01,37.455 25,0 45.63,-6.888 61.87,-20.665 16.24,-13.776 24.36,-37.455 24.36,-71.035 0,-42.018 -13.54,-75.082 -40.6,-99.191 -18.31,-16.531 -41.64,-24.797 -69.99,-24.797 z m 319.7,-16.79 c 5.42,0 10.83,0 16.24,0 0,17.737 0,35.474 0,53.211 29.65,-35.474 60.07,-53.211 91.26,-53.211 14.18,0 25.91,2.884 35.19,8.653 9.28,5.769 13.92,12.442 13.92,20.019 0,6.716 -3.35,12.399 -10.05,17.048 -6.71,4.65 -14.7,6.975 -23.98,6.975 -9.02,0 -19.14,-2.971 -30.35,-8.912 -11.22,-5.941 -19.53,-8.912 -24.94,-8.912 -4.64,0 -9.67,1.723 -15.08,5.167 -11.6,7.06 -23.59,18.684 -35.97,34.871 0,37.8 0,75.599 0,113.398 0,13.088 2.45,22.99 7.35,29.706 3.35,4.649 9.28,8.524 17.79,11.624 8.51,3.099 20.75,4.649 36.73,4.649 0,3.1 0,6.2 0,9.299 -60.45,0 -120.9,0 -181.35,0 0,-3.099 0,-6.199 0,-9.299 18.04,0 31.45,-1.894 40.21,-5.683 6.45,-2.755 10.96,-7.146 13.54,-13.173 1.29,-2.928 1.93,-11.28 1.93,-25.056 0,-30.567 0,-61.134 0,-91.7 0,-27.553 -0.84,-43.956 -2.51,-49.208 -1.68,-5.252 -4.77,-9.084 -9.28,-11.495 -4.51,-2.411 -10.12,-3.616 -16.82,-3.616 -7.99,0 -17.02,1.291 -27.07,3.874 -1.29,-3.099 -2.58,-6.199 -3.87,-9.299 35.71,-9.643 71.41,-19.287 107.11,-28.93 z m -307.72,0 c 53.62,0 96.67,13.604 129.16,40.813 27.58,23.247 41.37,49.939 41.37,80.075 0,21.182 -7.6,42.621 -22.81,64.319 -15.21,21.698 -36.16,38.058 -62.84,49.079 -26.68,11.021 -56.39,16.532 -89.13,16.532 -53.36,0 -95.77,-14.207 -127.22,-42.621 -26.55,-23.937 -39.83,-50.801 -39.83,-80.593 0,-21.698 8.06,-43.266 24.17,-64.706 16.11,-21.44 37.32,-37.283 63.61,-47.529 26.3,-10.246 54.14,-15.369 83.52,-15.369 z m -699.02,0 c 5.54,0 11.08,0 16.63,0 0,16.79 0,33.58 0,50.37 25.78,-17.221 40.98,-27.122 45.63,-29.706 11.6,-6.543 24.1,-11.623 37.5,-15.24 13.41,-3.616 26.68,-5.424 39.83,-5.424 22.17,0 41.25,4.305 57.23,12.915 15.98,8.61 26.68,21.095 32.09,37.455 26.56,-20.665 48.98,-34.226 67.29,-40.684 18.3,-6.457 37.12,-9.686 56.45,-9.686 18.82,0 35.51,3.229 50.08,9.686 14.56,6.458 26.1,17.006 34.61,31.643 5.67,9.988 8.5,25.659 8.5,47.012 0,33.925 0,67.85 0,101.774 0,14.81 1.68,24.97 5.03,30.481 2.58,3.788 7.35,7.017 14.31,9.686 6.96,2.67 18.3,4.004 34.03,4.004 0,3.1 0,6.2 0,9.299 -58.26,0 -116.52,0 -174.78,0 0,-3.099 0,-6.199 0,-9.299 2.44,0 4.89,0 7.34,0 15.21,0 27.07,-1.98 35.58,-5.941 5.93,-2.755 10.18,-7.147 12.76,-13.174 1.03,-2.927 1.54,-11.279 1.54,-25.056 0,-33.924 0,-67.849 0,-101.774 0,-19.287 -3.48,-32.891 -10.44,-40.812 -10.05,-11.022 -26.16,-16.532 -48.33,-16.532 -13.66,0 -27.39,2.282 -41.18,6.845 -13.79,4.563 -30.49,13.045 -50.08,25.443 -0.26,0.948 -0.51,1.895 -0.77,2.842 0.26,3.702 0.51,7.405 0.77,11.107 0,37.627 0,75.254 0,112.881 0,16.188 1.35,26.262 4.06,30.222 2.71,3.961 7.8,7.276 15.28,9.945 7.47,2.67 20.23,4.004 38.28,4.004 0,3.1 0,6.2 0,9.299 -59.68,0 -119.36,0 -179.04,0 0,-3.099 0,-6.199 0,-9.299 19.6,0 33.07,-1.55 40.41,-4.649 7.35,-3.1 12.44,-7.75 15.28,-13.949 1.28,-2.928 1.93,-11.452 1.93,-25.573 0,-33.924 0,-67.849 0,-101.774 0,-19.287 -4.25,-33.149 -12.76,-41.587 -11.34,-11.022 -27.2,-16.532 -47.56,-16.532 -13.92,0 -27.72,2.497 -41.38,7.491 -21.39,7.577 -37.89,16.101 -49.49,25.572 0,42.277 0,84.554 0,126.83 0,15.499 1.61,25.573 4.83,30.222 3.22,4.65 7.99,8.137 14.31,10.462 6.31,2.325 19.14,3.487 38.47,3.487 0,3.1 0,6.2 0,9.299 -58.39,0 -116.78,0 -175.16,0 0,-3.099 0,-6.199 0,-9.299 16.24,0 27.58,-1.162 34.02,-3.487 6.45,-2.325 11.35,-6.027 14.7,-11.107 3.35,-5.08 5.02,-14.939 5.02,-29.577 0,-30.136 0,-60.272 0,-90.408 0,-26.003 -1.16,-42.793 -3.48,-50.37 -1.8,-5.683 -4.64,-9.601 -8.5,-11.753 -3.87,-2.153 -9.15,-3.229 -15.86,-3.229 -7.22,0 -15.85,1.291 -25.9,3.874 -1.94,-3.099 -3.87,-6.199 -5.8,-9.299 35.57,-9.643 71.14,-19.287 106.72,-28.93 z m -275.51,-0.259 c 39.7,0 72.31,8.74 97.83,26.219 25.52,17.479 38.28,40.856 38.28,70.131 -81.59,0 -163.18,0 -244.77,0 -0.26,35.13 12.5,62.683 38.28,82.659 25.78,19.976 56.07,29.964 90.87,29.964 23.2,0 43.38,-4.263 60.52,-12.787 17.14,-8.524 31.51,-23.118 43.11,-43.783 4,1.722 8,3.444 11.99,5.166 -5.41,23.592 -21.14,45.075 -47.17,64.448 -26.04,19.373 -58.65,29.06 -97.83,29.06 -42.54,0 -78.95,-11.064 -109.24,-33.193 -30.29,-22.128 -45.44,-51.877 -45.44,-89.246 0,-40.468 15.53,-72.025 46.6,-94.67 31.06,-22.645 70.05,-33.968 116.97,-33.968 z M 666.187,137.5 c 142.686,0 285.371,0 428.053,0 1.94,27.381 3.87,54.762 5.8,82.142 -4.89,0 -9.79,0 -14.69,0 -2.84,-14.465 -6.7,-24.797 -11.6,-30.997 -7.99,-9.988 -18.63,-17.35 -31.9,-22.085 -13.28,-4.736 -30.74,-7.104 -52.397,-7.104 -24.619,0 -49.237,0 -73.856,0 0,89.203 0,178.406 0,267.609 0,21.525 3.48,34.957 10.44,40.296 9.796,7.233 24.877,10.849 45.242,10.849 6.058,0 12.116,0 18.174,0 0,3.186 0,6.371 0,9.557 -74.114,0 -148.228,0 -222.342,0 0,-3.186 0,-6.371 0,-9.557 6.187,0 12.374,0 18.561,0 22.169,0 37.895,-4.478 47.175,-13.432 5.671,-5.511 8.507,-18.082 8.507,-37.713 0,-89.203 0,-178.406 0,-267.609 -21.01,0 -42.02,0 -63.029,0 -24.49,0 -41.891,1.206 -52.202,3.617 -13.405,3.272 -24.877,9.557 -34.415,18.856 -9.538,9.299 -15.21,21.87 -17.014,37.713 -4.898,0 -9.796,0 -14.694,0 2.062,-27.38 4.125,-54.761 6.187,-82.142 z"
       fill="#ffff00"
       fill-rule="evenodd"
       id="path2709" />
    <text
       fill="#000000"
       fill-opacity="0"
       font-family="Arial, Arial_MSFontService, sans-serif"
       font-size="357.5px"
       x="660"
       y="450.31201"
       id="text2711">Temor</text>
    <text
       fill="#ffff00"
       font-family="'Times New Roman', 'Times New Roman_MSFontService', sans-serif"
       font-weight="400"
       font-size="202px"
       transform="translate(170.5,899)"
       id="text2761">Fracaso<tspan
   font-size="202px"
   x="677.18799"
   y="0"
   id="tspan2713">de</tspan><tspan
   font-size="202px"
   x="917.81299"
   y="0"
   id="tspan2715">confiar</tspan><tspan
   font-size="202px"
   x="1538.85"
   y="0"
   id="tspan2717">en Dios</tspan>–<tspan
   font-style="italic"
   font-size="165px"
   x="2311.72"
   y="0"
   id="tspan2719">Sal.</tspan><tspan
   font-style="italic"
   font-size="165px"
   x="2605.05"
   y="0"
   id="tspan2721">56:3</tspan><tspan
   font-style="italic"
   font-size="165px"
   x="2907.55"
   y="0"
   id="tspan2723">-</tspan><tspan
   font-style="italic"
   font-size="165px"
   x="2962.55"
   y="0"
   id="tspan2725">4</tspan><tspan
   font-size="202px"
   x="0"
   y="374"
   id="tspan2727">Inestabilidad</tspan><tspan
   font-size="202px"
   x="1091.98"
   y="374"
   id="tspan2729">Emocional</tspan><tspan
   font-size="202px"
   x="1965.6801"
   y="374"
   id="tspan2731">–</tspan><tspan
   font-style="italic"
   font-size="202px"
   x="2116.9299"
   y="374"
   id="tspan2733">Sant</tspan><tspan
   font-style="italic"
   font-size="202px"
   x="2475.5701"
   y="374"
   id="tspan2735">. 1:8</tspan><tspan
   font-size="202px"
   x="0"
   y="748"
   id="tspan2737">Actitúd</tspan><tspan
   font-size="202px"
   x="644.27899"
   y="748"
   id="tspan2739">Arrogante</tspan><tspan
   font-size="202px"
   x="1461.26"
   y="748"
   id="tspan2741">–</tspan><tspan
   font-style="italic"
   font-size="202px"
   x="1612.51"
   y="748"
   id="tspan2743">Sant</tspan><tspan
   font-style="italic"
   font-size="202px"
   x="1971.15"
   y="748"
   id="tspan2745">.</tspan><tspan
   font-style="italic"
   font-size="202px"
   x="2071.99"
   y="748"
   id="tspan2747">4:6</tspan><tspan
   font-size="202px"
   x="0"
   y="1122"
   id="tspan2749">Rechazo</tspan><tspan
   font-size="202px"
   x="744.21899"
   y="1122"
   id="tspan2751">de VD</tspan>–<tspan
   font-style="italic"
   font-size="202px"
   x="1423.49"
   y="1122"
   id="tspan2753">Romanos</tspan><tspan
   font-style="italic"
   font-size="202px"
   x="2224.4299"
   y="1122"
   id="tspan2755">12:2</tspan><tspan
   font-style="italic"
   font-size="202px"
   x="2593.96"
   y="1122"
   id="tspan2757">-</tspan><tspan
   font-style="italic"
   font-size="202px"
   x="2660.99"
   y="1122"
   id="tspan2759">3</tspan></text>
  </g>
</svg>
