<?xml version="1.0" encoding="UTF-8" standalone="no"?>
<!-- Created with Inkscape (http://www.inkscape.org/) -->

<svg
   width="1343.9664"
   height="1007.9747"
   version="1.1"
   viewBox="0 0 959.97602 719.98191"
   id="svg3450"
   sodipodi:docname="pacto-israel.svg"
   inkscape:version="1.2.2 (732a01da63, 2022-12-09)"
   xmlns:inkscape="http://www.inkscape.org/namespaces/inkscape"
   xmlns:sodipodi="http://sodipodi.sourceforge.net/DTD/sodipodi-0.dtd"
   xmlns="http://www.w3.org/2000/svg"
   xmlns:svg="http://www.w3.org/2000/svg">
  <sodipodi:namedview
     id="namedview3452"
     pagecolor="#505050"
     bordercolor="#eeeeee"
     borderopacity="1"
     inkscape:showpageshadow="0"
     inkscape:pageopacity="0"
     inkscape:pagecheckerboard="0"
     inkscape:deskcolor="#505050"
     showgrid="false"
     inkscape:zoom="0.7994235"
     inkscape:cx="477.21889"
     inkscape:cy="492.22971"
     inkscape:window-width="1920"
     inkscape:window-height="1001"
     inkscape:window-x="-9"
     inkscape:window-y="-9"
     inkscape:window-maximized="1"
     inkscape:current-layer="g3448" />
  <defs
     id="defs2988">
    <clipPath
       id="clipPath3785">
      <path
         d="M 0,1.2207e-4 H 720 V 540.00012 H 0 Z"
         clip-rule="evenodd"
         id="path2844" />
    </clipPath>
    <clipPath
       id="clipPath3795">
      <path
         d="M 1.0729e-5,0 H 720.00001 V 540 H 1.0729e-5 Z"
         clip-rule="evenodd"
         id="path2847" />
    </clipPath>
    <clipPath
       id="clipPath3807">
      <path
         d="M 1.0729e-5,0 H 720.00001 V 540 H 1.0729e-5 Z"
         clip-rule="evenodd"
         id="path2850" />
    </clipPath>
    <clipPath
       id="clipPath3843">
      <path
         d="M 423.12,144 H 534 V 438.72 H 423.12 Z"
         clip-rule="evenodd"
         id="path2853" />
    </clipPath>
    <clipPath
       id="clipPath3853">
      <path
         d="M 0,0 H 299.47 V 507.08 H 0 Z"
         id="path2856" />
    </clipPath>
    <clipPath
       id="clipPath3891">
      <path
         d="M 1.0729e-5,0 H 720.00001 V 540 H 1.0729e-5 Z"
         clip-rule="evenodd"
         id="path2859" />
    </clipPath>
    <clipPath
       id="clipPath3903">
      <path
         d="M 1.0729e-5,0 H 720.00001 V 540 H 1.0729e-5 Z"
         clip-rule="evenodd"
         id="path2862" />
    </clipPath>
    <clipPath
       id="clipPath3915">
      <path
         d="M 1.0729e-5,0 H 720.00001 V 540 H 1.0729e-5 Z"
         clip-rule="evenodd"
         id="path2865" />
    </clipPath>
    <clipPath
       id="clipPath3927">
      <path
         d="M 1.0729e-5,0 H 720.00001 V 540 H 1.0729e-5 Z"
         clip-rule="evenodd"
         id="path2868" />
    </clipPath>
    <clipPath
       id="clipPath3939">
      <path
         d="M 1.0729e-5,0 H 720.00001 V 540 H 1.0729e-5 Z"
         clip-rule="evenodd"
         id="path2871" />
    </clipPath>
    <clipPath
       id="clipPath3951">
      <path
         d="M 1.0729e-5,0 H 720.00001 V 540 H 1.0729e-5 Z"
         clip-rule="evenodd"
         id="path2874" />
    </clipPath>
    <clipPath
       id="clipPath3963">
      <path
         d="M 1.0729e-5,0 H 720.00001 V 540 H 1.0729e-5 Z"
         clip-rule="evenodd"
         id="path2877" />
    </clipPath>
    <clipPath
       id="clipPath3975">
      <path
         d="M 1.0729e-5,0 H 720.00001 V 540 H 1.0729e-5 Z"
         clip-rule="evenodd"
         id="path2880" />
    </clipPath>
    <clipPath
       id="clipPath3987">
      <path
         d="M 1.0729e-5,0 H 720.00001 V 540 H 1.0729e-5 Z"
         clip-rule="evenodd"
         id="path2883" />
    </clipPath>
    <clipPath
       id="clipPath3999">
      <path
         d="M 1.0729e-5,0 H 720.00001 V 540 H 1.0729e-5 Z"
         clip-rule="evenodd"
         id="path2886" />
    </clipPath>
    <clipPath
       id="clipPath4011">
      <path
         d="M 1.0729e-5,0 H 720.00001 V 540 H 1.0729e-5 Z"
         clip-rule="evenodd"
         id="path2889" />
    </clipPath>
    <clipPath
       id="clipPath4023">
      <path
         d="M 1.0729e-5,0 H 720.00001 V 540 H 1.0729e-5 Z"
         clip-rule="evenodd"
         id="path2892" />
    </clipPath>
    <clipPath
       id="clipPath4037">
      <path
         d="M 1.0729e-5,0 H 720.00001 V 540 H 1.0729e-5 Z"
         clip-rule="evenodd"
         id="path2895" />
    </clipPath>
    <clipPath
       id="clipPath4049">
      <path
         d="M 1.0729e-5,0 H 720.00001 V 540 H 1.0729e-5 Z"
         clip-rule="evenodd"
         id="path2898" />
    </clipPath>
    <clipPath
       id="clipPath4067">
      <path
         d="M 1.0729e-5,0 H 720.00001 V 540 H 1.0729e-5 Z"
         clip-rule="evenodd"
         id="path2901" />
    </clipPath>
    <clipPath
       id="clipPath4079">
      <path
         d="M 1.0729e-5,0 H 720.00001 V 540 H 1.0729e-5 Z"
         clip-rule="evenodd"
         id="path2904" />
    </clipPath>
    <clipPath
       id="clipPath4091">
      <path
         d="M 1.0729e-5,0 H 720.00001 V 540 H 1.0729e-5 Z"
         clip-rule="evenodd"
         id="path2907" />
    </clipPath>
    <clipPath
       id="clipPath4103">
      <path
         d="M 1.0729e-5,0 H 720.00001 V 540 H 1.0729e-5 Z"
         clip-rule="evenodd"
         id="path2910" />
    </clipPath>
    <clipPath
       id="clipPath4119">
      <path
         d="M 1.0729e-5,0 H 720.00001 V 540 H 1.0729e-5 Z"
         clip-rule="evenodd"
         id="path2913" />
    </clipPath>
    <clipPath
       id="clipPath4131">
      <path
         d="M 1.0729e-5,0 H 720.00001 V 540 H 1.0729e-5 Z"
         clip-rule="evenodd"
         id="path2916" />
    </clipPath>
    <clipPath
       id="clipPath4143">
      <path
         d="M 1.0729e-5,0 H 720.00001 V 540 H 1.0729e-5 Z"
         clip-rule="evenodd"
         id="path2919" />
    </clipPath>
    <clipPath
       id="clipPath4155">
      <path
         d="M 1.0729e-5,0 H 720.00001 V 540 H 1.0729e-5 Z"
         clip-rule="evenodd"
         id="path2922" />
    </clipPath>
    <clipPath
       id="clipPath4171">
      <path
         d="M 1.0729e-5,0 H 720.00001 V 540 H 1.0729e-5 Z"
         clip-rule="evenodd"
         id="path2925" />
    </clipPath>
    <clipPath
       id="clipPath4183">
      <path
         d="M 1.0729e-5,0 H 720.00001 V 540 H 1.0729e-5 Z"
         clip-rule="evenodd"
         id="path2928" />
    </clipPath>
    <clipPath
       id="clipPath4195">
      <path
         d="M 1.0729e-5,0 H 720.00001 V 540 H 1.0729e-5 Z"
         clip-rule="evenodd"
         id="path2931" />
    </clipPath>
    <clipPath
       id="clipPath4211">
      <path
         d="M 1.0729e-5,0 H 720.00001 V 540 H 1.0729e-5 Z"
         clip-rule="evenodd"
         id="path2934" />
    </clipPath>
    <clipPath
       id="clipPath4223">
      <path
         d="M 1.0729e-5,0 H 720.00001 V 540 H 1.0729e-5 Z"
         clip-rule="evenodd"
         id="path2937" />
    </clipPath>
    <clipPath
       id="clipPath4235">
      <path
         d="M 1.0729e-5,0 H 720.00001 V 540 H 1.0729e-5 Z"
         clip-rule="evenodd"
         id="path2940" />
    </clipPath>
    <clipPath
       id="clipPath4247">
      <path
         d="M 1.0729e-5,0 H 720.00001 V 540 H 1.0729e-5 Z"
         clip-rule="evenodd"
         id="path2943" />
    </clipPath>
    <clipPath
       id="clipPath4263">
      <path
         d="M 1.0729e-5,0 H 720.00001 V 540 H 1.0729e-5 Z"
         clip-rule="evenodd"
         id="path2946" />
    </clipPath>
    <clipPath
       id="clipPath4275">
      <path
         d="M 1.0729e-5,0 H 720.00001 V 540 H 1.0729e-5 Z"
         clip-rule="evenodd"
         id="path2949" />
    </clipPath>
    <clipPath
       id="clipPath4287">
      <path
         d="M 1.0729e-5,0 H 720.00001 V 540 H 1.0729e-5 Z"
         clip-rule="evenodd"
         id="path2952" />
    </clipPath>
    <clipPath
       id="clipPath4299">
      <path
         d="M 1.0729e-5,0 H 720.00001 V 540 H 1.0729e-5 Z"
         clip-rule="evenodd"
         id="path2955" />
    </clipPath>
    <clipPath
       id="clipPath4311">
      <path
         d="M 1.0729e-5,0 H 720.00001 V 540 H 1.0729e-5 Z"
         clip-rule="evenodd"
         id="path2958" />
    </clipPath>
    <clipPath
       id="clipPath4323">
      <path
         d="M 1.0729e-5,0 H 720.00001 V 540 H 1.0729e-5 Z"
         clip-rule="evenodd"
         id="path2961" />
    </clipPath>
    <clipPath
       id="clipPath4339">
      <path
         d="M 1.0729e-5,0 H 720.00001 V 540 H 1.0729e-5 Z"
         clip-rule="evenodd"
         id="path2964" />
    </clipPath>
    <clipPath
       id="clipPath4351">
      <path
         d="M 1.0729e-5,0 H 720.00001 V 540 H 1.0729e-5 Z"
         clip-rule="evenodd"
         id="path2967" />
    </clipPath>
    <clipPath
       id="clipPath4369">
      <path
         d="M -6.1035e-5,540 H 719.99994 V 0 H -6.1035e-5"
         clip-rule="evenodd"
         id="path2970" />
    </clipPath>
    <clipPath
       id="clipPath4379">
      <path
         d="M -6.1035e-5,540 H 719.99994 V 0 H -6.1035e-5"
         clip-rule="evenodd"
         id="path2973" />
    </clipPath>
    <clipPath
       id="clipPath4389">
      <path
         d="M 1.0729e-5,0 H 720.00001 V 540 H 1.0729e-5 Z"
         clip-rule="evenodd"
         id="path2976" />
    </clipPath>
    <clipPath
       id="clipPath4401">
      <path
         d="M 1.0729e-5,0 H 720.00001 V 540 H 1.0729e-5 Z"
         clip-rule="evenodd"
         id="path2979" />
    </clipPath>
    <clipPath
       id="clipPath4413">
      <path
         d="M 1.0729e-5,0 H 720.00001 V 540 H 1.0729e-5 Z"
         clip-rule="evenodd"
         id="path2982" />
    </clipPath>
    <clipPath
       id="clipPath4425">
      <path
         d="M 1.0729e-5,0 H 720.00001 V 540 H 1.0729e-5 Z"
         clip-rule="evenodd"
         id="path2985" />
    </clipPath>
  </defs>
  <g
     transform="matrix(1.3333,0,0,-1.3333,0,719.98208)"
     id="g3448"
     inkscape:label="pacto-israel"
     style="display:inline">
    <g
       id="g2994">
      <g
         clip-path="url(#clipPath3785)"
         id="g2992">
        <path
           d="M 0,6.1035e-5 H 720 V 540.00006 H 0 Z"
           fill="#f2f2f2"
           fill-rule="evenodd"
           id="path2990" />
      </g>
    </g>
    <g
       id="g4899"
       style="display:inline"
       inkscape:label="ap13"
       class="fragment"
       data-fragment-index="13">
      <path
         d="M 62.22,179.94 H 621.3 v 240 H 62.22 Z"
         fill="none"
         stroke="#ff0000"
         stroke-linejoin="round"
         stroke-miterlimit="10"
         stroke-width="2"
         id="path3014"
         style="display:inline" />
      <path
         d="M 62.22,179.94 H 621.3 v 240 H 62.22 Z"
         fill="#ff0000"
         fill-rule="evenodd"
         id="path3012"
         style="display:inline" />
      <path
         d="M 60,420 H 621.26"
         fill="none"
         stroke="#254061"
         stroke-linejoin="round"
         stroke-miterlimit="10"
         stroke-width="4.75"
         id="path3018" />
      <path
         d="m 59.76,337.68 h 522"
         fill="none"
         stroke="#254061"
         stroke-linejoin="round"
         stroke-miterlimit="10"
         stroke-width="4.75"
         id="path3020" />
      <path
         d="m 60.6,180 h 489"
         fill="none"
         stroke="#000000"
         stroke-linejoin="round"
         stroke-miterlimit="10"
         stroke-width="4.75"
         id="path3032" />
      <g
         id="g3178">
        <g
           clip-path="url(#clipPath4037)"
           id="g3176">
          <text
             transform="matrix(1,0,0,-1,625.99,102.12)"
             fill="#000000"
             font-family="Calibri"
             font-size="20.04px"
             xml:space="preserve"
             id="text3174"><tspan
               x="0 10.56108 20.541 25.09008 35.61108"
               y="0"
               id="tspan3172">Reino</tspan></text>
        </g>
      </g>
      <path
         d="M 621.24,186.2 V 420"
         fill="none"
         stroke="#000000"
         stroke-linejoin="round"
         stroke-miterlimit="10"
         stroke-width="4.75"
         id="path3398" />
      <path
         d="M 600.7,174.51 581.76,337.68"
         fill="none"
         stroke="#000000"
         stroke-linejoin="round"
         stroke-miterlimit="10"
         stroke-width="4.75"
         id="path3400" />
      <path
         d="M 597.94,167.07 549,180"
         fill="none"
         stroke="#000000"
         stroke-linejoin="round"
         stroke-miterlimit="10"
         stroke-width="4.75"
         id="path3402" />
      <g
         id="g3408">
        <g
           clip-path="url(#clipPath4369)"
           id="g3406">
          <path
             d="m 619.17,192 14.57,-18.14 12.49,10.03 -10.4,-38.2 -39.54,-1.92 12.49,10.03 -14.57,18.14 z"
             fill="#ff0000"
             fill-rule="evenodd"
             id="path3404" />
        </g>
      </g>
      <g
         id="g3414">
        <g
           clip-path="url(#clipPath4379)"
           id="g3412">
          <path
             d="m 619.17,192 14.57,-18.14 12.49,10.03 -10.4,-38.2 -39.54,-1.92 12.49,10.03 -14.57,18.14 z"
             fill="none"
             stroke="#000000"
             stroke-miterlimit="8"
             stroke-width="2"
             id="path3410" />
        </g>
      </g>
    </g>
    <path
       d="m 144,258 312,-1.09"
       fill="none"
       stroke="#254061"
       stroke-linejoin="round"
       stroke-miterlimit="10"
       stroke-width="4.75"
       id="path3022"
       inkscape:label="ap10"
       class="fragment"
       style="display:inline"
       data-fragment-index="10" />
    <g
       id="g3056"
       style="display:inline"
       inkscape:label="ap9"
       class="fragment"
       data-fragment-index="9">
      <g
         clip-path="url(#clipPath3843)"
         id="g3054">
        <g
           transform="matrix(1.54,3.77e-7,-3.77e-7,4.0933,423.12,144)"
           id="g3052">
          <g
             transform="scale(0.24043,0.14199)"
             id="g3050">
            <g
               clip-path="url(#clipPath3853)"
               id="g3048">
              <g
                 id="g3046">
                <g
                   id="g3036" />
                <path
                   d="M 208.52,304.49 V 0.78 h -83.66 v 303.71 -0.48 H 34 v 76.53 h 90.86 v 92.17 h 83.66 v -92.17 h 90.38 v -76.53 h -90.38 z"
                   fill="#808000"
                   fill-rule="evenodd"
                   id="path3038" />
                <path
                   d="M 208.52,304.49 V 0.78 h -83.66 v 303.71 -0.48 H 34 v 76.53 h 90.86 v 92.17 h 83.66 v -92.17 h 90.38 v -76.53 h -90.38 z"
                   fill="none"
                   stroke="#808000"
                   stroke-linecap="round"
                   stroke-linejoin="round"
                   stroke-miterlimit="10"
                   stroke-width="0.14"
                   id="path3040" />
                <path
                   d="M 174.72,338.43 V 34.24 H 91.295 v 304.19 -0.49 H 0.438 v 76.29 h 90.857 v 92.42 h 83.425 v -92.42 h 90.38 v -76.29 h -90.38 z"
                   fill="#ffffc2"
                   fill-rule="evenodd"
                   id="path3042" />
                <path
                   d="M 174.72,338.43 V 34.24 H 91.295 v 304.19 -0.49 H 0.438 v 76.29 h 90.857 v 92.42 h 83.425 v -92.42 h 90.38 v -76.29 h -90.38 z"
                   fill="none"
                   stroke="#808000"
                   stroke-linecap="round"
                   stroke-linejoin="round"
                   stroke-miterlimit="10"
                   stroke-width="0.14"
                   id="path3044" />
              </g>
            </g>
          </g>
        </g>
      </g>
    </g>
    <g
       id="g3064"
       inkscape:label="ap11"
       class="fragment"
       data-fragment-index="11">
      <path
         d="M 498,24 V 240"
         fill="none"
         stroke="#ff0000"
         stroke-dasharray="14.25, 4.75"
         stroke-linejoin="round"
         stroke-miterlimit="10"
         stroke-width="4.75"
         id="path3062" />
    </g>
    <g
       id="g4852"
       inkscape:label="ap7"
       style="display:inline"
       class="fragment"
       data-fragment-index="7">
      <path
         d="M 396,84 H 702"
         fill="none"
         stroke="#000000"
         stroke-linejoin="round"
         stroke-miterlimit="10"
         stroke-width="4.75"
         id="path3026" />
      <path
         d="M 396,30 V 138"
         fill="none"
         stroke="#000000"
         stroke-linejoin="round"
         stroke-miterlimit="10"
         stroke-width="4.75"
         id="path3068" />
    </g>
    <g
       id="g4866"
       inkscape:label="ap8"
       class="fragment"
       data-fragment-index="8">
      <g
         id="g3144">
        <g
           clip-path="url(#clipPath3987)"
           id="g3142">
          <text
             transform="matrix(1,0,0,-1,412.42,102.12)"
             fill="#000000"
             font-family="Calibri"
             font-size="20.04px"
             xml:space="preserve"
             id="text3140"><tspan
               x="0 10.56108 20.400721 26.87364 37.434719 44.42868 54.94968 65.510757"
               y="0"
               id="tspan3138">Retornos</tspan></text>
        </g>
      </g>
      <g
         id="g3152">
        <g
           clip-path="url(#clipPath3999)"
           id="g3150">
          <text
             transform="matrix(1,0,0,-1,422.98,57.288)"
             fill="#000000"
             font-family="Calibri"
             font-size="20.04px"
             xml:space="preserve"
             id="text3148"><tspan
               x="0 9.8196001 17.655239 28.176241 34.78944 44.388599"
               y="0"
               id="tspan3146">Esdras</tspan></text>
        </g>
      </g>
      <g
         id="g3160">
        <g
           clip-path="url(#clipPath4011)"
           id="g3158">
          <text
             transform="matrix(1,0,0,-1,408.46,33.288)"
             fill="#000000"
             font-family="Calibri"
             font-size="20.04px"
             xml:space="preserve"
             id="text3156"><tspan
               x="0 12.94584 22.92576 33.446758 43.426682 59.438641 63.967682 73.566841"
               y="0"
               id="tspan3154">Nehemías</tspan></text>
        </g>
      </g>
    </g>
    <path
       d="m 518.94,180.8 25.3,-52.79 -3.6,-1.73 -25.3,52.8 z m 26.62,-39.97 -1.4,-17.27 -14.34,9.72 c -0.91,0.62 -1.15,1.87 -0.53,2.78 0.62,0.92 1.86,1.15 2.77,0.53 l 11.5,-7.79 -3.11,-1.5 1.12,13.85 c 0.09,1.1 1.06,1.92 2.16,1.83 1.1,-0.09 1.92,-1.05 1.83,-2.15 z"
       fill="#ff0000"
       id="path3188"
       inkscape:label="ap14"
       class="fragment fade-up"
       data-fragment-index="14" />
    <g
       id="g4720"
       inkscape:label="ap2"
       style="display:inline"
       class="fragment"
       data-fragment-index="2">
      <g
         id="g3002">
        <g
           clip-path="url(#clipPath3795)"
           id="g3000">
          <text
             transform="matrix(1,0,0,-1,79.776,121.58)"
             fill="#000000"
             font-family="Calibri"
             font-size="20.064px"
             xml:space="preserve"
             id="text2998"><tspan
               x="0 5.056128 12.84096 19.442017 29.052671 39.044544"
               y="0"
               id="tspan2996">Israel</tspan></text>
        </g>
      </g>
      <g
         id="g3010">
        <g
           clip-path="url(#clipPath3807)"
           id="g3008">
          <text
             transform="matrix(1,0,0,-1,65.016,97.56)"
             fill="#000000"
             font-family="Calibri"
             font-size="20.04px"
             xml:space="preserve"
             id="text3006"><tspan
               x="0 8.9979601 19.55904 26.552999 42.484798 52.083961 62.604961"
               y="0"
               id="tspan3004">Formado</tspan></text>
        </g>
      </g>
      <path
         d="M 62.16,186 V 420"
         fill="none"
         stroke="#000000"
         stroke-linejoin="round"
         stroke-miterlimit="10"
         stroke-width="4.75"
         id="path3034" />
      <g
         id="g3060">
        <path
           d="m 59.76,22.92 v 216"
           fill="none"
           stroke="#000000"
           stroke-dasharray="14.25, 4.75"
           stroke-linejoin="round"
           stroke-miterlimit="10"
           stroke-width="4.75"
           id="path3058" />
      </g>
      <g
         id="g3128">
        <g
           clip-path="url(#clipPath3963)"
           id="g3126">
          <text
             transform="matrix(1,0,0,-1,65.448,61.68)"
             fill="#000000"
             font-family="Calibri"
             font-size="18.96px"
             xml:space="preserve"
             id="text3124"><tspan
               x="0 9.4799995 18.486 24.837601 31.454639 35.815441 44.897282 51.248878 59.17416 68.255997"
               y="0"
               id="tspan3122">Patriarcas</tspan></text>
        </g>
      </g>
      <g
         id="g3136">
        <g
           clip-path="url(#clipPath3975)"
           id="g3134">
          <text
             transform="matrix(1,0,0,-1,72.168,37.68)"
             fill="#000000"
             font-family="Calibri"
             font-size="20.04px"
             xml:space="preserve"
             id="text3132"><tspan
               x="0 17.134199 27.69528 32.304482 40.080002 50.059921"
               y="0"
               id="tspan3130">Moisés</tspan></text>
        </g>
      </g>
      <path
         d="M 3.96,171.96 H 135.6 V 348.84 H 3.96 Z"
         fill="#f456dd"
         fill-rule="evenodd"
         id="path3190" />
      <g
         id="g3200">
        <g
           clip-path="url(#clipPath4067)"
           id="g3198">
          <text
             transform="matrix(1,0,0,-1,44.592,324.53)"
             fill="#000000"
             font-family="Calibri"
             font-size="21.96px"
             font-weight="bold"
             xml:space="preserve"
             id="text3196"><tspan
               x="0 11.15568 22.00392 31.183201 38.517841"
               y="0"
               id="tspan3194">Pacto</tspan></text>
        </g>
      </g>
      <g
         id="g3208">
        <g
           clip-path="url(#clipPath4079)"
           id="g3206">
          <text
             transform="matrix(1,0,0,-1,14.832,298.13)"
             fill="#000000"
             font-family="Calibri"
             font-size="21.96px"
             font-weight="bold"
             xml:space="preserve"
             id="text3204"><tspan
               x="0 13.30776 25.100281 32.390999 43.239239 54.94392 65.79216 83.645638 89.047798 98.139236"
               y="0"
               id="tspan3202">Abrahámico</tspan></text>
        </g>
      </g>
      <g
         id="g3216">
        <g
           clip-path="url(#clipPath4091)"
           id="g3214">
          <text
             transform="matrix(1,0,0,-1,17.592,269.9)"
             fill="#000000"
             font-family="Calibri"
             font-size="24px"
             font-style="italic"
             xml:space="preserve"
             id="text3212"><tspan
               x="0 15.144 26.615999 38.952 50.495998 59.832001 65.351997"
               y="0"
               id="tspan3210">Génesis</tspan></text>
        </g>
      </g>
      <g
         id="g3224">
        <g
           clip-path="url(#clipPath4103)"
           id="g3222">
          <text
             transform="matrix(1,0,0,-1,97.752,269.9)"
             fill="#000000"
             font-family="Calibri"
             font-size="24px"
             font-style="italic"
             xml:space="preserve"
             id="text3220"><tspan
               x="0 12.12"
               y="0"
               id="tspan3218">12</tspan></text>
        </g>
      </g>
      <path
         d="M 3.96,171.96 H 135.6 V 348.84 H 3.96 Z"
         fill="none"
         stroke="#000000"
         stroke-linejoin="round"
         stroke-miterlimit="10"
         stroke-width="0.75"
         id="path3192" />
      <path
         d="M 42,84 H 354"
         fill="none"
         stroke="#000000"
         stroke-linejoin="round"
         stroke-miterlimit="10"
         stroke-width="4.75"
         id="path3024"
         style="display:inline" />
    </g>
    <g
       id="g4790"
       inkscape:label="ap4"
       class="fragment"
       data-fragment-index="4"
       style="display:inline">
      <path
         d="m 107.16,399.84 h 191.88 v 65.4 H 107.16 Z"
         fill="#dbeef4"
         fill-rule="evenodd"
         id="path3226" />
      <path
         d="m 107.16,399.84 h 191.88 v 65.4 H 107.16 Z"
         fill="none"
         stroke="#000000"
         stroke-linejoin="round"
         stroke-miterlimit="10"
         stroke-width="0.75"
         id="path3228" />
      <g
         id="g3236">
        <g
           clip-path="url(#clipPath4119)"
           id="g3234">
          <text
             transform="matrix(1,0,0,-1,143.54,439.18)"
             fill="#000000"
             font-family="Calibri"
             font-size="24px"
             font-weight="bold"
             xml:space="preserve"
             id="text3232"><tspan
               x="0 12.24 24.096001 34.127998 42.240002"
               y="0"
               id="tspan3230">Pacto</tspan></text>
        </g>
      </g>
      <g
         id="g3244">
        <g
           clip-path="url(#clipPath4131)"
           id="g3242">
          <text
             transform="matrix(1,0,0,-1,204.17,439.18)"
             fill="#000000"
             font-family="Calibri"
             font-size="24px"
             font-weight="bold"
             xml:space="preserve"
             id="text3240"><tspan
               x="0 11.88 17.784 29.856001 38.375999 46.439999"
               y="0"
               id="tspan3238">Tierra</tspan></text>
        </g>
      </g>
      <g
         id="g3252">
        <g
           clip-path="url(#clipPath4143)"
           id="g3250">
          <text
             transform="matrix(1,0,0,-1,118.22,410.38)"
             fill="#000000"
             font-family="Calibri"
             font-size="24px"
             font-style="italic"
             xml:space="preserve"
             id="text3248"><tspan
               x="0 14.76 26.232 38.616001 46.416 57.888 66.192001 78.503998 90.888 103.2 122.184 127.704"
               y="0"
               id="tspan3246">Deuteronomio</tspan></text>
        </g>
      </g>
      <g
         id="g3260">
        <g
           clip-path="url(#clipPath4155)"
           id="g3258">
          <text
             transform="matrix(1,0,0,-1,263.69,410.38)"
             fill="#000000"
             font-family="Calibri"
             font-size="24px"
             font-style="italic"
             xml:space="preserve"
             id="text3256"><tspan
               x="0 12.12"
               y="0"
               id="tspan3254">30</tspan></text>
        </g>
      </g>
    </g>
    <g
       id="g4810"
       inkscape:label="ap5"
       class="fragment"
       data-fragment-index="5"
       style="display:inline">
      <path
         d="M 233.88,294.84 H 356.04 V 389.4 H 233.88 Z"
         fill="#ffccff"
         fill-rule="evenodd"
         id="path3262" />
      <path
         d="M 233.88,294.84 H 356.04 V 389.4 H 233.88 Z"
         fill="none"
         stroke="#000000"
         stroke-linejoin="round"
         stroke-miterlimit="10"
         stroke-width="0.75"
         id="path3264" />
      <g
         id="g3272">
        <g
           clip-path="url(#clipPath4171)"
           id="g3270">
          <text
             transform="matrix(1,0,0,-1,267.41,363.29)"
             fill="#000000"
             font-family="Calibri"
             font-size="24px"
             font-weight="bold"
             xml:space="preserve"
             id="text3268"><tspan
               x="0 12.24 24.096001 34.127998 42.240002"
               y="0"
               id="tspan3266">Pacto</tspan></text>
        </g>
      </g>
      <g
         id="g3280">
        <g
           clip-path="url(#clipPath4183)"
           id="g3278">
          <text
             transform="matrix(1,0,0,-1,252.17,334.49)"
             fill="#000000"
             font-family="Calibri"
             font-size="24.024px"
             font-weight="bold"
             xml:space="preserve"
             id="text3276"><tspan
               x="0 15.13512 26.642616 38.005966 43.915871 56.816761 62.654591 72.62455"
               y="0"
               id="tspan3274">Davídico</tspan></text>
        </g>
      </g>
      <g
         id="g3288">
        <g
           clip-path="url(#clipPath4195)"
           id="g3286">
          <text
             transform="matrix(1,0,0,-1,241.73,305.66)"
             fill="#000000"
             font-family="Calibri"
             font-size="24px"
             font-style="italic"
             xml:space="preserve"
             id="text3284"><tspan
               x="0 12.168 17.52 28.368 40.703999 59.688 72.024002 83.496002 89.015999 94.440002"
               y="0"
               id="tspan3282">2 Samuel 7</tspan></text>
        </g>
      </g>
      <path
         d="M 240,30 V 138"
         fill="none"
         stroke="#000000"
         stroke-linejoin="round"
         stroke-miterlimit="10"
         stroke-width="4.75"
         id="path3072" />
      <g
         id="g3088">
        <g
           clip-path="url(#clipPath3903)"
           id="g3086">
          <text
             transform="matrix(1,0,0,-1,254.52,107.06)"
             fill="#000000"
             font-family="'Times New Roman'"
             font-size="20.04px"
             xml:space="preserve"
             id="text3084"><tspan
               x="0 17.815559 27.83556 37.895641 46.7934 53.466721 63.546841 73.566841 79.017723"
               y="0"
               id="tspan3082">Monarquía</tspan></text>
        </g>
      </g>
      <g
         id="g3096">
        <g
           clip-path="url(#clipPath3915)"
           id="g3094">
          <text
             transform="matrix(1,0,0,-1,259.03,57.288)"
             fill="#000000"
             font-family="Calibri"
             font-size="20.04px"
             xml:space="preserve"
             id="text3092"><tspan
               x="0 10.56108 20.400721 29.27844 39.258362 47.094002 51.482761 62.003761"
               y="0"
               id="tspan3090">Reyes de</tspan></text>
        </g>
      </g>
      <g
         id="g3104">
        <g
           clip-path="url(#clipPath3927)"
           id="g3102">
          <text
             transform="matrix(1,0,0,-1,273.19,33.288)"
             fill="#000000"
             font-family="Calibri"
             font-size="20.04px"
             xml:space="preserve"
             id="text3100"><tspan
               x="0 5.0500798 12.88572 19.438801 29.03796 39.017879"
               y="0"
               id="tspan3098">Israel</tspan></text>
        </g>
      </g>
    </g>
    <g
       id="g4754"
       inkscape:label="ap3"
       style="display:inline"
       class="fragment"
       data-fragment-index="3">
      <g
         id="g3080">
        <g
           clip-path="url(#clipPath3891)"
           id="g3078">
          <text
             transform="matrix(1,0,0,-1,157.27,108.22)"
             fill="#000000"
             font-family="Calibri"
             font-size="20.04px"
             xml:space="preserve"
             id="text3076"><tspan
               x="0 7.9158001 17.89572 28.4568 36.93372 43.546921 53.14608 61.623001 66.232201"
               y="0"
               id="tspan3074">Teocracia</tspan></text>
        </g>
      </g>
      <g
         id="g3112">
        <g
           clip-path="url(#clipPath3939)"
           id="g3110">
          <text
             transform="matrix(1,0,0,-1,165.74,60.84)"
             fill="#000000"
             font-family="Calibri"
             font-size="20.04px"
             xml:space="preserve"
             id="text3108"><tspan
               x="0 17.134199 27.69528 32.304482 40.080002 50.059921"
               y="0"
               id="tspan3106">Moisés</tspan></text>
        </g>
      </g>
      <g
         id="g3120">
        <g
           clip-path="url(#clipPath3951)"
           id="g3118">
          <text
             transform="matrix(1,0,0,-1,171.98,36.816)"
             fill="#000000"
             font-family="Calibri"
             font-size="20.04px"
             xml:space="preserve"
             id="text3116"><tspan
               x="0 6.3927598 16.95384 24.729361 35.250359"
               y="0"
               id="tspan3114">Josué</tspan></text>
        </g>
      </g>
      <path
         d="m 150.12,191.76 h 103.8 v 94.56 h -103.8 z"
         fill="#ebf1de"
         fill-rule="evenodd"
         id="path3326" />
      <path
         d="m 150.12,191.76 h 103.8 v 94.56 h -103.8 z"
         fill="none"
         stroke="#000000"
         stroke-linejoin="round"
         stroke-miterlimit="10"
         stroke-width="0.75"
         id="path3328" />
      <g
         id="g3336">
        <g
           clip-path="url(#clipPath4263)"
           id="g3334">
          <text
             transform="matrix(1,0,0,-1,174.46,260.16)"
             fill="#000000"
             font-family="Calibri"
             font-size="24px"
             font-weight="bold"
             xml:space="preserve"
             id="text3332"><tspan
               x="0 12.24 24.096001 34.127998 42.240002"
               y="0"
               id="tspan3330">Pacto</tspan></text>
        </g>
      </g>
      <g
         id="g3344">
        <g
           clip-path="url(#clipPath4275)"
           id="g3342">
          <text
             transform="matrix(1,0,0,-1,159.94,231.36)"
             fill="#000000"
             font-family="Calibri"
             font-size="24.024px"
             font-weight="bold"
             xml:space="preserve"
             id="text3340"><tspan
               x="0 20.996977 33.921886 43.507465 55.37532 61.285225 71.327255"
               y="0"
               id="tspan3338">Mosaico</tspan></text>
        </g>
      </g>
      <g
         id="g3352">
        <g
           clip-path="url(#clipPath4287)"
           id="g3350">
          <text
             transform="matrix(1,0,0,-1,157.9,202.54)"
             fill="#000000"
             font-family="Calibri"
             font-size="24px"
             font-style="italic"
             xml:space="preserve"
             id="text3348"><tspan
               x="0 11.712 21.719999 34.032001 46.416"
               y="0"
               id="tspan3346">Éxodo</tspan></text>
        </g>
      </g>
      <g
         id="g3360">
        <g
           clip-path="url(#clipPath4299)"
           id="g3358">
          <text
             transform="matrix(1,0,0,-1,222.1,202.54)"
             fill="#000000"
             font-family="Calibri"
             font-size="24px"
             font-style="italic"
             xml:space="preserve"
             id="text3356"><tspan
               x="0 12.12"
               y="0"
               id="tspan3354">20</tspan></text>
        </g>
      </g>
      <path
         d="m 144,27.48 v 108"
         fill="none"
         stroke="#000000"
         stroke-linejoin="round"
         stroke-miterlimit="10"
         stroke-width="4.75"
         id="path3070" />
    </g>
    <g
       id="g4681"
       inkscape:label="ap1"
       style="display:inline"
       class="fragment"
       data-fragment-index="1">
      <path
         d="M 66,482.16 H 678"
         fill="none"
         stroke="#000000"
         stroke-linejoin="round"
         stroke-miterlimit="10"
         stroke-width="4.75"
         id="path3016" />
      <path
         d="m 24.06,481.26 c 0,26.97 19.395,48.84 43.32,48.84 23.925,0 43.32,-21.87 43.32,-48.84 0,-26.97 -19.395,-48.84 -43.32,-48.84 -23.925,0 -43.32,21.87 -43.32,48.84 z"
         fill="#ffccff"
         fill-rule="evenodd"
         id="path3028" />
      <path
         d="m 24.06,481.26 c 0,26.97 19.395,48.84 43.32,48.84 23.925,0 43.32,-21.87 43.32,-48.84 0,-26.97 -19.395,-48.84 -43.32,-48.84 -23.925,0 -43.32,21.87 -43.32,48.84 z"
         fill="none"
         stroke="#385d8a"
         stroke-linejoin="round"
         stroke-miterlimit="10"
         stroke-width="2"
         id="path3030" />
      <g
         id="g3368">
        <g
           clip-path="url(#clipPath4311)"
           id="g3366">
          <text
             transform="matrix(1,0,0,-1,29.64,487.73)"
             fill="#000000"
             font-family="Calibri"
             font-size="20.064px"
             xml:space="preserve"
             id="text3364"><tspan
               x="0 10.373088 16.913952 27.48768 43.43856 53.430431 61.195202 70.805855"
               y="0"
               id="tspan3362">Promesas</tspan></text>
        </g>
      </g>
      <g
         id="g3376">
        <g
           clip-path="url(#clipPath4323)"
           id="g3374">
          <text
             transform="matrix(1,0,0,-1,39.48,463.7)"
             fill="#000000"
             font-family="Calibri"
             font-size="20.04px"
             xml:space="preserve"
             id="text3372"><tspan
               x="0 12.48492 22.46484 30.941759 41.462761 51.06192"
               y="0"
               id="tspan3370">Hechas</tspan></text>
        </g>
      </g>
      <path
         d="m 621.3,479.1 c 0,26.97 19.39,48.84 43.32,48.84 23.92,0 43.32,-21.87 43.32,-48.84 0,-26.97 -19.4,-48.84 -43.32,-48.84 -23.93,0 -43.32,21.87 -43.32,48.84 z"
         fill="#ffff00"
         fill-rule="evenodd"
         id="path3378" />
      <path
         d="m 621.3,479.1 c 0,26.97 19.39,48.84 43.32,48.84 23.92,0 43.32,-21.87 43.32,-48.84 0,-26.97 -19.4,-48.84 -43.32,-48.84 -23.93,0 -43.32,21.87 -43.32,48.84 z"
         fill="none"
         stroke="#385d8a"
         stroke-linejoin="round"
         stroke-miterlimit="10"
         stroke-width="2"
         id="path3380" />
      <g
         id="g3388">
        <g
           clip-path="url(#clipPath4339)"
           id="g3386">
          <text
             transform="matrix(1,0,0,-1,629.11,485.88)"
             fill="#000000"
             font-family="Calibri"
             font-size="18.024px"
             xml:space="preserve"
             id="text3384"><tspan
               x="0 9.2463121 15.248304 24.746952 39.148129 48.124081 55.171463 63.804958"
               y="0"
               id="tspan3382">Promesas</tspan></text>
        </g>
      </g>
      <g
         id="g3396">
        <g
           clip-path="url(#clipPath4351)"
           id="g3394">
          <text
             transform="matrix(1,0,0,-1,626.47,464.26)"
             fill="#000000"
             font-family="Calibri"
             font-size="18px"
             xml:space="preserve"
             id="text3392"><tspan
               x="0 9.5939999 19.044001 33.425999 42.948002 47.034 51.119999 60.57 69.192001"
               y="0"
               id="tspan3390">Cumplidas</tspan></text>
        </g>
      </g>
    </g>
    <g
       id="g4848"
       inkscape:label="ap6"
       style="display:inline"
       class="fragment"
       data-fragment-index="6">
      <path
         d="M 354,30 V 138"
         fill="none"
         stroke="#000000"
         stroke-linejoin="round"
         stroke-miterlimit="10"
         stroke-width="4.75"
         id="path3066" />
      <g
         id="g3186">
        <g
           clip-path="url(#clipPath4049)"
           id="g3184">
          <text
             transform="matrix(-4.4e-8,1,1,4.4e-8,380.88,62.496)"
             fill="#000000"
             font-family="Calibri"
             font-size="20.04px"
             xml:space="preserve"
             id="text3182"><tspan
               x="0 9.8196001 18.49692 23.025961 27.63516 32.144161"
               y="0"
               id="tspan3180">Exilio</tspan></text>
        </g>
      </g>
      <path
         d="M 270.84,168 H 415.2 v 65.4 H 270.84 Z"
         fill="#fcd5b5"
         fill-rule="evenodd"
         id="path3290" />
      <path
         d="M 270.84,168 H 415.2 v 65.4 H 270.84 Z"
         fill="none"
         stroke="#ffffff"
         stroke-linejoin="round"
         stroke-miterlimit="10"
         stroke-width="0.75"
         id="path3292" />
      <g
         id="g3300">
        <g
           clip-path="url(#clipPath4211)"
           id="g3298">
          <text
             transform="matrix(1,0,0,-1,280.34,207.34)"
             fill="#000000"
             font-family="Calibri"
             font-size="24px"
             font-weight="bold"
             xml:space="preserve"
             id="text3296"><tspan
               x="0 15.816 28.704 40.776001 51.936001 64.896004"
               y="0"
               id="tspan3294">Nuevo </tspan></text>
        </g>
      </g>
      <g
         id="g3308">
        <g
           clip-path="url(#clipPath4223)"
           id="g3306">
          <text
             transform="matrix(1,0,0,-1,350.45,207.34)"
             fill="#000000"
             font-family="Calibri"
             font-size="24px"
             font-weight="bold"
             xml:space="preserve"
             id="text3304"><tspan
               x="0 12.24 24.096001 34.127998 42.240002"
               y="0"
               id="tspan3302">Pacto</tspan></text>
        </g>
      </g>
      <g
         id="g3316">
        <g
           clip-path="url(#clipPath4235)"
           id="g3314">
          <text
             transform="matrix(1,0,0,-1,285.62,178.54)"
             fill="#000000"
             font-family="Calibri"
             font-size="24.024px"
             font-style="italic"
             xml:space="preserve"
             id="text3312"><tspan
               x="0 7.6636562 19.2192 27.459433 39.039001 58.041985 63.567505 75.91584"
               y="0"
               id="tspan3310">Jeremías</tspan></text>
        </g>
      </g>
      <g
         id="g3324">
        <g
           clip-path="url(#clipPath4247)"
           id="g3322">
          <text
             transform="matrix(1,0,0,-1,376.13,178.54)"
             fill="#000000"
             font-family="Calibri"
             font-size="24.024px"
             font-style="italic"
             xml:space="preserve"
             id="text3320"><tspan
               x="0 12.119968"
               y="0"
               id="tspan3318">31</tspan></text>
        </g>
      </g>
    </g>
    <g
       id="g4881"
       inkscape:label="ap12"
       style="display:inline"
       class="fragment"
       data-fragment-index="12">
      <g
         id="g3168">
        <g
           clip-path="url(#clipPath4023)"
           id="g3166">
          <text
             transform="matrix(1,0,0,-1,518.64,101.21)"
             fill="#000000"
             font-family="Calibri"
             font-size="20.04px"
             xml:space="preserve"
             id="text3164"><tspan
               x="0 5.0500798 14.48892 19.09812 29.078039 36.833519 41.442719"
               y="0"
               id="tspan3162">Iglesia</tspan></text>
        </g>
      </g>
      <path
         d="m 582,30.12 v 108"
         fill="none"
         stroke="#000000"
         stroke-linejoin="round"
         stroke-miterlimit="10"
         stroke-width="4.75"
         id="path3170" />
      <g
         id="g3422">
        <g
           clip-path="url(#clipPath4389)"
           id="g3420">
          <text
             transform="matrix(1,0,0,-1,514.34,49.56)"
             fill="#000000"
             font-family="Calibri"
             font-size="20.04px"
             xml:space="preserve"
             id="text3418"><tspan
               x="0 12.94584 23.466841 33.3666 42.124081 52.685162"
               y="0"
               id="tspan3416">Nuevo </tspan></text>
        </g>
      </g>
      <g
         id="g3430">
        <g
           clip-path="url(#clipPath4401)"
           id="g3428">
          <text
             transform="matrix(1,0,0,-1,594.02,49.56)"
             fill="#000000"
             font-family="Calibri"
             font-size="20.04px"
             xml:space="preserve"
             id="text3426"><tspan
               x="0 7.9158001 17.89572 25.430759 31.903681 41.502838 57.514801 67.414558 77.735161 84.208076"
               y="0"
               id="tspan3424">Testamento</tspan></text>
        </g>
      </g>
    </g>
    <g
       id="g3438">
      <g
         clip-path="url(#clipPath4413)"
         id="g3436">
        <text
           transform="matrix(1,0,0,-1,205.22,499.46)"
           fill="#000000"
           font-family="Calibri"
           font-size="32.04px"
           font-weight="bold"
           xml:space="preserve"
           id="text3434"><tspan
             x="0 16.43652 32.264278 45.657001 56.518559 73.756081"
             y="0"
             id="tspan3432">Pactos</tspan></text>
      </g>
    </g>
    <g
       id="g3446">
      <g
         clip-path="url(#clipPath4425)"
         id="g3444">
        <text
           transform="matrix(1,0,0,-1,298.85,499.46)"
           fill="#000000"
           font-family="Calibri"
           font-size="32.04px"
           font-weight="bold"
           xml:space="preserve"
           id="text3442"><tspan
             x="0 17.205481 33.321602 40.434479 60.619678 68.501518 85.739037 98.587082 105.66792 119.06064 136.29816 153.50365 160.5204 169.07507 181.85904 192.56039 208.38815 224.50427"
             y="0"
             id="tspan3440">de Dios con Israel</tspan></text>
      </g>
    </g>
  </g>
</svg>
