<?xml version="1.0" encoding="UTF-8"?>
<svg width="1920" height="1080" version="1.1" viewBox="0 0 508 285.75" xmlns="http://www.w3.org/2000/svg" xmlns:cc="http://creativecommons.org/ns#" xmlns:dc="http://purl.org/dc/elements/1.1/" xmlns:rdf="http://www.w3.org/1999/02/22-rdf-syntax-ns#">
 <metadata>
  <rdf:RDF>
   <cc:Work rdf:about="">
    <dc:format>image/svg+xml</dc:format>
    <dc:type rdf:resource="http://purl.org/dc/dcmitype/StillImage"/>
    <dc:title/>
   </cc:Work>
  </rdf:RDF>
 </metadata>
 <g id="yellow_road" transform="translate(-41.814 -45.646)">
  <path d="m441.66 275.75h-334.39v29.251h180.16c119.88 0 180.16-0.11109 180.16-0.33228 0-0.18282 0.29943-0.33228 0.66508-0.33228 0.65979 0 0.66456-28.247 0.66456-28.247-61.066-0.339 0 0-27.257-0.339zm-321.1-6.1045v0.12144h0.25321c-0.0841-0.041-0.16953-0.0795-0.25321-0.12144z" fill="#f5cb44" stroke-width=".3324"/>
 </g>
 <path id="arrow" d="m424.86 180.79c-0.19381-0.0755-2.8862 1.7045-5.9831 3.9553-3.0969 2.2508-9.275 6.7059-13.729 9.9002l-8.0992 5.8074 7.1851 0.0899 7.1846 0.0894v13.954c0.98108 43.88-7.5428 48.413 25.927 42.873 0-0.18283 0.29942-0.33229 0.66505-0.33229 0.65979 0 0.66456-0.22143 0.66456-28.247v-28.247l13.695-0.1798-13.578-9.7627c-7.4683-5.3696-13.738-9.8247-13.931-9.9002z" fill="#f5cb44" stroke-width=".3324"/>
 <text id="rapto" x="399.88004" y="138.88452" fill="#000000" font-family="sans-serif" font-size="10.583px" stroke-width=".26458" style="line-height:1.25" xml:space="preserve"><tspan x="399.88004" y="138.88452" stroke-width=".26458">RAPTO</tspan></text>
 <g id="man" transform="translate(-6.5138 .76347)" stroke-width=".26458">
  <path d="m248.84 194.58h-0.39688v-7.7225l-1.0583-0.27676v-0.73203h-7.9375v-0.81036l-0.39688-0.15229-0.39687-0.1523v-2.3246h-4.4979v-0.76022l1.7155-0.1658 0.0877-0.46302 0.0877-0.46303h-1.8909v-0.79375h-1.5258l-0.13838-0.52916-0.13838-0.52917h-0.84329v-2.3812h0.84329l0.13838-0.52917 0.13838-0.52916h0.73203v-1.6041l0.79375-0.30459v-0.73714h1.1157l-0.32672-1.3017 1.0631-0.56896v-2.3626h0.79375v-1.0583h0.76023l0.1658 1.7155 0.92604 0.1754v-0.83255h0.79375v-1.0583h0.81036l0.15229-0.39688 0.1523-0.39687h2.3412l0.15229 0.39687 0.1523 0.39688h0.73713v1.1024l0.66146-0.21714 0.1658-1.679 0.62793-0.01 0.59531-0.62803 0.59532-0.62803v-0.58688h0.79375v1.8521h-0.79375v2.6458h0.79375v0.79375h0.79375v0.84329l1.0583 0.27676v1.5258h0.79375v0.75809l0.52917 0.16795 0.52916 0.16796v0.75808h2.6879l-0.17438 0.79397-0.17439 0.79397 0.41795 0.16038 0.41794 0.16038v2.0556l1.0583 0.66094v2.2183l1.1266 0.35758-0.14413 1.5894-0.14412 1.5894 0.54127 0.14154 0.54128 0.14155-0.27136 4.7593-0.85582 0.47894v0.76746h-0.79375v0.79375h-1.5689l-0.59828 1.1179-2.1122-0.33775-0.14016 0.53597-0.14016 0.53598h-1.5258v0.79375zm-9.3266-12.22 0.8599-0.0829v-1.5803l-0.92604-0.1784v0.83255h-0.79375v1.0919zm1.3975-4.4485h0.42194l-0.0829-0.85989-0.0829-0.8599h-0.7865l-0.0922 0.47847-0.0922 0.47848 0.14637 0.38142 0.14636 0.38142zm-8.3428 3.6797-0.39687-0.0173-0.66146-0.2669v-1.5434h0.73713l0.1523 0.39688 0.15229 0.39687h1.6041v0.73204l-1.1906 0.31907-0.39688-0.0173zm6.0974-14.263h-0.78176l-0.17336-0.92405-0.17335-0.92405 0.30612-0.79774h1.6041v2.6458z" fill="#71f249"/>
  <path d="m268.32 230.83h-1.6233v-0.81036l-0.37642-0.14444-0.37641-0.14445-0.14445-0.37642-0.14444-0.37641h1.0417v0.73203l1.1572 0.30262 2.329-0.31923 0.13727-0.35771 0.13726-0.35771h0.73714v-0.81036l0.39687-0.1523 0.39688-0.15229v-0.73714h1.015l0.43962-0.1687 0.43963-0.16869-1.2935 1.3957h-0.60078v0.79375h-0.79375v0.5019l-0.62565 0.67509-0.62566 0.67509zm1.4194-0.26458h0.39687v-0.52917h-0.79375v0.52917zm-39.431-0.79375h-0.65316v-0.79375h-0.79375v-0.73714l-0.79375-0.30459v-1.0936l1.0583 0.5664v0.77514h0.79375v0.79375h0.73713l0.1523 0.39687 0.15229 0.39688zm13.039 5.3e-4 -0.59531 5.2e-4 0.0887-1.7203 0.0887-1.7203h-0.8389v-0.7517l-1.588-0.34878-0.16382-0.65271-0.16381-0.6527 0.16406-0.16407 0.16407-0.16406v0.88194h0.79375v0.76022l1.7198 0.1658 0.1704 1.4865 0.75558 0.28995v2.5892zm0.0662-0.26512h0.26458v-0.52916h-0.52917v0.52916zm-0.0156-1.5875h0.2802v-0.52916h-0.23335l-0.16353 0.26458-0.16352 0.26458zm-10.945 1.0583h-1.7392v-1.7904l-1.0583-0.27676v-1.3725h-0.4935l-0.16795-0.52916-0.16796-0.52917h-0.77949l0.0769-2.1184 0.0768-2.1184 0.52916 0.014 0.3482 1.302 0.42833 0.42832 0.42832 0.42832-0.1719 0.91631-0.1719 0.9163 1.1233 0.29376v2.5841h1.5309l0.14497 0.3778 0.14498 0.37779 1.4819 0.1704 0.1756 0.92604h-1.7392zm31.995-0.96266-0.39687 0.1523v-1.0417h0.79375v0.73714zm-36.446-1.4266-0.0662-8e-3 -0.92604-0.53936 4e-3 -0.31759 4e-3 -0.31758 0.4619 0.72925 0.58833-0.3636v0.82498zm46.09-0.25654h-0.25095v-0.5019l0.62565-0.67509 0.62566-0.67509h0.60078v-0.79375h0.79375v-0.73714l0.79375-0.30459v-0.56361l1.6057-1.5697h0.24634v0.77714l-0.39688-0.15229-0.39687-0.1523v1.4511l-0.67509 0.62566-0.67509 0.62565h-0.5019v0.79375h-0.79375v0.60078l-1.3502 1.2513zm3.7178-3.7042h0.26459v-0.52917h-0.52917v0.52917zm-51.401-0.66085-0.0909 2.5142 0.0152-2.5803 0.0152-2.5803h0.79375l0.1322 5.1594-0.28374-5.0271h-0.49084zm36.32 2.5129h-0.52917v-0.79375h-0.79375v-1.3063l0.39688 0.15229 0.39687 0.1523v0.78668l1.0583 0.27676v0.73203zm-26.136-0.79366-0.33903-9e-5 -0.28526-0.74338 0.1696-1.7702 1.4865-0.1704 0.28994-0.75558h0.73714v0.79375h-0.79375v0.79375h-0.5604l0.16352-0.26459 0.16352-0.26458h-0.735l0.0212 1.1907 0.0212 1.1907-0.33903-9e-5zm23.143-2.1829-0.12101 0.46302-0.0614-2.0232 0.92604 0.1754 0.0464 0.92387 0.0464 0.92388-0.26386-0.92604h-0.45156zm-19.951-1.2875-0.47154-0.0307 0.48244-0.12474 0.48245-0.12474-0.25448-0.66316 0.20703-0.33499 0.20703-0.33498 0.1343 0.22669 0.1343 0.22668-0.44998 1.1906zm29.073-0.0859-1.1023 0.10617v-1.0479h0.58579l-0.1523-0.39687-0.15229-0.39688h0.51255v1.5875h0.79375v-0.79375h0.76023l0.1658-1.7155 0.79375-0.0552-0.66146 0.22204v1.2841h0.48507l0.2669-0.66146 0.0418 0.92604h-0.76745l-0.2338 0.41778-0.23381 0.41779-1.1023 0.10617zm10.606 0.0506-0.33073 0.11012v-1.1024h0.83255l-0.0855 0.4411-0.0855 0.44109zm-37.222-2.2154-1.2092 1.2092v-0.49225l2.0857-2.2588 0.33267 0.33267zm15.683 0.364-0.0911 0.21666-0.92604-0.19v-0.56432l-0.78387-0.5875-0.23514-1.3229-0.0766-0.26458-0.45478 1.0583-0.0186-0.7183-0.0186-0.71829-1.0583-0.5664v-0.51055h1.0583v0.52917h0.73713l0.3212 0.83702v0.97096l0.33073 0.13345 0.33073 0.13346-0.66146 0.0418v0.52916h1.3395l0.14894 0.38815 0.14895 0.38814-0.0911 0.21667zm22.118 0.32996h-0.11596v-0.72896l-0.79375-0.65875v-0.72896h0.79375v0.79375h0.7586l0.11022-0.72761 0.11023-0.7276 0.0396 0.7276 0.0396 0.72761h0.52917v-2.3372l-0.5424-0.269 0.33735 0.0669 0.33734 0.0669 0.0832 1.1422 0.0832 1.1422-1.6543 1.511zm0.41321-0.52917h0.26458v-0.23336l-0.52917-0.32704v0.5604zm-53.06 0.26458h-0.42458l0.1756-0.92604 1.583-0.1782 0.21159-0.37392 0.21158-0.37392h2.355v0.75163l-1.7026 0.18234-1.7026 0.18233-0.28234 0.73578zm1.9955-1.0583h0.26458v-0.52917h-0.52916v0.52917zm37.575-0.26458-0.26053 0.39687-8e-3 -0.92604h-0.46745l-0.13838-0.52917-0.13838-0.52916h0.1198l0.8414 0.7512 0.8414 0.75121-8e-3 0.48196-0.26054-0.39687-0.26053-0.39688zm-22.031-1.3275-0.46302 5e-3v-0.49916l1.1191-0.78384 0.733 0.28128v-0.67397l0.16807 0.16806 0.16807 0.16807-1.2622 1.3304-0.46302 5e-3zm28.037-0.44219-0.10789 0.31447 0.057-0.78768 1.0522-0.108-0.44675 0.13337-0.44675 0.13336zm-40.604-0.40003-0.85989 0.2901v-1.2954h0.79375l8e-3 -0.66146 0.23095 0.36462 0.23095 0.36463 0.59696-0.36894-0.30444-0.4926h0.61776l-0.36496 1.4541-0.0892 0.0548-0.8599 0.2901zm-0.33073-0.21154h0.26459v-0.52917h-0.52917v0.52917zm43.347 0.0889-0.35237 0.0889 0.19843-0.11098 0.19844-0.11097v-0.74965h4.4979v0.79375h-4.1901zm-10.032-0.0889h-0.55122l0.22024-0.66146 0.88219-0.1712v0.83256zm-11.691-1.0583-0.15108 0.39688-0.0209-0.88821-0.0209-0.8882-0.39687 0.1523-0.39688 0.15229v-0.75852l-0.52916-0.2832-0.52917-0.28321v-0.51054l-0.52917-0.52917-0.52916-0.52917h-0.52917v1.8521h-0.8599l0.16537-0.82683 0.16536-0.82682v-1.2568h0.97737l1.2203 1.0583h-0.61014v0.5424l1.5875 0.3175v1.3063l1.0583 0.27676v0.73203l0.66146 8e-3 -0.58212 0.38877-0.15107 0.39687zm-3.22-4.2333h0.41249l-0.16352-0.26458-0.16352-0.26459h-0.49794v0.52917zm-2.5448 3.7849-0.54486 0.14249 0.0818-0.57195 0.0818-0.57194 0.46302-0.0882 0.46302-0.0883v1.0354zm-13.512-0.0808h-0.44559l0.27676-1.0583h0.67542l0.15229-0.39687 0.1523-0.39688 0.67806 8e-3 -0.79375 0.56135 0.62806 0.25726-0.43898 0.51268-0.43897 0.5127zm30.62-0.33518-0.15879 0.15879v-0.55122l-1.5405-0.3081-0.17682-0.80506-0.17682-0.80507h-0.75171v-1.5309l-0.79375-0.30459v-1.5475l-0.39687-0.15229-0.39688-0.1523v-1.0583l0.37081 0.14229 0.3708 0.14229 0.18498 0.57701 0.18499 0.57701-0.0456 0.59531-0.0456 0.59532h0.53189l0.11022-0.72761 0.11022-0.7276 0.0792 2.5135h0.79375l0.0806 0.92604 0.054 0.7504 0.65922 0.21974v0.74965h0.76252l0.1744 0.28219 0.1744 0.28218zm-27.789-2.5752h-0.41578v-0.79375h0.79375v-0.51055l0.9851-0.52721-0.059 0.94458-0.88825 0.88693zm2.4897-4.9163-0.25962 0.25962v-1.9579h-0.79375v-0.74966l-0.66146-0.2669 1.4552-0.0418v-0.8214l-2.7781 0.16 0.1322 0.66146h-1.0417l0.15229-0.39687 0.1523-0.39688h0.75393l-0.0746-3.0437-0.0745-3.0437-0.52916-2e-3 -0.0785 1.734-0.0785 1.734-1.7736-0.0779-1.7736-0.0781-0.0764-2.4695-0.0764-2.4695 1.0788-0.2821v-2.5841h0.79375v-1.8521h-0.79375v-2.3812h-0.79375v4.812l-1.0583 0.27676v9.7279h-4.4979v-0.82498l0.52917 0.32704 0.66146-0.42 0.52191-8e-3 0.1784-0.92604h-0.80837l-0.0782-1.786-0.0782-1.7859-0.46302 0.0367-0.46302 0.0368v-0.71634l1.0583-0.5664v1.3415h0.79375l4e-3 -1.5214 4e-3 -1.5214 0.16362-0.61095 0.16363-0.61094-1.1282-0.29504v-3.3212l0.39688-0.1523 0.39687-0.15229v-3.1653l0.75688-0.42358 0.1692-2.2333 0.79375 0.5542-0.66146 0.2684v1.5171l-0.92604 0.5249 0.98472 0.72783-0.85243 0.85244v3.2128h0.52916v-3.4396h1.0583v-0.79375h1.8117l-0.046-1.6536-0.046-1.6536 5.4302-0.1508-0.0344 0.20773-0.0344 0.20772 0.0626 7.276h0.79375v2.6458h0.79375v-1.6117l3.5719 0.1564v3.175l-1.7198 0.1658v-0.82728h-0.81036l-0.15229-0.39687-0.1523-0.39688h-0.77228l0.0837 0.72761 0.0837 0.7276 1.7198 0.1658v0.70464l2.249 0.23775 0.39687-0.2134v-3.4084h0.79375v5.2917h-1.8088l-0.83703 0.32119v1.2351l0.28573 0.17658 0.28573 0.1766 0.40127-0.57291 0.40128-0.5729 1.1395 0.1624 0.0808 1.2595 0.0807 1.2595-0.41148 0.1579-0.41149 0.1579v1.5095l-2.1615 0.0769-2.1615 0.0768-0.21898 0.66146h0.90399l-0.17032 0.85163-0.17033 0.85163zm0.83405-3.0212h0.43721l0.1523-0.39688 0.15229-0.39687h0.78407l0.26968 0.46302 0.26969 0.46302 8e-3 -0.56292 8e-3 -0.56291-0.39688-0.32938-0.39687-0.32938v-1.9952l-0.83087-0.31884 0.0847-0.59649 0.0847-0.5965 3.4396-0.30554-1.3904-0.0914-0.65876-0.79375h-1.9468l-2.2435-2.354-0.16108-1.4027-0.16109-1.4027-0.35723-0.21158-0.35723-0.21159v-6.8529h-3.7042v4.5719l0.80584 0.58924 0.17123 1.0552 0.17124 1.0552 0.70378 0.70378v1.0371l0.79375 0.30459v1.3403l0.92604 0.67604 0.1728 6.5362 2.0391-0.1944 0.34672 0.55519 0.34672 0.5552zm3.1721-1.3229h0.23218v-1.0583h-0.70555l-0.17409 0.17409-0.1741 0.17409 0.29469 0.35508 0.29468 0.35507zm-8.0846-6.35h0.41445l-0.1674-1.4144-0.66146-0.2172v1.6316zm-1.0759-1.8521h0.3968v-0.79375h-0.79375v0.79375zm-6.101-3.4396h0.11668l0.32704-0.52916h-0.56039v0.52916zm32.124 15.687-0.0933 0.42163-0.46302-0.26207-0.46302-0.26208v-1.24l-0.79375-0.30459 0.0209-0.47133 0.0209-0.47132 0.13345 0.33073 0.13346 0.33073h0.44992l0.11022-0.72761 0.11022-0.7276 0.0396 1.2436 0.0396 1.2436 0.42406 0.23731 0.42405 0.23732-0.0933 0.42164zm-28.112-2.7937-0.15985 0.15985 0.0209-0.50711 0.0209-0.50712 0.13897 0.34726 0.13896 0.34727-0.15985 0.15985zm13.736-0.45751h-0.3919l-0.15926-0.63455-0.15926-0.63454 0.1762-1.239 0.46302-0.0883 0.46302-0.0882v0.83255h0.79375v0.81036l-0.79375 0.30459v0.73713zm-11.896-0.79375h-0.58905l-0.17639-0.17639-0.17639-0.17638v-0.70556h1.4993l0.15815 0.15816 0.15816 0.15816-0.14237 0.37101-0.14236 0.371zm23.598-8e-3 -0.0661-8e-3 -0.92604-0.53937v-1.2966h-0.52917v-0.83154l0.79375-0.79375 0.0331 0.81264 0.0331 0.81265 0.0661 0.26459 0.0661 0.26458 0.1034 0.39688 0.45478-1.0583 0.0372 1.9844-0.0661-8e-3zm-10.763-2.8157-0.2664 0.2664-0.15193-0.39592-0.15192-0.39591 0.0771-2.2958 0.0771-2.2958 0.26458-0.0645 0.26459-0.0645 0.0766 2.4898 0.0766 2.4898zm9.4241-2.4888-0.31511-0.0209 0.66146-0.2669v-1.2788h-0.52917v-1.3229h0.52917v-1.2053l0.52916-0.45309 0.52917-0.45309-0.0209 0.72502-0.0209 0.72501-0.2669-0.66146h-0.36912l-0.078 1.9097-0.078 1.9097-0.25583 0.41395-0.31512-0.0209zm-10.368-3.6833h-0.41476l-0.1523-0.39688-0.15229-0.39687h-1.5309v-0.79375l-2.7781-0.0992-1.5787-0.033-0.0899-0.46302-0.0899-0.46303h-0.75495v-2.66l7.8052 0.1464 0.1514 5.1594zm11.376-3.4396h-0.39695l-0.0208-2.7781-0.15229-1.9206-0.1523-1.9206 0.63962-0.7707-0.3605-2.1338 0.42003-0.16118 0.42004-0.16118v-0.73714h-0.79375l-0.029-0.92604-0.1408-2.3071-0.8886-0.49728v-2.0904l-0.52917-0.52917-0.52916-0.52917h-0.79375v0.79375h-1.2917l-0.32935 0.53291 0.82729 0.31746v0.67099l-1.6536 0.33073h-0.99219v-1.0583h-0.79375v-0.79375h0.79375v-1.8521h-0.73203l-0.15448 0.59075-0.15449 0.59075-0.50168-0.52004-0.177-1.3229-1.7198-0.1658v-1.8186h0.7172l0.24513-0.8599 0.24513-0.85989 1.4384-0.1674v-0.75861h0.83785l-0.11002-0.33072-0.11003-0.33073-1.5438-0.33427 0.66146-0.0626-1.9e-4 -0.19844-1.9e-4 -0.19843-1.4548-0.21403-3.0496-0.018-0.61072 0.61072 0.88223 0.33855v1.5309h-1.5875v0.76746l-0.86891 0.48627-0.98317-0.25711v-0.68999l-1.5433-0.33896-0.29218-0.76142-0.67807-0.0224-0.64905-0.78255-0.64904-0.78255h-0.4217v1.5875h-0.42291l0.11292-0.9673 0.11293-0.96731-0.86128 0.33051-0.0313-0.98389-0.0314-0.98388 0.0858-0.66146h-0.81695v-0.73203l-1.0583-0.27676v-0.84329h-0.79375v-0.85547l-1.0339 0.27038 0.15851-0.79257 0.15852-0.79257-0.73832-0.4675-1.1906-8e-3v-0.79375h-1.5875v0.79375h1.6263l-0.0878 0.46302-0.0878 0.46303-1.1222 0.0813-1.1222 0.0814v0.49874l3.5719 0.102-3.4259 0.191-0.20125 0.31656-0.20124 0.31657-8e-3 -0.66146h-0.79375v-1.3063l0.3631 0.13933 0.3631 0.13934 0.25638-1.3412-0.28082-0.28082 0.0656-1.6082 0.0656-1.6082-0.89551-0.65481-0.1568-1.4286 0.63425 0.60129 0.63424 0.60129 0.01 1.2072 0.39687 0.15229 0.39688 0.1523v1.4692l1.1906 0.31908 1.134 8e-3 0.1425-0.37135 0.14251-0.37136-0.14506-0.55468-0.14505-0.55469h1.0634l0.15873 0.41365 0.15873 0.41364 0.26645-0.16468 0.26645-0.16467v-0.49794h-0.79375v-0.79375h-0.81036l-0.15229 0.39688-0.1523 0.39687h-0.73713v-0.79375h-0.79375v-1.5612l-0.43228-0.24191-0.43227-0.24191-0.25376-2.641 1.068-1.0025 0.0913-0.65876 0.0913-0.65875 1.0583-0.1924 0.49079-0.43571 0.49079-0.4357 10.023-0.1898 0.153-0.76499 0.153-0.76498h0.90054l-0.233 1.5875h0.7921l0.13838 0.52916 0.13838 0.52917h0.84329v0.79375h0.85036l-0.15229-0.39687-0.1523-0.39688h1.0417l0.0586 0.66146-0.0531 1.7859-0.0531 1.7859h0.84125l0.05-1.6536 0.05-1.6536 0.1942 3.1504-0.61012 0.47366-0.61012 0.47365 1.154 0.32008-0.14229 0.3708-0.14229 0.37081h1.115v1.115l0.39688-0.1523 0.39687-0.15229 0.0806 1.7032 0.0292 0.31205 0.0292 0.31206 0.4189 0.4189 0.49229-0.77843 8e-3 0.711-1.0583 0.27676v2.3361l-0.39687 0.1523-0.39688 0.15229v0.73714h-0.74965l-0.13345 0.33073-0.13346 0.33073-0.0418-0.66146h-0.85037l0.3193 0.83208-0.54588 1.02h-1.1137l-0.62878 0.8599-1.2816-0.01-0.26459-0.0592-0.26458-0.0592-1.4552 0.0626v0.49351l0.52917 0.16795 0.52916 0.16795v0.75809h0.49037l0.242-0.92604 0.0307 0.43021 0.0307 0.43022 4.8637 0.0886 1.7764 1.829h1.2974l0.0314 0.46303 0.0314 0.46302-0.0429 0.33073-0.0429 0.33072h0.8526l-0.1567-0.49373-0.15671-0.49374 1.3361 0.25541v0.48532l0.79375 0.77591 0.79375 0.77592v0.79497l-0.39688-0.15229-0.39687-0.1523v0.81914l0.4926 0.30444 0.16663-0.26961 0.16663-0.26962 1.0262 0.54922v0.77513h-1.0583v0.79375l1.9844 0.0614-0.46302 0.12101-0.46302 0.121v0.49036h1.6232l-0.14915-0.46992-0.14914-0.46992 2.1147 0.20167v0.73817h2.4308l0.13837 0.52917 0.13838 0.52916h0.73204v0.79375h-0.79375v0.81519l2.249-0.1196 0.13229-0.18627 0.13229-0.18626 0.34116 0.36759 0.34116 0.3676h-0.55003v0.85036l0.79375-0.30459-5e-3 0.85159-5e-3 0.8516-1.1815 1.0965-0.93258 0.34458 0.16424-0.65441 0.16425-0.65441h-0.63607l-0.13838 0.52916-0.13838 0.52917h-1.7904v0.46745l1.1044 0.2888-0.0922 0.47873-0.0922 0.47874-1.0523 0.108 0.92604-0.273v-0.75495h-2.6026l-0.83703 0.3212v0.43902l1.7198 0.21343-2.6194 0.0846 0.25136 0.24218 0.25135 0.24218 1.3229 0.23733-1.7198 0.072v1.8521l-0.63622-0.1322-0.1824 2.5135h0.81859v4.4979zm2.1545-10.87 0.56701 0.022 0.27846-0.72566 1.3289-0.33353 1.8623-1.7564-0.51891-0.4443-0.51891-0.44431h-0.52312v-0.55616l-1.8521-0.77385v-0.52207h-1.6041l-0.15229-0.39688-0.1523-0.39687h-1.961l0.0332 2.4807 0.8599 0.86751 0.85989 0.86752v1.076l0.92605 1.0142 0.567 0.022zm4.7247-1.5654h0.39688v-2.3812h-0.79375v2.3812zm1.074 0h0.11668v-0.82498l-0.5378 0.33238 0.30444 0.4926zm-13.621-3.46 0.50871-0.50871v-0.28997l1.4552-1.2808 1.1906-0.016v-1.0583h-0.7276l-0.15398-0.7276-0.15399-0.7276-1.8479-1.9844h-0.49953l-0.1784-0.46302-0.17839-0.46302-0.25994 0.46302-0.25993 0.46302h-1.1414l-1.6789 1.9428 0.59761 0.65101 0.1866-0.87398 0.71611-0.70968 0.71612-0.70968 1.4846-0.1682 0.28921 0.44753 0.2892 0.44754-0.92664 1.0239 0.4083 0.15667 0.4083 0.15668v1.5393l-0.36295 0.30121-0.36294 0.30122-0.15206 0.93706-0.15207 0.93707 0.27718 0.72232zm9.9191 0.0204h0.37918v-1.5875h-0.71322l-0.0452 1.5875h0.37917zm-2.2442-0.79375h0.19885l0.41851-0.1606 0.41851-0.16059v-0.47256h-1.5875v0.44098l0.17639 0.17638 0.17639 0.17639zm-8.2245-1.8521h0.26458v-0.79375h-0.52917v0.79375zm-1.8867-0.79375h0.26352l0.16795-0.52917 0.16795-0.52916h0.75809v-0.8289l-1.4552 0.1674-0.0829 0.8599-0.0829 0.85989zm1.8867-1.8521h0.26458v-0.52917h-0.52917v0.52917zm2.6458 0h0.26458v-0.79375h-0.52923v0.79375zm-11.306-1.8521h0.5293l1.2513-1.3502-7e-3 -0.31709-7e-3 -0.3171-1.823-1.3229-7e-3 -0.31315-7e-3 -0.31316-1.4552-0.1674-0.1638-1.1497 1.2221-0.23344-1.6853-0.072-0.67868-0.25803-0.67869-0.25804v-2.2118l-1.0748 0.97268-0.85066-0.85066 0.632-0.79912 0.63201-0.79911 0.60484-0.0292 0.13786-0.35925 0.13786-0.35926 1.6332-0.32664 0.66135 0.25144 0.66134 0.25145v0.78055l-0.92604 0.53937 2.808 0.016 1.4962-1.6381 0.98751 0.1902v1.8448l-1.3229 0.1826-0.94665 1.008h-1.0325l0.92086 1.0815 0.0855-0.40847 0.0855-0.40848h0.69834l0.13785-0.35925 0.13786-0.35925 1.633-0.3266v-1.2183l1.7198-1.5091 4e-3 -0.82573 4e-3 -0.82572-1.0662-0.90844-0.86942-0.018-0.1523 0.39688-0.15229 0.39687h-1.2219l-0.47886 0.55928-0.47887 0.55927-1.0796-0.17263-1.0796-0.17264-0.29743-0.40675-0.29742-0.40675-1.2475 1.6277h-2.3996l-2.2837-1.1055v-0.48197h-0.7697l-0.67348 0.67349-0.67349 0.67348v0.84366l-0.92604 0.70296 2.2249 0.016 1.347 1.347v0.50511h0.52206l0.74686 1.7875 0.29158 0.1802 0.29158 0.18021v1.0649l0.79375 0.79375v2.0789h0.73714l0.15229 0.39688 0.1523 0.39687h0.85918l1.3454 1.0583zm1.6483-2.6458h0.39687v-0.52917h-0.79375v0.52917zm4.3656 0h0.26459v-0.52917h-0.52917v0.52917zm-11.377-1.5875h0.26458v-0.79375h-0.52916v0.79375zm7.0115-1.0583h0.39687v-0.52917h-0.79375v0.52917zm-8.7156-0.79375h0.11668v-0.52917h-0.5604l0.16353 0.26458 0.16352 0.26459zm0.95453 0h0.22048v-0.79375h-0.49793l-0.14072 0.22768-0.14071 0.22768 0.1692 0.16919 0.16919 0.1692zm5.1814-5e-3 1.1245 5e-3v-1.5518l1.0583-0.33591v-0.4935h-2.6459v-1.8521h-0.73713l-0.14498 0.3778-0.14497 0.37779-1.4456 0.1704-0.1086 0.33072-0.1086 0.33073h0.83785v1.3806l0.59531 0.62803 0.59531 0.62804 1.1245 5e-3zm4.3178-0.0566 1.0392-0.0712 3.9e-4 -0.16976 3.8e-4 -0.16975-1.3679-0.34333-1.021 0.32406 0.3097 0.5011zm-10.293-0.73262h0.22048v-0.79375h-0.79375v0.44097l0.35278 0.35278zm11.277-0.22801 0.11142-0.33423-0.15986-0.15985-0.15985-0.15986-0.31757 0.31757 0.20723 0.33531 0.20722 0.3353zm-12.379-0.56574h0.23335l0.14499-0.23461 0.145-0.2346-0.74082-0.61482-0.34292 0.55486 0.16352 0.26458 0.16352 0.26459zm-6.0855-0.2641h0.26458v-0.52916h-0.52916v0.52916zm20.108 0h0.26459v-0.52916h-0.52917v0.52916zm0-0.79375h0.26459v-0.79375h-0.52917v0.79375zm0.94166 0h0.11668v-0.82498l-0.5378 0.33238 0.30444 0.4926zm-20.256-1.5875h0.26458v-0.79375h-0.52916v0.79375zm20.108-1.0583h0.26459v-0.79375h-0.52917v0.79375zm-20.108-0.26458h0.26458v-1.0583h-0.52916v1.0583zm14.673-0.58415 0.54005-0.0773-0.0579-0.26458-0.0579-0.26459-1.3394-0.1674v0.47612l0.3751 0.3751zm-6.8683-0.2096h0.39687v-0.52917h3.7042l-8e-3 -4.101-0.15954-0.59531-0.15954-0.59532h-1.5258v1.3969l-0.8746 0.63951 0.20258 0.32778 0.20257 0.32777 0.47002-0.12292 0.47002-0.12291 0.66485 0.4109-0.16815 0.43819-0.16815 0.43818-2.5189-0.1614-0.1344-0.92604-0.13439-0.92604-1.0541 0.1688-0.5875 0.75716h-0.60313v0.55012l1.069 1.0478 1.069 1.0479h-0.55055v0.52917zm-2.5352-0.52917h0.50752l0.83703-0.3212v-0.47255h-0.73713l-0.1606-0.41851-0.1606-0.41852v-1.015h-0.79375v0.60312l-0.92604 0.72018 0.92604 0.55507v0.76746zm11.099-0.057 0.38785-0.0753 0.22024-0.66146h-1.367v0.44097l0.18553 0.18554 0.18554 0.18553zm-2.3152-0.38582 0.84516-0.16903 0.97565-0.97565v-0.89489l-0.71464 0.97733-0.95167 0.033-0.95167 0.0331-0.1789 0.17891-0.17891 0.17891 0.15491 0.40368 0.15491 0.40369zm3.5406-0.61551h0.39688v-1.5875h-0.79375v1.5875zm1.7198 0h0.26459v-0.52917h-0.52917v0.52917zm-16.819-0.26459h0.90821l0.37312-1.1906 3.0719-3.0711 2.0146-0.31647 0.42317-0.71349h2.2983l0.1523-0.39688 0.15229-0.39687h2.1281l-0.90618-1.0583h-8.0279l-0.1523 0.39688-0.15229 0.39687h-2.1333l-0.52916 0.52917-0.52917 0.52917v1.2663l-0.79375 0.30459v1.0916l0.39688 0.15229 0.39687 0.1523v2.3246zm6.3678-0.52916h0.39688v-0.75047l-0.1606-0.41852-0.1606-0.41851h-0.47255v1.5875zm1.5875 0h0.44097l-0.1896-0.56886h-0.50271l-0.1896 0.56886zm3.7042 0h0.39687v-0.79375h-0.79375v0.79375zm-1.0583-0.79375h0.39687v-0.79375h-0.79375v0.79375zm1.1841-0.52917h0.27113v-1.3229h0.52917v-0.55129l-0.52917-0.56799-0.52916-0.568-0.52917 0.568-0.52917 0.56799v0.55129h0.54227l0.25148 0.66146 0.25149 0.66146zm-7.2695-0.52917h0.39687v-0.79375h1.8521v-0.79375h-1.8521v0.73714l-0.79375 0.30459v0.54577zm9.7799 0h0.31837l0.016-2.5135-0.26092-0.33073-0.26091-0.33073h-0.99354v0.48507l0.58121 0.1938 0.14068 1.2481 0.14068 1.2481zm-4.4882-0.79375h0.39687v-1.5875h-0.79375v1.5875zm-1.8521-1.0583h0.39688v-0.52917h-0.79375v0.52917zm3.175-0.79375h0.92604v-0.49794l-0.27962-0.17281-0.27962-0.17282-1.2928 0.32449v0.51908zm1.3229-0.79375h0.39687v-0.79375h-0.79375v0.79375zm-14.503 34.66-0.10923 0.66146-0.036-1.3891-0.036-1.3891h-0.79375v-5.0437l0.79375-0.30459 0.0209-0.43471 0.0209-0.43472 0.14781 0.37381 0.14781 0.3738-0.99885 0.76832 0.33073 0.12398 0.33072 0.12398v1.0142h-0.52916v2.6458h0.49351l0.16795 0.52917 0.16795 0.52916h0.75809l-0.0696 2.249-0.18448-0.92604-0.18449-0.92604-0.16459 0.39687-0.16458 0.39688-0.10924 0.66146zm34.06-7.1646-0.50712-0.0209 0.69453-0.27793 0.15985 0.15986 0.15985 0.15985-0.50711-0.0209zm-33.296-0.70672-0.15727 0.33073 0.13161-0.66146 0.13161-0.66145 8e-3 -0.39688h0.79375v1.0583h-0.74966zm2.2298-2.9002-1.3229 1.351v-1.4274h0.73203l0.13838-0.52917 0.13838-0.52916h0.84329v-0.79375h0.79375v-0.79375h0.73203l0.27676-1.0583h1.637v1.0583h-1.5309l-0.1523 0.39687-0.15229 0.39688h-0.81036v0.57748zm4.1286-4.646-0.15986 0.15985 0.0418-1.0142 0.13897 0.34727 0.13896 0.34726-0.15985 0.15986zm-9.7896-14.023-0.15985 0.15985 0.0209-0.50712 0.0209-0.50711 0.13896 0.34726 0.13896 0.34727zm-0.9536-1.5408-0.92604 0.0168 0.39687-0.26053 0.39688-0.26053-0.39688-0.26053-0.39687-0.26053 1.1906-8e-3v0.74966l0.66146 0.2669zm-0.41002-2.6209h-0.38373v-1.0583l1.9844 0.0418-0.79375 0.3004-0.42317 0.71615zm2.2154-1.4891-0.0856 0.36299-0.56344-0.57506 1.4895-1.456v-0.547h1.3063l-0.15229 0.39687-0.1523 0.39688h-0.67542l-0.13838 0.52916-0.13838 0.52917h-0.80449zm-2.2243-0.1193-0.50712-0.0209 0.34726-0.13897 0.34727-0.13896 0.3197 0.3197zm5.1897-2.0958h-0.52086l0.1523-0.39688 0.15229-0.39687h0.73714v0.79375zm1.6739-0.79375h-0.64246l0.5664-1.0583h1.5689v-0.79375h1.3063l-0.29218 0.76142-1.579 0.34682-0.14272 0.37192-0.14272 0.37193zm12.878 0h-0.25628l0.15229-0.39688 0.1523-0.39687h-0.78422l-0.15985-0.79927-0.15985-0.79926-1.5985-0.3197v-0.72761h-0.79375v0.79375h-0.79375v-1.0583h0.60312l0.33091-0.45255 0.33091-0.45254 0.68588 0.65098 0.68587 0.65099 5e-3 0.33072 5e-3 0.33073h0.79375v0.73204l1.0583 0.27676v1.637zm-0.4208-1.0583h0.11668l0.32704-0.52916h-0.56039v0.52916zm-1.7198-1.8521h0.2802v-0.52917h-0.23335l-0.16352 0.26459-0.16353 0.26458zm-0.77813-0.79375h0.26458v-0.52917h-0.52917v0.52917zm-6.7197 1.8521h-0.14288l0.15229-0.39687 0.1523-0.39688h0.77493l-0.39687 0.39688-0.39688 0.39687zm2.6539-0.81463-0.56445-0.0209 0.33073-0.13346 0.33073-0.13345v-0.74965h0.74421l-0.13838 0.52917-0.13838 0.52916z" fill="#b6886b"/>
  <path d="m268.01 230.04h-0.54478l0.16352-0.26458 0.16352-0.26459h0.76252v0.52917zm-2.6302-1.0583h-0.52916v-1.1404l1.0583 0.95778v0.1826zm-30.956-0.26459h-0.26458v-0.56039l0.52917 0.32704v0.23335zm-3.7604-1.0218-0.11141 0.33423-0.41446-0.6706 0.31757-0.31757 0.15986 0.15985 0.15985 0.15985zm2.2728 0.228h-0.24679l-0.90617-1.0583h0.44197l0.95778 1.0583zm-3.3658-1.2517-0.13177 0.32569 0.02-1.5875 0.12197 0.46806 0.12197 0.46805-0.13177 0.3257zm-1.8933-0.95313h-0.39688l-0.26458-0.26458v-0.97014h0.33854l0.70296 0.92604 0.016 0.30868zm2.521-1.2347h-0.1838l-0.35278-0.35278v-0.97014h0.46748l0.12645 0.66146 0.12644 0.66146zm6.643 0h-0.21219l-0.17638-0.17639-0.17639-0.17639v-0.44097h0.47255l0.15229 0.39687 0.1523 0.39688zm27.181-0.79375h-0.75807v-0.84329l-1.0583-0.27676v-0.73203h-0.79375v-1.5875h-0.79375v-1.0583h-1.0583v-0.79375h-0.79375v-0.73486l-0.92604-0.17372-0.92604-0.17373v-0.72567l0.33073-0.13823 0.33073-0.13822-0.72761-0.62137-0.7276-0.62137v-1.1947l-1.8521 0.34745v-1.3818h0.51783l-0.29907-0.65637-0.29906-0.65637-1.1103-0.3796-0.39688 0.1048v-0.79375h-1.0583v-1.5875l-1.1906-8e-3 0.36462-0.23095 0.36463-0.23095-0.18181-0.29417-0.1818-0.29416h-0.70515l-0.16873-0.67228-0.16874-0.67228-0.56126 0.34688 0.18568 1.849 0.18569 1.849-1.1171-0.35455-0.51648 1.3584h-0.54226v0.79375h-0.79375v1.1149l0.79375-0.30459v0.76202l-1.7198 0.45515-0.1764-0.44002h-0.75103l-0.98755 1.0931-0.98755 1.0931-8e-3 0.68216-1.6746 1.8942h-0.79481l-0.1764-0.4856-1.4552 0.2827v0.73206h-2.6458v-0.81998l-0.88663-0.91292-0.88662-0.91293h-1.6351l-0.17453-0.28239-0.17453-0.2824 1.1116-0.29068 0.0418-1.9227 0.12328 0.30023 0.12329 0.30023 1.295-0.60046 4e-3 -0.8765 1.0782 0.28195-0.10574-0.95949-0.10573-0.9595h0.98538v-1.1172l1.9236 0.36086-0.28654-1.0957h0.9647l0.1764-0.4473 1.4668-0.35945 0.15479 0.40338 0.15479 0.40337h0.73713v-1.7918l-1.8919-0.89777 0.30442-0.75002 0.1606-0.39688 0.1606-0.39687h-0.85037v-0.85547l1.0874 0.28435 0.23676-0.62273 0.23677-0.62273 1.7464-0.1678-0.1322-0.66146h2.0112l0.71215 0.33073 0.71214 0.33073 2e-3 0.59531 2e-3 0.59532h0.79375v0.7015l1.2247 1.1506h0.62735v-1.0583h-0.82128l-0.2693-0.77254-0.26931-0.77254-0.75678-0.2904v-0.78406l0.92605-0.51703 0.18639-3.3926 0.18639-3.3927 0.0561-0.33073 0.0562-0.33073h2.2364l0.15229-0.39687 0.1523-0.39688h1.5396l0.80864-1.1906-0.0413 0.52916-0.0413 0.52917 0.75896 0.0868 0.75895 0.0867-0.11202-0.95955-0.11202-0.95956 1.6166 0.1582 0.0736 3.9624 0.0736 3.9624 0.35405 0.19813 0.35404 0.19813-0.12324 0.64471-0.12325 0.64471 1.1111 0.59463v1.0397h0.95208l-0.22548 1.9314 1.1255-0.29432v2.1288l0.94277-0.24654-0.10345 0.88616-0.10346 0.88616h1.0246l-0.23734 1.6171 1.2296 1.3089 0.68686-0.26357v0.74148l0.52916 0.16795 0.52917 0.16796v0.4935h0.79375v1.4288l-0.635-0.635h-0.42333v1.0583h1.7859l0.14341 0.7276 0.14342 0.7276-0.14471 0.74604-0.14472 0.74604 1.8774-0.35219 0.1758 1.2414-0.0912 1.5527-0.0912 1.5527-1.0082 0.26364v0.73204h-0.57799l-1.3455 1.0583zm-8.9602-27.252h0.56597l-0.0845-0.59532-0.0846-0.59531h-0.79375l-0.0846 0.59531-0.0846 0.59532zm-15.966 23.766-0.43802 0.0856v-0.34119l0.75595-0.75595h0.25556l-0.1354 0.92604zm20.067 0.0468h-0.39688v-0.81036l-0.79375-0.30459v-0.83614l1.5875 1.5209v0.43017zm-31.75-1.0583-0.39688 0.32938v-1.1231h0.79375v0.46438zm44.377-1.5041-0.53591 0.48026-0.37036-0.59926 1.1116-0.29068v-0.73203h0.79375v-0.73203l1.0735-0.28074-0.1474-0.69446 1.1831-0.1806-2.5723 2.5494zm9.0993-1.6709h-0.10186l-0.43341-0.66146-0.4334-0.66145h1.0705v1.3229zm-32.067-3.7042h-0.41893l0.10473-0.3142 0.10474-0.31419 0.62838-0.20946v0.83785zm-9.8649-3.868-0.49428 0.44732 0.2565-1.3418h0.73206v0.44715zm-1.5122-5.9424-0.55121 0.0209-0.1692-0.16919-0.16919-0.1692 0.28142-0.45536h0.79375l-0.14955 0.24199-0.14956 0.24198 0.33238 0.134 0.33238 0.13401-0.55122 0.0209zm-5.5342-0.77286h-0.39687v-0.77714l0.39687 0.15229 0.39688 0.1523v0.47255zm-4.302-0.59447-0.32794 0.10931-0.28866-0.75224 0.0781-2.0933 0.078-2.0933h0.79375l-3e-3 2.3601-3e-3 2.3601zm2.7145-15.702-0.66146 0.4334v-1.0705h1.0583v-1.5669l-0.54809-0.51061-0.54808-0.51062 0.0851-0.88875 0.0851-0.88876 0.79375-0.014 0.64462 0.80731 8e-3 -0.19584 8e-3 -0.19585 1.0119 0.86638-0.13737 0.35797-0.13736 0.35797h0.46747l-0.10093 1.0583-0.10093 1.0583h-0.63366l-0.63367-3e-5v0.46831zm26.931-4.0469-0.24362 0.24362-0.3616-0.3616v-2.5889l0.24157 0.14929 0.24156 0.1493 0.18285 1.0823 0.18286 1.0823zm3.6168-2.4518-0.62485 0.0916 0.31577-0.38049 0.31578-0.38048-0.34819-0.34819h1.0997l-0.1334 0.92604zm-30.52-0.75302h-0.36857l-0.3212-0.83702v-4.7192l0.92605-0.061 0.92604 0.0942v-1.8854h0.79375v-1.0088l1.1419 0.29861-0.14053-0.53741-0.14054-0.53741 1.0748 0.28107-0.26562-1.0157 2.0341 0.194v0.72156l-0.34121-0.13093-0.34121-0.13094-0.69836 1.9313 0.71933 0.45576-0.68673 8e-3 -1.2976 1.4002v0.98106h-0.73713l-0.1523 0.39687-0.1523 0.39688h-0.81035v3.175h-0.79375v0.52916zm32.648-0.18798-0.52891 0.13831-0.14816-0.23975-0.14817-0.23974h0.59162l-0.16352-0.26459-0.16352-0.26458h1.0896v0.73203zm-7.1927-0.93617-0.44556 0.0979 0.149-1.4436 0.149-1.4437-0.56334-0.30148-0.56333-0.30149v-1.0397h0.79375v1.3795l0.37498-0.1439 0.37497-0.14389 0.14589 0.38017 0.14588 0.38017h-0.57045l0.1189 0.85989 0.1189 0.8599 0.10848 0.38116 0.10849 0.38116zm0.0487-7.0779h-0.52916v-0.79375h1.0583v0.79375zm-18.681-4.4979h-0.36857v-0.79375h1.0417l-0.1523 0.39688-0.15229 0.39687zm10.728-0.79375h-0.51355v-1.0232l-1.4552-0.1674v-0.52917l2.3186-0.1662-0.15136 0.39445-0.15136 0.39444 0.75647 0.62781-0.28999 0.46921zm-19.653-8.6651-0.13345 0.33073-0.0209-0.59531-0.0209-0.59532h0.76252l0.16353 0.26459 0.16352 0.26458h-0.78089zm-0.70439-6.1516h-0.52917v-0.81237l0.52917 0.2832 0.52916 0.2832v0.24597zm9.2363-9.7896h-0.22388l0.15229-0.39687 0.1523-0.39688h0.80193l-0.32938 0.39688-0.32938 0.39687zm3.4555-1.0122-1.0665 0.1017 0.0765-0.40464 0.0765-0.40465 1.98-0.1642v0.77011z" fill="#658ab7"/>
  <path d="m236.86 229.71-5.8933 0.0712-0.15424-0.40195-0.15425-0.40195h-0.73713v-0.79375h-0.79375v-0.99662l-1.0583-0.27676-8e-3 -0.75237-8e-3 -0.75238-0.77692-1.0272v-4.7481l0.43605-0.98832 0.43604-0.98832 3.3612-0.35996v-2.0876l0.67868-0.25804 0.67868-0.25803h0.49472v0.99661l-1.1116 0.29068 0.17453 0.2824 0.17453 0.28239h1.6351l1.7732 1.8258v0.81998h2.6458v-0.79375h0.75047l0.41851-0.1606 0.41852-0.1606v1.115h-0.94152l-0.7628 1.0583h-0.62032l-0.28994 0.75558-1.4865 0.1704-0.0791 0.94098-0.0791 0.94099 0.5419 1.4253h3.7339l0.14609 0.38071 0.14609 0.3807 1.5433 0.33897v0.7517h0.819l-0.0788 1.6536-0.0788 1.6536zm-4.4916-0.73673 1.6536-4e-3 0.39254-0.24821 0.39255-0.2482-1.8856-0.78783-0.66549-0.80186-1.5413 0.30826v-2.6062l-0.21998-0.25135-0.21998-0.25136-0.31981-1.1245-0.31981-1.1245h-0.49279l-0.20987-0.80989-0.20986-0.80989-0.52144 0.0288-0.0768 2.1184-0.0769 2.1184h0.73021l0.30706 0.67391 0.30705 0.67391v0.74158l1.3229 1.4274v0.98107l1.6536-4e-3zm36.065 0.73239-1.7356-0.0263v-0.70203h-0.70151l-1.1506-1.2247v-0.62736h-0.79375v-2.6458h-0.79375v-0.79375h-0.81036l-0.33984-0.88562-0.48324-0.48323-0.48323-0.48323h-0.52917v-1.6041l-0.92604-0.32452-1.7198-1.6148v-0.68995h0.79375v0.79375h0.79375v0.79375h1.0583v1.0583h0.79375v1.5875h0.79375v0.73203l1.0583 0.27676v0.84329h1.5161l0.67273-0.52917 0.67273-0.52916h0.57799v-0.73204l1.0583-0.27676v-1.3724l0.39688-0.0338 1.8002-0.1756 0.4751-0.84895h0.76746l6e-3 -0.92604 1.7384-1.7113 1.7384-1.7113 5.1765-0.20792 0.86486 1.2348v1.4698h-0.79375v-0.79375h-0.79375v0.72895l0.39688 0.32938 0.39687 0.32938v1.2581h-0.79375v1.1281l-1.8521 1.7467v0.58131l-0.39688 0.1523-0.39687 0.15229v0.73714h-0.79375v0.79375h-1.0583v0.81036l-0.79375 0.30459v1.2097l-0.83702 0.3212h-1.0151v0.73714l-0.79375 0.30459v0.81035h-0.73713l-0.1448 0.37734-0.1448 0.37733-1.7356-0.0263zm-2.1325-12.105h-0.39688v-1.0583h0.79375v1.0583zm-23.078-1.0583h-0.30669l-0.12514-0.20249-0.12515-0.20248 2.0903-2.2409h0.77463v0.79375h-0.79375v0.44686l-0.60373 0.70261-0.60374 0.70261zm13.685 0h-0.52917v-1.0583h0.42333l0.635 0.635v0.42333zm-1.1906-1.8521h-0.39687v-0.79375h0.79375v0.79375zm8.7506 0h-0.41627v-1.1024l0.66146 0.22024 0.0855 0.4411 0.0856 0.4411zm-30.184-0.62021-0.6594 0.30584v-1.2731h1.3229l-2e-3 0.33072-2e-3 0.33073-0.65939 0.30584zm12.595-0.70271h-0.28935v-1.0583h0.79375v-0.79375h0.54226l0.25966-0.68297 0.25967-0.68296 0.3291 0.10837 0.3291 0.10838 0.0797 0.53799 0.0798 0.53798-1.8162 0.86187-0.2781 1.0634zm-11.27-0.26458h-0.39688v-0.79375h0.79375v0.79375zm18.647-0.26459h-0.52349v-0.79375h-0.76252l-0.32704-0.52916 0.3147-0.50922 1.2457 0.56757 0.57618 1.2646zm8.5185-1.3229h-0.21846l-1.1506-1.2247v-1.4211h0.79375v1.5875h0.79375v1.0583zm-24.52-1.0583h-0.39687v-0.79375h0.79375v0.79375zm0.7717-1.0583h-0.37482v-0.72896l0.38379-0.31852 0.3838-0.31852 0.1584-2.735 1.2651-0.1788-0.16954 0.42016-0.16953 0.42016-0.30442 0.75002 0.94596 0.44888 0.94596 0.44889v1.7918h-0.73713l-0.15479-0.40337-0.15479-0.40338-0.73342 0.17973-0.73341 0.17972-0.1764 0.4473zm12.325 0h-0.26459v-0.52917h0.52917v0.52917zm-1.1906-0.79375h-0.92604v-1.8209l0.25683-0.15872 0.25682-0.15873 0.32492 1.2946 0.50676 0.13252 0.50675 0.13252v0.57871zm10.848 0h-0.39688v-1.5875h-0.79375v-1.8962l0.66146 0.21714 0.1658 1.679h0.76022v1.5875zm-12.125-2.3812h-0.35076l-1.1506-1.2247v-0.62735h-0.79375l-2e-3 -0.59532-2e-3 -0.59531-1.4243-0.66146h-1.2174v-1.5309l0.82297-0.3158-0.0807-1.2595-0.0808-1.2595-1.1395-0.1624-0.40128 0.5729-0.40127 0.57291-0.28573-0.1766-0.28573-0.17658v-1.2351l0.41852-0.1606 0.41851-0.16059h1.8088v-5.2917h-0.79375v3.4084l-0.19843 0.1067-0.19844 0.1067-1.1245-0.11887-1.1245-0.11888v-0.70464l-1.7198-0.1658-0.0837-0.7276-0.0837-0.72761h0.77228l0.1523 0.39688 0.15229 0.39687h0.81036v0.82728l1.7198-0.1658v-3.175l-3.5719-0.1564v1.6117h-0.79375v-2.6458h-0.76586l-0.0801-3.7467-0.0801-3.7467 0.92604-0.24126v-0.99662h0.79375v-0.83255l0.92604 0.1784v1.5803l-1.7198 0.1658v2.2911l0.79375 0.30459v0.81036h7.9375v0.73203l1.0583 0.27676 0.0626 8.1193-0.1602 0.52916-0.14969 3.2604-0.14968 3.2604-0.46303 0.25852-0.46302 0.25851v0.78406l0.75678 0.2904 0.26931 0.77254 0.2693 0.77254h0.82128v1.0583zm-2.6869-4.4979h0.39184v-0.73713l0.39687-0.1523 0.39688-0.15229v-0.81036h-0.79375v-0.83255l-0.46302 0.0882-0.46302 0.0883-0.1762 1.239 0.15926 0.63454 0.15926 0.63455zm0.94017-3.6175 0.2664-0.2664-0.1532-4.9796-0.52917 0.129-0.0771 2.2958-0.0771 2.2958 0.15192 0.39591 0.15193 0.39591zm-0.94393-6.1721h0.41476l-0.1514-5.1594-7.8052-0.1464v2.66h0.75495l0.0899 0.46303 0.0899 0.46302 1.5787 0.033 2.7781 0.0992v0.79375h1.5309l0.15229 0.39687 0.1523 0.39688zm12.963 13.229h-0.39688v-1.5875h0.79375v1.5875zm-18.184-0.55006-0.0727-0.0209-0.66146-0.2669v-1.0142h-0.83785l0.11024-0.33073 0.11025-0.33073h3.5278l0.0661 0.26459 0.0661 0.26458-1.7464 0.1678-0.24474 0.64371-0.24474 0.6437-0.0727-0.0209zm17.39-1.302h-0.39688v-1.0397l-0.52917-0.2832-0.52916-0.28321v-1.0397h0.84329l0.13838 0.52917 0.13838 0.52916h0.73203v1.5875zm-19.645-0.81464-0.7276-0.0209-0.66476-0.26801 0.14956-0.24198 0.14955-0.242h1.8209v0.79375l-0.72761-0.0209zm-3.9604-0.78674-2.0589-0.0139-1.1906-0.83054v-8.8696l1.0583-0.27676v-4.812h0.79375v2.3812h0.79375v1.8521h-0.79375v2.5841l-1.0788 0.2821 0.0764 2.4695 0.0764 2.4695 1.7736 0.0779 1.7736 0.078 0.0785-1.7977 0.0785-1.7978h0.52916l0.0745 3.1089 0.0746 3.1088-2.0589-0.0139zm-0.45563-0.77987h0.58906l0.14236-0.371 0.14237-0.37101-0.15816-0.15816-0.15815-0.15816h-1.4993v0.70556l0.17639 0.17638 0.17639 0.17639zm-5.6382-0.18361-0.19844 0.1122-0.33073-0.11863-0.33073-0.11864v-0.74965h1.0583v0.76252zm15.048 0.18361h-0.23219l-0.58937-0.71015 0.1741-0.17409 0.17409-0.17409h0.70555v1.0583zm12.932-0.79375h-0.26458v-1.0583h0.52917v1.0583zm-28.178-3.7042h-0.39688v-4.5367l0.92605 0.1784-0.0221 0.4594-0.0221 0.45939-0.0441 1.7198-0.0441 1.7198zm26.591 0h-0.56597l0.0846-0.59532 0.0846-0.59531h0.79375l0.0846 0.59531 0.0845 0.59532zm-19.429-1.8521h-0.41445v-1.6316l0.66146 0.2172 0.1674 1.4144zm14.374 0h-0.76544v-0.79375h1.5258l0.14493-0.55419 0.14492-0.55419 0.87812 0.18822 0.87813 0.18823 0.1852 0.1676-0.1744 0.28219-0.1744 0.28218h-1.5729l-0.1523 0.39688-0.15229 0.39687zm4.1617-0.79375h-0.66261l-0.2996-0.48476 0.5345-1.4058 0.9245 0.1752 0.1658 1.7155zm-19.612-1.0583h-0.39688v-0.79375h0.79375v0.79375zm22.121 0h-0.23627l-0.1523-0.39688-0.15229-0.39687h-0.81036v-0.79375h0.79375v-0.76746l0.74284-0.42317 0.0916-0.65875 0.0916-0.65876 0.92604-0.1764v2.1606l-1.0583 0.90617v1.2053zm-27.28-2.6458h-0.26458v-3.1973l0.66146-0.80044 0.73564-0.79659 0.73565-0.79658 1.1745 0.167 0.169 1.1906h-1.8889v0.79375h-1.0583v3.4396zm27.368-5.1162-0.28112 0.10014-0.15523-0.15523-0.15523-0.15524 0.13977-1.5414 0.13977-1.5414-0.56332-0.17879-0.56331-0.17879v-2.2183l-1.0583-0.66094v-1.9216l-0.46302-0.34378-0.46302-0.34379 0.63032-1.0335-0.16082-0.16082-0.16082-0.16081h-2.5576v-0.73367l2.3812-0.35709v-0.70471l-0.82728-0.31746 0.16467-0.26645 0.16468-0.26646h1.2917v-0.79375h0.79375l1.0895 1.0895-0.1634 1.6478-0.66146 0.21714v-1.367h-0.79375v1.0397l1.1267 0.60297-0.149 1.4437-0.149 1.4436 0.89112-0.1958-0.10849-0.38116-0.10848-0.38116-0.1189-0.8599-0.1189-0.85989h1.0922l0.16312 0.86951 0.16312 0.86952-0.0502 0.25496-0.0502 0.25497 0.0626 1.1906h0.79375v0.73714l-0.42075 0.16146-0.42075 0.16145-0.54348-0.33588 0.19122 2.6716 0.19122 2.6716 0.0383 0.44356 0.0383 0.44357zm-23.686-2.5567h-1.0804l0.10853-0.32562 0.10854-0.32561 0.97185-0.22984 0.97184-0.22983v-0.74119h-1.6041l-0.15229-0.39687-0.1523-0.39688h-0.70033l-0.0846 0.59532-0.0845 0.59531h-0.52917l-0.0788-1.6536-0.0788-1.6536h0.819v0.99661l1.0583 0.27676v0.84329h1.5875v0.79375h1.8909l-0.0877 0.46303-0.0877 0.46302-1.7155 0.1658v0.76022zm26.597-3.7042h-0.91043v-0.51908l1.3217-0.33174 0.82847 0.31792-0.16468 0.26645-0.16467 0.26645zm-18.761-0.79375h-0.42195l-0.14636-0.38142-0.14637-0.38142 0.0922-0.47848 0.0922-0.47847h0.7865l0.0829 0.8599 0.0829 0.85989zm21.174-0.26458h-0.67708v-0.52917h1.0271l0.16352 0.26458 0.16352 0.26459zm-32.692-0.52917h-0.26458v-2.6458h0.52916v2.6458zm34.156 0h-0.28935v-0.81036l0.79375-0.30459v-2.3246h0.79375v2.3812h-0.73204l-0.13838 0.52916-0.13837 0.52917zm-31.618-0.79375h-0.42164v-1.8521h0.81035l0.1523-0.39688 0.1523-0.39687h0.73713v-0.98106l0.68672-0.74099 0.68672-0.74098 0.47054 0.74324 4e-3 0.33073 4e-3 0.33072h-1.0583v0.73714l-0.39687 0.1523-0.39688 0.15229v1.6041h-0.73203l-0.13838 0.52916-0.13838 0.52917zm18.827-2.6667-0.0661-0.0209-0.66146-0.2669v-0.74966h-0.79375v-1.5258l-1.0583-0.27676v-0.84329h-0.79375v-0.79375h-0.79375v-2.6458h0.79375v-1.8521h0.97014l0.35393-0.35393-0.43347-0.47897-0.43347-0.47898 0.47115-0.1808 0.47116-0.18079 0.60567 0.8283 1.2607 0.1838 0.10892 0.33073 0.10892 0.33072h-0.83785v0.75861l-1.4384 0.1674-0.49026 1.7198h-0.7172v1.8186l1.7198 0.1658 0.177 1.3229 0.50169 0.52004 0.15448-0.59075 0.15449-0.59075h0.73203v1.8521h-0.79375v0.79375h0.79375v1.0583l-0.0661-0.0209zm12.502-0.2437h-0.79375v-0.79375h0.75047l0.83703 0.3212v0.47255zm-32.147-0.79375h-0.39687v-0.79375h0.79375v0.79375zm30.692 0h-0.39688v-0.79375h0.79375v0.79375zm-2.2265-0.79375h-0.19885l-0.17639-0.17639-0.17639-0.17638v-0.44098h1.5875v0.47256l-0.83702 0.32119zm-24.298-0.84149-0.59531 0.0845v-0.39611l0.31913-0.88255 0.31913-0.88254 0.55236 0.1842v1.808zm-3.3734-0.21684h-0.39687v-0.1998l0.39687-0.32938 0.39688-0.32937v0.85854zm25.268 0h-0.79375v-0.46745l0.57508-0.15039 0.57509-0.15038 0.43733 0.27028v0.49794zm-24.209-0.79375h-0.39688v-0.79375h0.79375v-0.79375h0.79375v-1.0583h1.0583v-0.79375h1.0142l0.1296 0.33073 0.12961 0.33073 0.3802-1.7198h0.66871l0.17373 0.92605 0.17373 0.92604h1.5635v-2.6458h-1.5875v-1.5875h0.4217l1.2981 1.5651 0.67807 0.0224 0.29218 0.76142 1.5433 0.33896v0.7517h-1.5309l-0.1523 0.39688-0.15229 0.39687h-0.40518l-0.40518 3e-5v1.0583h-0.79375v0.83255l-0.92604-0.1754-0.1658-1.7155h-0.76023v1.0583h-2.6458v0.79375h-0.79375v0.79375zm18.389 0h-0.26459v-0.79375h0.52917v0.79375zm-1.8867-0.79375h-0.26352l0.0829-0.85989 0.0829-0.8599 1.4552-0.1674v0.8289h-0.75809l-0.16795 0.52916-0.16795 0.52917zm-5.1909-0.85822-0.33073 0.10857v-1.1024h-0.79375v-0.73714l0.79375-0.30459v-0.81036h1.5875v-1.3969l-0.92604-0.682 0.96161-0.37264 0.59943 0.59943h1.2171v1.0583h-0.79375l-0.01 0.66146-0.62803 0.59532-0.62803 0.59531h-0.55335l-0.1658 1.679-0.33073 0.10857zm10.843-0.15587-0.30882 0.30883-0.17365-0.45253-0.17366-0.45253 0.33878-0.33878 0.62618 0.62618zm-3.7658-0.83799h-0.26459v-0.52917h0.52917v0.52917zm2.6458 0h-0.26458v-0.79375h0.52916v0.79375zm-1.7198-1.8521h-0.44097l0.0948-0.28442 0.0948-0.28443h0.5027l0.0948 0.28443 0.0948 0.28442zm-7.9375-2.6458h-0.39688v-0.52917h0.79375v0.52917zm-0.95473-0.79375h-0.2359v-0.75809l-1.0583-0.3359v-0.43345l0.8054-0.11821 0.8054-0.1182 0.12874 0.2083 0.12873 0.2083-0.16907 0.67362-0.16907 0.67363zm-6.0567-0.79375h-0.26458v-0.79375h0.52916v0.79375zm7.0115-1.0583h-0.39688v-0.52917h0.79375v0.52917zm-7.7611-0.79375h-0.22049l-0.16919-0.1692-0.1692-0.16919 0.14071-0.22768 0.14072-0.22768h0.49793v0.79375zm5.1814-5e-3 -1.1245-5e-3 -1.1906-1.2561v-1.3806h-0.83785l0.1086-0.33073 0.1086-0.33072 1.4456-0.1704 0.14497-0.37779 0.14498-0.3778h0.73713v1.8521h2.6458v0.4935l-0.52916 0.16796-0.52917 0.16795v1.5518zm3.9026 5e-3h-0.63023l-0.31746-0.51366 1.3145-0.32991 0.28393 0.17548 0.28394 0.17549-0.15222 0.2463-0.15223 0.2463zm-9.8778-0.79375h-0.22049l-0.35278-0.35278v-0.44097h0.79375v0.79375zm11.277-0.22801-0.11141 0.33424-0.41445-0.67061 0.31757-0.31757 0.15985 0.15986 0.15986 0.15985zm-14.099-0.70716-0.26459 0.0323-3.5719-0.1796v-0.47457l1.1222-0.0814 1.1222-0.0813 0.0878-0.46303 0.0878-0.46302h-1.6263v-0.79375h1.5875v0.79375l1.1906 8e-3 0.35388 0.2243 0.35388 0.22431-0.0893 0.61081-0.0893 0.61082zm1.7198 0.14142h-0.23336l-0.16352-0.26459-0.16352-0.26458 0.34292-0.55486 0.74082 0.61482-0.145 0.2346-0.14499 0.23461zm-6.0413-1.0583h-0.22049l-0.15816-0.15815-0.15816-0.15816 0.28474-0.74202h0.47255v1.0583zm20.064 0h-0.26458v-0.79375h0.52917v0.79375zm-19.315-1.5875h-0.26458v-0.79375h0.52916v0.79375zm2.1545-0.82444-0.6993-0.0307-0.92604-0.242v-1.4921l-0.79375-0.30459v-1.3561l-0.38681-0.14843-0.3868-0.14843-0.15846-0.49927-0.15847-0.49928-1.5553-0.91874v-0.67966h-1.0583v-1.5875h0.81036l0.14609-0.3807 0.14609-0.38071 1.5433-0.33896v-0.68999l1.0583-0.27676v-0.84329h0.73713l0.1523-0.39688 0.15229-0.39687h1.3395v-0.79375h1.7955l0.14272-0.37193 0.14272-0.37192 1.579-0.34682 0.29218-0.76142h1.4302l0.47008-0.42542 0.47009-0.42542 4.2601-0.0752 7.6e-4 -0.66146h0.79375v0.79375h1.0583v0.79375h0.79375v1.0583h0.83785l-0.10876 0.33073-0.10875 0.33073-2.1472 0.1598-0.15025 0.75126-0.15026 0.75125-10.023 0.1898-0.98158 0.87141-1.0583 0.1924-0.0913 0.65875-0.0913 0.65876-1.068 1.0025 0.25376 2.641 0.86455 0.48382v1.5612h0.79375v0.79375h0.73713l0.1523-0.39687 0.15229-0.39688h0.81036v0.79375h0.79375v-0.76746l-0.46302-0.27753-0.46302-0.27754 0.92604-0.72018v-0.60312h0.79375v1.015l0.1606 0.41852 0.1606 0.41851h0.73713v0.47255l-0.41851 0.1606-0.41852 0.1606h-0.95843l-0.359 0.92604-0.682-0.92604h-0.92942l0.14505 0.55469 0.14506 0.55468-0.14251 0.37136-0.1425 0.37135zm17.954-0.23389h-0.26458v-0.79375h0.52917v0.79375zm-5.4348-0.84873-0.54006 0.0773-0.3751-0.3751v-0.47612l1.3394 0.1674 0.0579 0.26459 0.0579 0.26458zm-6.8683-0.2096h-0.39688v-0.52917h0.79375v0.52917zm8.5641-0.58617-0.38785 0.0753-0.18554-0.18553-0.18553-0.18554v-0.44097h1.367l-0.22024 0.66146zm1.2254-1.0013h-0.39687v-1.5875h0.79375v1.5875zm1.7198 0h-0.26458v-0.52917h0.52917v0.52917zm-10.451-0.79375h-0.39687v-1.5875h0.47255l0.1606 0.41851 0.1606 0.41852v0.75047zm1.5875 0h-0.44097l0.1896-0.56886h0.50271l0.1896 0.56886zm3.7042 0h-0.39688v-0.79375h0.79375v0.79375zm-1.0583-0.79375h-0.39688v-0.79375h0.79375v0.79375zm-6.0854-1.0583h-0.39688v-0.54577l0.39688-0.1523 0.39687-0.15229v-0.73714h1.8521v0.79375h-1.8521v0.79375zm5.2917-0.79375h-0.39688v-1.5875h0.79375v1.5875zm-1.8521-1.0583h-0.39687v-0.52917h0.79375v0.52917zm3.175-0.79375h-0.92604v-0.51908l0.64642-0.16225 0.64642-0.16224 0.55924 0.34563v0.49794zm1.3229-0.79375h-0.39688v-0.79375h0.79375v0.79375zm1.8741 0h-0.41892v-0.83785l0.62838 0.20946 0.10473 0.3142 0.10473 0.31419z" fill="#3c4134"/>
 </g>
 <g fill="#000000" font-family="sans-serif">
  <g font-size="10.583px" stroke-width=".26458" text-anchor="middle">
   <text id="justificacion" x="71.75705" y="29.518719" style="line-height:1.25" xml:space="preserve"><tspan x="71.75705" y="29.518719" text-align="center">Realidad Permanente</tspan><tspan x="71.75705" y="42.747845" text-align="center">Salvo de la</tspan><tspan x="71.75705" y="55.976967" text-align="center"><tspan font-weight="bold">Pena</tspan> del Pecado</tspan><tspan x="71.75705" y="69.206093" text-align="center">Tito 2:11</tspan><tspan x="71.75705" y="82.435219" text-align="center">Colosenses 3:1</tspan><tspan x="71.75705" y="95.664345" font-weight="bold" text-align="center">Justificaci칩n</tspan></text>
   <text id="santificacion" x="246.84868" y="60.437946" style="line-height:1.25" xml:space="preserve"><tspan x="246.84868" y="60.437946" text-align="center">Realidad Presente</tspan><tspan x="246.84868" y="73.667076" text-align="center">Salvo de la</tspan><tspan x="246.84868" y="86.896202" text-align="center"><tspan font-weight="bold">Poder</tspan> de pecado</tspan><tspan x="246.84868" y="100.12532" text-align="center">Tito 2:12</tspan><tspan x="246.84868" y="113.35445" text-align="center">Colosenses 3:2-3</tspan><tspan x="246.84868" y="126.58357" font-weight="bold" text-align="center">Santificaci칩n</tspan></text>
   <text id="glorificacion" x="417.41061" y="27.561911" style="line-height:1.25" xml:space="preserve"><tspan x="417.41061" y="27.561911" text-align="center">Realidad Futura</tspan><tspan x="417.41061" y="40.791035" text-align="center">Salvo de la</tspan><tspan x="417.41061" y="54.020161" text-align="center"><tspan font-weight="bold">Presencia</tspan> de Pecado</tspan><tspan x="417.41061" y="67.249283" text-align="center">Tito 2:13</tspan><tspan x="417.41061" y="80.478409" text-align="center">Colosenses 3:4</tspan><tspan x="417.41061" y="93.707527" font-weight="bold" text-align="center">Glorificaci칩n</tspan></text>
  </g>
  <text id="el_creyente_en_el_tiempo" x="122.66277" y="250.51254" font-size="19.746px" stroke-width=".49365" style="line-height:1.25" xml:space="preserve"><tspan x="122.66277" y="250.51254" stroke-width=".49365">El creyente en el tiempo...</tspan></text>
  <text x="155.8461" y="271.05963" font-size="10.583px" stroke-width=".26458" style="line-height:1.25" xml:space="preserve"><tspan x="155.8461" y="271.05963" stroke-width=".26458">mas el justo por su fe vivir치 Hab 2:4</tspan></text>
 </g>
 <path id="cross" d="m66.103 123v27.257h-24.265v14.958h24.265v62.491h15.291v-62.491h24.265v-15.051l-24.099 0.25888-0.0868-13.711-0.0868-13.711h-7.6414z" fill="#f5cb44" stroke-width=".3324"/>
 <path id="cloud" d="m426.86 107.97c-0.63585 8e-3 -1.2912 0.0618-1.9802 0.15761-2.4984 0.34749-5.717 1.5082-5.717 2.0619 0 0.17109-0.13057 0.23057-0.29043 0.13178-0.15981-0.0988-0.67429 0.17586-1.1431 0.61029-0.46876 0.43444-0.91829 0.72398-0.99891 0.64338-0.24122-0.24125-3.54 3.621-3.3522 3.9248 0.0953 0.15412 0.033 0.28008-0.13849 0.28008-0.17142 0-0.49784 0.44891-0.72503 0.99736-0.50369 1.2161-0.75915 1.2431-1.4718 0.15555-0.30324-0.46287-0.69442-0.75346-0.86918-0.64544-0.17481 0.10804-0.31782 0.0448-0.31782-0.14056 0-1.0144-4.296-0.60935-4.9005 0.46199-0.1978 0.3506-0.42992 0.28643-1.0826-0.29818-0.45704-0.4094-0.98094-1.0071-1.1637-1.3281-0.18283-0.32099-0.43813-0.53471-0.5674-0.47491-0.12923 0.0598-0.45355-0.19041-0.72089-0.55604-0.40981-0.56049-0.86971-0.66456-2.9311-0.66456-2.3802 0-5.2539 0.84563-5.2539 1.5462 0 0.15505-0.21897 0.28164-0.48678 0.28164s-0.64908 0.30362-0.84752 0.67438c-0.19841 0.37076-0.47773 0.60196-0.62063 0.51366s-0.98978 0.58034-1.882 1.4862c-0.89228 0.90587-1.807 1.6469-2.0324 1.6469-0.22543 0-0.60706-0.41089-0.84802-0.91364-0.24095-0.50275-0.62029-0.91415-0.84283-0.91415s-0.64201-0.33904-0.93226-0.75345c-0.29022-0.41439-0.65135-0.67734-0.80253-0.58394-0.15113 0.0934-0.3688-0.0748-0.48369-0.37414-0.11488-0.29931-0.29781-0.4551-0.40669-0.34623-0.10887 0.10887-0.41111-0.0158-0.67177-0.27647-0.68028-0.68027-2.9771-1.2462-5.0979-1.2562-1.9688-9e-3 -4.3212 0.61259-4.3212 1.1426 0 0.1794-0.14947 0.23392-0.33227 0.12092-0.18282-0.11297-0.33229-0.038-0.33229 0.1664 0 0.20435-0.15076 0.27863-0.33485 0.16484-0.18413-0.11379-0.42466 0.0268-0.53433 0.31265-0.10967 0.28582-0.39037 0.51934-0.62375 0.51934-0.23339 0-0.98171 0.61741-1.6635 1.372-3.152 3.4889-3.4205 7.0393-1.0046 13.289 0.16714 0.43233-0.10758 0.57015-1.45 0.72915-1.8396 0.21787-3.8723 1.1353-4.808 2.1699-1.4992 1.6578-1.8852 4.5664-1.0459 7.8822 0.65603 2.5918 2.7428 6.7334 3.713 7.3691 0.42114 0.27595 0.68352 0.6351 0.5829 0.79789-0.10062 0.16283-0.0297 0.2961 0.15762 0.2961 0.18729 0 0.81703 0.46538 1.3994 1.0346 1.2504 1.2224 4.7504 2.9535 5.9728 2.9538 0.76967 2.4e-4 0.9194 0.21375 1.4283 2.0443 0.59449 2.1383 2.0475 4.9361 2.5637 4.9361 0.16544 0 0.30075 0.19613 0.30075 0.43614 0 0.24003 0.44892 0.86672 0.99735 1.3922 0.54845 0.52545 0.99684 0.82408 0.99684 0.66353 0-0.16057 0.21992-2e-3 0.48834 0.35294 0.26842 0.3549 0.49268 0.52276 0.49869 0.37259 6e-3 -0.15017 0.2349-0.0488 0.509 0.22531 0.27411 0.2741 1.3584 0.83821 2.4097 1.2537 2.8059 1.1089 8.7665 1.1085 12.649-1e-3 1.5178-0.43371 2.9424-0.95731 3.1657-1.1632 0.22334-0.20592 0.62535-0.42381 0.8935-0.48421 0.26813-0.0604 0.59878-0.28431 0.73483-0.49817 0.13605-0.21385 0.24918-0.26467 0.25217-0.11265 3e-3 0.15203 0.53208-0.0492 1.1756-0.447l1.17-0.72295 2.4598 2.5244c1.3528 1.3883 2.6209 2.5244 2.8184 2.5244 0.19748 0 0.35914 0.12387 0.35914 0.27544 0 0.3641 2.8088 1.6396 4.4871 2.0376 0.73128 0.17344 2.5042 0.2356 3.9398 0.13849 2.4421-0.16527 2.7388-0.27111 4.607-1.6464 1.0983-0.80848 2.1098-1.4702 2.2479-1.4702 0.13806 0 0.68289 0.32499 1.2103 0.72192 0.52742 0.39693 0.78319 0.52783 0.56893 0.29145-0.46577-0.51398-0.2163-1.3456 0.4036-1.3456 0.24286 0 0.85701-0.57821 1.3648-1.2847l0.92348-1.2842 0.61804 0.78548c0.34001 0.43224 0.81589 0.786 1.0573 0.786 0.24138 0 0.51363 0.19521 0.60513 0.43357 0.31721 0.82655 4.075 2.5267 6.4518 2.9192 1.9899 0.32863 2.7353 0.30192 4.8798-0.17518 1.3922-0.30973 2.7383-0.77049 2.9916-1.0237 0.25321-0.25363 0.55295-0.36742 0.66612-0.25425 0.11316 0.11317 0.20566 0.0225 0.20566-0.20154 0-0.2241 0.12702-0.32947 0.28215-0.23358 0.15512 0.0959 0.58785-0.11057 0.96171-0.45888 0.37372-0.3483 0.76012-0.55295 0.85833-0.45475 0.0982 0.0982 0.37441-0.13489 0.61391-0.51832 0.23945-0.38344 0.59796-0.69711 0.79635-0.69711 0.19841 0 0.70199-0.36353 1.1193-0.80771 0.68741-0.73173 2.0164-1.0499 2.0164-0.48265 0 0.48881 3.2057 1.2904 5.1614 1.2904 2.118 0 4.1455-0.50379 4.1455-1.0299 0-0.16493 0.19846-0.29972 0.44082-0.29972 1.3053 0 3.1483-3.6632 3.4458-6.8492l0.19119-2.0505 1.2568 0.16846c1.3924 0.18676 4.6375-0.47204 4.6375-0.94155 0-0.16452 0.11618-0.2617 0.25839-0.216 0.51308 0.16492 2.6548-2.3287 3.0634-3.5667 0.58288-1.7661 0.24996-4.9452-0.75292-7.1949-0.79595-1.7852-3.1511-4.8055-3.4861-4.4705-0.0875 0.0875-0.38094-0.0626-0.65217-0.33383-0.27122-0.27124-1.1346-0.66478-1.9182-0.87437l-1.4247-0.38085 0.17312-1.9058c0.095-1.0481 0.0761-2.29-0.0419-2.76-0.26255-1.0459-2.1528-3.2614-2.5652-3.0065-0.16442 0.10161-0.29869 0.0323-0.29869-0.154 0-0.51137-4.1738-1.695-5.9769-1.695-2.627 0-3.6619-0.31708-3.6649-1.1219-3e-3 -1.1393-0.64701-3.1362-1.1854-3.6747-0.27387-0.27387-0.49328-0.57803-0.48627-0.67593 7e-3 -0.0979-0.0764-0.16826-0.1845-0.15606-0.10808 0.0122-0.36999-0.19329-0.58187-0.45631-1.0834-1.345-3.8617-1.5186-8.8356-0.55293-1.9379 0.37626-3.591 0.54616-3.7512 0.38602-0.15745-0.15747-0.57845-1.5103-0.93585-3.0065-0.65027-2.7227-1.7498-5.3184-2.4469-5.7774-0.20397-0.13432-0.22934-0.2466-0.0563-0.2496 0.72096-0.0117-2.024-2.342-3.5135-2.9828-1.9204-0.82611-3.6498-1.2013-5.5573-1.1756zm-0.30025 1.5761c0.52832-8e-3 1.0527 0.014 1.5679 0.0661 4.0062 0.40568 6.1424 1.9876 8.0067 5.9299 1.1511 2.434 1.494 4.3092 1.0046 5.4916-0.34105 0.82392-0.49842 0.88621-1.9828 0.7829-1.9346-0.13464-3.4495 0.55376-5.84 2.6541-1.4209 1.2484-1.8512 1.4469-3.1399 1.4469-1.2743 0-1.5679 0.13165-2.0009 0.89556-0.66482 1.1728-0.38155 1.3913 0.94568 0.72915 0.98067-0.48918 1.2005-0.49179 2.3828-0.0274 1.2168 0.47797 1.324 0.47156 1.6273-0.0951 0.6041-1.1288 3.0082-2.0008 5.5097-1.9988 3.1667 3e-3 4.4281 0.42633 6.0518 2.034 1.1376 1.1264 1.4297 1.279 1.6004 0.83406 0.30652-0.79882-0.13348-2.2223-1.0661-3.4478l-0.81907-1.0764 1.0837-0.6594c2.1275-1.2937 5.6682-1.2706 8.4889 0.0553 1.6133 0.75835 3.0866 2.3249 3.0866 3.2815 0 0.90702-1.1769 1.9689-2.1823 1.9689-0.97748 0-2.1389 0.5415-2.1389 0.99735 0 0.17009 0.78533 0.41128 1.7451 0.53641 1.3952 0.18192 1.9622 0.4558 2.8267 1.3658 1.2436 1.309 1.5689 1.0117 1.3545-1.2366l-0.12661-1.3307h2.236c3.4719 0 5.4531 0.54688 6.7774 1.8712 1.0116 1.0116 1.1414 1.3409 1.1374 2.8763-7e-3 2.7414-0.2033 3.1199-1.834 3.5305-1.4908 0.3754-2.3024 1.0289-1.2775 1.0289 1.1719 0 3.409 1.3667 3.8432 2.3477 0.52906 1.1952 1.4134 1.3348 1.1942 0.18861l-0.15039-0.78754 1.0971 0.6475c2.8119 1.6591 4.1228 4.7562 3.005 7.1003-0.65397 1.3714-1.9419 2.0634-4.4855 2.4112l-1.9565 0.26769 0.16124-1.434c0.19714-1.7492-0.1455-1.8115-1.6562-0.30076-0.83249 0.83249-1.548 1.1957-2.6928 1.3674-0.85733 0.12857-1.5586 0.34324-1.5586 0.47697 0 0.34187 1.045 1.2 1.7803 1.4619 0.48176 0.17166 0.56814 0.41978 0.39325 1.1312-0.58033 2.3606-2.1967 3.4226-5.5754 3.6644-1.9692 0.1409-2.385 0.0643-3.3967-0.6289-1.6829-1.1532-2.0295-1.9648-1.3772-3.2262 0.5112-0.98851 0.72924-2.7213 0.34263-2.7213-0.10318 0-0.54808 0.42878-0.98909 0.95291-1.0423 1.2387-3.7808 2.4017-6.1655 2.6179-1.3883 0.12587-1.8744 0.29863-1.8232 0.6475 0.0879 0.59892 1.7153 1.6821 2.927 1.9482 0.50634 0.11122 0.92036 0.33343 0.92036 0.49403 0 0.16059-0.5611 0.88204-1.247 1.603-0.98501 1.0355-1.5816 1.3605-2.8401 1.5493-2.3139 0.34698-4.8312 0.0389-6.6063-0.80925-2.0801-0.99382-2.2413-1.5654-0.78134-2.7688 0.64719-0.53349 1.0914-1.1073 0.98753-1.2754-0.1039-0.16811-6e-3 -0.30541 0.2186-0.30541 0.22407 0 0.33078-0.0769 0.23667-0.17105-0.0941-0.0941-0.84413 0.2049-1.6666 0.66456-2.5626 1.4323-8.7571 1.4577-11.584 0.0475-1.8632-0.92949-1.5642 0.58185 0.4682 2.3663 0.62913 0.55239 1.3345 1.068 1.5673 1.1457 0.58156 0.19385 0.12224 0.83844-1.0165 1.4273-2.5154 1.3008-6.2007 0.81014-11.175-1.4878-3.1198-1.4414-4.2273-2.2692-4.9857-3.7269-0.82661-1.5887-0.62717-2.1011 0.83198-2.1394 0.7914-0.0207 2.585-0.63512 4.5914-1.573 1.811-0.84655 3.5114-1.5394 3.7791-1.5394 0.57907 0 1.9642-0.92057 1.9642-1.3054 0-0.14867-0.86582-0.4408-1.9244-0.64906-1.0586-0.20827-2.266-0.6174-2.683-0.9095-0.7068-0.49506-0.80795-0.4847-1.4867 0.15296-2.9402 2.7622-10.098 3.1552-13.436 0.73742-0.90207-0.65347-1.4471-0.84047-1.9172-0.6568-0.36129 0.14115-1.4333 0.26728-2.3823 0.28008-0.94901 0.0129-1.8194 0.17542-1.9342 0.36122-0.11483 0.18582-0.38563 0.24665-0.60153 0.13539s0.23728 0.40992 1.0072 1.1581c1.035 1.0058 1.6719 1.3601 2.4432 1.3601 1.1762 0 5.3912 2.5331 5.2049 3.128-0.23138 0.73886-3.3879 2.5514-5.6265 3.2313-5.9025 1.7928-13.277-0.61565-16.259-5.3103l-0.98287-1.5472 3.0877-0.20929c3.9522-0.26735 6.9102-1.3069 6.9102-2.4288 0-0.27708-0.58119-0.35432-1.9358-0.25631-1.0647 0.077-2.7951-0.0383-3.8452-0.25632-2.5998-0.5397-7.2921-2.9587-9.495-4.8948-0.99769-0.87689-1.7059-1.4174-1.5736-1.2015 0.13229 0.21589 0.0844 0.4889-0.10697 0.6072-0.36709 0.22686-0.13132 2.2233 0.37981 3.2148 0.25167 0.48817 0.16266 0.5224-0.70745 0.27285-1.2688-0.36388-2.6448-1.3454-3.915-2.7921-1.8895-2.152-2.1692-4.7873-0.70588-6.6477 0.6205-0.78881 0.89088-0.86455 3.0825-0.86455 1.4616 0 2.5776 0.1627 2.8499 0.41548 0.35812 0.3324 0.40058 0.3324 0.21291 0-0.12901-0.22852-0.0758-0.41548 0.11782-0.41548s0.35192-0.36265 0.35192-0.80563c0-0.44358 0.42863-1.2337 0.95396-1.7591l0.95395-0.95394-0.87077-0.0698c-1.0575-0.0846-1.4931-0.63709-2.3962-3.0401-1.1657-3.1016-0.84717-7.711 0.6532-9.4558 2.1387-2.487 9.7056-1.8754 13.003 1.0511l1.4128 1.2542-0.87178 1.2847c-1.2053 1.776-1.2967 4.9034-0.2155 7.382 0.97388 2.2327 1.2284 1.9822 1.0692-1.0521-0.16931-3.2257 0.18412-4.3948 1.7167-5.6844 0.95374-0.80252 1.1887-0.85069 3.1977-0.65319 1.1926 0.11724 2.5798 0.2727 3.0825 0.3452 0.50276 0.0725 0.91366 0.0721 0.91366-1e-3 0-0.26943-2.6316-1.7836-3.4623-1.9921-0.47223-0.11852-0.85887-0.32207-0.85887-0.45217 0-0.47108 2.3644-2.9838 3.423-3.638 3.2676-2.0195 7.3759-1.3395 9.2599 1.5327 0.54497 0.83076 0.53769 0.88198-0.20878 1.4692-0.42547 0.33468-0.93599 1.0751-1.1348 1.6454-0.34306 0.98428-0.32412 1.026 0.3819 0.81597 2.1325-0.63421 3.2821-0.61088 4.2251 0.0863l0.94464 0.69867-0.0925-0.84491c-0.051-0.46471-0.43326-1.3052-0.84905-1.8676-0.72689-0.98315-0.73226-1.0399-0.14523-1.4692 0.33584-0.24556 1.1311-0.44649 1.7673-0.44649 0.93818 0 1.4296 0.28455 2.5988 1.5048 0.79295 0.82761 1.4106 1.3885 1.373 1.2464-0.19285-0.7279 2.8052-5.7349 4.208-7.028 2.6199-2.4149 6.5336-3.8978 10.232-3.9512z" fill="#afaeae" stroke-width=".3324"/>
</svg>
