<?xml version="1.0" encoding="UTF-8"?>
<svg enable-background="new 0 0 467.129 317.687" viewBox="0 0 467.129 317.687" xmlns="http://www.w3.org/2000/svg">
 <path d="m313.978,3.215c-2.134-.249-3.232-1.533-5.104-2.042-1.935-.04-4.117,2.319-5.615,1.021 1.331-2.346 10.997-3.837 10.719,1.021z" fill-rule="evenodd"/>
 <path d="m255.271,2.194c-.23,2.317-3.52.109-4.595,0-1.608-.047-3.85,1.896-5.104.511 1.35-1.925 8.271-3.343 9.699-.511z" fill-rule="evenodd"/>
 <path d="m172.059,3.215v3.063c-3.021-1.528-6.649-3.591-11.232-3.063-1.812.209-3.261,1.526-5.104,1.532 2.719-4.835 11.119-3.338 16.336-1.532z" fill-rule="evenodd"/>
 <path d="m123.561,4.747c-2.133-.249-3.232-1.533-5.106-2.042-1.934-.041-4.117,2.319-5.615,1.021 1.334-2.347 10.999-3.836 10.721,1.021z" fill-rule="evenodd"/>
 <path d="m78.125 8.32c-5.002-2.949-11.088-3.864-15.825 0 1.521-5.664 14.874-7.389 15.825 0z" fill-rule="evenodd"/>
 <path d="m225.662,7.299c-2.97.078-4.078-1.708-6.126-2.552-2.544.393-4.669,2.614-7.147,1.531 3.015-2.806 12.221-4.999 13.273,1.021z" fill-rule="evenodd"/>
 <path d="m441.095,8.831c-3.216.973-5.025-3.293-8.679-3.574-3.081-.235-5.391,1.909-8.679,2.553 1.575-5.615 16.774-4.87 17.358,1.021z" fill-rule="evenodd"/>
 <path d="m364.008,5.768c-.087,1.913-2.499.407-3.573.51-2.268.217-4.287,1.341-6.125,1.532-1.047-2.808 8.19-4.216 9.698-2.042z" fill-rule="evenodd"/>
 <path d="m395.66,6.789c-2.464-1.133-4.5-.996-7.148,0-.189-2.402 7.666-3.541 7.148,0z" fill-rule="evenodd"/>
 <path d="m280.796,6.789c.585,2.117-1.074,1.989-1.022,3.573-1.452-.588-1.674-2.41-3.062-3.063-3.791.123-6.382,1.447-9.701,2.042 1.749-3.986 9.315-4.195 13.785-2.552z" fill-rule="evenodd"/>
 <path d="m344.609,12.915c-3.409.346-3.446-2.679-5.105-4.084-5.23-2.809-11.575-.787-16.336,1.021 3.63-5.741 21.544-6.331 21.441,3.063z" fill-rule="evenodd"/>
 <path d="m53.111,13.936c-3.022-.212-3.442-3.024-5.615-4.083-5.587-.218-8.217.574-12.762,2.042 2.627-5.187 18.273-5.463 18.377,2.041z" fill-rule="evenodd"/>
 <path d="m146.533,9.341c.154,3.254-4.362,1.159-6.637,1.532-3.648.599-6.045,2.183-7.146,4.595-4.098-2.405 4.539-6.037 8.679-6.637 1.957-.284 3.972-.182 5.104.51z" fill-rule="evenodd"/>
 <path d="m384.427,12.405c-2.225.014-2.796-1.628-4.593-2.043-3.491-.256-4.916,1.551-8.17,1.532 2.336-2.649 11.889-5.221 12.763.511z" fill-rule="evenodd"/>
 <path d="m420.673,13.936c-2.381.509-2.252-1.491-3.572-2.042-6.457-2.793-12.202.982-16.847,3.063-1.751-2.123 2.854-1.303 2.553-3.574 3.683-.455 16.477-4.459 17.866,2.553z" fill-rule="evenodd"/>
 <path d="m109.268,14.957c-4.477-.817-6.853-4.09-11.743-3.063-2.754.579-3.762,4.333-7.146,3.574 1.166-1.728 3.698-2.088 4.593-4.085 4.445-1.611 13.286-1.364 14.296,3.574z" fill-rule="evenodd"/>
 <path d="m197.583,13.936c-1.643,1.27-2.86-1.296-4.595-1.531-8.016-.871-11.72,2.573-15.315,6.126 .247-6.25 9.331-8.004 17.357-8.169 .723,1.32 3.166.919 2.553,3.574z" fill-rule="evenodd"/>
 <path d="m305.81,14.957c-2.584.542-2.573-1.509-4.084-2.042-4.915-.83-6.454,1.713-10.721,1.532 2.495-2.537 13.918-5.993 14.805.51z" fill-rule="evenodd"/>
 <path d="m258.334,16.489c-3.102.207-3.986-1.8-6.126-2.553-6.39-.773-9.2,2.033-13.784,3.063 1.858-4.57 18.991-7.841 19.91-.51z" fill-rule="evenodd"/>
 <path d="m366.05,18.531c-3.583.689-2.337-3.45-5.105-3.574-4.6,1.186-8.868,2.704-12.252,5.105 2.414-4.733 8.196-6.097 15.315-6.126 .111,2.101 3,1.424 2.042,4.595z" fill-rule="evenodd"/>
 <path d="m453.858,16.489c-.414.438-1.398.303-1.533,1.021-.86-1.692-3.629-1.475-4.593-3.063 2.164-.534 5.523-1.016 6.126,2.042z" fill-rule="evenodd"/>
 <path d="m171.547,32.314c-2.962.24-2.458-2.987-3.062-5.105-2.272-6.698-7.301-13.925-16.337-10.721 2.104-2.85 7.528-2.014 10.212-1.021 5.222,1.933 9.618,10.721 9.187,16.847z" fill-rule="evenodd"/>
 <path d="m81.7,39.972c-.312-2.354 2.262-1.821 3.062-3.063 1.018-3.975 3.967-5.522 3.573-9.189-.484-4.515-7.029-6.948-8.677-10.721-5.596-1.231-10.668-.875-16.337,0 .694-1.291 3.647-1.818 5.617-2.042 4.803-.545 10.031.31 13.271,1.532 2.154,4.79 9.522,7.279 6.637,16.335-.619,1.946-4.734,8.084-7.146,7.148z" fill-rule="evenodd"/>
 <path d="m150.11 16.999c-1.479 3.108-6.065 3.325-7.147 7.147-1.33 4.689 1.456 8.182 2.042 12.763-4.415-1.131-5.765-7.239-4.595-11.741 1.038-4.002 7.039-6.85 9.7-8.169z" fill-rule="evenodd"/>
 <path d="m61.79 17.51c-3.712 2.244-6.161 5.751-7.657 10.209-2.701-1.11 1.319-7.674 2.551-8.679 1.317-1.071 3.535-1.546 5.106-1.53z" fill-rule="evenodd"/>
 <path d="m329.804,19.552c.499,1.73 2.617,4.506 1.021,6.637-2.489-.233-1.618-3.826-3.062-5.106-2.982.77-3.146-1.277-4.595-2.042-3.228.709-4.394,1.308-8.679,1.532 2.681-3.1 11.595-3.388 15.315-1.021z" fill-rule="evenodd"/>
 <path d="m210.857,19.041c-3.967,4.338-8.573,9.121-6.637,17.868-7.613-3.092.968-17.052 6.637-17.868z" fill-rule="evenodd"/>
 <path d="m376.26,19.041c1.209,1.744-2.58,2.848-3.573,4.084-1.485,1.918-.671,6.136-3.575,6.637 .702-5.256 3.743-8.169 7.148-10.721z" fill-rule="evenodd"/>
 <path d="m35.754,47.119c-2.786,3.883-3.741,12.209-9.699,11.23 .961-3.256 4.474-4.345 6.125-7.146 1.529-2.591 1.633-5.691 3.064-8.679 1.857-.327.629,2.432 2.04,2.553 11.662-8.505-5.183-21.454-13.783-23.994-2.258.125-3.72,1.046-6.125,1.021 3.531-4.768 10.153-1.127 14.804,0 1.132,2.523 8.064,5.862 9.699,9.189 2.809,5.714 1.033,16.045-6.125,15.826z" fill-rule="evenodd"/>
 <path d="m279.265,19.552c1.865,2.217 4.152,4.014 4.084,8.167-3.029-1.226-3.584-4.924-5.615-7.147-3.196-.472-4.831.614-7.147,1.021 .654-2.917 5.379-1.765 8.678-2.041z" fill-rule="evenodd"/>
 <path d="m388.511,38.44c-1.815,5.333-4.844,12.169-11.74,10.721 1.277-2.072 3.461-1.418 5.104-2.553 3.26-2.248 3.686-5.996 5.106-10.21 10.39-.377 1.602-18.191-6.638-15.315 9.091-4.038 17.372,9.203 11.743,16.848-.658.702-2.218.504-3.575.509z" fill-rule="evenodd"/>
 <path d="m234.34,58.349c-.168-2.051 2.374-3.446 3.573-5.615s2.114-4.51 2.042-7.658c1.705-.677 3.178-1.586 4.083-3.063 .267-10.728-6.493-20.884-17.866-19.91-1.307.023-.624-.379-.511-1.021 14.516-2.576 21.402,8.962 19.91,22.462-6.002,2.678-3.499,13.859-11.231,14.805z" fill-rule="evenodd"/>
 <path d="m439.562,51.203c-2.35,1.433-1.294,3.783-2.042,6.125-3.891-1.749.564-6.638 1.533-7.146 .07-.038 2.586.998 2.042,1.021 2.403-.102 6.593-3.654 7.146-6.637 .467-2.515-.717-8.126-2.042-11.231-4.499-10.542-20.054-15.765-28.076-4.084-.415-4.724 9.639-9.188 15.313-8.679 6.248.561 8.901,5.537 13.273,8.679 1.155,4.655 4.404,10.802 3.064,16.336-.999,4.115-5.295,5.499-8.679,7.147-1.112.093-1.624-.418-1.532-1.531z" fill-rule="evenodd"/>
 <path d="m223.62,22.104c-9.742,2.204-17.424,14.331-12.763,24.504 1.134.396 1.99,1.073 3.573,1.021-.841,4.585 2.333,5.155 3.064,8.168-4.082.336-3.758-3.729-5.106-6.127-1.113-1.438-3.33-1.775-4.595-3.062-3.716-13.39 4.898-22.442 14.805-25.525 .87-.188.964.398 1.022,1.021z" fill-rule="evenodd"/>
 <path d="m312.958,21.594c-1.09,3.267-4.462,4.757-5.105,8.679-.478,2.918-.565,5.76 0,8.679 2.484.782 1.922-1.482 3.575-1.532 2.272.684 1.936,3.584 3.062,5.105 1.463,1.976 2.906,2.427 4.595,4.084-1.807,2.958-4.532-1.438-6.126-2.042-.166-1.876-1.259-2.824-1.53-4.594-2.097.547-4.703.849-6.128-.511 .71-7.798.613-16.404 7.657-17.868z" fill-rule="evenodd"/>
 <path d="m127.134,37.419c-3.548-.963-2.63-4.463-4.084-6.637-3.394-5.077-12.403-7.042-16.846-3.573-4.791,3.739-8.953,9.065-9.699,15.825-.482,4.359.434,8.91 2.042,11.742 1.647,2.906 5.478,3.442 6.637,7.147-8.18-2.309-10.395-9.902-10.212-18.378 .152-6.911 7.314-18.803 16.337-19.909 2.381-.292 4.664,1.443 7.146.51 1.502,1.562 3.515,2.612 5.617,3.574 1.282,2.972 2.237,6.269 3.062,9.699z" fill-rule="evenodd"/>
 <path d="m451.3 25.167c5.925-1.128 7.902 8.732 6.126 15.314-3.032-1.587-0.984-7.442-2.553-11.231-0.805-1.946-1.923-3.146-3.573-4.083z" fill-rule="evenodd"/>
 <path d="m150.108,25.167c1.44,1.754-.706,4.066-1.022,6.636-.216,1.766-.365,4.654 0,6.637 .873,4.733 4.923,5.56 6.126,9.189-9.242.857-9.78-16.069-5.104-22.462z" fill-rule="evenodd"/>
 <path d="m267.011,25.677c-.945,2.742-2.094,6.014-2.04,9.189 .09,5.515 4.051,11.137 8.168,11.231 4.312.099 7.783-5.527 7.146-10.721 4.506,2.431-1.143,10.67-3.062,11.742-.636.354-3.866,1.025-4.084,1.021-1.498-.031-7.516-3.479-8.679-5.105-3.523-4.924-1.39-12.313 1.02-17.357h1.531z" fill-rule="evenodd"/>
 <path d="m352.78 41.503c-2.011-1.712-1.932-4.991-3.062-7.147-1.18-2.249-3.137-3.552-4.083-5.616-1.976-1.088-4.961-1.167-8.17-1.021 9.519-5.402 16.135 5.711 15.315 13.784z" fill-rule="evenodd"/>
 <path d="m332.869,27.719c.592-.083.907.112 1.02.511-7.737,6.494-11.541,34.11 4.084,34.714-.289,2.886-4.554,1.349-5.615,1.021-11.931-3.69-6.828-30.292.511-36.246z" fill-rule="evenodd"/>
 <path d="m424.249,28.74c1.305-.023.621.38.509,1.021-6.421,3.039-11.985,17.06-5.104,23.994 1.524.593 3.734-.602 4.084,2.042-3.555.896-7.453-1.389-8.679-3.574-5.007-8.924 3.992-20.126 9.19-23.483z" fill-rule="evenodd"/>
 <path d="m79.147,36.908c.592-.082.908.113 1.02.511-.997,5.468-2.439,10.493-7.657,11.742-.241-3.133 3.01-2.775 4.083-4.595 .722-2.682 2.311-4.497 2.554-7.658z" fill-rule="evenodd"/>
 <path d="m127.134,38.44h1.533c.264,4.329 2.021,7.167 1.531,12.252-2.025,2.335-2.823,6.625-5.106,9.189-1.672,1.878-4.747,4.467-7.657,3.574 .737-2.496 3.409-3.058 5.615-4.085 .891-2.865 4.41-4.931 5.106-8.678 .802-4.32-1.768-8.292-1.022-12.252z" fill-rule="evenodd"/>
 <path d="m352.265,44.566h1.533c-.238,3.505-.251,7.236-1.533,9.7-4.328-.62.595-6.375 0-9.7z" fill-rule="evenodd"/>
 <path d="m200.647,49.67c2.104.591-.108,2.035-1.533,2.043-1.209,2.023-2.081,4.384-3.573,6.126 .085,1.786-.135,3.268-1.02,4.084-3.195-1.034-.455-4.404.509-6.126 1.192-2.127 3.288-4.168 4.083-5.616 .726.044 1.447.085 1.534-.511z" fill-rule="evenodd"/>
 <path d="m179.206,51.203c1.679,3.937 3.216,8.015 3.573,13.273-3.356.634-3.213-2.233-3.062-5.106-1.07-2.505-2.163-4.985-3.575-7.146-1.923-.457-4.323-.44-6.125-1.021 2.016-2.604 6.373.123 9.189,0z" fill-rule="evenodd"/>
 <path d="m382.9 50.182c5.515 2.483 13.342 2.654 13.273 10.721-3.105 0.042-3.176-2.951-4.084-5.105-2.167-2.771-8.041-1.831-9.189-5.616z" fill-rule="evenodd"/>
 <path d="m150.11 51.713c-2.333 2.263-2.634 6.556-6.127 7.657-1.438-3.741 3.273-8.229 6.127-7.657z" fill-rule="evenodd"/>
 <path d="m294.581,58.86c-2.37-.183-3.367-1.739-4.084-3.574-1.948-.265-3.494-.931-4.595-2.042-1.281-.421-4.396.993-4.084-1.021 5.966-1.278 12.434.648 12.763,6.637z" fill-rule="evenodd"/>
 <path d="m267.011,53.755c-4.663-.998-5.096,4.645-8.677,3.063-.024-3.326 7.296-6.085 8.677-3.063z" fill-rule="evenodd"/>
 <path d="m80.678,53.755c3.589.664 8.704-.195 8.679,4.084-2.534-1.718-7.144-1.365-8.679-4.084z" fill-rule="evenodd"/>
 <path d="m242.51 62.433h1.021v1.022h-1.021v-1.022z" fill-rule="evenodd"/>
 <path d="m213.921,62.944c-.839,2.054-3.743,2.043-5.617,3.063-1.77.911-3.207,4.811-5.615,2.042 1.91-3.536 7.457-3.433 11.232-5.105z" fill-rule="evenodd"/>
 <path d="m368.092,63.965c2.466,3.149 2.125,9.105 5.105,11.742 2.807,1.107 6.666,1.161 6.126,5.616-3.511-.235-2.883-4.605-7.147-4.084-3.12-2.327-3.317-7.575-5.104-11.231-3.616-.202-8.729,1.77-11.231-.51 2.172-3.78 7.535,1.507 12.251-1.533z" fill-rule="evenodd"/>
 <path d="m104.672,65.497c-1.203-.011-1.504.879-3.064.51-.581-2.453 3.143-2.593 3.064-.51z" fill-rule="evenodd"/>
 <path d="m125.603,63.965c2.374-.703 3.529,1.406 5.615,1.532 1.953.116 3.614-1.199 5.106-1.021 1.406.167 2.102,1.965 3.573,1.531 2.231,11.394 18.35,11.588 16.337,25.525-2.534-.019-1.73-3.375-2.553-5.105-1.303-2.056-2.451-4.343-4.084-6.125-2.233-2.436-5.523-4.146-7.659-6.637-1.984-2.314-2.35-5.499-5.104-7.147-4.688.539-9.654,1.157-11.231-2.553z" fill-rule="evenodd"/>
 <path d="m100.078,64.476c-.966,2.268-5.333,1.133-7.148,2.552-1.441,5.706-4.794,9.5-8.679,12.763-1.872-4.194 3.509-5.26 5.106-7.658 .033-2.348.7-4.064 1.531-5.615 2.686-1.06 5.411-2.077 9.19-2.042z" fill-rule="evenodd"/>
 <path d="m447.22,64.986c-1.563,1.634-4.897,1.524-8.167,2.042-3.282.52-7.016.485-10.212,1.021-1.448.243-2.562,1.193-4.084,1.532-1.986.44-4.356.031-6.126.51-2.601.706-5.756,2.895-9.188,5.105-2.856,1.839-6.622,3.325-8.679,5.106-1.898,1.641-3.492,4.632-5.617,7.146-7.831,9.272-13.506,16.88-15.824,31.651-.407,2.586-1.354,5.437-1.533,7.658-.649,8.094 2.044,12.609 1.533,20.42-1.447-1.114-2.027-3.358-2.553-5.105-2.524-8.401-1.955-23.223 1.02-32.162 .383-1.147 1.812-2.464 2.553-4.084 1.66-3.62 1.893-5.053 4.084-8.168 4.089-5.807 11.546-16.025 16.847-19.91 1.047-.765 2.779-1.137 4.086-2.042 1.041-.722 2.053-1.965 3.062-2.553 4.268-2.48 10.088-3.371 15.316-4.594 2.284-.535 4.129-1.677 6.125-2.042 2.397-.439 5.146-.101 7.657-.511 3.141-.512 5.94-2.394 9.7-1.02z" fill-rule="evenodd"/>
 <path d="m327.76 65.497c-1.02 2.723-6.416 1.07-9.7 1.531-3.133 1.857-3.326 9.192-7.657 8.168 1.068-3.357 3.179-5.669 4.595-8.678 2.918-1.676 8.365-0.825 12.762-1.021z" fill-rule="evenodd"/>
 <path d="m281.307,83.875c-4.242-1.543-5.806-5.767-9.19-8.167-11.374-3.821-26.267-9.911-43.902-8.168-.917.09-2.173.299-3.064.51-11.685,2.77-24.597,6.917-32.671,13.274-8.211,6.464-13.801,14.884-18.891,22.462-1.454,6.601-3.498,12.392-2.551,19.398 .825,6.11 5.546,11.545 4.083,17.357-2.665-.84-3.323-4.667-4.083-7.146-1.94-6.331-4.265-17.205-1.533-25.525 .158-.478 1.33-.835 1.533-1.532 .583-2.018.334-3.077 1.531-5.105 5.714-9.69 14.376-19.092 25.014-25.014 2.067-1.151 4.514-1.571 7.148-2.553 2.243-.836 4.396-2.381 6.637-3.063 2.539-.774 5.442-.784 8.167-1.532 4.41-1.21 7.202-2.979 13.274-3.062 8.724-.119 18.105,1.542 25.525,3.574 9.554,2.613 20.183,4.788 22.973,14.292z" fill-rule="evenodd"/>
 <path d="m110.287,148.199c3.918-22.052-7.397-36.078-15.315-49.52-6.982-6.553-12.902-11.378-20.42-16.335-7.544-4.976-14.64-5.821-24.505-7.658-6.379-1.188-11.022-3.266-20.419-3.063-2.221.048-5.355,1.378-6.637-.511h1.022c3.762-.094 11.36-1.087 16.335-.51 1.605.186 3.28,1.158 5.106,1.531 8.643,1.768 18.631,2.808 26.034,6.127 2.15.963 4.932,2.793 7.659,4.594 4.815,3.18 8.003,6.354 12.251,10.211 2.077,1.885 4.267,2.968 5.615,4.594 3.174,3.825 6.254,9.7 9.19,15.315 4.318,8.262 7.835,13.803 7.657,24.504-.056,3.407.135,7.755-3.573,10.721z" fill-rule="evenodd"/>
 <path d="m434.969,71.623c-.472.891-1.598,1.127-3.064,1.021-.484-1.845 2.011-.712 3.064-1.021z" fill-rule="evenodd"/>
 <path d="m273.648,87.958c-3.994-1.45-5.021-5.871-8.677-7.657-3.531.187-6.045-2.411-9.189-3.574-1.554-.574-3.789-.413-5.617-1.021-1.687-.562-2.538-1.853-4.084-2.042-2.964-.364-6.231,1.716-9.188-.511-8.477,2.126-16.987,1.935-24.505,4.595-2.553.904-5.127,2.93-7.657,4.595-5.59,3.675-7.892,5.73-12.251,11.23-.723.91-1.581,1.925-2.553,3.063-2.206,2.585-3.201,3.349-5.106,7.148-2.44,4.87-6.155,12.165-6.125,18.888 .014,3.438 2.22,6.289 1.022,9.7-2.794-1.552-3.049-6.504-3.064-9.19-.04-6.963 3.755-16.107 7.147-22.462 1.257-2.358 3.336-4.865 5.104-7.147 4.381-5.653 6.19-7.287 12.763-11.23 5.255-3.153 9.79-5.489 16.337-7.148 5.825-1.475 9.856-2.878 16.846-3.063 10.401-.274 15.553.666 25.015,4.595 6.319,2.626 12.53,4.27 13.782,11.231z" fill-rule="evenodd"/>
 <path d="m423.226,74.175c-5.087,4.065-11.206,5.763-16.846,9.7-5.173,3.611-8.771,9.357-12.252,15.826-7.472,13.879-7.692,31.956-6.637,50.54-2.289-.901-1.893-4.384-2.042-6.125-.538-6.21-.953-13.728-.511-19.911 .5-6.99 3.218-13.733 6.125-20.419 2.849-6.545 5.669-13.397 9.19-17.358 5.752-6.472 14.603-7.409 21.441-12.252l1.532-.001z" fill-rule="evenodd"/>
 <path d="m103.142,156.366c6.872-4.289 17.225-6.953 27.056-4.084 1.169,1.213 2.569,2.194 3.062,4.084 1.267.776 3.176.908 3.575,2.553-.603,7.736-9.084,7.593-16.846,8.168-4.29,2.555-8.658,3.55-12.254,6.637-2.636,2.262-3.67,5.648-6.637,7.659-.449-7.624 7.958-10.744 13.785-13.785-5.48-1.159-10.185-3.091-12.763-7.147-2.2,2.166-1.078,4.383 0,6.637-.532,2.359-2.227,3.561-3.573,5.105-2.653,8.068-4.755,16.687-11.232,20.931 1.178-4.865 4.127-8.986 6.126-13.273 1.984-4.259 3.988-8.479 6.637-12.252-.43-1.271-.669-2.735-.511-4.595 1.732-6.601 3.072-14.881 2.553-25.015-1.022-19.918-14.161-34.176-26.547-44.414-6.307-5.214-10.565-7.855-18.377-10.721-2.435-.893-4.979-2.258-6.637-2.552-1.398-.25-2.79.312-4.084,0-1.329-.321-2.204-1.297-3.573-1.532-8.396-1.439-15.872.226-23.483,0 2.312-2.361 5.376-.923 8.679-1.021 3.265-.096 6.688-1.211 10.209-1.021 9.563.517 20.446,3.665 28.589,8.168 2.749,1.521 6.275,3.99 9.188,6.127 2.077,1.522 2.808,3.038 5.106,5.104 1.173,1.056 2.922,1.463 4.083,2.552 1.105,1.037 1.886,2.828 3.062,4.085 9.256,9.88 17.617,23.711 15.827,44.923-.252,2.98-1.648,5.591-1.02,8.679zm24.503-1.531c-3.593-1.717-9.759-2.261-13.784-1.532-2.352.426-4.335,2.623-6.635,1.532-.038,2.686-3.847,1.598-3.064,5.106 2.761-.437 3.623,1.974 5.615,3.572 3.374.969 13.722,1.616 18.891.512 2.682-.573 6.248-1.647 5.104-5.106-2.947.121-3.634-2.895-6.127-4.084z" fill-rule="evenodd"/>
 <path d="m227.192,84.386c.825-.145.879.482 1.531.51-1.174,4.483-.345,11.182 0,15.826-1.772-.897-1.936-.446-3.573-1.021-.223-5.882-.258-8.874-1.02-14.294 2.324,2.95.739,9.811 2.553,13.273 1.282-4.312 1.12-8.699.509-14.294z" fill-rule="evenodd"/>
 <path d="m229.746,84.386c.825-.145.878.482 1.531.51-.926,4.591.324,11.037-.509,16.848-2.879-4.383.793-12.249-1.022-17.358z" fill-rule="evenodd"/>
 <path d="m233.318,84.896c1.175.54.635,3.807.511,5.616-.233,3.378-1.213,6.812-.511,9.189-3.266-.894-.781-6.983 0-8.678v-6.127z" fill-rule="evenodd"/>
 <path d="m236.893,85.406c.592-.083.908.112 1.021.51-.854,4.421-1.739,8.812-2.042,13.784-2.579-3.795.516-10.231 1.021-14.294z" fill-rule="evenodd"/>
 <path d="m220.05 85.917h1.531c0.156 5.121 1.556 8.993 2.042 13.784-2.948-2.84-2.499-9.072-3.573-13.784z" fill-rule="evenodd"/>
 <path d="m240.466,85.917c1.01,4.25-1.633,9.253-2.553,13.273-1.466-1.828.979-9.897 2.553-13.273z" fill-rule="evenodd"/>
 <path d="m243.019,86.938c.592-.082.908.113 1.02.511-.988,4.045-2.467,8.147-3.572,13.273-2.267-3.804 2.172-9.272 2.552-13.784z" fill-rule="evenodd"/>
 <path d="m216.98 88.469h1.531c0.48 3.946 2.32 6.53 2.553 10.721-3.349-1.586-2.244-7.627-4.084-10.721z" fill-rule="evenodd"/>
 <path d="m245.572,89.49c.593-.083.908.112 1.021.511-1.822,3.112-.927,8.942-4.595,10.209 1.561-3.203 1.902-7.627 3.574-10.72z" fill-rule="evenodd"/>
 <path d="m214.43,90.511h1.531c.55,3.875 2.165,6.685 2.553,10.721-3.348-1.586-2.242-7.627-4.084-10.721z" fill-rule="evenodd"/>
 <path d="m249.66 93.064c-1.793 2.632-2.166 6.683-5.105 8.167 0.246-2.237 2.696-6.416 5.105-8.167z" fill-rule="evenodd"/>
 <path d="m251.7 95.616c-2.017 2.749-2.833 6.697-5.617 8.679 1.003-3.762 2.651-6.879 5.617-8.679z" fill-rule="evenodd"/>
 <path d="m207.79 98.679c2.366 2.74 3.91 6.302 5.106 10.21-2.796-2.028-5.206-6.966-5.106-10.21z" fill-rule="evenodd"/>
 <path d="m247.61 106.85c1.244-3.52 2.977-6.553 6.126-8.168-2.352 2.413-3.362 6.168-6.126 8.168z" fill-rule="evenodd"/>
 <path d="m254.249,101.743c1.058.925-1.08,2.972-2.04,3.573-.454,2.268-1.516,3.931-3.063,5.105-1.383-4.03 2.891-6.567 5.103-8.678z" fill-rule="evenodd"/>
 <path d="m251.187,116.037c-1.425-5.491.955-8.467 4.084-10.721 .688,2.062-3.276,3.861-3.573,6.637 2.267-.626 2.405-3.38 5.104-3.574-2.439,1.986-1.916,6.933-5.615,7.658z" fill-rule="evenodd"/>
 <path d="m285.391,130.841c-3.185-.568-1.835-4.8-2.554-7.146-.854-2.788-2.767-4.586-3.572-6.637-3.689-1.586-4.742-5.809-8.679-7.147v-1.532c4.082.059 6.711,5.839 10.721,7.658 1.699,4.296 5.494,9.085 4.084,14.804z" fill-rule="evenodd"/>
 <path d="m237.4 108.38c0.688 2.231-3.434 4.043-3.572 7.147-1.07-2.615 1.754-5.723 3.572-7.147z" fill-rule="evenodd"/>
 <path d="m260.885,120.631h1.022c.238,1.088-.729.972-1.531,1.021 .096-.413.511-.508.509-1.021z" fill-rule="evenodd"/>
 <path d="m240.466,123.694c2.941,2.795-1.92,6.395-4.595,3.574 .659-2.066 1.617-3.829 4.595-3.574zm-2.042,2.042v1.021c1.257.793 1.502-1.733.511-1.532-.029.312-.076.605-.511.511z" fill-rule="evenodd"/>
 <path d="m218.005,124.204c2.634-.593 2.673,1.41 3.573,2.553-.349,1.523-2.034,1.711-4.083,1.532-.225-1.755.2-2.861.51-4.085z" fill-rule="evenodd"/>
 <path d="m295.089,130.331c2.825,3.06 7.083,9.474 6.126,17.356-.112.933-.096,3.401-1.531,3.574 .89-2.413.202-3.631-1.53-4.595 2.56-5.523-3.039-11.946-3.065-16.335z" fill-rule="evenodd"/>
 <path d="m200.14 130.84c-0.366 2.248-3.042 9.131-5.615 9.19 1.387-3.547 3.579-6.291 5.615-9.19z" fill-rule="evenodd"/>
 <path d="m170.527,149.219c-.704,2.7-5.658,1.149-7.148,3.063-5.972-1.441-11.682,1.05-12.762,6.126 1.244,3.521 5.183,4.346 9.701,4.595-.376,3.028-5.916.89-8.679,1.531-4.263-2.287-5.357-6.544-1.022-10.72 3.752-3.614 14.292-3.382 19.91-4.595z" fill-rule="evenodd"/>
 <path d="m378.3 163c-1.363-1.558 1.543-4.175 0-6.125-2.045-2.891-5.479-4.393-10.21-4.595 2.104-4.057 9.684-0.241 12.251 1.532 1.378 3.436 0.103 7.671-2.041 9.188z" fill-rule="evenodd"/>
 <path d="m164.911,154.324c-3.602-.42-6.489,2.196-9.699.511 1.396-.828 9.42-3.146 9.699-.511z" fill-rule="evenodd"/>
 <path d="m305.81 152.79c1.143 1.175-1.267 3.13-1.531 4.594 0.26 2.633 2.678 3.107 3.064 5.616-6.905 1.924-6.595-8.639-1.533-10.21z" fill-rule="evenodd"/>
 <path d="m388.511,153.814c.595-.083.91.112 1.022.51 1.007,5.418 2.444,10.623 4.595,14.805 1.423,2.769 3.28,5.918 5.104,8.168 2.985,3.679 7.659,5.266 10.212,9.189-5.594.306-10.129-4.62-12.763-8.679-3.986-6.139-6.3-14.738-8.679-21.951-.215-1.067.349-1.352.509-2.042z" fill-rule="evenodd"/>
 <path d="m232.81,157.387c-3.458,1.777-10.164,4.174-13.274.511 3.886,3.002 9.16-2.212 13.274-.511z" fill-rule="evenodd"/>
 <path d="m383.918,156.877c3.776,2.786-.669,8.24-3.575,9.187-.815-1.732 2.48-3.132 3.064-5.104 .007-2.203-.938-2.861.511-4.083z" fill-rule="evenodd"/>
 <path d="m266.502,167.598c.627.223 1.049.652 1.02,1.531-5.426,7.507-10.122,15.743-18.377,20.421 6.294-6.809 13.556-12.651 17.357-21.952z" fill-rule="evenodd"/>
 <path d="m376.26,178.318c-2.865.709-5.385.031-9.188.509 .372-2.365 8.514-3.332 9.188-.509z" fill-rule="evenodd"/>
 <path d="m366.05,177.808c-.816,2.733-4.471,1.441-6.126,1.531-12.787.693-28.813.359-43.902,0 1.709-2.597 6.738-1.774 9.698-1.531 1.506.122 2.37.542 3.573.511 1.902-.05 3.456-.999 5.105-1.021 1.4-.019 2.401.951 4.084,1.021 8.227.342 17.872-1.967 27.568-.511z" fill-rule="evenodd"/>
 <path d="m143.471,185.467c-11.583-.117-20.968-.254-33.184-1.022-1.535-.096-4.871,1.026-5.104-1.533 9.304.361 20.687-.199 31.14,0 .75.017 3.296.333 4.083.511 1.603.365 3.229.066 3.065,2.044z" fill-rule="evenodd"/>
 <path d="m57.195,227.836c8.577-4.121 22.054-2.108 34.204-3.573 3.583-.432 7.468-1.449 11.231-2.042 6.485-1.02 14.435-.857 14.294-7.656-.123-5.852-9.543-9.554-15.316-12.254-2.97-1.388-4.29-3.183-8.679-3.062 1.577-5.914 5.333-9.643 6.128-16.338 2.198,1.882-.689,4.878-1.533,7.148-1.047,2.822-1.215,6.025-3.062,7.658 7.601,1.161 15.193,6.062 22.461,9.188 4.302,4.622 2.758,11.334-1.531,14.805-16.727,5.066-37.672,6.234-58.197,6.126z" fill-rule="evenodd"/>
 <path d="m192.989,184.955c1.554.318 2.611,1.135 2.553,3.062-2.381.546-3.833-1.527-2.553-3.062z" fill-rule="evenodd"/>
 <path d="m249.14 184.96c0.468 2.169-1.224 2.18-3.064 2.04 0.069-1.633 1.159-2.243 3.064-2.04z" fill-rule="evenodd"/>
 <path d="m261.908,185.467c1.305-.025.621.378.511,1.02-7.455,4.298-14.748,11.441-25.525,10.721 2.092-1.541 4.867-1.396 7.146-2.042 6.655-1.894 12.549-5.989 17.868-9.699z" fill-rule="evenodd"/>
 <path d="m467.129,191.081c-3.486-.459-7.604.916-11.741,1.021-1.759.045-5.778-1.155-8.679-1.021-4.071.189-8.172,1.768-11.74,1.531-1.273-.083-2.412-.973-3.575-1.022-1.743-.074-3.81.659-5.614.512-1.479-.121-2.755-1.247-4.084-1.531-3.234-.689-7.503.428-12.252-1.021-.612-.673-.199-.804 0-1.532 5.006.104 14.879.017 22.461,1.021 1.047.138 2.435.98 3.573,1.021 5.328.192 11.734-2.39 17.357-2.042 1.417.087 2.769,1.047 4.084,1.021 3.158-.066 9.088-3.207 10.21,2.042z" fill-rule="evenodd"/>
 <path d="m400.254,189.55c-.744,3.682-6.163,2.685-7.657,5.615-8.06,1.979-12.812,7.269-18.379,11.74-2.956,6.4 1.053,10.912 4.084,14.296-7.117-1.115-12.221-9.46-5.104-17.357 .645-.717 2.25-1.493 3.573-2.553 2.569-2.057 4.173-3.144 7.656-5.106 2.757-1.552 3.223-1.878 6.637-3.062 3.262-1.132 5.096-3.656 9.19-3.573z" fill-rule="evenodd"/>
 <path d="m183.801,191.59c1.543.328 2.946.798 3.062,2.556-1.067.292-1.456,1.263-3.062,1.02-1.269-1.044-.713-2.089 0-3.576z" fill-rule="evenodd"/>
 <path d="m79.147,195.674c-.675,1.377-3.675.89-6.126,1.022-2.322.124-5.052.535-7.148.511-1.311-.017-2.235-.91-3.573-1.022-1.585-.131-3.492.53-5.106.512-3.737-.044-7.214-1.375-10.721-1.531-10.899-.488-21.854,1.439-32.671,0 1.215-2.044 6.063-.767 9.188-1.02 13.745-1.126 33.429-.101 50.542.509 1.818.064 4.311-.308 5.615,1.019z" fill-rule="evenodd"/>
 <path d="m92.93,193.634c1.386.769-.812,2.202-1.02,3.062-2.904-.669-8.688,1.539-9.19-1.531 3.507-.409 8.955,1.128 10.21-1.531z" fill-rule="evenodd"/>
 <path d="m180.737,196.696c.38,1.57-1.402.98-1.02,2.553 .764,1.687 1.246-1.062 2.551-.511-.06,1.981-1.504,2.579-2.551,3.572-1.604.243-1.35-1.373-2.553-1.53 .465-2.086 1.565-3.54 3.573-4.084z" fill-rule="evenodd"/>
 <path d="m369.624,217.626c1.437,4.047 2.403,4.878 6.637,7.659 4.075,2.676 6.628,3.727 13.273,5.104 2.789.58 5.54,1.699 7.656,2.042 2.844.463 6.893-1.055 8.679,2.042-12.164-1.146-25.288-3.181-34.713-9.188-.673-2.129-4.033-5.594-1.532-7.659z" fill-rule="evenodd"/>
 <path d="m116.413,220.69c.411-.271.829-.534 1.533-.511 1.915,5.058-3.731,6.761-7.659,7.656 1.336-2.942 7.989-2.629 6.126-7.145z" fill-rule="evenodd"/>
 <path d="m379.324,220.69c2.722.172 3.313,2.472 5.615,3.062 28.645,3.8 54.984,5.144 82.19,5.106-.611,3.917-7.902.824-10.719,3.572-4.01-1.705-8.649-1.067-13.273-1.531-2.543-.255-4.893-1.547-7.659-1.53-2.761.017-8.135,1.803-12.252,1.53-1.928-.126-4.104-1.329-6.125-1.53-6.745-.678-12.709-.468-19.399-1.533-1.964-.312-4.056-1.176-6.126-1.531-6.237-1.066-11.349-.617-12.252-5.615z" fill-rule="evenodd"/>
 <path d="m52.091,227.327c-2.636,3.801-12.333,1.515-18.891,1.531-1.812.004-3.853.559-5.615.511-2.819-.079-5.334-1.211-8.168-1.533-6.836-.772-13.969-.105-19.399-2.551-.083-.594.112-.91.511-1.022 14.953,1.263 34.417,3.837 51.562,3.064z" fill-rule="evenodd"/>
 <path d="m286.411,223.752c1.791-.448.892,1.683 0,1.533-10.974,4.615-22.247,4.849-33.692,5.104-11.664.262-24.503.164-33.693-1.53 8.124-1.542 17.287.406 26.547,0 14.333-.63 28.693-1.315 40.33-5.106l.508-.001z" fill-rule="evenodd"/>
 <path d="m32.181,232.941c25.197,1.089 52.737-2.181 76.065-6.125 .868-.188.963.398 1.022,1.02-18.778,4.394-41.722,5.689-63.304,6.637-4.211.184-11.004,2.023-13.783-1.532z" fill-rule="evenodd"/>
 <path d="m112.84,228.858h1.531c1.275,5.08-2.433,9.514-6.125,11.74-5.05,3.047-12.123,3.859-18.889,6.128 .598,1.782 1.971,2.792 2.042,5.104-1.479,9.163-6.182,21.018-3.064,29.609 1.423,3.918 5.052,7.395 8.679,9.7 1.095.694 4.487.742 3.575,3.062-8.625-.223-10.79-6.909-14.805-11.741-.677-3.822-.542-10.448.511-14.805 1.045-4.333 5.816-13.764 1.02-20.421-24.917,1.738-50.61,3.105-74.022-1.531 .603-2.022 3.361-.992 4.595-1.02 10.16-.237 19.381,1.732 30.12,1.531 6.148-.117 11.905-.075 17.866,0 10.567.133 21.153.168 29.098-2.554 7.285-2.492 15.737-5.419 17.869-13.273-.001-.507-.001-1.018-.001-1.529z" fill-rule="evenodd"/>
 <path d="m374.218,229.369c2.289,3.893 3.526,4.684 8.679,7.146 1.482.71 3.034,2.177 4.084,2.553 2.818,1.012 7.229,1.257 11.231,2.042 3.882.763 8.109,1.951 10.721,2.042 1.452.052 3.159-.59 4.595-.511 4.796.268 9.506,1.309 14.293,1.533 5.254.245 10.525.199 15.316,0 2.818-.119 5.949-1.81 8.167.511-1.502,3.525-6.161,1.431-9.189,1.531-2.179.07-4.103.964-6.126,1.02-4.945.139-11.406-.542-16.847-1.02-2.779-.245-5.559-1.461-8.167-1.531-1.157-.031-2.445.656-3.575.509-2.233-.291-4.202-1.651-6.126-2.042-3.764-.765-7.347-.166-10.721-1.02-.405,3.808.87,5.937 2.044,8.167 .856,9.319-1.194,16.216-3.063,23.995-3.783,5.063-8.478,9.221-13.273,13.271 .268,2.455 2.201,3.244 3.574,4.595 8.459.31 14.174-3.157 14.294-9.699 2.881-5.006 5.187-11.038 6.637-17.357 .7-3.056.798-6.651 1.531-9.7 .649-2.705 1.524-6.377 4.084-7.657 .448,3.295-1.677,6.153-2.042,9.701-.393,3.808-.053,7.424-1.022,11.229-.557,2.191-2.223,4.688-3.062,7.147-1.974,5.771-1.72,8.085-5.106,12.252-2.28,2.809-10.307,8.224-15.313,7.658-5.92-.671-11.055-11.042-2.044-12.253 6.938-5.461 12.993-14.724 13.273-26.545 .123-5.156-1.923-9.836-3.062-14.805-5.58-2.712-17.173-4.441-13.785-12.762z" fill-rule="evenodd"/>
 <path d="m367.07 231.92c-1.14 3.564-8.238 1.17-11.742 1.02 1.529-4.524 7.626-0.924 11.742-1.02z" fill-rule="evenodd"/>
 <path d="m218.005,232.431c11.45,1.438 20.731.135 30.118,1.022-2.391,1.396-6.186,1.408-9.188,1.53-5.986.247-14.719.569-19.399-1.02-.636-.215-1.764.067-1.531-1.532z" fill-rule="evenodd"/>
 <path d="m416.589,233.453c-1.124,2.744-5.804.992-8.679.511 1.652-2.499 5.714.048 8.679-.511z" fill-rule="evenodd"/>
 <path d="m138.365,235.495c-3.768,2.052-9.977-.055-14.804,0-2.144.022-3.924.806-6.126.511-.227-.455-.449-.914-1.022-1.022 .351-1.705 1.948-.444 3.064-.511 5.494-.325 14.844-1.56 18.888,1.022z" fill-rule="evenodd"/>
 <path d="m297.131,234.983c.37,2.582-2.495,1.93-2.551,4.084-.187,4.427-.16,8.104-.511,11.231-2.587-2.567.083-7.854-.512-11.742-3.445.299-5.234,2.254-8.167,3.063-1.155,3.964-.295,9.639 0,13.783-4.014-3.315-2.121-8.485-1.531-13.271-13.311.481-28.417,3.568-44.414,3.062-1.637-.444-1.597.787-2.044,1.533-1.202-.158-.949-1.774-2.551-1.533-7.283-.033-13.701-.933-20.421-1.531-.53,3.232 2.337,11.653-.509,14.294-.312-4.136.258-11.679-2.553-14.805-2.881-.693-6.842-.306-7.659-3.062 29.183,5.375 66.851,3.424 93.423-5.106z" fill-rule="evenodd"/>
 <path d="m201.159,240.599c.409.272.827.534 1.531.511-.033,1.605 1.67,3.99 2.042,6.637 .455,3.243.868,8.291-1.533,9.701 2.343-6.459-.908-11.071-2.04-16.849z" fill-rule="evenodd"/>
 <path d="m453.858,243.662c1.184-.162 1.958.083 2.553.512 .147,1.325-3.453,1.773-2.553-.512z" fill-rule="evenodd"/>
 <path d="m103.65,244.174c.868-.189.964.398 1.022,1.02-1.448,3.78-3.114,7.011-3.575,10.721-.625,5.056-1.521,13.963.511,19.399 2.103,5.621 10.841,6.174 9.19,14.294-.513,2.525-3.43,4.295-5.615,5.105 2.312-4.244 4-7.91 0-12.252-1.138-1.233-3.388-1.813-4.595-3.574-2.96-4.317-2.956-14.784-1.531-20.931 1.102-4.757 3.2-7.518 4.593-13.782z" fill-rule="evenodd"/>
 <path d="m194.011,261.02c.592-.083.908.112 1.02.512-1.111,6.716-6.101,9.553-6.126,17.355-1.809.043-3.351-1.562-3.573-2.551-.525-2.335 1.88-3.015 4.084-6.126 2.16-3.054 3.255-6.76 4.595-9.19z" fill-rule="evenodd"/>
 <path d="m220.047,297.776c2.2-.49 1.728,3.227 1.02,4.084-.916.064-1.076-.625-2.042-.511-.33-1.863.345-2.718 1.022-3.573z" fill-rule="evenodd"/>
 <path d="m257.313,109.911c7.11.038 12.935,1.361 16.335,5.105-5.207.846-9.678-4.695-15.824-3.063-1.353,1.542-2.65,3.136-3.575,5.105 1.168.381 4.067-.211 5.106,1.532 1.963,5.743-4.161,9.466-4.084,12.763 .062,2.725 2.312,2.581 3.572,5.615 6.741,4.029 14.454,8.019 19.911,13.784 .87.92 1.123,2.503 2.042,3.574 1.886,2.203 4.713,3.561 6.125,5.617 3.374,4.906 4.539,11.25 6.126,17.866 2.31-.754 1.321-4.807 3.064-6.126 1.285-25.45-16.159-32.17-28.59-43.903-.505,1.998 1.128,2.964 0,4.083-3.641-.442-7.359-.807-8.167-4.083 1.766-.552 4.029,2.295 6.637,2.553 1.807-1.706-1.024-5.132.511-6.637 2.796,1.457 3.312,5.196 6.637,6.126-1.136-4.337-8.693-9.31-9.189-14.294 8.5,5.453 10.924,16.983 19.91,21.952 2.923-4.087 4.528-10.432 3.062-17.868-.691-3.504-3.712-7.112-1.53-9.7 4.195,3.344 4.705,12.341 4.595,18.378 2.883-3.107 2.507-7.44 3.572-11.742 .241-.976 1.351-1.919 1.531-3.064 .569-3.604-1.508-9.14 2.042-10.719-.428,1.953-.667,4.097-.509,6.636 5.07-2.408 4.042-9.149 3.572-15.314 3.299,1.755 2.113,10.106 1.021,13.272-.739,2.151-3.714,4.454-4.593,7.147-.723,2.216-.61,3.995-.511,6.126 6.005-2.675 8.506-13.274 11.74-20.42 1.336,2.372-.334,6.118-1.02,8.168 2.777-.285 2.765-3.36 4.595-4.594 .308,1.222.733,2.328.509,4.083-6.745,1.763-7.588,9.427-12.252,13.272 1.078,1.305 2.508,2.258 4.084,3.063 .544-2.252-1.01-3.944 0-5.104 1.655.051 1.082,2.191 1.531,3.062 1.226,2.375 3.562,5.633 6.128,7.658 .889,4.386 3.249,7.3 5.614,10.21 6.751-4.651 13.509-9.294 19.911-14.294-4.028-8.056-9.229-14.937-16.847-19.399-1.032,3.591 3.421,6.101 4.084,9.7-6.178,1.414-4.981-10.731-8.679-13.784-4.693-3.986-6.699-10.658-11.232-14.805-4.792-.484-5.702-4.848-11.231-4.595-1.888-.357-1.273,1.79-2.042,2.553-6.562-.1-12.225,4.669-15.824,9.189-.164,2.205 3.542.543 3.573,2.553-4.163,1.112-11.268-.717-12.763,3.063 3.148,1.308 6.9.537 10.209,1.021 2.316.339 5.154,1.947 7.659,2.042 2.632.1 8.506-.116 7.656,4.084-2.484-1.94-6.196-2.653-10.209-3.063-1.487.715.905,1.758.511,3.063-2.997-.065-5.015-1.111-6.128-3.063-5.835-2.356-13.332-2.727-17.355,1.532 3.968-4.37 7.648-9.027 14.294-10.721 3.187-5.493 9.322-8.035 13.782-12.252 3.467.573 4.688-1.098 6.637-2.042 5.16-.224 7.748,2.124 9.701,5.105 5.31.988 7.925,4.668 9.698,9.189 3.557,2.977 5.889,7.123 9.701,10.21 4.235,3.432 9.212,5.364 12.251,9.7 .925,1.318 1.539,3.653 2.554,5.105 .976,1.402 2.218,2.644 3.572,4.083-1.598,3.758 2.148,6.274 3.062,9.19 .418,1.948-1.086,1.977-2.039,2.552 1.655,2.427 3.688,4.478 4.593,7.658 2.842,2.774 5.87,5.362 9.189,7.658 .017,2.271-2.641,3.873-1.02,6.126 1.978-2.962 5.874-6.711 9.698-6.126-2.54,3.308-8.124,3.248-7.659,8.168 .645,6.776 13.688,5.85 21.441,4.596-.521,1.858-2.968,1.794-4.593,2.551 4.394,1.902 10.866,1.724 11.741,7.147 2.264,2.956 8.919,6.574 6.125,11.231-2.108-.614-2.017-3.427-3.062-5.105-2.019-2.917-5.247-4.624-7.147-7.657-6.658-4.403-19.001-3.122-25.525-7.658-.072-1.97-1.725-2.357-1.531-4.593-2.315-.274-1.192,2.892-2.042,4.084-2.544,1.08-6.512,5.116-10.209,6.123-.96.262-1.933-.586-3.064-.509-2.104.142-5.096,1.938-5.105-1.53 2.767-.046 4.96-1.43 7.147,0 1.863-.316 3.174-2.497 4.084-4.084 .894-1.559 2.114-4.392 2.042-5.617-.247-4.185-8.868-9.909-10.721-13.272 1.014-.007.65-1.393 2.042-1.021 1.596-.234 1.633,1.09 1.531,2.552 3.246,3.562 6.504,7.111 10.211,10.211-.353,2.541-1.777,4.006-2.042,6.636 4.137-.797 3.243-6.626 4.593-10.21-2.715-3.75-7.015-5.918-11.229-8.167 .295-1.684 1.928-.732 3.062-.511-.102-3.982-2.746-5.42-4.084-8.167-7.781,2.6-14.591,6.17-21.441,9.7-.395,5.05-4.495,6.396-7.657,8.679-2.056,8.961 3.696,15.6 9.699,11.741-.463-2.256-2.36-3.085-4.593-3.573-.199-1.485 1.528-3.282 2.551-4.595 2.823-3.619 6.235-7.535 10.721-9.7 1.45,1.984-2.941,2.487-3.573,4.085 2.051,1.181 6.29.176 9.19.51 2.011,2.752 5.627,3.901 6.125,8.167-2.702,5.152-10.799,7.549-17.868,6.64-4.624,4.424-11.522,1.67-14.293-2.554-.383-2.306.758-4.158.511-6.637-.243-2.42-1.882-3.886 0-6.125 1.032-1.23 2.608-.73 4.084-2.043 2.355-2.097 3.622-6.239 5.614-7.657 1.771-1.26 5.347-1.628 8.168-3.063 5.308-2.702 8.093-5.321 13.784-6.637-.143-2.581-2.044-3.401-2.553-5.616-4.069,2.227-8.063,4.528-10.721,8.167-5.852.785-6.726,6.547-13.784,6.127-3.717-5.078-4.882-11.941-9.699-15.827-2.092-1.688-4.941-1.682-6.637-4.084-5,4.529-7.389,11.67-11.74,16.847 8.209,6.415 14.823,17.885 11.74,31.14 1.039,2.705 3.918,3.571 4.595,6.64 3.282,1.406 6.22,3.672 9.19,5.614 3.054,1.996 5.767,3.857 9.188,5.615 11.338,5.82 23.145,8.952 28.589,20.421 1.126,10.118 4.3,18.032.511,27.567-2.586,6.504-8.974,10.791-13.273,16.335-1.688,2.178-1.823,5.486-4.595,6.637-6.412,15.931-14.565,29.397-26.036,40.841-.889.886-1.834,2.801-3.573,2.042-.679-2.725-.947-5.791-4.595-6.637-4.886,2.431-7.438,7.196-12.251,9.699-.923,1.121-1.992,2.092-2.554,3.574-4.987.809-6.742,2.497-9.189,5.104-3.336.521-4.877-.146-6.126,2.042-.966-.565-2.411-.65-3.572-1.021-3.029,1.315-3.905,2.582-6.637,2.551 .222.005-5.993-1.491-7.148-2.042-.544-.26-2.106-2.538-2.551-2.551-.818-.024-5.461,3.636-7.147,4.084-1.074.285-2.68-.197-4.084,0-1.649.23-2.603,1.049-3.573,1.021-2.059-.062-4.231-1.633-6.126-2.042-4.489-.966-6.905-1.957-11.231-4.084-2.491-4.316-5.312-8.303-10.721-9.699-4.969,3.144-8.17,9.809-16.335,8.168-5.659-10.509-13.828-18.506-19.399-29.1-.654-.709-2.412-.312-3.064-1.021-2.173-6.336-10.478-6.537-11.232-14.293-2.927-2.431-4.869-5.366-7.657-8.679-2.756-3.276-7.127-6.745-6.125-14.296 .721-5.43 7.642-13.878 11.229-18.378 1.774-2.223 4.699-6.161 7.659-7.147-1.875,3.926-5.44,6.952-8.167,10.721-1.174,1.622-2.881,3.782-3.575,5.105-.386.738.058,2.165-.509,3.573-.596,1.479-2.233,2.503-2.553,5.105-.147,1.195.997,2.552 1.02,4.084 .008.499-.696,1.089-.509,2.042 .688,3.517 2.497,7.333 4.595,10.21 1.849,2.54 5.283,4.211 7.146,7.147 1.683,2.653 1.72,6.249 5.617,7.148 1.039-1.957-1.279-4.338-2.553-5.617-.216-4.275-3.247-8.236-2.553-11.74 3.125,2.251 2.721,6.817 4.084,10.209 1.999,4.969 4.732,9.611 8.168,12.763 5.824,11.365 15.845,18.527 21.441,30.12 8.002-2.33 14.487-10.096 18.377-17.868 3.093-6.18 5.839-13.421 2.042-21.952-1.807-.233-2.947-1.135-5.104-1.021 .324,6.095 2.437,9.815 2.042,14.805-6.29-1.238-3.606-9.84-5.106-15.315-.962-3.517-4.408-4.74-4.595-7.657-2.098,2.14 1.766,4.764.511,6.126-5.669-.725-.347-14.156-5.104-16.846-2.322,1.537-1.535,7.345-1.533,9.698-1.413,1.961-2.381,3.585-2.553,5.617-3.485-.765.333-4.292 1.022-5.617-.382-3.444.823-5.304.511-8.679-1.973,1.434-2.941,3.865-5.106,5.105 .21,1.23-.933,1.109-.511,2.554-1.859,1.354-3.06,3.69-4.084,6.125-.912,2.173-.85,5.532-3.062,6.637-1.344-17.006 14.964-20.766 19.399-33.692-6.385,2.804-12.449,10.351-18.379,15.313-1.575-4.716 4.522-5.97 5.617-9.699 3.365-1.738 6.458-3.751 8.679-6.637 5.029-1.605 7.852-5.421 12.763-7.147-.338,2.896-2.914,3.554-4.595,5.105-1.87,5.108-4.069,9.886-7.659,13.274 .769,3.226 5.696,4.744 3.575,9.188 1.996,3.109 3.854,6.356 6.126,9.189 2.989.245 5.251,1.215 7.657,2.042 1.708-.505 2.378-2.046 4.084-2.553 7.538,1.729 10.087,12.833 7.147,20.421-.681.85-2.892.171-3.573,1.021 .071,4.184 2.62,5.887 7.146,5.616 1.749,1.654 2.316,4.491 3.064,7.146 3.708,2.688 6.398,8.784 13.782,6.125 1.498-.236 1.876,2.451 3.064,2.554 .806.068 3.481-2.863 5.615-3.573 2.351-.783 3.438.256 5.105-1.022 1.604-3.159 4.134-5.395 7.656-6.635-2.234-9.245 6.608-11.532 11.232-14.295-1.749-.733-4.109,1.859-7.148,0-.234-3.54-1.821-5.96-1.53-8.679 .128-1.205 2.689-2.563.511-3.573 2.689-.769 5.386-7.197 11.229-7.147 1.861.017 3.354.837 5.105,2.042 3.253-3.382 8.579-4.694 11.232-8.679 .546-1.907-1.268-1.454-1.022-3.062 1.604-.577 1.351.147 2.553-.511 1.307-7.206 9.19-11.522 6.637-19.399-5.135-2.862-7.704-8.29-10.209-13.782-2.829-1.039-5.276-.619-8.679-1.533-3.592-.964-6.141-4.215-10.721-4.084-.376-1.155-1.946-1.115-2.042-2.551-4.458-.667-8.143-.002-11.743,0-.772,0-2.642-.771-3.572-.511-1.315.365-3.054,2.068-4.595,3.572-3.442,3.361-5.302,7.473-9.188,10.721-5.903-1.585-8.358-6.618-13.784-8.679-5.085,2.572-8.095,7.221-14.805,8.168 .555-2.969 3.995-3.301 6.126-4.593 2.104-1.277 3.891-3.155 6.125-4.086-3.845-4.849-11.491-5.806-15.315-10.721-1.591-2.046-1.988-4.925-3.062-7.656-1.481,5.17-1.901,15.388 0,19.399 2.397-2.366-.382-9.913 2.553-11.743-1.184,8.843 3.444,21.226.509,29.611-1.643-1.369-1.585-4.235-2.551-6.637-3-7.447-9.823-12.709-10.721-22.975-.937-.133-3.018-1.578-3.064-4.084 1.556-1.493.997,2.003 2.553,2.042 1.66-.926-1.074-3.08.511-4.082 1.845.726.758,2.732 1.02,4.082 .866,4.489 2.611,9.021 4.595,12.254 2.181-3.714.598-8.122 1.022-12.254 .351-3.425 2.027-6.211 2.551-9.188 .708-4.021-.689-8.18 2.553-10.721 .093,2.823-.53,9.333-1.531,12.763 5.43,11.589 17.517,18.074 34.204,16.847-2.557,2.208-6.99,2.538-11.743,2.553 3.787,2.68 8.583,4.35 12.253,7.146 3.503-5.686 7.801-10.575 12.252-15.313 1.047-.623 2.031,1.363 3.062,1.531 1.334.216 4.554-1.12 7.148-1.022 1.235.048 3.211.623 3.572.512 5.949-1.824 7.148-15.706 9.701-21.441-1.97,1.9-2.724,4.667-4.084,7.147-1.292,2.352-2.709,4.86-4.084,7.146-.317-3.045 3.354-6.508 4.084-10.209-6.537,4.526-12.403,14.142-23.483,15.826v-2.042c-17.385,4.2-32.53-5.509-37.268-18.889 4.304,1.28 4.21,6.311 7.147,9.19 2.692,2.638 13.671,7.415 19.399,8.165 3.739.49 8.716.313 12.763-1.02 1.392-.372 1.026,1.014 2.042,1.02 5.835-4.713 8.133-12.968 12.252-19.399v-3.062c2.162-3.669 3.872-8.251 3.572-12.252-.627-8.421-10.465-15.561-10.209-22.973 4.442,5.937 8.373,12.388 12.251,18.889 .468,17.312-7.575,26.115-13.782,36.755 3.423-1.076 6.815-3.976 9.698-6.635 2.541-2.343 6.386-5.662 7.659-8.679 .468-1.109.135-3.08.511-4.595 1.028-4.152 3.324-10.266 4.084-16.335 2.777,2.474-.208,5.675 0,8.167 .478,5.733 6.367,8.28 8.168,13.274 4.836-11.264-3.465-20.37-9.189-27.059-4.24-4.953-9.03-10.728-14.805-14.805-.829-.584-2.298-.486-3.064-1.021-.824-.575-.949-1.679-1.53-2.042-.603-.376-2.02-.094-2.554-.51-1.764-1.375-2.827-3.502-4.084-5.106-1.932,2.467-.776,6.913-1.53,10.211-.256,1.121-1.458,1.953-1.531,3.063-.218,3.264.97,5.813 2.551,8.167 1.876-.507 3.064-1.701 5.106-2.042 2.116,2.668 1.672,6.253 2.042,9.701-4.067,2.737-12.277,1.333-16.847,3.572-.345,3.972 4.418,7.108 3.063,10.721-.968,2.576-4.466,3.947-9.189,2.553-.559-4.055-.623-8.512.511-12.762-6.082,2.426-10.592,10.847-18.379,13.273-.737-2.668-.937-5.871-2.042-8.17-4.343,3.824-8.905,7.43-16.335,8.17-.193,1.724.885,2.177 1.531,3.062-.05,1.312-1.992.731-2.042,2.042 2.152,1.08.274,3.899 0,5.615-4.134,1.071-6.797,3.917-10.21,6.637-1.805,1.439-3.916,2.577-5.615,4.083-2.378,2.108-3.878,5.15-6.125,7.148-.671.596-2.148.769-3.064,1.53-.725.604-.899,2.086-1.531,2.554-1.938,1.436-5.312,2.831-7.147,3.062-4.258.536-11.313-2.256-14.293-4.593-6.722-5.272-9.196-14.545-5.106-22.973-.86-1.352-1.18-3.244-2.042-4.595 .937-5.021 3.384-8.529 7.659-10.212 .386-3.186 2.391-4.752 5.104-5.614 .056-6.412 6.751-6.18 10.209-9.188v-3.064c1.369-1.525 2.474-3.312 4.595-4.084 .613-1.793.746-1.68 1.022-3.064 5.175-2.206 2.713-8.552 5.104-12.251 1.645-2.544 7.272-4.778 10.721-7.147 2.179-1.497 5.951-4.239 9.701-5.106 .372-2.811 2.977-4.259 1.02-6.636 .908-.953 1.298.415 3.064,0 .43-2.265-3.587-1.774-2.042-3.574 1.801.07 2.283,1.461 4.084,1.532-.58-2.315-3.395-2.393-4.084-4.595 2.653-2.309 4.293,3.388 6.637,4.595-.166-4.258-3.672-5.176-4.595-8.679 2.41-1.042 2.694,3.982 5.104,4.594-.239-3.753-4.832-5.607-3.573-9.188 2.867,2.068 3.001,6.867 6.637,8.167-.716.986-.278,3.125-2.553,2.553 2.223,3.285-1.313,3.24.511,6.126-.313.708-1.965.077-2.042,1.021 .635,3.624 1.894,8.465 0,11.742-1.6-.353-.665-1.361-.511-2.552-.748-2.594-4.998-4.043-4.084-6.637 2.148-.105 2.144,1.94 4.084,2.042-.187-2.535-1.084-4.361-2.042-6.126-8.224,4.934 2.507,11.643 1.531,18.889 1.978-.747 2.169-3.277 3.575-4.595 .139,3.256-4.414,8.793-2.042,14.295 1.843-.369 1.832-2.59 2.042-4.595 2.792-3.504 6.213-6.379 8.679-10.209-5.262.219-10.334-4.259-7.148-9.19-.891,7.953 13.099,10.88 12.763,1.532 .689-1.929-1.519-1.029-2.553-2.553-.295-.435.162-1.528 0-2.042-1.147-3.642-6.454-4.289-9.699-.51 .825-2.408 2.92-3.547 4.595-5.105 2.204-.333 2.86.882 4.084,1.531 .613-1.483-1.759-4.353-5.106-3.574 5.048-5.772 7.445,5.249 9.19,9.19 1.869-3.38 3.724-6.613 2.551-11.742 2.133,2.72 1.159,10.509-.509,12.763 .158.693 1.277.424 2.042.51 .788-1.624-.769-4.252 1.02-5.615 1.184.688-.095,3.84 1.533,4.084 4.198-3.361 5.087-12.509 12.251-11.232 .239,1.09-.729.974-1.531,1.021 .719,1.152 3.324.42 3.062,2.553-2.211-.559-4.576.1-6.637,1.021 .944,1.559 2.426-.589 4.083,0 1.066,1.998 3.328,2.799 3.575,5.616-.916.064-1.078-.625-2.042-.511 9.344,8.513-11.456,18.147-11.231,7.148 1.332.54 1.067,2.676 2.553,3.063 8.695,2.519 11.876-6.417 6.126-9.7 .123-.898.879-1.164 2.042-1.021-1.02-2.686-4.601-2.693-6.637-3.063-2.399,2.025-2.322,6.526-6.126,7.147-1.394.461 1.552,1.142 0,2.042-1.986-.763-2.869-1.268-4.595-.511-1.186,2.047-.922,5.545-2.553,7.148-2.086.154.087-.708-.511-2.042-2.085-.046-1.554,2.528-3.062,3.063 2.42,3.383 9.838,4.059 13.273,1.021 .252-1.603-1.761-1.349-.511-2.553 2.271.963 4.777,1.689 5.615,4.084-4.55-2.609-7.177,3.898-12.252,3.574-3.107-.198-4.676-4.084-7.148-4.083-3.213.002-9.146,8.036-9.699,11.742-.748,5.011 1.12,9.289 4.084,11.743-.627-5.973-1.637-14.731 3.064-16.848-.436,1.437-1.649,2.094-1.533,4.084 4.495-2.254 13.236-.746 18.888-1.532 1.172-.162 2.554-1.182 3.575-1.021 5.057.801 5.484,5.616 5.615,11.742 6.961-4.383-1.155-11.209-1.531-17.357 3.176,1.758 2.567,7.301 5.615,9.19 2.438-3.735-.684-10.427 0-13.784 2.199,2.225 2.094,6.755 2.042,11.23 2.684-7.729-1.147-17.903 5.105-22.972 .798.998-1.404,3.338-1.533,5.105 3.081,1.304 4.224-7.007 1.533-8.679-2.061.321-2.262,2.504-4.084,3.062-1.144-5.219 4.685-7.447 5.616-12.25zm-16.847,68.916c2.486.447 3.386-.697 5.105-1.02-.19-3.895-1.585-6.583-3.063-9.188-1.356.004-2.917-.195-3.573.509 1.113,3.674-.153,7.323 1.531,9.699zm-39.307-52.07c-6.24,1.078-6.834,7.801-10.723,11.23-1.695-1.317 1.226-4.216-1.02-4.594-5.206,2.623-8.721,6.936-9.19,14.293 1.12,1.264 4.639.127 4.595,2.553-1.898,1.346-7.137-2.412-8.167,1.021 1.128,1.083 4.684-.259 4.084,2.553-3.604-.961-10.061-.269-9.19,6.127-2.119,1.963-5.395,2.771-7.146,5.104 3.28-1.248 6.753.717 9.698,0 3.284-.8 3.473-3.782 6.637-4.595 .438,15.048 3.874,27.098 15.315,31.14 1.398-1.666 3.047-3.078 3.573-5.614-.677-1.251-1.898.562-2.042-.509-6.88-6.734-12.278-14.95-13.273-27.568-.006.515-.894.642-1.02,0 2.455-5.031 6.857-8.117 7.657-14.805 2.627-1.118 5.187-2.302 8.679-2.553 1.824-2.262 2.191-5.977 4.084-8.167-1.045-1.677-2.745-2.703-2.551-5.616zm1.53,11.742c.748,1.124 1.352,2.391 3.573,2.042 .434-2.637.746-5.539-1.531-6.637-.918,1.294-2.11,2.315-2.042,4.595zm5.615,2.042c.139-.695-.316-1.993-.511-1.021-.139.695.316,1.993.511,1.021zm-14.804,3.063c-1.747,3.188-3.271,6.599-5.104,9.7 6.394-1.508 9.219-10.031 16.846-7.146-.372-1.562.881-1.502.509-3.063-4.289-3.638-6.148.798-12.251.509zm31.14,8.678c2.75.708 2.14-1.944 4.595-1.532v-3.573c-4.329-2.19-4.774,2.166-4.595,5.105zm-6.126-3.063c.513,1.529 3.077,1.008 4.595,1.531 .704-.658.504-2.218.511-3.573-2.304.08-4.942-.177-5.106,2.042zm11.742.51c.823,1.049 2.56,1.184 4.595,1.021v-3.063c-.743-.79-2.613-.45-4.083-.51 .207,1.23-.933,1.11-.512,2.552zm6.126.511c2.146-.237 4.755-.009 5.615-1.532-2.938.556-2.418-2.345-5.615-1.531-.953.908.413,1.298 0,3.063zm-20.421,0h1.533c-.05-.802.068-1.77-1.022-1.532 .023.704-.241,1.122-.511,1.532zm-29.098,7.658c-.411,10.622 4.817,15.603 8.679,21.951 2.052-.352 2.915.49 4.595.511 .733-.798 1.286-1.778 2.553-2.042 9.237-.463 13.039-6.358 18.888-10.209h2.553c-2.453-4.793-9.736-1.725-12.763-1.022 .33-1.882 1.747-2.678 3.573-3.062-3.39-4.439-6.398-9.259-9.189-14.296-9.336-2.282-13.555,4.767-18.889,8.169zm30.631-3.574c1.441.422 1.321-.72 2.553-.51 .422-1.444-.721-1.323-.511-2.553h-2.042c-.698.653-.698,2.411 0,3.063zm3.573-.51c1.41-.292 2.862-.541 2.553-2.553-2.37-.66-3.752,1.204-2.553,2.553zm12.251-1.532h1.533c.064-.917-.509-1.194-1.533-1.021v1.021zm2.554,0c1.078.454 1.51,1.554 3.063,1.532v-2.553c-1.354.008-3.006-.283-3.063,1.021zm6.636,1.532c-1.041.149-1.001,1.38-2.042,1.531-3.295,1.183-5.638-1.183-8.679-1.531-5.931-.682-11.143,2.729-15.827,1.021 .232,2.28.035,4.572 1.022,6.125 1.007,1.585 8.278,4.939 9.701,5.104 2.044.239 9.086-1.169 11.741-2.039 4.392-1.442 7.654-13.152 1.531-12.764-1.078,2.781 1.921,1.483 2.553,2.553zm-1.531,11.231c3.905-1.539 7.702-3.188 11.741-4.595 .635-3.868-1.557-4.91-1.531-8.168h-1.531c-1.517,5.293-8.488,7.846-8.679,12.763zm79.638-4.084c.359,4.973 5.533,4.352 9.7,3.573 3.984-.744 7.724-.563 8.168-3.573 .642-4.362-6.921-5.557-8.168-5.616-6.03-.287-10.037.956-9.7,5.616zm-66.366-3.063c.761.432.739,1.644 1.022,2.552-2.42,2.516-8.625,1.246-9.699,5.105 3.866.393 8.962-2.216 13.783-2.553 .1-2.48.116-4.88-1.021-6.125-1.659.043-3.14.263-4.085,1.021zm-94.442,20.42c-.343-2.214 2.567-1.178 2.042-3.575-6.986.333-11.847,2.788-12.251,9.701 2.731.407 4.396-4.373 7.657-5.105-.823,3.602-4.078,4.771-6.126,7.147-5.272,14.722 3.361,27.955 18.889,28.078 8.33-4.944 13.726-12.82 20.419-19.399 .079,1.27-.802,1.581-1.02,2.553 2.449-.785 4.626-1.84 5.105-4.595h-3.064c-8.745-5.21-11.699-16.209-12.762-29.098-.112-.399-.428-.595-1.022-.512-6.295,4.596-10.196,11.586-17.867,14.805zm83.212-12.254h1.02v-1.02h-1.02v1.02zm-3.063,1.023c.966-.114 1.126.575 2.042.511-.215-.976-.186-2.197-1.531-2.042 .022.702-.242,1.12-.511,1.531zm-76.577.511c1.086,1.583 3.251-1.46 4.084,0-2.526,2.919-10.029.86-10.721,5.615 6.041,1.228 12.486-1.434 13.785-6.637-2.305.417-6.429-.985-7.148,1.022zm56.668,3.573c-.125,3.527.933,5.874 3.062,7.147 4.651-2.328 7.916-6.038 11.231-9.698-5.612,0-10.051,1.18-14.293,2.551zm73,14.805c-.199,4.248 2.009,7.532 1.533,11.231-4.226.479-4.471-3.019-4.595-6.637-2.169-3.176-3.621-8.373-6.126-10.721-1.016-.951-2.071-.482-3.063-1.531 1.073,10.208-4.124,22.214-7.657,31.141 16.104,10.951 48.854,5.259 55.646,25.524-3.557-1.063-4.447-5.236-8.679-6.125-1.513-.318-3.852.646-5.617.511-2.692-.208-6.598-1.448-8.168-3.064 4.471-2.401 8.579,4.235 12.252,1.022-5.955-4.086-14.873-5.206-21.95-8.168 1.08,3.513 3.417,5.771 5.104,8.677 5.021,1.277 8.577,4.018 14.296,4.595 2.16,2.998 8.808,4.053 6.635,9.701-3.139-5.029-9.786-6.55-15.824-8.679-.312,5.901 4.433,11.653 5.104,17.357 .218,1.845.995,6.751-2.042,7.656-3.393-1.768.525-6.082-.509-10.209-2.3-1.957-1.487-7.023-4.086-8.68-2.198,3.713-3.942,8.629-5.104,13.783-.251,1.111-1.375,1.736-1.53,2.553-.879,4.589-.38,8.583-4.595,9.189-1.365-1.425.478-2.521.511-4.084-2.2.405-4.653,1.353-6.128,3.062-1.793,2.083-4.975,10.654-5.104,12.763-.754,12.251 14.733,13.697 22.461,18.379 4.93-4.524 8.118-10.031 11.743-15.315 4.416-6.439 8.222-14.189 11.74-20.419 3.232-5.721 6.491-11.577 9.189-17.357 1.596-3.42 1.786-7.46 4.595-10.21 1.756,5.337-5.056,9.231-4.084,13.782 7.792-7.814 12.729-22.695 7.657-36.245-3.242-2.713-5.868-6.045-8.679-9.19-1.766-.413-2.154.954-3.062,0-.217-.976-.186-2.197-1.533-2.04-13.089-6.991-27.306-12.855-35.224-25.016-.652-.027-.707-.654-1.531-.509-.645,4.18-3.345,8.385-3.576,13.273zm-94.442-2.554c1.628.075 1.514,1.889 3.062,2.045 .811-2.483-2.31-4.237-3.062-2.045zm74.023,89.339c-2.18-.601-2.051,4.036-.512,4.084 1.55-5.428 4.187-9.77 8.168-12.763-5.223-.183-9.465,5.126-7.656,8.679zm3.062.51c2.366.534.563,2.919 1.533,4.084 1.028-1.522.733-4.37 3.062-4.595 .37,1.56-.521,1.861-.511,3.063 2.802-1.963 3.259-6.271 4.086-10.209-5.36-1.925-6.331,4.413-8.17,7.657zm-53.601,2.553c-.47-4.04-2.983-7.931-5.617-8.679h-1.02c-.248.604-.544,1.157-1.022,1.531 .872,2.958 3.031,5.675 4.083,8.679 .684,1.944.059,4.394 2.042,5.617 2.382-1.076 1.773-5.082 1.534-7.148zm-2.042,33.694c-1.305-.057-1.014-1.71-1.022-3.064 4.109,1.88 2.163-4.836 6.637-4.084 .582,2.836-2.052,4.462-.511,6.638 2.74.188 1.344-3.761 4.083-3.573 1.099.432 1.807,1.257 1.533,3.063 3.938.654 5.825,3.361 9.188,4.593 1.875-1.018 4.892-.893 6.125-2.551-1.128-.402-1.277-1.786-2.042-2.553-1.584-.229-3.105.302-4.593,0-3.543-.721-9.75-6.074-11.231-8.168-1.006-1.423-1.571-3.301-2.042-5.105-11.275,1.404-5.52-14.221-10.721-18.889 1.213,7.142-2.154,11.436-1.022,17.866 1.585-2.908 2.017,4.005 4.083,2.554-.326,2.054.665,5.43-.509,6.637-2.229.697-1.086-1.976-3.064-1.531-.409,2.547 2.441,8.716 5.108,8.167zm58.707-26.037c.878.026 1.309-.393 1.53-1.021-.878-.025-1.308.394-1.53,1.021zm-10.72,6.637c1.63,4.851.916,11.645-5.615,9.7-.771,6.035-8.315,5.297-12.763,7.657-.357,4.277 5.322,5.218 8.679,4.084-1.815-1.521 1.137-2.572 3.062-2.042 .209-1.229-.934-1.109-.512-2.553 2.701-.131 2.593-2.364 4.086-3.062 .943-.442 2.447-.043 4.084-.511 1.257,1.805 4.257,1.869 6.126,3.062-.758,2.479-4.729,1.739-5.105,4.595 4.979-1.655 7.945-5.325 12.762-7.146-1.095-.966-3.681-3.102-5.104-2.042 1.396.982 1.922,2.729 0,3.573-1.99-1.074-5.897-.23-6.637-2.553 .671-2.146 1.675.002 3.062,0-.782-2.484 1.872-1.531 2.554-2.553-.748-.443-1.618-.765-1.531-2.042 1.974-1.259 2.949-3.518 6.126-3.573 .177-1.727 1.178-4.683 4.084-5.105-1.485-2.259-2.722-4.766-5.106-6.126-2.768,3.342-7.425,10.115-12.252,6.637zm22.463,6.126c-.995,1.071-3.087,1.163-4.086,2.042-.785.691-.509,1.989-1.02,2.553-.89.98-3.295.207-2.554,2.042 2.941.586 4.828-2.731 7.148-4.595 1.647-1.323 3.889-2.134 4.595-4.084-.717-.814-1.76-1.305-3.064-1.531 .017,1.576-.502,3.014-1.019,3.573zm-80.662,2.553c-1.269-.057-1.579-.956-2.551,0-.156,1.346 1.066,1.316 2.042,1.531 1.456-.68 3.88-4.349 1.531-5.615-1.032,1.111-.691,3.594-1.022,4.084zm20.421,14.293c-3.045-.026-6.138-2.696-8.167-2.042 1.956,1.035 6.234,4.286 8.167,2.042zm30.12-1.02c1.058-.304 3.353.632 3.573-.511-2.01.239-2.65-1.07-3.573.511zm-28.588,2.042c.349.395 3.041,1.329 2.553-.511-.213-1.134-2.801-.49-2.553.511z" fill-rule="evenodd"/>
 <path d="m214.43,102.764c-.061-3.771-3.411-6.682-2.553-9.7 1.404,3.53 3.793,6.077 4.595,10.209-.914.745-2.557-.877-2.042,2.042-3.047-1.876-4.298-4.748-4.595-7.147-.457-3.714 2.272,3.551 4.595,4.596z" fill-rule="evenodd"/>
 <path d="m222.6 105.32c1.296 0.081 4.381 2.756 4.086 6.125-2.235-1.168-2.138-4.669-4.086-6.125z" fill-rule="evenodd"/>
</svg>
