<?xml version="1.0" encoding="UTF-8"?>
<svg version="1.1" viewBox="0 0 744.09 1052.4" xmlns="http://www.w3.org/2000/svg">
 <defs>
  <filter id="d" x="-.051651" y="-.31365" width="1.1033" height="1.6273">
   <feGaussianBlur stdDeviation="2.8592406"/>
  </filter>
  <filter id="e" x="-.067379" y="-.88436" width="1.1348" height="2.7687">
   <feGaussianBlur stdDeviation="2.1151483"/>
  </filter>
  <filter id="f" x="-.067379" y="-.88436" width="1.1348" height="2.7687" color-interpolation-filters="sRGB">
   <feGaussianBlur stdDeviation="2.1151483"/>
  </filter>
 </defs>
 <g stroke="#000">
  <g fill="#d7a647">
   <path d="m228.57 416.65c-58.834-1.3646-113.38 27.276-168.57 51.429-7.9591 13.586-25.41 28.528-8.5714 38.571 37.143 35.221 74.286 50.139 111.43 62.857l37.143-52.857-48.571-25.714 75.714-35.714z"/>
   <path d="m369.62 452.72c35.758 5.3078 63.407 6.5066 85.584 4.9326 18.541-24.669 37.059-49.646 57.144-52.72l16.92 61.424c-58.036 62.884-145.49 98.316-182.7 86.411z"/>
  </g>
  <g fill="#0c0d0f">
   <path d="m107.86 914.5c-34.638 4.0402-72.422 11.463-88.571 32.143l234.29 0.7143-30.714-31.429z"/>
   <path d="m407.88 912.7c26.162-4.4359 72.79 14.862 89.076 35.678l-229.24 0.7143c7.7609-13.263 12.771-29.621 30.714-31.429z"/>
  </g>
  <path transform="matrix(1.2884 .096633 -.16137 2.1515 530.27 -771.53)" d="m-41.727 793.72c6.9429-5.6863 49.881-4.7527 75.34-4.5457l-7.8554 5.5558c-19.043-2.6741-48.442-2.2256-67.485-1.0102z" fill="#e6e6e6" filter="url(#f)" stroke-width="1.189"/>
  <path d="m97.143 775.93c1.8031 17.85-1.8582 37.886 17.857 48.571-13.975 5.8852-49.665 8.151-10.714 22.857-16.196 23.81-18.266 47.619-13.571 71.429 52.569-3.3838 99.809 8.1545 142.86 31.429l29.286-2.8572-14.286-195 18.571 195c71.391-30.2 114.98-32.596 156.43-32.857-1.1143-23.436-1.1228-46.983-20.714-68.571 4.9666-5.9427 38.831-12.917-4.2857-17.143 7.7203-57.642-14.397-108.65-22.143-162.86l-263.57 8.5714z" fill="#0c0d0f"/>
  <path d="m208.21 429.5-24.643 43.571c-14.803 7.9874-8.799 18.947 2.8571 30.714-31.41-1.5864-44.324 2.6072-15 20-40.954 22.674-89.252 46.378-25 54.286-0.45092 4.1854-3.1734 8.8252 0.71429 12.143-67.029 36.822-81.907 155.67-80.714 190.71 50.044 16.84 100.22 33.483 161.43 33.571 7.1172-33.977 16.461-67.212 29.286-99.286-11.234-36.416-10.092-74.123-8.2143-114.29 7.3851-11.69 24.91-31.83 37.5-47.857-10.779 15.959-29.77 33.327-37.5 48.214-3.1371 40.512-3.2221 78.56 10.357 115.36 10.112 33.922 17.98 65.6 24.286 95.714 52.437-0.37697 103.75-7.4887 154.29-19.286-14.832-67.346-34.473-132.29-75.714-186.43 42.997-0.0415 36.284-21.013 7.1428-51.429 16.738-6.119 39.53-12.043-0.71428-20 7.3576-1.1501 14.654-2.4016 16.429-12.857-7.4438-19.449 0.95167-42.857 1.4286-64.286z" fill="#d7a647"/>
  <path d="m259.61 417.48 134.35 28.284-93.143 96.005z" fill="#f9f9f9"/>
  <path d="m348.57 153.79-34.286 74.286c-7.4054-8.2112-14.974-13.389-24.286-14.286-14.43-1.3897-26.478 19.505-12.857 32.857 7.9297 7.7731 22.066 1.1011 34.286-4.2857-26.861 32.181-36.241 114.62-48.571 188.57l110.71 17.857 42.143-150.71c-21.638-8.7671-16.564-23.317-18.571-34.286 0.58709 14.75 3.0673 30.365 25.714 37.143 49.734 7.6396 41.699-19.036 27.143-34.286l-30-31.429 20-58.571z" fill="#f7b28b"/>
  <path d="m325.77 428.59h-24.749c2.6399 11.053 4.7817 22.728 12.627 27.274l-39.451 49.578 10.564 48.978 28.422-29.275 16.122-66.25c7.9425-4.2687 16.794-2.632 22.223-23.234z" fill="#0d111a"/>
  <path d="m407.86 200.22c-11.426-1.4451-34.286 4.2857-34.286 4.2857-5.8203 1.9637-19.91 15.521 2.8571 23.571 11.333 4.0075 21.663 1.211 32.857 0l14.286 10.714c23.069-3.6112 21.809-22.5 11.429-27.857 0 0-17.493-9.4938-27.143-10.714z" fill="#f2f2f2"/>
 </g>
 <g stroke="#030303">
  <path transform="matrix(.6831 0 0 .6831 494.34 140.64)" d="m-100 124.86a7.1429 9.6429 0 1 1 -1.8322 -6.4486l-5.3106 6.4486z"/>
  <path transform="matrix(.6831 0 0 .6831 473.9 134.93)" d="m-100 124.86a7.1429 9.6429 0 1 1 -1.8322 -6.4486l-5.3106 6.4486z"/>
 </g>
 <path d="m398.57 278.08-60 19.286c-15.437 5.5934-10.916 14.325 7.8571 8.5714l22.857-2.8571c0.113 8.1126-0.74741 17.101 17.857 8.5714-3.7974 18.032-0.67057 24.734 16.429 8.5714 5 5.62 10 6.9595 15-0.71428 5.0562 3.0257 16.632 25.61 11.429-2.1429l-3.9286-16.071c-12.934-3.6223-24.056-8.2048-27.5-23.214z" fill="#010101" stroke="#000"/>
 <g fill="none" stroke="#a05a2c" stroke-width="2">
  <path d="m380 320.93-15.714 28.214-13.929-2.8571"/>
  <path d="m324.29 405.58c11.821 16.443 20.054 12.073 27.143 1.0714 9.2388 10.174 14.914 8.2312 14.643-13.929"/>
  <path d="m347.14 394.5-1.4286 3.9286c1.1022 7.6021 9.6589 7.302 11.071 0.71429"/>
 </g>
 <g stroke="#000">
  <path d="m378.57 175.93c-31.131 19.572-45.337 40.684-55.714 62.143l-8.2681-10.628 1.1253-18.658c-34.83-4.0051-5.2172-10.695 1.4286-16.429-16.294-5.6478-53.518-9.3021 5.7143-22.143l25.714-12.143z" fill="#010101"/>
  <g fill="#a18136">
   <path d="m448.51 183.13c-1.7312-30.02 3.6119-61.327-11.617-88.893h-34.345c-8.5156-16.423-18.818-28.381-35.355-24.749-21.726 4.5524-26.164 15.347 0.50508 37.376-22.906 1.3876-51.417 1.4636-13.132 17.173-8.0264 8.3571-21.945 14.901-13.637 28.284-34.925-15.652-84.287-19.548-89.398-13.637 7.3818 16.484 66.102 27.658 109.6 40.406z"/>
   <path d="m292.74 138.41c58.613 40.425 114.11 74.201 159.31 85.123 30.95 3.5807 54.279 1.0642 78.792-0.50508-27.611-8.8613-55.222-15.51-82.832-39.901-38.833-11.504-69.913-20.381-106.06-30.539-29.915-11.106-42.429-14.175-49.212-14.178z"/>
  </g>
  <path d="m337.5 151.29c-0.53937-10.153 3.4449-15.028 8.5714-18.571 76.632 4.6855 79.315 13.008 101.79 20.357l1.4286 30.714c-35.528-11.203-72.466-22.142-111.79-32.5z" fill="#3b2915"/>
  <path d="m258.57 406.65c43.81 17.66 87.619 30.198 131.43 21.429l-4.2857 35.714-44.286-2.8571c1.253-12.164-4.7306-21.915-11.429-31.429-24.433 3.0217-31.093 14.93-40 25.714-20.554-7.2324-21.619-31.789-31.429-48.571z" fill="#f9f9f9"/>
  <path d="m278.3 334.65c-44.634 7.7842-84.153 29.779-116.67 71.216 21.153 0.96854 42.563 1.0371 61.114 11.112-8.1201 3.7104-17.346 8.8032-30.81 19.193 42.707 22.362 72.612 55.098 89.806 104.32l2.1175 15.387c35.749-24.114 36.598-52.67 139.91-68.185-3.7999-10.102-10.361-20.203-22.223-30.305 19.19-8.6113 39.062-11.76 59.599-9.5964-20.203-21.555-40.406-61.264-60.609-92.429l-19.193 61.619 13.132-21.213c-31.056 51.197-70.767 104.12-108.09 156.57-0.077-50.08 3.3609-96.644-25.254-175.26l8.3517 25.723z" fill="#d7a647"/>
  <path d="m555.56 389.19-31.219 102.69c12.606 12.133 25.278 12.058 37.975 7.232l21.007-104.66z" fill="#381301"/>
  <g fill="#f7b28b">
   <path d="m527.23 459.32-0.1614 0.3186 6.3715 3.2287 7.7832-21.68-13.712-4.546c10.126 4.3935 19.234 6.3329 22.709-5.3084l3.2287-6.3715 4.46 2.2601c-7.7646 22.672 23.83 13.647 13.066 5.8202 3.9141-8.6071 7.9074-16.972 11.012-28.052l-29.998-5.5919 3.2373-7.9687c-15.476 2.623-21.125 0.86592-42.407 14.945z"/>
   <path d="m581.98 406.58 16.566 8.3946c3.3523 10.24-0.52213 17.886-11.623 22.937-1.9183 7.3024-0.82568 16.131-10.646 19.429 1.0845 5.3368 4.4526 11.012-5.8288 14.663l-17.534-6.4832c-0.63061-5.658 1.3538-9.9908 5.8203-13.066-10.193-13.173 4.1762-13.899 6.5004-20.729z"/>
  </g>
  <g fill="none">
   <path d="m558.41 453.1 17.543 4.886"/>
   <path d="m571.62 433.36 16.26 5.8374"/>
  </g>
  <path d="m557.48 388.56 2.2687-6.0572 24.255 4.2832-0.9944 6.7029z" fill="#ecc742"/>
  <path d="m552.42 379.59 39.249 7.8777c33.143-60.883 49.247-113.83 51.654-160.4l-40.498-13.315c-38.44 57.612-57.123 113.09-50.406 165.84z" fill="#9b9e83"/>
  <path d="m551.78 379.27c55.504-68.263 59.876-117.4 55.503-163.26" fill="none"/>
  <path transform="matrix(.45202 -.89201 .89201 .45202 -232.48 586.42)" d="m561.43 603.79c24.881-7.8031 39.713-16.52 104.29-20.714 10.943-0.46673 19.392 1.5608 28.571 2.8571-29.567 15.152-72.821 21.749-132.86 17.857z" fill="#81babf" filter="url(#d)"/>
  <path d="m82.58 927.86c6.9429-5.6863 49.881-4.7527 75.34-4.5457l-7.8554 5.5558c-19.043-2.6741-48.442-2.2256-67.485-1.0102z" fill="#e6e6e6" filter="url(#e)" stroke-width="1.189"/>
  <path d="m362.86 659.15c7.4693 14.653 16.176 28.894 18.214 45.357-28.607 10.62-57.654 6.9256-83.571 6.7857l-6.4286-54.286z" fill="#c9973f"/>
  <path d="m295.36 630.58 62.5-0.3571 10.714 33.929-72.143 1.4286z" fill="#c5923d"/>
  <path d="m133.34 569.51c11.112 3.3672 12.969 10.848 33.335 10.102 26.443 11.649 48.679 10.676 72.731 15.152l4.0406-12.122 15.152 4.0406 4.0406-5.0508 22.223 4.0406 8.0812 16.162 71.721 6.0609-71.721 2.0203 19.193 75.761c-10.131 11.27-21.52 14.993-34.345 10.102-1.2486-28.165-0.78158-57.188-7.0711-82.832l-24.244 4.0406-15.152 119.2c-10.54 11.274-24.285 6.5291-37.376 5.0508 13.616-43.52 28.272-82.881 39.396-136.37l-87.883-14.142v-11.112z" fill="#b1822d"/>
  <g fill="none">
   <path d="m259.61 587.69c7.9328 4.5258 11.256 13.661 11.112 26.264"/>
   <path d="m241.43 589.71c3.5964 8.7546 6.1649 17.509 7.0711 26.264"/>
   <path d="m153.21 570.93c2.4174 4.2465 9.8882 7.7711 18.929 11.071"/>
  </g>
  <path d="m137.14 642.36c-7.7657 14.465-12.707 30.06-15.714 46.429 22.801 11.68 52.958 11.103 81.071 13.929 3.3215-21.786 10.075-43.571 17.143-65.357z" fill="#c9973f"/>
  <path d="m150.36 614.5c-12.086 8.2332-15.535 19.345-19.286 30.357 23.451 9.2163 50.762 12.258 78.929 13.929 0.78362-6.9048 0.22803-13.81 6.4286-20.714l5.3571-10.714c-27.573-2.8745-51.475-7.1256-71.429-12.857z" fill="#c5923d"/>
 </g>
 <g fill="#a77e34" stroke="#a05a2c" stroke-width="2">
  <path transform="translate(-3.2143 .35714)" d="m189.29 641.83a7.8571 6.9643 0 1 1 -15.714 0 7.8571 6.9643 0 1 1 15.714 0z"/>
  <path transform="translate(150.71 12.321)" d="m189.29 641.83a7.8571 6.9643 0 1 1 -15.714 0 7.8571 6.9643 0 1 1 15.714 0z"/>
  <path transform="translate(150 -66.25)" d="m189.29 641.83a7.8571 6.9643 0 1 1 -15.714 0 7.8571 6.9643 0 1 1 15.714 0z"/>
  <path transform="translate(157.86 -115.54)" d="m189.29 641.83a7.8571 6.9643 0 1 1 -15.714 0 7.8571 6.9643 0 1 1 15.714 0z"/>
  <path transform="translate(62.5 -128.04)" d="m189.29 641.83a7.8571 6.9643 0 1 1 -15.714 0 7.8571 6.9643 0 1 1 15.714 0z"/>
  <path transform="translate(47.143 -84.821)" d="m189.29 641.83a7.8571 6.9643 0 1 1 -15.714 0 7.8571 6.9643 0 1 1 15.714 0z"/>
  <path transform="matrix(.45202 -.89201 .89201 .45202 -146.31 333.01)" d="m189.29 641.83a7.8571 6.9643 0 1 1 -15.714 0 7.8571 6.9643 0 1 1 15.714 0z"/>
 </g>
 <path d="m503.07 408.24c3.1428 22.863 15.011 40.931 24.115 59.866l4.8259-6.3629c-9.2661-22.636-10.929-41.478-14.052-59.971-7.1294 1.0818-7.8696-2.2895-14.889 6.4685z" fill="#b1822d" stroke="#000"/>
 <path d="m451.86 487.18c-2.5896-8.6526-0.21286-14.788 1.2331-21.396 0.28444 8.1683 0.86586 15.933 4.527 19.51 4.4896 0.72693 4.0379-2.1806 4.0187-4.77" fill="none" stroke="#c5923d"/>
</svg>
