<?xml version="1.0" encoding="UTF-8" standalone="no"?>
<svg
   version="1.1"
   width="1240.8794"
   height="1240.879"
   viewBox="0 0 1240.8794 1240.879"
   id="svg197"
   sodipodi:docname="faq.svg"
   inkscape:version="1.2.2 (b0a84865, 2022-12-01)"
   xmlns:inkscape="http://www.inkscape.org/namespaces/inkscape"
   xmlns:sodipodi="http://sodipodi.sourceforge.net/DTD/sodipodi-0.dtd"
   xmlns="http://www.w3.org/2000/svg"
   xmlns:svg="http://www.w3.org/2000/svg">
  <defs
     id="defs201" />
  <sodipodi:namedview
     id="namedview199"
     pagecolor="#ffffff"
     bordercolor="#000000"
     borderopacity="0.25"
     inkscape:showpageshadow="2"
     inkscape:pageopacity="0.0"
     inkscape:pagecheckerboard="0"
     inkscape:deskcolor="#d1d1d1"
     showgrid="false"
     inkscape:zoom="0.25949227"
     inkscape:cx="327.56274"
     inkscape:cy="1202.3479"
     inkscape:window-width="1488"
     inkscape:window-height="856"
     inkscape:window-x="0"
     inkscape:window-y="38"
     inkscape:window-maximized="0"
     inkscape:current-layer="svg197" />
  <g
     id="layer1"
     transform="matrix(20.87114,0,0,20.87114,-5579.4084,-7294.2777)"
     style="opacity:0.50862069">
    <g
       style="fill:#affbff;fill-opacity:1;stroke-linejoin:miter"
       id="g184">
      <path
         d="m 297.0545,349.4911 q -12.27868,0.17833 -20.99313,8.67894 -8.58557,8.80902 -8.73489,21.03174 0.13714,12.22388 8.70922,21.0391 8.7078,8.51324 20.98386,8.70452 12.27976,-0.1648 21.00366,-8.6562 8.5962,-8.80162 8.75758,-21.02415 -0.125,-12.22395 -8.68665,-21.04682 -8.69803,-8.52209 -20.97312,-8.72708"
         id="path182" />
    </g>
    <g
       style="fill:#7af9ff;fill-opacity:1;stroke-linejoin:miter"
       id="g188">
      <path
         d="m 292.0584,358.81464 q -0.0263,0 -0.0567,0.008 l -0.002,3.5e-4 q -0.28186,0.0507 -0.24945,0.57801 0.18701,1.15184 0.54391,3.00036 0.22254,1.15408 0.53028,2.66642 0.0768,0.37963 0.13354,0.59021 0.0637,0.23875 0.16119,0.52282 0.29223,0.85023 0.64063,1.84093 0.60648,1.72557 1.09476,3.02367 0.3985,1.05908 0.67328,1.6986 l 0.26593,0.58838 q 0.044,0.0996 0.0593,0.16345 0.0195,0.0367 0.0559,0.0367 0.008,0 0.0167,-0.002 0.0411,-0.0138 0.0387,-0.0479 -0.0283,-0.0881 -0.0493,-0.23291 -0.0427,-0.51576 -0.13732,-1.1272 -0.085,-0.5658 -0.21051,-1.27979 -0.46216,-2.59827 -1.07023,-5.49569 -0.0399,-0.15638 -0.14648,-0.4657 -0.49012,-1.42322 -0.84644,-2.42533 -0.55581,-1.57141 -1.05648,-2.88695 -0.24903,-0.64796 -0.2718,-0.69178 -0.0422,-0.0627 -0.1171,-0.0627 z m 5.23722,-0.37918 q -0.24127,0 -0.34588,0.41049 h -0.003 q -0.13788,0.10975 -0.20533,0.43628 -0.11572,1.13244 -0.24765,2.98303 -0.0853,1.1842 -0.18383,2.79141 -0.0216,0.34497 -0.0224,0.578 6.1e-4,0.26123 0.0189,0.52466 0.0664,0.96437 0.1528,2.09091 0.13788,1.78956 0.2722,3.14563 0.10487,1.06311 0.2037,1.75 l 0.10662,0.65003 q 0.0155,0.11072 0.0149,0.1704 0.0118,0.0449 0.0615,0.048 0.0432,-0.004 0.0485,-0.0367 -0.004,-0.11584 0.011,-0.22742 0.027,-0.15162 0.0516,-0.30795 h 0.003 q 0.0151,0.10165 0.0135,0.16463 0.0113,0.0493 0.0613,0.0525 0.0432,-0.003 0.0498,-0.0362 -0.005,-0.0924 0.0125,-0.2378 0.0922,-0.50915 0.15923,-1.12425 0.0638,-0.56862 0.12775,-1.29066 0.22577,-2.6294 0.38834,-5.58554 0.002,-0.16138 -0.0209,-0.4878 -0.10547,-1.50174 -0.19,-2.56192 -0.13004,-1.66174 -0.2731,-3.06176 -0.0732,-0.69032 -0.0839,-0.73852 -0.0329,-0.0967 -0.15351,-0.0983 h -0.003 q -0.0127,-10e-4 -0.0251,-10e-4 z m 4.89896,1.28198 q -0.21625,0 -0.41202,0.38986 -0.40478,1.06396 -1.01156,2.81738 -0.3888,1.12198 -0.89942,2.64884 -0.11028,0.32763 -0.17168,0.55248 -0.0671,0.25245 -0.11762,0.51173 -0.18538,0.94837 -0.39328,2.05917 -0.33002,1.76453 -0.55152,3.1089 -0.17358,1.0543 -0.2558,1.74352 l -0.0652,0.65538 q -0.0136,0.11085 -0.0298,0.16847 0,0.0463 0.0472,0.062 0.009,0.002 0.0159,0.002 0.0294,0 0.0404,-0.0245 0.0267,-0.11243 0.0697,-0.21655 0.21687,-0.46314 0.4209,-0.98378 0.22412,-0.56957 0.4779,-1.26427 0.95472,-2.63916 1.83805,-5.35226 0.0461,-0.16857 0.13622,-0.64661 0.28126,-1.45264 0.48414,-2.55826 0.27801,-1.51013 0.48453,-2.79065 0.10937,-0.69433 0.10907,-0.73193 -0.007,-0.1001 -0.12256,-0.13282 l -0.003,-7.2e-4 q -0.0459,-0.0169 -0.091,-0.0169 z m 5.60065,1.54614 q -0.19007,0 -0.43756,0.28024 -0.68232,0.94666 -1.73707,2.50588 -0.6587,0.9734 -1.51025,2.2605 -0.21417,0.32264 -0.32305,0.5116 -0.12366,0.21388 -0.25562,0.48402 -0.39478,0.80798 -0.84891,1.75485 -0.7912,1.64917 -1.36395,2.91199 -0.46704,1.03076 -0.72504,1.67712 l -0.22772,0.60437 q -0.0395,0.10132 -0.0739,0.15747 -0.0147,0.0483 0.0269,0.0763 0.0165,0.008 0.0301,0.008 0.0182,0 0.0312,-0.0147 0.0421,-0.0825 0.12964,-0.19983 0.33446,-0.3949 0.70001,-0.89417 0.33955,-0.46045 0.75592,-1.05371 1.51026,-2.16418 3.12931,-4.64304 0.0824,-0.13867 0.22582,-0.43286 0.65955,-1.35327 1.1164,-2.3136 0.71826,-1.50418 1.2943,-2.78824 0.2818,-0.6344 0.29664,-0.6815 0.0198,-0.10023 -0.0839,-0.16188 l -0.002,-10e-4 q -0.0687,-0.0478 -0.14717,-0.0478 z m -20.81659,0.41544 q -0.0429,0 -0.0922,0.0276 l -0.002,0.001 q -0.25788,0.11888 -0.0922,0.61913 0.46607,1.03857 1.27661,2.70767 0.51874,1.06848 1.23737,2.50903 0.15381,0.30982 0.2691,0.51197 0.13097,0.22592 0.27867,0.4449 0.53942,0.80177 1.1779,1.73414 1.01447,1.48132 1.8083,2.58838 0.6228,0.86828 1.05194,1.4137 l 0.41736,0.50952 q 0.0688,0.088 0.0982,0.14026 0.0194,0.0195 0.0429,0.0195 0.0161,0 0.0341,-0.009 0.0355,-0.0245 0.0237,-0.056 -0.0607,-0.0983 -0.10387,-0.20251 -0.1742,-0.48073 -0.39772,-0.99317 -0.24456,-0.56103 -0.55621,-1.23206 -1.19087,-2.54113 -2.48483,-5.08382 -0.0868,-0.15186 -0.36078,-0.55358 -0.82861,-1.2261 -1.46698,-2.15138 -0.87122,-1.26432 -1.63056,-2.31607 -0.41352,-0.56812 -0.44042,-0.59448 -0.0401,-0.0349 -0.0883,-0.0349 z m -4.4065,2.56543 q -0.0583,0 -0.11438,0.0548 l -0.002,0.002 q -0.21863,0.1847 0.0732,0.625 0.73779,0.90393 1.97083,2.3263 0.7697,0.88843 1.79257,2.04391 0.25593,0.29041 0.41046,0.44446 0.17444,0.1748 0.40149,0.3723 0.67798,0.5906 1.47508,1.27394 1.3888,1.19116 2.46016,2.07116 0.87482,0.7179 1.43237,1.1344 l 0.52484,0.37647 q 0.0878,0.0645 0.13293,0.11193 0.0194,0.0122 0.0376,0.0122 0.0224,0 0.0432,-0.0183 0.0287,-0.0323 0.01,-0.0609 -0.0689,-0.0618 -0.15967,-0.1769 -0.2948,-0.42528 -0.68231,-0.90746 -0.35686,-0.44738 -0.82214,-1.00294 -1.69989,-2.01903 -3.67542,-4.2241 -0.11273,-0.11585 -0.35943,-0.33033 -1.13657,-0.98727 -1.94597,-1.67709 -1.26677,-1.08326 -2.3579,-1.97193 -0.5399,-0.43652 -0.5818,-0.46289 -0.0319,-0.0157 -0.0632,-0.0157 z m 28.81714,0.57977 q -0.16698,0 -0.41808,0.16531 -0.88264,0.71887 -2.2848,1.93407 -0.89758,0.7771 -2.10342,1.84398 -0.25928,0.22864 -0.42481,0.39258 -0.18445,0.1853 -0.35785,0.3844 -0.63458,0.72888 -1.37012,1.58654 -1.16815,1.36304 -2.0321,2.41675 -0.67755,0.82617 -1.0932,1.38195 l -0.38415,0.53504 q -0.0673,0.0894 -0.10999,0.13099 -0.0232,0.04 0.01,0.0774 0.0194,0.0163 0.0367,0.0163 0.0122,0 0.0235,-0.008 0.0795,-0.084 0.1687,-0.1527 0.41937,-0.29274 0.85632,-0.6415 0.47888,-0.38122 1.04608,-0.85595 2.14643,-1.80811 4.26807,-3.71582 0.12414,-0.12317 0.44122,-0.49193 0.96996,-1.11757 1.69846,-1.9735 0.9958,-1.16857 1.815,-2.17443 0.4417,-0.54651 0.46033,-0.57935 0.0438,-0.0903 -0.0397,-0.17639 l -0.002,-0.002 q -0.0781,-0.0939 -0.20392,-0.0939 z m 3.44348,3.44578 q -0.13836,0 -0.33542,0.0661 -1.0642,0.47852 -2.75708,1.30176 -1.05743,0.5133 -2.43823,1.20228 -0.34698,0.17223 -0.53553,0.28148 -0.21404,0.12329 -0.4635,0.29152 -0.74584,0.50218 -1.61248,1.09508 -1.50995,1.03296 -2.63732,1.84032 -0.9198,0.6592 -1.46638,1.08998 l -0.49945,0.40942 q -0.085,0.0681 -0.14257,0.0995 -0.0371,0.0344 -0.0148,0.0795 0.0181,0.0276 0.0414,0.0276 0.007,0 0.0148,-0.003 0.0776,-0.0504 0.21228,-0.10815 0.48688,-0.17481 1.05316,-0.42443 0.52417,-0.22902 1.18146,-0.53456 2.39006,-1.11938 5.03131,-2.45666 0.14099,-0.0789 0.41223,-0.26208 1.2478,-0.84217 2.12366,-1.4452 1.37402,-0.94348 2.51496,-1.76746 0.56133,-0.40856 0.59765,-0.44201 0.0673,-0.0768 0.008,-0.18189 l -10e-4,-0.002 q -0.0737,-0.1571 -0.28715,-0.1571 z m -34.72219,0.25652 q -0.0786,0 -0.13067,0.0869 l -10e-4,0.002 q -0.16383,0.23206 0.2301,0.58228 0.92285,0.6665 2.45954,1.7063 0.98303,0.666 2.32568,1.55468 0.2879,0.19129 0.48901,0.30884 0.22669,0.13013 0.46394,0.2461 0.8684,0.42418 1.88732,0.91258 1.61858,0.77565 2.86028,1.33754 0.97316,0.44056 1.61775,0.69824 l 0.61633,0.23267 q 0.1037,0.0419 0.15497,0.0724 0.0101,0.003 0.0192,0.003 0.0316,0 0.053,-0.0323 0.0183,-0.0391 -0.008,-0.0602 -0.10176,-0.055 -0.1913,-0.1234 -0.39123,-0.32947 -0.84143,-0.66126 -0.49219,-0.36389 -1.09729,-0.78881 -2.30206,-1.60523 -4.69403,-3.16103 -0.151,-0.088 -0.58942,-0.2988 -1.33043,-0.6476 -2.34563,-1.12977 -1.38685,-0.65955 -2.57038,-1.19056 -0.64215,-0.28491 -0.67865,-0.29455 -0.0153,-0.003 -0.0296,-0.003 z m -2.53559,4.42368 q -0.10168,0.007 -0.1344,0.12304 l -4.2e-4,0.002 q -0.0974,0.26929 0.37574,0.50476 1.09075,0.4137 2.8698,1.02906 1.11084,0.38452 2.57446,0.87378 0.36701,0.12317 0.5777,0.17932 0.23884,0.0642 0.53387,0.12182 0.88263,0.17225 1.91474,0.36598 1.79767,0.3375 3.16608,0.5637 1.11651,0.18422 1.80749,0.26637 l 0.64264,0.0635 q 0.10802,0.012 0.17108,0.0306 0.002,2e-5 0.003,2e-5 0.048,0 0.0638,-0.0458 0.009,-0.0422 -0.0222,-0.0576 -0.0903,-0.0192 -0.22608,-0.0734 -0.4682,-0.22083 -1.04522,-0.44458 -0.53248,-0.20911 -1.21362,-0.45752 -2.4814,-0.89905 -5.29456,-1.82093 -0.15522,-0.0439 -0.4765,-0.1062 -1.47797,-0.28686 -2.52399,-0.4796 -1.63861,-0.30445 -3.0282,-0.52858 -0.68567,-0.10802 -0.73517,-0.11022 z m 38.42838,0.1735 q -0.0473,0 -0.0993,0.003 -1.12384,0.18153 -2.94586,0.53236 -1.16595,0.22436 -2.74352,0.54564 -0.339,0.0684 -0.56434,0.12758 -0.25206,0.0681 -0.50196,0.15392 -0.91406,0.31373 -1.9799,0.68897 -1.69325,0.59656 -2.9681,1.07691 -0.99993,0.37682 -1.63793,0.65026 l -0.6001,0.27124 q -0.10284,0.0437 -0.16089,0.0585 -0.04,0.0231 -0.03,0.0718 0.0134,0.0377 0.043,0.0377 0.002,0 0.005,-2.5e-4 0.11078,-0.0332 0.22253,-0.048 0.50946,-0.0438 1.06238,-0.12731 0.60528,-0.0908 1.33386,-0.21839 2.76294,-0.49267 5.55414,-1.08447 0.16912,-0.0443 0.62812,-0.2052 1.39867,-0.48291 2.45763,-0.85986 1.44672,-0.5144 2.65894,-0.9757 0.65593,-0.25245 0.68848,-0.2715 0.0831,-0.0564 0.0537,-0.1726 l -8e-4,-0.003 q -0.0433,-0.25203 -0.475,-0.25203 z m -4.91773,5.0963 q -0.24483,0 -0.54103,0.0205 -0.8971,0.0623 -1.94423,0.14247 -1.82391,0.13916 -3.20397,0.27478 -1.12617,0.11085 -1.8149,0.21057 l -0.6372,0.10486 q -0.0982,0.015 -0.1616,0.015 -0.006,0 -0.0119,-1.5e-4 -0.0491,0.0113 -0.0524,0.0614 0.003,0.0431 0.0362,0.0498 0.0203,-10e-4 0.0432,-10e-4 0.0813,0 0.19464,0.0135 0.50928,0.0922 1.1245,0.15906 0.56843,0.064 1.29048,0.12782 2.62952,0.22594 5.58552,0.38854 0.014,1.8e-4 0.0293,1.8e-4 0.1604,0 0.45854,-0.0211 1.50183,-0.10523 2.56183,-0.18995 1.66168,-0.13012 3.06183,-0.27307 0.69037,-0.073 0.7386,-0.0838 0.0966,-0.0328 0.0982,-0.15345 v -0.002 q 0.0242,-0.2854 -0.49366,-0.39037 -1.16107,-0.11756 -3.03876,-0.25147 -1.17236,-0.0839 -2.71278,-0.17773 -0.38277,-0.0239 -0.60024,-0.0239 -0.002,0 -0.004,0 -0.003,0 -0.006,0 z m -19.01016,1.89368 q -0.002,0 -0.003,1.2e-4 -0.0881,0.0286 -0.23309,0.0496 -0.51581,0.0428 -1.12738,0.13721 -0.56568,0.0854 -1.2796,0.21057 -2.59798,0.46252 -5.49543,1.07068 -0.15649,0.0398 -0.46605,0.1466 -1.42317,0.4906 -2.42543,0.84644 -1.57141,0.55566 -2.88667,1.05612 -0.64796,0.24927 -0.6918,0.27197 -0.0848,0.057 -0.055,0.17383 l 6.1e-4,0.002 q 0.0453,0.25278 0.47351,0.25278 0.0495,0 0.10413,-0.003 1.1521,-0.18688 3.00023,-0.5438 1.15413,-0.2223 2.66618,-0.53037 0.37988,-0.0765 0.59022,-0.13318 0.23882,-0.0639 0.52324,-0.16162 0.85041,-0.292 1.84106,-0.64051 1.72566,-0.60718 3.0235,-1.09509 1.0592,-0.39856 1.69868,-0.6731 l 0.58844,-0.26635 q 0.0994,-0.0437 0.16345,-0.0592 0.0447,-0.0237 0.0349,-0.0729 -0.013,-0.0388 -0.0443,-0.0388 z m 9.82831,2.53552 q -0.0316,0 -0.0522,0.0308 -0.0193,0.0386 0.006,0.0612 0.0825,0.0421 0.19977,0.12988 0.39497,0.33435 0.89427,0.69992 0.46038,0.3396 1.0537,0.75598 2.16406,1.51 4.64288,3.1289 0.13886,0.0827 0.43312,0.22596 1.3532,0.65944 2.31365,1.11646 1.50409,0.71814 2.78795,1.29431 0.6346,0.28187 0.68153,0.29675 0.0161,0.003 0.0312,0.003 0.079,0 0.1307,-0.087 l 0.001,-0.002 q 0.16363,-0.23498 -0.23236,-0.58484 -0.94666,-0.68248 -2.50592,-1.73693 -0.97326,-0.65882 -2.26032,-1.51025 -0.32269,-0.21436 -0.51147,-0.323 -0.21405,-0.1238 -0.48432,-0.25562 -0.8078,-0.3949 -1.7547,-0.849 -1.64941,-0.79126 -2.91229,-1.36388 -1.03073,-0.46702 -1.67709,-0.72508 l -0.60437,-0.22766 q -0.10132,-0.0396 -0.15754,-0.0739 -0.0127,-0.004 -0.024,-0.004 z m -1.19254,0.51273 q -0.0229,0 -0.0448,0.0195 -0.0281,0.0328 -0.008,0.0602 0.0841,0.0793 0.1528,0.16868 0.29267,0.41932 0.64148,0.85644 0.38123,0.47876 0.8559,1.0459 1.80823,2.14636 3.71631,4.26795 0.12292,0.12413 0.49182,0.44128 1.11731,0.96985 1.97336,1.69821 1.16876,0.99588 2.17438,1.81497 0.54656,0.4419 0.5794,0.46045 0.0311,0.0151 0.0617,0.0151 0.0582,0 0.11465,-0.0548 l 0.002,-0.002 q 0.21821,-0.18164 -0.0715,-0.62206 -0.71923,-0.88258 -1.93404,-2.28456 -0.77734,-0.89784 -1.84424,-2.10339 -0.22864,-0.2594 -0.39282,-0.42493 -0.185,-0.18432 -0.38416,-0.35779 -0.72869,-0.63476 -1.58679,-1.37023 -1.3631,-1.16798 -2.41645,-2.03187 -0.8263,-0.67761 -1.38207,-1.09338 l -0.53503,-0.38415 q -0.0892,-0.0671 -0.13102,-0.11008 -0.0165,-0.009 -0.0324,-0.009 z M 297.103,374.5985 q -2.02777,0.0267 -3.52076,1.46852 -1.16774,1.20272 -1.39871,2.80628 v 0 q -0.43303,-0.0723 -0.90335,-0.12522 -0.60815,-0.0687 -1.34472,-0.13416 -2.79639,-0.23912 -5.64582,-0.39012 -0.005,-5e-5 -0.009,-5e-5 -0.17813,0 -0.65069,0.0357 -1.47565,0.10449 -2.59595,0.1947 -1.5307,0.12232 -2.8211,0.25427 -0.6988,0.0739 -0.73529,0.0839 -0.0947,0.0331 -0.0964,0.15307 l -2.5e-4,0.003 q -0.0257,0.28271 0.49065,0.38927 1.13264,0.1155 2.98292,0.2478 1.18468,0.0852 2.7915,0.18336 0.34503,0.0216 0.57813,0.0223 0.26117,-3.6e-4 0.52459,-0.0186 0.96411,-0.0664 2.09113,-0.15308 1.78961,-0.13794 3.14538,-0.27185 1.06325,-0.10522 1.75049,-0.20435 l 0.42008,-0.0689 h 0.003 q -0.0269,0.25387 -0.0311,0.51748 0.0266,1.5719 0.86487,2.79842 h -0.003 q -0.17045,0.0703 -0.3445,0.1463 -0.56115,0.24425 -1.23205,0.5559 -2.54105,1.19076 -5.08401,2.48458 -0.15186,0.0868 -0.55347,0.36109 -1.22637,0.82823 -2.15161,1.46655 -1.26428,0.87108 -2.31586,1.63038 -0.56818,0.4138 -0.59473,0.44054 -0.0656,0.0758 -0.007,0.18066 l 0.001,0.002 q 0.0723,0.157 0.2858,0.157 0.1375,0 0.33348,-0.0651 1.03875,-0.46582 2.70764,-1.27662 1.06824,-0.51842 2.50928,-1.23668 0.30932,-0.15382 0.51165,-0.26942 0.22625,-0.13122 0.44501,-0.27868 0.80176,-0.53967 1.73424,-1.17786 1.48103,-1.0144 2.5884,-1.80846 0.84063,-0.60252 1.37847,-1.02424 h 0.003 q 0.17687,0.22418 0.38281,0.43601 0.16291,0.15943 0.33353,0.30145 h -0.003 q -0.0366,0.0318 -0.0811,0.0668 -0.42543,0.2948 -0.9076,0.68262 -0.4472,0.35669 -1.00305,0.82202 -2.01892,1.69971 -4.22418,3.67504 -0.11566,0.11244 -0.33038,0.35963 -0.98749,1.13635 -1.67707,1.94567 -1.08285,1.2671 -1.97195,2.35816 -0.43652,0.54004 -0.463,0.58191 -0.0128,0.026 -0.0152,0.0515 h -0.003 q -0.0717,0.0911 -0.0791,0.10389 -0.0436,0.0903 0.0399,0.17627 l 0.002,0.002 q 0.0781,0.0938 0.20407,0.0938 0.16706,0 0.41818,-0.16524 0.88263,-0.719 2.28455,-1.93421 0.8977,-0.77701 2.10385,-1.84387 0.25903,-0.22864 0.42443,-0.39282 0.18439,-0.18518 0.35785,-0.38428 0.63477,-0.72888 1.3703,-1.58668 1.1679,-1.36278 2.03193,-2.41662 0.67761,-0.82592 1.09327,-1.38158 l 0.3842,-0.53504 q 0.0673,-0.0894 0.11,-0.13111 0.0141,-0.0242 0.008,-0.0474 h -0.003 q 0.01,-0.0129 0.0193,-0.0247 h 0.003 q 1.32293,1.05249 3.09726,1.08673 2.06024,-0.0273 3.54196,-1.46933 1.21832,-1.25517 1.41644,-2.94653 h 0.003 q 0.0562,0.0179 0.11014,0.04 0.46314,0.21692 0.9837,0.42102 0.56946,0.224 1.26435,0.47803 2.63891,0.95471 5.35173,1.83825 0.16878,0.0459 0.6468,0.13612 1.45285,0.28133 2.55838,0.4842 1.50989,0.27797 2.79052,0.4845 0.69267,0.10902 0.73182,0.10902 8e-5,0 1.8e-4,0 0.1001,-0.007 0.13288,-0.12256 l 6.2e-4,-0.002 q 0.0983,-0.2666 -0.373,-0.50305 -1.06393,-0.405 -2.81723,-1.01169 -1.12201,-0.38868 -2.64887,-0.89966 -0.3275,-0.10998 -0.55236,-0.17126 -0.25256,-0.0673 -0.51172,-0.11792 -0.94855,-0.18518 -2.0592,-0.39331 -1.76435,-0.32996 -3.10895,-0.55153 -1.05407,-0.1737 -1.74329,-0.25572 l -0.65538,-0.0652 q -0.0498,-0.006 -0.0888,-0.0127 h -0.003 q 0.0218,-0.22733 0.0254,-0.4624 -0.0352,-2.05704 -1.46033,-3.52225 -1.45538,-1.42371 -3.52398,-1.46315 z m -2.6551,10.06462 q -0.0181,0 -0.031,0.0146 -0.042,0.0827 -0.12964,0.19983 -0.33453,0.39478 -0.70007,0.89417 -0.33978,0.46033 -0.75592,1.05371 -1.5105,2.16406 -3.12931,4.64291 -0.0824,0.13868 -0.22583,0.4329 -0.65985,1.35302 -1.11645,2.31347 -0.71808,1.50428 -1.29431,2.78833 -0.28204,0.63428 -0.297,0.68152 -0.0196,0.1001 0.0841,0.16173 l 0.002,10e-4 q 0.0687,0.0478 0.14728,0.0478 0.19012,0 0.4378,-0.28013 0.68232,-0.94665 1.737,-2.50598 0.65876,-0.97339 1.51044,-2.26037 0.21411,-0.32276 0.32288,-0.51172 0.12378,-0.21386 0.25573,-0.4838 0.39463,-0.80806 0.84873,-1.75486 0.79138,-1.64904 1.36414,-2.9121 0.46703,-1.03076 0.7249,-1.67712 l 0.2279,-0.60413 q 0.0395,-0.10145 0.0739,-0.15759 0.0147,-0.0482 -0.0269,-0.0762 -0.0166,-0.008 -0.0303,-0.008 z m 5.21235,0.20294 q -0.0154,0 -0.0322,0.008 -0.0359,0.0238 -0.0249,0.0564 0.0503,0.0775 0.10791,0.21192 0.1748,0.48706 0.42468,1.05334 0.22876,0.52442 0.53461,1.18152 1.11908,2.39014 2.45627,5.0315 0.0788,0.14074 0.26184,0.4121 0.84216,1.24781 1.44554,2.12378 0.94344,1.37378 1.76753,2.51478 0.40851,0.56127 0.44197,0.59765 0.0409,0.0358 0.0899,0.0358 0.0429,0 0.0921,-0.0275 l 0.002,-0.001 q 0.25922,-0.12157 0.0913,-0.62255 -0.47876,-1.06395 -1.3017,-2.75708 -0.51355,-1.05725 -1.20258,-2.43823 -0.17224,-0.34684 -0.28161,-0.53554 -0.12335,-0.21413 -0.29133,-0.46364 -0.50234,-0.74582 -1.09512,-1.61252 -1.03258,-1.50964 -1.84021,-2.6372 -0.65911,-0.9198 -1.08984,-1.46644 l -0.40943,-0.49926 q -0.0679,-0.0848 -0.0994,-0.14258 -0.0216,-0.0231 -0.0474,-0.0231 z m -1.29129,-0.15241 q -0.009,0 -0.0182,0.002 -0.0405,0.0148 -0.0371,0.048 0.033,0.11095 0.0479,0.22253 0.0438,0.50965 0.1275,1.0625 0.0907,0.60535 0.21821,1.33374 0.49267,2.76294 1.08382,5.55433 0.0446,0.16905 0.20545,0.62805 0.48285,1.39868 0.85993,2.4574 0.51422,1.4469 0.97558,2.6593 0.25257,0.65576 0.27161,0.68835 0.0417,0.0614 0.11615,0.0614 0.0262,0 0.0565,-0.008 l 0.002,-7.3e-4 q 0.27991,-0.0482 0.24908,-0.57458 -0.18127,-1.12377 -0.53265,-2.94567 -0.2243,-1.16603 -0.54517,-2.74366 -0.0683,-0.33874 -0.12762,-0.56421 -0.0682,-0.25233 -0.15398,-0.50208 -0.31386,-0.91409 -0.68895,-1.97985 -0.59619,-1.693 -1.07685,-2.96827 -0.3767,-0.99975 -0.65026,-1.63757 l -0.27124,-0.60022 q -0.0438,-0.10304 -0.0585,-0.16089 -0.0185,-0.0322 -0.0537,-0.0322 z m -1.92156,0.009 q -0.0294,0 -0.0405,0.0245 -0.0267,0.11243 -0.0697,0.21655 -0.21668,0.46314 -0.42102,0.98352 -0.22388,0.56983 -0.47784,1.26453 -0.95484,2.63891 -1.838,5.35205 -0.046,0.1687 -0.13628,0.64648 -0.28107,1.45288 -0.48395,2.55847 -0.27795,1.51015 -0.48457,2.79053 -0.10954,0.69434 -0.10918,0.73206 0.007,0.1001 0.12256,0.13281 l 0.003,6.1e-4 q 0.046,0.017 0.091,0.017 0.21609,0 0.41195,-0.38989 0.40479,-1.06384 1.01185,-2.81726 0.38872,-1.12208 0.89917,-2.64893 0.11041,-0.32775 0.17175,-0.55225 0.0672,-0.25244 0.11767,-0.51184 0.18537,-0.94851 0.39323,-2.0592 0.33013,-1.76466 0.55157,-3.10889 0.17363,-1.05432 0.25586,-1.74341 l 0.0652,-0.65526 q 0.0136,-0.11097 0.0297,-0.1686 1.8e-4,-0.0462 -0.0471,-0.062 -0.009,-0.002 -0.0159,-0.002 z m 1.04253,0.77719 q -0.0432,0.003 -0.0499,0.0363 0.005,0.0924 -0.0124,0.2379 -0.0921,0.50916 -0.15905,1.12427 -0.0639,0.5686 -0.12782,1.29041 -0.22564,2.62962 -0.38808,5.58569 -0.002,0.16163 0.0207,0.48793 0.10548,1.5017 0.18995,2.56187 0.13,1.66163 0.27301,3.06165 0.0731,0.69043 0.084,0.73865 0.0328,0.0967 0.1532,0.098 l 0.003,2.3e-4 q 0.0127,0.001 0.0251,0.001 0.26481,0 0.36499,-0.49484 0.11762,-1.16101 0.25141,-3.03856 0.084,-1.1725 0.17787,-2.71266 0.0243,-0.3866 0.0239,-0.60462 2e-4,-0.24707 -0.0206,-0.54712 -0.0618,-0.89697 -0.14215,-1.944 -0.13963,-1.82418 -0.27506,-3.20407 -0.11097,-1.12623 -0.21075,-1.81493 l -0.10486,-0.63734 q -0.0165,-0.10754 -0.015,-0.17321 -0.0112,-0.0495 -0.0613,-0.0526 z m -0.38713,-28.08753 0.0331,1.3e-4 q 8.9868,0.15747 15.4305,6.47769 6.24485,6.54612 6.29368,15.47668 -0.16385,8.92722 -6.51233,15.3984 -6.38305,6.14333 -15.41748,6.25966 -8.81427,-0.1261 -15.33954,-6.42836 -6.26816,-6.52928 -6.34303,-15.46016 0.13728,-8.92728 6.46244,-15.41492 6.36039,-6.16226 15.39266,-6.30912 z m 0.0498,-4.37536 q -10.66931,0.09 -18.48646,7.54041 -7.5882,7.72155 -7.79382,18.50381 0.13662,10.82468 7.51752,18.50194 7.64224,7.56358 18.47275,7.81688 10.6701,-0.0521 18.51705,-7.479 7.6168,-7.70081 7.85542,-18.48325 -0.0655,-10.78543 -7.53222,-18.5994 -7.6498,-7.55798 -18.48097,-7.80113 z"
         id="path186" />
    </g>
    <g
       id="g194">
      <g
         style="fill:#1adde5;fill-opacity:1;stroke-linejoin:miter"
         id="g192">
        <path
           d="m 297.3922,363.49838 q -2.0734,-3e-5 -3.89293,0.55008 -1.81952,0.50774 -3.21591,1.52332 -1.3541,1.01552 -2.15806,2.53888 -0.76168,1.52328 -0.76168,3.55438 l 6.60108,1.60796 q 0,-1.10015 0.8463,-1.90413 0.8463,-0.80399 2.11573,-0.80397 1.10019,0 1.94647,0.67707 0.804,0.63471 0.804,1.7349 -5e-5,0.76166 -0.63478,1.52331 -0.59242,0.76166 -2.3273,1.86185 -0.84628,0.50777 -1.56564,1.18477 -0.67704,0.63472 -1.22712,1.56566 -0.50778,0.88858 -0.80398,2.07339 -0.29624,1.18482 -0.29624,2.75045 v 1.26945 l 5.83942,3e-5 q 0,-0.46545 0.0423,-0.88861 0.0846,-0.80399 0.3385,-1.26944 0.71935,-1.14249 1.56566,-1.90413 0.84629,-0.76167 1.6926,-1.3964 0.84628,-0.5924 1.65027,-1.1848 0.80397,-0.55007 1.43869,-1.35406 0.59241,-0.80398 0.97323,-1.94647 0.38083,-1.10019 0.38085,-2.83507 0,-2.0311 -0.71935,-3.68138 -0.67703,-1.60794 -1.94647,-2.79275 -1.22708,-1.14252 -2.91968,-1.81957 -1.69256,-0.63472 -3.72366,-0.63472 z m -4.52776,25.60032 v 5.8394 l 5.79709,4e-5 v -5.83942 z"
           id="path190" />
      </g>
    </g>
  </g>
  <text
     xml:space="preserve"
     style="font-weight:bold;font-size:71.1461px;line-height:0.8;font-family:'Courier New';-inkscape-font-specification:'Courier New, Bold';text-align:center;text-anchor:middle;opacity:1;fill:#000000;fill-opacity:1;stroke:#008080;stroke-width:0.938111;stroke-miterlimit:4.7"
     x="620.8576"
     y="608.61841"
     id="text482"><tspan
       sodipodi:role="line"
       id="tspan480"
       x="620.8576"
       y="608.61841"
       style="font-style:normal;font-variant:normal;font-weight:bold;font-stretch:normal;font-size:71.1461px;font-family:Damascus;-inkscape-font-specification:'Damascus, Bold';font-variant-ligatures:normal;font-variant-caps:normal;font-variant-numeric:normal;font-variant-east-asian:normal;fill:#000000;fill-opacity:1;stroke-width:0.938111">¿Qué seguridad tienes </tspan><tspan
       sodipodi:role="line"
       x="620.8576"
       y="680.28046"
       style="font-style:normal;font-variant:normal;font-weight:bold;font-stretch:normal;font-size:71.1461px;font-family:Damascus;-inkscape-font-specification:'Damascus, Bold';font-variant-ligatures:normal;font-variant-caps:normal;font-variant-numeric:normal;font-variant-east-asian:normal;fill:#000000;fill-opacity:1;stroke-width:0.938111"
       id="tspan1191">de que el evangelio </tspan><tspan
       sodipodi:role="line"
       x="620.8576"
       y="751.94257"
       style="font-style:normal;font-variant:normal;font-weight:bold;font-stretch:normal;font-size:71.1461px;font-family:Damascus;-inkscape-font-specification:'Damascus, Bold';font-variant-ligatures:normal;font-variant-caps:normal;font-variant-numeric:normal;font-variant-east-asian:normal;fill:#000000;fill-opacity:1;stroke-width:0.938111"
       id="tspan1923">que has aceptado </tspan><tspan
       sodipodi:role="line"
       x="620.8576"
       y="823.60461"
       style="font-style:normal;font-variant:normal;font-weight:bold;font-stretch:normal;font-size:71.1461px;font-family:Damascus;-inkscape-font-specification:'Damascus, Bold';font-variant-ligatures:normal;font-variant-caps:normal;font-variant-numeric:normal;font-variant-east-asian:normal;fill:#000000;fill-opacity:1;stroke-width:0.938111"
       id="tspan1193">es el único evangelio puro?</tspan></text>
</svg>
