<?xml version="1.0" encoding="UTF-8"?>
<svg width="210mm" height="297mm" version="1.1" viewBox="0 0 744.09448819 1052.3622047" xmlns="http://www.w3.org/2000/svg">
 <defs>
  <linearGradient id="a" x1="379.63" x2="541.62" y1="617.43" y2="617.43" gradientTransform="matrix(1.2756 0 0 1.2756 871.56 -160.35)" gradientUnits="userSpaceOnUse">
   <stop stop-color="#3e4869" offset="0"/>
   <stop stop-color="#4b577e" offset="1"/>
  </linearGradient>
 </defs>
 <g transform="matrix(1.0917 0 0 1.0917 -1128.3 -21.664)">
  <path d="m1464.4 381.24s-63.981 33.59-92.773 39.988c-28.792 6.3982-60.302 21.178-60.302 21.178s-63.998-35.667-103.99 9.1199c-39.988 44.787-23.799 129.1-22.2 193.08 0.8526 34.101-2.7615 115.87-2.1252 179.1 0.5576 55.407-1.6335 92.52-1.6335 92.52l345.4 4.0477s27.192-158.35 43.187-223.93c15.995-65.581 35.19-137.56 33.59-164.75-1.5995-27.192-19.194-86.375-54.384-94.372-35.19-7.9976-84.775-55.984-84.775-55.984z" fill="#4b577e" stroke="#070707" stroke-linecap="round" stroke-linejoin="round" stroke-width="3"/>
  <path d="m1501.7 431.06c-10.131 0.0306-21.287 1.5831-31.053 6.4658-25.832 12.916-58.357 44.307-69.706 67.004-5.685 11.37-9.6686 28.99-12.274 43.819-2.6051 14.829-3.8081 26.854-3.8081 26.854-0.01 0.0778 0 0.15639 0.01 0.2333l19.194 107.17c0.01 0.0434-9.7752 0.55309 0.034 0.1296 0 0 6.4216 18.477 18.289 36.378 5.9336 8.9507 13.232 17.774 21.824 24.085 8.5921 6.311 18.519 10.107 29.562 8.8802 43.687-4.8541 74.33-47.406 74.33-47.406 0.701-0.92184-0.7183-1.9476-1.3737-0.99289 0 0-30.455 41.971-73.143 46.714-10.551 1.1724-20.018-2.4279-28.371-8.5633-8.353-6.1353-15.55-14.808-21.413-23.652-11.701-17.651-18.055-35.875-18.082-35.952l-19.158-106.97c0.018-0.175 1.2019-11.961 3.7762-26.615 2.5934-14.762 6.6084-32.331 12.12-43.354 11.045-22.09 43.595-53.57 68.948-66.247 25.144-12.572 65.946-2.235 65.946-2.235 1.0847 0.31914-3.6427-1.3081-4.7274-1.627 0 0-14.038-4.1704-30.923-4.1191z" color="#000000" color-rendering="auto" fill="#303851" image-rendering="auto" shape-rendering="auto" solid-color="#000000" style="block-progression:tb;isolation:auto;mix-blend-mode:normal;text-decoration-color:#000000;text-decoration-line:none;text-decoration-style:solid;text-indent:0;text-transform:none;white-space:normal"/>
  <path d="m1393.7 522.24c-1.5159-18.547 16.823-10.306 42.153 10.296 6.633 5.3951 20.253 12.601 28.216 18.348 4.3214 3.1183 12.136 15.816 23.14 23.146 12.894 8.589 19.376 16.762 23.92 19.791 8.4212 5.6141 90.494 95.857 40.91 128.6-86.394 57.047-106.43 21.545-112.46 17.737-31.735-20.064-60.245-99.136-65.859-118.32-5.6141-19.182-7.628-27.082-7.628-27.082l-10.293-11.228z" fill="url(#a)"/>
  <path d="m1279.7 577.01s-5.9551 21.447-5.6867 46.806c0.3628 34.279 32.517 293.12 32.517 293.12l-8.1819 0.1259s-8.1101-48.344-14.57-101.03c-6.9779-56.914-12.405-118.9-14.136-130.49-3.8031-25.481-4.0473-67.646-2.1904-86.215 3.4995-34.995 9.1862-38.495 9.1862-38.495z" fill="#576592" fill-rule="evenodd"/>
  <path d="m1279.9 575.79s-4.7668 8.3147-6.1241 25.809c-1.1513 14.839-1.4642 51.61 2.3785 90.92 9.2978 95.113 30.201 223.26 30.201 223.26l7.0027 0.24137s-36.083-268.05-32.146-305.23c1.9997-18.886 6.999-32.37 6.999-32.37z" fill="#303851" fill-rule="evenodd"/>
  <path d="m1287.1 581.39s-4.7668 8.3148-6.1241 25.809c-3.937 50.743 32.537 309.16 32.537 309.16l10.051 0.0271s-39.088-262.82-35.151-300c1.9998-18.886 6.999-32.37 6.999-32.37z" fill="#576592" fill-rule="evenodd"/>
  <path d="m1412.3 298.66s-18.113 58.928 42.516 103.56c24.173 17.796-81.269 54.485-81.269 54.485l-39.5-14.217-66.424 13.732 2.7473-59.72 45.989-7.0752 77.827-31.838z" fill="#ffbb95" stroke="#070707" stroke-linecap="round" stroke-linejoin="round" stroke-width="3"/>
  <path d="m1418.3 357.77s15.06 17.44 7.3021 38.792c-7.7584 21.352-42.9 45.181-42.9 45.181l-6.8456 3.651 7.302 17.342 6.3893 4.1074s6.3893-13.235 22.362-19.624c15.973-6.3894 49.745-14.799 69.37-29.306 19.624-14.507 38.464-25.547 35.598-51.473-1.008-9.1175-18.712-38.336-33.316-43.356-26.752-9.196-41.53-15.061-55.222-14.148-13.691 0.91279-18.712 10.497-18.712 10.497z" fill="#c60d16" fill-rule="evenodd" stroke="#070707" stroke-width="3"/>
  <path d="m1243.1 352.71s-33.812 21.587-43.396 43.396-7.7585 37.879 6.3892 51.571c14.148 13.691 53.853 15.517 66.175 17.342 12.322 1.8254 41.53 4.1074 41.53 4.1074l4.3355-20.438s-22.828 4.2561-34.466-4.5242c-11.624-8.7702-11.4-7.6361-10.487-26.25 0.9128-18.614-2.7382-35.5-2.7382-35.5z" fill="#c60d16" fill-rule="evenodd" stroke="#070707" stroke-width="3"/>
  <path d="m1421.2 339.87c-1.8915-0.0395-6.0521 0.56813-7.7138 0.74505l5.89 17.767s15.536 16.828 7.7781 38.18c-7.7585 21.352-42.898 45.18-42.898 45.18l-6.8461 3.6522 2.9074 6.906c3.7848-4.6926 11.272-13.283 17.172-15.578 8.2148-3.1946 58.416-32.401 58.416-57.502s-15.517-31.034-23.732-36.51c-3.0806-2.0538-7.1236-2.7599-10.974-2.8401z" fill="#82090e" fill-rule="evenodd"/>
  <path d="m1275.2 396.06c-1.8255 0-23.275 4.3686-20.993 21.352 2.2819 16.984 16.43 25.655 24.644 28.849 8.2148 3.1946 22.362 4.1074 22.362 4.1074s-10.941-4.024-18.688-14.112c-3.6537-4.7578-6.4658-12.832-7.3259-18.845-0.1292-0.90359 0-21.352 0-21.352z" fill="#82090e" fill-rule="evenodd"/>
  <path d="m1407.7 218.5s23.746-7.8107 31.295 0.8846c11.811 13.605-4.4457 40.48-11.109 53.14-6.6629 12.66-11.622 15.816-16.952 16.482-5.3303 0.66635-6.0946-6.4334-6.0946-6.4334l-7.3292-39.977 3.3314-20.655z" fill="#ffb78e" stroke="#070707" stroke-linecap="round" stroke-linejoin="round" stroke-width="3"/>
  <path d="m1409.1 251.05c0.6264 2.5056 4.3848 5.2201 2.7144 9.1873s-2.4787 9.7337-2.4787 9.7337c0.1574 5.8594 0.5196 7.3071 0.5196 7.3071 3.9143 1.4095 2.7943-5.1391 9.8936-10.777s22.968-26.1 13.572-36.332c-9.3962-10.231-21.507 5.0113-23.386 8.352-1.8792 3.3409-0.8352 12.528-0.8352 12.528z" fill="#da956e"/>
  <path d="m1215.3 191.9s4.9753 45.559 6.5417 60.514l-0.115 39.655 50.476 95.027s43.161 0.85462 45.298 0.85462 39.315-8.9741 43.162-19.23 32.905-55.127 32.905-55.127l7.2648-48.29-2.9914-42.734-5.1281-25.213s-17.424-35.01-17.618-36.709c-4.6465-40.753-159.8 31.253-159.8 31.253z" fill="#ffccae" fill-rule="evenodd"/>
  <path d="m1216.7 185.86s18.097 24.572 14.799 29.24c-3.298 4.6683-3.4144 28.684-1.7125 31.521s6.7281 2.6744 7.2954 8.3475-2.7347 13.126-4.4367 23.905c-1.7019 10.779 11.913 43.681 13.615 53.326 1.7019 9.6442 7.94 22.694 7.94 22.694l-0.076 0.0127-32.344-65.953 0.1171-36.529c-1.2294-11.738-8.455-32.839-10.425-46.881z" fill="#f9e8d9" fill-opacity=".56389"/>
  <path d="m1376.5 145.32s-7.8749 74.442-6.1118 91.064c1.7632 16.621 21.497 71.606-2.7282 101.48-7.375 36.308 39.711-18.721 39.711-18.721l-5.1057-42.548-1.1347-53.327-8.5095-30.067z" fill="#efaf8b" fill-opacity=".66389"/>
  <path d="m1276.7 239.22s-27.778-12.942-36.381-12.976c-8.6026-0.0344-12.299 6.6957-12.299 6.6957v0s1.2317-13.698 13.852-13.265c12.621 0.43229 34.827 19.545 34.827 19.545z" fill="#231103" fill-rule="evenodd" stroke="#231103" stroke-linecap="round" stroke-linejoin="round" stroke-width="3.8267"/>
  <path d="m1241.2 251.29c0 5.1637 6.6475 9.3497 14.848 9.3497s19.503-2.2468 19.503-7.4104c0-5.1637-11.303-11.289-19.503-11.289s-14.848 4.186-14.848 9.3495z" fill="#f9e8d9" fill-opacity=".56389"/>
  <path d="m1274.4 257.39s-9.9629 2.4988-17.791 2.3519c-7.8281-0.14694-15.893-4.4096-15.893-4.4096s4.0326 6.4674 15.893 6.1734c11.861-0.29388 17.791-4.1157 17.791-4.1157z" fill="#0d0d0d" fill-rule="evenodd"/>
  <path d="m1278.2 248.93s-9.2513-10.912-23.247-11.386c-10.197-0.34567-21.586 10.437-21.586 10.437s7.828-12.098 19.926-12.098c17.079 0 24.907 13.047 24.907 13.047z" fill="#0d0d0d" fill-rule="evenodd"/>
  <ellipse transform="scale(-1,1)" cx="-1260.4" cy="250.35" rx="8.2408" ry="8.1404" fill="#111"/>
  <circle transform="scale(-1,1)" cx="-1260.4" cy="250.35" r="3.0402" fill="#0d0d0d"/>
  <circle transform="scale(-1,1)" cx="-1263.4" cy="252.37" r="1.7791" fill="#fff"/>
  <path d="m1360.5 244s-26.912-12.906-36.999-14.167c-10.087-1.2609-19.056-3.8977-19.056-3.8977l0.1432 0.28649s5.6768 8.5028 20.533 9.9044c14.857 1.4016 38.794 10.556 38.794 10.556z" fill="#231103" fill-rule="evenodd" stroke="#231103" stroke-linecap="round" stroke-linejoin="round" stroke-width="3.8267"/>
  <path d="m1316.8 254.86c0 3.879 7.3344 7.199 15.721 7.199s17.122-3.0202 17.122-6.8991c0-3.879-9.2361-8.2012-17.623-8.2012-8.3868 0-15.221 4.0224-15.221 7.9013z" fill="#f9e8d9" fill-opacity=".56389"/>
  <path d="m1316.2 257.56s9.7178 3.3268 17.53 3.8379c7.8127 0.51099 16.208-3.0592 16.208-3.0592s-4.5616 6.1059-16.356 4.8167-17.382-5.5954-17.382-5.5954z" fill="#0d0d0d" fill-rule="evenodd"/>
  <path d="m1309.4 249.75s11.076-9.5461 24.649-6.0998c11.413 2.8979 21.586 10.437 21.586 10.437s-6.2063-7.638-19.926-12.098c-16.243-5.28-26.31 7.7603-26.31 7.7603z" fill="#0d0d0d" fill-rule="evenodd"/>
  <path d="m1343 253.42c0 4.4958-3.6895 8.1403-8.2408 8.1403-4.5512 0-8.2407-3.6445-8.2407-8.1403 0-4.4959 2.6077-7.6046 7.159-7.6046s9.3225 3.1086 9.3225 7.6046z" fill="#111"/>
  <circle cx="1334.8" cy="253.42" r="3.0402" fill="#0d0d0d"/>
  <circle cx="1338" cy="256.13" r="1.7791" fill="#fff"/>
  <path d="m1315.1 253.31s6.4671-7.238 17.403-5.2984c7.9142 1.4036 19.814 6.1419 19.814 6.1419s-7.9688-7.3791-19.517-9.2143c-11.723-1.8632-17.7 8.3708-17.7 8.3708z" fill="#0d0d0d" fill-rule="evenodd"/>
  <path d="m1278.2 281.26s-9.1564 21.975-8.6986 27.012c0.4578 5.036 13.277 15.566 13.277 15.566s-16.939-10.53-16.939-16.482c0-5.9517 12.361-26.096 12.361-26.096z" fill="#0d0d0d" fill-rule="evenodd"/>
  <path d="m1312.5 298.2s5.0361 10.072 4.5783 12.819c-0.4579 2.7469-4.5783 5.9517-4.5783 5.9517s1.8313-5.0361 1.3735-8.2408c-0.4578-3.2048-1.3735-10.53-1.3735-10.53z" fill="#0d0d0d" fill-rule="evenodd"/>
  <path d="m1292.8 320.33s3.0865-5.4414 7.3603-4.9879c4.2738 0.45346 4.3788 3.1741 4.3788 3.1741s-1.3706-1.1576-4.235-1.1083c-2.937 0.0497-7.5041 3.0733-7.5041 2.9222z" fill="#0d0d0d" fill-rule="evenodd"/>
  <g transform="matrix(1.2756 0 0 1.2756 1475 -157.8)" fill-rule="evenodd">
   <path d="m-108.21 397.78-31.967 3.1114-26.212-3.1722 16.645-3.3969 8.0286 3.1788 10.214-4.2888z" fill="#090909"/>
   <path d="m-109.7 397.66c0.47808-0.28685 2.1036-3.0597 2.1036-3.0597l-0.0956 5.6414s-0.38247-2.2948-2.0079-2.5816z" fill="#090909"/>
   <path d="m-165.16 397.66s-1.053-0.50231-1.8455-1.502c-0.74389-0.93833 1.1762 4.7529 1.1762 4.7529s-0.31886-2.9193 0.66933-3.251z" fill="#090909"/>
   <path d="m-121.46 407.72c-1.3774 0.25826-10.799 0.40736-16.48 0.40736-5.6817 0-16.663-1.9569-16.663-1.9569s11.153 4.1091 18.557 3.9369c7.4034-0.17218 14.586-2.3874 14.586-2.3874z" fill="#111"/>
   <path d="m-101.71 401.29z" fill="#090909" stroke="#000" stroke-width="1.3291px"/>
  </g>
  <path d="m1276.2 250.07s-9.1682-5.6095-16.929-6.6572c-7.7612-1.0479-22.163 6.6741-22.163 6.6741s11.006-11.892 22.629-9.4822c11.623 2.41 16.463 9.4654 16.463 9.4654z" fill="#0d0d0d" fill-rule="evenodd"/>
  <path d="m1315 73.738c-49.644 0-59.572 19.858-59.572 19.858s-39.243 0.94518-56.737 55.79c-8.8755 27.826 4.1585 64.912 5.6752 70.38 2.5031 9.0238 8.5089 21.345 9.4545 35.529s7.262 48.319 7.262 48.319c1.7848 5.829 3.0361 8.6717 3.5373 13.051 1.3319 11.625 2.1064 14.759 3.4335 20.731 5.2705 23.718 45.297 73.147 45.297 73.147s7.9069 8.7847 45.681 11.42c37.774 2.6354 87.711-66.707 94.738-80.762 7.0277-14.055 5.5058-29.315 4.6273-38.1s-16.792-53.319-15.035-68.252c0.8427-7.1626 6.1318-13.498 11.408-18.172 7.6215-1.6179 19.261-2.9445 24.168 2.7081 7.7784 8.9596 3.3721 23.661-2.439 36.281l-3.9699 7.8318s14.858-20.497 24.314-43.732c9.4561-23.234 6.6188-55.25-4.7285-81.727-11.347-26.477-25.531-35.931-45.389-48.224s-63.341-16.076-91.725-16.076zm61.575 97.884c0.5117 9.8182 0.4244 26.056 3.5875 32.938 4.4611 9.7053 17.048 8.4954 17.048 8.4954s-0.6168 32.5 0.2616 49.191c0.8785 16.691-5.497 31.565-22.285 54.041-11.756 15.74-23.496 22.367-23.496 22.367s-8.9425-4.5385-21.241-10.688c-12.298-6.1493-20.464-4.6513-20.464-4.6513s-29.339 2.1834-32.853 3.0618c-3.5138 0.87847-26.572 16.884-26.572 16.884s-7.3272-5.832-16.744-26.714c-4.7235-10.475-8.3008-12.588-10.78-32.933-0.3515-19.755-1.2358-46.786-3.5426-63.847-1.5929-11.781 2.1169-19.093 3.9437-21.884 0.055-0.0128 0.1089-0.0128 0.1644-0.0153 9.0668-1.1333 18.133-4.1552 30.222-7.1775 3.3576-0.83931 7.803-2.9811 12.459-5.608 8.1253-0.61099 21.055-2.2761 36.665-7.4092-0.3905 0.65819-0.8044 1.2752-1.2706 1.7839-5.2008 5.6736-26.196 12.671-26.196 12.671s-5.6536 1.5229 4.7285 0.94416c9.2898-0.51787 28.082-2.4822 50.561-11.692 7.0621-0.48038 17.505-1.5178 29.784-3.8565 5.8844-1.121 11.261-3.3048 16.019-5.902zm-77.178 166.94c10.017 0.0319 20.418 0.41761 27.656 1.0638 9.6198 0.85896 18.872 4.3947 18.872 4.3947s-12.415 23.131-33.633 25.822c-5.0323 0.63828-8.0848-1.9957-12.716-3.0419-1.6446-0.37157-11.824 1.8661-13.396 1.3678-18.089-5.737-30.469-16.635-30.469-16.635s6.9773-10.357 18.351-11.908c5.6869-0.77553 15.318-1.0962 25.334-1.0638z" fill="#231103" fill-rule="evenodd" stroke="#070707" stroke-width="3"/>
  <path d="m1414 284.41c-1.1617 11.315-8.1058 27.077-14.348 37.291-18.207 29.794-43.035 61.245-59.587 71.176-11.899 7.1395-37.994 16.153-71.818 11.751 2.695 3.4741 4.6388 5.9137 4.6388 5.9137s7.9065 8.7847 45.68 11.42c37.774 2.6354 87.71-67.018 94.738-81.073 7.0277-14.055 5.5063-29.941 4.6278-38.726-0.194-1.9402 0.026-12.158-3.9322-17.752z" fill="#090401" fill-opacity=".59722"/>
  <path d="m1379.6 124.66c-2.0089 3.4516-4.3921 6.6641-6.863 9.7944-4.1277 4.9653-8.8803 9.3503-13.804 13.508-4.7935 4.131-10.136 7.5093-15.582 10.695-4.2454 2.507-8.4759 5.0923-13.041 6.9886-2.3624 0.98141-4.7908 1.7566-7.23 2.5177-3.1335 1.1012-6.4356 1.5804-9.6153 2.5033-0.2724 0.0816-0.5448 0.16378-0.8171 0.24567l5.4627-4.2052c0.2647-0.0714 0.5294-0.14197 0.7941-0.21301 3.1369-0.75768 6.3217-1.3336 9.3878-2.3656 3.2846-1.0394 6.5125-2.1626 9.6154-3.6755 0.8396-0.40932 3.192-1.9032 2.4885-1.2887-0.9005 0.78663-2.062 1.2111-3.093 1.8168 1.1485-0.66558 4.1824-2.4114 5.2858-3.1004 3.6257-2.2637 7.0866-4.7919 10.383-7.5102 4.9181-4.0912 9.6505-8.4274 13.761-13.346 2.3821-3.0168 4.6796-6.1152 6.5271-9.4958l6.3394-2.8682z" fill="#2f1604"/>
  <path d="m1341.7 119.37c-0.3374 2.1169-0.9803 4.1424-1.9684 6.041-1.2884 2.4211-3.4389 4.1616-5.4812 5.921-3.1274 2.6817-6.5399 4.9933-10.043 7.1492-3.5549 2.1442-7.1682 4.1918-10.787 6.2251-0.4862 0.27322-0.9925 0.50919-1.4835 0.77374-0.4529 0.24389-1.7951 1.0055-1.3479 0.7513 1.4963-0.85066 2.9969-1.6937 4.4954-2.5406-2.5987 1.58-4.9454 3.4983-7.2386 5.4831-1.7941 1.4146-3.2426 3.1719-4.8094 4.8146-2.9498 2.8968-6.8607 4.7066-10.372 6.7389-3.1503 1.8113 2.8705-1.6631 4.3149-2.4786 0.2385-0.13457-0.4646 0.28993-0.6928 0.44134-0.5801 0.38496-1.1445 0.79594-1.7064 1.2068-0.8595 0.72502-1.7565 1.4034-2.5823 2.167-1.0151 1.0963-2.1102 2.1128-3.1966 3.137-0.1626 0.15434-0.3252 0.30868-0.4878 0.46315l-6.4045 2.6346c0.1629-0.15574 0.3258-0.31149 0.4887-0.46723 1.0799-1.0196 2.2119-1.9934 3.1958-3.1075 0.7614-0.85449 1.6939-1.4983 2.547-2.2533 2.9866-2.4579 6.5821-4.0608 9.8634-6.0637-10.287 5.9752-3.3089 2.192-1.3177 0.21468 1.657-1.6024 3.0383-3.4779 4.8794-4.8972 2.2944-2.0054 4.6186-3.9738 7.2137-5.5884 2.3574-1.3826 4.7077-2.7776 7.0723-4.1478 0.439-0.25435 0.8903-0.48675 1.3379-0.72566 0.4825-0.25766 1.917-1.0527 1.4523-0.76418-8.785 5.4555-2.5229 1.3322-0.629 0.37807 3.4889-2.1068 6.8927-4.3661 9.9993-7.0153 1.9881-1.703 4.1295-3.3765 5.482-5.6566 1.0289-1.775 1.7268-3.6982 1.9591-5.7486l6.247-3.0857z" fill="#2f1604"/>
  <path d="m1349.6 126.47c-0.9047 2.8526-1.8622 5.691-3.2923 8.3316-0.4432 0.81839-0.9407 1.6062-1.411 2.4094-2.4354 3.6967-5.3152 7.0964-8.4569 10.212-1.9495 1.9332-3.3314 3.0852-5.3987 4.8943-4.1141 3.5171-8.6139 6.5339-13.311 9.2118-8.8052 5.0202-6.7495 3.911-13.111 7.1298-6.2938 3.0759-12.886 5.5105-19.538 7.6876-2.5332 0.84148-1.3481 0.41762-3.5615 1.2542l5.3143-4.1501c2.14-0.73727 0.9949-0.35677 3.4388-1.1308 6.5461-2.1045 13.029-4.4781 19.193-7.5428 1.3048-0.66571 2.5599-1.4393 3.9143-1.997 0.5413-0.22284-1.9713 1.2588-1.4544 0.98409 4.728-2.513 9.0932-5.6772 13.23-9.0568 1.9269-1.6705 3.5751-3.0474 5.3973-4.8318 3.1137-3.0493 5.9546-6.3929 8.3799-10.015 1.0677-1.8159 1.6159-2.6239 2.4582-4.5132 0.8402-1.8848 1.3843-3.8834 1.9257-5.8683l6.2821-3.0093z" fill="#2f1604"/>
  <path d="m1284.7 164.67c-3.9691 2.1188-8.1436 3.8098-12.327 5.4486-6.3011 2.4358-12.684 4.6389-18.946 7.1756-4.5793 1.7927-8.9627 3.9871-13.226 6.4261-1.8771 1.1354-3.8625 2.0628-5.8735 2.9298l5.3522-4.233c1.9514-0.84812 3.8615-1.7844 5.6907-2.8759 4.2397-2.3776 8.6057-4.4952 13.144-6.2489 6.2572-2.4914 12.635-4.6545 18.897-7.1336 4.3382-1.7451 8.6492-3.5741 12.741-5.8502l-5.4525 4.3615z" fill="#2f1604"/>
  <path d="m1264.6 155.34c-3.4669 2.1016-1.6041 0.98524-8.5866 4.9615-0.688 0.39172-2.7553 1.5601-2.0763 1.1531 7.9958-4.7943-0.6409 0.56685-1.8475 1.3322-4.2898 2.7875-8.5642 5.6271-12.407 9.0206-0.7528 0.66469-1.4692 1.3696-2.2038 2.0544-4.2806 4.1943-7.8681 8.9962-11.416 13.804-2.102 2.968-4.1583 5.9694-6.1532 9.0106l-6.1583 2.6963c2.0603-3.0742 4.2-6.0947 6.3265-9.1231 3.5781-4.8231 7.1684-9.6588 11.413-13.929 0.7327-0.69684 1.4462-1.4142 2.198-2.0902 3.8171-3.4324 8.0788-6.2978 12.367-9.0981 0.7075-0.45167 4.2738-2.7376 5.0236-3.1815 2.6481-1.5677 5.3185-3.0974 7.9832-4.6366 0.7144-0.41264 2.863-1.6404 2.1538-1.2189-1.3669 0.81202-2.7533 1.5909-4.127 2.3913-0.3546 0.20664 0.713-0.40652 1.0696-0.60984l6.4411-2.5372z" fill="#2f1604"/>
  <path d="m1217.5 178.27c-0.2575 2.8492-0.5981 5.6873-1.0041 8.5194-0.4803 3.4706-0.7926 6.9642-1.0623 10.457-0.1869 2.5102-0.2546 5.0272-0.2697 7.5436 6e-4 1.6071 0.3277 3.1704 0.7657 4.7072l-6.075 3.3069c-0.4401-1.6054-0.808-3.2284-0.8177-4.9041 0.063-2.5519 0.174-5.1019 0.3764-7.647 0.2972-3.5023 0.5847-7.008 1.0433-10.493 0.3939-2.7863 0.7774-5.5802 0.8232-8.3981l6.2202-3.0917z" fill="#2f1604"/>
  <path d="m1401.3 169.27c-0.7382 2.4173-1.1708 4.9122-1.4918 7.4146-0.3401 2.9658-0.6139 5.9331-0.7575 8.915-0.096 2.771-0.2024 5.5485 0.1667 8.3033 0.2134 1.3349 0.8585 2.506 1.516 3.6643 0.7013 1.2082 1.4003 2.421 2.0206 3.6733 0.3569 0.84492 0.1919 0.43598 0.4979 1.2256l-6.0693 3.366c-0.2629-0.76253-0.1174-0.37145-0.4406-1.1716-0.614-1.2411-1.307-2.4432-2.0205-3.6292-0.7025-1.2453-1.3691-2.5008-1.571-3.9399-0.339-2.8109-0.2053-5.6402-0.1063-8.4633 0.1086-2.9913 0.3124-5.9706 0.6843-8.9415 0.3112-2.4887 0.719-4.9642 1.2895-7.4072l6.2821-3.0094z" fill="#2f1604"/>
  <path d="m1344.9 136.77c-1.1974 2.4401-2.914 4.5499-4.5865 6.6719-2.1538 2.5774-4.4415 5.0526-6.9831 7.2546-2.0605 1.7854-2.7501 2.2247-4.9578 3.8504-6.8596 4.5274-13.998 8.6714-21.37 12.31-2.7933 1.5277-5.8547 2.4665-8.7258 3.8138-0.2 0.11863-0.8018 0.47004-0.6001 0.35461 1.7882-1.0227 7.1353-4.1213 5.3596-3.0769-3.2018 1.8834-5.2154 3.1761-8.1754 4.4778-1.6649 0.9457-3.481 1.5136-5.3074 2.0512-2.3862 0.68701-4.7795 1.3643-7.2273 1.7943-1.7164 0.27233-3.4559 0.44555-5.1305 0.92235-1.8793 0.52196-3.7159 1.1889-5.6071 1.6661-1.4894 0.32042-2.9353 0.80461-4.4139 1.1656-1.2789 0.44299-2.5655 0.81252-3.901 1.0392-1.1173 0.30626-2.2528 0.54019-3.4047 0.6652-0.279 0.0574-0.5671 0-0.8469 0.0446-2.2109 0.31519-7.4052 3.8986 4.5175-2.8345-0.5462 0.3069-0.7276 0.8212-0.8547 1.3966-0.166 0.75653-0.6118 1.3995-1.0028 2.0548-2.4466 2.5817-5.975 4.2276-9.3956 5.2108-2.6608 0.65958-5.29 1.4388-7.9536 2.086-2.9818 0.67681-5.9356 1.4679-8.9192 2.1368-2.4734 0.65589-5.0122 0.94404-7.5583 1.1125-1.8939 0.0625-3.793 0.17271-5.6614 0.50129-1.8573 0.22756-3.6895 0.59721-5.5251 0.95105-1.7651 0.31621-3.5161 0.6777-5.2992 0.8837l5.5418-4.1291c1.7576-0.22246 3.4895-0.58573 5.233-0.89595 1.8469-0.36315 3.6998-0.68816 5.5646-0.94684 1.873-0.24835 3.7566-0.35499 5.6442-0.41787 2.5176-0.18776 5.016-0.53446 7.4638-1.1708 2.9704-0.67374 5.9207-1.4308 8.8852-2.1297 2.6845-0.68395 5.3526-1.435 8.0171-2.1925 0.7487-0.26633 0.9506-0.31774 1.6508-0.64084 0.2143-0.0995 0.835-0.43993 0.6324-0.31863-9.4346 5.6484-6.7002 4.0542-4.7392 2.7205 0.4835-0.49159 0.8231-1.1869 1.1116-1.8053 0.2056-0.63676 0.187-1.3206 0.6601-1.8664 5.0337-2.8889 4.6658-3.5934 8.4213-3.9177 1.1244-0.16391 2.2284-0.41991 3.3368-0.66763 1.318-0.27666 2.5849-0.72157 3.8823-1.0784 1.4523-0.38419 2.8952-0.80461 4.3615-1.1351 1.8878-0.52846 3.7436-1.1658 5.6359-1.6805 1.6896-0.38776 3.417-0.5754 5.1261-0.85895 2.417-0.46379 4.7934-1.1139 7.1462-1.8328 1.8403-0.59032 3.6309-1.2771 5.342-2.1837 0.3252-0.14682 0.8494-0.3791 1.1761-0.54237 0.1684-0.0842 0.6616-0.35957 0.499-0.26455-11.508 6.72-2.2781 1.18 1.7205-0.92758 2.8285-1.1534 5.7036-2.2017 8.4212-3.6116 0.8063-0.40192 1.6186-0.79199 2.4189-1.2058 0.8614-0.44529 3.1807-2.1206 2.5655-1.3711-0.6975 0.84978-2.0708 0.89863-2.8303 1.6937-0.7266 0.76074 1.8222-1.0521 2.7282-1.5868 3.1674-1.8694 2.3019-1.3543 5.3943-3.3888 2.164-1.5642 2.9176-2.041 4.9346-3.7643 2.5026-2.1382 4.7343-4.5646 6.8496-7.0801 1.5913-2.0434 3.3021-4.0469 4.3737-6.4281l6.3615-2.8782z" fill="#2f1604"/>
  <path d="m1370.2 159.37c-1.7617 1.5878-3.5102 3.1866-5.3185 4.7231-2.9059 2.405-5.8875 4.714-8.9908 6.8586-0.5527 0.35626-1.0903 0.73701-1.658 1.0688-3.1847 1.8614-6.0097 3.6708-9.2741 5.1244-1.7714 0.7888-3.6011 1.4088-5.4345 2.033-3.2089 0.9596-6.5133 1.5623-9.8107 2.1276-3.3622 0.63306-6.7138 1.3216-10.102 1.8006-2.0445 0.31136-4.1134 0.36455-6.1508 0.71239-0.1708 0.0625-0.3416 0.12501-0.5124 0.18687l5.5096-4.2355c0.1817-0.0357 0.3633-0.0714 0.545-0.10715 1.9949-0.26225 4.0155-0.2782 6.0053-0.59785 3.379-0.49989 6.7251-1.1844 10.082-1.8109 3.2665-0.58586 6.5466-1.1842 9.7152-2.188 1.8176-0.63255 3.6219-1.2729 5.37-2.084 1.6778-0.77859 5.7187-2.9998-2.165 1.4578-0.5697 0.3222 1.1074-0.69785 1.661-1.0468 3.104-2.1001 6.0702-4.3851 8.9592-6.7718 1.7568-1.4819 3.5005-2.9859 5.0864-4.6502l6.4831-2.6017z" fill="#2f1604"/>
  <path d="m1220.8 175.77c-0.2801 2.5035-0.3567 5.0216-0.5252 7.5333-0.1519 2.8543-0.4855 5.6933-0.7128 8.5416-0.167 2.2982-0.2028 4.603-0.2167 6.9061-0.01 1.4092 0.02 2.8183 0.033 4.2274 0.012 0.83562 0.016 1.6712 0.014 2.507 0 0.87286 0 1.7457-0.01 2.6186 0 0.93689-0.01 1.8739 0.01 2.8107 0.01 0.80373-0.01 1.6073 0 2.4109 7e-4 0.89786-0.01 1.7955-0.01 2.6933-0.01 0.91036 0.01 1.8206 0.01 2.731-0.01 0.79275 0 1.5854 0 2.378l-6.2215 3.17c0-0.79339 0.01-1.5866 0-2.38 1e-3 -0.91342 0.014-1.8268 0.01-2.7404-7e-4 -0.89416-0.012-1.7882-0.01-2.6824 0.01-0.80462 0-1.6094 0-2.4141 0.011-0.93855 0-1.8771 0-2.8158-1e-3 -0.87069-0.01-1.7414-0.01-2.6121 0-0.83906-6e-4 -1.678 0.01-2.5169 0.01-1.4253 0.031-2.8503 0.043-4.2755 0.032-2.3278 0.092-4.6552 0.2559-6.9782 0.2199-2.8533 0.5935-5.6918 0.7505-8.5504 0.1562-2.4642 0.2047-4.9338 0.3575-7.3986l6.2089-3.1635z" fill="#2f1604"/>
  <path d="m1387.8 159.78c0.019 2.7444 0.2718 5.4805 0.4871 8.2147 0.2213 2.7446 0.6958 5.4578 1.0287 8.189 0.1916 2.2841 0.2462 4.562 0.6771 6.8181 0.4268 2.0052 1.0353 3.9713 1.7182 5.9032 0.6857 1.7557 1.5144 3.4495 2.2725 5.175 0.7498 1.6645 1.5157 3.3368 2.6663 4.7644 0.9471 1.2901 2.0116 2.439 3.1777 3.527 0.8639 0.8823 1.8145 1.6693 2.688 2.5403 0.516 0.56966 0.8599 1.2646 1.3266 1.871l-6.005 3.559c-0.4252-0.59262-0.7595-1.2504-1.2471-1.7964-0.8702-0.8615-1.7906-1.6703-2.6513-2.5422-1.1739-1.1235-2.2278-2.3299-3.2053-3.6311-1.145-1.5028-1.9786-3.1944-2.7412-4.9186-0.7712-1.739-1.5871-3.4585-2.2878-5.227-0.6907-1.9656-1.3198-3.9631-1.7368-6.006-0.4583-2.2716-0.559-4.5595-0.7013-6.868-0.2889-2.7542-0.7421-5.4878-0.9661-8.2492-0.2045-2.7224-0.4466-5.443-0.7091-8.1597l6.2088-3.1636z" fill="#2f1604"/>
  <path d="m1315 73.738c-49.644 0-59.572 19.858-59.572 19.858s-39.243 0.94518-56.737 55.79c-2.9498 9.2479-3.471 19.515-2.8078 29.308 10.261-17.483 26.875-42.967 41.072-51.642 8.4658-5.1736 35.743-17.402 35.743-17.402s26.339-16.933 53.147-23.047c17.538-3.9999 56.514 0.23024 81.58 3.6499-0.2399-0.14873-0.4585-0.28904-0.7-0.43853-19.858-12.293-63.341-16.076-91.725-16.076z" fill="#130901" fill-rule="evenodd" opacity=".599"/>
  <path d="m1523.7 604.1s16.833 24.529 22.124 44.247c5.2905 19.719 5.3394 32.495-0.4809 33.666-7.1815 1.446-13.467-8.657-13.467-18.757s1.9099-27.484 0-37.033c-1.9238-9.619-8.1762-22.124-8.1762-22.124z" fill="#303851" fill-rule="evenodd" opacity=".715"/>
  <path d="m1517.5 597.85s17.419 7.0446 24.633 11.373 17.988 13.339 24.424 22.293c7.4901 10.421 7.6952 20.2 2.4048 18.757-5.2905-1.4428-8.8863-8.6237-13.467-18.757-3.2248-7.1344-9.5594-14.444-19.234-21.944-6.1294-4.751-18.761-11.723-18.761-11.723z" fill="#303851" fill-rule="evenodd" opacity=".715"/>
  <path d="m1514.1 598.14s6.5696-0.49989 17.527-0.71061c12.316-0.23687 29.606 4.2634 30.08 10.422s-6.6318 5.4475-12.079 3.079c-5.4476-2.3686-12.542-7.8544-20.843-9.7109-8.1917-1.832-14.685-3.079-14.685-3.079z" fill="#303851" fill-rule="evenodd" opacity=".715"/>
  <path d="m1349.8 429.58s17.925-0.18323 28.013 10.174c10.088 10.357 8.1162 19.753 10.684 21.991 2.5677 2.238 19.52 20.273 22.005 27.739 2.4602 7.3914-4.2484 22.669-4.448 27.882-0.1995 5.2134 3.6672 27.744 3.06 32.428-0.6072 4.6843-4.6908 10.466-4.9402 16.983-0.2349 6.136 2.045 10.863 1.724 17.013-0.3209 6.1503-4.9098 16.748-5.8032 19.967-0.8935 3.2183-10.227 20.108-26.154 18.043-15.927-2.0645-33.631-12.457-33.631-12.457s-6.6187-0.38167-9.143 0.72001-7.8039 5.3735-25.356-2.8106c-14.148-6.597-13.74-18.928-13.74-18.928s-6.7966 0.0716-11.993-3.9361c-5.1961-4.0077-10.14-13.183-9.0931-19.874 0.8771-5.6011 3.485-9.4314 3.485-9.4314s-4.8665 0.79805-7.9025-1.5007l-3.0362-2.2988s-1.6155 1.5236-7.6769 0.43371c-11.869-2.134-11.702-16.282-11.702-16.282-6.0535-6.5355-4.8721-10.492-6.2782-14.031-2.2445-5.6493-6.816-11.719-6.9201-14.591-0.1041-2.8713-1.0692-13.929 4.7464-17.713 11.623-7.5637 17.922-16.619 27.551-21.086 9.6288-4.4674 22.391 0.87834 27.318-0.38815 4.9272-1.2665 9.5681-3.999 9.5681-3.999" fill="#ffbb94" stroke="#080808" stroke-linecap="round" stroke-linejoin="round" stroke-width="3"/>
  <path d="m1342.4 481.75-17.164-18.309s-10.299-4.5772-17.164-4.5772c-6.8658 0-9.7922 17.606-9.7922 17.606s-14.238 7.5679-16.526 21.299c-2.2885 13.731-2.2885 17.164-2.2885 17.164s26.319-20.597 34.329-22.886c8.01-2.2886 28.607-10.299 28.607-10.299z" fill="#ffb387" fill-opacity=".81389"/>
  <path d="m1349.6 434.08s17.085-0.17388 26.702 9.6992c9.6167 9.873 7.7377 18.827 10.185 20.961 2.4476 2.1334 18.607 19.326 20.976 26.443 2.3452 7.0457-4.0518 21.609-4.2419 26.579-0.1903 4.9696 3.4983 26.444 2.9194 30.909-0.5788 4.4652-4.4713 9.9764-4.709 16.188-0.2239 5.849 1.9471 10.357 1.6411 16.22-0.3058 5.8626-4.678 15.964-5.5296 19.032-0.8517 3.0677-9.7497 19.166-24.931 17.198-3.7922-0.49157-7.6892-1.4788-11.404-2.6828 3.0596-7.8274 1.3428-18.434 3.4031-26.621 1.7936-7.1275 7.4865-11.799 8.5069-19.115 1.2924-9.2657-4.4646-16.938-4.4394-26.363 0-8.2249 5.3581-16.894 4.1228-23.939-1.2008-6.8482-2.5624-13.78-3.2624-22.04-0.6155-7.2654 7.9112-24.318 1.8856-27.6-8.8-4.7934-18.049-21.032-25.108-32.618z" fill="#ffa773" fill-opacity=".38889"/>
  <path d="m1357.4 437.54s-7.4164-9.0677-12.892-10.152c-5.4757-1.0842-24.321-1.7124-34.543 7.8206s-12.833 20.228-9.472 27.285c3.8488 8.0817 7.8656 10.417 15.152 11.774 7.2867 1.3571 13.138-2.1107 16.978-4.7446 3.8401-2.6338 3.7648-2.6595 3.7648-2.6595" fill="#ffbb94" stroke="#080808" stroke-linecap="round" stroke-linejoin="round" stroke-width="3"/>
  <path d="m1313.2 443.53s4.1863 4.079 5.5174 11.998c1.331 7.9188 0.8648 10.216 1.8585 10.345 0.9937 0.12883 8.1703-1.972 10.204-7.2656 2.0334-5.2935-1.9475-13.556-4.5053-15.908-2.5578-2.3523-4.5397-2.5525-5.9131-2.4505-5.7811 0.42937-7.1612 3.2816-7.1612 3.2816z" fill="#f9e8d9" fill-opacity=".84444"/>
  <path d="m1292.4 482.85s-3.7467 8.3338-4.18 14.841 0.2353 10.104 0.2353 10.104" fill="#ffbb94" stroke="#080808" stroke-linecap="round" stroke-linejoin="round" stroke-width="1.2512"/>
  <path d="m1278.3 494.97s4.9233 4.7403 5.3304 9.5105c0.346 4.0533-0.9304 7.9552-0.9304 7.9552" fill="none" stroke="#080808" stroke-linecap="round" stroke-linejoin="round" stroke-width="1.2512"/>
  <path d="m1282.9 511.56s-1.6772 8.1919-2.671 15.857c-0.9937 7.6652-2.7866 13.586-5.4762 16.929-2.7962 3.4758-11.184 7.1646-11.184 7.1646" fill="#ffbb94" stroke="#080808" stroke-linecap="round" stroke-linejoin="round" stroke-width="1.2512"/>
  <path d="m1352.6 438.97c0.5006 0.8853 3.5487 7.4336 3.8587 11.371 0.3101 3.9372-1.651 7.9902-1.651 7.9902" fill="#ffbb94" stroke="#080808" stroke-linecap="round" stroke-linejoin="round" stroke-width="1.2512"/>
  <path d="m1356.9 467.42s-12.427 10.058-21.641 8.3223c-5.7512-1.0833-6.4828-3.7212-6.4828-3.7212" fill="none" stroke="#080808" stroke-linecap="round" stroke-linejoin="round" stroke-width="2"/>
  <path d="m1245.7 545.89s3.0089-6.7568 10.474-12.303l10.959-8.1418c0.9455-4.6587-0.7276-15.462-8.7885-16.507-8.0609-1.0449-14.762 9.024-15.881 15.026-1.1195 6.0021-0.029 10.233-0.029 10.233" fill="#f9e8d9" fill-opacity=".84444"/>
  <path d="m1366.6 521.35s-23.306 16.445-44.913 19.791c-12.183 1.8867-29.693 7.7623-34.993 9.1244-5.2993 1.3622-11.954 5.2806-11.954 5.2806" fill="#ffbb94" stroke="#080808" stroke-linecap="round" stroke-linejoin="round" stroke-width="1.2512"/>
  <path d="m1296.9 539.31s-4.3974-2.9606-6.8107-8.0547c-2.4133-5.094-2.1271-12.57-2.1271-12.57" fill="#ffbb94" stroke="#080808" stroke-linecap="round" stroke-linejoin="round" stroke-width="1.2512"/>
  <path d="m1370 565.52s-6.394 1.9033-12.657 2.7989c-6.2633 0.89566-26.552 9.8771-33.034 12.452-6.481 2.575-19.269 6.3815-22.758 6.9537-3.4893 0.57222-9.9579 0.41672-9.9579 0.41672" fill="#ffbb94" stroke="#080808" stroke-linecap="round" stroke-linejoin="round" stroke-width="1.2512"/>
  <path d="m1369 570.85s-7.0844-3.3089-10.574-2.7367l-3.4894 0.57222" fill="#ffbb94" stroke="#080808" stroke-linecap="round" stroke-linejoin="round" stroke-width="1.2512"/>
  <path d="m1398.8 521.53s4.4787 11.967 4.7146 16.321c0 0 0.3815 6.5723-1.7223 11.231" fill="#ffbb94" stroke="#080808" stroke-linecap="round" stroke-linejoin="round" stroke-width="1.2512"/>
  <path d="m1401.4 577.67s0.04 8.0562-2.1938 13.341c-2.1057 4.9823-10.405 9.7988-10.405 9.7988" fill="#ffbb94" stroke="#080808" stroke-linecap="round" stroke-linejoin="round" stroke-width="1.2512"/>
  <path d="m1306.4 593.06s1.7455 5.6452 4.1452 9.8271c1.9105 3.3294 7.5401 8.7189 7.5401 8.7189" fill="#ffbb94" stroke="#080808" stroke-linecap="round" stroke-linejoin="round" stroke-width="1.2512"/>
  <path d="m1374.3 605.12s-13.38 6.4715-19.099 7.5881c-5.7186 1.1166-8.076 0.19171-8.076 0.19171" fill="#ffbb94" stroke="#080808" stroke-linecap="round" stroke-linejoin="round" stroke-width="1.2512"/>
  <path d="m1370.3 614.51c-1.3704-0.17761-7.0044-0.90804-8.9247-1.6214-1.9203-0.71342-1.9936-1.3422-1.9936-1.3422" fill="#ffbb94" stroke="#080808" stroke-linecap="round" stroke-linejoin="round" stroke-width="1.2512"/>
  <path d="m1288.7 562.43s1.3651 11.859 3.9647 15.997c4.2353 6.7422 11.578 8.623 11.578 8.623" fill="#ffbb94" stroke="#080808" stroke-linecap="round" stroke-linejoin="round" stroke-width="1.2512"/>
  <path d="m1313.2 443.53s4.1863 4.079 5.5174 11.998c1.331 7.9188 0.8648 10.216 1.8586 10.345 0.9936 0.12883 8.1702-1.972 10.204-7.2655 2.0334-5.2935-1.9475-13.556-4.5053-15.908-2.5578-2.3523-4.5397-2.5525-5.913-2.4505-5.7812 0.42939-7.1613 3.2816-7.1613 3.2816z" fill="none" stroke="#080808" stroke-linecap="round" stroke-linejoin="round" stroke-width="1.2512"/>
  <path d="m1245.7 545.88s3.0089-6.7568 10.474-12.303l10.959-8.1418c0.9454-4.6587-0.7277-15.462-8.7886-16.507s-13.757 8.853-15.881 14.577c-2.6156 7.0494 2.8134 22.351 2.8134 22.351" fill="none" stroke="#080808" stroke-linecap="round" stroke-linejoin="round" stroke-width="1.2512"/>
  <path d="m1334.7 475.73l7.3246 6.5847" fill="#ffbb94" stroke="#080808" stroke-linecap="round" stroke-linejoin="round" stroke-width="1.2512"/>
  <path d="m1373.7 463.03s-3.035 8.4743-8.9091 11.767c-9.5105 5.3305-21.173 6.6902-28.046 9.0809-6.8733 2.3907-26.335 10.123-36.581 16.384-10.246 6.2606-17.298 11.723-17.298 11.723s0.4474-6.7286-2.993-10.251c-3.4404-3.5226-8.02-6.1672-8.02-6.1672" fill="none" stroke="#080808" stroke-linecap="round" stroke-linejoin="round" stroke-width="1.2512"/>
  <path d="m1367.2 526.9s-6.338-1.1631-10.002 0.75257l-3.6635 1.9157" fill="#ffbb94" stroke="#080808" stroke-linecap="round" stroke-linejoin="round" stroke-width="1.2512"/>
 </g>
</svg>
