<?xml version="1.0" encoding="UTF-8"?>
<svg enable-background="new 0 0 252 280.449" viewBox="0 0 252 280.449" xmlns="http://www.w3.org/2000/svg">
 <path d="m65,15.202c4.969.879.26,6.941-3,6-.87-3.87 2.442-3.558 3-6z"/>
 <path d="m82,33.202c-3.191.857-3.094-1.574-5-2 .374-3.34 5.316-1.122 5,2z"/>
 <path d="m105,67.202v3c-2.09.423-2.648-.686-4-1 .24-1.76 1.72-2.28 4-2z"/>
 <path d="m66,87.202c4.055-.229 1.815,7.732-2,6-.261-2.928 2.26-3.074 2-6z"/>
 <path d="m104,89.202c4.027-.977 4.027,5.976 0,5-1.874-1.905-.11-2.513 0-5z"/>
 <path d="m87 120.2c-3.723 3.49-5.074-2.728 0 0z"/>
 <path d="m73,6.202c15.721-9.526 51.21-7.729 64,3l-1.5,1.167 .5,1.833h-5l-.5-1.5-1.5.5c-1.447-3.264-2.234-2.517-6-2l-1.5-.5-1.5.5v-1c-3.192-2.461-7.363.781-7,5l-1.5.5 .5,1.5c-2.09-.424-2.648.685-4,1l-.5-1.5-.5-1.5v-3c-3.386.281-5.743,1.591-10,1l.5-1.833-1.5-1.167c-.469-5.663-12.985-3.14-13,1l-1.5-.5-.5,1.5c-2.402-2.501-2.648-.949-7-1l.5-1.833-1.5-1.167z"/>
 <path d="m164.299,31.901 .701-1.7c16.381,15.836 25.868,43.166 22,76 6.381,1.609 9.113,5.581 14,10 2.618,2.369 4.451,4.914 8,5 7.33.178 6.564-5.354 13-9 6.811,2.522 11.262,7.403 19,9 5.434,8.079 9.482,15.62 9,26-.725,15.489-13.542,22.426-22,30-2.062,16.471 12.966,26.572 11,43-.917,7.649-5.948,11.488-2,22 1.648,4.393 6.219,7.799 6,12-.355,6.801-10.102,9.264-9,16 5.482,4.871 15.895-3.982 18,6-7.771,6.885-17.479,2.014-27,2-17.766-.027-37.32,3.137-56,2-2.714-.166-5.287-1.861-8-2-31.494-1.603-66.318.721-95-2-12.814-1.216-26.198,1.207-38,0-4.403-.451-8.713-2.65-13-3-4.415-.361-12.997,4.764-14-3 7.285-4.16 21.578.752 33-1 3.832-5.168 13.317-4.683 18-9-5.118-13.189-12.016-29.625-7-48-14.97-3.49-25.384-5.353-41-8-5.375-6.832-3.245-12.188-4-21 1.289-1.377 4.343-.99 7-1 2.209-2.193-.99-4.086 0-8 4.977-.978 5.956,2.043 9,3 4.335.668 2.302-5.029 7-4 .958,3.043 2.019,5.98 3,9l-1.5,1.166 .5,1.834c-3.986.319-7.389.055-9-2-.042,3.291-1.689,4.979-1,9 1.331,2.451 3.018-1.803 4,1 1.146,4.146-2.104,3.896-2,7 2.071,3.232 7.937,3.982 11,1v-7l1.833.5 1.167-1.5c4.948.719 9.96,1.373 16,1 4.44-2.893 7.357-7.31 12-10-25.814-12.854-45.602-31.732-51-65l1.833.5 1.167-1.5c.81.189.997,1.003 2,1 1.503-9.23-1.794-16.092 1-25-1.89-.111-.694-3.307-3-3-1.386.614-.151,3.849-2,4l-1.167-1.5-1.833.501c1.102-5.565.632-12.7 3-17l1.166,1.5 1.834-.5c.56,1.44 1.56,2.44 3,3-.773-8.608 7.948-10.197 5-18 6.65-1.35 4.26-11.74 9-15-.805-.529-1.624-1.044-3-1l-1.301-1.3-1.699-.7c1.647-1.686 2.172-4.494 4-6l1.166,1.5 1.834-.5c0,1-.001,2 0,3 2.934,3.343 10.186-9.624 5-8l-1.215-1.357-1.785.357c1.637-4.696 4.836-7.83 9-10l.5,1.5 .5,1.5c5.336,6.756 10.01-9.132 17-4-3.859,3.498-5.315,8.224-4,12-3.71-4.417-8.393,1.355-13,2-3.254,13.856-12.627,26.556-10,43-1.113,2.221-3.958,2.709-5,5 .252,13.081-.098,26.764 9,31l1.166,1.5 1.834-.5v3l-1.834-.5-1.166,1.5c-.805-.529-1.624-1.044-3-1-3.891,4.089-.528,14.035 4,12l1.166,1.5 1.834-.5c1.686,10.646 5.998,18.668 15,22l1.166,1.5 1.834-.5c8.435,2.897 18.976,3.689 21,13 4.18-.82 8.048-1.951 13-2l1.166,1.5 1.834-.5v4c10.549,2.563 25.521,1.754 29-6l.699,1.698 1.301,1.302c3.266,6.854 10.441-2.787 18-1-.426-2.998 5.859-8.012 1-9-1.712,2.287-7.635.365-11,1-.443.889-.88,1.787-2,2l-1.167-1.5-1.833.5v-2c-8.237-.771-19.286-2.912-25-3l-1.167-1.5-1.833.5v-2l1.5-1.168-.5-1.832c11.051.975 28.993,8.278 37,0l1.165,1.5 1.835-.5v4c11.327,1.66 15.309-4.025 19-10l.698,1.698 1.302,1.302c-.928,5.26 3.378,5.287 4,9 5.126-.563 12.209-4.429 9-10-.416,2.221-5.484.959-5-1 1.023-2.976 2.438-5.562 3-9-3.633.367-5.672,2.329-7,5l-1.167-1.5-1.833.5v-3c-4.206-.853-11.549-3.28-14,0l-.701-1.7-1.299-1.3c.225-4.108 2.117-6.549 4-9l1.166,1.5 1.834-.5v4c2.396,2.014 9.835,2.925 12,2 1.889-.111.693-3.307 3-3l1.166,1.5 1.834-.5c4.527,5.258 6.145-8.991 10-11 3.119-1.879 7.451-2.549 8-7-5.479-.198-5.994,3.023-11,1-3.266,3.07-3.361,9.305-6,13l-1.5-.5-1.5.5c-.755-2.58-7.398.729-7-3 1.581-3.418 6.076-3.923 6-9-.975-.028-.777-1.224-1-2-4.654-.321-8.988-.321-10,3l-1.167-1.5-1.833.5v-4l1.5-1.75-.5-2.25c.811-.19.995-1.003 2-1l1.5.5 1.5-.5c-.282,1.614.943,1.721 1,3h4c4.632-3.419 2.964-15.745-4-12l-.5-1.5-1.5.5c-5.498-.948-10.443,6.733-17,8 2.561.105 4.766.566 6,2l-1.5,1.167 .5,1.833c-6.031-.413-8.201-2.999-13,0-2.98-2.686-6.84-4.495-11-6-7.042-11.832-21.389-19.323-15-39-2.619-2.048-5.848-3.486-11-3 .398,4.971-4.843,6.488-6,12-.688,3.274.931,7.644 0,11-1.262,4.546-4.71,6.512-6,10 2.287,2.378 3.641,5.691 8,6 4.677,1.01 3.322-4.011 8-3 1.581,2.085 3.26,4.073 4,7 3.766,1.053 4.553-4.334 6,0-.993,3.008-.74,7.26-4,8-5.68.346-8.019-2.648-13-3-2.587,1.97-5.67,4.549-4,8l-1.5-.5-.5,1.5c-2.164-1.504-6.22-1.114-7-4l1.5-.5-.5-1.5c5.147-7.334-11.113-8.537-11-17 .078-5.945 4.509-4.911 9-11-11.517-.69-28.724-.21-30-14h-3l.5-1.5-1.5-.5c3.744-4.569-.311-8.454 0-15 8.495-3.923 16.937-14.325 29-13 8.477.931 14.252,7.225 18,15 10.568-1.902 13.623,3.709 21,5 1.927-3.125 2.584-7.203 0-10l1.5-1.167-.5-1.833c8.902-.432 11.168-7.497 15-13l1.5-.5-.5-1.5c8.338-4.742 13.521,3.099 20-1 1.71,2.703 5.812,6.946 10,4v-2l1.299-1.301zm-28.299,20.301v1c7.182,2.492 14.036,6.583 22,3 2.293-3.25-1.318-6.19 1-9-3.73-1.063-1.584,3.75-5,3-3.975-11.963-23.219-9.934-27,1 1.868,1.958 3.661.309 6,0l1.165,1.5 1.835-.5zm-73,8c-.582-3.914.86-5.807 2-8-.805-.529-1.624-1.044-3-1-28.478,19.703 31.452,42.129 28,13-2.998,2.336-2.447,8.221-6,10-6.493-.175-13.809.475-16-4 3.875-5.458 5.955-12.711 16-12-1.784-11.895-17.086-3.717-18,3l-1.167-1.5-1.833.5zm65,3c-18.614-1.132-14.479,27.829 0,33 9.984,3.566 19.038.983 26-8 .939-13.275-1.536-23.132-12-25v2l-1.835-.5-1.165,1.5c-2.632-1.036-6.137-1.197-10-1l.5-1.5-1.5-.5zm38,26c-1.055,5.803 4.333.416 0,0zm51,70.001c-.148-1.332 4.064-3.021 1-4-.922,1.746-3.128,2.205-6,2 .609-4.736-3.812-6.476-4-10-.457-8.537 7.964-11.896 11-19-2.719-6.202-12.865-1.495-16,1 1.35,8.016-2.863,10.471-2,18 3.021,2.977 7.188,4.812 7,11l-1.357,1.213 .357,1.787c-1.615.279-1.723-.945-3-1-1.409,2.592-3.385,4.615-5,7 4.089,4.648 9.26-1.275 12-4-1.164.162-1.779-.223-2-1l1.5-1.168-.5-1.832h7l-.5,1.832 1.5,1.168c-1.458,4.123 1.135,4.195 4,4-4-4-3.5-5.836-3.5-5.836l-1.5-1.164zm-23-29.001h3c.281-2.615-.365-4.302-3-4v4zm-3,7c1.609,2.73 3.355-1.465 1-2 .002,1.003-.811,1.189-1,2zm-10,24.001c3.826,5.696 11.077,3.283 17,1-2.409-6.134 1.085-12.488-2-17-.241,1.758-1.723,2.278-4,2-1.887-.338 1.434-6.408-1-4-.139,1.861-.659,3.342-2,4-2.104-2.795-5.124-1.455-8,0v13l-1.834-.5-1.166,1.5c-5.593-3.509-7.277,4.418-12,5-2.311-1.359-4.459-2.875-8-3-4.832,4.168-10.208,7.791-14,13-9.623,3.229-18.307,9.17-29,12-3.091.816-7.719-.5-10,3 3.996,3.336 9.061,5.604 11,11-2.28,9.211 5.941,13.17 7,22-4.351,4.314-4.991,12.342-11,15-4.818-.184-5.368-4.634-9-6l1.5-1.168-.5-1.832h3c3.51-7.848-.852-22.435-9-25l.5-1.5-1.5.5v-2h-2c-.163,1.162.22,1.777 1,2l-.5,1.5 1.5-.5c.528.803 1.043,1.621 1,3-.241,1.758-1.721,2.278-4,2 2.238,5.223-2.122,6.043 0,12 2.869,2.797 6.895,4.438 9,8l-.5,1.5 .5,1.5c-3.819,1.18-4.543,5.455-4,11-4.744,5.863-9.331,10.354-8,20 11.557,10.539 38.068,4.95 64,5 23.018.041 42.873,2.986 60,1 2.523-4.144 6.299-7.033 7-13-4.109-7.537-6.87-20.175-3-30-3.145-2.611-5.291,2.773-9,0-2.311-7.709-4.488-15.367-7-23-.961-2.914-.88-7.664-4-9-3.684-.675-4.557,3.559-10,3-13.943-1.438-6.923-24.105-10-34l1.299-1.302 .701-1.698zm39-8c2.083-1.992.031-4.271-2-5-.15,2.481.516,4.148 2,5zm-24,19c-3.622,4.72 5.854,1.33 0,0zm-109,15c1.602-2.787-4.319-2.767-4-1 1.418-.086 2.831-.166 3,1l-1.5,1.164 .5,1.836h-6c-.08,4.586-2.89,6.441-2,12 3.795-2.963 14.489-8.258 11-12l.5-1.836-1.5-1.164zm-20,15c2.534-2.801 3.7-6.968 6-10-.768-3.234-2.768-5.234-6-6-2.807,1.492-3.611,14.64 0,16zm7,68c8.023-6.236 1.72-21.517-8-22-1.733,5.862-3.854,23.727 8,22z"/>
 <path d="m85,13.202v-2c3.078.745 1.921-2.745 5-2v2.5l2,1.5c-.53.804-1.044,1.623-1,3l-1.901.9-.099,2.1-1-.5-1,.5c.69-4.025-4.211-2.456-4-6h2z"/>
 <path d="m38.833,107.702-1.833.5c-.723-3.057 1.022-3.645 1-6l1.833.5 1.167-1.5c4.893-.44 4.001-6.665 7-9 3.239,1.761 8.475,1.524 9,6l-1.5.5 .5,1.5c-3.493-.895-1.709,3.261-1,4l-1.5.5-1.5.5c-1.615.281-1.722-.945-3-1-3.674,2.426-3.819,9.362-9,5l-1.167-1.5z"/>
 <path d="m40.833,90.702-1.833.5c.988-3.989-2.989-3.012-2-7h4l.5,1.5 1.5-.5c-.845,3.558 2.895,5.992-1,7l-1.167-1.5z"/>
 <path d="m85.5,20.702 1.5-.5c-.658,3.658 2.164,3.836 2,7l-1.786-.357-1.214,1.357c-4.911-4.7-13.113.464-18,2-4.37-10.522 10.996-17.482 18-11l-.5,1.5z"/>
 <path d="m64.166,61.702 1.834-.5c.197,2.863.124,5.458-3,5-.784-.694-2.227-5.58 0-6l1.166,1.5z"/>
 <path d="m58.833,111.702 1.167-1.5c13.125,14.736 35.161,23.39 61,20 2.729-2.271 2.042-7.958 7-8 1.775,5.225 10.389,3.611 12,9-11.52-.519-5.83,16.17-17,16-3.297-4.045 2.823-7.125 0-11-13.028.972-21.598,6.401-31,11l-1.5-.5-1.5-.5c-22.019-.316-27.011-17.658-32-35l1.833.5zm25.167,20.5c-2.876-2.98-12.552-8.054-15-5 7.018,5.728 23.563,15.396 34,8-8.077.743-11.8-2.868-19-3z"/>
 <path d="m142.5,71.702 1.5-.5c1.545,1.454.88,5.119 1,8 1.583.083 3.812-.481 4,1 .089,4.423-1.451,7.217-4,9-3.148-4.102-4.881.651-9,1-2.503-4.498-8.669-5.332-12-9 4.18-4.82 9.135-8.865 17-10l1.5.5z"/>
 <path d="m52.5,132.035-.5-1.833c3.735,1.068 2.85-2.483 6-2 1.118,3.882 4.881,5.118 6,9l-1.5.5-1.5.5c-1.615.28-1.722-.945-3-1l-1.5-.5-1.5.5v-1c-1.332-1.001-3.019-1.649-4-3l1.5-1.167z"/>
 <path d="m63.833,140.702 1.167-1.5c3.49,6.842 9.933,10.733 20,11l-.5,1.832 1.5,1.168c-8.775,7.174-23.537-2.229-24-13l1.833.5z"/>
 <path d="m128.165,89.035c-.647-.756-1.764-.773-2.332-1.667" fill="none" stroke="#000" stroke-linecap="round" stroke-width="2.1909"/>
 <path d="m122.5 111.7 1-2" fill="none" stroke="#000" stroke-linecap="round" stroke-width="2.7689"/>
 <path d="m149.07,20.13c6.807.994 10.197,7.812 15.229,11.771" fill="none" stroke="#000" stroke-linecap="round" stroke-width="4.0597"/>
 <path d="m9.833 119.7c-2.747-8.345-2.342-17.401-2-26" fill="none" stroke="#000" stroke-linecap="round" stroke-width="3.2814"/>
 <path d="m10.166 78.702c1.98-11.963 7.969-22.8 14.533-32.8" fill="none" stroke="#000" stroke-linecap="round" stroke-width="3.1719"/>
 <path d="m28.166 40.702c1.023-2.988 4.057-4.333 5.619-6.857" fill="none" stroke="#000" stroke-linecap="round" stroke-width="2.7839"/>
 <path d="m41.5 25.702c10.068-7.511 20.937-14.361 33-18.333" fill="none" stroke="#000" stroke-linecap="round" stroke-width="3.1421"/>
 <path d="m81.5,8.702c.07,2.279 1.648,3.515 3.5,4.5" fill="none" stroke="#000" stroke-linecap="round" stroke-width="2.1506"/>
 <path d="m119.5 16.702" fill="none" stroke="#000" stroke-linecap="round" stroke-width="5.8309"/>
 <path d="m119.5,16.702c.819-2.621 1.573-5.29 2-8" fill="none" stroke="#000" stroke-linecap="round" stroke-width="2.9665"/>
 <path d="m37.166,117.702c.568-3.333.054-6.862 1.667-10" fill="none" stroke="#000" stroke-linecap="round" stroke-width="2.9205"/>
 <path d="m39.833,102.702c-.799-3.99.216-8.08 1-12" fill="none" stroke="#000" stroke-linecap="round" stroke-width="2.7434"/>
 <path d="m41.5 85.702c3.422-5.443 2.687-13.084 8-17" fill="none" stroke="#000" stroke-linecap="round" stroke-width="2.2563"/>
 <path d="m117.5 49.034c-7.744-2.256-14.835-6.27-22.334-9" fill="none" stroke="#000" stroke-linecap="round" stroke-width="3.5066"/>
 <path d="m100.83 22.202c-4.322-0.213-7.923-3.176-11.734-5.1" fill="none" stroke="#000" stroke-linecap="round" stroke-width="3.0608"/>
 <path d="m88,18.702c-.145.58-1.365,1.041-2.5,2" fill="none" stroke="#000" stroke-linecap="round" stroke-width="1.5"/>
 <path d="m90,32.702c-.056-2.3-1.87-3.911-2.786-5.857" fill="none" stroke="#000" stroke-linecap="round" stroke-width="2.9155"/>
 <path d="m119.5,16.702c3.47.571 6.976,2.001 10.5,1.125" fill="none" stroke="#000" stroke-linecap="round" stroke-width="3.648"/>
 <path d="m130,17.827c.77-2.35-.84-4.887.5-7.125" fill="none" stroke="#000" stroke-linecap="round" stroke-width="2.5981"/>
 <path d="m97.5,9.368c-2.49.83-4.94,1.721-7.5,2.333" fill="none" stroke="#000" stroke-linecap="round" stroke-width="3.3912"/>
 <path d="m100.83 22.202c2.586-2.295 3.901-5.68 6.667-7.5" fill="none" stroke="#000" stroke-linecap="round" stroke-width="2.6234"/>
 <path d="m130 17.827c5.197 3.275 13.727 7.075 19.07 2.303" fill="none" stroke="#000" stroke-linecap="round" stroke-width="3.0984"/>
 <path d="m149.07 20.13c-2.17-5.772-8.812-6.924-13.57-9.762" fill="none" stroke="#000" stroke-linecap="round" stroke-width="3.5762"/>
 <path d="m100.83 22.202c3.849 3.19 9.394 5.023 14.417 4.5" fill="none" stroke="#000" stroke-linecap="round" stroke-width="3.1691"/>
 <path d="m115.25 26.702c1.304-3.382 3.29-6.49 4.25-10" fill="none" stroke="#000" stroke-linecap="round" stroke-width="3.3665"/>
 <path d="m119.5,16.702c-2.724-.949-5.486-1.569-8-3" fill="none" stroke="#000" stroke-linecap="round" stroke-width="2.6629"/>
 <path d="m115.25 26.702c5.265 3.883 12.605 3.727 18.25 7" fill="none" stroke="#000" stroke-linecap="round" stroke-width="2.9746"/>
 <path d="m134.165,52.702c.183-.667.262-1.333.335-2" fill="none" stroke="#000" stroke-linecap="round" stroke-width="3.1091"/>
 <path d="m64.833,59.702-.667,2" fill="none" stroke="#000" stroke-linecap="round" stroke-width="3.1623"/>
 <path d="m90.5,116.702 .569.984c6.091,1.174 11.941,2.785 17.431,6.016" fill="none" stroke="#000" stroke-linecap="round" stroke-width="2.1144"/>
 <path d="m90.954,149.065c3.885.708 7.652,2.125 11.546,2.97" fill="none" stroke="#000" stroke-linecap="round" stroke-width="3.4385"/>
 <path d="m140.16 151.7c3.461-4.759 5.75-10.51 9.134-15.201" fill="none" stroke="#000" stroke-linecap="round" stroke-width="3.3541"/>
 <path d="m153.17 127.7c1.303-4.443 3.93-8.396 4.667-13" fill="none" stroke="#000" stroke-linecap="round" stroke-width="3.0349"/>
 <path d="m157.5 109.45c-2.891-1.151-6.023-1.245-9-2.083" fill="none" stroke="#000" stroke-linecap="round" stroke-width="3.541"/>
 <path d="m142.5,71.702c.48-2.631-1.305-4.774-2.335-7" fill="none" stroke="#000" stroke-linecap="round" stroke-width="3.0185"/>
 <path d="m122 72.702c1.884-3.296 3.851-6.943 7.5-9" fill="none" stroke="#000" stroke-linecap="round" stroke-width="2.2111"/>
 <path d="m55.5 98.702c9.16 6.077 18.57 11.966 29 15" fill="none" stroke="#000" stroke-linecap="round" stroke-width="2.3587"/>
 <path d="m162.5,95.702c-.375,3.704-1.428,7.315-2,11" fill="none" stroke="#000" stroke-linecap="round" stroke-width="2.5088"/>
 <path d="m38.833 123.7c5.403 0.911 9.062 5.584 13.667 8.333" fill="none" stroke="#000" stroke-linecap="round" stroke-width="2.5623"/>
 <path d="m84.5 152.04c2.264-0.761 4.233-2.101 6.454-2.97" fill="none" stroke="#000" stroke-linecap="round" stroke-width="2.6646"/>
 <path d="m90.954,149.065c-.248-.866-.355-1.616-.454-2.362" fill="none" stroke="#000" stroke-linecap="round" stroke-width="3.1091"/>
 <path d="m58.833 111.7c-1.209-2.771-3.777-4.497-5.333-7" fill="none" stroke="#000" stroke-linecap="round" stroke-width="2.7203"/>
 <path d="m171.17 131.7c0.502-1.667 1.275-3.333 1.334-5" fill="none" stroke="#000" stroke-linecap="round" stroke-width="3.0619"/>
 <path d="m38.166,133.702c.423-3.27-1.032-6.842.667-10" fill="none" stroke="#000" stroke-linecap="round" stroke-width="2.5437"/>
 <path d="m38.833 123.7c-0.263-1.333-1.1-2.667-1.667-4" fill="none" stroke="#000" stroke-linecap="round" stroke-width="3.0414"/>
 <path d="m56.166 156.7c1.494-6.363-2.592-13.34 0.334-20" fill="none" stroke="#000" stroke-linecap="round" stroke-width="2.6511"/>
 <path d="m206.64 159.42c1.771 0.785 2.768 1.207 3.857 1.619" fill="none" stroke="#000" stroke-linecap="round" stroke-width="3.3166"/>
 <path d="m161.7 146.9c1.462-2.012 2.795-4.106 4.135-6.199" fill="none" stroke="#000" stroke-linecap="round" stroke-width="3.0822"/>
 <path d="m93.166 168.7c3.853-4.205 7.242-8.908 9.667-14" fill="none" stroke="#000" stroke-linecap="round" stroke-width="2.6457"/>
 <path d="m63.833 140.7c-0.571-1.354-0.937-2.032-1.333-3" fill="none" stroke="#000" stroke-linecap="round" stroke-width="3.3166"/>
 <path d="m124.7 167.9c2.277-2.174 4.812-4.267 6.134-7.198" fill="none" stroke="#000" stroke-linecap="round" stroke-width="3.4761"/>
 <path d="m180.3 162.9c-0.574-0.659-0.751-1.974-1.133-3.198" fill="none" stroke="#000" stroke-linecap="round" stroke-width="3.2404"/>
 <path d="m218.5,160.367c-.667.225-1.334.445-2,.668" fill="none" stroke="#000" stroke-linecap="round" stroke-width="3.1623"/>
 <path d="m29.833 194.7c0.086-4.445-1.884-8.554-5.333-11.336" fill="none" stroke="#000" stroke-linecap="round" stroke-width="2.8075"/>
 <path d="m84.5,188.367c1.333.354 2.666.232 4,0" fill="none" stroke="#000" stroke-linecap="round" stroke-width="3.0984"/>
 <path d="m95.5 205.7c1-0.644 1.999-1.222 3-2" fill="none" stroke="#000" stroke-linecap="round" stroke-width="1.291"/>
 <path d="m102.5,231.703c.666.039 1.333.184 2,.332" fill="none" stroke="#000" stroke-linecap="round" stroke-width="3.0822"/>
</svg>
