<?xml version="1.0" encoding="UTF-8"?>
<svg enable-background="new 0 0 322.08 202.998" viewBox="0 0 322.08 202.998" xmlns="http://www.w3.org/2000/svg">
 <path d="m67.555,10.218c5.222-.752 6.089,5.305 10.721,3.152-.262-.458-1.555-2.443.315-2.207-.327-1.145-.985-1.958-1.892-2.522-.8.987-1.158,2.415-1.892,3.468-2.909-.783-.27-5.181-2.207-6.937-2.046-.16-3.942-.472-5.676-.945 1.215,1.309 2.009,3.037 2.838,4.73-.74.1-1.184.498-2.208.314-.422-2.309-3.711-1.754-3.468-4.729-7.274,2.396-12.229,7.11-17.027,11.982 2.776-1.606 6.76.435 6.622,3.783-2.447.135-3.464-1.16-5.044-1.892-1.431.163-2.518,2.158-3.784.631-4.081,3.038-7.419,9.262-10.405,14.504-.867,1.52-1.955,3.123-2.522,4.413-.76,1.726-.055,4.905-3.154,4.73-.213-3.051 1.154-4.522 1.577-6.937-.669-.732-2.933.869-3.784,0-.26-.891.444-.817.315-1.577 .944-.553 3.684-.661 3.469.947 1.385-4.396 3.462-8.1 5.991-11.352-2.232-1.484-3.86,2.015-5.045,1.577-.622-2.181 3.505-5.082 5.991-3.154 1.917-1.972 4.333-3.445 5.36-6.306 3.23-1.709 5.427-4.452 7.883-6.936 1.287-.185 2.141-.802 2.522-1.892 2.451-.702 3.852-2.455 5.991-3.468-.584-1.099-2.858-.506-4.099-.947-.925.269.411.794 0,1.577-2.826-1.016-6.383-.177-8.828.945 .785,1.423 3.692.722 3.784,2.838-3.268-.607-7.42-1.865-8.829,1.261 2.016-.84 3.352.268 5.36.315v2.522c-1.709.344-2.287-.445-3.153-.945-2.306-.099-3.647.767-5.36,1.261 .932.813 3.059-1.201 4.415,0-.405,1.524-2.377.821-3.468,1.261-1.505.606-2.184,1.68-3.469,2.207 .618,1.002 2.685-.852 3.469.315 .432,1.499-1.373.789-1.892.946-2.223.671-4.149,1.31-5.044,3.469 1.544-.271 3.639-2.546 5.044-.947-.987,1.128-2.618,1.016-3.783,1.577-1.911.92-2.8,3.256-3.784,5.676 1.362-.122 2.538-1.715 3.784-.946-1.003,2.027-4.972,1.903-5.676,5.045 .98.575 2.692-2.236 4.415-.947-1.444,1.5-3.991,1.895-5.36,3.469-.233,1.657-.861,2.922-1.261,4.413 .793.486 2.459-2.246 4.099-.945 .08,1.446-1.977.755-2.522,1.577-.958.722-1.83,1.533-2.837,2.207-.593.984-.804,2.35-2.207,2.522 .017-4.443-.137-11.664 3.468-13.557 1.583-6.931 5.125-11.902 8.198-17.342 1.131-.972 2.709-1.495 2.838-3.468 .659.134.834-.217 1.261-.315 4.49-5.185 12.463-10.688 21.125-7.883 .329.932 1.596.926 1.261,2.522 2.809-1.258 5.206-2.633 9.774-2.207 6.758.628 13.231,6.008 12.612,11.351-.372,3.204-4.681,5.494-8.513,4.099-1.208-.44-1.707-2.306-3.154-2.522-2.922-.439-4.593,2.78-6.937,4.414-1.388.967-3.391,2.808-5.675,3.469-2.004,2.831-2.688,6.981-3.784,10.721-2.459,3.006-2.859,8.071-5.675,10.719-1.05,2.29-2.189,5.898-5.36,5.046 .378-2.77 2.749-4.779 3.783-6.937 .424-.883.203-1.777.631-2.838 1.611-3.994 3.849-7.563 5.045-11.666 .63-2.166.624-4.929 1.892-6.622 .654-.873 2.58-1.442 4.099-2.522 1.12-.796 2.422-1.897 3.784-2.838 1.824-1.26 3.625-2.29 5.042-4.727z" fill-rule="evenodd"/>
 <path d="m62.195,14.947h-.945c-1.555-2.018-4.247-2.901-6.622-4.099 2.545-3.964 8.893-.211 7.567,4.099z" fill-rule="evenodd"/>
 <path d="m48.637,28.19c-2.27-.147-3.718-1.118-5.675-1.577-1.545.451-2.208,1.787-3.784,2.207-2.412-4.305 9.912-6.977 9.459-.63z" fill-rule="evenodd"/>
 <path d="m44.854,42.379c-2.36.396-4.234-1.459-6.622-1.577-1.721-.085-4.615,1.834-5.36-.63 1.392-.081 2.117-.826 2.838-1.577 1.939.153 3.012-.561 5.044-.315 1.273,1.46 4.327,1.139 4.1,4.099z" fill-rule="evenodd"/>
 <path d="m27.512,38.595c.514-.055.637,2.063-.315,1.577-.101-.731.05-1.211.315-1.577z" fill-rule="evenodd"/>
 <path d="m161.201,43.01c-2.726,1.085-4.344-1.211-5.991-2.208-1.722.04-3.362,0-4.414-.63 .177-2.181 5.505-2.16 7.567-1.577 2.189.62 2.974,2.56 2.838,4.415z" fill-rule="evenodd"/>
 <path d="m237.189,41.118c3.683,1.202 1.283,5.905.946,9.144-4.394.271-.665-6.002-.946-9.144z" fill-rule="evenodd"/>
 <path d="m153.633,43.64c-1.403,2.949-5.093,1.861-7.882,2.207-5.641.701-10.768,4.095-15.45,6.307-.764.497-1.395,1.128-1.892,1.891-2.641,1.27-5.112,2.734-7.567,4.415-3.328,2.277-6.572,6.638-11.666,7.567 1.18-2.801 4.018-4.266 6.306-5.99 2.268-1.71 4.288-4.088 6.937-5.36 .426-.311.63-.842.946-1.261 3.162-1.239 5.671-4.44 9.144-6.307 1.421-.764 3.41-1.223 5.045-1.891 3.286-1.343 6.501-2.703 10.72-2.838 1.657-.054 4.153-.716 5.359,1.26z" fill-rule="evenodd"/>
 <path d="m243.18,43.01c1.819,2.622-.995,5.321-1.892,7.251-3.265-.721.443-5.353.946-7.251h.946z" fill-rule="evenodd"/>
 <path d="m22.782,43.324c1.132.13 1.813.711 2.208,1.577-.421.946-1.603,1.13-2.208,1.893-.25,1.011-.262,2.259-1.892,1.891-.221-2.638 2.422-2.413 1.892-5.361z" fill-rule="evenodd"/>
 <path d="m30.98,45.532c4.796.839 8.959,5.456 6.622,11.351-1.529-.047-1.239-1.914-1.261-3.468-2.184,2.013.069,5.692.315,8.513 .762,8.738-1.078,15.295-4.729,19.864-1.312,1.642-3.034,3.697-5.36,2.522 .314-2.114 2.372-3.379 3.468-5.36 2.846-5.141 4.045-17.825 1.261-24.594-1.022-2.486-3.172-3.868-4.414-5.676-1.562-.17-2.952,1.073-4.099.315-.178-3.343 3.891-1.291 5.991-1.577 .97-.131.132-.645.631-.945 .611-.367 1.762.663 1.577,0-.002-.315-.002-.629-.002-.945zm.63,3.784c.07-.247.265-.367.631-.316 .288-1.338-.515-1.587-1.261-1.892 .054.893-.272,2.163.63,2.208zm.947,1.577c.246.069.366.263.315.63 1.314-.052 1.1-1.632 1.892-2.207-.626-.004-.401-.861-1.261-.631 .331,1.383-1.067,1.035-.946,2.208zm1.261,1.261c-.089.824.115,1.356.946,1.261 .013-.798 1.548-2.825.63-2.522-.059.886-.548,1.343-1.576,1.261z" fill-rule="evenodd"/>
 <path d="m243.81,47.739h.947c.573,3.376-1.046,6.865-3.153,8.828-1.262,1.175-3.388,2.457-5.045,2.208 .052-.367-.069-.562-.315-.631 .857-2.548 3.645-3.368 5.045-5.36 .981-1.396 1.357-3.486 2.521-5.045z" fill-rule="evenodd"/>
 <path d="m28.142,73.594c-2.345.454-2.006-1.776-3.468-2.207 .378,2.354 1.499,3.967 1.261,6.937-1.034-.021-2.339.052-3.154-.315-2.787-1.256-5.754-9.865-5.359-14.188 .333-3.663 1.912-4.944 4.729-6.306 .082-.04.716-.631.63-.631 .307,0 2.355,1.12 2.523,1.261 1.619,1.366 2.733,5.959 3.153,10.405 .221,2.337 1.085,3.444-.315,5.044z" fill-rule="evenodd"/>
 <path d="m56.52,66.658c-1.479.208-1.947,4.144-5.044,3.784 1.43-3.405 4.815-4.855 5.991-8.514-1.5.292-2.741,3.562-5.36,3.783 .413-2.423 2.65-3.025 4.099-4.414 .376-.885.512-2.01 1.892-1.892-.906,1.704 1.161,5.041-1.261,6.306 2.233,1.051-.08,3.833-1.261,4.415 .071.455.941.11.945.63 .243,2.499-1.544,3.175-2.838,4.415-.758.728-.83,2.508-2.207,1.893 .233-3.025 2.861-3.655 3.783-5.992-1.211-.675-1.094,2.682-3.153,2.208 .159-3.52 3.618-3.74 4.414-6.622z" fill-rule="evenodd"/>
 <path d="m194.308,60.667c-.49,1.178-2.576.086-4.413.315-2.266.282-3.528,1.636-5.045,2.207-.847-1.991 1.329-2.698 3.468-3.152 1.863-.397 5.102-.937 5.99.63z" fill-rule="evenodd"/>
 <path d="m178.858,67.919c-.264-1.853 1.952-2.852 3.469-3.469 1.367-.557 3.962-1.66 5.045-.314-.219,1.274-1.344.505-1.893.63-1.848.42-3.225,1.158-4.73,2.207-.644.449-.805,1.421-1.891.946z" fill-rule="evenodd"/>
 <path d="m106.022,69.81c-2.395.337-4.046-1.936-5.991-2.838-2.139-.99-5.843.273-9.144.631-.792-2.352 1.605-1.754 3.153-2.207 3.985-1.168 9.833-2.248 12.612,1.261 .053,1.313.11,2.632-.63,3.153z" fill-rule="evenodd"/>
 <path d="m91.203,70.441c-2.405,1.779-5.521-.353-6.937-1.577-7.149-1.641-13.849.831-21.125.315 1.918-2.076 7.064-.924 9.144-2.838 4.674.201 13.079-1.333 17.657.63 .237,1.342 1.474,1.682 1.261,3.47z" fill-rule="evenodd"/>
 <path d="m182.327,67.919c-.303,1.438-2.72,1.325-3.785,2.207-.738.612-.598,1.605-1.575,1.893 .183,1.022-.216,1.466-.315,2.207-1.416.048-1.316-1.417-1.263-2.838 1.456-1.806 4.141-4.055 6.938-3.469z" fill-rule="evenodd"/>
 <path d="m179.804,73.909c-.291.865-.994,1.318-1.893,1.577-.729,1.058-.683,2.891-1.575,3.784-2.666-1.857.993-6.608 3.468-5.361z" fill-rule="evenodd"/>
 <path d="m66.609,73.909c3.017,1.502 3.231,5.808 7.883,5.676-.284,2.336-3.212.721-4.729.63-.795-2.184-4.066-3.452-3.154-6.306z" fill-rule="evenodd"/>
 <path d="m72.601,74.855h.63c1.784,1.055 3.471,2.205 4.729,3.783 1.286-.129 1.989.323 1.893,1.577-.237,1.479-1.772,1.346-2.523,1.261-2.033-.228-4.592-4.484-4.729-6.621z" fill-rule="evenodd"/>
 <path d="m79.222,75.486h.631c1.328.143 1.512,1.431 2.207,2.207 1.738,1.415 5.077,1.23 5.045,4.415-4.159-.678-7.969-1.702-7.883-6.622z" fill-rule="evenodd"/>
 <path d="m87.104,76.116h.946c2.125,2.079 5.649,2.76 6.937,5.676-4.244-.117-8.074-2.157-7.883-5.676z" fill-rule="evenodd"/>
 <path d="m95.302,76.747c3.592-.438 3.329,2.978 6.622,2.838 .404.415.404,1.163 0,1.577 3.458.304 4.556-1.75 8.197-1.261 .059,3.946-4.567,3.208-6.937,4.729 2.435.508 4.097,1.789 5.36,3.468 1.069.508 3.142.012 3.153,1.577-1.291,2.172-4.464.19-6.306,0-.419-1.788-2.332-2.082-3.468-3.153-.334-1.174.664-1.018.946-1.576-8.259.482-18.921.973-26.801-.631-1.838-.375-4.661-.858-5.36-2.838 2.634-.893 5.228.592 8.198.947 7.139.852 15.099.027 21.756-.947-2.107-1.257-4.787-1.939-5.36-4.73z" fill-rule="evenodd"/>
 <path d="m44.223,77.063c.22,1.587-.655,2.078-2.208,1.891-1.967,1.171-4.713,2.94-6.937,2.838 .757-2.921 5.25-2.107 6.622-4.415 1.189.243 1.508-.383 2.523-.314z" fill-rule="evenodd"/>
 <path d="m57.466,78.008c.366-.051.561.069.63.315-.252,2.06-1.368,3.256-2.207,4.729-1.852-1.621.833-3.938 1.577-5.044z" fill-rule="evenodd"/>
 <path d="m106.968,79.27c-.344,1.014-4.15,1.056-4.099-.315 1.101-.71 3.238-.215 4.099.315z" fill-rule="evenodd"/>
 <path d="m44.223,80.215c.301,1.524-.991.935-1.577,1.261-3.809,2.124-7.338,4.678-10.405,7.568-.1,1.267-.57,2.163-1.577,2.522-.792-2.633 1.685-4.584 3.153-5.992-.385-.455-1.203-.479-1.577-.945 .806-.456.885-1.637 2.522-1.261 .133.658-.216.835-.315,1.261 3.588-.933 6.176-4.544 9.776-4.414z" fill-rule="evenodd"/>
 <path d="m178.227,79.901c-.854,1.872.064,3.938.315,5.674-2.266-.139-3.448-5.559-.315-5.674z" fill-rule="evenodd"/>
 <path d="m59.988,81.162c-.134,1.547-.552,2.81-1.577,3.468-1.547-.837-.299-3.988 1.577-3.468z" fill-rule="evenodd"/>
 <path d="m61.564,82.423c.624,1.563-.232,4.108-1.576,4.729-.627-1.568-.347-4.688 1.576-4.729z" fill-rule="evenodd"/>
 <path d="m30.034,96.611c1.971-2.233 4.234-4.175 7.252-5.36 .089,1.455-1.033,1.698-1.892,2.207-1.875,1.89-4.691,3.987-6.306,6.622-.762,1.242-.594,3.514-2.522,3.783-.391-2.294 2.059-4.361.63-5.674 3.255-6.31 7.897-11.231 14.504-14.19-.502,2.652-3.802,2.504-5.045,4.415-.125.755 1.437-.175.946.945-3.395,1.545-5.77,4.109-7.567,7.252z" fill-rule="evenodd"/>
 <path d="m62.511,84.945h1.261c-.019,1.768-.037,3.536-1.892,3.468-.225-1.591.431-2.301.631-3.468z" fill-rule="evenodd"/>
 <path d="m179.489,85.26c.508-.088.541.299.945.315-.537,2.746.854,3.559 1.262,5.36-2.774.317-3.07-4.358-2.207-5.675z" fill-rule="evenodd"/>
 <path d="m145.436,90.306h.946c1.225,2.453 3.982,3.375 4.729,6.306-2.035-.28-4.736-3.553-5.675-6.306z" fill-rule="evenodd"/>
 <path d="m40.439,90.62c-.312,1.895-1.368,3.047-3.154,3.469-.299-1.487 1.079-3.375 3.154-3.469z" fill-rule="evenodd"/>
 <path d="m150.48,93.143c3.414.686 3.07,5.128 6.306,5.991 .83-.516-1.849-1.233-.63-2.207 2.711.967 4.33,3.026 5.99,5.045-2.434.121-3.382-1.242-4.413-2.522-.454.07-.109.94-.63.945-4.081-.545-5.376-3.874-6.623-7.252z" fill-rule="evenodd"/>
 <path d="m107.599,95.035c1.314.579 2.784,1 3.469,2.207-1.699-.193-3.649-.135-3.469-2.207z" fill-rule="evenodd"/>
 <path d="m58.727,97.557h1.892c-.305.747-.553,1.55-1.892,1.261v-1.261z" fill-rule="evenodd"/>
 <path d="m33.818,98.502c.087,1.349-.916,1.608-1.577,2.208-.62,2.591-4.153,5.081-2.838,7.567 1.67-1.589 1.644-4.873 5.045-4.729-1.677,2.317-3.463,4.525-4.415,7.567-.097.953.351,2.451-.63,2.522-2.114-.516.365-4.073-.631-5.36-1.148-.203-.389,1.502-1.261,1.576-1.163-.07-.653-1.632-.631-1.892 .315-3.674 4.263-6.669 5.676-9.46l1.262.001z" fill-rule="evenodd"/>
 <path d="m162.146,99.134c.511-.088.545.298.947.316 .279.665.96.931.945,1.891 1.283,1.765 3.922,2.174 4.73,4.415-3.692-.303-5.021-2.968-6.623-5.36 .001-.422.001-.841.001-1.262z" fill-rule="evenodd"/>
 <path d="m61.88,100.71c-.163,1.204-2.318.415-3.153.945-1.004.153-1.32.993-2.522.946-.246-.918.417-1.773 1.261-2.207 1.066-.548 3.978-.702 4.414.316z" fill-rule="evenodd"/>
 <path d="m168.138,102.917c4.136-.299 3.805,6.697 7.883,4.415 .886-.047.909.771.946,1.575 .859,1.031 3.116.667 3.152,2.523-2.752.708-3.52-3.174-7.253-2.523-1.094-.797-2.024-1.758-2.522-3.152-.555-1.125-2.053-1.308-2.206-2.838z" fill-rule="evenodd"/>
 <path d="m63.457,110.485c-2.617-1.774.619-5.041.631-7.252h.945c.905,2.642-.508,5.548-1.576,7.252z" fill-rule="evenodd"/>
 <path d="m59.672,103.548c.637,1.736-1.16,1.35-1.892,1.892-1.414,1.047-2.427,3.052-4.414,3.468-.139-4.028 3.114-4.664 6.306-5.36z" fill-rule="evenodd"/>
 <path d="m189.579,106.071c-1.041,1.663-3.878,1.088-5.677.63-1.55-.394-3.094-1.733-4.099-1.891 1.216-1.467 4.113.664 5.99.945 1.356.203 2.561-.408 3.786.316z" fill-rule="evenodd"/>
 <path d="m56.835,107.962c.733,2.419-1.584,4.508-1.577,7.252-.626-.004-.401-.86-1.261-.631-.291-3.444 1.541-4.764 2.838-6.621z" fill-rule="evenodd"/>
 <path d="m58.727,112.061c-.332,2.402-.967,4.5-1.892,6.306-2.131-1.118-.001-5.213.945-6.306h.947z" fill-rule="evenodd"/>
 <path d="m84.267,114.268c2.104.419 2.878,2.167 5.991,1.576 1.346-.23 1.375-1.777 3.468-1.261 .597,4.268-7.93,5.821-10.089,2.207-.184-1.233.27-1.83.63-2.522z" fill-rule="evenodd"/>
 <path d="m60.303,116.161c-.423,2.835-1.76,4.756-2.522,7.251-1.421-2.368-.335-7.12 2.522-7.251z" fill-rule="evenodd"/>
 <path d="m91.519,120.575c-.747-1.301 1.032-1.35 2.207-2.208 1.815-1.326 3.617-3.771 5.676-.945-.074,1.315-1.118-.143-1.892.63-1.559,1.28-3.409,2.268-5.991,2.523z" fill-rule="evenodd"/>
 <path d="m50.529,116.476h1.261c.121,2.642-.816,4.229-2.207,5.36 .827.29.827,1.6 0,1.891-.713-.127.167-1.848-1.261-1.261 .05-2.682 2.019-3.446 2.207-5.99z" fill-rule="evenodd"/>
 <path d="m53.997,118.682c-.589,3.512-2.619,7.258-5.044,7.883-.969-1.276.983-1.813 1.576-2.522 .172-2.245 1.775-3.06 1.892-5.36l1.576-.001z" fill-rule="evenodd"/>
 <path d="m104.131,123.727c-2.936.117-7.548-.586-8.829-3.152-.089-.509.298-.542.315-.946 2.873.099 8.257.34 8.514,4.098z" fill-rule="evenodd"/>
 <path d="m61.25,120.259c.432,2.008-1.181,1.974-.946,3.783 1.402-.806 1.001-3.412 3.468-3.153-.51,2.329-1.883,3.793-2.838,5.676 .128,1.389.085,2.607-1.576,2.207-.438-1.84 1.093-3.729-.63-4.1 .278-2.031.251-4.372 2.522-4.413z" fill-rule="evenodd"/>
 <path d="m71.339,120.259h.945c.342,3.284-1.704,4.182-2.522,6.306-.838-.002-1.801.119-2.208-.315-.048-.993 1.278-.613 1.577-1.261 .409-1.905 1.705-2.92 2.208-4.73z" fill-rule="evenodd"/>
 <path d="m55.574,121.836c.518,1.853-1.518,3.684-2.838,4.729-.668,1.496-1.664,4.138-3.784,3.154 1.984-2.535 3.962-5.077 5.675-7.883h.947z" fill-rule="evenodd"/>
 <path d="m72.285,124.042c.51-.088.543.298.946.316-.489,2.736-2.613,6.957-5.36,5.36 1.646-1.716 3.415-3.31 4.414-5.676z" fill-rule="evenodd"/>
 <path d="m17.422,124.672c3.227.138 4.03,2.697 6.306,3.785 .088.51-.298.543-.315.945-2.142-1.431-4.621-2.525-5.991-4.73z" fill-rule="evenodd"/>
 <path d="m63.457,125.304c.509-.089.543.298.946.315-1.175,2.084-1.247,5.27-4.099,5.675 .402-2.645 2.003-4.092 3.153-5.99z" fill-rule="evenodd"/>
 <path d="m106.65 133.19c-4.392-1.18-9.474-1.667-9.774-6.938 2.203-2.475 4.794 1.039 5.675 2.838 2.027 0.618 4.66 1.9 4.099 4.1z" fill-rule="evenodd"/>
 <path d="m55.574,125.934c.366-.05.561.07.63.315 .274,3.241-1.811,4.176-3.784,5.991-1.822,1.676-1.996,2.902-5.044,3.152 .527-2.94 4.21-2.726 5.044-5.36 .566.04.666-.385 1.261-.313 .495-1.398 1.415-2.37 1.893-3.785z" fill-rule="evenodd"/>
 <path d="m73.231,127.827h1.261c.09,1.882-.726,3.34-1.892,4.414-1.269,1.169-4.188,3.483-5.045,1.892 1.978-2.016 5.012-2.976 5.676-6.306z" fill-rule="evenodd"/>
 <path d="m23.413,130.98c-.487.757-2.231.776-1.892-.947-2.233,1.655-4.652,3.126-5.675,5.992 .117,1.039.737,1.575 1.261,2.206-.561,1.017-2.113,1.041-3.783.946-2.322,1.146-5.689,1.248-7.252,3.153-.082.924.713.969.631,1.893-1.006.186-.975-.593-1.577,0-.134,2.655 1.063,3.98 2.522,5.044 1.029-2.231 4.395-3.801 6.937-3.469 .487,1.337-.792.707-1.261.947-1.45.741-2.633,1.883-4.099,2.521 .001,1.053-1.026,1.077-.946,2.207h-2.523c-1.162-.006-.398,1.914-1.892,1.577 .454.912 1.489,1.243 2.522,1.576 1.729-1.846 3.539-3.608 6.622-4.099-1.162,2.831-4.733,3.255-6.306,5.675 .128.607 1.222.25.945,1.261 1.58-.731 2.462-2.162 4.73-2.207-.482,3.197-5.184,2.174-4.414,6.622-2.187-.65-3.612-2.063-5.36-3.152-.221,2.851 1.707,6.278 5.36,6.306 1.364-2.104 2.167-4.771 5.044-5.36-.53,1.886-1.751,3.083-2.837,4.414-.198,1.168-.219,2.513-1.261,2.838-1.284-.714-2.915-1.079-4.73-1.262-2.362-2.278-5.471-6.764-3.468-11.351-.097-.954-.976-1.126-.631-2.522 .388-.137.647-.404.631-.945 1.641.684 2.298-.082 3.468-.631-1.243-2.417-1.5-5.463-.315-8.198-.604-.452-2.212-.849-1.261-1.892 .831-.095 1.035.437.946,1.262 2.958-1.789 6.838-4.281 10.405-4.415-.089-5.135 3.653-6.437 6.937-8.198 1.078.498 2.243.909 2.522,2.208zm-21.125,26.17c1.66.757 2.54,2.294 4.414,2.838-.208-1.153.683-1.21.63-2.208-2.102-.631-3.176-2.288-4.729-3.468-.013,1.038-.533,1.569-.315,2.838z" fill-rule="evenodd"/>
 <path d="m62.826,130.665c.985-.146 1.008.674.946,1.576 .456-.386.478-1.203.946-1.576 1.186.93.035,4.462.315,5.676-1.607-.181-.925-2.648-2.838-2.523-.052-1.314-.109-2.633.631-3.153z" fill-rule="evenodd"/>
 <path d="m101.924,138.547c-.281.14-.564.276-.631.63-3.437-.768-4.289-4.119-6.306-6.306 1.99-4.851 6.259,3.033 6.937,5.676z" fill-rule="evenodd"/>
 <path d="m296.466,136.655c1.06,1.148 1.447,2.968 1.262,5.36 6.399,1.588 12.973,3.002 16.712,7.252-.098,2.215.435,5.06-.947,5.99 1.429,1.505 3.22,1.102 4.73,2.207 3.074,2.253 4.167,7.686 3.783,11.668-.434,4.496-3.036,6.54-6.621,8.828-1.463.933-2.563,2.323-5.045,2.521-1.805,2.505-5.089,3.528-9.459,3.469-2.146.798-5.333,1.729-6.306-.63 5.681-.113 9.197-.458 13.559-1.893-.608-.46-3.102-.662-1.893-1.892 .016-1.305 1.893.215 3.153-.315 5.827-1.852 13.623-7.77 9.458-17.342-1.202-2.765-4.183-4.211-8.828-3.783-.83.095-1.034-.437-.945-1.262-2.039.876-4.812,2.916-7.883,3.468-1.219.22-3.268.96-3.783-.63 4.499-1.177 9.482-1.868 11.981-5.045 .97-.234.605.865 1.575.63 1.742-.422 1.98-3.82 1.262-5.676-3.862-2.653-7.797-5.234-14.504-5.044-.761,1.131-1.787,1.996-2.522,3.153-2.701-.029-3.863,3.014-6.306,2.207 .499-3.074 4.698-2.449 6.306-4.414-.561-.595-2.079-.233-1.892-1.576 .473-.685.415-1.898 1.892-1.577 .178-1.495.654-3.104-.314-4.1-8.664.587-15.898,2.601-21.441,6.307-1.468,2.106-2.913,4.233-5.676,5.044-.941-1.979 1.946-2.61 2.838-3.783 .041-1.689.723-3.533 0-5.045-2.604.521-5.004,1.99-6.937,3.47-1.888,1.443-4.157,3.085-5.675,4.729-1.463,1.582-1.796,4.304-4.1,5.045-.256-2.043.91-2.663 1.262-4.099 .997-1.646 4.017-4.23 5.99-5.99 1.696-1.513 2.781-2.487 5.044-3.784 1.98-1.134 6.925-3.608 6.938,1.262 6.567-2.602 14.359-5.576 23.332-4.73z" fill-rule="evenodd"/>
 <path d="m194.308,140.438c.283,2.915-4.306,2.625-6.306,2.208 .247-1.75 2.976-1.02 4.73-1.261 .288-.553.585-1.095 1.576-.947z" fill-rule="evenodd"/>
 <path d="m287.638,140.753h.945c-.045,3.343-3.169,6.272-7.251,6.622v-1.577c3.07-.713 5.439-2.126 6.306-5.045z" fill-rule="evenodd"/>
 <path d="m278.81,145.168c1.831-.902 2.073-3.393 4.414-3.783-.988,3.004-2.661,5.325-5.99,5.99-.893-.984 1.061-1.036 1.261-1.892-2.037.126-2.793,3.008-5.045,1.892 .984-1.958 2.938-2.947 5.045-3.784 1.321-.115.224,1.029.315,1.577z" fill-rule="evenodd"/>
 <path d="m15.845,142.015c.192,1.559-1.28,1.453-2.522,1.576-1.504.363-2.428,2.718-4.099,1.893 .223-2.941 4.91-4.028 6.621-3.469z" fill-rule="evenodd"/>
 <path d="m292.998,142.646c.254,1.41-.561,1.751-1.577,1.892-.961,1.354-4.273,4.679-5.674,2.521 .042-.957 1.063-.699 1.575-.945 1.39-.666 2.441-1.807 3.783-2.522-.36-.991.495-.766.632-1.261 .659-.134.835.215 1.261.315z" fill-rule="evenodd"/>
 <path d="m267.144,143.591c-.576,1.877-2.665,2.621-3.783,4.1-.732.966-.813,3.465-2.838,3.153 .237-4.072 3.457-5.161 5.36-7.568 .658-.133.834.217 1.261.315z" fill-rule="evenodd"/>
 <path d="m269.981,143.591c-.044,1.533-.93,2.224-1.893,2.838-.729,1.161-.813,2.971-2.838,2.838 .118-3.141 2.566-3.95 3.784-5.991 .51-.088.543.299.947.315z" fill-rule="evenodd"/>
 <path d="m301.826,147.059c-.523.987-1.504,1.926-2.522,2.522-1.977,1.161-4.798,1.479-6.306,3.154-.398-.547-1.066-.827-.945-1.892 2.821-1.277 6.601-1.598 8.198-4.099 .729-.1 1.21.051 1.575.315z" fill-rule="evenodd"/>
 <path d="m307.187,148.636c.253,1.514-1.214,1.309-1.891,1.893-2.132,2.093-6.577,3.487-9.775,3.468 .435-1.864 3.609-1.831 5.36-2.522 1.911-.754 3.668-1.742 5.045-2.838l1.261-.001z" fill-rule="evenodd"/>
 <path d="m39.493,174.493c-.161,10.334-13.497,7.389-20.495,10.089-1.026-1.181-2.423-1.991-3.783-2.838-2.165.163-3.54,1.212-5.675.945-3.696-.459-7.907-5.405-6.307-10.089 .59-1.728 2.586-4.154 4.414-4.729 .021,3.009-3.192,4.382-2.837,7.567 .142,1.277 2.593,4.916 4.099,5.36 3.074.907 5.349-1.111 8.197-1.893v2.207c2.345.358 6.16,1.542 9.774.631 .893-.741-1.598-1.97-.63-2.838 3.916,2.5 9.16.59 10.405-3.152-1.028-1.338-3.203-3.03-2.837-4.73 1.124.474 3.383-.289 5.045,1.261 1.093.126 1.935-.941 2.838-1.576 .108-.076.82-.192.945-.314 3.908-3.804 4.663-13.608 1.261-16.712-1.915-1.746-5.148.859-7.252-.314 1.236-3.002 7.04-2.483 8.829-1.261 1.805,1.231 2.929,4.974 2.838,8.196-.179,6.316-4.446,13.397-8.829,14.19z" fill-rule="evenodd"/>
 <path d="m308.448,151.79c-.653,2.668-4.805,3.253-7.567,4.1-1.324.405-3.655,2.449-4.415.314 .188-1.073 1.84-.683 2.838-.946 2.854-1.139 6.401-1.587 8.198-3.783 .51-.09.543.297.946.315z" fill-rule="evenodd"/>
 <path d="m245.702,156.834c.497.765 1.177,1.346.946,2.838 4.454-2.317 12.817-3.32 11.666,4.729 4.053,1.086 7.795,2.578 8.198,7.252 .385,4.448-1.998,9.623-5.36,11.351-.405-.435-1.369-.312-2.207-.315-1.819.657-5.8,2.507-6.621-.314 1.187-.077 3.293.571 5.044-.315 1.214-.175-.242-1.219.632-1.893 1.015-.069 1.334.559 2.522.315 2.675-1.475 4.543-5.939 3.783-9.459-.745-3.45-4.574-4.248-8.514-4.413-1.879.748-2.468,2.786-5.36,2.522-.267-2.267 3.078-.918 2.523-3.47-.815-.241-4.51,3.541-5.676.947 .859-1.137 3.271-.724 4.413-1.577 1.112-.255.809-1.925 2.208-1.893 .261.892-.445.817-.315,1.577 .7-.245 1.229-.662 2.207-.631 1.48-8.006-11.189-1.727-11.982.946-3.464-.417-2.504,3.59-5.044,4.1-.544-4.454 4.91-5.587 5.36-10.091-7.211-.482-11.057,5.128-16.396,7.568-1.068.508-1.811,2.667-3.153,1.891-.122-1.758 2.825-3.016 4.414-4.099 4.366-3.533 9.258-8.164 16.712-7.566z" fill-rule="evenodd"/>
 <path d="m313.178,159.042c.183,1.399-1.882,1.898-3.153,2.522-1.201.59-2.647,1.547-3.783,1.892-2.184.665-5.463,1.199-6.938,0 .265-1.233 1.932-.506 2.838-.631 1.268-.173 2.62-.768 3.784-.63 1.832-1.53 4.803-1.923 6.621-3.468 .367-.052.561.069.631.315z" fill-rule="evenodd"/>
 <path d="m276.917,159.672c.605.866 1.206,1.737 1.262,3.152 4.299-.303 7.958,1.71 6.621,5.991 .571.796 1.631,1.102 2.208,1.892 .618,9.447-2.896,14.762-12.612,13.874 .489-1.121-1.072-.189-.946-.945 1.112-1.929 3.563-.673 5.045-.947 4.466-.826 7.9-5.813 6.306-11.351-1.329.248-3.269,1.209-4.729.315v-1.892c.509-.542 1.318-.783 2.521-.63 1.836-5.264-5.448-3.013-8.514-3.785-.577-2.154 1.125-2.027 1.893-2.837-1.346-2.172-5.329.081-6.937.945-1.2.646-2.047,1.836-3.152,1.892-1.079-1.36.307-2.125 1.261-2.837 1.667-1.242 6.174-3.835 9.773-2.837z" fill-rule="evenodd"/>
 <path d="m242.234,160.618c-1.193,1.75-2.802,3.085-4.415,4.415-.234.97.866.605.631,1.577h-1.892c-.265-.367-.416-.846-.315-1.577-3.223.771-3.868,4.118-6.936,5.045-.85-1.325.92-2.326 1.26-3.468 2.394-.551 3.618-2.269 5.36-3.47 .892-.26.817.445 1.578.315 1.331-1.119 2.736-3.375 4.729-2.837z" fill-rule="evenodd"/>
 <path d="m251.692,160.934c.51-.089.544.297.947.315-.352,3.014-4.257,4.146-6.938,3.783 .194-1.57 2.35-1.095 3.468-1.577 1.091-.468 2.348-1.102 2.523-2.521z" fill-rule="evenodd"/>
 <path d="m315.385,161.564c.367-.051.561.07.632.315 .005,2.459-3.314,3.431-5.992,4.414-2.36.868-5.505,2.395-7.566,2.522-.861.055-2.51.636-2.838-.945 .582-1.425 2.049-.442 3.153-.631 4.556-.781 10.142-2.632 12.611-5.675z" fill-rule="evenodd"/>
 <path d="m14.269,163.772c.238,1.498-.795,1.727-1.261,2.521-.935,2.428-1.175,5.552-3.468,6.622 .394-2.993 1.091-8.349 4.729-9.143z" fill-rule="evenodd"/>
 <path d="m17.106,165.978c-.218,3.145-2.825,3.901-2.522,7.567 .367.58 1.673.22 1.261,1.577-6.068-.423-1.383-8.071 1.261-9.144z" fill-rule="evenodd"/>
 <path d="m316.646,166.924c-.503,2.2-3.523,2.518-5.677,3.153-3.718,1.096-7.84,2.541-12.611,1.891 1.023-1.948 3.542-1.011 5.36-1.261 4.489-.616 9.278-1.986 11.981-4.098 .511-.089.544.298.947.315z" fill-rule="evenodd"/>
 <path d="m20.259,167.871c.367-.051.562.069.631.314 .129,2.481-1.818,5.511-1.892,8.829-3.998-.692.419-7.402 1.261-9.143z" fill-rule="evenodd"/>
 <path d="m259.891,168.5c-.349,1.716-5.156,2.933-6.936,1.577 1.848-.989 4.567-1.107 6.936-1.577z" fill-rule="evenodd"/>
 <path d="m278.494,169.446c.009,1.393-1.757.737-2.838.947-2.163.42-4.928,1.787-7.251.314 .894-1.054 3.997-2.061 6.621-2.207 1.145-.062 3.439-.5 3.468.946z" fill-rule="evenodd"/>
 <path d="m24.989,170.078c-.001,2.417-1.703,3.13-1.261,5.99 .045,1.111 1.183,1.129 1.892,1.576-.354,2.073-3.013.413-3.468-.315-.06-3.422-.092-6.818 2.837-7.251z" fill-rule="evenodd"/>
 <path d="m260.838,170.393c.032,1.423-2.061,1.592-3.153,1.891-1.189.326-2.534.955-3.784.316 .544-2.399 5.476-.409 6.306-2.522 .366-.052.561.069.631.315z" fill-rule="evenodd"/>
 <path d="m278.494,171.023c-.476,2.784-5.447,2.747-8.198,2.207-.212-1.828 1.95-1.046 2.838-1.262 1.639-.394 3.638-1.202 5.36-.945z" fill-rule="evenodd"/>
 <path d="m315.385,171.338c-.557,2.774-4.481,3.578-7.883,4.415-2.41.592-3.631.631-5.99.63-1.451,0-4.118,1.24-4.73-.63 2.016-.978 4.306-.054 6.622-.315 1.93-.219 5.912-1.119 7.883-1.893 1.34-.526 2.243-1.685 3.468-2.207h.63z" fill-rule="evenodd"/>
 <path d="m28.458,173.23c1.961.456.77,4.064 3.784,3.469-1.583,3.23-5.552-.516-3.784-3.469z" fill-rule="evenodd"/>
 <path d="m185.164,173.545c-.261,1.422-2.534.829-4.1.947v-.947c.806-.496 3.295-.496 4.1,0z" fill-rule="evenodd"/>
 <path d="m261.468,173.545c-1.51,1.464-5.993,4.133-8.513,2.838 .079-1.657 1.63-.692 2.522-.945 2.07-.589 4.13-2.505 5.991-1.893z" fill-rule="evenodd"/>
 <path d="m229.938,175.438c-3.948-.306-6.532,2.2-9.46,1.891 1.368-3.256 6.038-3.211 10.09-3.783 .859.508 1.86.872 1.893,2.208 1.984.013 3.157.837 4.414,1.575 .224,1.695-.249,2.694-.631,3.784 .637,1.444 2.448,1.69 2.838,3.469 .597,2.712-1.248,4.908-2.522,6.621-2.88,1.692-9.017,1.938-9.773-1.892 2.191.523 4.197,1.771 6.62,1.261 4.454-.937 5.762-9.056-.63-7.251-.548-2.861 1.954-2.672 2.206-4.73-1.486-1.23-7.518.1-5.045-3.153z" fill-rule="evenodd"/>
 <path d="m27.196,173.861c.101.731-.05,1.211-.315,1.577-.987.146-1.407-.274-1.261-1.262 .759.129.686-.576 1.576-.315z" fill-rule="evenodd"/>
 <path d="m185.794,186.159c.598-.627 1.49-.154 2.208,0 1.595-1.846 4.103-4.199 3.152-7.568-1.454.121-1.627,1.525-2.522,2.208-3.082-.178-7.322.806-7.883-1.893 1.725-3.215 5.176-4.705 10.405-4.413-.217.847.651.607.946.945 .033,3.546 1.096,6.002 0,9.144-1.144,1.193-4.764,4.751-6.306,1.577zm-2.523-8.515c.008.743-.543.93-.314,1.893h3.468c-.065-.907.08-1.603.632-1.893 .929,1.409 2.932-.309 3.468-1.261-2.831-1.194-4.885.958-7.254,1.261z" fill-rule="evenodd"/>
 <path d="m272.504,174.493c.941.633 2.974.177 4.413.313-.357,2.462-5.468,4.205-6.936,2.522 .143-1.643 3.346-.225 2.523-2.835z" fill-rule="evenodd"/>
 <path d="m6.071,175.753c1.06-.009 1.668.434 2.208.945 .053.789-.485.986-.946,1.262-1.121-.036-1.27-1.043-1.262-2.207z" fill-rule="evenodd"/>
 <path d="m262.099,175.753v1.261c-.807.326-1.723.943-2.208,0 .285-.871 1.202-1.11 2.208-1.261z" fill-rule="evenodd"/>
 <path d="m311.6 176.07c-0.19 1.702-2.051 1.734-3.784 1.893-0.073-1.965 2.46-1.324 3.784-1.893z" fill-rule="evenodd"/>
 <path d="m259.575,177.014c-.197,2.113-3.317,1.307-4.413,2.522-.366-.264-.846-.415-1.577-.315-.261-.892.444-.817.315-1.577 2.429.327 3.539-.665 5.675-.63z" fill-rule="evenodd"/>
 <path d="m229.623,177.329c-.001.526 0,1.053 0,1.577-6.782,2.152-14.547,3.323-21.757,5.045-.556,1.757-.934,3.69-2.207,4.729-1.923-.44-3.69.922-5.045,0-.192-2.294 3.064-1.139 4.414-1.892 1.111-.702 1.191-3.307.631-4.729-1.49-.124-2.633.102-3.784.315-.434-2.116.79-2.573 2.522-2.523-1.867-1.786-4.579.543-5.99,1.262-.239,1.396 2.062.251 1.576,1.892-1.17.644-1.846-.245-2.838-.63-.212-4.263 4.46-5.13 7.883-4.73 .826,1.487 1.647,2.977 2.207,4.73 7.995-1.15 15.021-3.267 22.388-5.046z" fill-rule="evenodd"/>
 <path d="m277.864,178.59c-.711,1.182-2.474,1.311-4.1,1.576 .052-.365-.07-.561-.315-.63 .15-1.382 4.059-2.767 4.415-.946z" fill-rule="evenodd"/>
 <path d="m304.664,177.96c.58,2.045-1.894,1.317-3.152,1.576-2.254.462-5.729,1.432-6.307,0 .126-1.346 2.643-.302 3.783-.631 1.42-.787 3.827-.587 5.676-.945z" fill-rule="evenodd"/>
 <path d="m226.47,180.798c-2.059,2.118-6.129,2.225-9.46,3.152-1.592.443-4.111,1.665-6.621.946 .367-2.167 2.984-1.296 4.413-1.576 3.867-.759 8.147-2.876 11.668-2.522z" fill-rule="evenodd"/>
 <path d="m174.129,185.211c-1.17.014-1.13-1.182-1.893-1.575-1.104-.054-.993,1.108-1.576,1.575-3.706-.396-6.226,1.545-9.459.631-.417-2.204.742-2.831 2.837-2.521 .229.859-.626.635-.63,1.261 1.152.208 1.209-.683 2.207-.631 .04-.564-.387-.665-.315-1.262 2.468-1.443 10.425-1.808 8.829,2.522z" fill-rule="evenodd"/>
 <path d="m252.324,184.582c.757.294.835,1.268 2.206.945 .186,2.199-1.57.515-3.152.945-.274-1.219.77-1.121.946-1.89z" fill-rule="evenodd"/>
 <path d="m305.926,185.842c-1.205,1.843-5.42.677-6.938,2.207-2.565-.435-5.373,1.799-7.251,0 .075-1.214 1.5-.503 2.206-.63 3.257-.586 8.611-1.962 11.983-1.577z" fill-rule="evenodd"/>
 <path d="m260.522,187.104c.34,1.576-1.133.929-1.893,1.261-2.43,1.062-4.552,2.417-8.513,2.207-.317-.629-1.395-.498-1.261-1.577 .072-.976 1.117-.982 1.891-1.261v1.577c4.276.489 6.707-2.541 9.776-2.207z" fill-rule="evenodd"/>
 <path d="m66.609,190.257c.732.107 1.478.204 1.261,1.262-.448-.027-.893-.053-.946.313-.683.055-.142-1.117-.315-1.575z" fill-rule="evenodd"/>
 <path d="m256.107,190.572c-1.256,2.274-7.306,2.91-10.089,1.577 .971-1.303 4.133-.424 6.306-.63 1.407-.135 2.373-.874 3.783-.947z" fill-rule="evenodd"/>
 <path d="m239.396,194.67c.319,1.081-2.368.752-2.522.316-.32-1.08 2.369-.75 2.522-.316z" fill-rule="evenodd"/>
 <path d="m319.168,196.877c-.954-.306-1.689-.832-2.838-.945-.039-2.262 3.605-1.246 2.838.945z" fill-rule="evenodd"/>
 <path d="m235.613,197.193c-.056.997-1.248.856-2.208.947-.156-1.018 1.637-1.699 2.208-.947z" fill-rule="evenodd"/>
 <path d="m141.652,126.25c2.09,3.827 7.119,3.337 12.612,4.1-.239.812-1.007,1.096-2.207.945 3.097,2.109 8.611.573 11.667.631-.436,2.086-5.068,2.069-7.568,1.577 1.454,2.92 7.186.954 10.09.63 .391,2.912-3.459,1.587-5.676,1.893 2.114,1.39 8.847-.813 10.721.315-.369,2.469-4.929.745-7.253,1.261 3.079,2.642 9.531-.813 12.298.63-1.274,1.846-4.232.74-6.308,1.262 3.229,1.673 8.334-.015 11.352-.63 .257,2.777-2.983,2.061-5.359,2.206 3.952,2.062 9.211-.231 12.927-1.261-.208,2.419-2.79,2.463-5.36,2.522 2.346.581 4.795,1.694 7.253,1.577 2.796-.135 4.779-2.194 7.253-2.522 .337,1.705-1.102,1.633-1.893,2.206 7.458-.004 12.192-5.463 14.504-11.666-3.374.094-6.2.736-9.775.63-.315-2.206.583-3.201 2.208-3.468-2.237-.655-3.304,2.579-5.044,3.468-1.286.024-1.161-1.362-2.208-1.575-.705.135-.127,1.554-.316,2.207-3.265.822-6.426-.27-6.937-3.154-1.354.433-1.168,2.406-2.522,2.839-4.398-1.803-9.938-2.464-13.558-5.045-4.132-.493-7.808-1.441-11.981-1.893-.378-.672-.385-1.717-1.261-1.892-1.591-.224-2.302.432-3.468.63-2.867-2.598-5.313-5.616-8.513-7.882-2.166-4.771-7.372-6.501-10.09-10.72-.733-.423-2.356.044-2.207-1.261 .305-1.451 2.845-.273 3.468,0-.693-.989-.718-2.646-.63-4.415 10.733,3.245 17.332,10.626 24.594,17.342 8.088.319 13.82,2.996 20.18,5.045-.638,2.109.866,2.076 1.577,2.838 .092,1.564-1.257,1.688-1.892,2.522 .596.561 1.272,1.039 2.522.945 .634-1.678 1.693-2.93 4.413-2.522 .857,2.086 1.497,4.39 3.784,5.045 .627-1.579 1.579-2.835 1.261-5.36 1.986-.433 2.673-2.163 4.729-2.522 .166,1.849-1.776,1.587-2.207,2.838 1.452-.124 1.778-1.375 3.784-.945 .885-1.322 2.426-1.988 3.152-3.469-1.289-.188-5.005,1.444-6.621.946-1.755,1.504-4.282,2.232-5.36,4.414-2.078.291-2.269-1.304-3.153-2.207-1.647.122-2.203,2.176-3.782.63 .441-1.869 2.101-2.523 2.837-4.098 1.864-.395 2.254.688 3.153,1.261 .371-.681.653-1.448.945-2.208 5.936.26 10.684-.667 15.134-1.891 .771,3.432-2.299,5.661-4.413,7.251 3.18,1.255 6.461-1.694 9.459-.63 .327,2.534-1.443,2.972-2.208,4.413 1.189-.247 2.672-.552 3.785,0-.316,2.752-1.812,5.346-3.153,7.568-1.922,3.186-4.11,6.587-8.514,7.252-1.373,1.76-4.498,1.098-6.937,1.576-.479.094-1.047.608-1.576.63-3.812.158-11.351-2.376-17.342-3.151-.657-.087-1.33.115-1.892,0-1.263-.261-2.042-.915-3.153-1.262-1.909-.595-4.092-.688-5.992-1.261-.461-.141-.751-.76-1.26-.947-2.076-.764-3.392-.745-5.045-1.575-2.499-1.256-6.278-3.095-8.198-5.046-1.731.684-2.786,1.241-4.414.946-2.02-.366-3.438-3.308-5.36-3.469-6.314-6.402-11.425-14.011-19.549-18.602-.004-.628-.86-.402-.63-1.262-1.113-.044-1.41-.903-2.523-.946-2.503-1.784-5.27-5.424-8.198-7.252-2.339-1.46-5.099-2.603-5.675-5.991-.268-1.569-.528-5.479 1.892-5.675 1.95.362 1.064,3.56 1.261,5.675 .687.431.738-.424 1.576-.314 .609.078 1.214,1.56 2.523.945 .217,3.461 6.128,1.229 5.99,5.045-1.998.212-2.878-.694-4.098-1.262-.122.658 1.53,2.244 3.468,1.893 .037,1.12 1.043,1.268 2.208,1.262 .646-1.246.297-3.487 1.261-4.415-.738-.627-2.615-.117-3.153-.945-1.267-4.188.987-7.362 1.892-10.405 1.726-.976 2.924-2.62 4.414-4.099 1.307-1.298 5.1-4.702 7.882-5.044 .96-.12 1.56.546 2.522.63 3.97.346 7.828-.393 11.667.315 2.774.512 5.657,1.827 8.198,2.838 .777.31 1.684.966 3.469.63-1.524-1.417-3.032-2.853-6.306-2.522 .617-2.765 4.211-.974 7.252-1.577 .247-1.404-1.691-.621-1.577-1.892-1.558,2.085-5.729-.714-7.567-.315 .745-2.403 3.596.363 5.676-.315 .685-.304-1.309-.553-.63-1.891 3.331,1.16 5.143,4.534 9.459,3.783-.716-.861-1.552-1.601-2.523-2.208-1.336-.24-3.734.582-4.099-.63 .985-1.293 4.805-.364 6.622-.945-2.186-2.23-8.992.163-11.351-1.893 1.417-2.023 6.903,1.501 7.567-1.577h3.784c.765-.889-2.084-.844-1.576-2.522 2.331.413 3.514,3.458 6.306,1.577-.108-.821-1.925-2.226-2.838-2.522-1.799-.584-4.614.43-5.676-1.261 .756-1.821 2.292.508 3.784,0 .932-.275-.731-.472-.315-1.261 1.737.785 3.332,1.713 6.306,1.261-.646-1.247-2.698-1.085-2.837-2.838 2.15.16 2.976,1.648 4.414,2.522 .426-.309.63-.841.945-1.261-.642-1.145-2.005-1.568-2.837-2.522-1.021-.136-2.728.414-2.838-.631 1.4-1.707 4.001-.27 6.62-.63-.438-1.663-2.879-1.324-2.838-3.468 1.855.668 3.414,1.63 4.101,3.468 3.937.114 5.701-2.104 8.513-3.784 1.366-.816 3.023-1.215 3.783-2.522 2.338.547 5.737-1.695 7.883.315 .221,1.692-1.727,1.216-3.153,1.261-.906.354-1.859.662-2.522,1.261-6.955.61-9.266,5.867-14.503,8.197-1.755,2.451-2.196,6.213-3.469,9.144 .156,9.429 2.737,17.69 11.981,17.027 .298,1.323-1.613,1.135-2.207,1.261-3.534.754-6.416-.778-8.514-2.207 1.434,2.876 6.4,2.218 5.99,6.937-1.913-.188-2.658-1.544-3.782-2.522-1.696-.196-2.82-.964-3.469-2.208-3.717-2.006-7.691-3.879-11.667-5.674-3.792-1.713-8.135-2.852-11.982-5.36-4.813-1.012-10.192-1.909-15.134-.945-4.347.847-6.227,4.051-8.828,5.99-.709,1.738-1.893,3.752-2.522,6.306-.225.912-1.227,2.345 0,2.838 1.059.323.491-.98.63-1.577 2.817-2.332 3.197-7.102 7.883-7.567-1.141,3.456-4.106,5.581-5.36,9.144-.453,1.287-.157,2.967-.946,4.415 3.522-1.523 7.208-2.882 12.297-2.838 1.527-.557 1.267-2.417.946-4.099 2.204-3.983 5.945-1.824 5.991,2.522 1.106-.26 1.783-.949 2.838-1.261 2.861,2.289 6.838,3.461 10.089,5.36 1.712-.136 2.56.593 3.469,1.262 7.662,1.166 11.112,6.544 18.604,7.883 2.556,1.771 5.766,4.508 10.09,3.468 .839-1.473.688-3.937.945-5.99 .558-.388 1.661-.229 1.893-.945 1.29-.137 2.02.291 2.838.63 12.396.941 18.385-4.525 22.701-11.667-2.337,1.447-4.058,3.51-5.677,5.676-3.174.606-6.504,3.537-10.404,4.099-1.06.151-2.196-.315-3.468-.315-1.323,0-2.444.479-3.468.315-.734-.118-.968-.703-1.577-.946-1.869-.746-4.428-.531-5.676-2.207 .64-1.351 3.104.585 4.099.945 1.68-1.014 2.559-1.036 4.729-1.261-.342-.71-1.981-.119-1.575-1.577 1.342.024 2.204.529 3.783.316 .234-.971-1.087-.384-.632-1.577h3.469c-2.038-2.069-4.513.689-6.62.631 .587-2.04 2.84-2.413 4.413-3.468 .152-.994-.968-.715-.63-1.893 .922-.082.969.713 1.893.631 2.569-2.265 4.42-5.249 6.305-8.198 .229-.965-.545-.928-.314-1.893 3.889,1.142 5.815-1.237 6.937-3.783-1.898.314-3.929,2.161-6.307.945 .52-.779 1.87-.943 2.838-1.261 .979-.322 2.048-.458 2.838-.945 .467-.268.677-.793.631-1.577 2.126.34 2.326-1.247 2.207-3.152-3.729,1.8-7.276-1.079-6.622-4.415 1.823.489 1.396,3.229 3.152,3.784 2.107.214 2.225-1.559 4.101-1.577-.311-1.59-1.105-3.633-2.838-2.838 .847-2.214-1.21-3.424-.946-4.729 1.326-.275 1.055,1.047 1.576,1.577 1.548-1.396 1.039-4.846 2.838-5.992 .102-1.256.017-2.329-.63-2.836 .514-1.543.364-.852 0-2.522-4.899-7.82-11.103-14.333-21.757-16.396-.092-.643-.853-.619-.946-1.261-6.536-1.473-15.616-2.817-22.701-1.577-1.619.284-3.323,1.813-4.729.631 .675-1.825 3.351-2.24 5.045-2.522 .982-.164 2.354-.213 3.468-.315 4.841-.445 11.462-.348 16.396.63 4.203.834 9.24,3.016 13.243,4.73 2.791,1.195 5.668,2.098 7.882,4.099 .854.771 1.95,2.213 2.838,3.152 3.446,3.645 5.694,8.391 7.883,14.188 3.136-.123 3.259-3.257 5.676-4.098-.128-.761.576-.687.316-1.577h.945c1.729-3.317 4.367-5.722 5.99-9.144 .058-1.624-.363-3.727 1.263-3.783-.162,2.158.559,3.433.313,5.674-2.941,5.046-6.638,9.337-9.774,14.188 .965,1.667 1.146,3.371 0,5.046 .082.654 1.386.086 1.578.63 .118,1.38-.902,1.622-.947,2.838 2.718-.811 4.424-2.816 6.622-4.729 2.475-2.153 4.854-4.183 7.252-6.621 .907-.924 1.791-2.95 3.468-2.522 .824,1.506-.99,2.231-1.576,3.152-.604.949-.411,1.415-1.262,2.522-2.948,3.845-7.937,7.348-11.034,11.352-2.228.084-2.193,2.433-5.045,1.891 .262,4.514-1.147,8.469-2.208,11.982-.458,1.516-.679,3.613-1.261,4.729-1.744,3.343-3.649,7.812-5.677,10.09-2.059,2.313-4.892,4.334-8.513,5.675-4.129,1.53-8.24,2.155-14.188,1.261-.727-.745-1.936-1.008-2.838-1.575 1.11,7.805-2.999,9.363-8.83,6.936-2.403-.999-4.123-2.199-6.936-3.468-2.043-.921-4.656-1.698-6.308-3.468-2.401.121-3.958-1.933-5.99-2.838-5.734-2.559-12.375-3.146-17.026-6.937-1.556.509-2.99,1.051-4.099.631-1.542-.456-1.673-2.321-2.522-3.469-1.553.569.564,3.227-.63,4.415-5.75.871-11.337,1.905-15.135,4.729 .128.607 1.223.248.946,1.261-.676.896-1.68.523-2.838.315 .825,1.357 2.747,2.714 5.045,3.153 2.087.399 5.019-.856 5.676.946-.342,1.234-3.864.615-4.729.315 .154,2.16 4.814,2.54 7.882,2.838 .14,1.611-2.23.712-3.468.945 1.964,1.398 5.875.853 8.198,1.892-.349,2.695-4.491.432-5.991.315 1.257,3.368 7.754,1.494 10.405,3.469-1.58,1.81-4.301-.472-6.622,0-.679.497 1.163,1.128 1.261,1.892 2.969-.515 7.039.501 9.459,1.576-.687,1.151-2.765.506-4.099.316-1.446-.207-2.919-.898-4.099-.947 .096.956 1.216.887 1.261,1.893 3.279.049 8.729.47 11.667,1.893-1.761,2.107-5.689-1.377-9.774-.632-.263-.063-.321-.319-.638-.318zm73.465-62.43c2.6,1.71 2.751,5.869 4.73,8.198-.704-4.762-2.511-8.421-4.414-11.981 .005,1.371.105,2.836-.316,3.783zm-44.141,0c1.01.146 1.111,1.2 2.207,1.261-.047-.971 2.198-1.261.631-1.893-.241.918-2.6-.285-2.838.632zm41.935,5.36c1.069.717.704,2.869 2.206,3.152 .901-1.986 1.394-5.087 0-6.936h-.945c-.093,1.589-1.359,2.006-1.261,3.784zm-43.513,1.261c.281-.666.961-.933.945-1.893h-3.151c.26,1.106 1.256,1.476 2.206,1.893zm45.719,5.361c1.933-.33 3.103-2.562 2.207-4.73-1.416.69-2.325,3.553-2.207,4.73zm-52.024-1.893c.437.509.893.998 1.261,1.577 1.2-.271 2.091-.853 3.784-.631-.299-.785 1.126-1.901-.315-1.891 .165,2.12-3.642-.451-4.73.945zm52.656,2.523c-.481.832-1.127,2.839 0,3.469 .382-1.831 2.821-3.269 2.522-4.73-.264,1.021-1.789,2.626-2.522,1.261zm-49.818,0c.232.503 1.542-.072 1.262.945-1.099,1.478-2.76-1.847-4.415,0 .937,1.233 2.797,2.641 5.045,1.577v-3.152c-.808.033-1.505.178-1.892.63zm53.601,7.252c-.919,1.126-1.518,2.404-2.838,3.468-1.13.911-3.947,1.189-3.152,3.153 1.108.488 2.212-1.062 3.152-1.892 .936-.825 2.322-1.671 2.838-2.838 1.123-2.542.527-6.195.63-9.144-.766,1.861-.657,4.597-.63,7.253zm-5.99-1.892c.455-.076.732-2.596-.315-2.207-.27.263-.866,2.463.315,2.207zm-45.72-.946c.505-.879-1.361-.872-1.261-.315 .596-.071.696.355 1.261.315zm.316,1.891c-1.321-1.1-3.429-3.082-5.992-1.891 1.478.945 4.423,2.088 5.992,1.891zm-5.361,0c-.413-1.162-1.655-1.499-2.837-1.891 .413,1.163 1.655,1.499 2.837,1.891zm-7.882-.945c2.796.466 4.295,3.899 7.883,2.522-2.098-1.243-4.858-4.182-7.883-2.522zm60.854,4.099c.572-1.014 2.586-2.236 1.891-3.468-.38,1.203-2.974,1.848-1.891,3.468zm-49.818-1.261c.167-1.029-1.775-1.559-2.207-.946 .607.443 1.267.833 2.207.946zm.945.945c1.013.249 1.378,1.146 2.208,1.577 .031-.978-.386-1.506-.631-2.207-.782-.046-1.53-.059-1.577.63zm-5.044,1.261c3.658,1.204-3.328-1.959-3.469-1.261 1.267.444 2.479.937 3.469,1.261zm.63-.945c1.063.835 3.094,2.362 5.044,1.261-1.498-.737-3.264-2.626-5.044-1.261zm46.665,3.468c.957-.731 3.097-1.938 2.838-2.838-.701.989-3.13,1.905-2.838,2.838zm-4.73,1.261c1.115.169 1.624-.267 1.892-.946-.294-.336-1.163-.097-.945-.945 .969-.818 2.984-.589 3.468-1.893-1.445.665-1.306.34-2.837,0-.607,1.182-1.18,2.396-1.578,3.784zm-36.575-1.891c1.471.218 2.23,2.803 3.784,1.891-.623-.928-3.191-3.006-3.784-1.891zm-1.891.945c.371-.049.896.054.945-.315-.419.046-1.174-1.06-1.261-.314 .246.069.367.263.316.629zm51.079,2.838c.025-.87 1.908-2.706.314-3.153 .031.993-1.17,2.378-.314,3.153zm-5.99-1.261c.798.333 1.796-.664.945-.946-.034.596-1.043.219-.945.946zm-5.361,2.838c.688-1.205 3.541-.241 3.152-2.522-1.55.137-3.774,1.26-3.152,2.522zm6.936-.631c.731-.1 1.212.051 1.577.315 .263-.497 1.361-1.757.63-2.207-.823.542-2.209.523-2.207,1.892zm-11.981,1.893c2.392-.13 3.391-1.654 4.099-3.469-2.456.066-2.817,2.228-4.099,3.469zm9.459-.316c.075-.45.52-.532.631-.945-.649-.278-1.416.816-.631.945zm1.576.316c-.047-.421 1.282-.952.315-1.261 .049.419-1.28.951-.315,1.261zm-6.936,2.837c-.134.79-.901-.303-.63-.947 2.137.352 2.662-.91 3.468-1.891-1.687.765-5.425.69-4.414,3.152-.587.044-1.054.208-1.262.631 .904.653 3.599-.065 2.838-.945zm-6.937-.315c1.502-.076 3.553.4 3.782-.945-1.464.11-2.747.404-3.782.945zm-86.709,2.522v-1.261c-1.317.266-1.489-.613-2.522-.631 .253,1.219 1.894,1.049 2.522,1.892zm92.384,1.577c.903-.043 2.366-.488 3.468-.947 .967-.4 3.183-.925 1.893-1.575-1.597,1.029-4.314.94-5.361,2.522zm-6.936.945c1.59.004 4.498-.324 4.1-1.262-.939.849-3.534.043-4.1,1.262zm-55.494,1.893v-1.577h-.945c-.15.99.393,1.288.945,1.577zm51.396-.632c.436,1.239 4.218.75 4.413-.315-1.091.485-2.874.278-4.413.315zm-49.188,3.468h-1.261c.867,2.333 2.824-1.006 2.522-2.836-.971.234-.606-.866-1.576-.632-.636.866.365,2.202.315,3.468zm-3.153-1.261c.607.128.249,1.223 1.261.947v-1.577c-.587.044-1.054.208-1.261.63zm5.044,2.208c.592-.564 1.821-.491 1.892-1.577-.6-.135-.792-.68-1.576-.631 .099.76-1.376,1.527-.316,2.208zm-.315,1.261c.56,2.6 3.362.056 5.045,0-.324-1.043-.874-1.858-2.208-1.892 .215,1.791-1.937,1.215-2.837,1.892zm3.468,3.784c.977-.074 1.226-.878 1.893-1.262h-2.523c-.23.861.626.636.63,1.262zm2.838,0h2.838c-.091-1.505-2.227-.613-2.838,0zm-1.261,1.576c.749.656 1.813-.283 2.522-.631-1.103-.052-2.018.084-2.522.631zm2.207.947h3.784c-.092-1.812-2.995-.396-3.784,0zm.946,1.576c.466.164.795.466 1.261.63-.23-.859.626-.634.63-1.261-.552.288-1.572.109-1.891.631zm2.207,1.891c.603.449.905,1.198 1.892,1.261 .516-.64 1.439-.872 1.577-1.891-.406-.54-.652-1.241-1.577-1.262 .745,2.008-1.846.678-1.892,1.892zm5.045,1.261c.249,1.632 1.743.411 2.207-.314-1.024-.184-1.467.215-2.207.314zm2.207,2.523c.352.806 2.439-.126 2.838.631 .233-1.448 1.652-1.71 2.522-2.521-1.688-2.037-4.209.563-5.36,1.89zm5.36.947c2.344.73 4.978-.031 5.991-1.577-2.159-1.119-5.377-.581-5.991,1.577zm5.361.945c2.004,1.509 3.703-.31 5.676-.632-1.375-2.548-4.145-.195-5.676.632zm4.728,1.893c1.3-.248 1.619.483 2.838.314 .095-.642.633-.84.947-1.262-1.584-.005-3.277-.123-3.785.948zm23.018-.632c-.554.183-1.853-.381-1.892.316 .554-.182 1.853.381 1.892-.316zm5.99,2.522c.937-.115 1.557-.546 1.893-1.261-.624.427-2.252-.15-1.893,1.261zm-1.891.632c.688.056 1.003-.26.946-.947-.848-.217-.61.651-.946.947zm-54.232,1.261c-1.761.936-3.57-1.119-5.045-.315 .877,1.159 3.987,2.009 5.045.315z" fill-rule="evenodd"/>
 <path d="m55.258,135.079c5.026-2.255 8.138,2.193 12.297,2.837 .932-.274-.953-.25-.315-1.261 3.241.404 3.216-2.46 5.044-3.468 1.401,1.939-1.41,4.24-3.468,4.729 2.057,1.104 3.434-1.184 5.045-1.575 4.708-6.927.265-16.777-3.469-21.757-.573.373-.248,1.644-.63,2.207 .071.454.941.11.945.631-.536,2.302-.176,5.499-2.837,5.676-.137-2.24.932-3.272 1.576-4.73-.258-.135-1.47,1.46-2.837,1.262 .083-2.964 2.541-3.554 2.207-6.936-2.457-.566-.935,2.848-2.837,2.836-1.491-.054.113-1.247-.315-2.206-.492.559-.422,1.681-1.892,1.261 .491-2.978.246-6.69 2.838-7.567v2.838c.756.125-.175-1.437.946-.946-1.61-5.852-4.562-10.361-7.252-15.134-.854,1.565-2.545,1.331-3.784,2.522-.935.899-1.086,3.758-3.468,3.154-1.262-3.512 2.823-4.294 4.099-6.307-3.481-1.375-3.451,3.484-6.622,3.469-.382-4.481 2.78-5.418 6.307-5.991 .541.511.782,1.319.63,2.522h2.207c-.894-1.364-1.361-2.9-2.522-4.098-.271-.28-.938-.078-1.261-.315-.642-.471-1.086-1.85-1.577-2.208-.332-.241-1.292-.063-1.576-.314-.364-.322-.186-1.089-.631-1.577-.354-.388-1.106-.523-1.577-.946-2.161-1.939-2.063-6.641-4.099-9.459-.719.438-.117,2.194-.315,3.152-1.691.418-2.313-1.076-3.153-2.207-1.553-2.087-3.75-7.396-1.261-10.405 .73-.1 1.21.051 1.576.315-.296-1.085.52-2.794 1.261-3.784-1.543.068-3.313,1.694-3.468,4.099-1.579-.639-1.742.377-3.468.314-1.096-2.925 1.041-4.947 2.207-6.622-.966-1.827.688-2.858.631-4.729 2.944-3.318 9.39-1.691 9.774,2.838-.88.842-1.558-.295-2.522-.315-.587.57-1.156,1.157-.946,2.522 .631-.421.041-2.061 1.577-1.577-.098.825.35,2.877-.631,1.892 .116,1.881 2.008,1.986 1.576,4.415-.554-.183-1.853.381-1.892-.316-.966.295-.775,1.748-1.577,2.207 1.551,3.231 3.781,5.93 5.045,9.459 .838,2.343.831,5.248 2.207,7.251 1.443,2.103 4.853,2.791 6.937,4.73 .302.281.254.885.63,1.261 .899.899 2.129,1.517 2.838,3.152 .725-.956.782-1.437.946-3.468 .101-1.247.951-2.8.946-2.838-.217-1.634-3.042-3.581-4.415-4.729-.756-.632-1.339-1.658-2.207-1.577 .107-1.894-.789-2.785-1.261-4.099-1.605,1.548-1.292,5.015-4.415,5.045-.169-2.692 2.331-2.714 2.523-5.045 .601-.135.57-.9 1.576-.63-.181-5.436 3.726-6.785 4.414-11.352 4.194,2.655-1.181,6.625-1.261,9.459-.161,5.74 14.857,11.95 9.774,21.441 2.804,5.078 8.416,7.349 10.405,13.243 1.341,2.153 2.593,5.987 1.892,9.144-2.899.022-2.89-3.647-3.784-5.36-1.341-2.571-3.116-4.783-4.414-6.938-1.631.576-.61,3.805-2.207,4.415-.235.97.866.605.631,1.575 1.094-.586.082-3.28 2.207-2.836-.192,1.699-.29,3.493-1.261,4.413 1.12,1.719 1.209,4.468 3.784,4.73 2.579,4.457 7.568,8.676 6.622,16.079-.173,1.354-.868,2.215-1.261,3.785 1.53-.467 2.221-1.773 2.207-3.785 1.182-.024 2.551-.238 2.208,1.262 4.32-1.37 9.582,2.867 8.828,7.568h-1.892c-.294-.759-1.267-.836-.946-2.208-1.354-1.904-3.603-2.913-6.306-3.468-1.189,1.502-1.568,4.852-3.469,6.937-1.838,2.017-5.757,3.116-8.197,1.577-.343-.217-.003-1.378-.946-1.262v-3.784c-4.06,3.979-12.507.675-16.081-1.576-5.956,2.281-15.409,5.321-19.864,0-1.003,2.866-5.056,2.427-5.675,6.307 1.029.074 1.841-2.778 4.099-2.522 .337,1.178-.783.897-.63,1.891 4.633,5.103-3.508,14.289-7.567,8.83-7.395,2.903-7.669-11.14-3.783-14.505-.352-2.381-2.784-2.683-3.784-4.414 .934-1.729 1.562,1.055 2.838.945 1.378-1.231-.439-1.53-.63-2.838 1.19-.139 1.479.622 2.207.946 .989-.902 1.664-2.12 3.153-2.521-.43-1.463-1.779-2.006-1.892-3.785-.996-.091-1.239.23-2.838-.314-.423-1.469-2.269-1.516-2.522-3.153-.48-.677-2.18-.132-1.892-1.577 3.073.607 3.928,3.43 6.622,4.415-.41-1.099-.271-2.044-.946-3.153-.132-.216-.919-.566-.946-.63-1.795-4.33-1.784-9.361-1.892-14.82-.101-5.07-.518-10.235.63-15.134-.7-.876-2.631-.521-3.153-1.577-.535-2.111 1.3-2.455.63-3.784-4.079-.932-4.501-6.158-5.991-11.036-.319-1.047-1.137-2.05-1.261-2.838-.477-3.019.257-6.18.946-8.828 .152-.993-.968-.713-.63-1.893h.945c1.151-3.789 1.963-7.916 4.415-10.405 2.313,1.497-.471,4.005-.946,5.676-.593,2.083-1.043,5.017-1.261,7.253-.896,9.177 2.936,17.272 7.567,21.755 .413,1.569-.971,1.342-.946,2.522 .838,1.158 2.488,1.505 3.468,2.522-2.104,14.57-.366,28.944 5.36,38.784-.309,1.478-1.338,2.234-1.577,3.783 2.039-1.537 4.715-5.164 7.252-7.253 1.178-.336.898.783 1.892.632 1.295-.824.348-2.763-1.577-2.209-1.299-.247-.592,1.511-1.892,1.262h-.631c-3.525-.92-3.91-7.658-.63-8.513 5.486-1.429 16.457,8.333 10.09,14.188-1.643.172-2.849-.094-3.784-.63 .464-1.112.821-2.332.631-4.099-2.199,2.426-4.111,5.137-5.991,7.882h-1.261c-.139,2.068-1.988,2.427-2.838,3.784-.101.836 1.767-.296 1.261.945 1.178-.888 2.166-2.072 3.153-3.152 .865-.947 1.593-2.715 3.468-2.523 .779.817-.681,1.173-.63,2.208 .558.598 1.333.979 1.892,1.576 2.583.419 5.029-.771 6.937,0 2.143-1.116 4.453-2.062 6.306-3.469 .929-.438.916-1.816 2.522-1.577 .269,1.534-.998,1.529-1.262,2.527zm-9.459-80.089c-.546,1.346-2.131,1.653-2.207,3.469 2.351.249 2.515-1.688 3.468-2.838-.888-1.497-3.621-1.754-5.044-.315-.653.661-1.742,3.228 0,3.153 .11-1.168 1.519-4.549 3.783-3.469zm-1.892,10.406c.86-.229.635.626 1.261.63-.108-1.369.239-2.284 1.261-2.522 .054-.789-.484-.987-.946-1.261-.87.706-.173,2.979-1.576,3.153zm-1.261,3.784c.004-.627.86-.401.631-1.261-.403-.018-.437-.404-.946-.315 .172.458-.369,1.629.315,1.576zm.316,2.523c1.109-.257 1.58-1.153 1.576-2.522-1.203.162-1.608,1.123-1.576,2.522zm1.261,2.522c1.273-.4 2.369-2.143 1.261-3.154-.719.753-1.015,1.929-1.261,3.154zm21.126,20.178c-.164-2.271 1.741-4.136.945-5.99 .215,2.251-2.71,4.239-.945,5.99zm1.891,3.47c.045-.986.961-3.08-.315-3.469-.5,1.086-1.051,2.955.315,3.469zm2.523,5.044c.276-1.137.978-4.525-.631-4.729-.819,1.614-.716,3.739.631,4.729zm.315,1.578c.485,1.092.774,2.378 1.577,3.151-.363-2.464.643-3.56.946-5.359-.45-.075-.532-.519-.946-.631 .053,1.524-.942,2.002-1.577,2.839zm-.946,7.566c.016-.961-.287-1.604-.946-1.893-.273,1.221.528,1.366.946,1.893zm-36.575,21.441c-.268.294-.08.938-.315,1.261-.184.252-.713.104-.946.315-.341.31-.3,1.176-.63,1.576-.351.427-2.186.98-1.261,1.893-.041-.566.313-.738.946-.632 1.225-2.138 3.21-3.515 4.414-5.675 .749.092 2.387-1.485.946-1.576-.466,1.306-2.208,1.796-3.154,2.838zm48.557,7.883c.315-1.092 2.971-3.63 1.892-3.784-1.353.434-1.979,1.594-3.468,1.892-3.281-.379-2.063-4.441-.946-6.306-1.21,1.101-1.895,2.729-2.522,4.414 .997,1 .818,3.176 1.892,4.099 1.401.247 1.891-.42 3.152-.315zm-55.178,8.828c.77.774 1.367-.233 2.522,0-.093-1.062-1.397-.915-1.577-1.893 1.204-.478 1.245-2.118 2.522-2.522 .033-2.598 2.704-4.228 2.838-5.675-2.583,2.882-5.366,5.565-6.305,10.09zm1.576-6.937c.174-.79 1.473-2.076.946-2.522-.572.392-1.592,1.957-.946,2.522zm1.891,5.045c.387-.679 1.814-1.947 1.261-2.522-.214.853-1.849,1.913-1.261,2.522zm5.361.315c1.062.401 1.303-1.599.63-1.891-.535.305-.81.872-.63,1.891z" fill-rule="evenodd"/>
 <path d="m82.059,42.379c-.886-.059-.863-1.029-1.576-1.261 .001,1.683-.765,2.599-.946,4.099 1.765-1.18 5.047-3.569 5.675-6.937 1.323.167 1.762-.55 2.838-.63 2.542,1.124 3.822,4.83 2.838,9.144-.18.785-.846,1.573-1.261,2.522-1.034,2.36-1.096,2.668-2.522,4.729-.941,1.359-1.268,1.899-2.523,3.153-1.603,1.603-3.727,2.965-6.306,4.414-2.354,1.323-4.684,2.317-8.198,2.524-5.675.333-11.562-1.418-11.667-6.938h1.261c1.143-.301.321,1.361.946,1.577 1.661,2.122 5.424,2.143 8.198,3.152 5.176-1.236 9.384-3.438 12.928-6.306-.396-1.67 1.614-2.103 2.207-3.153 .447-.792.42-2.348.946-3.468 .853-1.815 2.503-3.704 2.208-7.251-2.63,2.16-4.108,5.11-7.883,7.251-.404.23-1.011.335-1.577.631-2.384,1.245-6.932,3.007-11.351,2.522-4.037-.444-5.937-3.772-9.144-5.676-1.424-.258-3.971.608-4.414-.631-.003-1.578 1.66-1.492 3.153-1.576 1.42-.262 1.548-1.815 3.468-1.577 .928.922-.322,1.278-.63,1.891 .86-.229.634.627 1.261.631 .884-.504-.443-1.419 0-2.522 1.687-.527 3.075-.684 4.414-1.261 2.203-.951 3.515-2.349 5.675-3.469 1.951-1.009 3.275-2.507 4.415-3.783 1.762-1.973 2.89-4.777 5.36-6.306 6.014,1.004 6.148,11.061 2.207,14.505zm-.63-4.415c-.121-1.979.138-4.341-1.261-5.044 .611,1.49.499,3.705 1.261,5.044zm-5.676,9.144c1.221-.25 2.25-.693 2.837-1.576-.298-2.509.204-6.941 0-10.405-.069-.247-.264-.367-.631-.315-.796,4.036-.812,8.856-2.206,12.296zm-4.729,1.262c1.403.247 1.892-.42 3.153-.315-.084-3.66 2.243-6.583.946-10.405-1.127,3.813-2.553,7.327-4.099,10.72zm-.316-7.568c-.243,3.645-2.757,5.02-4.099,7.568h3.153c.133-3.022 2.155-5.83 1.892-8.198-.129.396-.406.644-.946.63zm-4.729,7.253c.231-2.712 1.835-4.05 2.837-5.992-2.523.63-1.942,4.365-4.414,5.045-.049-.371.055-.895-.315-.946-.809,1.04.94,1.629 1.892,1.893zm-4.099-1.893c1.267.006 1.506-1.016 1.577-2.207-1.352-.089-1.395,1.129-1.577,2.207z" fill-rule="evenodd"/>
 <path d="m49.898,113.954c-1.9.451-2.775-1.538-3.469.314 .076.813.542-.433 1.262,0 .125,1.492-1.295,1.438-.946,3.153 2.142.04.685-3.52 3.469-2.838-.126,2.291-1.525,3.309-2.522,4.73-1.016.069-1.334-.559-2.523-.315-1.615-1.83-6.193-6.214-10.405-5.36-2.018.408-2.137,2.188-4.099,3.152-.188.654.39,2.071-.315,2.208-1.591-1.361-.184-4.956.315-6.306 1.444.553 1.228.428 2.523-.316 2.801-6.033 15.828-6.883 16.71,1.578zm-13.558-2.523c.501-.76 2.789.267 2.207-1.577-1.005.063-2.775.987-2.207,1.577zm3.469,0c.434-.014.692.147.946.314-.228-.964.323-1.148.315-1.892-.838.109-1.064.829-1.261,1.578zm1.892.945c1.213.554 2.141-.699 2.207-2.208-1.472,0-2.208.737-2.207,2.208zm3.783,1.892c-.126-1.177.252-1.851 1.261-1.892 .147-.989-.793-.889-1.261-1.261-.817,1.218-2.474,2.641 0,3.153z" fill-rule="evenodd"/>
 <path d="m244.126,200.031c1.698.849 2.376-2.032 4.414-1.891 .116-.536-.246-.596-.631-.631 .476-.891 1.96-.772 2.838-1.262-2.959-.164-6.505,1.538-10.089.63 .46-1.415 1.562-.681 3.468-.945-1.193-.956-3.285-.679-4.414-.945-.221-1.376 2.386.073 1.892-1.577 2.83,2.219 7.631,1.308 11.036.315 1.51.074-.483.878-.631,1.262 7.353-.846 12.334-4.061 13.874-10.721 1.013.221 1.202,1.314 1.261,1.893 .293,2.884-3.271,5.569-4.73,7.251-1.093.379-2.555.388-2.522,1.893-1.938-.258-3.111.251-4.413.63 .892.994 4.048-.633 6.306-.315 .282-1.018-1.028-.443-1.261-.946 2.95-1.45 6.65-.413 9.773-.945 .532-.091 1.062-.593 1.577-.631 2.471-.181 5.022.385 7.566,0-1.134-.861-4.302.308-4.413-1.575 1.16-.571 2.384.537 3.783.63 1.967.131 4.043-.668 6.306-.316-.341-.708-1.981-.119-1.576-1.575 3.921.028 9.417-.041 12.297,0 .266,1.555-1.819.859-2.522.945-1.343.163-2.676.437-5.36.316-.369.05-.266.574-.315.945-2.589.144-4.78.684-7.566.63 6.985,1.149 15.559.156 22.702-1.575 3.06-.743 6.499-1.923 8.513-3.47 1.22-.937 2.66-2.362 2.838-3.468 .243-1.522-.771-2.652-.946-4.1 3.816.81 3.042,5.415.946,7.883-2.771,3.265-9.815,4.284-13.873,5.045 1.655.972 4.722.534 7.251.631-1.398,1.353 1.254,1.14 2.207,1.892 .871-.842-.372-.686-.314-1.577 2.044.374 5.72-.885 6.306.947-.677,1.293-3.395-.514-5.36,0 1.369,1.468 5.71-.033 6.307,2.207-5.245-.432-10.004-1.349-15.135-1.893-.597.036-.219,1.043-.946.946 1.685,1.724 4.394.777 6.937.946 .466.03 1.123.549 1.577.631 2.861.516 6.075.054 8.513-.631 .292.758 2.292-.191 1.893,1.261-3.604.459-8.446-.796-11.036,1.261-1.754-1.123-4.269-.353-6.622-.315 .989,1.219 5.367-.952 5.36,1.262-.254.906-1.855.328-2.838.315-1.247-.016-2.541.112-3.783,0-.271-.024-3.602-1.717-4.1,0-.732-.634-1.972-.761-3.468-.63-.993-.153-.236,1.444-.945,1.575-3.793-1.279-9.853-.29-15.136-.314-3.616-.017-7.315,1.521-11.666.945-.646-.084-2.494.117-2.206-1.261 .158-.875 1.489-.32 2.206-.315 3.083.021 6.403-.699 9.145-.945-11.02-.496-23.09,2.323-34.054,1.891-.348-1.504.403-1.909.946-2.522-4.995.785-9.787,1.774-15.45,1.893-.896-.936-.646-2.485 0-3.468-2.911.557-4.78,2.155-8.198,2.207-.41-2.829 1.945-2.891 2.208-5.045-6.267,1.737-13.802,3.831-20.811,3.783-.447-2.444.725-3.271 1.262-4.73-4.555.702-7.427,3.085-12.297,3.47-.463-3.091 1.394-3.862 2.208-5.676-2.812.912-4.964,1.084-8.198,1.892-2.243.56-4.142,2.314-6.623,2.207-.572-2.886 1.516-3.11 2.208-4.729-4.135.068-7.758,3.382-12.297,4.098-.991-.683-.731-3.026 0-3.784-3,.153-3.064,3.244-6.306,3.154-.43-.621-.301-1.802-.63-2.522-2.471.577-5.489.606-8.198.945-.867.711-1.21,1.942-3.154,1.577-.559-.597-.229-2.083-.315-3.154-4.253-.221-8.409,2.362-12.296,1.893-1.152-.139-2.104-1.414-3.469-1.261-.449-1.501.884-1.218 1.261-1.893-2.677.373-5.908,2.919-10.405,2.522-.488-.646-.488-2.822 0-3.468-3.408,1.006-7.926,1.126-11.982,1.576-2.494.277-5.378,1.664-7.252-.315-.188-1.555.819-1.913.63-3.468-1.886.952-4.261,1.414-5.675,2.838-3.335.238-5.972,1.174-9.774.945-.283-1.439.524-1.787.63-2.838-.525.117-3.134.853-3.469,2.207-2.258-.261-2.923,1.071-5.044.947-.182-.66-.782-.901-.631-1.893-3.67,1.163-6.765,2.904-10.405,4.099-.849-1.173-.667-3.164 0-4.414-1.822.279-3.017,1.188-4.099,2.208-3.408.48-6.049,1.728-9.144,2.521-1.517-1.393.28-3.286.315-5.046-3.004-.002-6.511,1.831-10.09,2.838-1.324.374-2.878.217-4.098.632-1.295.439-3.314,1.728-5.045.63-.434-.405-.312-1.369-.315-2.207-3.188-.35-4.214,1.462-7.252,1.262-.944-.633-.564-2.588-.631-4.1-3.458,1.587-6.643,3.447-11.035,4.1-.148-1.83 1.844-1.519 3.153-1.892 1.404-1.959 5.111-1.616 5.991-4.099 1.564-.014 2.425-.729 3.784-.947 .496.24.471,1.001 1.261.947 .105,1.26-.562,1.75-.315,3.152 3.51.34 6.675-5.184 10.09-3.152 .029,1.604-1.391,1.761-1.261,3.468 7.381-.822 14.528-6.275 23.647-5.36 .453,2.135-1.798,1.565-1.261,3.783 3.254-.227 7.855-3.684 12.612-4.413 .948-.318.559.701.63,1.261 1.648-.664 2.499-2.126 4.729-2.208 1.048-.978 3.863-2.376 5.36-.945 .333,1.594-.719,1.804-.631,3.153 4.129-.182 7.33-4.021 12.297-4.415 .965,2.238-1.133,3.543-1.577,5.36 5.906-.819 10.492-2.961 16.081-4.099 .941,2.679-1.578,4.478-2.208,6.621 1.308.771 3.403-.372 4.414-.945 5.838.658 8.836-4.432 13.874-2.522-.12,2.191-.998,3.627-1.892,5.045 3.39.069 7.861-4.309 12.296-2.208v1.577c-.562-1.225-1.564-.162-1.576.946 5.31-.156 9.451-4.484 15.765-3.153 .318,1.579-1.414,1.109-1.577,2.207 3.836.958 7.805-1.348 11.982-1.892 .626.597.152,1.489 0,2.207 2.281-.032 3.566-1.058 5.991-.946 .54.51.783,1.319.63,2.522 4.574-.067 7.188-3.719 11.666-2.838 .146,2.039-.664,3.119-1.576,4.1 4.854-.416 9.151-3.022 13.873-2.522 .219,2.005-.845,2.728-1.26,4.099 4.939-1.682 11.074-2.167 15.134-4.729 .521,3.149-2.327,2.928-4.414,3.469 .243,2.344-1.118,3.084-1.892,4.413 6.053-.187 8.933-2.414 14.504-2.522-.006-.94-2.338.445-1.892-.945 5.183-.055 9.552-.626 15.766.315-.97,1.588-3.957.049-5.676.314-.493.771-.566,1.958-1.263,2.522 1.938-.586 4.126-.919 5.676-1.891 .785-.049.977.495 1.577.63 .447,2.13-.985,2.378-1.577,3.469 5.999.723 12.83-1.349 17.658-1.893-.17,1.407-.302,2.851-1.894,2.836zm35.945-5.676c-2.001.208-4.831-.415-6.307.315 1.515.137 5.371,1.047 6.307-.315zm-13.875.315c-3.619-.351-2.256.943 0,0zm5.047,0c-3.532.121.441.739 1.891,0-.674.016-1.297-.02-1.891,0zm17.027,0h-6.308c1.068,1.397 5.008.452 6.308,0zm5.673,1.578c2.545.322 5.265.562 5.992-.945h-8.83c.143.87 1.779.81 2.838.945zm-19.864,0c-.623-.139-2.903.125-1.261.315 .855-.196 2.503.4 2.838-.315-.969-.221-.605-.221-1.577,0zm-13.557,1.261c2.133-.518 4.679-.378 5.674-1.262-2.258.054-4.948-.324-5.674,1.262zm22.387-1.261c-.856.195-2.504-.4-2.838.315 1.133-.208 2.443,1.017 2.838-.315zm9.144.629c-.958.199-2.716-.402-3.153.315 .957-.196 2.715.405 3.153-.315zm-37.206.948c3.387-.103.355-.978-.946.315 .437.135.688-.307.946-.315zm-5.991.315c.192.017.373.046.313.314 .019.192.048.373.316.315 .387-.663 1.898-.204 2.206-.945-1.058.509-2.296-.096-2.835.316zm27.747-.315c-3.621-.354-2.258.941 0,0zm5.359.945c1.914.679 5.397.409 6.621-.63-2.294.255-5.498-1.286-6.621.63zm18.289-.945c-1.166.201-3.143-.408-3.785.315 1.102-.207 3.404,1.208 3.785-.315zm-10.721,2.206c1.999-.164 6.294-.162 6.936-.63-2.382-.504-5.092-.849-6.936.63zm-41.621.316c.99.148 1.289-.395 1.577-.946-.549.292-1.692-.012-1.577.946z" fill-rule="evenodd"/>
</svg>
