<?xml version="1.0" encoding="UTF-8"?>
<svg width="1024.4" height="651.73" version="1.1" viewBox="0 0 1024.4 651.73" xmlns="http://www.w3.org/2000/svg" xmlns:cc="http://creativecommons.org/ns#" xmlns:dc="http://purl.org/dc/elements/1.1/" xmlns:rdf="http://www.w3.org/1999/02/22-rdf-syntax-ns#" xmlns:xlink="http://www.w3.org/1999/xlink">
 <g transform="translate(-7.3566 -16.552)">
  <g transform="translate(-46.796 -21.86)" fill-rule="evenodd">
   <rect x="54.153" y="38.412" width="1024.4" height="651.73" fill="url(#p)" stroke-linecap="round" stroke-linejoin="round" stroke-width="1.75"/>
   <g stroke-linecap="round" stroke-linejoin="round">
    <path d="m159.5 40.229v74.944h0.20962c0.30037 2.8228 1.5906 5.9493 3.6686 8.5425 3.6942 4.6102 8.5333 5.7519 10.848 2.568 0.83203-1.1442 1.2148-2.6756 1.2054-4.4023h0.10481v-81.652h-16.037z" fill="url(#m)" stroke="#0a0a0a" stroke-width=".651"/>
    <path d="m177.17 122c-1.0005 1.3759-3.1057 0.87624-4.7021-1.116-1.5964-1.9923-2.0795-4.7227-1.079-6.0986s3.1057-0.87622 4.7021 1.116c1.5964 1.9923 2.0795 4.7227 1.079 6.0986z" fill="#b6b6b6" opacity=".579" stroke-width="4.403"/>
    <path d="m100.71 110.97c-1.8404-8.1058-2.2718-13.7 0.68095-20.557 3.3744-7.8356 9.421-13.874 16.296-18.331 7.0314-4.5588 11.734-8.934 20.172-7.7866 8.8402 1.2022 8.8424 2.155 14.72 8.15 5.3137 5.4203 11.698 15.573 16.002 20.335l25.305 24.119c-5.1346-0.44632-26.536 5.2486-32.842 8.9148-12.334 13.861-15.736 16.122-20.546 29.034-14.25-15.05-39.089-38.993-39.787-43.878z" fill="#232323" stroke="#000" stroke-width="2"/>
   </g>
   <path d="m132.68 66.157 51.938 51.241c-10.555 2.4592-17.987 4.7176-23.574 9.0015l-46.826-51.517c2.8024-1.3185 7.2573-5.5806 9.0757-6.7062 1.8282-1.1316 3.4004-0.96536 5.5943-1.774 1.7313-0.63818 1.5299-0.09898 3.7915-0.2453z" fill="url(#l)" opacity=".8"/>
   <g fill="none">
    <path d="m119.77 133c0.0289-15.597 7.6528-23.877 12.055-27.554 9.6971-8.0991 25.913-15.219 37.807-11.026" opacity=".579" stroke="url(#k-0)"/>
    <path d="m121.46 133.84c0.029-15.597 7.6528-23.877 12.055-27.554 9.6971-8.0991 25.913-15.219 37.807-11.026" stroke="url(#j)"/>
    <path d="m123.12 136.35c0.0289-15.597 7.6528-23.877 12.055-27.554 9.6971-8.0991 25.913-15.219 37.807-11.026" opacity=".579" stroke="url(#i)"/>
    <path d="m124.81 137.2c0.0289-15.597 7.6528-23.877 12.055-27.554 9.6971-8.0991 25.913-15.219 37.807-11.026" stroke="url(#h)"/>
    <path d="m116.41 129.64c0.0289-15.597 7.6528-23.877 12.055-27.554 9.6971-8.0991 25.913-15.219 37.807-11.026" opacity=".579" stroke="url(#g)"/>
    <path d="m118.11 130.49c0.0289-15.597 7.6528-23.877 12.055-27.554 9.6971-8.0991 25.913-15.219 37.807-11.026" stroke="url(#f)"/>
   </g>
   <g stroke-linecap="round" stroke-linejoin="round">
    <g stroke-width="2">
     <path d="m100.71 110.97c-1.8404-8.1058-2.2718-13.7 0.68095-20.557 3.3744-7.8356 9.421-13.874 16.296-18.331 7.0314-4.5588 11.734-8.934 20.172-7.7866 8.8402 1.2022 8.8424 2.155 14.72 8.15 5.3137 5.4203 11.698 15.573 16.002 20.335l25.305 24.119c-5.1346-0.44632-26.536 5.2486-32.842 8.9148-12.334 13.861-15.736 16.122-20.546 29.034-14.25-15.05-39.089-38.993-39.787-43.878z" fill="none" stroke="#000"/>
     <path d="m142.64 117.46 78.352-14.53-22.87 70.007-74.116 18.933 18.635-74.41z" fill="url(#e)" stroke="#d4d4d4"/>
     <path d="m143.48 118.73 78.352-14.53-22.87 70.007-74.116 18.933 18.635-74.41z" fill="url(#d)" stroke="#000"/>
    </g>
    <path d="m188.92 121.49c11.67 2.4067 13.679 16.178 4.4877 30.759-9.191 14.581-26.102 24.45-37.771 22.043-11.67-2.4067-13.679-16.178-4.4877-30.759 9.191-14.581 26.102-24.45 37.771-22.043z" fill="#ababab" stroke-width="3.75"/>
    <path d="m112.54 40.229v74.944h0.20963c0.30036 2.8228 1.5906 5.9493 3.6686 8.5425 3.6942 4.6102 8.5333 5.7519 10.848 2.568 0.83204-1.1442 1.2148-2.6756 1.2054-4.4023h0.10481v-81.652h-16.037z" fill="url(#c-7)" stroke="#0a0a0a" stroke-width=".651"/>
    <path d="m123.5 122c-1.0005 1.3759-3.1057 0.87624-4.7021-1.116-1.5964-1.9923-2.0795-4.7227-1.079-6.0986s3.1057-0.87622 4.7021 1.116c1.5964 1.9923 2.0795 4.7227 1.079 6.0986z" fill="#b6b6b6" opacity=".579" stroke-width="4.403"/>
    <path d="m195.59 125c6.248 6.4514 4.1883 19.397-4.9684 31.229s-22.99 19.422-33.369 18.309" fill="#ababab" opacity=".867" stroke="url(#linearGradient7221)" stroke-width="1.486"/>
   </g>
   <path id="crossfloor" d="m1016.7 512.05c0 63.042-134.28 114.15-299.92 114.15s-299.92-51.106-299.92-114.15c0-63.042 134.28-114.15 299.92-114.15s299.92 51.106 299.92 114.15z" fill="#fffc0d" stroke-linecap="round" stroke-linejoin="round" stroke-width="1.75"/>
   <path d="m436.47 550.78c50.093 49.557 144.52 32.052 224.22 51.509 73.84 18.026 169.45 13.995 243.67 9.7172 76.664-4.4194 111.62-15.305 144.57-77.645 47.981-38.365-19.41-37.559-36.218-100.36-218.31-79.748-586.9-253.63-805.24-311.46-28.054-7.4299-84.344 24.978-52.786 54.514 39.71 62.069 266.8 352.95 281.79 373.72z" fill="url(#linearGradient7655)"/>
   <path d="m436.47 550.78c50.093 49.557 144.52 32.052 224.22 51.509 73.84 18.026 169.45 13.995 243.67 9.7172 76.664-4.4194 111.62-15.305 144.57-77.645 47.981-38.365-19.41-37.559-36.218-100.36-218.31-79.748-586.9-253.63-805.24-311.46-28.054-7.4299-84.344 24.978-52.786 54.514 39.71 62.069 266.8 352.95 281.79 373.72z" fill="url(#linearGradient7657)"/>
   <g stroke-linecap="round" stroke-linejoin="round">
    <path d="m813.14 39.229v48.477h-0.16577c-0.23755 1.8259-1.2581 3.8483-2.9016 5.5257-2.9219 2.9821-6.7493 3.7206-8.5804 1.6611-0.65808-0.74015-0.96082-1.7307-0.95337-2.8476h-0.0829v-52.816h12.684z" fill="url(#m)" stroke="#0a0a0a" stroke-width=".651"/>
    <path d="m799.16 92.123c0.79132 0.88999 2.4564 0.56679 3.7191-0.7219s1.6448-3.0549 0.85339-3.9449c-0.79126-0.89-2.4564-0.56677-3.719 0.72191-1.2627 1.2887-1.6448 3.0549-0.85346 3.9449z" fill="#b6b6b6" opacity=".579" stroke-width="4.403"/>
    <path d="m859.64 84.99c1.4556-5.2432 1.7968-8.8621-0.53857-13.297-2.669-5.0684-7.4515-8.9744-12.889-11.858-5.5614-2.9488-9.2809-5.779-15.955-5.0367-6.9921 0.77763-6.9938 1.394-11.642 5.2718-4.2029 3.5061-9.2521 10.073-12.656 13.154l-20.014 15.601c4.0611-0.2887 20.988 3.3951 25.976 5.7665 9.7555 8.9662 12.446 10.428 16.251 18.781 11.271-9.7348 30.917-25.223 31.469-28.382z" fill="#232323" stroke="#000" stroke-width="2"/>
   </g>
   <path d="m834.35 56-41.08 33.145c8.3482 1.5908 14.227 3.0515 18.646 5.8226l37.036-33.323c-2.2166-0.85285-5.74-3.6098-7.1784-4.3379-1.4459-0.732-2.6894-0.62444-4.4247-1.1475-1.3693-0.4128-1.21-0.06402-2.9989-0.15867z" fill="url(#l)" opacity=".8"/>
   <g fill="none">
    <path d="m844.56 99.235c-0.02-10.089-6.05-15.445-9.54-17.823-7.66-5.239-20.49-9.845-29.9-7.132" opacity=".579" stroke="url(#k-0)"/>
    <path d="m843.22 99.783c-0.0229-10.089-6.0529-15.445-9.5351-17.823-7.6697-5.2389-20.496-9.8446-29.903-7.132" stroke="url(#j)"/>
    <path d="m841.91 101.4c-0.0229-10.089-6.0529-15.445-9.535-17.823-7.6698-5.2388-20.496-9.8446-29.903-7.132" opacity=".579" stroke="url(#i)"/>
    <path d="m840.57 101.95c-0.0229-10.089-6.0529-15.445-9.5351-17.823-7.6698-5.2389-20.496-9.8446-29.903-7.132" stroke="url(#h)"/>
    <path d="m847.22 97.066c-0.0228-10.089-6.0529-15.445-9.535-17.823-7.6698-5.2388-20.496-9.8446-29.903-7.132" opacity=".579" stroke="url(#g)"/>
    <path d="m845.88 97.614c-0.0229-10.089-6.0529-15.445-9.535-17.823-7.6699-5.2389-20.496-9.8446-29.903-7.132" stroke="url(#f)"/>
   </g>
   <g stroke-linecap="round" stroke-linejoin="round">
    <g stroke-width="2">
     <path d="m859.64 84.99c1.4556-5.2432 1.7968-8.8621-0.53857-13.297-2.669-5.0684-7.4515-8.9744-12.889-11.858-5.5614-2.9488-9.2809-5.779-15.955-5.0367-6.9921 0.77763-6.9938 1.394-11.642 5.2718-4.2029 3.5061-9.2521 10.073-12.656 13.154l-20.014 15.601c4.0611-0.2887 20.988 3.3951 25.976 5.7665 9.7555 8.9662 12.446 10.428 16.251 18.781 11.271-9.7348 30.917-25.223 31.469-28.382z" fill="none" stroke="#000"/>
     <path d="m826.48 89.183-61.971-9.3985 18.089 45.284 58.621 12.247-14.739-48.132z" fill="url(#e)" stroke="#d4d4d4"/>
     <path d="m825.81 90.005-61.971-9.3985 18.089 45.284 58.621 12.247-14.739-48.132z" fill="url(#d)" stroke="#000"/>
    </g>
    <path d="m789.86 91.79c-9.2298 1.5568-10.819 10.465-3.5494 19.896 7.2695 9.4316 20.645 15.815 29.875 14.258 9.2299-1.5568 10.819-10.465 3.5494-19.896-7.26-9.434-20.64-15.817-29.87-14.26z" fill="#ababab" stroke-width="3.75"/>
    <path d="m850.28 39.229v48.477h-0.16577c-0.23755 1.8259-1.2581 3.8483-2.9016 5.5257-2.9219 2.9821-6.7493 3.7206-8.5804 1.6611-0.65814-0.74015-0.96082-1.7307-0.95343-2.8476h-0.0829v-52.816h12.684z" fill="url(#c-7)" stroke="#0a0a0a" stroke-width=".651"/>
    <path d="m841.61 92.123c0.79132 0.88999 2.4564 0.56679 3.7191-0.7219 1.2626-1.2887 1.6447-3.0549 0.85339-3.9449-0.79132-0.89-2.4565-0.56677-3.7191 0.72191-1.2627 1.2887-1.6448 3.0549-0.85346 3.9449z" fill="#b6b6b6" opacity=".579" stroke-width="4.403"/>
    <path d="m784.59 94.063c-4.9416 4.1731-3.3126 12.547 3.9298 20.201 7.2424 7.6534 18.184 12.563 26.393 11.843" fill="#ababab" opacity=".867" stroke="url(#linearGradient7221)" stroke-width="1.486"/>
   </g>
   <g stroke-linecap="round" stroke-linejoin="round">
    <path d="m883.14 39.229v48.477h-0.16577c-0.23755 1.8259-1.2581 3.8483-2.9016 5.5257-2.9219 2.9821-6.7493 3.7206-8.5804 1.6611-0.65808-0.74014-0.96082-1.7307-0.95337-2.8476h-0.0829v-52.816h12.684z" fill="url(#m)" stroke="#0a0a0a" stroke-width=".651"/>
    <path d="m869.16 92.123c0.79132 0.88998 2.4564 0.56678 3.7191-0.72192s1.6448-3.0549 0.85339-3.9449c-0.79126-0.88998-2.4564-0.56676-3.719 0.72192-1.2627 1.2887-1.6448 3.0549-0.85346 3.9449z" fill="#b6b6b6" opacity=".579" stroke-width="4.403"/>
    <path d="m929.64 84.99c1.4556-5.2432 1.7968-8.8621-0.53857-13.297-2.669-5.0684-7.4515-8.9744-12.889-11.858-5.5614-2.9488-9.2809-5.779-15.955-5.0367-6.9921 0.77763-6.9938 1.394-11.642 5.2718-4.2029 3.5061-9.2521 10.073-12.656 13.154l-20.014 15.601c4.0611-0.2887 20.988 3.3951 25.976 5.7665 9.7555 8.9662 12.446 10.428 16.251 18.781 11.271-9.7348 30.917-25.223 31.469-28.382z" fill="#232323" stroke="#000" stroke-width="2"/>
   </g>
   <path d="m904.35 56-41.08 33.145c8.3482 1.5908 14.227 3.0515 18.646 5.8226l37.036-33.323c-2.2166-0.85284-5.74-3.6098-7.1784-4.3379-1.4459-0.732-2.6894-0.62444-4.4247-1.1475-1.3693-0.41281-1.21-0.06402-2.9989-0.15866z" fill="url(#l)" opacity=".8"/>
   <g fill="none">
    <path d="m914.56 99.235c-0.02-10.089-6.05-15.445-9.54-17.823-7.66-5.239-20.49-9.845-29.9-7.132" opacity=".579" stroke="url(#k-0)"/>
    <path d="m913.22 99.783c-0.0229-10.089-6.0529-15.445-9.5351-17.823-7.6697-5.2388-20.496-9.8446-29.903-7.132" stroke="url(#j)"/>
    <path d="m911.91 101.4c-0.0229-10.089-6.0529-15.445-9.535-17.823-7.6698-5.2388-20.496-9.8446-29.903-7.132" opacity=".579" stroke="url(#i)"/>
    <path d="m910.57 101.95c-0.0229-10.089-6.0529-15.445-9.5351-17.823-7.6698-5.2389-20.496-9.8446-29.903-7.132" stroke="url(#h)"/>
    <path d="m917.22 97.066c-0.0228-10.089-6.0529-15.445-9.535-17.823-7.6698-5.2388-20.496-9.8446-29.903-7.132" opacity=".579" stroke="url(#g)"/>
    <path d="m915.88 97.614c-0.0229-10.089-6.0529-15.445-9.535-17.823-7.6699-5.2389-20.496-9.8446-29.903-7.132" stroke="url(#f)"/>
   </g>
   <g stroke-linecap="round" stroke-linejoin="round">
    <g stroke-width="2">
     <path d="m929.64 84.99c1.4556-5.2432 1.7968-8.8621-0.53857-13.297-2.669-5.0684-7.4515-8.9744-12.889-11.858-5.5614-2.9488-9.2809-5.779-15.955-5.0367-6.9921 0.77763-6.9938 1.394-11.642 5.2718-4.2029 3.5061-9.2521 10.073-12.656 13.154l-20.014 15.601c4.0611-0.2887 20.988 3.3951 25.976 5.7665 9.7555 8.9662 12.446 10.428 16.251 18.781 11.271-9.7348 30.917-25.223 31.469-28.382z" fill="none" stroke="#000"/>
     <path d="m896.48 89.183-61.971-9.3985 18.089 45.284 58.621 12.247-14.739-48.132z" fill="url(#e)" stroke="#d4d4d4"/>
     <path d="m895.81 90.005-61.971-9.3985 18.089 45.284 58.621 12.247-14.739-48.132z" fill="url(#d)" stroke="#000"/>
    </g>
    <path d="m859.86 91.79c-9.2298 1.5568-10.819 10.465-3.5494 19.896 7.2695 9.4316 20.645 15.815 29.875 14.259 9.2299-1.5568 10.819-10.465 3.5494-19.896-7.26-9.433-20.64-15.816-29.87-14.259z" fill="#ababab" stroke-width="3.75"/>
    <path d="m920.28 39.229v48.477h-0.16577c-0.23755 1.8259-1.2581 3.8483-2.9016 5.5257-2.9219 2.9821-6.7493 3.7206-8.5804 1.6611-0.65814-0.74014-0.96082-1.7307-0.95343-2.8476h-0.0829v-52.816h12.684z" fill="url(#c-7)" stroke="#0a0a0a" stroke-width=".651"/>
    <path d="m911.61 92.123c0.79132 0.88998 2.4564 0.56678 3.7191-0.72192 1.2626-1.2887 1.6447-3.0549 0.85339-3.9449-0.79132-0.88998-2.4565-0.56676-3.7191 0.72192-1.2627 1.2887-1.6448 3.0549-0.85346 3.9449z" fill="#b6b6b6" opacity=".579" stroke-width="4.403"/>
    <path d="m854.59 94.063c-4.9416 4.1731-3.3126 12.547 3.9298 20.201 7.2424 7.6534 18.184 12.563 26.393 11.843" fill="#ababab" opacity=".867" stroke="url(#linearGradient7221)" stroke-width="1.486"/>
   </g>
  </g>
 </g>
 <g transform="translate(-7.3566 -16.552)">
 </g>
 <g transform="translate(-7.3566 -16.552)">
  <g transform="translate(-50.478 -17.809)" fill="url(#linearGradient7655)" fill-rule="evenodd">
   <path transform="matrix(.98007 -.19867 .19867 .98007 -62.4 108.51)" d="m386.44 518.98c-31.793 23.864-22.744 34.709-71.874 54.166-47.519 8.0261-71.22-14.188-116.97-18.466-29.34-7.5177-62.233-35.953-38.79-51.809 3.4219-14.365 15.925-19.262 54.287-43.062 134.58-79.748 479.33-242.45 613.94-300.28 20.141-8.8934 35.79-3.3051 41.254 21.588-24.479 62.069-472.6 317.09-481.84 337.86z"/>
   <path d="m453.88 514.78c-30.88 49.557-47.092 69.052-96.223 88.509-47.519 8.0261-77.459 15.995-123.21 11.717-33.26-11.419-52.81-31.305-42.12-44.645 3.4219-14.365 15.965-34.559 54.327-58.359 134.58-79.748 466.29-357.63 600.9-415.46 20.294-15.93 45.994 6.9778 41.04 25.514-24.48 62.069-425.47 371.95-434.71 392.72z"/>
   <path d="m453.88 514.78c-30.88 49.557-47.092 69.052-96.223 88.509-47.519 8.0261-77.459 15.995-123.21 11.717-33.26-11.419-52.81-31.305-42.12-44.645 3.4219-14.365 15.965-34.559 54.327-58.359 134.58-79.748 466.29-357.63 600.9-415.46 20.294-15.93 45.994 6.9778 41.04 25.514-24.48 62.069-425.47 371.95-434.71 392.72z"/>
   <path transform="matrix(.98007 -.19867 .19867 .98007 -60.261 109.97)" d="m416.61 515.44-69.901 49.464c-43.811 14.9-105.2 7.4926-148.37-9.5263-26.387-12.021-76.748-34.814-28.168-63.941 3.4219-14.365 22.203-20.03 60.565-43.83 134.58-79.748 479.33-242.45 613.94-300.28 20.141-8.8934 35.79-3.3051 41.254 21.588-24.479 62.069-460.07 325.75-469.31 346.52z"/>
  </g>
  <ellipse cx="242.77" cy="565.08" rx="132.09" ry="46.753" fill="#ff0" opacity=".35" stroke-width="1.3485"/>
 </g>
 <g transform="translate(-7.3566 -16.552)" fill="#000000" font-family="sans-serif">
  <g font-size="40px">
   <text transform="rotate(32.211)" x="215.47894" y="22.994162" style="line-height:1.25" xml:space="preserve"><tspan x="215.47894" y="22.994162">PECADO</tspan></text>
   <text transform="rotate(35.634)" x="275.14163" y="53.505924" style="line-height:1.25" xml:space="preserve"><tspan x="275.14163" y="53.505924">JUSTICIA</tspan></text>
   <text transform="rotate(38.038)" x="357.51669" y="81.504097" style="line-height:1.25" xml:space="preserve"><tspan x="357.51669" y="81.504097">JUICIO</tspan></text>
   <text transform="rotate(-37.39)" x="263.9393" y="599.20837" style="line-height:1.25" xml:space="preserve"><tspan x="263.9393" y="599.20837">Invitar a Cristo</tspan></text>
  </g>
  <text transform="matrix(.81433 -.58743 .60349 .79266 0 0)" x="178.11179" y="531.53412" font-size="33.294px" stroke-width=".83234" style="line-height:1.25" xml:space="preserve"><tspan x="178.11179" y="531.53412" stroke-width=".83234">Hacer a Jesus el Senor</tspan></text>
  <text transform="rotate(-39.121)" x="-203.69469" y="541.30566" font-size="40px" style="line-height:1.25" xml:space="preserve"><tspan x="-203.69469" y="541.30566">Ora esta oracion</tspan></text>
  <text transform="rotate(-37.482)" x="-150.903" y="593.32178" font-size="40px" style="line-height:1.25" xml:space="preserve"><tspan x="-150.903" y="593.32178">Cree y se bautizado</tspan></text>
 </g>
 <g transform="translate(-7.3566 -16.552)">
  <g id="cross" transform="matrix(1 0 0 1.0598 1.8391 -14.143)" fill-rule="evenodd" stroke="#000" stroke-linejoin="round" stroke-width="5.1591">
   <rect x="652.89" y="399.43" width="40.461" height="160.01" rx="6.1983" ry="6.1983"/>
   <rect x="599.56" y="436.21" width="141.61" height="29.426" rx="6.1983" ry="6.1983"/>
  </g>
 </g>
</svg>
