<?xml version='1.0' encoding='utf-8'?>
<svg xmlns="http://www.w3.org/2000/svg" version="1.1" width="1025px" height="769px" viewBox="27 680 1025 769"> <g id="layer1"> <g style="fill:rgb(0,174,199); fill-opacity:1.0; stroke-linejoin: miter"> <path d="M26.999,679.43506C26.84943,679.43506,26.705988,679.49445,26.600225,679.6002C26.494463,679.706,26.435047,679.8494,26.435047,679.999L26.436047,1449.0C26.436047,1449.3115,26.688538,1449.564,27.0,1449.564L1052.001,1449.565C1052.1505,1449.565,1052.2941,1449.5055,1052.3998,1449.3998C1052.5055,1449.2941,1052.565,1449.1505,1052.565,1449.001L1052.564,680.0C1052.564,679.68854,1052.3115,679.43604,1052.0,679.43604L26.999,679.43506 Z"/> </g> <g style="fill:rgb(0,0,0); fill-opacity:1.0; stroke-linejoin: miter"> <path d="M264.91705,1241.2677L264.5703,1241.2701Q230.00307,1247.6305,197.30264,1316.1669L188.61572,1336.6782Q193.6743,1367.9567,199.08444,1381.3589Q204.24959,1395.0536,220.33739,1417.9436Q228.28297,1440.7703,229.5584,1449.5984L342.18616,1449.5994L344.13898,1413.218Q342.30756,1377.762,335.90582,1311.8644Q297.20398,1242.5751,264.91705,1241.2677 Z"/> </g> <g style="fill:rgb(125,139,150); fill-opacity:0.99607843; stroke-linejoin: miter"> <path d="M229.63864,1159.9755L229.63718,1159.9852L229.63718,1159.9755L229.63766,1159.9852 Z"/> </g> <g style="fill:rgb(0,0,0); fill-opacity:1.0; stroke-linejoin: miter"> <path d="M258.83893,976.4806L258.79938,976.2174Q257.24127,946.64075,256.2691,941.9493Q255.53865,936.64703,254.39264,932.4702Q249.62997,917.52747,248.76472,912.20123Q246.84091,901.0904,246.7203,894.44244Q246.45813,879.98486,247.93962,873.97955Q248.67448,870.0064,249.92157,866.39844L251.31808,862.9307Q252.86449,859.60114,254.96017,856.82513Q259.1961,851.2842,265.06384,847.84906Q269.2445,844.7255,281.06342,842.36017Q289.15582,841.1815,298.6593,842.62775Q309.3908,844.24774,326.50073,849.9113Q332.57697,850.71454,335.47443,850.6047Q342.87146,851.8228,347.81195,840.3868Q353.4179,850.7657,353.7895,856.1417Q355.3847,864.65924,347.3963,884.94836L312.90863,937.8709L258.83893,976.4806 Z"/> </g> <g style="fill:rgb(255,186,155); fill-opacity:0.99607843; stroke-linejoin: miter"> <path d="M253.7363,988.4669L253.7363,988.4728L257.80127,966.97906L257.74225,958.7501Q266.80676,958.72266,272.00696,954.9443Q276.7282,951.20026,279.3816,943.77Q281.34058,937.3437,281.25122,934.393Q281.3352,932.48035,281.2254,930.5908Q280.06616,918.57166,280.43286,917.9281Q280.36505,914.855,282.51788,910.70013Q288.93445,902.07556,294.5224,904.8871Q296.0927,905.3856,298.3432,908.8339Q299.29095,909.86017,303.6518,920.69135Q304.8681,923.26105,305.6093,922.5506Q306.62787,920.86896,306.94574,918.76056Q309.59326,903.4734,310.89557,898.0438Q313.49176,888.13306,314.41028,886.5941Q317.7965,876.82886,328.35864,871.1057Q344.83478,864.7408,352.6444,871.83215Q358.8451,891.0289,358.9198,897.0763Q359.53497,903.75934,354.71808,910.03235Q367.6048,930.8132,367.3421,935.4478Q368.2776,941.1128,356.7365,940.9171Q358.38446,949.33453,357.6037,951.5401Q357.1115,954.1051,352.922,955.22864Q355.90887,955.8473,355.07538,959.51624Q354.19446,962.7287,350.33356,970.1188Q350.82623,978.9338,349.3448,982.8786Q347.55664,986.54944,345.66797,987.0763Q342.82568,989.00793,331.17914,988.86304L318.1869,983.95L309.80353,993.32837L253.7363,988.4669 Z"/> </g> <g style="fill:rgb(0,0,0); fill-opacity:0.99607843; stroke-linejoin: miter"> <path d="M354.91705,986.2999L354.91705,986.30774L354.91705,986.30383L354.91803,986.2999 Z"/> </g> <g style="fill:rgb(255,255,255); fill-opacity:1.0; stroke-linejoin: miter"> <path d="M270.50232,1305.4502L267.24158,1310.8467Q241.18521,1354.6313,227.09094,1359.5812Q211.34184,1366.8322,187.44185,1358.9929Q186.311,1352.892,185.23581,1346.7543Q179.11131,1313.145,181.19144,1287.4363Q181.27835,1282.6042,184.02303,1265.4094Q196.59837,1203.7671,196.47484,1201.7085Q197.59497,1195.9375,199.51544,1178.379Q201.80942,1155.7941,200.69623,1092.2703Q201.37743,1071.6361,202.09375,1068.2377Q202.84866,1057.2733,208.2525,1041.4221Q209.09286,1037.5258,217.673,1022.8533Q226.65358,1008.6223,248.00774,988.72424L256.60938,968.17633L318.08923,988.2678L315.81476,1006.5448Q347.46124,1061.749,350.75372,1089.1621Q356.18622,1118.9847,355.37854,1150.8674Q356.22375,1151.6243,350.31573,1252.101Q349.0769,1283.6887,349.40887,1296.2784Q349.99963,1324.0254,354.97467,1336.099Q332.22168,1344.3553,317.87885,1338.3423Q304.06537,1334.138,270.50232,1305.4502 Z"/> </g> <g style="fill:rgb(0,0,0); fill-opacity:0.99607843; stroke-linejoin: miter"> <path d="M335.53973,903.70917L336.195,903.46014Q340.49146,901.74634,343.15356,901.73157Q343.7444,901.7374,344.3147,901.8131Q344.60815,901.8229,345.98804,902.19403Q347.3567,902.6032,349.71173,903.7692Q345.7273,903.31854,343.32983,903.3327Q341.00366,903.30096,335.53973,903.70917 Z"/> </g> <g style="fill:rgb(0,0,0); fill-opacity:0.99607843; stroke-linejoin: miter"> <path d="M336.80487,915.06665L336.8039,915.07544L336.8039,915.0676L336.80487,915.06665 Z"/> </g> <g style="fill:rgb(255,255,255); fill-opacity:0.99607843; stroke-linejoin: miter"> <path d="M337.779,908.7419L337.779,908.74384L345.59448,906.1525Q346.31372,907.5983,346.2981,908.4963Q346.35132,909.361,345.7082,911.4391L337.779,908.7419 Z"/> </g> <g style="fill:rgb(0,0,0); fill-opacity:0.99607843; stroke-linejoin: miter"> <path d="M345.55103,906.10126L343.4148,908.57587L345.54022,911.29944Q346.10327,910.23645,346.29907,909.66516Q346.4817,909.09784,346.4817,908.9899Q346.52026,908.76434,346.52124,908.54755Q346.52124,908.32733,346.48462,908.11346Q346.48364,908.01044,346.30542,907.49725Q346.1106,906.9826,345.55103,906.10126 Z"/> </g> <g style="fill:rgb(33,95,137); fill-opacity:0.99607843; stroke-linejoin: miter"> <path d="M425.5946,1445.7784L425.5946,1445.7882L425.59412,1445.7814L425.5946,1445.7784"/> </g> <g style="fill:rgb(254,186,155); fill-opacity:1.0; stroke-linejoin: miter"> <path d="M441.81403,1256.351L494.35516,1299.1227L496.57745,1331.9088L422.60284,1272.1959L407.443,1228.107L441.81403,1256.351 Z"/> </g> <g style="fill:rgb(255,255,255); fill-opacity:1.0; stroke-linejoin: miter"> <path d="M319.1317,1045.9805L329.068,1094.1327L456.3089,1258.9467L407.7785,1291.1017C327.86896,1207.3782,278.99048,1153.7168,260.9395,1130.2714C245.54585,1110.2854,237.87483,1099.1157,236.77809,1097.1808C229.73799,1084.7258,225.27705,1075.1655,223.99924,1067.8687C222.31982,1058.222,224.91766,1048.99,232.45569,1040.0452L319.1317,1045.9805 Z"/> </g> <g style="fill:rgb(255,255,255); fill-opacity:1.0; stroke-linejoin: miter"> <path d="M238.59879,1109.5397L280.79218,1134.7834L394.51434,1309.2017L440.86035,1273.9609C388.11322,1170.9459,353.54327,1107.1179,337.349,1082.351C323.5454,1061.2347,315.5279,1050.309,314.0608,1048.6373C304.61835,1037.8877,297.05872,1030.5305,290.58826,1026.9259C282.0346,1022.1577,272.46313,1021.5701,261.5385,1025.735L238.59879,1109.5397 Z"/> </g> <g style="fill:rgb(254,186,155); fill-opacity:1.0; stroke-linejoin: miter"> <path d="M495.15692,1302.4595L495.15314,1302.4604L490.99536,1334.1561Q463.4156,1317.8837,435.8385,1301.6132Q440.12567,1290.7203,444.40942,1279.8293L495.15692,1302.4595"/> </g> <g style="fill:rgb(183,62,44); fill-opacity:1.0; stroke-linejoin: miter"> <path d="M341.5387,1191.0771L341.53876,1449.5984L607.6466,1449.5991L607.64655,1191.0778L341.5387,1191.0771 Z"/> </g> <g style="fill:rgb(183,62,44); fill-opacity:1.0; stroke-linejoin: miter"> <path d="M453.435,1126.7949L530.5408,1126.7954L607.6466,1126.7959Q607.6466,1171.5875,607.6466,1216.3792Q530.5408,1216.3796,453.435,1216.3801Q453.435,1171.5875,453.435,1126.7949"/> </g> <g style="fill:rgb(0,0,0); fill-opacity:1.0; stroke-linejoin: miter"> <path d="M478.92206,1020.52716L484.2804,1020.52734L489.6388,1020.5276Q489.6388,1074.8827,489.63885,1129.2378Q484.28046,1129.238,478.92212,1129.2383Q478.92206,1074.8827,478.92206,1020.52716"/> </g> <g style="fill:rgb(0,0,0); fill-opacity:1.0; stroke-linejoin: miter"> <path d="M461.12143,1014.79614L460.9441,1017.4324Q459.6832,1025.3992,453.5655,1030.1758Q447.40546,1034.9485,439.0577,1034.0463Q431.09088,1032.7856,426.3144,1026.6678Q424.7839,1024.6902,423.79315,1022.3585L422.96042,1019.9608Q422.27414,1017.48645,422.2664,1014.79614Q422.47476,1006.5408,427.9566,1001.05896Q433.43854,995.57715,441.69394,995.36865Q449.94946,995.57715,455.4313,1001.0591Q460.9131,1006.5408,461.12143,1014.79614"/> </g> <g style="fill:rgb(0,0,0); fill-opacity:1.0; stroke-linejoin: miter"> <path d="M453.7874,1013.4918L479.9302,1027.2056L506.0731,1040.9192Q502.07376,1048.5436,498.07437,1056.1678Q471.93115,1042.4543,445.7882,1028.7408Q449.7879,1021.11646,453.7874,1013.4918"/> </g> <g style="fill:rgb(0,0,0); fill-opacity:1.0; stroke-linejoin: miter"> <path d="M492.55344,1039.4948L509.4564,1048.36L526.3594,1057.2251Q524.48035,1060.8081,522.60144,1064.3909Q505.6981,1055.5262,488.7947,1046.6617Q490.6741,1043.0782,492.55344,1039.4948"/> </g> <g style="fill:rgb(254,186,155); fill-opacity:1.0; stroke-linejoin: miter"> <path d="M335.87775,920.5736L332.3236,916.55524L450.2317,932.9054Q468.28418,935.4182,484.1693,937.8551Q510.31525,942.0206,515.0475,943.3911Q523.17633,945.3482,523.9293,946.6878Q524.9285,949.445,503.27722,948.82385Q501.28162,948.85583,485.64758,947.79913L433.4032,943.5187Q415.3357,942.15356,405.79266,941.68756Q380.68805,940.1697,325.72253,939.43787L335.87775,920.5736"/> </g> <g style="fill:rgb(229,143,104); fill-opacity:1.0; stroke-linejoin: miter"> <path d="M373.23676,939.7856L373.1474,939.8579Q372.5404,940.0472,369.6839,939.94464Q366.80774,939.8403,362.92932,939.4766Q359.22888,939.11755,357.02435,938.74066Q354.82172,938.36255,355.26288,938.14734Q355.8698,937.958,358.72638,938.06055Q361.60254,938.1649,365.48096,938.5286Q369.18134,938.88763,371.38593,939.2645Q372.09222,939.38586,372.54675,939.49615L372.9276,939.602Q373.24017,939.7042,373.23676,939.7856"/> </g> <g style="fill:rgb(254,186,155); fill-opacity:1.0; stroke-linejoin: miter"> <path d="M354.48267,910.2381L355.44495,910.9875Q360.50818,915.11523,367.23364,917.91925Q372.7616,920.297,382.63995,922.8196Q399.11945,927.24976,461.13776,937.0777L348.93915,928.06006L354.48267,910.2381"/> </g> <g style="fill:rgb(185,88,73); fill-opacity:1.0; stroke-linejoin: miter"> <path d="M364.45374,1229.206L364.45374,1449.5983L585.90674,1449.5991L585.9067,1229.2068L364.45374,1229.206 Z"/> </g> <g style="fill:rgb(185,88,73); fill-opacity:1.0; stroke-linejoin: miter"> <path d="M478.04626,1140.7474L478.04633,1449.5983L592.49274,1449.5991L592.4926,1140.748L478.04626,1140.7474 Z"/> </g> <g style="fill:rgb(0,0,0); fill-opacity:1.0; stroke-linejoin: miter"> <path d="M795.2768,1005.3004C791.65955,994.0226,781.3715,989.4846,771.49414,992.6511C761.617,995.81824,755.88837,1005.49524,759.50635,1016.7744C763.98,1030.7213,774.70685,1036.6279,784.583,1033.4604C794.4599,1030.2917,799.74976,1019.249,795.2768,1005.3004 Z"/> </g> <g style="fill:rgb(255,255,255); fill-opacity:1.0; stroke-linejoin: miter"> <path d="M771.28986,996.02893C771.4959,996.6732,772.187,997.02954,772.8314,996.8229C773.4766,996.6146,773.8326,995.92444,773.6246,995.27954C773.4184,994.6349,772.728,994.2803,772.08356,994.4873C771.43787,994.6941,771.0831,995.3843,771.28986,996.02893 Z"/> </g> <g style="fill:rgb(255,255,255); fill-opacity:1.0; stroke-linejoin: miter"> <path d="M775.22675,994.7654C775.4342,995.41113,776.1245,995.766,776.7698,995.55896C777.41425,995.3523,777.76953,994.662,777.56287,994.01733C777.356,993.3718,776.6657,993.01697,776.02057,993.22375C775.37494,993.43054,775.0201,994.1207,775.22675,994.7654 Z"/> </g> <g style="fill:rgb(255,255,255); fill-opacity:1.0; stroke-linejoin: miter"> <path d="M781.64594,1001.35425C781.85266,1002.00024,782.5431,1002.355,783.18896,1002.1482C783.83386,1001.9414,784.1887,1001.25085,783.98206,1000.60657C783.77527,999.9623,783.0843,999.6056,782.439,999.8126C781.79407,1000.0194,781.4393,1000.7096,781.64594,1001.35425 Z"/> </g> <g style="fill:rgb(255,255,255); fill-opacity:1.0; stroke-linejoin: miter"> <path d="M773.80457,1003.8695C774.0114,1004.51416,774.70245,1004.87146,775.3474,1004.6647C775.99194,1004.458,776.34735,1003.7661,776.1405,1003.1205C775.9344,1002.4761,775.2428,1002.1211,774.5978,1002.3279C773.9531,1002.53455,773.5979,1003.2251,773.80457,1003.8695 Z"/> </g> <g style="fill:rgb(255,255,255); fill-opacity:1.0; stroke-linejoin: miter"> <path d="M785.5836,1000.0924C785.7903,1000.7367,786.48065,1001.09143,787.12524,1000.8873C787.7702,1000.67786,788.1264,999.989,787.919,999.3434C787.71216,998.6974,787.02185,998.34265,786.37665,998.5508C785.7316,998.75745,785.3755,999.448,785.5836,1000.0924 Z"/> </g> <g style="fill:rgb(255,255,255); fill-opacity:1.0; stroke-linejoin: miter"> <path d="M777.74207,1002.60596C777.9489,1003.2532,778.6392,1003.6079,779.28436,1003.4015C779.9289,1003.19446,780.28485,1002.50256,780.07745,1001.85693C779.8707,1001.2129,779.18036,1000.85815,778.53595,1001.06494C777.89014,1001.27136,777.53546,1001.9619,777.74207,1002.60596 Z"/> </g> <g style="fill:rgb(255,255,255); fill-opacity:1.0; stroke-linejoin: miter"> <path d="M780.42664,997.5514C780.6333,998.1957,781.3238,998.5508,781.9682,998.344C782.6132,998.13855,782.9681,997.44666,782.76135,996.80237C782.5553,996.1577,781.86426,995.8015,781.2197,996.0083C780.57465,996.2152,780.21857,996.9071,780.42664,997.5514 Z"/> </g> <g style="fill:rgb(255,255,255); fill-opacity:1.0; stroke-linejoin: miter"> <path d="M772.58386,1000.06824C772.7912,1000.7113,773.4817,1001.06726,774.12665,1000.85925C774.7713,1000.65247,775.1266,999.9623,774.91986,999.3176C774.7131,998.673,774.0227,998.31726,773.37823,998.5239C772.7332,998.73035,772.3771,999.4209,772.58386,1000.06824 Z"/> </g> <g style="fill:rgb(255,255,255); fill-opacity:1.0; stroke-linejoin: miter"> <path d="M776.5214,998.8047C776.7288,999.448,777.41864,999.8037,778.0644,999.5957C778.7089,999.3916,779.0642,998.6987,778.85754,998.0541C778.6514,997.40967,777.95966,997.05505,777.31525,997.2617C776.67017,997.46716,776.31464,998.16003,776.5214,998.8047 Z"/> </g> <g style="fill:rgb(255,255,255); fill-opacity:1.0; stroke-linejoin: miter"> <path d="M767.4185,997.2706C767.626,997.91626,768.31573,998.271,768.9615,998.0646C769.6059,997.85754,769.962,997.16626,769.754,996.52014C769.54785,995.87537,768.8568,995.5206,768.2124,995.7278C767.56726,995.93445,767.2124,996.626,767.4185,997.2706 Z"/> </g> <g style="fill:rgb(255,255,255); fill-opacity:1.0; stroke-linejoin: miter"> <path d="M765.96246,1006.38635C766.16986,1007.03064,766.8596,1007.3854,767.50543,1007.17896C768.1506,1006.97217,768.50525,1006.2803,768.2984,1005.6356C768.0911,1004.99036,767.40137,1004.6354,766.7562,1004.84204C766.1119,1005.0488,765.7563,1005.74036,765.96246,1006.38635 Z"/> </g> <g style="fill:rgb(255,255,255); fill-opacity:1.0; stroke-linejoin: miter"> <path d="M769.93384,1005.1116C770.14056,1005.7572,770.8316,1006.11194,771.4762,1005.90515C772.1213,1005.69836,772.4767,1005.0082,772.27,1004.3635C772.062,1003.7179,771.37225,1003.3629,770.7269,1003.5696C770.082,1003.77637,769.7272,1004.4669,769.93384,1005.1116 Z"/> </g> <g style="fill:rgb(255,255,255); fill-opacity:1.0; stroke-linejoin: miter"> <path d="M762.05927,1007.63794C762.27295,1008.30444,762.96655,1008.635,763.6008,1008.43054C764.2684,1008.2163,764.59894,1007.5221,764.39526,1006.8893C764.18097,1006.2218,763.4867,1005.8926,762.8525,1006.09534C762.2182,1006.29785,761.8557,1007.0039,762.05927,1007.63794 Z"/> </g> <g style="fill:rgb(255,255,255); fill-opacity:1.0; stroke-linejoin: miter"> <path d="M764.7436,1002.58215C764.94977,1003.2251,765.6408,1003.58276,766.28546,1003.3761C766.93036,1003.16895,767.2852,1002.4761,767.0785,1001.8318C766.8718,1001.18713,766.1814,1000.8324,765.53674,1001.0392C764.8918,1001.246,764.5356,1001.9375,764.7436,1002.58215 Z"/> </g> <g style="fill:rgb(255,255,255); fill-opacity:1.0; stroke-linejoin: miter"> <path d="M768.71454,1001.3074C768.9206,1001.953,769.6117,1002.30774,770.25616,1002.1023C770.90106,1001.89417,771.2573,1001.204,771.04926,1000.5593C770.8425,999.9147,770.15216,999.55994,769.5076,999.7654C768.8612,999.9735,768.50775,1000.6627,768.71454,1001.3074 Z"/> </g> <g style="fill:rgb(255,255,255); fill-opacity:1.0; stroke-linejoin: miter"> <path d="M784.82306,1004.60596C785.0298,1005.24927,785.72015,1005.6052,786.36523,1005.3999C787.00977,1005.1931,787.3657,1004.5012,787.1585,1003.8556C786.9517,1003.21094,786.2613,1002.855,785.61676,1003.063C784.97107,1003.27,784.61554,1003.96155,784.82306,1004.60596 Z"/> </g> <g style="fill:rgb(255,255,255); fill-opacity:1.0; stroke-linejoin: miter"> <path d="M776.9816,1007.12146C777.1884,1007.76575,777.8787,1008.1205,778.52374,1007.9137C779.1682,1007.70703,779.52423,1007.0155,779.3169,1006.3721C779.1102,1005.7251,778.4198,1005.3705,777.7747,1005.57715C777.1302,1005.78394,776.77484,1006.47546,776.9816,1007.12146 Z"/> </g> <g style="fill:rgb(255,255,255); fill-opacity:1.0; stroke-linejoin: miter"> <path d="M788.7601,1003.34265C788.9674,1003.9857,789.6578,1004.343,790.3028,1004.13635C790.9473,1003.92993,791.3027,1003.2384,791.09607,1002.59204C790.8892,1001.9474,790.1989,1001.593,789.55316,1001.7998C788.908,1002.0065,788.554,1002.698,788.7601,1003.34265 Z"/> </g> <g style="fill:rgb(255,255,255); fill-opacity:1.0; stroke-linejoin: miter"> <path d="M780.91846,1005.8579C781.126,1006.5022,781.8163,1006.8573,782.4615,1006.65015C783.1059,1006.4435,783.4607,1005.75195,783.2546,1005.1089C783.04785,1004.46423,782.3581,1004.1073,781.7117,1004.3163C781.066,1004.5231,780.7118,1005.2123,780.91846,1005.8579 Z"/> </g> <g style="fill:rgb(255,255,255); fill-opacity:1.0; stroke-linejoin: miter"> <path d="M769.1394,1009.6354C769.3533,1010.30273,770.0488,1010.63074,770.68243,1010.4293C771.35046,1010.21497,771.67975,1009.52075,771.4762,1008.88635C771.26105,1008.2189,770.5675,1007.88965,769.93317,1008.09375C769.299,1008.2965,768.9366,1009.00256,769.1394,1009.6354 Z"/> </g> <g style="fill:rgb(255,255,255); fill-opacity:1.0; stroke-linejoin: miter"> <path d="M761.29877,1012.14954C761.5054,1012.79517,762.1959,1013.1499,762.8403,1012.9431C763.4867,1012.73645,763.84143,1012.04614,763.63477,1011.4015C763.42725,1010.75586,762.7362,1010.4022,762.09174,1010.60767C761.4467,1010.8157,761.09204,1011.5062,761.29877,1012.14954 Z"/> </g> <g style="fill:rgb(255,255,255); fill-opacity:1.0; stroke-linejoin: miter"> <path d="M773.0764,1008.3722C773.2915,1009.03955,773.98505,1009.3701,774.62006,1009.1658C775.2868,1008.9514,775.61676,1008.2572,775.41315,1007.62415C775.1993,1006.9557,774.50446,1006.62646,773.87085,1006.83057C773.2373,1007.03357,772.87366,1007.739,773.0764,1008.3722 Z"/> </g> <g style="fill:rgb(255,255,255); fill-opacity:1.0; stroke-linejoin: miter"> <path d="M765.26953,1010.87573C765.4763,1011.5231,766.1666,1011.8778,766.81116,1011.67065C767.4562,1011.4617,767.8122,1010.77246,767.60425,1010.1278C767.398,1009.4824,766.7071,1009.12744,766.0626,1009.3341C765.41754,1009.5405,765.06274,1010.2311,765.26953,1010.87573 Z"/> </g> <g style="fill:rgb(255,255,255); fill-opacity:1.0; stroke-linejoin: miter"> <path d="M793.4901,1011.31995C793.69745,1011.9646,794.38727,1012.31934,795.0322,1012.11255C795.67816,1011.9055,796.03284,1011.21533,795.8261,1010.5707C795.6187,1009.9263,794.9282,1009.5703,794.2832,1009.777C793.6382,1009.9851,793.2833,1010.6753,793.4901,1011.31995 Z"/> </g> <g style="fill:rgb(255,255,255); fill-opacity:1.0; stroke-linejoin: miter"> <path d="M785.6486,1013.8342C785.85535,1014.4795,786.5457,1014.8362,787.19037,1014.6278C787.8366,1014.421,788.19147,1013.73083,787.98346,1013.0862C787.7774,1012.44055,787.08704,1012.0858,786.4417,1012.29224C785.7967,1012.499,785.44183,1013.1896,785.6486,1013.8342 Z"/> </g> <g style="fill:rgb(255,255,255); fill-opacity:1.0; stroke-linejoin: miter"> <path d="M777.8073,1016.3507C778.01404,1016.99634,778.70447,1017.3501,779.3489,1017.14465C779.9945,1016.9376,780.35004,1016.245,780.1432,1015.60034C779.93646,1014.9557,779.2454,1014.59973,778.6005,1014.80774C777.95593,1015.0132,777.6005,1015.70605,777.8073,1016.3507 Z"/> </g> <g style="fill:rgb(255,255,255); fill-opacity:1.0; stroke-linejoin: miter"> <path d="M789.5862,1012.57166C789.793,1013.2163,790.4834,1013.57263,791.1279,1013.3668C791.7736,1013.1575,792.1284,1012.4673,791.9217,1011.823C791.71497,1011.177,791.02454,1010.82227,790.3794,1011.02905C789.73376,1011.2357,789.37897,1011.9263,789.5862,1012.57166 Z"/> </g> <g style="fill:rgb(255,255,255); fill-opacity:1.0; stroke-linejoin: miter"> <path d="M781.7449,1015.0885C781.9516,1015.73315,782.642,1016.0875,783.2864,1015.8811C783.93164,1015.6741,784.2876,1014.9824,784.0803,1014.33813C783.8736,1013.6925,783.1831,1013.3375,782.538,1013.54456C781.89355,1013.751,781.53754,1014.4429,781.7449,1015.0885 Z"/> </g> <g style="fill:rgb(255,255,255); fill-opacity:1.0; stroke-linejoin: miter"> <path d="M769.96576,1018.8662C770.1724,1019.51025,770.86237,1019.86523,771.5074,1019.65857C772.15314,1019.4518,772.50854,1018.76294,772.30115,1018.11694C772.09503,1017.4696,771.40405,1017.11523,770.7589,1017.322C770.1139,1017.52844,769.75903,1018.22034,769.96576,1018.8662 Z"/> </g> <g style="fill:rgb(255,255,255); fill-opacity:1.0; stroke-linejoin: miter"> <path d="M762.1243,1021.37976C762.3312,1022.0244,763.02203,1022.3805,763.6661,1022.1737C764.31226,1021.96704,764.66656,1021.2765,764.4604,1020.6311C764.25244,1019.98645,763.5621,1019.63184,762.9174,1019.8385C762.2724,1020.0453,761.91766,1020.7355,762.1243,1021.37976 Z"/> </g> <g style="fill:rgb(255,255,255); fill-opacity:1.0; stroke-linejoin: miter"> <path d="M773.9366,1017.5912C774.14343,1018.2351,774.83307,1018.5918,775.4796,1018.38513C776.1245,1018.178,776.4794,1017.4878,776.27264,1016.84314C776.06464,1016.1975,775.37494,1015.8428,774.7296,1016.04956C774.0847,1016.256,773.72986,1016.9468,773.9366,1017.5912 Z"/> </g> <g style="fill:rgb(255,255,255); fill-opacity:1.0; stroke-linejoin: miter"> <path d="M766.0608,1020.1179C766.2757,1020.78406,766.97064,1021.1146,767.60364,1020.9105C768.27167,1020.69714,768.6003,1020.0017,768.39734,1019.3685C768.1831,1018.7014,767.4893,1018.37085,766.8552,1018.57495C766.2209,1018.7781,765.84753,1019.4491,766.0608,1020.1179 Z"/> </g> <g style="fill:rgb(255,255,255); fill-opacity:1.0; stroke-linejoin: miter"> <path d="M788.83594,1017.1189C789.0426,1017.76355,789.73376,1018.1183,790.3794,1017.9115C791.024,1017.70447,791.3787,1017.0128,791.172,1016.3685C790.9646,1015.7239,790.2741,1015.36926,789.62964,1015.5773C788.9841,1015.78406,788.62915,1016.4729,788.83594,1017.1189 Z"/> </g> <g style="fill:rgb(255,255,255); fill-opacity:1.0; stroke-linejoin: miter"> <path d="M780.9945,1019.63306C781.2012,1020.2788,781.89166,1020.6334,782.5367,1020.42676C783.18243,1020.22,783.5373,1019.5298,783.33057,1018.88513C783.12317,1018.2394,782.43286,1017.8834,781.7876,1018.0912C781.1425,1018.29785,780.7878,1018.9884,780.9945,1019.63306 Z"/> </g> <g style="fill:rgb(255,255,255); fill-opacity:1.0; stroke-linejoin: miter"> <path d="M792.7728,1015.85535C792.9802,1016.50134,793.6707,1016.85596,794.31586,1016.6493C794.96014,1016.4425,795.317,1015.75195,795.1097,1015.105C794.9029,1014.4607,794.2118,1014.10596,793.5666,1014.3141C792.92084,1014.52075,792.5661,1015.21106,792.7728,1015.85535 Z"/> </g> <g style="fill:rgb(255,255,255); fill-opacity:1.0; stroke-linejoin: miter"> <path d="M784.9315,1018.37085C785.13885,1019.0165,785.8292,1019.3712,786.4744,1019.1632C787.11945,1018.9564,787.47546,1018.26624,787.2675,1017.6216C787.06134,1016.9758,786.37036,1016.62256,785.7253,1016.8279C785.0808,1017.036,784.7248,1017.7252,784.9315,1018.37085 Z"/> </g> <g style="fill:rgb(255,255,255); fill-opacity:1.0; stroke-linejoin: miter"> <path d="M773.1531,1022.1483C773.368,1022.81445,774.0616,1023.1454,774.69586,1022.94226C775.36334,1022.72754,775.6926,1022.0321,775.489,1021.3993C775.28485,1020.76624,774.5805,1020.4026,773.9462,1020.60535C773.3119,1020.8085,772.95013,1021.51526,773.1531,1022.1483 Z"/> </g> <g style="fill:rgb(255,255,255); fill-opacity:1.0; stroke-linejoin: miter"> <path d="M765.3115,1024.6625C765.51825,1025.3079,766.2087,1025.6632,766.8545,1025.4564C767.49896,1025.2494,767.8545,1024.5592,767.64777,1023.91455C767.4409,1023.26855,766.7499,1022.9142,766.1053,1023.12085C765.4597,1023.3286,765.1048,1024.0192,765.3115,1024.6625 Z"/> </g> <g style="fill:rgb(255,255,255); fill-opacity:1.0; stroke-linejoin: miter"> <path d="M777.0906,1020.8861C777.30444,1021.55347,777.9987,1021.8828,778.63293,1021.6787C779.3003,1021.46436,779.6296,1020.77014,779.426,1020.1371C779.22327,1019.5029,778.51746,1019.1404,777.88446,1019.3435C777.24884,1019.5459,776.8878,1020.25195,777.0906,1020.8861 Z"/> </g> <g style="fill:rgb(255,255,255); fill-opacity:1.0; stroke-linejoin: miter"> <path d="M769.2824,1023.39C769.4891,1024.0358,770.17957,1024.3907,770.82404,1024.184C771.46967,1023.9773,771.8245,1023.28674,771.6173,1022.6421C771.4116,1021.9951,770.72076,1021.6404,770.0756,1021.84717C769.4311,1022.05383,769.0757,1022.74536,769.2824,1023.39 Z"/> </g> <g style="fill:rgb(255,255,255); fill-opacity:1.0; stroke-linejoin: miter"> <path d="M788.0568,1021.34155C788.26355,1021.9874,788.9546,1022.34216,789.59894,1022.1354C790.24426,1021.9287,790.5988,1021.2385,790.3921,1020.5941C790.186,1019.94946,789.49506,1019.5935,788.85,1019.8002C788.20483,1020.00696,787.8494,1020.69885,788.0568,1021.34155 Z"/> </g> <g style="fill:rgb(255,255,255); fill-opacity:1.0; stroke-linejoin: miter"> <path d="M780.2147,1023.85706C780.4215,1024.5027,781.1131,1024.8574,781.7583,1024.6506C782.4027,1024.4438,782.75757,1023.7533,782.5514,1023.109C782.34344,1022.46375,781.6537,1022.10864,781.00854,1022.3154C780.3634,1022.5222,780.00854,1023.2124,780.2147,1023.85706 Z"/> </g> <g style="fill:rgb(255,255,255); fill-opacity:1.0; stroke-linejoin: miter"> <path d="M791.9944,1020.07996C792.2012,1020.72424,792.89154,1021.079,793.53595,1020.87354C794.1812,1020.66675,794.5372,1019.9762,794.3292,1019.3303C794.12305,1018.6859,793.432,1018.3313,792.78754,1018.53796C792.1425,1018.74475,791.78766,1019.43494,791.9944,1020.07996 Z"/> </g> <g style="fill:rgb(255,255,255); fill-opacity:1.0; stroke-linejoin: miter"> <path d="M784.15295,1022.5939C784.35913,1023.2395,785.04944,1023.5968,785.69464,1023.3877C786.3397,1023.18066,786.69507,1022.4905,786.4878,1021.8458C786.28094,1021.2012,785.5913,1020.84546,784.94543,1021.05347C784.301,1021.25867,783.945,1021.9492,784.15295,1022.5939 Z"/> </g> <g style="fill:rgb(255,255,255); fill-opacity:1.0; stroke-linejoin: miter"> <path d="M772.3734,1026.3722C772.58075,1027.0168,773.2718,1027.3739,773.91614,1027.1675C774.56134,1026.9595,774.91614,1026.2676,774.7093,1025.6233C774.5026,1024.9789,773.8115,1024.6243,773.1665,1024.8307C772.5213,1025.0377,772.1666,1025.7279,772.3734,1026.3722 Z"/> </g> <g style="fill:rgb(255,255,255); fill-opacity:1.0; stroke-linejoin: miter"> <path d="M776.3441,1025.1001C776.55084,1025.7444,777.2413,1026.0991,777.88684,1025.8923C778.5322,1025.6857,778.88684,1024.9955,778.6801,1024.3511C778.4733,1023.7041,777.7823,1023.3491,777.1379,1023.5559C776.49286,1023.7639,776.1381,1024.4541,776.3441,1025.1001 Z"/> </g> <g style="fill:rgb(255,255,255); fill-opacity:1.0; stroke-linejoin: miter"> <path d="M768.4694,1027.6256C768.6832,1028.292,769.3781,1028.621,770.0118,1028.4182C770.67914,1028.2048,771.009,1027.5093,770.805,1026.8752C770.59094,1026.2091,769.8969,1025.8799,769.2626,1026.0826C768.62836,1026.2858,768.26587,1026.9911,768.4694,1027.6256 Z"/> </g> <g style="fill:rgb(0,0,0); fill-opacity:1.0; stroke-linejoin: miter"> <path d="M768.09686,1030.1359C772.15125,1029.3522,777.32935,1028.1692,782.9348,1026.371C788.0734,1024.7223,792.56104,1022.8782,796.0692,1021.31116C795.49243,1023.30054,794.67365,1025.1077,793.58,1026.7461C790.8185,1027.8911,787.6362,1029.0955,784.1657,1030.2072C780.2281,1031.4707,776.52716,1032.4366,773.27057,1033.1884C771.41797,1032.4572,769.70044,1031.4631,768.09686,1030.1359 Z"/> </g> <g style="fill:rgb(0,0,0); fill-opacity:1.0; stroke-linejoin: miter"> <path d="M760.0743,1018.431C759.8701,1017.9088,759.6875,1017.3412,759.50635,1016.7744C759.2709,1016.0393,759.07886,1015.32825,758.92065,1014.60596C763.1287,1013.9551,769.99194,1012.63806,777.7338,1010.15356C784.97424,1007.83215,790.8567,1005.17126,794.5678,1003.3196C794.848,1003.9656,795.0956,1004.6228,795.3208,1005.32324C795.5122,1005.9243,795.6723,1006.53564,795.85425,1007.1023C792.0091,1008.9973,786.18335,1011.60205,778.97626,1013.9144C771.2248,1016.3646,764.41504,1017.7378,760.0743,1018.431 Z"/> </g> <g style="fill:rgb(84,84,84); fill-opacity:1.0; stroke-linejoin: miter"> <path d="M783.90533,1042.3632C784.4727,1044.1316,786.3666,1045.1066,788.13654,1044.5375C789.9054,1043.972,790.8791,1042.0768,790.31195,1040.307C789.7446,1038.5381,787.85004,1037.5632,786.08057,1038.1322C784.3119,1038.7003,783.3381,1040.5929,783.90533,1042.3632 Z"/> </g> <g style="fill:rgb(58,58,56); fill-opacity:1.0; stroke-linejoin: miter"> <path d="M785.0068,1042.0094C785.3788,1043.1705,786.62244,1043.809,787.7831,1043.4374C788.9436,1043.0646,789.58307,1041.8218,789.21045,1040.6603C788.83844,1039.5005,787.59546,1038.8611,786.43427,1039.2323C785.2728,1039.6051,784.63416,1040.8483,785.0068,1042.0094 Z"/> </g> <g style="fill:rgb(0,0,0); fill-opacity:1.0; stroke-linejoin: miter"> <path d="M783.4804,1030.0236C790.7884,1027.6791,794.6789,1024.6665,794.6789,1024.6665L815.3932,1105.3124L815.3918,1105.3136C815.7011,1106.391,812.8439,1108.2632,808.97253,1109.5049L783.4804,1030.0236 Z"/> </g> <g style="fill:rgb(0,0,0); fill-opacity:1.0; stroke-linejoin: miter"> <path d="M771.25476,1032.1777C771.25476,1032.1777,776.1725,1032.3667,783.4804,1030.0236C790.7884,1027.6791,794.6789,1024.6665,794.6789,1024.6665L815.3932,1105.3124L815.3918,1105.3136C815.7011,1106.391,812.8439,1108.2632,808.97253,1109.5049C805.1019,1110.7466,801.687,1110.8846,801.3118,1109.8275L801.3118,1109.8282L771.25476,1032.1777 Z"/> </g> <g style="fill:rgb(255,192,165); fill-opacity:1.0; stroke-linejoin: miter"> <path d="M771.30646,1043.0009Q770.6199,1043.0009,770.15344,1043.1019Q766.2649,1043.413,764.89044,1047.2611Q763.7153,1049.8899,764.67285,1060.5393L764.0654,1061.101Q759.1235,1065.5931,759.0723,1068.2527Q758.77435,1071.2031,760.9599,1075.9146Q759.2467,1083.2947,760.4124,1087.4829Q761.2833,1090.1299,763.4005,1092.1465Q764.68066,1093.6111,769.9313,1097.1782Q772.39,1101.0206,773.9386,1102.2394Q775.74176,1103.702,776.97003,1104.1155Q779.3864,1104.9811,782.43835,1104.9811Q787.6803,1104.9811,794.795,1102.4272Q806.39545,1098.632,830.5661,1087.5255L829.9358,1051.5425L812.20703,1051.5679L804.4607,1043.2065Q791.9734,1046.5144,787.28345,1046.5144Q786.9401,1046.5144,786.6377,1046.4966Q784.35266,1046.4329,782.56415,1045.9285Q775.3921,1043.3622,774.90326,1043.3622Q774.849,1043.3622,774.8766,1043.3928Q772.661,1043.0009,771.30646,1043.0009 Z"/> </g> <g style="fill:rgb(255,255,255); fill-opacity:1.0; stroke-linejoin: miter"> <path d="M844.0341,1051.5831L831.92834,1051.5841L819.82263,1051.5831Q819.82263,1074.6843,819.82263,1097.7842Q831.92834,1097.7842,844.0341,1097.7842Q844.0341,1074.6843,844.0341,1051.5831 Z"/> </g> <g style="fill:rgb(255,255,255); fill-opacity:1.0; stroke-linejoin: miter"> <path d="M800.6494,1120.4736L800.6494,1120.4746L800.6501,1120.4736L800.6501,1120.4746L800.6494,1120.4736L800.6488,1120.4746L800.6494,1120.4736L800.6494,1120.4746"/> </g> <g style="fill:rgb(255,255,255); fill-opacity:1.0; stroke-linejoin: miter"> <path d="M802.2414,1140.697L802.2414,1140.6982L802.2414,1140.697L802.2414,1140.6982L802.2414,1140.697L802.2414,1140.6982L802.2414,1140.697L802.2414,1140.6982L802.2414,1140.697L802.24084,1140.6982L802.24084,1140.697L802.2414,1140.698"/> </g> <g style="fill:rgb(255,255,255); fill-opacity:1.0; stroke-linejoin: miter"> <path d="M843.75397,1017.6549L843.75397,1017.6555L843.75397,1017.65625L843.75397,1017.6549 Z"/> </g> <g style="fill:rgb(0,0,0); fill-opacity:1.0; stroke-linejoin: miter"> <path d="M1051.2026,1044.8628L1051.2026,1111.5887L833.8905,1110.6726L833.8905,1097.7855L833.8905,1051.5831L833.8905,1048.2535L1051.2026,1044.8628 Z"/> </g> <g style="fill:rgb(255,0,14); fill-opacity:1.0; stroke-linejoin: miter"> <path d="M792.81757,1029.046L792.83984,1029.047Q793.05566,1029.0344,793.1424,1029.0305Q793.0236,1029.0371,792.81757,1029.046"/> </g> <g style="fill:rgb(222,63,0); fill-opacity:1.0; stroke-linejoin: miter"> <path d="M800.7636,1022.5145L782.7569,1027.7927L764.7508,1033.0681L770.997,1054.383L807.0106,1043.8304Q803.88715,1033.1719,800.7636,1022.5145"/> </g> <g style="fill:rgb(0,0,0); fill-opacity:1.0; stroke-linejoin: miter"> <path d="M794.1609,1086.8132C790.54333,1075.5344,780.25555,1070.9963,770.3779,1074.1652C760.5003,1077.3323,754.7723,1087.0084,758.38965,1098.2875C762.8632,1112.2332,773.59076,1118.1406,783.4671,1114.9719C793.34326,1111.8058,798.6337,1100.7617,794.1609,1086.8132 Z"/> </g> <g style="fill:rgb(255,255,255); fill-opacity:1.0; stroke-linejoin: miter"> <path d="M770.1731,1077.5404C770.3793,1078.1876,771.071,1078.5424,771.71545,1078.3356C772.3605,1078.1272,772.71594,1077.437,772.50854,1076.7926C772.3025,1076.147,771.612,1075.7936,770.967,1075.999C770.32263,1076.2058,769.9664,1076.896,770.1731,1077.5404 Z"/> </g> <g style="fill:rgb(255,255,255); fill-opacity:1.0; stroke-linejoin: miter"> <path d="M774.1109,1076.2771C774.3175,1076.9241,775.0086,1077.2792,775.6525,1077.072C776.29816,1076.8644,776.6537,1076.1737,776.44684,1075.529C776.2401,1074.8834,775.5491,1074.5288,774.904,1074.7355C774.2587,1074.9423,773.90405,1075.6324,774.1109,1076.2771 Z"/> </g> <g style="fill:rgb(255,255,255); fill-opacity:1.0; stroke-linejoin: miter"> <path d="M780.53,1082.8687C780.73724,1083.513,781.4271,1083.868,782.0722,1083.6609C782.718,1083.4545,783.0727,1082.763,782.8654,1082.1193C782.6586,1081.4746,781.9682,1081.1187,781.3231,1081.3243C780.678,1081.5311,780.32263,1082.2227,780.53,1082.8687 Z"/> </g> <g style="fill:rgb(255,255,255); fill-opacity:1.0; stroke-linejoin: miter"> <path d="M772.68854,1085.3839C772.8953,1086.0282,773.5857,1086.3832,774.2306,1086.1765C774.8766,1085.9697,775.23126,1085.2792,775.02386,1084.6335C774.81836,1083.9889,774.12665,1083.6342,773.4823,1083.841C772.83716,1084.0476,772.48175,1084.7382,772.68854,1085.3839 Z"/> </g> <g style="fill:rgb(255,255,255); fill-opacity:1.0; stroke-linejoin: miter"> <path d="M784.467,1081.6051C784.6744,1082.2511,785.3648,1082.6055,786.0097,1082.3987C786.65497,1082.1923,787.00977,1081.4991,786.8029,1080.8557C786.5962,1080.2091,785.90576,1079.8555,785.26013,1080.0635C784.615,1080.2703,784.25964,1080.9608,784.467,1081.6051 Z"/> </g> <g style="fill:rgb(255,255,255); fill-opacity:1.0; stroke-linejoin: miter"> <path d="M776.6255,1084.119C776.8328,1084.765,777.5232,1085.1196,778.16846,1084.913C778.81287,1084.7062,779.1682,1084.0156,778.9616,1083.3713C778.7548,1082.7257,778.0644,1082.3706,777.41986,1082.5774C776.7736,1082.7854,776.4187,1083.4746,776.6255,1084.119 Z"/> </g> <g style="fill:rgb(255,255,255); fill-opacity:1.0; stroke-linejoin: miter"> <path d="M779.31,1079.0645C779.5168,1079.7085,780.20776,1080.0648,780.8522,1079.858C781.4974,1079.6514,781.852,1078.961,781.64526,1078.3138C781.43854,1077.6692,780.74756,1077.3148,780.1031,1077.5215C779.458,1077.7283,779.1032,1078.4202,779.31,1079.0645 Z"/> </g> <g style="fill:rgb(255,255,255); fill-opacity:1.0; stroke-linejoin: miter"> <path d="M771.4685,1081.5793C771.6752,1082.224,772.36566,1082.5787,773.0114,1082.372C773.65576,1082.1655,774.0106,1081.4746,773.80383,1080.8307C773.5972,1080.186,772.9061,1079.829,772.2616,1080.0354C771.6166,1080.2422,771.26105,1080.9341,771.4685,1081.5793 Z"/> </g> <g style="fill:rgb(255,255,255); fill-opacity:1.0; stroke-linejoin: miter"> <path d="M775.4054,1080.3162C775.61285,1080.9622,776.3033,1081.3168,776.94775,1081.1088C777.5933,1080.9033,777.94836,1080.2131,777.74084,1079.5671C777.53546,1078.9227,776.84375,1078.5677,776.19934,1078.7745C775.5541,1078.9812,775.1987,1079.6715,775.4054,1080.3162 Z"/> </g> <g style="fill:rgb(255,255,255); fill-opacity:1.0; stroke-linejoin: miter"> <path d="M766.3032,1078.7834C766.51,1079.4281,767.2003,1079.7827,767.84546,1079.5757C768.4905,1079.3693,768.8452,1078.6787,768.63794,1078.0348C768.4318,1077.3884,767.7408,1077.034,767.0964,1077.2408C766.4505,1077.4475,766.0959,1078.1381,766.3032,1078.7834 Z"/> </g> <g style="fill:rgb(255,255,255); fill-opacity:1.0; stroke-linejoin: miter"> <path d="M764.8464,1087.8981C765.0538,1088.5424,765.7435,1088.8984,766.3888,1088.6903C767.0338,1088.485,767.38855,1087.7944,767.18317,1087.1487C766.9751,1086.5044,766.28546,1086.1484,765.6401,1086.3564C764.9958,1086.5632,764.6403,1087.2534,764.8464,1087.8981 Z"/> </g> <g style="fill:rgb(255,255,255); fill-opacity:1.0; stroke-linejoin: miter"> <path d="M768.8178,1086.626C769.02466,1087.2699,769.715,1087.6246,770.35956,1087.4182C771.0045,1087.2098,771.3607,1086.5197,771.1539,1085.875C770.94653,1085.2292,770.25616,1084.8746,769.611,1085.0813C768.9659,1085.2885,768.6111,1085.9786,768.8178,1086.626 Z"/> </g> <g style="fill:rgb(255,255,255); fill-opacity:1.0; stroke-linejoin: miter"> <path d="M760.9433,1089.15C761.15704,1089.8171,761.85065,1090.1467,762.4849,1089.9424C763.15234,1089.7294,763.4822,1089.0338,763.2787,1088.4008C763.0649,1087.735,762.37006,1087.4054,761.73645,1087.6072C761.1021,1087.8099,760.739,1088.517,760.9433,1089.15 Z"/> </g> <g style="fill:rgb(255,255,255); fill-opacity:1.0; stroke-linejoin: miter"> <path d="M763.6271,1084.0935C763.83307,1084.7393,764.52484,1085.0942,765.16925,1084.8875C765.81445,1084.6808,766.1692,1083.9902,765.96246,1083.3458C765.75574,1082.7002,765.0646,1082.3452,764.42017,1082.5519C763.7751,1082.7587,763.4196,1083.4492,763.6271,1084.0935 Z"/> </g> <g style="fill:rgb(255,255,255); fill-opacity:1.0; stroke-linejoin: miter"> <path d="M767.5979,1082.8198C767.80396,1083.4645,768.49567,1083.8191,769.14014,1083.6154C769.7853,1083.407,770.14056,1082.7155,769.93317,1082.071C769.72644,1081.4264,769.0367,1081.0718,768.3917,1081.2784C767.7459,1081.4852,767.3911,1082.1744,767.5979,1082.8198 Z"/> </g> <g style="fill:rgb(255,255,255); fill-opacity:1.0; stroke-linejoin: miter"> <path d="M783.70636,1086.1177C783.91376,1086.7637,784.60425,1087.1184,785.24915,1086.9113C785.89374,1086.7048,786.24915,1086.0143,786.04236,1085.3683C785.8357,1084.724,785.14514,1084.3693,784.5009,1084.576C783.8543,1084.7828,783.49976,1085.4734,783.70636,1086.1177 Z"/> </g> <g style="fill:rgb(255,255,255); fill-opacity:1.0; stroke-linejoin: miter"> <path d="M775.8649,1088.6329C776.07227,1089.2772,776.76276,1089.6335,777.4077,1089.4255C778.05237,1089.2188,778.4077,1088.5286,778.2009,1087.8839C777.99475,1087.2383,777.3038,1086.8835,776.6586,1087.0916C776.0143,1087.2966,775.65814,1087.9873,775.8649,1088.6329 Z"/> </g> <g style="fill:rgb(255,255,255); fill-opacity:1.0; stroke-linejoin: miter"> <path d="M787.6439,1084.8541C787.8507,1085.5001,788.541,1085.8549,789.1868,1085.6481C789.832,1085.4413,790.1868,1084.7507,789.98004,1084.1068C789.7733,1083.4604,789.0835,1083.1061,788.43774,1083.3129C787.79193,1083.5195,787.4379,1084.2098,787.6439,1084.8541 Z"/> </g> <g style="fill:rgb(255,255,255); fill-opacity:1.0; stroke-linejoin: miter"> <path d="M779.80255,1087.3694C780.0093,1088.014,780.7003,1088.37,781.3454,1088.1633C781.98987,1087.9565,782.34534,1087.266,782.1387,1086.6204C781.9318,1085.976,781.2421,1085.6213,780.59564,1085.828C779.9505,1086.0344,779.5958,1086.724,779.80255,1087.3694 Z"/> </g> <g style="fill:rgb(255,255,255); fill-opacity:1.0; stroke-linejoin: miter"> <path d="M768.0228,1091.1471C768.2379,1091.8156,768.932,1092.1451,769.56635,1091.941C770.2339,1091.7263,770.56305,1091.0322,770.35956,1090.3981C770.14575,1089.7306,769.45087,1089.4014,768.8172,1089.6055C768.1831,1089.8096,767.81995,1090.5137,768.0228,1091.1471 Z"/> </g> <g style="fill:rgb(255,255,255); fill-opacity:1.0; stroke-linejoin: miter"> <path d="M760.1826,1093.6624C760.3901,1094.3093,761.07983,1094.6616,761.72424,1094.455C762.37006,1094.2495,762.72485,1093.558,762.518,1092.9133C762.3113,1092.2687,761.62024,1091.914,760.9758,1092.1207C760.3301,1092.3274,759.9753,1093.018,760.1826,1093.6624 Z"/> </g> <g style="fill:rgb(255,255,255); fill-opacity:1.0; stroke-linejoin: miter"> <path d="M771.9611,1089.8849C772.1754,1090.5524,772.8698,1090.8816,773.504,1090.6775C774.17084,1090.4645,774.50055,1089.7689,774.29706,1089.1359C774.0828,1088.4694,773.38855,1088.1378,772.7543,1088.3419C772.12006,1088.546,771.7575,1089.2521,771.9611,1089.8849 Z"/> </g> <g style="fill:rgb(255,255,255); fill-opacity:1.0; stroke-linejoin: miter"> <path d="M764.1535,1092.3901C764.36017,1093.0345,765.05066,1093.3895,765.6951,1093.1825C766.3401,1092.9757,766.6956,1092.2855,766.48816,1091.6409C766.28217,1090.9939,765.59106,1090.6392,764.94653,1090.846C764.3009,1091.0549,763.94604,1091.7443,764.1535,1092.3901 Z"/> </g> <g style="fill:rgb(255,255,255); fill-opacity:1.0; stroke-linejoin: miter"> <path d="M792.374,1092.8328C792.5814,1093.4774,793.2712,1093.832,793.9165,1093.624C794.5614,1093.4172,794.91614,1092.7267,794.7094,1092.0824C794.50287,1091.4381,793.8123,1091.0834,793.16724,1091.2888C792.5228,1091.4968,792.1666,1092.1884,792.374,1092.8328 Z"/> </g> <g style="fill:rgb(255,255,255); fill-opacity:1.0; stroke-linejoin: miter"> <path d="M784.53265,1095.3469C784.7393,1095.9926,785.4299,1096.3473,786.0749,1096.1409C786.72003,1095.9341,787.07544,1095.2435,786.868,1094.5992C786.6613,1093.9523,785.9708,1093.5975,785.32587,1093.804C784.68,1094.0111,784.3252,1094.7026,784.53265,1095.3469 Z"/> </g> <g style="fill:rgb(255,255,255); fill-opacity:1.0; stroke-linejoin: miter"> <path d="M776.6912,1097.8635C776.8979,1098.5078,777.5884,1098.8628,778.2336,1098.6558C778.87805,1098.4493,779.234,1097.7588,779.0266,1097.1134C778.8199,1096.4688,778.12946,1096.1141,777.4843,1096.3208C776.84,1096.5276,776.48315,1097.2181,776.6912,1097.8635 Z"/> </g> <g style="fill:rgb(255,255,255); fill-opacity:1.0; stroke-linejoin: miter"> <path d="M788.4703,1094.0847C788.67645,1094.729,789.36743,1095.0841,790.01245,1094.8787C790.6577,1094.6705,791.0123,1093.9803,790.8055,1093.3357C790.5988,1092.6914,789.90845,1092.3337,789.26404,1092.5404C788.6177,1092.7476,788.26294,1093.4391,788.4703,1094.0847 Z"/> </g> <g style="fill:rgb(255,255,255); fill-opacity:1.0; stroke-linejoin: miter"> <path d="M780.6282,1096.6002C780.8349,1097.2446,781.52594,1097.5996,782.1705,1097.3928C782.8156,1097.1862,783.171,1096.4956,782.96436,1095.8499C782.75757,1095.2069,782.0672,1094.8502,781.42126,1095.0573C780.77686,1095.264,780.4215,1095.9546,780.6282,1096.6002 Z"/> </g> <g style="fill:rgb(255,255,255); fill-opacity:1.0; stroke-linejoin: miter"> <path d="M768.8497,1100.3773C769.0572,1101.022,769.747,1101.3771,770.3915,1101.1699C771.0365,1100.9633,771.39264,1100.2743,771.1846,1099.6283C770.9785,1098.984,770.288,1098.628,769.64307,1098.8347C768.99774,1099.0415,768.64307,1099.7317,768.8497,1100.3773 Z"/> </g> <g style="fill:rgb(255,255,255); fill-opacity:1.0; stroke-linejoin: miter"> <path d="M761.0084,1102.893C761.2151,1103.5376,761.9056,1103.8922,762.55054,1103.6855C763.1964,1103.4788,763.54987,1102.7882,763.34375,1102.1439C763.1363,1101.4995,762.4459,1101.1432,761.8015,1101.35C761.15643,1101.5566,760.8016,1102.2472,761.0084,1102.893 Z"/> </g> <g style="fill:rgb(255,255,255); fill-opacity:1.0; stroke-linejoin: miter"> <path d="M772.82056,1099.1025C773.02734,1099.7495,773.7179,1100.1046,774.3628,1099.8978C775.0086,1099.6898,775.36334,1098.9991,775.15594,1098.3552C774.94867,1097.7092,774.2587,1097.3545,773.6138,1097.5613C772.9686,1097.7677,772.61383,1098.4586,772.82056,1099.1025 Z"/> </g> <g style="fill:rgb(255,255,255); fill-opacity:1.0; stroke-linejoin: miter"> <path d="M764.9454,1101.6294C765.1598,1102.2971,765.85406,1102.6263,766.4877,1102.422C767.1556,1102.209,767.48486,1101.5157,767.2813,1100.8804C767.0669,1100.2142,766.3728,1099.8849,765.73914,1100.0878C765.1048,1100.2921,764.7317,1100.9633,764.9454,1101.6294 Z"/> </g> <g style="fill:rgb(255,255,255); fill-opacity:1.0; stroke-linejoin: miter"> <path d="M787.72046,1098.6304C787.92725,1099.2747,788.6177,1099.631,789.2628,1099.4246C789.9072,1099.2175,790.2621,1098.5256,790.05536,1097.8816C789.8486,1097.2369,789.15826,1096.8823,788.5138,1097.089C787.8686,1097.2954,787.51245,1097.986,787.72046,1098.6304 Z"/> </g> <g style="fill:rgb(255,255,255); fill-opacity:1.0; stroke-linejoin: miter"> <path d="M779.8786,1101.1459C780.08527,1101.7902,780.7763,1102.1449,781.4206,1101.9385C782.0658,1101.7317,782.4206,1101.0411,782.2138,1100.3969C782.00714,1099.7512,781.31665,1099.3978,780.6717,1099.6029C780.0272,1099.8097,779.67236,1100.5002,779.8786,1101.1459 Z"/> </g> <g style="fill:rgb(255,255,255); fill-opacity:1.0; stroke-linejoin: miter"> <path d="M791.657,1097.3671C791.8637,1098.0131,792.5547,1098.3678,793.1998,1098.161C793.8449,1097.954,794.20026,1097.2637,793.9935,1096.619C793.78687,1095.9734,793.09515,1095.6188,792.45,1095.8254C791.8049,1096.0332,791.45026,1096.7224,791.657,1097.3671 Z"/> </g> <g style="fill:rgb(255,255,255); fill-opacity:1.0; stroke-linejoin: miter"> <path d="M783.81537,1099.8827C784.02216,1100.5295,784.71326,1100.8843,785.3584,1100.6776C786.00336,1100.4681,786.3589,1099.7793,786.1515,1099.1333C785.94543,1098.489,785.2537,1098.1343,784.60864,1098.3407C783.9642,1098.5474,783.6087,1099.238,783.81537,1099.8827 Z"/> </g> <g style="fill:rgb(255,255,255); fill-opacity:1.0; stroke-linejoin: miter"> <path d="M772.03766,1103.66C772.2514,1104.3289,772.94507,1104.6577,773.5792,1104.455C774.2467,1104.2394,774.5766,1103.5461,774.37244,1102.9124C774.16895,1102.2776,773.4638,1101.9156,772.8301,1102.1184C772.19666,1102.3225,771.83405,1103.027,772.03766,1103.66 Z"/> </g> <g style="fill:rgb(255,255,255); fill-opacity:1.0; stroke-linejoin: miter"> <path d="M764.19617,1106.1763C764.40234,1106.8209,765.0934,1107.1757,765.7379,1106.9689C766.3822,1106.7609,766.7391,1106.0706,766.531,1105.4259C766.32416,1104.7816,765.63385,1104.4272,764.9894,1104.6323C764.34424,1104.8417,763.9882,1105.5322,764.19617,1106.1763 Z"/> </g> <g style="fill:rgb(255,255,255); fill-opacity:1.0; stroke-linejoin: miter"> <path d="M775.974,1102.3992C776.1891,1103.0653,776.8827,1103.3945,777.51697,1103.1918C778.1843,1102.977,778.5137,1102.283,778.3101,1101.6484C778.1071,1101.0148,777.4014,1100.6531,776.7684,1100.8549C776.1336,1101.059,775.7711,1101.7634,775.974,1102.3992 Z"/> </g> <g style="fill:rgb(255,255,255); fill-opacity:1.0; stroke-linejoin: miter"> <path d="M768.1665,1104.9028C768.37317,1105.5471,769.0636,1105.9021,769.7086,1105.6954C770.3537,1105.4886,770.70917,1104.7985,770.5017,1104.1542C770.29504,1103.5095,769.60455,1103.1534,768.95966,1103.3602C768.315,1103.5669,767.959,1104.2574,768.1665,1104.9028 Z"/> </g> <g style="fill:rgb(255,255,255); fill-opacity:1.0; stroke-linejoin: miter"> <path d="M786.94073,1102.8533C787.14746,1103.4993,787.83795,1103.8566,788.4824,1103.6495C789.12756,1103.4431,789.48224,1102.7512,789.2756,1102.1052C789.0695,1101.4612,788.37897,1101.1062,787.734,1101.313C787.0888,1101.5194,786.73285,1102.2102,786.94073,1102.8533 Z"/> </g> <g style="fill:rgb(255,255,255); fill-opacity:1.0; stroke-linejoin: miter"> <path d="M779.09875,1105.3688C779.306,1106.0157,779.99664,1106.3705,780.64154,1106.1637C781.2862,1105.957,781.6415,1105.2654,781.4354,1104.6207C781.228,1103.9751,780.53754,1103.6205,779.89246,1103.8295C779.2474,1104.0336,778.89264,1104.7241,779.09875,1105.3688 Z"/> </g> <g style="fill:rgb(255,255,255); fill-opacity:1.0; stroke-linejoin: miter"> <path d="M790.87775,1101.5911C791.08514,1102.2357,791.77563,1102.593,792.42004,1102.3862C793.06506,1102.1796,793.4207,1101.488,793.2132,1100.8424C793.00714,1100.1978,792.3154,1099.843,791.6716,1100.0497C791.02576,1100.2565,790.6711,1100.9467,790.87775,1101.5911 Z"/> </g> <g style="fill:rgb(255,255,255); fill-opacity:1.0; stroke-linejoin: miter"> <path d="M783.0364,1104.1079C783.24243,1104.7522,783.93353,1105.1069,784.57855,1104.9001C785.2238,1104.6935,785.5784,1104.0018,785.3717,1103.3602C785.1649,1102.7129,784.4751,1102.3572,783.829,1102.5667C783.1845,1102.773,782.82965,1103.4636,783.0364,1104.1079 Z"/> </g> <g style="fill:rgb(255,255,255); fill-opacity:1.0; stroke-linejoin: miter"> <path d="M771.25793,1107.8854C771.4647,1108.53,772.155,1108.886,772.79944,1108.678C773.4447,1108.4725,773.8001,1107.782,773.5927,1107.135C773.38654,1106.4904,772.6955,1106.1356,772.0504,1106.3438C771.40533,1106.5504,771.04987,1107.241,771.25793,1107.8854 Z"/> </g> <g style="fill:rgb(255,255,255); fill-opacity:1.0; stroke-linejoin: miter"> <path d="M775.228,1106.6118C775.4349,1107.2565,776.1252,1107.6108,776.7704,1107.4042C777.4161,1107.1974,777.77094,1106.5072,777.56354,1105.8625C777.35675,1105.2179,776.6664,1104.8618,776.0219,1105.069C775.37683,1105.2754,775.022,1105.966,775.228,1106.6118 Z"/> </g> <g style="fill:rgb(255,255,255); fill-opacity:1.0; stroke-linejoin: miter"> <path d="M767.3527,1109.1373C767.56793,1109.8035,768.2614,1110.1354,768.89575,1109.9309C769.5633,1109.7166,769.8926,1109.0223,769.68884,1108.388C769.4752,1107.7206,768.7803,1107.3912,768.14594,1107.5957C767.51245,1107.7985,767.1494,1108.5043,767.3527,1109.1373 Z"/> </g> <g style="fill:rgb(0,0,0); fill-opacity:1.0; stroke-linejoin: miter"> <path d="M766.9809,1111.6503C771.0352,1110.8639,776.2126,1109.6809,781.81885,1107.883C786.9574,1106.2354,791.4444,1104.3909,794.9533,1102.8252C794.37634,1104.8124,793.5578,1106.6218,792.4647,1108.2592C789.70294,1109.4028,786.5197,1110.6075,783.0491,1111.7216C779.11206,1112.9838,775.41064,1113.951,772.155,1114.7001C770.3014,1113.97,768.5837,1112.9749,766.9809,1111.6503 Z"/> </g> <g style="fill:rgb(0,0,0); fill-opacity:1.0; stroke-linejoin: miter"> <path d="M758.9582,1099.9441C758.7533,1099.419,758.57153,1098.8549,758.38965,1098.2875C758.1541,1097.552,757.9628,1096.8403,757.80444,1096.1204C762.01196,1095.4695,768.876,1094.1501,776.6179,1091.6666C783.85754,1089.3439,789.7401,1086.6841,793.45184,1084.8313C793.73193,1085.4783,793.97955,1086.1355,794.2047,1086.835C794.3962,1087.436,794.55634,1088.0474,794.73816,1088.6151C790.893,1090.51,785.0681,1093.1151,777.8597,1095.4261C770.108,1097.8767,763.2984,1099.2505,758.9582,1099.9441 Z"/> </g> <g style="fill:rgb(84,84,84); fill-opacity:1.0; stroke-linejoin: miter"> <path d="M782.78937,1123.8745C783.3566,1125.6447,785.2498,1126.6183,787.01996,1126.0503C788.78864,1125.4839,789.76373,1123.5898,789.1952,1121.821C788.62915,1120.0509,786.73395,1119.0759,784.96466,1119.6443C783.1958,1120.2117,782.22217,1122.1057,782.78937,1123.8745 Z"/> </g> <g style="fill:rgb(58,58,56); fill-opacity:1.0; stroke-linejoin: miter"> <path d="M783.8901,1123.5221C784.26276,1124.6836,785.5064,1125.3217,786.66693,1124.9502C787.8279,1124.5767,788.46655,1123.3362,788.09436,1122.1733C787.72186,1121.0118,786.4795,1120.3728,785.3175,1120.7454C784.15686,1121.1179,783.51825,1122.3623,783.8901,1123.5221 Z"/> </g> <g style="fill:rgb(0,0,0); fill-opacity:1.0; stroke-linejoin: miter"> <path d="M782.3645,1111.5353C789.6718,1109.1935,793.5622,1106.178,793.5622,1106.178L814.2764,1186.8245L814.27576,1186.8254C814.5852,1187.9027,811.7272,1189.7772,807.8561,1191.0189L782.3645,1111.5353 Z"/> </g> <g style="fill:rgb(0,0,0); fill-opacity:1.0; stroke-linejoin: miter"> <path d="M770.13873,1113.6908C770.13873,1113.6908,775.0557,1113.8794,782.3645,1111.5353C789.6718,1109.1935,793.5622,1106.178,793.5622,1106.178L814.2764,1186.8245L814.27576,1186.8254C814.5852,1187.9027,811.7272,1189.7772,807.8561,1191.0189C803.98535,1192.258,800.5709,1192.3961,800.1952,1191.3394L800.1964,1191.3419L770.13873,1113.6908 Z"/> </g> <g style="fill:rgb(255,192,165); fill-opacity:1.0; stroke-linejoin: miter"> <path d="M770.1904,1124.5153Q769.5038,1124.5153,769.03796,1124.615Q765.1483,1124.9247,763.7745,1128.7725Q762.5985,1131.4014,763.55615,1142.051L762.9492,1142.6138Q758.00806,1147.1049,757.95636,1149.7657Q757.6578,1152.7169,759.84314,1157.4263Q758.1306,1164.8064,759.29694,1168.9948Q760.16736,1171.643,762.28455,1173.6578Q763.5645,1175.1241,768.81537,1178.69Q771.2739,1182.5325,772.82196,1183.7515Q774.62573,1185.2137,775.85406,1185.627Q778.2712,1186.4935,781.32245,1186.4935Q786.56433,1186.4935,793.67847,1183.9386Q805.2794,1180.1447,829.45074,1169.0383L828.8202,1133.054L811.09094,1133.0793L803.344,1124.7184Q790.85724,1128.0284,786.1674,1128.0284Q785.82355,1128.0284,785.5211,1128.0093Q783.236,1127.9452,781.4483,1127.4413Q774.2753,1124.8735,773.7874,1124.8735Q773.7331,1124.8735,773.7598,1124.9043Q771.5458,1124.5153,770.1904,1124.5153 Z"/> </g> <g style="fill:rgb(255,255,255); fill-opacity:1.0; stroke-linejoin: miter"> <path d="M842.91876,1133.0958L830.8131,1133.0968L818.70667,1133.0958Q818.7073,1156.1974,818.70667,1179.2963Q830.8131,1179.2963,842.91876,1179.2963Q842.91876,1156.1974,842.91876,1133.0958 Z"/> </g> <g style="fill:rgb(255,255,255); fill-opacity:1.0; stroke-linejoin: miter"> <path d="M799.53326,1201.9854L799.534,1201.986L799.534,1201.9854L799.534,1201.986L799.53326,1201.9854L799.53326,1201.986L799.53326,1201.9854L799.53326,1201.986"/> </g> <g style="fill:rgb(255,255,255); fill-opacity:1.0; stroke-linejoin: miter"> <path d="M801.1254,1222.2087L801.1254,1222.2113L801.1254,1222.2087L801.1254,1222.2113L801.1254,1222.2087L801.1254,1222.2113L801.1254,1222.2087L801.1254,1222.2113L801.1254,1222.2087L801.12476,1222.2113L801.12476,1222.2087L801.1254,1222.2094"/> </g> <g style="fill:rgb(255,255,255); fill-opacity:1.0; stroke-linejoin: miter"> <path d="M842.638,1099.1676L842.638,1099.1686L842.638,1099.1676L842.638,1099.1686 Z"/> </g> <g style="fill:rgb(34,43,50); fill-opacity:1.0; stroke-linejoin: miter"> <path d="M1051.2026,1125.434L1051.2026,1187.8951L832.7745,1192.1827L832.7745,1179.2963L832.779,1179.2972L832.7745,1133.0958L832.7745,1129.7653L1051.2026,1125.434 Z"/> </g> <g style="fill:rgb(255,0,14); fill-opacity:1.0; stroke-linejoin: miter"> <path d="M791.7015,1110.56L791.72394,1110.5574Q791.9395,1110.5475,792.02637,1110.5422Q791.9083,1110.5488,791.7015,1110.56"/> </g> <g style="fill:rgb(33,75,108); fill-opacity:1.0; stroke-linejoin: miter"> <path d="M799.64703,1104.0264L781.6415,1109.3044L763.63477,1114.5829L769.881,1135.8961L805.89386,1125.3435Q802.7704,1114.6849,799.64703,1104.0264"/> </g> </g> </svg>