<?xml version="1.0" encoding="UTF-8"?>
<svg viewBox="0 0 1265 790" xmlns="http://www.w3.org/2000/svg">
 <path d="m2 395v-395h1265v790h-1265v-395zm635.2-309.2 0.29999 0.2 0.29999 0.2 0.20001 0.3 1.5 0.5 1.5 0.5v0.5l0.5 1q0.5 1 14 0.2 13.5-0.7 24.5-0.2t12 1 1.5 0.8l0.5 0.2 1 0.2 1 0.3 0.20001 0.3 0.29999 0.2 0.29999 0.2 0.20001 0.3 1 0.5q1 0.5 5.2-0.2 4.3-0.8 4-1.8-0.20001-1 4.3-2.5t4.5-2.5 7-3.8q7-2.7 12.8-4 5.7-1.2 6.4-2.4 0.79999-1.3 3-2 2.3-0.8 3-2 0.79999-1.3 3.6-2 2.7-0.8 4-2.6 1.2-1.7 4.2-2 3-0.2 3-1.2t6.5-4.8q6.5-3.7 10.5-4.2t6-2 8-1 16.8 7.8q10.7 7.2 13.2 8.2t5.2 4.5q2.8 3.5 5 4.5 2.3 1 2.6 2 0.20001 1 3 3 2.7 2 2.7 12.5t-0.5 29-2 22.5 1.2 12.2q2.8 8.3 4 9 1.3 0.8 2.8 3.8t9 12.5 11.2 15.5q3.8 6 5 6.5 1.3 0.5 6 9.3 4.8 8.7 6 9.4 1.3 0.8 2 2.6 0.79999 1.7 2.6 2.4 1.7 0.8 3 3 1.2 2.3 10.4 4.6 9.3 2.2 11.6 2 2.2-0.3 7.7 1.4 5.5 1.8 5.5 2.8t3 1 4.2 8.5q1.3 8.5 2.8 10.5t1.2 9.2q-0.20001 7.3 0.79999 7.6 1 0.20001 1 1.7t-3.8 3.5q-3.7 2-3.4 3.5 0.20001 1.5-2.6 3-2.7 1.5-3.2 4t0.20001 3.3q0.79999 0.70001-0.70001 1-1.5 0.20001-1.5 1.7t-1 1.7l-2 0.59998-1 0.20001 1.8 1.5q1.7 1.5 1 3.7-0.79999 2.3 1 3 1.7 0.79999 2.7 2.8t1.3 1q0.20001-1 3 0 2.7 1 4.2 2.5t0.79999 7.3q-0.79999 5.7 1 7 1.7 1.2-2 6.4-3.8 5.3-8 6.6-4.3 1.2-6.3 5.2t-3.5 5-1.5 4.5-1.5 6.5 0 5.5 1 8.5-3.2 6.5q-2.8 0.5-2.3 1.7 0.5 1.3 1.5 1.6 1 0.20001 0.79999 3.7l-0.29999 3.5h-0.5v0.5l-1.8 0.70001q-1.7 0.79999-1.4 2 0.20001 1.3 1.7 1.6 1.5 0.20001 1.5 1.2t-3 1.8q-3 0.70001-1.8 3 1.3 2.2 0.59998 4-0.79999 1.7-1.6 2.4-0.70001 0.79999-1 1.6-0.20001 0.70001-1.7 1-1.5 0.20001-0.70001 1.7 0.70001 1.5 1 4l0.20001 2.5-2-0.20001q-2-0.29999-3.8-1.6l-1.7-1.2-0.5 4q-0.5 4-2.8 6.2-2.2 2.3-3.7 2.6-1.5 0.20001-1.5 1.2t0.79999 1.5q0.70001 0.5 1 1.3 0.20001 0.70001-1.3 2.4-1.5 1.8-0.70001 2.3 0.70001 0.5 0.40002 1.5-0.20001 1 2.8 1.2l3 0.29999 0.20001 0.29999 0.29999 0.20001 0.29999 1 0.20001 1h-2l-0.5 0.79999q-0.5 0.70001-1.3 1-0.70001 0.20001-2.2 4.7t-1.5 7.5 0.29999 4q0.20001 1-1 1.5-1.3 0.5-1.6 1.5-0.20001 1-1.2 1t-1.2 1.5q-0.29999 1.5-0.59998 2.5l-0.20001 1-2 0.20001-2 0.29999-0.20001 0.29999-0.29999 0.20001-0.29999 0.20001-0.20001 0.29999-0.20001 0.29999-0.29999 0.20001-0.29999 0.20001-0.20001 0.29999-0.20001 0.29999-0.29999 0.20001h-0.5l-0.20001 0.5q-0.29999 0.5-0.59998 0.70001-0.20001 0.29999 0.29999 4.6 0.5 4.2-2 4.7t-1.5 5.5-2 5.5-2.8 2q0.29999 1.5 2 2 1.8 0.5 1.3 2.5t-1.5 2.2q-1 0.29999-2 2-1 1.8 0 2 1 0.29999-0.5 0.59998-1.5 0.20001-0.70001 1.7 0.70001 1.5-1 3.3-1.8 1.7-2 2.4-0.29999 0.79999-1.6 1.3-1.2 0.5-1 1.5 0.29999 1-0.40002 3.5-0.79999 2.5-1.8 2.5t-1-1-1-0.79999q-1 0.29999-1 2.6 0 2.2-2.5 2-2.5-0.29999-4.5 1.7t-5 3l-3 1-0.20001 0.29999-0.29999 0.20001-0.29999 0.20001-0.20001 0.29999-0.20001 0.29999-0.29999 0.20001-0.29999 0.20001-0.20001 0.29999-1 0.29999-1 0.20001 0.20001-3q0.29999-3 0.29999-4.5v-1.5l-0.29999-0.20001-0.20001-0.29999-3-0.29999-3-0.20001v2l-1.5-0.20001-1.5-0.29999-0.20001-0.29999-0.29999-0.20001-0.29999 1.5-0.20001 1.5v0.20001q0 0.29999 0.20001 0.59998 0.29999 0.20001-1 3.4-1.2 3.3-3 3.6-1.7 0.20001-2.7 0.20001t0.29999 2.5q1.2 2.5-7.6 6-8.7 3.5-8 8.3 0.79999 4.7-0.20001 4.2t-2.2 2.8q-1.3 3.2-4.3 7.7t-4.7 5.3q-1.8 0.70001-2.8 3.4-1 2.8-2.5 3-1.5 0.29999-3 2-1.5 1.8-4 2.6-2.5 0.70001-3.5 3.4-1 2.8-2 3-1 0.29999-1.5 3.3t-1.7 6.3l-1.3 3.2-0.29999-0.20001q-0.20001-0.29999-1.4-1-1.3-0.79999-4-1l-2.8-0.29999-0.20001 0.29999q-0.29999 0.20001-0.79999 3.7t-2.2 4q-1.8 0.5-2 2.5-0.29999 2-1.6 2.5-1.2 0.5-1 4 0.29999 3.5-7 3.7-7.2 0.29999-8.7-0.70001t-5-0.5-4.3 2.2q-0.70001 1.8-2.4 3.6-1.8 1.7-2.6 1-0.70001-0.79999-5.4-0.59998-4.8 0.29999-5.6 1.6-0.70001 1.2-0.70001 5.2v4l-0.29999-0.20001-0.20001-0.29999-1-0.29999-1-0.20001-0.20001-1q-0.29999-1-2.6-2-2.2-1-3.7 0.79999l-1.5 1.7h-2l-0.20001-0.29999-0.29999-0.20001-0.29999 0.20001-0.20001 0.29999h-4v-0.5l-0.5 0.20001q-0.5 0.29999-1.5 0.79999t-1.8 2.2q-0.70001 1.8-1.7 0.79999t-1.5 2.5-2.2 4.3l-1.8 0.70001-0.20001 0.29999q-0.29999 0.20001-2.6-2-2.2-2.3-3.2-1.8t-1 1.5-7.5 3-8 0.70001q-0.5-1.2-5-2.4-4.5-1.3-5-2.6-0.5-1.2-1.5-1.4-1-0.29999-3.2-3.6-2.3-3.2-5.6-4.7-3.2-1.5-3.2-3.5t-2.5-2.5-2.5-2.5-1.5-2-1.7 1q-0.29999 1-2-0.79999-1.8-1.7-11.8-2.7t-10.5-2.3q-0.5-1.2-1.7-0.70001-1.3 0.5-5.6-0.29999-4.2-0.70001-5.7-2.2t-3.5-0.5-6-1.3l-4-2.2-1.5 0.20001-1.5 0.29999h-2.5q-2.5 0-8-0.5t-7 0.5-2.3 0.29999q-0.70001-0.79999-4-0.29999-3.2 0.5-3 2.5 0.29999 2-2 2.2-2.2 0.29999-7.7 1.8t-6.7 5.2q-1.3 3.8-2.6 3.6-1.2-0.29999-3.7 1.2t-5 1.8l-2.5 0.20001 1 4.8q1 4.7 2.5 8 1.5 3.2-1 3.2t-3 3.8q-0.5 3.7-4.5 2.4-4-1.2-4-0.20001t-3 3.2q-3 2.3-5 2.6-2 0.20001-3.2 3.2-1.3 3-3.8 21t-2 19l0.5 1 0.29999 0.20001 0.20001 0.29999-0.20001 0.29999-0.29999 0.20001-0.29999 0.20001-0.20001 0.29999-2 0.29999-2 0.20001v2l-1 0.20001-1 0.29999-1 0.29999-1 0.20001-0.20001-1-0.29999-1v-10q0-5 1.7-7 1.8-2 0.79999-2t-2-13-3-13.8q-2-0.70001-3.5-3.4-1.5-2.8-4-3.3t-2.5-2.5-2.5-1-3.3-4.5q-0.70001-5.5-2.4-8.3-1.8-2.7-5.3-2.7t-3.3-2.7q0.29999-2.8-5.4-3.8-5.8-1-6.3-5.5t-1.5-4.5-1-3-3.5-2.2l-3.5 0.70001-0.20001-0.29999-0.29999-0.20001-0.29999-0.20001-0.20001-0.29999 0.20001-0.29999 0.29999-0.20001 0.29999-0.20001 0.20001-0.29999 1.5-0.29999q1.5-0.20001 0.29999-3.2-1.3-3 0-4 1.2-1 1.2-2t-1-1.2q-1-0.29999-1.5-1.6-0.5-1.2-1.5-1.4l-1-0.29999-0.20001-0.29999-0.29999-0.20001-0.29999-0.20001-0.20001-0.29999 4-0.29999q4-0.20001 4-1.2t1-1 1.2-5q0.29999-5 2-6 1.8-1 1.6-2.5-0.29999-1.5 1.7-12.5t2.5-17.5-0.5-8.5-5.7-4.5q-4.8-2.5-8.6-10-3.7-7.5-6-8.3-2.2-0.70001-3.7-2.4-1.5-1.8-4.7-2.8-3.3-1-7.6-2.8-4.2-1.7-16.2-4.7t-12-4-3.2-1.7q-3.3-0.79999-7-1.8-3.8-1-3.8-2t-4-2.2q-4-1.3-8.5-1.3t-5-1.3q-0.5-1.2-12.5-4.2t-11.5-5.5-0.5-2.5-1-3-1-3-2.8-4.5q-1.7-4.5-2.7-7l-1-2.5v-5l0.5-1 0.5-1 0.29999 0.20001 0.20001 0.29999 0.20001 0.29999 0.29999 0.20001 0.70001 2q0.79999 2 3.6 1 2.7-1 3-2 0.20001-1 2.2-1t3.2-4.5q1.3-4.5 1-5.5-0.20001-1 1.6-1 1.7 0 1.4-3.5-0.20001-3.5 0.79999-3.5t1 1 1 1.2q1 0.29999 2.5 0.29999h1.5l0.20001-0.29999 0.29999-0.20001 0.29999-0.20001 0.20001-0.29999-0.20001-0.29999-0.29999-0.20001-0.29999-0.20001-0.20001-0.29999 0.20001-0.29999 0.29999-0.20001v-1.5q0-1.5-0.29999-1.7-0.20001-0.29999-0.20001-1v-0.79999l-0.20001-0.5q-0.29999-0.5-0.29999-4.5v-4l-0.29999-0.20001-0.20001-0.29999h-2l-1 0.29999-1 0.20001 0.20001-2 0.29999-2 0.29999-0.20001 0.20001-0.29999 1.5-0.5q1.5-0.5 5.5-1.5t3.8-3.7q-0.29999-2.8 1.4-5 1.8-2.3 4.3-2.8t2.7-2.8q0.29999-2.2 1.6-2.4 1.2-0.29999 1.2-1.8t4.5-3.2q4.5-1.8 2.7-3.8-1.7-2-0.40002-7 1.2-5 2.4-5.5 1.3-0.5 0-1.3-1.2-0.70001 0-2 1.3-1.2 0.59998-3-0.79999-1.7-0.29999-4.4 0.5-2.8-1-2.6-1.5 0.29999-2-1-0.5-1.2 0.5-1.2t0.5-1.8q-0.5-1.7-1.3-5-0.70001-3.2 2.6-4l3.2-0.70001 0.20001-0.29999 0.29999-0.20001v-1l-0.29999-0.20001-0.20001-0.29999-0.20001-0.29999-0.29999-0.20001-0.29999-0.20001-0.20001-0.29999h-1q-1 0-2.8 0.29999-1.7 0.20001-1.2-1.3t1-12.5 2-15 0-9-0.20001-5.5q1.2-0.5 2.2-4t4.5-6.3q3.5-2.7 3-6-0.5-3.2 1-3.2t1.7-1.5q0.29999-1.5 1.6-2 1.2-0.5 1.4 0.5 0.29999 1 3-1.2 2.8-2.3 3.3-3 0.5-0.79999 2 0 1.5 0.70001 3.7-0.59998 2.3-1.2 2.6-5.7 0.20001-4.5 1.2-4l1 0.5 1.2-1.5q1.3-1.5 0.79999-4t-1.8-4.5q-1.2-2 1-3.5 2.3-1.5 1.8-2.5t0.79999-3.2q1.2-2.3 6.2-2.8t7-0.8l2-0.2v-2h-1q-1 0-1.2-5l-0.29999-5 0.29999-0.2 0.20001-0.3 0.20001-0.3 0.29999-0.2 0.29999-1 0.20001-1 3.5 0.8q3.5 0.7 6 1l2.5 0.2-0.20001-1-0.29999-1-0.29999-0.2-0.20001-0.3-0.20001-0.3q-0.29999-0.2-0.59998-1.2-0.20001-1-1.2-1.2-1-0.3-1-1.3v-1l0.20001-0.3 0.29999-0.2 0.29999-2q0.20001-2 3.4-1.5 3.3 0.5 3.6-3 0.20001-3.5 2.4-4 2.3-0.5 1.6-3-0.79999-2.5 1.2-2.5t2.2-5q0.29999-5 0.59998-6 0.20001-1 5.2-1.2 5-0.3 7.5-2.8t3.3-1.8q0.70001 0.8 1.4-1.2 0.79999-2 3.3-2.2 2.5-0.3 3.7-0.60001 1.3-0.2 1.6-0.39999l0.20001-0.3 0.20001-0.3 0.29999-0.2v-2q0-2-1-4.5t3.7-5q4.8-2.5 6.6-6 1.7-3.5 1.2-4t-0.79999-2l-0.20001-1.5 1-0.2 1-0.3 0.20001-0.3 0.29999-0.2 0.29999 0.2 0.20001 0.3 1 0.3 1 0.2-1.8-3q-1.7-3 0-3.5 1.8-0.5 0.79999-5t-2-4.5-1-1 1-1 1-3 0.79999-3.5l2.4-1.7q1.8-1.3 2.8-1.6 1-0.2 3-2.4 2-2.3 5-2.3h5.5q2.5 0 4-4.5t3-4 3 0.5h1.5l-0.20001-0.3-0.29999-0.2v-2l0.29999-0.2 0.20001-0.3 0.20001-0.3 0.29999-0.2v-2l-0.29999-0.2-0.20001-0.3-3-1.7q-3-1.8-3.2-3.3-0.29999-1.5 1-5.3 1.2-3.7 4.2-6.2t5.8-3.8q2.7-1.2 3.4-2.4 0.79999-1.3 4.8-1.3t4.8-0.7q0.70001-0.8 1-4.8 0.20001-4 3.4-5 3.3-1 1.8-3.5t-1.8-3.5l-0.20001-1h4q4 0 4.2-1.5 0.29999-1.5 0.59998-1.5h0.20001l0.20001-0.5q0.29999-0.5 0.59998-0.7l0.20001-0.3 1.5-0.5q1.5-0.5-0.5-1l-2-0.5-0.20001-0.3-0.29999-0.2-0.29999-0.2-0.20001-0.3-0.20001-0.3-0.29999-0.2-0.29999-0.2-0.20001-0.3 1-0.5 1-0.5 0.20001-0.3 0.29999-0.2 0.29999-0.2 0.20001-0.3 3.5-0.7q3.5-0.8 4.7-3.8 1.3-3 2.3-3t0.70001-2q-0.20001-2 1.6-2 1.7 0 2-0.2 0.20001-0.3 3.2-0.6l3-0.2-1.2-2.5q-1.3-2.5-0.29999-4t0-3.5-0.29999-3.2q0.79999-1.3 10.3-1.3t11 2 3.7 3.3q2.3 1.2 3 2.4 0.79999 1.3 3.3 1.8t5.5 1.5 4.2 4.7q1.3 3.8 3.3 3.8t2.3 1.5q0.20001 1.5 3 3.5 2.7 2 4 4.2 1.2 2.3 4.7 5 3.5 2.8 4 4.8t1.7 2.5q1.3 0.5 1.6 2 0.20001 1.5 2.2 1.3 2-0.3 2.2 0z" fill="#020407" fill-rule="evenodd" stroke="#020407" stroke-width=".5"/>
 <path d="m540 149v-1l1 0.2 1 0.3 3.8 2.7q3.7 2.8 4.7 5.3t4.7 1.3q3.8-1.3 6.8-1.6l3-0.2 1 0.2q1 0.3-2 1.8t-7.5 2.8q-4.5 1.2-4.5 2.2t-2.8 2q-2.7 1-5.4 1.5l-2.8 0.5 0.5 2.8q0.5 2.7-0.5 5-1 2.2 1 2 2-0.3 2.2 0l0.29999 0.2 0.29999 0.2 0.20001 0.3 0.20001 0.3 0.29999 0.2v2l-0.29999-0.2-0.20001-0.3h-1.5q-1.5 0-4 0.5t-3.3 2.8q-0.70001 2.2-4 3.4-3.2 1.3-3.7 0.60001-0.5-0.8-2-0.60001-1.5 0.3-2.3 2-0.70001 1.8-3.7 3.8t-3.3 5.5q-0.20001 3.5-2.2 3.7-2 0.3-2.8 1.6-0.70001 1.2-2.4 1.7-1.8 0.5-3.6 7.5-1.7 7-2.7 9t-1.3 7.8q-0.20001 5.7-2.7 4.4l-2.5-1.2 0.20001 1.5 0.29999 1.5 0.29999 0.2 0.20001 0.3 1.5 1q1.5 1 1.7 1.3l0.29999 0.2 0.29999 1 0.20001 1-2.8-0.5q-2.7-0.5-3 1-0.20001 1.5 0.79999 1.5t1 2.5-1.8 3q-1.7 0.5-3 2.7-1.2 2.3-2.7 2.6-1.5 0.2-1 3 0.5 2.7-1 3.4-1.5 0.79999-1 3.6 0.5 2.7-0.5 6-1 3.2-2.5 3.2t-1.5 4.2q0 4.3-1 4.6-1 0.20001-0.5 5.4 0.5 5.3-1 5.8t-1 2-0.5 1.8q-1 0.20001-0.20001 4.2 0.70001 4 3 5 2.2 1 1.7 2.8-0.5 1.7-1.5 2-1 0.20001-1 1.7t2.2 3.5q2.3 2 2 3-0.20001 1 3.6 4.5 3.7 3.5 5.2 8t3.5 7.5 1 5 0.29999 2.5q1.2 0.5 1.7 4t2.5 3.5 2 1-1.8 2.5q-1.7 1.5-1.4 2.7 0.20001 1.3 1.2 1.6 1 0.20001 1.5 1.4 0.5 1.3-2 2.3t-1.3 1.7q1.3 0.79999 1.6 1.6 0.20001 0.70001-0.79999 1-1 0.20001-1 1.2t1.8 1.5q1.7 0.5 2 1.5 0.20001 1-0.79999 1t-1.5 4 0.5 4 1 1-1 1-1.2 1.5q-0.29999 1.5-0.79999 3.5l-0.5 2-0.29999 0.20001-0.20001 0.29999 0.20001 0.29999 0.29999 0.20001 0.5 1 0.5 1 0.29999 0.20001 0.20001 0.29999 1 0.5 1 0.5 2.5 0.5 2.5 0.5 3.2-0.29999q3.3-0.20001 3.8-1.2t0.79999-1h0.20001v1.2q0 1.3 1.8 1.6 1.7 0.20001 1.4 1.7-0.20001 1.5 2.8 2.5t3 2.5 1.5 1.5 2 0.79999q0.5 0.70001 2.7 2.4 2.3 1.8 2.6 2l0.20001 0.29999 1 0.29999 1 0.20001-0.20001 1-0.29999 1-0.5 1q-0.5 1-1.5 2t-2.7 1h-1.8v2h1.5q1.5 0 1.5 1t1.2 1.5q1.3 0.5 1.6 1.5 0.20001 1-1.6 1.5-1.7 0.5-2.2 1.5l-0.5 1-0.29999 0.20001-0.20001 0.29999 0.20001 0.29999 0.29999 0.20001v3l0.29999 0.20001 0.20001 0.29999 0.20001 0.29999 0.29999 0.20001 0.29999-0.20001 0.20001-0.29999 0.20001-0.29999 0.29999-0.20001 0.5-1.5 0.5-1.5 0.29999-0.20001 0.20001-0.29999 3 0.70001q3 0.79999 3.5-0.40002 0.5-1.3 2.3-1 1.7 0.20001 2.4-1 0.79999-1.3 2.6-0.59998 1.7 0.79999 3 2 1.2 1.3 3.2 0.59998 2-0.79999 3 1 1 1.7 4 3.2t5.5 1.8q2.5 0.20001 3 4 0.5 3.7 6 4.2t6 1 1.5 1l1 0.5 0.20001 0.29999 0.29999 0.20001 0.29999 1.5q0.20001 1.5-1.6 2-1.7 0.5-0.20001 5.5t2 7l0.5 2 0.5 1 0.5 1 0.29999-0.20001 0.20001-0.29999 0.20001-0.29999 0.29999-0.20001 0.29999 0.20001 0.20001 0.29999 2.2-1.3q2.3-1.2 4.8-1.7t3-2 1.2-0.70001q0.79999 0.70001 5.8 2.7t6.8 4.3q1.7 2.2 2 4.2l0.20001 2v2h-2l-0.20001 3.5-0.29999 3.5-0.29999-0.20001-0.20001-0.29999-0.20001-0.29999-0.29999-0.20001-0.29999-0.20001-0.20001-0.29999-1-0.5q-1-0.5-1.5-0.5t-1.3-2.3q-0.70001-2.2-3-2.4l-2.2-0.29999-0.20001 0.29999-0.29999 0.20001-0.29999 0.20001-0.20001 0.29999-0.20001 0.29999-0.29999 0.20001-0.29999 0.20001-0.20001 0.29999-1 0.5-1 0.5-0.20001 0.29999-0.29999 0.20001-0.29999 0.20001-0.20001 0.29999 0.20001 0.29999 0.29999 0.20001 0.70001 3.2q0.79999 3.3 2 3 1.3-0.20001 1 1.6-0.20001 1.7-1.4 2.4-1.3 0.79999-1.6 1l-0.20001 0.29999-0.20001 0.29999-0.29999 0.20001-0.29999 0.20001-0.20001 0.29999-0.20001 0.29999-0.29999 0.20001-0.29999 0.20001-0.20001 0.29999-0.20001 0.29999-0.29999 0.20001-0.29999 0.20001-0.20001 0.29999-0.20001 0.29999-0.29999 0.20001-0.29999 0.20001-0.20001 0.29999-1 0.5-1 0.5-0.20001 0.29999-0.29999 0.20001-0.29999 0.20001-0.20001 0.29999-0.20001 0.29999-0.29999 0.20001-0.29999-0.20001-0.20001-0.29999-1-0.5-1-0.5-1-0.29999q-1-0.20001-1.2-1.2-0.29999-1-2.8-4.5t-6-9-6.2-8.3q-2.8-2.7-4-5.4l-1.3-2.8-0.29999-0.20001-0.20001-0.29999-0.20001-0.29999-0.29999-0.20001-0.5-1.5-0.5-1.5-0.29999-0.20001-0.20001-0.29999-0.20001-0.29999-0.29999-0.20001-0.29999-0.20001-0.20001-0.29999h-2l-0.20001 0.29999-0.29999 0.20001-0.29999 0.20001-0.20001 0.29999-0.20001 0.29999-0.29999 0.20001v2l0.29999 0.20001 0.20001 0.29999 0.20001 0.29999 0.29999 0.20001-0.5 9q-0.5 9 3.2 18.2 3.8 9.3 6 14 2.3 4.8 2.8 7.3t5.8 9.3q5.2 6.7 12.2 8.2t10.5 2.5 5 1.5 4 0.79999l2.5 0.20001-1.2 2q-1.3 2-1.8 4l-0.5 2-0.29999 1-0.20001 1 3-1q3-1 4 1.5t3.5 2.7q2.5 0.29999 3.5 1.3t10 0 24.5-5 24-6.3q8.5-2.2 12-6 3.5-3.7 9.3-7.4l6-4 0.20001-0.29999 0.20001-0.29999 0.29999-0.20001 0.29999-0.20001 0.20001-0.29999 0.20001-0.29999 0.29999-0.20001 0.29999-1.5q0.20001-1.5-2.8-2.3l-3-0.70001 1-0.5 1-0.5 0.20001-0.29999 0.29999-0.20001 3.5-3q3.5-3 5-2.5t1.2-2.3q-0.20001-2.7 0-3l0.29999-0.20001 2.3 1.2q2.2 1.3 3.2 1.8l1 0.5h2l-0.20001-0.29999-0.29999-0.20001-0.29999-0.20001-0.20001-0.29999-0.20001-0.29999-0.29999-0.20001-0.29999-1.5q-0.20001-1.5-1.2-1.7-1-0.29999-1.2-2.6l-0.29999-2.2 0.29999-0.20001 0.20001-0.29999 1.5-0.5q1.5-0.5 4.5-1t2.5-2.2q-0.5-1.8 1.3-3.3 1.7-1.5 0.40002-4.5-1.2-3-0.20001-3.2 1-0.29999-2-0.79999t-1.8-3.8q1.3-3.2-2-3.4-3.2-0.29999-3.7-1.6-0.5-1.2 1-1.4l1.5-0.29999-4-0.5-4-0.5-2.5-0.29999-2.5-0.20001 0.20001 1q0.29999 1 0.29999 3t-1.3 4.8q-1.2 2.7-5.2 2-4-0.79999-4 0.20001t-2.5 1.2q-2.5 0.29999-6-1.4l-3.5-1.8-0.20001-1.5-0.29999-1.5-0.29999-0.20001-0.20001-0.29999-0.20001-0.29999-0.29999-0.20001-0.29999 0.20001-0.20001 0.29999-0.20001 0.29999-0.29999 0.20001v2l0.29999 2.5q0.20001 2.5 1.2 2.5t0 4.2q-1 4.3-1.5 7-0.5 2.8-2.3 3.3-1.7 0.5-2 2l-0.20001 1.5-4 0.20001-4 0.29999-2 0.29999-2 0.20001-0.20001-1q-0.29999-1-1.3-3t-3.5-8-4.8-7q-2.2-1-2.2 0t-1.5 1h-1.5v-0.5l0.20001-0.29999 0.29999-0.20001v-2l-0.29999-0.20001-0.20001-0.29999-0.20001-0.29999-0.29999-0.20001-0.29999-0.20001-0.20001-0.29999-0.20001-0.29999q-0.29999-0.20001-1.8-7.7t-0.20001-7q1.2 0.5 0.70001-4l-0.5-4.5 2.5 1.2q2.5 1.3 3.5 1.6l1 0.20001 0.20001-4.5q0.29999-4.5 0.29999-7t1-8.5l1-6 0.29999-0.20001 0.20001-0.29999 0.20001-0.29999 0.29999-0.20001 0.29999 0.20001 0.20001 0.29999 1 0.29999q1 0.20001 1.5 1.4 0.5 1.3 2.5 1.8l2 0.5 1 0.29999 1 0.20001 0.20001-1 0.29999-1 0.29999-0.20001 0.20001-0.29999 0.20001-0.29999 0.29999-0.20001 0.29999-0.20001 0.20001-0.29999 0.20001-0.29999 0.29999-0.20001v-1l-0.29999-1.5-0.20001-1.5h2l0.20001 1q0.29999 1 0.29999 1.5v0.5l-0.29999 0.20001-0.20001 0.29999 1 0.5 1 0.5 2.5 0.5 2.5 0.5 0.20001 0.29999 0.29999 0.20001 0.29999 0.20001 0.20001 0.29999 1 0.29999 1 0.20001-0.20001-1-0.29999-1-0.5-1q-0.5-1-0.5-3.5t2.3-1q2.2 1.5 1.2-0.70001-1-2.3 1.5-3 2.5-0.79999 2.7-2.3l0.29999-1.5 0.29999 0.20001 0.20001 0.29999h2l0.20001-0.29999 0.29999-0.20001v-1l-0.29999-0.20001-0.20001-0.29999h2l0.20001 0.29999 0.29999 0.20001 1.5 4q1.5 4 1.2 4.2-0.20001 0.29999 1.3 0.59998l1.5 0.20001 0.20001 1.5 0.29999 1.5 0.29999-0.20001 0.20001-0.29999 0.20001-0.29999 0.29999-0.20001 0.29999-0.20001 0.20001-0.29999 0.20001-0.29999 0.29999-0.20001 0.29999 0.20001 0.20001 0.29999 1 0.29999 1 0.20001 0.20001-1 0.29999-1 0.5-3q0.5-3 1-6.5t2.8-7.7q2.2-4.3 1.4-9l-0.70001-4.8 0.29999-0.20001 0.20001-0.29999 0.20001-0.29999 0.29999-0.20001 0.29999-0.20001 0.20001-0.29999h2l0.20001 0.29999 0.29999 0.20001 0.29999 2q0.20001 2 5.2 2t5.8-2.5q0.70001-2.5 3.4-5 2.8-2.5 3-3.5 0.29999-1 7-3.8 6.8-2.7 6.3-3.2t2-1.5 2.7-5.3q0.29999-4.2 1.3-3.2t1-1.5 0.29999-7q0.20001-4.5-3.8-4.5t-6-3-1-3-0.5-4.5-2.5-4.5-0.79999-3.5q0.29999-3.5-1-4-1.2-0.5-1.2-2t1.5-1.7q1.5-0.29999 2.5-3.6 1-3.2-0.20001-3.7-1.3-0.5-2.6-6-1.2-5.5-2.2-5.5t-1.2-2q-0.29999-2-0.59998-1-0.20001 1-1.2 1t-2-4.5-2-5l-1-0.5h0.5l0.5-1 0.5-1 0.29999-1 0.20001-1-1-0.20001q-1-0.29999-1.5-2.6l-0.5-2.2 1 0.20001q1 0.29999 1.5 0.79999t0.5-1.2q0-1.8 2.5-1.3t3.3-6q0.70001-6.5 0.70001-14.5t1.3-9q1.2-1 1.2-11.2 0-10.3-2.2-17-2.3-6.8-2.3-12.8v-6l-0.5 1q-0.5 1-1.8 1.2-1.2 0.3-1.7-1-0.5-1.2-1.5-1.4-1-0.3-3.8-4-2.7-3.8-3.2-6.3t0.79999-3q1.2-0.5 0.70001-4.5t-1.5-4.2q-1-0.3-1.8-2-0.70001-1.8-2.4-2.8-1.8-1-2.8-3.8-1-2.7-4.5-6.4-3.5-3.8-5-4-1.5-0.3-5-3.3l-3.5-3-1-0.3-1-0.2-0.20001 1-0.29999 1-0.29999-0.2-0.20001-0.3-0.20001-0.3-0.29999-0.2-0.29999-0.2-0.20001-0.3-0.20001-0.3-0.29999-0.2-0.29999-0.2-0.20001-0.3 0.20001-0.3 0.29999-0.2 0.29999-0.5 0.20001-0.5h0.5l0.29999-0.2 0.20001-0.3h6l4.8 0.7q4.7 0.8 8.4 2.6 3.8 1.7 4.8 1.2t2.8 0.8q1.7 1.2 3-0.60001 1.2-1.7 3.2 0.8t4.5 1.8q2.5-0.8 2.5 0.2t2.5 1 4.5 2.2q2 2.3 6.8 5 4.7 2.8 8 5.6 3.2 2.7 5.7 3.4 2.5 0.8 4 3 1.5 2.3 5.7 4 4.3 1.8 8 5 3.8 3.3 5 4.6 1.3 1.2 2 2.4 0.79999 1.3 3.8 1.6 3 0.2 2.2 2.7-0.70001 2.5 2.8 5t4.2 5q0.79999 2.5 2 3 1.3 0.5 1.6 2 0.20001 1.5 2 2 1.7 0.5 2 2.5 0.20001 2 1.4 2.5 1.3 0.5 2.6 2.7 1.2 2.3 2.4 3 1.3 0.8 2.8 3.8t3.8 4.5q2.2 1.5 1.7 4.5t1.3 2.5q1.7-0.5 2 2 0.20001 2.5 2.7 2.5t3 3.5 2.7 4q2.3 0.5 2.3 5t1.7 11.7q1.8 7.3 2.8 8.8t2.5 1.8q1.5 0.20001 1.5 3.2t1.8 3.5q1.7 0.5 2 3.3 0.20001 2.7-0.79999 3-1 0.20001-1 2.7t1 2.5 1 5v5.2q0 0.29999 0.5 0.59998l0.5 0.20001 0.20001 1 0.29999 1 0.70001 0.79999q0.79999 0.70001 2.8 1l2 0.20001v2h-2.5q-2.5 0-2.5 5t2 5.5 2.5 3.7q0.5 3.3-0.70001 4.6-1.3 1.2-1.3 14.2t0.70001 14.5q0.79999 1.5-0.40002 2-1.3 0.5-1.3 1.5v1l0.5 1 0.5 1 0.29999 0.5 0.20001 0.5-2 1.5q-2 1.5-2 7.5t-1.5 6-1.5 8.8q0 8.7 1 9 1 0.20001 1 2.2v2l-2.5-0.20001q-2.5-0.29999-4-0.29999t-2.3 2.7q-0.70001 2.8-2.4 4.3-1.8 1.5-2.3 5.5t-2 4.8l-1.5 0.70001-0.20001 0.29999-0.29999 0.20001-0.29999 0.20001-0.20001 0.29999 0.20001 0.29999 0.29999 0.20001 0.29999 0.20001 0.20001 0.29999 0.5 0.29999 0.5 0.20001h0.20001q0.29999 0 0.29999 0.5t-2.3 1q-2.2 0.5-1.4 3 0.70001 2.5-1.6 2.7-2.2 0.29999-4.4 6-2.3 5.8-4.3 8.8t-2.3 6q-0.20001 3-1.2 3.2-1 0.29999-2.2 2.6-1.3 2.2-2.8 6.7t-3.2 5.3q-1.8 0.70001-2.8 4.4-1 3.8-2.5 3.8t-2 2-3.3 3q-2.7 1-4 5.5-1.2 4.5-3.2 4.5t-1.5 2-1.5 2.5-2.5 1.7l-0.5 1.3-0.20001 0.29999-0.29999 0.20001-0.29999 1-0.20001 1-0.5 0.20001q-0.5 0.29999-1.3 1.6-0.70001 1.2-2 1-1.2-0.29999-2 1-0.70001 1.2-4 2-3.2 0.70001-6.7 2.2t-4.3 3.2q-0.70001 1.8-2.4 2.8-1.8 1-2 2-0.29999 1-6 2.8-5.8 1.7-10.8 5.2t-6.5 3-4 1-8.5 3.5-10.5 4.3q-4.5 2.2-4.7 3.2-0.29999 1-3 1.2-2.8 0.29999-6 2-3.3 1.8-12.6 4l-9.2 2.3-1.5-0.29999-1.5-0.20001-3 0.20001q-3 0.29999-14 0.79999t-20.5 0.5-12 1-7.3 0.29999q-4.7-0.79999-8.4-1.8-3.8-1-3.8 0.5t-4 0.5-4.2-2q-0.29999-1-2-1.2-1.8-0.29999-4.3 1.4l-2.5 1.8-0.5-0.20001-0.5-0.29999-0.20001-0.29999-0.29999-0.20001-0.5-1-0.5-1-0.29999-0.20001q-0.20001-0.29999-1-1l-0.70001-0.79999 0.29999-0.20001 0.20001-0.29999-1-0.5q-1-0.5-6-1.5t-8-0.29999q-3 0.79999-2.8-0.70001 0.29999-1.5-1.4-3-1.8-1.5-1.8-3t-3.5-1.7q-3.5-0.29999-4.5-1.6-1-1.2 0-1.4 1-0.29999-5-2-6-1.8-6.2-2.8-0.29999-1-9.6-5.2-9.2-4.3-10-5.6-0.70001-1.2-3.2-2.2t-5.2-3.2q-2.8-2.3-3.6-5.6-0.70001-3.2-3.7-5.7t-7.3-5.3q-4.2-2.7-7-5.4-2.7-2.8-5.4-4-2.8-1.3-3.6-3.6-0.70001-2.2-4.4-4.4-3.8-2.3-5-4.6-1.3-2.2-3.8-5.7t-3.8-8q-1.2-4.5-2.4-5-1.3-0.5-3.6-6.5-2.2-6-5-8-2.7-2-3.7-9.5t-3-12-4.3-5l-2.2-0.5-0.20001-0.5q-0.29999-0.5-0.59998-0.5h-0.20001l-0.20001-0.5q-0.29999-0.5-0.59998-0.70001l-0.20001-0.29999 0.20001-0.29999 0.29999-0.20001 0.29999-1.5 0.20001-1.5-1-0.20001q-1-0.29999-1.5-1.6-0.5-1.2 0.5-1.2t0-5-2.2-5.5q-1.3-0.5-2-6.7-0.79999-6.3-0.79999-11 0-4.8-1.5-4.8t-1.3-2q0.29999-2 1.8-3.5t0.5-4-1-9.5v-14q0-7 1-10t-0.29999-3.5q-1.2-0.5-1.2-2t1-1.5 0.5-4 0.5-4.2q1-0.29999 1.8-2 0.70001-1.8 1.4-5.8l0.79999-4-1-0.20001q-1-0.29999-4.2 0l-3.3 0.20001-0.29999-0.20001-0.20001-0.29999 0.20001-0.29999 0.29999-0.20001 0.29999-0.20001 0.20001-0.29999 0.20001-0.29999 0.29999-0.20001v-2l-0.29999-0.20001-0.20001-0.29999-0.20001-0.29999q-0.29999-0.20001-0.29999-1.2t1.7-1.8q1.8-0.70001 2.6-2 0.70001-1.2 1.2-5.2t-0.79999-8.5l-1.2-4.5-1 0.20001q-1 0.29999-2-0.20001t-2.2 0.79999q-1.3 1.2-3 0-1.8-1.3-6.3-1.8t-9.7-1.8q-5.3-1.2-6.6-6.2l-1.2-5 1.2-1.5q1.3-1.5 0.79999-4t-1.8-4.5q-1.2-2 1-3.5 2.3-1.5 1.8-2.5t0.79999-3.2q1.2-2.3 6.2-2.8t7-0.8l2-0.2v-2h-1q-1 0-1.2-5l-0.29999-5 0.29999-0.2 0.20001-0.3 0.20001-0.3 0.29999-0.2 0.29999-1 0.20001-1 3.5 0.8q3.5 0.7 6 1l2.5 0.2-0.20001-1-0.29999-1-0.29999-0.2-0.20001-0.3-0.20001-0.3q-0.29999-0.2-0.59998-1.2-0.20001-1-1.2-1.2-1-0.3-1-1.3v-1l0.20001-0.3 0.29999-0.2 0.29999-2q0.20001-2 3.4-1.5 3.3 0.5 3.6-3 0.20001-3.5 2.4-4 2.3-0.5 1.6-3-0.79999-2.5 1.2-2.5t2.2-5q0.29999-5 0.59998-6 0.20001-1 5.2-1.2 5-0.3 7.5-2.8t3.3-1.8q0.70001 0.8 1.4-1.2 0.79999-2 3.3-2.2 2.5-0.3 3.7-0.60001 1.3-0.2 1.6-0.39999l0.20001-0.3 0.20001-0.3 0.29999-0.2v-2q0-2-1-4.5t3.7-5q4.8-2.5 6.6-6 1.7-3.5 1.2-4t-0.79999-2l-0.20001-1.5 1-0.2 1-0.3 0.20001-0.3 0.29999-0.2 0.29999 0.2 0.20001 0.3 1 0.3 1 0.2 4.2 2q4.3 2 5 0.8 0.79999-1.3 4.8-1.6 4-0.2 5 1.6 1 1.7 2.2 1.4 1.3-0.2 1.6-1.2 0.20001-1 3.7-1t4.5-2.2q1-2.3 3.5-1.8t3-1.8q0.5-2.2 4.7-2.7 4.3-0.5 7-5.3 2.8-4.7 4.3-5.4 1.5-0.8 1.5-1.8z" fill="#010508" fill-rule="evenodd" stroke="#010508" stroke-width=".5"/>
 <path d="m634 87.8 2-0.3 1.5-0.3 1.5-0.2 0.5 1q0.5 1 14 0.2 13.5-0.7 24.5-0.2t12 1 1.5 0.8l0.5 0.2 0.20001 1.5 0.29999 1.5 0.29999 0.2 0.20001 0.3 1 2.3q1 2.2 2 2.2t0 1.8q-1 1.7-2 2-1 0.2-1.8 1.7-0.70001 1.5-0.40002 6.3 0.20001 4.7 1.4 4.4 1.3-0.2 2.6 5.8 1.2 6 0 6.5-1.3 0.5-0.59998 1.7 0.79999 1.3 2.3 1.6 1.5 0.2 1.5 1.7t1.5 1.7l1.5 0.3 0.20001 0.3 0.29999 0.2 0.29999 0.2 0.20001 0.3h-1q-1 0-2.5-0.3-1.5-0.2-1.5 1.8v2l2.5-0.5q2.5-0.5 1.5 4.3-1 4.7-2.5 5-1.5 0.2-1.5 1.7t-1.8 1.5q-1.7 0-1.2 2t0 3.5l-0.5 1.5-0.5 1-0.5 1v2h0.5l-0.20001 0.5-0.29999 0.5-0.29999 0.2-0.20001 0.3 0.20001 0.3 0.29999 0.2 0.29999 0.2 0.20001 0.3 0.20001 0.3 0.29999 0.2 0.29999 0.2 0.20001 0.3 0.20001 0.3 0.29999 0.2 0.29999-1 0.20001-1 1 0.2 1 0.3 3.5 3q3.5 3 5 3.3 1.5 0.2 5 4 3.5 3.7 4.5 6.4 1 2.8 2.8 3.8 1.7 1 2.4 2.8 0.79999 1.7 1.8 2 1 0.2 1.5 4.2t-0.70001 4.5q-1.3 0.5-0.79999 3t3.2 6.3q2.8 3.7 3.8 4 1 0.2 1.5 1.4 0.5 1.3 1.7 1 1.3-0.2 1.8-1.2l0.5-1v6q0 6 2.3 12.8 2.2 6.7 2.2 17 0 10.2-1.2 11.2-1.3 1-1.3 9t-0.70001 14.5q-0.79999 6.5-3.3 6t-2.5 1.3q0 1.7-0.5 1.2t-1.5-0.79999l-1-0.20001 0.5 2.2q0.5 2.3 1.5 2.6l1 0.20001-0.20001 1-0.29999 1-0.5 1-0.5 1h-0.5l-0.5-0.20001-0.5-0.29999-0.20001-0.29999q-0.29999-0.20001-2.6-2-2.2-1.7-4 1.6-1.7 3.2-2.4 2.4l-0.79999-0.70001-0.20001-0.29999-0.29999-0.20001-0.29999-0.20001-0.20001-0.29999-0.20001-0.29999-0.29999-0.20001-0.5 1-0.5 1-0.29999-0.20001-0.20001-0.29999-0.20001-0.29999-0.29999-0.20001h-0.70001q-0.29999 0-0.59998-2-0.20001-2-1.2-2.2-1-0.29999-2-2-1-1.8-5.5-3-4.5-1.3-7.5-0.79999t-3.5-0.79999q-0.5-1.2-2-1.2t-1.5 1.5-4 1.5-4 1-5.5 2.8q-5.5 1.7-13 6.7t-12.3 7.7q-4.7 2.8-5 5.8-0.20001 3-1.4 3.5-1.3 0.5 1 2.3 2.2 1.7 3 5.4 0.70001 3.8 2.2 8.3t0.20001 6.3q-1.2 1.7 1.3 2.4l2.5 0.79999-0.20001 0.5-0.29999 0.5-0.29999 0.20001-0.20001 0.29999 0.20001 0.29999 0.29999 0.20001v1l-0.5 1.5-0.5 1.5-0.29999-0.20001-0.20001-0.29999-0.20001-0.29999-0.29999-0.20001-0.29999 0.20001-0.20001 0.29999-0.20001 0.29999q-0.29999 0.20001-1.8-1.3t-2.5-1.5h-1l-0.29999 1q-0.20001 1-1.4 1.5-1.3 0.5-1.8 3.5l-0.5 3-0.5 1.5-0.5 1.5h-1l-0.5-1q-0.5-1-0.79999-2-0.20001-1-2.2-1h-2l-0.20001 1-0.29999 1-0.5 5.5q-0.5 5.5-0.5 9.5v4l-0.29999 3-0.20001 3-1-0.20001-1-0.29999-0.20001-0.29999-0.29999-0.20001-0.5-1-0.5-1-0.29999-0.20001-0.20001-0.29999 0.20001-0.29999 0.29999-0.20001 0.29999-1 0.20001-1h-2l-0.20001-3q-0.29999-3-0.59998-3.2-0.20001-0.29999-2-4.6l-1.7-4.2-0.29999-1-0.20001-1-1-0.20001-1-0.29999-0.20001-0.29999-0.29999-0.20001-0.29999-0.20001-0.20001-0.29999-1-0.5-1-0.5-0.20001-0.29999-0.29999-0.20001-0.29999 0.20001-0.20001 0.29999-0.20001 0.29999-0.29999 0.20001-0.5 1.5-0.5 1.5-0.29999 0.20001-0.20001 0.29999-0.20001 0.29999-0.29999 0.20001-1.5 3q-1.5 3-2.5 11t-1.3 8h-0.20001l-0.20001-0.5q-0.29999-0.5-0.79999 0.5l-0.5 1-0.29999-0.20001-0.20001-0.29999-0.20001-0.29999q-0.29999-0.20001-0.59998 0l-0.20001 0.29999-1 0.29999-1 0.20001v3l-1 0.20001-1 0.29999-0.20001 0.29999-0.29999 0.20001-0.29999-0.20001-0.20001-0.29999-1-0.29999-1-0.20001-0.20001-1q-0.29999-1 0.40002-3 0.79999-2-0.70001-2t-2.5-2.2q-1-2.3-2.5-3l-1.5-0.79999h0.20001q0.29999 0-1-3.5-1.2-3.5 1.3-4.3 2.5-0.70001 2.7-2 0.29999-1.2 2-6.2 1.8-5 2.8-5t1.5-2.8q0.5-2.7-0.29999-14-0.70001-11.2-4-13-3.2-1.7-11.2-3-8-1.2-8-2.7t-4-1-4-1-1-1.3q-1 0.29999-9.5 0.29999t-12.7 7.3q-4.3 7.2-7.3 7.7t-1.5 2 0.5 4.5-2 7-2.3 4.5q-1.2 0.5-0.70001 3.5t1.5 3.2q1 0.29999 1.8 2.6 0.70001 2.2-1 2.7-1.8 0.5-1.6 3 0.29999 2.5 1.6 5l1.2 2.5-2 0.20001q-2 0.29999-2.5 0.29999t-1.3 1.3q-0.70001 1.2-2.4 0.40002-1.8-0.70001-2.6-0.40002l-0.70001 0.20001-0.29999 1q-0.20001 1-2.2 1.2l-2 0.29999 1.2 2.7q1.3 2.8 1.3 6.3t-1.3 5.3q-1.2 1.7-3.2 2.2t-2.2 0.79999l-0.29999 0.20001-0.29999 0.20001-0.20001 0.29999 0.20001 0.29999 0.29999 0.20001 0.29999 0.5 0.20001 0.5v1l-0.5 0.20001q-0.5 0.29999-4 0.79999l-3.5 0.5-2.5-0.5-2.5-0.5-1-0.5-1-0.5-0.20001-0.29999-0.29999-0.20001-0.5-1-0.5-1-0.29999-0.20001-0.20001-0.29999 0.20001-0.29999 0.29999-0.20001 0.5-2q0.5-2 1.2-8.5 0.79999-6.5 1.8-6.5t0.79999-1q-0.29999-1-2-1.5-1.8-0.5-1.8-1.5t1-1.2q1-0.29999 0.79999-1-0.29999-0.79999-1.6-1.6-1.2-0.70001 1.3-1.7t2-2.3q-0.5-1.2-1.5-1.4-1-0.29999-1.2-1.6-0.29999-1.2 1.4-2.7 1.8-1.5 1.8-2.5t-2-1-2.5-3.5-1.7-4q-1.3-0.5-0.29999-2.5t-1-5-3.5-7.5-5.2-8q-3.8-3.5-3.6-4.5 0.29999-1-2-3-2.2-2-2.2-3.5t1-1.7q1-0.29999 1.5-2 0.5-1.8-1.7-2.8-2.3-1-3-5-0.79999-4 0.20001-4.2 1-0.29999 0.5-1.8t1-2 1-5.8q-0.5-5.2 0.5-5.4 1-0.29999 1-4.6 0-4.2 1.5-4.2t2.5-3.2q1-3.3 0.5-6-0.5-2.8 1-3.6 1.5-0.70001 1-3.4-0.5-2.8 1-3 1.5-0.3 2.7-2.6 1.3-2.2 3-2.7 1.8-0.5 1.8-3t-1-2.5-0.79999-1.5q0.29999-1.5 3-1l2.8 0.5-0.20001-1-0.29999-1-0.29999-0.2q-0.20001-0.3-1.7-1.3l-1.5-1-0.20001-0.3-0.29999-0.2-0.29999-1.5-0.20001-1.5 2.5 1.2q2.5 1.3 2.7-4.4 0.29999-5.8 1.3-7.8t2.7-9q1.8-7 3.6-7.5 1.7-0.5 2.4-1.7 0.79999-1.3 2.8-1.6 2-0.2 2.2-3.7 0.29999-3.5 3.3-5.5t3.7-3.8q0.79999-1.7 2.3-2 1.5-0.2 2 0.60001 0.5 0.7 3.7-0.60001 3.3-1.2 4-3.4 0.79999-2.3 3.3-2.8t4-0.5h1.5l0.20001 0.3 0.29999 0.2v-2l-0.29999-0.2-0.20001-0.3-0.20001-0.3-0.29999-0.2-0.29999-0.2q-0.20001-0.3-2.2 0-2 0.2-1-2 1-2.3 0.5-5l-0.5-2.8 2.8-0.5q2.7-0.5 5.4-1.5 2.8-1 2.8-2t4.5-2.2q4.5-1.3 7.5-2.8t2-1.8l-1-0.2 2.5 0.2q2.5 0.3 3.3-0.39999 0.70001-0.8 1.4-1.3 0.79999-0.5 1.3 0.7 0.5 1.3 2.7 0 2.3-1.2 4-3.7 1.8-2.5 5.3-1.7 3.5 0.7 5 0.39999 1.5-0.2 1.5-1.7t2.5-1.5 3-1.2q0.5-1.3 3-0.8t4 1.2q1.5 0.8 1.5-0.2t1.2-1.5q1.3-0.5 2.6-3.3 1.2-2.7 0.40002-3.4-0.70001-0.8 0.29999-3.3t-0.5-4-1.5-4.5 1.7-4.5q1.8-1.5 2-3.5 0.29999-2 0.59998-4.5l0.20001-2.5h-3l-0.20001-1-0.29999-1-0.29999-0.2-0.20001-0.3-0.20001-0.3-0.29999-0.2-0.29999-0.2-0.20001-0.3-0.20001-0.3-0.29999-0.2h-0.5v-0.5l0.20001-0.3 0.29999-0.2 0.5-1 0.5-1 0.29999-1.5 0.20001-1.5 4.8 0.5q4.7 0.5 4.7 2.5t0.29999 2.2l0.20001 0.3h2l0.20001-0.3 0.29999-0.2 0.29999-1 0.20001-1h1.5q1.5 0 0-3t3.3-4.5q4.7-1.5 5-4.5 0.20001-3 2.2-3.2z" fill="#df1721" fill-rule="evenodd" stroke="#df1721" stroke-width=".5"/>
 <path d="m140.8 154.2 0.20001 0.29999 0.20001 0.29999 0.29999 0.20001 0.29999-0.20001 0.20001-0.29999 1-0.29999 1-0.20001v0.20001q0 0.29999 0.5 0.59998l0.5 0.20001 2.2 0.5q2.3 0.5 4.3 5t3 12 3.7 9.5q2.8 2 5 8 2.3 6 3.6 6.5 1.2 0.5 2.4 5 1.3 4.5 3.8 8t3.8 5.7q1.2 2.3 5 4.6 3.7 2.2 4.4 4.4 0.79999 2.3 3.6 3.6 2.7 1.2 5.4 4 2.8 2.7 7 5.4 4.3 2.8 7.3 5.3t3.7 5.7q0.79999 3.3 3.6 5.6 2.7 2.2 5.2 3.2t3.2 2.2q0.79999 1.3 10 5.6 9.3 4.2 9.6 5.2 0.20001 1 6.2 2.8 6 1.7 5 2-1 0.20001 0 1.4 1 1.3 4.5 1.6 3.5 0.20001 3.5 1.7t1.8 3q1.7 1.5 1.4 3-0.20001 1.5 2.8 0.70001 3-0.70001 8 0.29999t6 1.5l1 0.5-0.20001 0.29999-0.29999 0.20001 0.70001 0.79999q0.79999 0.70001 1 1l0.29999 0.20001 0.5 1 0.5 1 0.29999 0.20001 0.20001 0.29999 0.5 0.29999 0.5 0.20001-0.20001 1-0.29999 1-0.5 1-0.5 1-0.5 1.5q-0.5 1.5-2.2 2.3-1.8 0.70001-1.3 2 0.5 1.2-2.5 1.2t-3 1-1 1h-1l1.2 2.5q1.3 2.5 0.79999 6t-1.8 6q-1.2 2.5 0 2 1.3-0.5 1 6-0.20001 6.5-1 7-0.70001 0.5 0 3.7 0.79999 3.3 1.8 3.8l1 0.5v0.5l-1.5 0.20001-1.5 0.29999h-2.5q-2.5 0-8-0.5t-7 0.5-2.3 0.29999q-0.70001-0.79999-4-0.29999-3.2 0.5-3 2.5 0.29999 2-2 2.2-2.2 0.29999-7.7 1.8t-6.7 5.2q-1.3 3.8-2.6 3.6-1.2-0.29999-3.7 1.2t-5 1.8l-2.5 0.20001 1 4.8q1 4.7 2.5 8 1.5 3.2-1 3.2t-3 3.8q-0.5 3.7-4.5 2.4-4-1.2-4-0.20001t-3 3.2q-3 2.3-5 2.6-2 0.20001-3.2 3.2-1.3 3-3.8 21t-2 19l0.5 1 0.29999 0.20001 0.20001 0.29999-0.20001 0.29999-0.29999 0.20001-0.29999 0.20001-0.20001 0.29999-2 0.29999-2 0.20001v2l-1 0.20001-1 0.29999-1 0.29999-1 0.20001-0.20001-1-0.29999-1v-10q0-5 1.7-7 1.8-2 0.79999-2t-2-13-3-13.8q-2-0.70001-3.5-3.4-1.5-2.8-4-3.3t-2.5-2.5-2.5-1-3.3-4.5q-0.70001-5.5-2.4-8.3-1.8-2.7-5.3-2.7t-3.3-2.7q0.29999-2.8-5.4-3.8-5.8-1-6.3-5.5t-1.5-4.5-1-3-3.5-2.2l-3.5 0.70001-0.20001-0.29999-0.29999-0.20001-0.29999-0.20001-0.20001-0.29999 0.20001-0.29999 0.29999-0.20001 0.29999-0.20001 0.20001-0.29999 1.5-0.29999q1.5-0.20001 0.29999-3.2-1.3-3 0-4 1.2-1 1.2-2t-1-1.2q-1-0.29999-1.5-1.6-0.5-1.2-1.5-1.4l-1-0.29999-0.20001-0.29999-0.29999-0.20001-0.29999-0.20001-0.20001-0.29999 4-0.29999q4-0.20001 4-1.2t1-1 1.2-5q0.29999-5 2-6 1.8-1 1.6-2.5-0.29999-1.5 1.7-12.5t2.5-17.5-0.5-8.5-5.7-4.5q-4.8-2.5-8.6-10-3.7-7.5-6-8.3-2.2-0.70001-3.7-2.4-1.5-1.8-4.7-2.8-3.3-1-7.6-2.8-4.2-1.7-16.2-4.7t-12-4-3.2-1.7q-3.3-0.79999-7-1.8-3.8-1-3.8-2t-4-2.2q-4-1.3-8.5-1.3t-5-1.3q-0.5-1.2-12.5-4.2t-11.5-5.5-0.5-2.5-1-3-1-3-2.8-4.5q-1.7-4.5-2.7-7l-1-2.5v-5l0.5-1 0.5-1 0.29999 0.20001 0.20001 0.29999 0.20001 0.29999 0.29999 0.20001 0.70001 2q0.79999 2 3.6 1 2.7-1 3-2 0.20001-1 2.2-1t3.2-4.5q1.3-4.5 1-5.5-0.20001-1 1.6-1 1.7 0 1.4-3.5-0.20001-3.5 0.79999-3.5t1 1 1 1.2q1 0.29999 2.5 0.29999h1.5l0.20001-0.29999 0.29999-0.20001 0.29999-0.20001 0.20001-0.29999-0.20001-0.29999-0.29999-0.20001-0.29999-0.20001-0.20001-0.29999 0.20001-0.29999 0.29999-0.20001v-1.5q0-1.5-0.29999-1.7-0.20001-0.29999-0.20001-1v-0.79999h1.5l0.29999 0.5 0.20001 0.5 2.2-1q2.3-1 2.6-2 0.20001-1 2-0.5 1.7 0.5 5 0.29999 3.2-0.29999 7-2 3.7-1.8 4-2.8 0.20001-1 5-0.5 4.7 0.5 7.4-1.3 2.8-1.7 3.8-1.7h1l1.8 2.7q1.7 2.8 2.2 4.3l0.5 1.5 0.29999 0.20001 0.20001 0.29999h4l0.20001-0.29999 0.29999-0.20001 3.5-5q3.5-5 4.2-4.2 0.79999 0.70001 3.3-1 2.5-1.8 3-1 0.5 0.70001 1.5 0.40002 1-0.20001 1 0.79999t1.5 0.79999q1.5-0.29999 3.5-0.29999h2l1.5-0.5q1.5-0.5 0.29999-2.2-1.3-1.8-1-3 0.20001-1.3 2-1 1.7 0.20001 2 4 0.20001 3.7 2.4 3 2.3-0.79999 3-1.6 0.79999-0.70001 3.8-1 3-0.20001 3 0.79999t1.8 2q1.7 1 2 1.2z" fill="#d71820" fill-rule="evenodd" stroke="#d71820" stroke-width=".5"/>
 <path d="m592.2 374h-0.20001l-0.5-0.20001q-0.5-0.29999-1.5-0.59998-1-0.20001-1.2 0.79999l-0.29999 1-0.29999 1-0.20001 1h3v2h-5l-0.20001-3q-0.29999-3-0.59998-3.2-0.20001-0.29999-2.7 0.20001t-4 1-6 1.5-17 1.3q-12.5 0.20001-12.7-0.79999-0.29999-1-2.6-1.8-2.2-0.70001-2.7-2.4l-0.5-1.8-1.2-2.5q-1.3-2.5-1.6-5-0.20001-2.5 1.6-3 1.7-0.5 1-2.7-0.79999-2.3-1.8-2.6-1-0.20001-1.5-3.2t0.70001-3.5q1.3-0.5 2.3-4.5t2-7-0.5-4.5 1.5-2 7.3-7.7q4.2-7.3 12.7-7.3t9.5-0.29999q1-0.20001 1 1.3t4 1 4 1 8 2.7q8 1.3 11.2 3 3.3 1.8 4 13 0.79999 11.3 0.29999 14-0.5 2.8-1.5 2.8t-2.8 5q-1.7 5-2 6.2-0.20001 1.3-2.7 2-2.5 0.79999-1.3 4.3 1.3 3.5 1 3.5z" fill="#010508" fill-rule="evenodd" stroke="#010508" stroke-width=".5"/>
 <path d="m1210 226.8-1 0.20001-1.5 0.20001q-1.5 0.29999-2.5 2-1 1.8-2 2-1 0.29999-3.5-0.40002-2.5-0.79999-3.3 3.2-0.69995 4-4 4.8-3.2 0.70001-6.7 0-3.5-0.79999-4.3-2.3-0.69995-1.5-1.3999 0.5-0.80005 2-1.8 2.2-1 0.29999-9.5-1.2t-9.5-0.5-1.2 2.7q-0.30005 1.8-2 2-1.8 0.29999-4.3 0.79999t-4.3-1.8q-1.7-2.2-2.7-0.20001l-1 2-0.30005 0.20001-0.19995 0.29999h-2l-0.19995-0.29999-0.30005-0.20001-0.30005 0.20001-0.19995 0.29999-0.19995 0.29999-0.30005 0.20001h-0.5l-0.19995-0.5-0.30005-0.5h-0.5v-5q0-5-1-5t-1-2.5 1-2.7q1-0.29999 0.80005-3-0.30005-2.8-2-3.3-1.8-0.5-1.8-3.5t-1.5-3.2q-1.5-0.29999-2.5-1.8t-2.8-8.8q-1.7-7.2-1.7-11.7t-2.3-5q-2.2-0.5-2.7-4t-3-3.5-2.7-2.5q-0.30005-2.5-2-2-1.8 0.5-1.3-2.5t-1.7-4.5q-2.3-1.5-3.8-4.5t-2.8-3.8q-1.2-0.7-2.3999-3-1.3-2.2-2.6001-2.7-1.2-0.5-1.3999-2.5-0.30005-2-2-2.5-1.8-0.5-2-2-0.30005-1.5-1.6001-2-1.2-0.5-2-3-0.69995-2.5-4.2-5t-2.8-5q0.80005-2.5-2.2-2.7-3-0.3-3.8-1.6-0.69995-1.2-2-2.4-1.2-1.3-5-4.6-3.7-3.2-8-5-4.2-1.7-5.7-4-1.5-2.2-4-3-2.5-0.7-5.7-3.4-3.3-2.8-8-5.6-4.8-2.7-6.8-5-2-2.2-4.5-2.2t-2.5-1-2.5-0.2q-2.5 0.7-4.5-1.8t-3.2-0.8q-1.3 1.8-3 0.60001-1.8-1.3-2.8-0.8t-4.8-1.2q-3.7-1.8-8.4-2.6l-4.8-0.7h-6l-0.20001 0.3-0.29999 0.2h-1v-2l0.5-1 0.5-1 0.5-1.5q0.5-1.5 0-4t2.8-3.7q3.2-1.3 4.2-6 1-4.8-1.5-4.3l-2.5 0.5v-2q0-2 1.5-1.8 1.5 0.3 2.5 0.3h1l-0.20001-0.3-0.29999-0.2-0.29999-0.2-0.20001-0.3-1.5-0.3q-1.5-0.2-1.5-1.7t-1.5-1.7q-1.5-0.3-2.3-1.6-0.70001-1.2 0.59998-1.7 1.2-0.5 0-6.5-1.3-6-2.6-5.8-1.2 0.3-1.4-4.4-0.29999-4.8 0.40002-6.3 0.79999-1.5 1.8-1.7 1-0.3 2-2 1-1.8 0-1.8t-2-2.2l-1-2.3-0.20001-0.3-0.29999-0.2-0.29999-1.5-0.20001-1.5 1 0.2 1 0.3 0.20001 0.3 0.29999 0.2 0.29999 0.2 0.20001 0.3 1 0.5q1 0.5 5.2-0.2 4.3-0.8 4-1.8-0.20001-1 4.3-2.5t4.5-2.5 7-3.8q7-2.7 12.8-4 5.7-1.2 6.4-2.4 0.80005-1.3 3-2 2.3-0.8 3-2 0.80005-1.3 3.6001-2 2.7-0.8 4-2.6 1.2-1.7 4.2-2 3-0.2 3-1.2t6.5-4.8q6.5-3.7 10.5-4.2t6-2 8-1 16.8 7.8q10.7 7.2 13.2 8.2t5.2 4.5q2.8 3.5 5 4.5 2.3 1 2.6001 2 0.19995 1 3 3 2.7 2 2.7 12.5t-0.5 29-2 22.5 1.2 12.2q2.8 8.3 4 9 1.3 0.8 2.8 3.8t9 12.5 11.2 15.5q3.8 6 5 6.5 1.3 0.5 6 9.3 4.8 8.7 6 9.4 1.3 0.8 2 2.6 0.80005 1.7 2.6001 2.4 1.7 0.8 3 3 1.2 2.3 10.4 4.6 9.3 2.2 11.6 2 2.2-0.3 7.7 1.4 5.5 1.8 5.5 2.8t3 1 4.2 8.5q1.3 8.5 2.8 10.5t1.2 9.2q-0.19995 7.3 0.80005 7.6 1 0.20001 1 1.7t-3.8 3.5q-3.7 2-3.3999 3.5 0.19995 1.5-2.6001 3-2.7 1.5-3.2 4t0.19995 3.3q0.80005 0.70001-0.69995 1-1.5 0.20001-1.5 1.7t-1 1.7l-2 0.59998zm-223.8-153q-0.20001-0.3 0-0.60001 0.29999-0.2 0.29999 0.3t-0.29999 0.3z" fill="#db141d" fill-rule="evenodd" stroke="#db141d" stroke-width=".5"/>
 <path d="m713.8 299h0.20001l0.20001 1 0.29999 1 0.29999 0.20001q0.20001 0.29999 1.4 5 1.3 4.8 1.3 10.3t1 8-0.5 8-2.8 6.3q-1.2 0.70001-3.2 3-2 2.2-5 2.4-3 0.29999-3.2 2.6-0.29999 2.2-6.6 3-6.2 0.70001-7.2 1.7t-1.5-0.29999q-0.5-1.2-4 0-3.5 1.3-5.5 0.29999l-4-2q-2-1-7.5-1.5t-6-1.8q-0.5-1.2-3.5-2.2l-3-1-2.5-0.79999q-2.5-0.70001-1.3-2.4 1.3-1.8-0.20001-6.3t-2.2-8.3q-0.79999-3.7-3-5.4-2.3-1.8-1-2.3 1.2-0.5 1.4-3.5 0.29999-3 5-5.8 4.8-2.7 12.3-7.7t13-6.7q5.5-1.8 5.5-2.8t4-1 4-1.5 1.5-1.5 2 1.2q0.5 1.3 3.5 0.79999t7.5 0.79999q4.5 1.2 5.5 3 1 1.7 2 2 1 0.20001 1.2 2.2 0.29999 2 0.59998 2z" fill="#010508" fill-rule="evenodd" stroke="#010508" stroke-width=".5"/>
 <path d="m634.79999,355 .20001-1h2q2,0 2.20001,1 .29999,1 .79999,2l.5,1h.29999 .20001l1,1.79999q1,1.70001 3.5,2.40002 2.5.79999 6.70001,5.79999 4.29999,5 5.29999,10t2,6.5 .29999,6.70001q-.79999,5.29999-.79999,5.59998v.20001l-.5.20001q-.5.29999-.5.59998v.20001 .20001q0,.29999-7.5.29999t-11-2.5l-3.5-2.5-.20001-.29999-.29999-.20001-.5-1-.5-1-.70001,6.20001q-.79999,6.29999-4.79999,9-4,2.79999-4,3.79999v1l-1.5-.20001-1.5-.29999-1.5-.5-3-1-1.5-.5-.20001-.29999-.29999-.20001-.29999-.20001-.20001-.29999-.20001-.29999q-.29999-.20001-1.59998-.70001-1.20001-.5-2.20001-6t0-5.5-.5-6.5l-1.5-6.5h.20001q.29999,0 1.29999-8t2.5-11l1.5-3 .29999-.20001 .20001-.29999 .20001-.29999 .29999-.20001 .5-1.5 .5-1.5 .29999-.20001 .20001-.29999 .20001-.29999 .29999-.20001 .29999.20001 .20001.29999 1,.5 1,.5 .20001.29999 .29999.20001 .29999.20001 .20001.29999 1,.29999 1,.20001 .20001,1 .29999,1 1.70001,4.20001q1.79999,4.29999 2,4.59998 .29999.20001.59998,3.20001l.20001,3h1 1l-.20001,1-.29999,1-.29999.20001-.20001.29999 .20001.29999 .29999.20001 .5,1 .5,1 .29999.20001 .20001.29999 1,.29999 1,.20001 .20001-3 .29999-3v-4q0-4 .5-9.5l.5-5.5 .29999-1z" fill="#020508" fill-rule="evenodd" stroke="#020508" stroke-width=".5"/>
 <path d="m233 523.2 3-0.20001-0.20001 0.5-0.29999 0.5-0.29999 0.20001-0.20001 0.29999 0.20001 0.29999 0.29999 0.20001 0.29999 1.5q0.20001 1.5 2.2 1.5t1.8 7.5q-0.29999 7.5-0.59998 8.5-0.20001 1 0.79999 1t0.5 2.5-1.5 2.7q-1 0.29999 0.79999 1 1.7 0.79999 1.7 4.3t7.5 5 7.2 2.3q-0.20001 0.70001 0 1l0.29999 0.20001 0.29999 0.20001 0.20001 0.29999 0.20001 0.29999 0.29999 0.20001 0.29999 0.20001 0.20001 0.29999 0.20001 0.29999 0.29999 0.20001 0.29999 0.20001 0.20001 0.29999 0.20001 0.29999 0.29999 0.20001 0.29999 1 0.20001 1 1 0.20001 1 0.29999-3.5 1.3q-3.5 1.2-4.7 6.2-1.3 5-1.6 8l-0.20001 3 4-0.20001q4-0.29999 2.8 1-1.3 1.2-1 1.4 0.20001 0.29999 1.2 0.59998l1 0.20001 0.20001 1 0.29999 1 0.29999 0.20001 0.20001 0.29999 0.20001 0.29999 0.29999 0.20001v1l-0.29999 0.20001-0.20001 0.29999-0.20001 0.29999-0.29999 0.20001-0.29999 0.20001q-0.20001 0.29999-1.4 1l-1.3 0.79999-0.5 1-0.5 1h-0.5l-0.5 0.20001q-0.5 0.29999-1.5 0.79999t-1.8 2.2q-0.70001 1.8-1.7 0.79999t-1.5 2.5-2.2 4.3l-1.8 0.70001-0.20001 0.29999q-0.29999 0.20001-2.6-2-2.2-2.3-3.2-1.8t-1 1.5-7.5 3-8 0.70001q-0.5-1.2-5-2.4-4.5-1.3-5-2.6-0.5-1.2-1.5-1.4-1-0.29999-3.2-3.6-2.3-3.2-5.6-4.7-3.2-1.5-3.2-3.5t-2.5-2.5-2.5-2.5-1.5-2-1.7 1q-0.29999 1-2-0.79999-1.8-1.7-11.8-2.7t-10.5-2.3q-0.5-1.2-1.7-0.70001-1.3 0.5-5.6-0.29999-4.2-0.70001-5.7-2.2t-3.5-0.5-6-1.3l-4-2.2v-0.5l-1-0.5q-1-0.5-1.8-3.8-0.70001-3.2 0-3.7 0.79999-0.5 1-7 0.29999-6.5-1-6-1.2 0.5 0-2 1.3-2.5 1.8-6t-0.79999-6l-1.2-2.5h1q1 0 1-1t3-1 2.5-1.2q-0.5-1.3 1.3-2 1.7-0.79999 2.2-2.3l0.5-1.5 0.5-1 0.5-1 0.29999-1 0.20001-1 2.5-1.8q2.5-1.7 4.3-1.4 1.7 0.20001 2 1.2 0.20001 1 4.2 2t4-0.5 3.8-0.5q3.7 1 8.4 1.8 4.8 0.70001 7.3-0.29999t12-1 20.5-0.5 14-0.79999z" fill="#b4191d" fill-rule="evenodd" stroke="#b4191d" stroke-width=".5"/>
 <path d="m1097.5 472.2 0.5-0.20001v3l1 0.20001 1 0.29999 8.2 2.3q8.3 2.2 8.8 2.7t0.80005-0.5q0.19995-1 3.3999-1 3.3 0 4 2.2 0.80005 2.3 3.8 1.8t4.5-0.5h1.5l0.19995 0.29999 0.30005 0.20001 0.30005 1q0.19995 1-0.80005 1t-0.80005 1.5q0.30005 1.5 0.6001 2.5l0.19995 1 1 0.20001 1 0.29999 0.19995 0.29999 0.30005 0.20001 0.30005-0.20001 0.19995-0.29999 0.5-0.29999 0.5-0.20001v0.20001q0 0.29999 0.19995 0.59998 0.30005 0.20001-1 3.4-1.2 3.3-3 3.6-1.7 0.20001-2.7 0.20001t0.30005 2.5q1.2 2.5-7.6001 6-8.7 3.5-8 8.3 0.80005 4.7-0.19995 4.2t-2.2 2.8q-1.3 3.2-4.3 7.7t-4.7 5.3q-1.8 0.70001-2.8 3.4-1 2.8-2.5 3-1.5 0.29999-3 2-1.5 1.8-4 2.6-2.5 0.70001-3.5 3.4-1 2.8-2 3-1 0.29999-1.5 3.3t-1.7 6.3l-1.3 3.2-0.30005-0.20001q-0.19995-0.29999-1.3999-1-1.3-0.79999-4-1l-2.8-0.29999-0.19995 0.29999q-0.30005 0.20001-0.80005 3.7t-2.2 4q-1.8 0.5-2 2.5-0.30005 2-1.6001 2.5-1.2 0.5-1 4 0.30005 3.5-7 3.7-7.2 0.29999-8.7-0.70001t-5-0.5-4.3 2.2q-0.69995 1.8-2.3999 3.6-1.8 1.7-2.6001 1-0.69995-0.79999-5.3999-0.59998-4.8 0.29999-5.6001 1.6-0.69995 1.2-0.69995 5.2v4l-0.30005-0.20001-0.19995-0.29999-1-0.29999-1-0.20001-0.20001-1q-0.29999-1-2.6-2-2.2-1-3.7 0.79999l-1.5 1.7h-2l-0.20001-0.29999-0.29999-0.20001-0.29999 0.20001-0.20001 0.29999h-4v-0.5h0.5l0.5-1 0.5-1 1.3-0.79999q1.2-0.70001 1.4-1l0.29999-0.20001 0.29999-0.20001 0.20001-0.29999 0.20001-0.29999 0.29999-0.20001v-1l-0.29999-0.20001-0.20001-0.29999-0.20001-0.29999-0.29999-0.20001-0.29999-1-0.20001-1-1-0.20001q-1-0.29999-1.2-0.59998-0.29999-0.20001 1-1.4 1.2-1.3-2.8-1l-4 0.20001 0.20001-3q0.29999-3 0.59998-5.5 0.20001-2.5-0.79999-2.5t-1-1 1.5-1.2q1.5-0.29999 2-1.6 0.5-1.2 4-2.4l3.5-1.3-1-0.29999-1-0.20001-0.20001-1-0.29999-1-0.29999-0.20001-0.20001-0.29999-0.20001-0.29999-0.29999-0.20001-0.29999-0.20001-0.20001-0.29999-0.20001-0.29999-0.29999-0.20001-0.29999-0.20001-0.20001-0.29999-0.20001-0.29999-0.29999-0.20001-0.29999-0.20001q-0.20001-0.29999 0-1 0.29999-0.79999-7.2-2.3t-7.5-5-1.7-4.3q-1.8-0.70001-0.79999-1 1-0.20001 1.5-2.7t-0.5-2.5-0.79999-1q0.29999-1 0.59998-8.5 0.20001-7.5-1.8-7.5t-2.2-1.5l-0.29999-1.5-0.29999-0.20001-0.20001-0.29999 0.20001-0.29999 0.29999-0.20001 0.29999-0.5 0.20001-0.5 1.5 0.20001 1.5 0.29999 9.2-2.3q9.3-2.2 12.6-4 3.2-1.7 6-2 2.7-0.20001 3-1.2 0.20001-1 4.7-3.2 4.5-2.3 10.5-4.3t8.5-3.5 4-1 6.5-3 10.8-5.2q5.7-1.8 6-2.8 0.19995-1 2-2 1.7-1 2.3999-2.8 0.80005-1.7 4.3-3.2t6.7-2.2q3.3-0.79999 4-2 0.80005-1.3 2-1 1.3 0.20001 2-1 0.80005-1.3 1.3-1.6zm-68.3 114.6q-0.19995-0.29999 0-0.59998 0.30005-0.20001 0.30005 0.29999t-0.30005 0.29999z" fill="#a61d20" fill-rule="evenodd" stroke="#a61d20" stroke-width=".5"/>
 <path d="m339 130.5 1 0.5 1.2 5q1.3 5 6.6 6.2 5.2 1.3 9.7 1.8t6.3 1.8q1.7 1.2 3 0 1.2-1.3 2.2-0.79999t2 0.20001l1-0.20001 1.2 4.5q1.3 4.5 0.79999 8.5t-1.2 5.2q-0.79999 1.3-2.6 2-1.7 0.79999-1.7 1.8t0.29999 1.2l0.20001 0.29999 0.20001 0.29999 0.29999 0.20001v2l-0.29999 0.20001-0.20001 0.29999-0.20001 0.29999-0.29999 0.20001-0.29999 0.20001-0.20001 0.29999 0.20001 0.29999 0.29999 0.20001 3.3-0.20001q3.2-0.29999 4.2 0l1 0.20001-0.79999 4q-0.70001 4-1.4 5.8-0.79999 1.7-1.8 2-1 0.20001-0.5 4.2t-0.5 4-1 1.5 1.2 2q1.3 0.5 0.29999 3.5t-1 10v14q0 7 1 9.5t-0.5 4-1.8 3.5q-0.20001 2 1.3 2t1.5 4.8q0 4.7 0.79999 11 0.70001 6.2 2 6.7 1.2 0.5 2.2 5.5t0 5-0.5 1.2q0.5 1.3 1.5 1.6l1 0.20001-0.20001 1.5-0.29999 1.5-0.29999 0.20001-0.20001 0.29999 1 0.29999 1 0.20001v2l-1-0.20001-1-0.29999-0.20001-0.29999-0.29999-0.20001-0.29999 0.20001-0.20001 0.29999-0.20001 0.29999-0.29999 0.20001-0.29999-0.20001-0.20001-0.29999-0.20001-0.29999q-0.29999-0.20001-2-1.2-1.8-1-1.8-2t-3-0.79999q-3 0.29999-4 1.3t-5.5 1h-11q-2.5 0-3-1.3-0.5-1.2-2.5 0-2 1.3-2.2 3-0.29999 1.8-2 1.6-1.8-0.29999-4.6 3l-2.7 3.2-0.29999 0.20001-0.20001 0.29999h-4l-0.20001-0.29999-0.29999-0.20001-0.5-1.5q-0.5-1.5-2.2-4.3l-1.8-2.7h-1q-1 0-3.8 1.7-2.7 1.8-7.4 1.3-4.8-0.5-5 0.5-0.29999 1-4 2.8-3.8 1.7-8 2-4.3 0.20001-5-0.29999-0.79999-0.5-1 0.5-0.29999 1-2.6 2l-2.2 1-0.20001-0.5-0.29999-0.5h-1.5l-0.20001-0.5q-0.29999-0.5-0.29999-4.5v-4l-0.29999-0.20001-0.20001-0.29999h-2l-1 0.29999-1 0.20001 0.20001-2 0.29999-2 0.29999-0.20001 0.20001-0.29999 1.5-0.5q1.5-0.5 5.5-1.5t3.8-3.7q-0.29999-2.8 1.4-5 1.8-2.3 4.3-2.8t2.7-2.8q0.29999-2.2 1.6-2.4 1.2-0.29999 1.2-1.8t4.5-3.2q4.5-1.8 2.7-3.8-1.7-2-0.40002-7 1.2-5 2.4-5.5 1.3-0.5 0-1.3-1.2-0.70001 0-2 1.3-1.2 0.59998-3-0.79999-1.7-0.29999-4.4 0.5-2.8-1-2.6-1.5 0.29999-2-1-0.5-1.2 0.5-1.2t0.5-1.8q-0.5-1.7-1.3-5-0.70001-3.2 2.6-4l3.2-0.70001 0.20001-0.29999 0.29999-0.20001v-1l-0.29999-0.20001-0.20001-0.29999-0.20001-0.29999-0.29999-0.20001-0.29999-0.20001-0.20001-0.29999h-1q-1 0-2.8 0.29999-1.7 0.20001-1.2-1.3t1-12.5 2-15 0-9-0.20001-5.5q1.2-0.5 2.2-4t4.5-6.3q3.5-2.7 3-6-0.5-3.2 1-3.2t1.7-1.5q0.29999-1.5 1.6-2 1.2-0.5 1.4 0.5 0.29999 1 3-1.2 2.8-2.3 3.3-3 0.5-0.79999 2 0 1.5 0.70001 3.7-0.59998 2.3-1.2 2.6-5.7 0.20001-4.5 1.2-4zm17.5 146q0-1.5 2-1t2.3 2.5q0.20001 2-2 1-2.3-1-2.3-2.5z" fill="#b21b1f" fill-rule="evenodd" stroke="#b21b1f" stroke-width=".5"/>
 <path d="m104.8 408h0.20001l2.8 1q2.7 1 3 3.5 0.20001 2.5 1.2 2.5t1 1 1 1 1 1.5 1.2 2q1.3 0.5 1.6 3.5 0.20001 3 1.7 3t2.5 3 3.2 3q2.3 0 3.6 1.2 1.2 1.3 2.7 1 1.5-0.20001 1.5 0.79999t6.5 2.5 7 0.29999q0.5-1.3 3.5 0.70001t9 1.5 6.5-1 1-0.79999l0.5-0.20001h0.5l0.29999 0.20001 0.20001 0.29999 0.20001 0.29999 0.29999 0.20001 0.29999 0.20001 0.20001 0.29999 0.20001 0.29999 0.29999 0.20001 0.29999 1 0.20001 1h3l-0.20001 2.5q-0.29999 2.5-0.59998 4.5-0.20001 2-2 3.5-1.7 1.5-1.7 4.5t1.5 4.5 0.5 4 0.29999 4.5q1.2 2 0.20001 1.8-1-0.29999-1.8 1.4-0.70001 1.8-2 2.3-1.2 0.5-1.2 1.5t-1.5 0.20001q-1.5-0.70001-4-1.2t-3 0.79999q-0.5 1.2-3 1.2t-2.5 1.5-1.5 1.7q-1.5 0.29999-5-0.40002-3.5-0.79999-5.3 1.7-1.7 2.5-4 3.7-2.2 1.3-2.7 0-0.5-1.2-1.3-0.70001-0.70001 0.5-1.4 1.3-0.79999 0.70001-3.3 0.40002l-2.5-0.20001-3 0.20001q-3 0.29999-6.8 1.6-3.7 1.2-4.7-1.3t-4.7-5.3l-3.8-2.7-1-0.29999-1-0.20001v1q0 1-1.5 1.8-1.5 0.70001-4.3 5.4-2.7 4.8-7 5.3-4.2 0.5-4.7 2.7-0.5 2.3-3 1.8t-3.5 1.8q-1 2.2-4.5 2.2t-3.7 1q-0.29999 1-1.6 1.2-1.2 0.29999-2.2-1.4-1-1.8-5-1.6-4 0.29999-4.8 1.6-0.70001 1.2-5-0.79999l-4.2-2-1.8-3q-1.7-3 0-3.5 1.8-0.5 0.79999-5t-2-4.5-1-1 1-1 1-3 0.79999-3.5l2.4-1.7q1.8-1.3 2.8-1.6 1-0.20001 3-2.4 2-2.3 5-2.3h5.5q2.5 0 4-4.5t3-4 3 0.5h1.5l-0.20001-0.29999-0.29999-0.20001v-2l0.29999-0.20001 0.20001-0.29999 0.20001-0.29999 0.29999-0.20001v-2l-0.29999-0.20001-0.20001-0.29999-3-1.7q-3-1.8-3.2-3.3-0.29999-1.5 1-5.3 1.2-3.7 4.2-6.2t5.8-3.8q2.7-1.2 3.4-2.4 0.79999-1.3 4.8-1.3t4.8-0.70001q0.70001-0.79999 1-4.8 0.20001-4 3.4-5 3.3-1 1.8-3.5t-1.8-3.5l-0.20001-1h4q4 0 4.2-1.5 0.29999-1.5 0.59998-1.5z" fill="#b41c21" fill-rule="evenodd" stroke="#b41c21" stroke-width=".5"/>
 <path d="m559.8 457.8 0.20001-0.29999h2l0.20001 0.29999 0.29999 0.20001 0.29999 0.20001 0.20001 0.29999 0.20001 0.29999 0.29999 0.20001 0.5 1.5 0.5 1.5 0.29999 0.20001 0.20001 0.29999 0.20001 0.29999 0.29999 0.20001 1.3 2.8q1.2 2.7 4 5.4 2.7 2.8 6.2 8.3t6 9 2.8 4.5q0.20001 1 1.2 1.2l1 0.29999 1 0.5 1 0.5 0.20001 0.29999 0.29999 0.20001 0.29999-0.20001 0.20001-0.29999 0.20001-0.29999 0.29999-0.20001 0.29999-0.20001 0.20001-0.29999 1-0.5 1-0.5 0.20001-0.29999 0.29999-0.20001 0.29999-0.20001 0.20001-0.29999 0.20001-0.29999 0.29999-0.20001 0.29999-0.20001 0.20001-0.29999 0.20001-0.29999 0.29999-0.20001 0.29999-0.20001 0.20001-0.29999 0.20001-0.29999 0.29999-0.20001 0.29999-0.20001 0.20001-0.29999 0.20001-0.29999q0.29999-0.20001 1.6-1 1.2-0.70001 1.4-2.4 0.29999-1.8-1-1.6-1.2 0.29999-2-3l-0.70001-3.2-0.29999-0.20001-0.20001-0.29999 0.20001-0.29999 0.29999-0.20001 0.29999-0.20001 0.20001-0.29999 1-0.5 1-0.5 0.20001-0.29999 0.29999-0.20001 0.29999-0.20001 0.20001-0.29999 0.20001-0.29999 0.29999-0.20001 0.29999-0.20001 0.20001-0.29999 2.2 0.29999q2.3 0.20001 3 2.4 0.79999 2.3 1.3 2.3t1.5 0.5l1 0.5 0.20001 0.29999 0.29999 0.20001 0.29999 0.20001 0.20001 0.29999 0.20001 0.29999 0.29999 0.20001 0.29999-3.5 0.20001-3.5h2v-2l2.8-1.5q2.7-1.5 4.7 0.5t3.7 1.2q1.8-0.70001 3.6 0 1.7 0.79999 2 2.6 0.20001 1.7 1.4 3 1.3 1.2 1.6 1.4l0.20001 0.29999 1.5 0.5 1.5 0.5 1 0.29999 1 0.20001 0.20001-2q0.29999-2 1.3-5l1-3 0.29999 0.20001 0.20001 0.29999 1 0.29999 1 0.20001 0.79999 3.5q0.70001 3.5 1 4.5l0.20001 1h3l0.20001-1 0.29999-1 0.29999 0.20001 0.20001 0.29999 1.5 0.29999 1.5 0.20001h1.5q1.5 0 1.5-1t2.2 0q2.3 1 4.8 7t3.5 8 1.3 3l0.20001 1 2-0.20001 2-0.29999 4-0.29999 4-0.20001 0.20001-1.5q0.29999-1.5 2-2 1.8-0.5 2.3-3.3 0.5-2.7 1.5-7 1-4.2 0-4.2t-1.2-2.5l-0.29999-2.5v-2l0.29999-0.20001 0.20001-0.29999 0.20001-0.29999 0.29999-0.20001 0.29999 0.20001 0.20001 0.29999 0.20001 0.29999 0.29999 0.20001 0.29999 1.5 0.20001 1.5 3.5 1.8q3.5 1.7 6 1.4 2.5-0.20001 2.5-1.2t4-0.20001q4 0.70001 5.2-2 1.3-2.8 1.3-4.8t-0.29999-3l-0.20001-1 2.5 0.20001 2.5 0.29999 4 0.5 4 0.5-1.5 0.29999q-1.5 0.20001-1 1.4 0.5 1.3 3.7 1.6 3.3 0.20001 2 3.4-1.2 3.3 1.8 3.8t2 0.79999q-1 0.20001 0.20001 3.2 1.3 3-0.40002 4.5-1.8 1.5-1.3 3.3 0.5 1.7-2.5 2.2t-4.5 1l-1.5 0.5-0.20001 0.29999-0.29999 0.20001 0.29999 2.2q0.20001 2.3 1.2 2.6 1 0.20001 1.2 1.7l0.29999 1.5 0.29999 0.20001 0.20001 0.29999 0.20001 0.29999 0.29999 0.20001 0.29999 0.20001 0.20001 0.29999h-2l-1-0.5q-1-0.5-3.2-1.8l-2.3-1.2-0.29999 0.20001q-0.20001 0.29999 0 3 0.29999 2.8-1.2 2.3t-5 2.5l-3.5 3-0.29999 0.20001-0.20001 0.29999-1 0.5-1 0.5 3 0.70001q3 0.79999 2.8 2.3l-0.29999 1.5-0.29999 0.20001-0.20001 0.29999-0.20001 0.29999-0.29999 0.20001-0.29999 0.20001-0.20001 0.29999-0.20001 0.29999-6 4q-5.8 3.7-9.3 7.4-3.5 3.8-12 6-8.5 2.3-24 6.3t-24.5 5-10 0-3.5-1.3q-2.5-0.20001-3.5-2.7t-4-1.5l-3 1 0.20001-1 0.29999-1 0.5-2q0.5-2 1.8-4l1.2-2-2.5-0.20001q-2.5-0.29999-4-0.79999t-5-1.5-10.5-2.5-12.2-8.2q-5.3-6.8-5.8-9.3t-2.8-7.3q-2.2-4.7-6-14-3.7-9.2-3.2-18.2l0.5-9-0.29999-0.20001-0.20001-0.29999-0.20001-0.29999-0.29999-0.20001v-2l0.29999-0.20001 0.20001-0.29999 0.20001-0.29999 0.29999-0.20001 0.29999-0.20001z" fill="#bd1f24" fill-rule="evenodd" stroke="#bd1f24" stroke-width=".5"/>
 <path d="m727.8 298.2 0.20001 0.29999 0.5 0.29999 0.5 0.20001 1 0.5q1 0.5 2 4t2.5 3.5 1.5 2 1 2 2.2 5.5q1.3 5.5 2.6 6 1.2 0.5 0.20001 3.7-1 3.3-2.5 3.6-1.5 0.20001-1.5 1.7t1.2 2q1.3 0.5 1 4-0.20001 3.5 0.79999 3.5t2.5 4.5 0.5 4.5 1 3 6 3 3.8 4.5q-0.29999 4.5-0.29999 7t-1 1.5-1.3 3.2q-0.20001 4.3-2.7 5.3t-2 1.5-6.3 3.2q-6.7 2.8-7 3.8-0.20001 1-3 3.5-2.7 2.5-3.4 5-0.79999 2.5-5.8 2.5t-5.2-2l-0.29999-2-0.29999-0.20001-0.20001-0.29999h-2l-0.20001 0.29999-0.29999 0.20001-0.29999 0.20001-0.20001 0.29999-0.20001 0.29999-0.29999 0.20001 0.70001 4.8q0.79999 4.7-1.4 9-2.3 4.2-2.8 7.7t-1 6.5l-0.5 3-0.29999 1-0.20001 1-1-0.20001-1-0.29999-0.20001-0.29999-0.29999-0.20001-0.29999 0.20001-0.20001 0.29999-0.20001 0.29999-0.29999 0.20001-0.29999 0.20001-0.20001 0.29999-0.20001 0.29999-0.29999 0.20001-0.29999-1.5-0.20001-1.5-1.5-0.20001q-1.5-0.29999-1.3-0.59998 0.29999-0.20001-1.2-4.2l-1.5-4-0.29999-0.20001-0.20001-0.29999h-2l0.20001 0.29999 0.29999 0.20001v1l-0.29999 0.20001-0.20001 0.29999h-2l-0.20001-0.29999-0.29999-0.20001-0.29999 1.5q-0.20001 1.5-2.7 2.3-2.5 0.70001-1.5 3 1 2.2-1.2 0.70001-2.3-1.5-2.3 1t0.5 3.5l0.5 1 0.29999 1 0.20001 1-1-0.20001-1-0.29999-0.20001-0.29999-0.29999-0.20001-0.29999-0.20001-0.20001-0.29999-2.5-0.5-2.5-0.5-1-0.5-1-0.5 0.20001-0.29999 0.29999-0.20001v-0.5q0-0.5-0.29999-1.5l-0.20001-1h-2l-0.20001-0.5q-0.29999-0.5-0.29999-1v-4q0-3.5-1.3-6.5-1.2-3-4.7-4.2-3.5-1.3-3-3.6 0.5-2.2-0.5-2.4-1-0.29999-1.8-2-0.70001-1.8-2-2.3l-1.2-0.5v-1q0-1 1-1t1.2-5q0.29999-5-0.70001-6.5t-2-6.5-5.3-10q-4.2-5-6.7-5.8-2.5-0.70001-3.5-2.4l-1-1.8h0.5l0.5-1.5 0.5-1.5 0.5-3q0.5-3 1.8-3.5 1.2-0.5 1.4-1.5l0.29999-1h1q1 0 2.5 1.5t1.8 1.3l0.20001-0.29999 0.20001-0.29999 0.29999-0.20001 0.29999 0.20001 0.20001 0.29999 0.20001 0.29999 0.29999 0.20001 0.5-1.5 0.5-1.5v-1l-0.29999-0.20001-0.20001-0.29999 0.20001-0.29999 0.29999-0.20001 0.29999-0.5 0.20001-0.5 3 1q3 1 3.5 2.2 0.5 1.3 6 1.8t7.5 1.5l4 2q2 1 5.5-0.29999 3.5-1.2 4 0 0.5 1.3 1.5 0.29999t7.2-1.7q6.3-0.79999 6.6-3 0.20001-2.3 3.2-2.6 3-0.20001 5-2.4 2-2.3 3.2-3 1.3-0.79999 2.8-6.3t0.5-8-1-8-1.3-10.3q-1.2-4.7-1.4-5l-0.29999-0.20001-0.29999-1-0.20001-1h0.5l0.29999 0.20001 0.20001 0.29999 0.20001 0.29999 0.29999 0.20001 0.5-1 0.5-1 0.29999 0.20001 0.20001 0.29999 0.20001 0.29999 0.29999 0.20001 0.29999 0.20001 0.20001 0.29999 0.79999 0.70001q0.70001 0.79999 2.4-2.4 1.8-3.3 4-1.6 2.3 1.8 2.6 2z" fill="#b81e22" fill-rule="evenodd" stroke="#b81e22" stroke-width=".5"/>
 <path d="m535 370.2 2-0.20001 0.5 1.8q0.5 1.7 2.7 2.4 2.3 0.79999 2.6 1.8 0.20001 1 12.7 0.79999 12.5-0.29999 17-1.3t6-1.5 4-1 2.7-0.20001q0.29999 0.20001 0.59998 3.2l0.20001 3h5v-2h-3l0.20001-1 0.29999-1 0.29999-1q0.20001-1 1.2-0.79999 1 0.29999 1.5 0.59998l0.5 0.20001 1.5 0.79999q1.5 0.70001 2 2 0.5 1.2 2 1.2t1.3 2.5q-0.29999 2.5-0.29999 3t0.29999 1.5l0.20001 1 1 0.20001 1 0.29999 0.20001 0.29999 0.29999 0.20001 0.29999-0.20001 0.20001-0.29999 1-0.29999 1-0.20001v-3l1-0.20001 1-0.29999 0.20001-0.29999q0.29999-0.20001 0.59998 0l0.20001 0.29999 0.20001 0.29999 0.29999 0.20001 0.5-1q0.5-1 0.79999-0.5l0.20001 0.5 1.5 6.5q1.5 6.5 0.5 6.5t0 5.5 2.2 6q1.3 0.5 1.6 0.70001l0.20001 0.29999 0.20001 0.29999 0.29999 0.20001 0.29999 0.20001 0.20001 0.29999 1.5 0.5 3 1 1.5 0.5 1.5 0.29999 1.5 0.20001v-1q0-1 4-3.8 4-2.7 4.8-9l0.70001-6.2 0.5 1 0.5 1 0.29999 0.20001 0.20001 0.29999 3.5 2.5q3.5 2.5 11 2.5t7.5-0.29999v-0.20001h0.20001q0.29999 0 0.59998-0.5l0.20001-0.5 1.5 2.8q1.5 2.7 2.5 3 1 0.20001 0.5 2.4-0.5 2.3 3 3.6 3.5 1.2 4.7 4.2 1.3 3 1.3 6.5v4q0 0.5 0.29999 1l0.20001 0.5 0.20001 1.5 0.29999 1.5v1l-0.29999 0.20001-0.20001 0.29999-0.20001 0.29999-0.29999 0.20001-0.29999 0.20001-0.20001 0.29999-0.20001 0.29999-0.29999 0.20001-0.29999 1-0.20001 1-1-0.20001-1-0.29999-2-0.5q-2-0.5-2.5-1.8-0.5-1.2-1.5-1.4l-1-0.29999-0.20001-0.29999-0.29999-0.20001-0.29999 0.20001-0.20001 0.29999-0.20001 0.29999-0.29999 0.20001-1 6q-1 6-1 8.5t-0.29999 7l-0.20001 4.5-1-0.20001q-1-0.29999-3.5-1.6l-2.5-1.2 0.5 4.5q0.5 4.5-0.70001 4-1.3-0.5 0.20001 7t1.8 7.7l0.20001 0.29999 0.20001 0.29999 0.29999 0.20001 0.29999 0.20001 0.20001 0.29999 0.20001 0.29999 0.29999 0.20001v2l-0.29999 0.20001-0.20001 0.29999v0.5l-1.5-0.20001-1.5-0.29999-0.20001-0.29999-0.29999-0.20001-0.29999 1-0.20001 1h-3l-0.20001-1q-0.29999-1-1-4.5l-0.79999-3.5-1-0.20001-1-0.29999-0.20001-0.29999-0.29999-0.20001-1 3q-1 3-1.3 5l-0.20001 2-1-0.20001-1-0.29999-1.5-0.5-1.5-0.5-0.20001-0.29999q-0.29999-0.20001-1.6-1.4-1.2-1.3-1.4-3-0.29999-1.8-2-2.6-1.8-0.70001-3.6 0-1.7 0.79999-3.7-1.2t-4.7-0.5l-2.8 1.5-0.20001-2q-0.29999-2-2-4.2-1.8-2.3-6.8-4.3t-5.8-2.7q-0.70001-0.79999-1.2 0.70001t-3 2-4.8 1.7l-2.2 1.3-0.20001-0.29999-0.29999-0.20001-0.29999 0.20001-0.20001 0.29999-0.20001 0.29999-0.29999 0.20001-0.5-1-0.5-1-0.5-2q-0.5-2-2-7t0.20001-5.5q1.8-0.5 1.6-2l-0.29999-1.5-0.29999-0.20001-0.20001-0.29999-1-0.5q-1-0.5-1.5-1t-6-1-6-4.2q-0.5-3.8-3-4-2.5-0.29999-5.5-1.8t-4-3.2q-1-1.8-3-1-2 0.70001-3.2-0.59998-1.3-1.2-3-2-1.8-0.70001-2.6 0.59998-0.70001 1.2-2.4 1-1.8-0.29999-2.3 1-0.5 1.2-3.5 0.40002l-3-0.70001-0.20001 0.29999-0.29999 0.20001-0.5 1.5-0.5 1.5-0.29999 0.20001-0.20001 0.29999-0.20001 0.29999-0.29999 0.20001-0.29999-0.20001-0.20001-0.29999-0.20001-0.29999-0.29999-0.20001v-3l-0.29999-0.20001-0.20001-0.29999 0.20001-0.29999 0.29999-0.20001 0.5-1q0.5-1 2.2-1.5 1.8-0.5 1.6-1.5-0.29999-1-1.6-1.5-1.2-0.5-1.2-1.5t-1.5-1h-1.5v-2h1.8q1.7 0 2.7-1t1.5-2l0.5-1 0.29999-1 0.20001-1-1-0.20001-1-0.29999-0.20001-0.29999q-0.29999-0.20001-2.6-2-2.2-1.7-2.7-2.4-0.5-0.79999-2-0.79999t-1.5-1.5-3-2.5-2.8-2.5q0.29999-1.5-1.4-1.5h-1.8v-2h0.20001q0.29999 0 0-0.5l-0.20001-0.5-0.20001-0.5-0.29999-0.5-0.29999-0.20001-0.20001-0.29999 0.20001-0.29999 0.29999-0.20001 0.29999-0.20001q0.20001-0.29999 2.2-0.79999t3.2-2.2q1.3-1.8 1.3-5.3t-1.3-6.3l-1.2-2.7 2-0.29999q2-0.20001 2.2-1.2l0.29999-1 0.70001-0.20001q0.79999-0.29999 2.6 0.40002 1.7 0.79999 2.4-0.40002 0.79999-1.3 1.3-1.3t2.5-0.29999z" fill="#c11e22" fill-rule="evenodd" stroke="#c11e22" stroke-width=".5"/>
 <path d="m958.5 534.2 1.5-0.20001 1.8 1.5q1.7 1.5 1 3.7-0.79999 2.3 1 3 1.7 0.79999 2.7 2.8t1.3 1q0.20001-1 3 0 2.7 1 4.2 2.5t0.79999 7.3q-0.79999 5.7 1 7 1.7 1.2-2 6.4-3.8 5.3-8 6.6-4.3 1.2-6.3 5.2t-3.5 5-1.5 4.5-1.5 6.5 0 5.5 1 8.5-3.2 6.5q-2.8 0.5-2.3 1.7 0.5 1.3 1.5 1.6 1 0.20001 0.79999 3.7l-0.29999 3.5h-3.5l-0.20001-1q-0.29999-1-1.6-1.8-1.2-0.70001-2.2-0.70001t-2.5-0.5-6 0.20001q-4.5 0.79999-4.5 2.3t-3.8 1q-3.7-0.5-5-2.7-1.2-2.3-3.7-2.8t-3-1.8q-0.5-1.2-2.5-1.4-2-0.29999-3-1.8t-2-3.5-3-2.5-2.5-1.8q-0.5-1.2-1.5-1.2t-1.5 1.2q-0.5 1.3-2 1.8l-1.5 0.5-1 0.29999-1 0.20001-0.20001-0.5-0.29999-0.5-0.5-1-0.5-1v-1q0-1 1.3-1.5 1.2-0.5 0.40002-2-0.70001-1.5-0.70001-14.5t1.3-14.2q1.2-1.3 0.70001-4.6-0.5-3.2-2.5-3.7t-2-5.5 2.5-5h2.5v-2l-2-0.20001q-2-0.29999-2.8-1l-0.70001-0.79999-0.29999-0.20001-0.20001-0.29999-0.20001-0.29999-0.29999-0.20001-0.29999-1-0.20001-1 1.5 0.20001 1.5 0.29999h2l0.20001-0.29999 0.29999-0.20001 1-2q1-2 2.7 0.20001 1.8 2.3 4.3 1.8t4.3-0.79999q1.7-0.20001 2-2 0.20001-1.7 1.2-2.7t9.5 0.5 9.5 1.2q1-0.20001 1.8-2.2 0.70001-2 1.4-0.5 0.79999 1.5 4.3 2.3 3.5 0.70001 6.7 0 3.3-0.79999 4-4.8 0.79999-4 3.3-3.2 2.5 0.70001 3.5 0.40002 1-0.20001 2-2 1-1.7 2.5-2z" fill="#9f191c" fill-rule="evenodd" stroke="#9f191c" stroke-width=".5"/>
 <path d="m1030.8 391 0.19995 1h3v0.5l-1.8 0.70001q-1.7 0.79999-1.3999 2 0.19995 1.3 1.7 1.6 1.5 0.20001 1.5 1.2t-3 1.8q-3 0.70001-1.8 3 1.3 2.2 0.6001 4-0.80005 1.7-1.6001 2.4-0.69995 0.79999-1 1.6-0.19995 0.70001-1.7 1-1.5 0.20001-0.69995 1.7 0.69995 1.5 1 4l0.19995 2.5-2-0.20001q-2-0.29999-3.8-1.6l-1.7-1.2-0.5 4q-0.5 4-2.8 6.2-2.2 2.3-3.7 2.6-1.5 0.20001-1.5 1.2t0.79999 1.5q0.70001 0.5 1 1.3 0.20001 0.70001-1.3 2.4-1.5 1.8-0.70001 2.3 0.70001 0.5 0.40002 1.5-0.20001 1 2.8 1.2l3 0.29999 0.20001 0.29999 0.29999 0.20001 0.29999 1 0.20001 1h-2l-0.5 0.79999q-0.5 0.70001-1.3 1-0.70001 0.20001-2.2 4.7t-1.5 7.5 0.29999 4q0.20001 1-1 1.5-1.3 0.5-1.6 1.5-0.20001 1-1.2 1t-1.2 1.5q-0.29999 1.5-0.59998 2.5l-0.20001 1-2 0.20001-2 0.29999-0.20001 0.29999-0.29999 0.20001-0.29999 0.20001-0.20001 0.29999-0.20001 0.29999-0.29999 0.20001-0.29999 0.20001-0.20001 0.29999-0.20001 0.29999-0.29999 0.20001h-0.5v-3l-1.5-0.20001-1.5-0.29999-0.20001-0.29999-0.29999-0.20001-0.29999-2.5q-0.20001-2.5-1.2-2.7-1-0.29999-2-3.6-1-3.2-2-3.2t-0.20001-2q0.70001-2-4.6-3.2-5.2-1.3-5.7-2.6-0.5-1.2-1.5-1.4-1-0.29999-0.79999-1.6 0.29999-1.2-1-1.7-1.2-0.5-1.2-2t-2-1.7q-2-0.29999-2.8-2-0.70001-1.8-5.2-4.8t-5.5-3h-1l-0.29999 0.20001-0.20001 0.29999v0.5l-0.5-0.20001-0.5-0.29999-0.20001-0.29999-0.29999-0.20001-0.29999-0.20001-0.20001-0.29999 0.20001-0.29999 0.29999-0.20001 0.29999-0.20001 0.20001-0.29999 1.5-0.70001q1.5-0.79999 2-4.8t2.3-5.5q1.7-1.5 2.4-4.3 0.79999-2.7 2.3-2.7t4 0.29999l2.5 0.20001v-2q0-2-1-2.2-1-0.29999-1.5-1.6-0.5-1.2 0.29999-1.7 0.70001-0.5 0.40002-7.5-0.20001-7 1.3-7t1.5-6 2-7.5l2-1.5 1-0.20001 1-0.29999 1.5-0.5q1.5-0.5 2-1.8 0.5-1.2 1.5-1.2t1.5 1.2q0.5 1.3 2.5 1.8t3 2.5 2 3.5 3 1.8q2 0.20001 2.5 1.4 0.5 1.3 3 1.8t3.7 2.8q1.3 2.2 5 2.7 3.8 0.5 3.8-1t4.5-2.3q4.5-0.70001 6-0.20001t2.5 0.5 2.2 0.70001q1.3 0.79999 1.6001 1.8z" fill="#a81c20" fill-rule="evenodd" stroke="#a81c20" stroke-width=".5"/>
 <path d="m1084.2 344.5 0.30005 2.5 0.30005 0.20001 0.19995 0.29999 1.5 0.29999 1.5 0.20001v3l-0.19995 0.5q-0.30005 0.5-0.6001 0.70001-0.19995 0.29999 0.30005 4.6 0.5 4.2-2 4.7t-1.5 5.5-2 5.5-2.8 2q0.30005 1.5 2 2 1.8 0.5 1.3 2.5t-1.5 2.2q-1 0.29999-2 2-1 1.8 0 2 1 0.29999-0.5 0.59998-1.5 0.20001-0.69995 1.7 0.69995 1.5-1 3.3-1.8 1.7-2 2.4-0.30005 0.79999-1.6001 1.3-1.2 0.5-1 1.5 0.30005 1-0.3999 3.5-0.80005 2.5-1.8 2.5t-1-1-1-0.79999q-1 0.29999-1 2.6 0 2.2-2.5 2-2.5-0.29999-4.5 1.7t-5 3l-3 1-0.19995 0.29999-0.30005 0.20001-0.30005 0.20001-0.19995 0.29999-0.19995 0.29999-0.30005 0.20001-0.30005 0.20001-0.19995 0.29999-1 0.29999-1 0.20001 0.19995-3q0.30005-3 0.30005-4.5v-1.5l-0.30005-0.20001-0.19995-0.29999-3-0.29999-3-0.20001v2l-1.5-0.20001-1.5-0.29999-0.19995-0.29999-0.30005-0.20001-0.30005 1.5-0.19995 1.5-0.5 0.20001-0.5 0.29999-0.19995 0.29999-0.30005 0.20001-0.30005-0.20001-0.19995-0.29999-1-0.29999-1-0.20001-0.19995-1q-0.30005-1-0.6001-2.5-0.19995-1.5 0.80005-1.5t0.80005-1l-0.30005-1-0.30005-0.20001-0.19995-0.29999h-1.5q-1.5 0-4.5 0.5t-3.8-1.8q-0.69995-2.2-4.7-1.7t-12.3-1.7l-8.2-2.3-1-0.29999-1-0.20001v-3l0.20001-1 0.29999-1 0.29999-0.20001 0.20001-0.29999 0.5-1.3q0.5-1.2 2.5-1.7t1.5-2.5 1.5-2 3.2-4.5q1.3-4.5 4-5.5 2.8-1 3.3-3t2-2 2.5-3.8q1-3.7 2.8-4.4 1.7-0.79999 3.2-5.3t2.8-6.7q1.2-2.3 2.2-2.6 1-0.20001 1.2-3.2 0.30005-3 2.3-6t4.3-8.8q2.2-5.7 4.3999-6 2.3-0.20001 1.6001-2.7-0.80005-2.5 1.3999-3 2.3-0.5 2.3-1t-0.30005-0.5h-0.19995v-0.5l0.19995-0.29999 0.30005-0.20001h1q1 0 5.5 3t5.2 4.8q0.80005 1.7 2.8 2 2 0.20001 2 1.7t1.2 2q1.3 0.5 1 1.7-0.19995 1.3 0.80005 1.6 1 0.20001 1.5 1.4 0.5 1.3 5.7 2.6 5.3 1.2 4.6001 3.2-0.80005 2 0.19995 2t2 3.2q1 3.3 2 3.6 1 0.20001 1.2 2.7z" fill="#9a1c1f" fill-rule="evenodd" stroke="#9a1c1f" stroke-width=".5"/>
 <path d="m635.2 85.8 0.29999 0.2 0.29999 0.2 0.20001 0.3 1.5 0.5 1.5 0.5v0.5l-1.5 0.2-1.5 0.3-2 0.3q-2 0.2-2.2 3.2-0.29999 3-5 4.5-4.8 1.5-3.3 4.5t0 3h-1.5l-0.20001 1-0.29999 1-0.29999 0.2-0.20001 0.3h-2l-0.20001-0.3q-0.29999-0.2-0.29999-2.2t-4.7-2.5l-4.8-0.5-0.20001 1.5-0.29999 1.5-0.5 1-0.5 1-0.29999 0.2-0.20001 0.3v0.5l-0.5 0.2q-0.5 0.3-1 0.8t-6.5 1-9-1.5-3.5-0.7q-0.5 1.2-7-0.3t-6.5-2.5-1.5-0.8q-1.5 0.3-2.7-1-1.3-1.2-3.6-1.2-2.2 0-3.2-3t-3.5-3-2.5-1 1-1 0.79999-2q-0.29999-2-1.6-2.5-1.2-0.5-1.2-2t-1-1.5-1-1-1-1-1.2-2.5q-0.29999-2.5-3-3.5l-2.8-1 0.20001-0.5q0.29999-0.5 0.59998-0.7l0.20001-0.3 1.5-0.5q1.5-0.5-0.5-1l-2-0.5-0.20001-0.3-0.29999-0.2-0.29999-0.2-0.20001-0.3-0.20001-0.3-0.29999-0.2-0.29999-0.2-0.20001-0.3 1-0.5 1-0.5 0.20001-0.3 0.29999-0.2 0.29999-0.2 0.20001-0.3 3.5-0.7q3.5-0.8 4.7-3.8 1.3-3 2.3-3t0.70001-2q-0.20001-2 1.6-2 1.7 0 2-0.2 0.20001-0.3 3.2-0.6l3-0.2-1.2-2.5q-1.3-2.5-0.29999-4t0-3.5-0.29999-3.2q0.79999-1.3 10.3-1.3t11 2 3.7 3.3q2.3 1.2 3 2.4 0.79999 1.3 3.3 1.8t5.5 1.5 4.2 4.7q1.3 3.8 3.3 3.8t2.3 1.5q0.20001 1.5 3 3.5 2.7 2 4 4.2 1.2 2.3 4.7 5 3.5 2.8 4 4.8t1.7 2.5q1.3 0.5 1.6 2 0.20001 1.5 2.2 1.3 2-0.3 2.2 0z" fill="#981a1c" fill-rule="evenodd" stroke="#981a1c" stroke-width=".5"/>
</svg>
