<svg width="2819" height="321" xmlns="http://www.w3.org/2000/svg" xmlns:xlink="http://www.w3.org/1999/xlink" xml:space="preserve" overflow="hidden"><defs><filter id="fx0" x="-10%" y="-10%" width="120%" height="120%" filterUnits="userSpaceOnUse" primitiveUnits="userSpaceOnUse"><feComponentTransfer color-interpolation-filters="sRGB"><feFuncR type="discrete" tableValues="0.529412 0.529412"/><feFuncG type="discrete" tableValues="0.356863 0.356863"/><feFuncB type="discrete" tableValues="0.050980 0.050980"/><feFuncA type="linear" slope="0.701961" intercept="0.000000"/></feComponentTransfer><feGaussianBlur stdDeviation="0.000000 0.000000"/></filter><clipPath id="clip1"><rect x="270" y="50" width="2819" height="321"/></clipPath><clipPath id="clip2"><rect x="1.24533" y="1.16666" width="2803.44" height="153.75"/></clipPath><clipPath id="clip3"><rect x="0" y="0" width="2806" height="156"/></clipPath></defs><g clip-path="url(#clip1)" transform="translate(-270 -50)"><g clip-path="url(#clip2)" filter="url(#fx0)" transform="translate(281 213)"><g clip-path="url(#clip3)"><path d="M1108.9 91.1872C1105.09 95.3695 1102.71 98.3021 1101.86 100.035 1100.29 103.095 1099.7 106.28 1100.12 109.612 1100.54 112.942 1101.83 116.586 1104.02 120.542 1106.79 125.539 1110.02 129.689 1113.74 132.981 1117.47 136.282 1120.57 137.926 1123.04 137.926 1126.38 137.926 1128.83 134.465 1130.16 127.516 1123.07 115.407 1115.99 103.297 1108.9 91.1872ZM954.01 91.1872C949.27 95.3695 946.237 98.3025 945 100.035 942.749 103.096 941.453 106.282 941.13 109.612 940.807 112.944 941.288 116.586 942.603 120.542 944.264 125.539 946.573 129.689 949.558 132.981 952.55 136.282 955.292 137.926 957.757 137.926 961.103 137.926 964.315 134.474 967.187 127.516 962.795 115.407 958.402 103.297 954.01 91.1872ZM795.597 91.1872C789.907 95.3687 786.206 98.3026 784.575 100.035 781.628 103.096 779.607 106.283 778.528 109.612 777.448 112.945 777.101 116.586 777.516 120.542 778.041 125.539 779.407 129.689 781.643 132.981 783.885 136.282 786.253 137.926 788.719 137.926 792.064 137.926 796.058 134.479 800.515 127.516 798.876 115.407 797.236 103.297 795.597 91.1872ZM457.648 91.1872C449.935 95.3666 444.807 98.3025 442.335 100.035 437.905 103.095 434.337 106.284 431.644 109.612 428.946 112.946 426.835 116.586 425.332 120.542 423.433 125.539 422.786 129.687 423.426 132.981 424.066 136.279 425.638 137.926 428.103 137.926 431.449 137.926 437.112 134.481 444.948 127.516 449.182 115.407 453.415 103.297 457.648 91.1872ZM267.552 91.1872C258.701 95.3654 252.77 98.3023 249.826 100.035 244.561 103.095 240.122 106.284 236.522 109.612 232.914 112.946 229.81 116.586 227.228 120.542 223.966 125.539 222.187 129.684 221.928 132.981 221.67 136.277 222.792 137.926 225.257 137.926 228.602 137.926 235.207 134.48 244.942 127.516 252.479 115.407 260.015 103.297 267.552 91.1872ZM665.556 57.1481C662.299 57.1481 659.257 59.3941 656.366 63.8623 653.464 68.3463 651.475 74.5674 650.438 82.5473 659.075 82.5473 667.712 82.5473 676.35 82.5473 676.367 76.4404 676.102 72.1383 675.557 69.6395 674.706 65.7545 673.355 62.7031 671.499 60.4792 669.649 58.2617 667.675 57.1481 665.556 57.1481ZM226.924 57.1481C223.667 57.1481 219.138 59.3946 213.29 63.8623 207.421 68.3467 201.314 74.5692 194.997 82.5473 203.634 82.5473 212.272 82.5473 220.909 82.5473 224.968 76.4396 227.551 72.1369 228.659 69.6395 230.38 65.7512 231.046 62.701 230.663 60.4792 230.28 58.2596 229.043 57.1481 226.924 57.1481ZM1223.21 56.6277C1221.13 56.6277 1219.9 57.7219 1219.5 59.9067 1219.09 62.0939 1220.35 65.9224 1223.25 71.4091 1226.15 76.887 1230.89 83.9352 1237.5 92.5404 1248.16 106.42 1259.04 118.414 1270.26 128.453 1281.54 138.539 1290.13 143.547 1295.9 143.547 1300.2 143.547 1301.54 140.765 1299.82 135.219 1298.09 129.662 1291.68 120.126 1280.67 106.593 1266.9 89.6605 1253.92 76.3659 1241.89 66.6208 1233.72 59.9724 1227.52 56.6277 1223.21 56.6277ZM608.713 56.2113C605.265 56.2113 601.794 58.9627 598.221 64.4348 593.49 71.6699 589.931 82.2003 587.685 96.0797 585.416 110.098 585.536 120.849 588.206 128.297 590.885 135.77 594.688 139.487 599.452 139.487 603.466 139.487 607.767 136.345 612.244 130.015 614.225 113.637 616.207 97.2594 618.188 80.8818 618.515 76.1627 618.311 71.8615 617.597 67.974 616.883 64.089 615.687 61.1587 613.995 59.178 612.309 57.2031 610.555 56.2113 608.713 56.2113ZM518.436 56.2113C514.988 56.2113 511.142 58.9633 506.822 64.4348 501.103 71.671 496.109 82.2003 491.97 96.0797 487.789 110.098 486.441 120.845 488.097 128.297 489.756 135.765 493.052 139.487 497.816 139.487 501.83 139.487 506.559 136.345 511.9 130.015 516.115 113.637 520.331 97.2594 524.546 80.8818 525.517 76.1625 525.899 71.8606 525.715 67.974 525.531 64.0881 524.734 61.1585 523.314 59.178 521.897 57.2029 520.277 56.2113 518.436 56.2113ZM404.753 56.2113C401.305 56.2113 396.986 58.9636 391.727 64.4348 384.765 71.6715 377.963 82.2003 371.439 96.0797 364.851 110.098 361.657 120.839 362.033 128.297 362.408 135.759 365.066 139.487 369.83 139.487 373.844 139.487 379.113 136.346 385.541 130.015 392.569 113.637 399.598 97.2594 406.626 80.8818 408.408 76.1623 409.528 71.8594 410.012 67.974 410.496 64.087 410.202 61.1582 409.122 59.178 408.044 57.2026 406.595 56.2113 404.753 56.2113ZM993.42 52.6721C1001.82 52.6721 1010.22 52.6721 1018.62 52.6721 1019.24 53.9559 1019.85 55.2397 1020.47 56.5236 1019.92 56.5236 1019.38 56.5236 1018.83 56.5236 1017.3 56.5236 1016.45 57.183 1016.27 58.5014 1016.09 59.8201 1016.52 61.5895 1017.57 63.8102 1018.71 66.2391 1020.49 69.121 1022.91 72.4501 1035.55 90.0599 1048.49 107.618 1061.72 125.122 1057.36 106.879 1052.65 88.6592 1047.61 70.4723 1046.54 66.5847 1045.48 63.6367 1044.44 61.6242 1043.94 60.6527 1043.37 59.8548 1042.74 59.23 1041.77 58.1894 1040.86 57.4779 1039.99 57.0961 1039.13 56.7145 1037.68 56.5236 1035.64 56.5236 1035 55.2397 1034.35 53.9559 1033.7 52.6721 1039.53 52.6721 1045.35 52.6721 1051.18 52.6721 1051.86 53.9559 1052.54 55.2397 1053.23 56.5236 1051.33 56.8013 1050.31 57.53 1050.14 58.7096 1049.86 60.792 1050.43 64.2591 1051.83 69.1191 1059.49 96.3235 1066.39 123.609 1072.51 150.938 1071.59 150.938 1070.67 150.938 1069.75 150.938 1049.46 124.241 1029.84 97.4162 1010.93 70.4723 1008.33 66.7272 1006.27 64.0367 1004.74 62.4049 1003.21 60.7751 1001.58 59.4045 999.865 58.2932 998.916 57.6689 997.337 57.0791 995.129 56.5236 994.56 55.2397 993.99 53.9559 993.42 52.6721ZM1266.25 49.8615C1267.08 49.8615 1267.92 49.8615 1268.75 49.8615 1274.58 56.593 1280.4 63.3244 1286.23 70.0559 1281 56.5497 1280.95 49.8615 1286.62 49.8615 1289.53 49.8615 1293.2 51.1663 1297.66 53.765 1302.13 56.371 1307.71 60.6583 1314.42 66.6208 1319.1 70.7873 1325.38 77.1691 1333.24 85.7743 1345.64 99.3413 1358.04 112.908 1370.44 126.475 1375.96 132.513 1380.01 136.608 1382.6 138.759 1384.67 140.494 1386.7 141.847 1388.67 142.818 1390.65 143.79 1393.11 144.276 1396.04 144.276 1397.2 145.525 1398.35 146.774 1399.51 148.023 1389.4 148.023 1379.3 148.023 1369.19 148.023 1368.09 146.774 1366.98 145.525 1365.87 144.276 1366.29 144.276 1366.71 144.276 1367.14 144.276 1369.98 144.276 1371.36 143.599 1371.28 142.246 1371.19 140.892 1370.19 138.897 1368.25 136.26 1367.49 135.219 1364.65 131.958 1359.72 126.475 1348.01 113.464 1336.31 100.452 1324.61 87.4398 1316.81 78.7652 1310.49 72.4711 1305.67 68.5465 1300.86 64.6293 1296.95 62.6652 1293.9 62.6652 1289.19 62.6652 1288.5 67.1569 1291.55 76.1975 1306.06 92.9568 1320.57 109.716 1335.08 126.475 1340.66 132.929 1344.36 136.92 1346.17 138.446 1348.53 140.46 1350.66 141.934 1352.56 142.87 1354.46 143.808 1357.08 144.276 1360.41 144.276 1361.51 145.525 1362.61 146.774 1363.7 148.023 1353.6 148.023 1343.49 148.023 1333.39 148.023 1332.34 146.774 1331.29 145.525 1330.24 144.276 1330.69 144.276 1331.13 144.276 1331.57 144.276 1334.68 144.276 1335.74 143.043 1334.73 140.58 1333.72 138.115 1330.26 133.415 1324.35 126.475 1314.31 114.678 1304.27 102.881 1294.23 91.0831 1284.48 79.6326 1278.4 72.6588 1275.97 70.16 1273.55 67.6623 1271.64 65.9619 1270.26 65.0593 1268.88 64.1576 1267.68 63.7061 1266.65 63.7061 1265.54 63.7061 1264.65 64.2277 1263.98 65.2675 1262.63 64.0187 1261.29 62.7695 1259.94 61.5201 1262.13 57.6475 1264.23 53.7606 1266.25 49.8615ZM1219.68 49.8615C1227.75 49.8615 1238.66 55.3835 1252.62 66.3085 1264.6 75.7059 1275.71 86.4335 1285.79 98.5779 1292.87 107.114 1298.81 115.741 1303.47 124.498 1308.13 133.229 1309.96 139.84 1308.97 144.276 1307.97 148.723 1304.57 150.938 1298.88 150.938 1289.61 150.938 1277.81 145.253 1263.71 133.762 1251.9 124.145 1241.56 113.29 1232.54 101.284 1225.97 92.5404 1220.74 83.8363 1216.72 75.2086 1212.69 66.5565 1211.07 60.1889 1211.88 56.0551 1212.69 51.9307 1215.25 49.8615 1219.68 49.8615ZM1176.32 49.8615C1177.17 49.8615 1178.03 49.8615 1178.88 49.8615 1197.49 75.3995 1216.09 100.937 1234.7 126.475 1239.05 132.443 1242.22 136.417 1244.21 138.394 1246.21 140.373 1248.1 141.847 1249.9 142.818 1251.7 143.79 1254.04 144.276 1256.93 144.276 1257.86 145.525 1258.78 146.774 1259.71 148.023 1249.78 148.023 1239.85 148.023 1229.92 148.023 1229.05 146.774 1228.17 145.525 1227.3 144.276 1230.27 144.276 1231.95 143.825 1232.33 142.922 1232.71 142.021 1232.45 140.528 1231.56 138.446 1230.68 136.364 1228.12 132.374 1223.91 126.475 1215.17 114.227 1206.42 101.978 1197.68 89.7299 1190.3 79.3898 1185.33 72.6938 1182.8 69.6395 1180.93 67.4193 1179.4 65.8751 1178.18 65.0073 1176.97 64.1402 1175.85 63.7061 1174.82 63.7061 1173.71 63.7061 1172.73 64.2278 1171.87 65.2675 1170.72 64.0187 1169.57 62.7695 1168.42 61.5201 1171.13 57.6488 1173.77 53.7622 1176.32 49.8615ZM1133.29 49.8615C1138.53 49.8615 1144.5 52.3546 1151.26 57.3043 1158.06 62.2783 1163.33 67.4188 1167 72.7624 1168.81 75.3995 1169.78 77.5332 1169.9 79.1642 1170.02 80.7949 1169.19 81.6104 1167.4 81.6104 1164.99 81.6104 1162.3 80.2942 1159.31 77.6548 1157.65 76.1982 1155.34 73.4223 1152.38 69.3272 1149.42 65.2335 1146.54 62.1121 1143.73 59.9587 1140.96 57.8789 1138.37 56.8359 1135.94 56.8358 1132.02 56.8359 1130.54 59.4005 1131.42 64.5389 1132.57 71.3344 1136.61 80.3266 1143.71 91.4995 1150.93 102.881 1159 112.946 1168.03 121.635 1177.11 130.365 1184.71 134.699 1190.71 134.699 1195.01 134.699 1197.33 132.375 1197.57 127.725 1197.79 124.533 1196.16 118.728 1192.6 110.341 1193.55 110.827 1194.5 111.312 1195.45 111.798 1202.53 124.347 1206.01 134.024 1205.81 140.788 1205.61 147.556 1202.48 150.938 1196.61 150.938 1189.63 150.938 1180.61 146.423 1169.74 137.301 1158.94 128.241 1148.83 115.927 1139.23 100.452 1129.93 85.462 1125.03 73.2766 1124.21 63.9143 1123.38 54.5395 1126.3 49.8615 1133.29 49.8615ZM1076.58 49.8615C1081.31 49.8615 1086.02 51.2899 1090.74 54.1294 1094.32 56.284 1098.03 59.6502 1101.88 64.2266 1104.38 67.2122 1108.4 73.3176 1113.93 82.5473 1120.4 93.3385 1126.87 104.13 1133.35 114.921 1138.8 124.012 1142.24 129.581 1143.69 131.628 1145.14 133.676 1146.32 135.046 1147.25 135.74 1148.17 136.434 1148.96 136.781 1149.62 136.781 1150.32 136.781 1150.79 136.538 1151.02 136.052 1151.4 135.15 1151.64 132.617 1151.69 128.453 1152.89 130.396 1154.08 132.339 1155.27 134.283 1156.75 144.682 1155.06 149.897 1150.49 149.897 1148.3 149.897 1145.86 148.719 1143.18 146.358 1140.51 144 1137.49 139.973 1134.11 134.283 1132.36 141.861 1130.88 146.22 1129.95 147.398 1128.53 149.136 1126.44 150.001 1123.72 150.001 1119.47 150.001 1114.72 147.754 1109.52 143.235 1104.35 138.732 1099.8 132.79 1095.83 125.434 1093.32 120.785 1091.79 116.759 1091.23 113.359 1090.41 108.639 1091 104.209 1092.93 100.035 1094.85 95.881 1098.99 90.8472 1105.19 84.8374 1104.46 83.5882 1103.73 82.3391 1103 81.09 1097.43 71.5826 1092.75 65.0639 1088.97 61.5201 1085.2 57.9855 1081.7 56.2113 1078.45 56.2113 1075.98 56.2113 1074.69 57.3913 1074.56 59.7505 1074.39 62.1104 1075.14 64.8165 1076.84 67.8699 1078 69.8825 1079.17 71.895 1080.33 73.9074 1082.11 77.0997 1083.01 79.5632 1083.02 81.2982 1083.03 83.0331 1082.25 83.9005 1080.7 83.9005 1079.19 83.9005 1077.46 82.9996 1075.52 81.1941 1073.58 79.391 1071.77 76.9262 1070.07 73.8033 1066.83 67.8352 1065.62 62.3565 1066.33 57.3563 1067.03 52.3634 1070.41 49.8615 1076.58 49.8615ZM930.871 49.8615C935.605 49.8615 939.998 51.2903 944.083 54.1294 947.185 56.2842 950.145 59.6498 952.975 64.2266 954.811 67.2121 957.477 73.3176 960.96 82.5473 965.032 93.3385 969.104 104.13 973.177 114.921 976.607 124.012 978.817 129.581 979.809 131.628 980.801 133.676 981.681 135.046 982.449 135.74 983.217 136.434 983.931 136.781 984.591 136.781 985.294 136.781 985.816 136.538 986.157 136.052 986.732 135.15 987.539 132.62 988.518 128.453 989.279 130.396 990.039 132.339 990.799 134.283 989.966 144.697 987.114 149.897 982.552 149.897 980.36 149.897 978.18 148.719 976.025 146.358 973.874 144 971.75 139.973 969.642 134.283 966.198 141.87 963.757 146.22 962.563 147.398 960.755 149.136 958.478 150.001 955.749 150.001 951.499 150.001 947.253 147.754 943.063 143.235 938.887 138.732 935.657 132.79 933.322 125.434 931.846 120.785 931.216 116.76 931.405 113.359 931.639 108.641 933.207 104.211 936.07 100.035 938.916 95.8831 944.173 90.8462 951.707 84.8374 951.254 83.5882 950.8 82.3391 950.347 81.09 946.899 71.5826 943.664 65.0639 940.672 61.5201 937.687 57.9854 934.584 56.2113 931.332 56.2113 928.863 56.2113 927.311 57.3924 926.653 59.7505 925.955 62.1114 926.107 64.8165 927.131 67.8699 927.846 69.8825 928.561 71.895 929.276 73.9074 930.347 77.0997 930.7 79.5638 930.323 81.2982 929.945 83.0336 928.976 83.9005 927.425 83.9005 925.914 83.9005 924.386 82.9996 922.847 81.1941 921.31 79.391 920.045 76.9262 919.044 73.8033 917.131 67.8352 917.137 62.3612 918.954 57.3563 920.764 52.3681 924.7 49.8615 930.871 49.8615ZM781.852 49.8615C786.586 49.8615 790.655 51.2906 794.095 54.1294 796.706 56.2844 798.901 59.649 800.691 64.2266 801.848 67.2117 803.126 73.3176 804.51 82.5473 806.13 93.3385 807.749 104.13 809.368 114.921 810.732 124.012 811.676 129.581 812.202 131.628 812.729 133.675 813.297 135.046 813.907 135.74 814.518 136.434 815.153 136.781 815.813 136.781 816.516 136.781 817.093 136.538 817.544 136.052 818.325 135.151 819.706 132.623 821.633 128.453 821.952 130.396 822.27 132.339 822.589 134.283 819.384 144.711 815.354 149.897 810.792 149.897 808.6 149.897 806.688 148.719 805.07 146.358 803.454 144 802.246 139.973 801.431 134.283 796.259 141.876 792.833 146.22 791.371 147.398 789.168 149.136 786.694 150.001 783.965 150.001 779.716 150.001 775.98 147.753 772.817 143.235 769.665 138.732 767.786 132.79 767.123 125.434 766.705 120.785 766.989 116.761 767.951 113.359 769.258 108.643 771.832 104.212 775.645 100.035 779.435 95.8839 785.84 90.8442 794.737 84.8374 794.568 83.5882 794.399 82.3391 794.229 81.09 792.942 71.5826 791.189 65.0634 789.003 61.5201 786.822 57.985 784.122 56.2113 780.87 56.2113 778.401 56.2113 776.58 57.3931 775.386 59.7505 774.151 62.1122 773.688 64.8165 774.018 67.8699 774.276 69.8824 774.533 71.8949 774.791 73.9074 775.137 77.0997 774.929 79.5642 774.158 81.2982 773.385 83.034 772.219 83.9005 770.668 83.9005 769.157 83.9005 767.833 82.9995 766.705 81.1941 765.579 79.3909 764.874 76.9262 764.583 73.8033 764.027 67.8352 765.275 62.3643 768.231 57.3563 771.174 52.3712 775.682 49.8615 781.852 49.8615ZM463.946 49.8615C468.68 49.8615 472.056 51.2904 474.118 54.1294 475.685 56.2842 476.249 59.6457 475.818 64.2266 475.527 67.2104 473.844 73.3176 470.752 82.5473 467.138 93.3385 463.524 104.13 459.909 114.921 456.864 124.012 455.107 129.581 454.641 131.628 454.174 133.675 454.078 135.046 454.352 135.74 454.626 136.434 455.093 136.781 455.752 136.781 456.456 136.781 457.151 136.538 457.837 136.052 459.055 135.15 461.661 132.624 465.612 128.453 464.988 130.396 464.364 132.339 463.741 134.283 455.466 144.726 448.933 149.897 444.37 149.897 442.179 149.897 440.838 148.718 440.365 146.358 439.893 143.999 440.637 139.973 442.583 134.283 433.726 141.878 428.195 146.22 426.161 147.398 423.116 149.136 420.223 150.001 417.494 150.001 413.244 150.001 410.598 147.749 409.627 143.235 408.658 138.727 409.661 132.79 412.566 125.434 414.402 120.785 416.637 116.763 419.25 113.359 422.841 108.646 427.568 104.211 433.405 100.035 439.21 95.8833 448.068 90.8392 459.868 84.8374 460.305 83.5882 460.741 82.3391 461.178 81.09 464.502 71.5826 465.909 65.0605 465.442 61.5201 464.975 57.9821 463.136 56.2113 459.884 56.2113 457.415 56.2113 455.02 57.3936 452.684 59.7505 450.303 62.1126 448.529 64.8165 447.378 67.8699 446.66 69.8824 445.941 71.8949 445.223 73.9074 444.02 77.0997 442.617 79.5645 441.005 81.2982 439.391 83.0343 437.805 83.9005 436.253 83.9005 434.743 83.9005 433.856 82.9987 433.603 81.1941 433.351 79.3901 433.842 76.9262 435.065 73.8033 437.404 67.8352 441.304 62.3659 446.69 57.3563 452.048 52.3727 457.775 49.8615 463.946 49.8615ZM364.994 49.8615C365.848 49.8615 366.702 49.8615 367.556 49.8615 354.555 75.3995 341.555 100.937 328.554 126.475 325.516 132.443 323.767 136.416 323.313 138.394 322.859 140.372 322.93 141.847 323.525 142.818 324.121 143.79 325.864 144.276 328.75 144.276 328.129 145.525 327.509 146.774 326.888 148.023 316.961 148.023 307.033 148.023 297.106 148.023 297.775 146.774 298.445 145.525 299.115 144.276 302.09 144.276 304.327 143.825 305.823 142.922 307.318 142.021 308.911 140.529 310.6 138.446 312.287 136.365 314.672 132.374 317.762 126.475 324.178 114.227 330.594 101.978 337.01 89.7299 342.426 79.3898 345.751 72.6924 346.993 69.6395 347.878 67.4185 348.252 65.8749 348.113 65.0073 347.974 64.14 347.391 63.7061 346.361 63.7061 345.252 63.7061 343.627 64.2276 341.482 65.2675 341.874 64.0182 342.267 62.7691 342.662 61.5201 350.176 57.6468 357.621 53.7608 364.994 49.8615ZM285.123 49.8615C289.858 49.8615 292.843 51.2891 294.132 54.1294 295.11 56.2835 294.758 59.644 293.077 64.2266 291.972 67.2096 288.622 73.3176 283.013 82.5473 276.455 93.3385 269.897 104.13 263.339 114.921 257.814 124.012 254.538 129.581 253.513 131.628 252.488 133.675 252.018 135.046 252.102 135.74 252.186 136.434 252.559 136.781 253.219 136.781 253.922 136.781 254.683 136.538 255.502 136.052 256.966 135.15 260.261 132.624 265.35 128.453 264.196 130.396 263.042 132.339 261.888 134.283 250.764 144.726 242.821 149.897 238.259 149.897 236.067 149.897 235.048 148.717 235.219 146.358 235.39 143.998 237.233 139.973 240.731 134.283 229.804 141.876 223.087 146.22 220.731 147.398 217.212 149.136 214.082 150.001 211.354 150.001 207.104 150.001 205.072 147.745 205.333 143.235 205.593 138.723 208.216 132.79 213.127 125.434 216.232 120.785 219.564 116.763 223.105 113.359 227.983 108.646 233.921 104.21 240.896 100.035 247.834 95.8825 258.073 90.8366 271.504 84.8374 272.282 83.5882 273.059 82.3391 273.837 81.09 279.754 71.5826 282.941 65.0581 283.439 61.5201 283.938 57.9796 282.581 56.2113 279.329 56.2113 276.861 56.2113 274.143 57.3935 271.164 59.7505 268.139 62.1126 265.627 64.8165 263.643 67.8699 262.376 69.8824 261.108 71.8949 259.841 73.9074 257.768 77.0997 255.692 79.5644 253.607 81.2982 251.519 83.0343 249.697 83.9005 248.145 83.9005 246.635 83.9005 245.994 82.9981 246.234 81.1941 246.473 79.3894 247.637 76.9262 249.712 73.8033 253.678 67.8352 259.071 62.3653 265.823 57.3563 272.542 52.3722 278.953 49.8615 285.123 49.8615ZM669.213 49.7574C675.189 49.7574 679.951 53.2963 683.659 60.323 687.385 67.3838 689.224 76.7874 689.016 88.5848 676.008 88.5848 663 88.5848 649.992 88.5848 648.906 102.742 650.154 113.864 653.929 121.895 657.721 129.964 662.667 133.97 668.578 133.97 672.519 133.97 676.011 132.259 679.013 128.818 682.003 125.389 684.564 119.506 686.645 111.173 687.288 111.868 687.934 112.562 688.581 113.255 687.52 122.764 684.717 131.44 680.054 139.227 675.365 147.055 669.531 150.938 662.722 150.938 655.332 150.938 649.264 146.504 644.759 137.561 640.279 128.669 638.811 116.656 640.113 101.597 641.523 85.2885 645.089 72.6002 650.571 63.4459 656.018 54.3489 662.152 49.7574 669.213 49.7574ZM235.473 49.7574C241.448 49.7574 243.871 53.2738 242.926 60.323 241.983 67.3614 237.595 76.7874 229.58 88.5848 216.572 88.5848 203.564 88.5848 190.556 88.5848 180.1 102.742 173.993 113.836 172.448 121.895 170.906 129.936 173.195 133.97 179.106 133.97 183.047 133.97 187.672 132.259 192.951 128.818 198.21 125.389 204.659 119.512 212.259 111.173 212.444 111.868 212.63 112.562 212.818 113.255 205.46 122.768 196.917 131.443 187.103 139.227 177.231 147.057 168.83 150.938 162.021 150.938 154.631 150.938 151.502 146.469 152.91 137.561 154.321 128.634 160.798 116.656 172.066 101.597 184.268 85.2885 196.228 72.6032 207.771 63.4459 219.235 54.3519 228.411 49.7574 235.473 49.7574ZM189.458 14.7815C187.328 14.7815 183.896 15.4427 179.149 16.7593 162.733 36.3291 146.317 55.899 129.901 75.4688 130.667 75.4688 131.318 75.4862 131.854 75.5209 132.389 75.5556 132.838 75.573 133.201 75.573 141.025 75.573 149.306 72.674 157.96 66.829 166.568 61.0154 174.435 53.5742 181.644 44.5526 188.687 35.7393 192.897 28.5675 194.384 23.057 195.875 17.5335 194.27 14.7815 189.458 14.7815ZM166.449 6.87027C175.406 6.87027 184.362 6.87027 193.319 6.87027 201.152 6.87027 206.037 7.96986 208.017 10.1493 210.008 12.3419 209.998 16.3528 208.046 22.2243 206.1 28.0809 202.016 35.08 195.69 43.1994 188.931 51.874 181.471 59.4184 173.23 65.788 164.95 72.1874 156.272 76.6904 147.23 79.3204 142.004 92.7803 137.096 106.282 132.516 119.813 129.354 129.096 128.202 135.291 128.891 138.342 129.582 141.398 132.097 143.34 136.392 144.172 135.425 145.455 134.458 146.739 133.491 148.023 125.415 148.023 117.339 148.023 109.263 148.023 116.33 125.938 124.28 103.922 133.071 82.0268 130.88 82.1657 129.133 82.235 127.829 82.235 127.3 82.235 126.744 82.2177 126.162 82.183 125.581 82.1483 124.993 82.0962 124.4 82.0268 112.932 95.698 101.464 109.369 89.9962 123.04 82.5449 131.923 78.5296 137.439 77.9654 139.591 77.0887 142.643 78.3518 144.172 81.7255 144.172 82.9018 144.172 84.0781 144.172 85.2545 144.172 84.1998 145.455 83.1451 146.739 82.0904 148.023 69.1288 148.023 56.1672 148.023 43.2056 148.023 44.3265 146.739 45.4475 145.455 46.5684 144.172 47.7004 144.172 48.8324 144.172 49.9643 144.172 53.7818 144.172 58.1859 142.233 63.1539 138.342 65.9223 136.192 70.7476 131.09 77.6368 123.04 103.65 92.6445 129.662 62.2488 155.675 31.8531 163.277 22.9703 167.479 17.4521 168.296 15.302 169.484 12.2461 168.687 10.7218 165.878 10.7218 164.947 10.7218 164.017 10.7218 163.086 10.7218 164.207 9.43794 165.328 8.1541 166.449 6.87027ZM857.557 3.64333C861.452 3.64333 866.07 5.49458 871.474 9.16035 873.997 10.898 875.686 11.7627 876.526 11.7627 877.477 11.7627 878.1 11.2252 878.392 10.1493 878.684 9.07388 878.54 6.90463 877.955 3.64333 878.622 3.64333 879.289 3.64333 879.956 3.64333 884.73 19.9168 889.503 36.1903 894.276 52.4639 893.555 52.4639 892.834 52.4639 892.113 52.4639 888.696 43.0985 885.314 35.6419 881.981 30.0834 878.657 24.5385 874.967 20.1331 870.898 16.8634 866.85 13.6099 863.166 11.9709 859.803 11.9709 856 11.9709 853.412 14.1795 851.965 18.5809 850.514 22.9929 850.413 28.0015 851.737 33.6227 852.749 37.9253 854.491 41.8504 856.991 45.3854 860.632 50.5991 868.079 57.5872 879.572 66.2044 889.059 73.3211 895.839 78.7209 899.754 82.4953 903.684 86.2852 907.193 90.7411 910.278 95.8715 913.368 101.012 915.782 106.385 917.475 112.006 920.695 122.693 920.909 131.924 917.893 139.643 914.863 147.4 909.023 151.25 900.599 151.25 897.955 151.25 895.388 150.938 892.901 150.313 891.426 149.966 888.236 148.704 883.354 146.514 878.494 144.332 875.5 143.235 874.348 143.235 873.239 143.235 872.483 143.755 872.076 144.796 871.669 145.837 871.678 147.988 872.1 151.25 871.271 151.25 870.442 151.25 869.613 151.25 866.024 135.115 862.435 118.981 858.846 102.846 859.622 102.846 860.398 102.846 861.174 102.846 864.553 112.982 867.786 120.565 870.854 125.591 873.929 130.628 877.861 134.811 882.647 138.134 887.456 141.473 892.277 143.131 897.064 143.131 902.605 143.131 906.37 140.847 908.279 136.26 910.183 131.687 910.203 126.267 908.42 120.021 907.429 116.552 905.839 113.05 903.672 109.508 901.507 105.971 898.786 102.678 895.518 99.6189 893.319 97.5394 887.681 93.1466 878.773 86.3468 869.953 79.6142 863.661 74.1938 859.768 70.16 855.891 66.1438 852.667 61.6981 850.083 56.8358 847.503 51.9826 845.59 46.6345 844.3 40.8052 842.058 30.6733 842.251 21.9612 844.676 14.6253 847.091 7.31847 851.316 3.64333 857.557 3.64333ZM1182.18 3.33105C1186.21 3.33105 1190.25 3.33105 1194.29 3.33105 1198.65 15.2683 1202.71 27.2431 1206.47 39.2438 1205.82 39.2438 1205.17 39.2438 1204.52 39.2438 1197.18 27.2563 1189.73 15.2852 1182.18 3.33105ZM1138.08 1.79052e-06C1139.59 1.79052e-06 1141.61 1.02536 1144.16 3.0708 1146.72 5.11975 1149.07 7.59893 1151.19 10.5136 1153.32 13.4282 1154.61 15.9258 1155.03 18.0084 1155.46 20.0896 1154.88 21.1313 1153.33 21.1313 1151.77 21.1313 1149.68 20.0921 1147.09 18.0084 1144.49 15.9283 1142.16 13.4282 1140.09 10.5136 1138.01 7.59893 1136.78 5.11734 1136.38 3.0708 1135.98 1.02294 1136.54 1.79052e-06 1138.08 1.79052e-06ZM956.496 1.79052e-06C957.303 1.79052e-06 958.11 1.79052e-06 958.916 1.79052e-06 976.852 42.1585 994.788 84.3169 1012.72 126.475 1015.26 132.443 1017.22 136.4 1018.6 138.342 1019.98 140.286 1021.46 141.761 1023.04 142.766 1024.63 143.773 1027 144.276 1030.15 144.276 1030.7 145.525 1031.25 146.774 1031.8 148.023 1021.78 148.023 1011.76 148.023 1001.75 148.023 1001.25 146.774 1000.75 145.525 1000.25 144.276 1003.05 144.276 1004.78 143.825 1005.43 142.922 1006.08 142.021 1006.27 140.528 1005.99 138.446 1005.71 136.364 1004.35 132.374 1001.93 126.475 990.075 97.6064 978.219 68.7374 966.362 39.8684 961.945 29.1119 959.099 22.5023 957.829 20.0383 956.56 17.5751 955.457 15.8923 954.519 14.9897 953.582 14.0879 952.674 13.6364 951.794 13.6364 950.841 13.6364 949.855 14.1929 948.829 15.302 948.032 14.0878 947.238 12.8734 946.444 11.6586 949.875 7.78801 953.227 3.90167 956.496 1.79052e-06ZM739.262 1.79052e-06C740.069 1.79052e-06 740.876 1.79052e-06 741.682 1.79052e-06 744.497 42.1585 747.311 84.3169 750.126 126.475 750.524 132.443 751.062 136.4 751.744 138.342 752.427 140.286 753.38 141.761 754.603 142.766 755.828 143.773 758.018 144.276 761.17 144.276 761.27 145.525 761.37 146.774 761.47 148.023 751.453 148.023 741.436 148.023 731.419 148.023 731.369 146.774 731.319 145.525 731.269 144.276 734.066 144.276 735.955 143.825 736.932 142.922 737.907 142.021 738.63 140.529 739.097 138.446 739.564 136.365 739.64 132.374 739.334 126.475 737.832 97.6064 736.33 68.7374 734.828 39.8684 734.269 29.1119 733.794 22.502 733.408 20.0383 733.022 17.5749 732.523 15.8922 731.908 14.9897 731.295 14.0879 730.549 13.6364 729.669 13.6364 728.716 13.6364 727.531 14.1929 726.106 15.302 725.745 14.0877 725.386 12.8732 725.029 11.6586 729.848 7.78776 734.593 3.90166 739.262 1.79052e-06ZM634.428 1.79052e-06C635.235 1.79052e-06 636.042 1.79052e-06 636.848 1.79052e-06 632.941 36.7455 629.033 73.491 625.126 110.237 623.938 121.409 623.375 128.228 623.442 130.691 623.508 133.155 623.854 134.873 624.477 135.844 625.101 136.816 625.899 137.301 626.866 137.301 628.054 137.301 629.695 136.713 631.783 135.532 631.91 136.746 632.039 137.961 632.169 139.175 625.785 143.11 619.33 147.031 612.803 150.938 611.773 150.938 610.743 150.938 609.712 150.938 610.262 146.392 610.812 141.847 611.362 137.301 607.821 142.168 604.462 145.65 601.332 147.763 598.191 149.883 594.954 150.938 591.639 150.938 584.921 150.938 579.707 146.603 576.233 137.874 572.776 129.184 572.382 117.974 574.817 104.303 577.252 90.632 582.05 78.1601 588.904 66.7769 595.714 55.4674 602.748 49.7574 610.314 49.7574 615.009 49.7574 618.532 52.4386 620.984 57.7727 621.694 51.9087 622.403 46.0447 623.113 40.1807 624.431 29.2854 625.101 22.5886 625.127 20.0903 625.153 17.592 624.928 15.8922 624.452 14.9897 623.976 14.0879 623.3 13.6364 622.42 13.6364 621.466 13.6364 620.13 14.1929 618.403 15.302 618.326 14.0875 618.25 12.8731 618.176 11.6586 623.667 7.78721 629.085 3.90117 634.428 1.79052e-06ZM551.818 1.79052e-06C552.625 1.79052e-06 553.431 1.79052e-06 554.238 1.79052e-06 545.319 36.7455 536.399 73.491 527.48 110.237 524.768 121.409 523.275 128.228 523.005 130.691 522.736 133.155 522.847 134.873 523.338 135.844 523.83 136.816 524.561 137.301 525.529 137.301 526.716 137.301 528.438 136.713 530.686 135.532 530.648 136.746 530.611 137.961 530.575 139.175 523.656 143.109 516.666 147.03 509.605 150.938 508.575 150.938 507.545 150.938 506.515 150.938 507.685 146.392 508.855 141.847 510.024 137.301 505.819 142.169 501.986 145.65 498.567 147.763 495.138 149.883 491.756 150.938 488.442 150.938 481.723 150.938 477.099 146.597 474.817 137.874 472.543 129.179 473.68 117.974 477.98 104.303 482.279 90.632 488.777 78.1631 497.186 66.7769 505.536 55.4704 513.351 49.7574 520.917 49.7574 525.612 49.7574 528.769 52.4365 530.494 57.7727 532.003 51.9087 533.513 46.0447 535.022 40.1807 537.826 29.2854 539.409 22.5884 539.776 20.0903 540.143 17.5919 540.151 15.8921 539.797 14.9897 539.444 14.0878 538.829 13.6364 537.95 13.6364 536.996 13.6364 535.584 14.1928 533.706 15.302 533.794 14.0875 533.885 12.873 533.976 11.6586 539.995 7.78671 545.943 3.90068 551.818 1.79052e-06ZM447.791 1.79052e-06C448.597 1.79052e-06 449.404 1.79052e-06 450.211 1.79052e-06 434.98 36.7455 419.749 73.491 404.518 110.237 399.887 121.409 397.223 128.227 396.53 130.691 395.837 133.155 395.654 134.873 395.978 135.844 396.302 136.816 396.95 137.301 397.918 137.301 399.105 137.301 400.928 136.713 403.379 135.532 403.133 136.746 402.887 137.96 402.643 139.175 395.049 143.109 387.385 147.029 379.652 150.938 378.622 150.938 377.592 150.938 376.562 150.938 378.512 146.392 380.463 141.847 382.414 137.301 377.372 142.169 372.941 145.65 369.16 147.763 365.366 149.883 361.803 150.938 358.489 150.938 351.77 150.938 347.89 146.588 347.108 137.874 346.327 129.17 349.389 117.974 356.037 104.303 362.685 90.632 371.322 78.1647 381.689 66.7769 391.979 55.472 400.777 49.7574 408.343 49.7574 413.038 49.7574 415.734 52.4329 416.543 57.7727 419.06 51.9087 421.577 46.0447 424.093 40.1807 428.769 29.2854 431.502 22.5883 432.298 20.0903 433.094 17.5917 433.394 15.892 433.195 14.9897 432.997 14.0877 432.46 13.6364 431.58 13.6364 430.627 13.6364 429.119 14.1928 427.05 15.302 427.347 14.0874 427.646 12.873 427.946 11.6586 434.632 7.78604 441.247 3.90002 447.791 1.79052e-06ZM388.474 1.79052e-06C389.98 1.79052e-06 390.734 1.02365 390.753 3.0708 390.772 5.11804 390.05 7.59893 388.571 10.5136 387.092 13.4282 385.283 15.9283 383.134 18.0084 380.981 20.0921 379.12 21.1313 377.561 21.1313 376.003 21.1313 375.206 20.0904 375.187 18.0084 375.168 15.9266 375.932 13.4282 377.464 10.5136 378.995 7.59893 380.834 5.1198 382.969 3.0708 385.101 1.0254 386.932 1.79052e-06 388.474 1.79052e-06ZM359.868 1.79052e-06C360.675 1.79052e-06 361.481 1.79052e-06 362.288 1.79052e-06 338.693 42.1585 315.099 84.3169 291.504 126.475 288.164 132.443 286.223 136.399 285.688 138.342 285.153 140.285 285.183 141.761 285.776 142.766 286.37 143.773 288.245 144.276 291.397 144.276 290.715 145.525 290.032 146.774 289.349 148.023 279.333 148.023 269.316 148.023 259.299 148.023 260.032 146.774 260.764 145.525 261.497 144.276 264.293 144.276 266.465 143.825 268.007 142.922 269.547 142.021 271.205 140.529 272.976 138.446 274.746 136.365 277.323 132.374 280.711 126.475 297.294 97.6064 313.877 68.7374 330.459 39.8684 336.638 29.1119 340.304 22.5015 341.461 20.0383 342.619 17.5743 343.173 15.8919 343.124 14.9897 343.075 14.0876 342.613 13.6364 341.733 13.6364 340.78 13.6364 339.246 14.1927 337.127 15.302 337.526 14.0873 337.928 12.8729 338.331 11.6586 345.58 7.78548 352.759 3.89945 359.868 1.79052e-06ZM166.537 1.79052e-06C167.972 1.79052e-06 169.406 1.79052e-06 170.84 1.79052e-06 117.591 50.6777 62.5039 100.988 5.66423 150.938 3.8726 150.938 2.08097 150.938 0.28934 150.938 57.4842 100.987 112.929 50.6776 166.537 1.79052e-06Z" stroke="#C0504D" stroke-width="2.5" stroke-linecap="butt" stroke-linejoin="round" stroke-miterlimit="10" stroke-opacity="1" fill="#FFFF00" fill-rule="evenodd" fill-opacity="1" transform="matrix(2 0 0 1 3.16666 2.41664)"/></g></g><path d="M2492.81 237.374C2485.19 245.739 2480.42 251.604 2478.72 255.071 2475.58 261.189 2474.4 267.56 2475.24 274.224 2476.07 280.884 2478.65 288.173 2483.04 296.084 2488.58 306.077 2495.05 314.378 2502.48 320.963 2509.93 327.564 2516.15 330.852 2521.08 330.852 2527.77 330.852 2532.66 323.931 2535.31 310.033 2521.14 285.813 2506.97 261.594 2492.81 237.374ZM2183.02 237.374C2173.54 245.739 2167.47 251.605 2165 255.071 2160.5 261.191 2157.91 267.563 2157.26 274.224 2156.61 280.887 2157.58 288.173 2160.21 296.084 2163.53 306.077 2168.15 314.378 2174.12 320.963 2180.1 327.564 2185.58 330.852 2190.51 330.852 2197.21 330.852 2203.63 323.948 2209.37 310.033 2200.59 285.813 2191.8 261.594 2183.02 237.374ZM1866.19 237.374C1854.81 245.737 1847.41 251.605 1844.15 255.071 1838.26 261.192 1834.21 267.566 1832.06 274.224 1829.9 280.89 1829.2 288.173 1830.03 296.084 1831.08 306.077 1833.81 314.378 1838.29 320.963 1842.77 327.563 1847.51 330.852 1852.44 330.852 1859.13 330.852 1867.12 323.958 1876.03 310.033 1872.75 285.813 1869.47 261.594 1866.19 237.374ZM1190.3 237.374C1174.87 245.733 1164.61 251.605 1159.67 255.071 1150.81 261.191 1143.67 267.568 1138.29 274.224 1132.89 280.893 1128.67 288.173 1125.66 296.084 1121.87 306.077 1120.57 314.373 1121.85 320.963 1123.13 327.558 1126.28 330.852 1131.21 330.852 1137.9 330.852 1149.22 323.963 1164.9 310.033 1173.36 285.813 1181.83 261.594 1190.3 237.374ZM810.105 237.374C792.402 245.731 780.54 251.605 774.651 255.071 764.122 261.19 755.245 267.569 748.044 274.224 740.829 280.893 734.62 288.173 729.456 296.084 722.933 306.077 719.375 314.369 718.857 320.963 718.339 327.554 720.583 330.852 725.514 330.852 732.205 330.852 745.414 323.96 764.883 310.033 779.957 285.813 795.031 261.594 810.105 237.374ZM1606.11 169.296C1599.6 169.296 1593.51 173.788 1587.73 182.725 1581.93 191.693 1577.95 204.135 1575.88 220.095 1593.15 220.095 1610.42 220.095 1627.7 220.095 1627.73 207.881 1627.2 199.277 1626.11 194.279 1624.41 186.509 1621.71 180.406 1618 175.958 1614.3 171.523 1610.35 169.296 1606.11 169.296ZM728.848 169.296C722.335 169.296 713.276 173.789 701.581 182.725 689.842 191.693 677.628 204.138 664.994 220.095 682.269 220.095 699.543 220.095 716.818 220.095 724.936 207.879 730.101 199.274 732.318 194.279 735.76 186.502 737.092 180.402 736.325 175.958 735.559 171.519 733.086 169.296 728.848 169.296ZM2721.41 168.255C2717.26 168.255 2714.8 170.444 2713.99 174.813 2713.18 179.188 2715.69 186.845 2721.5 197.818 2727.31 208.774 2736.78 222.87 2750 240.081 2771.32 267.84 2793.07 291.828 2815.53 311.906 2838.09 332.078 2855.27 342.094 2866.8 342.094 2875.41 342.094 2878.08 336.53 2874.64 325.439 2871.19 314.324 2858.37 295.251 2836.35 268.186 2808.8 234.321 2782.83 207.732 2758.78 188.242 2742.44 174.945 2730.04 168.255 2721.41 168.255ZM1492.43 167.423C1485.53 167.423 1478.59 172.925 1471.44 183.87 1461.98 198.34 1454.86 219.401 1450.37 247.159 1445.83 275.196 1446.07 296.699 1451.41 311.594 1456.77 326.539 1464.38 333.974 1473.9 333.974 1481.93 333.974 1490.53 327.689 1499.49 315.029 1503.45 282.274 1507.41 249.519 1511.38 216.764 1512.03 207.325 1511.62 198.723 1510.19 190.948 1508.77 183.178 1506.37 177.317 1502.99 173.356 1499.62 169.406 1496.11 167.423 1492.43 167.423ZM1311.87 167.423C1304.98 167.423 1297.28 172.927 1288.64 183.87 1277.21 198.342 1267.22 219.401 1258.94 247.159 1250.58 275.196 1247.88 296.69 1251.19 311.594 1254.51 326.531 1261.1 333.974 1270.63 333.974 1278.66 333.974 1288.12 327.691 1298.8 315.029 1307.23 282.274 1315.66 249.519 1324.09 216.764 1326.03 207.325 1326.8 198.721 1326.43 190.948 1326.06 183.176 1324.47 177.317 1321.63 173.356 1318.79 169.406 1315.55 167.423 1311.87 167.423ZM1084.51 167.423C1077.61 167.423 1068.97 172.927 1058.45 183.87 1044.53 198.343 1030.93 219.401 1017.88 247.159 1004.7 275.196 998.314 296.678 999.065 311.594 999.817 326.518 1005.13 333.974 1014.66 333.974 1022.69 333.974 1033.23 327.691 1046.08 315.029 1060.14 282.274 1074.2 249.519 1088.25 216.764 1091.82 207.325 1094.06 198.719 1095.02 190.948 1095.99 183.174 1095.4 177.316 1093.24 173.356 1091.09 169.405 1088.19 167.423 1084.51 167.423ZM2261.84 160.344C2278.64 160.344 2295.43 160.344 2312.23 160.344 2313.47 162.912 2314.71 165.479 2315.95 168.047 2314.85 168.047 2313.75 168.047 2312.65 168.047 2309.6 168.047 2307.89 169.366 2307.53 172.003 2307.17 174.64 2308.03 178.179 2310.13 182.62 2312.43 187.478 2315.98 193.242 2320.82 199.9 2346.11 235.12 2371.98 270.236 2398.44 305.244 2389.71 268.759 2380.3 232.318 2370.22 195.945 2368.08 188.169 2365.95 182.273 2363.88 178.248 2362.88 176.305 2361.75 174.71 2360.48 173.46 2358.54 171.379 2356.71 169.956 2354.99 169.192 2353.26 168.429 2350.36 168.047 2346.29 168.047 2344.99 165.479 2343.69 162.912 2342.4 160.344 2354.05 160.344 2365.7 160.344 2377.36 160.344 2378.72 162.912 2380.09 165.479 2381.45 168.047 2377.67 168.603 2375.61 170.06 2375.28 172.419 2374.71 176.584 2375.85 183.518 2378.66 193.238 2393.98 247.647 2407.78 302.218 2420.01 356.875 2418.17 356.875 2416.34 356.875 2414.5 356.875 2373.92 303.482 2334.68 249.832 2296.85 195.945 2291.66 188.454 2287.54 183.073 2284.48 179.81 2281.42 176.55 2278.17 173.809 2274.73 171.586 2272.83 170.338 2269.67 169.158 2265.26 168.047 2264.12 165.479 2262.98 162.912 2261.84 160.344ZM2807.49 154.723C2809.16 154.723 2810.83 154.723 2812.5 154.723 2824.15 168.186 2835.81 181.649 2847.47 195.112 2837 168.099 2836.91 154.723 2848.24 154.723 2854.06 154.723 2861.41 157.333 2870.32 162.53 2879.26 167.742 2890.42 176.317 2903.84 188.242 2913.2 196.575 2925.75 209.338 2941.48 226.549 2966.29 253.683 2991.09 280.817 3015.89 307.951 3026.93 320.026 3035.03 328.216 3040.2 332.517 3044.34 335.988 3048.39 338.695 3052.35 340.637 3056.3 342.581 3061.22 343.551 3067.08 343.551 3069.39 346.049 3071.71 348.548 3074.02 351.046 3053.81 351.046 3033.6 351.046 3013.38 351.046 3011.17 348.548 3008.96 346.049 3006.74 343.551 3007.59 343.551 3008.43 343.551 3009.27 343.551 3014.96 343.551 3017.72 342.198 3017.56 339.492 3017.39 336.785 3015.37 332.793 3011.51 327.521 3009.99 325.438 3004.3 318.915 2994.44 307.951 2971.03 281.927 2947.62 255.903 2924.22 229.88 2908.61 212.53 2895.98 199.942 2886.34 192.093 2876.73 184.259 2868.89 180.33 2862.8 180.33 2853.38 180.33 2851.99 189.314 2858.1 207.395 2887.12 240.914 2916.14 274.432 2945.15 307.951 2956.33 320.859 2963.72 328.84 2967.34 331.893 2972.06 335.919 2976.32 338.868 2980.12 340.741 2983.93 342.615 2989.16 343.551 2995.82 343.551 2998.02 346.049 3000.21 348.548 3002.41 351.046 2982.2 351.046 2961.98 351.046 2941.77 351.046 2939.68 348.548 2937.58 346.049 2935.49 343.551 2936.37 343.551 2937.26 343.551 2938.15 343.551 2944.36 343.551 2946.48 341.085 2944.46 336.16 2942.44 331.231 2935.51 321.83 2923.7 307.951 2903.62 284.356 2883.54 260.761 2863.46 237.166 2843.97 214.265 2831.79 200.318 2826.94 195.32 2822.09 190.325 2818.29 186.924 2815.53 185.119 2812.77 183.315 2810.36 182.412 2808.3 182.412 2806.08 182.412 2804.3 183.455 2802.95 185.535 2800.26 183.037 2797.57 180.539 2794.89 178.04 2799.26 170.295 2803.47 162.521 2807.49 154.723ZM2714.36 154.723C2730.5 154.723 2752.31 165.767 2780.23 187.617 2804.19 206.412 2826.41 227.867 2846.57 252.156 2860.74 269.227 2872.61 286.482 2881.95 303.995 2891.26 321.458 2894.92 334.68 2892.93 343.551 2890.94 352.446 2884.13 356.875 2872.76 356.875 2854.21 356.875 2830.62 345.506 2802.42 322.524 2778.79 303.289 2758.12 281.58 2740.07 257.569 2726.93 240.081 2716.47 222.673 2708.44 205.417 2700.38 188.113 2697.15 175.378 2698.77 167.11 2700.39 158.861 2705.51 154.723 2714.36 154.723ZM2627.64 154.723C2629.34 154.723 2631.05 154.723 2632.76 154.723 2669.97 205.799 2707.19 256.875 2744.41 307.951 2753.1 319.887 2759.44 327.834 2763.43 331.789 2767.42 335.746 2771.21 338.695 2774.8 340.637 2778.4 342.581 2783.09 343.551 2788.86 343.551 2790.71 346.049 2792.56 348.548 2794.41 351.046 2774.56 351.046 2754.7 351.046 2734.85 351.046 2733.09 348.548 2731.34 346.049 2729.59 343.551 2735.54 343.551 2738.9 342.65 2739.66 340.845 2740.42 339.041 2739.91 336.055 2738.13 331.893 2736.35 327.728 2731.24 319.748 2722.82 307.951 2705.33 283.454 2687.84 258.957 2670.36 234.46 2655.59 213.78 2645.67 200.388 2640.59 194.279 2636.87 189.839 2633.79 186.75 2631.36 185.015 2628.94 183.28 2626.7 182.412 2624.64 182.412 2622.42 182.412 2620.46 183.456 2618.75 185.535 2616.44 183.037 2614.13 180.539 2611.83 178.04 2617.27 170.298 2622.54 162.524 2627.64 154.723ZM2541.57 154.723C2552.05 154.723 2563.99 159.709 2577.52 169.609 2591.12 179.557 2601.66 189.838 2608.99 200.525 2612.61 205.799 2614.56 210.066 2614.8 213.328 2615.05 216.59 2613.37 218.221 2609.79 218.221 2604.99 218.221 2599.59 215.588 2593.62 210.31 2590.3 207.396 2585.68 201.845 2579.76 193.654 2573.85 185.467 2568.07 179.224 2562.45 174.917 2556.93 170.758 2551.75 168.672 2546.89 168.672 2539.04 168.672 2536.08 173.801 2537.83 184.078 2540.13 197.669 2548.23 215.653 2562.41 237.999 2576.86 260.761 2592.99 280.893 2611.06 298.27 2629.22 315.73 2644.42 324.398 2656.43 324.398 2665.02 324.398 2669.65 319.75 2670.13 310.449 2670.59 304.066 2667.32 292.457 2660.21 275.681 2662.11 276.653 2664 277.625 2665.9 278.596 2680.05 303.694 2687.02 323.047 2686.62 336.577 2686.22 350.112 2679.96 356.875 2668.23 356.875 2654.25 356.875 2636.22 347.846 2614.48 329.603 2592.88 311.482 2572.66 286.854 2553.46 255.903 2534.86 225.924 2525.06 201.553 2523.41 182.829 2521.76 164.079 2527.6 154.723 2541.57 154.723ZM2428.16 154.723C2437.62 154.723 2447.04 157.58 2456.48 163.259 2463.64 167.568 2471.06 174.3 2478.75 183.453 2483.75 189.424 2491.79 201.635 2502.86 220.095 2515.81 241.677 2528.75 263.259 2541.69 284.842 2552.59 303.024 2559.49 314.162 2562.38 318.256 2565.28 322.351 2567.65 325.092 2569.49 326.48 2571.33 327.868 2572.92 328.562 2574.24 328.562 2575.64 328.562 2576.58 328.076 2577.05 327.104 2577.79 325.301 2578.28 320.234 2578.39 311.906 2580.77 315.793 2583.16 319.679 2585.54 323.565 2588.5 344.365 2585.11 354.793 2575.99 354.793 2571.61 354.793 2566.72 352.438 2561.36 347.715 2556.01 343 2549.97 334.946 2543.23 323.565 2539.72 338.721 2536.77 347.44 2534.9 349.797 2532.06 353.272 2527.89 355.002 2522.43 355.002 2513.93 355.002 2504.44 350.507 2494.05 341.469 2483.7 332.464 2474.6 320.581 2466.66 305.869 2461.64 296.57 2458.59 288.518 2457.45 281.719 2455.82 272.277 2456.99 263.417 2460.86 255.071 2464.71 246.762 2472.98 236.694 2485.38 224.675 2483.92 222.176 2482.45 219.678 2480.99 217.18 2469.87 198.165 2460.5 185.128 2452.94 178.04 2445.4 170.971 2438.4 167.423 2431.9 167.423 2426.96 167.423 2424.38 169.783 2424.12 174.501 2423.77 179.221 2425.28 184.633 2428.68 190.74 2431.01 194.765 2433.33 198.79 2435.66 202.815 2439.22 209.199 2441.02 214.126 2441.04 217.596 2441.05 221.066 2439.5 222.801 2436.4 222.801 2433.38 222.801 2429.92 220.999 2426.04 217.388 2422.16 213.782 2418.54 208.852 2415.15 202.607 2408.67 190.67 2406.25 179.713 2407.65 169.713 2409.06 159.727 2415.81 154.723 2428.16 154.723ZM2136.74 154.723C2146.21 154.723 2155 157.581 2163.17 163.259 2169.37 167.568 2175.29 174.3 2180.95 183.453 2184.62 189.424 2189.95 201.635 2196.92 220.095 2205.06 241.677 2213.21 263.259 2221.35 284.842 2228.21 303.024 2232.63 314.162 2234.62 318.256 2236.6 322.351 2238.36 325.092 2239.9 326.48 2241.43 327.868 2242.86 328.562 2244.18 328.562 2245.59 328.562 2246.63 328.076 2247.31 327.104 2248.46 325.301 2250.08 320.241 2252.04 311.906 2253.56 315.793 2255.08 319.679 2256.6 323.565 2254.93 344.395 2249.23 354.793 2240.1 354.793 2235.72 354.793 2231.36 352.438 2227.05 347.715 2222.75 343 2218.5 334.946 2214.28 323.565 2207.4 338.741 2202.51 347.44 2200.13 349.797 2196.51 353.272 2191.96 355.002 2186.5 355.002 2178 355.002 2169.51 350.507 2161.13 341.469 2152.77 332.464 2146.31 320.581 2141.64 305.869 2138.69 296.57 2137.43 288.52 2137.81 281.719 2138.28 272.282 2141.41 263.421 2147.14 255.071 2152.83 246.766 2163.35 236.692 2178.41 224.675 2177.51 222.176 2176.6 219.678 2175.69 217.18 2168.8 198.165 2162.33 185.128 2156.34 178.04 2150.37 170.971 2144.17 167.423 2137.66 167.423 2132.73 167.423 2129.62 169.785 2128.31 174.501 2126.91 179.223 2127.21 184.633 2129.26 190.74 2130.69 194.765 2132.12 198.79 2133.55 202.815 2135.69 209.199 2136.4 214.128 2135.65 217.596 2134.89 221.067 2132.95 222.801 2129.85 222.801 2126.83 222.801 2123.77 220.999 2120.69 217.388 2117.62 213.782 2115.09 208.852 2113.09 202.607 2109.26 190.67 2109.27 179.722 2112.91 169.713 2116.53 159.736 2124.4 154.723 2136.74 154.723ZM1838.7 154.723C1848.17 154.723 1856.31 157.581 1863.19 163.259 1868.41 167.569 1872.8 174.298 1876.38 183.453 1878.7 189.423 1881.25 201.635 1884.02 220.095 1887.26 241.677 1890.5 263.259 1893.74 284.842 1896.46 303.024 1898.35 314.162 1899.4 318.256 1900.46 322.351 1901.59 325.092 1902.81 326.48 1904.04 327.868 1905.31 328.562 1906.63 328.562 1908.03 328.562 1909.19 328.076 1910.09 327.104 1911.65 325.301 1914.41 320.245 1918.27 311.906 1918.9 315.793 1919.54 319.679 1920.18 323.565 1913.77 344.423 1905.71 354.793 1896.58 354.793 1892.2 354.793 1888.38 352.438 1885.14 347.715 1881.91 343 1879.49 334.946 1877.86 323.565 1867.52 338.752 1860.67 347.44 1857.74 349.797 1853.34 353.272 1848.39 355.002 1842.93 355.002 1834.43 355.002 1826.96 350.506 1820.63 341.469 1814.33 332.463 1810.57 320.581 1809.25 305.869 1808.41 296.57 1808.98 288.523 1810.9 281.719 1813.52 272.287 1818.66 263.423 1826.29 255.071 1833.87 246.768 1846.68 236.688 1864.47 224.675 1864.14 222.176 1863.8 219.678 1863.46 217.18 1860.88 198.165 1857.38 185.127 1853.01 178.04 1848.64 170.97 1843.24 167.423 1836.74 167.423 1831.8 167.423 1828.16 169.786 1825.77 174.501 1823.3 179.224 1822.38 184.633 1823.04 190.74 1823.55 194.765 1824.07 198.79 1824.58 202.815 1825.27 209.199 1824.86 214.128 1823.32 217.596 1821.77 221.068 1819.44 222.801 1816.34 222.801 1813.31 222.801 1810.67 220.999 1808.41 217.388 1806.16 213.782 1804.75 208.852 1804.17 202.607 1803.05 190.67 1805.55 179.729 1811.46 169.713 1817.35 159.742 1826.36 154.723 1838.7 154.723ZM1202.89 154.723C1212.36 154.723 1219.11 157.581 1223.24 163.259 1226.37 167.568 1227.5 174.291 1226.64 183.453 1226.05 189.421 1222.69 201.635 1216.5 220.095 1209.28 241.677 1202.05 263.259 1194.82 284.842 1188.73 303.024 1185.21 314.161 1184.28 318.256 1183.35 322.35 1183.16 325.092 1183.7 326.48 1184.25 327.868 1185.19 328.562 1186.5 328.562 1187.91 328.562 1189.3 328.076 1190.67 327.104 1193.11 325.301 1198.32 320.249 1206.22 311.906 1204.98 315.793 1203.73 319.679 1202.48 323.565 1185.93 344.451 1172.87 354.793 1163.74 354.793 1159.36 354.793 1156.68 352.436 1155.73 347.715 1154.79 342.998 1156.27 334.946 1160.17 323.565 1142.45 338.756 1131.39 347.44 1127.32 349.797 1121.23 353.272 1115.45 355.002 1109.99 355.002 1101.49 355.002 1096.2 350.498 1094.25 341.469 1092.32 332.455 1094.32 320.581 1100.13 305.869 1103.8 296.57 1108.27 288.526 1113.5 281.719 1120.68 272.292 1130.14 263.422 1141.81 255.071 1153.42 246.767 1171.14 236.678 1194.74 224.675 1195.61 222.176 1196.48 219.678 1197.36 217.18 1204 198.165 1206.82 185.121 1205.88 178.04 1204.95 170.964 1201.27 167.423 1194.77 167.423 1189.83 167.423 1185.04 169.787 1180.37 174.501 1175.61 179.225 1172.06 184.633 1169.76 190.74 1168.32 194.765 1166.88 198.79 1165.45 202.815 1163.04 209.199 1160.23 214.129 1157.01 217.596 1153.78 221.069 1150.61 222.801 1147.51 222.801 1144.49 222.801 1142.71 220.997 1142.21 217.388 1141.7 213.78 1142.68 208.852 1145.13 202.607 1149.81 190.67 1157.61 179.732 1168.38 169.713 1179.1 159.745 1190.55 154.723 1202.89 154.723ZM1004.99 154.723C1006.7 154.723 1008.4 154.723 1010.11 154.723 984.111 205.799 958.11 256.875 932.109 307.951 926.033 319.887 922.534 327.832 921.626 331.789 920.718 335.743 920.86 338.695 922.05 340.637 923.241 342.581 926.728 343.551 932.499 343.551 931.259 346.049 930.018 348.548 928.777 351.046 908.922 351.046 889.066 351.046 869.211 351.046 870.551 348.548 871.891 346.049 873.23 343.551 879.179 343.551 883.653 342.65 886.647 340.845 889.637 339.042 892.823 336.058 896.199 331.893 899.573 327.73 904.345 319.748 910.524 307.951 923.356 283.454 936.187 258.957 949.019 234.46 959.851 213.78 966.503 200.385 968.987 194.279 970.757 189.837 971.504 186.75 971.226 185.015 970.949 183.28 969.783 182.412 967.722 182.412 965.503 182.412 962.254 183.455 957.964 185.535 958.748 183.036 959.535 180.538 960.324 178.04 975.353 170.294 990.241 162.522 1004.99 154.723ZM845.247 154.723C854.715 154.723 860.686 157.578 863.264 163.259 865.22 167.567 864.516 174.288 861.153 183.453 858.945 189.419 852.245 201.635 841.027 220.095 827.91 241.677 814.794 263.259 801.678 284.842 790.628 303.024 784.076 314.161 782.025 318.256 779.976 322.35 779.035 325.092 779.204 326.48 779.373 327.868 780.118 328.562 781.437 328.562 782.844 328.562 784.367 328.076 786.005 327.104 788.932 325.301 795.522 320.248 805.699 311.906 803.392 315.793 801.084 319.679 798.776 323.565 776.529 344.453 760.642 354.793 751.517 354.793 747.134 354.793 745.095 352.433 745.437 347.715 745.78 342.995 749.465 334.946 756.461 323.565 734.607 338.753 721.174 347.439 716.462 349.797 709.424 353.271 703.165 355.002 697.707 355.002 689.208 355.002 685.144 350.489 685.665 341.469 686.186 332.446 691.432 320.581 701.255 305.869 707.464 296.57 714.127 288.526 721.21 281.719 730.965 272.292 742.841 263.42 756.791 255.071 770.668 246.765 791.146 236.673 818.009 224.675 819.563 222.176 821.118 219.678 822.673 217.18 834.508 198.165 840.882 185.116 841.879 178.04 842.876 170.959 840.162 167.423 833.658 167.423 828.721 167.423 823.287 169.787 817.328 174.501 811.278 179.225 806.254 184.633 802.286 190.74 799.751 194.765 797.216 198.79 794.682 202.815 790.535 209.199 786.383 214.129 782.214 217.596 778.039 221.069 774.393 222.801 771.29 222.801 768.27 222.801 766.988 220.996 767.467 217.388 767.947 213.779 770.273 208.852 774.424 202.607 782.356 190.67 793.141 179.731 806.646 169.713 820.084 159.744 832.906 154.723 845.247 154.723ZM1613.43 154.515C1625.38 154.515 1634.9 161.593 1642.32 175.646 1649.77 189.768 1653.45 208.575 1653.03 232.17 1627.02 232.17 1601 232.17 1574.98 232.17 1572.81 260.484 1575.31 282.727 1582.86 298.79 1590.44 314.927 1600.33 322.94 1612.16 322.94 1620.04 322.94 1627.02 319.519 1633.03 312.635 1639.01 305.778 1644.13 294.012 1648.29 277.347 1649.58 278.735 1650.87 280.123 1652.16 281.511 1650.04 300.528 1644.43 317.881 1635.11 333.454 1625.73 349.109 1614.06 356.875 1600.44 356.875 1585.66 356.875 1573.53 348.008 1564.52 330.123 1555.56 312.338 1552.62 288.311 1555.23 258.193 1558.05 225.577 1565.18 200.2 1576.14 181.892 1587.04 163.698 1599.3 154.515 1613.43 154.515ZM745.945 154.515C757.896 154.515 762.742 161.548 760.852 175.646 758.965 189.723 750.19 208.575 734.159 232.17 708.143 232.17 682.127 232.17 656.111 232.17 635.2 260.484 622.987 282.673 619.896 298.79 616.811 314.873 621.39 322.94 633.212 322.94 641.093 322.94 650.345 319.518 660.902 312.635 671.42 305.777 684.317 294.024 699.518 277.347 699.887 278.735 700.26 280.123 700.636 281.511 685.921 300.537 668.833 317.885 649.205 333.454 629.463 349.114 612.659 356.875 599.043 356.875 584.262 356.875 578.005 347.939 580.82 330.123 583.642 312.269 596.596 288.311 619.131 258.193 643.536 225.577 667.455 200.206 690.542 181.892 713.469 163.704 731.822 154.515 745.945 154.515ZM653.916 84.563C649.656 84.563 642.792 85.8855 633.298 88.5186 600.466 127.658 567.634 166.798 534.802 205.938 536.334 205.938 537.636 205.972 538.707 206.042 539.778 206.111 540.677 206.146 541.403 206.146 557.05 206.146 573.612 200.348 590.92 188.658 608.135 177.031 623.869 162.148 638.289 144.105 652.375 126.479 660.794 112.135 663.768 101.114 666.749 90.0669 663.54 84.563 653.916 84.563ZM607.898 68.7405C625.811 68.7405 643.724 68.7405 661.638 68.7405 677.303 68.7405 687.074 70.9397 691.033 75.2985 695.017 79.6837 694.995 87.7057 691.093 99.4485 687.201 111.162 679.033 125.16 666.38 141.399 652.862 158.748 637.943 173.837 621.46 186.576 604.901 199.375 587.544 208.381 569.459 213.641 559.008 240.561 549.193 267.563 540.032 294.627 533.709 313.193 531.404 325.583 532.782 331.684 534.164 337.797 539.195 341.68 547.784 343.343 545.85 345.911 543.915 348.478 541.981 351.046 525.829 351.046 509.677 351.046 493.526 351.046 507.66 306.875 523.56 262.844 541.143 219.054 536.76 219.331 533.265 219.47 530.659 219.47 529.6 219.47 528.489 219.435 527.325 219.366 526.162 219.297 524.986 219.192 523.8 219.054 500.864 246.396 477.928 273.738 454.992 301.081 440.09 318.846 432.059 329.878 430.931 334.183 429.177 340.286 431.704 343.343 438.451 343.343 440.804 343.343 443.156 343.343 445.509 343.343 443.4 345.911 441.29 348.478 439.181 351.046 413.258 351.046 387.334 351.046 361.411 351.046 363.653 348.478 365.895 345.911 368.137 343.343 370.401 343.343 372.665 343.343 374.929 343.343 382.564 343.343 391.372 339.465 401.308 331.684 406.845 327.384 416.495 317.181 430.274 301.081 482.299 240.289 534.325 179.498 586.35 118.706 601.554 100.941 609.958 89.9042 611.591 85.6039 613.967 79.4923 612.375 76.4436 606.755 76.4436 604.894 76.4436 603.033 76.4436 601.172 76.4436 603.414 73.8759 605.656 71.3082 607.898 68.7405ZM1990.11 62.2867C1997.9 62.2867 2007.14 65.9892 2017.95 73.3207 2022.99 76.7959 2026.37 78.5255 2028.05 78.5255 2029.95 78.5255 2031.2 77.4503 2031.78 75.2985 2032.37 73.1478 2032.08 68.8092 2030.91 62.2867 2032.24 62.2867 2033.58 62.2867 2034.91 62.2867 2044.46 94.8337 2054.01 127.381 2063.55 159.928 2062.11 159.928 2060.67 159.928 2059.23 159.928 2052.39 141.197 2045.63 126.284 2038.96 115.167 2032.31 104.077 2024.93 95.2663 2016.8 88.7268 2008.7 82.2197 2001.33 78.9418 1994.61 78.9418 1987 78.9418 1981.82 83.3591 1978.93 92.1619 1976.03 100.986 1975.83 111.003 1978.47 122.245 1980.5 130.851 1983.98 138.701 1988.98 145.771 1996.26 156.198 2011.16 170.174 2034.14 187.409 2053.12 201.642 2066.68 212.442 2074.51 219.991 2082.37 227.57 2089.39 236.482 2095.56 246.743 2101.74 257.024 2106.56 267.77 2109.95 279.012 2116.39 300.387 2116.82 318.848 2110.79 334.287 2104.73 349.799 2093.05 357.5 2076.2 357.5 2070.91 357.5 2065.78 356.876 2060.8 355.626 2057.85 354.933 2051.47 352.409 2041.71 348.027 2031.99 343.665 2026 341.469 2023.7 341.469 2021.48 341.469 2019.97 342.511 2019.15 344.592 2018.34 346.675 2018.36 350.976 2019.2 357.5 2017.54 357.5 2015.88 357.5 2014.23 357.5 2007.05 325.231 1999.87 292.961 1992.69 260.692 1994.24 260.692 1995.8 260.692 1997.35 260.692 2004.11 280.965 2010.57 296.13 2016.71 306.181 2022.86 316.255 2030.72 324.623 2040.29 331.268 2049.91 337.947 2059.55 341.261 2069.13 341.261 2080.21 341.261 2087.74 336.695 2091.56 327.521 2095.37 318.374 2095.41 307.534 2091.84 295.043 2089.86 288.103 2086.68 281.099 2082.34 274.016 2078.01 266.942 2072.57 260.355 2066.04 254.238 2061.64 250.079 2050.36 241.293 2032.55 227.694 2014.91 214.228 2002.32 203.388 1994.54 195.32 1986.78 187.288 1980.33 178.396 1975.17 168.672 1970.01 158.965 1966.18 148.269 1963.6 136.61 1959.12 116.347 1959.5 98.9223 1964.35 84.2507 1969.18 69.6369 1977.63 62.2867 1990.11 62.2867ZM2639.35 61.6621C2647.43 61.6621 2655.5 61.6621 2663.58 61.6621 2672.3 85.5365 2680.43 109.486 2687.94 133.488 2686.64 133.488 2685.34 133.488 2684.05 133.488 2669.35 109.513 2654.45 85.5703 2639.35 61.6621ZM2551.17 55C2554.18 55 2558.23 57.0507 2563.33 61.1416 2568.44 65.2395 2573.13 70.1979 2577.39 76.0272 2581.64 81.8565 2584.21 86.8516 2585.07 91.0168 2585.92 95.1792 2584.77 97.2626 2581.65 97.2626 2578.53 97.2626 2574.37 95.1843 2569.17 91.0168 2563.98 86.8567 2559.32 81.8565 2555.17 76.0272 2551.02 70.1979 2548.56 65.2347 2547.76 61.1416 2546.96 57.0459 2548.08 55 2551.17 55ZM2187.99 55C2189.61 55 2191.22 55 2192.83 55 2228.7 139.317 2264.58 223.634 2300.45 307.951 2305.53 319.887 2309.44 327.8 2312.2 331.684 2314.96 335.572 2317.92 338.521 2321.09 340.532 2324.26 342.546 2329 343.551 2335.31 343.551 2336.4 346.049 2337.5 348.548 2338.59 351.046 2318.56 351.046 2298.53 351.046 2278.49 351.046 2277.5 348.548 2276.5 346.049 2275.5 343.551 2281.1 343.551 2284.55 342.65 2285.86 340.845 2287.16 339.042 2287.54 336.056 2286.98 331.893 2286.42 327.728 2283.71 319.748 2278.86 307.951 2255.15 250.213 2231.44 192.475 2207.72 134.737 2198.89 113.224 2193.2 100.005 2190.66 95.0766 2188.12 90.1502 2185.91 86.7845 2184.04 84.9793 2182.16 83.1759 2180.35 82.2729 2178.59 82.2729 2176.68 82.2729 2174.71 83.3858 2172.66 85.6039 2171.06 83.1756 2169.48 80.7467 2167.89 78.3173 2174.75 70.576 2181.45 62.8033 2187.99 55ZM1753.52 55C1755.14 55 1756.75 55 1758.36 55 1763.99 139.317 1769.62 223.634 1775.25 307.951 1776.05 319.887 1777.12 327.799 1778.49 331.684 1779.85 335.572 1781.76 338.521 1784.21 340.532 1786.66 342.547 1791.04 343.551 1797.34 343.551 1797.54 346.049 1797.74 348.548 1797.94 351.046 1777.91 351.046 1757.87 351.046 1737.84 351.046 1737.74 348.548 1737.64 346.049 1737.54 343.551 1743.13 343.551 1746.91 342.65 1748.86 340.845 1750.81 339.042 1752.26 336.057 1753.19 331.893 1754.13 327.729 1754.28 319.748 1753.67 307.951 1750.66 250.213 1747.66 192.475 1744.66 134.737 1743.54 113.224 1742.59 100.004 1741.82 95.0766 1741.04 90.1497 1740.05 86.7844 1738.82 84.9793 1737.59 83.1758 1736.1 82.2729 1734.34 82.2729 1732.43 82.2729 1730.06 83.3858 1727.21 85.6039 1726.49 83.1754 1725.77 80.7465 1725.06 78.3173 1734.7 70.5755 1744.19 62.8033 1753.52 55ZM1543.86 55C1545.47 55 1547.08 55 1548.7 55 1540.88 128.491 1533.07 201.982 1525.25 275.473 1522.88 297.819 1521.75 311.455 1521.88 316.382 1522.02 321.31 1522.71 324.746 1523.95 326.688 1525.2 328.632 1526.8 329.603 1528.73 329.603 1531.11 329.603 1534.39 328.425 1538.57 326.063 1538.82 328.492 1539.08 330.921 1539.34 333.35 1526.57 341.22 1513.66 349.061 1500.61 356.875 1498.55 356.875 1496.49 356.875 1494.42 356.875 1495.52 347.784 1496.62 338.693 1497.72 329.603 1490.64 339.336 1483.92 346.3 1477.66 350.526 1471.38 354.766 1464.91 356.875 1458.28 356.875 1444.84 356.875 1434.41 348.206 1427.47 330.748 1420.55 313.369 1419.76 290.949 1424.63 263.606 1429.5 236.264 1439.1 211.32 1452.81 188.554 1466.43 165.935 1480.5 154.515 1495.63 154.515 1505.02 154.515 1512.06 159.877 1516.97 170.545 1518.39 158.817 1519.81 147.089 1521.23 135.361 1523.86 113.571 1525.2 100.177 1525.25 95.1806 1525.31 90.1841 1524.86 86.7844 1523.9 84.9793 1522.95 83.1757 1521.6 82.2729 1519.84 82.2729 1517.93 82.2729 1515.26 83.3858 1511.81 85.6039 1511.65 83.1751 1511.5 80.7462 1511.35 78.3173 1522.33 70.5744 1533.17 62.8023 1543.86 55ZM1378.64 55C1380.25 55 1381.86 55 1383.48 55 1365.64 128.491 1347.8 201.982 1329.96 275.473 1324.54 297.819 1321.55 311.455 1321.01 316.382 1320.47 321.309 1320.69 324.746 1321.68 326.688 1322.66 328.632 1324.12 329.603 1326.06 329.603 1328.43 329.603 1331.88 328.425 1336.37 326.063 1336.3 328.492 1336.22 330.921 1336.15 333.35 1322.31 341.219 1308.33 349.06 1294.21 356.875 1292.15 356.875 1290.09 356.875 1288.03 356.875 1290.37 347.784 1292.71 338.693 1295.05 329.603 1286.64 339.337 1278.97 346.3 1272.13 350.526 1265.28 354.766 1258.51 356.875 1251.88 356.875 1238.45 356.875 1229.2 348.194 1224.63 330.748 1220.09 313.357 1222.36 290.949 1230.96 263.606 1239.56 236.264 1252.55 211.326 1269.37 188.554 1286.07 165.941 1301.7 154.515 1316.83 154.515 1326.22 154.515 1332.54 159.873 1335.99 170.545 1339.01 158.817 1342.03 147.089 1345.04 135.361 1350.65 113.571 1353.82 100.177 1354.55 95.1806 1355.29 90.1838 1355.3 86.7843 1354.59 84.9793 1353.89 83.1756 1352.66 82.2729 1350.9 82.2729 1348.99 82.2729 1346.17 83.3857 1342.41 85.6039 1342.59 83.175 1342.77 80.7461 1342.95 78.3173 1354.99 70.5734 1366.89 62.8014 1378.64 55ZM1170.58 55C1172.19 55 1173.81 55 1175.42 55 1144.96 128.491 1114.5 201.982 1084.04 275.473 1074.77 297.819 1069.45 311.455 1068.06 316.382 1066.67 321.309 1066.31 324.745 1066.96 326.688 1067.6 328.632 1068.9 329.603 1070.84 329.603 1073.21 329.603 1076.86 328.425 1081.76 326.063 1081.27 328.492 1080.77 330.921 1080.29 333.35 1065.1 341.218 1049.77 349.059 1034.3 356.875 1032.24 356.875 1030.18 356.875 1028.12 356.875 1032.02 347.784 1035.93 338.693 1039.83 329.603 1029.74 339.337 1020.88 346.299 1013.32 350.526 1005.73 354.766 998.606 356.875 991.977 356.875 978.54 356.875 970.781 348.176 969.217 330.748 967.654 313.339 973.779 290.949 987.074 263.606 1000.37 236.264 1017.64 211.329 1038.38 188.554 1058.96 165.944 1076.55 154.515 1091.69 154.515 1101.08 154.515 1106.47 159.866 1108.09 170.545 1113.12 158.817 1118.15 147.089 1123.19 135.361 1132.54 113.571 1138 100.177 1139.6 95.1806 1141.19 90.1834 1141.79 86.784 1141.39 84.9793 1140.99 83.1754 1139.92 82.2729 1138.16 82.2729 1136.25 82.2729 1133.24 83.3856 1129.1 85.6039 1129.69 83.1748 1130.29 80.7459 1130.89 78.3173 1144.26 70.5721 1157.49 62.8 1170.58 55ZM1051.95 55C1054.96 55 1056.47 57.0473 1056.51 61.1416 1056.54 65.2361 1055.1 70.1979 1052.14 76.0272 1049.18 81.8565 1045.57 86.8567 1041.27 91.0168 1036.96 95.1843 1033.24 97.2626 1030.12 97.2626 1027.01 97.2626 1025.41 95.1807 1025.37 91.0168 1025.34 86.8531 1026.86 81.8565 1029.93 76.0272 1032.99 70.1979 1036.67 65.2396 1040.94 61.1416 1045.2 57.0508 1048.86 55 1051.95 55ZM994.736 55C996.349 55 997.963 55 999.576 55 952.387 139.317 905.197 223.634 858.008 307.951 851.327 319.887 847.446 327.797 846.376 331.684 845.307 335.57 845.366 338.521 846.551 340.532 847.739 342.546 851.491 343.551 857.795 343.551 856.43 346.049 855.064 348.548 853.699 351.046 833.665 351.046 813.632 351.046 793.598 351.046 795.063 348.548 796.528 346.049 797.993 343.551 803.587 343.551 807.929 342.65 811.014 340.845 814.095 339.042 817.409 336.058 820.952 331.893 824.493 327.73 829.646 319.748 836.423 307.951 869.588 250.213 902.754 192.475 935.919 134.737 948.276 113.224 955.608 100.003 957.922 95.0766 960.237 90.1486 961.346 86.7838 961.248 84.9793 961.15 83.1751 960.225 82.2729 958.466 82.2729 956.559 82.2729 953.492 83.3854 949.253 85.6039 950.053 83.1747 950.856 80.7458 951.662 78.3173 966.16 70.571 980.518 62.7989 994.736 55ZM608.075 55C610.943 55 613.812 55 616.68 55 510.183 156.355 400.008 256.975 286.328 356.875 282.745 356.875 279.162 356.875 275.579 356.875 389.968 256.975 500.858 156.355 608.075 55Z" stroke="#C0504D" stroke-width="5" stroke-linecap="butt" stroke-linejoin="round" stroke-miterlimit="10" stroke-opacity="1" fill="#FFFF00" fill-rule="evenodd" fill-opacity="1"/><text fill="#000000" fill-opacity="0" font-family="Arial,Arial_MSFontService,sans-serif" font-size="302.5" direction="ltr" writing-mode="lr-tb" x="275.579" y="319.687">/Realidad de la Salvacin</text></g></svg>